<?xml version="1.0" encoding="UTF-8" standalone="no"?>
<!DOCTYPE svg PUBLIC "-//W3C//DTD SVG 1.1//EN"
 "http://www.w3.org/Graphics/SVG/1.1/DTD/svg11.dtd">
<!-- Generated by graphviz version 2.43.0 (0)
 -->
<!-- Title: FTensor::Tensor4_times_Tensor2_double&lt; A, B, T, U, Dim0, Dim1, Dim2, Dim3, Dim4, Dim5, i, j, k, l, m, n, DimA, DimB, DimX, DimY, a, b, x, y &gt; Pages: 1 -->
<svg width="726pt" height="116pt"
 viewBox="0.00 0.00 726.00 116.00" xmlns="http://www.w3.org/2000/svg" xmlns:xlink="http://www.w3.org/1999/xlink">
<g id="graph0" class="graph" transform="scale(1 1) rotate(0) translate(4 112)">
<title>FTensor::Tensor4_times_Tensor2_double&lt; A, B, T, U, Dim0, Dim1, Dim2, Dim3, Dim4, Dim5, i, j, k, l, m, n, DimA, DimB, DimX, DimY, a, b, x, y &gt;</title>
<polygon fill="white" stroke="transparent" points="-4,4 -4,-112 722,-112 722,4 -4,4"/>
<!-- Node1 -->
<g id="node1" class="node">
<title>Node1</title>
<g id="a_node1"><a xlink:title=" ">
<polygon fill="#bfbfbf" stroke="black" points="579,-1 579,-75 718,-75 718,-1 579,-1"/>
<text text-anchor="start" x="587" y="-63" font-family="Helvetica,sans-Serif" font-size="10.00">FTensor::Tensor4_times</text>
<text text-anchor="start" x="587" y="-52" font-family="Helvetica,sans-Serif" font-size="10.00">_Tensor2_double&lt; A, B,</text>
<text text-anchor="start" x="587" y="-41" font-family="Helvetica,sans-Serif" font-size="10.00"> T, U, Dim0, Dim1, Dim2,</text>
<text text-anchor="start" x="587" y="-30" font-family="Helvetica,sans-Serif" font-size="10.00"> Dim3, Dim4, Dim5, i, j,</text>
<text text-anchor="start" x="587" y="-19" font-family="Helvetica,sans-Serif" font-size="10.00"> k, l, m, n, DimA, DimB,</text>
<text text-anchor="middle" x="648.5" y="-8" font-family="Helvetica,sans-Serif" font-size="10.00"> DimX, DimY, a, b, x, y &gt;</text>
</a>
</g>
</g>
<!-- Node2 -->
<g id="node2" class="node">
<title>Node2</title>
<g id="a_node2"><a xlink:href="classFTensor_1_1Tensor2__Expr.html" target="_top" xlink:title=" ">
<polygon fill="white" stroke="black" points="364,-61 364,-91 516,-91 516,-61 364,-61"/>
<text text-anchor="start" x="372" y="-79" font-family="Helvetica,sans-Serif" font-size="10.00">FTensor::Tensor2_Expr</text>
<text text-anchor="middle" x="440" y="-68" font-family="Helvetica,sans-Serif" font-size="10.00">&lt; B, U, Dim4, Dim5, m, n &gt;</text>
</a>
</g>
</g>
<!-- Node2&#45;&gt;Node1 -->
<g id="edge1" class="edge">
<title>Node2&#45;&gt;Node1</title>
<path fill="none" stroke="#9a32cd" stroke-dasharray="5,2" d="M526.35,-60.29C543.87,-57.07 562.1,-53.72 578.93,-50.62"/>
<polygon fill="#9a32cd" stroke="#9a32cd" points="525.34,-56.92 516.14,-62.17 526.6,-63.81 525.34,-56.92"/>
<text text-anchor="middle" x="547.5" y="-61" font-family="Helvetica,sans-Serif" font-size="10.00"> iterB</text>
</g>
<!-- Node3 -->
<g id="node3" class="node">
<title>Node3</title>
<g id="a_node3"><a xlink:title=" ">
<polygon fill="white" stroke="#bfbfbf" points="140.5,-88.5 140.5,-107.5 169.5,-107.5 169.5,-88.5 140.5,-88.5"/>
<text text-anchor="middle" x="155" y="-95.5" font-family="Helvetica,sans-Serif" font-size="10.00">B</text>
</a>
</g>
</g>
<!-- Node3&#45;&gt;Node2 -->
<g id="edge2" class="edge">
<title>Node3&#45;&gt;Node2</title>
<path fill="none" stroke="#9a32cd" stroke-dasharray="5,2" d="M179.78,-96.15C219.9,-93.03 302.64,-86.6 363.9,-81.84"/>
<polygon fill="#9a32cd" stroke="#9a32cd" points="179.35,-92.67 169.65,-96.94 179.89,-99.65 179.35,-92.67"/>
<text text-anchor="middle" x="294.5" y="-93" font-family="Helvetica,sans-Serif" font-size="10.00"> iter</text>
</g>
<!-- Node4 -->
<g id="node4" class="node">
<title>Node4</title>
<g id="a_node4"><a xlink:href="classFTensor_1_1Tensor2__Expr.html" target="_top" xlink:title=" ">
<polygon fill="white" stroke="black" points="85,-38 85,-68 225,-68 225,-38 85,-38"/>
<text text-anchor="start" x="93" y="-56" font-family="Helvetica,sans-Serif" font-size="10.00">FTensor::Tensor2_Expr</text>
<text text-anchor="middle" x="155" y="-45" font-family="Helvetica,sans-Serif" font-size="10.00">&lt; A, T, Dim0, Dim1, i, j &gt;</text>
</a>
</g>
</g>
<!-- Node4&#45;&gt;Node2 -->
<g id="edge3" class="edge">
<title>Node4&#45;&gt;Node2</title>
<path fill="none" stroke="orange" stroke-dasharray="5,2" d="M235.61,-51.49C269.7,-51.66 309.9,-52.97 346,-57 354.76,-57.98 363.92,-59.38 372.93,-60.98"/>
<polygon fill="orange" stroke="orange" points="235.25,-47.98 225.24,-51.47 235.23,-54.98 235.25,-47.98"/>
<text text-anchor="start" x="243" y="-71" font-family="Helvetica,sans-Serif" font-size="10.00"> &lt; B, U, Dim4, Dim5,</text>
<text text-anchor="middle" x="294.5" y="-60" font-family="Helvetica,sans-Serif" font-size="10.00"> m, n &gt;</text>
</g>
<!-- Node5 -->
<g id="node5" class="node">
<title>Node5</title>
<g id="a_node5"><a xlink:title=" ">
<polygon fill="white" stroke="#bfbfbf" points="0,-43.5 0,-62.5 29,-62.5 29,-43.5 0,-43.5"/>
<text text-anchor="middle" x="14.5" y="-50.5" font-family="Helvetica,sans-Serif" font-size="10.00">A</text>
</a>
</g>
</g>
<!-- Node5&#45;&gt;Node4 -->
<g id="edge4" class="edge">
<title>Node5&#45;&gt;Node4</title>
<path fill="none" stroke="#9a32cd" stroke-dasharray="5,2" d="M39.19,-53C51.95,-53 68.41,-53 84.87,-53"/>
<polygon fill="#9a32cd" stroke="#9a32cd" points="39.03,-49.5 29.03,-53 39.03,-56.5 39.03,-49.5"/>
<text text-anchor="middle" x="57" y="-56" font-family="Helvetica,sans-Serif" font-size="10.00"> iter</text>
</g>
<!-- Node6 -->
<g id="node6" class="node">
<title>Node6</title>
<g id="a_node6"><a xlink:title=" ">
<polygon fill="white" stroke="#bfbfbf" points="367,-0.5 367,-41.5 513,-41.5 513,-0.5 367,-0.5"/>
<text text-anchor="start" x="375" y="-29.5" font-family="Helvetica,sans-Serif" font-size="10.00">Tensor4_Expr&lt; A, T,</text>
<text text-anchor="start" x="375" y="-18.5" font-family="Helvetica,sans-Serif" font-size="10.00"> Dim0, Dim1, Dim2, Dim3,</text>
<text text-anchor="middle" x="440" y="-7.5" font-family="Helvetica,sans-Serif" font-size="10.00"> i, j, k, l &gt;</text>
</a>
</g>
</g>
<!-- Node6&#45;&gt;Node1 -->
<g id="edge5" class="edge">
<title>Node6&#45;&gt;Node1</title>
<path fill="none" stroke="#9a32cd" stroke-dasharray="5,2" d="M523.33,-27.78C541.71,-29.29 561.02,-30.88 578.79,-32.34"/>
<polygon fill="#9a32cd" stroke="#9a32cd" points="523.48,-24.28 513.22,-26.95 522.9,-31.25 523.48,-24.28"/>
<text text-anchor="middle" x="547.5" y="-33" font-family="Helvetica,sans-Serif" font-size="10.00"> iterA</text>
</g>
</g>
</svg>
