<?xml version="1.0" encoding="UTF-8" standalone="no"?>
<!DOCTYPE svg PUBLIC "-//W3C//DTD SVG 1.1//EN"
 "http://www.w3.org/Graphics/SVG/1.1/DTD/svg11.dtd">
<!-- Generated by graphviz version 2.43.0 (0)
 -->
<!-- Title: FTensor::Tensor2_symmetric_times_Tensor1&lt; A, B, T, U, Dim, Dim2, i, j, k &gt; Pages: 1 -->
<svg width="290pt" height="273pt"
 viewBox="0.00 0.00 289.50 273.00" xmlns="http://www.w3.org/2000/svg" xmlns:xlink="http://www.w3.org/1999/xlink">
<g id="graph0" class="graph" transform="scale(1 1) rotate(0) translate(4 269)">
<title>FTensor::Tensor2_symmetric_times_Tensor1&lt; A, B, T, U, Dim, Dim2, i, j, k &gt;</title>
<polygon fill="white" stroke="transparent" points="-4,4 -4,-269 285.5,-269 285.5,4 -4,4"/>
<!-- Node1 -->
<g id="node1" class="node">
<title>Node1</title>
<g id="a_node1"><a xlink:title=" ">
<polygon fill="#bfbfbf" stroke="black" points="59.5,-0.5 59.5,-41.5 214.5,-41.5 214.5,-0.5 59.5,-0.5"/>
<text text-anchor="start" x="67.5" y="-29.5" font-family="Helvetica,sans-Serif" font-size="10.00">FTensor::Tensor2_symmetric</text>
<text text-anchor="start" x="67.5" y="-18.5" font-family="Helvetica,sans-Serif" font-size="10.00">_times_Tensor1&lt; A, B, T,</text>
<text text-anchor="middle" x="137" y="-7.5" font-family="Helvetica,sans-Serif" font-size="10.00"> U, Dim, Dim2, i, j, k &gt;</text>
</a>
</g>
</g>
<!-- Node2 -->
<g id="node2" class="node">
<title>Node2</title>
<g id="a_node2"><a xlink:href="classFTensor_1_1Tensor1__Expr.html" target="_top" xlink:title=" ">
<polygon fill="white" stroke="black" points="0,-89.5 0,-119.5 124,-119.5 124,-89.5 0,-89.5"/>
<text text-anchor="start" x="8" y="-107.5" font-family="Helvetica,sans-Serif" font-size="10.00">FTensor::Tensor1_Expr</text>
<text text-anchor="middle" x="62" y="-96.5" font-family="Helvetica,sans-Serif" font-size="10.00">&lt; B, U, Dim2, k &gt;</text>
</a>
</g>
</g>
<!-- Node2&#45;&gt;Node1 -->
<g id="edge1" class="edge">
<title>Node2&#45;&gt;Node1</title>
<path fill="none" stroke="#9a32cd" stroke-dasharray="5,2" d="M82.15,-81.6C93.64,-69.11 107.92,-53.6 119.03,-41.53"/>
<polygon fill="#9a32cd" stroke="#9a32cd" points="79.26,-79.58 75.06,-89.3 84.41,-84.32 79.26,-79.58"/>
<text text-anchor="middle" x="115.5" y="-63" font-family="Helvetica,sans-Serif" font-size="10.00"> iterB</text>
</g>
<!-- Node3 -->
<g id="node3" class="node">
<title>Node3</title>
<g id="a_node3"><a xlink:title=" ">
<polygon fill="white" stroke="#bfbfbf" points="26.5,-173 26.5,-192 55.5,-192 55.5,-173 26.5,-173"/>
<text text-anchor="middle" x="41" y="-180" font-family="Helvetica,sans-Serif" font-size="10.00">B</text>
</a>
</g>
</g>
<!-- Node3&#45;&gt;Node2 -->
<g id="edge2" class="edge">
<title>Node3&#45;&gt;Node2</title>
<path fill="none" stroke="#9a32cd" stroke-dasharray="5,2" d="M46.17,-162.78C49.87,-149.4 54.76,-131.69 58.13,-119.52"/>
<polygon fill="#9a32cd" stroke="#9a32cd" points="42.7,-162.21 43.41,-172.78 49.45,-164.08 42.7,-162.21"/>
<text text-anchor="middle" x="63" y="-141" font-family="Helvetica,sans-Serif" font-size="10.00"> iter</text>
</g>
<!-- Node4 -->
<g id="node4" class="node">
<title>Node4</title>
<g id="a_node4"><a xlink:href="classFTensor_1_1Tensor1__Expr.html" target="_top" xlink:title=" ">
<polygon fill="white" stroke="black" points="74,-167.5 74,-197.5 198,-197.5 198,-167.5 74,-167.5"/>
<text text-anchor="start" x="82" y="-185.5" font-family="Helvetica,sans-Serif" font-size="10.00">FTensor::Tensor1_Expr</text>
<text text-anchor="middle" x="136" y="-174.5" font-family="Helvetica,sans-Serif" font-size="10.00">&lt; A, T, Dim, i &gt;</text>
</a>
</g>
</g>
<!-- Node4&#45;&gt;Node2 -->
<g id="edge3" class="edge">
<title>Node4&#45;&gt;Node2</title>
<path fill="none" stroke="orange" stroke-dasharray="5,2" d="M115.1,-160.03C102.54,-147.13 86.9,-131.07 75.86,-119.73"/>
<polygon fill="orange" stroke="orange" points="112.6,-162.48 122.08,-167.2 117.61,-157.6 112.6,-162.48"/>
<text text-anchor="middle" x="149.5" y="-141" font-family="Helvetica,sans-Serif" font-size="10.00"> &lt; B, U, Dim2, k &gt;</text>
</g>
<!-- Node5 -->
<g id="node5" class="node">
<title>Node5</title>
<g id="a_node5"><a xlink:title=" ">
<polygon fill="white" stroke="#bfbfbf" points="121.5,-245.5 121.5,-264.5 150.5,-264.5 150.5,-245.5 121.5,-245.5"/>
<text text-anchor="middle" x="136" y="-252.5" font-family="Helvetica,sans-Serif" font-size="10.00">A</text>
</a>
</g>
</g>
<!-- Node5&#45;&gt;Node4 -->
<g id="edge4" class="edge">
<title>Node5&#45;&gt;Node4</title>
<path fill="none" stroke="#9a32cd" stroke-dasharray="5,2" d="M136,-235.24C136,-223.41 136,-208.38 136,-197.58"/>
<polygon fill="#9a32cd" stroke="#9a32cd" points="132.5,-235.36 136,-245.36 139.5,-235.36 132.5,-235.36"/>
<text text-anchor="middle" x="146" y="-219" font-family="Helvetica,sans-Serif" font-size="10.00"> iter</text>
</g>
<!-- Node6 -->
<g id="node6" class="node">
<title>Node6</title>
<g id="a_node6"><a xlink:title=" ">
<polygon fill="white" stroke="#bfbfbf" points="142.5,-89.5 142.5,-119.5 281.5,-119.5 281.5,-89.5 142.5,-89.5"/>
<text text-anchor="start" x="150.5" y="-107.5" font-family="Helvetica,sans-Serif" font-size="10.00">Tensor2_symmetric_Expr</text>
<text text-anchor="middle" x="212" y="-96.5" font-family="Helvetica,sans-Serif" font-size="10.00">&lt; A, T, Dim, i, j &gt;</text>
</a>
</g>
</g>
<!-- Node6&#45;&gt;Node1 -->
<g id="edge5" class="edge">
<title>Node6&#45;&gt;Node1</title>
<path fill="none" stroke="#9a32cd" stroke-dasharray="5,2" d="M191.85,-81.6C180.36,-69.11 166.08,-53.6 154.97,-41.53"/>
<polygon fill="#9a32cd" stroke="#9a32cd" points="189.59,-84.32 198.94,-89.3 194.74,-79.58 189.59,-84.32"/>
<text text-anchor="middle" x="194.5" y="-63" font-family="Helvetica,sans-Serif" font-size="10.00"> iterA</text>
</g>
</g>
</svg>
