<?xml version="1.0" encoding="UTF-8" standalone="no"?>
<!DOCTYPE svg PUBLIC "-//W3C//DTD SVG 1.1//EN"
 "http://www.w3.org/Graphics/SVG/1.1/DTD/svg11.dtd">
<!-- Generated by graphviz version 2.43.0 (0)
 -->
<!-- Title: FTensor::Tensor2_symmetric_minus_Tensor2_symmetric&lt; A, B, T, U, Dim, Dim, i, j, i, j &gt; Pages: 1 -->
<!--zoomable 102 -->
<svg id="main" version="1.1" xmlns="http://www.w3.org/2000/svg" xmlns:xlink="http://www.w3.org/1999/xlink" xml:space="preserve" onload="init(evt)">
<style type="text/css"><![CDATA[
.edge:hover path { stroke: red; }
.edge:hover polygon { stroke: red; fill: red; }
]]></style>
<script type="text/javascript"><![CDATA[
var edges = document.getElementsByTagName('g');
if (edges && edges.length) {
  for (var i=0;i<edges.length;i++) {
    if (edges[i].id.substr(0,4)=='edge') {
      edges[i].setAttribute('class','edge');
    }
  }
}
]]></script>
        <defs>
                <circle id="rim" cx="0" cy="0" r="7"/>
                <circle id="rim2" cx="0" cy="0" r="3.5"/>
                <g id="zoomPlus">
                        <use xlink:href="#rim" fill="#404040">
                                <set attributeName="fill" to="#808080" begin="zoomplus.mouseover" end="zoomplus.mouseout"/>
                        </use>
                        <path d="M-4,0h8M0,-4v8" fill="none" stroke="white" stroke-width="1.5" pointer-events="none"/>
                </g>
                <g id="zoomMin">
                        <use xlink:href="#rim" fill="#404040">
                                <set attributeName="fill" to="#808080" begin="zoomminus.mouseover" end="zoomminus.mouseout"/>
                        </use>
                        <path d="M-4,0h8" fill="none" stroke="white" stroke-width="1.5" pointer-events="none"/>
                </g>
                <g id="dirArrow">
                        <path fill="none" stroke="white" stroke-width="1.5" d="M0,-3.0v7 M-2.5,-0.5L0,-3.0L2.5,-0.5"/>
                </g>
               <g id="resetDef">
                       <use xlink:href="#rim2" fill="#404040">
                               <set attributeName="fill" to="#808080" begin="reset.mouseover" end="reset.mouseout"/>
                       </use>
               </g>
        </defs>

<script type="text/javascript">
var viewWidth = 748;
var viewHeight = 102;
var sectionId = 'dynsection-0';
</script>
<script xlink:href="svgpan.js"/>
<svg id="graph" class="graph">
<g id="viewport">
<title>FTensor::Tensor2_symmetric_minus_Tensor2_symmetric&lt; A, B, T, U, Dim, Dim, i, j, i, j &gt;</title>
<polygon fill="white" stroke="transparent" points="-4,4 -4,-97.5 744,-97.5 744,4 -4,4"/>
<!-- Node1 -->
<g id="node1" class="node">
<title>Node1</title>
<g id="a_node1"><a xlink:title=" ">
<polygon fill="#bfbfbf" stroke="black" points="585,-6.5 585,-58.5 740,-58.5 740,-6.5 585,-6.5"/>
<text text-anchor="start" x="593" y="-46.5" font-family="Helvetica,sans-Serif" font-size="10.00">FTensor::Tensor2_symmetric</text>
<text text-anchor="start" x="593" y="-35.5" font-family="Helvetica,sans-Serif" font-size="10.00">_minus_Tensor2_symmetric</text>
<text text-anchor="start" x="593" y="-24.5" font-family="Helvetica,sans-Serif" font-size="10.00">&lt; A, B, T, U, Dim, Dim, i,</text>
<text text-anchor="middle" x="662.5" y="-13.5" font-family="Helvetica,sans-Serif" font-size="10.00"> j, i, j &gt;</text>
</a>
</g>
</g>
<!-- Node2 -->
<g id="node2" class="node">
<title>Node2</title>
<g id="a_node2"><a xlink:href="classFTensor_1_1Tensor2__symmetric__Expr.html" target="_top" xlink:title=" ">
<polygon fill="white" stroke="black" points="367,-49.5 367,-79.5 522,-79.5 522,-49.5 367,-49.5"/>
<text text-anchor="start" x="375" y="-67.5" font-family="Helvetica,sans-Serif" font-size="10.00">FTensor::Tensor2_symmetric</text>
<text text-anchor="middle" x="444.5" y="-56.5" font-family="Helvetica,sans-Serif" font-size="10.00">_Expr&lt; B, U, Dim, i, j &gt;</text>
</a>
</g>
</g>
<!-- Node2&#45;&gt;Node1 -->
<g id="edge1" class="edge">
<title>Node2&#45;&gt;Node1</title>
<path fill="none" stroke="#9a32cd" stroke-dasharray="5,2" d="M532.4,-51.63C549.81,-49.05 567.97,-46.36 584.99,-43.84"/>
<polygon fill="#9a32cd" stroke="#9a32cd" points="531.64,-48.2 522.26,-53.13 532.67,-55.12 531.64,-48.2"/>
<text text-anchor="middle" x="553.5" y="-52.5" font-family="Helvetica,sans-Serif" font-size="10.00"> iterB</text>
</g>
<!-- Node3 -->
<g id="node3" class="node">
<title>Node3</title>
<g id="a_node3"><a xlink:title=" ">
<polygon fill="white" stroke="#bfbfbf" points="148,-74 148,-93 177,-93 177,-74 148,-74"/>
<text text-anchor="middle" x="162.5" y="-81" font-family="Helvetica,sans-Serif" font-size="10.00">B</text>
</a>
</g>
</g>
<!-- Node3&#45;&gt;Node2 -->
<g id="edge2" class="edge">
<title>Node3&#45;&gt;Node2</title>
<path fill="none" stroke="#9a32cd" stroke-dasharray="5,2" d="M187.16,-81.89C226.41,-79.23 306.65,-73.79 366.96,-69.69"/>
<polygon fill="#9a32cd" stroke="#9a32cd" points="186.75,-78.41 177,-82.58 187.22,-85.4 186.75,-78.41"/>
<text text-anchor="middle" x="303.5" y="-79.5" font-family="Helvetica,sans-Serif" font-size="10.00"> iter</text>
</g>
<!-- Node4 -->
<g id="node4" class="node">
<title>Node4</title>
<g id="a_node4"><a xlink:href="classFTensor_1_1Tensor2__symmetric__Expr.html" target="_top" xlink:title=" ">
<polygon fill="white" stroke="black" points="85,-24.5 85,-54.5 240,-54.5 240,-24.5 85,-24.5"/>
<text text-anchor="start" x="93" y="-42.5" font-family="Helvetica,sans-Serif" font-size="10.00">FTensor::Tensor2_symmetric</text>
<text text-anchor="middle" x="162.5" y="-31.5" font-family="Helvetica,sans-Serif" font-size="10.00">_Expr&lt; A, T, Dim, i, j &gt;</text>
</a>
</g>
</g>
<!-- Node4&#45;&gt;Node2 -->
<g id="edge3" class="edge">
<title>Node4&#45;&gt;Node2</title>
<path fill="none" stroke="orange" stroke-dasharray="5,2" d="M250.59,-46.85C281.65,-49.52 316.9,-52.59 349,-55.5 354.83,-56.03 360.85,-56.58 366.92,-57.15"/>
<polygon fill="orange" stroke="orange" points="250.49,-43.33 240.23,-45.96 249.89,-50.3 250.49,-43.33"/>
<text text-anchor="middle" x="303.5" y="-58.5" font-family="Helvetica,sans-Serif" font-size="10.00"> &lt; B, U, Dim, i, j &gt;</text>
</g>
<!-- Node5 -->
<g id="node5" class="node">
<title>Node5</title>
<g id="a_node5"><a xlink:title=" ">
<polygon fill="white" stroke="#bfbfbf" points="0,-30 0,-49 29,-49 29,-30 0,-30"/>
<text text-anchor="middle" x="14.5" y="-37" font-family="Helvetica,sans-Serif" font-size="10.00">A</text>
</a>
</g>
</g>
<!-- Node5&#45;&gt;Node4 -->
<g id="edge4" class="edge">
<title>Node5&#45;&gt;Node4</title>
<path fill="none" stroke="#9a32cd" stroke-dasharray="5,2" d="M39.33,-39.5C52,-39.5 68.37,-39.5 84.98,-39.5"/>
<polygon fill="#9a32cd" stroke="#9a32cd" points="39.24,-36 29.24,-39.5 39.24,-43 39.24,-36"/>
<text text-anchor="middle" x="57" y="-42.5" font-family="Helvetica,sans-Serif" font-size="10.00"> iter</text>
</g>
<!-- Node6 -->
<g id="node6" class="node">
<title>Node6</title>
<g id="a_node6"><a xlink:title=" ">
<polygon fill="white" stroke="#bfbfbf" points="375,-0.5 375,-30.5 514,-30.5 514,-0.5 375,-0.5"/>
<text text-anchor="start" x="383" y="-18.5" font-family="Helvetica,sans-Serif" font-size="10.00">Tensor2_symmetric_Expr</text>
<text text-anchor="middle" x="444.5" y="-7.5" font-family="Helvetica,sans-Serif" font-size="10.00">&lt; A, T, Dim, i, j &gt;</text>
</a>
</g>
</g>
<!-- Node6&#45;&gt;Node1 -->
<g id="edge5" class="edge">
<title>Node6&#45;&gt;Node1</title>
<path fill="none" stroke="#9a32cd" stroke-dasharray="5,2" d="M524.49,-20.36C538.65,-21.33 553.27,-22.39 567,-23.5 572.83,-23.97 578.86,-24.48 584.93,-25.02"/>
<polygon fill="#9a32cd" stroke="#9a32cd" points="524.49,-16.86 514.28,-19.68 524.02,-23.84 524.49,-16.86"/>
<text text-anchor="middle" x="553.5" y="-26.5" font-family="Helvetica,sans-Serif" font-size="10.00"> iterA</text>
</g>
</g>
</svg>
        <g id="navigator" transform="translate(0 0)" fill="#404254">
                <rect fill="#f2f5e9" fill-opacity="0.5" stroke="#606060" stroke-width=".5" x="0" y="0" width="60" height="60"/>
                <use id="zoomplus" xlink:href="#zoomPlus" x="17" y="9" onmousedown="handleZoom(evt,'in')"/>
                <use id="zoomminus" xlink:href="#zoomMin" x="42" y="9" onmousedown="handleZoom(evt,'out')"/>
                <use id="reset" xlink:href="#resetDef" x="30" y="36" onmousedown="handleReset()"/>
                <g id="arrowUp" xlink:href="#dirArrow" transform="translate(30 24)" onmousedown="handlePan(0,-1)">
                  <use xlink:href="#rim" fill="#404040">
                        <set attributeName="fill" to="#808080" begin="arrowUp.mouseover" end="arrowUp.mouseout"/>
                  </use>
                  <path fill="none" stroke="white" stroke-width="1.5" d="M0,-3.0v7 M-2.5,-0.5L0,-3.0L2.5,-0.5"/>
                </g>
                <g id="arrowRight" xlink:href="#dirArrow" transform="rotate(90) translate(36 -43)" onmousedown="handlePan(1,0)">
                  <use xlink:href="#rim" fill="#404040">
                        <set attributeName="fill" to="#808080" begin="arrowRight.mouseover" end="arrowRight.mouseout"/>
                  </use>
                  <path fill="none" stroke="white" stroke-width="1.5" d="M0,-3.0v7 M-2.5,-0.5L0,-3.0L2.5,-0.5"/>
                </g>
                <g id="arrowDown" xlink:href="#dirArrow" transform="rotate(180) translate(-30 -48)" onmousedown="handlePan(0,1)">
                  <use xlink:href="#rim" fill="#404040">
                        <set attributeName="fill" to="#808080" begin="arrowDown.mouseover" end="arrowDown.mouseout"/>
                  </use>
                  <path fill="none" stroke="white" stroke-width="1.5" d="M0,-3.0v7 M-2.5,-0.5L0,-3.0L2.5,-0.5"/>
                </g>
                <g id="arrowLeft" xlink:href="#dirArrow" transform="rotate(270) translate(-36 17)" onmousedown="handlePan(-1,0)">
                  <use xlink:href="#rim" fill="#404040">
                        <set attributeName="fill" to="#808080" begin="arrowLeft.mouseover" end="arrowLeft.mouseout"/>
                  </use>
                  <path fill="none" stroke="white" stroke-width="1.5" d="M0,-3.0v7 M-2.5,-0.5L0,-3.0L2.5,-0.5"/>
                </g>
        </g>
        <svg viewBox="0 0 15 15" width="100%" height="30px" preserveAspectRatio="xMaxYMin meet">
         <g id="arrow_out" transform="scale(0.3 0.3)">
          <a xlink:href="classFTensor_1_1Tensor2__symmetric__minus__Tensor2__symmetric_3_01A_00_01B_00_01T_00_01U_00_01Di39f682d7427411cb058f66aecec95fe6_org.svg" target="_base">
           <rect id="button" ry="5" rx="5" y="6" x="6" height="38" width="38"
                fill="#f2f5e9" fill-opacity="0.5" stroke="#606060" stroke-width="1.0"/>
           <path id="arrow"
             d="M 11.500037,31.436501 C 11.940474,20.09759 22.043105,11.32322 32.158766,21.979434 L 37.068811,17.246167 C 37.068811,17.246167 37.088388,32 37.088388,32 L 22.160133,31.978069 C 22.160133,31.978069 26.997745,27.140456 26.997745,27.140456 C 18.528582,18.264221 13.291696,25.230495 11.500037,31.436501 z"
             style="fill:#404040;"/>
          </a>
         </g>
        </svg>
</svg>
