<?xml version="1.0" encoding="UTF-8" standalone="no"?>
<!DOCTYPE svg PUBLIC "-//W3C//DTD SVG 1.1//EN"
 "http://www.w3.org/Graphics/SVG/1.1/DTD/svg11.dtd">
<!-- Generated by graphviz version 2.43.0 (0)
 -->
<!-- Title: EdgeElementForcesAndSourcesCore Pages: 1 -->
<svg width="200pt" height="106pt"
 viewBox="0.00 0.00 200.00 106.00" xmlns="http://www.w3.org/2000/svg" xmlns:xlink="http://www.w3.org/1999/xlink">
<g id="graph0" class="graph" transform="scale(1 1) rotate(0) translate(4 102)">
<title>EdgeElementForcesAndSourcesCore</title>
<polygon fill="white" stroke="transparent" points="-4,4 -4,-102 196,-102 196,4 -4,4"/>
<!-- Node1 -->
<g id="node1" class="node">
<title>Node1</title>
<g id="a_node1"><a xlink:title=" ">
<polygon fill="#bfbfbf" stroke="black" points="0,-78.5 0,-97.5 192,-97.5 192,-78.5 0,-78.5"/>
<text text-anchor="middle" x="96" y="-85.5" font-family="Helvetica,sans-Serif" font-size="10.00">EdgeElementForcesAndSourcesCore</text>
</a>
</g>
</g>
<!-- Node2 -->
<g id="node2" class="node">
<title>Node2</title>
<g id="a_node2"><a xlink:href="structMinimalSurfaceEquation_1_1MinimalSurfaceElement_1_1EdgeElement.html" target="_top" xlink:title="Bondary problem.">
<polygon fill="white" stroke="black" points="26,-0.5 26,-41.5 166,-41.5 166,-0.5 26,-0.5"/>
<text text-anchor="start" x="34" y="-29.5" font-family="Helvetica,sans-Serif" font-size="10.00">MinimalSurfaceEquation</text>
<text text-anchor="start" x="34" y="-18.5" font-family="Helvetica,sans-Serif" font-size="10.00">::MinimalSurfaceElement</text>
<text text-anchor="middle" x="96" y="-7.5" font-family="Helvetica,sans-Serif" font-size="10.00">::EdgeElement</text>
</a>
</g>
</g>
<!-- Node1&#45;&gt;Node2 -->
<g id="edge1" class="edge">
<title>Node1&#45;&gt;Node2</title>
<path fill="none" stroke="midnightblue" d="M96,-68.04C96,-59.71 96,-49.94 96,-41.54"/>
<polygon fill="midnightblue" stroke="midnightblue" points="92.5,-68.23 96,-78.23 99.5,-68.23 92.5,-68.23"/>
</g>
</g>
</svg>
