<?xml version="1.0" encoding="UTF-8" standalone="no"?>
<!DOCTYPE svg PUBLIC "-//W3C//DTD SVG 1.1//EN"
 "http://www.w3.org/Graphics/SVG/1.1/DTD/svg11.dtd">
<!-- Generated by graphviz version 9.0.0 (20230911.1827)
 -->
<!-- Title: FTensor::Tensor2_symmetric_times_Tensor2_symmetric_00&lt; A, B, T, U, Dim, i, j, k &gt; Pages: 1 -->
<svg width="699pt" height="113pt"
 viewBox="0.00 0.00 699.05 112.88" xmlns="http://www.w3.org/2000/svg" xmlns:xlink="http://www.w3.org/1999/xlink">
<g id="graph0" class="graph" transform="scale(1 1) rotate(0) translate(4 108.88)">
<title>FTensor::Tensor2_symmetric_times_Tensor2_symmetric_00&lt; A, B, T, U, Dim, i, j, k &gt;</title>
<!-- Node1 -->
<g id="node1" class="node">
<title>Node1</title>
<g id="a_node1"><a xlink:title=" ">
<polygon fill="#999999" stroke="#666666" points="691.05,-80.5 546.8,-80.5 546.8,-38.75 691.05,-38.75 691.05,-80.5"/>
<text text-anchor="start" x="554.8" y="-67" font-family="Helvetica,sans-Serif" font-size="10.00">FTensor::Tensor2_symmetric</text>
<text text-anchor="start" x="554.8" y="-55.75" font-family="Helvetica,sans-Serif" font-size="10.00">_times_Tensor2_symmetric</text>
<text text-anchor="middle" x="618.92" y="-44.5" font-family="Helvetica,sans-Serif" font-size="10.00">_00&lt; A, B, T, U, Dim, i, j, k &gt;</text>
</a>
</g>
</g>
<!-- Node2 -->
<g id="node2" class="node">
<title>Node2</title>
<g id="a_node2"><a xlink:href="class_f_tensor_1_1_tensor2__symmetric___expr.html" target="_top" xlink:title=" ">
<polygon fill="white" stroke="#666666" points="487.55,-99.88 344.8,-99.88 344.8,-69.38 487.55,-69.38 487.55,-99.88"/>
<text text-anchor="start" x="352.8" y="-86.38" font-family="Helvetica,sans-Serif" font-size="10.00">FTensor::Tensor2_symmetric</text>
<text text-anchor="middle" x="416.17" y="-75.12" font-family="Helvetica,sans-Serif" font-size="10.00">_Expr&lt; A, T, Dim, j, i &gt;</text>
</a>
</g>
</g>
<!-- Node2&#45;&gt;Node1 -->
<g id="edge1" class="edge">
<title>Node2&#45;&gt;Node1</title>
<path fill="none" stroke="#9a32cd" stroke-dasharray="5,2" d="M499.22,-74.41C514.87,-72.46 531.14,-70.43 546.43,-68.53"/>
<polygon fill="#9a32cd" stroke="#9a32cd" points="498.94,-70.91 489.45,-75.62 499.81,-77.86 498.94,-70.91"/>
<text text-anchor="middle" x="517.17" y="-74.38" font-family="Helvetica,sans-Serif" font-size="10.00"> iterA</text>
</g>
<!-- Node3 -->
<g id="node3" class="node">
<title>Node3</title>
<g id="a_node3"><a xlink:title=" ">
<polygon fill="white" stroke="#666666" points="28.8,-88.25 0,-88.25 0,-69 28.8,-69 28.8,-88.25"/>
<text text-anchor="middle" x="14.4" y="-74.75" font-family="Helvetica,sans-Serif" font-size="10.00">A</text>
</a>
</g>
</g>
<!-- Node3&#45;&gt;Node2 -->
<g id="edge2" class="edge">
<title>Node3&#45;&gt;Node2</title>
<path fill="none" stroke="#9a32cd" stroke-dasharray="5,2" d="M40.02,-85.5C42.3,-85.95 44.58,-86.34 46.8,-86.62 170.24,-102.42 202.37,-89.74 326.8,-87.62 332.63,-87.53 338.68,-87.39 344.75,-87.23"/>
<polygon fill="#9a32cd" stroke="#9a32cd" points="41.03,-82.14 30.49,-83.22 39.4,-88.95 41.03,-82.14"/>
<text text-anchor="middle" x="152.67" y="-95.38" font-family="Helvetica,sans-Serif" font-size="10.00"> iter</text>
</g>
<!-- Node4 -->
<g id="node4" class="node">
<title>Node4</title>
<g id="a_node4"><a xlink:href="class_f_tensor_1_1_tensor2__symmetric___expr.html" target="_top" xlink:title=" ">
<polygon fill="white" stroke="#666666" points="224.05,-67.88 81.3,-67.88 81.3,-37.38 224.05,-37.38 224.05,-67.88"/>
<text text-anchor="start" x="89.3" y="-54.38" font-family="Helvetica,sans-Serif" font-size="10.00">FTensor::Tensor2_symmetric</text>
<text text-anchor="middle" x="152.67" y="-43.12" font-family="Helvetica,sans-Serif" font-size="10.00">_Expr&lt; A, T, Dim, i, j &gt;</text>
</a>
</g>
</g>
<!-- Node3&#45;&gt;Node4 -->
<g id="edge4" class="edge">
<title>Node3&#45;&gt;Node4</title>
<path fill="none" stroke="#9a32cd" stroke-dasharray="5,2" d="M40.17,-73.9C51.79,-71.68 66.29,-68.92 80.95,-66.12"/>
<polygon fill="#9a32cd" stroke="#9a32cd" points="39.87,-70.39 30.7,-75.71 41.18,-77.27 39.87,-70.39"/>
<text text-anchor="middle" x="55.05" y="-73.38" font-family="Helvetica,sans-Serif" font-size="10.00"> iter</text>
</g>
<!-- Node4&#45;&gt;Node2 -->
<g id="edge3" class="edge">
<title>Node4&#45;&gt;Node2</title>
<path fill="none" stroke="orange" stroke-dasharray="5,2" d="M235.56,-62.65C270.46,-66.92 310.77,-71.85 344.35,-75.96"/>
<polygon fill="orange" stroke="orange" points="236.29,-59.21 225.94,-61.47 235.44,-66.16 236.29,-59.21"/>
<text text-anchor="middle" x="284.42" y="-74.38" font-family="Helvetica,sans-Serif" font-size="10.00"> &lt; A, T, Dim, j, i &gt;</text>
</g>
<!-- Node5 -->
<g id="node5" class="node">
<title>Node5</title>
<g id="a_node5"><a xlink:href="class_f_tensor_1_1_tensor2__symmetric___expr.html" target="_top" xlink:title=" ">
<polygon fill="white" stroke="#666666" points="487.55,-50.88 344.8,-50.88 344.8,-20.38 487.55,-20.38 487.55,-50.88"/>
<text text-anchor="start" x="352.8" y="-37.38" font-family="Helvetica,sans-Serif" font-size="10.00">FTensor::Tensor2_symmetric</text>
<text text-anchor="middle" x="416.17" y="-26.12" font-family="Helvetica,sans-Serif" font-size="10.00">_Expr&lt; B, U, Dim, j, k &gt;</text>
</a>
</g>
</g>
<!-- Node4&#45;&gt;Node5 -->
<g id="edge7" class="edge">
<title>Node4&#45;&gt;Node5</title>
<path fill="none" stroke="orange" stroke-dasharray="5,2" d="M235.4,-44.87C237.64,-44.7 239.86,-44.53 242.05,-44.38 275.67,-41.96 313.01,-39.98 344.38,-38.52"/>
<polygon fill="orange" stroke="orange" points="235.28,-41.37 225.59,-45.66 235.84,-48.35 235.28,-41.37"/>
<text text-anchor="middle" x="284.42" y="-46.38" font-family="Helvetica,sans-Serif" font-size="10.00"> &lt; B, U, Dim, j, k &gt;</text>
</g>
<!-- Node5&#45;&gt;Node1 -->
<g id="edge5" class="edge">
<title>Node5&#45;&gt;Node1</title>
<path fill="none" stroke="#9a32cd" stroke-dasharray="5,2" d="M499.04,-43.94C509.07,-45.05 519.17,-46.21 528.8,-47.38 534.54,-48.07 540.48,-48.82 546.44,-49.6"/>
<polygon fill="#9a32cd" stroke="#9a32cd" points="499.6,-40.48 489.28,-42.88 498.84,-47.44 499.6,-40.48"/>
<text text-anchor="middle" x="517.17" y="-49.38" font-family="Helvetica,sans-Serif" font-size="10.00"> iterB</text>
</g>
<!-- Node6 -->
<g id="node6" class="node">
<title>Node6</title>
<g id="a_node6"><a xlink:href="class_b.html" target="_top" xlink:title=" ">
<polygon fill="white" stroke="#666666" points="167.07,-19.25 138.27,-19.25 138.27,0 167.07,0 167.07,-19.25"/>
<text text-anchor="middle" x="152.67" y="-5.75" font-family="Helvetica,sans-Serif" font-size="10.00">B</text>
</a>
</g>
</g>
<!-- Node6&#45;&gt;Node5 -->
<g id="edge6" class="edge">
<title>Node6&#45;&gt;Node5</title>
<path fill="none" stroke="#9a32cd" stroke-dasharray="5,2" d="M178.61,-11.42C212.28,-13.92 274.13,-18.78 326.8,-24.38 332.64,-25 338.7,-25.68 344.78,-26.4"/>
<polygon fill="#9a32cd" stroke="#9a32cd" points="178.9,-7.93 168.67,-10.69 178.39,-14.92 178.9,-7.93"/>
<text text-anchor="middle" x="284.42" y="-26.38" font-family="Helvetica,sans-Serif" font-size="10.00"> iter</text>
</g>
</g>
</svg>
