<?xml version="1.0" encoding="UTF-8" standalone="no"?>
<!DOCTYPE svg PUBLIC "-//W3C//DTD SVG 1.1//EN"
 "http://www.w3.org/Graphics/SVG/1.1/DTD/svg11.dtd">
<!-- Generated by graphviz version 2.43.0 (0)
 -->
<!-- Title: FTensor::Tensor2_symmetric_times_Tensor2_01&lt; A, B, T, U, Dim, Dim1, i, j, k &gt; Pages: 1 -->
<!--zoomable 176 -->
<svg id="main" version="1.1" xmlns="http://www.w3.org/2000/svg" xmlns:xlink="http://www.w3.org/1999/xlink" xml:space="preserve" onload="init(evt)">
<style type="text/css"><![CDATA[
.edge:hover path { stroke: red; }
.edge:hover polygon { stroke: red; fill: red; }
]]></style>
<script type="text/javascript"><![CDATA[
var edges = document.getElementsByTagName('g');
if (edges && edges.length) {
  for (var i=0;i<edges.length;i++) {
    if (edges[i].id.substr(0,4)=='edge') {
      edges[i].setAttribute('class','edge');
    }
  }
}
]]></script>
        <defs>
                <circle id="rim" cx="0" cy="0" r="7"/>
                <circle id="rim2" cx="0" cy="0" r="3.5"/>
                <g id="zoomPlus">
                        <use xlink:href="#rim" fill="#404040">
                                <set attributeName="fill" to="#808080" begin="zoomplus.mouseover" end="zoomplus.mouseout"/>
                        </use>
                        <path d="M-4,0h8M0,-4v8" fill="none" stroke="white" stroke-width="1.5" pointer-events="none"/>
                </g>
                <g id="zoomMin">
                        <use xlink:href="#rim" fill="#404040">
                                <set attributeName="fill" to="#808080" begin="zoomminus.mouseover" end="zoomminus.mouseout"/>
                        </use>
                        <path d="M-4,0h8" fill="none" stroke="white" stroke-width="1.5" pointer-events="none"/>
                </g>
                <g id="dirArrow">
                        <path fill="none" stroke="white" stroke-width="1.5" d="M0,-3.0v7 M-2.5,-0.5L0,-3.0L2.5,-0.5"/>
                </g>
               <g id="resetDef">
                       <use xlink:href="#rim2" fill="#404040">
                               <set attributeName="fill" to="#808080" begin="reset.mouseover" end="reset.mouseout"/>
                       </use>
               </g>
        </defs>

<script type="text/javascript">
var viewWidth = 754;
var viewHeight = 176;
var sectionId = 'dynsection-0';
</script>
<script xlink:href="svgpan.js"/>
<svg id="graph" class="graph">
<g id="viewport">
<title>FTensor::Tensor2_symmetric_times_Tensor2_01&lt; A, B, T, U, Dim, Dim1, i, j, k &gt;</title>
<polygon fill="white" stroke="transparent" points="-4,4 -4,-171.5 750,-171.5 750,4 -4,4"/>
<!-- Node1 -->
<g id="node1" class="node">
<title>Node1</title>
<g id="a_node1"><a xlink:title=" ">
<polygon fill="#bfbfbf" stroke="black" points="591,-69 591,-110 746,-110 746,-69 591,-69"/>
<text text-anchor="start" x="599" y="-98" font-family="Helvetica,sans-Serif" font-size="10.00">FTensor::Tensor2_symmetric</text>
<text text-anchor="start" x="599" y="-87" font-family="Helvetica,sans-Serif" font-size="10.00">_times_Tensor2_01&lt; A, B,</text>
<text text-anchor="middle" x="668.5" y="-76" font-family="Helvetica,sans-Serif" font-size="10.00"> T, U, Dim, Dim1, i, j, k &gt;</text>
</a>
</g>
</g>
<!-- Node2 -->
<g id="node2" class="node">
<title>Node2</title>
<g id="a_node2"><a xlink:href="classFTensor_1_1Tensor2__Expr.html" target="_top" xlink:title=" ">
<polygon fill="white" stroke="black" points="381,-99.5 381,-129.5 520,-129.5 520,-99.5 381,-99.5"/>
<text text-anchor="start" x="389" y="-117.5" font-family="Helvetica,sans-Serif" font-size="10.00">FTensor::Tensor2_Expr</text>
<text text-anchor="middle" x="450.5" y="-106.5" font-family="Helvetica,sans-Serif" font-size="10.00">&lt; B, U, Dim1, Dim, k, j &gt;</text>
</a>
</g>
</g>
<!-- Node2&#45;&gt;Node1 -->
<g id="edge1" class="edge">
<title>Node2&#45;&gt;Node1</title>
<path fill="none" stroke="#9a32cd" stroke-dasharray="5,2" d="M530.31,-105.38C550.03,-103.1 571.16,-100.65 590.78,-98.38"/>
<polygon fill="#9a32cd" stroke="#9a32cd" points="529.67,-101.93 520.14,-106.56 530.48,-108.88 529.67,-101.93"/>
<text text-anchor="middle" x="559.5" y="-105.5" font-family="Helvetica,sans-Serif" font-size="10.00"> iterB</text>
</g>
<!-- Node3 -->
<g id="node3" class="node">
<title>Node3</title>
<g id="a_node3"><a xlink:title=" ">
<polygon fill="white" stroke="#bfbfbf" points="148,-148 148,-167 177,-167 177,-148 148,-148"/>
<text text-anchor="middle" x="162.5" y="-155" font-family="Helvetica,sans-Serif" font-size="10.00">B</text>
</a>
</g>
</g>
<!-- Node3&#45;&gt;Node2 -->
<g id="edge2" class="edge">
<title>Node3&#45;&gt;Node2</title>
<path fill="none" stroke="#9a32cd" stroke-dasharray="5,2" d="M187.1,-155.59C223.36,-152.47 294.88,-145.6 355,-135.5 365.11,-133.8 375.77,-131.72 386.14,-129.53"/>
<polygon fill="#9a32cd" stroke="#9a32cd" points="186.71,-152.11 177.03,-156.43 187.29,-159.08 186.71,-152.11"/>
<text text-anchor="middle" x="306.5" y="-150.5" font-family="Helvetica,sans-Serif" font-size="10.00"> iter</text>
</g>
<!-- Node4 -->
<g id="node4" class="node">
<title>Node4</title>
<g id="a_node4"><a xlink:href="classFTensor_1_1Tensor2__Expr.html" target="_top" xlink:title=" ">
<polygon fill="white" stroke="black" points="92.5,-97.5 92.5,-127.5 232.5,-127.5 232.5,-97.5 92.5,-97.5"/>
<text text-anchor="start" x="100.5" y="-115.5" font-family="Helvetica,sans-Serif" font-size="10.00">FTensor::Tensor2_Expr</text>
<text text-anchor="middle" x="162.5" y="-104.5" font-family="Helvetica,sans-Serif" font-size="10.00">&lt; A, T, Dim0, Dim1, i, j &gt;</text>
</a>
</g>
</g>
<!-- Node4&#45;&gt;Node2 -->
<g id="edge3" class="edge">
<title>Node4&#45;&gt;Node2</title>
<path fill="none" stroke="orange" stroke-dasharray="5,2" d="M242.66,-112.82C277.16,-112.98 318.08,-113.21 355,-113.5 363.37,-113.57 372.15,-113.65 380.85,-113.73"/>
<polygon fill="orange" stroke="orange" points="242.65,-109.32 232.64,-112.77 242.62,-116.32 242.65,-109.32"/>
<text text-anchor="start" x="258" y="-127.5" font-family="Helvetica,sans-Serif" font-size="10.00"> &lt; B, U, Dim1, Dim,</text>
<text text-anchor="middle" x="306.5" y="-116.5" font-family="Helvetica,sans-Serif" font-size="10.00"> k, j &gt;</text>
</g>
<!-- Node5 -->
<g id="node5" class="node">
<title>Node5</title>
<g id="a_node5"><a xlink:title=" ">
<polygon fill="white" stroke="#bfbfbf" points="0,-58 0,-77 29,-77 29,-58 0,-58"/>
<text text-anchor="middle" x="14.5" y="-65" font-family="Helvetica,sans-Serif" font-size="10.00">A</text>
</a>
</g>
</g>
<!-- Node5&#45;&gt;Node4 -->
<g id="edge4" class="edge">
<title>Node5&#45;&gt;Node4</title>
<path fill="none" stroke="#9a32cd" stroke-dasharray="5,2" d="M38.44,-78.18C41.3,-79.37 44.2,-80.5 47,-81.5 63.69,-87.43 82.09,-92.87 99.16,-97.49"/>
<polygon fill="#9a32cd" stroke="#9a32cd" points="39.68,-74.9 29.11,-74.1 36.87,-81.32 39.68,-74.9"/>
<text text-anchor="middle" x="57" y="-90.5" font-family="Helvetica,sans-Serif" font-size="10.00"> iter</text>
</g>
<!-- Node6 -->
<g id="node6" class="node">
<title>Node6</title>
<g id="a_node6"><a xlink:href="classFTensor_1_1Tensor2__symmetric__Expr.html" target="_top" xlink:title=" ">
<polygon fill="white" stroke="black" points="373,-50.5 373,-80.5 528,-80.5 528,-50.5 373,-50.5"/>
<text text-anchor="start" x="381" y="-68.5" font-family="Helvetica,sans-Serif" font-size="10.00">FTensor::Tensor2_symmetric</text>
<text text-anchor="middle" x="450.5" y="-57.5" font-family="Helvetica,sans-Serif" font-size="10.00">_Expr&lt; A, T, Dim, j, i &gt;</text>
</a>
</g>
</g>
<!-- Node5&#45;&gt;Node6 -->
<g id="edge6" class="edge">
<title>Node5&#45;&gt;Node6</title>
<path fill="none" stroke="#9a32cd" stroke-dasharray="5,2" d="M39.53,-67.39C102.18,-67.1 272.6,-66.32 372.9,-65.85"/>
<polygon fill="#9a32cd" stroke="#9a32cd" points="39.43,-63.89 29.45,-67.44 39.46,-70.89 39.43,-63.89"/>
<text text-anchor="middle" x="162.5" y="-69.5" font-family="Helvetica,sans-Serif" font-size="10.00"> iter</text>
</g>
<!-- Node7 -->
<g id="node7" class="node">
<title>Node7</title>
<g id="a_node7"><a xlink:href="classFTensor_1_1Tensor2__symmetric__Expr.html" target="_top" xlink:title=" ">
<polygon fill="white" stroke="black" points="85,-0.5 85,-30.5 240,-30.5 240,-0.5 85,-0.5"/>
<text text-anchor="start" x="93" y="-18.5" font-family="Helvetica,sans-Serif" font-size="10.00">FTensor::Tensor2_symmetric</text>
<text text-anchor="middle" x="162.5" y="-7.5" font-family="Helvetica,sans-Serif" font-size="10.00">_Expr&lt; A, T, Dim, i, j &gt;</text>
</a>
</g>
</g>
<!-- Node5&#45;&gt;Node7 -->
<g id="edge8" class="edge">
<title>Node5&#45;&gt;Node7</title>
<path fill="none" stroke="#9a32cd" stroke-dasharray="5,2" d="M32.9,-51.49C37.26,-48.12 42.1,-44.87 47,-42.5 58.76,-36.8 71.8,-32.26 84.74,-28.66"/>
<polygon fill="#9a32cd" stroke="#9a32cd" points="30.64,-48.82 25.22,-57.92 35.13,-54.19 30.64,-48.82"/>
<text text-anchor="middle" x="57" y="-45.5" font-family="Helvetica,sans-Serif" font-size="10.00"> iter</text>
</g>
<!-- Node6&#45;&gt;Node1 -->
<g id="edge5" class="edge">
<title>Node6&#45;&gt;Node1</title>
<path fill="none" stroke="#9a32cd" stroke-dasharray="5,2" d="M538.23,-73.77C549.93,-74.97 561.76,-76.23 573,-77.5 578.83,-78.16 584.87,-78.86 590.93,-79.59"/>
<polygon fill="#9a32cd" stroke="#9a32cd" points="538.32,-70.26 528.01,-72.73 537.61,-77.22 538.32,-70.26"/>
<text text-anchor="middle" x="559.5" y="-80.5" font-family="Helvetica,sans-Serif" font-size="10.00"> iterA</text>
</g>
<!-- Node7&#45;&gt;Node6 -->
<g id="edge7" class="edge">
<title>Node7&#45;&gt;Node6</title>
<path fill="none" stroke="orange" stroke-dasharray="5,2" d="M250.25,-25.89C283.17,-30.31 320.93,-35.97 355,-42.5 366.94,-44.79 379.64,-47.61 391.73,-50.48"/>
<polygon fill="orange" stroke="orange" points="250.57,-22.4 240.2,-24.55 249.65,-29.34 250.57,-22.4"/>
<text text-anchor="middle" x="306.5" y="-45.5" font-family="Helvetica,sans-Serif" font-size="10.00"> &lt; A, T, Dim, j, i &gt;</text>
</g>
</g>
</svg>
        <g id="navigator" transform="translate(0 0)" fill="#404254">
                <rect fill="#f2f5e9" fill-opacity="0.5" stroke="#606060" stroke-width=".5" x="0" y="0" width="60" height="60"/>
                <use id="zoomplus" xlink:href="#zoomPlus" x="17" y="9" onmousedown="handleZoom(evt,'in')"/>
                <use id="zoomminus" xlink:href="#zoomMin" x="42" y="9" onmousedown="handleZoom(evt,'out')"/>
                <use id="reset" xlink:href="#resetDef" x="30" y="36" onmousedown="handleReset()"/>
                <g id="arrowUp" xlink:href="#dirArrow" transform="translate(30 24)" onmousedown="handlePan(0,-1)">
                  <use xlink:href="#rim" fill="#404040">
                        <set attributeName="fill" to="#808080" begin="arrowUp.mouseover" end="arrowUp.mouseout"/>
                  </use>
                  <path fill="none" stroke="white" stroke-width="1.5" d="M0,-3.0v7 M-2.5,-0.5L0,-3.0L2.5,-0.5"/>
                </g>
                <g id="arrowRight" xlink:href="#dirArrow" transform="rotate(90) translate(36 -43)" onmousedown="handlePan(1,0)">
                  <use xlink:href="#rim" fill="#404040">
                        <set attributeName="fill" to="#808080" begin="arrowRight.mouseover" end="arrowRight.mouseout"/>
                  </use>
                  <path fill="none" stroke="white" stroke-width="1.5" d="M0,-3.0v7 M-2.5,-0.5L0,-3.0L2.5,-0.5"/>
                </g>
                <g id="arrowDown" xlink:href="#dirArrow" transform="rotate(180) translate(-30 -48)" onmousedown="handlePan(0,1)">
                  <use xlink:href="#rim" fill="#404040">
                        <set attributeName="fill" to="#808080" begin="arrowDown.mouseover" end="arrowDown.mouseout"/>
                  </use>
                  <path fill="none" stroke="white" stroke-width="1.5" d="M0,-3.0v7 M-2.5,-0.5L0,-3.0L2.5,-0.5"/>
                </g>
                <g id="arrowLeft" xlink:href="#dirArrow" transform="rotate(270) translate(-36 17)" onmousedown="handlePan(-1,0)">
                  <use xlink:href="#rim" fill="#404040">
                        <set attributeName="fill" to="#808080" begin="arrowLeft.mouseover" end="arrowLeft.mouseout"/>
                  </use>
                  <path fill="none" stroke="white" stroke-width="1.5" d="M0,-3.0v7 M-2.5,-0.5L0,-3.0L2.5,-0.5"/>
                </g>
        </g>
        <svg viewBox="0 0 15 15" width="100%" height="30px" preserveAspectRatio="xMaxYMin meet">
         <g id="arrow_out" transform="scale(0.3 0.3)">
          <a xlink:href="classFTensor_1_1Tensor2__symmetric__times__Tensor2__01__coll__graph_org.svg" target="_base">
           <rect id="button" ry="5" rx="5" y="6" x="6" height="38" width="38"
                fill="#f2f5e9" fill-opacity="0.5" stroke="#606060" stroke-width="1.0"/>
           <path id="arrow"
             d="M 11.500037,31.436501 C 11.940474,20.09759 22.043105,11.32322 32.158766,21.979434 L 37.068811,17.246167 C 37.068811,17.246167 37.088388,32 37.088388,32 L 22.160133,31.978069 C 22.160133,31.978069 26.997745,27.140456 26.997745,27.140456 C 18.528582,18.264221 13.291696,25.230495 11.500037,31.436501 z"
             style="fill:#404040;"/>
          </a>
         </g>
        </svg>
</svg>
