<?xml version="1.0" encoding="UTF-8" standalone="no"?>
<!DOCTYPE svg PUBLIC "-//W3C//DTD SVG 1.1//EN"
 "http://www.w3.org/Graphics/SVG/1.1/DTD/svg11.dtd">
<!-- Generated by graphviz version 2.43.0 (0)
 -->
<!-- Title: FTensor::Tensor2_symmetric_Expr&lt; A, T, Dim, i, j &gt; Pages: 1 -->
<svg width="460pt" height="1123pt"
 viewBox="0.00 0.00 460.00 1122.50" xmlns="http://www.w3.org/2000/svg" xmlns:xlink="http://www.w3.org/1999/xlink">
<g id="graph0" class="graph" transform="scale(1 1) rotate(0) translate(4 1118.5)">
<title>FTensor::Tensor2_symmetric_Expr&lt; A, T, Dim, i, j &gt;</title>
<polygon fill="white" stroke="transparent" points="-4,4 -4,-1118.5 456,-1118.5 456,4 -4,4"/>
<!-- Node1 -->
<g id="node1" class="node">
<title>Node1</title>
<g id="a_node1"><a xlink:title=" ">
<polygon fill="#bfbfbf" stroke="black" points="0,-539.5 0,-569.5 155,-569.5 155,-539.5 0,-539.5"/>
<text text-anchor="start" x="8" y="-557.5" font-family="Helvetica,sans-Serif" font-size="10.00">FTensor::Tensor2_symmetric</text>
<text text-anchor="middle" x="77.5" y="-546.5" font-family="Helvetica,sans-Serif" font-size="10.00">_Expr&lt; A, T, Dim, i, j &gt;</text>
</a>
</g>
</g>
<!-- Node2 -->
<g id="node2" class="node">
<title>Node2</title>
<g id="a_node2"><a xlink:href="classFTensor_1_1Tensor2__symmetric__Expr.html" target="_top" xlink:title=" ">
<polygon fill="white" stroke="black" points="297,-1078.5 297,-1108.5 452,-1108.5 452,-1078.5 297,-1078.5"/>
<text text-anchor="start" x="305" y="-1096.5" font-family="Helvetica,sans-Serif" font-size="10.00">FTensor::Tensor2_symmetric</text>
<text text-anchor="middle" x="374.5" y="-1085.5" font-family="Helvetica,sans-Serif" font-size="10.00">_Expr&lt; B, U, Dim, i, k &gt;</text>
</a>
</g>
</g>
<!-- Node1&#45;&gt;Node2 -->
<g id="edge1" class="edge">
<title>Node1&#45;&gt;Node2</title>
<path fill="none" stroke="orange" stroke-dasharray="5,2" d="M79.34,-579.83C83.02,-673.79 100.88,-1000.43 173,-1068.5 205.4,-1099.08 255,-1105.47 296.75,-1104.15"/>
<polygon fill="orange" stroke="orange" points="82.83,-579.42 78.96,-569.56 75.84,-579.68 82.83,-579.42"/>
<text text-anchor="middle" x="226" y="-1106.5" font-family="Helvetica,sans-Serif" font-size="10.00"> &lt; B, U, Dim, i, k &gt;</text>
</g>
<!-- Node3 -->
<g id="node3" class="node">
<title>Node3</title>
<g id="a_node3"><a xlink:href="classFTensor_1_1Tensor2__symmetric__Expr.html" target="_top" xlink:title=" ">
<polygon fill="white" stroke="black" points="297,-1029.5 297,-1059.5 452,-1059.5 452,-1029.5 297,-1029.5"/>
<text text-anchor="start" x="305" y="-1047.5" font-family="Helvetica,sans-Serif" font-size="10.00">FTensor::Tensor2_symmetric</text>
<text text-anchor="middle" x="374.5" y="-1036.5" font-family="Helvetica,sans-Serif" font-size="10.00">_Expr&lt; B, U, Dim01, j, l &gt;</text>
</a>
</g>
</g>
<!-- Node1&#45;&gt;Node3 -->
<g id="edge2" class="edge">
<title>Node1&#45;&gt;Node3</title>
<path fill="none" stroke="orange" stroke-dasharray="5,2" d="M79.88,-579.62C85.26,-667.32 107.78,-957.81 173,-1018.5 205.63,-1048.87 255.23,-1055.5 296.94,-1054.48"/>
<polygon fill="orange" stroke="orange" points="83.37,-579.29 79.29,-569.52 76.38,-579.7 83.37,-579.29"/>
<text text-anchor="middle" x="226" y="-1056.5" font-family="Helvetica,sans-Serif" font-size="10.00"> &lt; B, U, Dim01, j, l &gt;</text>
</g>
<!-- Node4 -->
<g id="node4" class="node">
<title>Node4</title>
<g id="a_node4"><a xlink:href="classFTensor_1_1Tensor2__symmetric__Expr.html" target="_top" xlink:title=" ">
<polygon fill="white" stroke="black" points="297,-980.5 297,-1010.5 452,-1010.5 452,-980.5 297,-980.5"/>
<text text-anchor="start" x="305" y="-998.5" font-family="Helvetica,sans-Serif" font-size="10.00">FTensor::Tensor2_symmetric</text>
<text text-anchor="middle" x="374.5" y="-987.5" font-family="Helvetica,sans-Serif" font-size="10.00">_Expr&lt; A, T, Dim, j, i &gt;</text>
</a>
</g>
</g>
<!-- Node1&#45;&gt;Node4 -->
<g id="edge3" class="edge">
<title>Node1&#45;&gt;Node4</title>
<path fill="none" stroke="orange" stroke-dasharray="5,2" d="M80.62,-579.98C87.95,-661.59 115.02,-914.31 173,-967.5 205.76,-997.55 255.1,-1004.74 296.64,-1004.33"/>
<polygon fill="orange" stroke="orange" points="84.07,-579.29 79.71,-569.64 77.1,-579.9 84.07,-579.29"/>
<text text-anchor="middle" x="226" y="-1006.5" font-family="Helvetica,sans-Serif" font-size="10.00"> &lt; A, T, Dim, j, i &gt;</text>
</g>
<!-- Node5 -->
<g id="node5" class="node">
<title>Node5</title>
<g id="a_node5"><a xlink:href="classFTensor_1_1Tensor2__symmetric__Expr.html" target="_top" xlink:title=" ">
<polygon fill="white" stroke="black" points="297,-931.5 297,-961.5 452,-961.5 452,-931.5 297,-931.5"/>
<text text-anchor="start" x="305" y="-949.5" font-family="Helvetica,sans-Serif" font-size="10.00">FTensor::Tensor2_symmetric</text>
<text text-anchor="middle" x="374.5" y="-938.5" font-family="Helvetica,sans-Serif" font-size="10.00">_Expr&lt; B, U, Dim01, k, j &gt;</text>
</a>
</g>
</g>
<!-- Node1&#45;&gt;Node5 -->
<g id="edge4" class="edge">
<title>Node1&#45;&gt;Node5</title>
<path fill="none" stroke="orange" stroke-dasharray="5,2" d="M81.55,-580.21C90.98,-655.13 122.1,-870.77 173,-916.5 206.12,-946.26 255.46,-953.93 296.91,-954.08"/>
<polygon fill="orange" stroke="orange" points="84.97,-579.33 80.27,-569.83 78.02,-580.19 84.97,-579.33"/>
<text text-anchor="middle" x="226" y="-955.5" font-family="Helvetica,sans-Serif" font-size="10.00"> &lt; B, U, Dim01, k, j &gt;</text>
</g>
<!-- Node6 -->
<g id="node6" class="node">
<title>Node6</title>
<g id="a_node6"><a xlink:href="classFTensor_1_1Tensor2__symmetric__Expr.html" target="_top" xlink:title=" ">
<polygon fill="white" stroke="black" points="297,-882.5 297,-912.5 452,-912.5 452,-882.5 297,-882.5"/>
<text text-anchor="start" x="305" y="-900.5" font-family="Helvetica,sans-Serif" font-size="10.00">FTensor::Tensor2_symmetric</text>
<text text-anchor="middle" x="374.5" y="-889.5" font-family="Helvetica,sans-Serif" font-size="10.00">_Expr&lt; B, U, Dim01, j, k &gt;</text>
</a>
</g>
</g>
<!-- Node1&#45;&gt;Node6 -->
<g id="edge5" class="edge">
<title>Node1&#45;&gt;Node6</title>
<path fill="none" stroke="orange" stroke-dasharray="5,2" d="M77.92,-579.71C78.05,-639.31 87.31,-789.49 173,-864.5 206.45,-893.78 255.54,-902.23 296.78,-903.26"/>
<polygon fill="orange" stroke="orange" points="81.42,-579.7 77.99,-569.68 74.42,-579.65 81.42,-579.7"/>
<text text-anchor="middle" x="226" y="-904.5" font-family="Helvetica,sans-Serif" font-size="10.00"> &lt; B, U, Dim01, j, k &gt;</text>
</g>
<!-- Node7 -->
<g id="node7" class="node">
<title>Node7</title>
<g id="a_node7"><a xlink:href="classFTensor_1_1Tensor2__symmetric__Expr.html" target="_top" xlink:title=" ">
<polygon fill="white" stroke="black" points="297,-833.5 297,-863.5 452,-863.5 452,-833.5 297,-833.5"/>
<text text-anchor="start" x="305" y="-851.5" font-family="Helvetica,sans-Serif" font-size="10.00">FTensor::Tensor2_symmetric</text>
<text text-anchor="middle" x="374.5" y="-840.5" font-family="Helvetica,sans-Serif" font-size="10.00">_Expr&lt; B, U, Dim01, l, j &gt;</text>
</a>
</g>
</g>
<!-- Node1&#45;&gt;Node7 -->
<g id="edge6" class="edge">
<title>Node1&#45;&gt;Node7</title>
<path fill="none" stroke="orange" stroke-dasharray="5,2" d="M79.92,-579.8C84.28,-631.69 101.92,-750.36 173,-810.5 206.94,-839.22 255.79,-848.91 296.77,-851.33"/>
<polygon fill="orange" stroke="orange" points="83.41,-579.49 79.18,-569.78 76.43,-580.01 83.41,-579.49"/>
<text text-anchor="middle" x="226" y="-852.5" font-family="Helvetica,sans-Serif" font-size="10.00"> &lt; B, U, Dim01, l, j &gt;</text>
</g>
<!-- Node8 -->
<g id="node8" class="node">
<title>Node8</title>
<g id="a_node8"><a xlink:href="classFTensor_1_1Tensor2__symmetric__Expr.html" target="_top" xlink:title=" ">
<polygon fill="white" stroke="black" points="297,-784.5 297,-814.5 452,-814.5 452,-784.5 297,-784.5"/>
<text text-anchor="start" x="305" y="-802.5" font-family="Helvetica,sans-Serif" font-size="10.00">FTensor::Tensor2_symmetric</text>
<text text-anchor="middle" x="374.5" y="-791.5" font-family="Helvetica,sans-Serif" font-size="10.00">_Expr&lt; B, U, Dim1, k, l &gt;</text>
</a>
</g>
</g>
<!-- Node1&#45;&gt;Node8 -->
<g id="edge7" class="edge">
<title>Node1&#45;&gt;Node8</title>
<path fill="none" stroke="orange" stroke-dasharray="5,2" d="M82.89,-579.58C91.8,-622.59 116.19,-710.15 173,-755.5 207.68,-783.18 256.05,-794.34 296.59,-798.51"/>
<polygon fill="orange" stroke="orange" points="86.31,-578.8 80.95,-569.66 79.44,-580.14 86.31,-578.8"/>
<text text-anchor="middle" x="226" y="-798.5" font-family="Helvetica,sans-Serif" font-size="10.00"> &lt; B, U, Dim1, k, l &gt;</text>
</g>
<!-- Node9 -->
<g id="node9" class="node">
<title>Node9</title>
<g id="a_node9"><a xlink:href="classFTensor_1_1Tensor2__symmetric__Expr.html" target="_top" xlink:title=" ">
<polygon fill="white" stroke="black" points="297,-735.5 297,-765.5 452,-765.5 452,-735.5 297,-735.5"/>
<text text-anchor="start" x="305" y="-753.5" font-family="Helvetica,sans-Serif" font-size="10.00">FTensor::Tensor2_symmetric</text>
<text text-anchor="middle" x="374.5" y="-742.5" font-family="Helvetica,sans-Serif" font-size="10.00">_Expr&lt; B, U, Dim, l, i &gt;</text>
</a>
</g>
</g>
<!-- Node1&#45;&gt;Node9 -->
<g id="edge8" class="edge">
<title>Node1&#45;&gt;Node9</title>
<path fill="none" stroke="orange" stroke-dasharray="5,2" d="M87.58,-578.91C101.08,-611.71 129.58,-669.48 173,-700.5 209.05,-726.26 256.98,-738.8 296.94,-744.88"/>
<polygon fill="orange" stroke="orange" points="90.83,-577.59 83.88,-569.59 84.32,-580.17 90.83,-577.59"/>
<text text-anchor="middle" x="226" y="-743.5" font-family="Helvetica,sans-Serif" font-size="10.00"> &lt; B, U, Dim, l, i &gt;</text>
</g>
<!-- Node10 -->
<g id="node10" class="node">
<title>Node10</title>
<g id="a_node10"><a xlink:href="classFTensor_1_1Tensor2__symmetric__Expr.html" target="_top" xlink:title=" ">
<polygon fill="white" stroke="black" points="297,-686.5 297,-716.5 452,-716.5 452,-686.5 297,-686.5"/>
<text text-anchor="start" x="305" y="-704.5" font-family="Helvetica,sans-Serif" font-size="10.00">FTensor::Tensor2_symmetric</text>
<text text-anchor="middle" x="374.5" y="-693.5" font-family="Helvetica,sans-Serif" font-size="10.00">_Expr&lt; A, T, Dim, i, k &gt;</text>
</a>
</g>
</g>
<!-- Node1&#45;&gt;Node10 -->
<g id="edge9" class="edge">
<title>Node1&#45;&gt;Node10</title>
<path fill="none" stroke="orange" stroke-dasharray="5,2" d="M96.14,-577.71C113.47,-598.92 141.79,-629.62 173,-647.5 210.85,-669.18 257.71,-682.43 296.61,-690.38"/>
<polygon fill="orange" stroke="orange" points="98.82,-575.45 89.84,-569.82 93.35,-579.82 98.82,-575.45"/>
<text text-anchor="middle" x="226" y="-688.5" font-family="Helvetica,sans-Serif" font-size="10.00"> &lt; A, T, Dim, i, k &gt;</text>
</g>
<!-- Node11 -->
<g id="node11" class="node">
<title>Node11</title>
<g id="a_node11"><a xlink:href="classFTensor_1_1Tensor2__symmetric__Expr.html" target="_top" xlink:title=" ">
<polygon fill="white" stroke="black" points="297,-637.5 297,-667.5 452,-667.5 452,-637.5 297,-637.5"/>
<text text-anchor="start" x="305" y="-655.5" font-family="Helvetica,sans-Serif" font-size="10.00">FTensor::Tensor2_symmetric</text>
<text text-anchor="middle" x="374.5" y="-644.5" font-family="Helvetica,sans-Serif" font-size="10.00">_Expr&lt; A, T, Dim0, i, j &gt;</text>
</a>
</g>
</g>
<!-- Node1&#45;&gt;Node11 -->
<g id="edge10" class="edge">
<title>Node1&#45;&gt;Node11</title>
<path fill="none" stroke="orange" stroke-dasharray="5,2" d="M113.49,-574.66C130.94,-584.09 152.64,-594.9 173,-602.5 212.83,-617.36 258.75,-629.18 296.58,-637.59"/>
<polygon fill="orange" stroke="orange" points="114.71,-571.34 104.26,-569.59 111.34,-577.47 114.71,-571.34"/>
<text text-anchor="middle" x="226" y="-635.5" font-family="Helvetica,sans-Serif" font-size="10.00"> &lt; A, T, Dim0, i, j &gt;</text>
</g>
<!-- Node12 -->
<g id="node12" class="node">
<title>Node12</title>
<g id="a_node12"><a xlink:href="classFTensor_1_1Tensor2__symmetric__Expr.html" target="_top" xlink:title=" ">
<polygon fill="white" stroke="black" points="297,-588.5 297,-618.5 452,-618.5 452,-588.5 297,-588.5"/>
<text text-anchor="start" x="305" y="-606.5" font-family="Helvetica,sans-Serif" font-size="10.00">FTensor::Tensor2_symmetric</text>
<text text-anchor="middle" x="374.5" y="-595.5" font-family="Helvetica,sans-Serif" font-size="10.00">_Expr&lt; B, U, Dim01, i, j &gt;</text>
</a>
</g>
</g>
<!-- Node1&#45;&gt;Node12 -->
<g id="edge11" class="edge">
<title>Node1&#45;&gt;Node12</title>
<path fill="none" stroke="orange" stroke-dasharray="5,2" d="M165.12,-568.89C206.88,-575.82 256.53,-584.07 296.89,-590.78"/>
<polygon fill="orange" stroke="orange" points="165.68,-565.43 155.24,-567.25 164.53,-572.34 165.68,-565.43"/>
<text text-anchor="middle" x="226" y="-590.5" font-family="Helvetica,sans-Serif" font-size="10.00"> &lt; B, U, Dim01, i, j &gt;</text>
</g>
<!-- Node13 -->
<g id="node13" class="node">
<title>Node13</title>
<g id="a_node13"><a xlink:href="classFTensor_1_1Tensor2__symmetric__Expr.html" target="_top" xlink:title=" ">
<polygon fill="white" stroke="black" points="297,-539.5 297,-569.5 452,-569.5 452,-539.5 297,-539.5"/>
<text text-anchor="start" x="305" y="-557.5" font-family="Helvetica,sans-Serif" font-size="10.00">FTensor::Tensor2_symmetric</text>
<text text-anchor="middle" x="374.5" y="-546.5" font-family="Helvetica,sans-Serif" font-size="10.00">_Expr&lt; B, U, Dim23, k, l &gt;</text>
</a>
</g>
</g>
<!-- Node1&#45;&gt;Node13 -->
<g id="edge12" class="edge">
<title>Node1&#45;&gt;Node13</title>
<path fill="none" stroke="orange" stroke-dasharray="5,2" d="M165.38,-554.5C207.09,-554.5 256.61,-554.5 296.89,-554.5"/>
<polygon fill="orange" stroke="orange" points="165.24,-551 155.24,-554.5 165.24,-558 165.24,-551"/>
<text text-anchor="middle" x="226" y="-557.5" font-family="Helvetica,sans-Serif" font-size="10.00"> &lt; B, U, Dim23, k, l &gt;</text>
</g>
<!-- Node14 -->
<g id="node14" class="node">
<title>Node14</title>
<g id="a_node14"><a xlink:href="classFTensor_1_1Tensor2__symmetric__Expr.html" target="_top" xlink:title=" ">
<polygon fill="white" stroke="black" points="297,-490.5 297,-520.5 452,-520.5 452,-490.5 297,-490.5"/>
<text text-anchor="start" x="305" y="-508.5" font-family="Helvetica,sans-Serif" font-size="10.00">FTensor::Tensor2_symmetric</text>
<text text-anchor="middle" x="374.5" y="-497.5" font-family="Helvetica,sans-Serif" font-size="10.00">_Expr&lt; B, U, Dim2, k, l &gt;</text>
</a>
</g>
</g>
<!-- Node1&#45;&gt;Node14 -->
<g id="edge13" class="edge">
<title>Node1&#45;&gt;Node14</title>
<path fill="none" stroke="orange" stroke-dasharray="5,2" d="M165.12,-540.11C206.88,-533.18 256.53,-524.93 296.89,-518.22"/>
<polygon fill="orange" stroke="orange" points="164.53,-536.66 155.24,-541.75 165.68,-543.57 164.53,-536.66"/>
<text text-anchor="middle" x="226" y="-541.5" font-family="Helvetica,sans-Serif" font-size="10.00"> &lt; B, U, Dim2, k, l &gt;</text>
</g>
<!-- Node15 -->
<g id="node15" class="node">
<title>Node15</title>
<g id="a_node15"><a xlink:href="classFTensor_1_1Tensor2__symmetric__Expr.html" target="_top" xlink:title=" ">
<polygon fill="white" stroke="black" points="297,-441.5 297,-471.5 452,-471.5 452,-441.5 297,-441.5"/>
<text text-anchor="start" x="305" y="-459.5" font-family="Helvetica,sans-Serif" font-size="10.00">FTensor::Tensor2_symmetric</text>
<text text-anchor="middle" x="374.5" y="-448.5" font-family="Helvetica,sans-Serif" font-size="10.00">_Expr&lt; B, U, Dim, j, i &gt;</text>
</a>
</g>
</g>
<!-- Node1&#45;&gt;Node15 -->
<g id="edge14" class="edge">
<title>Node1&#45;&gt;Node15</title>
<path fill="none" stroke="orange" stroke-dasharray="5,2" d="M112.19,-534.53C129.84,-524.72 152.08,-513.35 173,-505.5 212.92,-490.52 259.05,-478.88 297,-470.71"/>
<polygon fill="orange" stroke="orange" points="110.4,-531.52 103.41,-539.49 113.84,-537.62 110.4,-531.52"/>
<text text-anchor="middle" x="226" y="-508.5" font-family="Helvetica,sans-Serif" font-size="10.00"> &lt; B, U, Dim, j, i &gt;</text>
</g>
<!-- Node16 -->
<g id="node16" class="node">
<title>Node16</title>
<g id="a_node16"><a xlink:href="classFTensor_1_1Tensor2__symmetric__Expr.html" target="_top" xlink:title=" ">
<polygon fill="white" stroke="black" points="297,-392.5 297,-422.5 452,-422.5 452,-392.5 297,-392.5"/>
<text text-anchor="start" x="305" y="-410.5" font-family="Helvetica,sans-Serif" font-size="10.00">FTensor::Tensor2_symmetric</text>
<text text-anchor="middle" x="374.5" y="-399.5" font-family="Helvetica,sans-Serif" font-size="10.00">_Expr&lt; B, U, Dim2, l, k &gt;</text>
</a>
</g>
</g>
<!-- Node1&#45;&gt;Node16 -->
<g id="edge15" class="edge">
<title>Node1&#45;&gt;Node16</title>
<path fill="none" stroke="orange" stroke-dasharray="5,2" d="M95.78,-531.36C113.03,-509.89 141.45,-478.59 173,-460.5 210.79,-438.83 257.65,-425.81 296.57,-418.09"/>
<polygon fill="orange" stroke="orange" points="92.94,-529.32 89.52,-539.34 98.45,-533.64 92.94,-529.32"/>
<text text-anchor="middle" x="226" y="-463.5" font-family="Helvetica,sans-Serif" font-size="10.00"> &lt; B, U, Dim2, l, k &gt;</text>
</g>
<!-- Node17 -->
<g id="node17" class="node">
<title>Node17</title>
<g id="a_node17"><a xlink:href="classFTensor_1_1Tensor2__symmetric__Expr.html" target="_top" xlink:title=" ">
<polygon fill="white" stroke="black" points="297,-343.5 297,-373.5 452,-373.5 452,-343.5 297,-343.5"/>
<text text-anchor="start" x="305" y="-361.5" font-family="Helvetica,sans-Serif" font-size="10.00">FTensor::Tensor2_symmetric</text>
<text text-anchor="middle" x="374.5" y="-350.5" font-family="Helvetica,sans-Serif" font-size="10.00">_Expr&lt; B, U, Dim, k, l &gt;</text>
</a>
</g>
</g>
<!-- Node1&#45;&gt;Node17 -->
<g id="edge16" class="edge">
<title>Node1&#45;&gt;Node17</title>
<path fill="none" stroke="orange" stroke-dasharray="5,2" d="M87.45,-529.7C100.79,-496.38 129.11,-437.75 173,-406.5 209.01,-380.86 256.94,-368.79 296.9,-363.16"/>
<polygon fill="orange" stroke="orange" points="84.13,-528.58 83.79,-539.17 90.66,-531.1 84.13,-528.58"/>
<text text-anchor="middle" x="226" y="-409.5" font-family="Helvetica,sans-Serif" font-size="10.00"> &lt; B, U, Dim, k, l &gt;</text>
</g>
<!-- Node18 -->
<g id="node18" class="node">
<title>Node18</title>
<g id="a_node18"><a xlink:href="classFTensor_1_1Tensor2__symmetric__Expr.html" target="_top" xlink:title=" ">
<polygon fill="white" stroke="black" points="297,-294.5 297,-324.5 452,-324.5 452,-294.5 297,-294.5"/>
<text text-anchor="start" x="305" y="-312.5" font-family="Helvetica,sans-Serif" font-size="10.00">FTensor::Tensor2_symmetric</text>
<text text-anchor="middle" x="374.5" y="-301.5" font-family="Helvetica,sans-Serif" font-size="10.00">_Expr&lt; B, U, Dim, j, l &gt;</text>
</a>
</g>
</g>
<!-- Node1&#45;&gt;Node18 -->
<g id="edge17" class="edge">
<title>Node1&#45;&gt;Node18</title>
<path fill="none" stroke="orange" stroke-dasharray="5,2" d="M82.71,-529.44C91.37,-486.04 115.45,-397.17 173,-351.5 207.68,-323.98 256.05,-313.29 296.59,-309.57"/>
<polygon fill="orange" stroke="orange" points="79.23,-528.96 80.82,-539.44 86.11,-530.26 79.23,-528.96"/>
<text text-anchor="middle" x="226" y="-354.5" font-family="Helvetica,sans-Serif" font-size="10.00"> &lt; B, U, Dim, j, l &gt;</text>
</g>
<!-- Node19 -->
<g id="node19" class="node">
<title>Node19</title>
<g id="a_node19"><a xlink:href="classFTensor_1_1Tensor2__symmetric__Expr.html" target="_top" xlink:title=" ">
<polygon fill="white" stroke="black" points="297,-245.5 297,-275.5 452,-275.5 452,-245.5 297,-245.5"/>
<text text-anchor="start" x="305" y="-263.5" font-family="Helvetica,sans-Serif" font-size="10.00">FTensor::Tensor2_symmetric</text>
<text text-anchor="middle" x="374.5" y="-252.5" font-family="Helvetica,sans-Serif" font-size="10.00">_Expr&lt; B, U, Dim, l, k &gt;</text>
</a>
</g>
</g>
<!-- Node1&#45;&gt;Node19 -->
<g id="edge18" class="edge">
<title>Node1&#45;&gt;Node19</title>
<path fill="none" stroke="orange" stroke-dasharray="5,2" d="M79.78,-529.33C83.87,-477.13 101.05,-356.94 173,-296.5 206.98,-267.95 255.83,-258.74 296.81,-256.77"/>
<polygon fill="orange" stroke="orange" points="76.28,-529.17 79.09,-539.39 83.27,-529.65 76.28,-529.17"/>
<text text-anchor="middle" x="226" y="-299.5" font-family="Helvetica,sans-Serif" font-size="10.00"> &lt; B, U, Dim, l, k &gt;</text>
</g>
<!-- Node20 -->
<g id="node20" class="node">
<title>Node20</title>
<g id="a_node20"><a xlink:href="classFTensor_1_1Tensor2__symmetric__Expr.html" target="_top" xlink:title=" ">
<polygon fill="white" stroke="black" points="297,-196.5 297,-226.5 452,-226.5 452,-196.5 297,-196.5"/>
<text text-anchor="start" x="305" y="-214.5" font-family="Helvetica,sans-Serif" font-size="10.00">FTensor::Tensor2_symmetric</text>
<text text-anchor="middle" x="374.5" y="-203.5" font-family="Helvetica,sans-Serif" font-size="10.00">_Expr&lt; B, U, Dim, i, l &gt;</text>
</a>
</g>
</g>
<!-- Node1&#45;&gt;Node20 -->
<g id="edge19" class="edge">
<title>Node1&#45;&gt;Node20</title>
<path fill="none" stroke="orange" stroke-dasharray="5,2" d="M77.82,-529.07C77.71,-468.98 86.51,-317.61 173,-242.5 206.51,-213.4 255.6,-205.44 296.82,-204.85"/>
<polygon fill="orange" stroke="orange" points="74.32,-529.23 77.93,-539.19 81.32,-529.16 74.32,-529.23"/>
<text text-anchor="middle" x="226" y="-245.5" font-family="Helvetica,sans-Serif" font-size="10.00"> &lt; B, U, Dim, i, l &gt;</text>
</g>
<!-- Node21 -->
<g id="node21" class="node">
<title>Node21</title>
<g id="a_node21"><a xlink:href="classFTensor_1_1Tensor2__symmetric__Expr.html" target="_top" xlink:title=" ">
<polygon fill="white" stroke="black" points="297,-147.5 297,-177.5 452,-177.5 452,-147.5 297,-147.5"/>
<text text-anchor="start" x="305" y="-165.5" font-family="Helvetica,sans-Serif" font-size="10.00">FTensor::Tensor2_symmetric</text>
<text text-anchor="middle" x="374.5" y="-154.5" font-family="Helvetica,sans-Serif" font-size="10.00">_Expr&lt; B, T, Dim, j, l &gt;</text>
</a>
</g>
</g>
<!-- Node1&#45;&gt;Node21 -->
<g id="edge20" class="edge">
<title>Node1&#45;&gt;Node21</title>
<path fill="none" stroke="orange" stroke-dasharray="5,2" d="M81.44,-529.13C90.67,-454.22 121.53,-236.35 173,-190.5 206.2,-160.92 255.54,-153.74 296.97,-154.04"/>
<polygon fill="orange" stroke="orange" points="77.92,-529.15 80.19,-539.49 84.87,-529.99 77.92,-529.15"/>
<text text-anchor="middle" x="226" y="-193.5" font-family="Helvetica,sans-Serif" font-size="10.00"> &lt; B, T, Dim, j, l &gt;</text>
</g>
<!-- Node22 -->
<g id="node22" class="node">
<title>Node22</title>
<g id="a_node22"><a xlink:href="classFTensor_1_1Tensor2__symmetric__Expr.html" target="_top" xlink:title=" ">
<polygon fill="white" stroke="black" points="297,-98.5 297,-128.5 452,-128.5 452,-98.5 297,-98.5"/>
<text text-anchor="start" x="305" y="-116.5" font-family="Helvetica,sans-Serif" font-size="10.00">FTensor::Tensor2_symmetric</text>
<text text-anchor="middle" x="374.5" y="-105.5" font-family="Helvetica,sans-Serif" font-size="10.00">_Expr&lt; B, U, Dim, k, j &gt;</text>
</a>
</g>
</g>
<!-- Node1&#45;&gt;Node22 -->
<g id="edge21" class="edge">
<title>Node1&#45;&gt;Node22</title>
<path fill="none" stroke="orange" stroke-dasharray="5,2" d="M80.54,-529.06C87.65,-447.02 114.21,-191.72 173,-138.5 205.9,-108.72 255.24,-102.27 296.74,-103.36"/>
<polygon fill="orange" stroke="orange" points="77.03,-528.98 79.68,-539.23 84.01,-529.56 77.03,-528.98"/>
<text text-anchor="middle" x="226" y="-141.5" font-family="Helvetica,sans-Serif" font-size="10.00"> &lt; B, U, Dim, k, j &gt;</text>
</g>
<!-- Node23 -->
<g id="node23" class="node">
<title>Node23</title>
<g id="a_node23"><a xlink:href="classFTensor_1_1Tensor2__symmetric__Expr.html" target="_top" xlink:title=" ">
<polygon fill="white" stroke="black" points="297,-49.5 297,-79.5 452,-79.5 452,-49.5 297,-49.5"/>
<text text-anchor="start" x="305" y="-67.5" font-family="Helvetica,sans-Serif" font-size="10.00">FTensor::Tensor2_symmetric</text>
<text text-anchor="middle" x="374.5" y="-56.5" font-family="Helvetica,sans-Serif" font-size="10.00">_Expr&lt; B, U, Dim, j, k &gt;</text>
</a>
</g>
</g>
<!-- Node1&#45;&gt;Node23 -->
<g id="edge22" class="edge">
<title>Node1&#45;&gt;Node23</title>
<path fill="none" stroke="orange" stroke-dasharray="5,2" d="M79.83,-529.18C85.01,-440.81 106.97,-148.12 173,-87.5 205.65,-57.53 254.99,-51.56 296.55,-53.19"/>
<polygon fill="orange" stroke="orange" points="76.32,-529.19 79.25,-539.37 83.31,-529.58 76.32,-529.19"/>
<text text-anchor="middle" x="226" y="-90.5" font-family="Helvetica,sans-Serif" font-size="10.00"> &lt; B, U, Dim, j, k &gt;</text>
</g>
<!-- Node24 -->
<g id="node24" class="node">
<title>Node24</title>
<g id="a_node24"><a xlink:href="classFTensor_1_1Tensor2__symmetric__Expr.html" target="_top" xlink:title=" ">
<polygon fill="white" stroke="black" points="297,-0.5 297,-30.5 452,-30.5 452,-0.5 297,-0.5"/>
<text text-anchor="start" x="305" y="-18.5" font-family="Helvetica,sans-Serif" font-size="10.00">FTensor::Tensor2_symmetric</text>
<text text-anchor="middle" x="374.5" y="-7.5" font-family="Helvetica,sans-Serif" font-size="10.00">_Expr&lt; B, U, Dim, i, j &gt;</text>
</a>
</g>
</g>
<!-- Node1&#45;&gt;Node24 -->
<g id="edge23" class="edge">
<title>Node1&#45;&gt;Node24</title>
<path fill="none" stroke="orange" stroke-dasharray="5,2" d="M79.28,-529.28C82.73,-435.04 99.93,-105.53 173,-37.5 205.55,-7.2 255.15,-1.55 296.87,-3.55"/>
<polygon fill="orange" stroke="orange" points="75.78,-529.22 78.93,-539.33 82.77,-529.46 75.78,-529.22"/>
<text text-anchor="middle" x="226" y="-40.5" font-family="Helvetica,sans-Serif" font-size="10.00"> &lt; B, U, Dim, i, j &gt;</text>
</g>
</g>
</svg>
