<?xml version="1.0" encoding="UTF-8" standalone="no"?>
<!DOCTYPE svg PUBLIC "-//W3C//DTD SVG 1.1//EN"
 "http://www.w3.org/Graphics/SVG/1.1/DTD/svg11.dtd">
<!-- Generated by graphviz version 9.0.0 (20230911.1827)
 -->
<!-- Title: FTensor::Tensor4_times_Dg_01&lt; A, B, T, U, Dim0, Dim1, Dim2, Dim3, Dim4, i, j, k, l, m &gt; Pages: 1 -->
<!--zoomable 129 -->
<svg id="main" version="1.1" xmlns="http://www.w3.org/2000/svg" xmlns:xlink="http://www.w3.org/1999/xlink" xml:space="preserve" onload="init(evt)">
<style type="text/css"><![CDATA[
.edge:hover path { stroke: red; }
.edge:hover polygon { stroke: red; fill: red; }
]]></style>
<script type="text/javascript"><![CDATA[
var edges = document.getElementsByTagName('g');
if (edges && edges.length) {
  for (var i=0;i<edges.length;i++) {
    if (edges[i].id.substr(0,4)=='edge') {
      edges[i].setAttribute('class','edge');
    }
  }
}
]]></script>
        <defs>
                <circle id="rim" cx="0" cy="0" r="7"/>
                <circle id="rim2" cx="0" cy="0" r="3.5"/>
                <g id="zoomPlus">
                        <use xlink:href="#rim" fill="#404040">
                                <set attributeName="fill" to="#808080" begin="zoomplus.mouseover" end="zoomplus.mouseout"/>
                        </use>
                        <path d="M-4,0h8M0,-4v8" fill="none" stroke="white" stroke-width="1.5" pointer-events="none"/>
                </g>
                <g id="zoomMin">
                        <use xlink:href="#rim" fill="#404040">
                                <set attributeName="fill" to="#808080" begin="zoomminus.mouseover" end="zoomminus.mouseout"/>
                        </use>
                        <path d="M-4,0h8" fill="none" stroke="white" stroke-width="1.5" pointer-events="none"/>
                </g>
                <g id="dirArrow">
                        <path fill="none" stroke="white" stroke-width="1.5" d="M0,-3.0v7 M-2.5,-0.5L0,-3.0L2.5,-0.5"/>
                </g>
               <g id="resetDef">
                       <use xlink:href="#rim2" fill="#404040">
                               <set attributeName="fill" to="#808080" begin="reset.mouseover" end="reset.mouseout"/>
                       </use>
               </g>
        </defs>

<script type="text/javascript">
var viewWidth = 650;
var viewHeight = 129;
var sectionId = 'dynsection-0';
</script>
<script xlink:href="svgpan.js"/>
<svg id="graph" class="graph">
<g id="viewport">
<title>FTensor::Tensor4_times_Dg_01&lt; A, B, T, U, Dim0, Dim1, Dim2, Dim3, Dim4, i, j, k, l, m &gt;</title>
<!-- Node1 -->
<g id="node1" class="node">
<title>Node1</title>
<g id="a_node1"><a xlink:title=" ">
<polygon fill="#999999" stroke="#666666" points="642.3,-99.38 508.55,-99.38 508.55,-46.38 642.3,-46.38 642.3,-99.38"/>
<text text-anchor="start" x="516.55" y="-85.88" font-family="Helvetica,sans-Serif" font-size="10.00">FTensor::Tensor4_times</text>
<text text-anchor="start" x="516.55" y="-74.62" font-family="Helvetica,sans-Serif" font-size="10.00">_Dg_01&lt; A, B, T, U, Dim0,</text>
<text text-anchor="start" x="516.55" y="-63.38" font-family="Helvetica,sans-Serif" font-size="10.00"> Dim1, Dim2, Dim3, Dim4,</text>
<text text-anchor="middle" x="575.42" y="-52.12" font-family="Helvetica,sans-Serif" font-size="10.00"> i, j, k, l, m &gt;</text>
</a>
</g>
</g>
<!-- Node2 -->
<g id="node2" class="node">
<title>Node2</title>
<g id="a_node2"><a xlink:title=" ">
<polygon fill="white" stroke="#666666" points="445.17,-120.75 328.67,-120.75 328.67,-79 445.17,-79 445.17,-120.75"/>
<text text-anchor="start" x="336.67" y="-107.25" font-family="Helvetica,sans-Serif" font-size="10.00">const Tensor4_Expr</text>
<text text-anchor="start" x="336.67" y="-96" font-family="Helvetica,sans-Serif" font-size="10.00">&lt; A, T, Dim0, Dim1,</text>
<text text-anchor="middle" x="386.92" y="-84.75" font-family="Helvetica,sans-Serif" font-size="10.00"> Dim2, Dim3, i, j, k, l &gt;</text>
</a>
</g>
</g>
<!-- Node2&#45;&gt;Node1 -->
<g id="edge1" class="edge">
<title>Node2&#45;&gt;Node1</title>
<path fill="none" stroke="#9a32cd" stroke-dasharray="5,2" d="M457.03,-89.87C473.74,-87.45 491.58,-84.87 508.16,-82.47"/>
<polygon fill="#9a32cd" stroke="#9a32cd" points="456.55,-86.4 447.16,-91.3 457.55,-93.33 456.55,-86.4"/>
<text text-anchor="middle" x="478.92" y="-89.62" font-family="Helvetica,sans-Serif" font-size="10.00"> iterA</text>
</g>
<!-- Node3 -->
<g id="node3" class="node">
<title>Node3</title>
<g id="a_node3"><a xlink:href="class_f_tensor_1_1_dg___expr.html" target="_top" xlink:title=" ">
<polygon fill="white" stroke="#666666" points="449.3,-61.12 324.55,-61.12 324.55,-30.62 449.3,-30.62 449.3,-61.12"/>
<text text-anchor="start" x="332.55" y="-47.62" font-family="Helvetica,sans-Serif" font-size="10.00">FTensor::Dg_Expr&lt; B,</text>
<text text-anchor="middle" x="386.92" y="-36.38" font-family="Helvetica,sans-Serif" font-size="10.00"> U, Dim0, Dim4, i, j, m &gt;</text>
</a>
</g>
</g>
<!-- Node3&#45;&gt;Node1 -->
<g id="edge2" class="edge">
<title>Node3&#45;&gt;Node1</title>
<path fill="none" stroke="#9a32cd" stroke-dasharray="5,2" d="M460.96,-56.45C476.55,-58.71 492.94,-61.08 508.26,-63.3"/>
<polygon fill="#9a32cd" stroke="#9a32cd" points="461.66,-53.01 451.27,-55.04 460.66,-59.94 461.66,-53.01"/>
<text text-anchor="middle" x="478.92" y="-62.62" font-family="Helvetica,sans-Serif" font-size="10.00"> iterB</text>
</g>
<!-- Node4 -->
<g id="node4" class="node">
<title>Node4</title>
<g id="a_node4"><a xlink:href="class_b.html" target="_top" xlink:title=" ">
<polygon fill="white" stroke="#666666" points="152.45,-79.5 123.65,-79.5 123.65,-60.25 152.45,-60.25 152.45,-79.5"/>
<text text-anchor="middle" x="138.05" y="-66" font-family="Helvetica,sans-Serif" font-size="10.00">B</text>
</a>
</g>
</g>
<!-- Node4&#45;&gt;Node3 -->
<g id="edge3" class="edge">
<title>Node4&#45;&gt;Node3</title>
<path fill="none" stroke="#9a32cd" stroke-dasharray="5,2" d="M163.9,-67.46C201.08,-63.84 272.35,-56.92 324.14,-51.88"/>
<polygon fill="#9a32cd" stroke="#9a32cd" points="163.8,-63.95 154.18,-68.4 164.47,-70.92 163.8,-63.95"/>
<text text-anchor="middle" x="259.67" y="-64.62" font-family="Helvetica,sans-Serif" font-size="10.00"> iter</text>
</g>
<!-- Node5 -->
<g id="node5" class="node">
<title>Node5</title>
<g id="a_node5"><a xlink:href="class_f_tensor_1_1_dg___expr.html" target="_top" xlink:title=" ">
<polygon fill="white" stroke="#666666" points="194.8,-41.75 81.3,-41.75 81.3,0 194.8,0 194.8,-41.75"/>
<text text-anchor="start" x="89.3" y="-28.25" font-family="Helvetica,sans-Serif" font-size="10.00">FTensor::Dg_Expr&lt; A,</text>
<text text-anchor="start" x="89.3" y="-17" font-family="Helvetica,sans-Serif" font-size="10.00"> T, Dim01, Dim2, i,</text>
<text text-anchor="middle" x="138.05" y="-5.75" font-family="Helvetica,sans-Serif" font-size="10.00"> j, k &gt;</text>
</a>
</g>
</g>
<!-- Node5&#45;&gt;Node3 -->
<g id="edge4" class="edge">
<title>Node5&#45;&gt;Node3</title>
<path fill="none" stroke="orange" stroke-dasharray="5,2" d="M206.54,-20.58C237.18,-21.19 273.82,-22.97 306.55,-27.38 312.3,-28.15 318.24,-29.15 324.17,-30.29"/>
<polygon fill="orange" stroke="orange" points="206.68,-17.08 196.63,-20.42 206.57,-24.08 206.68,-17.08"/>
<text text-anchor="start" x="212.8" y="-40.88" font-family="Helvetica,sans-Serif" font-size="10.00"> &lt; B, U, Dim0, Dim4,</text>
<text text-anchor="middle" x="259.67" y="-29.62" font-family="Helvetica,sans-Serif" font-size="10.00"> i, j, m &gt;</text>
</g>
<!-- Node6 -->
<g id="node6" class="node">
<title>Node6</title>
<g id="a_node6"><a xlink:title=" ">
<polygon fill="white" stroke="#666666" points="28.8,-30.5 0,-30.5 0,-11.25 28.8,-11.25 28.8,-30.5"/>
<text text-anchor="middle" x="14.4" y="-17" font-family="Helvetica,sans-Serif" font-size="10.00">A</text>
</a>
</g>
</g>
<!-- Node6&#45;&gt;Node5 -->
<g id="edge5" class="edge">
<title>Node6&#45;&gt;Node5</title>
<path fill="none" stroke="#9a32cd" stroke-dasharray="5,2" d="M40.05,-20.88C51.9,-20.88 66.62,-20.88 80.98,-20.88"/>
<polygon fill="#9a32cd" stroke="#9a32cd" points="40.4,-17.38 30.4,-20.88 40.4,-24.38 40.4,-17.38"/>
<text text-anchor="middle" x="55.05" y="-22.62" font-family="Helvetica,sans-Serif" font-size="10.00"> iter</text>
</g>
</g>
</svg>
        <g id="navigator" transform="translate(0 0)" fill="#404254">
                <rect fill="#f2f5e9" fill-opacity="0.5" stroke="#606060" stroke-width=".5" x="0" y="0" width="60" height="60"/>
                <use id="zoomplus" xlink:href="#zoomPlus" x="17" y="9" onmousedown="handleZoom(evt,'in')"/>
                <use id="zoomminus" xlink:href="#zoomMin" x="42" y="9" onmousedown="handleZoom(evt,'out')"/>
                <use id="reset" xlink:href="#resetDef" x="30" y="36" onmousedown="handleReset()"/>
                <g id="arrowUp" xlink:href="#dirArrow" transform="translate(30 24)" onmousedown="handlePan(0,-1)">
                  <use xlink:href="#rim" fill="#404040">
                        <set attributeName="fill" to="#808080" begin="arrowUp.mouseover" end="arrowUp.mouseout"/>
                  </use>
                  <path fill="none" stroke="white" stroke-width="1.5" d="M0,-3.0v7 M-2.5,-0.5L0,-3.0L2.5,-0.5"/>
                </g>
                <g id="arrowRight" xlink:href="#dirArrow" transform="rotate(90) translate(36 -43)" onmousedown="handlePan(1,0)">
                  <use xlink:href="#rim" fill="#404040">
                        <set attributeName="fill" to="#808080" begin="arrowRight.mouseover" end="arrowRight.mouseout"/>
                  </use>
                  <path fill="none" stroke="white" stroke-width="1.5" d="M0,-3.0v7 M-2.5,-0.5L0,-3.0L2.5,-0.5"/>
                </g>
                <g id="arrowDown" xlink:href="#dirArrow" transform="rotate(180) translate(-30 -48)" onmousedown="handlePan(0,1)">
                  <use xlink:href="#rim" fill="#404040">
                        <set attributeName="fill" to="#808080" begin="arrowDown.mouseover" end="arrowDown.mouseout"/>
                  </use>
                  <path fill="none" stroke="white" stroke-width="1.5" d="M0,-3.0v7 M-2.5,-0.5L0,-3.0L2.5,-0.5"/>
                </g>
                <g id="arrowLeft" xlink:href="#dirArrow" transform="rotate(270) translate(-36 17)" onmousedown="handlePan(-1,0)">
                  <use xlink:href="#rim" fill="#404040">
                        <set attributeName="fill" to="#808080" begin="arrowLeft.mouseover" end="arrowLeft.mouseout"/>
                  </use>
                  <path fill="none" stroke="white" stroke-width="1.5" d="M0,-3.0v7 M-2.5,-0.5L0,-3.0L2.5,-0.5"/>
                </g>
        </g>
        <svg viewBox="0 0 15 15" width="100%" height="30px" preserveAspectRatio="xMaxYMin meet">
         <g id="arrow_out" transform="scale(0.3 0.3)">
          <a xlink:href="class_f_tensor_1_1_tensor4__times___dg__01__coll__graph_org.svg" target="_base">
           <rect id="button" ry="5" rx="5" y="6" x="6" height="38" width="38"
                fill="#f2f5e9" fill-opacity="0.5" stroke="#606060" stroke-width="1.0"/>
           <path id="arrow"
             d="M 11.500037,31.436501 C 11.940474,20.09759 22.043105,11.32322 32.158766,21.979434 L 37.068811,17.246167 C 37.068811,17.246167 37.088388,32 37.088388,32 L 22.160133,31.978069 C 22.160133,31.978069 26.997745,27.140456 26.997745,27.140456 C 18.528582,18.264221 13.291696,25.230495 11.500037,31.436501 z"
             style="fill:#404040;"/>
          </a>
         </g>
        </svg>
</svg>
