<?xml version="1.0" encoding="UTF-8" standalone="no"?>
<!DOCTYPE svg PUBLIC "-//W3C//DTD SVG 1.1//EN"
 "http://www.w3.org/Graphics/SVG/1.1/DTD/svg11.dtd">
<!-- Generated by graphviz version 2.43.0 (0)
 -->
<!-- Title: FTensor::Tensor4_times_Tensor2_symmetric_02&lt; A, B, T, U, Dim, Dim1, Dim2, i, j, k, l &gt; Pages: 1 -->
<svg width="742pt" height="185pt"
 viewBox="0.00 0.00 742.00 185.00" xmlns="http://www.w3.org/2000/svg" xmlns:xlink="http://www.w3.org/1999/xlink">
<g id="graph0" class="graph" transform="scale(1 1) rotate(0) translate(4 181)">
<title>FTensor::Tensor4_times_Tensor2_symmetric_02&lt; A, B, T, U, Dim, Dim1, Dim2, i, j, k, l &gt;</title>
<polygon fill="white" stroke="transparent" points="-4,4 -4,-181 738,-181 738,4 -4,4"/>
<!-- Node1 -->
<g id="node1" class="node">
<title>Node1</title>
<g id="a_node1"><a xlink:title=" ">
<polygon fill="#bfbfbf" stroke="black" points="600,-76 600,-128 734,-128 734,-76 600,-76"/>
<text text-anchor="start" x="608" y="-116" font-family="Helvetica,sans-Serif" font-size="10.00">FTensor::Tensor4_times</text>
<text text-anchor="start" x="608" y="-105" font-family="Helvetica,sans-Serif" font-size="10.00">_Tensor2_symmetric_02</text>
<text text-anchor="start" x="608" y="-94" font-family="Helvetica,sans-Serif" font-size="10.00">&lt; A, B, T, U, Dim, Dim1,</text>
<text text-anchor="middle" x="667" y="-83" font-family="Helvetica,sans-Serif" font-size="10.00"> Dim2, i, j, k, l &gt;</text>
</a>
</g>
</g>
<!-- Node2 -->
<g id="node2" class="node">
<title>Node2</title>
<g id="a_node2"><a xlink:href="classFTensor_1_1Tensor2__symmetric__Expr.html" target="_top" xlink:title=" ">
<polygon fill="white" stroke="black" points="382,-115 382,-145 537,-145 537,-115 382,-115"/>
<text text-anchor="start" x="390" y="-133" font-family="Helvetica,sans-Serif" font-size="10.00">FTensor::Tensor2_symmetric</text>
<text text-anchor="middle" x="459.5" y="-122" font-family="Helvetica,sans-Serif" font-size="10.00">_Expr&lt; B, U, Dim, i, k &gt;</text>
</a>
</g>
</g>
<!-- Node2&#45;&gt;Node1 -->
<g id="edge1" class="edge">
<title>Node2&#45;&gt;Node1</title>
<path fill="none" stroke="#9a32cd" stroke-dasharray="5,2" d="M547.29,-118.17C564.89,-115.78 583.13,-113.29 599.88,-111.01"/>
<polygon fill="#9a32cd" stroke="#9a32cd" points="546.46,-114.76 537.02,-119.57 547.4,-121.69 546.46,-114.76"/>
<text text-anchor="middle" x="568.5" y="-119" font-family="Helvetica,sans-Serif" font-size="10.00"> iterB</text>
</g>
<!-- Node3 -->
<g id="node3" class="node">
<title>Node3</title>
<g id="a_node3"><a xlink:title=" ">
<polygon fill="white" stroke="#bfbfbf" points="148,-157.5 148,-176.5 177,-176.5 177,-157.5 148,-157.5"/>
<text text-anchor="middle" x="162.5" y="-164.5" font-family="Helvetica,sans-Serif" font-size="10.00">B</text>
</a>
</g>
</g>
<!-- Node3&#45;&gt;Node2 -->
<g id="edge2" class="edge">
<title>Node3&#45;&gt;Node2</title>
<path fill="none" stroke="#9a32cd" stroke-dasharray="5,2" d="M187.05,-164.08C224.52,-159.43 300.01,-150.05 364,-142 369.83,-141.27 375.85,-140.51 381.91,-139.74"/>
<polygon fill="#9a32cd" stroke="#9a32cd" points="186.61,-160.61 177.12,-165.31 187.47,-167.56 186.61,-160.61"/>
<text text-anchor="middle" x="311" y="-157" font-family="Helvetica,sans-Serif" font-size="10.00"> iter</text>
</g>
<!-- Node4 -->
<g id="node4" class="node">
<title>Node4</title>
<g id="a_node4"><a xlink:href="classFTensor_1_1Tensor2__symmetric__Expr.html" target="_top" xlink:title=" ">
<polygon fill="white" stroke="black" points="85,-108 85,-138 240,-138 240,-108 85,-108"/>
<text text-anchor="start" x="93" y="-126" font-family="Helvetica,sans-Serif" font-size="10.00">FTensor::Tensor2_symmetric</text>
<text text-anchor="middle" x="162.5" y="-115" font-family="Helvetica,sans-Serif" font-size="10.00">_Expr&lt; A, T, Dim, i, j &gt;</text>
</a>
</g>
</g>
<!-- Node4&#45;&gt;Node2 -->
<g id="edge3" class="edge">
<title>Node4&#45;&gt;Node2</title>
<path fill="none" stroke="orange" stroke-dasharray="5,2" d="M250.38,-125.06C292.09,-126.05 341.61,-127.23 381.89,-128.18"/>
<polygon fill="orange" stroke="orange" points="250.32,-121.56 240.24,-124.82 250.15,-128.56 250.32,-121.56"/>
<text text-anchor="middle" x="311" y="-130" font-family="Helvetica,sans-Serif" font-size="10.00"> &lt; B, U, Dim, i, k &gt;</text>
</g>
<!-- Node5 -->
<g id="node5" class="node">
<title>Node5</title>
<g id="a_node5"><a xlink:title=" ">
<polygon fill="white" stroke="#bfbfbf" points="0,-68.5 0,-87.5 29,-87.5 29,-68.5 0,-68.5"/>
<text text-anchor="middle" x="14.5" y="-75.5" font-family="Helvetica,sans-Serif" font-size="10.00">A</text>
</a>
</g>
</g>
<!-- Node5&#45;&gt;Node4 -->
<g id="edge4" class="edge">
<title>Node5&#45;&gt;Node4</title>
<path fill="none" stroke="#9a32cd" stroke-dasharray="5,2" d="M38.44,-88.68C41.3,-89.87 44.2,-91 47,-92 63.69,-97.93 82.09,-103.37 99.16,-107.99"/>
<polygon fill="#9a32cd" stroke="#9a32cd" points="39.68,-85.4 29.11,-84.6 36.87,-91.82 39.68,-85.4"/>
<text text-anchor="middle" x="57" y="-101" font-family="Helvetica,sans-Serif" font-size="10.00"> iter</text>
</g>
<!-- Node6 -->
<g id="node6" class="node">
<title>Node6</title>
<g id="a_node6"><a xlink:href="classFTensor_1_1Tensor4__Expr.html" target="_top" xlink:title=" ">
<polygon fill="white" stroke="black" points="389.5,-54.5 389.5,-95.5 529.5,-95.5 529.5,-54.5 389.5,-54.5"/>
<text text-anchor="start" x="397.5" y="-83.5" font-family="Helvetica,sans-Serif" font-size="10.00">FTensor::Tensor4_Expr</text>
<text text-anchor="start" x="397.5" y="-72.5" font-family="Helvetica,sans-Serif" font-size="10.00">&lt; A, T, Dim, Dim1, Dim2,</text>
<text text-anchor="middle" x="459.5" y="-61.5" font-family="Helvetica,sans-Serif" font-size="10.00"> Dim, i, j, k, l &gt;</text>
</a>
</g>
</g>
<!-- Node5&#45;&gt;Node6 -->
<g id="edge6" class="edge">
<title>Node5&#45;&gt;Node6</title>
<path fill="none" stroke="#9a32cd" stroke-dasharray="5,2" d="M39.35,-77.84C104.64,-77.4 288.16,-76.15 389.36,-75.47"/>
<polygon fill="#9a32cd" stroke="#9a32cd" points="39.22,-74.34 29.24,-77.91 39.27,-81.34 39.22,-74.34"/>
<text text-anchor="middle" x="162.5" y="-80" font-family="Helvetica,sans-Serif" font-size="10.00"> iter</text>
</g>
<!-- Node7 -->
<g id="node7" class="node">
<title>Node7</title>
<g id="a_node7"><a xlink:href="classFTensor_1_1Tensor4__Expr.html" target="_top" xlink:title=" ">
<polygon fill="white" stroke="black" points="89.5,-0.5 89.5,-41.5 235.5,-41.5 235.5,-0.5 89.5,-0.5"/>
<text text-anchor="start" x="97.5" y="-29.5" font-family="Helvetica,sans-Serif" font-size="10.00">FTensor::Tensor4_Expr</text>
<text text-anchor="start" x="97.5" y="-18.5" font-family="Helvetica,sans-Serif" font-size="10.00">&lt; A, T, Dim0, Dim1, Dim2,</text>
<text text-anchor="middle" x="162.5" y="-7.5" font-family="Helvetica,sans-Serif" font-size="10.00"> Dim3, i, j, k, l &gt;</text>
</a>
</g>
</g>
<!-- Node5&#45;&gt;Node7 -->
<g id="edge8" class="edge">
<title>Node5&#45;&gt;Node7</title>
<path fill="none" stroke="#9a32cd" stroke-dasharray="5,2" d="M33.51,-61.72C37.72,-58.49 42.35,-55.37 47,-53 60.15,-46.29 74.88,-40.84 89.29,-36.46"/>
<polygon fill="#9a32cd" stroke="#9a32cd" points="31.03,-59.23 25.56,-68.3 35.49,-64.62 31.03,-59.23"/>
<text text-anchor="middle" x="57" y="-56" font-family="Helvetica,sans-Serif" font-size="10.00"> iter</text>
</g>
<!-- Node6&#45;&gt;Node1 -->
<g id="edge5" class="edge">
<title>Node6&#45;&gt;Node1</title>
<path fill="none" stroke="#9a32cd" stroke-dasharray="5,2" d="M539.5,-85.38C559.47,-88 580.71,-90.79 599.97,-93.32"/>
<polygon fill="#9a32cd" stroke="#9a32cd" points="539.87,-81.9 529.5,-84.07 538.96,-88.84 539.87,-81.9"/>
<text text-anchor="middle" x="568.5" y="-93" font-family="Helvetica,sans-Serif" font-size="10.00"> iterA</text>
</g>
<!-- Node7&#45;&gt;Node6 -->
<g id="edge7" class="edge">
<title>Node7&#45;&gt;Node6</title>
<path fill="none" stroke="orange" stroke-dasharray="5,2" d="M245.72,-25.3C282.26,-28.31 325.6,-33.41 364,-42 378.08,-45.15 392.96,-49.73 406.64,-54.47"/>
<polygon fill="orange" stroke="orange" points="245.85,-21.8 235.6,-24.5 245.3,-28.78 245.85,-21.8"/>
<text text-anchor="start" x="258" y="-56" font-family="Helvetica,sans-Serif" font-size="10.00"> &lt; A, T, Dim, Dim1,</text>
<text text-anchor="middle" x="311" y="-45" font-family="Helvetica,sans-Serif" font-size="10.00"> Dim2, Dim, i, j, k, l &gt;</text>
</g>
</g>
</svg>
