<?xml version="1.0" encoding="UTF-8" standalone="no"?>
<!DOCTYPE svg PUBLIC "-//W3C//DTD SVG 1.1//EN"
 "http://www.w3.org/Graphics/SVG/1.1/DTD/svg11.dtd">
<!-- Generated by graphviz version 2.43.0 (0)
 -->
<!-- Title: FTensor::T4Ddg_equals_generic&lt; A, T, U, Dim01, Dim23 &gt; Pages: 1 -->
<svg width="311pt" height="273pt"
 viewBox="0.00 0.00 310.50 273.00" xmlns="http://www.w3.org/2000/svg" xmlns:xlink="http://www.w3.org/1999/xlink">
<g id="graph0" class="graph" transform="scale(1 1) rotate(0) translate(4 269)">
<title>FTensor::T4Ddg_equals_generic&lt; A, T, U, Dim01, Dim23 &gt;</title>
<polygon fill="white" stroke="transparent" points="-4,4 -4,-269 306.5,-269 306.5,4 -4,4"/>
<!-- Node1 -->
<g id="node1" class="node">
<title>Node1</title>
<g id="a_node1"><a xlink:title=" ">
<polygon fill="#bfbfbf" stroke="black" points="0,-0.5 0,-41.5 143,-41.5 143,-0.5 0,-0.5"/>
<text text-anchor="start" x="8" y="-29.5" font-family="Helvetica,sans-Serif" font-size="10.00">FTensor::T4Ddg_equals</text>
<text text-anchor="start" x="8" y="-18.5" font-family="Helvetica,sans-Serif" font-size="10.00">_generic&lt; A, T, U, Dim01,</text>
<text text-anchor="middle" x="71.5" y="-7.5" font-family="Helvetica,sans-Serif" font-size="10.00"> Dim23 &gt;</text>
</a>
</g>
</g>
<!-- Node2 -->
<g id="node2" class="node">
<title>Node2</title>
<g id="a_node2"><a xlink:title=" ">
<polygon fill="white" stroke="#bfbfbf" points="41,-95 41,-114 70,-114 70,-95 41,-95"/>
<text text-anchor="middle" x="55.5" y="-102" font-family="Helvetica,sans-Serif" font-size="10.00">U</text>
</a>
</g>
</g>
<!-- Node2&#45;&gt;Node1 -->
<g id="edge1" class="edge">
<title>Node2&#45;&gt;Node1</title>
<path fill="none" stroke="#9a32cd" stroke-dasharray="5,2" d="M59.18,-84.75C61.71,-71.89 65.05,-54.84 67.62,-41.76"/>
<polygon fill="#9a32cd" stroke="#9a32cd" points="55.7,-84.29 57.21,-94.78 62.57,-85.64 55.7,-84.29"/>
<text text-anchor="middle" x="69.5" y="-63" font-family="Helvetica,sans-Serif" font-size="10.00"> u</text>
</g>
<!-- Node3 -->
<g id="node3" class="node">
<title>Node3</title>
<g id="a_node3"><a xlink:href="classFTensor_1_1Ddg.html" target="_top" xlink:title=" ">
<polygon fill="white" stroke="black" points="88.5,-89.5 88.5,-119.5 226.5,-119.5 226.5,-89.5 88.5,-89.5"/>
<text text-anchor="start" x="96.5" y="-107.5" font-family="Helvetica,sans-Serif" font-size="10.00">FTensor::Ddg&lt; A, Dim01,</text>
<text text-anchor="middle" x="157.5" y="-96.5" font-family="Helvetica,sans-Serif" font-size="10.00"> Dim23 &gt;</text>
</a>
</g>
</g>
<!-- Node3&#45;&gt;Node1 -->
<g id="edge2" class="edge">
<title>Node3&#45;&gt;Node1</title>
<path fill="none" stroke="#9a32cd" stroke-dasharray="5,2" d="M135.14,-82.31C121.84,-69.71 105.09,-53.83 92.11,-41.53"/>
<polygon fill="#9a32cd" stroke="#9a32cd" points="132.85,-84.97 142.52,-89.3 137.67,-79.88 132.85,-84.97"/>
<text text-anchor="middle" x="132.5" y="-63" font-family="Helvetica,sans-Serif" font-size="10.00"> iter</text>
</g>
<!-- Node4 -->
<g id="node4" class="node">
<title>Node4</title>
<g id="a_node4"><a xlink:title=" ">
<polygon fill="white" stroke="#bfbfbf" points="106,-173 106,-192 135,-192 135,-173 106,-173"/>
<text text-anchor="middle" x="120.5" y="-180" font-family="Helvetica,sans-Serif" font-size="10.00">A</text>
</a>
</g>
</g>
<!-- Node4&#45;&gt;Node3 -->
<g id="edge3" class="edge">
<title>Node4&#45;&gt;Node3</title>
<path fill="none" stroke="#9a32cd" stroke-dasharray="5,2" d="M129.22,-163.58C135.78,-150.11 144.63,-131.93 150.67,-119.52"/>
<polygon fill="#9a32cd" stroke="#9a32cd" points="125.97,-162.26 124.74,-172.78 132.27,-165.32 125.97,-162.26"/>
<text text-anchor="middle" x="154" y="-141" font-family="Helvetica,sans-Serif" font-size="10.00"> data</text>
</g>
<!-- Node5 -->
<g id="node5" class="node">
<title>Node5</title>
<g id="a_node5"><a xlink:href="classFTensor_1_1Ddg.html" target="_top" xlink:title=" ">
<polygon fill="white" stroke="black" points="153.5,-167.5 153.5,-197.5 293.5,-197.5 293.5,-167.5 153.5,-167.5"/>
<text text-anchor="start" x="161.5" y="-185.5" font-family="Helvetica,sans-Serif" font-size="10.00">FTensor::Ddg&lt; T, Tensor</text>
<text text-anchor="middle" x="223.5" y="-174.5" font-family="Helvetica,sans-Serif" font-size="10.00">_Dim01, Tensor_Dim23 &gt;</text>
</a>
</g>
</g>
<!-- Node5&#45;&gt;Node3 -->
<g id="edge4" class="edge">
<title>Node5&#45;&gt;Node3</title>
<path fill="none" stroke="orange" stroke-dasharray="5,2" d="M204.23,-159.31C193.13,-146.53 179.52,-130.86 169.86,-119.73"/>
<polygon fill="orange" stroke="orange" points="201.89,-161.95 211.09,-167.2 207.17,-157.36 201.89,-161.95"/>
<text text-anchor="middle" x="248" y="-141" font-family="Helvetica,sans-Serif" font-size="10.00"> &lt; A, Dim01, Dim23 &gt;</text>
</g>
<!-- Node6 -->
<g id="node6" class="node">
<title>Node6</title>
<g id="a_node6"><a xlink:title=" ">
<polygon fill="white" stroke="#bfbfbf" points="209,-245.5 209,-264.5 238,-264.5 238,-245.5 209,-245.5"/>
<text text-anchor="middle" x="223.5" y="-252.5" font-family="Helvetica,sans-Serif" font-size="10.00">T</text>
</a>
</g>
</g>
<!-- Node6&#45;&gt;Node5 -->
<g id="edge5" class="edge">
<title>Node6&#45;&gt;Node5</title>
<path fill="none" stroke="#9a32cd" stroke-dasharray="5,2" d="M223.5,-235.24C223.5,-223.41 223.5,-208.38 223.5,-197.58"/>
<polygon fill="#9a32cd" stroke="#9a32cd" points="220,-235.36 223.5,-245.36 227,-235.36 220,-235.36"/>
<text text-anchor="middle" x="236" y="-219" font-family="Helvetica,sans-Serif" font-size="10.00"> data</text>
</g>
</g>
</svg>
