<?xml version="1.0" encoding="UTF-8" standalone="no"?>
<!DOCTYPE svg PUBLIC "-//W3C//DTD SVG 1.1//EN"
 "http://www.w3.org/Graphics/SVG/1.1/DTD/svg11.dtd">
<!-- Generated by graphviz version 2.43.0 (0)
 -->
<!-- Title: FTensor::Tensor3_Expr&lt; Tensor3&lt; A, Tensor_Dim0, Tensor_Dim1, Tensor_Dim2 &gt;, T, Dim0, Dim1, Dim2, i, j, k &gt; Pages: 1 -->
<svg width="265pt" height="328pt"
 viewBox="0.00 0.00 264.50 328.00" xmlns="http://www.w3.org/2000/svg" xmlns:xlink="http://www.w3.org/1999/xlink">
<g id="graph0" class="graph" transform="scale(1 1) rotate(0) translate(4 324)">
<title>FTensor::Tensor3_Expr&lt; Tensor3&lt; A, Tensor_Dim0, Tensor_Dim1, Tensor_Dim2 &gt;, T, Dim0, Dim1, Dim2, i, j, k &gt;</title>
<polygon fill="white" stroke="transparent" points="-4,4 -4,-324 260.5,-324 260.5,4 -4,4"/>
<!-- Node1 -->
<g id="node1" class="node">
<title>Node1</title>
<g id="a_node1"><a xlink:title=" ">
<polygon fill="#bfbfbf" stroke="black" points="0,-0.5 0,-63.5 171,-63.5 171,-0.5 0,-0.5"/>
<text text-anchor="start" x="8" y="-51.5" font-family="Helvetica,sans-Serif" font-size="10.00">FTensor::Tensor3_Expr</text>
<text text-anchor="start" x="8" y="-40.5" font-family="Helvetica,sans-Serif" font-size="10.00">&lt; Tensor3&lt; A, Tensor</text>
<text text-anchor="start" x="8" y="-29.5" font-family="Helvetica,sans-Serif" font-size="10.00">_Dim0, Tensor_Dim1, Tensor</text>
<text text-anchor="start" x="8" y="-18.5" font-family="Helvetica,sans-Serif" font-size="10.00">_Dim2 &gt;, T, Dim0, Dim1, Dim2,</text>
<text text-anchor="middle" x="85.5" y="-7.5" font-family="Helvetica,sans-Serif" font-size="10.00"> i, j, k &gt;</text>
</a>
</g>
</g>
<!-- Node2 -->
<g id="node2" class="node">
<title>Node2</title>
<g id="a_node2"><a xlink:href="classFTensor_1_1Tensor3.html" target="_top" xlink:title=" ">
<polygon fill="white" stroke="black" points="21.5,-111.5 21.5,-152.5 149.5,-152.5 149.5,-111.5 21.5,-111.5"/>
<text text-anchor="start" x="29.5" y="-140.5" font-family="Helvetica,sans-Serif" font-size="10.00">FTensor::Tensor3&lt; A,</text>
<text text-anchor="start" x="29.5" y="-129.5" font-family="Helvetica,sans-Serif" font-size="10.00"> Tensor_Dim0, Tensor</text>
<text text-anchor="middle" x="85.5" y="-118.5" font-family="Helvetica,sans-Serif" font-size="10.00">_Dim1, Tensor_Dim2 &gt;</text>
</a>
</g>
</g>
<!-- Node2&#45;&gt;Node1 -->
<g id="edge1" class="edge">
<title>Node2&#45;&gt;Node1</title>
<path fill="none" stroke="#9a32cd" stroke-dasharray="5,2" d="M85.5,-100.89C85.5,-89.06 85.5,-75.49 85.5,-63.61"/>
<polygon fill="#9a32cd" stroke="#9a32cd" points="82,-101.17 85.5,-111.17 89,-101.17 82,-101.17"/>
<text text-anchor="middle" x="95.5" y="-85" font-family="Helvetica,sans-Serif" font-size="10.00"> iter</text>
</g>
<!-- Node3 -->
<g id="node3" class="node">
<title>Node3</title>
<g id="a_node3"><a xlink:title=" ">
<polygon fill="white" stroke="#bfbfbf" points="47,-222.5 47,-241.5 76,-241.5 76,-222.5 47,-222.5"/>
<text text-anchor="middle" x="61.5" y="-229.5" font-family="Helvetica,sans-Serif" font-size="10.00">A</text>
</a>
</g>
</g>
<!-- Node3&#45;&gt;Node2 -->
<g id="edge2" class="edge">
<title>Node3&#45;&gt;Node2</title>
<path fill="none" stroke="#9a32cd" stroke-dasharray="5,2" d="M66.05,-212.4C70.24,-195.29 76.44,-170 80.7,-152.59"/>
<polygon fill="#9a32cd" stroke="#9a32cd" points="62.61,-211.76 63.63,-222.3 69.41,-213.42 62.61,-211.76"/>
<text text-anchor="middle" x="89" y="-179.5" font-family="Helvetica,sans-Serif" font-size="10.00"> data</text>
</g>
<!-- Node4 -->
<g id="node4" class="node">
<title>Node4</title>
<g id="a_node4"><a xlink:href="classFTensor_1_1Tensor3.html" target="_top" xlink:title=" ">
<polygon fill="white" stroke="black" points="94.5,-211.5 94.5,-252.5 222.5,-252.5 222.5,-211.5 94.5,-211.5"/>
<text text-anchor="start" x="102.5" y="-240.5" font-family="Helvetica,sans-Serif" font-size="10.00">FTensor::Tensor3&lt; T,</text>
<text text-anchor="start" x="102.5" y="-229.5" font-family="Helvetica,sans-Serif" font-size="10.00"> Tensor_Dim0, Tensor</text>
<text text-anchor="middle" x="158.5" y="-218.5" font-family="Helvetica,sans-Serif" font-size="10.00">_Dim1, Tensor_Dim2 &gt;</text>
</a>
</g>
</g>
<!-- Node4&#45;&gt;Node2 -->
<g id="edge3" class="edge">
<title>Node4&#45;&gt;Node2</title>
<path fill="none" stroke="orange" stroke-dasharray="5,2" d="M137.43,-202.71C125.52,-186.73 110.93,-167.14 100.25,-152.8"/>
<polygon fill="orange" stroke="orange" points="134.95,-205.24 143.73,-211.17 140.56,-201.06 134.95,-205.24"/>
<text text-anchor="start" x="128.5" y="-185" font-family="Helvetica,sans-Serif" font-size="10.00"> &lt; A, Tensor_Dim0, Tensor</text>
<text text-anchor="middle" x="192.5" y="-174" font-family="Helvetica,sans-Serif" font-size="10.00">_Dim1, Tensor_Dim2 &gt;</text>
</g>
<!-- Node5 -->
<g id="node5" class="node">
<title>Node5</title>
<g id="a_node5"><a xlink:title=" ">
<polygon fill="white" stroke="#bfbfbf" points="144,-300.5 144,-319.5 173,-319.5 173,-300.5 144,-300.5"/>
<text text-anchor="middle" x="158.5" y="-307.5" font-family="Helvetica,sans-Serif" font-size="10.00">T</text>
</a>
</g>
</g>
<!-- Node5&#45;&gt;Node4 -->
<g id="edge4" class="edge">
<title>Node5&#45;&gt;Node4</title>
<path fill="none" stroke="#9a32cd" stroke-dasharray="5,2" d="M158.5,-290.14C158.5,-278.73 158.5,-264.21 158.5,-252.66"/>
<polygon fill="#9a32cd" stroke="#9a32cd" points="155,-290.28 158.5,-300.28 162,-290.28 155,-290.28"/>
<text text-anchor="middle" x="171" y="-274" font-family="Helvetica,sans-Serif" font-size="10.00"> data</text>
</g>
</g>
</svg>
