<?xml version="1.0" encoding="UTF-8" standalone="no"?>
<!DOCTYPE svg PUBLIC "-//W3C//DTD SVG 1.1//EN"
 "http://www.w3.org/Graphics/SVG/1.1/DTD/svg11.dtd">
<!-- Generated by graphviz version 9.0.0 (20230911.1827)
 -->
<!-- Title: FTensor::Tensor4_times_Tensor3_23&lt; A, B, T, U, Dim0, Dim1, Dim2, Dim3, Dim4, i, j, k, l, m &gt; Pages: 1 -->
<svg width="693pt" height="135pt"
 viewBox="0.00 0.00 693.05 134.75" xmlns="http://www.w3.org/2000/svg" xmlns:xlink="http://www.w3.org/1999/xlink">
<g id="graph0" class="graph" transform="scale(1 1) rotate(0) translate(4 130.75)">
<title>FTensor::Tensor4_times_Tensor3_23&lt; A, B, T, U, Dim0, Dim1, Dim2, Dim3, Dim4, i, j, k, l, m &gt;</title>
<!-- Node1 -->
<g id="node1" class="node">
<title>Node1</title>
<g id="a_node1"><a xlink:title=" ">
<polygon fill="#999999" stroke="#666666" points="685.05,-102.38 538.55,-102.38 538.55,-49.38 685.05,-49.38 685.05,-102.38"/>
<text text-anchor="start" x="546.55" y="-88.88" font-family="Helvetica,sans-Serif" font-size="10.00">FTensor::Tensor4_times</text>
<text text-anchor="start" x="546.55" y="-77.62" font-family="Helvetica,sans-Serif" font-size="10.00">_Tensor3_23&lt; A, B, T,</text>
<text text-anchor="start" x="546.55" y="-66.38" font-family="Helvetica,sans-Serif" font-size="10.00"> U, Dim0, Dim1, Dim2, Dim3,</text>
<text text-anchor="middle" x="611.8" y="-55.12" font-family="Helvetica,sans-Serif" font-size="10.00"> Dim4, i, j, k, l, m &gt;</text>
</a>
</g>
</g>
<!-- Node2 -->
<g id="node2" class="node">
<title>Node2</title>
<g id="a_node2"><a xlink:title=" ">
<polygon fill="white" stroke="#666666" points="469.55,-126.75 353.05,-126.75 353.05,-85 469.55,-85 469.55,-126.75"/>
<text text-anchor="start" x="361.05" y="-113.25" font-family="Helvetica,sans-Serif" font-size="10.00">const Tensor4_Expr</text>
<text text-anchor="start" x="361.05" y="-102" font-family="Helvetica,sans-Serif" font-size="10.00">&lt; A, T, Dim0, Dim1,</text>
<text text-anchor="middle" x="411.3" y="-90.75" font-family="Helvetica,sans-Serif" font-size="10.00"> Dim2, Dim3, i, j, k, l &gt;</text>
</a>
</g>
</g>
<!-- Node2&#45;&gt;Node1 -->
<g id="edge1" class="edge">
<title>Node2&#45;&gt;Node1</title>
<path fill="none" stroke="#9a32cd" stroke-dasharray="5,2" d="M481.21,-95.46C499.6,-92.68 519.54,-89.67 538.13,-86.86"/>
<polygon fill="#9a32cd" stroke="#9a32cd" points="480.84,-91.98 471.48,-96.93 481.89,-98.9 480.84,-91.98"/>
<text text-anchor="middle" x="508.92" y="-93.62" font-family="Helvetica,sans-Serif" font-size="10.00"> iterA</text>
</g>
<!-- Node3 -->
<g id="node3" class="node">
<title>Node3</title>
<g id="a_node3"><a xlink:href="class_f_tensor_1_1_tensor3___expr.html" target="_top" xlink:title=" ">
<polygon fill="white" stroke="#666666" points="479.3,-66.75 343.3,-66.75 343.3,-25 479.3,-25 479.3,-66.75"/>
<text text-anchor="start" x="351.3" y="-53.25" font-family="Helvetica,sans-Serif" font-size="10.00">FTensor::Tensor3_Expr</text>
<text text-anchor="start" x="351.3" y="-42" font-family="Helvetica,sans-Serif" font-size="10.00">&lt; B, U, Dim2, Dim3, Dim4,</text>
<text text-anchor="middle" x="411.3" y="-30.75" font-family="Helvetica,sans-Serif" font-size="10.00"> k, l, m &gt;</text>
</a>
</g>
</g>
<!-- Node3&#45;&gt;Node1 -->
<g id="edge2" class="edge">
<title>Node3&#45;&gt;Node1</title>
<path fill="none" stroke="#9a32cd" stroke-dasharray="5,2" d="M490.95,-57.76C506.49,-60.11 522.74,-62.57 538.07,-64.88"/>
<polygon fill="#9a32cd" stroke="#9a32cd" points="491.69,-54.33 481.28,-56.3 490.64,-61.25 491.69,-54.33"/>
<text text-anchor="middle" x="508.92" y="-63.62" font-family="Helvetica,sans-Serif" font-size="10.00"> iterB</text>
</g>
<!-- Node4 -->
<g id="node4" class="node">
<title>Node4</title>
<g id="a_node4"><a xlink:href="class_b.html" target="_top" xlink:title=" ">
<polygon fill="white" stroke="#666666" points="161.82,-79.5 133.02,-79.5 133.02,-60.25 161.82,-60.25 161.82,-79.5"/>
<text text-anchor="middle" x="147.42" y="-66" font-family="Helvetica,sans-Serif" font-size="10.00">B</text>
</a>
</g>
</g>
<!-- Node4&#45;&gt;Node3 -->
<g id="edge3" class="edge">
<title>Node4&#45;&gt;Node3</title>
<path fill="none" stroke="#9a32cd" stroke-dasharray="5,2" d="M173.55,-67.57C212.23,-64.03 287.71,-57.11 343.08,-52.04"/>
<polygon fill="#9a32cd" stroke="#9a32cd" points="173.28,-64.08 163.64,-68.48 173.92,-71.05 173.28,-64.08"/>
<text text-anchor="middle" x="278.42" y="-64.62" font-family="Helvetica,sans-Serif" font-size="10.00"> iter</text>
</g>
<!-- Node5 -->
<g id="node5" class="node">
<title>Node5</title>
<g id="a_node5"><a xlink:href="class_f_tensor_1_1_tensor3___expr.html" target="_top" xlink:title=" ">
<polygon fill="white" stroke="#666666" points="213.55,-41.75 81.3,-41.75 81.3,0 213.55,0 213.55,-41.75"/>
<text text-anchor="start" x="89.3" y="-28.25" font-family="Helvetica,sans-Serif" font-size="10.00">FTensor::Tensor3_Expr</text>
<text text-anchor="start" x="89.3" y="-17" font-family="Helvetica,sans-Serif" font-size="10.00">&lt; A, T, Dim0, Dim1, Dim2,</text>
<text text-anchor="middle" x="147.42" y="-5.75" font-family="Helvetica,sans-Serif" font-size="10.00"> i, j, k &gt;</text>
</a>
</g>
</g>
<!-- Node5&#45;&gt;Node3 -->
<g id="edge4" class="edge">
<title>Node5&#45;&gt;Node3</title>
<path fill="none" stroke="orange" stroke-dasharray="5,2" d="M224.98,-21.44C256.19,-22.37 292.56,-24.34 325.3,-28.38 331.13,-29.09 337.16,-30 343.19,-31.02"/>
<polygon fill="orange" stroke="orange" points="225.33,-17.95 215.25,-21.18 225.15,-24.95 225.33,-17.95"/>
<text text-anchor="start" x="231.55" y="-41.88" font-family="Helvetica,sans-Serif" font-size="10.00"> &lt; B, U, Dim2, Dim3,</text>
<text text-anchor="middle" x="278.42" y="-30.62" font-family="Helvetica,sans-Serif" font-size="10.00"> Dim4, k, l, m &gt;</text>
</g>
<!-- Node6 -->
<g id="node6" class="node">
<title>Node6</title>
<g id="a_node6"><a xlink:title=" ">
<polygon fill="white" stroke="#666666" points="28.8,-30.5 0,-30.5 0,-11.25 28.8,-11.25 28.8,-30.5"/>
<text text-anchor="middle" x="14.4" y="-17" font-family="Helvetica,sans-Serif" font-size="10.00">A</text>
</a>
</g>
</g>
<!-- Node6&#45;&gt;Node5 -->
<g id="edge5" class="edge">
<title>Node6&#45;&gt;Node5</title>
<path fill="none" stroke="#9a32cd" stroke-dasharray="5,2" d="M40.3,-20.88C51.93,-20.88 66.37,-20.88 80.82,-20.88"/>
<polygon fill="#9a32cd" stroke="#9a32cd" points="40.44,-17.38 30.44,-20.88 40.44,-24.38 40.44,-17.38"/>
<text text-anchor="middle" x="55.05" y="-22.62" font-family="Helvetica,sans-Serif" font-size="10.00"> iter</text>
</g>
</g>
</svg>
