<?xml version="1.0" encoding="UTF-8" standalone="no"?>
<!DOCTYPE svg PUBLIC "-//W3C//DTD SVG 1.1//EN"
 "http://www.w3.org/Graphics/SVG/1.1/DTD/svg11.dtd">
<!-- Generated by graphviz version 9.0.0 (20230911.1827)
 -->
<!-- Title: FEMethod Pages: 1 -->
<!--zoomable 956 -->
<svg id="main" version="1.1" xmlns="http://www.w3.org/2000/svg" xmlns:xlink="http://www.w3.org/1999/xlink" xml:space="preserve" onload="init(evt)">
<style type="text/css"><![CDATA[
.edge:hover path { stroke: red; }
.edge:hover polygon { stroke: red; fill: red; }
]]></style>
<script type="text/javascript"><![CDATA[
var edges = document.getElementsByTagName('g');
if (edges && edges.length) {
  for (var i=0;i<edges.length;i++) {
    if (edges[i].id.substr(0,4)=='edge') {
      edges[i].setAttribute('class','edge');
    }
  }
}
]]></script>
        <defs>
                <circle id="rim" cx="0" cy="0" r="7"/>
                <circle id="rim2" cx="0" cy="0" r="3.5"/>
                <g id="zoomPlus">
                        <use xlink:href="#rim" fill="#404040">
                                <set attributeName="fill" to="#808080" begin="zoomplus.mouseover" end="zoomplus.mouseout"/>
                        </use>
                        <path d="M-4,0h8M0,-4v8" fill="none" stroke="white" stroke-width="1.5" pointer-events="none"/>
                </g>
                <g id="zoomMin">
                        <use xlink:href="#rim" fill="#404040">
                                <set attributeName="fill" to="#808080" begin="zoomminus.mouseover" end="zoomminus.mouseout"/>
                        </use>
                        <path d="M-4,0h8" fill="none" stroke="white" stroke-width="1.5" pointer-events="none"/>
                </g>
                <g id="dirArrow">
                        <path fill="none" stroke="white" stroke-width="1.5" d="M0,-3.0v7 M-2.5,-0.5L0,-3.0L2.5,-0.5"/>
                </g>
               <g id="resetDef">
                       <use xlink:href="#rim2" fill="#404040">
                               <set attributeName="fill" to="#808080" begin="reset.mouseover" end="reset.mouseout"/>
                       </use>
               </g>
        </defs>

<script type="text/javascript">
var viewWidth = 480;
var viewHeight = 956;
var sectionId = 'dynsection-0';
</script>
<script xlink:href="svgpan.js"/>
<svg id="graph" class="graph">
<g id="viewport">
<title>FEMethod</title>
<!-- Node1 -->
<g id="node1" class="node">
<title>Node1</title>
<g id="a_node1"><a xlink:title=" ">
<polygon fill="#999999" stroke="#666666" points="61,-502.25 0,-502.25 0,-483 61,-483 61,-502.25"/>
<text text-anchor="middle" x="30.5" y="-488.75" font-family="Helvetica,sans-Serif" font-size="10.00">FEMethod</text>
</a>
</g>
</g>
<!-- Node2 -->
<g id="node2" class="node">
<title>Node2</title>
<g id="a_node2"><a xlink:href="struct_bone_remodeling_1_1_monitor_post_proc.html" target="_top" xlink:title=" ">
<polygon fill="white" stroke="#666666" points="266,-948.25 97,-948.25 97,-929 266,-929 266,-948.25"/>
<text text-anchor="middle" x="181.5" y="-934.75" font-family="Helvetica,sans-Serif" font-size="10.00">BoneRemodeling::MonitorPostProc</text>
</a>
</g>
</g>
<!-- Node1&#45;&gt;Node2 -->
<g id="edge1" class="edge">
<title>Node1&#45;&gt;Node2</title>
<path fill="none" stroke="#63b8ff" d="M31.71,-513.73C32.94,-591.37 41.21,-859.7 97,-919.62 100.34,-923.22 104.21,-926.2 108.41,-928.67"/>
<polygon fill="#63b8ff" stroke="#63b8ff" points="35.22,-514.07 31.59,-504.12 28.22,-514.17 35.22,-514.07"/>
</g>
<!-- Node3 -->
<g id="node3" class="node">
<title>Node3</title>
<g id="a_node3"><a xlink:href="struct_bone_remodeling_1_1_remodeling_1_1_fe_pre_post_process_lhs.html" target="_top" xlink:title="Not used at this stage. Could be used to do some calculations, before assembly of local elements.">
<polygon fill="white" stroke="#666666" points="255.5,-910.88 107.5,-910.88 107.5,-880.38 255.5,-880.38 255.5,-910.88"/>
<text text-anchor="start" x="115.5" y="-897.38" font-family="Helvetica,sans-Serif" font-size="10.00">BoneRemodeling::Remodeling</text>
<text text-anchor="middle" x="181.5" y="-886.12" font-family="Helvetica,sans-Serif" font-size="10.00">::FePrePostProcessLhs</text>
</a>
</g>
</g>
<!-- Node1&#45;&gt;Node3 -->
<g id="edge2" class="edge">
<title>Node1&#45;&gt;Node3</title>
<path fill="none" stroke="#63b8ff" d="M32.32,-513.9C35.5,-585.6 49.35,-816.92 97,-870.62 100.21,-874.25 103.93,-877.35 107.97,-880.02"/>
<polygon fill="#63b8ff" stroke="#63b8ff" points="35.82,-513.81 31.91,-503.96 28.82,-514.1 35.82,-513.81"/>
</g>
<!-- Node4 -->
<g id="node4" class="node">
<title>Node4</title>
<g id="a_node4"><a xlink:href="struct_bone_remodeling_1_1_remodeling_1_1_fe_pre_post_process_rhs.html" target="_top" xlink:title="Not used at this stage. Could be used to do some calculations, before assembly of local elements.">
<polygon fill="white" stroke="#666666" points="255.5,-861.88 107.5,-861.88 107.5,-831.38 255.5,-831.38 255.5,-861.88"/>
<text text-anchor="start" x="115.5" y="-848.38" font-family="Helvetica,sans-Serif" font-size="10.00">BoneRemodeling::Remodeling</text>
<text text-anchor="middle" x="181.5" y="-837.12" font-family="Helvetica,sans-Serif" font-size="10.00">::FePrePostProcessRhs</text>
</a>
</g>
</g>
<!-- Node1&#45;&gt;Node4 -->
<g id="edge3" class="edge">
<title>Node1&#45;&gt;Node4</title>
<path fill="none" stroke="#63b8ff" d="M32.9,-513.64C37.66,-578.8 55.3,-775.79 97,-821.62 100.26,-825.21 104.01,-828.28 108.07,-830.93"/>
<polygon fill="#63b8ff" stroke="#63b8ff" points="36.42,-513.69 32.22,-503.96 29.43,-514.18 36.42,-513.69"/>
</g>
<!-- Node5 -->
<g id="node5" class="node">
<title>Node5</title>
<g id="a_node5"><a xlink:href="struct_cohesive_element_1_1_arc_length_int_elem_f_e_method.html" target="_top" xlink:title=" ">
<polygon fill="white" stroke="#666666" points="253.25,-812.88 109.75,-812.88 109.75,-782.38 253.25,-782.38 253.25,-812.88"/>
<text text-anchor="start" x="117.75" y="-799.38" font-family="Helvetica,sans-Serif" font-size="10.00">CohesiveElement::ArcLength</text>
<text text-anchor="middle" x="181.5" y="-788.12" font-family="Helvetica,sans-Serif" font-size="10.00">IntElemFEMethod</text>
</a>
</g>
</g>
<!-- Node1&#45;&gt;Node5 -->
<g id="edge4" class="edge">
<title>Node1&#45;&gt;Node5</title>
<path fill="none" stroke="#63b8ff" d="M33.65,-513.6C40.07,-572.16 60.91,-735.65 97,-773.62 100.64,-777.45 104.84,-780.68 109.39,-783.4"/>
<polygon fill="#63b8ff" stroke="#63b8ff" points="37.17,-513.57 32.63,-504 30.21,-514.31 37.17,-513.57"/>
</g>
<!-- Node7 -->
<g id="node7" class="node">
<title>Node7</title>
<g id="a_node7"><a xlink:href="struct_contact_ops_1_1_monitor.html" target="_top" xlink:title=" ">
<polygon fill="white" stroke="#666666" points="234.88,-764.25 128.12,-764.25 128.12,-745 234.88,-745 234.88,-764.25"/>
<text text-anchor="middle" x="181.5" y="-750.75" font-family="Helvetica,sans-Serif" font-size="10.00">ContactOps::Monitor</text>
</a>
</g>
</g>
<!-- Node1&#45;&gt;Node7 -->
<g id="edge6" class="edge">
<title>Node1&#45;&gt;Node7</title>
<path fill="none" stroke="#63b8ff" d="M35.07,-513.72C43.34,-565.66 65.57,-696.41 97,-726.62 107.08,-736.31 121.01,-741.44 134.61,-744.51"/>
<polygon fill="#63b8ff" stroke="#63b8ff" points="38.56,-513.41 33.54,-504.07 31.65,-514.5 38.56,-513.41"/>
</g>
<!-- Node1&#45;&gt;Node7 -->
<g id="edge7" class="edge">
<title>Node1&#45;&gt;Node7</title>
<path fill="none" stroke="#63b8ff" d="M33.82,-513.83C40.91,-568.87 63.83,-712.74 97,-744.62 105.36,-752.66 116.38,-757.56 127.66,-760.24"/>
<polygon fill="#63b8ff" stroke="#63b8ff" points="37.33,-513.68 32.64,-504.18 30.38,-514.53 37.33,-513.68"/>
</g>
<!-- Node8 -->
<g id="node8" class="node">
<title>Node8</title>
<g id="a_node8"><a xlink:href="struct_convective_mass_element_1_1_shell_residual_element.html" target="_top" xlink:title=" ">
<polygon fill="white" stroke="#666666" points="244.25,-726.88 118.75,-726.88 118.75,-696.38 244.25,-696.38 244.25,-726.88"/>
<text text-anchor="start" x="126.75" y="-713.38" font-family="Helvetica,sans-Serif" font-size="10.00">ConvectiveMassElement</text>
<text text-anchor="middle" x="181.5" y="-702.12" font-family="Helvetica,sans-Serif" font-size="10.00">::ShellResidualElement</text>
</a>
</g>
</g>
<!-- Node1&#45;&gt;Node8 -->
<g id="edge8" class="edge">
<title>Node1&#45;&gt;Node8</title>
<path fill="none" stroke="#63b8ff" d="M32.5,-513.62C35.52,-553.18 47.73,-639.04 97,-686.62 103.1,-692.51 110.52,-697.02 118.4,-700.47"/>
<polygon fill="#63b8ff" stroke="#63b8ff" points="36,-513.58 31.89,-503.82 29.01,-514.02 36,-513.58"/>
</g>
<!-- Node9 -->
<g id="node9" class="node">
<title>Node9</title>
<g id="a_node9"><a xlink:href="struct_convective_mass_element_1_1_update_and_control.html" target="_top" xlink:title="Set fields DOT_.">
<polygon fill="white" stroke="#666666" points="244.25,-677.88 118.75,-677.88 118.75,-647.38 244.25,-647.38 244.25,-677.88"/>
<text text-anchor="start" x="126.75" y="-664.38" font-family="Helvetica,sans-Serif" font-size="10.00">ConvectiveMassElement</text>
<text text-anchor="middle" x="181.5" y="-653.12" font-family="Helvetica,sans-Serif" font-size="10.00">::UpdateAndControl</text>
</a>
</g>
</g>
<!-- Node1&#45;&gt;Node9 -->
<g id="edge9" class="edge">
<title>Node1&#45;&gt;Node9</title>
<path fill="none" stroke="#63b8ff" d="M35.1,-513.48C41.67,-545.19 58.65,-605.36 97,-638.62 103.27,-644.06 110.7,-648.27 118.5,-651.53"/>
<polygon fill="#63b8ff" stroke="#63b8ff" points="38.6,-513.14 33.29,-503.97 31.72,-514.45 38.6,-513.14"/>
</g>
<!-- Node10 -->
<g id="node10" class="node">
<title>Node10</title>
<g id="a_node10"><a xlink:href="struct_eshelbian_monitor.html" target="_top" xlink:title=" ">
<polygon fill="white" stroke="#666666" points="227,-629.25 136,-629.25 136,-610 227,-610 227,-629.25"/>
<text text-anchor="middle" x="181.5" y="-615.75" font-family="Helvetica,sans-Serif" font-size="10.00">EshelbianMonitor</text>
</a>
</g>
</g>
<!-- Node1&#45;&gt;Node10 -->
<g id="edge10" class="edge">
<title>Node1&#45;&gt;Node10</title>
<path fill="none" stroke="#63b8ff" d="M38.31,-513.18C47.57,-537.87 66.58,-578.69 97,-600.62 108.22,-608.71 122.3,-613.43 135.69,-616.16"/>
<polygon fill="#63b8ff" stroke="#63b8ff" points="41.67,-512.19 35.04,-503.93 35.07,-514.53 41.67,-512.19"/>
</g>
<!-- Node11 -->
<g id="node11" class="node">
<title>Node11</title>
<g id="a_node11"><a xlink:href="struct_eshelbian_plasticity_1_1_fe_traction_bc.html" target="_top" xlink:title=" ">
<polygon fill="white" stroke="#666666" points="231.12,-591.88 131.88,-591.88 131.88,-561.38 231.12,-561.38 231.12,-591.88"/>
<text text-anchor="start" x="139.88" y="-578.38" font-family="Helvetica,sans-Serif" font-size="10.00">EshelbianPlasticity</text>
<text text-anchor="middle" x="181.5" y="-567.12" font-family="Helvetica,sans-Serif" font-size="10.00">::FeTractionBc</text>
</a>
</g>
</g>
<!-- Node1&#45;&gt;Node11 -->
<g id="edge11" class="edge">
<title>Node1&#45;&gt;Node11</title>
<path fill="none" stroke="#63b8ff" d="M47.27,-511.07C59.58,-524.39 77.76,-541.85 97,-552.62 107.66,-558.6 119.93,-563.19 131.73,-566.69"/>
<polygon fill="#63b8ff" stroke="#63b8ff" points="50.03,-508.91 40.76,-503.78 44.81,-513.57 50.03,-508.91"/>
</g>
<!-- Node12 -->
<g id="node12" class="node">
<title>Node12</title>
<g id="a_node12"><a xlink:href="struct_fracture_mechanics_1_1_crack_propagation_1_1_both_surface_constrains.html" target="_top" xlink:title="Constrains material displacement on both sides.">
<polygon fill="white" stroke="#666666" points="258.5,-543.5 104.5,-543.5 104.5,-501.75 258.5,-501.75 258.5,-543.5"/>
<text text-anchor="start" x="112.5" y="-530" font-family="Helvetica,sans-Serif" font-size="10.00">FractureMechanics::</text>
<text text-anchor="start" x="112.5" y="-518.75" font-family="Helvetica,sans-Serif" font-size="10.00">CrackPropagation::BothSurface</text>
<text text-anchor="middle" x="181.5" y="-507.5" font-family="Helvetica,sans-Serif" font-size="10.00">Constrains</text>
</a>
</g>
</g>
<!-- Node1&#45;&gt;Node12 -->
<g id="edge12" class="edge">
<title>Node1&#45;&gt;Node12</title>
<path fill="none" stroke="#63b8ff" d="M72.4,-500.86C82.3,-502.85 93.21,-505.05 104.16,-507.26"/>
<polygon fill="#63b8ff" stroke="#63b8ff" points="73.27,-497.47 62.78,-498.92 71.89,-504.33 73.27,-497.47"/>
</g>
<!-- Node13 -->
<g id="node13" class="node">
<title>Node13</title>
<g id="a_node13"><a xlink:href="struct_fracture_mechanics_1_1_griffith_force_element_1_1_front_arc_length_control.html" target="_top" xlink:title="arc&#45;length element">
<polygon fill="white" stroke="#666666" points="241.62,-483.5 121.38,-483.5 121.38,-441.75 241.62,-441.75 241.62,-483.5"/>
<text text-anchor="start" x="129.38" y="-470" font-family="Helvetica,sans-Serif" font-size="10.00">FractureMechanics::</text>
<text text-anchor="start" x="129.38" y="-458.75" font-family="Helvetica,sans-Serif" font-size="10.00">GriffithForceElement</text>
<text text-anchor="middle" x="181.5" y="-447.5" font-family="Helvetica,sans-Serif" font-size="10.00">::FrontArcLengthControl</text>
</a>
</g>
</g>
<!-- Node1&#45;&gt;Node13 -->
<g id="edge13" class="edge">
<title>Node1&#45;&gt;Node13</title>
<path fill="none" stroke="#63b8ff" d="M72.26,-484.42C87.25,-481.4 104.56,-477.91 120.88,-474.63"/>
<polygon fill="#63b8ff" stroke="#63b8ff" points="71.89,-480.92 62.78,-486.33 73.27,-487.78 71.89,-480.92"/>
</g>
<!-- Node14 -->
<g id="node14" class="node">
<title>Node14</title>
<g id="a_node14"><a xlink:href="struct_oboslete_users_modules_1_1_constrain_constant_aarea.html" target="_top" xlink:title=" ">
<polygon fill="white" stroke="#666666" points="246.12,-423.88 116.88,-423.88 116.88,-393.38 246.12,-393.38 246.12,-423.88"/>
<text text-anchor="start" x="124.88" y="-410.38" font-family="Helvetica,sans-Serif" font-size="10.00">ObosleteUsersModules</text>
<text text-anchor="middle" x="181.5" y="-399.12" font-family="Helvetica,sans-Serif" font-size="10.00">::ConstrainConstantAarea</text>
</a>
</g>
</g>
<!-- Node1&#45;&gt;Node14 -->
<g id="edge14" class="edge">
<title>Node1&#45;&gt;Node14</title>
<path fill="none" stroke="#63b8ff" d="M47.27,-474.18C59.58,-460.86 77.76,-443.4 97,-432.62 103.18,-429.16 109.91,-426.16 116.78,-423.57"/>
<polygon fill="#63b8ff" stroke="#63b8ff" points="44.81,-471.68 40.76,-481.47 50.03,-476.34 44.81,-471.68"/>
</g>
<!-- Node16 -->
<g id="node16" class="node">
<title>Node16</title>
<g id="a_node16"><a xlink:href="struct_op_elastic_tools_1_1_fe_pre_post_process.html" target="_top" xlink:title="Not used at this stage. Could be used to do some calculations, before assembly of local elements.">
<polygon fill="white" stroke="#666666" points="248.75,-374.88 114.25,-374.88 114.25,-344.38 248.75,-344.38 248.75,-374.88"/>
<text text-anchor="start" x="122.25" y="-361.38" font-family="Helvetica,sans-Serif" font-size="10.00">OpElasticTools::FePrePost</text>
<text text-anchor="middle" x="181.5" y="-350.12" font-family="Helvetica,sans-Serif" font-size="10.00">Process</text>
</a>
</g>
</g>
<!-- Node1&#45;&gt;Node16 -->
<g id="edge16" class="edge">
<title>Node1&#45;&gt;Node16</title>
<path fill="none" stroke="#63b8ff" d="M38.7,-472.04C48.27,-447.65 67.48,-407.45 97,-384.62 102.15,-380.64 107.92,-377.3 113.97,-374.48"/>
<polygon fill="#63b8ff" stroke="#63b8ff" points="35.51,-470.58 35.3,-481.18 42.07,-473.02 35.51,-470.58"/>
</g>
<!-- Node17 -->
<g id="node17" class="node">
<title>Node17</title>
<g id="a_node17"><a xlink:href="struct_plastic_ops_1_1_monitor.html" target="_top" xlink:title=" ">
<polygon fill="white" stroke="#666666" points="232.62,-326.25 130.38,-326.25 130.38,-307 232.62,-307 232.62,-326.25"/>
<text text-anchor="middle" x="181.5" y="-312.75" font-family="Helvetica,sans-Serif" font-size="10.00">PlasticOps::Monitor</text>
</a>
</g>
</g>
<!-- Node1&#45;&gt;Node17 -->
<g id="edge17" class="edge">
<title>Node1&#45;&gt;Node17</title>
<path fill="none" stroke="#63b8ff" d="M34.15,-471.39C39.55,-437.36 55.12,-370.87 97,-335.62 106.33,-327.77 118.25,-323 130.14,-320.15"/>
<polygon fill="#63b8ff" stroke="#63b8ff" points="30.69,-470.82 32.75,-481.21 37.62,-471.8 30.69,-470.82"/>
</g>
<!-- Node18 -->
<g id="node18" class="node">
<title>Node18</title>
<g id="a_node18"><a xlink:href="struct_simple_arc_length_control.html" target="_top" xlink:title=" ">
<polygon fill="white" stroke="#666666" points="242.38,-289.25 120.62,-289.25 120.62,-270 242.38,-270 242.38,-289.25"/>
<text text-anchor="middle" x="181.5" y="-275.75" font-family="Helvetica,sans-Serif" font-size="10.00">SimpleArcLengthControl</text>
</a>
</g>
</g>
<!-- Node1&#45;&gt;Node18 -->
<g id="edge18" class="edge">
<title>Node1&#45;&gt;Node18</title>
<path fill="none" stroke="#63b8ff" d="M32.11,-471.42C34.47,-431.16 45.59,-343.59 97,-297.62 103.63,-291.69 111.74,-287.56 120.27,-284.69"/>
<polygon fill="#63b8ff" stroke="#63b8ff" points="28.62,-471.06 31.68,-481.2 35.61,-471.37 28.62,-471.06"/>
</g>
<!-- Node19 -->
<g id="node19" class="node">
<title>Node19</title>
<g id="a_node19"><a xlink:href="struct_solid_shell_module_1_1_run_adaptivity_1_1_set_order_to_element.html" target="_top" xlink:title="Set order of finite element.">
<polygon fill="white" stroke="#666666" points="260.75,-251.88 102.25,-251.88 102.25,-221.38 260.75,-221.38 260.75,-251.88"/>
<text text-anchor="start" x="110.25" y="-238.38" font-family="Helvetica,sans-Serif" font-size="10.00">SolidShellModule::RunAdaptivity</text>
<text text-anchor="middle" x="181.5" y="-227.12" font-family="Helvetica,sans-Serif" font-size="10.00">::SetOrderToElement</text>
</a>
</g>
</g>
<!-- Node1&#45;&gt;Node19 -->
<g id="edge19" class="edge">
<title>Node1&#45;&gt;Node19</title>
<path fill="none" stroke="#63b8ff" d="M31.06,-471.29C31.33,-425.94 38.56,-319.34 97,-260.62 100.19,-257.42 103.78,-254.63 107.63,-252.21"/>
<polygon fill="#63b8ff" stroke="#63b8ff" points="27.56,-471.1 31.13,-481.08 34.56,-471.06 27.56,-471.1"/>
</g>
<!-- Node20 -->
<g id="node20" class="node">
<title>Node20</title>
<g id="a_node20"><a xlink:href="struct_solid_shell_module_1_1_run_adaptivity_1_1_set_order_to_entities.html" target="_top" xlink:title="Set order on entities.">
<polygon fill="white" stroke="#666666" points="260.75,-202.88 102.25,-202.88 102.25,-172.38 260.75,-172.38 260.75,-202.88"/>
<text text-anchor="start" x="110.25" y="-189.38" font-family="Helvetica,sans-Serif" font-size="10.00">SolidShellModule::RunAdaptivity</text>
<text text-anchor="middle" x="181.5" y="-178.12" font-family="Helvetica,sans-Serif" font-size="10.00">::SetOrderToEntities</text>
</a>
</g>
</g>
<!-- Node1&#45;&gt;Node20 -->
<g id="edge20" class="edge">
<title>Node1&#45;&gt;Node20</title>
<path fill="none" stroke="#63b8ff" d="M33.73,-471.36C40.28,-412.72 61.31,-250.57 97,-212.62 100.42,-208.99 104.35,-205.87 108.59,-203.21"/>
<polygon fill="#63b8ff" stroke="#63b8ff" points="30.28,-470.68 32.68,-481 37.24,-471.43 30.28,-470.68"/>
</g>
<!-- Node21 -->
<g id="node21" class="node">
<title>Node21</title>
<g id="a_node21"><a xlink:href="struct_spherical_arc_length_control.html" target="_top" xlink:title="Implementation of spherical arc&#45;length method.">
<polygon fill="white" stroke="#666666" points="247.62,-154.25 115.38,-154.25 115.38,-135 247.62,-135 247.62,-154.25"/>
<text text-anchor="middle" x="181.5" y="-140.75" font-family="Helvetica,sans-Serif" font-size="10.00">SphericalArcLengthControl</text>
</a>
</g>
</g>
<!-- Node1&#45;&gt;Node21 -->
<g id="edge21" class="edge">
<title>Node1&#45;&gt;Node21</title>
<path fill="none" stroke="#63b8ff" d="M32.77,-471.49C37.15,-405.97 53.78,-208.04 97,-163.62 102.08,-158.4 108.28,-154.49 114.97,-151.56"/>
<polygon fill="#63b8ff" stroke="#63b8ff" points="29.3,-471.03 32.15,-481.23 36.28,-471.47 29.3,-471.03"/>
</g>
<!-- Node23 -->
<g id="node23" class="node">
<title>Node23</title>
<g id="a_node23"><a xlink:href="struct_thermal_element_1_1_time_series_monitor.html" target="_top" xlink:title="TS monitore it records temperature at time steps.">
<polygon fill="white" stroke="#666666" points="252.88,-116.88 110.12,-116.88 110.12,-86.38 252.88,-86.38 252.88,-116.88"/>
<text text-anchor="start" x="118.12" y="-103.38" font-family="Helvetica,sans-Serif" font-size="10.00">ThermalElement::TimeSeries</text>
<text text-anchor="middle" x="181.5" y="-92.12" font-family="Helvetica,sans-Serif" font-size="10.00">Monitor</text>
</a>
</g>
</g>
<!-- Node1&#45;&gt;Node23 -->
<g id="edge23" class="edge">
<title>Node1&#45;&gt;Node23</title>
<path fill="none" stroke="#63b8ff" d="M32.41,-471.48C35.86,-401.27 50.38,-177.32 97,-125.62 100.74,-121.48 105.14,-118.03 109.93,-115.17"/>
<polygon fill="#63b8ff" stroke="#63b8ff" points="28.93,-471.07 31.96,-481.22 35.92,-471.39 28.93,-471.07"/>
</g>
<!-- Node24 -->
<g id="node24" class="node">
<title>Node24</title>
<g id="a_node24"><a xlink:href="struct_thermal_element_1_1_update_and_control.html" target="_top" xlink:title="this calass is to control time stepping">
<polygon fill="white" stroke="#666666" points="252.5,-67.88 110.5,-67.88 110.5,-37.38 252.5,-37.38 252.5,-67.88"/>
<text text-anchor="start" x="118.5" y="-54.38" font-family="Helvetica,sans-Serif" font-size="10.00">ThermalElement::UpdateAnd</text>
<text text-anchor="middle" x="181.5" y="-43.12" font-family="Helvetica,sans-Serif" font-size="10.00">Control</text>
</a>
</g>
</g>
<!-- Node1&#45;&gt;Node24 -->
<g id="edge24" class="edge">
<title>Node1&#45;&gt;Node24</title>
<path fill="none" stroke="#63b8ff" d="M31.96,-471.26C34.03,-394.97 44.82,-137.33 97,-77.62 100.78,-73.3 105.28,-69.7 110.21,-66.72"/>
<polygon fill="#63b8ff" stroke="#63b8ff" points="28.46,-471.01 31.72,-481.09 35.46,-471.18 28.46,-471.01"/>
</g>
<!-- Node25 -->
<g id="node25" class="node">
<title>Node25</title>
<g id="a_node25"><a xlink:href="struct_zero_f_lmabda.html" target="_top" xlink:title="Zero F_lambda.">
<polygon fill="white" stroke="#666666" points="219.5,-19.25 143.5,-19.25 143.5,0 219.5,0 219.5,-19.25"/>
<text text-anchor="middle" x="181.5" y="-5.75" font-family="Helvetica,sans-Serif" font-size="10.00">ZeroFLmabda</text>
</a>
</g>
</g>
<!-- Node1&#45;&gt;Node25 -->
<g id="edge25" class="edge">
<title>Node1&#45;&gt;Node25</title>
<path fill="none" stroke="#63b8ff" d="M31.43,-471.3C31.6,-389.14 36.49,-94.41 97,-28.62 108.68,-15.93 126.91,-10.84 143.37,-9.07"/>
<polygon fill="#63b8ff" stroke="#63b8ff" points="27.93,-471.08 31.43,-481.08 34.93,-471.08 27.93,-471.08"/>
</g>
<!-- Node6 -->
<g id="node6" class="node">
<title>Node6</title>
<g id="a_node6"><a xlink:href="struct_cohesive_element_1_1_arc_length_element.html" target="_top" xlink:title=" ">
<polygon fill="white" stroke="#666666" points="458.62,-812.88 315.12,-812.88 315.12,-782.38 458.62,-782.38 458.62,-812.88"/>
<text text-anchor="start" x="323.12" y="-799.38" font-family="Helvetica,sans-Serif" font-size="10.00">CohesiveElement::ArcLength</text>
<text text-anchor="middle" x="386.88" y="-788.12" font-family="Helvetica,sans-Serif" font-size="10.00">Element</text>
</a>
</g>
</g>
<!-- Node5&#45;&gt;Node6 -->
<g id="edge5" class="edge">
<title>Node5&#45;&gt;Node6</title>
<path fill="none" stroke="#63b8ff" d="M264.93,-797.62C281.46,-797.62 298.69,-797.62 314.78,-797.62"/>
<polygon fill="#63b8ff" stroke="#63b8ff" points="265.14,-794.13 255.14,-797.63 265.14,-801.13 265.14,-794.13"/>
</g>
<!-- Node15 -->
<g id="node15" class="node">
<title>Node15</title>
<g id="a_node15"><a xlink:href="struct_oboslete_users_modules_1_1_tangent_with_mesh_smoothing_front_constrain.html" target="_top" xlink:title=" ">
<polygon fill="white" stroke="#666666" points="471.75,-429.5 302,-429.5 302,-387.75 471.75,-387.75 471.75,-429.5"/>
<text text-anchor="start" x="310" y="-416" font-family="Helvetica,sans-Serif" font-size="10.00">ObosleteUsersModules</text>
<text text-anchor="start" x="310" y="-404.75" font-family="Helvetica,sans-Serif" font-size="10.00">::TangentWithMeshSmoothingFront</text>
<text text-anchor="middle" x="386.88" y="-393.5" font-family="Helvetica,sans-Serif" font-size="10.00">Constrain</text>
</a>
</g>
</g>
<!-- Node14&#45;&gt;Node15 -->
<g id="edge15" class="edge">
<title>Node14&#45;&gt;Node15</title>
<path fill="none" stroke="#63b8ff" d="M257.83,-408.62C272.09,-408.62 287.1,-408.62 301.63,-408.62"/>
<polygon fill="#63b8ff" stroke="#63b8ff" points="258.08,-405.13 248.08,-408.63 258.08,-412.13 258.08,-405.13"/>
</g>
<!-- Node22 -->
<g id="node22" class="node">
<title>Node22</title>
<g id="a_node22"><a xlink:href="struct_shell_arc_length.html" target="_top" xlink:title=" ">
<polygon fill="white" stroke="#666666" points="427.88,-154.25 345.88,-154.25 345.88,-135 427.88,-135 427.88,-154.25"/>
<text text-anchor="middle" x="386.88" y="-140.75" font-family="Helvetica,sans-Serif" font-size="10.00">ShellArcLength</text>
</a>
</g>
</g>
<!-- Node21&#45;&gt;Node22 -->
<g id="edge22" class="edge">
<title>Node21&#45;&gt;Node22</title>
<path fill="none" stroke="#63b8ff" d="M259.44,-144.62C288.69,-144.62 320.85,-144.62 345.41,-144.62"/>
<polygon fill="#63b8ff" stroke="#63b8ff" points="259.48,-141.13 249.48,-144.63 259.48,-148.13 259.48,-141.13"/>
</g>
</g>
</svg>
        <g id="navigator" transform="translate(0 0)" fill="#404254">
                <rect fill="#f2f5e9" fill-opacity="0.5" stroke="#606060" stroke-width=".5" x="0" y="0" width="60" height="60"/>
                <use id="zoomplus" xlink:href="#zoomPlus" x="17" y="9" onmousedown="handleZoom(evt,'in')"/>
                <use id="zoomminus" xlink:href="#zoomMin" x="42" y="9" onmousedown="handleZoom(evt,'out')"/>
                <use id="reset" xlink:href="#resetDef" x="30" y="36" onmousedown="handleReset()"/>
                <g id="arrowUp" xlink:href="#dirArrow" transform="translate(30 24)" onmousedown="handlePan(0,-1)">
                  <use xlink:href="#rim" fill="#404040">
                        <set attributeName="fill" to="#808080" begin="arrowUp.mouseover" end="arrowUp.mouseout"/>
                  </use>
                  <path fill="none" stroke="white" stroke-width="1.5" d="M0,-3.0v7 M-2.5,-0.5L0,-3.0L2.5,-0.5"/>
                </g>
                <g id="arrowRight" xlink:href="#dirArrow" transform="rotate(90) translate(36 -43)" onmousedown="handlePan(1,0)">
                  <use xlink:href="#rim" fill="#404040">
                        <set attributeName="fill" to="#808080" begin="arrowRight.mouseover" end="arrowRight.mouseout"/>
                  </use>
                  <path fill="none" stroke="white" stroke-width="1.5" d="M0,-3.0v7 M-2.5,-0.5L0,-3.0L2.5,-0.5"/>
                </g>
                <g id="arrowDown" xlink:href="#dirArrow" transform="rotate(180) translate(-30 -48)" onmousedown="handlePan(0,1)">
                  <use xlink:href="#rim" fill="#404040">
                        <set attributeName="fill" to="#808080" begin="arrowDown.mouseover" end="arrowDown.mouseout"/>
                  </use>
                  <path fill="none" stroke="white" stroke-width="1.5" d="M0,-3.0v7 M-2.5,-0.5L0,-3.0L2.5,-0.5"/>
                </g>
                <g id="arrowLeft" xlink:href="#dirArrow" transform="rotate(270) translate(-36 17)" onmousedown="handlePan(-1,0)">
                  <use xlink:href="#rim" fill="#404040">
                        <set attributeName="fill" to="#808080" begin="arrowLeft.mouseover" end="arrowLeft.mouseout"/>
                  </use>
                  <path fill="none" stroke="white" stroke-width="1.5" d="M0,-3.0v7 M-2.5,-0.5L0,-3.0L2.5,-0.5"/>
                </g>
        </g>
        <svg viewBox="0 0 15 15" width="100%" height="30px" preserveAspectRatio="xMaxYMin meet">
         <g id="arrow_out" transform="scale(0.3 0.3)">
          <a xlink:href="class_f_e_method__inherit__graph_org.svg" target="_base">
           <rect id="button" ry="5" rx="5" y="6" x="6" height="38" width="38"
                fill="#f2f5e9" fill-opacity="0.5" stroke="#606060" stroke-width="1.0"/>
           <path id="arrow"
             d="M 11.500037,31.436501 C 11.940474,20.09759 22.043105,11.32322 32.158766,21.979434 L 37.068811,17.246167 C 37.068811,17.246167 37.088388,32 37.088388,32 L 22.160133,31.978069 C 22.160133,31.978069 26.997745,27.140456 26.997745,27.140456 C 18.528582,18.264221 13.291696,25.230495 11.500037,31.436501 z"
             style="fill:#404040;"/>
          </a>
         </g>
        </svg>
</svg>
