<?xml version="1.0" encoding="UTF-8" standalone="no"?>
<!DOCTYPE svg PUBLIC "-//W3C//DTD SVG 1.1//EN"
 "http://www.w3.org/Graphics/SVG/1.1/DTD/svg11.dtd">
<!-- Generated by graphviz version 9.0.0 (20230911.1827)
 -->
<!-- Title: FTensor::Ddg_times_Tensor2_symmetric_01&lt; A, B, T, U, Dim01, Dim23, i, j, k, l &gt; Pages: 1 -->
<svg width="702pt" height="110pt"
 viewBox="0.00 0.00 702.05 109.50" xmlns="http://www.w3.org/2000/svg" xmlns:xlink="http://www.w3.org/1999/xlink">
<g id="graph0" class="graph" transform="scale(1 1) rotate(0) translate(4 105.5)">
<title>FTensor::Ddg_times_Tensor2_symmetric_01&lt; A, B, T, U, Dim01, Dim23, i, j, k, l &gt;</title>
<!-- Node1 -->
<g id="node1" class="node">
<title>Node1</title>
<g id="a_node1"><a xlink:title=" ">
<polygon fill="#999999" stroke="#666666" points="694.05,-88.75 554.3,-88.75 554.3,-35.75 694.05,-35.75 694.05,-88.75"/>
<text text-anchor="start" x="562.3" y="-75.25" font-family="Helvetica,sans-Serif" font-size="10.00">FTensor::Ddg_times</text>
<text text-anchor="start" x="562.3" y="-64" font-family="Helvetica,sans-Serif" font-size="10.00">_Tensor2_symmetric_01</text>
<text text-anchor="start" x="562.3" y="-52.75" font-family="Helvetica,sans-Serif" font-size="10.00">&lt; A, B, T, U, Dim01, Dim23,</text>
<text text-anchor="middle" x="624.17" y="-41.5" font-family="Helvetica,sans-Serif" font-size="10.00"> i, j, k, l &gt;</text>
</a>
</g>
</g>
<!-- Node2 -->
<g id="node2" class="node">
<title>Node2</title>
<g id="a_node2"><a xlink:title=" ">
<polygon fill="white" stroke="#666666" points="484.92,-101.5 362.42,-101.5 362.42,-71 484.92,-71 484.92,-101.5"/>
<text text-anchor="start" x="370.42" y="-88" font-family="Helvetica,sans-Serif" font-size="10.00">Ddg_Expr&lt; A, T, Dim01,</text>
<text text-anchor="middle" x="423.67" y="-76.75" font-family="Helvetica,sans-Serif" font-size="10.00"> Dim23, i, j, k, l &gt;</text>
</a>
</g>
</g>
<!-- Node2&#45;&gt;Node1 -->
<g id="edge1" class="edge">
<title>Node2&#45;&gt;Node1</title>
<path fill="none" stroke="#9a32cd" stroke-dasharray="5,2" d="M496.71,-77.54C515.35,-75.29 535.38,-72.86 553.88,-70.63"/>
<polygon fill="#9a32cd" stroke="#9a32cd" points="496.32,-74.06 486.81,-78.74 497.16,-81.01 496.32,-74.06"/>
<text text-anchor="middle" x="524.67" y="-76" font-family="Helvetica,sans-Serif" font-size="10.00"> iterA</text>
</g>
<!-- Node3 -->
<g id="node3" class="node">
<title>Node3</title>
<g id="a_node3"><a xlink:href="class_f_tensor_1_1_tensor2__symmetric___expr.html" target="_top" xlink:title=" ">
<polygon fill="white" stroke="#666666" points="495.05,-52.5 352.3,-52.5 352.3,-22 495.05,-22 495.05,-52.5"/>
<text text-anchor="start" x="360.3" y="-39" font-family="Helvetica,sans-Serif" font-size="10.00">FTensor::Tensor2_symmetric</text>
<text text-anchor="middle" x="423.67" y="-27.75" font-family="Helvetica,sans-Serif" font-size="10.00">_Expr&lt; B, U, Dim01, i, j &gt;</text>
</a>
</g>
</g>
<!-- Node3&#45;&gt;Node1 -->
<g id="edge2" class="edge">
<title>Node3&#45;&gt;Node1</title>
<path fill="none" stroke="#9a32cd" stroke-dasharray="5,2" d="M506.8,-47.59C522.51,-49.57 538.8,-51.62 554.05,-53.54"/>
<polygon fill="#9a32cd" stroke="#9a32cd" points="507.36,-44.14 497,-46.36 506.48,-51.08 507.36,-44.14"/>
<text text-anchor="middle" x="524.67" y="-52" font-family="Helvetica,sans-Serif" font-size="10.00"> iterB</text>
</g>
<!-- Node4 -->
<g id="node4" class="node">
<title>Node4</title>
<g id="a_node4"><a xlink:href="class_b.html" target="_top" xlink:title=" ">
<polygon fill="white" stroke="#666666" points="167.07,-67.88 138.27,-67.88 138.27,-48.62 167.07,-48.62 167.07,-67.88"/>
<text text-anchor="middle" x="152.67" y="-54.38" font-family="Helvetica,sans-Serif" font-size="10.00">B</text>
</a>
</g>
</g>
<!-- Node4&#45;&gt;Node3 -->
<g id="edge3" class="edge">
<title>Node4&#45;&gt;Node3</title>
<path fill="none" stroke="#9a32cd" stroke-dasharray="5,2" d="M178.67,-56.3C217.74,-53.25 294.74,-47.24 351.84,-42.78"/>
<polygon fill="#9a32cd" stroke="#9a32cd" points="178.59,-52.79 168.89,-57.06 179.14,-59.77 178.59,-52.79"/>
<text text-anchor="middle" x="288.17" y="-52" font-family="Helvetica,sans-Serif" font-size="10.00"> iter</text>
</g>
<!-- Node5 -->
<g id="node5" class="node">
<title>Node5</title>
<g id="a_node5"><a xlink:href="class_f_tensor_1_1_tensor2__symmetric___expr.html" target="_top" xlink:title=" ">
<polygon fill="white" stroke="#666666" points="224.05,-30.5 81.3,-30.5 81.3,0 224.05,0 224.05,-30.5"/>
<text text-anchor="start" x="89.3" y="-17" font-family="Helvetica,sans-Serif" font-size="10.00">FTensor::Tensor2_symmetric</text>
<text text-anchor="middle" x="152.67" y="-5.75" font-family="Helvetica,sans-Serif" font-size="10.00">_Expr&lt; A, T, Dim, i, j &gt;</text>
</a>
</g>
</g>
<!-- Node5&#45;&gt;Node3 -->
<g id="edge4" class="edge">
<title>Node5&#45;&gt;Node3</title>
<path fill="none" stroke="orange" stroke-dasharray="5,2" d="M235.62,-21.94C266.54,-24.46 302.04,-27.36 334.3,-30 340.13,-30.48 346.18,-30.97 352.25,-31.47"/>
<polygon fill="orange" stroke="orange" points="236.21,-18.47 225.95,-21.15 235.64,-25.45 236.21,-18.47"/>
<text text-anchor="middle" x="288.17" y="-32" font-family="Helvetica,sans-Serif" font-size="10.00"> &lt; B, U, Dim01, i, j &gt;</text>
</g>
<!-- Node6 -->
<g id="node6" class="node">
<title>Node6</title>
<g id="a_node6"><a xlink:title=" ">
<polygon fill="white" stroke="#666666" points="28.8,-24.88 0,-24.88 0,-5.62 28.8,-5.62 28.8,-24.88"/>
<text text-anchor="middle" x="14.4" y="-11.38" font-family="Helvetica,sans-Serif" font-size="10.00">A</text>
</a>
</g>
</g>
<!-- Node6&#45;&gt;Node5 -->
<g id="edge5" class="edge">
<title>Node6&#45;&gt;Node5</title>
<path fill="none" stroke="#9a32cd" stroke-dasharray="5,2" d="M40.54,-15.25C52.09,-15.25 66.44,-15.25 80.95,-15.25"/>
<polygon fill="#9a32cd" stroke="#9a32cd" points="40.73,-11.75 30.73,-15.25 40.73,-18.75 40.73,-11.75"/>
<text text-anchor="middle" x="55.05" y="-17" font-family="Helvetica,sans-Serif" font-size="10.00"> iter</text>
</g>
</g>
</svg>
