<?xml version="1.0" encoding="UTF-8" standalone="no"?>
<!DOCTYPE svg PUBLIC "-//W3C//DTD SVG 1.1//EN"
 "http://www.w3.org/Graphics/SVG/1.1/DTD/svg11.dtd">
<!-- Generated by graphviz version 9.0.0 (20230911.1827)
 -->
<!-- Title: AssemblyBoundaryEleOp Pages: 1 -->
<svg width="399pt" height="365pt"
 viewBox="0.00 0.00 399.25 365.12" xmlns="http://www.w3.org/2000/svg" xmlns:xlink="http://www.w3.org/1999/xlink">
<g id="graph0" class="graph" transform="scale(1 1) rotate(0) translate(4 361.12)">
<title>AssemblyBoundaryEleOp</title>
<!-- Node1 -->
<g id="node1" class="node">
<title>Node1</title>
<g id="a_node1"><a xlink:title=" ">
<polygon fill="#999999" stroke="#666666" points="127.75,-225.88 0,-225.88 0,-206.62 127.75,-206.62 127.75,-225.88"/>
<text text-anchor="middle" x="63.88" y="-212.38" font-family="Helvetica,sans-Serif" font-size="10.00">AssemblyBoundaryEleOp</text>
</a>
</g>
</g>
<!-- Node2 -->
<g id="node2" class="node">
<title>Node2</title>
<g id="a_node2"><a xlink:href="struct_contact_ops_1_1_op_constrain_boundary_lhs__d_traction_impl_3_01_d_i_m_00_01_g_a_u_s_s_00_7ed50b8d303f11d89b1821addaa26da6.html" target="_top" xlink:title=" ">
<polygon fill="white" stroke="#666666" points="362.75,-357.12 192.25,-357.12 192.25,-315.38 362.75,-315.38 362.75,-357.12"/>
<text text-anchor="start" x="200.25" y="-343.62" font-family="Helvetica,sans-Serif" font-size="10.00">ContactOps::OpConstrainBoundary</text>
<text text-anchor="start" x="200.25" y="-332.38" font-family="Helvetica,sans-Serif" font-size="10.00">Lhs_dTractionImpl&lt; DIM, GAUSS,</text>
<text text-anchor="middle" x="277.5" y="-321.12" font-family="Helvetica,sans-Serif" font-size="10.00"> AssemblyBoundaryEleOp &gt;</text>
</a>
</g>
</g>
<!-- Node1&#45;&gt;Node2 -->
<g id="edge1" class="edge">
<title>Node1&#45;&gt;Node2</title>
<path fill="none" stroke="#63b8ff" d="M86.21,-234.24C104.74,-252.79 133.31,-280.65 163.75,-297.25 177.44,-304.72 193.1,-310.41 208.3,-314.96"/>
<polygon fill="#63b8ff" stroke="#63b8ff" points="88.81,-231.89 79.27,-227.28 83.85,-236.83 88.81,-231.89"/>
</g>
<!-- Node1&#45;&gt;Node2 -->
<g id="edge2" class="edge">
<title>Node1&#45;&gt;Node2</title>
<path fill="none" stroke="#63b8ff" d="M76.04,-235.78C92.95,-258.73 126.99,-295.2 163.75,-315.25 172.55,-320.05 182.17,-324.12 191.95,-327.49"/>
<polygon fill="#63b8ff" stroke="#63b8ff" points="78.93,-233.8 70.39,-227.54 73.16,-237.76 78.93,-233.8"/>
</g>
<!-- Node3 -->
<g id="node3" class="node">
<title>Node3</title>
<g id="a_node3"><a xlink:href="struct_contact_ops_1_1_op_constrain_boundary_lhs__d_u_impl_3_01_d_i_m_00_01_g_a_u_s_s_00_01_assembly_boundary_ele_op_01_4.html" target="_top" xlink:title=" ">
<polygon fill="white" stroke="#666666" points="391.25,-297.12 163.75,-297.12 163.75,-255.38 391.25,-255.38 391.25,-297.12"/>
<text text-anchor="start" x="171.75" y="-283.62" font-family="Helvetica,sans-Serif" font-size="10.00">ContactOps::OpConstrainBoundary</text>
<text text-anchor="start" x="171.75" y="-272.38" font-family="Helvetica,sans-Serif" font-size="10.00">Lhs_dUImpl&lt; DIM, GAUSS, AssemblyBoundary</text>
<text text-anchor="middle" x="277.5" y="-261.12" font-family="Helvetica,sans-Serif" font-size="10.00">EleOp &gt;</text>
</a>
</g>
</g>
<!-- Node1&#45;&gt;Node3 -->
<g id="edge3" class="edge">
<title>Node1&#45;&gt;Node3</title>
<path fill="none" stroke="#63b8ff" d="M136.89,-229.49C145.92,-232.1 155.04,-234.77 163.75,-237.25 184.21,-243.07 206.85,-249.17 226.44,-254.95"/>
<polygon fill="#63b8ff" stroke="#63b8ff" points="137.99,-226.16 127.42,-226.76 136.06,-232.89 137.99,-226.16"/>
</g>
<!-- Node1&#45;&gt;Node3 -->
<g id="edge4" class="edge">
<title>Node1&#45;&gt;Node3</title>
<path fill="none" stroke="#63b8ff" d="M88.48,-230.86C108.38,-238.84 137.64,-247.81 163.39,-255.15"/>
<polygon fill="#63b8ff" stroke="#63b8ff" points="89.9,-227.66 79.34,-226.9 87.12,-234.09 89.9,-227.66"/>
</g>
<!-- Node4 -->
<g id="node4" class="node">
<title>Node4</title>
<g id="a_node4"><a xlink:href="struct_contact_ops_1_1_op_constrain_boundary_rhs_impl_3_01_d_i_m_00_01_g_a_u_s_s_00_01_assembly_boundary_ele_op_01_4.html" target="_top" xlink:title=" ">
<polygon fill="white" stroke="#666666" points="383.38,-237.12 171.62,-237.12 171.62,-195.38 383.38,-195.38 383.38,-237.12"/>
<text text-anchor="start" x="179.62" y="-223.62" font-family="Helvetica,sans-Serif" font-size="10.00">ContactOps::OpConstrainBoundary</text>
<text text-anchor="start" x="179.62" y="-212.38" font-family="Helvetica,sans-Serif" font-size="10.00">RhsImpl&lt; DIM, GAUSS, AssemblyBoundary</text>
<text text-anchor="middle" x="277.5" y="-201.12" font-family="Helvetica,sans-Serif" font-size="10.00">EleOp &gt;</text>
</a>
</g>
</g>
<!-- Node1&#45;&gt;Node4 -->
<g id="edge5" class="edge">
<title>Node1&#45;&gt;Node4</title>
<path fill="none" stroke="#63b8ff" d="M139.5,-209.77C149.8,-209.59 160.53,-209.5 171.26,-209.5"/>
<polygon fill="#63b8ff" stroke="#63b8ff" points="139.52,-206.27 129.6,-209.98 139.67,-213.26 139.52,-206.27"/>
</g>
<!-- Node1&#45;&gt;Node4 -->
<g id="edge6" class="edge">
<title>Node1&#45;&gt;Node4</title>
<path fill="none" stroke="#63b8ff" d="M139.5,-222.73C149.8,-222.91 160.53,-223 171.26,-223"/>
<polygon fill="#63b8ff" stroke="#63b8ff" points="139.67,-219.24 129.6,-222.52 139.52,-226.23 139.67,-219.24"/>
</g>
<!-- Node5 -->
<g id="node5" class="node">
<title>Node5</title>
<g id="a_node5"><a xlink:href="struct_free_surface_ops_1_1_op_normal_constrain_lhs.html" target="_top" xlink:title=" ">
<polygon fill="white" stroke="#666666" points="346.25,-177.5 208.75,-177.5 208.75,-147 346.25,-147 346.25,-177.5"/>
<text text-anchor="start" x="216.75" y="-164" font-family="Helvetica,sans-Serif" font-size="10.00">FreeSurfaceOps::OpNormal</text>
<text text-anchor="middle" x="277.5" y="-152.75" font-family="Helvetica,sans-Serif" font-size="10.00">ConstrainLhs</text>
</a>
</g>
</g>
<!-- Node1&#45;&gt;Node5 -->
<g id="edge7" class="edge">
<title>Node1&#45;&gt;Node5</title>
<path fill="none" stroke="#63b8ff" d="M106.21,-202.85C123.84,-197.36 144.71,-191.16 163.75,-186.25 178.09,-182.56 193.56,-178.99 208.31,-175.79"/>
<polygon fill="#63b8ff" stroke="#63b8ff" points="105.35,-199.46 96.86,-205.8 107.45,-206.13 105.35,-199.46"/>
</g>
<!-- Node6 -->
<g id="node6" class="node">
<title>Node6</title>
<g id="a_node6"><a xlink:href="struct_free_surface_ops_1_1_op_normal_constrain_rhs.html" target="_top" xlink:title=" ">
<polygon fill="white" stroke="#666666" points="346.25,-128.5 208.75,-128.5 208.75,-98 346.25,-98 346.25,-128.5"/>
<text text-anchor="start" x="216.75" y="-115" font-family="Helvetica,sans-Serif" font-size="10.00">FreeSurfaceOps::OpNormal</text>
<text text-anchor="middle" x="277.5" y="-103.75" font-family="Helvetica,sans-Serif" font-size="10.00">ConstrainRhs</text>
</a>
</g>
</g>
<!-- Node1&#45;&gt;Node6 -->
<g id="edge8" class="edge">
<title>Node1&#45;&gt;Node6</title>
<path fill="none" stroke="#63b8ff" d="M82.58,-198.13C101.15,-180.2 132.01,-153.31 163.75,-138.25 177.61,-131.67 193.25,-126.8 208.38,-123.19"/>
<polygon fill="#63b8ff" stroke="#63b8ff" points="80.23,-195.54 75.58,-205.06 85.15,-200.52 80.23,-195.54"/>
</g>
<!-- Node7 -->
<g id="node7" class="node">
<title>Node7</title>
<g id="a_node7"><a xlink:href="struct_free_surface_ops_1_1_op_normal_force_rhs.html" target="_top" xlink:title=" ">
<polygon fill="white" stroke="#666666" points="346.25,-79.5 208.75,-79.5 208.75,-49 346.25,-49 346.25,-79.5"/>
<text text-anchor="start" x="216.75" y="-66" font-family="Helvetica,sans-Serif" font-size="10.00">FreeSurfaceOps::OpNormal</text>
<text text-anchor="middle" x="277.5" y="-54.75" font-family="Helvetica,sans-Serif" font-size="10.00">ForceRhs</text>
</a>
</g>
</g>
<!-- Node1&#45;&gt;Node7 -->
<g id="edge9" class="edge">
<title>Node1&#45;&gt;Node7</title>
<path fill="none" stroke="#63b8ff" d="M74.58,-196.47C89.59,-168.05 121.21,-116.14 163.75,-89.25 177.14,-80.79 193,-75.17 208.54,-71.44"/>
<polygon fill="#63b8ff" stroke="#63b8ff" points="71.61,-194.58 70.18,-205.08 77.85,-197.77 71.61,-194.58"/>
</g>
<!-- Node8 -->
<g id="node8" class="node">
<title>Node8</title>
<g id="a_node8"><a xlink:href="struct_free_surface_ops_1_1_op_wetting_angle_rhs.html" target="_top" xlink:title=" ">
<polygon fill="white" stroke="#666666" points="347,-30.5 208,-30.5 208,0 347,0 347,-30.5"/>
<text text-anchor="start" x="216" y="-17" font-family="Helvetica,sans-Serif" font-size="10.00">FreeSurfaceOps::OpWetting</text>
<text text-anchor="middle" x="277.5" y="-5.75" font-family="Helvetica,sans-Serif" font-size="10.00">AngleRhs</text>
</a>
</g>
</g>
<!-- Node1&#45;&gt;Node8 -->
<g id="edge10" class="edge">
<title>Node1&#45;&gt;Node8</title>
<path fill="none" stroke="#63b8ff" d="M70.46,-195.38C81.58,-158.05 110.15,-80.04 163.75,-40.25 176.47,-30.81 192.07,-24.81 207.57,-21.04"/>
<polygon fill="#63b8ff" stroke="#63b8ff" points="67.12,-194.33 67.76,-204.91 73.85,-196.24 67.12,-194.33"/>
</g>
</g>
</svg>
