<?xml version="1.0" encoding="UTF-8" standalone="no"?>
<!DOCTYPE svg PUBLIC "-//W3C//DTD SVG 1.1//EN"
 "http://www.w3.org/Graphics/SVG/1.1/DTD/svg11.dtd">
<!-- Generated by graphviz version 2.43.0 (0)
 -->
<!-- Title: FTensor::Tensor2_times_Tensor2&lt; A, B, T, U, Dim0, Dim1, Dim2, Dim3, i, j, k, l &gt; Pages: 1 -->
<svg width="726pt" height="105pt"
 viewBox="0.00 0.00 726.00 104.50" xmlns="http://www.w3.org/2000/svg" xmlns:xlink="http://www.w3.org/1999/xlink">
<g id="graph0" class="graph" transform="scale(1 1) rotate(0) translate(4 100.5)">
<title>FTensor::Tensor2_times_Tensor2&lt; A, B, T, U, Dim0, Dim1, Dim2, Dim3, i, j, k, l &gt;</title>
<polygon fill="white" stroke="transparent" points="-4,4 -4,-100.5 722,-100.5 722,4 -4,4"/>
<!-- Node1 -->
<g id="node1" class="node">
<title>Node1</title>
<g id="a_node1"><a xlink:title=" ">
<polygon fill="#bfbfbf" stroke="black" points="572,-6.5 572,-58.5 718,-58.5 718,-6.5 572,-6.5"/>
<text text-anchor="start" x="580" y="-46.5" font-family="Helvetica,sans-Serif" font-size="10.00">FTensor::Tensor2_times</text>
<text text-anchor="start" x="580" y="-35.5" font-family="Helvetica,sans-Serif" font-size="10.00">_Tensor2&lt; A, B, T, U,</text>
<text text-anchor="start" x="580" y="-24.5" font-family="Helvetica,sans-Serif" font-size="10.00"> Dim0, Dim1, Dim2, Dim3,</text>
<text text-anchor="middle" x="645" y="-13.5" font-family="Helvetica,sans-Serif" font-size="10.00"> i, j, k, l &gt;</text>
</a>
</g>
</g>
<!-- Node2 -->
<g id="node2" class="node">
<title>Node2</title>
<g id="a_node2"><a xlink:href="classFTensor_1_1Tensor2__Expr.html" target="_top" xlink:title=" ">
<polygon fill="white" stroke="black" points="364,-49.5 364,-79.5 509,-79.5 509,-49.5 364,-49.5"/>
<text text-anchor="start" x="372" y="-67.5" font-family="Helvetica,sans-Serif" font-size="10.00">FTensor::Tensor2_Expr</text>
<text text-anchor="middle" x="436.5" y="-56.5" font-family="Helvetica,sans-Serif" font-size="10.00">&lt; B, U, Dim2, Dim3, k, l &gt;</text>
</a>
</g>
</g>
<!-- Node2&#45;&gt;Node1 -->
<g id="edge1" class="edge">
<title>Node2&#45;&gt;Node1</title>
<path fill="none" stroke="#9a32cd" stroke-dasharray="5,2" d="M519.25,-51.83C536.61,-49.14 554.81,-46.32 571.78,-43.69"/>
<polygon fill="#9a32cd" stroke="#9a32cd" points="518.49,-48.41 509.14,-53.4 519.56,-55.33 518.49,-48.41"/>
<text text-anchor="middle" x="540.5" y="-52.5" font-family="Helvetica,sans-Serif" font-size="10.00"> iterB</text>
</g>
<!-- Node3 -->
<g id="node3" class="node">
<title>Node3</title>
<g id="a_node3"><a xlink:title=" ">
<polygon fill="white" stroke="#bfbfbf" points="140.5,-77 140.5,-96 169.5,-96 169.5,-77 140.5,-77"/>
<text text-anchor="middle" x="155" y="-84" font-family="Helvetica,sans-Serif" font-size="10.00">B</text>
</a>
</g>
</g>
<!-- Node3&#45;&gt;Node2 -->
<g id="edge2" class="edge">
<title>Node3&#45;&gt;Node2</title>
<path fill="none" stroke="#9a32cd" stroke-dasharray="5,2" d="M180.07,-84.61C220.46,-81.43 303.38,-74.9 363.82,-70.14"/>
<polygon fill="#9a32cd" stroke="#9a32cd" points="179.55,-81.14 169.86,-85.41 180.1,-88.11 179.55,-81.14"/>
<text text-anchor="middle" x="294.5" y="-81.5" font-family="Helvetica,sans-Serif" font-size="10.00"> iter</text>
</g>
<!-- Node4 -->
<g id="node4" class="node">
<title>Node4</title>
<g id="a_node4"><a xlink:href="classFTensor_1_1Tensor2__Expr.html" target="_top" xlink:title=" ">
<polygon fill="white" stroke="black" points="85,-26.5 85,-56.5 225,-56.5 225,-26.5 85,-26.5"/>
<text text-anchor="start" x="93" y="-44.5" font-family="Helvetica,sans-Serif" font-size="10.00">FTensor::Tensor2_Expr</text>
<text text-anchor="middle" x="155" y="-33.5" font-family="Helvetica,sans-Serif" font-size="10.00">&lt; A, T, Dim0, Dim1, i, j &gt;</text>
</a>
</g>
</g>
<!-- Node4&#45;&gt;Node2 -->
<g id="edge3" class="edge">
<title>Node4&#45;&gt;Node2</title>
<path fill="none" stroke="orange" stroke-dasharray="5,2" d="M235.63,-39.85C269.72,-40 309.91,-41.33 346,-45.5 354.36,-46.47 363.1,-47.85 371.7,-49.43"/>
<polygon fill="orange" stroke="orange" points="235.26,-36.35 225.25,-39.84 235.25,-43.35 235.26,-36.35"/>
<text text-anchor="start" x="243" y="-59.5" font-family="Helvetica,sans-Serif" font-size="10.00"> &lt; B, U, Dim2, Dim3,</text>
<text text-anchor="middle" x="294.5" y="-48.5" font-family="Helvetica,sans-Serif" font-size="10.00"> k, l &gt;</text>
</g>
<!-- Node5 -->
<g id="node5" class="node">
<title>Node5</title>
<g id="a_node5"><a xlink:title=" ">
<polygon fill="white" stroke="#bfbfbf" points="0,-32 0,-51 29,-51 29,-32 0,-32"/>
<text text-anchor="middle" x="14.5" y="-39" font-family="Helvetica,sans-Serif" font-size="10.00">A</text>
</a>
</g>
</g>
<!-- Node5&#45;&gt;Node4 -->
<g id="edge4" class="edge">
<title>Node5&#45;&gt;Node4</title>
<path fill="none" stroke="#9a32cd" stroke-dasharray="5,2" d="M39.19,-41.5C51.95,-41.5 68.41,-41.5 84.87,-41.5"/>
<polygon fill="#9a32cd" stroke="#9a32cd" points="39.03,-38 29.03,-41.5 39.03,-45 39.03,-38"/>
<text text-anchor="middle" x="57" y="-44.5" font-family="Helvetica,sans-Serif" font-size="10.00"> iter</text>
</g>
<!-- Node6 -->
<g id="node6" class="node">
<title>Node6</title>
<g id="a_node6"><a xlink:title=" ">
<polygon fill="white" stroke="#bfbfbf" points="379.5,-0.5 379.5,-30.5 493.5,-30.5 493.5,-0.5 379.5,-0.5"/>
<text text-anchor="start" x="387.5" y="-18.5" font-family="Helvetica,sans-Serif" font-size="10.00">Tensor2_Expr&lt; A, T,</text>
<text text-anchor="middle" x="436.5" y="-7.5" font-family="Helvetica,sans-Serif" font-size="10.00"> Dim0, Dim1, i, j &gt;</text>
</a>
</g>
</g>
<!-- Node6&#45;&gt;Node1 -->
<g id="edge5" class="edge">
<title>Node6&#45;&gt;Node1</title>
<path fill="none" stroke="#9a32cd" stroke-dasharray="5,2" d="M503.61,-19.68C520.08,-20.82 537.69,-22.12 554,-23.5 559.79,-23.99 565.79,-24.52 571.81,-25.08"/>
<polygon fill="#9a32cd" stroke="#9a32cd" points="503.74,-16.18 493.52,-18.99 503.26,-23.17 503.74,-16.18"/>
<text text-anchor="middle" x="540.5" y="-26.5" font-family="Helvetica,sans-Serif" font-size="10.00"> iterA</text>
</g>
</g>
</svg>
