<?xml version="1.0" encoding="UTF-8" standalone="no"?>
<!DOCTYPE svg PUBLIC "-//W3C//DTD SVG 1.1//EN"
 "http://www.w3.org/Graphics/SVG/1.1/DTD/svg11.dtd">
<!-- Generated by graphviz version 9.0.0 (20230911.1827)
 -->
<!-- Title: FTensor::dd_boundary_Tensor2_symmetric&lt; T, Dim01, Dim23, i, j, k, l &gt; Pages: 1 -->
<!--zoomable 299 -->
<svg id="main" version="1.1" xmlns="http://www.w3.org/2000/svg" xmlns:xlink="http://www.w3.org/1999/xlink" xml:space="preserve" onload="init(evt)">
<style type="text/css"><![CDATA[
.edge:hover path { stroke: red; }
.edge:hover polygon { stroke: red; fill: red; }
]]></style>
<script type="text/javascript"><![CDATA[
var edges = document.getElementsByTagName('g');
if (edges && edges.length) {
  for (var i=0;i<edges.length;i++) {
    if (edges[i].id.substr(0,4)=='edge') {
      edges[i].setAttribute('class','edge');
    }
  }
}
]]></script>
        <defs>
                <circle id="rim" cx="0" cy="0" r="7"/>
                <circle id="rim2" cx="0" cy="0" r="3.5"/>
                <g id="zoomPlus">
                        <use xlink:href="#rim" fill="#404040">
                                <set attributeName="fill" to="#808080" begin="zoomplus.mouseover" end="zoomplus.mouseout"/>
                        </use>
                        <path d="M-4,0h8M0,-4v8" fill="none" stroke="white" stroke-width="1.5" pointer-events="none"/>
                </g>
                <g id="zoomMin">
                        <use xlink:href="#rim" fill="#404040">
                                <set attributeName="fill" to="#808080" begin="zoomminus.mouseover" end="zoomminus.mouseout"/>
                        </use>
                        <path d="M-4,0h8" fill="none" stroke="white" stroke-width="1.5" pointer-events="none"/>
                </g>
                <g id="dirArrow">
                        <path fill="none" stroke="white" stroke-width="1.5" d="M0,-3.0v7 M-2.5,-0.5L0,-3.0L2.5,-0.5"/>
                </g>
               <g id="resetDef">
                       <use xlink:href="#rim2" fill="#404040">
                               <set attributeName="fill" to="#808080" begin="reset.mouseover" end="reset.mouseout"/>
                       </use>
               </g>
        </defs>

<script type="text/javascript">
var viewWidth = 707;
var viewHeight = 299;
var sectionId = 'dynsection-0';
</script>
<script xlink:href="svgpan.js"/>
<svg id="graph" class="graph">
<g id="viewport">
<title>FTensor::dd_boundary_Tensor2_symmetric&lt; T, Dim01, Dim23, i, j, k, l &gt;</title>
<!-- Node1 -->
<g id="node1" class="node">
<title>Node1</title>
<g id="a_node1"><a xlink:title=" ">
<polygon fill="#999999" stroke="#666666" points="698.55,-167.5 571.55,-167.5 571.55,-125.75 698.55,-125.75 698.55,-167.5"/>
<text text-anchor="start" x="579.55" y="-154" font-family="Helvetica,sans-Serif" font-size="10.00">FTensor::dd_boundary</text>
<text text-anchor="start" x="579.55" y="-142.75" font-family="Helvetica,sans-Serif" font-size="10.00">_Tensor2_symmetric&lt; T,</text>
<text text-anchor="middle" x="635.05" y="-131.5" font-family="Helvetica,sans-Serif" font-size="10.00"> Dim01, Dim23, i, j, k, l &gt;</text>
</a>
</g>
</g>
<!-- Node2 -->
<g id="node2" class="node">
<title>Node2</title>
<g id="a_node2"><a xlink:href="class_f_tensor_1_1_tensor2__symmetric.html" target="_top" xlink:title=" ">
<polygon fill="white" stroke="#666666" points="492.8,-254.88 350.05,-254.88 350.05,-224.38 492.8,-224.38 492.8,-254.88"/>
<text text-anchor="start" x="358.05" y="-241.38" font-family="Helvetica,sans-Serif" font-size="10.00">FTensor::Tensor2_symmetric</text>
<text text-anchor="middle" x="421.42" y="-230.12" font-family="Helvetica,sans-Serif" font-size="10.00">&lt; T *, Dim01 &gt;</text>
</a>
</g>
</g>
<!-- Node2&#45;&gt;Node1 -->
<g id="edge1" class="edge">
<title>Node2&#45;&gt;Node1</title>
<path fill="none" stroke="#9a32cd" stroke-dasharray="5,2" d="M468.14,-219.53C502.73,-204.33 550.14,-183.5 585.42,-168"/>
<polygon fill="#9a32cd" stroke="#9a32cd" points="466.98,-216.22 459.23,-223.45 469.8,-222.63 466.98,-216.22"/>
<text text-anchor="middle" x="532.17" y="-200.38" font-family="Helvetica,sans-Serif" font-size="10.00"> a</text>
</g>
<!-- Node3 -->
<g id="node3" class="node">
<title>Node3</title>
<g id="a_node3"><a xlink:title=" ">
<polygon fill="white" stroke="#666666" points="28.8,-217.25 0,-217.25 0,-198 28.8,-198 28.8,-217.25"/>
<text text-anchor="middle" x="14.4" y="-203.75" font-family="Helvetica,sans-Serif" font-size="10.00">T</text>
</a>
</g>
</g>
<!-- Node3&#45;&gt;Node2 -->
<g id="edge2" class="edge">
<title>Node3&#45;&gt;Node2</title>
<path fill="none" stroke="#9a32cd" stroke-dasharray="5,2" d="M31.46,-225.72C44.7,-239.14 64.79,-256.33 86.55,-263.62 182.43,-295.75 302.22,-273.12 369.12,-255.32"/>
<polygon fill="#9a32cd" stroke="#9a32cd" points="34.24,-223.56 24.84,-218.68 29.15,-228.36 34.24,-223.56"/>
<text text-anchor="middle" x="157.92" y="-281.38" font-family="Helvetica,sans-Serif" font-size="10.00"> data</text>
</g>
<!-- Node4 -->
<g id="node4" class="node">
<title>Node4</title>
<g id="a_node4"><a xlink:href="class_f_tensor_1_1_tensor2__symmetric.html" target="_top" xlink:title=" ">
<polygon fill="white" stroke="#666666" points="229.3,-254.88 86.55,-254.88 86.55,-224.38 229.3,-224.38 229.3,-254.88"/>
<text text-anchor="start" x="94.55" y="-241.38" font-family="Helvetica,sans-Serif" font-size="10.00">FTensor::Tensor2_symmetric</text>
<text text-anchor="middle" x="157.92" y="-230.12" font-family="Helvetica,sans-Serif" font-size="10.00">&lt; T, Tensor_Dim &gt;</text>
</a>
</g>
</g>
<!-- Node3&#45;&gt;Node4 -->
<g id="edge4" class="edge">
<title>Node3&#45;&gt;Node4</title>
<path fill="none" stroke="#9a32cd" stroke-dasharray="5,2" d="M40.19,-213.23C53.41,-216.22 70.39,-220.06 87.29,-223.88"/>
<polygon fill="#9a32cd" stroke="#9a32cd" points="41.23,-209.88 30.7,-211.09 39.69,-216.7 41.23,-209.88"/>
<text text-anchor="middle" x="57.67" y="-220.38" font-family="Helvetica,sans-Serif" font-size="10.00"> data</text>
</g>
<!-- Node7 -->
<g id="node7" class="node">
<title>Node7</title>
<g id="a_node7"><a xlink:href="class_f_tensor_1_1_tensor1.html" target="_top" xlink:title=" ">
<polygon fill="white" stroke="#666666" points="212.05,-168.88 103.8,-168.88 103.8,-138.38 212.05,-138.38 212.05,-168.88"/>
<text text-anchor="start" x="111.8" y="-155.38" font-family="Helvetica,sans-Serif" font-size="10.00">FTensor::Tensor1&lt; T,</text>
<text text-anchor="middle" x="157.92" y="-144.12" font-family="Helvetica,sans-Serif" font-size="10.00"> Tensor_Dim &gt;</text>
</a>
</g>
</g>
<!-- Node3&#45;&gt;Node7 -->
<g id="edge8" class="edge">
<title>Node3&#45;&gt;Node7</title>
<path fill="none" stroke="#9a32cd" stroke-dasharray="5,2" d="M39.67,-196.89C53.34,-190.97 70.79,-183.63 86.55,-177.62 93.91,-174.82 101.76,-171.99 109.44,-169.31"/>
<polygon fill="#9a32cd" stroke="#9a32cd" points="38.34,-193.65 30.58,-200.86 41.14,-200.07 38.34,-193.65"/>
<text text-anchor="middle" x="57.67" y="-194.38" font-family="Helvetica,sans-Serif" font-size="10.00"> data</text>
</g>
<!-- Node12 -->
<g id="node12" class="node">
<title>Node12</title>
<g id="a_node12"><a xlink:href="class_f_tensor_1_1_tensor2.html" target="_top" xlink:title=" ">
<polygon fill="white" stroke="#666666" points="213.92,-79.5 101.92,-79.5 101.92,-37.75 213.92,-37.75 213.92,-79.5"/>
<text text-anchor="start" x="109.92" y="-66" font-family="Helvetica,sans-Serif" font-size="10.00">FTensor::Tensor2&lt; T,</text>
<text text-anchor="start" x="109.92" y="-54.75" font-family="Helvetica,sans-Serif" font-size="10.00"> Tensor_Dim0, Tensor</text>
<text text-anchor="middle" x="157.92" y="-43.5" font-family="Helvetica,sans-Serif" font-size="10.00">_Dim1 &gt;</text>
</a>
</g>
</g>
<!-- Node3&#45;&gt;Node12 -->
<g id="edge15" class="edge">
<title>Node3&#45;&gt;Node12</title>
<path fill="none" stroke="#9a32cd" stroke-dasharray="5,2" d="M23.01,-187.04C33.6,-160.95 55.09,-116.07 86.55,-88.62 91.05,-84.7 96.15,-81.22 101.49,-78.16"/>
<polygon fill="#9a32cd" stroke="#9a32cd" points="19.83,-185.58 19.47,-196.17 26.35,-188.11 19.83,-185.58"/>
<text text-anchor="middle" x="57.67" y="-139.38" font-family="Helvetica,sans-Serif" font-size="10.00"> data</text>
</g>
<!-- Node4&#45;&gt;Node2 -->
<g id="edge3" class="edge">
<title>Node4&#45;&gt;Node2</title>
<path fill="none" stroke="orange" stroke-dasharray="5,2" d="M240.81,-239.62C275.71,-239.62 316.02,-239.62 349.6,-239.62"/>
<polygon fill="orange" stroke="orange" points="241.2,-236.13 231.2,-239.63 241.2,-243.13 241.2,-236.13"/>
<text text-anchor="middle" x="289.67" y="-241.38" font-family="Helvetica,sans-Serif" font-size="10.00"> &lt; T *, Dim01 &gt;</text>
</g>
<!-- Node5 -->
<g id="node5" class="node">
<title>Node5</title>
<g id="a_node5"><a xlink:href="class_f_tensor_1_1_tensor1.html" target="_top" xlink:title=" ">
<polygon fill="white" stroke="#666666" points="478.55,-189.88 364.3,-189.88 364.3,-159.38 478.55,-159.38 478.55,-189.88"/>
<text text-anchor="start" x="372.3" y="-176.38" font-family="Helvetica,sans-Serif" font-size="10.00">FTensor::Tensor1&lt; int,</text>
<text text-anchor="middle" x="421.42" y="-165.12" font-family="Helvetica,sans-Serif" font-size="10.00"> Dim23 &gt;</text>
</a>
</g>
</g>
<!-- Node5&#45;&gt;Node1 -->
<g id="edge5" class="edge">
<title>Node5&#45;&gt;Node1</title>
<path fill="none" stroke="#9a32cd" stroke-dasharray="5,2" d="M490.12,-165.67C516.08,-162.23 545.57,-158.33 571.06,-154.96"/>
<polygon fill="#9a32cd" stroke="#9a32cd" points="489.81,-162.18 480.36,-166.96 490.73,-169.12 489.81,-162.18"/>
<text text-anchor="middle" x="532.17" y="-163.38" font-family="Helvetica,sans-Serif" font-size="10.00"> d_ijk</text>
</g>
<!-- Node6 -->
<g id="node6" class="node">
<title>Node6</title>
<g id="a_node6"><a xlink:title=" ">
<polygon fill="white" stroke="#666666" points="172.32,-206.25 143.52,-206.25 143.52,-187 172.32,-187 172.32,-206.25"/>
<text text-anchor="middle" x="157.92" y="-192.75" font-family="Helvetica,sans-Serif" font-size="10.00">int</text>
</a>
</g>
</g>
<!-- Node6&#45;&gt;Node5 -->
<g id="edge6" class="edge">
<title>Node6&#45;&gt;Node5</title>
<path fill="none" stroke="#9a32cd" stroke-dasharray="5,2" d="M183.97,-194.52C225.1,-191.06 307.97,-184.09 363.85,-179.38"/>
<polygon fill="#9a32cd" stroke="#9a32cd" points="183.8,-191.02 174.12,-195.35 184.38,-198 183.8,-191.02"/>
<text text-anchor="middle" x="289.67" y="-190.38" font-family="Helvetica,sans-Serif" font-size="10.00"> data</text>
</g>
<!-- Node7&#45;&gt;Node5 -->
<g id="edge7" class="edge">
<title>Node7&#45;&gt;Node5</title>
<path fill="none" stroke="orange" stroke-dasharray="5,2" d="M223.71,-158.83C266.85,-162.29 322.98,-166.8 364.24,-170.11"/>
<polygon fill="orange" stroke="orange" points="224.23,-155.36 213.98,-158.05 223.67,-162.34 224.23,-155.36"/>
<text text-anchor="middle" x="289.67" y="-168.38" font-family="Helvetica,sans-Serif" font-size="10.00"> &lt; int, Dim23 &gt;</text>
</g>
<!-- Node8 -->
<g id="node8" class="node">
<title>Node8</title>
<g id="a_node8"><a xlink:href="class_f_tensor_1_1_tensor1.html" target="_top" xlink:title=" ">
<polygon fill="white" stroke="#666666" points="487.55,-140.88 355.3,-140.88 355.3,-110.38 487.55,-110.38 487.55,-140.88"/>
<text text-anchor="start" x="363.3" y="-127.38" font-family="Helvetica,sans-Serif" font-size="10.00">FTensor::Tensor1&lt; double,</text>
<text text-anchor="middle" x="421.42" y="-116.12" font-family="Helvetica,sans-Serif" font-size="10.00"> Dim23 &gt;</text>
</a>
</g>
</g>
<!-- Node7&#45;&gt;Node8 -->
<g id="edge11" class="edge">
<title>Node7&#45;&gt;Node8</title>
<path fill="none" stroke="orange" stroke-dasharray="5,2" d="M223.7,-146.69C263.67,-142.41 314.79,-136.94 354.9,-132.64"/>
<polygon fill="orange" stroke="orange" points="223.55,-143.19 213.98,-147.73 224.3,-150.15 223.55,-143.19"/>
<text text-anchor="middle" x="289.67" y="-145.38" font-family="Helvetica,sans-Serif" font-size="10.00"> &lt; double, Dim23 &gt;</text>
</g>
<!-- Node8&#45;&gt;Node1 -->
<g id="edge9" class="edge">
<title>Node8&#45;&gt;Node1</title>
<path fill="none" stroke="#9a32cd" stroke-dasharray="5,2" d="M499.09,-132.17C516.97,-133.79 535.93,-135.57 553.55,-137.38 559.29,-137.96 565.25,-138.6 571.22,-139.25"/>
<polygon fill="#9a32cd" stroke="#9a32cd" points="499.6,-128.7 489.33,-131.3 498.97,-135.67 499.6,-128.7"/>
<text text-anchor="middle" x="532.17" y="-138.38" font-family="Helvetica,sans-Serif" font-size="10.00"> d_xyz</text>
</g>
<!-- Node9 -->
<g id="node9" class="node">
<title>Node9</title>
<g id="a_node9"><a xlink:href="classdouble.html" target="_top" xlink:title=" ">
<polygon fill="white" stroke="#666666" points="180.17,-117.25 135.67,-117.25 135.67,-98 180.17,-98 180.17,-117.25"/>
<text text-anchor="middle" x="157.92" y="-103.75" font-family="Helvetica,sans-Serif" font-size="10.00">double</text>
</a>
</g>
</g>
<!-- Node9&#45;&gt;Node8 -->
<g id="edge10" class="edge">
<title>Node9&#45;&gt;Node8</title>
<path fill="none" stroke="#9a32cd" stroke-dasharray="5,2" d="M191.6,-102.76C226.53,-98.38 283.47,-93.57 332.05,-100.38 346.11,-102.34 361.08,-106 374.62,-109.92"/>
<polygon fill="#9a32cd" stroke="#9a32cd" points="191.59,-99.23 182.14,-104.02 192.51,-106.17 191.59,-99.23"/>
<text text-anchor="middle" x="289.67" y="-101.38" font-family="Helvetica,sans-Serif" font-size="10.00"> data</text>
</g>
<!-- Node10 -->
<g id="node10" class="node">
<title>Node10</title>
<g id="a_node10"><a xlink:href="class_f_tensor_1_1_tensor2.html" target="_top" xlink:title=" ">
<polygon fill="white" stroke="#666666" points="482.3,-73.88 360.55,-73.88 360.55,-43.38 482.3,-43.38 482.3,-73.88"/>
<text text-anchor="start" x="368.55" y="-60.38" font-family="Helvetica,sans-Serif" font-size="10.00">FTensor::Tensor2&lt; bool,</text>
<text text-anchor="middle" x="421.42" y="-49.12" font-family="Helvetica,sans-Serif" font-size="10.00"> Dim23, 2 &gt;</text>
</a>
</g>
</g>
<!-- Node10&#45;&gt;Node1 -->
<g id="edge12" class="edge">
<title>Node10&#45;&gt;Node1</title>
<path fill="none" stroke="#9a32cd" stroke-dasharray="5,2" d="M470.73,-78.71C504.28,-92.66 548.9,-111.22 583.02,-125.41"/>
<polygon fill="#9a32cd" stroke="#9a32cd" points="472.23,-75.55 461.66,-74.94 469.55,-82.01 472.23,-75.55"/>
<text text-anchor="middle" x="532.17" y="-114.38" font-family="Helvetica,sans-Serif" font-size="10.00"> boundary</text>
</g>
<!-- Node11 -->
<g id="node11" class="node">
<title>Node11</title>
<g id="a_node11"><a xlink:href="classbool.html" target="_top" xlink:title=" ">
<polygon fill="white" stroke="#666666" points="174.92,-19.25 140.92,-19.25 140.92,0 174.92,0 174.92,-19.25"/>
<text text-anchor="middle" x="157.92" y="-5.75" font-family="Helvetica,sans-Serif" font-size="10.00">bool</text>
</a>
</g>
</g>
<!-- Node11&#45;&gt;Node10 -->
<g id="edge13" class="edge">
<title>Node11&#45;&gt;Node10</title>
<path fill="none" stroke="#9a32cd" stroke-dasharray="5,2" d="M186.52,-14.8C227.53,-22.48 305.58,-37.1 360.2,-47.34"/>
<polygon fill="#9a32cd" stroke="#9a32cd" points="187.24,-11.37 176.77,-12.97 185.95,-18.25 187.24,-11.37"/>
<text text-anchor="middle" x="289.67" y="-43.38" font-family="Helvetica,sans-Serif" font-size="10.00"> data</text>
</g>
<!-- Node12&#45;&gt;Node10 -->
<g id="edge14" class="edge">
<title>Node12&#45;&gt;Node10</title>
<path fill="none" stroke="orange" stroke-dasharray="5,2" d="M225.78,-58.62C267.33,-58.62 320.31,-58.62 360.49,-58.62"/>
<polygon fill="orange" stroke="orange" points="225.9,-55.13 215.9,-58.63 225.9,-62.13 225.9,-55.13"/>
<text text-anchor="middle" x="289.67" y="-60.38" font-family="Helvetica,sans-Serif" font-size="10.00"> &lt; bool, Dim23, 2 &gt;</text>
</g>
</g>
</svg>
        <g id="navigator" transform="translate(0 0)" fill="#404254">
                <rect fill="#f2f5e9" fill-opacity="0.5" stroke="#606060" stroke-width=".5" x="0" y="0" width="60" height="60"/>
                <use id="zoomplus" xlink:href="#zoomPlus" x="17" y="9" onmousedown="handleZoom(evt,'in')"/>
                <use id="zoomminus" xlink:href="#zoomMin" x="42" y="9" onmousedown="handleZoom(evt,'out')"/>
                <use id="reset" xlink:href="#resetDef" x="30" y="36" onmousedown="handleReset()"/>
                <g id="arrowUp" xlink:href="#dirArrow" transform="translate(30 24)" onmousedown="handlePan(0,-1)">
                  <use xlink:href="#rim" fill="#404040">
                        <set attributeName="fill" to="#808080" begin="arrowUp.mouseover" end="arrowUp.mouseout"/>
                  </use>
                  <path fill="none" stroke="white" stroke-width="1.5" d="M0,-3.0v7 M-2.5,-0.5L0,-3.0L2.5,-0.5"/>
                </g>
                <g id="arrowRight" xlink:href="#dirArrow" transform="rotate(90) translate(36 -43)" onmousedown="handlePan(1,0)">
                  <use xlink:href="#rim" fill="#404040">
                        <set attributeName="fill" to="#808080" begin="arrowRight.mouseover" end="arrowRight.mouseout"/>
                  </use>
                  <path fill="none" stroke="white" stroke-width="1.5" d="M0,-3.0v7 M-2.5,-0.5L0,-3.0L2.5,-0.5"/>
                </g>
                <g id="arrowDown" xlink:href="#dirArrow" transform="rotate(180) translate(-30 -48)" onmousedown="handlePan(0,1)">
                  <use xlink:href="#rim" fill="#404040">
                        <set attributeName="fill" to="#808080" begin="arrowDown.mouseover" end="arrowDown.mouseout"/>
                  </use>
                  <path fill="none" stroke="white" stroke-width="1.5" d="M0,-3.0v7 M-2.5,-0.5L0,-3.0L2.5,-0.5"/>
                </g>
                <g id="arrowLeft" xlink:href="#dirArrow" transform="rotate(270) translate(-36 17)" onmousedown="handlePan(-1,0)">
                  <use xlink:href="#rim" fill="#404040">
                        <set attributeName="fill" to="#808080" begin="arrowLeft.mouseover" end="arrowLeft.mouseout"/>
                  </use>
                  <path fill="none" stroke="white" stroke-width="1.5" d="M0,-3.0v7 M-2.5,-0.5L0,-3.0L2.5,-0.5"/>
                </g>
        </g>
        <svg viewBox="0 0 15 15" width="100%" height="30px" preserveAspectRatio="xMaxYMin meet">
         <g id="arrow_out" transform="scale(0.3 0.3)">
          <a xlink:href="class_f_tensor_1_1dd__boundary___tensor2__symmetric__coll__graph_org.svg" target="_base">
           <rect id="button" ry="5" rx="5" y="6" x="6" height="38" width="38"
                fill="#f2f5e9" fill-opacity="0.5" stroke="#606060" stroke-width="1.0"/>
           <path id="arrow"
             d="M 11.500037,31.436501 C 11.940474,20.09759 22.043105,11.32322 32.158766,21.979434 L 37.068811,17.246167 C 37.068811,17.246167 37.088388,32 37.088388,32 L 22.160133,31.978069 C 22.160133,31.978069 26.997745,27.140456 26.997745,27.140456 C 18.528582,18.264221 13.291696,25.230495 11.500037,31.436501 z"
             style="fill:#404040;"/>
          </a>
         </g>
        </svg>
</svg>
