<?xml version="1.0" encoding="UTF-8" standalone="no"?>
<!DOCTYPE svg PUBLIC "-//W3C//DTD SVG 1.1//EN"
 "http://www.w3.org/Graphics/SVG/1.1/DTD/svg11.dtd">
<!-- Generated by graphviz version 2.43.0 (0)
 -->
<!-- Title: FTensor::Tensor3_times_Tensor3_21&lt; A, B, T, U, Dim0, Dim1, Dim23, Dim4, Dim5, i, j, k, l, m &gt; Pages: 1 -->
<!--zoomable 137 -->
<svg id="main" version="1.1" xmlns="http://www.w3.org/2000/svg" xmlns:xlink="http://www.w3.org/1999/xlink" xml:space="preserve" onload="init(evt)">
<style type="text/css"><![CDATA[
.edge:hover path { stroke: red; }
.edge:hover polygon { stroke: red; fill: red; }
]]></style>
<script type="text/javascript"><![CDATA[
var edges = document.getElementsByTagName('g');
if (edges && edges.length) {
  for (var i=0;i<edges.length;i++) {
    if (edges[i].id.substr(0,4)=='edge') {
      edges[i].setAttribute('class','edge');
    }
  }
}
]]></script>
        <defs>
                <circle id="rim" cx="0" cy="0" r="7"/>
                <circle id="rim2" cx="0" cy="0" r="3.5"/>
                <g id="zoomPlus">
                        <use xlink:href="#rim" fill="#404040">
                                <set attributeName="fill" to="#808080" begin="zoomplus.mouseover" end="zoomplus.mouseout"/>
                        </use>
                        <path d="M-4,0h8M0,-4v8" fill="none" stroke="white" stroke-width="1.5" pointer-events="none"/>
                </g>
                <g id="zoomMin">
                        <use xlink:href="#rim" fill="#404040">
                                <set attributeName="fill" to="#808080" begin="zoomminus.mouseover" end="zoomminus.mouseout"/>
                        </use>
                        <path d="M-4,0h8" fill="none" stroke="white" stroke-width="1.5" pointer-events="none"/>
                </g>
                <g id="dirArrow">
                        <path fill="none" stroke="white" stroke-width="1.5" d="M0,-3.0v7 M-2.5,-0.5L0,-3.0L2.5,-0.5"/>
                </g>
               <g id="resetDef">
                       <use xlink:href="#rim2" fill="#404040">
                               <set attributeName="fill" to="#808080" begin="reset.mouseover" end="reset.mouseout"/>
                       </use>
               </g>
        </defs>

<script type="text/javascript">
var viewWidth = 743;
var viewHeight = 137;
var sectionId = 'dynsection-0';
</script>
<script xlink:href="svgpan.js"/>
<svg id="graph" class="graph">
<g id="viewport">
<title>FTensor::Tensor3_times_Tensor3_21&lt; A, B, T, U, Dim0, Dim1, Dim23, Dim4, Dim5, i, j, k, l, m &gt;</title>
<polygon fill="white" stroke="transparent" points="-4,4 -4,-133 739,-133 739,4 -4,4"/>
<!-- Node1 -->
<g id="node1" class="node">
<title>Node1</title>
<g id="a_node1"><a xlink:title=" ">
<polygon fill="#bfbfbf" stroke="black" points="591,-25 591,-77 735,-77 735,-25 591,-25"/>
<text text-anchor="start" x="599" y="-65" font-family="Helvetica,sans-Serif" font-size="10.00">FTensor::Tensor3_times</text>
<text text-anchor="start" x="599" y="-54" font-family="Helvetica,sans-Serif" font-size="10.00">_Tensor3_21&lt; A, B, T,</text>
<text text-anchor="start" x="599" y="-43" font-family="Helvetica,sans-Serif" font-size="10.00"> U, Dim0, Dim1, Dim23,</text>
<text text-anchor="middle" x="663" y="-32" font-family="Helvetica,sans-Serif" font-size="10.00"> Dim4, Dim5, i, j, k, l, m &gt;</text>
</a>
</g>
</g>
<!-- Node2 -->
<g id="node2" class="node">
<title>Node2</title>
<g id="a_node2"><a xlink:href="classFTensor_1_1Tensor3__Expr.html" target="_top" xlink:title=" ">
<polygon fill="white" stroke="black" points="390,-60.5 390,-101.5 514,-101.5 514,-60.5 390,-60.5"/>
<text text-anchor="start" x="398" y="-89.5" font-family="Helvetica,sans-Serif" font-size="10.00">FTensor::Tensor3_Expr</text>
<text text-anchor="start" x="398" y="-78.5" font-family="Helvetica,sans-Serif" font-size="10.00">&lt; B, U, Dim23, Dim4,</text>
<text text-anchor="middle" x="452" y="-67.5" font-family="Helvetica,sans-Serif" font-size="10.00"> Dim5, k, l, m &gt;</text>
</a>
</g>
</g>
<!-- Node2&#45;&gt;Node1 -->
<g id="edge1" class="edge">
<title>Node2&#45;&gt;Node1</title>
<path fill="none" stroke="#9a32cd" stroke-dasharray="5,2" d="M524.09,-70.8C545.67,-67.7 569.38,-64.29 590.96,-61.2"/>
<polygon fill="#9a32cd" stroke="#9a32cd" points="523.41,-67.36 514.01,-72.24 524.41,-74.29 523.41,-67.36"/>
<text text-anchor="middle" x="559.5" y="-69" font-family="Helvetica,sans-Serif" font-size="10.00"> iterB</text>
</g>
<!-- Node3 -->
<g id="node3" class="node">
<title>Node3</title>
<g id="a_node3"><a xlink:title=" ">
<polygon fill="white" stroke="#bfbfbf" points="143.5,-109.5 143.5,-128.5 172.5,-128.5 172.5,-109.5 143.5,-109.5"/>
<text text-anchor="middle" x="158" y="-116.5" font-family="Helvetica,sans-Serif" font-size="10.00">B</text>
</a>
</g>
</g>
<!-- Node3&#45;&gt;Node2 -->
<g id="edge2" class="edge">
<title>Node3&#45;&gt;Node2</title>
<path fill="none" stroke="#9a32cd" stroke-dasharray="5,2" d="M182.88,-116.35C220.27,-112.15 294.87,-103.56 358,-95 368.27,-93.61 379.17,-92.04 389.76,-90.48"/>
<polygon fill="#9a32cd" stroke="#9a32cd" points="182.08,-112.92 172.53,-117.51 182.86,-119.87 182.08,-112.92"/>
<text text-anchor="middle" x="303.5" y="-111" font-family="Helvetica,sans-Serif" font-size="10.00"> iter</text>
</g>
<!-- Node4 -->
<g id="node4" class="node">
<title>Node4</title>
<g id="a_node4"><a xlink:href="classFTensor_1_1Tensor3__Expr.html" target="_top" xlink:title=" ">
<polygon fill="white" stroke="black" points="85,-25.5 85,-66.5 231,-66.5 231,-25.5 85,-25.5"/>
<text text-anchor="start" x="93" y="-54.5" font-family="Helvetica,sans-Serif" font-size="10.00">FTensor::Tensor3_Expr</text>
<text text-anchor="start" x="93" y="-43.5" font-family="Helvetica,sans-Serif" font-size="10.00">&lt; A, T, Dim0, Dim1, Dim2,</text>
<text text-anchor="middle" x="158" y="-32.5" font-family="Helvetica,sans-Serif" font-size="10.00"> i, j, k &gt;</text>
</a>
</g>
</g>
<!-- Node4&#45;&gt;Node2 -->
<g id="edge3" class="edge">
<title>Node4&#45;&gt;Node2</title>
<path fill="none" stroke="orange" stroke-dasharray="5,2" d="M241.35,-55.87C288.42,-61.51 346.45,-68.47 389.52,-73.63"/>
<polygon fill="orange" stroke="orange" points="241.53,-52.37 231.18,-54.65 240.69,-59.32 241.53,-52.37"/>
<text text-anchor="start" x="249" y="-83" font-family="Helvetica,sans-Serif" font-size="10.00"> &lt; B, U, Dim23, Dim4,</text>
<text text-anchor="middle" x="303.5" y="-72" font-family="Helvetica,sans-Serif" font-size="10.00"> Dim5, k, l, m &gt;</text>
</g>
<!-- Node6 -->
<g id="node6" class="node">
<title>Node6</title>
<g id="a_node6"><a xlink:href="classFTensor_1_1Tensor3__Expr.html" target="_top" xlink:title=" ">
<polygon fill="white" stroke="black" points="376,-0.5 376,-41.5 528,-41.5 528,-0.5 376,-0.5"/>
<text text-anchor="start" x="384" y="-29.5" font-family="Helvetica,sans-Serif" font-size="10.00">FTensor::Tensor3_Expr</text>
<text text-anchor="start" x="384" y="-18.5" font-family="Helvetica,sans-Serif" font-size="10.00">&lt; A, T, Dim0, Dim1, Dim23,</text>
<text text-anchor="middle" x="452" y="-7.5" font-family="Helvetica,sans-Serif" font-size="10.00"> i, j, k &gt;</text>
</a>
</g>
</g>
<!-- Node4&#45;&gt;Node6 -->
<g id="edge7" class="edge">
<title>Node4&#45;&gt;Node6</title>
<path fill="none" stroke="orange" stroke-dasharray="5,2" d="M241.24,-30.93C243.86,-30.59 246.45,-30.28 249,-30 290.87,-25.37 337.87,-23.1 375.99,-22"/>
<polygon fill="orange" stroke="orange" points="240.52,-27.49 231.09,-32.32 241.47,-34.43 240.52,-27.49"/>
<text text-anchor="start" x="253" y="-44" font-family="Helvetica,sans-Serif" font-size="10.00"> &lt; A, T, Dim0, Dim1,</text>
<text text-anchor="middle" x="303.5" y="-33" font-family="Helvetica,sans-Serif" font-size="10.00"> Dim23, i, j, k &gt;</text>
</g>
<!-- Node5 -->
<g id="node5" class="node">
<title>Node5</title>
<g id="a_node5"><a xlink:title=" ">
<polygon fill="white" stroke="#bfbfbf" points="0,-6.5 0,-25.5 29,-25.5 29,-6.5 0,-6.5"/>
<text text-anchor="middle" x="14.5" y="-13.5" font-family="Helvetica,sans-Serif" font-size="10.00">A</text>
</a>
</g>
</g>
<!-- Node5&#45;&gt;Node4 -->
<g id="edge4" class="edge">
<title>Node5&#45;&gt;Node4</title>
<path fill="none" stroke="#9a32cd" stroke-dasharray="5,2" d="M39.18,-21.02C51.88,-23.71 68.27,-27.19 84.77,-30.69"/>
<polygon fill="#9a32cd" stroke="#9a32cd" points="39.58,-17.53 29.07,-18.88 38.12,-24.37 39.58,-17.53"/>
<text text-anchor="middle" x="57" y="-29" font-family="Helvetica,sans-Serif" font-size="10.00"> iter</text>
</g>
<!-- Node5&#45;&gt;Node6 -->
<g id="edge6" class="edge">
<title>Node5&#45;&gt;Node6</title>
<path fill="none" stroke="#9a32cd" stroke-dasharray="5,2" d="M38.86,-11.36C52.3,-8.93 69.53,-6.22 85,-5 185.5,2.9 301.85,-5.11 375.9,-12.37"/>
<polygon fill="#9a32cd" stroke="#9a32cd" points="38.19,-7.93 29.01,-13.22 39.48,-14.81 38.19,-7.93"/>
<text text-anchor="middle" x="158" y="-8" font-family="Helvetica,sans-Serif" font-size="10.00"> iter</text>
</g>
<!-- Node6&#45;&gt;Node1 -->
<g id="edge5" class="edge">
<title>Node6&#45;&gt;Node1</title>
<path fill="none" stroke="#9a32cd" stroke-dasharray="5,2" d="M538.36,-33.25C555.84,-35.76 574.08,-38.38 591,-40.81"/>
<polygon fill="#9a32cd" stroke="#9a32cd" points="538.55,-29.74 528.16,-31.79 537.56,-36.67 538.55,-29.74"/>
<text text-anchor="middle" x="559.5" y="-40" font-family="Helvetica,sans-Serif" font-size="10.00"> iterA</text>
</g>
</g>
</svg>
        <g id="navigator" transform="translate(0 0)" fill="#404254">
                <rect fill="#f2f5e9" fill-opacity="0.5" stroke="#606060" stroke-width=".5" x="0" y="0" width="60" height="60"/>
                <use id="zoomplus" xlink:href="#zoomPlus" x="17" y="9" onmousedown="handleZoom(evt,'in')"/>
                <use id="zoomminus" xlink:href="#zoomMin" x="42" y="9" onmousedown="handleZoom(evt,'out')"/>
                <use id="reset" xlink:href="#resetDef" x="30" y="36" onmousedown="handleReset()"/>
                <g id="arrowUp" xlink:href="#dirArrow" transform="translate(30 24)" onmousedown="handlePan(0,-1)">
                  <use xlink:href="#rim" fill="#404040">
                        <set attributeName="fill" to="#808080" begin="arrowUp.mouseover" end="arrowUp.mouseout"/>
                  </use>
                  <path fill="none" stroke="white" stroke-width="1.5" d="M0,-3.0v7 M-2.5,-0.5L0,-3.0L2.5,-0.5"/>
                </g>
                <g id="arrowRight" xlink:href="#dirArrow" transform="rotate(90) translate(36 -43)" onmousedown="handlePan(1,0)">
                  <use xlink:href="#rim" fill="#404040">
                        <set attributeName="fill" to="#808080" begin="arrowRight.mouseover" end="arrowRight.mouseout"/>
                  </use>
                  <path fill="none" stroke="white" stroke-width="1.5" d="M0,-3.0v7 M-2.5,-0.5L0,-3.0L2.5,-0.5"/>
                </g>
                <g id="arrowDown" xlink:href="#dirArrow" transform="rotate(180) translate(-30 -48)" onmousedown="handlePan(0,1)">
                  <use xlink:href="#rim" fill="#404040">
                        <set attributeName="fill" to="#808080" begin="arrowDown.mouseover" end="arrowDown.mouseout"/>
                  </use>
                  <path fill="none" stroke="white" stroke-width="1.5" d="M0,-3.0v7 M-2.5,-0.5L0,-3.0L2.5,-0.5"/>
                </g>
                <g id="arrowLeft" xlink:href="#dirArrow" transform="rotate(270) translate(-36 17)" onmousedown="handlePan(-1,0)">
                  <use xlink:href="#rim" fill="#404040">
                        <set attributeName="fill" to="#808080" begin="arrowLeft.mouseover" end="arrowLeft.mouseout"/>
                  </use>
                  <path fill="none" stroke="white" stroke-width="1.5" d="M0,-3.0v7 M-2.5,-0.5L0,-3.0L2.5,-0.5"/>
                </g>
        </g>
        <svg viewBox="0 0 15 15" width="100%" height="30px" preserveAspectRatio="xMaxYMin meet">
         <g id="arrow_out" transform="scale(0.3 0.3)">
          <a xlink:href="classFTensor_1_1Tensor3__times__Tensor3__21__coll__graph_org.svg" target="_base">
           <rect id="button" ry="5" rx="5" y="6" x="6" height="38" width="38"
                fill="#f2f5e9" fill-opacity="0.5" stroke="#606060" stroke-width="1.0"/>
           <path id="arrow"
             d="M 11.500037,31.436501 C 11.940474,20.09759 22.043105,11.32322 32.158766,21.979434 L 37.068811,17.246167 C 37.068811,17.246167 37.088388,32 37.088388,32 L 22.160133,31.978069 C 22.160133,31.978069 26.997745,27.140456 26.997745,27.140456 C 18.528582,18.264221 13.291696,25.230495 11.500037,31.436501 z"
             style="fill:#404040;"/>
          </a>
         </g>
        </svg>
</svg>
