<?xml version="1.0" encoding="UTF-8" standalone="no"?>
<!DOCTYPE svg PUBLIC "-//W3C//DTD SVG 1.1//EN"
 "http://www.w3.org/Graphics/SVG/1.1/DTD/svg11.dtd">
<!-- Generated by graphviz version 2.43.0 (0)
 -->
<!-- Title: FTensor::Tensor3_times_Tensor3_12_12&lt; A, B, T, U, Dim03, Dim14, Dim2, Dim5, i, j, k, l &gt; Pages: 1 -->
<svg width="732pt" height="139pt"
 viewBox="0.00 0.00 732.00 139.00" xmlns="http://www.w3.org/2000/svg" xmlns:xlink="http://www.w3.org/1999/xlink">
<g id="graph0" class="graph" transform="scale(1 1) rotate(0) translate(4 135)">
<title>FTensor::Tensor3_times_Tensor3_12_12&lt; A, B, T, U, Dim03, Dim14, Dim2, Dim5, i, j, k, l &gt;</title>
<polygon fill="white" stroke="transparent" points="-4,4 -4,-135 728,-135 728,4 -4,4"/>
<!-- Node1 -->
<g id="node1" class="node">
<title>Node1</title>
<g id="a_node1"><a xlink:title=" ">
<polygon fill="#bfbfbf" stroke="black" points="573,-40 573,-92 724,-92 724,-40 573,-40"/>
<text text-anchor="start" x="581" y="-80" font-family="Helvetica,sans-Serif" font-size="10.00">FTensor::Tensor3_times</text>
<text text-anchor="start" x="581" y="-69" font-family="Helvetica,sans-Serif" font-size="10.00">_Tensor3_12_12&lt; A, B,</text>
<text text-anchor="start" x="581" y="-58" font-family="Helvetica,sans-Serif" font-size="10.00"> T, U, Dim03, Dim14, Dim2,</text>
<text text-anchor="middle" x="648.5" y="-47" font-family="Helvetica,sans-Serif" font-size="10.00"> Dim5, i, j, k, l &gt;</text>
</a>
</g>
</g>
<!-- Node2 -->
<g id="node2" class="node">
<title>Node2</title>
<g id="a_node2"><a xlink:href="classFTensor_1_1Tensor3__Expr.html" target="_top" xlink:title=" ">
<polygon fill="white" stroke="black" points="383,-75.5 383,-116.5 509,-116.5 509,-75.5 383,-75.5"/>
<text text-anchor="start" x="391" y="-104.5" font-family="Helvetica,sans-Serif" font-size="10.00">FTensor::Tensor3_Expr</text>
<text text-anchor="start" x="391" y="-93.5" font-family="Helvetica,sans-Serif" font-size="10.00">&lt; A, T, Dim03, Dim14,</text>
<text text-anchor="middle" x="446" y="-82.5" font-family="Helvetica,sans-Serif" font-size="10.00"> Dim2, i, j, k &gt;</text>
</a>
</g>
</g>
<!-- Node2&#45;&gt;Node1 -->
<g id="edge1" class="edge">
<title>Node2&#45;&gt;Node1</title>
<path fill="none" stroke="#9a32cd" stroke-dasharray="5,2" d="M519.15,-85.2C536.55,-82.6 555.17,-79.81 572.69,-77.19"/>
<polygon fill="#9a32cd" stroke="#9a32cd" points="518.44,-81.77 509.07,-86.71 519.47,-88.69 518.44,-81.77"/>
<text text-anchor="middle" x="541.5" y="-86" font-family="Helvetica,sans-Serif" font-size="10.00"> iterA</text>
</g>
<!-- Node3 -->
<g id="node3" class="node">
<title>Node3</title>
<g id="a_node3"><a xlink:title=" ">
<polygon fill="white" stroke="#bfbfbf" points="0,-88.5 0,-107.5 29,-107.5 29,-88.5 0,-88.5"/>
<text text-anchor="middle" x="14.5" y="-95.5" font-family="Helvetica,sans-Serif" font-size="10.00">A</text>
</a>
</g>
</g>
<!-- Node3&#45;&gt;Node2 -->
<g id="edge2" class="edge">
<title>Node3&#45;&gt;Node2</title>
<path fill="none" stroke="#9a32cd" stroke-dasharray="5,2" d="M39.09,-103.73C41.75,-104.23 44.42,-104.67 47,-105 186.79,-122.8 223.75,-125.72 364,-112 370.13,-111.4 376.49,-110.55 382.83,-109.55"/>
<polygon fill="#9a32cd" stroke="#9a32cd" points="39.71,-100.29 29.2,-101.62 38.25,-107.13 39.71,-100.29"/>
<text text-anchor="middle" x="158" y="-123" font-family="Helvetica,sans-Serif" font-size="10.00"> iter</text>
</g>
<!-- Node4 -->
<g id="node4" class="node">
<title>Node4</title>
<g id="a_node4"><a xlink:href="classFTensor_1_1Tensor3__Expr.html" target="_top" xlink:title=" ">
<polygon fill="white" stroke="black" points="85,-48.5 85,-89.5 231,-89.5 231,-48.5 85,-48.5"/>
<text text-anchor="start" x="93" y="-77.5" font-family="Helvetica,sans-Serif" font-size="10.00">FTensor::Tensor3_Expr</text>
<text text-anchor="start" x="93" y="-66.5" font-family="Helvetica,sans-Serif" font-size="10.00">&lt; A, T, Dim0, Dim1, Dim2,</text>
<text text-anchor="middle" x="158" y="-55.5" font-family="Helvetica,sans-Serif" font-size="10.00"> i, j, k &gt;</text>
</a>
</g>
</g>
<!-- Node3&#45;&gt;Node4 -->
<g id="edge4" class="edge">
<title>Node3&#45;&gt;Node4</title>
<path fill="none" stroke="#9a32cd" stroke-dasharray="5,2" d="M39.18,-93.15C51.88,-90.54 68.27,-87.18 84.77,-83.8"/>
<polygon fill="#9a32cd" stroke="#9a32cd" points="38.16,-89.78 29.07,-95.22 39.57,-96.64 38.16,-89.78"/>
<text text-anchor="middle" x="57" y="-93" font-family="Helvetica,sans-Serif" font-size="10.00"> iter</text>
</g>
<!-- Node4&#45;&gt;Node2 -->
<g id="edge3" class="edge">
<title>Node4&#45;&gt;Node2</title>
<path fill="none" stroke="orange" stroke-dasharray="5,2" d="M241.2,-76.76C286.21,-81.01 341.1,-86.19 382.57,-90.11"/>
<polygon fill="orange" stroke="orange" points="241.45,-73.27 231.17,-75.81 240.8,-80.24 241.45,-73.27"/>
<text text-anchor="start" x="250" y="-102" font-family="Helvetica,sans-Serif" font-size="10.00"> &lt; A, T, Dim03, Dim14,</text>
<text text-anchor="middle" x="306.5" y="-91" font-family="Helvetica,sans-Serif" font-size="10.00"> Dim2, i, j, k &gt;</text>
</g>
<!-- Node5 -->
<g id="node5" class="node">
<title>Node5</title>
<g id="a_node5"><a xlink:href="classFTensor_1_1Tensor3__Expr.html" target="_top" xlink:title=" ">
<polygon fill="white" stroke="black" points="382,-15.5 382,-56.5 510,-56.5 510,-15.5 382,-15.5"/>
<text text-anchor="start" x="390" y="-44.5" font-family="Helvetica,sans-Serif" font-size="10.00">FTensor::Tensor3_Expr</text>
<text text-anchor="start" x="390" y="-33.5" font-family="Helvetica,sans-Serif" font-size="10.00">&lt; B, U, Dim03, Dim14,</text>
<text text-anchor="middle" x="446" y="-22.5" font-family="Helvetica,sans-Serif" font-size="10.00"> Dim5, i, j, l &gt;</text>
</a>
</g>
</g>
<!-- Node4&#45;&gt;Node5 -->
<g id="edge7" class="edge">
<title>Node4&#45;&gt;Node5</title>
<path fill="none" stroke="orange" stroke-dasharray="5,2" d="M240.96,-52.18C243.67,-51.76 246.35,-51.36 249,-51 293.12,-44.92 343.19,-41.14 381.68,-38.9"/>
<polygon fill="orange" stroke="orange" points="240.39,-48.72 231.08,-53.79 241.51,-55.63 240.39,-48.72"/>
<text text-anchor="start" x="249" y="-65" font-family="Helvetica,sans-Serif" font-size="10.00"> &lt; B, U, Dim03, Dim14,</text>
<text text-anchor="middle" x="306.5" y="-54" font-family="Helvetica,sans-Serif" font-size="10.00"> Dim5, i, j, l &gt;</text>
</g>
<!-- Node5&#45;&gt;Node1 -->
<g id="edge5" class="edge">
<title>Node5&#45;&gt;Node1</title>
<path fill="none" stroke="#9a32cd" stroke-dasharray="5,2" d="M520.1,-46.94C537.24,-49.5 555.52,-52.24 572.72,-54.81"/>
<polygon fill="#9a32cd" stroke="#9a32cd" points="520.57,-43.47 510.16,-45.45 519.54,-50.39 520.57,-43.47"/>
<text text-anchor="middle" x="541.5" y="-55" font-family="Helvetica,sans-Serif" font-size="10.00"> iterB</text>
</g>
<!-- Node6 -->
<g id="node6" class="node">
<title>Node6</title>
<g id="a_node6"><a xlink:title=" ">
<polygon fill="white" stroke="#bfbfbf" points="143.5,-0.5 143.5,-19.5 172.5,-19.5 172.5,-0.5 143.5,-0.5"/>
<text text-anchor="middle" x="158" y="-7.5" font-family="Helvetica,sans-Serif" font-size="10.00">B</text>
</a>
</g>
</g>
<!-- Node6&#45;&gt;Node5 -->
<g id="edge6" class="edge">
<title>Node6&#45;&gt;Node5</title>
<path fill="none" stroke="#9a32cd" stroke-dasharray="5,2" d="M182.69,-7.87C221.04,-4.93 299,-1.04 364,-11 370.98,-12.07 378.19,-13.62 385.3,-15.43"/>
<polygon fill="#9a32cd" stroke="#9a32cd" points="182.22,-4.4 172.54,-8.7 182.79,-11.38 182.22,-4.4"/>
<text text-anchor="middle" x="306.5" y="-14" font-family="Helvetica,sans-Serif" font-size="10.00"> iter</text>
</g>
</g>
</svg>
