<?xml version="1.0" encoding="UTF-8" standalone="no"?>
<!DOCTYPE svg PUBLIC "-//W3C//DTD SVG 1.1//EN"
 "http://www.w3.org/Graphics/SVG/1.1/DTD/svg11.dtd">
<!-- Generated by graphviz version 2.43.0 (0)
 -->
<!-- Title: FTensor::Dg_plus_Dg_10&lt; A, B, T, U, Dim01, Dim2, i, j, k &gt; Pages: 1 -->
<svg width="681pt" height="124pt"
 viewBox="0.00 0.00 681.00 123.50" xmlns="http://www.w3.org/2000/svg" xmlns:xlink="http://www.w3.org/1999/xlink">
<g id="graph0" class="graph" transform="scale(1 1) rotate(0) translate(4 119.5)">
<title>FTensor::Dg_plus_Dg_10&lt; A, B, T, U, Dim01, Dim2, i, j, k &gt;</title>
<polygon fill="white" stroke="transparent" points="-4,4 -4,-119.5 677,-119.5 677,4 -4,4"/>
<!-- Node1 -->
<g id="node1" class="node">
<title>Node1</title>
<g id="a_node1"><a xlink:title=" ">
<polygon fill="#bfbfbf" stroke="black" points="542,-52.5 542,-93.5 673,-93.5 673,-52.5 542,-52.5"/>
<text text-anchor="start" x="550" y="-81.5" font-family="Helvetica,sans-Serif" font-size="10.00">FTensor::Dg_plus_Dg</text>
<text text-anchor="start" x="550" y="-70.5" font-family="Helvetica,sans-Serif" font-size="10.00">_10&lt; A, B, T, U, Dim01,</text>
<text text-anchor="middle" x="607.5" y="-59.5" font-family="Helvetica,sans-Serif" font-size="10.00"> Dim2, i, j, k &gt;</text>
</a>
</g>
</g>
<!-- Node2 -->
<g id="node2" class="node">
<title>Node2</title>
<g id="a_node2"><a xlink:title=" ">
<polygon fill="white" stroke="#bfbfbf" points="351,-85 351,-115 479,-115 479,-85 351,-85"/>
<text text-anchor="start" x="359" y="-103" font-family="Helvetica,sans-Serif" font-size="10.00">Dg_Expr&lt; A, T, Dim01,</text>
<text text-anchor="middle" x="415" y="-92" font-family="Helvetica,sans-Serif" font-size="10.00"> Dim2, i, j, k &gt;</text>
</a>
</g>
</g>
<!-- Node2&#45;&gt;Node1 -->
<g id="edge1" class="edge">
<title>Node2&#45;&gt;Node1</title>
<path fill="none" stroke="#9a32cd" stroke-dasharray="5,2" d="M489.24,-89.62C506.58,-87.16 524.95,-84.56 541.87,-82.16"/>
<polygon fill="#9a32cd" stroke="#9a32cd" points="488.58,-86.18 479.17,-91.05 489.56,-93.11 488.58,-86.18"/>
<text text-anchor="middle" x="510.5" y="-91" font-family="Helvetica,sans-Serif" font-size="10.00"> iterA</text>
</g>
<!-- Node3 -->
<g id="node3" class="node">
<title>Node3</title>
<g id="a_node3"><a xlink:href="classFTensor_1_1Dg__Expr.html" target="_top" xlink:title=" ">
<polygon fill="white" stroke="black" points="354.5,-24.5 354.5,-65.5 475.5,-65.5 475.5,-24.5 354.5,-24.5"/>
<text text-anchor="start" x="362.5" y="-53.5" font-family="Helvetica,sans-Serif" font-size="10.00">FTensor::Dg_Expr&lt; B,</text>
<text text-anchor="start" x="362.5" y="-42.5" font-family="Helvetica,sans-Serif" font-size="10.00"> U, Dim01, Dim2, j,</text>
<text text-anchor="middle" x="415" y="-31.5" font-family="Helvetica,sans-Serif" font-size="10.00"> i, k &gt;</text>
</a>
</g>
</g>
<!-- Node3&#45;&gt;Node1 -->
<g id="edge2" class="edge">
<title>Node3&#45;&gt;Node1</title>
<path fill="none" stroke="#9a32cd" stroke-dasharray="5,2" d="M485.75,-55.25C504.03,-57.94 523.66,-60.82 541.67,-63.47"/>
<polygon fill="#9a32cd" stroke="#9a32cd" points="486.16,-51.77 475.75,-53.78 485.14,-58.7 486.16,-51.77"/>
<text text-anchor="middle" x="510.5" y="-64" font-family="Helvetica,sans-Serif" font-size="10.00"> iterB</text>
</g>
<!-- Node4 -->
<g id="node4" class="node">
<title>Node4</title>
<g id="a_node4"><a xlink:title=" ">
<polygon fill="white" stroke="#bfbfbf" points="131,-60.5 131,-79.5 160,-79.5 160,-60.5 131,-60.5"/>
<text text-anchor="middle" x="145.5" y="-67.5" font-family="Helvetica,sans-Serif" font-size="10.00">B</text>
</a>
</g>
</g>
<!-- Node4&#45;&gt;Node3 -->
<g id="edge3" class="edge">
<title>Node4&#45;&gt;Node3</title>
<path fill="none" stroke="#9a32cd" stroke-dasharray="5,2" d="M170.24,-67.78C211.23,-63.95 296.47,-55.98 354.46,-50.56"/>
<polygon fill="#9a32cd" stroke="#9a32cd" points="169.76,-64.31 160.13,-68.73 170.42,-71.28 169.76,-64.31"/>
<text text-anchor="middle" x="278.5" y="-66" font-family="Helvetica,sans-Serif" font-size="10.00"> iter</text>
</g>
<!-- Node5 -->
<g id="node5" class="node">
<title>Node5</title>
<g id="a_node5"><a xlink:href="classFTensor_1_1Dg__Expr.html" target="_top" xlink:title=" ">
<polygon fill="white" stroke="black" points="85,-0.5 85,-41.5 206,-41.5 206,-0.5 85,-0.5"/>
<text text-anchor="start" x="93" y="-29.5" font-family="Helvetica,sans-Serif" font-size="10.00">FTensor::Dg_Expr&lt; A,</text>
<text text-anchor="start" x="93" y="-18.5" font-family="Helvetica,sans-Serif" font-size="10.00"> T, Dim01, Dim2, i,</text>
<text text-anchor="middle" x="145.5" y="-7.5" font-family="Helvetica,sans-Serif" font-size="10.00"> j, k &gt;</text>
</a>
</g>
</g>
<!-- Node5&#45;&gt;Node3 -->
<g id="edge4" class="edge">
<title>Node5&#45;&gt;Node3</title>
<path fill="none" stroke="orange" stroke-dasharray="5,2" d="M216.52,-19.52C251.62,-19.62 294.7,-21.05 333,-26 339.88,-26.89 347.02,-28.11 354.09,-29.51"/>
<polygon fill="orange" stroke="orange" points="216.37,-16.02 206.37,-19.52 216.38,-23.02 216.37,-16.02"/>
<text text-anchor="start" x="224" y="-40" font-family="Helvetica,sans-Serif" font-size="10.00"> &lt; B, U, Dim01, Dim2,</text>
<text text-anchor="middle" x="278.5" y="-29" font-family="Helvetica,sans-Serif" font-size="10.00"> j, i, k &gt;</text>
</g>
<!-- Node6 -->
<g id="node6" class="node">
<title>Node6</title>
<g id="a_node6"><a xlink:title=" ">
<polygon fill="white" stroke="#bfbfbf" points="0,-11.5 0,-30.5 29,-30.5 29,-11.5 0,-11.5"/>
<text text-anchor="middle" x="14.5" y="-18.5" font-family="Helvetica,sans-Serif" font-size="10.00">A</text>
</a>
</g>
</g>
<!-- Node6&#45;&gt;Node5 -->
<g id="edge5" class="edge">
<title>Node6&#45;&gt;Node5</title>
<path fill="none" stroke="#9a32cd" stroke-dasharray="5,2" d="M39.57,-21C52.42,-21 68.86,-21 84.89,-21"/>
<polygon fill="#9a32cd" stroke="#9a32cd" points="39.31,-17.5 29.31,-21 39.31,-24.5 39.31,-17.5"/>
<text text-anchor="middle" x="57" y="-24" font-family="Helvetica,sans-Serif" font-size="10.00"> iter</text>
</g>
</g>
</svg>
