<?xml version="1.0" encoding="UTF-8" standalone="no"?>
<!DOCTYPE svg PUBLIC "-//W3C//DTD SVG 1.1//EN"
 "http://www.w3.org/Graphics/SVG/1.1/DTD/svg11.dtd">
<!-- Generated by graphviz version 9.0.0 (20230911.1827)
 -->
<!-- Title: FTensor::Tensor2_minus_Tensor2_symmetric&lt; A, B, T, U, Dim, Dim, Dim, i, j, i, j &gt; Pages: 1 -->
<svg width="697pt" height="152pt"
 viewBox="0.00 0.00 696.80 151.88" xmlns="http://www.w3.org/2000/svg" xmlns:xlink="http://www.w3.org/1999/xlink">
<g id="graph0" class="graph" transform="scale(1 1) rotate(0) translate(4 147.88)">
<title>FTensor::Tensor2_minus_Tensor2_symmetric&lt; A, B, T, U, Dim, Dim, Dim, i, j, i, j &gt;</title>
<!-- Node1 -->
<g id="node1" class="node">
<title>Node1</title>
<g id="a_node1"><a xlink:title=" ">
<polygon fill="#999999" stroke="#666666" points="688.8,-103.12 564.05,-103.12 564.05,-50.12 688.8,-50.12 688.8,-103.12"/>
<text text-anchor="start" x="572.05" y="-89.62" font-family="Helvetica,sans-Serif" font-size="10.00">FTensor::Tensor2_minus</text>
<text text-anchor="start" x="572.05" y="-78.38" font-family="Helvetica,sans-Serif" font-size="10.00">_Tensor2_symmetric&lt; A,</text>
<text text-anchor="start" x="572.05" y="-67.12" font-family="Helvetica,sans-Serif" font-size="10.00"> B, T, U, Dim, Dim, Dim,</text>
<text text-anchor="middle" x="626.42" y="-55.88" font-family="Helvetica,sans-Serif" font-size="10.00"> i, j, i, j &gt;</text>
</a>
</g>
</g>
<!-- Node2 -->
<g id="node2" class="node">
<title>Node2</title>
<g id="a_node2"><a xlink:href="class_f_tensor_1_1_tensor2___expr.html" target="_top" xlink:title=" ">
<polygon fill="white" stroke="#666666" points="492.05,-116.88 374.8,-116.88 374.8,-86.38 492.05,-86.38 492.05,-116.88"/>
<text text-anchor="start" x="382.8" y="-103.38" font-family="Helvetica,sans-Serif" font-size="10.00">FTensor::Tensor2_Expr</text>
<text text-anchor="middle" x="433.42" y="-92.12" font-family="Helvetica,sans-Serif" font-size="10.00">&lt; A, T, Dim, Dim, i, j &gt;</text>
</a>
</g>
</g>
<!-- Node2&#45;&gt;Node1 -->
<g id="edge1" class="edge">
<title>Node2&#45;&gt;Node1</title>
<path fill="none" stroke="#9a32cd" stroke-dasharray="5,2" d="M503.82,-92.54C523.39,-89.98 544.55,-87.21 563.64,-84.71"/>
<polygon fill="#9a32cd" stroke="#9a32cd" points="503.47,-89.06 494.01,-93.83 504.38,-96 503.47,-89.06"/>
<text text-anchor="middle" x="534.42" y="-91.38" font-family="Helvetica,sans-Serif" font-size="10.00"> iterA</text>
</g>
<!-- Node3 -->
<g id="node3" class="node">
<title>Node3</title>
<g id="a_node3"><a xlink:title=" ">
<polygon fill="white" stroke="#666666" points="28.8,-111.25 0,-111.25 0,-92 28.8,-92 28.8,-111.25"/>
<text text-anchor="middle" x="14.4" y="-97.75" font-family="Helvetica,sans-Serif" font-size="10.00">A</text>
</a>
</g>
</g>
<!-- Node3&#45;&gt;Node2 -->
<g id="edge2" class="edge">
<title>Node3&#45;&gt;Node2</title>
<path fill="none" stroke="#9a32cd" stroke-dasharray="5,2" d="M39.5,-113.7C41.94,-114.75 44.4,-115.75 46.8,-116.62 61.68,-122.06 65.58,-123.61 81.3,-125.62 197.2,-140.49 228.07,-130.79 344.05,-116.62 353.94,-115.42 364.4,-113.88 374.54,-112.24"/>
<polygon fill="#9a32cd" stroke="#9a32cd" points="41.14,-110.6 30.6,-109.57 38.19,-116.95 41.14,-110.6"/>
<text text-anchor="middle" x="152.67" y="-134.38" font-family="Helvetica,sans-Serif" font-size="10.00"> iter</text>
</g>
<!-- Node4 -->
<g id="node4" class="node">
<title>Node4</title>
<g id="a_node4"><a xlink:href="class_f_tensor_1_1_tensor2___expr.html" target="_top" xlink:title=" ">
<polygon fill="white" stroke="#666666" points="215.42,-116.88 89.92,-116.88 89.92,-86.38 215.42,-86.38 215.42,-116.88"/>
<text text-anchor="start" x="97.92" y="-103.38" font-family="Helvetica,sans-Serif" font-size="10.00">FTensor::Tensor2_Expr</text>
<text text-anchor="middle" x="152.67" y="-92.12" font-family="Helvetica,sans-Serif" font-size="10.00">&lt; A, T, Dim0, Dim1, i, j &gt;</text>
</a>
</g>
</g>
<!-- Node3&#45;&gt;Node4 -->
<g id="edge4" class="edge">
<title>Node3&#45;&gt;Node4</title>
<path fill="none" stroke="#9a32cd" stroke-dasharray="5,2" d="M40.68,-101.62C54.51,-101.62 72.31,-101.62 89.59,-101.62"/>
<polygon fill="#9a32cd" stroke="#9a32cd" points="40.73,-98.13 30.73,-101.63 40.73,-105.13 40.73,-98.13"/>
<text text-anchor="middle" x="55.05" y="-103.38" font-family="Helvetica,sans-Serif" font-size="10.00"> iter</text>
</g>
<!-- Node7 -->
<g id="node7" class="node">
<title>Node7</title>
<g id="a_node7"><a xlink:href="class_f_tensor_1_1_tensor2__symmetric___expr.html" target="_top" xlink:title=" ">
<polygon fill="white" stroke="#666666" points="224.05,-67.88 81.3,-67.88 81.3,-37.38 224.05,-37.38 224.05,-67.88"/>
<text text-anchor="start" x="89.3" y="-54.38" font-family="Helvetica,sans-Serif" font-size="10.00">FTensor::Tensor2_symmetric</text>
<text text-anchor="middle" x="152.67" y="-43.12" font-family="Helvetica,sans-Serif" font-size="10.00">_Expr&lt; A, T, Dim, i, j &gt;</text>
</a>
</g>
</g>
<!-- Node3&#45;&gt;Node7 -->
<g id="edge8" class="edge">
<title>Node3&#45;&gt;Node7</title>
<path fill="none" stroke="#9a32cd" stroke-dasharray="5,2" d="M39.55,-89.48C41.98,-88.38 44.42,-87.33 46.8,-86.38 63.13,-79.82 81.27,-73.62 97.8,-68.36"/>
<polygon fill="#9a32cd" stroke="#9a32cd" points="38.17,-86.26 30.64,-93.71 41.18,-92.58 38.17,-86.26"/>
<text text-anchor="middle" x="55.05" y="-87.38" font-family="Helvetica,sans-Serif" font-size="10.00"> iter</text>
</g>
<!-- Node4&#45;&gt;Node2 -->
<g id="edge3" class="edge">
<title>Node4&#45;&gt;Node2</title>
<path fill="none" stroke="orange" stroke-dasharray="5,2" d="M227.32,-101.62C273.42,-101.62 331.95,-101.62 374.68,-101.62"/>
<polygon fill="orange" stroke="orange" points="227.4,-98.13 217.4,-101.63 227.4,-105.13 227.4,-98.13"/>
<text text-anchor="middle" x="293.05" y="-103.38" font-family="Helvetica,sans-Serif" font-size="10.00"> &lt; A, T, Dim, Dim, i, j &gt;</text>
</g>
<!-- Node5 -->
<g id="node5" class="node">
<title>Node5</title>
<g id="a_node5"><a xlink:href="class_f_tensor_1_1_tensor2__symmetric___expr.html" target="_top" xlink:title=" ">
<polygon fill="white" stroke="#666666" points="504.8,-67.88 362.05,-67.88 362.05,-37.38 504.8,-37.38 504.8,-67.88"/>
<text text-anchor="start" x="370.05" y="-54.38" font-family="Helvetica,sans-Serif" font-size="10.00">FTensor::Tensor2_symmetric</text>
<text text-anchor="middle" x="433.42" y="-43.12" font-family="Helvetica,sans-Serif" font-size="10.00">_Expr&lt; B, U, Dim, i, j &gt;</text>
</a>
</g>
</g>
<!-- Node5&#45;&gt;Node1 -->
<g id="edge5" class="edge">
<title>Node5&#45;&gt;Node1</title>
<path fill="none" stroke="#9a32cd" stroke-dasharray="5,2" d="M516.31,-60.79C526.34,-61.92 536.43,-63.13 546.05,-64.38 551.86,-65.13 557.9,-65.96 563.93,-66.84"/>
<polygon fill="#9a32cd" stroke="#9a32cd" points="516.88,-57.33 506.55,-59.7 516.11,-64.29 516.88,-57.33"/>
<text text-anchor="middle" x="534.42" y="-65.38" font-family="Helvetica,sans-Serif" font-size="10.00"> iterB</text>
</g>
<!-- Node6 -->
<g id="node6" class="node">
<title>Node6</title>
<g id="a_node6"><a xlink:href="class_b.html" target="_top" xlink:title=" ">
<polygon fill="white" stroke="#666666" points="167.07,-19.25 138.27,-19.25 138.27,0 167.07,0 167.07,-19.25"/>
<text text-anchor="middle" x="152.67" y="-5.75" font-family="Helvetica,sans-Serif" font-size="10.00">B</text>
</a>
</g>
</g>
<!-- Node6&#45;&gt;Node5 -->
<g id="edge6" class="edge">
<title>Node6&#45;&gt;Node5</title>
<path fill="none" stroke="#9a32cd" stroke-dasharray="5,2" d="M178.54,-13.04C214.92,-18.08 284.78,-27.94 344.05,-37.38 349.89,-38.3 355.95,-39.29 362.02,-40.31"/>
<polygon fill="#9a32cd" stroke="#9a32cd" points="179.43,-9.63 169.05,-11.73 178.47,-16.56 179.43,-9.63"/>
<text text-anchor="middle" x="293.05" y="-39.38" font-family="Helvetica,sans-Serif" font-size="10.00"> iter</text>
</g>
<!-- Node7&#45;&gt;Node5 -->
<g id="edge7" class="edge">
<title>Node7&#45;&gt;Node5</title>
<path fill="none" stroke="orange" stroke-dasharray="5,2" d="M235.72,-52.62C275.75,-52.62 323.41,-52.62 361.8,-52.62"/>
<polygon fill="orange" stroke="orange" points="235.89,-49.13 225.89,-52.63 235.89,-56.13 235.89,-49.13"/>
<text text-anchor="middle" x="293.05" y="-54.38" font-family="Helvetica,sans-Serif" font-size="10.00"> &lt; B, U, Dim, i, j &gt;</text>
</g>
</g>
</svg>
