<?xml version="1.0" encoding="UTF-8" standalone="no"?>
<!DOCTYPE svg PUBLIC "-//W3C//DTD SVG 1.1//EN"
 "http://www.w3.org/Graphics/SVG/1.1/DTD/svg11.dtd">
<!-- Generated by graphviz version 2.43.0 (0)
 -->
<!-- Title: FTensor::Tensor4_times_Tensor4_2345&lt; A, B, T, U, Dim0, Dim1, Dim2, Dim3, Dim4, Dim5, i, j, k, l, m, n &gt; Pages: 1 -->
<svg width="767pt" height="134pt"
 viewBox="0.00 0.00 767.00 134.00" xmlns="http://www.w3.org/2000/svg" xmlns:xlink="http://www.w3.org/1999/xlink">
<g id="graph0" class="graph" transform="scale(1 1) rotate(0) translate(4 130)">
<title>FTensor::Tensor4_times_Tensor4_2345&lt; A, B, T, U, Dim0, Dim1, Dim2, Dim3, Dim4, Dim5, i, j, k, l, m, n &gt;</title>
<polygon fill="white" stroke="transparent" points="-4,4 -4,-130 763,-130 763,4 -4,4"/>
<!-- Node1 -->
<g id="node1" class="node">
<title>Node1</title>
<g id="a_node1"><a xlink:title=" ">
<polygon fill="#bfbfbf" stroke="black" points="600,-49 600,-101 759,-101 759,-49 600,-49"/>
<text text-anchor="start" x="608" y="-89" font-family="Helvetica,sans-Serif" font-size="10.00">FTensor::Tensor4_times</text>
<text text-anchor="start" x="608" y="-78" font-family="Helvetica,sans-Serif" font-size="10.00">_Tensor4_2345&lt; A, B, T,</text>
<text text-anchor="start" x="608" y="-67" font-family="Helvetica,sans-Serif" font-size="10.00"> U, Dim0, Dim1, Dim2, Dim3,</text>
<text text-anchor="middle" x="679.5" y="-56" font-family="Helvetica,sans-Serif" font-size="10.00"> Dim4, Dim5, i, j, k, l, m, n &gt;</text>
</a>
</g>
</g>
<!-- Node2 -->
<g id="node2" class="node">
<title>Node2</title>
<g id="a_node2"><a xlink:title=" ">
<polygon fill="white" stroke="#bfbfbf" points="399,-84.5 399,-125.5 527,-125.5 527,-84.5 399,-84.5"/>
<text text-anchor="start" x="407" y="-113.5" font-family="Helvetica,sans-Serif" font-size="10.00">const Tensor4_Expr</text>
<text text-anchor="start" x="407" y="-102.5" font-family="Helvetica,sans-Serif" font-size="10.00">&lt; A, T, Dim0, Dim1,</text>
<text text-anchor="middle" x="463" y="-91.5" font-family="Helvetica,sans-Serif" font-size="10.00"> Dim2, Dim3, i, j, k, l &gt;</text>
</a>
</g>
</g>
<!-- Node2&#45;&gt;Node1 -->
<g id="edge1" class="edge">
<title>Node2&#45;&gt;Node1</title>
<path fill="none" stroke="#9a32cd" stroke-dasharray="5,2" d="M537.24,-94.76C557.39,-91.94 579.33,-88.87 599.77,-86.01"/>
<polygon fill="#9a32cd" stroke="#9a32cd" points="536.62,-91.31 527.2,-96.16 537.59,-98.24 536.62,-91.31"/>
<text text-anchor="middle" x="568.5" y="-94" font-family="Helvetica,sans-Serif" font-size="10.00"> iterA</text>
</g>
<!-- Node3 -->
<g id="node3" class="node">
<title>Node3</title>
<g id="a_node3"><a xlink:href="classFTensor_1_1Tensor4__Expr.html" target="_top" xlink:title=" ">
<polygon fill="white" stroke="black" points="389,-24.5 389,-65.5 537,-65.5 537,-24.5 389,-24.5"/>
<text text-anchor="start" x="397" y="-53.5" font-family="Helvetica,sans-Serif" font-size="10.00">FTensor::Tensor4_Expr</text>
<text text-anchor="start" x="397" y="-42.5" font-family="Helvetica,sans-Serif" font-size="10.00">&lt; B, U, Dim2, Dim3, Dim4,</text>
<text text-anchor="middle" x="463" y="-31.5" font-family="Helvetica,sans-Serif" font-size="10.00"> Dim5, k, l, m, n &gt;</text>
</a>
</g>
</g>
<!-- Node3&#45;&gt;Node1 -->
<g id="edge2" class="edge">
<title>Node3&#45;&gt;Node1</title>
<path fill="none" stroke="#9a32cd" stroke-dasharray="5,2" d="M547.26,-56.65C564.52,-59.06 582.65,-61.59 599.74,-63.99"/>
<polygon fill="#9a32cd" stroke="#9a32cd" points="547.61,-53.16 537.22,-55.24 546.64,-60.09 547.61,-53.16"/>
<text text-anchor="middle" x="568.5" y="-63" font-family="Helvetica,sans-Serif" font-size="10.00"> iterB</text>
</g>
<!-- Node4 -->
<g id="node4" class="node">
<title>Node4</title>
<g id="a_node4"><a xlink:title=" ">
<polygon fill="white" stroke="#bfbfbf" points="143.5,-60.5 143.5,-79.5 172.5,-79.5 172.5,-60.5 143.5,-60.5"/>
<text text-anchor="middle" x="158" y="-67.5" font-family="Helvetica,sans-Serif" font-size="10.00">B</text>
</a>
</g>
</g>
<!-- Node4&#45;&gt;Node3 -->
<g id="edge3" class="edge">
<title>Node4&#45;&gt;Node3</title>
<path fill="none" stroke="#9a32cd" stroke-dasharray="5,2" d="M182.8,-68.04C226.65,-64.42 321.84,-56.56 388.83,-51.04"/>
<polygon fill="#9a32cd" stroke="#9a32cd" points="182.48,-64.55 172.81,-68.86 183.06,-71.53 182.48,-64.55"/>
<text text-anchor="middle" x="310" y="-64" font-family="Helvetica,sans-Serif" font-size="10.00"> iter</text>
</g>
<!-- Node5 -->
<g id="node5" class="node">
<title>Node5</title>
<g id="a_node5"><a xlink:href="classFTensor_1_1Tensor4__Expr.html" target="_top" xlink:title=" ">
<polygon fill="white" stroke="black" points="85,-0.5 85,-41.5 231,-41.5 231,-0.5 85,-0.5"/>
<text text-anchor="start" x="93" y="-29.5" font-family="Helvetica,sans-Serif" font-size="10.00">FTensor::Tensor4_Expr</text>
<text text-anchor="start" x="93" y="-18.5" font-family="Helvetica,sans-Serif" font-size="10.00">&lt; A, T, Dim0, Dim1, Dim2,</text>
<text text-anchor="middle" x="158" y="-7.5" font-family="Helvetica,sans-Serif" font-size="10.00"> Dim3, i, j, k, l &gt;</text>
</a>
</g>
</g>
<!-- Node5&#45;&gt;Node3 -->
<g id="edge4" class="edge">
<title>Node5&#45;&gt;Node3</title>
<path fill="none" stroke="orange" stroke-dasharray="5,2" d="M241.42,-19.46C280.77,-19.62 328.44,-21.1 371,-26 376.77,-26.67 382.72,-27.52 388.68,-28.49"/>
<polygon fill="orange" stroke="orange" points="241.35,-15.96 231.35,-19.45 241.34,-22.96 241.35,-15.96"/>
<text text-anchor="start" x="249" y="-40" font-family="Helvetica,sans-Serif" font-size="10.00"> &lt; B, U, Dim2, Dim3,</text>
<text text-anchor="middle" x="310" y="-29" font-family="Helvetica,sans-Serif" font-size="10.00"> Dim4, Dim5, k, l, m, n &gt;</text>
</g>
<!-- Node6 -->
<g id="node6" class="node">
<title>Node6</title>
<g id="a_node6"><a xlink:title=" ">
<polygon fill="white" stroke="#bfbfbf" points="0,-11.5 0,-30.5 29,-30.5 29,-11.5 0,-11.5"/>
<text text-anchor="middle" x="14.5" y="-18.5" font-family="Helvetica,sans-Serif" font-size="10.00">A</text>
</a>
</g>
</g>
<!-- Node6&#45;&gt;Node5 -->
<g id="edge5" class="edge">
<title>Node6&#45;&gt;Node5</title>
<path fill="none" stroke="#9a32cd" stroke-dasharray="5,2" d="M39.18,-21C51.88,-21 68.27,-21 84.77,-21"/>
<polygon fill="#9a32cd" stroke="#9a32cd" points="39.07,-17.5 29.07,-21 39.07,-24.5 39.07,-17.5"/>
<text text-anchor="middle" x="57" y="-24" font-family="Helvetica,sans-Serif" font-size="10.00"> iter</text>
</g>
</g>
</svg>
