<?xml version="1.0" encoding="UTF-8" standalone="no"?>
<!DOCTYPE svg PUBLIC "-//W3C//DTD SVG 1.1//EN"
 "http://www.w3.org/Graphics/SVG/1.1/DTD/svg11.dtd">
<!-- Generated by graphviz version 2.43.0 (0)
 -->
<!-- Title: FTensor::ddTensor1&lt; T, Dim0, Dim12, i, j, k &gt; Pages: 1 -->
<svg width="676pt" height="202pt"
 viewBox="0.00 0.00 676.00 202.00" xmlns="http://www.w3.org/2000/svg" xmlns:xlink="http://www.w3.org/1999/xlink">
<g id="graph0" class="graph" transform="scale(1 1) rotate(0) translate(4 198)">
<title>FTensor::ddTensor1&lt; T, Dim0, Dim12, i, j, k &gt;</title>
<polygon fill="white" stroke="transparent" points="-4,4 -4,-198 672,-198 672,4 -4,4"/>
<!-- Node1 -->
<g id="node1" class="node">
<title>Node1</title>
<g id="a_node1"><a xlink:title=" ">
<polygon fill="#bfbfbf" stroke="black" points="552,-87.5 552,-128.5 668,-128.5 668,-87.5 552,-87.5"/>
<text text-anchor="start" x="560" y="-116.5" font-family="Helvetica,sans-Serif" font-size="10.00">FTensor::ddTensor1</text>
<text text-anchor="start" x="560" y="-105.5" font-family="Helvetica,sans-Serif" font-size="10.00">&lt; T, Dim0, Dim12, i,</text>
<text text-anchor="middle" x="610" y="-94.5" font-family="Helvetica,sans-Serif" font-size="10.00"> j, k &gt;</text>
</a>
</g>
</g>
<!-- Node2 -->
<g id="node2" class="node">
<title>Node2</title>
<g id="a_node2"><a xlink:href="classFTensor_1_1Tensor1.html" target="_top" xlink:title=" ">
<polygon fill="white" stroke="black" points="355,-142 355,-172 469,-172 469,-142 355,-142"/>
<text text-anchor="start" x="363" y="-160" font-family="Helvetica,sans-Serif" font-size="10.00">FTensor::Tensor1&lt; T</text>
<text text-anchor="middle" x="412" y="-149" font-family="Helvetica,sans-Serif" font-size="10.00"> *, Dim0 &gt;</text>
</a>
</g>
</g>
<!-- Node2&#45;&gt;Node1 -->
<g id="edge1" class="edge">
<title>Node2&#45;&gt;Node1</title>
<path fill="none" stroke="#9a32cd" stroke-dasharray="5,2" d="M479.09,-140.48C502.67,-134.58 529.03,-127.99 551.81,-122.3"/>
<polygon fill="#9a32cd" stroke="#9a32cd" points="478.02,-137.14 469.17,-142.96 479.72,-143.93 478.02,-137.14"/>
<text text-anchor="middle" x="518" y="-136" font-family="Helvetica,sans-Serif" font-size="10.00"> a</text>
</g>
<!-- Node3 -->
<g id="node3" class="node">
<title>Node3</title>
<g id="a_node3"><a xlink:title=" ">
<polygon fill="white" stroke="#bfbfbf" points="133,-174.5 133,-193.5 164,-193.5 164,-174.5 133,-174.5"/>
<text text-anchor="middle" x="148.5" y="-181.5" font-family="Helvetica,sans-Serif" font-size="10.00">T *</text>
</a>
</g>
</g>
<!-- Node3&#45;&gt;Node2 -->
<g id="edge2" class="edge">
<title>Node3&#45;&gt;Node2</title>
<path fill="none" stroke="#9a32cd" stroke-dasharray="5,2" d="M174.27,-181.44C215.41,-177.19 298.82,-168.58 354.82,-162.8"/>
<polygon fill="#9a32cd" stroke="#9a32cd" points="173.9,-177.96 164.31,-182.47 174.62,-184.93 173.9,-177.96"/>
<text text-anchor="middle" x="273.5" y="-179" font-family="Helvetica,sans-Serif" font-size="10.00"> data</text>
</g>
<!-- Node4 -->
<g id="node4" class="node">
<title>Node4</title>
<g id="a_node4"><a xlink:href="classFTensor_1_1Tensor1.html" target="_top" xlink:title=" ">
<polygon fill="white" stroke="black" points="90,-101 90,-131 207,-131 207,-101 90,-101"/>
<text text-anchor="start" x="98" y="-119" font-family="Helvetica,sans-Serif" font-size="10.00">FTensor::Tensor1&lt; T,</text>
<text text-anchor="middle" x="148.5" y="-108" font-family="Helvetica,sans-Serif" font-size="10.00"> Tensor_Dim &gt;</text>
</a>
</g>
</g>
<!-- Node4&#45;&gt;Node2 -->
<g id="edge3" class="edge">
<title>Node4&#45;&gt;Node2</title>
<path fill="none" stroke="orange" stroke-dasharray="5,2" d="M217.31,-126.79C219.91,-127.2 222.48,-127.6 225,-128 268.58,-134.86 317.93,-142.55 354.83,-148.29"/>
<polygon fill="orange" stroke="orange" points="217.63,-123.29 207.21,-125.19 216.54,-130.21 217.63,-123.29"/>
<text text-anchor="middle" x="273.5" y="-146" font-family="Helvetica,sans-Serif" font-size="10.00"> &lt; T *, Dim0 &gt;</text>
</g>
<!-- Node6 -->
<g id="node6" class="node">
<title>Node6</title>
<g id="a_node6"><a xlink:href="classFTensor_1_1Tensor1.html" target="_top" xlink:title=" ">
<polygon fill="white" stroke="black" points="340,-93 340,-123 484,-123 484,-93 340,-93"/>
<text text-anchor="start" x="348" y="-111" font-family="Helvetica,sans-Serif" font-size="10.00">FTensor::Tensor1&lt; double,</text>
<text text-anchor="middle" x="412" y="-100" font-family="Helvetica,sans-Serif" font-size="10.00"> Dim12 &gt;</text>
</a>
</g>
</g>
<!-- Node4&#45;&gt;Node6 -->
<g id="edge7" class="edge">
<title>Node4&#45;&gt;Node6</title>
<path fill="none" stroke="orange" stroke-dasharray="5,2" d="M217.56,-113.92C255.17,-112.77 301.84,-111.34 339.91,-110.17"/>
<polygon fill="orange" stroke="orange" points="217.1,-110.43 207.21,-114.23 217.31,-117.43 217.1,-110.43"/>
<text text-anchor="middle" x="273.5" y="-116" font-family="Helvetica,sans-Serif" font-size="10.00"> &lt; double, Dim12 &gt;</text>
</g>
<!-- Node8 -->
<g id="node8" class="node">
<title>Node8</title>
<g id="a_node8"><a xlink:href="classFTensor_1_1Tensor1.html" target="_top" xlink:title=" ">
<polygon fill="white" stroke="black" points="350,-44 350,-74 474,-74 474,-44 350,-44"/>
<text text-anchor="start" x="358" y="-62" font-family="Helvetica,sans-Serif" font-size="10.00">FTensor::Tensor1&lt; int,</text>
<text text-anchor="middle" x="412" y="-51" font-family="Helvetica,sans-Serif" font-size="10.00"> Dim12 &gt;</text>
</a>
</g>
</g>
<!-- Node4&#45;&gt;Node8 -->
<g id="edge10" class="edge">
<title>Node4&#45;&gt;Node8</title>
<path fill="none" stroke="orange" stroke-dasharray="5,2" d="M211.02,-98.45C215.74,-97.24 220.44,-96.07 225,-95 266.3,-85.28 313.21,-76.21 349.58,-69.61"/>
<polygon fill="orange" stroke="orange" points="210.13,-95.07 201.35,-100.99 211.91,-101.84 210.13,-95.07"/>
<text text-anchor="middle" x="273.5" y="-98" font-family="Helvetica,sans-Serif" font-size="10.00"> &lt; int, Dim12 &gt;</text>
</g>
<!-- Node5 -->
<g id="node5" class="node">
<title>Node5</title>
<g id="a_node5"><a xlink:title=" ">
<polygon fill="white" stroke="#bfbfbf" points="0,-106.5 0,-125.5 29,-125.5 29,-106.5 0,-106.5"/>
<text text-anchor="middle" x="14.5" y="-113.5" font-family="Helvetica,sans-Serif" font-size="10.00">T</text>
</a>
</g>
</g>
<!-- Node5&#45;&gt;Node4 -->
<g id="edge4" class="edge">
<title>Node5&#45;&gt;Node4</title>
<path fill="none" stroke="#9a32cd" stroke-dasharray="5,2" d="M39.4,-116C53.51,-116 72.03,-116 89.75,-116"/>
<polygon fill="#9a32cd" stroke="#9a32cd" points="39.13,-112.5 29.13,-116 39.13,-119.5 39.13,-112.5"/>
<text text-anchor="middle" x="59.5" y="-119" font-family="Helvetica,sans-Serif" font-size="10.00"> data</text>
</g>
<!-- Node6&#45;&gt;Node1 -->
<g id="edge5" class="edge">
<title>Node6&#45;&gt;Node1</title>
<path fill="none" stroke="#9a32cd" stroke-dasharray="5,2" d="M494.06,-108C513.41,-108 533.67,-108 551.69,-108"/>
<polygon fill="#9a32cd" stroke="#9a32cd" points="494.04,-104.5 484.04,-108 494.04,-111.5 494.04,-104.5"/>
<text text-anchor="middle" x="518" y="-111" font-family="Helvetica,sans-Serif" font-size="10.00"> d_xyz</text>
</g>
<!-- Node7 -->
<g id="node7" class="node">
<title>Node7</title>
<g id="a_node7"><a xlink:href="classdouble.html" target="_top" xlink:title=" ">
<polygon fill="white" stroke="black" points="123.5,-38.5 123.5,-57.5 173.5,-57.5 173.5,-38.5 123.5,-38.5"/>
<text text-anchor="middle" x="148.5" y="-45.5" font-family="Helvetica,sans-Serif" font-size="10.00">double</text>
</a>
</g>
</g>
<!-- Node7&#45;&gt;Node6 -->
<g id="edge6" class="edge">
<title>Node7&#45;&gt;Node6</title>
<path fill="none" stroke="#9a32cd" stroke-dasharray="5,2" d="M183.75,-42C220.38,-37.36 278.98,-35.2 322,-59 333.98,-65.63 328.99,-75.86 340,-84 344.6,-87.4 349.72,-90.34 355.04,-92.88"/>
<polygon fill="#9a32cd" stroke="#9a32cd" points="183,-38.57 173.59,-43.42 183.97,-45.5 183,-38.57"/>
<text text-anchor="middle" x="273.5" y="-62" font-family="Helvetica,sans-Serif" font-size="10.00"> data</text>
</g>
<!-- Node8&#45;&gt;Node1 -->
<g id="edge8" class="edge">
<title>Node8&#45;&gt;Node1</title>
<path fill="none" stroke="#9a32cd" stroke-dasharray="5,2" d="M483.02,-76.51C505.64,-82.16 530.43,-88.36 551.99,-93.75"/>
<polygon fill="#9a32cd" stroke="#9a32cd" points="483.69,-73.06 473.14,-74.03 481.99,-79.86 483.69,-73.06"/>
<text text-anchor="middle" x="518" y="-90" font-family="Helvetica,sans-Serif" font-size="10.00"> d_ijk</text>
</g>
<!-- Node9 -->
<g id="node9" class="node">
<title>Node9</title>
<g id="a_node9"><a xlink:title=" ">
<polygon fill="white" stroke="#bfbfbf" points="134,-0.5 134,-19.5 163,-19.5 163,-0.5 134,-0.5"/>
<text text-anchor="middle" x="148.5" y="-7.5" font-family="Helvetica,sans-Serif" font-size="10.00">int</text>
</a>
</g>
</g>
<!-- Node9&#45;&gt;Node8 -->
<g id="edge9" class="edge">
<title>Node9&#45;&gt;Node8</title>
<path fill="none" stroke="#9a32cd" stroke-dasharray="5,2" d="M173.43,-7.52C207.15,-4.73 270.28,-2.12 322,-15 345.58,-20.87 370.19,-33.62 387.53,-43.9"/>
<polygon fill="#9a32cd" stroke="#9a32cd" points="172.83,-4.06 163.19,-8.45 173.46,-11.03 172.83,-4.06"/>
<text text-anchor="middle" x="273.5" y="-18" font-family="Helvetica,sans-Serif" font-size="10.00"> data</text>
</g>
</g>
</svg>
