<?xml version="1.0" encoding="UTF-8" standalone="no"?>
<!DOCTYPE svg PUBLIC "-//W3C//DTD SVG 1.1//EN"
 "http://www.w3.org/Graphics/SVG/1.1/DTD/svg11.dtd">
<!-- Generated by graphviz version 2.43.0 (0)
 -->
<!-- Title: FTensor::Tensor1_Expr&lt; A, T, Dim, i &gt; Pages: 1 -->
<!--zoomable 676 -->
<svg id="main" version="1.1" xmlns="http://www.w3.org/2000/svg" xmlns:xlink="http://www.w3.org/1999/xlink" xml:space="preserve" onload="init(evt)">
<style type="text/css"><![CDATA[
.edge:hover path { stroke: red; }
.edge:hover polygon { stroke: red; fill: red; }
]]></style>
<script type="text/javascript"><![CDATA[
var edges = document.getElementsByTagName('g');
if (edges && edges.length) {
  for (var i=0;i<edges.length;i++) {
    if (edges[i].id.substr(0,4)=='edge') {
      edges[i].setAttribute('class','edge');
    }
  }
}
]]></script>
        <defs>
                <circle id="rim" cx="0" cy="0" r="7"/>
                <circle id="rim2" cx="0" cy="0" r="3.5"/>
                <g id="zoomPlus">
                        <use xlink:href="#rim" fill="#404040">
                                <set attributeName="fill" to="#808080" begin="zoomplus.mouseover" end="zoomplus.mouseout"/>
                        </use>
                        <path d="M-4,0h8M0,-4v8" fill="none" stroke="white" stroke-width="1.5" pointer-events="none"/>
                </g>
                <g id="zoomMin">
                        <use xlink:href="#rim" fill="#404040">
                                <set attributeName="fill" to="#808080" begin="zoomminus.mouseover" end="zoomminus.mouseout"/>
                        </use>
                        <path d="M-4,0h8" fill="none" stroke="white" stroke-width="1.5" pointer-events="none"/>
                </g>
                <g id="dirArrow">
                        <path fill="none" stroke="white" stroke-width="1.5" d="M0,-3.0v7 M-2.5,-0.5L0,-3.0L2.5,-0.5"/>
                </g>
               <g id="resetDef">
                       <use xlink:href="#rim2" fill="#404040">
                               <set attributeName="fill" to="#808080" begin="reset.mouseover" end="reset.mouseout"/>
                       </use>
               </g>
        </defs>

<script type="text/javascript">
var viewWidth = 389;
var viewHeight = 676;
var sectionId = 'dynsection-0';
</script>
<script xlink:href="svgpan.js"/>
<svg id="graph" class="graph">
<g id="viewport">
<title>FTensor::Tensor1_Expr&lt; A, T, Dim, i &gt;</title>
<polygon fill="white" stroke="transparent" points="-4,4 -4,-672 385,-672 385,4 -4,4"/>
<!-- Node1 -->
<g id="node1" class="node">
<title>Node1</title>
<g id="a_node1"><a xlink:title=" ">
<polygon fill="#bfbfbf" stroke="black" points="0,-318.5 0,-348.5 124,-348.5 124,-318.5 0,-318.5"/>
<text text-anchor="start" x="8" y="-336.5" font-family="Helvetica,sans-Serif" font-size="10.00">FTensor::Tensor1_Expr</text>
<text text-anchor="middle" x="62" y="-325.5" font-family="Helvetica,sans-Serif" font-size="10.00">&lt; A, T, Dim, i &gt;</text>
</a>
</g>
</g>
<!-- Node2 -->
<g id="node2" class="node">
<title>Node2</title>
<g id="a_node2"><a xlink:href="classFTensor_1_1Tensor1__Expr.html" target="_top" xlink:title=" ">
<polygon fill="white" stroke="black" points="257,-637.5 257,-667.5 381,-667.5 381,-637.5 257,-637.5"/>
<text text-anchor="start" x="265" y="-655.5" font-family="Helvetica,sans-Serif" font-size="10.00">FTensor::Tensor1_Expr</text>
<text text-anchor="middle" x="319" y="-644.5" font-family="Helvetica,sans-Serif" font-size="10.00">&lt; B, U, Dim1, j &gt;</text>
</a>
</g>
</g>
<!-- Node1&#45;&gt;Node2 -->
<g id="edge1" class="edge">
<title>Node1&#45;&gt;Node2</title>
<path fill="none" stroke="orange" stroke-dasharray="5,2" d="M66.64,-358.74C76.18,-421.28 103.8,-580.9 142,-616.5 172.46,-644.89 219.01,-653.46 256.59,-655.16"/>
<polygon fill="orange" stroke="orange" points="70.06,-357.95 65.12,-348.58 63.14,-358.98 70.06,-357.95"/>
<text text-anchor="middle" x="190.5" y="-656.5" font-family="Helvetica,sans-Serif" font-size="10.00"> &lt; B, U, Dim1, j &gt;</text>
</g>
<!-- Node3 -->
<g id="node3" class="node">
<title>Node3</title>
<g id="a_node3"><a xlink:href="classFTensor_1_1Tensor1__Expr.html" target="_top" xlink:title=" ">
<polygon fill="white" stroke="black" points="257,-588.5 257,-618.5 381,-618.5 381,-588.5 257,-588.5"/>
<text text-anchor="start" x="265" y="-606.5" font-family="Helvetica,sans-Serif" font-size="10.00">FTensor::Tensor1_Expr</text>
<text text-anchor="middle" x="319" y="-595.5" font-family="Helvetica,sans-Serif" font-size="10.00">&lt; A, T, Dim0, i &gt;</text>
</a>
</g>
</g>
<!-- Node1&#45;&gt;Node3 -->
<g id="edge2" class="edge">
<title>Node1&#45;&gt;Node3</title>
<path fill="none" stroke="orange" stroke-dasharray="5,2" d="M64.07,-358.77C67.5,-406.12 81.87,-508.28 142,-562.5 172.99,-590.44 219.28,-600.42 256.62,-603.55"/>
<polygon fill="orange" stroke="orange" points="67.56,-358.52 63.45,-348.75 60.58,-358.95 67.56,-358.52"/>
<text text-anchor="middle" x="190.5" y="-604.5" font-family="Helvetica,sans-Serif" font-size="10.00"> &lt; A, T, Dim0, i &gt;</text>
</g>
<!-- Node4 -->
<g id="node4" class="node">
<title>Node4</title>
<g id="a_node4"><a xlink:href="classFTensor_1_1Tensor1__Expr.html" target="_top" xlink:title=" ">
<polygon fill="white" stroke="black" points="257,-539.5 257,-569.5 381,-569.5 381,-539.5 257,-539.5"/>
<text text-anchor="start" x="265" y="-557.5" font-family="Helvetica,sans-Serif" font-size="10.00">FTensor::Tensor1_Expr</text>
<text text-anchor="middle" x="319" y="-546.5" font-family="Helvetica,sans-Serif" font-size="10.00">&lt; B, U, Dim23, l &gt;</text>
</a>
</g>
</g>
<!-- Node1&#45;&gt;Node4 -->
<g id="edge3" class="edge">
<title>Node1&#45;&gt;Node4</title>
<path fill="none" stroke="orange" stroke-dasharray="5,2" d="M67.3,-358.8C75.16,-397.04 95.52,-469.26 142,-508.5 173.97,-535.5 220,-546.87 256.96,-551.56"/>
<polygon fill="orange" stroke="orange" points="70.65,-357.69 65.33,-348.53 63.78,-359.01 70.65,-357.69"/>
<text text-anchor="middle" x="190.5" y="-550.5" font-family="Helvetica,sans-Serif" font-size="10.00"> &lt; B, U, Dim23, l &gt;</text>
</g>
<!-- Node5 -->
<g id="node5" class="node">
<title>Node5</title>
<g id="a_node5"><a xlink:href="classFTensor_1_1Tensor1__Expr.html" target="_top" xlink:title=" ">
<polygon fill="white" stroke="black" points="257,-490.5 257,-520.5 381,-520.5 381,-490.5 257,-490.5"/>
<text text-anchor="start" x="265" y="-508.5" font-family="Helvetica,sans-Serif" font-size="10.00">FTensor::Tensor1_Expr</text>
<text text-anchor="middle" x="319" y="-497.5" font-family="Helvetica,sans-Serif" font-size="10.00">&lt; B, U, Dim, i &gt;</text>
</a>
</g>
</g>
<!-- Node1&#45;&gt;Node5 -->
<g id="edge4" class="edge">
<title>Node1&#45;&gt;Node5</title>
<path fill="none" stroke="orange" stroke-dasharray="5,2" d="M72.7,-357.95C84.84,-385.45 108.24,-429.51 142,-454.5 175.37,-479.2 220.45,-491.97 256.64,-498.56"/>
<polygon fill="orange" stroke="orange" points="75.87,-356.47 68.74,-348.64 69.43,-359.21 75.87,-356.47"/>
<text text-anchor="middle" x="190.5" y="-496.5" font-family="Helvetica,sans-Serif" font-size="10.00"> &lt; B, U, Dim, i &gt;</text>
</g>
<!-- Node6 -->
<g id="node6" class="node">
<title>Node6</title>
<g id="a_node6"><a xlink:href="classFTensor_1_1Tensor1__Expr.html" target="_top" xlink:title=" ">
<polygon fill="white" stroke="black" points="257,-441.5 257,-471.5 381,-471.5 381,-441.5 257,-441.5"/>
<text text-anchor="start" x="265" y="-459.5" font-family="Helvetica,sans-Serif" font-size="10.00">FTensor::Tensor1_Expr</text>
<text text-anchor="middle" x="319" y="-448.5" font-family="Helvetica,sans-Serif" font-size="10.00">&lt; B, U, Dim0, i &gt;</text>
</a>
</g>
</g>
<!-- Node1&#45;&gt;Node6 -->
<g id="edge5" class="edge">
<title>Node1&#45;&gt;Node6</title>
<path fill="none" stroke="orange" stroke-dasharray="5,2" d="M83.19,-356.38C98.06,-371.95 119.52,-391.93 142,-404.5 177.6,-424.4 221.6,-437.4 256.7,-445.42"/>
<polygon fill="orange" stroke="orange" points="85.42,-353.64 76.05,-348.7 80.3,-358.41 85.42,-353.64"/>
<text text-anchor="middle" x="190.5" y="-442.5" font-family="Helvetica,sans-Serif" font-size="10.00"> &lt; B, U, Dim0, i &gt;</text>
</g>
<!-- Node7 -->
<g id="node7" class="node">
<title>Node7</title>
<g id="a_node7"><a xlink:href="classFTensor_1_1Tensor1__Expr.html" target="_top" xlink:title=" ">
<polygon fill="white" stroke="black" points="257,-392.5 257,-422.5 381,-422.5 381,-392.5 257,-392.5"/>
<text text-anchor="start" x="265" y="-410.5" font-family="Helvetica,sans-Serif" font-size="10.00">FTensor::Tensor1_Expr</text>
<text text-anchor="middle" x="319" y="-399.5" font-family="Helvetica,sans-Serif" font-size="10.00">&lt; B, U, Dim23, k &gt;</text>
</a>
</g>
</g>
<!-- Node1&#45;&gt;Node7 -->
<g id="edge6" class="edge">
<title>Node1&#45;&gt;Node7</title>
<path fill="none" stroke="orange" stroke-dasharray="5,2" d="M107.88,-352.32C118.94,-356.61 130.81,-360.96 142,-364.5 179.63,-376.42 222.67,-386.99 256.76,-394.66"/>
<polygon fill="orange" stroke="orange" points="109.01,-349 98.42,-348.57 106.43,-355.51 109.01,-349"/>
<text text-anchor="middle" x="190.5" y="-392.5" font-family="Helvetica,sans-Serif" font-size="10.00"> &lt; B, U, Dim23, k &gt;</text>
</g>
<!-- Node8 -->
<g id="node8" class="node">
<title>Node8</title>
<g id="a_node8"><a xlink:href="classFTensor_1_1Tensor1__Expr.html" target="_top" xlink:title=" ">
<polygon fill="white" stroke="black" points="257,-343.5 257,-373.5 381,-373.5 381,-343.5 257,-343.5"/>
<text text-anchor="start" x="265" y="-361.5" font-family="Helvetica,sans-Serif" font-size="10.00">FTensor::Tensor1_Expr</text>
<text text-anchor="middle" x="319" y="-350.5" font-family="Helvetica,sans-Serif" font-size="10.00">&lt; B, U, Dim3, l &gt;</text>
</a>
</g>
</g>
<!-- Node1&#45;&gt;Node8 -->
<g id="edge7" class="edge">
<title>Node1&#45;&gt;Node8</title>
<path fill="none" stroke="orange" stroke-dasharray="5,2" d="M134.21,-340.48C172.83,-344.27 220.06,-348.9 256.98,-352.52"/>
<polygon fill="orange" stroke="orange" points="134.37,-336.98 124.08,-339.49 133.69,-343.95 134.37,-336.98"/>
<text text-anchor="middle" x="190.5" y="-352.5" font-family="Helvetica,sans-Serif" font-size="10.00"> &lt; B, U, Dim3, l &gt;</text>
</g>
<!-- Node9 -->
<g id="node9" class="node">
<title>Node9</title>
<g id="a_node9"><a xlink:href="classFTensor_1_1Tensor1__Expr.html" target="_top" xlink:title=" ">
<polygon fill="white" stroke="black" points="257,-294.5 257,-324.5 381,-324.5 381,-294.5 257,-294.5"/>
<text text-anchor="start" x="265" y="-312.5" font-family="Helvetica,sans-Serif" font-size="10.00">FTensor::Tensor1_Expr</text>
<text text-anchor="middle" x="319" y="-301.5" font-family="Helvetica,sans-Serif" font-size="10.00">&lt; B, U, Dim, j &gt;</text>
</a>
</g>
</g>
<!-- Node1&#45;&gt;Node9 -->
<g id="edge8" class="edge">
<title>Node1&#45;&gt;Node9</title>
<path fill="none" stroke="orange" stroke-dasharray="5,2" d="M134.32,-326.24C136.91,-325.99 139.48,-325.74 142,-325.5 180.18,-321.83 223.03,-317.93 256.9,-314.9"/>
<polygon fill="orange" stroke="orange" points="133.85,-322.77 124.24,-327.24 134.53,-329.74 133.85,-322.77"/>
<text text-anchor="middle" x="190.5" y="-328.5" font-family="Helvetica,sans-Serif" font-size="10.00"> &lt; B, U, Dim, j &gt;</text>
</g>
<!-- Node10 -->
<g id="node10" class="node">
<title>Node10</title>
<g id="a_node10"><a xlink:href="classFTensor_1_1Tensor1__Expr.html" target="_top" xlink:title=" ">
<polygon fill="white" stroke="black" points="257,-245.5 257,-275.5 381,-275.5 381,-245.5 257,-245.5"/>
<text text-anchor="start" x="265" y="-263.5" font-family="Helvetica,sans-Serif" font-size="10.00">FTensor::Tensor1_Expr</text>
<text text-anchor="middle" x="319" y="-252.5" font-family="Helvetica,sans-Serif" font-size="10.00">&lt; B, U, Dim, k &gt;</text>
</a>
</g>
</g>
<!-- Node1&#45;&gt;Node10 -->
<g id="edge9" class="edge">
<title>Node1&#45;&gt;Node10</title>
<path fill="none" stroke="orange" stroke-dasharray="5,2" d="M106.19,-314.59C117.69,-309.95 130.21,-305.24 142,-301.5 179.53,-289.61 222.57,-279.52 256.68,-272.33"/>
<polygon fill="orange" stroke="orange" points="104.71,-311.42 96.79,-318.46 107.37,-317.89 104.71,-311.42"/>
<text text-anchor="middle" x="190.5" y="-304.5" font-family="Helvetica,sans-Serif" font-size="10.00"> &lt; B, U, Dim, k &gt;</text>
</g>
<!-- Node11 -->
<g id="node11" class="node">
<title>Node11</title>
<g id="a_node11"><a xlink:href="classFTensor_1_1Tensor1__Expr.html" target="_top" xlink:title=" ">
<polygon fill="white" stroke="black" points="257,-196.5 257,-226.5 381,-226.5 381,-196.5 257,-196.5"/>
<text text-anchor="start" x="265" y="-214.5" font-family="Helvetica,sans-Serif" font-size="10.00">FTensor::Tensor1_Expr</text>
<text text-anchor="middle" x="319" y="-203.5" font-family="Helvetica,sans-Serif" font-size="10.00">&lt; B, U, Dim01, i &gt;</text>
</a>
</g>
</g>
<!-- Node1&#45;&gt;Node11 -->
<g id="edge10" class="edge">
<title>Node1&#45;&gt;Node11</title>
<path fill="none" stroke="orange" stroke-dasharray="5,2" d="M82.82,-310.5C97.65,-294.63 119.22,-274.18 142,-261.5 177.53,-241.72 221.53,-229.22 256.64,-221.67"/>
<polygon fill="orange" stroke="orange" points="79.85,-308.57 75.71,-318.32 85.03,-313.28 79.85,-308.57"/>
<text text-anchor="middle" x="190.5" y="-264.5" font-family="Helvetica,sans-Serif" font-size="10.00"> &lt; B, U, Dim01, i &gt;</text>
</g>
<!-- Node12 -->
<g id="node12" class="node">
<title>Node12</title>
<g id="a_node12"><a xlink:href="classFTensor_1_1Tensor1__Expr.html" target="_top" xlink:title=" ">
<polygon fill="white" stroke="black" points="257,-147.5 257,-177.5 381,-177.5 381,-147.5 257,-147.5"/>
<text text-anchor="start" x="265" y="-165.5" font-family="Helvetica,sans-Serif" font-size="10.00">FTensor::Tensor1_Expr</text>
<text text-anchor="middle" x="319" y="-154.5" font-family="Helvetica,sans-Serif" font-size="10.00">&lt; B, U, Dim, l &gt;</text>
</a>
</g>
</g>
<!-- Node1&#45;&gt;Node12 -->
<g id="edge11" class="edge">
<title>Node1&#45;&gt;Node12</title>
<path fill="none" stroke="orange" stroke-dasharray="5,2" d="M72.6,-308.78C84.65,-281 107.96,-236.52 142,-211.5 175.35,-186.99 220.44,-174.73 256.62,-168.61"/>
<polygon fill="orange" stroke="orange" points="69.29,-307.62 68.67,-318.2 75.75,-310.32 69.29,-307.62"/>
<text text-anchor="middle" x="190.5" y="-214.5" font-family="Helvetica,sans-Serif" font-size="10.00"> &lt; B, U, Dim, l &gt;</text>
</g>
<!-- Node13 -->
<g id="node13" class="node">
<title>Node13</title>
<g id="a_node13"><a xlink:href="classFTensor_1_1Tensor1__Expr.html" target="_top" xlink:title=" ">
<polygon fill="white" stroke="black" points="257,-98.5 257,-128.5 381,-128.5 381,-98.5 257,-98.5"/>
<text text-anchor="start" x="265" y="-116.5" font-family="Helvetica,sans-Serif" font-size="10.00">FTensor::Tensor1_Expr</text>
<text text-anchor="middle" x="319" y="-105.5" font-family="Helvetica,sans-Serif" font-size="10.00">&lt; B, U, Dim2, k &gt;</text>
</a>
</g>
</g>
<!-- Node1&#45;&gt;Node13 -->
<g id="edge12" class="edge">
<title>Node1&#45;&gt;Node13</title>
<path fill="none" stroke="orange" stroke-dasharray="5,2" d="M67.04,-308.32C74.6,-269.66 94.64,-196.01 142,-156.5 174,-129.8 220.02,-119.22 256.98,-115.23"/>
<polygon fill="orange" stroke="orange" points="63.58,-307.78 65.22,-318.24 70.47,-309.04 63.58,-307.78"/>
<text text-anchor="middle" x="190.5" y="-159.5" font-family="Helvetica,sans-Serif" font-size="10.00"> &lt; B, U, Dim2, k &gt;</text>
</g>
<!-- Node14 -->
<g id="node14" class="node">
<title>Node14</title>
<g id="a_node14"><a xlink:href="classFTensor_1_1Tensor1__Expr.html" target="_top" xlink:title=" ">
<polygon fill="white" stroke="black" points="257,-49.5 257,-79.5 381,-79.5 381,-49.5 257,-49.5"/>
<text text-anchor="start" x="265" y="-67.5" font-family="Helvetica,sans-Serif" font-size="10.00">FTensor::Tensor1_Expr</text>
<text text-anchor="middle" x="319" y="-56.5" font-family="Helvetica,sans-Serif" font-size="10.00">&lt; B, U, Dim01, j &gt;</text>
</a>
</g>
</g>
<!-- Node1&#45;&gt;Node14 -->
<g id="edge13" class="edge">
<title>Node1&#45;&gt;Node14</title>
<path fill="none" stroke="orange" stroke-dasharray="5,2" d="M63.89,-308.27C67.02,-260.52 80.89,-156.86 142,-102.5 173.07,-74.87 219.36,-65.69 256.67,-63.25"/>
<polygon fill="orange" stroke="orange" points="60.39,-308.19 63.34,-318.36 67.38,-308.57 60.39,-308.19"/>
<text text-anchor="middle" x="190.5" y="-105.5" font-family="Helvetica,sans-Serif" font-size="10.00"> &lt; B, U, Dim01, j &gt;</text>
</g>
<!-- Node15 -->
<g id="node15" class="node">
<title>Node15</title>
<g id="a_node15"><a xlink:href="classFTensor_1_1Tensor1__Expr.html" target="_top" xlink:title=" ">
<polygon fill="white" stroke="black" points="257,-0.5 257,-30.5 381,-30.5 381,-0.5 257,-0.5"/>
<text text-anchor="start" x="265" y="-18.5" font-family="Helvetica,sans-Serif" font-size="10.00">FTensor::Tensor1_Expr</text>
<text text-anchor="middle" x="319" y="-7.5" font-family="Helvetica,sans-Serif" font-size="10.00">&lt; B, U, Dim01, k &gt;</text>
</a>
</g>
</g>
<!-- Node1&#45;&gt;Node15 -->
<g id="edge14" class="edge">
<title>Node1&#45;&gt;Node15</title>
<path fill="none" stroke="orange" stroke-dasharray="5,2" d="M66.61,-308.14C76.06,-245.33 103.5,-85.02 142,-49.5 172.54,-21.33 219.09,-13.29 256.64,-12.05"/>
<polygon fill="orange" stroke="orange" points="63.1,-307.95 65.1,-318.36 70.02,-308.97 63.1,-307.95"/>
<text text-anchor="middle" x="190.5" y="-52.5" font-family="Helvetica,sans-Serif" font-size="10.00"> &lt; B, U, Dim01, k &gt;</text>
</g>
</g>
</svg>
        <g id="navigator" transform="translate(0 0)" fill="#404254">
                <rect fill="#f2f5e9" fill-opacity="0.5" stroke="#606060" stroke-width=".5" x="0" y="0" width="60" height="60"/>
                <use id="zoomplus" xlink:href="#zoomPlus" x="17" y="9" onmousedown="handleZoom(evt,'in')"/>
                <use id="zoomminus" xlink:href="#zoomMin" x="42" y="9" onmousedown="handleZoom(evt,'out')"/>
                <use id="reset" xlink:href="#resetDef" x="30" y="36" onmousedown="handleReset()"/>
                <g id="arrowUp" xlink:href="#dirArrow" transform="translate(30 24)" onmousedown="handlePan(0,-1)">
                  <use xlink:href="#rim" fill="#404040">
                        <set attributeName="fill" to="#808080" begin="arrowUp.mouseover" end="arrowUp.mouseout"/>
                  </use>
                  <path fill="none" stroke="white" stroke-width="1.5" d="M0,-3.0v7 M-2.5,-0.5L0,-3.0L2.5,-0.5"/>
                </g>
                <g id="arrowRight" xlink:href="#dirArrow" transform="rotate(90) translate(36 -43)" onmousedown="handlePan(1,0)">
                  <use xlink:href="#rim" fill="#404040">
                        <set attributeName="fill" to="#808080" begin="arrowRight.mouseover" end="arrowRight.mouseout"/>
                  </use>
                  <path fill="none" stroke="white" stroke-width="1.5" d="M0,-3.0v7 M-2.5,-0.5L0,-3.0L2.5,-0.5"/>
                </g>
                <g id="arrowDown" xlink:href="#dirArrow" transform="rotate(180) translate(-30 -48)" onmousedown="handlePan(0,1)">
                  <use xlink:href="#rim" fill="#404040">
                        <set attributeName="fill" to="#808080" begin="arrowDown.mouseover" end="arrowDown.mouseout"/>
                  </use>
                  <path fill="none" stroke="white" stroke-width="1.5" d="M0,-3.0v7 M-2.5,-0.5L0,-3.0L2.5,-0.5"/>
                </g>
                <g id="arrowLeft" xlink:href="#dirArrow" transform="rotate(270) translate(-36 17)" onmousedown="handlePan(-1,0)">
                  <use xlink:href="#rim" fill="#404040">
                        <set attributeName="fill" to="#808080" begin="arrowLeft.mouseover" end="arrowLeft.mouseout"/>
                  </use>
                  <path fill="none" stroke="white" stroke-width="1.5" d="M0,-3.0v7 M-2.5,-0.5L0,-3.0L2.5,-0.5"/>
                </g>
        </g>
        <svg viewBox="0 0 15 15" width="100%" height="30px" preserveAspectRatio="xMaxYMin meet">
         <g id="arrow_out" transform="scale(0.3 0.3)">
          <a xlink:href="classFTensor_1_1Tensor1__Expr__inherit__graph_org.svg" target="_base">
           <rect id="button" ry="5" rx="5" y="6" x="6" height="38" width="38"
                fill="#f2f5e9" fill-opacity="0.5" stroke="#606060" stroke-width="1.0"/>
           <path id="arrow"
             d="M 11.500037,31.436501 C 11.940474,20.09759 22.043105,11.32322 32.158766,21.979434 L 37.068811,17.246167 C 37.068811,17.246167 37.088388,32 37.088388,32 L 22.160133,31.978069 C 22.160133,31.978069 26.997745,27.140456 26.997745,27.140456 C 18.528582,18.264221 13.291696,25.230495 11.500037,31.436501 z"
             style="fill:#404040;"/>
          </a>
         </g>
        </svg>
</svg>
