<?xml version="1.0" encoding="UTF-8" standalone="no"?>
<!DOCTYPE svg PUBLIC "-//W3C//DTD SVG 1.1//EN"
 "http://www.w3.org/Graphics/SVG/1.1/DTD/svg11.dtd">
<!-- Generated by graphviz version 2.43.0 (0)
 -->
<!-- Title: FTensor::Tensor3_antisymmetric_mod_Tensor1&lt; A, B, T, U, Dim, i, j, k, l &gt; Pages: 1 -->
<svg width="809pt" height="185pt"
 viewBox="0.00 0.00 809.00 185.00" xmlns="http://www.w3.org/2000/svg" xmlns:xlink="http://www.w3.org/1999/xlink">
<g id="graph0" class="graph" transform="scale(1 1) rotate(0) translate(4 181)">
<title>FTensor::Tensor3_antisymmetric_mod_Tensor1&lt; A, B, T, U, Dim, i, j, k, l &gt;</title>
<polygon fill="white" stroke="transparent" points="-4,4 -4,-181 805,-181 805,4 -4,4"/>
<!-- Node1 -->
<g id="node1" class="node">
<title>Node1</title>
<g id="a_node1"><a xlink:title=" ">
<polygon fill="#bfbfbf" stroke="black" points="628,-80.5 628,-121.5 801,-121.5 801,-80.5 628,-80.5"/>
<text text-anchor="start" x="636" y="-109.5" font-family="Helvetica,sans-Serif" font-size="10.00">FTensor::Tensor3_antisymmetric</text>
<text text-anchor="start" x="636" y="-98.5" font-family="Helvetica,sans-Serif" font-size="10.00">_mod_Tensor1&lt; A, B, T, U,</text>
<text text-anchor="middle" x="714.5" y="-87.5" font-family="Helvetica,sans-Serif" font-size="10.00"> Dim, i, j, k, l &gt;</text>
</a>
</g>
</g>
<!-- Node2 -->
<g id="node2" class="node">
<title>Node2</title>
<g id="a_node2"><a xlink:href="classFTensor_1_1Tensor1__Expr.html" target="_top" xlink:title=" ">
<polygon fill="white" stroke="black" points="416.5,-111 416.5,-141 540.5,-141 540.5,-111 416.5,-111"/>
<text text-anchor="start" x="424.5" y="-129" font-family="Helvetica,sans-Serif" font-size="10.00">FTensor::Tensor1_Expr</text>
<text text-anchor="middle" x="478.5" y="-118" font-family="Helvetica,sans-Serif" font-size="10.00">&lt; B, U, Dim, i &gt;</text>
</a>
</g>
</g>
<!-- Node2&#45;&gt;Node1 -->
<g id="edge1" class="edge">
<title>Node2&#45;&gt;Node1</title>
<path fill="none" stroke="#9a32cd" stroke-dasharray="5,2" d="M550.85,-118.38C575.06,-115.79 602.37,-112.87 627.59,-110.18"/>
<polygon fill="#9a32cd" stroke="#9a32cd" points="550.25,-114.92 540.68,-119.46 550.99,-121.88 550.25,-114.92"/>
<text text-anchor="middle" x="596.5" y="-117" font-family="Helvetica,sans-Serif" font-size="10.00"> iterB</text>
</g>
<!-- Node3 -->
<g id="node3" class="node">
<title>Node3</title>
<g id="a_node3"><a xlink:title=" ">
<polygon fill="white" stroke="#bfbfbf" points="157,-157.5 157,-176.5 186,-176.5 186,-157.5 157,-157.5"/>
<text text-anchor="middle" x="171.5" y="-164.5" font-family="Helvetica,sans-Serif" font-size="10.00">B</text>
</a>
</g>
</g>
<!-- Node3&#45;&gt;Node2 -->
<g id="edge2" class="edge">
<title>Node3&#45;&gt;Node2</title>
<path fill="none" stroke="#9a32cd" stroke-dasharray="5,2" d="M196.52,-163.77C243.5,-157.46 348.84,-143.29 416.35,-134.22"/>
<polygon fill="#9a32cd" stroke="#9a32cd" points="195.84,-160.33 186.4,-165.13 196.77,-167.27 195.84,-160.33"/>
<text text-anchor="middle" x="325" y="-155" font-family="Helvetica,sans-Serif" font-size="10.00"> iter</text>
</g>
<!-- Node4 -->
<g id="node4" class="node">
<title>Node4</title>
<g id="a_node4"><a xlink:href="classFTensor_1_1Tensor1__Expr.html" target="_top" xlink:title=" ">
<polygon fill="white" stroke="black" points="109.5,-108 109.5,-138 233.5,-138 233.5,-108 109.5,-108"/>
<text text-anchor="start" x="117.5" y="-126" font-family="Helvetica,sans-Serif" font-size="10.00">FTensor::Tensor1_Expr</text>
<text text-anchor="middle" x="171.5" y="-115" font-family="Helvetica,sans-Serif" font-size="10.00">&lt; A, T, Dim, i &gt;</text>
</a>
</g>
</g>
<!-- Node4&#45;&gt;Node2 -->
<g id="edge3" class="edge">
<title>Node4&#45;&gt;Node2</title>
<path fill="none" stroke="orange" stroke-dasharray="5,2" d="M244.06,-123.7C296.36,-124.22 366.53,-124.91 416.24,-125.4"/>
<polygon fill="orange" stroke="orange" points="243.89,-120.2 233.85,-123.6 243.82,-127.2 243.89,-120.2"/>
<text text-anchor="middle" x="325" y="-127" font-family="Helvetica,sans-Serif" font-size="10.00"> &lt; B, U, Dim, i &gt;</text>
</g>
<!-- Node5 -->
<g id="node5" class="node">
<title>Node5</title>
<g id="a_node5"><a xlink:title=" ">
<polygon fill="white" stroke="#bfbfbf" points="0,-68.5 0,-87.5 29,-87.5 29,-68.5 0,-68.5"/>
<text text-anchor="middle" x="14.5" y="-75.5" font-family="Helvetica,sans-Serif" font-size="10.00">A</text>
</a>
</g>
</g>
<!-- Node5&#45;&gt;Node4 -->
<g id="edge4" class="edge">
<title>Node5&#45;&gt;Node4</title>
<path fill="none" stroke="#9a32cd" stroke-dasharray="5,2" d="M38.42,-88.73C41.28,-89.91 44.19,-91.03 47,-92 66.96,-98.88 89.21,-104.94 109.27,-109.84"/>
<polygon fill="#9a32cd" stroke="#9a32cd" points="39.66,-85.45 29.09,-84.66 36.86,-91.87 39.66,-85.45"/>
<text text-anchor="middle" x="57" y="-101" font-family="Helvetica,sans-Serif" font-size="10.00"> iter</text>
</g>
<!-- Node6 -->
<g id="node6" class="node">
<title>Node6</title>
<g id="a_node6"><a xlink:href="classFTensor_1_1Tensor3__antisymmetric__Expr.html" target="_top" xlink:title=" ">
<polygon fill="white" stroke="black" points="392,-62 392,-92 565,-92 565,-62 392,-62"/>
<text text-anchor="start" x="400" y="-80" font-family="Helvetica,sans-Serif" font-size="10.00">FTensor::Tensor3_antisymmetric</text>
<text text-anchor="middle" x="478.5" y="-69" font-family="Helvetica,sans-Serif" font-size="10.00">_Expr&lt; A, T, Dim, Dim, j, k, l &gt;</text>
</a>
</g>
</g>
<!-- Node5&#45;&gt;Node6 -->
<g id="edge6" class="edge">
<title>Node5&#45;&gt;Node6</title>
<path fill="none" stroke="#9a32cd" stroke-dasharray="5,2" d="M39.4,-77.95C103.83,-77.81 283.6,-77.42 391.79,-77.19"/>
<polygon fill="#9a32cd" stroke="#9a32cd" points="39.07,-74.45 29.08,-77.97 39.08,-81.45 39.07,-74.45"/>
<text text-anchor="middle" x="171.5" y="-80" font-family="Helvetica,sans-Serif" font-size="10.00"> iter</text>
</g>
<!-- Node7 -->
<g id="node7" class="node">
<title>Node7</title>
<g id="a_node7"><a xlink:href="classFTensor_1_1Tensor3__antisymmetric__Expr.html" target="_top" xlink:title=" ">
<polygon fill="white" stroke="black" points="85,-0.5 85,-41.5 258,-41.5 258,-0.5 85,-0.5"/>
<text text-anchor="start" x="93" y="-29.5" font-family="Helvetica,sans-Serif" font-size="10.00">FTensor::Tensor3_antisymmetric</text>
<text text-anchor="start" x="93" y="-18.5" font-family="Helvetica,sans-Serif" font-size="10.00">_Expr&lt; A, T, Dim0, Dim12,</text>
<text text-anchor="middle" x="171.5" y="-7.5" font-family="Helvetica,sans-Serif" font-size="10.00"> i, j, k &gt;</text>
</a>
</g>
</g>
<!-- Node5&#45;&gt;Node7 -->
<g id="edge8" class="edge">
<title>Node5&#45;&gt;Node7</title>
<path fill="none" stroke="#9a32cd" stroke-dasharray="5,2" d="M32.94,-62.07C37.3,-58.7 42.13,-55.43 47,-53 58.8,-47.12 71.78,-42.25 84.76,-38.23"/>
<polygon fill="#9a32cd" stroke="#9a32cd" points="30.68,-59.39 25.25,-68.49 35.17,-64.77 30.68,-59.39"/>
<text text-anchor="middle" x="57" y="-56" font-family="Helvetica,sans-Serif" font-size="10.00"> iter</text>
</g>
<!-- Node6&#45;&gt;Node1 -->
<g id="edge5" class="edge">
<title>Node6&#45;&gt;Node1</title>
<path fill="none" stroke="#9a32cd" stroke-dasharray="5,2" d="M575.38,-85.55C587.05,-86.67 598.8,-87.84 610,-89 615.85,-89.61 621.88,-90.25 627.95,-90.92"/>
<polygon fill="#9a32cd" stroke="#9a32cd" points="575.46,-82.05 565.17,-84.58 574.79,-89.01 575.46,-82.05"/>
<text text-anchor="middle" x="596.5" y="-92" font-family="Helvetica,sans-Serif" font-size="10.00"> iterA</text>
</g>
<!-- Node7&#45;&gt;Node6 -->
<g id="edge7" class="edge">
<title>Node7&#45;&gt;Node6</title>
<path fill="none" stroke="orange" stroke-dasharray="5,2" d="M268.74,-26.65C302.31,-29.77 340.06,-34.59 374,-42 396.24,-46.86 420.37,-54.85 439.73,-61.97"/>
<polygon fill="orange" stroke="orange" points="268.74,-23.13 258.47,-25.73 268.12,-30.11 268.74,-23.13"/>
<text text-anchor="start" x="276" y="-56" font-family="Helvetica,sans-Serif" font-size="10.00"> &lt; A, T, Dim, Dim, j,</text>
<text text-anchor="middle" x="325" y="-45" font-family="Helvetica,sans-Serif" font-size="10.00"> k, l &gt;</text>
</g>
</g>
</svg>
