<?xml version="1.0" encoding="UTF-8" standalone="no"?>
<!DOCTYPE svg PUBLIC "-//W3C//DTD SVG 1.1//EN"
 "http://www.w3.org/Graphics/SVG/1.1/DTD/svg11.dtd">
<!-- Generated by graphviz version 2.43.0 (0)
 -->
<!-- Title: FTensor::Dg_times_Tensor2_02&lt; A, B, T, U, Dim01, Dim2, i, j, k &gt; Pages: 1 -->
<svg width="714pt" height="172pt"
 viewBox="0.00 0.00 714.00 172.00" xmlns="http://www.w3.org/2000/svg" xmlns:xlink="http://www.w3.org/1999/xlink">
<g id="graph0" class="graph" transform="scale(1 1) rotate(0) translate(4 168)">
<title>FTensor::Dg_times_Tensor2_02&lt; A, B, T, U, Dim01, Dim2, i, j, k &gt;</title>
<polygon fill="white" stroke="transparent" points="-4,4 -4,-168 710,-168 710,4 -4,4"/>
<!-- Node1 -->
<g id="node1" class="node">
<title>Node1</title>
<g id="a_node1"><a xlink:title=" ">
<polygon fill="#bfbfbf" stroke="black" points="557,-60.5 557,-101.5 706,-101.5 706,-60.5 557,-60.5"/>
<text text-anchor="start" x="565" y="-89.5" font-family="Helvetica,sans-Serif" font-size="10.00">FTensor::Dg_times_Tensor2</text>
<text text-anchor="start" x="565" y="-78.5" font-family="Helvetica,sans-Serif" font-size="10.00">_02&lt; A, B, T, U, Dim01,</text>
<text text-anchor="middle" x="631.5" y="-67.5" font-family="Helvetica,sans-Serif" font-size="10.00"> Dim2, i, j, k &gt;</text>
</a>
</g>
</g>
<!-- Node2 -->
<g id="node2" class="node">
<title>Node2</title>
<g id="a_node2"><a xlink:href="classFTensor_1_1Dg__Expr.html" target="_top" xlink:title=" ">
<polygon fill="white" stroke="black" points="371.5,-90.5 371.5,-131.5 492.5,-131.5 492.5,-90.5 371.5,-90.5"/>
<text text-anchor="start" x="379.5" y="-119.5" font-family="Helvetica,sans-Serif" font-size="10.00">FTensor::Dg_Expr&lt; A,</text>
<text text-anchor="start" x="379.5" y="-108.5" font-family="Helvetica,sans-Serif" font-size="10.00"> T, Dim01, Dim2, j,</text>
<text text-anchor="middle" x="432" y="-97.5" font-family="Helvetica,sans-Serif" font-size="10.00"> i, k &gt;</text>
</a>
</g>
</g>
<!-- Node2&#45;&gt;Node1 -->
<g id="edge1" class="edge">
<title>Node2&#45;&gt;Node1</title>
<path fill="none" stroke="#9a32cd" stroke-dasharray="5,2" d="M502.67,-100.42C520.19,-97.76 539.05,-94.89 556.77,-92.2"/>
<polygon fill="#9a32cd" stroke="#9a32cd" points="501.89,-97 492.52,-101.96 502.94,-103.92 501.89,-97"/>
<text text-anchor="middle" x="525.5" y="-101" font-family="Helvetica,sans-Serif" font-size="10.00"> iterA</text>
</g>
<!-- Node3 -->
<g id="node3" class="node">
<title>Node3</title>
<g id="a_node3"><a xlink:title=" ">
<polygon fill="white" stroke="#bfbfbf" points="0,-99.5 0,-118.5 29,-118.5 29,-99.5 0,-99.5"/>
<text text-anchor="middle" x="14.5" y="-106.5" font-family="Helvetica,sans-Serif" font-size="10.00">A</text>
</a>
</g>
</g>
<!-- Node3&#45;&gt;Node2 -->
<g id="edge2" class="edge">
<title>Node3&#45;&gt;Node2</title>
<path fill="none" stroke="#9a32cd" stroke-dasharray="5,2" d="M37.87,-121.65C51.11,-128.36 68.48,-135.86 85,-139 201.58,-161.18 234.94,-155.5 352,-136 358.67,-134.89 365.55,-133.34 372.35,-131.56"/>
<polygon fill="#9a32cd" stroke="#9a32cd" points="39.51,-118.56 29.03,-116.98 36.24,-124.74 39.51,-118.56"/>
<text text-anchor="middle" x="155" y="-156" font-family="Helvetica,sans-Serif" font-size="10.00"> iter</text>
</g>
<!-- Node4 -->
<g id="node4" class="node">
<title>Node4</title>
<g id="a_node4"><a xlink:href="classFTensor_1_1Dg__Expr.html" target="_top" xlink:title=" ">
<polygon fill="white" stroke="black" points="94.5,-88.5 94.5,-129.5 215.5,-129.5 215.5,-88.5 94.5,-88.5"/>
<text text-anchor="start" x="102.5" y="-117.5" font-family="Helvetica,sans-Serif" font-size="10.00">FTensor::Dg_Expr&lt; A,</text>
<text text-anchor="start" x="102.5" y="-106.5" font-family="Helvetica,sans-Serif" font-size="10.00"> T, Dim01, Dim2, i,</text>
<text text-anchor="middle" x="155" y="-95.5" font-family="Helvetica,sans-Serif" font-size="10.00"> j, k &gt;</text>
</a>
</g>
</g>
<!-- Node3&#45;&gt;Node4 -->
<g id="edge4" class="edge">
<title>Node3&#45;&gt;Node4</title>
<path fill="none" stroke="#9a32cd" stroke-dasharray="5,2" d="M39.09,-109C54.31,-109 74.84,-109 94.33,-109"/>
<polygon fill="#9a32cd" stroke="#9a32cd" points="39.03,-105.5 29.03,-109 39.03,-112.5 39.03,-105.5"/>
<text text-anchor="middle" x="57" y="-112" font-family="Helvetica,sans-Serif" font-size="10.00"> iter</text>
</g>
<!-- Node7 -->
<g id="node7" class="node">
<title>Node7</title>
<g id="a_node7"><a xlink:href="classFTensor_1_1Tensor2__Expr.html" target="_top" xlink:title=" ">
<polygon fill="white" stroke="black" points="85,-39 85,-69 225,-69 225,-39 85,-39"/>
<text text-anchor="start" x="93" y="-57" font-family="Helvetica,sans-Serif" font-size="10.00">FTensor::Tensor2_Expr</text>
<text text-anchor="middle" x="155" y="-46" font-family="Helvetica,sans-Serif" font-size="10.00">&lt; A, T, Dim0, Dim1, i, j &gt;</text>
</a>
</g>
</g>
<!-- Node3&#45;&gt;Node7 -->
<g id="edge8" class="edge">
<title>Node3&#45;&gt;Node7</title>
<path fill="none" stroke="#9a32cd" stroke-dasharray="5,2" d="M38.52,-97.81C41.36,-96.5 44.24,-95.2 47,-94 67.64,-85.02 91.01,-76.14 110.64,-69.04"/>
<polygon fill="#9a32cd" stroke="#9a32cd" points="36.75,-94.78 29.21,-102.22 39.74,-101.11 36.75,-94.78"/>
<text text-anchor="middle" x="57" y="-97" font-family="Helvetica,sans-Serif" font-size="10.00"> iter</text>
</g>
<!-- Node4&#45;&gt;Node2 -->
<g id="edge3" class="edge">
<title>Node4&#45;&gt;Node2</title>
<path fill="none" stroke="orange" stroke-dasharray="5,2" d="M225.93,-109.51C270.89,-109.84 328.68,-110.26 371.45,-110.57"/>
<polygon fill="orange" stroke="orange" points="225.7,-106.01 215.67,-109.43 225.65,-113.01 225.7,-106.01"/>
<text text-anchor="start" x="244" y="-124" font-family="Helvetica,sans-Serif" font-size="10.00"> &lt; A, T, Dim01, Dim2,</text>
<text text-anchor="middle" x="297.5" y="-113" font-family="Helvetica,sans-Serif" font-size="10.00"> j, i, k &gt;</text>
</g>
<!-- Node5 -->
<g id="node5" class="node">
<title>Node5</title>
<g id="a_node5"><a xlink:href="classFTensor_1_1Tensor2__Expr.html" target="_top" xlink:title=" ">
<polygon fill="white" stroke="black" points="370,-30.5 370,-71.5 494,-71.5 494,-30.5 370,-30.5"/>
<text text-anchor="start" x="378" y="-59.5" font-family="Helvetica,sans-Serif" font-size="10.00">FTensor::Tensor2_Expr</text>
<text text-anchor="start" x="378" y="-48.5" font-family="Helvetica,sans-Serif" font-size="10.00">&lt; B, U, Dim01, Dim2,</text>
<text text-anchor="middle" x="432" y="-37.5" font-family="Helvetica,sans-Serif" font-size="10.00"> j, k &gt;</text>
</a>
</g>
</g>
<!-- Node5&#45;&gt;Node1 -->
<g id="edge5" class="edge">
<title>Node5&#45;&gt;Node1</title>
<path fill="none" stroke="#9a32cd" stroke-dasharray="5,2" d="M504.07,-61.8C521.21,-64.4 539.55,-67.19 556.81,-69.81"/>
<polygon fill="#9a32cd" stroke="#9a32cd" points="504.55,-58.33 494.14,-60.29 503.5,-65.25 504.55,-58.33"/>
<text text-anchor="middle" x="525.5" y="-69" font-family="Helvetica,sans-Serif" font-size="10.00"> iterB</text>
</g>
<!-- Node6 -->
<g id="node6" class="node">
<title>Node6</title>
<g id="a_node6"><a xlink:title=" ">
<polygon fill="white" stroke="#bfbfbf" points="140.5,-0.5 140.5,-19.5 169.5,-19.5 169.5,-0.5 140.5,-0.5"/>
<text text-anchor="middle" x="155" y="-7.5" font-family="Helvetica,sans-Serif" font-size="10.00">B</text>
</a>
</g>
</g>
<!-- Node6&#45;&gt;Node5 -->
<g id="edge6" class="edge">
<title>Node6&#45;&gt;Node5</title>
<path fill="none" stroke="#9a32cd" stroke-dasharray="5,2" d="M180.11,-12.76C217.15,-17.1 290.27,-26.05 352,-36 357.79,-36.93 363.8,-37.96 369.82,-39.03"/>
<polygon fill="#9a32cd" stroke="#9a32cd" points="180.16,-9.24 169.82,-11.56 179.35,-16.19 180.16,-9.24"/>
<text text-anchor="middle" x="297.5" y="-39" font-family="Helvetica,sans-Serif" font-size="10.00"> iter</text>
</g>
<!-- Node7&#45;&gt;Node5 -->
<g id="edge7" class="edge">
<title>Node7&#45;&gt;Node5</title>
<path fill="none" stroke="orange" stroke-dasharray="5,2" d="M235.16,-53.14C278.03,-52.67 330.19,-52.1 369.9,-51.67"/>
<polygon fill="orange" stroke="orange" points="235,-49.64 225.04,-53.25 235.08,-56.64 235,-49.64"/>
<text text-anchor="start" x="243" y="-67" font-family="Helvetica,sans-Serif" font-size="10.00"> &lt; B, U, Dim01, Dim2,</text>
<text text-anchor="middle" x="297.5" y="-56" font-family="Helvetica,sans-Serif" font-size="10.00"> j, k &gt;</text>
</g>
</g>
</svg>
