<?xml version="1.0" encoding="UTF-8" standalone="no"?>
<!DOCTYPE svg PUBLIC "-//W3C//DTD SVG 1.1//EN"
 "http://www.w3.org/Graphics/SVG/1.1/DTD/svg11.dtd">
<!-- Generated by graphviz version 9.0.0 (20230911.1827)
 -->
<!-- Title: FTensor::Tensor2_carat_Tensor2&lt; A, B, T, U, Dim1, Dim, Dim1, Dim, j, i, j, k &gt; Pages: 1 -->
<!--zoomable 142 -->
<svg id="main" version="1.1" xmlns="http://www.w3.org/2000/svg" xmlns:xlink="http://www.w3.org/1999/xlink" xml:space="preserve" onload="init(evt)">
<style type="text/css"><![CDATA[
.edge:hover path { stroke: red; }
.edge:hover polygon { stroke: red; fill: red; }
]]></style>
<script type="text/javascript"><![CDATA[
var edges = document.getElementsByTagName('g');
if (edges && edges.length) {
  for (var i=0;i<edges.length;i++) {
    if (edges[i].id.substr(0,4)=='edge') {
      edges[i].setAttribute('class','edge');
    }
  }
}
]]></script>
        <defs>
                <circle id="rim" cx="0" cy="0" r="7"/>
                <circle id="rim2" cx="0" cy="0" r="3.5"/>
                <g id="zoomPlus">
                        <use xlink:href="#rim" fill="#404040">
                                <set attributeName="fill" to="#808080" begin="zoomplus.mouseover" end="zoomplus.mouseout"/>
                        </use>
                        <path d="M-4,0h8M0,-4v8" fill="none" stroke="white" stroke-width="1.5" pointer-events="none"/>
                </g>
                <g id="zoomMin">
                        <use xlink:href="#rim" fill="#404040">
                                <set attributeName="fill" to="#808080" begin="zoomminus.mouseover" end="zoomminus.mouseout"/>
                        </use>
                        <path d="M-4,0h8" fill="none" stroke="white" stroke-width="1.5" pointer-events="none"/>
                </g>
                <g id="dirArrow">
                        <path fill="none" stroke="white" stroke-width="1.5" d="M0,-3.0v7 M-2.5,-0.5L0,-3.0L2.5,-0.5"/>
                </g>
               <g id="resetDef">
                       <use xlink:href="#rim2" fill="#404040">
                               <set attributeName="fill" to="#808080" begin="reset.mouseover" end="reset.mouseout"/>
                       </use>
               </g>
        </defs>

<script type="text/javascript">
var viewWidth = 648;
var viewHeight = 142;
var sectionId = 'dynsection-0';
</script>
<script xlink:href="svgpan.js"/>
<svg id="graph" class="graph">
<g id="viewport">
<title>FTensor::Tensor2_carat_Tensor2&lt; A, B, T, U, Dim1, Dim, Dim1, Dim, j, i, j, k &gt;</title>
<!-- Node1 -->
<g id="node1" class="node">
<title>Node1</title>
<g id="a_node1"><a xlink:title=" ">
<polygon fill="#999999" stroke="#666666" points="640.05,-92.12 517.55,-92.12 517.55,-39.12 640.05,-39.12 640.05,-92.12"/>
<text text-anchor="start" x="525.55" y="-78.62" font-family="Helvetica,sans-Serif" font-size="10.00">FTensor::Tensor2_carat</text>
<text text-anchor="start" x="525.55" y="-67.38" font-family="Helvetica,sans-Serif" font-size="10.00">_Tensor2&lt; A, B, T, U,</text>
<text text-anchor="start" x="525.55" y="-56.12" font-family="Helvetica,sans-Serif" font-size="10.00"> Dim1, Dim, Dim1, Dim,</text>
<text text-anchor="middle" x="578.8" y="-44.88" font-family="Helvetica,sans-Serif" font-size="10.00"> j, i, j, k &gt;</text>
</a>
</g>
</g>
<!-- Node2 -->
<g id="node2" class="node">
<title>Node2</title>
<g id="a_node2"><a xlink:href="class_f_tensor_1_1_tensor2___expr.html" target="_top" xlink:title=" ">
<polygon fill="white" stroke="#666666" points="454.92,-105.88 334.67,-105.88 334.67,-75.38 454.92,-75.38 454.92,-105.88"/>
<text text-anchor="start" x="342.67" y="-92.38" font-family="Helvetica,sans-Serif" font-size="10.00">FTensor::Tensor2_Expr</text>
<text text-anchor="middle" x="394.8" y="-81.12" font-family="Helvetica,sans-Serif" font-size="10.00">&lt; A, T, Dim1, Dim, j, i &gt;</text>
</a>
</g>
</g>
<!-- Node2&#45;&gt;Node1 -->
<g id="edge1" class="edge">
<title>Node2&#45;&gt;Node1</title>
<path fill="none" stroke="#9a32cd" stroke-dasharray="5,2" d="M466.74,-80.88C483.39,-78.59 500.98,-76.18 517.14,-73.96"/>
<polygon fill="#9a32cd" stroke="#9a32cd" points="466.32,-77.4 456.89,-82.23 467.28,-84.34 466.32,-77.4"/>
<text text-anchor="middle" x="487.92" y="-80.38" font-family="Helvetica,sans-Serif" font-size="10.00"> iterA</text>
</g>
<!-- Node3 -->
<g id="node3" class="node">
<title>Node3</title>
<g id="a_node3"><a xlink:title=" ">
<polygon fill="white" stroke="#666666" points="28.8,-112.25 0,-112.25 0,-93 28.8,-93 28.8,-112.25"/>
<text text-anchor="middle" x="14.4" y="-98.75" font-family="Helvetica,sans-Serif" font-size="10.00">A</text>
</a>
</g>
</g>
<!-- Node3&#45;&gt;Node2 -->
<g id="edge2" class="edge">
<title>Node3&#45;&gt;Node2</title>
<path fill="none" stroke="#9a32cd" stroke-dasharray="5,2" d="M40.02,-109.48C42.3,-109.94 44.58,-110.33 46.8,-110.62 164.24,-126.02 195.9,-128.38 313.3,-112.62 323.5,-111.26 334.23,-108.96 344.41,-106.34"/>
<polygon fill="#9a32cd" stroke="#9a32cd" points="41.03,-106.13 30.49,-107.2 39.4,-112.93 41.03,-106.13"/>
<text text-anchor="middle" x="144.05" y="-124.38" font-family="Helvetica,sans-Serif" font-size="10.00"> iter</text>
</g>
<!-- Node4 -->
<g id="node4" class="node">
<title>Node4</title>
<g id="a_node4"><a xlink:href="class_f_tensor_1_1_tensor2___expr.html" target="_top" xlink:title=" ">
<polygon fill="white" stroke="#666666" points="206.8,-91.88 81.3,-91.88 81.3,-61.38 206.8,-61.38 206.8,-91.88"/>
<text text-anchor="start" x="89.3" y="-78.38" font-family="Helvetica,sans-Serif" font-size="10.00">FTensor::Tensor2_Expr</text>
<text text-anchor="middle" x="144.05" y="-67.12" font-family="Helvetica,sans-Serif" font-size="10.00">&lt; A, T, Dim0, Dim1, i, j &gt;</text>
</a>
</g>
</g>
<!-- Node3&#45;&gt;Node4 -->
<g id="edge4" class="edge">
<title>Node3&#45;&gt;Node4</title>
<path fill="none" stroke="#9a32cd" stroke-dasharray="5,2" d="M40.16,-97.58C51.92,-95.19 66.57,-92.2 81.09,-89.25"/>
<polygon fill="#9a32cd" stroke="#9a32cd" points="39.64,-94.11 30.54,-99.54 41.04,-100.97 39.64,-94.11"/>
<text text-anchor="middle" x="55.05" y="-97.38" font-family="Helvetica,sans-Serif" font-size="10.00"> iter</text>
</g>
<!-- Node4&#45;&gt;Node2 -->
<g id="edge3" class="edge">
<title>Node4&#45;&gt;Node2</title>
<path fill="none" stroke="orange" stroke-dasharray="5,2" d="M218.38,-80.75C255.26,-82.83 299.4,-85.31 334.18,-87.27"/>
<polygon fill="orange" stroke="orange" points="218.87,-77.27 208.69,-80.21 218.48,-84.26 218.87,-77.27"/>
<text text-anchor="start" x="226.67" y="-98.62" font-family="Helvetica,sans-Serif" font-size="10.00"> &lt; A, T, Dim1, Dim,</text>
<text text-anchor="middle" x="269.05" y="-87.38" font-family="Helvetica,sans-Serif" font-size="10.00"> j, i &gt;</text>
</g>
<!-- Node5 -->
<g id="node5" class="node">
<title>Node5</title>
<g id="a_node5"><a xlink:href="class_f_tensor_1_1_tensor2___expr.html" target="_top" xlink:title=" ">
<polygon fill="white" stroke="#666666" points="458.3,-56.88 331.3,-56.88 331.3,-26.38 458.3,-26.38 458.3,-56.88"/>
<text text-anchor="start" x="339.3" y="-43.38" font-family="Helvetica,sans-Serif" font-size="10.00">FTensor::Tensor2_Expr</text>
<text text-anchor="middle" x="394.8" y="-32.12" font-family="Helvetica,sans-Serif" font-size="10.00">&lt; B, U, Dim1, Dim, j, k &gt;</text>
</a>
</g>
</g>
<!-- Node4&#45;&gt;Node5 -->
<g id="edge7" class="edge">
<title>Node4&#45;&gt;Node5</title>
<path fill="none" stroke="orange" stroke-dasharray="5,2" d="M205.63,-58.17C212.06,-56.62 218.54,-55.23 224.8,-54.12 259.57,-48 298.88,-44.87 330.83,-43.27"/>
<polygon fill="orange" stroke="orange" points="205.19,-54.67 196.36,-60.53 206.91,-61.46 205.19,-54.67"/>
<text text-anchor="start" x="224.8" y="-67.62" font-family="Helvetica,sans-Serif" font-size="10.00"> &lt; B, U, Dim1, Dim,</text>
<text text-anchor="middle" x="269.05" y="-56.38" font-family="Helvetica,sans-Serif" font-size="10.00"> j, k &gt;</text>
</g>
<!-- Node5&#45;&gt;Node1 -->
<g id="edge5" class="edge">
<title>Node5&#45;&gt;Node1</title>
<path fill="none" stroke="#9a32cd" stroke-dasharray="5,2" d="M469.86,-49.62C479.85,-50.82 489.96,-52.08 499.55,-53.38 505.27,-54.15 511.23,-54.99 517.18,-55.87"/>
<polygon fill="#9a32cd" stroke="#9a32cd" points="470.52,-46.18 460.18,-48.49 469.7,-53.13 470.52,-46.18"/>
<text text-anchor="middle" x="487.92" y="-55.38" font-family="Helvetica,sans-Serif" font-size="10.00"> iterB</text>
</g>
<!-- Node6 -->
<g id="node6" class="node">
<title>Node6</title>
<g id="a_node6"><a xlink:href="class_b.html" target="_top" xlink:title=" ">
<polygon fill="white" stroke="#666666" points="158.45,-19.25 129.65,-19.25 129.65,0 158.45,0 158.45,-19.25"/>
<text text-anchor="middle" x="144.05" y="-5.75" font-family="Helvetica,sans-Serif" font-size="10.00">B</text>
</a>
</g>
</g>
<!-- Node6&#45;&gt;Node5 -->
<g id="edge6" class="edge">
<title>Node6&#45;&gt;Node5</title>
<path fill="none" stroke="#9a32cd" stroke-dasharray="5,2" d="M170.02,-6.93C203.11,-3.99 263.17,-0.87 313.3,-10.38 329.65,-13.47 346.96,-19.76 361.31,-25.89"/>
<polygon fill="#9a32cd" stroke="#9a32cd" points="169.86,-3.43 160.24,-7.87 170.53,-10.39 169.86,-3.43"/>
<text text-anchor="middle" x="269.05" y="-12.38" font-family="Helvetica,sans-Serif" font-size="10.00"> iter</text>
</g>
</g>
</svg>
        <g id="navigator" transform="translate(0 0)" fill="#404254">
                <rect fill="#f2f5e9" fill-opacity="0.5" stroke="#606060" stroke-width=".5" x="0" y="0" width="60" height="60"/>
                <use id="zoomplus" xlink:href="#zoomPlus" x="17" y="9" onmousedown="handleZoom(evt,'in')"/>
                <use id="zoomminus" xlink:href="#zoomMin" x="42" y="9" onmousedown="handleZoom(evt,'out')"/>
                <use id="reset" xlink:href="#resetDef" x="30" y="36" onmousedown="handleReset()"/>
                <g id="arrowUp" xlink:href="#dirArrow" transform="translate(30 24)" onmousedown="handlePan(0,-1)">
                  <use xlink:href="#rim" fill="#404040">
                        <set attributeName="fill" to="#808080" begin="arrowUp.mouseover" end="arrowUp.mouseout"/>
                  </use>
                  <path fill="none" stroke="white" stroke-width="1.5" d="M0,-3.0v7 M-2.5,-0.5L0,-3.0L2.5,-0.5"/>
                </g>
                <g id="arrowRight" xlink:href="#dirArrow" transform="rotate(90) translate(36 -43)" onmousedown="handlePan(1,0)">
                  <use xlink:href="#rim" fill="#404040">
                        <set attributeName="fill" to="#808080" begin="arrowRight.mouseover" end="arrowRight.mouseout"/>
                  </use>
                  <path fill="none" stroke="white" stroke-width="1.5" d="M0,-3.0v7 M-2.5,-0.5L0,-3.0L2.5,-0.5"/>
                </g>
                <g id="arrowDown" xlink:href="#dirArrow" transform="rotate(180) translate(-30 -48)" onmousedown="handlePan(0,1)">
                  <use xlink:href="#rim" fill="#404040">
                        <set attributeName="fill" to="#808080" begin="arrowDown.mouseover" end="arrowDown.mouseout"/>
                  </use>
                  <path fill="none" stroke="white" stroke-width="1.5" d="M0,-3.0v7 M-2.5,-0.5L0,-3.0L2.5,-0.5"/>
                </g>
                <g id="arrowLeft" xlink:href="#dirArrow" transform="rotate(270) translate(-36 17)" onmousedown="handlePan(-1,0)">
                  <use xlink:href="#rim" fill="#404040">
                        <set attributeName="fill" to="#808080" begin="arrowLeft.mouseover" end="arrowLeft.mouseout"/>
                  </use>
                  <path fill="none" stroke="white" stroke-width="1.5" d="M0,-3.0v7 M-2.5,-0.5L0,-3.0L2.5,-0.5"/>
                </g>
        </g>
        <svg viewBox="0 0 15 15" width="100%" height="30px" preserveAspectRatio="xMaxYMin meet">
         <g id="arrow_out" transform="scale(0.3 0.3)">
          <a xlink:href="class_f_tensor_1_1_tensor2__carat___tensor2_3_01_a_00_01_b_00_01_t_00_01_u_00_01_dim1_00_01_dim_dab589020e620ede0f8e034b930c3dc3_org.svg" target="_base">
           <rect id="button" ry="5" rx="5" y="6" x="6" height="38" width="38"
                fill="#f2f5e9" fill-opacity="0.5" stroke="#606060" stroke-width="1.0"/>
           <path id="arrow"
             d="M 11.500037,31.436501 C 11.940474,20.09759 22.043105,11.32322 32.158766,21.979434 L 37.068811,17.246167 C 37.068811,17.246167 37.088388,32 37.088388,32 L 22.160133,31.978069 C 22.160133,31.978069 26.997745,27.140456 26.997745,27.140456 C 18.528582,18.264221 13.291696,25.230495 11.500037,31.436501 z"
             style="fill:#404040;"/>
          </a>
         </g>
        </svg>
</svg>
