<?xml version="1.0" encoding="UTF-8" standalone="no"?>
<!DOCTYPE svg PUBLIC "-//W3C//DTD SVG 1.1//EN"
 "http://www.w3.org/Graphics/SVG/1.1/DTD/svg11.dtd">
<!-- Generated by graphviz version 2.43.0 (0)
 -->
<!-- Title: FTensor::Tensor2_symmetric_times_Tensor2_symmetric_01&lt; A, B, T, U, Dim, i, j, k &gt; Pages: 1 -->
<svg width="754pt" height="116pt"
 viewBox="0.00 0.00 754.00 116.00" xmlns="http://www.w3.org/2000/svg" xmlns:xlink="http://www.w3.org/1999/xlink">
<g id="graph0" class="graph" transform="scale(1 1) rotate(0) translate(4 112)">
<title>FTensor::Tensor2_symmetric_times_Tensor2_symmetric_01&lt; A, B, T, U, Dim, i, j, k &gt;</title>
<polygon fill="white" stroke="transparent" points="-4,4 -4,-112 750,-112 750,4 -4,4"/>
<!-- Node1 -->
<g id="node1" class="node">
<title>Node1</title>
<g id="a_node1"><a xlink:title=" ">
<polygon fill="#bfbfbf" stroke="black" points="588,-40.5 588,-81.5 746,-81.5 746,-40.5 588,-40.5"/>
<text text-anchor="start" x="596" y="-69.5" font-family="Helvetica,sans-Serif" font-size="10.00">FTensor::Tensor2_symmetric</text>
<text text-anchor="start" x="596" y="-58.5" font-family="Helvetica,sans-Serif" font-size="10.00">_times_Tensor2_symmetric</text>
<text text-anchor="middle" x="667" y="-47.5" font-family="Helvetica,sans-Serif" font-size="10.00">_01&lt; A, B, T, U, Dim, i, j, k &gt;</text>
</a>
</g>
</g>
<!-- Node2 -->
<g id="node2" class="node">
<title>Node2</title>
<g id="a_node2"><a xlink:href="classFTensor_1_1Tensor2__symmetric__Expr.html" target="_top" xlink:title=" ">
<polygon fill="white" stroke="black" points="370,-71 370,-101 525,-101 525,-71 370,-71"/>
<text text-anchor="start" x="378" y="-89" font-family="Helvetica,sans-Serif" font-size="10.00">FTensor::Tensor2_symmetric</text>
<text text-anchor="middle" x="447.5" y="-78" font-family="Helvetica,sans-Serif" font-size="10.00">_Expr&lt; A, T, Dim, j, i &gt;</text>
</a>
</g>
</g>
<!-- Node2&#45;&gt;Node1 -->
<g id="edge1" class="edge">
<title>Node2&#45;&gt;Node1</title>
<path fill="none" stroke="#9a32cd" stroke-dasharray="5,2" d="M535.29,-76.02C552.64,-74.03 570.77,-71.95 587.81,-69.99"/>
<polygon fill="#9a32cd" stroke="#9a32cd" points="534.72,-72.57 525.18,-77.19 535.52,-79.52 534.72,-72.57"/>
<text text-anchor="middle" x="556.5" y="-77" font-family="Helvetica,sans-Serif" font-size="10.00"> iterA</text>
</g>
<!-- Node3 -->
<g id="node3" class="node">
<title>Node3</title>
<g id="a_node3"><a xlink:title=" ">
<polygon fill="white" stroke="#bfbfbf" points="0,-70.5 0,-89.5 29,-89.5 29,-70.5 0,-70.5"/>
<text text-anchor="middle" x="14.5" y="-77.5" font-family="Helvetica,sans-Serif" font-size="10.00">A</text>
</a>
</g>
</g>
<!-- Node3&#45;&gt;Node2 -->
<g id="edge2" class="edge">
<title>Node3&#45;&gt;Node2</title>
<path fill="none" stroke="#9a32cd" stroke-dasharray="5,2" d="M39.02,-87.49C41.69,-88.11 44.39,-88.63 47,-89 181.25,-107.8 216.46,-91.15 352,-89 357.83,-88.91 363.85,-88.78 369.92,-88.64"/>
<polygon fill="#9a32cd" stroke="#9a32cd" points="39.69,-84.04 29.12,-84.79 37.85,-90.79 39.69,-84.04"/>
<text text-anchor="middle" x="162.5" y="-100" font-family="Helvetica,sans-Serif" font-size="10.00"> iter</text>
</g>
<!-- Node4 -->
<g id="node4" class="node">
<title>Node4</title>
<g id="a_node4"><a xlink:href="classFTensor_1_1Tensor2__symmetric__Expr.html" target="_top" xlink:title=" ">
<polygon fill="white" stroke="black" points="85,-39 85,-69 240,-69 240,-39 85,-39"/>
<text text-anchor="start" x="93" y="-57" font-family="Helvetica,sans-Serif" font-size="10.00">FTensor::Tensor2_symmetric</text>
<text text-anchor="middle" x="162.5" y="-46" font-family="Helvetica,sans-Serif" font-size="10.00">_Expr&lt; A, T, Dim, i, j &gt;</text>
</a>
</g>
</g>
<!-- Node3&#45;&gt;Node4 -->
<g id="edge4" class="edge">
<title>Node3&#45;&gt;Node4</title>
<path fill="none" stroke="#9a32cd" stroke-dasharray="5,2" d="M39.33,-75.76C52,-73.5 68.37,-70.58 84.98,-67.63"/>
<polygon fill="#9a32cd" stroke="#9a32cd" points="38.47,-72.35 29.24,-77.55 39.69,-79.25 38.47,-72.35"/>
<text text-anchor="middle" x="57" y="-77" font-family="Helvetica,sans-Serif" font-size="10.00"> iter</text>
</g>
<!-- Node4&#45;&gt;Node2 -->
<g id="edge3" class="edge">
<title>Node4&#45;&gt;Node2</title>
<path fill="none" stroke="orange" stroke-dasharray="5,2" d="M250.16,-63.8C288.37,-68.12 332.88,-73.15 369.85,-77.33"/>
<polygon fill="orange" stroke="orange" points="250.41,-60.31 240.08,-62.66 249.63,-67.26 250.41,-60.31"/>
<text text-anchor="middle" x="305" y="-77" font-family="Helvetica,sans-Serif" font-size="10.00"> &lt; A, T, Dim, j, i &gt;</text>
</g>
<!-- Node5 -->
<g id="node5" class="node">
<title>Node5</title>
<g id="a_node5"><a xlink:href="classFTensor_1_1Tensor2__symmetric__Expr.html" target="_top" xlink:title=" ">
<polygon fill="white" stroke="black" points="370,-22 370,-52 525,-52 525,-22 370,-22"/>
<text text-anchor="start" x="378" y="-40" font-family="Helvetica,sans-Serif" font-size="10.00">FTensor::Tensor2_symmetric</text>
<text text-anchor="middle" x="447.5" y="-29" font-family="Helvetica,sans-Serif" font-size="10.00">_Expr&lt; B, U, Dim, k, j &gt;</text>
</a>
</g>
</g>
<!-- Node4&#45;&gt;Node5 -->
<g id="edge7" class="edge">
<title>Node4&#45;&gt;Node5</title>
<path fill="none" stroke="orange" stroke-dasharray="5,2" d="M250.24,-46.53C252.86,-46.35 255.45,-46.17 258,-46 294.78,-43.57 335.63,-41.53 369.88,-40.02"/>
<polygon fill="orange" stroke="orange" points="249.79,-43.06 240.07,-47.28 250.3,-50.04 249.79,-43.06"/>
<text text-anchor="middle" x="305" y="-49" font-family="Helvetica,sans-Serif" font-size="10.00"> &lt; B, U, Dim, k, j &gt;</text>
</g>
<!-- Node5&#45;&gt;Node1 -->
<g id="edge5" class="edge">
<title>Node5&#45;&gt;Node1</title>
<path fill="none" stroke="#9a32cd" stroke-dasharray="5,2" d="M535.23,-45.29C546.92,-46.49 558.76,-47.74 570,-49 575.84,-49.65 581.88,-50.35 587.95,-51.07"/>
<polygon fill="#9a32cd" stroke="#9a32cd" points="535.31,-41.78 525.01,-44.25 534.61,-48.74 535.31,-41.78"/>
<text text-anchor="middle" x="556.5" y="-52" font-family="Helvetica,sans-Serif" font-size="10.00"> iterB</text>
</g>
<!-- Node6 -->
<g id="node6" class="node">
<title>Node6</title>
<g id="a_node6"><a xlink:title=" ">
<polygon fill="white" stroke="#bfbfbf" points="148,-0.5 148,-19.5 177,-19.5 177,-0.5 148,-0.5"/>
<text text-anchor="middle" x="162.5" y="-7.5" font-family="Helvetica,sans-Serif" font-size="10.00">B</text>
</a>
</g>
</g>
<!-- Node6&#45;&gt;Node5 -->
<g id="edge6" class="edge">
<title>Node6&#45;&gt;Node5</title>
<path fill="none" stroke="#9a32cd" stroke-dasharray="5,2" d="M187.64,-11.81C223.52,-14.55 293.03,-20.07 352,-26 357.83,-26.59 363.87,-27.22 369.93,-27.88"/>
<polygon fill="#9a32cd" stroke="#9a32cd" points="187.47,-8.28 177.23,-11.02 186.94,-15.26 187.47,-8.28"/>
<text text-anchor="middle" x="305" y="-29" font-family="Helvetica,sans-Serif" font-size="10.00"> iter</text>
</g>
</g>
</svg>
