<?xml version="1.0" encoding="UTF-8" standalone="no"?>
<!DOCTYPE svg PUBLIC "-//W3C//DTD SVG 1.1//EN"
 "http://www.w3.org/Graphics/SVG/1.1/DTD/svg11.dtd">
<!-- Generated by graphviz version 2.43.0 (0)
 -->
<!-- Title: FTensor::Dg_or_Dg_02&lt; A, B, T, U, Dim, i, j, k &gt; Pages: 1 -->
<!--zoomable 134 -->
<svg id="main" version="1.1" xmlns="http://www.w3.org/2000/svg" xmlns:xlink="http://www.w3.org/1999/xlink" xml:space="preserve" onload="init(evt)">
<style type="text/css"><![CDATA[
.edge:hover path { stroke: red; }
.edge:hover polygon { stroke: red; fill: red; }
]]></style>
<script type="text/javascript"><![CDATA[
var edges = document.getElementsByTagName('g');
if (edges && edges.length) {
  for (var i=0;i<edges.length;i++) {
    if (edges[i].id.substr(0,4)=='edge') {
      edges[i].setAttribute('class','edge');
    }
  }
}
]]></script>
        <defs>
                <circle id="rim" cx="0" cy="0" r="7"/>
                <circle id="rim2" cx="0" cy="0" r="3.5"/>
                <g id="zoomPlus">
                        <use xlink:href="#rim" fill="#404040">
                                <set attributeName="fill" to="#808080" begin="zoomplus.mouseover" end="zoomplus.mouseout"/>
                        </use>
                        <path d="M-4,0h8M0,-4v8" fill="none" stroke="white" stroke-width="1.5" pointer-events="none"/>
                </g>
                <g id="zoomMin">
                        <use xlink:href="#rim" fill="#404040">
                                <set attributeName="fill" to="#808080" begin="zoomminus.mouseover" end="zoomminus.mouseout"/>
                        </use>
                        <path d="M-4,0h8" fill="none" stroke="white" stroke-width="1.5" pointer-events="none"/>
                </g>
                <g id="dirArrow">
                        <path fill="none" stroke="white" stroke-width="1.5" d="M0,-3.0v7 M-2.5,-0.5L0,-3.0L2.5,-0.5"/>
                </g>
               <g id="resetDef">
                       <use xlink:href="#rim2" fill="#404040">
                               <set attributeName="fill" to="#808080" begin="reset.mouseover" end="reset.mouseout"/>
                       </use>
               </g>
        </defs>

<script type="text/javascript">
var viewWidth = 661;
var viewHeight = 134;
var sectionId = 'dynsection-0';
</script>
<script xlink:href="svgpan.js"/>
<svg id="graph" class="graph">
<g id="viewport">
<title>FTensor::Dg_or_Dg_02&lt; A, B, T, U, Dim, i, j, k &gt;</title>
<polygon fill="white" stroke="transparent" points="-4,4 -4,-130.43 657,-130.43 657,4 -4,4"/>
<!-- Node1 -->
<g id="node1" class="node">
<title>Node1</title>
<g id="a_node1"><a xlink:title=" ">
<polygon fill="#bfbfbf" stroke="black" points="529,-27.93 529,-68.93 653,-68.93 653,-27.93 529,-27.93"/>
<text text-anchor="start" x="537" y="-56.93" font-family="Helvetica,sans-Serif" font-size="10.00">FTensor::Dg_or_Dg_02</text>
<text text-anchor="start" x="537" y="-45.93" font-family="Helvetica,sans-Serif" font-size="10.00">&lt; A, B, T, U, Dim, i,</text>
<text text-anchor="middle" x="591" y="-34.93" font-family="Helvetica,sans-Serif" font-size="10.00"> j, k &gt;</text>
</a>
</g>
</g>
<!-- Node2 -->
<g id="node2" class="node">
<title>Node2</title>
<g id="a_node2"><a xlink:href="classFTensor_1_1Dg__Expr.html" target="_top" xlink:title=" ">
<polygon fill="white" stroke="black" points="345,-58.43 345,-88.43 466,-88.43 466,-58.43 345,-58.43"/>
<text text-anchor="start" x="353" y="-76.43" font-family="Helvetica,sans-Serif" font-size="10.00">FTensor::Dg_Expr&lt; B,</text>
<text text-anchor="middle" x="405.5" y="-65.43" font-family="Helvetica,sans-Serif" font-size="10.00"> U, Dim, Dim, k, i, j &gt;</text>
</a>
</g>
</g>
<!-- Node2&#45;&gt;Node1 -->
<g id="edge1" class="edge">
<title>Node2&#45;&gt;Node1</title>
<path fill="none" stroke="#9a32cd" stroke-dasharray="5,2" d="M476.14,-63.94C493.48,-61.58 511.94,-59.07 528.83,-56.77"/>
<polygon fill="#9a32cd" stroke="#9a32cd" points="475.51,-60.5 466.08,-65.32 476.46,-67.43 475.51,-60.5"/>
<text text-anchor="middle" x="497.5" y="-64.43" font-family="Helvetica,sans-Serif" font-size="10.00"> iterB</text>
</g>
<!-- Node3 -->
<g id="node3" class="node">
<title>Node3</title>
<g id="a_node3"><a xlink:title=" ">
<polygon fill="white" stroke="#bfbfbf" points="131,-106.93 131,-125.93 160,-125.93 160,-106.93 131,-106.93"/>
<text text-anchor="middle" x="145.5" y="-113.93" font-family="Helvetica,sans-Serif" font-size="10.00">B</text>
</a>
</g>
</g>
<!-- Node3&#45;&gt;Node2 -->
<g id="edge2" class="edge">
<title>Node3&#45;&gt;Node2</title>
<path fill="none" stroke="#9a32cd" stroke-dasharray="5,2" d="M170.18,-113.31C204.74,-108.67 270.98,-99.4 327,-89.43 332.82,-88.4 338.87,-87.26 344.9,-86.08"/>
<polygon fill="#9a32cd" stroke="#9a32cd" points="169.58,-109.86 160.13,-114.65 170.5,-116.8 169.58,-109.86"/>
<text text-anchor="middle" x="275.5" y="-108.43" font-family="Helvetica,sans-Serif" font-size="10.00"> iter</text>
</g>
<!-- Node4 -->
<g id="node4" class="node">
<title>Node4</title>
<g id="a_node4"><a xlink:href="classFTensor_1_1Dg__Expr.html" target="_top" xlink:title=" ">
<polygon fill="white" stroke="black" points="85,-22.93 85,-63.93 206,-63.93 206,-22.93 85,-22.93"/>
<text text-anchor="start" x="93" y="-51.93" font-family="Helvetica,sans-Serif" font-size="10.00">FTensor::Dg_Expr&lt; A,</text>
<text text-anchor="start" x="93" y="-40.93" font-family="Helvetica,sans-Serif" font-size="10.00"> T, Dim01, Dim2, i,</text>
<text text-anchor="middle" x="145.5" y="-29.93" font-family="Helvetica,sans-Serif" font-size="10.00"> j, k &gt;</text>
</a>
</g>
</g>
<!-- Node4&#45;&gt;Node2 -->
<g id="edge3" class="edge">
<title>Node4&#45;&gt;Node2</title>
<path fill="none" stroke="orange" stroke-dasharray="5,2" d="M216.02,-51.52C256.26,-56.2 306.4,-62.02 344.84,-66.49"/>
<polygon fill="orange" stroke="orange" points="216.35,-48.03 206.01,-50.35 215.54,-54.98 216.35,-48.03"/>
<text text-anchor="start" x="224" y="-77.43" font-family="Helvetica,sans-Serif" font-size="10.00"> &lt; B, U, Dim, Dim, k,</text>
<text text-anchor="middle" x="275.5" y="-66.43" font-family="Helvetica,sans-Serif" font-size="10.00"> i, j &gt;</text>
</g>
<!-- Node6 -->
<g id="node6" class="node">
<title>Node6</title>
<g id="a_node6"><a xlink:href="classFTensor_1_1Dg__Expr.html" target="_top" xlink:title=" ">
<polygon fill="white" stroke="black" points="345,-9.43 345,-39.43 466,-39.43 466,-9.43 345,-9.43"/>
<text text-anchor="start" x="353" y="-27.43" font-family="Helvetica,sans-Serif" font-size="10.00">FTensor::Dg_Expr&lt; A,</text>
<text text-anchor="middle" x="405.5" y="-16.43" font-family="Helvetica,sans-Serif" font-size="10.00"> T, Dim, Dim, j, i, k &gt;</text>
</a>
</g>
</g>
<!-- Node4&#45;&gt;Node6 -->
<g id="edge7" class="edge">
<title>Node4&#45;&gt;Node6</title>
<path fill="none" stroke="orange" stroke-dasharray="5,2" d="M216.37,-28.38C218.94,-28.03 221.49,-27.71 224,-27.43 264.19,-22.99 309.7,-22.26 344.98,-22.63"/>
<polygon fill="orange" stroke="orange" points="215.76,-24.94 206.4,-29.91 216.82,-31.86 215.76,-24.94"/>
<text text-anchor="start" x="226.5" y="-41.43" font-family="Helvetica,sans-Serif" font-size="10.00"> &lt; A, T, Dim, Dim, j,</text>
<text text-anchor="middle" x="275.5" y="-30.43" font-family="Helvetica,sans-Serif" font-size="10.00"> i, k &gt;</text>
</g>
<!-- Node5 -->
<g id="node5" class="node">
<title>Node5</title>
<g id="a_node5"><a xlink:title=" ">
<polygon fill="white" stroke="#bfbfbf" points="0,-3.93 0,-22.93 29,-22.93 29,-3.93 0,-3.93"/>
<text text-anchor="middle" x="14.5" y="-10.93" font-family="Helvetica,sans-Serif" font-size="10.00">A</text>
</a>
</g>
</g>
<!-- Node5&#45;&gt;Node4 -->
<g id="edge4" class="edge">
<title>Node5&#45;&gt;Node4</title>
<path fill="none" stroke="#9a32cd" stroke-dasharray="5,2" d="M39.19,-18.94C52.09,-21.94 68.7,-25.8 84.89,-29.57"/>
<polygon fill="#9a32cd" stroke="#9a32cd" points="39.84,-15.5 29.31,-16.64 38.25,-22.32 39.84,-15.5"/>
<text text-anchor="middle" x="57" y="-27.43" font-family="Helvetica,sans-Serif" font-size="10.00"> iter</text>
</g>
<!-- Node5&#45;&gt;Node6 -->
<g id="edge6" class="edge">
<title>Node5&#45;&gt;Node6</title>
<path fill="none" stroke="#9a32cd" stroke-dasharray="5,2" d="M38.86,-8.8C52.3,-6.37 69.53,-3.65 85,-2.43 175.49,4.68 280.49,-6.22 344.71,-15.06"/>
<polygon fill="#9a32cd" stroke="#9a32cd" points="38.19,-5.36 29.01,-10.65 39.48,-12.24 38.19,-5.36"/>
<text text-anchor="middle" x="145.5" y="-5.43" font-family="Helvetica,sans-Serif" font-size="10.00"> iter</text>
</g>
<!-- Node6&#45;&gt;Node1 -->
<g id="edge5" class="edge">
<title>Node6&#45;&gt;Node1</title>
<path fill="none" stroke="#9a32cd" stroke-dasharray="5,2" d="M476.32,-32.09C487.91,-33.47 499.8,-34.94 511,-36.43 516.78,-37.2 522.78,-38.04 528.79,-38.91"/>
<polygon fill="#9a32cd" stroke="#9a32cd" points="476.57,-28.6 466.23,-30.91 475.75,-35.55 476.57,-28.6"/>
<text text-anchor="middle" x="497.5" y="-39.43" font-family="Helvetica,sans-Serif" font-size="10.00"> iterA</text>
</g>
</g>
</svg>
        <g id="navigator" transform="translate(0 0)" fill="#404254">
                <rect fill="#f2f5e9" fill-opacity="0.5" stroke="#606060" stroke-width=".5" x="0" y="0" width="60" height="60"/>
                <use id="zoomplus" xlink:href="#zoomPlus" x="17" y="9" onmousedown="handleZoom(evt,'in')"/>
                <use id="zoomminus" xlink:href="#zoomMin" x="42" y="9" onmousedown="handleZoom(evt,'out')"/>
                <use id="reset" xlink:href="#resetDef" x="30" y="36" onmousedown="handleReset()"/>
                <g id="arrowUp" xlink:href="#dirArrow" transform="translate(30 24)" onmousedown="handlePan(0,-1)">
                  <use xlink:href="#rim" fill="#404040">
                        <set attributeName="fill" to="#808080" begin="arrowUp.mouseover" end="arrowUp.mouseout"/>
                  </use>
                  <path fill="none" stroke="white" stroke-width="1.5" d="M0,-3.0v7 M-2.5,-0.5L0,-3.0L2.5,-0.5"/>
                </g>
                <g id="arrowRight" xlink:href="#dirArrow" transform="rotate(90) translate(36 -43)" onmousedown="handlePan(1,0)">
                  <use xlink:href="#rim" fill="#404040">
                        <set attributeName="fill" to="#808080" begin="arrowRight.mouseover" end="arrowRight.mouseout"/>
                  </use>
                  <path fill="none" stroke="white" stroke-width="1.5" d="M0,-3.0v7 M-2.5,-0.5L0,-3.0L2.5,-0.5"/>
                </g>
                <g id="arrowDown" xlink:href="#dirArrow" transform="rotate(180) translate(-30 -48)" onmousedown="handlePan(0,1)">
                  <use xlink:href="#rim" fill="#404040">
                        <set attributeName="fill" to="#808080" begin="arrowDown.mouseover" end="arrowDown.mouseout"/>
                  </use>
                  <path fill="none" stroke="white" stroke-width="1.5" d="M0,-3.0v7 M-2.5,-0.5L0,-3.0L2.5,-0.5"/>
                </g>
                <g id="arrowLeft" xlink:href="#dirArrow" transform="rotate(270) translate(-36 17)" onmousedown="handlePan(-1,0)">
                  <use xlink:href="#rim" fill="#404040">
                        <set attributeName="fill" to="#808080" begin="arrowLeft.mouseover" end="arrowLeft.mouseout"/>
                  </use>
                  <path fill="none" stroke="white" stroke-width="1.5" d="M0,-3.0v7 M-2.5,-0.5L0,-3.0L2.5,-0.5"/>
                </g>
        </g>
        <svg viewBox="0 0 15 15" width="100%" height="30px" preserveAspectRatio="xMaxYMin meet">
         <g id="arrow_out" transform="scale(0.3 0.3)">
          <a xlink:href="classFTensor_1_1Dg__or__Dg__02__coll__graph_org.svg" target="_base">
           <rect id="button" ry="5" rx="5" y="6" x="6" height="38" width="38"
                fill="#f2f5e9" fill-opacity="0.5" stroke="#606060" stroke-width="1.0"/>
           <path id="arrow"
             d="M 11.500037,31.436501 C 11.940474,20.09759 22.043105,11.32322 32.158766,21.979434 L 37.068811,17.246167 C 37.068811,17.246167 37.088388,32 37.088388,32 L 22.160133,31.978069 C 22.160133,31.978069 26.997745,27.140456 26.997745,27.140456 C 18.528582,18.264221 13.291696,25.230495 11.500037,31.436501 z"
             style="fill:#404040;"/>
          </a>
         </g>
        </svg>
</svg>
