<?xml version="1.0" encoding="UTF-8" standalone="no"?>
<!DOCTYPE svg PUBLIC "-//W3C//DTD SVG 1.1//EN"
 "http://www.w3.org/Graphics/SVG/1.1/DTD/svg11.dtd">
<!-- Generated by graphviz version 2.43.0 (0)
 -->
<!-- Title: FTensor::Dg_plus_Dg&lt; A, B, T, U, Dim01, Dim2, i, j, k &gt; Pages: 1 -->
<svg width="667pt" height="112pt"
 viewBox="0.00 0.00 667.00 111.50" xmlns="http://www.w3.org/2000/svg" xmlns:xlink="http://www.w3.org/1999/xlink">
<g id="graph0" class="graph" transform="scale(1 1) rotate(0) translate(4 107.5)">
<title>FTensor::Dg_plus_Dg&lt; A, B, T, U, Dim01, Dim2, i, j, k &gt;</title>
<polygon fill="white" stroke="transparent" points="-4,4 -4,-107.5 663,-107.5 663,4 -4,4"/>
<!-- Node1 -->
<g id="node1" class="node">
<title>Node1</title>
<g id="a_node1"><a xlink:title=" ">
<polygon fill="#bfbfbf" stroke="black" points="542,-12 542,-53 659,-53 659,-12 542,-12"/>
<text text-anchor="start" x="550" y="-41" font-family="Helvetica,sans-Serif" font-size="10.00">FTensor::Dg_plus_Dg</text>
<text text-anchor="start" x="550" y="-30" font-family="Helvetica,sans-Serif" font-size="10.00">&lt; A, B, T, U, Dim01,</text>
<text text-anchor="middle" x="600.5" y="-19" font-family="Helvetica,sans-Serif" font-size="10.00"> Dim2, i, j, k &gt;</text>
</a>
</g>
</g>
<!-- Node2 -->
<g id="node2" class="node">
<title>Node2</title>
<g id="a_node2"><a xlink:href="classFTensor_1_1Dg__Expr.html" target="_top" xlink:title=" ">
<polygon fill="white" stroke="black" points="354.5,-50 354.5,-91 475.5,-91 475.5,-50 354.5,-50"/>
<text text-anchor="start" x="362.5" y="-79" font-family="Helvetica,sans-Serif" font-size="10.00">FTensor::Dg_Expr&lt; B,</text>
<text text-anchor="start" x="362.5" y="-68" font-family="Helvetica,sans-Serif" font-size="10.00"> U, Dim01, Dim2, i,</text>
<text text-anchor="middle" x="415" y="-57" font-family="Helvetica,sans-Serif" font-size="10.00"> j, k &gt;</text>
</a>
</g>
</g>
<!-- Node2&#45;&gt;Node1 -->
<g id="edge1" class="edge">
<title>Node2&#45;&gt;Node1</title>
<path fill="none" stroke="#9a32cd" stroke-dasharray="5,2" d="M485.45,-56.12C504.03,-52.27 523.91,-48.15 541.78,-44.45"/>
<polygon fill="#9a32cd" stroke="#9a32cd" points="484.66,-52.71 475.58,-58.16 486.08,-59.56 484.66,-52.71"/>
<text text-anchor="middle" x="510.5" y="-55.5" font-family="Helvetica,sans-Serif" font-size="10.00"> iterB</text>
</g>
<!-- Node3 -->
<g id="node3" class="node">
<title>Node3</title>
<g id="a_node3"><a xlink:title=" ">
<polygon fill="white" stroke="#bfbfbf" points="131,-84 131,-103 160,-103 160,-84 131,-84"/>
<text text-anchor="middle" x="145.5" y="-91" font-family="Helvetica,sans-Serif" font-size="10.00">B</text>
</a>
</g>
</g>
<!-- Node3&#45;&gt;Node2 -->
<g id="edge2" class="edge">
<title>Node3&#45;&gt;Node2</title>
<path fill="none" stroke="#9a32cd" stroke-dasharray="5,2" d="M170.24,-91.46C211.23,-87.93 296.47,-80.61 354.46,-75.62"/>
<polygon fill="#9a32cd" stroke="#9a32cd" points="169.8,-87.98 160.13,-92.33 170.4,-94.96 169.8,-87.98"/>
<text text-anchor="middle" x="278.5" y="-89.5" font-family="Helvetica,sans-Serif" font-size="10.00"> iter</text>
</g>
<!-- Node4 -->
<g id="node4" class="node">
<title>Node4</title>
<g id="a_node4"><a xlink:href="classFTensor_1_1Dg__Expr.html" target="_top" xlink:title=" ">
<polygon fill="white" stroke="black" points="85,-24 85,-65 206,-65 206,-24 85,-24"/>
<text text-anchor="start" x="93" y="-53" font-family="Helvetica,sans-Serif" font-size="10.00">FTensor::Dg_Expr&lt; A,</text>
<text text-anchor="start" x="93" y="-42" font-family="Helvetica,sans-Serif" font-size="10.00"> T, Dim01, Dim2, i,</text>
<text text-anchor="middle" x="145.5" y="-31" font-family="Helvetica,sans-Serif" font-size="10.00"> j, k &gt;</text>
</a>
</g>
</g>
<!-- Node4&#45;&gt;Node2 -->
<g id="edge3" class="edge">
<title>Node4&#45;&gt;Node2</title>
<path fill="none" stroke="orange" stroke-dasharray="5,2" d="M216.53,-43.94C251.64,-44.47 294.71,-46.34 333,-51.5 339.87,-52.43 347.01,-53.67 354.08,-55.09"/>
<polygon fill="orange" stroke="orange" points="216.43,-40.44 206.38,-43.82 216.34,-47.44 216.43,-40.44"/>
<text text-anchor="start" x="224" y="-65.5" font-family="Helvetica,sans-Serif" font-size="10.00"> &lt; B, U, Dim01, Dim2,</text>
<text text-anchor="middle" x="278.5" y="-54.5" font-family="Helvetica,sans-Serif" font-size="10.00"> i, j, k &gt;</text>
</g>
<!-- Node5 -->
<g id="node5" class="node">
<title>Node5</title>
<g id="a_node5"><a xlink:title=" ">
<polygon fill="white" stroke="#bfbfbf" points="0,-35 0,-54 29,-54 29,-35 0,-35"/>
<text text-anchor="middle" x="14.5" y="-42" font-family="Helvetica,sans-Serif" font-size="10.00">A</text>
</a>
</g>
</g>
<!-- Node5&#45;&gt;Node4 -->
<g id="edge4" class="edge">
<title>Node5&#45;&gt;Node4</title>
<path fill="none" stroke="#9a32cd" stroke-dasharray="5,2" d="M39.57,-44.5C52.42,-44.5 68.86,-44.5 84.89,-44.5"/>
<polygon fill="#9a32cd" stroke="#9a32cd" points="39.31,-41 29.31,-44.5 39.31,-48 39.31,-41"/>
<text text-anchor="middle" x="57" y="-47.5" font-family="Helvetica,sans-Serif" font-size="10.00"> iter</text>
</g>
<!-- Node6 -->
<g id="node6" class="node">
<title>Node6</title>
<g id="a_node6"><a xlink:title=" ">
<polygon fill="white" stroke="#bfbfbf" points="351,-0.5 351,-30.5 479,-30.5 479,-0.5 351,-0.5"/>
<text text-anchor="start" x="359" y="-18.5" font-family="Helvetica,sans-Serif" font-size="10.00">Dg_Expr&lt; A, T, Dim01,</text>
<text text-anchor="middle" x="415" y="-7.5" font-family="Helvetica,sans-Serif" font-size="10.00"> Dim2, i, j, k &gt;</text>
</a>
</g>
</g>
<!-- Node6&#45;&gt;Node1 -->
<g id="edge5" class="edge">
<title>Node6&#45;&gt;Node1</title>
<path fill="none" stroke="#9a32cd" stroke-dasharray="5,2" d="M489.3,-22.29C506.75,-23.91 525.14,-25.61 541.78,-27.15"/>
<polygon fill="#9a32cd" stroke="#9a32cd" points="489.43,-18.79 479.15,-21.35 488.78,-25.76 489.43,-18.79"/>
<text text-anchor="middle" x="510.5" y="-27.5" font-family="Helvetica,sans-Serif" font-size="10.00"> iterA</text>
</g>
</g>
</svg>
