<?xml version="1.0" encoding="UTF-8" standalone="no"?>
<!DOCTYPE svg PUBLIC "-//W3C//DTD SVG 1.1//EN"
 "http://www.w3.org/Graphics/SVG/1.1/DTD/svg11.dtd">
<!-- Generated by graphviz version 9.0.0 (20230911.1827)
 -->
<!-- Title: FTensor::interpolate_Tensor1&lt; T, Dim, i &gt; Pages: 1 -->
<svg width="234pt" height="317pt"
 viewBox="0.00 0.00 234.38 316.75" xmlns="http://www.w3.org/2000/svg" xmlns:xlink="http://www.w3.org/1999/xlink">
<g id="graph0" class="graph" transform="scale(1 1) rotate(0) translate(4 312.75)">
<title>FTensor::interpolate_Tensor1&lt; T, Dim, i &gt;</title>
<!-- Node1 -->
<g id="node1" class="node">
<title>Node1</title>
<g id="a_node1"><a xlink:title=" ">
<polygon fill="#999999" stroke="#666666" points="194.62,-30.5 84.12,-30.5 84.12,0 194.62,0 194.62,-30.5"/>
<text text-anchor="start" x="92.12" y="-17" font-family="Helvetica,sans-Serif" font-size="10.00">FTensor::interpolate</text>
<text text-anchor="middle" x="139.38" y="-5.75" font-family="Helvetica,sans-Serif" font-size="10.00">_Tensor1&lt; T, Dim, i &gt;</text>
</a>
</g>
</g>
<!-- Node2 -->
<g id="node2" class="node">
<title>Node2</title>
<g id="a_node2"><a xlink:href="class_f_tensor_1_1_tensor1.html" target="_top" xlink:title=" ">
<polygon fill="white" stroke="#666666" points="106.75,-164.5 0,-164.5 0,-134 106.75,-134 106.75,-164.5"/>
<text text-anchor="start" x="8" y="-151" font-family="Helvetica,sans-Serif" font-size="10.00">FTensor::Tensor1&lt; T</text>
<text text-anchor="middle" x="53.38" y="-139.75" font-family="Helvetica,sans-Serif" font-size="10.00"> *, Dim &gt;</text>
</a>
</g>
</g>
<!-- Node2&#45;&gt;Node1 -->
<g id="edge1" class="edge">
<title>Node2&#45;&gt;Node1</title>
<path fill="none" stroke="#9a32cd" stroke-dasharray="5,2" d="M69.14,-124.05C86.87,-96.83 115.12,-53.49 129.8,-30.95"/>
<polygon fill="#9a32cd" stroke="#9a32cd" points="66.26,-122.06 63.73,-132.35 72.12,-125.88 66.26,-122.06"/>
<text text-anchor="middle" x="120.5" y="-78.38" font-family="Helvetica,sans-Serif" font-size="10.00"> a</text>
</g>
<!-- Node3 -->
<g id="node3" class="node">
<title>Node3</title>
<g id="a_node3"><a xlink:title=" ">
<polygon fill="white" stroke="#666666" points="67.78,-308.75 38.98,-308.75 38.98,-289.5 67.78,-289.5 67.78,-308.75"/>
<text text-anchor="middle" x="53.38" y="-295.25" font-family="Helvetica,sans-Serif" font-size="10.00">T</text>
</a>
</g>
</g>
<!-- Node3&#45;&gt;Node2 -->
<g id="edge2" class="edge">
<title>Node3&#45;&gt;Node2</title>
<path fill="none" stroke="#9a32cd" stroke-dasharray="5,2" d="M50.31,-277.71C48.88,-267.15 47.33,-254.04 46.62,-242.25 44.98,-214.91 48.54,-183.05 51.09,-164.9"/>
<polygon fill="#9a32cd" stroke="#9a32cd" points="46.84,-278.16 51.72,-287.56 53.77,-277.16 46.84,-278.16"/>
<text text-anchor="middle" x="58.25" y="-223.12" font-family="Helvetica,sans-Serif" font-size="10.00"> data</text>
</g>
<!-- Node4 -->
<g id="node4" class="node">
<title>Node4</title>
<g id="a_node4"><a xlink:href="class_f_tensor_1_1_tensor1.html" target="_top" xlink:title=" ">
<polygon fill="white" stroke="#666666" points="185.5,-242.25 77.25,-242.25 77.25,-211.75 185.5,-211.75 185.5,-242.25"/>
<text text-anchor="start" x="85.25" y="-228.75" font-family="Helvetica,sans-Serif" font-size="10.00">FTensor::Tensor1&lt; T,</text>
<text text-anchor="middle" x="131.38" y="-217.5" font-family="Helvetica,sans-Serif" font-size="10.00"> Tensor_Dim &gt;</text>
</a>
</g>
</g>
<!-- Node3&#45;&gt;Node4 -->
<g id="edge4" class="edge">
<title>Node3&#45;&gt;Node4</title>
<path fill="none" stroke="#9a32cd" stroke-dasharray="5,2" d="M71.53,-281.8C84.7,-269.96 102.35,-254.1 115.06,-242.67"/>
<polygon fill="#9a32cd" stroke="#9a32cd" points="69.48,-278.94 64.38,-288.23 74.16,-284.15 69.48,-278.94"/>
<text text-anchor="middle" x="106.25" y="-262" font-family="Helvetica,sans-Serif" font-size="10.00"> data</text>
</g>
<!-- Node4&#45;&gt;Node2 -->
<g id="edge3" class="edge">
<title>Node4&#45;&gt;Node2</title>
<path fill="none" stroke="orange" stroke-dasharray="5,2" d="M108.33,-203.62C95.42,-191.08 79.69,-175.8 68.37,-164.81"/>
<polygon fill="orange" stroke="orange" points="105.64,-205.88 115.25,-210.34 110.51,-200.86 105.64,-205.88"/>
<text text-anchor="middle" x="126.25" y="-184.25" font-family="Helvetica,sans-Serif" font-size="10.00"> &lt; T *, Dim &gt;</text>
</g>
<!-- Node5 -->
<g id="node5" class="node">
<title>Node5</title>
<g id="a_node5"><a xlink:title=" ">
<polygon fill="white" stroke="#666666" points="153.78,-158.88 124.97,-158.88 124.97,-139.62 153.78,-139.62 153.78,-158.88"/>
<text text-anchor="middle" x="139.38" y="-145.38" font-family="Helvetica,sans-Serif" font-size="10.00">int</text>
</a>
</g>
</g>
<!-- Node5&#45;&gt;Node1 -->
<g id="edge5" class="edge">
<title>Node5&#45;&gt;Node1</title>
<path fill="none" stroke="#9a32cd" stroke-dasharray="5,2" d="M139.38,-127.74C139.38,-100.87 139.38,-54.39 139.38,-30.84"/>
<polygon fill="#9a32cd" stroke="#9a32cd" points="135.88,-127.66 139.38,-137.66 142.88,-127.66 135.88,-127.66"/>
<text text-anchor="middle" x="144.62" y="-106.5" font-family="Helvetica,sans-Serif" font-size="10.00"> di</text>
<text text-anchor="middle" x="144.62" y="-95.25" font-family="Helvetica,sans-Serif" font-size="10.00">dj</text>
<text text-anchor="middle" x="144.62" y="-84" font-family="Helvetica,sans-Serif" font-size="10.00">dk</text>
<text text-anchor="middle" x="144.62" y="-72.75" font-family="Helvetica,sans-Serif" font-size="10.00">i0</text>
<text text-anchor="middle" x="144.62" y="-61.5" font-family="Helvetica,sans-Serif" font-size="10.00">j0</text>
<text text-anchor="middle" x="144.62" y="-50.25" font-family="Helvetica,sans-Serif" font-size="10.00">k0</text>
</g>
<!-- Node6 -->
<g id="node6" class="node">
<title>Node6</title>
<g id="a_node6"><a xlink:href="classdouble.html" target="_top" xlink:title=" ">
<polygon fill="white" stroke="#666666" points="216.62,-158.88 172.12,-158.88 172.12,-139.62 216.62,-139.62 216.62,-158.88"/>
<text text-anchor="middle" x="194.38" y="-145.38" font-family="Helvetica,sans-Serif" font-size="10.00">double</text>
</a>
</g>
</g>
<!-- Node6&#45;&gt;Node1 -->
<g id="edge6" class="edge">
<title>Node6&#45;&gt;Node1</title>
<path fill="none" stroke="#9a32cd" stroke-dasharray="5,2" d="M186.93,-128.78C179.12,-108.58 166.33,-76.14 154.38,-48.5 151.87,-42.72 148.98,-36.43 146.41,-30.94"/>
<polygon fill="#9a32cd" stroke="#9a32cd" points="183.6,-129.89 190.46,-137.96 190.14,-127.37 183.6,-129.89"/>
<text text-anchor="middle" x="203.88" y="-84" font-family="Helvetica,sans-Serif" font-size="10.00"> conjugate</text>
<text text-anchor="middle" x="203.88" y="-72.75" font-family="Helvetica,sans-Serif" font-size="10.00">distance</text>
</g>
</g>
</svg>
