<?xml version="1.0" encoding="UTF-8" standalone="no"?>
<!DOCTYPE svg PUBLIC "-//W3C//DTD SVG 1.1//EN"
 "http://www.w3.org/Graphics/SVG/1.1/DTD/svg11.dtd">
<!-- Generated by graphviz version 2.43.0 (0)
 -->
<!-- Title: FTensor::Tensor1_times_Tensor1&lt; A, B, T, U, Dim0, Dim1, i, j &gt; Pages: 1 -->
<svg width="311pt" height="273pt"
 viewBox="0.00 0.00 311.00 273.00" xmlns="http://www.w3.org/2000/svg" xmlns:xlink="http://www.w3.org/1999/xlink">
<g id="graph0" class="graph" transform="scale(1 1) rotate(0) translate(4 269)">
<title>FTensor::Tensor1_times_Tensor1&lt; A, B, T, U, Dim0, Dim1, i, j &gt;</title>
<polygon fill="white" stroke="transparent" points="-4,4 -4,-269 307,-269 307,4 -4,4"/>
<!-- Node1 -->
<g id="node1" class="node">
<title>Node1</title>
<g id="a_node1"><a xlink:title=" ">
<polygon fill="#bfbfbf" stroke="black" points="68,-0.5 68,-41.5 198,-41.5 198,-0.5 68,-0.5"/>
<text text-anchor="start" x="76" y="-29.5" font-family="Helvetica,sans-Serif" font-size="10.00">FTensor::Tensor1_times</text>
<text text-anchor="start" x="76" y="-18.5" font-family="Helvetica,sans-Serif" font-size="10.00">_Tensor1&lt; A, B, T, U,</text>
<text text-anchor="middle" x="133" y="-7.5" font-family="Helvetica,sans-Serif" font-size="10.00"> Dim0, Dim1, i, j &gt;</text>
</a>
</g>
</g>
<!-- Node2 -->
<g id="node2" class="node">
<title>Node2</title>
<g id="a_node2"><a xlink:href="classFTensor_1_1Tensor1__Expr.html" target="_top" xlink:title=" ">
<polygon fill="white" stroke="black" points="0,-89.5 0,-119.5 124,-119.5 124,-89.5 0,-89.5"/>
<text text-anchor="start" x="8" y="-107.5" font-family="Helvetica,sans-Serif" font-size="10.00">FTensor::Tensor1_Expr</text>
<text text-anchor="middle" x="62" y="-96.5" font-family="Helvetica,sans-Serif" font-size="10.00">&lt; B, U, Dim1, j &gt;</text>
</a>
</g>
</g>
<!-- Node2&#45;&gt;Node1 -->
<g id="edge1" class="edge">
<title>Node2&#45;&gt;Node1</title>
<path fill="none" stroke="#9a32cd" stroke-dasharray="5,2" d="M81.08,-81.6C91.96,-69.11 105.47,-53.6 115.99,-41.53"/>
<polygon fill="#9a32cd" stroke="#9a32cd" points="78.3,-79.46 74.37,-89.3 83.57,-84.06 78.3,-79.46"/>
<text text-anchor="middle" x="113.5" y="-63" font-family="Helvetica,sans-Serif" font-size="10.00"> iterB</text>
</g>
<!-- Node3 -->
<g id="node3" class="node">
<title>Node3</title>
<g id="a_node3"><a xlink:title=" ">
<polygon fill="white" stroke="#bfbfbf" points="20.5,-173 20.5,-192 49.5,-192 49.5,-173 20.5,-173"/>
<text text-anchor="middle" x="35" y="-180" font-family="Helvetica,sans-Serif" font-size="10.00">B</text>
</a>
</g>
</g>
<!-- Node3&#45;&gt;Node2 -->
<g id="edge2" class="edge">
<title>Node3&#45;&gt;Node2</title>
<path fill="none" stroke="#9a32cd" stroke-dasharray="5,2" d="M32.83,-162.84C32.57,-154.96 33.16,-145.82 36,-138 38.42,-131.35 42.8,-125.02 47.28,-119.75"/>
<polygon fill="#9a32cd" stroke="#9a32cd" points="29.35,-163.17 33.61,-172.86 36.33,-162.62 29.35,-163.17"/>
<text text-anchor="middle" x="46" y="-141" font-family="Helvetica,sans-Serif" font-size="10.00"> iter</text>
</g>
<!-- Node4 -->
<g id="node4" class="node">
<title>Node4</title>
<g id="a_node4"><a xlink:href="classFTensor_1_1Tensor1__Expr.html" target="_top" xlink:title=" ">
<polygon fill="white" stroke="black" points="127,-167.5 127,-197.5 251,-197.5 251,-167.5 127,-167.5"/>
<text text-anchor="start" x="135" y="-185.5" font-family="Helvetica,sans-Serif" font-size="10.00">FTensor::Tensor1_Expr</text>
<text text-anchor="middle" x="189" y="-174.5" font-family="Helvetica,sans-Serif" font-size="10.00">&lt; A, T, Dim, i &gt;</text>
</a>
</g>
</g>
<!-- Node4&#45;&gt;Node2 -->
<g id="edge3" class="edge">
<title>Node4&#45;&gt;Node2</title>
<path fill="none" stroke="orange" stroke-dasharray="5,2" d="M124.02,-163.7C114.52,-159.66 105.19,-154.8 97,-149 86.09,-141.27 76.77,-129.23 70.5,-119.78"/>
<polygon fill="orange" stroke="orange" points="122.95,-167.04 133.54,-167.47 125.53,-160.53 122.95,-167.04"/>
<text text-anchor="middle" x="141" y="-141" font-family="Helvetica,sans-Serif" font-size="10.00"> &lt; B, U, Dim1, j &gt;</text>
</g>
<!-- Node6 -->
<g id="node6" class="node">
<title>Node6</title>
<g id="a_node6"><a xlink:href="classFTensor_1_1Tensor1__Expr.html" target="_top" xlink:title=" ">
<polygon fill="white" stroke="black" points="142,-89.5 142,-119.5 266,-119.5 266,-89.5 142,-89.5"/>
<text text-anchor="start" x="150" y="-107.5" font-family="Helvetica,sans-Serif" font-size="10.00">FTensor::Tensor1_Expr</text>
<text text-anchor="middle" x="204" y="-96.5" font-family="Helvetica,sans-Serif" font-size="10.00">&lt; A, T, Dim0, i &gt;</text>
</a>
</g>
</g>
<!-- Node4&#45;&gt;Node6 -->
<g id="edge7" class="edge">
<title>Node4&#45;&gt;Node6</title>
<path fill="none" stroke="orange" stroke-dasharray="5,2" d="M187.92,-157.21C188.08,-150.9 188.66,-144.15 190,-138 191.36,-131.76 193.93,-125.22 196.5,-119.66"/>
<polygon fill="orange" stroke="orange" points="184.42,-157.25 187.97,-167.23 191.42,-157.22 184.42,-157.25"/>
<text text-anchor="middle" x="233" y="-141" font-family="Helvetica,sans-Serif" font-size="10.00"> &lt; A, T, Dim0, i &gt;</text>
</g>
<!-- Node5 -->
<g id="node5" class="node">
<title>Node5</title>
<g id="a_node5"><a xlink:title=" ">
<polygon fill="white" stroke="#bfbfbf" points="224.5,-245.5 224.5,-264.5 253.5,-264.5 253.5,-245.5 224.5,-245.5"/>
<text text-anchor="middle" x="239" y="-252.5" font-family="Helvetica,sans-Serif" font-size="10.00">A</text>
</a>
</g>
</g>
<!-- Node5&#45;&gt;Node4 -->
<g id="edge4" class="edge">
<title>Node5&#45;&gt;Node4</title>
<path fill="none" stroke="#9a32cd" stroke-dasharray="5,2" d="M226.97,-237.04C218.41,-224.97 207.04,-208.94 198.98,-197.58"/>
<polygon fill="#9a32cd" stroke="#9a32cd" points="224.23,-239.22 232.87,-245.36 229.94,-235.17 224.23,-239.22"/>
<text text-anchor="middle" x="229" y="-219" font-family="Helvetica,sans-Serif" font-size="10.00"> iter</text>
</g>
<!-- Node5&#45;&gt;Node6 -->
<g id="edge6" class="edge">
<title>Node5&#45;&gt;Node6</title>
<path fill="none" stroke="#9a32cd" stroke-dasharray="5,2" d="M252.56,-237.5C270.22,-213.89 296.54,-169.81 276,-138 270.94,-130.17 263.49,-124.2 255.27,-119.66"/>
<polygon fill="#9a32cd" stroke="#9a32cd" points="249.73,-235.45 246.34,-245.48 255.25,-239.75 249.73,-235.45"/>
<text text-anchor="middle" x="293" y="-180" font-family="Helvetica,sans-Serif" font-size="10.00"> iter</text>
</g>
<!-- Node6&#45;&gt;Node1 -->
<g id="edge5" class="edge">
<title>Node6&#45;&gt;Node1</title>
<path fill="none" stroke="#9a32cd" stroke-dasharray="5,2" d="M184.92,-81.6C174.04,-69.11 160.53,-53.6 150.01,-41.53"/>
<polygon fill="#9a32cd" stroke="#9a32cd" points="182.43,-84.06 191.63,-89.3 187.7,-79.46 182.43,-84.06"/>
<text text-anchor="middle" x="188.5" y="-63" font-family="Helvetica,sans-Serif" font-size="10.00"> iterA</text>
</g>
</g>
</svg>
