<?xml version="1.0" encoding="UTF-8" standalone="no"?>
<!DOCTYPE svg PUBLIC "-//W3C//DTD SVG 1.1//EN"
 "http://www.w3.org/Graphics/SVG/1.1/DTD/svg11.dtd">
<!-- Generated by graphviz version 2.43.0 (0)
 -->
<!-- Title: FTensor::Tensor3_Expr&lt; A, T, Dim0, Dim1, Dim2, i, j, k &gt; Pages: 1 -->
<svg width="463pt" height="1986pt"
 viewBox="0.00 0.00 463.00 1986.00" xmlns="http://www.w3.org/2000/svg" xmlns:xlink="http://www.w3.org/1999/xlink">
<g id="graph0" class="graph" transform="scale(1 1) rotate(0) translate(4 1982)">
<title>FTensor::Tensor3_Expr&lt; A, T, Dim0, Dim1, Dim2, i, j, k &gt;</title>
<polygon fill="white" stroke="transparent" points="-4,4 -4,-1982 459,-1982 459,4 -4,4"/>
<!-- Node1 -->
<g id="node1" class="node">
<title>Node1</title>
<g id="a_node1"><a xlink:title=" ">
<polygon fill="#bfbfbf" stroke="black" points="0,-960.5 0,-1001.5 146,-1001.5 146,-960.5 0,-960.5"/>
<text text-anchor="start" x="8" y="-989.5" font-family="Helvetica,sans-Serif" font-size="10.00">FTensor::Tensor3_Expr</text>
<text text-anchor="start" x="8" y="-978.5" font-family="Helvetica,sans-Serif" font-size="10.00">&lt; A, T, Dim0, Dim1, Dim2,</text>
<text text-anchor="middle" x="73" y="-967.5" font-family="Helvetica,sans-Serif" font-size="10.00"> i, j, k &gt;</text>
</a>
</g>
</g>
<!-- Node2 -->
<g id="node2" class="node">
<title>Node2</title>
<g id="a_node2"><a xlink:href="classFTensor_1_1Tensor3__Expr.html" target="_top" xlink:title=" ">
<polygon fill="white" stroke="black" points="305,-1920.5 305,-1961.5 453,-1961.5 453,-1920.5 305,-1920.5"/>
<text text-anchor="start" x="313" y="-1949.5" font-family="Helvetica,sans-Serif" font-size="10.00">FTensor::Tensor3_Expr</text>
<text text-anchor="start" x="313" y="-1938.5" font-family="Helvetica,sans-Serif" font-size="10.00">&lt; B, U, Dim2, Dim3, Dim4,</text>
<text text-anchor="middle" x="379" y="-1927.5" font-family="Helvetica,sans-Serif" font-size="10.00"> k, l, m &gt;</text>
</a>
</g>
</g>
<!-- Node1&#45;&gt;Node2 -->
<g id="edge1" class="edge">
<title>Node1&#45;&gt;Node2</title>
<path fill="none" stroke="orange" stroke-dasharray="5,2" d="M74.68,-1011.74C78.4,-1166.25 98.56,-1853.11 164,-1919 199.86,-1955.1 258.17,-1959.01 304.87,-1954.76"/>
<polygon fill="orange" stroke="orange" points="78.18,-1011.47 74.44,-1001.56 71.18,-1011.64 78.18,-1011.47"/>
<text text-anchor="start" x="173" y="-1970" font-family="Helvetica,sans-Serif" font-size="10.00"> &lt; B, U, Dim2, Dim3,</text>
<text text-anchor="middle" x="224.5" y="-1959" font-family="Helvetica,sans-Serif" font-size="10.00"> Dim4, k, l, m &gt;</text>
</g>
<!-- Node3 -->
<g id="node3" class="node">
<title>Node3</title>
<g id="a_node3"><a xlink:href="classFTensor_1_1Tensor3__Expr.html" target="_top" xlink:title=" ">
<polygon fill="white" stroke="black" points="317,-1860.5 317,-1901.5 441,-1901.5 441,-1860.5 317,-1860.5"/>
<text text-anchor="start" x="325" y="-1889.5" font-family="Helvetica,sans-Serif" font-size="10.00">FTensor::Tensor3_Expr</text>
<text text-anchor="start" x="325" y="-1878.5" font-family="Helvetica,sans-Serif" font-size="10.00">&lt; A, T, Dim0, Dim14,</text>
<text text-anchor="middle" x="379" y="-1867.5" font-family="Helvetica,sans-Serif" font-size="10.00"> Dim25, k, i, j &gt;</text>
</a>
</g>
</g>
<!-- Node1&#45;&gt;Node3 -->
<g id="edge2" class="edge">
<title>Node1&#45;&gt;Node3</title>
<path fill="none" stroke="orange" stroke-dasharray="5,2" d="M74.91,-1012.12C79.54,-1161.23 102.83,-1797.81 164,-1859 203.08,-1898.09 268.5,-1899.34 316.74,-1893.43"/>
<polygon fill="orange" stroke="orange" points="78.4,-1011.75 74.59,-1001.86 71.4,-1011.96 78.4,-1011.75"/>
<text text-anchor="start" x="171" y="-1910" font-family="Helvetica,sans-Serif" font-size="10.00"> &lt; A, T, Dim0, Dim14,</text>
<text text-anchor="middle" x="224.5" y="-1899" font-family="Helvetica,sans-Serif" font-size="10.00"> Dim25, k, i, j &gt;</text>
</g>
<!-- Node4 -->
<g id="node4" class="node">
<title>Node4</title>
<g id="a_node4"><a xlink:href="classFTensor_1_1Tensor3__Expr.html" target="_top" xlink:title=" ">
<polygon fill="white" stroke="black" points="317,-1800.5 317,-1841.5 441,-1841.5 441,-1800.5 317,-1800.5"/>
<text text-anchor="start" x="325" y="-1829.5" font-family="Helvetica,sans-Serif" font-size="10.00">FTensor::Tensor3_Expr</text>
<text text-anchor="start" x="325" y="-1818.5" font-family="Helvetica,sans-Serif" font-size="10.00">&lt; B, U, Dim3, Dim24,</text>
<text text-anchor="middle" x="379" y="-1807.5" font-family="Helvetica,sans-Serif" font-size="10.00"> Dim15, j, l, k &gt;</text>
</a>
</g>
</g>
<!-- Node1&#45;&gt;Node4 -->
<g id="edge3" class="edge">
<title>Node1&#45;&gt;Node4</title>
<path fill="none" stroke="orange" stroke-dasharray="5,2" d="M75.14,-1011.79C80.69,-1153.97 107,-1742.4 164,-1799 203.23,-1837.95 268.62,-1839.21 316.82,-1833.35"/>
<polygon fill="orange" stroke="orange" points="78.63,-1011.47 74.75,-1001.61 71.63,-1011.74 78.63,-1011.47"/>
<text text-anchor="start" x="170" y="-1849" font-family="Helvetica,sans-Serif" font-size="10.00"> &lt; B, U, Dim3, Dim24,</text>
<text text-anchor="middle" x="224.5" y="-1838" font-family="Helvetica,sans-Serif" font-size="10.00"> Dim15, j, l, k &gt;</text>
</g>
<!-- Node5 -->
<g id="node5" class="node">
<title>Node5</title>
<g id="a_node5"><a xlink:href="classFTensor_1_1Tensor3__Expr.html" target="_top" xlink:title=" ">
<polygon fill="white" stroke="black" points="306,-1740.5 306,-1781.5 452,-1781.5 452,-1740.5 306,-1740.5"/>
<text text-anchor="start" x="314" y="-1769.5" font-family="Helvetica,sans-Serif" font-size="10.00">FTensor::Tensor3_Expr</text>
<text text-anchor="start" x="314" y="-1758.5" font-family="Helvetica,sans-Serif" font-size="10.00">&lt; A, T, Dim0, Dim1, Dim3,</text>
<text text-anchor="middle" x="379" y="-1747.5" font-family="Helvetica,sans-Serif" font-size="10.00"> i, j, l &gt;</text>
</a>
</g>
</g>
<!-- Node1&#45;&gt;Node5 -->
<g id="edge4" class="edge">
<title>Node1&#45;&gt;Node5</title>
<path fill="none" stroke="orange" stroke-dasharray="5,2" d="M75.41,-1011.69C81.95,-1147.13 111.19,-1687.01 164,-1739 200.46,-1774.9 259.19,-1778.67 305.9,-1774.43"/>
<polygon fill="orange" stroke="orange" points="78.91,-1011.41 74.93,-1001.59 71.91,-1011.75 78.91,-1011.41"/>
<text text-anchor="start" x="174" y="-1789" font-family="Helvetica,sans-Serif" font-size="10.00"> &lt; A, T, Dim0, Dim1,</text>
<text text-anchor="middle" x="224.5" y="-1778" font-family="Helvetica,sans-Serif" font-size="10.00"> Dim3, i, j, l &gt;</text>
</g>
<!-- Node6 -->
<g id="node6" class="node">
<title>Node6</title>
<g id="a_node6"><a xlink:href="classFTensor_1_1Tensor3__Expr.html" target="_top" xlink:title=" ">
<polygon fill="white" stroke="black" points="312,-1680.5 312,-1721.5 446,-1721.5 446,-1680.5 312,-1680.5"/>
<text text-anchor="start" x="320" y="-1709.5" font-family="Helvetica,sans-Serif" font-size="10.00">FTensor::Tensor3_Expr</text>
<text text-anchor="start" x="320" y="-1698.5" font-family="Helvetica,sans-Serif" font-size="10.00">&lt; A, T, Dim0, Dim, Dim,</text>
<text text-anchor="middle" x="379" y="-1687.5" font-family="Helvetica,sans-Serif" font-size="10.00"> i, j, k &gt;</text>
</a>
</g>
</g>
<!-- Node1&#45;&gt;Node6 -->
<g id="edge5" class="edge">
<title>Node1&#45;&gt;Node6</title>
<path fill="none" stroke="orange" stroke-dasharray="5,2" d="M75.77,-1012.11C83.41,-1141.4 115.43,-1631.67 164,-1679 202.12,-1716.15 264.11,-1718.75 311.58,-1713.77"/>
<polygon fill="orange" stroke="orange" points="79.24,-1011.53 75.16,-1001.75 72.25,-1011.93 79.24,-1011.53"/>
<text text-anchor="start" x="177" y="-1729" font-family="Helvetica,sans-Serif" font-size="10.00"> &lt; A, T, Dim0, Dim,</text>
<text text-anchor="middle" x="224.5" y="-1718" font-family="Helvetica,sans-Serif" font-size="10.00"> Dim, i, j, k &gt;</text>
</g>
<!-- Node7 -->
<g id="node7" class="node">
<title>Node7</title>
<g id="a_node7"><a xlink:href="classFTensor_1_1Tensor3__Expr.html" target="_top" xlink:title=" ">
<polygon fill="white" stroke="black" points="306,-1620.5 306,-1661.5 452,-1661.5 452,-1620.5 306,-1620.5"/>
<text text-anchor="start" x="314" y="-1649.5" font-family="Helvetica,sans-Serif" font-size="10.00">FTensor::Tensor3_Expr</text>
<text text-anchor="start" x="314" y="-1638.5" font-family="Helvetica,sans-Serif" font-size="10.00">&lt; A, T, Dim0, Dim2, Dim3,</text>
<text text-anchor="middle" x="379" y="-1627.5" font-family="Helvetica,sans-Serif" font-size="10.00"> i, k, l &gt;</text>
</a>
</g>
</g>
<!-- Node1&#45;&gt;Node7 -->
<g id="edge6" class="edge">
<title>Node1&#45;&gt;Node7</title>
<path fill="none" stroke="orange" stroke-dasharray="5,2" d="M73.57,-1011.9C72.63,-1127.77 75.8,-1534.06 164,-1619 200.79,-1654.43 259.34,-1658.28 305.9,-1654.19"/>
<polygon fill="orange" stroke="orange" points="77.07,-1011.65 73.67,-1001.62 70.07,-1011.58 77.07,-1011.65"/>
<text text-anchor="start" x="174" y="-1669" font-family="Helvetica,sans-Serif" font-size="10.00"> &lt; A, T, Dim0, Dim2,</text>
<text text-anchor="middle" x="224.5" y="-1658" font-family="Helvetica,sans-Serif" font-size="10.00"> Dim3, i, k, l &gt;</text>
</g>
<!-- Node8 -->
<g id="node8" class="node">
<title>Node8</title>
<g id="a_node8"><a xlink:href="classFTensor_1_1Tensor3__Expr.html" target="_top" xlink:title=" ">
<polygon fill="white" stroke="black" points="309,-1560.5 309,-1601.5 449,-1601.5 449,-1560.5 309,-1560.5"/>
<text text-anchor="start" x="317" y="-1589.5" font-family="Helvetica,sans-Serif" font-size="10.00">FTensor::Tensor3_Expr</text>
<text text-anchor="start" x="317" y="-1578.5" font-family="Helvetica,sans-Serif" font-size="10.00">&lt; A, T, Dim0, Dim1, Dim,</text>
<text text-anchor="middle" x="379" y="-1567.5" font-family="Helvetica,sans-Serif" font-size="10.00"> i, j, k &gt;</text>
</a>
</g>
</g>
<!-- Node1&#45;&gt;Node8 -->
<g id="edge7" class="edge">
<title>Node1&#45;&gt;Node8</title>
<path fill="none" stroke="orange" stroke-dasharray="5,2" d="M74.07,-1011.81C74.98,-1120.43 84.07,-1483.12 164,-1559 201.79,-1594.87 261.94,-1598.18 308.86,-1593.76"/>
<polygon fill="orange" stroke="orange" points="77.56,-1011.51 74,-1001.54 70.56,-1011.56 77.56,-1011.51"/>
<text text-anchor="start" x="174" y="-1609" font-family="Helvetica,sans-Serif" font-size="10.00"> &lt; A, T, Dim0, Dim1,</text>
<text text-anchor="middle" x="224.5" y="-1598" font-family="Helvetica,sans-Serif" font-size="10.00"> Dim, i, j, k &gt;</text>
</g>
<!-- Node9 -->
<g id="node9" class="node">
<title>Node9</title>
<g id="a_node9"><a xlink:href="classFTensor_1_1Tensor3__Expr.html" target="_top" xlink:title=" ">
<polygon fill="white" stroke="black" points="317,-1500.5 317,-1541.5 441,-1541.5 441,-1500.5 317,-1500.5"/>
<text text-anchor="start" x="325" y="-1529.5" font-family="Helvetica,sans-Serif" font-size="10.00">FTensor::Tensor3_Expr</text>
<text text-anchor="start" x="325" y="-1518.5" font-family="Helvetica,sans-Serif" font-size="10.00">&lt; A, T, Dim0, Dim12,</text>
<text text-anchor="middle" x="379" y="-1507.5" font-family="Helvetica,sans-Serif" font-size="10.00"> Dim12, i, j, k &gt;</text>
</a>
</g>
</g>
<!-- Node1&#45;&gt;Node9 -->
<g id="edge8" class="edge">
<title>Node1&#45;&gt;Node9</title>
<path fill="none" stroke="orange" stroke-dasharray="5,2" d="M74.68,-1011.91C77.58,-1113.16 92.35,-1432.17 164,-1499 204.29,-1536.58 269.19,-1538.15 316.97,-1532.74"/>
<polygon fill="orange" stroke="orange" points="78.17,-1011.63 74.41,-1001.73 71.17,-1011.82 78.17,-1011.63"/>
<text text-anchor="start" x="171" y="-1549" font-family="Helvetica,sans-Serif" font-size="10.00"> &lt; A, T, Dim0, Dim12,</text>
<text text-anchor="middle" x="224.5" y="-1538" font-family="Helvetica,sans-Serif" font-size="10.00"> Dim12, i, j, k &gt;</text>
</g>
<!-- Node10 -->
<g id="node10" class="node">
<title>Node10</title>
<g id="a_node10"><a xlink:href="classFTensor_1_1Tensor3__Expr.html" target="_top" xlink:title=" ">
<polygon fill="white" stroke="black" points="305,-1440.5 305,-1481.5 453,-1481.5 453,-1440.5 305,-1440.5"/>
<text text-anchor="start" x="313" y="-1469.5" font-family="Helvetica,sans-Serif" font-size="10.00">FTensor::Tensor3_Expr</text>
<text text-anchor="start" x="313" y="-1458.5" font-family="Helvetica,sans-Serif" font-size="10.00">&lt; B, U, Dim4, Dim5, Dim6,</text>
<text text-anchor="middle" x="379" y="-1447.5" font-family="Helvetica,sans-Serif" font-size="10.00"> m, n, o &gt;</text>
</a>
</g>
</g>
<!-- Node1&#45;&gt;Node10 -->
<g id="edge9" class="edge">
<title>Node1&#45;&gt;Node10</title>
<path fill="none" stroke="orange" stroke-dasharray="5,2" d="M75.47,-1011.91C80.58,-1105.05 100.84,-1380.13 164,-1438 201.26,-1472.14 258.88,-1476.63 304.95,-1473.26"/>
<polygon fill="orange" stroke="orange" points="78.96,-1011.53 74.93,-1001.73 71.97,-1011.9 78.96,-1011.53"/>
<text text-anchor="start" x="173" y="-1488" font-family="Helvetica,sans-Serif" font-size="10.00"> &lt; B, U, Dim4, Dim5,</text>
<text text-anchor="middle" x="224.5" y="-1477" font-family="Helvetica,sans-Serif" font-size="10.00"> Dim6, m, n, o &gt;</text>
</g>
<!-- Node11 -->
<g id="node11" class="node">
<title>Node11</title>
<g id="a_node11"><a xlink:href="classFTensor_1_1Tensor3__Expr.html" target="_top" xlink:title=" ">
<polygon fill="white" stroke="black" points="317,-1380.5 317,-1421.5 441,-1421.5 441,-1380.5 317,-1380.5"/>
<text text-anchor="start" x="325" y="-1409.5" font-family="Helvetica,sans-Serif" font-size="10.00">FTensor::Tensor3_Expr</text>
<text text-anchor="start" x="325" y="-1398.5" font-family="Helvetica,sans-Serif" font-size="10.00">&lt; B, U, Dim23, Dim4,</text>
<text text-anchor="middle" x="379" y="-1387.5" font-family="Helvetica,sans-Serif" font-size="10.00"> Dim5, k, l, m &gt;</text>
</a>
</g>
</g>
<!-- Node1&#45;&gt;Node11 -->
<g id="edge10" class="edge">
<title>Node1&#45;&gt;Node11</title>
<path fill="none" stroke="orange" stroke-dasharray="5,2" d="M76.52,-1011.85C84.08,-1096.1 109.47,-1327.05 164,-1376 204.92,-1412.73 269.41,-1415.52 316.9,-1411.24"/>
<polygon fill="orange" stroke="orange" points="79.99,-1011.3 75.63,-1001.65 73.02,-1011.91 79.99,-1011.3"/>
<text text-anchor="start" x="170" y="-1426" font-family="Helvetica,sans-Serif" font-size="10.00"> &lt; B, U, Dim23, Dim4,</text>
<text text-anchor="middle" x="224.5" y="-1415" font-family="Helvetica,sans-Serif" font-size="10.00"> Dim5, k, l, m &gt;</text>
</g>
<!-- Node12 -->
<g id="node12" class="node">
<title>Node12</title>
<g id="a_node12"><a xlink:href="classFTensor_1_1Tensor3__Expr.html" target="_top" xlink:title=" ">
<polygon fill="white" stroke="black" points="315,-1320.5 315,-1361.5 443,-1361.5 443,-1320.5 315,-1320.5"/>
<text text-anchor="start" x="323" y="-1349.5" font-family="Helvetica,sans-Serif" font-size="10.00">FTensor::Tensor3_Expr</text>
<text text-anchor="start" x="323" y="-1338.5" font-family="Helvetica,sans-Serif" font-size="10.00">&lt; B, U, Dim13, Dim04,</text>
<text text-anchor="middle" x="379" y="-1327.5" font-family="Helvetica,sans-Serif" font-size="10.00"> Dim5, j, i, l &gt;</text>
</a>
</g>
</g>
<!-- Node1&#45;&gt;Node12 -->
<g id="edge11" class="edge">
<title>Node1&#45;&gt;Node12</title>
<path fill="none" stroke="orange" stroke-dasharray="5,2" d="M78.03,-1012.13C88.36,-1086.83 118.24,-1273.02 164,-1313 204.77,-1348.62 267.7,-1352.95 314.78,-1349.97"/>
<polygon fill="orange" stroke="orange" points="81.46,-1011.38 76.65,-1001.94 74.53,-1012.32 81.46,-1011.38"/>
<text text-anchor="start" x="167" y="-1364" font-family="Helvetica,sans-Serif" font-size="10.00"> &lt; B, U, Dim13, Dim04,</text>
<text text-anchor="middle" x="224.5" y="-1353" font-family="Helvetica,sans-Serif" font-size="10.00"> Dim5, j, i, l &gt;</text>
</g>
<!-- Node13 -->
<g id="node13" class="node">
<title>Node13</title>
<g id="a_node13"><a xlink:href="classFTensor_1_1Tensor3__Expr.html" target="_top" xlink:title=" ">
<polygon fill="white" stroke="black" points="316,-1260.5 316,-1301.5 442,-1301.5 442,-1260.5 316,-1260.5"/>
<text text-anchor="start" x="324" y="-1289.5" font-family="Helvetica,sans-Serif" font-size="10.00">FTensor::Tensor3_Expr</text>
<text text-anchor="start" x="324" y="-1278.5" font-family="Helvetica,sans-Serif" font-size="10.00">&lt; A, T, Dim04, Dim13,</text>
<text text-anchor="middle" x="379" y="-1267.5" font-family="Helvetica,sans-Serif" font-size="10.00"> Dim2, i, j, k &gt;</text>
</a>
</g>
</g>
<!-- Node1&#45;&gt;Node13 -->
<g id="edge12" class="edge">
<title>Node1&#45;&gt;Node13</title>
<path fill="none" stroke="orange" stroke-dasharray="5,2" d="M74.6,-1011.69C77.49,-1068.02 92.26,-1187.65 164,-1248 205.71,-1283.09 268.83,-1289.01 315.72,-1287.56"/>
<polygon fill="orange" stroke="orange" points="78.1,-1011.47 74.18,-1001.62 71.1,-1011.76 78.1,-1011.47"/>
<text text-anchor="start" x="168" y="-1301" font-family="Helvetica,sans-Serif" font-size="10.00"> &lt; A, T, Dim04, Dim13,</text>
<text text-anchor="middle" x="224.5" y="-1290" font-family="Helvetica,sans-Serif" font-size="10.00"> Dim2, i, j, k &gt;</text>
</g>
<!-- Node14 -->
<g id="node14" class="node">
<title>Node14</title>
<g id="a_node14"><a xlink:href="classFTensor_1_1Tensor3__Expr.html" target="_top" xlink:title=" ">
<polygon fill="white" stroke="black" points="317,-1200.5 317,-1241.5 441,-1241.5 441,-1200.5 317,-1200.5"/>
<text text-anchor="start" x="325" y="-1229.5" font-family="Helvetica,sans-Serif" font-size="10.00">FTensor::Tensor3_Expr</text>
<text text-anchor="start" x="325" y="-1218.5" font-family="Helvetica,sans-Serif" font-size="10.00">&lt; B, U, Dim02, Dim1,</text>
<text text-anchor="middle" x="379" y="-1207.5" font-family="Helvetica,sans-Serif" font-size="10.00"> Dim02, j, i, k &gt;</text>
</a>
</g>
</g>
<!-- Node1&#45;&gt;Node14 -->
<g id="edge13" class="edge">
<title>Node1&#45;&gt;Node14</title>
<path fill="none" stroke="orange" stroke-dasharray="5,2" d="M78.7,-1011.48C87.27,-1056.07 109.83,-1138.4 164,-1181 207.23,-1214.99 270.45,-1223.27 316.97,-1224.08"/>
<polygon fill="orange" stroke="orange" points="82.12,-1010.74 76.9,-1001.52 75.23,-1011.98 82.12,-1010.74"/>
<text text-anchor="start" x="170" y="-1236" font-family="Helvetica,sans-Serif" font-size="10.00"> &lt; B, U, Dim02, Dim1,</text>
<text text-anchor="middle" x="224.5" y="-1225" font-family="Helvetica,sans-Serif" font-size="10.00"> Dim02, j, i, k &gt;</text>
</g>
<!-- Node15 -->
<g id="node15" class="node">
<title>Node15</title>
<g id="a_node15"><a xlink:href="classFTensor_1_1Tensor3__Expr.html" target="_top" xlink:title=" ">
<polygon fill="white" stroke="black" points="317,-1140.5 317,-1181.5 441,-1181.5 441,-1140.5 317,-1140.5"/>
<text text-anchor="start" x="325" y="-1169.5" font-family="Helvetica,sans-Serif" font-size="10.00">FTensor::Tensor3_Expr</text>
<text text-anchor="start" x="325" y="-1158.5" font-family="Helvetica,sans-Serif" font-size="10.00">&lt; A, T, Dim02, Dim1,</text>
<text text-anchor="middle" x="379" y="-1147.5" font-family="Helvetica,sans-Serif" font-size="10.00"> Dim02, i, j, k &gt;</text>
</a>
</g>
</g>
<!-- Node1&#45;&gt;Node15 -->
<g id="edge14" class="edge">
<title>Node1&#45;&gt;Node15</title>
<path fill="none" stroke="orange" stroke-dasharray="5,2" d="M86.18,-1011.39C100.22,-1042.39 126.32,-1089.47 164,-1115 209.3,-1145.7 271.35,-1156.41 316.97,-1159.92"/>
<polygon fill="orange" stroke="orange" points="89.26,-1009.7 82.05,-1001.94 82.85,-1012.5 89.26,-1009.7"/>
<text text-anchor="start" x="171" y="-1169" font-family="Helvetica,sans-Serif" font-size="10.00"> &lt; A, T, Dim02, Dim1,</text>
<text text-anchor="middle" x="224.5" y="-1158" font-family="Helvetica,sans-Serif" font-size="10.00"> Dim02, i, j, k &gt;</text>
</g>
<!-- Node16 -->
<g id="node16" class="node">
<title>Node16</title>
<g id="a_node16"><a xlink:href="classFTensor_1_1Tensor3__Expr.html" target="_top" xlink:title=" ">
<polygon fill="white" stroke="black" points="305,-1080.5 305,-1121.5 453,-1121.5 453,-1080.5 305,-1080.5"/>
<text text-anchor="start" x="313" y="-1109.5" font-family="Helvetica,sans-Serif" font-size="10.00">FTensor::Tensor3_Expr</text>
<text text-anchor="start" x="313" y="-1098.5" font-family="Helvetica,sans-Serif" font-size="10.00">&lt; B, U, Dim2, Dim0, Dim1,</text>
<text text-anchor="middle" x="379" y="-1087.5" font-family="Helvetica,sans-Serif" font-size="10.00"> k, i, j &gt;</text>
</a>
</g>
</g>
<!-- Node1&#45;&gt;Node16 -->
<g id="edge15" class="edge">
<title>Node1&#45;&gt;Node16</title>
<path fill="none" stroke="orange" stroke-dasharray="5,2" d="M101.13,-1008.68C117.87,-1024.23 140.58,-1042.72 164,-1054 208.21,-1075.29 262.2,-1087.06 304.89,-1093.5"/>
<polygon fill="orange" stroke="orange" points="103.53,-1006.14 93.87,-1001.78 98.71,-1011.21 103.53,-1006.14"/>
<text text-anchor="start" x="173" y="-1103" font-family="Helvetica,sans-Serif" font-size="10.00"> &lt; B, U, Dim2, Dim0,</text>
<text text-anchor="middle" x="224.5" y="-1092" font-family="Helvetica,sans-Serif" font-size="10.00"> Dim1, k, i, j &gt;</text>
</g>
<!-- Node17 -->
<g id="node17" class="node">
<title>Node17</title>
<g id="a_node17"><a xlink:href="classFTensor_1_1Tensor3__Expr.html" target="_top" xlink:title=" ">
<polygon fill="white" stroke="black" points="305,-1020.5 305,-1061.5 453,-1061.5 453,-1020.5 305,-1020.5"/>
<text text-anchor="start" x="313" y="-1049.5" font-family="Helvetica,sans-Serif" font-size="10.00">FTensor::Tensor3_Expr</text>
<text text-anchor="start" x="313" y="-1038.5" font-family="Helvetica,sans-Serif" font-size="10.00">&lt; B, U, Dim4, Dim2, Dim1,</text>
<text text-anchor="middle" x="379" y="-1027.5" font-family="Helvetica,sans-Serif" font-size="10.00"> m, k, j &gt;</text>
</a>
</g>
</g>
<!-- Node1&#45;&gt;Node17 -->
<g id="edge16" class="edge">
<title>Node1&#45;&gt;Node17</title>
<path fill="none" stroke="orange" stroke-dasharray="5,2" d="M152.09,-1004.19C156.11,-1005.19 160.09,-1006.13 164,-1007 210.45,-1017.36 263.24,-1025.78 304.78,-1031.65"/>
<polygon fill="orange" stroke="orange" points="152.63,-1000.72 142.08,-1001.63 150.9,-1007.5 152.63,-1000.72"/>
<text text-anchor="start" x="173" y="-1042" font-family="Helvetica,sans-Serif" font-size="10.00"> &lt; B, U, Dim4, Dim2,</text>
<text text-anchor="middle" x="224.5" y="-1031" font-family="Helvetica,sans-Serif" font-size="10.00"> Dim1, m, k, j &gt;</text>
</g>
<!-- Node18 -->
<g id="node18" class="node">
<title>Node18</title>
<g id="a_node18"><a xlink:href="classFTensor_1_1Tensor3__Expr.html" target="_top" xlink:title=" ">
<polygon fill="white" stroke="black" points="305,-960.5 305,-1001.5 453,-1001.5 453,-960.5 305,-960.5"/>
<text text-anchor="start" x="313" y="-989.5" font-family="Helvetica,sans-Serif" font-size="10.00">FTensor::Tensor3_Expr</text>
<text text-anchor="start" x="313" y="-978.5" font-family="Helvetica,sans-Serif" font-size="10.00">&lt; B, U, Dim1, Dim0, Dim2,</text>
<text text-anchor="middle" x="379" y="-967.5" font-family="Helvetica,sans-Serif" font-size="10.00"> j, i, k &gt;</text>
</a>
</g>
</g>
<!-- Node1&#45;&gt;Node18 -->
<g id="edge17" class="edge">
<title>Node1&#45;&gt;Node18</title>
<path fill="none" stroke="orange" stroke-dasharray="5,2" d="M156.07,-981C202.49,-981 260.03,-981 304.89,-981"/>
<polygon fill="orange" stroke="orange" points="156.04,-977.5 146.04,-981 156.04,-984.5 156.04,-977.5"/>
<text text-anchor="start" x="173" y="-995" font-family="Helvetica,sans-Serif" font-size="10.00"> &lt; B, U, Dim1, Dim0,</text>
<text text-anchor="middle" x="224.5" y="-984" font-family="Helvetica,sans-Serif" font-size="10.00"> Dim2, j, i, k &gt;</text>
</g>
<!-- Node19 -->
<g id="node19" class="node">
<title>Node19</title>
<g id="a_node19"><a xlink:href="classFTensor_1_1Tensor3__Expr.html" target="_top" xlink:title=" ">
<polygon fill="white" stroke="black" points="317,-900.5 317,-941.5 441,-941.5 441,-900.5 317,-900.5"/>
<text text-anchor="start" x="325" y="-929.5" font-family="Helvetica,sans-Serif" font-size="10.00">FTensor::Tensor3_Expr</text>
<text text-anchor="start" x="325" y="-918.5" font-family="Helvetica,sans-Serif" font-size="10.00">&lt; A, T, Dim0, Dim15,</text>
<text text-anchor="middle" x="379" y="-907.5" font-family="Helvetica,sans-Serif" font-size="10.00"> Dim24, i, k, l &gt;</text>
</a>
</g>
</g>
<!-- Node1&#45;&gt;Node19 -->
<g id="edge18" class="edge">
<title>Node1&#45;&gt;Node19</title>
<path fill="none" stroke="orange" stroke-dasharray="5,2" d="M152.09,-957.81C156.11,-956.81 160.09,-955.87 164,-955 215.04,-943.62 273.74,-934.57 316.74,-928.68"/>
<polygon fill="orange" stroke="orange" points="150.9,-954.5 142.08,-960.37 152.63,-961.28 150.9,-954.5"/>
<text text-anchor="start" x="171" y="-969" font-family="Helvetica,sans-Serif" font-size="10.00"> &lt; A, T, Dim0, Dim15,</text>
<text text-anchor="middle" x="224.5" y="-958" font-family="Helvetica,sans-Serif" font-size="10.00"> Dim24, i, k, l &gt;</text>
</g>
<!-- Node20 -->
<g id="node20" class="node">
<title>Node20</title>
<g id="a_node20"><a xlink:href="classFTensor_1_1Tensor3__Expr.html" target="_top" xlink:title=" ">
<polygon fill="white" stroke="black" points="315,-840.5 315,-881.5 443,-881.5 443,-840.5 315,-840.5"/>
<text text-anchor="start" x="323" y="-869.5" font-family="Helvetica,sans-Serif" font-size="10.00">FTensor::Tensor3_Expr</text>
<text text-anchor="start" x="323" y="-858.5" font-family="Helvetica,sans-Serif" font-size="10.00">&lt; B, U, Dim03, Dim14,</text>
<text text-anchor="middle" x="379" y="-847.5" font-family="Helvetica,sans-Serif" font-size="10.00"> Dim5, i, j, l &gt;</text>
</a>
</g>
</g>
<!-- Node1&#45;&gt;Node20 -->
<g id="edge19" class="edge">
<title>Node1&#45;&gt;Node20</title>
<path fill="none" stroke="orange" stroke-dasharray="5,2" d="M100.71,-953.21C117.45,-937.36 140.31,-918.44 164,-907 211.56,-884.03 270.57,-872.44 314.56,-866.65"/>
<polygon fill="orange" stroke="orange" points="98.2,-950.76 93.46,-960.23 103.08,-955.79 98.2,-950.76"/>
<text text-anchor="start" x="167" y="-921" font-family="Helvetica,sans-Serif" font-size="10.00"> &lt; B, U, Dim03, Dim14,</text>
<text text-anchor="middle" x="224.5" y="-910" font-family="Helvetica,sans-Serif" font-size="10.00"> Dim5, i, j, l &gt;</text>
</g>
<!-- Node21 -->
<g id="node21" class="node">
<title>Node21</title>
<g id="a_node21"><a xlink:href="classFTensor_1_1Tensor3__Expr.html" target="_top" xlink:title=" ">
<polygon fill="white" stroke="black" points="309,-780.5 309,-821.5 449,-821.5 449,-780.5 309,-780.5"/>
<text text-anchor="start" x="317" y="-809.5" font-family="Helvetica,sans-Serif" font-size="10.00">FTensor::Tensor3_Expr</text>
<text text-anchor="start" x="317" y="-798.5" font-family="Helvetica,sans-Serif" font-size="10.00">&lt; A, T, Dim, Dim1, Dim2,</text>
<text text-anchor="middle" x="379" y="-787.5" font-family="Helvetica,sans-Serif" font-size="10.00"> i, j, k &gt;</text>
</a>
</g>
</g>
<!-- Node1&#45;&gt;Node21 -->
<g id="edge20" class="edge">
<title>Node1&#45;&gt;Node21</title>
<path fill="none" stroke="orange" stroke-dasharray="5,2" d="M85.67,-950.88C99.49,-919.37 125.59,-870.97 164,-845 206.58,-816.21 264.04,-805.57 308.69,-801.94"/>
<polygon fill="orange" stroke="orange" points="82.29,-949.89 81.61,-960.46 88.73,-952.62 82.29,-949.89"/>
<text text-anchor="start" x="177" y="-859" font-family="Helvetica,sans-Serif" font-size="10.00"> &lt; A, T, Dim, Dim1,</text>
<text text-anchor="middle" x="224.5" y="-848" font-family="Helvetica,sans-Serif" font-size="10.00"> Dim2, i, j, k &gt;</text>
</g>
<!-- Node22 -->
<g id="node22" class="node">
<title>Node22</title>
<g id="a_node22"><a xlink:href="classFTensor_1_1Tensor3__Expr.html" target="_top" xlink:title=" ">
<polygon fill="white" stroke="black" points="312,-720.5 312,-761.5 446,-761.5 446,-720.5 312,-720.5"/>
<text text-anchor="start" x="320" y="-749.5" font-family="Helvetica,sans-Serif" font-size="10.00">FTensor::Tensor3_Expr</text>
<text text-anchor="start" x="320" y="-738.5" font-family="Helvetica,sans-Serif" font-size="10.00">&lt; A, T, Dim, Dim, Dim2,</text>
<text text-anchor="middle" x="379" y="-727.5" font-family="Helvetica,sans-Serif" font-size="10.00"> j, k, i &gt;</text>
</a>
</g>
</g>
<!-- Node1&#45;&gt;Node22 -->
<g id="edge21" class="edge">
<title>Node1&#45;&gt;Node22</title>
<path fill="none" stroke="orange" stroke-dasharray="5,2" d="M78.55,-950.16C86.94,-905.05 109.26,-821.81 164,-779 205.61,-746.46 265.71,-738.14 311.64,-737.29"/>
<polygon fill="orange" stroke="orange" points="75.07,-949.78 76.8,-960.23 81.96,-950.98 75.07,-949.78"/>
<text text-anchor="start" x="164" y="-793" font-family="Helvetica,sans-Serif" font-size="10.00"> &lt; A, T, Dim, Dim, Dim2,</text>
<text text-anchor="middle" x="224.5" y="-782" font-family="Helvetica,sans-Serif" font-size="10.00"> j, k, i &gt;</text>
</g>
<!-- Node23 -->
<g id="node23" class="node">
<title>Node23</title>
<g id="a_node23"><a xlink:href="classFTensor_1_1Tensor3__Expr.html" target="_top" xlink:title=" ">
<polygon fill="white" stroke="black" points="316,-660.5 316,-701.5 442,-701.5 442,-660.5 316,-660.5"/>
<text text-anchor="start" x="324" y="-689.5" font-family="Helvetica,sans-Serif" font-size="10.00">FTensor::Tensor3_Expr</text>
<text text-anchor="start" x="324" y="-678.5" font-family="Helvetica,sans-Serif" font-size="10.00">&lt; A, T, Dim03, Dim14,</text>
<text text-anchor="middle" x="379" y="-667.5" font-family="Helvetica,sans-Serif" font-size="10.00"> Dim2, i, j, k &gt;</text>
</a>
</g>
</g>
<!-- Node1&#45;&gt;Node23 -->
<g id="edge22" class="edge">
<title>Node1&#45;&gt;Node23</title>
<path fill="none" stroke="orange" stroke-dasharray="5,2" d="M74.47,-950.02C77.14,-893.18 91.57,-772.5 164,-712 205.78,-677.1 268.88,-671.79 315.75,-673.75"/>
<polygon fill="orange" stroke="orange" points="70.97,-950.06 74.09,-960.18 77.96,-950.32 70.97,-950.06"/>
<text text-anchor="start" x="168" y="-726" font-family="Helvetica,sans-Serif" font-size="10.00"> &lt; A, T, Dim03, Dim14,</text>
<text text-anchor="middle" x="224.5" y="-715" font-family="Helvetica,sans-Serif" font-size="10.00"> Dim2, i, j, k &gt;</text>
</g>
<!-- Node24 -->
<g id="node24" class="node">
<title>Node24</title>
<g id="a_node24"><a xlink:href="classFTensor_1_1Tensor3__Expr.html" target="_top" xlink:title=" ">
<polygon fill="white" stroke="black" points="317,-600.5 317,-641.5 441,-641.5 441,-600.5 317,-600.5"/>
<text text-anchor="start" x="325" y="-629.5" font-family="Helvetica,sans-Serif" font-size="10.00">FTensor::Tensor3_Expr</text>
<text text-anchor="start" x="325" y="-618.5" font-family="Helvetica,sans-Serif" font-size="10.00">&lt; B, U, Dim0, Dim12,</text>
<text text-anchor="middle" x="379" y="-607.5" font-family="Helvetica,sans-Serif" font-size="10.00"> Dim12, i, k, j &gt;</text>
</a>
</g>
</g>
<!-- Node1&#45;&gt;Node24 -->
<g id="edge23" class="edge">
<title>Node1&#45;&gt;Node24</title>
<path fill="none" stroke="orange" stroke-dasharray="5,2" d="M77.91,-950.19C88.06,-875.34 117.72,-687.12 164,-647 205.43,-611.08 269.52,-607.76 316.77,-611.49"/>
<polygon fill="orange" stroke="orange" points="74.4,-950 76.55,-960.38 81.34,-950.93 74.4,-950"/>
<text text-anchor="start" x="170" y="-661" font-family="Helvetica,sans-Serif" font-size="10.00"> &lt; B, U, Dim0, Dim12,</text>
<text text-anchor="middle" x="224.5" y="-650" font-family="Helvetica,sans-Serif" font-size="10.00"> Dim12, i, k, j &gt;</text>
</g>
<!-- Node25 -->
<g id="node25" class="node">
<title>Node25</title>
<g id="a_node25"><a xlink:href="classFTensor_1_1Tensor3__Expr.html" target="_top" xlink:title=" ">
<polygon fill="white" stroke="black" points="317,-540.5 317,-581.5 441,-581.5 441,-540.5 317,-540.5"/>
<text text-anchor="start" x="325" y="-569.5" font-family="Helvetica,sans-Serif" font-size="10.00">FTensor::Tensor3_Expr</text>
<text text-anchor="start" x="325" y="-558.5" font-family="Helvetica,sans-Serif" font-size="10.00">&lt; B, U, Dim02, Dim1,</text>
<text text-anchor="middle" x="379" y="-547.5" font-family="Helvetica,sans-Serif" font-size="10.00"> Dim02, k, j, i &gt;</text>
</a>
</g>
</g>
<!-- Node1&#45;&gt;Node25 -->
<g id="edge24" class="edge">
<title>Node1&#45;&gt;Node25</title>
<path fill="none" stroke="orange" stroke-dasharray="5,2" d="M76.43,-950.52C83.8,-866.24 108.89,-633.07 164,-584 205.02,-547.47 269.5,-545.31 316.96,-550.09"/>
<polygon fill="orange" stroke="orange" points="72.94,-950.23 75.58,-960.49 79.92,-950.82 72.94,-950.23"/>
<text text-anchor="start" x="170" y="-598" font-family="Helvetica,sans-Serif" font-size="10.00"> &lt; B, U, Dim02, Dim1,</text>
<text text-anchor="middle" x="224.5" y="-587" font-family="Helvetica,sans-Serif" font-size="10.00"> Dim02, k, j, i &gt;</text>
</g>
<!-- Node26 -->
<g id="node26" class="node">
<title>Node26</title>
<g id="a_node26"><a xlink:href="classFTensor_1_1Tensor3__Expr.html" target="_top" xlink:title=" ">
<polygon fill="white" stroke="black" points="309,-480.5 309,-521.5 449,-521.5 449,-480.5 309,-480.5"/>
<text text-anchor="start" x="317" y="-509.5" font-family="Helvetica,sans-Serif" font-size="10.00">FTensor::Tensor3_Expr</text>
<text text-anchor="start" x="317" y="-498.5" font-family="Helvetica,sans-Serif" font-size="10.00">&lt; A, T, Dim0, Dim, Dim2,</text>
<text text-anchor="middle" x="379" y="-487.5" font-family="Helvetica,sans-Serif" font-size="10.00"> i, j, k &gt;</text>
</a>
</g>
</g>
<!-- Node1&#45;&gt;Node26 -->
<g id="edge25" class="edge">
<title>Node1&#45;&gt;Node26</title>
<path fill="none" stroke="orange" stroke-dasharray="5,2" d="M75.41,-950.25C80.36,-856.94 100.26,-579.91 164,-522 202.41,-487.11 262.2,-483.91 308.83,-488.28"/>
<polygon fill="orange" stroke="orange" points="71.9,-950.28 74.89,-960.44 78.89,-950.63 71.9,-950.28"/>
<text text-anchor="start" x="177" y="-536" font-family="Helvetica,sans-Serif" font-size="10.00"> &lt; A, T, Dim0, Dim,</text>
<text text-anchor="middle" x="224.5" y="-525" font-family="Helvetica,sans-Serif" font-size="10.00"> Dim2, i, j, k &gt;</text>
</g>
<!-- Node27 -->
<g id="node27" class="node">
<title>Node27</title>
<g id="a_node27"><a xlink:href="classFTensor_1_1Tensor3__Expr.html" target="_top" xlink:title=" ">
<polygon fill="white" stroke="black" points="305,-420.5 305,-461.5 453,-461.5 453,-420.5 305,-420.5"/>
<text text-anchor="start" x="313" y="-449.5" font-family="Helvetica,sans-Serif" font-size="10.00">FTensor::Tensor3_Expr</text>
<text text-anchor="start" x="313" y="-438.5" font-family="Helvetica,sans-Serif" font-size="10.00">&lt; B, U, Dim2, Dim1, Dim0,</text>
<text text-anchor="middle" x="379" y="-427.5" font-family="Helvetica,sans-Serif" font-size="10.00"> k, j, i &gt;</text>
</a>
</g>
</g>
<!-- Node1&#45;&gt;Node27 -->
<g id="edge26" class="edge">
<title>Node1&#45;&gt;Node27</title>
<path fill="none" stroke="orange" stroke-dasharray="5,2" d="M74.6,-950.22C77.28,-848.65 91.44,-526.81 164,-460 201.11,-425.83 258.74,-422.46 304.85,-426.89"/>
<polygon fill="orange" stroke="orange" points="71.1,-950.34 74.35,-960.42 78.1,-950.51 71.1,-950.34"/>
<text text-anchor="start" x="173" y="-474" font-family="Helvetica,sans-Serif" font-size="10.00"> &lt; B, U, Dim2, Dim1,</text>
<text text-anchor="middle" x="224.5" y="-463" font-family="Helvetica,sans-Serif" font-size="10.00"> Dim0, k, j, i &gt;</text>
</g>
<!-- Node28 -->
<g id="node28" class="node">
<title>Node28</title>
<g id="a_node28"><a xlink:href="classFTensor_1_1Tensor3__Expr.html" target="_top" xlink:title=" ">
<polygon fill="white" stroke="black" points="305,-360.5 305,-401.5 453,-401.5 453,-360.5 305,-360.5"/>
<text text-anchor="start" x="313" y="-389.5" font-family="Helvetica,sans-Serif" font-size="10.00">FTensor::Tensor3_Expr</text>
<text text-anchor="start" x="313" y="-378.5" font-family="Helvetica,sans-Serif" font-size="10.00">&lt; B, U, Dim0, Dim1, Dim2,</text>
<text text-anchor="middle" x="379" y="-367.5" font-family="Helvetica,sans-Serif" font-size="10.00"> i, j, k &gt;</text>
</a>
</g>
</g>
<!-- Node1&#45;&gt;Node28 -->
<g id="edge27" class="edge">
<title>Node1&#45;&gt;Node28</title>
<path fill="none" stroke="orange" stroke-dasharray="5,2" d="M73.98,-950.26C74.6,-841.13 82.78,-474.76 164,-399 200.94,-364.54 258.73,-361.52 304.95,-366.3"/>
<polygon fill="orange" stroke="orange" points="70.48,-950.28 73.94,-960.29 77.48,-950.3 70.48,-950.28"/>
<text text-anchor="start" x="173" y="-413" font-family="Helvetica,sans-Serif" font-size="10.00"> &lt; B, U, Dim0, Dim1,</text>
<text text-anchor="middle" x="224.5" y="-402" font-family="Helvetica,sans-Serif" font-size="10.00"> Dim2, i, j, k &gt;</text>
</g>
<!-- Node29 -->
<g id="node29" class="node">
<title>Node29</title>
<g id="a_node29"><a xlink:href="classFTensor_1_1Tensor3__Expr.html" target="_top" xlink:title=" ">
<polygon fill="white" stroke="black" points="312,-300.5 312,-341.5 446,-341.5 446,-300.5 312,-300.5"/>
<text text-anchor="start" x="320" y="-329.5" font-family="Helvetica,sans-Serif" font-size="10.00">FTensor::Tensor3_Expr</text>
<text text-anchor="start" x="320" y="-318.5" font-family="Helvetica,sans-Serif" font-size="10.00">&lt; A, T, Dim, Dim1, Dim,</text>
<text text-anchor="middle" x="379" y="-307.5" font-family="Helvetica,sans-Serif" font-size="10.00"> j, i, k &gt;</text>
</a>
</g>
</g>
<!-- Node1&#45;&gt;Node29 -->
<g id="edge28" class="edge">
<title>Node1&#45;&gt;Node29</title>
<path fill="none" stroke="orange" stroke-dasharray="5,2" d="M73.47,-950.14C72.16,-833.62 74.09,-422.69 164,-338 202.66,-301.59 264.59,-300.44 311.9,-306.59"/>
<polygon fill="orange" stroke="orange" points="69.97,-950.22 73.6,-960.18 76.97,-950.13 69.97,-950.22"/>
<text text-anchor="start" x="177" y="-352" font-family="Helvetica,sans-Serif" font-size="10.00"> &lt; A, T, Dim, Dim1,</text>
<text text-anchor="middle" x="224.5" y="-341" font-family="Helvetica,sans-Serif" font-size="10.00"> Dim, j, i, k &gt;</text>
</g>
<!-- Node30 -->
<g id="node30" class="node">
<title>Node30</title>
<g id="a_node30"><a xlink:href="classFTensor_1_1Tensor3__Expr.html" target="_top" xlink:title=" ">
<polygon fill="white" stroke="black" points="303,-240.5 303,-281.5 455,-281.5 455,-240.5 303,-240.5"/>
<text text-anchor="start" x="311" y="-269.5" font-family="Helvetica,sans-Serif" font-size="10.00">FTensor::Tensor3_Expr</text>
<text text-anchor="start" x="311" y="-258.5" font-family="Helvetica,sans-Serif" font-size="10.00">&lt; A, T, Dim0, Dim1, Dim23,</text>
<text text-anchor="middle" x="379" y="-247.5" font-family="Helvetica,sans-Serif" font-size="10.00"> i, j, k &gt;</text>
</a>
</g>
</g>
<!-- Node1&#45;&gt;Node30 -->
<g id="edge29" class="edge">
<title>Node1&#45;&gt;Node30</title>
<path fill="none" stroke="orange" stroke-dasharray="5,2" d="M75.67,-950.4C83,-821.13 114.28,-324.17 164,-277 200.15,-242.7 256.94,-239.88 302.94,-245"/>
<polygon fill="orange" stroke="orange" points="72.17,-950.24 75.1,-960.42 79.16,-950.63 72.17,-950.24"/>
<text text-anchor="start" x="174" y="-291" font-family="Helvetica,sans-Serif" font-size="10.00"> &lt; A, T, Dim0, Dim1,</text>
<text text-anchor="middle" x="224.5" y="-280" font-family="Helvetica,sans-Serif" font-size="10.00"> Dim23, i, j, k &gt;</text>
</g>
<!-- Node31 -->
<g id="node31" class="node">
<title>Node31</title>
<g id="a_node31"><a xlink:href="classFTensor_1_1Tensor3__Expr.html" target="_top" xlink:title=" ">
<polygon fill="white" stroke="black" points="305,-180.5 305,-221.5 453,-221.5 453,-180.5 305,-180.5"/>
<text text-anchor="start" x="313" y="-209.5" font-family="Helvetica,sans-Serif" font-size="10.00">FTensor::Tensor3_Expr</text>
<text text-anchor="start" x="313" y="-198.5" font-family="Helvetica,sans-Serif" font-size="10.00">&lt; B, U, Dim0, Dim2, Dim1,</text>
<text text-anchor="middle" x="379" y="-187.5" font-family="Helvetica,sans-Serif" font-size="10.00"> i, k, j &gt;</text>
</a>
</g>
</g>
<!-- Node1&#45;&gt;Node31 -->
<g id="edge30" class="edge">
<title>Node1&#45;&gt;Node31</title>
<path fill="none" stroke="orange" stroke-dasharray="5,2" d="M75.36,-950.04C81.67,-813.37 110.07,-268.68 164,-217 200.52,-182.01 258.48,-179.63 304.88,-185.11"/>
<polygon fill="orange" stroke="orange" points="71.86,-950.07 74.9,-960.22 78.85,-950.39 71.86,-950.07"/>
<text text-anchor="start" x="173" y="-231" font-family="Helvetica,sans-Serif" font-size="10.00"> &lt; B, U, Dim0, Dim2,</text>
<text text-anchor="middle" x="224.5" y="-220" font-family="Helvetica,sans-Serif" font-size="10.00"> Dim1, i, k, j &gt;</text>
</g>
<!-- Node32 -->
<g id="node32" class="node">
<title>Node32</title>
<g id="a_node32"><a xlink:href="classFTensor_1_1Tensor3__Expr.html" target="_top" xlink:title=" ">
<polygon fill="white" stroke="black" points="305,-120.5 305,-161.5 453,-161.5 453,-120.5 305,-120.5"/>
<text text-anchor="start" x="313" y="-149.5" font-family="Helvetica,sans-Serif" font-size="10.00">FTensor::Tensor3_Expr</text>
<text text-anchor="start" x="313" y="-138.5" font-family="Helvetica,sans-Serif" font-size="10.00">&lt; B, U, Dim1, Dim2, Dim0,</text>
<text text-anchor="middle" x="379" y="-127.5" font-family="Helvetica,sans-Serif" font-size="10.00"> j, k, i &gt;</text>
</a>
</g>
</g>
<!-- Node1&#45;&gt;Node32 -->
<g id="edge31" class="edge">
<title>Node1&#45;&gt;Node32</title>
<path fill="none" stroke="orange" stroke-dasharray="5,2" d="M75.08,-949.9C80.36,-806.33 105.62,-212.16 164,-156 200.44,-120.95 258.4,-118.85 304.82,-124.62"/>
<polygon fill="orange" stroke="orange" points="71.57,-950.07 74.71,-960.19 78.57,-950.32 71.57,-950.07"/>
<text text-anchor="start" x="173" y="-170" font-family="Helvetica,sans-Serif" font-size="10.00"> &lt; B, U, Dim1, Dim2,</text>
<text text-anchor="middle" x="224.5" y="-159" font-family="Helvetica,sans-Serif" font-size="10.00"> Dim0, j, k, i &gt;</text>
</g>
<!-- Node33 -->
<g id="node33" class="node">
<title>Node33</title>
<g id="a_node33"><a xlink:href="classFTensor_1_1Tensor3__Expr.html" target="_top" xlink:title=" ">
<polygon fill="white" stroke="black" points="317,-60.5 317,-101.5 441,-101.5 441,-60.5 317,-60.5"/>
<text text-anchor="start" x="325" y="-89.5" font-family="Helvetica,sans-Serif" font-size="10.00">FTensor::Tensor3_Expr</text>
<text text-anchor="start" x="325" y="-78.5" font-family="Helvetica,sans-Serif" font-size="10.00">&lt; B, U, Dim3, Dim14,</text>
<text text-anchor="middle" x="379" y="-67.5" font-family="Helvetica,sans-Serif" font-size="10.00"> Dim25, l, i, j &gt;</text>
</a>
</g>
</g>
<!-- Node1&#45;&gt;Node33 -->
<g id="edge32" class="edge">
<title>Node1&#45;&gt;Node33</title>
<path fill="none" stroke="orange" stroke-dasharray="5,2" d="M74.83,-950.07C79.15,-800.49 101.31,-156.75 164,-96 203.45,-57.77 268.48,-58.61 316.52,-66.2"/>
<polygon fill="orange" stroke="orange" points="71.32,-950.26 74.54,-960.36 78.32,-950.46 71.32,-950.26"/>
<text text-anchor="start" x="170" y="-110" font-family="Helvetica,sans-Serif" font-size="10.00"> &lt; B, U, Dim3, Dim14,</text>
<text text-anchor="middle" x="224.5" y="-99" font-family="Helvetica,sans-Serif" font-size="10.00"> Dim25, l, i, j &gt;</text>
</g>
<!-- Node34 -->
<g id="node34" class="node">
<title>Node34</title>
<g id="a_node34"><a xlink:href="classFTensor_1_1Tensor3__Expr.html" target="_top" xlink:title=" ">
<polygon fill="white" stroke="black" points="303,-0.5 303,-41.5 455,-41.5 455,-0.5 303,-0.5"/>
<text text-anchor="start" x="311" y="-29.5" font-family="Helvetica,sans-Serif" font-size="10.00">FTensor::Tensor3_Expr</text>
<text text-anchor="start" x="311" y="-18.5" font-family="Helvetica,sans-Serif" font-size="10.00">&lt; A, T, Dim2, Dim1, Dim01,</text>
<text text-anchor="middle" x="379" y="-7.5" font-family="Helvetica,sans-Serif" font-size="10.00"> j, i, k &gt;</text>
</a>
</g>
</g>
<!-- Node1&#45;&gt;Node34 -->
<g id="edge33" class="edge">
<title>Node1&#45;&gt;Node34</title>
<path fill="none" stroke="orange" stroke-dasharray="5,2" d="M74.62,-949.99C78.06,-794.13 97.03,-101.32 164,-36 199.73,-1.15 256.69,1.32 302.86,-4.23"/>
<polygon fill="orange" stroke="orange" points="71.12,-950.19 74.4,-960.26 78.12,-950.34 71.12,-950.19"/>
<text text-anchor="start" x="174" y="-50" font-family="Helvetica,sans-Serif" font-size="10.00"> &lt; A, T, Dim2, Dim1,</text>
<text text-anchor="middle" x="224.5" y="-39" font-family="Helvetica,sans-Serif" font-size="10.00"> Dim01, j, i, k &gt;</text>
</g>
</g>
</svg>
