<?xml version="1.0" encoding="UTF-8" standalone="no"?>
<!DOCTYPE svg PUBLIC "-//W3C//DTD SVG 1.1//EN"
 "http://www.w3.org/Graphics/SVG/1.1/DTD/svg11.dtd">
<!-- Generated by graphviz version 9.0.0 (20230911.1827)
 -->
<!-- Title: FTensor::ddTensor1&lt; T, Dim0, Dim12, i, j, k &gt; Pages: 1 -->
<svg width="625pt" height="180pt"
 viewBox="0.00 0.00 624.80 179.88" xmlns="http://www.w3.org/2000/svg" xmlns:xlink="http://www.w3.org/1999/xlink">
<g id="graph0" class="graph" transform="scale(1 1) rotate(0) translate(4 175.88)">
<title>FTensor::ddTensor1&lt; T, Dim0, Dim12, i, j, k &gt;</title>
<!-- Node1 -->
<g id="node1" class="node">
<title>Node1</title>
<g id="a_node1"><a xlink:title=" ">
<polygon fill="#999999" stroke="#666666" points="616.8,-127.5 512.3,-127.5 512.3,-85.75 616.8,-85.75 616.8,-127.5"/>
<text text-anchor="start" x="520.3" y="-114" font-family="Helvetica,sans-Serif" font-size="10.00">FTensor::ddTensor1</text>
<text text-anchor="start" x="520.3" y="-102.75" font-family="Helvetica,sans-Serif" font-size="10.00">&lt; T, Dim0, Dim12, i,</text>
<text text-anchor="middle" x="564.55" y="-91.5" font-family="Helvetica,sans-Serif" font-size="10.00"> j, k &gt;</text>
</a>
</g>
</g>
<!-- Node2 -->
<g id="node2" class="node">
<title>Node2</title>
<g id="a_node2"><a xlink:href="class_f_tensor_1_1_tensor1.html" target="_top" xlink:title=" ">
<polygon fill="white" stroke="#666666" points="434.3,-170.88 327.55,-170.88 327.55,-140.38 434.3,-140.38 434.3,-170.88"/>
<text text-anchor="start" x="335.55" y="-157.38" font-family="Helvetica,sans-Serif" font-size="10.00">FTensor::Tensor1&lt; T</text>
<text text-anchor="middle" x="380.92" y="-146.12" font-family="Helvetica,sans-Serif" font-size="10.00"> *, Dim0 &gt;</text>
</a>
</g>
</g>
<!-- Node2&#45;&gt;Node1 -->
<g id="edge1" class="edge">
<title>Node2&#45;&gt;Node1</title>
<path fill="none" stroke="#9a32cd" stroke-dasharray="5,2" d="M445.3,-138.53C467.13,-132.64 491.31,-126.12 512.07,-120.51"/>
<polygon fill="#9a32cd" stroke="#9a32cd" points="444.66,-135.07 435.92,-141.06 446.49,-141.83 444.66,-135.07"/>
<text text-anchor="middle" x="479.67" y="-133.38" font-family="Helvetica,sans-Serif" font-size="10.00"> a</text>
</g>
<!-- Node3 -->
<g id="node3" class="node">
<title>Node3</title>
<g id="a_node3"><a xlink:title=" ">
<polygon fill="white" stroke="#666666" points="28.8,-154.25 0,-154.25 0,-135 28.8,-135 28.8,-154.25"/>
<text text-anchor="middle" x="14.4" y="-140.75" font-family="Helvetica,sans-Serif" font-size="10.00">T</text>
</a>
</g>
</g>
<!-- Node3&#45;&gt;Node2 -->
<g id="edge2" class="edge">
<title>Node3&#45;&gt;Node2</title>
<path fill="none" stroke="#9a32cd" stroke-dasharray="5,2" d="M40.02,-151.45C42.3,-151.92 44.58,-152.32 46.8,-152.62 156.89,-167.78 185.68,-157.29 296.8,-156.62 306.61,-156.57 317.08,-156.47 327.16,-156.36"/>
<polygon fill="#9a32cd" stroke="#9a32cd" points="41.04,-148.1 30.49,-149.16 39.4,-154.9 41.04,-148.1"/>
<text text-anchor="middle" x="140.67" y="-162.38" font-family="Helvetica,sans-Serif" font-size="10.00"> data</text>
</g>
<!-- Node4 -->
<g id="node4" class="node">
<title>Node4</title>
<g id="a_node4"><a xlink:href="class_f_tensor_1_1_tensor1.html" target="_top" xlink:title=" ">
<polygon fill="white" stroke="#666666" points="194.8,-133.88 86.55,-133.88 86.55,-103.38 194.8,-103.38 194.8,-133.88"/>
<text text-anchor="start" x="94.55" y="-120.38" font-family="Helvetica,sans-Serif" font-size="10.00">FTensor::Tensor1&lt; T,</text>
<text text-anchor="middle" x="140.67" y="-109.12" font-family="Helvetica,sans-Serif" font-size="10.00"> Tensor_Dim &gt;</text>
</a>
</g>
</g>
<!-- Node3&#45;&gt;Node4 -->
<g id="edge4" class="edge">
<title>Node3&#45;&gt;Node4</title>
<path fill="none" stroke="#9a32cd" stroke-dasharray="5,2" d="M40.16,-139.44C53.36,-136.68 70.13,-133.17 86.13,-129.83"/>
<polygon fill="#9a32cd" stroke="#9a32cd" points="39.73,-135.96 30.66,-141.43 41.16,-142.81 39.73,-135.96"/>
<text text-anchor="middle" x="57.67" y="-139.38" font-family="Helvetica,sans-Serif" font-size="10.00"> data</text>
</g>
<!-- Node4&#45;&gt;Node2 -->
<g id="edge3" class="edge">
<title>Node4&#45;&gt;Node2</title>
<path fill="none" stroke="orange" stroke-dasharray="5,2" d="M206.11,-128.63C244.16,-134.54 291.71,-141.93 327.46,-147.48"/>
<polygon fill="orange" stroke="orange" points="207.06,-125.24 196.64,-127.16 205.98,-132.15 207.06,-125.24"/>
<text text-anchor="middle" x="254.8" y="-143.38" font-family="Helvetica,sans-Serif" font-size="10.00"> &lt; T *, Dim0 &gt;</text>
</g>
<!-- Node5 -->
<g id="node5" class="node">
<title>Node5</title>
<g id="a_node5"><a xlink:href="class_f_tensor_1_1_tensor1.html" target="_top" xlink:title=" ">
<polygon fill="white" stroke="#666666" points="438.05,-121.88 323.8,-121.88 323.8,-91.38 438.05,-91.38 438.05,-121.88"/>
<text text-anchor="start" x="331.8" y="-108.38" font-family="Helvetica,sans-Serif" font-size="10.00">FTensor::Tensor1&lt; int,</text>
<text text-anchor="middle" x="380.92" y="-97.12" font-family="Helvetica,sans-Serif" font-size="10.00"> Dim12 &gt;</text>
</a>
</g>
</g>
<!-- Node4&#45;&gt;Node5 -->
<g id="edge7" class="edge">
<title>Node4&#45;&gt;Node5</title>
<path fill="none" stroke="orange" stroke-dasharray="5,2" d="M206.19,-115.38C242.77,-113.53 288.12,-111.25 323.31,-109.48"/>
<polygon fill="orange" stroke="orange" points="206.47,-111.86 196.65,-115.86 206.82,-118.85 206.47,-111.86"/>
<text text-anchor="middle" x="254.8" y="-116.38" font-family="Helvetica,sans-Serif" font-size="10.00"> &lt; int, Dim12 &gt;</text>
</g>
<!-- Node7 -->
<g id="node7" class="node">
<title>Node7</title>
<g id="a_node7"><a xlink:href="class_f_tensor_1_1_tensor1.html" target="_top" xlink:title=" ">
<polygon fill="white" stroke="#666666" points="447.05,-72.88 314.8,-72.88 314.8,-42.38 447.05,-42.38 447.05,-72.88"/>
<text text-anchor="start" x="322.8" y="-59.38" font-family="Helvetica,sans-Serif" font-size="10.00">FTensor::Tensor1&lt; double,</text>
<text text-anchor="middle" x="380.92" y="-48.12" font-family="Helvetica,sans-Serif" font-size="10.00"> Dim12 &gt;</text>
</a>
</g>
</g>
<!-- Node4&#45;&gt;Node7 -->
<g id="edge10" class="edge">
<title>Node4&#45;&gt;Node7</title>
<path fill="none" stroke="orange" stroke-dasharray="5,2" d="M198.15,-99.63C203.09,-98.13 208.02,-96.69 212.8,-95.38 246.06,-86.2 283.5,-77.59 314.49,-70.92"/>
<polygon fill="orange" stroke="orange" points="197.35,-96.22 188.84,-102.53 199.43,-102.9 197.35,-96.22"/>
<text text-anchor="middle" x="254.8" y="-96.38" font-family="Helvetica,sans-Serif" font-size="10.00"> &lt; double, Dim12 &gt;</text>
</g>
<!-- Node5&#45;&gt;Node1 -->
<g id="edge5" class="edge">
<title>Node5&#45;&gt;Node1</title>
<path fill="none" stroke="#9a32cd" stroke-dasharray="5,2" d="M449.66,-106.62C470.31,-106.62 492.66,-106.62 512.05,-106.62"/>
<polygon fill="#9a32cd" stroke="#9a32cd" points="449.91,-103.13 439.91,-106.63 449.91,-110.13 449.91,-103.13"/>
<text text-anchor="middle" x="479.67" y="-108.38" font-family="Helvetica,sans-Serif" font-size="10.00"> d_ijk</text>
</g>
<!-- Node6 -->
<g id="node6" class="node">
<title>Node6</title>
<g id="a_node6"><a xlink:title=" ">
<polygon fill="white" stroke="#666666" points="155.07,-56.25 126.27,-56.25 126.27,-37 155.07,-37 155.07,-56.25"/>
<text text-anchor="middle" x="140.67" y="-42.75" font-family="Helvetica,sans-Serif" font-size="10.00">int</text>
</a>
</g>
</g>
<!-- Node6&#45;&gt;Node5 -->
<g id="edge6" class="edge">
<title>Node6&#45;&gt;Node5</title>
<path fill="none" stroke="#9a32cd" stroke-dasharray="5,2" d="M166.09,-39.52C198.52,-31.59 256.41,-22.84 296.8,-47.38 311.5,-56.3 301.95,-70.2 314.8,-81.62 318.87,-85.25 323.53,-88.37 328.43,-91.05"/>
<polygon fill="#9a32cd" stroke="#9a32cd" points="165.61,-36.02 156.83,-41.95 167.4,-42.79 165.61,-36.02"/>
<text text-anchor="middle" x="254.8" y="-48.38" font-family="Helvetica,sans-Serif" font-size="10.00"> data</text>
</g>
<!-- Node7&#45;&gt;Node1 -->
<g id="edge8" class="edge">
<title>Node7&#45;&gt;Node1</title>
<path fill="none" stroke="#9a32cd" stroke-dasharray="5,2" d="M451.2,-76.31C471.43,-81.77 493.18,-87.64 512.1,-92.74"/>
<polygon fill="#9a32cd" stroke="#9a32cd" points="452.17,-72.95 441.6,-73.73 450.35,-79.71 452.17,-72.95"/>
<text text-anchor="middle" x="479.67" y="-87.38" font-family="Helvetica,sans-Serif" font-size="10.00"> d_xyz</text>
</g>
<!-- Node8 -->
<g id="node8" class="node">
<title>Node8</title>
<g id="a_node8"><a xlink:href="classdouble.html" target="_top" xlink:title=" ">
<polygon fill="white" stroke="#666666" points="162.92,-19.25 118.42,-19.25 118.42,0 162.92,0 162.92,-19.25"/>
<text text-anchor="middle" x="140.67" y="-5.75" font-family="Helvetica,sans-Serif" font-size="10.00">double</text>
</a>
</g>
</g>
<!-- Node8&#45;&gt;Node7 -->
<g id="edge9" class="edge">
<title>Node8&#45;&gt;Node7</title>
<path fill="none" stroke="#9a32cd" stroke-dasharray="5,2" d="M174.47,-6.09C206.29,-3.67 255.67,-2.58 296.8,-13.38 318.78,-19.14 341.4,-31.69 357.48,-41.96"/>
<polygon fill="#9a32cd" stroke="#9a32cd" points="174.36,-2.59 164.69,-6.94 174.96,-9.57 174.36,-2.59"/>
<text text-anchor="middle" x="254.8" y="-15.38" font-family="Helvetica,sans-Serif" font-size="10.00"> data</text>
</g>
</g>
</svg>
