<?xml version="1.0" encoding="UTF-8" standalone="no"?>
<!DOCTYPE svg PUBLIC "-//W3C//DTD SVG 1.1//EN"
 "http://www.w3.org/Graphics/SVG/1.1/DTD/svg11.dtd">
<!-- Generated by graphviz version 2.43.0 (0)
 -->
<!-- Title: FTensor::interpolate_Tensor1&lt; T, Dim, i &gt; Pages: 1 -->
<svg width="322pt" height="317pt"
 viewBox="0.00 0.00 321.50 317.00" xmlns="http://www.w3.org/2000/svg" xmlns:xlink="http://www.w3.org/1999/xlink">
<g id="graph0" class="graph" transform="scale(1 1) rotate(0) translate(4 313)">
<title>FTensor::interpolate_Tensor1&lt; T, Dim, i &gt;</title>
<polygon fill="white" stroke="transparent" points="-4,4 -4,-313 317.5,-313 317.5,4 -4,4"/>
<!-- Node1 -->
<g id="node1" class="node">
<title>Node1</title>
<g id="a_node1"><a xlink:title=" ">
<polygon fill="#bfbfbf" stroke="black" points="35.5,-0.5 35.5,-30.5 158.5,-30.5 158.5,-0.5 35.5,-0.5"/>
<text text-anchor="start" x="43.5" y="-18.5" font-family="Helvetica,sans-Serif" font-size="10.00">FTensor::interpolate</text>
<text text-anchor="middle" x="97" y="-7.5" font-family="Helvetica,sans-Serif" font-size="10.00">_Tensor1&lt; T, Dim, i &gt;</text>
</a>
</g>
</g>
<!-- Node2 -->
<g id="node2" class="node">
<title>Node2</title>
<g id="a_node2"><a xlink:href="classdouble.html" target="_top" xlink:title=" ">
<polygon fill="white" stroke="black" points="0,-139 0,-158 50,-158 50,-139 0,-139"/>
<text text-anchor="middle" x="25" y="-146" font-family="Helvetica,sans-Serif" font-size="10.00">double</text>
</a>
</g>
</g>
<!-- Node2&#45;&gt;Node1 -->
<g id="edge1" class="edge">
<title>Node2&#45;&gt;Node1</title>
<path fill="none" stroke="#9a32cd" stroke-dasharray="5,2" d="M24.29,-128.76C24.4,-107.57 27.44,-72.92 44,-49 49.22,-41.46 56.82,-35.34 64.64,-30.53"/>
<polygon fill="#9a32cd" stroke="#9a32cd" points="20.79,-129.05 24.46,-138.99 27.79,-128.93 20.79,-129.05"/>
<text text-anchor="middle" x="68.5" y="-85" font-family="Helvetica,sans-Serif" font-size="10.00"> distance</text>
<text text-anchor="middle" x="68.5" y="-74" font-family="Helvetica,sans-Serif" font-size="10.00">conjugate</text>
</g>
<!-- Node3 -->
<g id="node3" class="node">
<title>Node3</title>
<g id="a_node3"><a xlink:title=" ">
<polygon fill="white" stroke="#bfbfbf" points="82.5,-139 82.5,-158 111.5,-158 111.5,-139 82.5,-139"/>
<text text-anchor="middle" x="97" y="-146" font-family="Helvetica,sans-Serif" font-size="10.00">int</text>
</a>
</g>
</g>
<!-- Node3&#45;&gt;Node1 -->
<g id="edge2" class="edge">
<title>Node3&#45;&gt;Node1</title>
<path fill="none" stroke="#9a32cd" stroke-dasharray="5,2" d="M97,-128.67C97,-102.16 97,-54.4 97,-30.67"/>
<polygon fill="#9a32cd" stroke="#9a32cd" points="93.5,-128.9 97,-138.9 100.5,-128.9 93.5,-128.9"/>
<text text-anchor="middle" x="103.5" y="-107" font-family="Helvetica,sans-Serif" font-size="10.00"> di</text>
<text text-anchor="middle" x="103.5" y="-96" font-family="Helvetica,sans-Serif" font-size="10.00">dj</text>
<text text-anchor="middle" x="103.5" y="-85" font-family="Helvetica,sans-Serif" font-size="10.00">dk</text>
<text text-anchor="middle" x="103.5" y="-74" font-family="Helvetica,sans-Serif" font-size="10.00">k0</text>
<text text-anchor="middle" x="103.5" y="-63" font-family="Helvetica,sans-Serif" font-size="10.00">j0</text>
<text text-anchor="middle" x="103.5" y="-52" font-family="Helvetica,sans-Serif" font-size="10.00">i0</text>
</g>
<!-- Node4 -->
<g id="node4" class="node">
<title>Node4</title>
<g id="a_node4"><a xlink:href="classFTensor_1_1Tensor1.html" target="_top" xlink:title=" ">
<polygon fill="white" stroke="black" points="130,-133.5 130,-163.5 244,-163.5 244,-133.5 130,-133.5"/>
<text text-anchor="start" x="138" y="-151.5" font-family="Helvetica,sans-Serif" font-size="10.00">FTensor::Tensor1&lt; T</text>
<text text-anchor="middle" x="187" y="-140.5" font-family="Helvetica,sans-Serif" font-size="10.00"> *, Dim &gt;</text>
</a>
</g>
</g>
<!-- Node4&#45;&gt;Node1 -->
<g id="edge3" class="edge">
<title>Node4&#45;&gt;Node1</title>
<path fill="none" stroke="#9a32cd" stroke-dasharray="5,2" d="M171.58,-125.05C153.03,-98.06 122.45,-53.54 106.84,-30.82"/>
<polygon fill="#9a32cd" stroke="#9a32cd" points="168.82,-127.22 177.37,-133.48 174.59,-123.26 168.82,-127.22"/>
<text text-anchor="middle" x="168" y="-79.5" font-family="Helvetica,sans-Serif" font-size="10.00"> a</text>
</g>
<!-- Node5 -->
<g id="node5" class="node">
<title>Node5</title>
<g id="a_node5"><a xlink:title=" ">
<polygon fill="white" stroke="#bfbfbf" points="154.5,-289.5 154.5,-308.5 183.5,-308.5 183.5,-289.5 154.5,-289.5"/>
<text text-anchor="middle" x="169" y="-296.5" font-family="Helvetica,sans-Serif" font-size="10.00">T</text>
</a>
</g>
</g>
<!-- Node5&#45;&gt;Node4 -->
<g id="edge4" class="edge">
<title>Node5&#45;&gt;Node4</title>
<path fill="none" stroke="#9a32cd" stroke-dasharray="5,2" d="M165.01,-279.38C161.84,-261.65 158.61,-234.3 163,-211 166.18,-194.1 173.87,-175.89 179.7,-163.71"/>
<polygon fill="#9a32cd" stroke="#9a32cd" points="161.59,-280.13 166.95,-289.27 168.46,-278.78 161.59,-280.13"/>
<text text-anchor="middle" x="175.5" y="-224" font-family="Helvetica,sans-Serif" font-size="10.00"> data</text>
</g>
<!-- Node6 -->
<g id="node6" class="node">
<title>Node6</title>
<g id="a_node6"><a xlink:href="classFTensor_1_1Tensor1.html" target="_top" xlink:title=" ">
<polygon fill="white" stroke="black" points="196.5,-211.5 196.5,-241.5 313.5,-241.5 313.5,-211.5 196.5,-211.5"/>
<text text-anchor="start" x="204.5" y="-229.5" font-family="Helvetica,sans-Serif" font-size="10.00">FTensor::Tensor1&lt; T,</text>
<text text-anchor="middle" x="255" y="-218.5" font-family="Helvetica,sans-Serif" font-size="10.00"> Tensor_Dim &gt;</text>
</a>
</g>
</g>
<!-- Node5&#45;&gt;Node6 -->
<g id="edge6" class="edge">
<title>Node5&#45;&gt;Node6</title>
<path fill="none" stroke="#9a32cd" stroke-dasharray="5,2" d="M187.56,-282.78C202.48,-270.55 223.29,-253.5 237.83,-241.58"/>
<polygon fill="#9a32cd" stroke="#9a32cd" points="185.06,-280.31 179.55,-289.36 189.5,-285.72 185.06,-280.31"/>
<text text-anchor="middle" x="226.5" y="-263" font-family="Helvetica,sans-Serif" font-size="10.00"> data</text>
</g>
<!-- Node6&#45;&gt;Node4 -->
<g id="edge5" class="edge">
<title>Node6&#45;&gt;Node4</title>
<path fill="none" stroke="orange" stroke-dasharray="5,2" d="M235.47,-203.67C223.98,-190.83 209.78,-174.97 199.73,-163.73"/>
<polygon fill="orange" stroke="orange" points="232.93,-206.09 242.21,-211.2 238.15,-201.42 232.93,-206.09"/>
<text text-anchor="middle" x="258.5" y="-185" font-family="Helvetica,sans-Serif" font-size="10.00"> &lt; T *, Dim &gt;</text>
</g>
</g>
</svg>
