<?xml version="1.0" encoding="UTF-8" standalone="no"?>
<!DOCTYPE svg PUBLIC "-//W3C//DTD SVG 1.1//EN"
 "http://www.w3.org/Graphics/SVG/1.1/DTD/svg11.dtd">
<!-- Generated by graphviz version 2.43.0 (0)
 -->
<!-- Title: FTensor::T4Ddg_times_equals_generic&lt; A, T, U, Dim01, Dim23 &gt; Pages: 1 -->
<svg width="303pt" height="273pt"
 viewBox="0.00 0.00 303.00 273.00" xmlns="http://www.w3.org/2000/svg" xmlns:xlink="http://www.w3.org/1999/xlink">
<g id="graph0" class="graph" transform="scale(1 1) rotate(0) translate(4 269)">
<title>FTensor::T4Ddg_times_equals_generic&lt; A, T, U, Dim01, Dim23 &gt;</title>
<polygon fill="white" stroke="transparent" points="-4,4 -4,-269 299,-269 299,4 -4,4"/>
<!-- Node1 -->
<g id="node1" class="node">
<title>Node1</title>
<g id="a_node1"><a xlink:title=" ">
<polygon fill="#bfbfbf" stroke="black" points="0,-0.5 0,-41.5 128,-41.5 128,-0.5 0,-0.5"/>
<text text-anchor="start" x="8" y="-29.5" font-family="Helvetica,sans-Serif" font-size="10.00">FTensor::T4Ddg_times</text>
<text text-anchor="start" x="8" y="-18.5" font-family="Helvetica,sans-Serif" font-size="10.00">_equals_generic&lt; A, T,</text>
<text text-anchor="middle" x="64" y="-7.5" font-family="Helvetica,sans-Serif" font-size="10.00"> U, Dim01, Dim23 &gt;</text>
</a>
</g>
</g>
<!-- Node2 -->
<g id="node2" class="node">
<title>Node2</title>
<g id="a_node2"><a xlink:title=" ">
<polygon fill="white" stroke="#bfbfbf" points="33.5,-95 33.5,-114 62.5,-114 62.5,-95 33.5,-95"/>
<text text-anchor="middle" x="48" y="-102" font-family="Helvetica,sans-Serif" font-size="10.00">U</text>
</a>
</g>
</g>
<!-- Node2&#45;&gt;Node1 -->
<g id="edge1" class="edge">
<title>Node2&#45;&gt;Node1</title>
<path fill="none" stroke="#9a32cd" stroke-dasharray="5,2" d="M51.68,-84.75C54.21,-71.89 57.55,-54.84 60.12,-41.76"/>
<polygon fill="#9a32cd" stroke="#9a32cd" points="48.2,-84.29 49.71,-94.78 55.07,-85.64 48.2,-84.29"/>
<text text-anchor="middle" x="62" y="-63" font-family="Helvetica,sans-Serif" font-size="10.00"> u</text>
</g>
<!-- Node3 -->
<g id="node3" class="node">
<title>Node3</title>
<g id="a_node3"><a xlink:href="classFTensor_1_1Ddg.html" target="_top" xlink:title=" ">
<polygon fill="white" stroke="black" points="81,-89.5 81,-119.5 219,-119.5 219,-89.5 81,-89.5"/>
<text text-anchor="start" x="89" y="-107.5" font-family="Helvetica,sans-Serif" font-size="10.00">FTensor::Ddg&lt; A, Dim01,</text>
<text text-anchor="middle" x="150" y="-96.5" font-family="Helvetica,sans-Serif" font-size="10.00"> Dim23 &gt;</text>
</a>
</g>
</g>
<!-- Node3&#45;&gt;Node1 -->
<g id="edge2" class="edge">
<title>Node3&#45;&gt;Node1</title>
<path fill="none" stroke="#9a32cd" stroke-dasharray="5,2" d="M127.64,-82.31C114.34,-69.71 97.59,-53.83 84.61,-41.53"/>
<polygon fill="#9a32cd" stroke="#9a32cd" points="125.35,-84.97 135.02,-89.3 130.17,-79.88 125.35,-84.97"/>
<text text-anchor="middle" x="125" y="-63" font-family="Helvetica,sans-Serif" font-size="10.00"> iter</text>
</g>
<!-- Node4 -->
<g id="node4" class="node">
<title>Node4</title>
<g id="a_node4"><a xlink:title=" ">
<polygon fill="white" stroke="#bfbfbf" points="98.5,-173 98.5,-192 127.5,-192 127.5,-173 98.5,-173"/>
<text text-anchor="middle" x="113" y="-180" font-family="Helvetica,sans-Serif" font-size="10.00">A</text>
</a>
</g>
</g>
<!-- Node4&#45;&gt;Node3 -->
<g id="edge3" class="edge">
<title>Node4&#45;&gt;Node3</title>
<path fill="none" stroke="#9a32cd" stroke-dasharray="5,2" d="M121.72,-163.58C128.28,-150.11 137.13,-131.93 143.17,-119.52"/>
<polygon fill="#9a32cd" stroke="#9a32cd" points="118.47,-162.26 117.24,-172.78 124.77,-165.32 118.47,-162.26"/>
<text text-anchor="middle" x="146.5" y="-141" font-family="Helvetica,sans-Serif" font-size="10.00"> data</text>
</g>
<!-- Node5 -->
<g id="node5" class="node">
<title>Node5</title>
<g id="a_node5"><a xlink:href="classFTensor_1_1Ddg.html" target="_top" xlink:title=" ">
<polygon fill="white" stroke="black" points="146,-167.5 146,-197.5 286,-197.5 286,-167.5 146,-167.5"/>
<text text-anchor="start" x="154" y="-185.5" font-family="Helvetica,sans-Serif" font-size="10.00">FTensor::Ddg&lt; T, Tensor</text>
<text text-anchor="middle" x="216" y="-174.5" font-family="Helvetica,sans-Serif" font-size="10.00">_Dim01, Tensor_Dim23 &gt;</text>
</a>
</g>
</g>
<!-- Node5&#45;&gt;Node3 -->
<g id="edge4" class="edge">
<title>Node5&#45;&gt;Node3</title>
<path fill="none" stroke="orange" stroke-dasharray="5,2" d="M196.73,-159.31C185.63,-146.53 172.02,-130.86 162.36,-119.73"/>
<polygon fill="orange" stroke="orange" points="194.39,-161.95 203.59,-167.2 199.67,-157.36 194.39,-161.95"/>
<text text-anchor="middle" x="240.5" y="-141" font-family="Helvetica,sans-Serif" font-size="10.00"> &lt; A, Dim01, Dim23 &gt;</text>
</g>
<!-- Node6 -->
<g id="node6" class="node">
<title>Node6</title>
<g id="a_node6"><a xlink:title=" ">
<polygon fill="white" stroke="#bfbfbf" points="201.5,-245.5 201.5,-264.5 230.5,-264.5 230.5,-245.5 201.5,-245.5"/>
<text text-anchor="middle" x="216" y="-252.5" font-family="Helvetica,sans-Serif" font-size="10.00">T</text>
</a>
</g>
</g>
<!-- Node6&#45;&gt;Node5 -->
<g id="edge5" class="edge">
<title>Node6&#45;&gt;Node5</title>
<path fill="none" stroke="#9a32cd" stroke-dasharray="5,2" d="M216,-235.24C216,-223.41 216,-208.38 216,-197.58"/>
<polygon fill="#9a32cd" stroke="#9a32cd" points="212.5,-235.36 216,-245.36 219.5,-235.36 212.5,-235.36"/>
<text text-anchor="middle" x="228.5" y="-219" font-family="Helvetica,sans-Serif" font-size="10.00"> data</text>
</g>
</g>
</svg>
