<?xml version="1.0" encoding="UTF-8" standalone="no"?>
<!DOCTYPE svg PUBLIC "-//W3C//DTD SVG 1.1//EN"
 "http://www.w3.org/Graphics/SVG/1.1/DTD/svg11.dtd">
<!-- Generated by graphviz version 9.0.0 (20230911.1827)
 -->
<!-- Title: ELEMENT Pages: 1 -->
<!--zoomable 456 -->
<svg id="main" version="1.1" xmlns="http://www.w3.org/2000/svg" xmlns:xlink="http://www.w3.org/1999/xlink" xml:space="preserve" onload="init(evt)">
<style type="text/css"><![CDATA[
.edge:hover path { stroke: red; }
.edge:hover polygon { stroke: red; fill: red; }
]]></style>
<script type="text/javascript"><![CDATA[
var edges = document.getElementsByTagName('g');
if (edges && edges.length) {
  for (var i=0;i<edges.length;i++) {
    if (edges[i].id.substr(0,4)=='edge') {
      edges[i].setAttribute('class','edge');
    }
  }
}
]]></script>
        <defs>
                <circle id="rim" cx="0" cy="0" r="7"/>
                <circle id="rim2" cx="0" cy="0" r="3.5"/>
                <g id="zoomPlus">
                        <use xlink:href="#rim" fill="#404040">
                                <set attributeName="fill" to="#808080" begin="zoomplus.mouseover" end="zoomplus.mouseout"/>
                        </use>
                        <path d="M-4,0h8M0,-4v8" fill="none" stroke="white" stroke-width="1.5" pointer-events="none"/>
                </g>
                <g id="zoomMin">
                        <use xlink:href="#rim" fill="#404040">
                                <set attributeName="fill" to="#808080" begin="zoomminus.mouseover" end="zoomminus.mouseout"/>
                        </use>
                        <path d="M-4,0h8" fill="none" stroke="white" stroke-width="1.5" pointer-events="none"/>
                </g>
                <g id="dirArrow">
                        <path fill="none" stroke="white" stroke-width="1.5" d="M0,-3.0v7 M-2.5,-0.5L0,-3.0L2.5,-0.5"/>
                </g>
               <g id="resetDef">
                       <use xlink:href="#rim2" fill="#404040">
                               <set attributeName="fill" to="#808080" begin="reset.mouseover" end="reset.mouseout"/>
                       </use>
               </g>
        </defs>

<script type="text/javascript">
var viewWidth = 1531;
var viewHeight = 456;
var sectionId = 'dynsection-0';
</script>
<script xlink:href="svgpan.js"/>
<svg id="graph" class="graph">
<g id="viewport">
<title>ELEMENT</title>
<!-- Node1 -->
<g id="node1" class="node">
<title>Node1</title>
<g id="a_node1"><a xlink:title=" ">
<polygon fill="#999999" stroke="#666666" points="63.25,-268.5 0,-268.5 0,-249.25 63.25,-249.25 63.25,-268.5"/>
<text text-anchor="middle" x="31.62" y="-255" font-family="Helvetica,sans-Serif" font-size="10.00">ELEMENT</text>
</a>
</g>
</g>
<!-- Node2 -->
<g id="node2" class="node">
<title>Node2</title>
<g id="a_node2"><a xlink:href="struct_fracture_mechanics_1_1_crack_front_singular_base.html" target="_top" xlink:title=" ">
<polygon fill="white" stroke="#666666" points="265.5,-361.75 100.25,-361.75 100.25,-320 265.5,-320 265.5,-361.75"/>
<text text-anchor="start" x="108.25" y="-348.25" font-family="Helvetica,sans-Serif" font-size="10.00">FractureMechanics::</text>
<text text-anchor="start" x="108.25" y="-337" font-family="Helvetica,sans-Serif" font-size="10.00">CrackFrontSingularBase</text>
<text text-anchor="middle" x="182.88" y="-325.75" font-family="Helvetica,sans-Serif" font-size="10.00">&lt; ELEMENT, BASE_ELEMENT &gt;</text>
</a>
</g>
</g>
<!-- Node1&#45;&gt;Node2 -->
<g id="edge1" class="edge">
<title>Node1&#45;&gt;Node2</title>
<path fill="none" stroke="#63b8ff" d="M60.84,-274.38C84.07,-287.14 117.26,-305.38 143.01,-319.52"/>
<polygon fill="#63b8ff" stroke="#63b8ff" points="62.7,-271.41 52.25,-269.66 59.33,-277.54 62.7,-271.41"/>
</g>
<!-- Node5 -->
<g id="node5" class="node">
<title>Node5</title>
<g id="a_node5"><a xlink:href="struct_post_proc_template_on_refine_mesh.html" target="_top" xlink:title="Generic post&#45;processing class.">
<polygon fill="white" stroke="#666666" points="251.62,-193.12 114.12,-193.12 114.12,-162.62 251.62,-162.62 251.62,-193.12"/>
<text text-anchor="start" x="122.12" y="-179.62" font-family="Helvetica,sans-Serif" font-size="10.00">PostProcTemplateOnRefine</text>
<text text-anchor="middle" x="182.88" y="-168.38" font-family="Helvetica,sans-Serif" font-size="10.00">Mesh&lt; ELEMENT &gt;</text>
</a>
</g>
</g>
<!-- Node1&#45;&gt;Node5 -->
<g id="edge4" class="edge">
<title>Node1&#45;&gt;Node5</title>
<path fill="none" stroke="#63b8ff" d="M61,-243.48C87.39,-229.16 126.51,-207.92 153.04,-193.53"/>
<polygon fill="#63b8ff" stroke="#63b8ff" points="59.68,-240.21 52.56,-248.06 63.01,-246.36 59.68,-240.21"/>
</g>
<!-- Node3 -->
<g id="node3" class="node">
<title>Node3</title>
<g id="a_node3"><a xlink:href="struct_fracture_mechanics_1_1_crack_front_singular_base.html" target="_top" xlink:title=" ">
<polygon fill="white" stroke="#666666" points="712.75,-438.38 476.25,-438.38 476.25,-385.38 712.75,-385.38 712.75,-438.38"/>
<text text-anchor="start" x="484.25" y="-424.88" font-family="Helvetica,sans-Serif" font-size="10.00">FractureMechanics::</text>
<text text-anchor="start" x="484.25" y="-413.62" font-family="Helvetica,sans-Serif" font-size="10.00">CrackFrontSingularBase</text>
<text text-anchor="start" x="484.25" y="-402.38" font-family="Helvetica,sans-Serif" font-size="10.00">&lt; FractureMechanics::FirendVolume</text>
<text text-anchor="middle" x="594.5" y="-391.12" font-family="Helvetica,sans-Serif" font-size="10.00">OnSide, VolumeElementForcesAndSourcesCore &gt;</text>
</a>
</g>
</g>
<!-- Node2&#45;&gt;Node3 -->
<g id="edge2" class="edge">
<title>Node2&#45;&gt;Node3</title>
<path fill="none" stroke="orange" stroke-dasharray="5,2" d="M242.63,-366.16C255.87,-371.04 270.01,-375.64 283.5,-378.88 346.13,-393.89 417.52,-402.07 475.99,-406.53"/>
<polygon fill="orange" stroke="orange" points="244.24,-363.02 233.65,-362.74 241.75,-369.56 244.24,-363.02"/>
<text text-anchor="start" x="288" y="-438.38" font-family="Helvetica,sans-Serif" font-size="10.00"> &lt; FractureMechanics</text>
<text text-anchor="start" x="288" y="-427.12" font-family="Helvetica,sans-Serif" font-size="10.00">::FirendVolumeOnSide,</text>
<text text-anchor="start" x="288" y="-415.88" font-family="Helvetica,sans-Serif" font-size="10.00"> VolumeElementForcesAndSources</text>
<text text-anchor="middle" x="365.62" y="-404.62" font-family="Helvetica,sans-Serif" font-size="10.00">Core &gt;</text>
</g>
<!-- Node4 -->
<g id="node4" class="node">
<title>Node4</title>
<g id="a_node4"><a xlink:href="struct_fracture_mechanics_1_1_crack_front_singular_base.html" target="_top" xlink:title=" ">
<polygon fill="white" stroke="#666666" points="723.25,-367.38 465.75,-367.38 465.75,-314.38 723.25,-314.38 723.25,-367.38"/>
<text text-anchor="start" x="473.75" y="-353.88" font-family="Helvetica,sans-Serif" font-size="10.00">FractureMechanics::</text>
<text text-anchor="start" x="473.75" y="-342.62" font-family="Helvetica,sans-Serif" font-size="10.00">CrackFrontSingularBase</text>
<text text-anchor="start" x="473.75" y="-331.38" font-family="Helvetica,sans-Serif" font-size="10.00">&lt; VolumeElementForcesAndSources</text>
<text text-anchor="middle" x="594.5" y="-320.12" font-family="Helvetica,sans-Serif" font-size="10.00">CoreOnSide, VolumeElementForcesAndSourcesCore &gt;</text>
</a>
</g>
</g>
<!-- Node2&#45;&gt;Node4 -->
<g id="edge3" class="edge">
<title>Node2&#45;&gt;Node4</title>
<path fill="none" stroke="orange" stroke-dasharray="5,2" d="M277.07,-340.88C332.78,-340.88 404.37,-340.88 465.35,-340.88"/>
<polygon fill="orange" stroke="orange" points="277.3,-337.38 267.3,-340.88 277.3,-344.38 277.3,-337.38"/>
<text text-anchor="start" x="283.5" y="-365.12" font-family="Helvetica,sans-Serif" font-size="10.00"> &lt; VolumeElementForcesAnd</text>
<text text-anchor="start" x="283.5" y="-353.88" font-family="Helvetica,sans-Serif" font-size="10.00">SourcesCoreOnSide, VolumeElement</text>
<text text-anchor="middle" x="365.62" y="-342.62" font-family="Helvetica,sans-Serif" font-size="10.00">ForcesAndSourcesCore &gt;</text>
</g>
<!-- Node6 -->
<g id="node6" class="node">
<title>Node6</title>
<g id="a_node6"><a xlink:href="struct_post_proc_template_volume_on_refined_mesh.html" target="_top" xlink:title=" ">
<polygon fill="white" stroke="#666666" points="1326.25,-225.75 1134,-225.75 1134,-184 1326.25,-184 1326.25,-225.75"/>
<text text-anchor="start" x="1142" y="-212.25" font-family="Helvetica,sans-Serif" font-size="10.00">PostProcTemplateVolumeOn</text>
<text text-anchor="start" x="1142" y="-201" font-family="Helvetica,sans-Serif" font-size="10.00">RefinedMesh&lt; MoFEM::VolumeElement</text>
<text text-anchor="middle" x="1230.12" y="-189.75" font-family="Helvetica,sans-Serif" font-size="10.00">ForcesAndSourcesCore &gt;</text>
</a>
</g>
</g>
<!-- Node5&#45;&gt;Node6 -->
<g id="edge5" class="edge">
<title>Node5&#45;&gt;Node6</title>
<path fill="none" stroke="#63b8ff" d="M263.29,-179.93C452.51,-184.81 929.44,-197.13 1133.78,-202.41"/>
<polygon fill="#63b8ff" stroke="#63b8ff" points="263.65,-176.43 253.57,-179.68 263.47,-183.43 263.65,-176.43"/>
</g>
<!-- Node8 -->
<g id="node8" class="node">
<title>Node8</title>
<g id="a_node8"><a xlink:href="struct_post_proc_template_on_refine_mesh.html" target="_top" xlink:title=" ">
<polygon fill="white" stroke="#666666" points="673.38,-150.12 515.62,-150.12 515.62,-119.62 673.38,-119.62 673.38,-150.12"/>
<text text-anchor="start" x="523.62" y="-136.62" font-family="Helvetica,sans-Serif" font-size="10.00">PostProcTemplateOnRefine</text>
<text text-anchor="middle" x="594.5" y="-125.38" font-family="Helvetica,sans-Serif" font-size="10.00">Mesh&lt; EdgeEleBasePostProc &gt;</text>
</a>
</g>
</g>
<!-- Node5&#45;&gt;Node8 -->
<g id="edge7" class="edge">
<title>Node5&#45;&gt;Node8</title>
<path fill="none" stroke="orange" stroke-dasharray="5,2" d="M249.22,-159.42C260.58,-156.76 272.32,-154.35 283.5,-152.62 361.82,-140.57 452.41,-136.51 515.36,-135.23"/>
<polygon fill="orange" stroke="orange" points="248.4,-156.02 239.51,-161.79 250.05,-162.82 248.4,-156.02"/>
<text text-anchor="middle" x="365.62" y="-153.62" font-family="Helvetica,sans-Serif" font-size="10.00"> &lt; EdgeEleBasePostProc &gt;</text>
</g>
<!-- Node10 -->
<g id="node10" class="node">
<title>Node10</title>
<g id="a_node10"><a xlink:href="struct_post_proc_template_on_refine_mesh.html" target="_top" xlink:title=" ">
<polygon fill="white" stroke="#666666" points="683.12,-101.75 505.88,-101.75 505.88,-60 683.12,-60 683.12,-101.75"/>
<text text-anchor="start" x="513.88" y="-88.25" font-family="Helvetica,sans-Serif" font-size="10.00">PostProcTemplateOnRefine</text>
<text text-anchor="start" x="513.88" y="-77" font-family="Helvetica,sans-Serif" font-size="10.00">Mesh&lt; MoFEM::FaceElementForces</text>
<text text-anchor="middle" x="594.5" y="-65.75" font-family="Helvetica,sans-Serif" font-size="10.00">AndSourcesCore &gt;</text>
</a>
</g>
</g>
<!-- Node5&#45;&gt;Node10 -->
<g id="edge9" class="edge">
<title>Node5&#45;&gt;Node10</title>
<path fill="none" stroke="orange" stroke-dasharray="5,2" d="M209.72,-154.98C228.73,-139.55 255.96,-120.28 283.5,-110.38 355.23,-84.58 441.99,-78.25 505.46,-77.77"/>
<polygon fill="orange" stroke="orange" points="207.68,-152.12 202.24,-161.22 212.16,-157.5 207.68,-152.12"/>
<text text-anchor="start" x="295.5" y="-122.88" font-family="Helvetica,sans-Serif" font-size="10.00"> &lt; MoFEM::FaceElementForces</text>
<text text-anchor="middle" x="365.62" y="-111.62" font-family="Helvetica,sans-Serif" font-size="10.00">AndSourcesCore &gt;</text>
</g>
<!-- Node13 -->
<g id="node13" class="node">
<title>Node13</title>
<g id="a_node13"><a xlink:href="struct_post_proc_template_on_refine_mesh.html" target="_top" xlink:title=" ">
<polygon fill="white" stroke="#666666" points="677.12,-41.75 511.88,-41.75 511.88,0 677.12,0 677.12,-41.75"/>
<text text-anchor="start" x="519.88" y="-28.25" font-family="Helvetica,sans-Serif" font-size="10.00">PostProcTemplateOnRefine</text>
<text text-anchor="start" x="519.88" y="-17" font-family="Helvetica,sans-Serif" font-size="10.00">Mesh&lt; MoFEM::FatPrismElement</text>
<text text-anchor="middle" x="594.5" y="-5.75" font-family="Helvetica,sans-Serif" font-size="10.00">ForcesAndSourcesCore &gt;</text>
</a>
</g>
</g>
<!-- Node5&#45;&gt;Node13 -->
<g id="edge12" class="edge">
<title>Node5&#45;&gt;Node13</title>
<path fill="none" stroke="orange" stroke-dasharray="5,2" d="M196.29,-152.4C212.1,-123.01 242.39,-75.84 283.5,-53.38 353.54,-15.09 445.78,-10.14 511.39,-12.81"/>
<polygon fill="orange" stroke="orange" points="193.32,-150.52 191.82,-161 199.53,-153.74 193.32,-150.52"/>
<text text-anchor="start" x="301.5" y="-66.88" font-family="Helvetica,sans-Serif" font-size="10.00"> &lt; MoFEM::FatPrismElement</text>
<text text-anchor="middle" x="365.62" y="-55.62" font-family="Helvetica,sans-Serif" font-size="10.00">ForcesAndSourcesCore &gt;</text>
</g>
<!-- Node16 -->
<g id="node16" class="node">
<title>Node16</title>
<g id="a_node16"><a xlink:href="struct_post_proc_template_on_refine_mesh.html" target="_top" xlink:title=" ">
<polygon fill="white" stroke="#666666" points="670.75,-296.12 518.25,-296.12 518.25,-265.62 670.75,-265.62 670.75,-296.12"/>
<text text-anchor="start" x="526.25" y="-282.62" font-family="Helvetica,sans-Serif" font-size="10.00">PostProcTemplateOnRefine</text>
<text text-anchor="middle" x="594.5" y="-271.38" font-family="Helvetica,sans-Serif" font-size="10.00">Mesh&lt; VOLUME_ELEMENT &gt;</text>
</a>
</g>
</g>
<!-- Node5&#45;&gt;Node16 -->
<g id="edge15" class="edge">
<title>Node5&#45;&gt;Node16</title>
<path fill="none" stroke="orange" stroke-dasharray="5,2" d="M214.11,-200.05C233.1,-212.87 258.63,-228.14 283.5,-236.88 360.56,-263.95 453.95,-274.4 517.96,-278.41"/>
<polygon fill="orange" stroke="orange" points="216.27,-197.3 206.05,-194.48 212.29,-203.05 216.27,-197.3"/>
<text text-anchor="middle" x="365.62" y="-272.62" font-family="Helvetica,sans-Serif" font-size="10.00"> &lt; VOLUME_ELEMENT &gt;</text>
</g>
<!-- Node18 -->
<g id="node18" class="node">
<title>Node18</title>
<g id="a_node18"><a xlink:href="struct_post_proc_template_on_refine_mesh.html" target="_top" xlink:title=" ">
<polygon fill="white" stroke="#666666" points="688.75,-247.75 500.25,-247.75 500.25,-206 688.75,-206 688.75,-247.75"/>
<text text-anchor="start" x="508.25" y="-234.25" font-family="Helvetica,sans-Serif" font-size="10.00">PostProcTemplateOnRefine</text>
<text text-anchor="start" x="508.25" y="-223" font-family="Helvetica,sans-Serif" font-size="10.00">Mesh&lt; MoFEM::VolumeElementForces</text>
<text text-anchor="middle" x="594.5" y="-211.75" font-family="Helvetica,sans-Serif" font-size="10.00">AndSourcesCore &gt;</text>
</a>
</g>
</g>
<!-- Node5&#45;&gt;Node18 -->
<g id="edge18" class="edge">
<title>Node5&#45;&gt;Node18</title>
<path fill="none" stroke="orange" stroke-dasharray="5,2" d="M262.85,-189.17C269.83,-190.11 276.79,-191.03 283.5,-191.88 356.04,-201.06 438.28,-210.3 499.82,-216.97"/>
<polygon fill="orange" stroke="orange" points="263.78,-185.77 253.4,-187.89 262.84,-192.7 263.78,-185.77"/>
<text text-anchor="start" x="289.88" y="-222.88" font-family="Helvetica,sans-Serif" font-size="10.00"> &lt; MoFEM::VolumeElementForces</text>
<text text-anchor="middle" x="365.62" y="-211.62" font-family="Helvetica,sans-Serif" font-size="10.00">AndSourcesCore &gt;</text>
</g>
<!-- Node7 -->
<g id="node7" class="node">
<title>Node7</title>
<g id="a_node7"><a xlink:href="struct_post_proc_volume_on_refined_mesh.html" target="_top" xlink:title="Post processing.">
<polygon fill="white" stroke="#666666" points="1523.25,-214.5 1363.25,-214.5 1363.25,-195.25 1523.25,-195.25 1523.25,-214.5"/>
<text text-anchor="middle" x="1443.25" y="-201" font-family="Helvetica,sans-Serif" font-size="10.00">PostProcVolumeOnRefinedMesh</text>
</a>
</g>
</g>
<!-- Node6&#45;&gt;Node7 -->
<g id="edge6" class="edge">
<title>Node6&#45;&gt;Node7</title>
<path fill="none" stroke="#63b8ff" d="M1337.9,-204.88C1346.27,-204.88 1354.64,-204.88 1362.78,-204.88"/>
<polygon fill="#63b8ff" stroke="#63b8ff" points="1338.01,-201.38 1328.01,-204.88 1338.01,-208.38 1338.01,-201.38"/>
</g>
<!-- Node9 -->
<g id="node9" class="node">
<title>Node9</title>
<g id="a_node9"><a xlink:href="struct_post_proc_edge_on_refined_mesh.html" target="_top" xlink:title="Postprocess on edge.">
<polygon fill="white" stroke="#666666" points="928.12,-144.5 778.62,-144.5 778.62,-125.25 928.12,-125.25 928.12,-144.5"/>
<text text-anchor="middle" x="853.38" y="-131" font-family="Helvetica,sans-Serif" font-size="10.00">PostProcEdgeOnRefinedMesh</text>
</a>
</g>
</g>
<!-- Node8&#45;&gt;Node9 -->
<g id="edge8" class="edge">
<title>Node8&#45;&gt;Node9</title>
<path fill="none" stroke="#63b8ff" d="M685.09,-134.88C715.49,-134.88 749.08,-134.88 778.15,-134.88"/>
<polygon fill="#63b8ff" stroke="#63b8ff" points="685.13,-131.38 675.13,-134.88 685.13,-138.38 685.13,-131.38"/>
</g>
<!-- Node11 -->
<g id="node11" class="node">
<title>Node11</title>
<g id="a_node11"><a xlink:href="struct_post_proc_face_on_refined_mesh.html" target="_top" xlink:title="Postprocess on face.">
<polygon fill="white" stroke="#666666" points="927.75,-90.5 779,-90.5 779,-71.25 927.75,-71.25 927.75,-90.5"/>
<text text-anchor="middle" x="853.38" y="-77" font-family="Helvetica,sans-Serif" font-size="10.00">PostProcFaceOnRefinedMesh</text>
</a>
</g>
</g>
<!-- Node10&#45;&gt;Node11 -->
<g id="edge10" class="edge">
<title>Node10&#45;&gt;Node11</title>
<path fill="none" stroke="#63b8ff" d="M694.92,-80.88C722.74,-80.88 752.48,-80.88 778.54,-80.88"/>
<polygon fill="#63b8ff" stroke="#63b8ff" points="695.06,-77.38 685.06,-80.88 695.06,-84.38 695.06,-77.38"/>
</g>
<!-- Node12 -->
<g id="node12" class="node">
<title>Node12</title>
<g id="a_node12"><a xlink:href="struct_post_proc_face_on_refined_mesh_for2_d.html" target="_top" xlink:title="Postprocess 2d face elements.">
<polygon fill="white" stroke="#666666" points="1304.5,-96.12 1155.75,-96.12 1155.75,-65.62 1304.5,-65.62 1304.5,-96.12"/>
<text text-anchor="start" x="1163.75" y="-82.62" font-family="Helvetica,sans-Serif" font-size="10.00">PostProcFaceOnRefinedMesh</text>
<text text-anchor="middle" x="1230.12" y="-71.38" font-family="Helvetica,sans-Serif" font-size="10.00">For2D</text>
</a>
</g>
</g>
<!-- Node11&#45;&gt;Node12 -->
<g id="edge11" class="edge">
<title>Node11&#45;&gt;Node12</title>
<path fill="none" stroke="#63b8ff" d="M939.42,-80.88C1004.49,-80.88 1093.3,-80.88 1155.38,-80.88"/>
<polygon fill="#63b8ff" stroke="#63b8ff" points="939.48,-77.38 929.48,-80.88 939.48,-84.38 939.48,-77.38"/>
</g>
<!-- Node14 -->
<g id="node14" class="node">
<title>Node14</title>
<g id="a_node14"><a xlink:href="struct_post_proc_fat_prism_on_refined_mesh.html" target="_top" xlink:title="Postprocess on prism.">
<polygon fill="white" stroke="#666666" points="936.75,-30.5 770,-30.5 770,-11.25 936.75,-11.25 936.75,-30.5"/>
<text text-anchor="middle" x="853.38" y="-17" font-family="Helvetica,sans-Serif" font-size="10.00">PostProcFatPrismOnRefinedMesh</text>
</a>
</g>
</g>
<!-- Node13&#45;&gt;Node14 -->
<g id="edge13" class="edge">
<title>Node13&#45;&gt;Node14</title>
<path fill="none" stroke="#63b8ff" d="M688.71,-20.88C715.26,-20.88 743.98,-20.88 769.85,-20.88"/>
<polygon fill="#63b8ff" stroke="#63b8ff" points="689,-17.38 679,-20.88 689,-24.38 689,-17.38"/>
</g>
<!-- Node15 -->
<g id="node15" class="node">
<title>Node15</title>
<g id="a_node15"><a xlink:href="struct_solid_shell_module_1_1_solid_shell_prism_element_1_1_post_proc_fat_prism_on_triangle_on_refined_mesh.html" target="_top" xlink:title="Generate post&#45;processing triangular mesh for solid&#45;shell element.">
<polygon fill="white" stroke="#666666" points="1318.38,-41.75 1141.88,-41.75 1141.88,0 1318.38,0 1318.38,-41.75"/>
<text text-anchor="start" x="1149.88" y="-28.25" font-family="Helvetica,sans-Serif" font-size="10.00">SolidShellModule::SolidShell</text>
<text text-anchor="start" x="1149.88" y="-17" font-family="Helvetica,sans-Serif" font-size="10.00">PrismElement::PostProcFatPrismOn</text>
<text text-anchor="middle" x="1230.12" y="-5.75" font-family="Helvetica,sans-Serif" font-size="10.00">TriangleOnRefinedMesh</text>
</a>
</g>
</g>
<!-- Node14&#45;&gt;Node15 -->
<g id="edge14" class="edge">
<title>Node14&#45;&gt;Node15</title>
<path fill="none" stroke="#63b8ff" d="M948.31,-20.88C1007.51,-20.88 1083.44,-20.88 1141.41,-20.88"/>
<polygon fill="#63b8ff" stroke="#63b8ff" points="948.59,-17.38 938.59,-20.88 948.59,-24.38 948.59,-17.38"/>
</g>
<!-- Node17 -->
<g id="node17" class="node">
<title>Node17</title>
<g id="a_node17"><a xlink:href="struct_post_proc_template_volume_on_refined_mesh.html" target="_top" xlink:title=" ">
<polygon fill="white" stroke="#666666" points="946.5,-266.12 760.25,-266.12 760.25,-235.62 946.5,-235.62 946.5,-266.12"/>
<text text-anchor="start" x="768.25" y="-252.62" font-family="Helvetica,sans-Serif" font-size="10.00">PostProcTemplateVolumeOn</text>
<text text-anchor="middle" x="853.38" y="-241.38" font-family="Helvetica,sans-Serif" font-size="10.00">RefinedMesh&lt; VOLUME_ELEMENT &gt;</text>
</a>
</g>
</g>
<!-- Node16&#45;&gt;Node17 -->
<g id="edge16" class="edge">
<title>Node16&#45;&gt;Node17</title>
<path fill="none" stroke="#63b8ff" d="M682.46,-270.72C707.41,-267.81 734.69,-264.62 759.95,-261.67"/>
<polygon fill="#63b8ff" stroke="#63b8ff" points="682.21,-267.22 672.68,-271.86 683.02,-274.18 682.21,-267.22"/>
</g>
<!-- Node17&#45;&gt;Node6 -->
<g id="edge17" class="edge">
<title>Node17&#45;&gt;Node6</title>
<path fill="none" stroke="orange" stroke-dasharray="5,2" d="M957.72,-238.19C1012.74,-231.44 1079.96,-223.18 1133.73,-216.58"/>
<polygon fill="orange" stroke="orange" points="957.53,-234.69 948.03,-239.38 958.38,-241.63 957.53,-234.69"/>
<text text-anchor="start" x="964.5" y="-249.88" font-family="Helvetica,sans-Serif" font-size="10.00"> &lt; MoFEM::VolumeElementForces</text>
<text text-anchor="middle" x="1040.25" y="-238.62" font-family="Helvetica,sans-Serif" font-size="10.00">AndSourcesCore &gt;</text>
</g>
</g>
</svg>
        <g id="navigator" transform="translate(0 0)" fill="#404254">
                <rect fill="#f2f5e9" fill-opacity="0.5" stroke="#606060" stroke-width=".5" x="0" y="0" width="60" height="60"/>
                <use id="zoomplus" xlink:href="#zoomPlus" x="17" y="9" onmousedown="handleZoom(evt,'in')"/>
                <use id="zoomminus" xlink:href="#zoomMin" x="42" y="9" onmousedown="handleZoom(evt,'out')"/>
                <use id="reset" xlink:href="#resetDef" x="30" y="36" onmousedown="handleReset()"/>
                <g id="arrowUp" xlink:href="#dirArrow" transform="translate(30 24)" onmousedown="handlePan(0,-1)">
                  <use xlink:href="#rim" fill="#404040">
                        <set attributeName="fill" to="#808080" begin="arrowUp.mouseover" end="arrowUp.mouseout"/>
                  </use>
                  <path fill="none" stroke="white" stroke-width="1.5" d="M0,-3.0v7 M-2.5,-0.5L0,-3.0L2.5,-0.5"/>
                </g>
                <g id="arrowRight" xlink:href="#dirArrow" transform="rotate(90) translate(36 -43)" onmousedown="handlePan(1,0)">
                  <use xlink:href="#rim" fill="#404040">
                        <set attributeName="fill" to="#808080" begin="arrowRight.mouseover" end="arrowRight.mouseout"/>
                  </use>
                  <path fill="none" stroke="white" stroke-width="1.5" d="M0,-3.0v7 M-2.5,-0.5L0,-3.0L2.5,-0.5"/>
                </g>
                <g id="arrowDown" xlink:href="#dirArrow" transform="rotate(180) translate(-30 -48)" onmousedown="handlePan(0,1)">
                  <use xlink:href="#rim" fill="#404040">
                        <set attributeName="fill" to="#808080" begin="arrowDown.mouseover" end="arrowDown.mouseout"/>
                  </use>
                  <path fill="none" stroke="white" stroke-width="1.5" d="M0,-3.0v7 M-2.5,-0.5L0,-3.0L2.5,-0.5"/>
                </g>
                <g id="arrowLeft" xlink:href="#dirArrow" transform="rotate(270) translate(-36 17)" onmousedown="handlePan(-1,0)">
                  <use xlink:href="#rim" fill="#404040">
                        <set attributeName="fill" to="#808080" begin="arrowLeft.mouseover" end="arrowLeft.mouseout"/>
                  </use>
                  <path fill="none" stroke="white" stroke-width="1.5" d="M0,-3.0v7 M-2.5,-0.5L0,-3.0L2.5,-0.5"/>
                </g>
        </g>
        <svg viewBox="0 0 15 15" width="100%" height="30px" preserveAspectRatio="xMaxYMin meet">
         <g id="arrow_out" transform="scale(0.3 0.3)">
          <a xlink:href="class_e_l_e_m_e_n_t__inherit__graph_org.svg" target="_base">
           <rect id="button" ry="5" rx="5" y="6" x="6" height="38" width="38"
                fill="#f2f5e9" fill-opacity="0.5" stroke="#606060" stroke-width="1.0"/>
           <path id="arrow"
             d="M 11.500037,31.436501 C 11.940474,20.09759 22.043105,11.32322 32.158766,21.979434 L 37.068811,17.246167 C 37.068811,17.246167 37.088388,32 37.088388,32 L 22.160133,31.978069 C 22.160133,31.978069 26.997745,27.140456 26.997745,27.140456 C 18.528582,18.264221 13.291696,25.230495 11.500037,31.436501 z"
             style="fill:#404040;"/>
          </a>
         </g>
        </svg>
</svg>
