<?xml version="1.0" encoding="UTF-8" standalone="no"?>
<!DOCTYPE svg PUBLIC "-//W3C//DTD SVG 1.1//EN"
 "http://www.w3.org/Graphics/SVG/1.1/DTD/svg11.dtd">
<!-- Generated by graphviz version 9.0.0 (20230911.1827)
 -->
<!-- Title: FTensor::ddTensor2_symmetric&lt; T, Dim01, Dim23, i, j, k, l &gt; Pages: 1 -->
<!--zoomable 201 -->
<svg id="main" version="1.1" xmlns="http://www.w3.org/2000/svg" xmlns:xlink="http://www.w3.org/1999/xlink" xml:space="preserve" onload="init(evt)">
<style type="text/css"><![CDATA[
.edge:hover path { stroke: red; }
.edge:hover polygon { stroke: red; fill: red; }
]]></style>
<script type="text/javascript"><![CDATA[
var edges = document.getElementsByTagName('g');
if (edges && edges.length) {
  for (var i=0;i<edges.length;i++) {
    if (edges[i].id.substr(0,4)=='edge') {
      edges[i].setAttribute('class','edge');
    }
  }
}
]]></script>
        <defs>
                <circle id="rim" cx="0" cy="0" r="7"/>
                <circle id="rim2" cx="0" cy="0" r="3.5"/>
                <g id="zoomPlus">
                        <use xlink:href="#rim" fill="#404040">
                                <set attributeName="fill" to="#808080" begin="zoomplus.mouseover" end="zoomplus.mouseout"/>
                        </use>
                        <path d="M-4,0h8M0,-4v8" fill="none" stroke="white" stroke-width="1.5" pointer-events="none"/>
                </g>
                <g id="zoomMin">
                        <use xlink:href="#rim" fill="#404040">
                                <set attributeName="fill" to="#808080" begin="zoomminus.mouseover" end="zoomminus.mouseout"/>
                        </use>
                        <path d="M-4,0h8" fill="none" stroke="white" stroke-width="1.5" pointer-events="none"/>
                </g>
                <g id="dirArrow">
                        <path fill="none" stroke="white" stroke-width="1.5" d="M0,-3.0v7 M-2.5,-0.5L0,-3.0L2.5,-0.5"/>
                </g>
               <g id="resetDef">
                       <use xlink:href="#rim2" fill="#404040">
                               <set attributeName="fill" to="#808080" begin="reset.mouseover" end="reset.mouseout"/>
                       </use>
               </g>
        </defs>

<script type="text/javascript">
var viewWidth = 683;
var viewHeight = 201;
var sectionId = 'dynsection-0';
</script>
<script xlink:href="svgpan.js"/>
<svg id="graph" class="graph">
<g id="viewport">
<title>FTensor::ddTensor2_symmetric&lt; T, Dim01, Dim23, i, j, k, l &gt;</title>
<!-- Node1 -->
<g id="node1" class="node">
<title>Node1</title>
<g id="a_node1"><a xlink:title=" ">
<polygon fill="#999999" stroke="#666666" points="675.3,-120.5 557.3,-120.5 557.3,-78.75 675.3,-78.75 675.3,-120.5"/>
<text text-anchor="start" x="565.3" y="-107" font-family="Helvetica,sans-Serif" font-size="10.00">FTensor::ddTensor2</text>
<text text-anchor="start" x="565.3" y="-95.75" font-family="Helvetica,sans-Serif" font-size="10.00">_symmetric&lt; T, Dim01,</text>
<text text-anchor="middle" x="616.3" y="-84.5" font-family="Helvetica,sans-Serif" font-size="10.00"> Dim23, i, j, k, l &gt;</text>
</a>
</g>
</g>
<!-- Node2 -->
<g id="node2" class="node">
<title>Node2</title>
<g id="a_node2"><a xlink:href="class_f_tensor_1_1_tensor2__symmetric.html" target="_top" xlink:title=" ">
<polygon fill="white" stroke="#666666" points="492.05,-169.88 349.3,-169.88 349.3,-139.38 492.05,-139.38 492.05,-169.88"/>
<text text-anchor="start" x="357.3" y="-156.38" font-family="Helvetica,sans-Serif" font-size="10.00">FTensor::Tensor2_symmetric</text>
<text text-anchor="middle" x="420.67" y="-145.12" font-family="Helvetica,sans-Serif" font-size="10.00">&lt; T *, Dim01 &gt;</text>
</a>
</g>
</g>
<!-- Node2&#45;&gt;Node1 -->
<g id="edge1" class="edge">
<title>Node2&#45;&gt;Node1</title>
<path fill="none" stroke="#9a32cd" stroke-dasharray="5,2" d="M487.71,-135.87C510.19,-129.48 535.13,-122.4 556.96,-116.2"/>
<polygon fill="#9a32cd" stroke="#9a32cd" points="487.02,-132.42 478.36,-138.52 488.93,-139.16 487.02,-132.42"/>
<text text-anchor="middle" x="524.67" y="-130.38" font-family="Helvetica,sans-Serif" font-size="10.00"> a</text>
</g>
<!-- Node3 -->
<g id="node3" class="node">
<title>Node3</title>
<g id="a_node3"><a xlink:title=" ">
<polygon fill="white" stroke="#666666" points="28.8,-164.25 0,-164.25 0,-145 28.8,-145 28.8,-164.25"/>
<text text-anchor="middle" x="14.4" y="-150.75" font-family="Helvetica,sans-Serif" font-size="10.00">T</text>
</a>
</g>
</g>
<!-- Node3&#45;&gt;Node2 -->
<g id="edge2" class="edge">
<title>Node3&#45;&gt;Node2</title>
<path fill="none" stroke="#9a32cd" stroke-dasharray="5,2" d="M39.47,-166.78C41.92,-167.82 44.39,-168.79 46.8,-169.62 63.91,-175.57 68.55,-176.61 86.55,-178.62 176.88,-188.72 281.48,-177.46 349.02,-167.2"/>
<polygon fill="#9a32cd" stroke="#9a32cd" points="41.11,-163.68 30.56,-162.67 38.17,-170.04 41.11,-163.68"/>
<text text-anchor="middle" x="157.92" y="-183.38" font-family="Helvetica,sans-Serif" font-size="10.00"> data</text>
</g>
<!-- Node4 -->
<g id="node4" class="node">
<title>Node4</title>
<g id="a_node4"><a xlink:href="class_f_tensor_1_1_tensor2__symmetric.html" target="_top" xlink:title=" ">
<polygon fill="white" stroke="#666666" points="229.3,-169.88 86.55,-169.88 86.55,-139.38 229.3,-139.38 229.3,-169.88"/>
<text text-anchor="start" x="94.55" y="-156.38" font-family="Helvetica,sans-Serif" font-size="10.00">FTensor::Tensor2_symmetric</text>
<text text-anchor="middle" x="157.92" y="-145.12" font-family="Helvetica,sans-Serif" font-size="10.00">&lt; T, Tensor_Dim &gt;</text>
</a>
</g>
</g>
<!-- Node3&#45;&gt;Node4 -->
<g id="edge4" class="edge">
<title>Node3&#45;&gt;Node4</title>
<path fill="none" stroke="#9a32cd" stroke-dasharray="5,2" d="M40.41,-154.62C53.33,-154.62 69.81,-154.62 86.28,-154.62"/>
<polygon fill="#9a32cd" stroke="#9a32cd" points="40.74,-151.13 30.74,-154.63 40.74,-158.13 40.74,-151.13"/>
<text text-anchor="middle" x="57.67" y="-156.38" font-family="Helvetica,sans-Serif" font-size="10.00"> data</text>
</g>
<!-- Node7 -->
<g id="node7" class="node">
<title>Node7</title>
<g id="a_node7"><a xlink:href="class_f_tensor_1_1_tensor1.html" target="_top" xlink:title=" ">
<polygon fill="white" stroke="#666666" points="212.05,-83.88 103.8,-83.88 103.8,-53.38 212.05,-53.38 212.05,-83.88"/>
<text text-anchor="start" x="111.8" y="-70.38" font-family="Helvetica,sans-Serif" font-size="10.00">FTensor::Tensor1&lt; T,</text>
<text text-anchor="middle" x="157.92" y="-59.12" font-family="Helvetica,sans-Serif" font-size="10.00"> Tensor_Dim &gt;</text>
</a>
</g>
</g>
<!-- Node3&#45;&gt;Node7 -->
<g id="edge8" class="edge">
<title>Node3&#45;&gt;Node7</title>
<path fill="none" stroke="#9a32cd" stroke-dasharray="5,2" d="M32.04,-136.74C45.59,-123.06 65.82,-104.57 86.55,-92.62 91.92,-89.53 97.75,-86.75 103.68,-84.28"/>
<polygon fill="#9a32cd" stroke="#9a32cd" points="29.62,-134.2 25.2,-143.83 34.66,-139.06 29.62,-134.2"/>
<text text-anchor="middle" x="57.67" y="-123.38" font-family="Helvetica,sans-Serif" font-size="10.00"> data</text>
</g>
<!-- Node4&#45;&gt;Node2 -->
<g id="edge3" class="edge">
<title>Node4&#45;&gt;Node2</title>
<path fill="none" stroke="orange" stroke-dasharray="5,2" d="M240.58,-154.62C275.37,-154.62 315.57,-154.62 349.06,-154.62"/>
<polygon fill="orange" stroke="orange" points="241,-151.13 231,-154.63 241,-158.13 241,-151.13"/>
<text text-anchor="middle" x="289.3" y="-156.38" font-family="Helvetica,sans-Serif" font-size="10.00"> &lt; T *, Dim01 &gt;</text>
</g>
<!-- Node5 -->
<g id="node5" class="node">
<title>Node5</title>
<g id="a_node5"><a xlink:href="class_f_tensor_1_1_tensor1.html" target="_top" xlink:title=" ">
<polygon fill="white" stroke="#666666" points="477.8,-114.88 363.55,-114.88 363.55,-84.38 477.8,-84.38 477.8,-114.88"/>
<text text-anchor="start" x="371.55" y="-101.38" font-family="Helvetica,sans-Serif" font-size="10.00">FTensor::Tensor1&lt; int,</text>
<text text-anchor="middle" x="420.67" y="-90.12" font-family="Helvetica,sans-Serif" font-size="10.00"> Dim23 &gt;</text>
</a>
</g>
</g>
<!-- Node5&#45;&gt;Node1 -->
<g id="edge5" class="edge">
<title>Node5&#45;&gt;Node1</title>
<path fill="none" stroke="#9a32cd" stroke-dasharray="5,2" d="M489.49,-99.62C511.52,-99.62 535.75,-99.62 557.02,-99.62"/>
<polygon fill="#9a32cd" stroke="#9a32cd" points="489.71,-96.13 479.71,-99.63 489.71,-103.13 489.71,-96.13"/>
<text text-anchor="middle" x="524.67" y="-101.38" font-family="Helvetica,sans-Serif" font-size="10.00"> d_ijk</text>
</g>
<!-- Node6 -->
<g id="node6" class="node">
<title>Node6</title>
<g id="a_node6"><a xlink:title=" ">
<polygon fill="white" stroke="#666666" points="172.32,-121.25 143.52,-121.25 143.52,-102 172.32,-102 172.32,-121.25"/>
<text text-anchor="middle" x="157.92" y="-107.75" font-family="Helvetica,sans-Serif" font-size="10.00">int</text>
</a>
</g>
</g>
<!-- Node6&#45;&gt;Node5 -->
<g id="edge6" class="edge">
<title>Node6&#45;&gt;Node5</title>
<path fill="none" stroke="#9a32cd" stroke-dasharray="5,2" d="M183.89,-110.48C224.91,-108.59 307.55,-104.79 363.26,-102.22"/>
<polygon fill="#9a32cd" stroke="#9a32cd" points="183.92,-106.97 174.09,-110.93 184.24,-113.96 183.92,-106.97"/>
<text text-anchor="middle" x="289.3" y="-108.38" font-family="Helvetica,sans-Serif" font-size="10.00"> data</text>
</g>
<!-- Node7&#45;&gt;Node5 -->
<g id="edge7" class="edge">
<title>Node7&#45;&gt;Node5</title>
<path fill="none" stroke="orange" stroke-dasharray="5,2" d="M223.64,-75.84C255.98,-79.5 295.72,-84.07 331.3,-88.38 341.59,-89.62 352.54,-90.98 363.11,-92.32"/>
<polygon fill="orange" stroke="orange" points="224.35,-72.4 214.02,-74.76 223.57,-79.36 224.35,-72.4"/>
<text text-anchor="middle" x="289.3" y="-90.38" font-family="Helvetica,sans-Serif" font-size="10.00"> &lt; int, Dim23 &gt;</text>
</g>
<!-- Node8 -->
<g id="node8" class="node">
<title>Node8</title>
<g id="a_node8"><a xlink:href="class_f_tensor_1_1_tensor1.html" target="_top" xlink:title=" ">
<polygon fill="white" stroke="#666666" points="486.8,-58.88 354.55,-58.88 354.55,-28.38 486.8,-28.38 486.8,-58.88"/>
<text text-anchor="start" x="362.55" y="-45.38" font-family="Helvetica,sans-Serif" font-size="10.00">FTensor::Tensor1&lt; double,</text>
<text text-anchor="middle" x="420.67" y="-34.12" font-family="Helvetica,sans-Serif" font-size="10.00"> Dim23 &gt;</text>
</a>
</g>
</g>
<!-- Node7&#45;&gt;Node8 -->
<g id="edge11" class="edge">
<title>Node7&#45;&gt;Node8</title>
<path fill="none" stroke="orange" stroke-dasharray="5,2" d="M218.2,-50.07C227.84,-47.72 237.78,-45.68 247.3,-44.38 282.44,-39.56 321.98,-39.05 354.32,-39.88"/>
<polygon fill="orange" stroke="orange" points="217.34,-46.68 208.53,-52.57 219.09,-53.45 217.34,-46.68"/>
<text text-anchor="middle" x="289.3" y="-46.38" font-family="Helvetica,sans-Serif" font-size="10.00"> &lt; double, Dim23 &gt;</text>
</g>
<!-- Node8&#45;&gt;Node1 -->
<g id="edge9" class="edge">
<title>Node8&#45;&gt;Node1</title>
<path fill="none" stroke="#9a32cd" stroke-dasharray="5,2" d="M487,-62.52C509.62,-69.06 534.82,-76.35 556.86,-82.72"/>
<polygon fill="#9a32cd" stroke="#9a32cd" points="488.16,-59.21 477.58,-59.79 486.21,-65.93 488.16,-59.21"/>
<text text-anchor="middle" x="524.67" y="-79.38" font-family="Helvetica,sans-Serif" font-size="10.00"> d_xyz</text>
</g>
<!-- Node9 -->
<g id="node9" class="node">
<title>Node9</title>
<g id="a_node9"><a xlink:href="classdouble.html" target="_top" xlink:title=" ">
<polygon fill="white" stroke="#666666" points="180.17,-19.25 135.67,-19.25 135.67,0 180.17,0 180.17,-19.25"/>
<text text-anchor="middle" x="157.92" y="-5.75" font-family="Helvetica,sans-Serif" font-size="10.00">double</text>
</a>
</g>
</g>
<!-- Node9&#45;&gt;Node8 -->
<g id="edge10" class="edge">
<title>Node9&#45;&gt;Node8</title>
<path fill="none" stroke="#9a32cd" stroke-dasharray="5,2" d="M191.89,-11.18C226.69,-13.11 283.08,-17.09 331.3,-24.38 338.75,-25.5 346.52,-26.88 354.22,-28.38"/>
<polygon fill="#9a32cd" stroke="#9a32cd" points="192.21,-7.69 182.04,-10.66 191.84,-14.68 192.21,-7.69"/>
<text text-anchor="middle" x="289.3" y="-26.38" font-family="Helvetica,sans-Serif" font-size="10.00"> data</text>
</g>
</g>
</svg>
        <g id="navigator" transform="translate(0 0)" fill="#404254">
                <rect fill="#f2f5e9" fill-opacity="0.5" stroke="#606060" stroke-width=".5" x="0" y="0" width="60" height="60"/>
                <use id="zoomplus" xlink:href="#zoomPlus" x="17" y="9" onmousedown="handleZoom(evt,'in')"/>
                <use id="zoomminus" xlink:href="#zoomMin" x="42" y="9" onmousedown="handleZoom(evt,'out')"/>
                <use id="reset" xlink:href="#resetDef" x="30" y="36" onmousedown="handleReset()"/>
                <g id="arrowUp" xlink:href="#dirArrow" transform="translate(30 24)" onmousedown="handlePan(0,-1)">
                  <use xlink:href="#rim" fill="#404040">
                        <set attributeName="fill" to="#808080" begin="arrowUp.mouseover" end="arrowUp.mouseout"/>
                  </use>
                  <path fill="none" stroke="white" stroke-width="1.5" d="M0,-3.0v7 M-2.5,-0.5L0,-3.0L2.5,-0.5"/>
                </g>
                <g id="arrowRight" xlink:href="#dirArrow" transform="rotate(90) translate(36 -43)" onmousedown="handlePan(1,0)">
                  <use xlink:href="#rim" fill="#404040">
                        <set attributeName="fill" to="#808080" begin="arrowRight.mouseover" end="arrowRight.mouseout"/>
                  </use>
                  <path fill="none" stroke="white" stroke-width="1.5" d="M0,-3.0v7 M-2.5,-0.5L0,-3.0L2.5,-0.5"/>
                </g>
                <g id="arrowDown" xlink:href="#dirArrow" transform="rotate(180) translate(-30 -48)" onmousedown="handlePan(0,1)">
                  <use xlink:href="#rim" fill="#404040">
                        <set attributeName="fill" to="#808080" begin="arrowDown.mouseover" end="arrowDown.mouseout"/>
                  </use>
                  <path fill="none" stroke="white" stroke-width="1.5" d="M0,-3.0v7 M-2.5,-0.5L0,-3.0L2.5,-0.5"/>
                </g>
                <g id="arrowLeft" xlink:href="#dirArrow" transform="rotate(270) translate(-36 17)" onmousedown="handlePan(-1,0)">
                  <use xlink:href="#rim" fill="#404040">
                        <set attributeName="fill" to="#808080" begin="arrowLeft.mouseover" end="arrowLeft.mouseout"/>
                  </use>
                  <path fill="none" stroke="white" stroke-width="1.5" d="M0,-3.0v7 M-2.5,-0.5L0,-3.0L2.5,-0.5"/>
                </g>
        </g>
        <svg viewBox="0 0 15 15" width="100%" height="30px" preserveAspectRatio="xMaxYMin meet">
         <g id="arrow_out" transform="scale(0.3 0.3)">
          <a xlink:href="class_f_tensor_1_1dd_tensor2__symmetric__coll__graph_org.svg" target="_base">
           <rect id="button" ry="5" rx="5" y="6" x="6" height="38" width="38"
                fill="#f2f5e9" fill-opacity="0.5" stroke="#606060" stroke-width="1.0"/>
           <path id="arrow"
             d="M 11.500037,31.436501 C 11.940474,20.09759 22.043105,11.32322 32.158766,21.979434 L 37.068811,17.246167 C 37.068811,17.246167 37.088388,32 37.088388,32 L 22.160133,31.978069 C 22.160133,31.978069 26.997745,27.140456 26.997745,27.140456 C 18.528582,18.264221 13.291696,25.230495 11.500037,31.436501 z"
             style="fill:#404040;"/>
          </a>
         </g>
        </svg>
</svg>
