<?xml version="1.0" encoding="UTF-8" standalone="no"?>
<!DOCTYPE svg PUBLIC "-//W3C//DTD SVG 1.1//EN"
 "http://www.w3.org/Graphics/SVG/1.1/DTD/svg11.dtd">
<!-- Generated by graphviz version 2.43.0 (0)
 -->
<!-- Title: AssemblyBoundaryEleOp Pages: 1 -->
<svg width="429pt" height="247pt"
 viewBox="0.00 0.00 429.00 246.50" xmlns="http://www.w3.org/2000/svg" xmlns:xlink="http://www.w3.org/1999/xlink">
<g id="graph0" class="graph" transform="scale(1 1) rotate(0) translate(4 242.5)">
<title>AssemblyBoundaryEleOp</title>
<polygon fill="white" stroke="transparent" points="-4,4 -4,-242.5 425,-242.5 425,4 -4,4"/>
<!-- Node1 -->
<g id="node1" class="node">
<title>Node1</title>
<g id="a_node1"><a xlink:title=" ">
<polygon fill="#bfbfbf" stroke="black" points="0,-104 0,-123 140,-123 140,-104 0,-104"/>
<text text-anchor="middle" x="70" y="-111" font-family="Helvetica,sans-Serif" font-size="10.00">AssemblyBoundaryEleOp</text>
</a>
</g>
</g>
<!-- Node2 -->
<g id="node2" class="node">
<title>Node2</title>
<g id="a_node2"><a xlink:href="structContactOps_1_1OpConstrainBoundaryLhs__dUImpl_3_01DIM_00_01GAUSS_00_01AssemblyBoundaryEleOp_01_4.html" target="_top" xlink:title=" ">
<polygon fill="white" stroke="black" points="176,-197 176,-238 421,-238 421,-197 176,-197"/>
<text text-anchor="start" x="184" y="-226" font-family="Helvetica,sans-Serif" font-size="10.00">ContactOps::OpConstrainBoundary</text>
<text text-anchor="start" x="184" y="-215" font-family="Helvetica,sans-Serif" font-size="10.00">Lhs_dUImpl&lt; DIM, GAUSS, AssemblyBoundary</text>
<text text-anchor="middle" x="298.5" y="-204" font-family="Helvetica,sans-Serif" font-size="10.00">EleOp &gt;</text>
</a>
</g>
</g>
<!-- Node1&#45;&gt;Node2 -->
<g id="edge1" class="edge">
<title>Node1&#45;&gt;Node2</title>
<path fill="none" stroke="midnightblue" d="M89.5,-129.81C109.51,-146.62 142.98,-172.44 176,-187.5 183.71,-191.02 191.89,-194.16 200.22,-196.96"/>
<polygon fill="midnightblue" stroke="midnightblue" points="91.67,-127.05 81.79,-123.21 87.12,-132.37 91.67,-127.05"/>
</g>
<!-- Node3 -->
<g id="node3" class="node">
<title>Node3</title>
<g id="a_node3"><a xlink:href="structFreeSurfaceOps_1_1OpNormalConstrainLhs.html" target="_top" xlink:title=" ">
<polygon fill="white" stroke="black" points="224,-147.5 224,-177.5 373,-177.5 373,-147.5 224,-147.5"/>
<text text-anchor="start" x="232" y="-165.5" font-family="Helvetica,sans-Serif" font-size="10.00">FreeSurfaceOps::OpNormal</text>
<text text-anchor="middle" x="298.5" y="-154.5" font-family="Helvetica,sans-Serif" font-size="10.00">ConstrainLhs</text>
</a>
</g>
</g>
<!-- Node1&#45;&gt;Node3 -->
<g id="edge2" class="edge">
<title>Node1&#45;&gt;Node3</title>
<path fill="none" stroke="midnightblue" d="M119.45,-125.45C137.2,-129.72 157.48,-134.47 176,-138.5 191.44,-141.86 208.03,-145.27 223.84,-148.43"/>
<polygon fill="midnightblue" stroke="midnightblue" points="119.86,-121.95 109.32,-123 118.22,-128.75 119.86,-121.95"/>
</g>
<!-- Node4 -->
<g id="node4" class="node">
<title>Node4</title>
<g id="a_node4"><a xlink:href="structFreeSurfaceOps_1_1OpNormalConstrainRhs.html" target="_top" xlink:title=" ">
<polygon fill="white" stroke="black" points="224,-98.5 224,-128.5 373,-128.5 373,-98.5 224,-98.5"/>
<text text-anchor="start" x="232" y="-116.5" font-family="Helvetica,sans-Serif" font-size="10.00">FreeSurfaceOps::OpNormal</text>
<text text-anchor="middle" x="298.5" y="-105.5" font-family="Helvetica,sans-Serif" font-size="10.00">ConstrainRhs</text>
</a>
</g>
</g>
<!-- Node1&#45;&gt;Node4 -->
<g id="edge3" class="edge">
<title>Node1&#45;&gt;Node4</title>
<path fill="none" stroke="midnightblue" d="M150.26,-113.5C174.09,-113.5 200.15,-113.5 223.62,-113.5"/>
<polygon fill="midnightblue" stroke="midnightblue" points="150.19,-110 140.19,-113.5 150.19,-117 150.19,-110"/>
</g>
<!-- Node5 -->
<g id="node5" class="node">
<title>Node5</title>
<g id="a_node5"><a xlink:href="structFreeSurfaceOps_1_1OpNormalForceRhs.html" target="_top" xlink:title=" ">
<polygon fill="white" stroke="black" points="224,-49.5 224,-79.5 373,-79.5 373,-49.5 224,-49.5"/>
<text text-anchor="start" x="232" y="-67.5" font-family="Helvetica,sans-Serif" font-size="10.00">FreeSurfaceOps::OpNormal</text>
<text text-anchor="middle" x="298.5" y="-56.5" font-family="Helvetica,sans-Serif" font-size="10.00">ForceRhs</text>
</a>
</g>
</g>
<!-- Node1&#45;&gt;Node5 -->
<g id="edge4" class="edge">
<title>Node1&#45;&gt;Node5</title>
<path fill="none" stroke="midnightblue" d="M121.7,-101.68C138.92,-97.72 158.28,-93.35 176,-89.5 191.47,-86.14 208.07,-82.65 223.88,-79.38"/>
<polygon fill="midnightblue" stroke="midnightblue" points="120.8,-98.29 111.84,-103.95 122.37,-105.11 120.8,-98.29"/>
</g>
<!-- Node6 -->
<g id="node6" class="node">
<title>Node6</title>
<g id="a_node6"><a xlink:href="structFreeSurfaceOps_1_1OpWettingAngleRhs.html" target="_top" xlink:title=" ">
<polygon fill="white" stroke="black" points="223.5,-0.5 223.5,-30.5 373.5,-30.5 373.5,-0.5 223.5,-0.5"/>
<text text-anchor="start" x="231.5" y="-18.5" font-family="Helvetica,sans-Serif" font-size="10.00">FreeSurfaceOps::OpWetting</text>
<text text-anchor="middle" x="298.5" y="-7.5" font-family="Helvetica,sans-Serif" font-size="10.00">AngleRhs</text>
</a>
</g>
</g>
<!-- Node1&#45;&gt;Node6 -->
<g id="edge5" class="edge">
<title>Node1&#45;&gt;Node6</title>
<path fill="none" stroke="midnightblue" d="M89.43,-97.17C109.37,-80.38 142.79,-54.74 176,-40.5 190.84,-34.13 207.42,-29.35 223.44,-25.77"/>
<polygon fill="midnightblue" stroke="midnightblue" points="87.05,-94.59 81.75,-103.76 91.61,-99.9 87.05,-94.59"/>
</g>
</g>
</svg>
