<?xml version="1.0" encoding="UTF-8" standalone="no"?>
<!DOCTYPE svg PUBLIC "-//W3C//DTD SVG 1.1//EN"
 "http://www.w3.org/Graphics/SVG/1.1/DTD/svg11.dtd">
<!-- Generated by graphviz version 9.0.0 (20230911.1827)
 -->
<!-- Title: FTensor::Tensor2_symmetric_times_Tensor1_0&lt; A, B, T, U, Dim, i, j &gt; Pages: 1 -->
<svg width="691pt" height="149pt"
 viewBox="0.00 0.00 690.80 148.88" xmlns="http://www.w3.org/2000/svg" xmlns:xlink="http://www.w3.org/1999/xlink">
<g id="graph0" class="graph" transform="scale(1 1) rotate(0) translate(4 144.88)">
<title>FTensor::Tensor2_symmetric_times_Tensor1_0&lt; A, B, T, U, Dim, i, j &gt;</title>
<!-- Node1 -->
<g id="node1" class="node">
<title>Node1</title>
<g id="a_node1"><a xlink:title=" ">
<polygon fill="#999999" stroke="#666666" points="682.8,-97.5 540.05,-97.5 540.05,-55.75 682.8,-55.75 682.8,-97.5"/>
<text text-anchor="start" x="548.05" y="-84" font-family="Helvetica,sans-Serif" font-size="10.00">FTensor::Tensor2_symmetric</text>
<text text-anchor="start" x="548.05" y="-72.75" font-family="Helvetica,sans-Serif" font-size="10.00">_times_Tensor1_0&lt; A, B,</text>
<text text-anchor="middle" x="611.42" y="-61.5" font-family="Helvetica,sans-Serif" font-size="10.00"> T, U, Dim, i, j &gt;</text>
</a>
</g>
</g>
<!-- Node2 -->
<g id="node2" class="node">
<title>Node2</title>
<g id="a_node2"><a xlink:href="class_f_tensor_1_1_tensor2__symmetric___expr.html" target="_top" xlink:title=" ">
<polygon fill="white" stroke="#666666" points="480.8,-116.88 338.05,-116.88 338.05,-86.38 480.8,-86.38 480.8,-116.88"/>
<text text-anchor="start" x="346.05" y="-103.38" font-family="Helvetica,sans-Serif" font-size="10.00">FTensor::Tensor2_symmetric</text>
<text text-anchor="middle" x="409.42" y="-92.12" font-family="Helvetica,sans-Serif" font-size="10.00">_Expr&lt; A, T, Dim, j, i &gt;</text>
</a>
</g>
</g>
<!-- Node2&#45;&gt;Node1 -->
<g id="edge1" class="edge">
<title>Node2&#45;&gt;Node1</title>
<path fill="none" stroke="#9a32cd" stroke-dasharray="5,2" d="M492.5,-91.37C508.17,-89.41 524.45,-87.37 539.73,-85.46"/>
<polygon fill="#9a32cd" stroke="#9a32cd" points="492.21,-87.87 482.72,-92.59 493.08,-94.82 492.21,-87.87"/>
<text text-anchor="middle" x="510.42" y="-91.38" font-family="Helvetica,sans-Serif" font-size="10.00"> iterA</text>
</g>
<!-- Node3 -->
<g id="node3" class="node">
<title>Node3</title>
<g id="a_node3"><a xlink:title=" ">
<polygon fill="white" stroke="#666666" points="28.8,-111.25 0,-111.25 0,-92 28.8,-92 28.8,-111.25"/>
<text text-anchor="middle" x="14.4" y="-97.75" font-family="Helvetica,sans-Serif" font-size="10.00">A</text>
</a>
</g>
</g>
<!-- Node3&#45;&gt;Node2 -->
<g id="edge2" class="edge">
<title>Node3&#45;&gt;Node2</title>
<path fill="none" stroke="#9a32cd" stroke-dasharray="5,2" d="M39.5,-113.7C41.94,-114.75 44.4,-115.75 46.8,-116.62 61.68,-122.06 65.58,-123.61 81.3,-125.62 169.27,-136.91 271.28,-125.58 337.69,-114.98"/>
<polygon fill="#9a32cd" stroke="#9a32cd" points="41.14,-110.6 30.6,-109.57 38.19,-116.95 41.14,-110.6"/>
<text text-anchor="middle" x="152.67" y="-131.38" font-family="Helvetica,sans-Serif" font-size="10.00"> iter</text>
</g>
<!-- Node4 -->
<g id="node4" class="node">
<title>Node4</title>
<g id="a_node4"><a xlink:href="class_f_tensor_1_1_tensor2__symmetric___expr.html" target="_top" xlink:title=" ">
<polygon fill="white" stroke="#666666" points="224.05,-116.88 81.3,-116.88 81.3,-86.38 224.05,-86.38 224.05,-116.88"/>
<text text-anchor="start" x="89.3" y="-103.38" font-family="Helvetica,sans-Serif" font-size="10.00">FTensor::Tensor2_symmetric</text>
<text text-anchor="middle" x="152.67" y="-92.12" font-family="Helvetica,sans-Serif" font-size="10.00">_Expr&lt; A, T, Dim, i, j &gt;</text>
</a>
</g>
</g>
<!-- Node3&#45;&gt;Node4 -->
<g id="edge4" class="edge">
<title>Node3&#45;&gt;Node4</title>
<path fill="none" stroke="#9a32cd" stroke-dasharray="5,2" d="M40.54,-101.62C52.09,-101.62 66.44,-101.62 80.95,-101.62"/>
<polygon fill="#9a32cd" stroke="#9a32cd" points="40.73,-98.13 30.73,-101.63 40.73,-105.13 40.73,-98.13"/>
<text text-anchor="middle" x="55.05" y="-103.38" font-family="Helvetica,sans-Serif" font-size="10.00"> iter</text>
</g>
<!-- Node7 -->
<g id="node7" class="node">
<title>Node7</title>
<g id="a_node7"><a xlink:href="class_f_tensor_1_1_tensor1___expr.html" target="_top" xlink:title=" ">
<polygon fill="white" stroke="#666666" points="211.3,-67.88 94.05,-67.88 94.05,-37.38 211.3,-37.38 211.3,-67.88"/>
<text text-anchor="start" x="102.05" y="-54.38" font-family="Helvetica,sans-Serif" font-size="10.00">FTensor::Tensor1_Expr</text>
<text text-anchor="middle" x="152.67" y="-43.12" font-family="Helvetica,sans-Serif" font-size="10.00">&lt; A, T, Dim, i &gt;</text>
</a>
</g>
</g>
<!-- Node3&#45;&gt;Node7 -->
<g id="edge8" class="edge">
<title>Node3&#45;&gt;Node7</title>
<path fill="none" stroke="#9a32cd" stroke-dasharray="5,2" d="M39.55,-89.48C41.98,-88.38 44.42,-87.33 46.8,-86.38 63.13,-79.82 81.27,-73.62 97.8,-68.36"/>
<polygon fill="#9a32cd" stroke="#9a32cd" points="38.17,-86.26 30.64,-93.71 41.18,-92.58 38.17,-86.26"/>
<text text-anchor="middle" x="55.05" y="-87.38" font-family="Helvetica,sans-Serif" font-size="10.00"> iter</text>
</g>
<!-- Node4&#45;&gt;Node2 -->
<g id="edge3" class="edge">
<title>Node4&#45;&gt;Node2</title>
<path fill="none" stroke="orange" stroke-dasharray="5,2" d="M235.71,-101.62C268.56,-101.62 306.03,-101.62 337.66,-101.62"/>
<polygon fill="orange" stroke="orange" points="235.81,-98.13 225.81,-101.63 235.81,-105.13 235.81,-98.13"/>
<text text-anchor="middle" x="281.05" y="-103.38" font-family="Helvetica,sans-Serif" font-size="10.00"> &lt; A, T, Dim, j, i &gt;</text>
</g>
<!-- Node5 -->
<g id="node5" class="node">
<title>Node5</title>
<g id="a_node5"><a xlink:href="class_f_tensor_1_1_tensor1___expr.html" target="_top" xlink:title=" ">
<polygon fill="white" stroke="#666666" points="468.05,-67.88 350.8,-67.88 350.8,-37.38 468.05,-37.38 468.05,-67.88"/>
<text text-anchor="start" x="358.8" y="-54.38" font-family="Helvetica,sans-Serif" font-size="10.00">FTensor::Tensor1_Expr</text>
<text text-anchor="middle" x="409.42" y="-43.12" font-family="Helvetica,sans-Serif" font-size="10.00">&lt; B, U, Dim, j &gt;</text>
</a>
</g>
</g>
<!-- Node5&#45;&gt;Node1 -->
<g id="edge5" class="edge">
<title>Node5&#45;&gt;Node1</title>
<path fill="none" stroke="#9a32cd" stroke-dasharray="5,2" d="M479.53,-59.54C493.61,-61.05 508.31,-62.7 522.05,-64.38 527.89,-65.09 533.95,-65.86 540.02,-66.65"/>
<polygon fill="#9a32cd" stroke="#9a32cd" points="480.22,-56.09 469.91,-58.52 479.48,-63.06 480.22,-56.09"/>
<text text-anchor="middle" x="510.42" y="-65.38" font-family="Helvetica,sans-Serif" font-size="10.00"> iterB</text>
</g>
<!-- Node6 -->
<g id="node6" class="node">
<title>Node6</title>
<g id="a_node6"><a xlink:href="class_b.html" target="_top" xlink:title=" ">
<polygon fill="white" stroke="#666666" points="167.07,-19.25 138.27,-19.25 138.27,0 167.07,0 167.07,-19.25"/>
<text text-anchor="middle" x="152.67" y="-5.75" font-family="Helvetica,sans-Serif" font-size="10.00">B</text>
</a>
</g>
</g>
<!-- Node6&#45;&gt;Node5 -->
<g id="edge6" class="edge">
<title>Node6&#45;&gt;Node5</title>
<path fill="none" stroke="#9a32cd" stroke-dasharray="5,2" d="M178.6,-13.74C211.14,-19.12 269.87,-28.86 320.05,-37.38 329.87,-39.04 340.31,-40.83 350.44,-42.57"/>
<polygon fill="#9a32cd" stroke="#9a32cd" points="179.41,-10.32 168.98,-12.15 178.27,-17.23 179.41,-10.32"/>
<text text-anchor="middle" x="281.05" y="-39.38" font-family="Helvetica,sans-Serif" font-size="10.00"> iter</text>
</g>
<!-- Node7&#45;&gt;Node5 -->
<g id="edge7" class="edge">
<title>Node7&#45;&gt;Node5</title>
<path fill="none" stroke="orange" stroke-dasharray="5,2" d="M222.75,-52.62C262.72,-52.62 312.47,-52.62 350.41,-52.62"/>
<polygon fill="orange" stroke="orange" points="223,-49.13 213,-52.63 223,-56.13 223,-49.13"/>
<text text-anchor="middle" x="281.05" y="-54.38" font-family="Helvetica,sans-Serif" font-size="10.00"> &lt; B, U, Dim, j &gt;</text>
</g>
</g>
</svg>
