<?xml version="1.0" encoding="UTF-8" standalone="no"?>
<!DOCTYPE svg PUBLIC "-//W3C//DTD SVG 1.1//EN"
 "http://www.w3.org/Graphics/SVG/1.1/DTD/svg11.dtd">
<!-- Generated by graphviz version 9.0.0 (20230911.1827)
 -->
<!-- Title: ContactEle Pages: 1 -->
<svg width="985pt" height="93pt"
 viewBox="0.00 0.00 985.25 93.12" xmlns="http://www.w3.org/2000/svg" xmlns:xlink="http://www.w3.org/1999/xlink">
<g id="graph0" class="graph" transform="scale(1 1) rotate(0) translate(4 89.12)">
<title>ContactEle</title>
<!-- Node1 -->
<g id="node1" class="node">
<title>Node1</title>
<g id="a_node1"><a xlink:title=" ">
<polygon fill="#999999" stroke="#666666" points="64.75,-48.88 0,-48.88 0,-29.62 64.75,-29.62 64.75,-48.88"/>
<text text-anchor="middle" x="32.38" y="-35.38" font-family="Helvetica,sans-Serif" font-size="10.00">ContactEle</text>
</a>
</g>
</g>
<!-- Node2 -->
<g id="node2" class="node">
<title>Node2</title>
<g id="a_node2"><a xlink:href="struct_simple_contact_problem_1_1_simple_contact_element.html" target="_top" xlink:title=" ">
<polygon fill="white" stroke="#666666" points="223.25,-54.5 100.75,-54.5 100.75,-24 223.25,-24 223.25,-54.5"/>
<text text-anchor="start" x="108.75" y="-41" font-family="Helvetica,sans-Serif" font-size="10.00">SimpleContactProblem</text>
<text text-anchor="middle" x="162" y="-29.75" font-family="Helvetica,sans-Serif" font-size="10.00">::SimpleContactElement</text>
</a>
</g>
</g>
<!-- Node1&#45;&gt;Node2 -->
<g id="edge1" class="edge">
<title>Node1&#45;&gt;Node2</title>
<path fill="none" stroke="#63b8ff" d="M76.28,-39.25C84.04,-39.25 92.27,-39.25 100.43,-39.25"/>
<polygon fill="#63b8ff" stroke="#63b8ff" points="76.44,-35.75 66.44,-39.25 76.44,-42.75 76.44,-35.75"/>
</g>
<!-- Node3 -->
<g id="node3" class="node">
<title>Node3</title>
<g id="a_node3"><a xlink:href="struct_simple_contact_problem_1_1_convect_master_contact_element.html" target="_top" xlink:title="Element used to integrate on slave surfaces. It convects integration points on slaves,...">
<polygon fill="white" stroke="#666666" points="418.5,-54.5 259.25,-54.5 259.25,-24 418.5,-24 418.5,-54.5"/>
<text text-anchor="start" x="267.25" y="-41" font-family="Helvetica,sans-Serif" font-size="10.00">SimpleContactProblem</text>
<text text-anchor="middle" x="338.88" y="-29.75" font-family="Helvetica,sans-Serif" font-size="10.00">::ConvectMasterContactElement</text>
</a>
</g>
</g>
<!-- Node2&#45;&gt;Node3 -->
<g id="edge2" class="edge">
<title>Node2&#45;&gt;Node3</title>
<path fill="none" stroke="#63b8ff" d="M235.02,-39.25C242.88,-39.25 250.9,-39.25 258.83,-39.25"/>
<polygon fill="#63b8ff" stroke="#63b8ff" points="235.19,-35.75 225.19,-39.25 235.19,-42.75 235.19,-35.75"/>
</g>
<!-- Node4 -->
<g id="node4" class="node">
<title>Node4</title>
<g id="a_node4"><a xlink:href="struct_mortar_contact_problem_1_1_mortar_contact_element.html" target="_top" xlink:title=" ">
<polygon fill="white" stroke="#666666" points="591.62,-79.5 471.38,-79.5 471.38,-49 591.62,-49 591.62,-79.5"/>
<text text-anchor="start" x="479.38" y="-66" font-family="Helvetica,sans-Serif" font-size="10.00">MortarContactProblem</text>
<text text-anchor="middle" x="531.5" y="-54.75" font-family="Helvetica,sans-Serif" font-size="10.00">::MortarContactElement</text>
</a>
</g>
</g>
<!-- Node3&#45;&gt;Node4 -->
<g id="edge3" class="edge">
<title>Node3&#45;&gt;Node4</title>
<path fill="none" stroke="#63b8ff" d="M429.95,-51.06C443.94,-52.9 458.07,-54.75 471.15,-56.47"/>
<polygon fill="#63b8ff" stroke="#63b8ff" points="430.66,-47.63 420.29,-49.8 429.75,-54.57 430.66,-47.63"/>
</g>
<!-- Node7 -->
<g id="node7" class="node">
<title>Node7</title>
<g id="a_node7"><a xlink:href="struct_simple_contact_problem_1_1_convect_slave_contact_element.html" target="_top" xlink:title="Element used to integrate on master surfaces. It convects integration points on slaves,...">
<polygon fill="white" stroke="#666666" points="608.5,-30.5 454.5,-30.5 454.5,0 608.5,0 608.5,-30.5"/>
<text text-anchor="start" x="462.5" y="-17" font-family="Helvetica,sans-Serif" font-size="10.00">SimpleContactProblem</text>
<text text-anchor="middle" x="531.5" y="-5.75" font-family="Helvetica,sans-Serif" font-size="10.00">::ConvectSlaveContactElement</text>
</a>
</g>
</g>
<!-- Node3&#45;&gt;Node7 -->
<g id="edge6" class="edge">
<title>Node3&#45;&gt;Node7</title>
<path fill="none" stroke="#63b8ff" d="M430.09,-27.89C438.12,-26.88 446.2,-25.86 454.1,-24.87"/>
<polygon fill="#63b8ff" stroke="#63b8ff" points="429.77,-24.4 420.29,-29.13 430.65,-31.35 429.77,-24.4"/>
</g>
<!-- Node5 -->
<g id="node5" class="node">
<title>Node5</title>
<g id="a_node5"><a xlink:href="struct_mortar_contact_problem_1_1_mortar_convect_master_contact_element.html" target="_top" xlink:title="Element used to integrate on slave surfaces. It convects integration points on slaves,...">
<polygon fill="white" stroke="#666666" points="795.5,-85.12 644.5,-85.12 644.5,-43.38 795.5,-43.38 795.5,-85.12"/>
<text text-anchor="start" x="652.5" y="-71.62" font-family="Helvetica,sans-Serif" font-size="10.00">MortarContactProblem</text>
<text text-anchor="start" x="652.5" y="-60.38" font-family="Helvetica,sans-Serif" font-size="10.00">::MortarConvectMasterContact</text>
<text text-anchor="middle" x="720" y="-49.12" font-family="Helvetica,sans-Serif" font-size="10.00">Element</text>
</a>
</g>
</g>
<!-- Node4&#45;&gt;Node5 -->
<g id="edge4" class="edge">
<title>Node4&#45;&gt;Node5</title>
<path fill="none" stroke="#63b8ff" d="M603.15,-64.25C616.61,-64.25 630.74,-64.25 644.32,-64.25"/>
<polygon fill="#63b8ff" stroke="#63b8ff" points="603.54,-60.75 593.54,-64.25 603.54,-67.75 603.54,-60.75"/>
</g>
<!-- Node6 -->
<g id="node6" class="node">
<title>Node6</title>
<g id="a_node6"><a xlink:href="struct_mortar_contact_problem_1_1_mortar_convect_slave_contact_element.html" target="_top" xlink:title="Element used to integrate on master surfaces. It convects integration points on slaves,...">
<polygon fill="white" stroke="#666666" points="977.25,-85.12 831.5,-85.12 831.5,-43.38 977.25,-43.38 977.25,-85.12"/>
<text text-anchor="start" x="839.5" y="-71.62" font-family="Helvetica,sans-Serif" font-size="10.00">MortarContactProblem</text>
<text text-anchor="start" x="839.5" y="-60.38" font-family="Helvetica,sans-Serif" font-size="10.00">::MortarConvectSlaveContact</text>
<text text-anchor="middle" x="904.38" y="-49.12" font-family="Helvetica,sans-Serif" font-size="10.00">Element</text>
</a>
</g>
</g>
<!-- Node5&#45;&gt;Node6 -->
<g id="edge5" class="edge">
<title>Node5&#45;&gt;Node6</title>
<path fill="none" stroke="#63b8ff" d="M807.47,-64.25C815.36,-64.25 823.3,-64.25 831.05,-64.25"/>
<polygon fill="#63b8ff" stroke="#63b8ff" points="807.48,-60.75 797.48,-64.25 807.48,-67.75 807.48,-60.75"/>
</g>
</g>
</svg>
