<?xml version="1.0" encoding="UTF-8" standalone="no"?>
<!DOCTYPE svg PUBLIC "-//W3C//DTD SVG 1.1//EN"
 "http://www.w3.org/Graphics/SVG/1.1/DTD/svg11.dtd">
<!-- Generated by graphviz version 2.43.0 (0)
 -->
<!-- Title: FTensor::Tensor3_antisymmetric_plus_Tensor3_antisymmetric_12&lt; A, B, T, U, Dim0, Dim12, i, j, k &gt; Pages: 1 -->
<svg width="820pt" height="134pt"
 viewBox="0.00 0.00 820.00 134.00" xmlns="http://www.w3.org/2000/svg" xmlns:xlink="http://www.w3.org/1999/xlink">
<g id="graph0" class="graph" transform="scale(1 1) rotate(0) translate(4 130)">
<title>FTensor::Tensor3_antisymmetric_plus_Tensor3_antisymmetric_12&lt; A, B, T, U, Dim0, Dim12, i, j, k &gt;</title>
<polygon fill="white" stroke="transparent" points="-4,4 -4,-130 816,-130 816,4 -4,4"/>
<!-- Node1 -->
<g id="node1" class="node">
<title>Node1</title>
<g id="a_node1"><a xlink:title=" ">
<polygon fill="#bfbfbf" stroke="black" points="639,-49 639,-101 812,-101 812,-49 639,-49"/>
<text text-anchor="start" x="647" y="-89" font-family="Helvetica,sans-Serif" font-size="10.00">FTensor::Tensor3_antisymmetric</text>
<text text-anchor="start" x="647" y="-78" font-family="Helvetica,sans-Serif" font-size="10.00">_plus_Tensor3_antisymmetric</text>
<text text-anchor="start" x="647" y="-67" font-family="Helvetica,sans-Serif" font-size="10.00">_12&lt; A, B, T, U, Dim0, Dim12,</text>
<text text-anchor="middle" x="725.5" y="-56" font-family="Helvetica,sans-Serif" font-size="10.00"> i, j, k &gt;</text>
</a>
</g>
</g>
<!-- Node2 -->
<g id="node2" class="node">
<title>Node2</title>
<g id="a_node2"><a xlink:title=" ">
<polygon fill="white" stroke="#bfbfbf" points="416,-84.5 416,-125.5 563,-125.5 563,-84.5 416,-84.5"/>
<text text-anchor="start" x="424" y="-113.5" font-family="Helvetica,sans-Serif" font-size="10.00">Tensor3_antisymmetric</text>
<text text-anchor="start" x="424" y="-102.5" font-family="Helvetica,sans-Serif" font-size="10.00">_Expr&lt; A, T, Dim0, Dim12,</text>
<text text-anchor="middle" x="489.5" y="-91.5" font-family="Helvetica,sans-Serif" font-size="10.00"> i, j, k &gt;</text>
</a>
</g>
</g>
<!-- Node2&#45;&gt;Node1 -->
<g id="edge1" class="edge">
<title>Node2&#45;&gt;Node1</title>
<path fill="none" stroke="#9a32cd" stroke-dasharray="5,2" d="M573.2,-94.4C594.42,-91.68 617.29,-88.75 638.66,-86.01"/>
<polygon fill="#9a32cd" stroke="#9a32cd" points="572.73,-90.93 563.26,-95.67 573.62,-97.87 572.73,-90.93"/>
<text text-anchor="middle" x="607.5" y="-93" font-family="Helvetica,sans-Serif" font-size="10.00"> iterA</text>
</g>
<!-- Node3 -->
<g id="node3" class="node">
<title>Node3</title>
<g id="a_node3"><a xlink:href="classFTensor_1_1Tensor3__antisymmetric__Expr.html" target="_top" xlink:title=" ">
<polygon fill="white" stroke="black" points="403,-24.5 403,-65.5 576,-65.5 576,-24.5 403,-24.5"/>
<text text-anchor="start" x="411" y="-53.5" font-family="Helvetica,sans-Serif" font-size="10.00">FTensor::Tensor3_antisymmetric</text>
<text text-anchor="start" x="411" y="-42.5" font-family="Helvetica,sans-Serif" font-size="10.00">_Expr&lt; B, U, Dim0, Dim12,</text>
<text text-anchor="middle" x="489.5" y="-31.5" font-family="Helvetica,sans-Serif" font-size="10.00"> i, k, j &gt;</text>
</a>
</g>
</g>
<!-- Node3&#45;&gt;Node1 -->
<g id="edge2" class="edge">
<title>Node3&#45;&gt;Node1</title>
<path fill="none" stroke="#9a32cd" stroke-dasharray="5,2" d="M586.42,-57.3C603.74,-59.52 621.7,-61.82 638.71,-64"/>
<polygon fill="#9a32cd" stroke="#9a32cd" points="586.67,-53.8 576.3,-56 585.78,-60.74 586.67,-53.8"/>
<text text-anchor="middle" x="607.5" y="-63" font-family="Helvetica,sans-Serif" font-size="10.00"> iterB</text>
</g>
<!-- Node4 -->
<g id="node4" class="node">
<title>Node4</title>
<g id="a_node4"><a xlink:title=" ">
<polygon fill="white" stroke="#bfbfbf" points="157,-60.5 157,-79.5 186,-79.5 186,-60.5 157,-60.5"/>
<text text-anchor="middle" x="171.5" y="-67.5" font-family="Helvetica,sans-Serif" font-size="10.00">B</text>
</a>
</g>
</g>
<!-- Node4&#45;&gt;Node3 -->
<g id="edge3" class="edge">
<title>Node4&#45;&gt;Node3</title>
<path fill="none" stroke="#9a32cd" stroke-dasharray="5,2" d="M196.18,-68.13C239.45,-64.7 333.24,-57.28 402.99,-51.77"/>
<polygon fill="#9a32cd" stroke="#9a32cd" points="195.77,-64.65 186.08,-68.93 196.32,-71.63 195.77,-64.65"/>
<text text-anchor="middle" x="330.5" y="-64" font-family="Helvetica,sans-Serif" font-size="10.00"> iter</text>
</g>
<!-- Node5 -->
<g id="node5" class="node">
<title>Node5</title>
<g id="a_node5"><a xlink:href="classFTensor_1_1Tensor3__antisymmetric__Expr.html" target="_top" xlink:title=" ">
<polygon fill="white" stroke="black" points="85,-0.5 85,-41.5 258,-41.5 258,-0.5 85,-0.5"/>
<text text-anchor="start" x="93" y="-29.5" font-family="Helvetica,sans-Serif" font-size="10.00">FTensor::Tensor3_antisymmetric</text>
<text text-anchor="start" x="93" y="-18.5" font-family="Helvetica,sans-Serif" font-size="10.00">_Expr&lt; A, T, Dim0, Dim12,</text>
<text text-anchor="middle" x="171.5" y="-7.5" font-family="Helvetica,sans-Serif" font-size="10.00"> i, j, k &gt;</text>
</a>
</g>
</g>
<!-- Node5&#45;&gt;Node3 -->
<g id="edge4" class="edge">
<title>Node5&#45;&gt;Node3</title>
<path fill="none" stroke="orange" stroke-dasharray="5,2" d="M268.42,-20.05C304.99,-20.52 347,-22.09 385,-26 390.82,-26.6 396.79,-27.34 402.8,-28.19"/>
<polygon fill="orange" stroke="orange" points="268.29,-16.55 258.25,-19.94 268.22,-23.54 268.29,-16.55"/>
<text text-anchor="start" x="276" y="-40" font-family="Helvetica,sans-Serif" font-size="10.00"> &lt; B, U, Dim0, Dim12,</text>
<text text-anchor="middle" x="330.5" y="-29" font-family="Helvetica,sans-Serif" font-size="10.00"> i, k, j &gt;</text>
</g>
<!-- Node6 -->
<g id="node6" class="node">
<title>Node6</title>
<g id="a_node6"><a xlink:title=" ">
<polygon fill="white" stroke="#bfbfbf" points="0,-11.5 0,-30.5 29,-30.5 29,-11.5 0,-11.5"/>
<text text-anchor="middle" x="14.5" y="-18.5" font-family="Helvetica,sans-Serif" font-size="10.00">A</text>
</a>
</g>
</g>
<!-- Node6&#45;&gt;Node5 -->
<g id="edge5" class="edge">
<title>Node6&#45;&gt;Node5</title>
<path fill="none" stroke="#9a32cd" stroke-dasharray="5,2" d="M39.61,-21C52.08,-21 68.13,-21 84.7,-21"/>
<polygon fill="#9a32cd" stroke="#9a32cd" points="39.26,-17.5 29.26,-21 39.26,-24.5 39.26,-17.5"/>
<text text-anchor="middle" x="57" y="-24" font-family="Helvetica,sans-Serif" font-size="10.00"> iter</text>
</g>
</g>
</svg>
