<?xml version="1.0" encoding="UTF-8" standalone="no"?>
<!DOCTYPE svg PUBLIC "-//W3C//DTD SVG 1.1//EN"
 "http://www.w3.org/Graphics/SVG/1.1/DTD/svg11.dtd">
<!-- Generated by graphviz version 2.43.0 (0)
 -->
<!-- Title: FTensor::Tensor4_times_Tensor3_12_21&lt; A, B, T, U, Dim0, Dim1, Dim2, Dim3, Dim4, i, j, k, l, m &gt; Pages: 1 -->
<svg width="733pt" height="134pt"
 viewBox="0.00 0.00 733.00 134.00" xmlns="http://www.w3.org/2000/svg" xmlns:xlink="http://www.w3.org/1999/xlink">
<g id="graph0" class="graph" transform="scale(1 1) rotate(0) translate(4 130)">
<title>FTensor::Tensor4_times_Tensor3_12_21&lt; A, B, T, U, Dim0, Dim1, Dim2, Dim3, Dim4, i, j, k, l, m &gt;</title>
<polygon fill="white" stroke="transparent" points="-4,4 -4,-130 729,-130 729,4 -4,4"/>
<!-- Node1 -->
<g id="node1" class="node">
<title>Node1</title>
<g id="a_node1"><a xlink:title=" ">
<polygon fill="#bfbfbf" stroke="black" points="581,-49 581,-101 725,-101 725,-49 581,-49"/>
<text text-anchor="start" x="589" y="-89" font-family="Helvetica,sans-Serif" font-size="10.00">FTensor::Tensor4_times</text>
<text text-anchor="start" x="589" y="-78" font-family="Helvetica,sans-Serif" font-size="10.00">_Tensor3_12_21&lt; A, B,</text>
<text text-anchor="start" x="589" y="-67" font-family="Helvetica,sans-Serif" font-size="10.00"> T, U, Dim0, Dim1, Dim2,</text>
<text text-anchor="middle" x="653" y="-56" font-family="Helvetica,sans-Serif" font-size="10.00"> Dim3, Dim4, i, j, k, l, m &gt;</text>
</a>
</g>
</g>
<!-- Node2 -->
<g id="node2" class="node">
<title>Node2</title>
<g id="a_node2"><a xlink:title=" ">
<polygon fill="white" stroke="#bfbfbf" points="380,-84.5 380,-125.5 508,-125.5 508,-84.5 380,-84.5"/>
<text text-anchor="start" x="388" y="-113.5" font-family="Helvetica,sans-Serif" font-size="10.00">const Tensor4_Expr</text>
<text text-anchor="start" x="388" y="-102.5" font-family="Helvetica,sans-Serif" font-size="10.00">&lt; A, T, Dim0, Dim1,</text>
<text text-anchor="middle" x="444" y="-91.5" font-family="Helvetica,sans-Serif" font-size="10.00"> Dim2, Dim3, i, j, k, l &gt;</text>
</a>
</g>
</g>
<!-- Node2&#45;&gt;Node1 -->
<g id="edge1" class="edge">
<title>Node2&#45;&gt;Node1</title>
<path fill="none" stroke="#9a32cd" stroke-dasharray="5,2" d="M518.36,-94.37C538.66,-91.43 560.66,-88.24 580.84,-85.31"/>
<polygon fill="#9a32cd" stroke="#9a32cd" points="517.63,-90.94 508.23,-95.84 518.63,-97.87 517.63,-90.94"/>
<text text-anchor="middle" x="549.5" y="-94" font-family="Helvetica,sans-Serif" font-size="10.00"> iterA</text>
</g>
<!-- Node3 -->
<g id="node3" class="node">
<title>Node3</title>
<g id="a_node3"><a xlink:href="classFTensor_1_1Tensor3__Expr.html" target="_top" xlink:title=" ">
<polygon fill="white" stroke="black" points="370,-24.5 370,-65.5 518,-65.5 518,-24.5 370,-24.5"/>
<text text-anchor="start" x="378" y="-53.5" font-family="Helvetica,sans-Serif" font-size="10.00">FTensor::Tensor3_Expr</text>
<text text-anchor="start" x="378" y="-42.5" font-family="Helvetica,sans-Serif" font-size="10.00">&lt; B, U, Dim4, Dim2, Dim1,</text>
<text text-anchor="middle" x="444" y="-31.5" font-family="Helvetica,sans-Serif" font-size="10.00"> m, k, j &gt;</text>
</a>
</g>
</g>
<!-- Node3&#45;&gt;Node1 -->
<g id="edge2" class="edge">
<title>Node3&#45;&gt;Node1</title>
<path fill="none" stroke="#9a32cd" stroke-dasharray="5,2" d="M528.41,-57.09C545.81,-59.61 564.01,-62.25 580.91,-64.7"/>
<polygon fill="#9a32cd" stroke="#9a32cd" points="528.67,-53.59 518.27,-55.62 527.67,-60.52 528.67,-53.59"/>
<text text-anchor="middle" x="549.5" y="-64" font-family="Helvetica,sans-Serif" font-size="10.00"> iterB</text>
</g>
<!-- Node4 -->
<g id="node4" class="node">
<title>Node4</title>
<g id="a_node4"><a xlink:title=" ">
<polygon fill="white" stroke="#bfbfbf" points="143.5,-60.5 143.5,-79.5 172.5,-79.5 172.5,-60.5 143.5,-60.5"/>
<text text-anchor="middle" x="158" y="-67.5" font-family="Helvetica,sans-Serif" font-size="10.00">B</text>
</a>
</g>
</g>
<!-- Node4&#45;&gt;Node3 -->
<g id="edge3" class="edge">
<title>Node4&#45;&gt;Node3</title>
<path fill="none" stroke="#9a32cd" stroke-dasharray="5,2" d="M182.73,-67.91C223.43,-64.33 308.13,-56.87 369.89,-51.44"/>
<polygon fill="#9a32cd" stroke="#9a32cd" points="182.35,-64.43 172.7,-68.79 182.97,-71.4 182.35,-64.43"/>
<text text-anchor="middle" x="300.5" y="-64" font-family="Helvetica,sans-Serif" font-size="10.00"> iter</text>
</g>
<!-- Node5 -->
<g id="node5" class="node">
<title>Node5</title>
<g id="a_node5"><a xlink:href="classFTensor_1_1Tensor3__Expr.html" target="_top" xlink:title=" ">
<polygon fill="white" stroke="black" points="85,-0.5 85,-41.5 231,-41.5 231,-0.5 85,-0.5"/>
<text text-anchor="start" x="93" y="-29.5" font-family="Helvetica,sans-Serif" font-size="10.00">FTensor::Tensor3_Expr</text>
<text text-anchor="start" x="93" y="-18.5" font-family="Helvetica,sans-Serif" font-size="10.00">&lt; A, T, Dim0, Dim1, Dim2,</text>
<text text-anchor="middle" x="158" y="-7.5" font-family="Helvetica,sans-Serif" font-size="10.00"> i, j, k &gt;</text>
</a>
</g>
</g>
<!-- Node5&#45;&gt;Node3 -->
<g id="edge4" class="edge">
<title>Node5&#45;&gt;Node3</title>
<path fill="none" stroke="orange" stroke-dasharray="5,2" d="M241.6,-19.88C275.86,-20.26 315.94,-21.8 352,-26 357.77,-26.67 363.72,-27.53 369.68,-28.51"/>
<polygon fill="orange" stroke="orange" points="241.19,-16.38 231.16,-19.8 241.14,-23.38 241.19,-16.38"/>
<text text-anchor="start" x="249" y="-40" font-family="Helvetica,sans-Serif" font-size="10.00"> &lt; B, U, Dim4, Dim2,</text>
<text text-anchor="middle" x="300.5" y="-29" font-family="Helvetica,sans-Serif" font-size="10.00"> Dim1, m, k, j &gt;</text>
</g>
<!-- Node6 -->
<g id="node6" class="node">
<title>Node6</title>
<g id="a_node6"><a xlink:title=" ">
<polygon fill="white" stroke="#bfbfbf" points="0,-11.5 0,-30.5 29,-30.5 29,-11.5 0,-11.5"/>
<text text-anchor="middle" x="14.5" y="-18.5" font-family="Helvetica,sans-Serif" font-size="10.00">A</text>
</a>
</g>
</g>
<!-- Node6&#45;&gt;Node5 -->
<g id="edge5" class="edge">
<title>Node6&#45;&gt;Node5</title>
<path fill="none" stroke="#9a32cd" stroke-dasharray="5,2" d="M39.18,-21C51.88,-21 68.27,-21 84.77,-21"/>
<polygon fill="#9a32cd" stroke="#9a32cd" points="39.07,-17.5 29.07,-21 39.07,-24.5 39.07,-17.5"/>
<text text-anchor="middle" x="57" y="-24" font-family="Helvetica,sans-Serif" font-size="10.00"> iter</text>
</g>
</g>
</svg>
