<?xml version="1.0" encoding="UTF-8" standalone="no"?>
<!DOCTYPE svg PUBLIC "-//W3C//DTD SVG 1.1//EN"
 "http://www.w3.org/Graphics/SVG/1.1/DTD/svg11.dtd">
<!-- Generated by graphviz version 2.43.0 (0)
 -->
<!-- Title: FTensor::Tensor2_symmetric_times_Tensor2_symmetric&lt; A, B, T, U, Dim0, Dim1, i, j, k, l &gt; Pages: 1 -->
<svg width="757pt" height="113pt"
 viewBox="0.00 0.00 757.00 113.00" xmlns="http://www.w3.org/2000/svg" xmlns:xlink="http://www.w3.org/1999/xlink">
<g id="graph0" class="graph" transform="scale(1 1) rotate(0) translate(4 109)">
<title>FTensor::Tensor2_symmetric_times_Tensor2_symmetric&lt; A, B, T, U, Dim0, Dim1, i, j, k, l &gt;</title>
<polygon fill="white" stroke="transparent" points="-4,4 -4,-109 753,-109 753,4 -4,4"/>
<!-- Node1 -->
<g id="node1" class="node">
<title>Node1</title>
<g id="a_node1"><a xlink:title=" ">
<polygon fill="#bfbfbf" stroke="black" points="594,-17 594,-69 749,-69 749,-17 594,-17"/>
<text text-anchor="start" x="602" y="-57" font-family="Helvetica,sans-Serif" font-size="10.00">FTensor::Tensor2_symmetric</text>
<text text-anchor="start" x="602" y="-46" font-family="Helvetica,sans-Serif" font-size="10.00">_times_Tensor2_symmetric</text>
<text text-anchor="start" x="602" y="-35" font-family="Helvetica,sans-Serif" font-size="10.00">&lt; A, B, T, U, Dim0, Dim1,</text>
<text text-anchor="middle" x="671.5" y="-24" font-family="Helvetica,sans-Serif" font-size="10.00"> i, j, k, l &gt;</text>
</a>
</g>
</g>
<!-- Node2 -->
<g id="node2" class="node">
<title>Node2</title>
<g id="a_node2"><a xlink:href="classFTensor_1_1Tensor2__symmetric__Expr.html" target="_top" xlink:title=" ">
<polygon fill="white" stroke="black" points="376,-53 376,-83 531,-83 531,-53 376,-53"/>
<text text-anchor="start" x="384" y="-71" font-family="Helvetica,sans-Serif" font-size="10.00">FTensor::Tensor2_symmetric</text>
<text text-anchor="middle" x="453.5" y="-60" font-family="Helvetica,sans-Serif" font-size="10.00">_Expr&lt; B, U, Dim1, k, l &gt;</text>
</a>
</g>
</g>
<!-- Node2&#45;&gt;Node1 -->
<g id="edge1" class="edge">
<title>Node2&#45;&gt;Node1</title>
<path fill="none" stroke="#9a32cd" stroke-dasharray="5,2" d="M541.4,-57.94C558.81,-55.93 576.97,-53.83 593.99,-51.86"/>
<polygon fill="#9a32cd" stroke="#9a32cd" points="540.79,-54.49 531.26,-59.12 541.6,-61.44 540.79,-54.49"/>
<text text-anchor="middle" x="562.5" y="-59" font-family="Helvetica,sans-Serif" font-size="10.00"> iterB</text>
</g>
<!-- Node3 -->
<g id="node3" class="node">
<title>Node3</title>
<g id="a_node3"><a xlink:title=" ">
<polygon fill="white" stroke="#bfbfbf" points="148,-85.5 148,-104.5 177,-104.5 177,-85.5 148,-85.5"/>
<text text-anchor="middle" x="162.5" y="-92.5" font-family="Helvetica,sans-Serif" font-size="10.00">B</text>
</a>
</g>
</g>
<!-- Node3&#45;&gt;Node2 -->
<g id="edge2" class="edge">
<title>Node3&#45;&gt;Node2</title>
<path fill="none" stroke="#9a32cd" stroke-dasharray="5,2" d="M187.08,-92.8C227.78,-88.99 312.91,-81.04 375.84,-75.16"/>
<polygon fill="#9a32cd" stroke="#9a32cd" points="186.68,-89.32 177.05,-93.73 187.33,-96.29 186.68,-89.32"/>
<text text-anchor="middle" x="308" y="-88" font-family="Helvetica,sans-Serif" font-size="10.00"> iter</text>
</g>
<!-- Node4 -->
<g id="node4" class="node">
<title>Node4</title>
<g id="a_node4"><a xlink:href="classFTensor_1_1Tensor2__symmetric__Expr.html" target="_top" xlink:title=" ">
<polygon fill="white" stroke="black" points="85,-24 85,-54 240,-54 240,-24 85,-24"/>
<text text-anchor="start" x="93" y="-42" font-family="Helvetica,sans-Serif" font-size="10.00">FTensor::Tensor2_symmetric</text>
<text text-anchor="middle" x="162.5" y="-31" font-family="Helvetica,sans-Serif" font-size="10.00">_Expr&lt; A, T, Dim, i, j &gt;</text>
</a>
</g>
</g>
<!-- Node4&#45;&gt;Node2 -->
<g id="edge3" class="edge">
<title>Node4&#45;&gt;Node2</title>
<path fill="none" stroke="orange" stroke-dasharray="5,2" d="M250.2,-47.7C290.2,-51.71 337.28,-56.44 375.96,-60.32"/>
<polygon fill="orange" stroke="orange" points="250.49,-44.21 240.19,-46.7 249.79,-51.18 250.49,-44.21"/>
<text text-anchor="middle" x="308" y="-60" font-family="Helvetica,sans-Serif" font-size="10.00"> &lt; B, U, Dim1, k, l &gt;</text>
</g>
<!-- Node6 -->
<g id="node6" class="node">
<title>Node6</title>
<g id="a_node6"><a xlink:href="classFTensor_1_1Tensor2__symmetric__Expr.html" target="_top" xlink:title=" ">
<polygon fill="white" stroke="black" points="376,-4 376,-34 531,-34 531,-4 376,-4"/>
<text text-anchor="start" x="384" y="-22" font-family="Helvetica,sans-Serif" font-size="10.00">FTensor::Tensor2_symmetric</text>
<text text-anchor="middle" x="453.5" y="-11" font-family="Helvetica,sans-Serif" font-size="10.00">_Expr&lt; A, T, Dim0, i, j &gt;</text>
</a>
</g>
</g>
<!-- Node4&#45;&gt;Node6 -->
<g id="edge7" class="edge">
<title>Node4&#45;&gt;Node6</title>
<path fill="none" stroke="orange" stroke-dasharray="5,2" d="M250.23,-28.67C252.85,-28.43 255.44,-28.21 258,-28 296.75,-24.85 339.93,-22.72 375.75,-21.32"/>
<polygon fill="orange" stroke="orange" points="249.67,-25.2 240.04,-29.63 250.33,-32.17 249.67,-25.2"/>
<text text-anchor="middle" x="308" y="-31" font-family="Helvetica,sans-Serif" font-size="10.00"> &lt; A, T, Dim0, i, j &gt;</text>
</g>
<!-- Node5 -->
<g id="node5" class="node">
<title>Node5</title>
<g id="a_node5"><a xlink:title=" ">
<polygon fill="white" stroke="#bfbfbf" points="0,-0.5 0,-19.5 29,-19.5 29,-0.5 0,-0.5"/>
<text text-anchor="middle" x="14.5" y="-7.5" font-family="Helvetica,sans-Serif" font-size="10.00">A</text>
</a>
</g>
</g>
<!-- Node5&#45;&gt;Node4 -->
<g id="edge4" class="edge">
<title>Node5&#45;&gt;Node4</title>
<path fill="none" stroke="#9a32cd" stroke-dasharray="5,2" d="M39.07,-14.68C51.95,-17.24 68.71,-20.57 85.67,-23.94"/>
<polygon fill="#9a32cd" stroke="#9a32cd" points="39.73,-11.24 29.24,-12.73 38.36,-18.11 39.73,-11.24"/>
<text text-anchor="middle" x="57" y="-23" font-family="Helvetica,sans-Serif" font-size="10.00"> iter</text>
</g>
<!-- Node5&#45;&gt;Node6 -->
<g id="edge6" class="edge">
<title>Node5&#45;&gt;Node6</title>
<path fill="none" stroke="#9a32cd" stroke-dasharray="5,2" d="M39.34,-7.43C52.74,-6.12 69.78,-4.66 85,-4 153.83,-1.03 171.15,-1.57 240,-4 285.09,-5.59 335.47,-9.07 375.85,-12.28"/>
<polygon fill="#9a32cd" stroke="#9a32cd" points="38.65,-3.98 29.06,-8.48 39.37,-10.95 38.65,-3.98"/>
<text text-anchor="middle" x="162.5" y="-7" font-family="Helvetica,sans-Serif" font-size="10.00"> iter</text>
</g>
<!-- Node6&#45;&gt;Node1 -->
<g id="edge5" class="edge">
<title>Node6&#45;&gt;Node1</title>
<path fill="none" stroke="#9a32cd" stroke-dasharray="5,2" d="M541.23,-27.27C552.93,-28.47 564.76,-29.73 576,-31 581.83,-31.66 587.87,-32.36 593.93,-33.09"/>
<polygon fill="#9a32cd" stroke="#9a32cd" points="541.32,-23.76 531.01,-26.23 540.61,-30.72 541.32,-23.76"/>
<text text-anchor="middle" x="562.5" y="-34" font-family="Helvetica,sans-Serif" font-size="10.00"> iterA</text>
</g>
</g>
</svg>
