<?xml version="1.0" encoding="UTF-8" standalone="no"?>
<!DOCTYPE svg PUBLIC "-//W3C//DTD SVG 1.1//EN"
 "http://www.w3.org/Graphics/SVG/1.1/DTD/svg11.dtd">
<!-- Generated by graphviz version 9.0.0 (20230911.1827)
 -->
<!-- Title: FTensor::Tensor2_and_Tensor1&lt; A, B, T, U, Dim0, Dim1, Dim0, i, j, i &gt; Pages: 1 -->
<svg width="611pt" height="120pt"
 viewBox="0.00 0.00 610.55 120.12" xmlns="http://www.w3.org/2000/svg" xmlns:xlink="http://www.w3.org/1999/xlink">
<g id="graph0" class="graph" transform="scale(1 1) rotate(0) translate(4 116.12)">
<title>FTensor::Tensor2_and_Tensor1&lt; A, B, T, U, Dim0, Dim1, Dim0, i, j, i &gt;</title>
<!-- Node1 -->
<g id="node1" class="node">
<title>Node1</title>
<g id="a_node1"><a xlink:title=" ">
<polygon fill="#999999" stroke="#666666" points="602.55,-90.75 489.8,-90.75 489.8,-37.75 602.55,-37.75 602.55,-90.75"/>
<text text-anchor="start" x="497.8" y="-77.25" font-family="Helvetica,sans-Serif" font-size="10.00">FTensor::Tensor2_and</text>
<text text-anchor="start" x="497.8" y="-66" font-family="Helvetica,sans-Serif" font-size="10.00">_Tensor1&lt; A, B, T, U,</text>
<text text-anchor="start" x="497.8" y="-54.75" font-family="Helvetica,sans-Serif" font-size="10.00"> Dim0, Dim1, Dim0, i,</text>
<text text-anchor="middle" x="546.17" y="-43.5" font-family="Helvetica,sans-Serif" font-size="10.00"> j, i &gt;</text>
</a>
</g>
</g>
<!-- Node2 -->
<g id="node2" class="node">
<title>Node2</title>
<g id="a_node2"><a xlink:title=" ">
<polygon fill="white" stroke="#666666" points="423.42,-112.12 320.42,-112.12 320.42,-70.38 423.42,-70.38 423.42,-112.12"/>
<text text-anchor="start" x="328.42" y="-98.62" font-family="Helvetica,sans-Serif" font-size="10.00">const Tensor2_Expr</text>
<text text-anchor="start" x="328.42" y="-87.38" font-family="Helvetica,sans-Serif" font-size="10.00">&lt; A, T, Dim0, Dim1,</text>
<text text-anchor="middle" x="371.92" y="-76.12" font-family="Helvetica,sans-Serif" font-size="10.00"> i, j &gt;</text>
</a>
</g>
</g>
<!-- Node2&#45;&gt;Node1 -->
<g id="edge1" class="edge">
<title>Node2&#45;&gt;Node1</title>
<path fill="none" stroke="#9a32cd" stroke-dasharray="5,2" d="M434.83,-81.55C452.64,-78.75 471.95,-75.73 489.37,-73"/>
<polygon fill="#9a32cd" stroke="#9a32cd" points="434.51,-78.05 425.17,-83.06 435.59,-84.97 434.51,-78.05"/>
<text text-anchor="middle" x="460.17" y="-81" font-family="Helvetica,sans-Serif" font-size="10.00"> iterA</text>
</g>
<!-- Node3 -->
<g id="node3" class="node">
<title>Node3</title>
<g id="a_node3"><a xlink:href="class_f_tensor_1_1_tensor1___expr.html" target="_top" xlink:title=" ">
<polygon fill="white" stroke="#666666" points="430.55,-52.5 313.3,-52.5 313.3,-22 430.55,-22 430.55,-52.5"/>
<text text-anchor="start" x="321.3" y="-39" font-family="Helvetica,sans-Serif" font-size="10.00">FTensor::Tensor1_Expr</text>
<text text-anchor="middle" x="371.92" y="-27.75" font-family="Helvetica,sans-Serif" font-size="10.00">&lt; B, U, Dim0, i &gt;</text>
</a>
</g>
</g>
<!-- Node3&#45;&gt;Node1 -->
<g id="edge2" class="edge">
<title>Node3&#45;&gt;Node1</title>
<path fill="none" stroke="#9a32cd" stroke-dasharray="5,2" d="M442.07,-48.09C457.85,-50.56 474.41,-53.16 489.53,-55.53"/>
<polygon fill="#9a32cd" stroke="#9a32cd" points="442.68,-44.64 432.26,-46.55 441.59,-51.56 442.68,-44.64"/>
<text text-anchor="middle" x="460.17" y="-54" font-family="Helvetica,sans-Serif" font-size="10.00"> iterB</text>
</g>
<!-- Node4 -->
<g id="node4" class="node">
<title>Node4</title>
<g id="a_node4"><a xlink:href="class_b.html" target="_top" xlink:title=" ">
<polygon fill="white" stroke="#666666" points="154.32,-67.88 125.52,-67.88 125.52,-48.62 154.32,-48.62 154.32,-67.88"/>
<text text-anchor="middle" x="139.92" y="-54.38" font-family="Helvetica,sans-Serif" font-size="10.00">B</text>
</a>
</g>
</g>
<!-- Node4&#45;&gt;Node3 -->
<g id="edge3" class="edge">
<title>Node4&#45;&gt;Node3</title>
<path fill="none" stroke="#9a32cd" stroke-dasharray="5,2" d="M165.67,-55.99C200.63,-52.8 265.54,-46.87 313.03,-42.54"/>
<polygon fill="#9a32cd" stroke="#9a32cd" points="165.77,-52.47 156.13,-56.86 166.41,-59.44 165.77,-52.47"/>
<text text-anchor="middle" x="255.92" y="-52" font-family="Helvetica,sans-Serif" font-size="10.00"> iter</text>
</g>
<!-- Node5 -->
<g id="node5" class="node">
<title>Node5</title>
<g id="a_node5"><a xlink:href="class_f_tensor_1_1_tensor1___expr.html" target="_top" xlink:title=" ">
<polygon fill="white" stroke="#666666" points="198.55,-30.5 81.3,-30.5 81.3,0 198.55,0 198.55,-30.5"/>
<text text-anchor="start" x="89.3" y="-17" font-family="Helvetica,sans-Serif" font-size="10.00">FTensor::Tensor1_Expr</text>
<text text-anchor="middle" x="139.92" y="-5.75" font-family="Helvetica,sans-Serif" font-size="10.00">&lt; A, T, Dim, i &gt;</text>
</a>
</g>
</g>
<!-- Node5&#45;&gt;Node3 -->
<g id="edge4" class="edge">
<title>Node5&#45;&gt;Node3</title>
<path fill="none" stroke="orange" stroke-dasharray="5,2" d="M209.99,-21.84C236.65,-24.39 267.39,-27.33 295.3,-30 301.08,-30.55 307.1,-31.13 313.12,-31.71"/>
<polygon fill="orange" stroke="orange" points="210.63,-18.39 200.34,-20.92 209.97,-25.36 210.63,-18.39"/>
<text text-anchor="middle" x="255.92" y="-32" font-family="Helvetica,sans-Serif" font-size="10.00"> &lt; B, U, Dim0, i &gt;</text>
</g>
<!-- Node6 -->
<g id="node6" class="node">
<title>Node6</title>
<g id="a_node6"><a xlink:title=" ">
<polygon fill="white" stroke="#666666" points="28.8,-24.88 0,-24.88 0,-5.62 28.8,-5.62 28.8,-24.88"/>
<text text-anchor="middle" x="14.4" y="-11.38" font-family="Helvetica,sans-Serif" font-size="10.00">A</text>
</a>
</g>
</g>
<!-- Node6&#45;&gt;Node5 -->
<g id="edge5" class="edge">
<title>Node6&#45;&gt;Node5</title>
<path fill="none" stroke="#9a32cd" stroke-dasharray="5,2" d="M40.56,-15.25C52.25,-15.25 66.68,-15.25 80.84,-15.25"/>
<polygon fill="#9a32cd" stroke="#9a32cd" points="40.6,-11.75 30.6,-15.25 40.6,-18.75 40.6,-11.75"/>
<text text-anchor="middle" x="55.05" y="-17" font-family="Helvetica,sans-Serif" font-size="10.00"> iter</text>
</g>
</g>
</svg>
