<?xml version="1.0" encoding="UTF-8" standalone="no"?>
<!DOCTYPE svg PUBLIC "-//W3C//DTD SVG 1.1//EN"
 "http://www.w3.org/Graphics/SVG/1.1/DTD/svg11.dtd">
<!-- Generated by graphviz version 9.0.0 (20230911.1827)
 -->
<!-- Title: ClipperLib::PolyNode Pages: 1 -->
<!--zoomable 94 -->
<svg id="main" version="1.1" xmlns="http://www.w3.org/2000/svg" xmlns:xlink="http://www.w3.org/1999/xlink" xml:space="preserve" onload="init(evt)">
<style type="text/css"><![CDATA[
.edge:hover path { stroke: red; }
.edge:hover polygon { stroke: red; fill: red; }
]]></style>
<script type="text/javascript"><![CDATA[
var edges = document.getElementsByTagName('g');
if (edges && edges.length) {
  for (var i=0;i<edges.length;i++) {
    if (edges[i].id.substr(0,4)=='edge') {
      edges[i].setAttribute('class','edge');
    }
  }
}
]]></script>
        <defs>
                <circle id="rim" cx="0" cy="0" r="7"/>
                <circle id="rim2" cx="0" cy="0" r="3.5"/>
                <g id="zoomPlus">
                        <use xlink:href="#rim" fill="#404040">
                                <set attributeName="fill" to="#808080" begin="zoomplus.mouseover" end="zoomplus.mouseout"/>
                        </use>
                        <path d="M-4,0h8M0,-4v8" fill="none" stroke="white" stroke-width="1.5" pointer-events="none"/>
                </g>
                <g id="zoomMin">
                        <use xlink:href="#rim" fill="#404040">
                                <set attributeName="fill" to="#808080" begin="zoomminus.mouseover" end="zoomminus.mouseout"/>
                        </use>
                        <path d="M-4,0h8" fill="none" stroke="white" stroke-width="1.5" pointer-events="none"/>
                </g>
                <g id="dirArrow">
                        <path fill="none" stroke="white" stroke-width="1.5" d="M0,-3.0v7 M-2.5,-0.5L0,-3.0L2.5,-0.5"/>
                </g>
               <g id="resetDef">
                       <use xlink:href="#rim2" fill="#404040">
                               <set attributeName="fill" to="#808080" begin="reset.mouseover" end="reset.mouseout"/>
                       </use>
               </g>
        </defs>

<script type="text/javascript">
var viewWidth = 505;
var viewHeight = 94;
var sectionId = 'dynsection-1';
</script>
<script xlink:href="svgpan.js"/>
<svg id="graph" class="graph">
<g id="viewport">
<title>ClipperLib::PolyNode</title>
<!-- Node1 -->
<g id="node1" class="node">
<title>Node1</title>
<g id="a_node1"><a xlink:title=" ">
<polygon fill="#999999" stroke="#666666" points="350.5,-19.25 242.25,-19.25 242.25,0 350.5,0 350.5,-19.25"/>
<text text-anchor="middle" x="296.38" y="-5.75" font-family="Helvetica,sans-Serif" font-size="10.00">ClipperLib::PolyNode</text>
</a>
</g>
</g>
<!-- Node1&#45;&gt;Node1 -->
<g id="edge3" class="edge">
<title>Node1&#45;&gt;Node1</title>
<path fill="none" stroke="#9a32cd" stroke-dasharray="5,2" d="M361.97,-13.98C366.05,-12.96 368.5,-11.5 368.5,-9.62 368.5,-6.38 361.16,-4.4 350.79,-3.69"/>
<polygon fill="#9a32cd" stroke="#9a32cd" points="361.7,-10.49 352.29,-15.35 362.68,-17.42 361.7,-10.49"/>
<text text-anchor="middle" x="384.25" y="-5.75" font-family="Helvetica,sans-Serif" font-size="10.00"> Parent</text>
</g>
<!-- Node2 -->
<g id="node2" class="node">
<title>Node2</title>
<g id="a_node2"><a xlink:title=" ">
<polygon fill="white" stroke="#666666" points="94.75,-85.75 0,-85.75 0,-66.5 94.75,-66.5 94.75,-85.75"/>
<text text-anchor="middle" x="47.38" y="-72.25" font-family="Helvetica,sans-Serif" font-size="10.00">vector&lt; IntPoint &gt;</text>
</a>
</g>
</g>
<!-- Node2&#45;&gt;Node1 -->
<g id="edge1" class="edge">
<title>Node2&#45;&gt;Node1</title>
<path fill="none" stroke="#9a32cd" stroke-dasharray="5,2" d="M86.17,-62.67C111.09,-54.87 144.23,-44.9 173.88,-37.25 199.06,-30.75 227.42,-24.52 250.51,-19.72"/>
<polygon fill="#9a32cd" stroke="#9a32cd" points="85.27,-59.28 76.78,-65.62 87.37,-65.96 85.27,-59.28"/>
<text text-anchor="middle" x="192.12" y="-39" font-family="Helvetica,sans-Serif" font-size="10.00"> Contour</text>
</g>
<!-- Node3 -->
<g id="node3" class="node">
<title>Node3</title>
<g id="a_node3"><a xlink:title=" ">
<polygon fill="white" stroke="#666666" points="223.62,-85.75 113.12,-85.75 113.12,-66.5 223.62,-66.5 223.62,-85.75"/>
<text text-anchor="middle" x="168.38" y="-72.25" font-family="Helvetica,sans-Serif" font-size="10.00">vector&lt; PolyNode * &gt;</text>
</a>
</g>
</g>
<!-- Node3&#45;&gt;Node1 -->
<g id="edge2" class="edge">
<title>Node3&#45;&gt;Node1</title>
<path fill="none" stroke="#9a32cd" stroke-dasharray="5,2" d="M193.78,-60.33C206.5,-53.1 222.23,-44.44 236.62,-37.25 249.12,-31.01 263.4,-24.62 274.87,-19.67"/>
<polygon fill="#9a32cd" stroke="#9a32cd" points="192.14,-57.24 185.2,-65.25 195.62,-63.31 192.14,-57.24"/>
<text text-anchor="middle" x="251.75" y="-39" font-family="Helvetica,sans-Serif" font-size="10.00"> Childs</text>
</g>
<!-- Node4 -->
<g id="node4" class="node">
<title>Node4</title>
<g id="a_node4"><a xlink:title=" ">
<polygon fill="white" stroke="#666666" points="296.88,-85.75 241.88,-85.75 241.88,-66.5 296.88,-66.5 296.88,-85.75"/>
<text text-anchor="middle" x="269.38" y="-72.25" font-family="Helvetica,sans-Serif" font-size="10.00">unsigned</text>
</a>
</g>
</g>
<!-- Node4&#45;&gt;Node1 -->
<g id="edge4" class="edge">
<title>Node4&#45;&gt;Node1</title>
<path fill="none" stroke="#9a32cd" stroke-dasharray="5,2" d="M270.63,-54.98C271.51,-49.09 272.97,-42.75 275.38,-37.25 278.21,-30.78 283,-24.52 287.29,-19.7"/>
<polygon fill="#9a32cd" stroke="#9a32cd" points="267.19,-54.24 269.68,-64.54 274.16,-54.93 267.19,-54.24"/>
<text text-anchor="middle" x="288.88" y="-39" font-family="Helvetica,sans-Serif" font-size="10.00"> Index</text>
</g>
<!-- Node5 -->
<g id="node5" class="node">
<title>Node5</title>
<g id="a_node5"><a xlink:href="classbool.html" target="_top" xlink:title=" ">
<polygon fill="white" stroke="#666666" points="349.38,-85.75 315.38,-85.75 315.38,-66.5 349.38,-66.5 349.38,-85.75"/>
<text text-anchor="middle" x="332.38" y="-72.25" font-family="Helvetica,sans-Serif" font-size="10.00">bool</text>
</a>
</g>
</g>
<!-- Node5&#45;&gt;Node1 -->
<g id="edge5" class="edge">
<title>Node5&#45;&gt;Node1</title>
<path fill="none" stroke="#9a32cd" stroke-dasharray="5,2" d="M321.78,-56.14C315.03,-44.04 306.59,-28.92 301.34,-19.52"/>
<polygon fill="#9a32cd" stroke="#9a32cd" points="318.7,-57.81 326.63,-64.83 324.81,-54.4 318.7,-57.81"/>
<text text-anchor="middle" x="340.38" y="-39" font-family="Helvetica,sans-Serif" font-size="10.00"> m_IsOpen</text>
</g>
<!-- Node6 -->
<g id="node6" class="node">
<title>Node6</title>
<g id="a_node6"><a xlink:title=" ">
<polygon fill="white" stroke="#666666" points="422.88,-85.75 367.88,-85.75 367.88,-66.5 422.88,-66.5 422.88,-85.75"/>
<text text-anchor="middle" x="395.38" y="-72.25" font-family="Helvetica,sans-Serif" font-size="10.00">JoinType</text>
</a>
</g>
</g>
<!-- Node6&#45;&gt;Node1 -->
<g id="edge6" class="edge">
<title>Node6&#45;&gt;Node1</title>
<path fill="none" stroke="#9a32cd" stroke-dasharray="5,2" d="M385.14,-56.26C380.72,-49.52 375.03,-42.34 368.38,-37.25 358.21,-29.48 345.55,-23.79 333.68,-19.72"/>
<polygon fill="#9a32cd" stroke="#9a32cd" points="382.11,-58.01 390.22,-64.83 388.13,-54.44 382.11,-58.01"/>
<text text-anchor="middle" x="403.5" y="-39" font-family="Helvetica,sans-Serif" font-size="10.00"> m_jointype</text>
</g>
<!-- Node7 -->
<g id="node7" class="node">
<title>Node7</title>
<g id="a_node7"><a xlink:title=" ">
<polygon fill="white" stroke="#666666" points="495.5,-85.75 441.25,-85.75 441.25,-66.5 495.5,-66.5 495.5,-85.75"/>
<text text-anchor="middle" x="468.38" y="-72.25" font-family="Helvetica,sans-Serif" font-size="10.00">EndType</text>
</a>
</g>
</g>
<!-- Node7&#45;&gt;Node1 -->
<g id="edge7" class="edge">
<title>Node7&#45;&gt;Node1</title>
<path fill="none" stroke="#9a32cd" stroke-dasharray="5,2" d="M455.55,-57.39C449.36,-50.07 441.32,-42.16 432.38,-37.25 407.59,-23.65 376.91,-16.92 350.96,-13.63"/>
<polygon fill="#9a32cd" stroke="#9a32cd" points="452.5,-59.17 461.42,-64.9 458.02,-54.86 452.5,-59.17"/>
<text text-anchor="middle" x="471.88" y="-39" font-family="Helvetica,sans-Serif" font-size="10.00"> m_endtype</text>
</g>
</g>
</svg>
        <g id="navigator" transform="translate(0 0)" fill="#404254">
                <rect fill="#f2f5e9" fill-opacity="0.5" stroke="#606060" stroke-width=".5" x="0" y="0" width="60" height="60"/>
                <use id="zoomplus" xlink:href="#zoomPlus" x="17" y="9" onmousedown="handleZoom(evt,'in')"/>
                <use id="zoomminus" xlink:href="#zoomMin" x="42" y="9" onmousedown="handleZoom(evt,'out')"/>
                <use id="reset" xlink:href="#resetDef" x="30" y="36" onmousedown="handleReset()"/>
                <g id="arrowUp" xlink:href="#dirArrow" transform="translate(30 24)" onmousedown="handlePan(0,-1)">
                  <use xlink:href="#rim" fill="#404040">
                        <set attributeName="fill" to="#808080" begin="arrowUp.mouseover" end="arrowUp.mouseout"/>
                  </use>
                  <path fill="none" stroke="white" stroke-width="1.5" d="M0,-3.0v7 M-2.5,-0.5L0,-3.0L2.5,-0.5"/>
                </g>
                <g id="arrowRight" xlink:href="#dirArrow" transform="rotate(90) translate(36 -43)" onmousedown="handlePan(1,0)">
                  <use xlink:href="#rim" fill="#404040">
                        <set attributeName="fill" to="#808080" begin="arrowRight.mouseover" end="arrowRight.mouseout"/>
                  </use>
                  <path fill="none" stroke="white" stroke-width="1.5" d="M0,-3.0v7 M-2.5,-0.5L0,-3.0L2.5,-0.5"/>
                </g>
                <g id="arrowDown" xlink:href="#dirArrow" transform="rotate(180) translate(-30 -48)" onmousedown="handlePan(0,1)">
                  <use xlink:href="#rim" fill="#404040">
                        <set attributeName="fill" to="#808080" begin="arrowDown.mouseover" end="arrowDown.mouseout"/>
                  </use>
                  <path fill="none" stroke="white" stroke-width="1.5" d="M0,-3.0v7 M-2.5,-0.5L0,-3.0L2.5,-0.5"/>
                </g>
                <g id="arrowLeft" xlink:href="#dirArrow" transform="rotate(270) translate(-36 17)" onmousedown="handlePan(-1,0)">
                  <use xlink:href="#rim" fill="#404040">
                        <set attributeName="fill" to="#808080" begin="arrowLeft.mouseover" end="arrowLeft.mouseout"/>
                  </use>
                  <path fill="none" stroke="white" stroke-width="1.5" d="M0,-3.0v7 M-2.5,-0.5L0,-3.0L2.5,-0.5"/>
                </g>
        </g>
        <svg viewBox="0 0 15 15" width="100%" height="30px" preserveAspectRatio="xMaxYMin meet">
         <g id="arrow_out" transform="scale(0.3 0.3)">
          <a xlink:href="class_clipper_lib_1_1_poly_node__coll__graph_org.svg" target="_base">
           <rect id="button" ry="5" rx="5" y="6" x="6" height="38" width="38"
                fill="#f2f5e9" fill-opacity="0.5" stroke="#606060" stroke-width="1.0"/>
           <path id="arrow"
             d="M 11.500037,31.436501 C 11.940474,20.09759 22.043105,11.32322 32.158766,21.979434 L 37.068811,17.246167 C 37.068811,17.246167 37.088388,32 37.088388,32 L 22.160133,31.978069 C 22.160133,31.978069 26.997745,27.140456 26.997745,27.140456 C 18.528582,18.264221 13.291696,25.230495 11.500037,31.436501 z"
             style="fill:#404040;"/>
          </a>
         </g>
        </svg>
</svg>
