<?xml version="1.0" encoding="UTF-8" standalone="no"?>
<!DOCTYPE svg PUBLIC "-//W3C//DTD SVG 1.1//EN"
 "http://www.w3.org/Graphics/SVG/1.1/DTD/svg11.dtd">
<!-- Generated by graphviz version 2.43.0 (0)
 -->
<!-- Title: FTensor::Tensor2_times_Tensor2_01&lt; A, B, T, U, Dim0, Dim1, Dim2, i, j, k &gt; Pages: 1 -->
<svg width="716pt" height="140pt"
 viewBox="0.00 0.00 716.00 140.00" xmlns="http://www.w3.org/2000/svg" xmlns:xlink="http://www.w3.org/1999/xlink">
<g id="graph0" class="graph" transform="scale(1 1) rotate(0) translate(4 136)">
<title>FTensor::Tensor2_times_Tensor2_01&lt; A, B, T, U, Dim0, Dim1, Dim2, i, j, k &gt;</title>
<polygon fill="white" stroke="transparent" points="-4,4 -4,-136 712,-136 712,4 -4,4"/>
<!-- Node1 -->
<g id="node1" class="node">
<title>Node1</title>
<g id="a_node1"><a xlink:title=" ">
<polygon fill="#bfbfbf" stroke="black" points="572,-40 572,-92 708,-92 708,-40 572,-40"/>
<text text-anchor="start" x="580" y="-80" font-family="Helvetica,sans-Serif" font-size="10.00">FTensor::Tensor2_times</text>
<text text-anchor="start" x="580" y="-69" font-family="Helvetica,sans-Serif" font-size="10.00">_Tensor2_01&lt; A, B, T,</text>
<text text-anchor="start" x="580" y="-58" font-family="Helvetica,sans-Serif" font-size="10.00"> U, Dim0, Dim1, Dim2, i,</text>
<text text-anchor="middle" x="640" y="-47" font-family="Helvetica,sans-Serif" font-size="10.00"> j, k &gt;</text>
</a>
</g>
</g>
<!-- Node2 -->
<g id="node2" class="node">
<title>Node2</title>
<g id="a_node2"><a xlink:href="classFTensor_1_1Tensor2__Expr.html" target="_top" xlink:title=" ">
<polygon fill="white" stroke="black" points="366.5,-76 366.5,-106 506.5,-106 506.5,-76 366.5,-76"/>
<text text-anchor="start" x="374.5" y="-94" font-family="Helvetica,sans-Serif" font-size="10.00">FTensor::Tensor2_Expr</text>
<text text-anchor="middle" x="436.5" y="-83" font-family="Helvetica,sans-Serif" font-size="10.00">&lt; A, T, Dim1, Dim0, j, i &gt;</text>
</a>
</g>
</g>
<!-- Node2&#45;&gt;Node1 -->
<g id="edge1" class="edge">
<title>Node2&#45;&gt;Node1</title>
<path fill="none" stroke="#9a32cd" stroke-dasharray="5,2" d="M516.58,-81.19C534.82,-78.93 554.05,-76.54 571.73,-74.35"/>
<polygon fill="#9a32cd" stroke="#9a32cd" points="516.06,-77.73 506.56,-82.43 516.92,-84.67 516.06,-77.73"/>
<text text-anchor="middle" x="540.5" y="-82" font-family="Helvetica,sans-Serif" font-size="10.00"> iterA</text>
</g>
<!-- Node3 -->
<g id="node3" class="node">
<title>Node3</title>
<g id="a_node3"><a xlink:title=" ">
<polygon fill="white" stroke="#bfbfbf" points="0,-90.5 0,-109.5 29,-109.5 29,-90.5 0,-90.5"/>
<text text-anchor="middle" x="14.5" y="-97.5" font-family="Helvetica,sans-Serif" font-size="10.00">A</text>
</a>
</g>
</g>
<!-- Node3&#45;&gt;Node2 -->
<g id="edge2" class="edge">
<title>Node3&#45;&gt;Node2</title>
<path fill="none" stroke="#9a32cd" stroke-dasharray="5,2" d="M39.06,-106.61C41.72,-107.17 44.41,-107.66 47,-108 178.74,-125.49 213.91,-125.58 346,-111 355.97,-109.9 366.45,-108.13 376.59,-106.09"/>
<polygon fill="#9a32cd" stroke="#9a32cd" points="39.71,-103.17 29.16,-104.21 38.05,-109.97 39.71,-103.17"/>
<text text-anchor="middle" x="155" y="-124" font-family="Helvetica,sans-Serif" font-size="10.00"> iter</text>
</g>
<!-- Node4 -->
<g id="node4" class="node">
<title>Node4</title>
<g id="a_node4"><a xlink:href="classFTensor_1_1Tensor2__Expr.html" target="_top" xlink:title=" ">
<polygon fill="white" stroke="black" points="85,-59 85,-89 225,-89 225,-59 85,-59"/>
<text text-anchor="start" x="93" y="-77" font-family="Helvetica,sans-Serif" font-size="10.00">FTensor::Tensor2_Expr</text>
<text text-anchor="middle" x="155" y="-66" font-family="Helvetica,sans-Serif" font-size="10.00">&lt; A, T, Dim0, Dim1, i, j &gt;</text>
</a>
</g>
</g>
<!-- Node3&#45;&gt;Node4 -->
<g id="edge4" class="edge">
<title>Node3&#45;&gt;Node4</title>
<path fill="none" stroke="#9a32cd" stroke-dasharray="5,2" d="M39.19,-95.55C51.95,-93.16 68.41,-90.07 84.87,-86.98"/>
<polygon fill="#9a32cd" stroke="#9a32cd" points="38.21,-92.17 29.03,-97.46 39.51,-99.05 38.21,-92.17"/>
<text text-anchor="middle" x="57" y="-96" font-family="Helvetica,sans-Serif" font-size="10.00"> iter</text>
</g>
<!-- Node4&#45;&gt;Node2 -->
<g id="edge3" class="edge">
<title>Node4&#45;&gt;Node2</title>
<path fill="none" stroke="orange" stroke-dasharray="5,2" d="M235.12,-78.81C276.42,-81.32 326.48,-84.37 366.24,-86.79"/>
<polygon fill="orange" stroke="orange" points="235.28,-75.32 225.09,-78.2 234.86,-82.3 235.28,-75.32"/>
<text text-anchor="start" x="244" y="-99" font-family="Helvetica,sans-Serif" font-size="10.00"> &lt; A, T, Dim1, Dim0,</text>
<text text-anchor="middle" x="294.5" y="-88" font-family="Helvetica,sans-Serif" font-size="10.00"> j, i &gt;</text>
</g>
<!-- Node5 -->
<g id="node5" class="node">
<title>Node5</title>
<g id="a_node5"><a xlink:href="classFTensor_1_1Tensor2__Expr.html" target="_top" xlink:title=" ">
<polygon fill="white" stroke="black" points="364,-27 364,-57 509,-57 509,-27 364,-27"/>
<text text-anchor="start" x="372" y="-45" font-family="Helvetica,sans-Serif" font-size="10.00">FTensor::Tensor2_Expr</text>
<text text-anchor="middle" x="436.5" y="-34" font-family="Helvetica,sans-Serif" font-size="10.00">&lt; B, U, Dim2, Dim1, k, j &gt;</text>
</a>
</g>
</g>
<!-- Node4&#45;&gt;Node5 -->
<g id="edge7" class="edge">
<title>Node4&#45;&gt;Node5</title>
<path fill="none" stroke="orange" stroke-dasharray="5,2" d="M222.1,-56.74C229.12,-55.3 236.18,-54.01 243,-53 282.74,-47.12 327.52,-44.33 363.88,-43.03"/>
<polygon fill="orange" stroke="orange" points="220.91,-53.42 211.87,-58.95 222.38,-60.26 220.91,-53.42"/>
<text text-anchor="start" x="243" y="-67" font-family="Helvetica,sans-Serif" font-size="10.00"> &lt; B, U, Dim2, Dim1,</text>
<text text-anchor="middle" x="294.5" y="-56" font-family="Helvetica,sans-Serif" font-size="10.00"> k, j &gt;</text>
</g>
<!-- Node5&#45;&gt;Node1 -->
<g id="edge5" class="edge">
<title>Node5&#45;&gt;Node1</title>
<path fill="none" stroke="#9a32cd" stroke-dasharray="5,2" d="M519.22,-50.02C530.9,-51.29 542.76,-52.63 554,-54 559.77,-54.7 565.75,-55.47 571.75,-56.27"/>
<polygon fill="#9a32cd" stroke="#9a32cd" points="519.33,-46.52 509.02,-48.94 518.59,-53.48 519.33,-46.52"/>
<text text-anchor="middle" x="540.5" y="-57" font-family="Helvetica,sans-Serif" font-size="10.00"> iterB</text>
</g>
<!-- Node6 -->
<g id="node6" class="node">
<title>Node6</title>
<g id="a_node6"><a xlink:title=" ">
<polygon fill="white" stroke="#bfbfbf" points="140.5,-0.5 140.5,-19.5 169.5,-19.5 169.5,-0.5 140.5,-0.5"/>
<text text-anchor="middle" x="155" y="-7.5" font-family="Helvetica,sans-Serif" font-size="10.00">B</text>
</a>
</g>
</g>
<!-- Node6&#45;&gt;Node5 -->
<g id="edge6" class="edge">
<title>Node6&#45;&gt;Node5</title>
<path fill="none" stroke="#9a32cd" stroke-dasharray="5,2" d="M180.06,-7.63C216.34,-4.61 287.07,-0.92 346,-11 364.48,-14.16 384.25,-20.65 400.49,-26.88"/>
<polygon fill="#9a32cd" stroke="#9a32cd" points="179.61,-4.15 169.96,-8.53 180.23,-11.13 179.61,-4.15"/>
<text text-anchor="middle" x="294.5" y="-14" font-family="Helvetica,sans-Serif" font-size="10.00"> iter</text>
</g>
</g>
</svg>
