<?xml version="1.0" encoding="UTF-8" standalone="no"?>
<!DOCTYPE svg PUBLIC "-//W3C//DTD SVG 1.1//EN"
 "http://www.w3.org/Graphics/SVG/1.1/DTD/svg11.dtd">
<!-- Generated by graphviz version 2.43.0 (0)
 -->
<!-- Title: DomainEleOp Pages: 1 -->
<!--zoomable 1035 -->
<svg id="main" version="1.1" xmlns="http://www.w3.org/2000/svg" xmlns:xlink="http://www.w3.org/1999/xlink" xml:space="preserve" onload="init(evt)">
<style type="text/css"><![CDATA[
.edge:hover path { stroke: red; }
.edge:hover polygon { stroke: red; fill: red; }
]]></style>
<script type="text/javascript"><![CDATA[
var edges = document.getElementsByTagName('g');
if (edges && edges.length) {
  for (var i=0;i<edges.length;i++) {
    if (edges[i].id.substr(0,4)=='edge') {
      edges[i].setAttribute('class','edge');
    }
  }
}
]]></script>
        <defs>
                <circle id="rim" cx="0" cy="0" r="7"/>
                <circle id="rim2" cx="0" cy="0" r="3.5"/>
                <g id="zoomPlus">
                        <use xlink:href="#rim" fill="#404040">
                                <set attributeName="fill" to="#808080" begin="zoomplus.mouseover" end="zoomplus.mouseout"/>
                        </use>
                        <path d="M-4,0h8M0,-4v8" fill="none" stroke="white" stroke-width="1.5" pointer-events="none"/>
                </g>
                <g id="zoomMin">
                        <use xlink:href="#rim" fill="#404040">
                                <set attributeName="fill" to="#808080" begin="zoomminus.mouseover" end="zoomminus.mouseout"/>
                        </use>
                        <path d="M-4,0h8" fill="none" stroke="white" stroke-width="1.5" pointer-events="none"/>
                </g>
                <g id="dirArrow">
                        <path fill="none" stroke="white" stroke-width="1.5" d="M0,-3.0v7 M-2.5,-0.5L0,-3.0L2.5,-0.5"/>
                </g>
               <g id="resetDef">
                       <use xlink:href="#rim2" fill="#404040">
                               <set attributeName="fill" to="#808080" begin="reset.mouseover" end="reset.mouseout"/>
                       </use>
               </g>
        </defs>

<script type="text/javascript">
var viewWidth = 345;
var viewHeight = 1035;
var sectionId = 'dynsection-0';
</script>
<script xlink:href="svgpan.js"/>
<svg id="graph" class="graph">
<g id="viewport">
<title>DomainEleOp</title>
<polygon fill="white" stroke="transparent" points="-4,4 -4,-1030.5 341,-1030.5 341,4 -4,4"/>
<!-- Node1 -->
<g id="node1" class="node">
<title>Node1</title>
<g id="a_node1"><a xlink:title=" ">
<polygon fill="#bfbfbf" stroke="black" points="0,-476 0,-495 83,-495 83,-476 0,-476"/>
<text text-anchor="middle" x="41.5" y="-483" font-family="Helvetica,sans-Serif" font-size="10.00">DomainEleOp</text>
</a>
</g>
</g>
<!-- Node2 -->
<g id="node2" class="node">
<title>Node2</title>
<g id="a_node2"><a xlink:href="structAtomTest_1_1OpError_3_011_01_4.html" target="_top" xlink:title=" ">
<polygon fill="white" stroke="black" points="161,-1007 161,-1026 295,-1026 295,-1007 161,-1007"/>
<text text-anchor="middle" x="228" y="-1014" font-family="Helvetica,sans-Serif" font-size="10.00">AtomTest::OpError&lt; 1 &gt;</text>
</a>
</g>
</g>
<!-- Node1&#45;&gt;Node2 -->
<g id="edge1" class="edge">
<title>Node1&#45;&gt;Node2</title>
<path fill="none" stroke="midnightblue" d="M42.5,-505.53C42.93,-591.21 49.14,-925.81 119,-997.5 130.03,-1008.82 145.26,-1014.79 160.81,-1017.7"/>
<polygon fill="midnightblue" stroke="midnightblue" points="46,-505.33 42.47,-495.34 39,-505.35 46,-505.33"/>
</g>
<!-- Node3 -->
<g id="node3" class="node">
<title>Node3</title>
<g id="a_node3"><a xlink:href="structDomainEleOpStab.html" target="_top" xlink:title="Element used to specialise assembly.">
<polygon fill="white" stroke="black" points="175.5,-969 175.5,-988 280.5,-988 280.5,-969 175.5,-969"/>
<text text-anchor="middle" x="228" y="-976" font-family="Helvetica,sans-Serif" font-size="10.00">DomainEleOpStab</text>
</a>
</g>
</g>
<!-- Node1&#45;&gt;Node3 -->
<g id="edge2" class="edge">
<title>Node1&#45;&gt;Node3</title>
<path fill="none" stroke="midnightblue" d="M42.76,-505.31C44.25,-586.65 54.15,-893.73 119,-959.5 133.57,-974.28 155.31,-979.91 175.48,-981.52"/>
<polygon fill="midnightblue" stroke="midnightblue" points="46.25,-504.95 42.6,-495.01 39.26,-505.06 46.25,-504.95"/>
</g>
<!-- Node4 -->
<g id="node4" class="node">
<title>Node4</title>
<g id="a_node4"><a xlink:href="structExample_1_1OpError_3_011_01_4.html" target="_top" xlink:title=" ">
<polygon fill="white" stroke="black" points="162.5,-931 162.5,-950 293.5,-950 293.5,-931 162.5,-931"/>
<text text-anchor="middle" x="228" y="-938" font-family="Helvetica,sans-Serif" font-size="10.00">Example::OpError&lt; 1 &gt;</text>
</a>
</g>
</g>
<!-- Node1&#45;&gt;Node4 -->
<g id="edge3" class="edge">
<title>Node1&#45;&gt;Node4</title>
<path fill="none" stroke="midnightblue" d="M43.08,-505.69C45.73,-583.4 59.31,-861.79 119,-921.5 130.51,-933.01 146.37,-938.95 162.41,-941.76"/>
<polygon fill="midnightblue" stroke="midnightblue" points="46.57,-505.25 42.75,-495.37 39.57,-505.47 46.57,-505.25"/>
</g>
<!-- Node5 -->
<g id="node5" class="node">
<title>Node5</title>
<g id="a_node5"><a xlink:href="structExample_1_1OpRhs.html" target="_top" xlink:title=" ">
<polygon fill="white" stroke="black" points="179.5,-893 179.5,-912 276.5,-912 276.5,-893 179.5,-893"/>
<text text-anchor="middle" x="228" y="-900" font-family="Helvetica,sans-Serif" font-size="10.00">Example::OpRhs</text>
</a>
</g>
</g>
<!-- Node1&#45;&gt;Node5 -->
<g id="edge4" class="edge">
<title>Node1&#45;&gt;Node5</title>
<path fill="none" stroke="midnightblue" d="M43.43,-505.33C47.25,-578.18 64.26,-829.62 119,-883.5 134.67,-898.93 158.18,-904.3 179.28,-905.55"/>
<polygon fill="midnightblue" stroke="midnightblue" points="46.92,-505.04 42.92,-495.23 39.93,-505.39 46.92,-505.04"/>
</g>
<!-- Node6 -->
<g id="node6" class="node">
<title>Node6</title>
<g id="a_node6"><a xlink:href="structHenckyOps_1_1OpCalculateEigenValsImpl_3_01DIM_00_01GAUSS_00_01DomainEleOp_01_4.html" target="_top" xlink:title=" ">
<polygon fill="white" stroke="black" points="121.5,-843.5 121.5,-873.5 334.5,-873.5 334.5,-843.5 121.5,-843.5"/>
<text text-anchor="start" x="129.5" y="-861.5" font-family="Helvetica,sans-Serif" font-size="10.00">HenckyOps::OpCalculateEigen</text>
<text text-anchor="middle" x="228" y="-850.5" font-family="Helvetica,sans-Serif" font-size="10.00">ValsImpl&lt; DIM, GAUSS, DomainEleOp &gt;</text>
</a>
</g>
</g>
<!-- Node1&#45;&gt;Node6 -->
<g id="edge5" class="edge">
<title>Node1&#45;&gt;Node6</title>
<path fill="none" stroke="midnightblue" d="M44.12,-505.29C49.95,-571.84 72.12,-786.1 119,-833.5 122.79,-837.33 127.04,-840.62 131.61,-843.45"/>
<polygon fill="midnightblue" stroke="midnightblue" points="47.6,-504.95 43.27,-495.28 40.63,-505.54 47.6,-504.95"/>
</g>
<!-- Node7 -->
<g id="node7" class="node">
<title>Node7</title>
<g id="a_node7"><a xlink:href="structHenckyOps_1_1OpCalculateHenckyPlasticStressImpl_3_01DIM_00_01GAUSS_00_01DomainEleOp_00_01S_01_4.html" target="_top" xlink:title=" ">
<polygon fill="white" stroke="black" points="141.5,-783 141.5,-824 314.5,-824 314.5,-783 141.5,-783"/>
<text text-anchor="start" x="149.5" y="-812" font-family="Helvetica,sans-Serif" font-size="10.00">HenckyOps::OpCalculateHencky</text>
<text text-anchor="start" x="149.5" y="-801" font-family="Helvetica,sans-Serif" font-size="10.00">PlasticStressImpl&lt; DIM,</text>
<text text-anchor="middle" x="228" y="-790" font-family="Helvetica,sans-Serif" font-size="10.00"> GAUSS, DomainEleOp, S &gt;</text>
</a>
</g>
</g>
<!-- Node1&#45;&gt;Node7 -->
<g id="edge6" class="edge">
<title>Node1&#45;&gt;Node7</title>
<path fill="none" stroke="midnightblue" d="M45.16,-505.13C53.44,-563.55 80.55,-734.61 119,-773.5 125.43,-780 133.14,-785.13 141.44,-789.17"/>
<polygon fill="midnightblue" stroke="midnightblue" points="48.59,-504.45 43.75,-495.02 41.66,-505.41 48.59,-504.45"/>
</g>
<!-- Node8 -->
<g id="node8" class="node">
<title>Node8</title>
<g id="a_node8"><a xlink:href="structHenckyOps_1_1OpCalculateHenckyStressImpl_3_01DIM_00_01GAUSS_00_01DomainEleOp_00_01S_01_4.html" target="_top" xlink:title=" ">
<polygon fill="white" stroke="black" points="141.5,-723 141.5,-764 314.5,-764 314.5,-723 141.5,-723"/>
<text text-anchor="start" x="149.5" y="-752" font-family="Helvetica,sans-Serif" font-size="10.00">HenckyOps::OpCalculateHencky</text>
<text text-anchor="start" x="149.5" y="-741" font-family="Helvetica,sans-Serif" font-size="10.00">StressImpl&lt; DIM, GAUSS,</text>
<text text-anchor="middle" x="228" y="-730" font-family="Helvetica,sans-Serif" font-size="10.00"> DomainEleOp, S &gt;</text>
</a>
</g>
</g>
<!-- Node1&#45;&gt;Node8 -->
<g id="edge7" class="edge">
<title>Node1&#45;&gt;Node8</title>
<path fill="none" stroke="midnightblue" d="M43.2,-505.46C45.85,-549.6 58.53,-656.14 119,-713.5 125.49,-719.66 133.14,-724.58 141.32,-728.49"/>
<polygon fill="midnightblue" stroke="midnightblue" points="46.69,-505.24 42.71,-495.42 39.7,-505.58 46.69,-505.24"/>
</g>
<!-- Node9 -->
<g id="node9" class="node">
<title>Node9</title>
<g id="a_node9"><a xlink:href="structHenckyOps_1_1OpCalculateLogC__dCImpl_3_01DIM_00_01GAUSS_00_01DomainEleOp_01_4.html" target="_top" xlink:title=" ">
<polygon fill="white" stroke="black" points="119,-673.5 119,-703.5 337,-703.5 337,-673.5 119,-673.5"/>
<text text-anchor="start" x="127" y="-691.5" font-family="Helvetica,sans-Serif" font-size="10.00">HenckyOps::OpCalculateLog</text>
<text text-anchor="middle" x="228" y="-680.5" font-family="Helvetica,sans-Serif" font-size="10.00">C_dCImpl&lt; DIM, GAUSS, DomainEleOp &gt;</text>
</a>
</g>
</g>
<!-- Node1&#45;&gt;Node9 -->
<g id="edge8" class="edge">
<title>Node1&#45;&gt;Node9</title>
<path fill="none" stroke="midnightblue" d="M45,-505.1C50.81,-542.23 68.8,-622.83 119,-664.5 123.14,-667.93 127.66,-670.91 132.44,-673.47"/>
<polygon fill="midnightblue" stroke="midnightblue" points="48.44,-504.47 43.56,-495.06 41.51,-505.46 48.44,-504.47"/>
</g>
<!-- Node10 -->
<g id="node10" class="node">
<title>Node10</title>
<g id="a_node10"><a xlink:href="structHenckyOps_1_1OpCalculateLogCImpl_3_01DIM_00_01GAUSS_00_01DomainEleOp_01_4.html" target="_top" xlink:title=" ">
<polygon fill="white" stroke="black" points="128,-624.5 128,-654.5 328,-654.5 328,-624.5 128,-624.5"/>
<text text-anchor="start" x="136" y="-642.5" font-family="Helvetica,sans-Serif" font-size="10.00">HenckyOps::OpCalculateLog</text>
<text text-anchor="middle" x="228" y="-631.5" font-family="Helvetica,sans-Serif" font-size="10.00">CImpl&lt; DIM, GAUSS, DomainEleOp &gt;</text>
</a>
</g>
</g>
<!-- Node1&#45;&gt;Node10 -->
<g id="edge9" class="edge">
<title>Node1&#45;&gt;Node10</title>
<path fill="none" stroke="midnightblue" d="M48.43,-504.7C58.28,-533.26 80.8,-586.56 119,-614.5 124.28,-618.36 130.07,-621.64 136.12,-624.42"/>
<polygon fill="midnightblue" stroke="midnightblue" points="51.71,-503.48 45.27,-495.07 45.06,-505.66 51.71,-503.48"/>
</g>
<!-- Node11 -->
<g id="node11" class="node">
<title>Node11</title>
<g id="a_node11"><a xlink:href="structHenckyOps_1_1OpCalculatePiolaStressImpl_3_01DIM_00_01GAUSS_00_01DomainEleOp_00_01S_01_4.html" target="_top" xlink:title=" ">
<polygon fill="white" stroke="black" points="147.5,-564 147.5,-605 308.5,-605 308.5,-564 147.5,-564"/>
<text text-anchor="start" x="155.5" y="-593" font-family="Helvetica,sans-Serif" font-size="10.00">HenckyOps::OpCalculatePiola</text>
<text text-anchor="start" x="155.5" y="-582" font-family="Helvetica,sans-Serif" font-size="10.00">StressImpl&lt; DIM, GAUSS,</text>
<text text-anchor="middle" x="228" y="-571" font-family="Helvetica,sans-Serif" font-size="10.00"> DomainEleOp, S &gt;</text>
</a>
</g>
</g>
<!-- Node1&#45;&gt;Node11 -->
<g id="edge10" class="edge">
<title>Node1&#45;&gt;Node11</title>
<path fill="none" stroke="midnightblue" d="M57.41,-502.94C71.71,-518.6 94.66,-541.13 119,-554.5 127.87,-559.37 137.59,-563.5 147.45,-566.99"/>
<polygon fill="midnightblue" stroke="midnightblue" points="59.66,-500.2 50.41,-495.04 54.43,-504.85 59.66,-500.2"/>
</g>
<!-- Node12 -->
<g id="node12" class="node">
<title>Node12</title>
<g id="a_node12"><a xlink:href="structHenckyOps_1_1OpHenckyTangentImpl_3_01DIM_00_01GAUSS_00_01DomainEleOp_00_01S_01_4.html" target="_top" xlink:title=" ">
<polygon fill="white" stroke="black" points="125.5,-514.5 125.5,-544.5 330.5,-544.5 330.5,-514.5 125.5,-514.5"/>
<text text-anchor="start" x="133.5" y="-532.5" font-family="Helvetica,sans-Serif" font-size="10.00">HenckyOps::OpHenckyTangent</text>
<text text-anchor="middle" x="228" y="-521.5" font-family="Helvetica,sans-Serif" font-size="10.00">Impl&lt; DIM, GAUSS, DomainEleOp, S &gt;</text>
</a>
</g>
</g>
<!-- Node1&#45;&gt;Node12 -->
<g id="edge11" class="edge">
<title>Node1&#45;&gt;Node12</title>
<path fill="none" stroke="midnightblue" d="M90.31,-497.5C99.81,-499.85 109.72,-502.27 119,-504.5 132.66,-507.78 147.31,-511.22 161.28,-514.46"/>
<polygon fill="midnightblue" stroke="midnightblue" points="91.15,-494.1 80.6,-495.09 89.47,-500.9 91.15,-494.1"/>
</g>
<!-- Node13 -->
<g id="node13" class="node">
<title>Node13</title>
<g id="a_node13"><a xlink:href="structMixedPoisson_1_1OpError.html" target="_top" xlink:title=" ">
<polygon fill="white" stroke="black" points="165,-476 165,-495 291,-495 291,-476 165,-476"/>
<text text-anchor="middle" x="228" y="-483" font-family="Helvetica,sans-Serif" font-size="10.00">MixedPoisson::OpError</text>
</a>
</g>
</g>
<!-- Node1&#45;&gt;Node13 -->
<g id="edge12" class="edge">
<title>Node1&#45;&gt;Node13</title>
<path fill="none" stroke="midnightblue" d="M93.59,-485.5C115.63,-485.5 141.61,-485.5 164.77,-485.5"/>
<polygon fill="midnightblue" stroke="midnightblue" points="93.45,-482 83.45,-485.5 93.45,-489 93.45,-482"/>
</g>
<!-- Node14 -->
<g id="node14" class="node">
<title>Node14</title>
<g id="a_node14"><a xlink:href="structOpBlockPermittivity.html" target="_top" xlink:title=" ">
<polygon fill="white" stroke="black" points="170.5,-438 170.5,-457 285.5,-457 285.5,-438 170.5,-438"/>
<text text-anchor="middle" x="228" y="-445" font-family="Helvetica,sans-Serif" font-size="10.00">OpBlockPermittivity</text>
</a>
</g>
</g>
<!-- Node1&#45;&gt;Node14 -->
<g id="edge13" class="edge">
<title>Node1&#45;&gt;Node14</title>
<path fill="none" stroke="midnightblue" d="M88.4,-473.55C98.45,-471.09 109.06,-468.61 119,-466.5 135.58,-462.99 153.68,-459.62 170.25,-456.72"/>
<polygon fill="midnightblue" stroke="midnightblue" points="87.43,-470.19 78.57,-476 89.12,-476.98 87.43,-470.19"/>
</g>
<!-- Node15 -->
<g id="node15" class="node">
<title>Node15</title>
<g id="a_node15"><a xlink:href="structOpEnergyDensity.html" target="_top" xlink:title=" ">
<polygon fill="white" stroke="black" points="177.5,-400 177.5,-419 278.5,-419 278.5,-400 177.5,-400"/>
<text text-anchor="middle" x="228" y="-407" font-family="Helvetica,sans-Serif" font-size="10.00">OpEnergyDensity</text>
</a>
</g>
</g>
<!-- Node1&#45;&gt;Node15 -->
<g id="edge14" class="edge">
<title>Node1&#45;&gt;Node15</title>
<path fill="none" stroke="midnightblue" d="M60.1,-468.58C74.7,-455.54 96.63,-438.15 119,-428.5 137.27,-420.62 158.62,-416.01 177.49,-413.31"/>
<polygon fill="midnightblue" stroke="midnightblue" points="57.39,-466.32 52.4,-475.66 62.13,-471.47 57.39,-466.32"/>
</g>
<!-- Node16 -->
<g id="node16" class="node">
<title>Node16</title>
<g id="a_node16"><a xlink:href="structOpError.html" target="_top" xlink:title=" ">
<polygon fill="white" stroke="black" points="201.5,-362 201.5,-381 254.5,-381 254.5,-362 201.5,-362"/>
<text text-anchor="middle" x="228" y="-369" font-family="Helvetica,sans-Serif" font-size="10.00">OpError</text>
</a>
</g>
</g>
<!-- Node1&#45;&gt;Node16 -->
<g id="edge15" class="edge">
<title>Node1&#45;&gt;Node16</title>
<path fill="none" stroke="midnightblue" d="M52.11,-466.73C64.45,-444.68 88.01,-408.8 119,-390.5 144.24,-375.59 178.2,-371.74 201.25,-371.04"/>
<polygon fill="midnightblue" stroke="midnightblue" points="48.9,-465.3 47.25,-475.77 55.07,-468.62 48.9,-465.3"/>
</g>
<!-- Node17 -->
<g id="node17" class="node">
<title>Node17</title>
<g id="a_node17"><a xlink:href="structOpGradTimesPerm.html" target="_top" xlink:title=" ">
<polygon fill="white" stroke="black" points="173.5,-324 173.5,-343 282.5,-343 282.5,-324 173.5,-324"/>
<text text-anchor="middle" x="228" y="-331" font-family="Helvetica,sans-Serif" font-size="10.00">OpGradTimesPerm</text>
</a>
</g>
</g>
<!-- Node1&#45;&gt;Node17 -->
<g id="edge16" class="edge">
<title>Node1&#45;&gt;Node17</title>
<path fill="none" stroke="midnightblue" d="M47.93,-465.89C57.23,-436.22 79.16,-380.43 119,-352.5 134.74,-341.46 154.88,-336.18 173.48,-333.82"/>
<polygon fill="midnightblue" stroke="midnightblue" points="44.46,-465.28 44.97,-475.87 51.17,-467.27 44.46,-465.28"/>
</g>
<!-- Node18 -->
<g id="node18" class="node">
<title>Node18</title>
<g id="a_node18"><a xlink:href="structOpTotalEnergy.html" target="_top" xlink:title=" ">
<polygon fill="white" stroke="black" points="184.5,-286 184.5,-305 271.5,-305 271.5,-286 184.5,-286"/>
<text text-anchor="middle" x="228" y="-293" font-family="Helvetica,sans-Serif" font-size="10.00">OpTotalEnergy</text>
</a>
</g>
</g>
<!-- Node1&#45;&gt;Node18 -->
<g id="edge17" class="edge">
<title>Node1&#45;&gt;Node18</title>
<path fill="none" stroke="midnightblue" d="M45.29,-465.58C51.48,-429.32 69.93,-352.75 119,-314.5 137.32,-300.22 162.7,-295.24 184.26,-293.93"/>
<polygon fill="midnightblue" stroke="midnightblue" points="41.77,-465.42 43.68,-475.84 48.69,-466.5 41.77,-465.42"/>
</g>
<!-- Node19 -->
<g id="node19" class="node">
<title>Node19</title>
<g id="a_node19"><a xlink:href="structOpValsDiffVals.html" target="_top" xlink:title=" ">
<polygon fill="white" stroke="black" points="184,-248 184,-267 272,-267 272,-248 184,-248"/>
<text text-anchor="middle" x="228" y="-255" font-family="Helvetica,sans-Serif" font-size="10.00">OpValsDiffVals</text>
</a>
</g>
</g>
<!-- Node1&#45;&gt;Node19 -->
<g id="edge18" class="edge">
<title>Node1&#45;&gt;Node19</title>
<path fill="none" stroke="midnightblue" d="M43.47,-465.65C46.68,-423.64 60.38,-325.58 119,-276.5 136.81,-261.59 162.17,-256.58 183.84,-255.41"/>
<polygon fill="midnightblue" stroke="midnightblue" points="39.98,-465.51 42.83,-475.71 46.96,-465.95 39.98,-465.51"/>
</g>
<!-- Node20 -->
<g id="node20" class="node">
<title>Node20</title>
<g id="a_node20"><a xlink:href="structPlasticOps_1_1OpCalculatePlasticityImpl_3_01DIM_00_01GAUSS_00_01DomainEleOp_01_4.html" target="_top" xlink:title=" ">
<polygon fill="white" stroke="black" points="131.5,-198.5 131.5,-228.5 324.5,-228.5 324.5,-198.5 131.5,-198.5"/>
<text text-anchor="start" x="139.5" y="-216.5" font-family="Helvetica,sans-Serif" font-size="10.00">PlasticOps::OpCalculatePlasticity</text>
<text text-anchor="middle" x="228" y="-205.5" font-family="Helvetica,sans-Serif" font-size="10.00">Impl&lt; DIM, GAUSS, DomainEleOp &gt;</text>
</a>
</g>
</g>
<!-- Node1&#45;&gt;Node20 -->
<g id="edge19" class="edge">
<title>Node1&#45;&gt;Node20</title>
<path fill="none" stroke="midnightblue" d="M42.4,-465.95C43.28,-419.25 52.33,-300.48 119,-238.5 123.16,-234.63 127.79,-231.33 132.74,-228.5"/>
<polygon fill="midnightblue" stroke="midnightblue" points="38.9,-465.93 42.32,-475.96 45.9,-465.99 38.9,-465.93"/>
</g>
<!-- Node21 -->
<g id="node21" class="node">
<title>Node21</title>
<g id="a_node21"><a xlink:href="structPlasticOps_1_1OpCalculatePlasticSurfaceImpl_3_01DIM_00_01GAUSS_00_01DomainEleOp_01_4.html" target="_top" xlink:title="[Auxiliary functions functions">
<polygon fill="white" stroke="black" points="145.5,-138 145.5,-179 310.5,-179 310.5,-138 145.5,-138"/>
<text text-anchor="start" x="153.5" y="-167" font-family="Helvetica,sans-Serif" font-size="10.00">PlasticOps::OpCalculatePlastic</text>
<text text-anchor="start" x="153.5" y="-156" font-family="Helvetica,sans-Serif" font-size="10.00">SurfaceImpl&lt; DIM, GAUSS,</text>
<text text-anchor="middle" x="228" y="-145" font-family="Helvetica,sans-Serif" font-size="10.00"> DomainEleOp &gt;</text>
</a>
</g>
</g>
<!-- Node1&#45;&gt;Node21 -->
<g id="edge20" class="edge">
<title>Node1&#45;&gt;Node21</title>
<path fill="none" stroke="midnightblue" d="M45.04,-465.72C53.08,-406.1 79.78,-229.78 119,-189.5 126.42,-181.88 135.57,-176.1 145.39,-171.73"/>
<polygon fill="midnightblue" stroke="midnightblue" points="41.56,-465.35 43.72,-475.72 48.5,-466.27 41.56,-465.35"/>
</g>
<!-- Node22 -->
<g id="node22" class="node">
<title>Node22</title>
<g id="a_node22"><a xlink:href="structPlasticOps_1_1OpPlasticStressImpl_3_01DIM_00_01GAUSS_00_01DomainEleOp_01_4.html" target="_top" xlink:title=" ">
<polygon fill="white" stroke="black" points="131.5,-88.5 131.5,-118.5 324.5,-118.5 324.5,-88.5 131.5,-88.5"/>
<text text-anchor="start" x="139.5" y="-106.5" font-family="Helvetica,sans-Serif" font-size="10.00">PlasticOps::OpPlasticStress</text>
<text text-anchor="middle" x="228" y="-95.5" font-family="Helvetica,sans-Serif" font-size="10.00">Impl&lt; DIM, GAUSS, DomainEleOp &gt;</text>
</a>
</g>
</g>
<!-- Node1&#45;&gt;Node22 -->
<g id="edge21" class="edge">
<title>Node1&#45;&gt;Node22</title>
<path fill="none" stroke="midnightblue" d="M44,-465.65C49.54,-397.91 70.99,-177.3 119,-128.5 122.78,-124.66 127.02,-121.36 131.59,-118.53"/>
<polygon fill="midnightblue" stroke="midnightblue" points="40.5,-465.57 43.2,-475.81 47.48,-466.12 40.5,-465.57"/>
</g>
<!-- Node23 -->
<g id="node23" class="node">
<title>Node23</title>
<g id="a_node23"><a xlink:href="structStandardPoisson_1_1OpError.html" target="_top" xlink:title=" ">
<polygon fill="white" stroke="black" points="158,-50 158,-69 298,-69 298,-50 158,-50"/>
<text text-anchor="middle" x="228" y="-57" font-family="Helvetica,sans-Serif" font-size="10.00">StandardPoisson::OpError</text>
</a>
</g>
</g>
<!-- Node1&#45;&gt;Node23 -->
<g id="edge22" class="edge">
<title>Node1&#45;&gt;Node23</title>
<path fill="none" stroke="midnightblue" d="M43.36,-465.78C46.97,-392.17 63.43,-134.9 119,-79.5 129.47,-69.07 143.49,-63.12 157.97,-59.89"/>
<polygon fill="midnightblue" stroke="midnightblue" points="39.85,-465.8 42.88,-475.95 46.84,-466.13 39.85,-465.8"/>
</g>
<!-- Node24 -->
<g id="node24" class="node">
<title>Node24</title>
<g id="a_node24"><a xlink:href="structThermoElasticOps_1_1OpStressThermal.html" target="_top" xlink:title=" ">
<polygon fill="white" stroke="black" points="150.5,-0.5 150.5,-30.5 305.5,-30.5 305.5,-0.5 150.5,-0.5"/>
<text text-anchor="start" x="158.5" y="-18.5" font-family="Helvetica,sans-Serif" font-size="10.00">ThermoElasticOps::OpStress</text>
<text text-anchor="middle" x="228" y="-7.5" font-family="Helvetica,sans-Serif" font-size="10.00">Thermal</text>
</a>
</g>
</g>
<!-- Node1&#45;&gt;Node24 -->
<g id="edge23" class="edge">
<title>Node1&#45;&gt;Node24</title>
<path fill="none" stroke="midnightblue" d="M43.09,-465.5C45.83,-387.28 59.74,-103.25 119,-40.5 127.52,-31.47 138.61,-25.41 150.42,-21.39"/>
<polygon fill="midnightblue" stroke="midnightblue" points="39.58,-465.76 42.76,-475.87 46.58,-465.98 39.58,-465.76"/>
</g>
</g>
</svg>
        <g id="navigator" transform="translate(0 0)" fill="#404254">
                <rect fill="#f2f5e9" fill-opacity="0.5" stroke="#606060" stroke-width=".5" x="0" y="0" width="60" height="60"/>
                <use id="zoomplus" xlink:href="#zoomPlus" x="17" y="9" onmousedown="handleZoom(evt,'in')"/>
                <use id="zoomminus" xlink:href="#zoomMin" x="42" y="9" onmousedown="handleZoom(evt,'out')"/>
                <use id="reset" xlink:href="#resetDef" x="30" y="36" onmousedown="handleReset()"/>
                <g id="arrowUp" xlink:href="#dirArrow" transform="translate(30 24)" onmousedown="handlePan(0,-1)">
                  <use xlink:href="#rim" fill="#404040">
                        <set attributeName="fill" to="#808080" begin="arrowUp.mouseover" end="arrowUp.mouseout"/>
                  </use>
                  <path fill="none" stroke="white" stroke-width="1.5" d="M0,-3.0v7 M-2.5,-0.5L0,-3.0L2.5,-0.5"/>
                </g>
                <g id="arrowRight" xlink:href="#dirArrow" transform="rotate(90) translate(36 -43)" onmousedown="handlePan(1,0)">
                  <use xlink:href="#rim" fill="#404040">
                        <set attributeName="fill" to="#808080" begin="arrowRight.mouseover" end="arrowRight.mouseout"/>
                  </use>
                  <path fill="none" stroke="white" stroke-width="1.5" d="M0,-3.0v7 M-2.5,-0.5L0,-3.0L2.5,-0.5"/>
                </g>
                <g id="arrowDown" xlink:href="#dirArrow" transform="rotate(180) translate(-30 -48)" onmousedown="handlePan(0,1)">
                  <use xlink:href="#rim" fill="#404040">
                        <set attributeName="fill" to="#808080" begin="arrowDown.mouseover" end="arrowDown.mouseout"/>
                  </use>
                  <path fill="none" stroke="white" stroke-width="1.5" d="M0,-3.0v7 M-2.5,-0.5L0,-3.0L2.5,-0.5"/>
                </g>
                <g id="arrowLeft" xlink:href="#dirArrow" transform="rotate(270) translate(-36 17)" onmousedown="handlePan(-1,0)">
                  <use xlink:href="#rim" fill="#404040">
                        <set attributeName="fill" to="#808080" begin="arrowLeft.mouseover" end="arrowLeft.mouseout"/>
                  </use>
                  <path fill="none" stroke="white" stroke-width="1.5" d="M0,-3.0v7 M-2.5,-0.5L0,-3.0L2.5,-0.5"/>
                </g>
        </g>
        <svg viewBox="0 0 15 15" width="100%" height="30px" preserveAspectRatio="xMaxYMin meet">
         <g id="arrow_out" transform="scale(0.3 0.3)">
          <a xlink:href="classDomainEleOp__inherit__graph_org.svg" target="_base">
           <rect id="button" ry="5" rx="5" y="6" x="6" height="38" width="38"
                fill="#f2f5e9" fill-opacity="0.5" stroke="#606060" stroke-width="1.0"/>
           <path id="arrow"
             d="M 11.500037,31.436501 C 11.940474,20.09759 22.043105,11.32322 32.158766,21.979434 L 37.068811,17.246167 C 37.068811,17.246167 37.088388,32 37.088388,32 L 22.160133,31.978069 C 22.160133,31.978069 26.997745,27.140456 26.997745,27.140456 C 18.528582,18.264221 13.291696,25.230495 11.500037,31.436501 z"
             style="fill:#404040;"/>
          </a>
         </g>
        </svg>
</svg>
