<?xml version="1.0" encoding="UTF-8" standalone="no"?>
<!DOCTYPE svg PUBLIC "-//W3C//DTD SVG 1.1//EN"
 "http://www.w3.org/Graphics/SVG/1.1/DTD/svg11.dtd">
<!-- Generated by graphviz version 2.43.0 (0)
 -->
<!-- Title: DomainEleOp Pages: 1 -->
<!--zoomable 883 -->
<svg id="main" version="1.1" xmlns="http://www.w3.org/2000/svg" xmlns:xlink="http://www.w3.org/1999/xlink" xml:space="preserve" onload="init(evt)">
<style type="text/css"><![CDATA[
.edge:hover path { stroke: red; }
.edge:hover polygon { stroke: red; fill: red; }
]]></style>
<script type="text/javascript"><![CDATA[
var edges = document.getElementsByTagName('g');
if (edges && edges.length) {
  for (var i=0;i<edges.length;i++) {
    if (edges[i].id.substr(0,4)=='edge') {
      edges[i].setAttribute('class','edge');
    }
  }
}
]]></script>
        <defs>
                <circle id="rim" cx="0" cy="0" r="7"/>
                <circle id="rim2" cx="0" cy="0" r="3.5"/>
                <g id="zoomPlus">
                        <use xlink:href="#rim" fill="#404040">
                                <set attributeName="fill" to="#808080" begin="zoomplus.mouseover" end="zoomplus.mouseout"/>
                        </use>
                        <path d="M-4,0h8M0,-4v8" fill="none" stroke="white" stroke-width="1.5" pointer-events="none"/>
                </g>
                <g id="zoomMin">
                        <use xlink:href="#rim" fill="#404040">
                                <set attributeName="fill" to="#808080" begin="zoomminus.mouseover" end="zoomminus.mouseout"/>
                        </use>
                        <path d="M-4,0h8" fill="none" stroke="white" stroke-width="1.5" pointer-events="none"/>
                </g>
                <g id="dirArrow">
                        <path fill="none" stroke="white" stroke-width="1.5" d="M0,-3.0v7 M-2.5,-0.5L0,-3.0L2.5,-0.5"/>
                </g>
               <g id="resetDef">
                       <use xlink:href="#rim2" fill="#404040">
                               <set attributeName="fill" to="#808080" begin="reset.mouseover" end="reset.mouseout"/>
                       </use>
               </g>
        </defs>

<script type="text/javascript">
var viewWidth = 345;
var viewHeight = 883;
var sectionId = 'dynsection-0';
</script>
<script xlink:href="svgpan.js"/>
<svg id="graph" class="graph">
<g id="viewport">
<title>DomainEleOp</title>
<polygon fill="white" stroke="transparent" points="-4,4 -4,-878.5 341,-878.5 341,4 -4,4"/>
<!-- Node1 -->
<g id="node1" class="node">
<title>Node1</title>
<g id="a_node1"><a xlink:title=" ">
<polygon fill="#bfbfbf" stroke="black" points="0,-423 0,-442 83,-442 83,-423 0,-423"/>
<text text-anchor="middle" x="41.5" y="-430" font-family="Helvetica,sans-Serif" font-size="10.00">DomainEleOp</text>
</a>
</g>
</g>
<!-- Node2 -->
<g id="node2" class="node">
<title>Node2</title>
<g id="a_node2"><a xlink:href="structAtomTest_1_1OpError_3_011_01_4.html" target="_top" xlink:title=" ">
<polygon fill="white" stroke="black" points="161,-855 161,-874 295,-874 295,-855 161,-855"/>
<text text-anchor="middle" x="228" y="-862" font-family="Helvetica,sans-Serif" font-size="10.00">AtomTest::OpError&lt; 1 &gt;</text>
</a>
</g>
</g>
<!-- Node1&#45;&gt;Node2 -->
<g id="edge1" class="edge">
<title>Node1&#45;&gt;Node2</title>
<path fill="none" stroke="midnightblue" d="M43.29,-452.58C46.65,-527.5 62.34,-789.35 119,-845.5 130.16,-856.56 145.34,-862.46 160.79,-865.38"/>
<polygon fill="midnightblue" stroke="midnightblue" points="46.77,-452.06 42.85,-442.22 39.77,-452.36 46.77,-452.06"/>
</g>
<!-- Node3 -->
<g id="node3" class="node">
<title>Node3</title>
<g id="a_node3"><a xlink:href="structDomainEleOpStab.html" target="_top" xlink:title="Element used to specialise assembly.">
<polygon fill="white" stroke="black" points="175.5,-817 175.5,-836 280.5,-836 280.5,-817 175.5,-817"/>
<text text-anchor="middle" x="228" y="-824" font-family="Helvetica,sans-Serif" font-size="10.00">DomainEleOpStab</text>
</a>
</g>
</g>
<!-- Node1&#45;&gt;Node3 -->
<g id="edge2" class="edge">
<title>Node1&#45;&gt;Node3</title>
<path fill="none" stroke="midnightblue" d="M43.66,-452.07C48.22,-521.87 67.24,-757.13 119,-807.5 133.8,-821.91 155.46,-827.51 175.5,-829.19"/>
<polygon fill="midnightblue" stroke="midnightblue" points="47.15,-451.78 43.03,-442.01 40.17,-452.21 47.15,-451.78"/>
</g>
<!-- Node4 -->
<g id="node4" class="node">
<title>Node4</title>
<g id="a_node4"><a xlink:href="structExample_1_1OpError_3_011_01_4.html" target="_top" xlink:title=" ">
<polygon fill="white" stroke="black" points="162.5,-779 162.5,-798 293.5,-798 293.5,-779 162.5,-779"/>
<text text-anchor="middle" x="228" y="-786" font-family="Helvetica,sans-Serif" font-size="10.00">Example::OpError&lt; 1 &gt;</text>
</a>
</g>
</g>
<!-- Node1&#45;&gt;Node4 -->
<g id="edge3" class="edge">
<title>Node1&#45;&gt;Node4</title>
<path fill="none" stroke="midnightblue" d="M44.16,-452.16C50.06,-517.39 72.27,-725.01 119,-769.5 130.65,-780.59 146.38,-786.43 162.22,-789.28"/>
<polygon fill="midnightblue" stroke="midnightblue" points="47.63,-451.68 43.27,-442.02 40.65,-452.29 47.63,-451.68"/>
</g>
<!-- Node5 -->
<g id="node5" class="node">
<title>Node5</title>
<g id="a_node5"><a xlink:href="structExample_1_1OpRhs.html" target="_top" xlink:title=" ">
<polygon fill="white" stroke="black" points="179.5,-741 179.5,-760 276.5,-760 276.5,-741 179.5,-741"/>
<text text-anchor="middle" x="228" y="-748" font-family="Helvetica,sans-Serif" font-size="10.00">Example::OpRhs</text>
</a>
</g>
</g>
<!-- Node1&#45;&gt;Node5 -->
<g id="edge4" class="edge">
<title>Node1&#45;&gt;Node5</title>
<path fill="none" stroke="midnightblue" d="M44.78,-452.27C52.14,-512.64 77.27,-692.84 119,-731.5 135.06,-746.38 158.49,-751.72 179.42,-753.1"/>
<polygon fill="midnightblue" stroke="midnightblue" points="48.23,-451.68 43.58,-442.16 41.28,-452.5 48.23,-451.68"/>
</g>
<!-- Node6 -->
<g id="node6" class="node">
<title>Node6</title>
<g id="a_node6"><a xlink:href="structHenckyOps_1_1OpCalculateEigenValsImpl_3_01DIM_00_01GAUSS_00_01DomainEleOp_01_4.html" target="_top" xlink:title=" ">
<polygon fill="white" stroke="black" points="121.5,-691.5 121.5,-721.5 334.5,-721.5 334.5,-691.5 121.5,-691.5"/>
<text text-anchor="start" x="129.5" y="-709.5" font-family="Helvetica,sans-Serif" font-size="10.00">HenckyOps::OpCalculateEigen</text>
<text text-anchor="middle" x="228" y="-698.5" font-family="Helvetica,sans-Serif" font-size="10.00">ValsImpl&lt; DIM, GAUSS, DomainEleOp &gt;</text>
</a>
</g>
</g>
<!-- Node1&#45;&gt;Node6 -->
<g id="edge5" class="edge">
<title>Node1&#45;&gt;Node6</title>
<path fill="none" stroke="midnightblue" d="M42.35,-452.2C43.11,-499.28 51.91,-618.98 119,-681.5 123.08,-685.3 127.63,-688.57 132.48,-691.36"/>
<polygon fill="midnightblue" stroke="midnightblue" points="45.84,-452.1 42.29,-442.12 38.84,-452.13 45.84,-452.1"/>
</g>
<!-- Node7 -->
<g id="node7" class="node">
<title>Node7</title>
<g id="a_node7"><a xlink:href="structHenckyOps_1_1OpCalculateHenckyPlasticStressImpl_3_01DIM_00_01GAUSS_00_01DomainEleOp_00_01S_01_4.html" target="_top" xlink:title=" ">
<polygon fill="white" stroke="black" points="141.5,-631 141.5,-672 314.5,-672 314.5,-631 141.5,-631"/>
<text text-anchor="start" x="149.5" y="-660" font-family="Helvetica,sans-Serif" font-size="10.00">HenckyOps::OpCalculateHencky</text>
<text text-anchor="start" x="149.5" y="-649" font-family="Helvetica,sans-Serif" font-size="10.00">PlasticStressImpl&lt; DIM,</text>
<text text-anchor="middle" x="228" y="-638" font-family="Helvetica,sans-Serif" font-size="10.00"> GAUSS, DomainEleOp, S &gt;</text>
</a>
</g>
</g>
<!-- Node1&#45;&gt;Node7 -->
<g id="edge6" class="edge">
<title>Node1&#45;&gt;Node7</title>
<path fill="none" stroke="midnightblue" d="M44.78,-452.38C50.26,-490.87 67.78,-575.79 119,-621.5 125.61,-627.4 133.28,-632.14 141.42,-635.96"/>
<polygon fill="midnightblue" stroke="midnightblue" points="48.19,-451.49 43.44,-442.02 41.25,-452.39 48.19,-451.49"/>
</g>
<!-- Node8 -->
<g id="node8" class="node">
<title>Node8</title>
<g id="a_node8"><a xlink:href="structHenckyOps_1_1OpCalculateHenckyStressImpl_3_01DIM_00_01GAUSS_00_01DomainEleOp_00_01S_01_4.html" target="_top" xlink:title=" ">
<polygon fill="white" stroke="black" points="141.5,-571 141.5,-612 314.5,-612 314.5,-571 141.5,-571"/>
<text text-anchor="start" x="149.5" y="-600" font-family="Helvetica,sans-Serif" font-size="10.00">HenckyOps::OpCalculateHencky</text>
<text text-anchor="start" x="149.5" y="-589" font-family="Helvetica,sans-Serif" font-size="10.00">StressImpl&lt; DIM, GAUSS,</text>
<text text-anchor="middle" x="228" y="-578" font-family="Helvetica,sans-Serif" font-size="10.00"> DomainEleOp, S &gt;</text>
</a>
</g>
</g>
<!-- Node1&#45;&gt;Node8 -->
<g id="edge7" class="edge">
<title>Node1&#45;&gt;Node8</title>
<path fill="none" stroke="midnightblue" d="M48.73,-451.91C58.86,-480.29 81.6,-532.87 119,-561.5 125.8,-566.7 133.45,-571.01 141.46,-574.56"/>
<polygon fill="midnightblue" stroke="midnightblue" points="52,-450.65 45.47,-442.31 45.38,-452.9 52,-450.65"/>
</g>
<!-- Node9 -->
<g id="node9" class="node">
<title>Node9</title>
<g id="a_node9"><a xlink:href="structHenckyOps_1_1OpCalculateLogC__dCImpl_3_01DIM_00_01GAUSS_00_01DomainEleOp_01_4.html" target="_top" xlink:title=" ">
<polygon fill="white" stroke="black" points="119,-521.5 119,-551.5 337,-551.5 337,-521.5 119,-521.5"/>
<text text-anchor="start" x="127" y="-539.5" font-family="Helvetica,sans-Serif" font-size="10.00">HenckyOps::OpCalculateLog</text>
<text text-anchor="middle" x="228" y="-528.5" font-family="Helvetica,sans-Serif" font-size="10.00">C_dCImpl&lt; DIM, GAUSS, DomainEleOp &gt;</text>
</a>
</g>
</g>
<!-- Node1&#45;&gt;Node9 -->
<g id="edge8" class="edge">
<title>Node1&#45;&gt;Node9</title>
<path fill="none" stroke="midnightblue" d="M54.58,-450.32C68.08,-468.8 91.66,-497.09 119,-512.5 125.11,-515.94 131.67,-518.89 138.43,-521.42"/>
<polygon fill="midnightblue" stroke="midnightblue" points="57.42,-448.28 48.79,-442.14 51.71,-452.32 57.42,-448.28"/>
</g>
<!-- Node10 -->
<g id="node10" class="node">
<title>Node10</title>
<g id="a_node10"><a xlink:href="structHenckyOps_1_1OpCalculateLogCImpl_3_01DIM_00_01GAUSS_00_01DomainEleOp_01_4.html" target="_top" xlink:title=" ">
<polygon fill="white" stroke="black" points="128,-472.5 128,-502.5 328,-502.5 328,-472.5 128,-472.5"/>
<text text-anchor="start" x="136" y="-490.5" font-family="Helvetica,sans-Serif" font-size="10.00">HenckyOps::OpCalculateLog</text>
<text text-anchor="middle" x="228" y="-479.5" font-family="Helvetica,sans-Serif" font-size="10.00">CImpl&lt; DIM, GAUSS, DomainEleOp &gt;</text>
</a>
</g>
</g>
<!-- Node1&#45;&gt;Node10 -->
<g id="edge9" class="edge">
<title>Node1&#45;&gt;Node10</title>
<path fill="none" stroke="midnightblue" d="M73.75,-445.95C87.47,-451.54 103.87,-457.81 119,-462.5 130.67,-466.12 143.2,-469.48 155.44,-472.49"/>
<polygon fill="midnightblue" stroke="midnightblue" points="74.87,-442.63 64.29,-442.03 72.19,-449.09 74.87,-442.63"/>
</g>
<!-- Node11 -->
<g id="node11" class="node">
<title>Node11</title>
<g id="a_node11"><a xlink:href="structHenckyOps_1_1OpCalculatePiolaStressImpl_3_01DIM_00_01GAUSS_00_01DomainEleOp_00_01S_01_4.html" target="_top" xlink:title=" ">
<polygon fill="white" stroke="black" points="147.5,-412 147.5,-453 308.5,-453 308.5,-412 147.5,-412"/>
<text text-anchor="start" x="155.5" y="-441" font-family="Helvetica,sans-Serif" font-size="10.00">HenckyOps::OpCalculatePiola</text>
<text text-anchor="start" x="155.5" y="-430" font-family="Helvetica,sans-Serif" font-size="10.00">StressImpl&lt; DIM, GAUSS,</text>
<text text-anchor="middle" x="228" y="-419" font-family="Helvetica,sans-Serif" font-size="10.00"> DomainEleOp, S &gt;</text>
</a>
</g>
</g>
<!-- Node1&#45;&gt;Node11 -->
<g id="edge10" class="edge">
<title>Node1&#45;&gt;Node11</title>
<path fill="none" stroke="midnightblue" d="M93.48,-432.5C110.1,-432.5 128.97,-432.5 147.19,-432.5"/>
<polygon fill="midnightblue" stroke="midnightblue" points="93.45,-429 83.45,-432.5 93.45,-436 93.45,-429"/>
</g>
<!-- Node12 -->
<g id="node12" class="node">
<title>Node12</title>
<g id="a_node12"><a xlink:href="structHenckyOps_1_1OpHenckyTangentImpl_3_01DIM_00_01GAUSS_00_01DomainEleOp_00_01S_01_4.html" target="_top" xlink:title=" ">
<polygon fill="white" stroke="black" points="125.5,-362.5 125.5,-392.5 330.5,-392.5 330.5,-362.5 125.5,-362.5"/>
<text text-anchor="start" x="133.5" y="-380.5" font-family="Helvetica,sans-Serif" font-size="10.00">HenckyOps::OpHenckyTangent</text>
<text text-anchor="middle" x="228" y="-369.5" font-family="Helvetica,sans-Serif" font-size="10.00">Impl&lt; DIM, GAUSS, DomainEleOp, S &gt;</text>
</a>
</g>
</g>
<!-- Node1&#45;&gt;Node12 -->
<g id="edge11" class="edge">
<title>Node1&#45;&gt;Node12</title>
<path fill="none" stroke="midnightblue" d="M73.75,-419.05C87.47,-413.46 103.87,-407.19 119,-402.5 130.67,-398.88 143.2,-395.52 155.44,-392.51"/>
<polygon fill="midnightblue" stroke="midnightblue" points="72.19,-415.91 64.29,-422.97 74.87,-422.37 72.19,-415.91"/>
</g>
<!-- Node13 -->
<g id="node13" class="node">
<title>Node13</title>
<g id="a_node13"><a xlink:href="structMixedPoisson_1_1OpError.html" target="_top" xlink:title=" ">
<polygon fill="white" stroke="black" points="165,-324 165,-343 291,-343 291,-324 165,-324"/>
<text text-anchor="middle" x="228" y="-331" font-family="Helvetica,sans-Serif" font-size="10.00">MixedPoisson::OpError</text>
</a>
</g>
</g>
<!-- Node1&#45;&gt;Node13 -->
<g id="edge12" class="edge">
<title>Node1&#45;&gt;Node13</title>
<path fill="none" stroke="midnightblue" d="M54.71,-414.46C68.19,-396.06 91.65,-368.17 119,-353.5 132.95,-346.02 149.2,-341.29 164.81,-338.31"/>
<polygon fill="midnightblue" stroke="midnightblue" points="51.68,-412.69 48.76,-422.87 57.39,-416.73 51.68,-412.69"/>
</g>
<!-- Node14 -->
<g id="node14" class="node">
<title>Node14</title>
<g id="a_node14"><a xlink:href="structOpError.html" target="_top" xlink:title=" ">
<polygon fill="white" stroke="black" points="201.5,-286 201.5,-305 254.5,-305 254.5,-286 201.5,-286"/>
<text text-anchor="middle" x="228" y="-293" font-family="Helvetica,sans-Serif" font-size="10.00">OpError</text>
</a>
</g>
</g>
<!-- Node1&#45;&gt;Node14 -->
<g id="edge13" class="edge">
<title>Node1&#45;&gt;Node14</title>
<path fill="none" stroke="midnightblue" d="M49.17,-413.54C59.63,-386.82 82.52,-338.66 119,-314.5 143.6,-298.21 178.01,-294.68 201.32,-294.43"/>
<polygon fill="midnightblue" stroke="midnightblue" points="45.88,-412.35 45.67,-422.94 52.44,-414.79 45.88,-412.35"/>
</g>
<!-- Node15 -->
<g id="node15" class="node">
<title>Node15</title>
<g id="a_node15"><a xlink:href="structOpValsDiffVals.html" target="_top" xlink:title=" ">
<polygon fill="white" stroke="black" points="184,-248 184,-267 272,-267 272,-248 184,-248"/>
<text text-anchor="middle" x="228" y="-255" font-family="Helvetica,sans-Serif" font-size="10.00">OpValsDiffVals</text>
</a>
</g>
</g>
<!-- Node1&#45;&gt;Node15 -->
<g id="edge14" class="edge">
<title>Node1&#45;&gt;Node15</title>
<path fill="none" stroke="midnightblue" d="M46.15,-412.9C53.52,-379.22 73.5,-310.69 119,-276.5 137.41,-262.66 162.55,-257.66 183.94,-256.23"/>
<polygon fill="midnightblue" stroke="midnightblue" points="42.68,-412.39 44.12,-422.89 49.54,-413.79 42.68,-412.39"/>
</g>
<!-- Node16 -->
<g id="node16" class="node">
<title>Node16</title>
<g id="a_node16"><a xlink:href="structPlasticOps_1_1OpCalculatePlasticityImpl_3_01DIM_00_01GAUSS_00_01DomainEleOp_01_4.html" target="_top" xlink:title=" ">
<polygon fill="white" stroke="black" points="131.5,-198.5 131.5,-228.5 324.5,-228.5 324.5,-198.5 131.5,-198.5"/>
<text text-anchor="start" x="139.5" y="-216.5" font-family="Helvetica,sans-Serif" font-size="10.00">PlasticOps::OpCalculatePlasticity</text>
<text text-anchor="middle" x="228" y="-205.5" font-family="Helvetica,sans-Serif" font-size="10.00">Impl&lt; DIM, GAUSS, DomainEleOp &gt;</text>
</a>
</g>
</g>
<!-- Node1&#45;&gt;Node16 -->
<g id="edge15" class="edge">
<title>Node1&#45;&gt;Node16</title>
<path fill="none" stroke="midnightblue" d="M44.34,-412.67C49.1,-373.2 65.47,-284.64 119,-238.5 123.45,-234.67 128.37,-231.39 133.58,-228.6"/>
<polygon fill="midnightblue" stroke="midnightblue" points="40.86,-412.31 43.26,-422.63 47.82,-413.07 40.86,-412.31"/>
</g>
<!-- Node17 -->
<g id="node17" class="node">
<title>Node17</title>
<g id="a_node17"><a xlink:href="structPlasticOps_1_1OpCalculatePlasticSurfaceImpl_3_01DIM_00_01GAUSS_00_01DomainEleOp_01_4.html" target="_top" xlink:title="[Auxiliary functions functions">
<polygon fill="white" stroke="black" points="145.5,-138 145.5,-179 310.5,-179 310.5,-138 145.5,-138"/>
<text text-anchor="start" x="153.5" y="-167" font-family="Helvetica,sans-Serif" font-size="10.00">PlasticOps::OpCalculatePlastic</text>
<text text-anchor="start" x="153.5" y="-156" font-family="Helvetica,sans-Serif" font-size="10.00">SurfaceImpl&lt; DIM, GAUSS,</text>
<text text-anchor="middle" x="228" y="-145" font-family="Helvetica,sans-Serif" font-size="10.00"> DomainEleOp &gt;</text>
</a>
</g>
</g>
<!-- Node1&#45;&gt;Node17 -->
<g id="edge16" class="edge">
<title>Node1&#45;&gt;Node17</title>
<path fill="none" stroke="midnightblue" d="M42.74,-412.87C44.39,-366.98 55.06,-251.83 119,-189.5 126.54,-182.15 135.71,-176.52 145.48,-172.21"/>
<polygon fill="midnightblue" stroke="midnightblue" points="39.24,-412.89 42.49,-422.98 46.24,-413.07 39.24,-412.89"/>
</g>
<!-- Node18 -->
<g id="node18" class="node">
<title>Node18</title>
<g id="a_node18"><a xlink:href="structPlasticOps_1_1OpPlasticStressImpl_3_01DIM_00_01GAUSS_00_01DomainEleOp_01_4.html" target="_top" xlink:title=" ">
<polygon fill="white" stroke="black" points="131.5,-88.5 131.5,-118.5 324.5,-118.5 324.5,-88.5 131.5,-88.5"/>
<text text-anchor="start" x="139.5" y="-106.5" font-family="Helvetica,sans-Serif" font-size="10.00">PlasticOps::OpPlasticStress</text>
<text text-anchor="middle" x="228" y="-95.5" font-family="Helvetica,sans-Serif" font-size="10.00">Impl&lt; DIM, GAUSS, DomainEleOp &gt;</text>
</a>
</g>
</g>
<!-- Node1&#45;&gt;Node18 -->
<g id="edge17" class="edge">
<title>Node1&#45;&gt;Node18</title>
<path fill="none" stroke="midnightblue" d="M44.82,-412.5C52.31,-351.41 77.76,-168.96 119,-128.5 122.85,-124.73 127.14,-121.48 131.75,-118.69"/>
<polygon fill="midnightblue" stroke="midnightblue" points="41.31,-412.38 43.6,-422.73 48.26,-413.21 41.31,-412.38"/>
</g>
<!-- Node19 -->
<g id="node19" class="node">
<title>Node19</title>
<g id="a_node19"><a xlink:href="structStandardPoisson_1_1OpError.html" target="_top" xlink:title=" ">
<polygon fill="white" stroke="black" points="158,-50 158,-69 298,-69 298,-50 158,-50"/>
<text text-anchor="middle" x="228" y="-57" font-family="Helvetica,sans-Serif" font-size="10.00">StandardPoisson::OpError</text>
</a>
</g>
</g>
<!-- Node1&#45;&gt;Node19 -->
<g id="edge18" class="edge">
<title>Node1&#45;&gt;Node19</title>
<path fill="none" stroke="midnightblue" d="M43.96,-412.8C49.35,-345.55 70.39,-126.66 119,-79.5 129.54,-69.28 143.51,-63.39 157.89,-60.16"/>
<polygon fill="midnightblue" stroke="midnightblue" points="40.46,-412.64 43.18,-422.88 47.44,-413.18 40.46,-412.64"/>
</g>
<!-- Node20 -->
<g id="node20" class="node">
<title>Node20</title>
<g id="a_node20"><a xlink:href="structThermoElasticOps_1_1OpStressThermal.html" target="_top" xlink:title=" ">
<polygon fill="white" stroke="black" points="150.5,-0.5 150.5,-30.5 305.5,-30.5 305.5,-0.5 150.5,-0.5"/>
<text text-anchor="start" x="158.5" y="-18.5" font-family="Helvetica,sans-Serif" font-size="10.00">ThermoElasticOps::OpStress</text>
<text text-anchor="middle" x="228" y="-7.5" font-family="Helvetica,sans-Serif" font-size="10.00">Thermal</text>
</a>
</g>
</g>
<!-- Node1&#45;&gt;Node20 -->
<g id="edge19" class="edge">
<title>Node1&#45;&gt;Node20</title>
<path fill="none" stroke="midnightblue" d="M43.59,-412.62C47.96,-340.61 66.52,-94.83 119,-40.5 127.56,-31.64 138.59,-25.65 150.32,-21.64"/>
<polygon fill="midnightblue" stroke="midnightblue" points="40.08,-412.78 42.99,-422.97 47.07,-413.19 40.08,-412.78"/>
</g>
</g>
</svg>
        <g id="navigator" transform="translate(0 0)" fill="#404254">
                <rect fill="#f2f5e9" fill-opacity="0.5" stroke="#606060" stroke-width=".5" x="0" y="0" width="60" height="60"/>
                <use id="zoomplus" xlink:href="#zoomPlus" x="17" y="9" onmousedown="handleZoom(evt,'in')"/>
                <use id="zoomminus" xlink:href="#zoomMin" x="42" y="9" onmousedown="handleZoom(evt,'out')"/>
                <use id="reset" xlink:href="#resetDef" x="30" y="36" onmousedown="handleReset()"/>
                <g id="arrowUp" xlink:href="#dirArrow" transform="translate(30 24)" onmousedown="handlePan(0,-1)">
                  <use xlink:href="#rim" fill="#404040">
                        <set attributeName="fill" to="#808080" begin="arrowUp.mouseover" end="arrowUp.mouseout"/>
                  </use>
                  <path fill="none" stroke="white" stroke-width="1.5" d="M0,-3.0v7 M-2.5,-0.5L0,-3.0L2.5,-0.5"/>
                </g>
                <g id="arrowRight" xlink:href="#dirArrow" transform="rotate(90) translate(36 -43)" onmousedown="handlePan(1,0)">
                  <use xlink:href="#rim" fill="#404040">
                        <set attributeName="fill" to="#808080" begin="arrowRight.mouseover" end="arrowRight.mouseout"/>
                  </use>
                  <path fill="none" stroke="white" stroke-width="1.5" d="M0,-3.0v7 M-2.5,-0.5L0,-3.0L2.5,-0.5"/>
                </g>
                <g id="arrowDown" xlink:href="#dirArrow" transform="rotate(180) translate(-30 -48)" onmousedown="handlePan(0,1)">
                  <use xlink:href="#rim" fill="#404040">
                        <set attributeName="fill" to="#808080" begin="arrowDown.mouseover" end="arrowDown.mouseout"/>
                  </use>
                  <path fill="none" stroke="white" stroke-width="1.5" d="M0,-3.0v7 M-2.5,-0.5L0,-3.0L2.5,-0.5"/>
                </g>
                <g id="arrowLeft" xlink:href="#dirArrow" transform="rotate(270) translate(-36 17)" onmousedown="handlePan(-1,0)">
                  <use xlink:href="#rim" fill="#404040">
                        <set attributeName="fill" to="#808080" begin="arrowLeft.mouseover" end="arrowLeft.mouseout"/>
                  </use>
                  <path fill="none" stroke="white" stroke-width="1.5" d="M0,-3.0v7 M-2.5,-0.5L0,-3.0L2.5,-0.5"/>
                </g>
        </g>
        <svg viewBox="0 0 15 15" width="100%" height="30px" preserveAspectRatio="xMaxYMin meet">
         <g id="arrow_out" transform="scale(0.3 0.3)">
          <a xlink:href="classDomainEleOp__inherit__graph_org.svg" target="_base">
           <rect id="button" ry="5" rx="5" y="6" x="6" height="38" width="38"
                fill="#f2f5e9" fill-opacity="0.5" stroke="#606060" stroke-width="1.0"/>
           <path id="arrow"
             d="M 11.500037,31.436501 C 11.940474,20.09759 22.043105,11.32322 32.158766,21.979434 L 37.068811,17.246167 C 37.068811,17.246167 37.088388,32 37.088388,32 L 22.160133,31.978069 C 22.160133,31.978069 26.997745,27.140456 26.997745,27.140456 C 18.528582,18.264221 13.291696,25.230495 11.500037,31.436501 z"
             style="fill:#404040;"/>
          </a>
         </g>
        </svg>
</svg>
