<?xml version="1.0" encoding="UTF-8" standalone="no"?>
<!DOCTYPE svg PUBLIC "-//W3C//DTD SVG 1.1//EN"
 "http://www.w3.org/Graphics/SVG/1.1/DTD/svg11.dtd">
<!-- Generated by graphviz version 2.43.0 (0)
 -->
<!-- Title: FTensor::dTensor2_symmetric&lt; T, Dim01, Dim2, i, j, k &gt; Pages: 1 -->
<svg width="764pt" height="218pt"
 viewBox="0.00 0.00 764.00 218.00" xmlns="http://www.w3.org/2000/svg" xmlns:xlink="http://www.w3.org/1999/xlink">
<g id="graph0" class="graph" transform="scale(1 1) rotate(0) translate(4 214)">
<title>FTensor::dTensor2_symmetric&lt; T, Dim01, Dim2, i, j, k &gt;</title>
<polygon fill="white" stroke="transparent" points="-4,4 -4,-214 760,-214 760,4 -4,4"/>
<!-- Node1 -->
<g id="node1" class="node">
<title>Node1</title>
<g id="a_node1"><a xlink:title=" ">
<polygon fill="#bfbfbf" stroke="black" points="595,-95 595,-125 756,-125 756,-95 595,-95"/>
<text text-anchor="start" x="603" y="-113" font-family="Helvetica,sans-Serif" font-size="10.00">FTensor::dTensor2_symmetric</text>
<text text-anchor="middle" x="675.5" y="-102" font-family="Helvetica,sans-Serif" font-size="10.00">&lt; T, Dim01, Dim2, i, j, k &gt;</text>
</a>
</g>
</g>
<!-- Node2 -->
<g id="node2" class="node">
<title>Node2</title>
<g id="a_node2"><a xlink:href="classFTensor_1_1Tensor1.html" target="_top" xlink:title=" ">
<polygon fill="white" stroke="black" points="387.5,-151 387.5,-181 511.5,-181 511.5,-151 387.5,-151"/>
<text text-anchor="start" x="395.5" y="-169" font-family="Helvetica,sans-Serif" font-size="10.00">FTensor::Tensor1&lt; int,</text>
<text text-anchor="middle" x="449.5" y="-158" font-family="Helvetica,sans-Serif" font-size="10.00"> Dim2 &gt;</text>
</a>
</g>
</g>
<!-- Node2&#45;&gt;Node1 -->
<g id="edge1" class="edge">
<title>Node2&#45;&gt;Node1</title>
<path fill="none" stroke="#9a32cd" stroke-dasharray="5,2" d="M520.53,-148.49C550.61,-140.97 585.41,-132.27 614.31,-125.05"/>
<polygon fill="#9a32cd" stroke="#9a32cd" points="519.38,-145.17 510.53,-150.99 521.08,-151.96 519.38,-145.17"/>
<text text-anchor="middle" x="561" y="-144" font-family="Helvetica,sans-Serif" font-size="10.00"> d_ijk</text>
</g>
<!-- Node3 -->
<g id="node3" class="node">
<title>Node3</title>
<g id="a_node3"><a xlink:title=" ">
<polygon fill="white" stroke="#bfbfbf" points="153,-190.5 153,-209.5 182,-209.5 182,-190.5 153,-190.5"/>
<text text-anchor="middle" x="167.5" y="-197.5" font-family="Helvetica,sans-Serif" font-size="10.00">int</text>
</a>
</g>
</g>
<!-- Node3&#45;&gt;Node2 -->
<g id="edge2" class="edge">
<title>Node3&#45;&gt;Node2</title>
<path fill="none" stroke="#9a32cd" stroke-dasharray="5,2" d="M191.98,-197.15C234.65,-191.97 326.12,-180.86 387.5,-173.41"/>
<polygon fill="#9a32cd" stroke="#9a32cd" points="191.51,-193.68 182,-198.36 192.35,-200.63 191.51,-193.68"/>
<text text-anchor="middle" x="308.5" y="-191" font-family="Helvetica,sans-Serif" font-size="10.00"> data</text>
</g>
<!-- Node4 -->
<g id="node4" class="node">
<title>Node4</title>
<g id="a_node4"><a xlink:href="classFTensor_1_1Tensor1.html" target="_top" xlink:title=" ">
<polygon fill="white" stroke="black" points="109,-127 109,-157 226,-157 226,-127 109,-127"/>
<text text-anchor="start" x="117" y="-145" font-family="Helvetica,sans-Serif" font-size="10.00">FTensor::Tensor1&lt; T,</text>
<text text-anchor="middle" x="167.5" y="-134" font-family="Helvetica,sans-Serif" font-size="10.00"> Tensor_Dim &gt;</text>
</a>
</g>
</g>
<!-- Node4&#45;&gt;Node2 -->
<g id="edge3" class="edge">
<title>Node4&#45;&gt;Node2</title>
<path fill="none" stroke="orange" stroke-dasharray="5,2" d="M236.34,-147.82C282.28,-151.75 342.48,-156.91 387.02,-160.73"/>
<polygon fill="orange" stroke="orange" points="236.44,-144.31 226.18,-146.94 235.84,-151.29 236.44,-144.31"/>
<text text-anchor="middle" x="308.5" y="-160" font-family="Helvetica,sans-Serif" font-size="10.00"> &lt; int, Dim2 &gt;</text>
</g>
<!-- Node9 -->
<g id="node9" class="node">
<title>Node9</title>
<g id="a_node9"><a xlink:href="classFTensor_1_1Tensor1.html" target="_top" xlink:title=" ">
<polygon fill="white" stroke="black" points="377.5,-95 377.5,-125 521.5,-125 521.5,-95 377.5,-95"/>
<text text-anchor="start" x="385.5" y="-113" font-family="Helvetica,sans-Serif" font-size="10.00">FTensor::Tensor1&lt; double,</text>
<text text-anchor="middle" x="449.5" y="-102" font-family="Helvetica,sans-Serif" font-size="10.00"> Dim2 &gt;</text>
</a>
</g>
</g>
<!-- Node4&#45;&gt;Node9 -->
<g id="edge11" class="edge">
<title>Node4&#45;&gt;Node9</title>
<path fill="none" stroke="orange" stroke-dasharray="5,2" d="M236.21,-134.26C278.96,-129.38 334.11,-123.07 377.48,-118.12"/>
<polygon fill="orange" stroke="orange" points="235.71,-130.8 226.18,-135.41 236.51,-137.75 235.71,-130.8"/>
<text text-anchor="middle" x="308.5" y="-133" font-family="Helvetica,sans-Serif" font-size="10.00"> &lt; double, Dim2 &gt;</text>
</g>
<!-- Node5 -->
<g id="node5" class="node">
<title>Node5</title>
<g id="a_node5"><a xlink:title=" ">
<polygon fill="white" stroke="#bfbfbf" points="0,-88.5 0,-107.5 29,-107.5 29,-88.5 0,-88.5"/>
<text text-anchor="middle" x="14.5" y="-95.5" font-family="Helvetica,sans-Serif" font-size="10.00">T</text>
</a>
</g>
</g>
<!-- Node5&#45;&gt;Node4 -->
<g id="edge4" class="edge">
<title>Node5&#45;&gt;Node4</title>
<path fill="none" stroke="#9a32cd" stroke-dasharray="5,2" d="M38.78,-104.78C59,-110.68 89.03,-119.42 114.88,-126.96"/>
<polygon fill="#9a32cd" stroke="#9a32cd" points="39.75,-101.42 29.17,-101.98 37.79,-108.14 39.75,-101.42"/>
<text text-anchor="middle" x="59.5" y="-116" font-family="Helvetica,sans-Serif" font-size="10.00"> data</text>
</g>
<!-- Node8 -->
<g id="node8" class="node">
<title>Node8</title>
<g id="a_node8"><a xlink:href="classFTensor_1_1Tensor2__symmetric.html" target="_top" xlink:title=" ">
<polygon fill="white" stroke="black" points="90,-39 90,-69 245,-69 245,-39 90,-39"/>
<text text-anchor="start" x="98" y="-57" font-family="Helvetica,sans-Serif" font-size="10.00">FTensor::Tensor2_symmetric</text>
<text text-anchor="middle" x="167.5" y="-46" font-family="Helvetica,sans-Serif" font-size="10.00">&lt; T, Tensor_Dim &gt;</text>
</a>
</g>
</g>
<!-- Node5&#45;&gt;Node8 -->
<g id="edge8" class="edge">
<title>Node5&#45;&gt;Node8</title>
<path fill="none" stroke="#9a32cd" stroke-dasharray="5,2" d="M38.78,-91.22C59,-85.32 89.03,-76.58 114.88,-69.04"/>
<polygon fill="#9a32cd" stroke="#9a32cd" points="37.79,-87.86 29.17,-94.02 39.75,-94.58 37.79,-87.86"/>
<text text-anchor="middle" x="59.5" y="-91" font-family="Helvetica,sans-Serif" font-size="10.00"> data</text>
</g>
<!-- Node6 -->
<g id="node6" class="node">
<title>Node6</title>
<g id="a_node6"><a xlink:href="classFTensor_1_1Tensor2__symmetric.html" target="_top" xlink:title=" ">
<polygon fill="white" stroke="black" points="372,-39 372,-69 527,-69 527,-39 372,-39"/>
<text text-anchor="start" x="380" y="-57" font-family="Helvetica,sans-Serif" font-size="10.00">FTensor::Tensor2_symmetric</text>
<text text-anchor="middle" x="449.5" y="-46" font-family="Helvetica,sans-Serif" font-size="10.00">&lt; T *, Dim01 &gt;</text>
</a>
</g>
</g>
<!-- Node6&#45;&gt;Node1 -->
<g id="edge5" class="edge">
<title>Node6&#45;&gt;Node1</title>
<path fill="none" stroke="#9a32cd" stroke-dasharray="5,2" d="M520.53,-71.51C550.61,-79.03 585.41,-87.73 614.31,-94.95"/>
<polygon fill="#9a32cd" stroke="#9a32cd" points="521.08,-68.04 510.53,-69.01 519.38,-74.83 521.08,-68.04"/>
<text text-anchor="middle" x="561" y="-88" font-family="Helvetica,sans-Serif" font-size="10.00"> a</text>
</g>
<!-- Node7 -->
<g id="node7" class="node">
<title>Node7</title>
<g id="a_node7"><a xlink:title=" ">
<polygon fill="white" stroke="#bfbfbf" points="152,-0.5 152,-19.5 183,-19.5 183,-0.5 152,-0.5"/>
<text text-anchor="middle" x="167.5" y="-7.5" font-family="Helvetica,sans-Serif" font-size="10.00">T *</text>
</a>
</g>
</g>
<!-- Node7&#45;&gt;Node6 -->
<g id="edge6" class="edge">
<title>Node7&#45;&gt;Node6</title>
<path fill="none" stroke="#9a32cd" stroke-dasharray="5,2" d="M193.39,-13.87C228.99,-19.42 296.51,-29.94 354,-39 359.83,-39.92 365.85,-40.87 371.91,-41.83"/>
<polygon fill="#9a32cd" stroke="#9a32cd" points="193.83,-10.4 183.41,-12.32 192.75,-17.32 193.83,-10.4"/>
<text text-anchor="middle" x="308.5" y="-42" font-family="Helvetica,sans-Serif" font-size="10.00"> data</text>
</g>
<!-- Node8&#45;&gt;Node6 -->
<g id="edge7" class="edge">
<title>Node8&#45;&gt;Node6</title>
<path fill="none" stroke="orange" stroke-dasharray="5,2" d="M255.33,-54C292.52,-54 335.58,-54 371.6,-54"/>
<polygon fill="orange" stroke="orange" points="255.01,-50.5 245.01,-54 255.01,-57.5 255.01,-50.5"/>
<text text-anchor="middle" x="308.5" y="-57" font-family="Helvetica,sans-Serif" font-size="10.00"> &lt; T *, Dim01 &gt;</text>
</g>
<!-- Node9&#45;&gt;Node1 -->
<g id="edge9" class="edge">
<title>Node9&#45;&gt;Node1</title>
<path fill="none" stroke="#9a32cd" stroke-dasharray="5,2" d="M531.95,-110C552.48,-110 574.5,-110 594.94,-110"/>
<polygon fill="#9a32cd" stroke="#9a32cd" points="531.68,-106.5 521.68,-110 531.68,-113.5 531.68,-106.5"/>
<text text-anchor="middle" x="561" y="-113" font-family="Helvetica,sans-Serif" font-size="10.00"> d_xyz</text>
</g>
<!-- Node10 -->
<g id="node10" class="node">
<title>Node10</title>
<g id="a_node10"><a xlink:href="classdouble.html" target="_top" xlink:title=" ">
<polygon fill="white" stroke="black" points="142.5,-88.5 142.5,-107.5 192.5,-107.5 192.5,-88.5 142.5,-88.5"/>
<text text-anchor="middle" x="167.5" y="-95.5" font-family="Helvetica,sans-Serif" font-size="10.00">double</text>
</a>
</g>
</g>
<!-- Node10&#45;&gt;Node9 -->
<g id="edge10" class="edge">
<title>Node10&#45;&gt;Node9</title>
<path fill="none" stroke="#9a32cd" stroke-dasharray="5,2" d="M202.84,-97.05C240.11,-96.29 301.34,-95.8 354,-99 361.58,-99.46 369.49,-100.11 377.37,-100.87"/>
<polygon fill="#9a32cd" stroke="#9a32cd" points="202.46,-93.56 192.54,-97.28 202.62,-100.56 202.46,-93.56"/>
<text text-anchor="middle" x="308.5" y="-102" font-family="Helvetica,sans-Serif" font-size="10.00"> data</text>
</g>
</g>
</svg>
