<?xml version="1.0" encoding="UTF-8" standalone="no"?>
<!DOCTYPE svg PUBLIC "-//W3C//DTD SVG 1.1//EN"
 "http://www.w3.org/Graphics/SVG/1.1/DTD/svg11.dtd">
<!-- Generated by graphviz version 2.43.0 (0)
 -->
<!-- Title: FTensor::Dg_Expr&lt; Christof&lt; A, Tensor_Dim0, Tensor_Dim12 &gt;, T, Dim12, Dim0, i, j, k &gt; Pages: 1 -->
<svg width="256pt" height="317pt"
 viewBox="0.00 0.00 255.50 317.00" xmlns="http://www.w3.org/2000/svg" xmlns:xlink="http://www.w3.org/1999/xlink">
<g id="graph0" class="graph" transform="scale(1 1) rotate(0) translate(4 313)">
<title>FTensor::Dg_Expr&lt; Christof&lt; A, Tensor_Dim0, Tensor_Dim12 &gt;, T, Dim12, Dim0, i, j, k &gt;</title>
<polygon fill="white" stroke="transparent" points="-4,4 -4,-313 251.5,-313 251.5,4 -4,4"/>
<!-- Node1 -->
<g id="node1" class="node">
<title>Node1</title>
<g id="a_node1"><a xlink:title=" ">
<polygon fill="#bfbfbf" stroke="black" points="0,-0.5 0,-52.5 151,-52.5 151,-0.5 0,-0.5"/>
<text text-anchor="start" x="8" y="-40.5" font-family="Helvetica,sans-Serif" font-size="10.00">FTensor::Dg_Expr&lt; Christof</text>
<text text-anchor="start" x="8" y="-29.5" font-family="Helvetica,sans-Serif" font-size="10.00">&lt; A, Tensor_Dim0, Tensor</text>
<text text-anchor="start" x="8" y="-18.5" font-family="Helvetica,sans-Serif" font-size="10.00">_Dim12 &gt;, T, Dim12, Dim0,</text>
<text text-anchor="middle" x="75.5" y="-7.5" font-family="Helvetica,sans-Serif" font-size="10.00"> i, j, k &gt;</text>
</a>
</g>
</g>
<!-- Node2 -->
<g id="node2" class="node">
<title>Node2</title>
<g id="a_node2"><a xlink:href="classFTensor_1_1Christof.html" target="_top" xlink:title=" ">
<polygon fill="white" stroke="black" points="9,-100.5 9,-141.5 142,-141.5 142,-100.5 9,-100.5"/>
<text text-anchor="start" x="17" y="-129.5" font-family="Helvetica,sans-Serif" font-size="10.00">FTensor::Christof&lt;</text>
<text text-anchor="start" x="17" y="-118.5" font-family="Helvetica,sans-Serif" font-size="10.00"> A, Tensor_Dim0, Tensor</text>
<text text-anchor="middle" x="75.5" y="-107.5" font-family="Helvetica,sans-Serif" font-size="10.00">_Dim12 &gt;</text>
</a>
</g>
</g>
<!-- Node2&#45;&gt;Node1 -->
<g id="edge1" class="edge">
<title>Node2&#45;&gt;Node1</title>
<path fill="none" stroke="#9a32cd" stroke-dasharray="5,2" d="M75.5,-90.29C75.5,-78.18 75.5,-64.33 75.5,-52.72"/>
<polygon fill="#9a32cd" stroke="#9a32cd" points="72,-90.38 75.5,-100.38 79,-90.38 72,-90.38"/>
<text text-anchor="middle" x="85.5" y="-74" font-family="Helvetica,sans-Serif" font-size="10.00"> iter</text>
</g>
<!-- Node3 -->
<g id="node3" class="node">
<title>Node3</title>
<g id="a_node3"><a xlink:title=" ">
<polygon fill="white" stroke="#bfbfbf" points="37,-211.5 37,-230.5 66,-230.5 66,-211.5 37,-211.5"/>
<text text-anchor="middle" x="51.5" y="-218.5" font-family="Helvetica,sans-Serif" font-size="10.00">A</text>
</a>
</g>
</g>
<!-- Node3&#45;&gt;Node2 -->
<g id="edge2" class="edge">
<title>Node3&#45;&gt;Node2</title>
<path fill="none" stroke="#9a32cd" stroke-dasharray="5,2" d="M56.05,-201.4C60.24,-184.29 66.44,-159 70.7,-141.59"/>
<polygon fill="#9a32cd" stroke="#9a32cd" points="52.61,-200.76 53.63,-211.3 59.41,-202.42 52.61,-200.76"/>
<text text-anchor="middle" x="79" y="-168.5" font-family="Helvetica,sans-Serif" font-size="10.00"> data</text>
</g>
<!-- Node4 -->
<g id="node4" class="node">
<title>Node4</title>
<g id="a_node4"><a xlink:href="classFTensor_1_1Christof.html" target="_top" xlink:title=" ">
<polygon fill="white" stroke="black" points="84.5,-200.5 84.5,-241.5 216.5,-241.5 216.5,-200.5 84.5,-200.5"/>
<text text-anchor="start" x="92.5" y="-229.5" font-family="Helvetica,sans-Serif" font-size="10.00">FTensor::Christof&lt;</text>
<text text-anchor="start" x="92.5" y="-218.5" font-family="Helvetica,sans-Serif" font-size="10.00"> T, Tensor_Dim0, Tensor</text>
<text text-anchor="middle" x="150.5" y="-207.5" font-family="Helvetica,sans-Serif" font-size="10.00">_Dim12 &gt;</text>
</a>
</g>
</g>
<!-- Node4&#45;&gt;Node2 -->
<g id="edge3" class="edge">
<title>Node4&#45;&gt;Node2</title>
<path fill="none" stroke="orange" stroke-dasharray="5,2" d="M129.19,-192.16C116.9,-176.09 101.73,-156.27 90.65,-141.8"/>
<polygon fill="orange" stroke="orange" points="126.47,-194.35 135.32,-200.17 132.02,-190.1 126.47,-194.35"/>
<text text-anchor="start" x="119.5" y="-174" font-family="Helvetica,sans-Serif" font-size="10.00"> &lt; A, Tensor_Dim0, Tensor</text>
<text text-anchor="middle" x="183.5" y="-163" font-family="Helvetica,sans-Serif" font-size="10.00">_Dim12 &gt;</text>
</g>
<!-- Node5 -->
<g id="node5" class="node">
<title>Node5</title>
<g id="a_node5"><a xlink:title=" ">
<polygon fill="white" stroke="#bfbfbf" points="136,-289.5 136,-308.5 165,-308.5 165,-289.5 136,-289.5"/>
<text text-anchor="middle" x="150.5" y="-296.5" font-family="Helvetica,sans-Serif" font-size="10.00">T</text>
</a>
</g>
</g>
<!-- Node5&#45;&gt;Node4 -->
<g id="edge4" class="edge">
<title>Node5&#45;&gt;Node4</title>
<path fill="none" stroke="#9a32cd" stroke-dasharray="5,2" d="M150.5,-279.14C150.5,-267.73 150.5,-253.21 150.5,-241.66"/>
<polygon fill="#9a32cd" stroke="#9a32cd" points="147,-279.28 150.5,-289.28 154,-279.28 147,-279.28"/>
<text text-anchor="middle" x="163" y="-263" font-family="Helvetica,sans-Serif" font-size="10.00"> data</text>
</g>
</g>
</svg>
