<?xml version="1.0" encoding="UTF-8" standalone="no"?>
<!DOCTYPE svg PUBLIC "-//W3C//DTD SVG 1.1//EN"
 "http://www.w3.org/Graphics/SVG/1.1/DTD/svg11.dtd">
<!-- Generated by graphviz version 2.43.0 (0)
 -->
<!-- Title: FEMethod Pages: 1 -->
<svg width="517pt" height="772pt"
 viewBox="0.00 0.00 517.00 772.00" xmlns="http://www.w3.org/2000/svg" xmlns:xlink="http://www.w3.org/1999/xlink">
<g id="graph0" class="graph" transform="scale(1 1) rotate(0) translate(4 768)">
<title>FEMethod</title>
<polygon fill="white" stroke="transparent" points="-4,4 -4,-768 513,-768 513,4 -4,4"/>
<!-- Node1 -->
<g id="node1" class="node">
<title>Node1</title>
<g id="a_node1"><a xlink:title=" ">
<polygon fill="#bfbfbf" stroke="black" points="0,-372.5 0,-391.5 65,-391.5 65,-372.5 0,-372.5"/>
<text text-anchor="middle" x="32.5" y="-379.5" font-family="Helvetica,sans-Serif" font-size="10.00">FEMethod</text>
</a>
</g>
</g>
<!-- Node2 -->
<g id="node2" class="node">
<title>Node2</title>
<g id="a_node2"><a xlink:href="structBoneRemodeling_1_1MonitorPostProc.html" target="_top" xlink:title=" ">
<polygon fill="white" stroke="black" points="101,-744.5 101,-763.5 286,-763.5 286,-744.5 101,-744.5"/>
<text text-anchor="middle" x="193.5" y="-751.5" font-family="Helvetica,sans-Serif" font-size="10.00">BoneRemodeling::MonitorPostProc</text>
</a>
</g>
</g>
<!-- Node1&#45;&gt;Node2 -->
<g id="edge1" class="edge">
<title>Node1&#45;&gt;Node2</title>
<path fill="none" stroke="midnightblue" d="M34.47,-401.64C38.17,-468.68 53.73,-686.97 101,-735 104.64,-738.7 108.8,-741.77 113.3,-744.31"/>
<polygon fill="midnightblue" stroke="midnightblue" points="37.96,-401.39 33.94,-391.59 30.97,-401.76 37.96,-401.39"/>
</g>
<!-- Node3 -->
<g id="node3" class="node">
<title>Node3</title>
<g id="a_node3"><a xlink:href="structBoneRemodeling_1_1Remodeling_1_1FePrePostProcessLhs.html" target="_top" xlink:title="Not used at this stage. Could be used to do some calculations, before assembly of local elements.">
<polygon fill="white" stroke="black" points="111.5,-695 111.5,-725 275.5,-725 275.5,-695 111.5,-695"/>
<text text-anchor="start" x="119.5" y="-713" font-family="Helvetica,sans-Serif" font-size="10.00">BoneRemodeling::Remodeling</text>
<text text-anchor="middle" x="193.5" y="-702" font-family="Helvetica,sans-Serif" font-size="10.00">::FePrePostProcessLhs</text>
</a>
</g>
</g>
<!-- Node1&#45;&gt;Node3 -->
<g id="edge2" class="edge">
<title>Node1&#45;&gt;Node3</title>
<path fill="none" stroke="midnightblue" d="M35.25,-401.92C40.99,-462.79 61.2,-644.65 101,-686 104.3,-689.43 108.03,-692.39 112.05,-694.95"/>
<polygon fill="midnightblue" stroke="midnightblue" points="38.71,-401.37 34.32,-391.73 31.74,-402.01 38.71,-401.37"/>
</g>
<!-- Node4 -->
<g id="node4" class="node">
<title>Node4</title>
<g id="a_node4"><a xlink:href="structBoneRemodeling_1_1Remodeling_1_1FePrePostProcessRhs.html" target="_top" xlink:title="Not used at this stage. Could be used to do some calculations, before assembly of local elements.">
<polygon fill="white" stroke="black" points="111.5,-646 111.5,-676 275.5,-676 275.5,-646 111.5,-646"/>
<text text-anchor="start" x="119.5" y="-664" font-family="Helvetica,sans-Serif" font-size="10.00">BoneRemodeling::Remodeling</text>
<text text-anchor="middle" x="193.5" y="-653" font-family="Helvetica,sans-Serif" font-size="10.00">::FePrePostProcessRhs</text>
</a>
</g>
</g>
<!-- Node1&#45;&gt;Node4 -->
<g id="edge3" class="edge">
<title>Node1&#45;&gt;Node4</title>
<path fill="none" stroke="midnightblue" d="M36.1,-401.47C43.65,-455.11 67.18,-603.25 101,-637 104.37,-640.36 108.15,-643.27 112.21,-645.79"/>
<polygon fill="midnightblue" stroke="midnightblue" points="39.56,-400.97 34.74,-391.54 32.63,-401.92 39.56,-400.97"/>
</g>
<!-- Node5 -->
<g id="node5" class="node">
<title>Node5</title>
<g id="a_node5"><a xlink:href="structCohesiveElement_1_1ArcLengthIntElemFEMethod.html" target="_top" xlink:title=" ">
<polygon fill="white" stroke="black" points="115,-597 115,-627 272,-627 272,-597 115,-597"/>
<text text-anchor="start" x="123" y="-615" font-family="Helvetica,sans-Serif" font-size="10.00">CohesiveElement::ArcLength</text>
<text text-anchor="middle" x="193.5" y="-604" font-family="Helvetica,sans-Serif" font-size="10.00">IntElemFEMethod</text>
</a>
</g>
</g>
<!-- Node1&#45;&gt;Node5 -->
<g id="edge4" class="edge">
<title>Node1&#45;&gt;Node5</title>
<path fill="none" stroke="midnightblue" d="M34.09,-401.84C36.41,-442.62 47.61,-536.29 101,-587 105.06,-590.86 109.65,-594.13 114.57,-596.91"/>
<polygon fill="midnightblue" stroke="midnightblue" points="37.59,-401.66 33.64,-391.82 30.59,-401.97 37.59,-401.66"/>
</g>
<!-- Node7 -->
<g id="node7" class="node">
<title>Node7</title>
<g id="a_node7"><a xlink:href="structContactOps_1_1Monitor.html" target="_top" xlink:title=" ">
<polygon fill="white" stroke="black" points="135.5,-558.5 135.5,-577.5 251.5,-577.5 251.5,-558.5 135.5,-558.5"/>
<text text-anchor="middle" x="193.5" y="-565.5" font-family="Helvetica,sans-Serif" font-size="10.00">ContactOps::Monitor</text>
</a>
</g>
</g>
<!-- Node1&#45;&gt;Node7 -->
<g id="edge6" class="edge">
<title>Node1&#45;&gt;Node7</title>
<path fill="none" stroke="midnightblue" d="M35.52,-401.76C40.24,-437.07 55.3,-510.84 101,-549 110.71,-557.11 123,-562.04 135.4,-564.98"/>
<polygon fill="midnightblue" stroke="midnightblue" points="38.99,-401.26 34.33,-391.75 32.04,-402.09 38.99,-401.26"/>
</g>
<!-- Node8 -->
<g id="node8" class="node">
<title>Node8</title>
<g id="a_node8"><a xlink:href="structConvectiveMassElement_1_1ShellResidualElement.html" target="_top" xlink:title=" ">
<polygon fill="white" stroke="black" points="125,-509 125,-539 262,-539 262,-509 125,-509"/>
<text text-anchor="start" x="133" y="-527" font-family="Helvetica,sans-Serif" font-size="10.00">ConvectiveMassElement</text>
<text text-anchor="middle" x="193.5" y="-516" font-family="Helvetica,sans-Serif" font-size="10.00">::ShellResidualElement</text>
</a>
</g>
</g>
<!-- Node1&#45;&gt;Node8 -->
<g id="edge7" class="edge">
<title>Node1&#45;&gt;Node8</title>
<path fill="none" stroke="midnightblue" d="M39.26,-401.28C48.15,-427.62 67.74,-474.51 101,-500 108.04,-505.39 116.18,-509.58 124.64,-512.83"/>
<polygon fill="midnightblue" stroke="midnightblue" points="42.57,-400.13 36.19,-391.67 35.9,-402.26 42.57,-400.13"/>
</g>
<!-- Node9 -->
<g id="node9" class="node">
<title>Node9</title>
<g id="a_node9"><a xlink:href="structConvectiveMassElement_1_1UpdateAndControl.html" target="_top" xlink:title="Set fields DOT_.">
<polygon fill="white" stroke="black" points="125,-460 125,-490 262,-490 262,-460 125,-460"/>
<text text-anchor="start" x="133" y="-478" font-family="Helvetica,sans-Serif" font-size="10.00">ConvectiveMassElement</text>
<text text-anchor="middle" x="193.5" y="-467" font-family="Helvetica,sans-Serif" font-size="10.00">::UpdateAndControl</text>
</a>
</g>
</g>
<!-- Node1&#45;&gt;Node9 -->
<g id="edge8" class="edge">
<title>Node1&#45;&gt;Node9</title>
<path fill="none" stroke="midnightblue" d="M47.02,-400.2C59.42,-415.64 79.14,-437.25 101,-450 108.4,-454.31 116.56,-457.91 124.88,-460.89"/>
<polygon fill="midnightblue" stroke="midnightblue" points="49.5,-397.69 40.6,-391.94 43.97,-401.98 49.5,-397.69"/>
</g>
<!-- Node10 -->
<g id="node10" class="node">
<title>Node10</title>
<g id="a_node10"><a xlink:href="structEshelbianMonitor.html" target="_top" xlink:title=" ">
<polygon fill="white" stroke="black" points="143,-421.5 143,-440.5 244,-440.5 244,-421.5 143,-421.5"/>
<text text-anchor="middle" x="193.5" y="-428.5" font-family="Helvetica,sans-Serif" font-size="10.00">EshelbianMonitor</text>
</a>
</g>
</g>
<!-- Node1&#45;&gt;Node10 -->
<g id="edge9" class="edge">
<title>Node1&#45;&gt;Node10</title>
<path fill="none" stroke="midnightblue" d="M61.07,-395.85C73.1,-401.48 87.52,-407.66 101,-412 114.28,-416.28 128.97,-419.82 142.61,-422.65"/>
<polygon fill="midnightblue" stroke="midnightblue" points="62.52,-392.67 51.99,-391.51 59.5,-398.98 62.52,-392.67"/>
</g>
<!-- Node11 -->
<g id="node11" class="node">
<title>Node11</title>
<g id="a_node11"><a xlink:href="structFractureMechanics_1_1CrackPropagation_1_1BothSurfaceConstrains.html" target="_top" xlink:title="Constrains material displacement on both sides.">
<polygon fill="white" stroke="black" points="109.5,-361.5 109.5,-402.5 277.5,-402.5 277.5,-361.5 109.5,-361.5"/>
<text text-anchor="start" x="117.5" y="-390.5" font-family="Helvetica,sans-Serif" font-size="10.00">FractureMechanics::</text>
<text text-anchor="start" x="117.5" y="-379.5" font-family="Helvetica,sans-Serif" font-size="10.00">CrackPropagation::BothSurface</text>
<text text-anchor="middle" x="193.5" y="-368.5" font-family="Helvetica,sans-Serif" font-size="10.00">Constrains</text>
</a>
</g>
</g>
<!-- Node1&#45;&gt;Node11 -->
<g id="edge10" class="edge">
<title>Node1&#45;&gt;Node11</title>
<path fill="none" stroke="midnightblue" d="M75.4,-382C85.93,-382 97.6,-382 109.38,-382"/>
<polygon fill="midnightblue" stroke="midnightblue" points="75.29,-378.5 65.29,-382 75.29,-385.5 75.29,-378.5"/>
</g>
<!-- Node12 -->
<g id="node12" class="node">
<title>Node12</title>
<g id="a_node12"><a xlink:href="structFractureMechanics_1_1GriffithForceElement_1_1FrontArcLengthControl.html" target="_top" xlink:title="arc&#45;length element">
<polygon fill="white" stroke="black" points="128,-301.5 128,-342.5 259,-342.5 259,-301.5 128,-301.5"/>
<text text-anchor="start" x="136" y="-330.5" font-family="Helvetica,sans-Serif" font-size="10.00">FractureMechanics::</text>
<text text-anchor="start" x="136" y="-319.5" font-family="Helvetica,sans-Serif" font-size="10.00">GriffithForceElement</text>
<text text-anchor="middle" x="193.5" y="-308.5" font-family="Helvetica,sans-Serif" font-size="10.00">::FrontArcLengthControl</text>
</a>
</g>
</g>
<!-- Node1&#45;&gt;Node12 -->
<g id="edge11" class="edge">
<title>Node1&#45;&gt;Node12</title>
<path fill="none" stroke="midnightblue" d="M62.98,-368.12C74.7,-362.81 88.38,-356.86 101,-352 109.58,-348.7 118.7,-345.43 127.72,-342.33"/>
<polygon fill="midnightblue" stroke="midnightblue" points="61.29,-365.05 53.66,-372.4 64.2,-371.41 61.29,-365.05"/>
</g>
<!-- Node13 -->
<g id="node13" class="node">
<title>Node13</title>
<g id="a_node13"><a xlink:href="structObosleteUsersModules_1_1ConstrainConstantAarea.html" target="_top" xlink:title=" ">
<polygon fill="white" stroke="black" points="123,-252 123,-282 264,-282 264,-252 123,-252"/>
<text text-anchor="start" x="131" y="-270" font-family="Helvetica,sans-Serif" font-size="10.00">ObosleteUsersModules</text>
<text text-anchor="middle" x="193.5" y="-259" font-family="Helvetica,sans-Serif" font-size="10.00">::ConstrainConstantAarea</text>
</a>
</g>
</g>
<!-- Node1&#45;&gt;Node13 -->
<g id="edge12" class="edge">
<title>Node1&#45;&gt;Node13</title>
<path fill="none" stroke="midnightblue" d="M42.58,-363.47C53.59,-342.94 74.07,-310.31 101,-292 107.67,-287.46 115.14,-283.75 122.86,-280.71"/>
<polygon fill="midnightblue" stroke="midnightblue" points="39.41,-361.98 37.95,-372.47 45.64,-365.18 39.41,-361.98"/>
</g>
<!-- Node15 -->
<g id="node15" class="node">
<title>Node15</title>
<g id="a_node15"><a xlink:href="structPlasticOps_1_1Monitor.html" target="_top" xlink:title=" ">
<polygon fill="white" stroke="black" points="138,-213.5 138,-232.5 249,-232.5 249,-213.5 138,-213.5"/>
<text text-anchor="middle" x="193.5" y="-220.5" font-family="Helvetica,sans-Serif" font-size="10.00">PlasticOps::Monitor</text>
</a>
</g>
</g>
<!-- Node1&#45;&gt;Node15 -->
<g id="edge14" class="edge">
<title>Node1&#45;&gt;Node15</title>
<path fill="none" stroke="midnightblue" d="M37.19,-362.44C44.05,-331.75 61.8,-272.62 101,-242 111.48,-233.81 124.64,-228.92 137.68,-226.05"/>
<polygon fill="midnightblue" stroke="midnightblue" points="33.74,-361.85 35.13,-372.36 40.59,-363.27 33.74,-361.85"/>
</g>
<!-- Node16 -->
<g id="node16" class="node">
<title>Node16</title>
<g id="a_node16"><a xlink:href="structSimpleArcLengthControl.html" target="_top" xlink:title=" ">
<polygon fill="white" stroke="black" points="126.5,-175.5 126.5,-194.5 260.5,-194.5 260.5,-175.5 126.5,-175.5"/>
<text text-anchor="middle" x="193.5" y="-182.5" font-family="Helvetica,sans-Serif" font-size="10.00">SimpleArcLengthControl</text>
</a>
</g>
</g>
<!-- Node1&#45;&gt;Node16 -->
<g id="edge15" class="edge">
<title>Node1&#45;&gt;Node16</title>
<path fill="none" stroke="midnightblue" d="M34.94,-362.51C38.75,-325.58 52.48,-245.42 101,-204 108.28,-197.79 117.07,-193.43 126.27,-190.4"/>
<polygon fill="midnightblue" stroke="midnightblue" points="31.45,-362.22 34.04,-372.49 38.42,-362.84 31.45,-362.22"/>
</g>
<!-- Node17 -->
<g id="node17" class="node">
<title>Node17</title>
<g id="a_node17"><a xlink:href="structSphericalArcLengthControl.html" target="_top" xlink:title="Implementation of spherical arc&#45;length method.">
<polygon fill="white" stroke="black" points="120.5,-137.5 120.5,-156.5 266.5,-156.5 266.5,-137.5 120.5,-137.5"/>
<text text-anchor="middle" x="193.5" y="-144.5" font-family="Helvetica,sans-Serif" font-size="10.00">SphericalArcLengthControl</text>
</a>
</g>
</g>
<!-- Node1&#45;&gt;Node17 -->
<g id="edge16" class="edge">
<title>Node1&#45;&gt;Node17</title>
<path fill="none" stroke="midnightblue" d="M33.44,-362.31C34.44,-319.67 43.14,-218.45 101,-166 106.65,-160.88 113.31,-157 120.42,-154.07"/>
<polygon fill="midnightblue" stroke="midnightblue" points="29.94,-362.44 33.32,-372.47 36.93,-362.51 29.94,-362.44"/>
</g>
<!-- Node18 -->
<g id="node18" class="node">
<title>Node18</title>
<g id="a_node18"><a xlink:href="structThermalElement_1_1TimeSeriesMonitor.html" target="_top" xlink:title="TS monitore it records temperature at time steps.">
<polygon fill="white" stroke="black" points="114.5,-88 114.5,-118 272.5,-118 272.5,-88 114.5,-88"/>
<text text-anchor="start" x="122.5" y="-106" font-family="Helvetica,sans-Serif" font-size="10.00">ThermalElement::TimeSeries</text>
<text text-anchor="middle" x="193.5" y="-95" font-family="Helvetica,sans-Serif" font-size="10.00">Monitor</text>
</a>
</g>
</g>
<!-- Node1&#45;&gt;Node18 -->
<g id="edge17" class="edge">
<title>Node1&#45;&gt;Node18</title>
<path fill="none" stroke="midnightblue" d="M36.18,-362.26C43.86,-308.58 67.53,-161.7 101,-128 104.95,-124.03 109.46,-120.67 114.31,-117.83"/>
<polygon fill="midnightblue" stroke="midnightblue" points="32.71,-361.84 34.79,-372.23 39.64,-362.81 32.71,-361.84"/>
</g>
<!-- Node19 -->
<g id="node19" class="node">
<title>Node19</title>
<g id="a_node19"><a xlink:href="structThermalElement_1_1UpdateAndControl.html" target="_top" xlink:title="this calass is to control time stepping">
<polygon fill="white" stroke="black" points="114.5,-39 114.5,-69 272.5,-69 272.5,-39 114.5,-39"/>
<text text-anchor="start" x="122.5" y="-57" font-family="Helvetica,sans-Serif" font-size="10.00">ThermalElement::UpdateAnd</text>
<text text-anchor="middle" x="193.5" y="-46" font-family="Helvetica,sans-Serif" font-size="10.00">Control</text>
</a>
</g>
</g>
<!-- Node1&#45;&gt;Node19 -->
<g id="edge18" class="edge">
<title>Node1&#45;&gt;Node19</title>
<path fill="none" stroke="midnightblue" d="M35.25,-362.08C40.99,-301.21 61.2,-119.35 101,-78 104.87,-73.98 109.33,-70.6 114.15,-67.77"/>
<polygon fill="midnightblue" stroke="midnightblue" points="31.74,-361.99 34.32,-372.27 38.71,-362.63 31.74,-361.99"/>
</g>
<!-- Node20 -->
<g id="node20" class="node">
<title>Node20</title>
<g id="a_node20"><a xlink:href="structZeroFLmabda.html" target="_top" xlink:title="Zero F_lambda.">
<polygon fill="white" stroke="black" points="151.5,-0.5 151.5,-19.5 235.5,-19.5 235.5,-0.5 151.5,-0.5"/>
<text text-anchor="middle" x="193.5" y="-7.5" font-family="Helvetica,sans-Serif" font-size="10.00">ZeroFLmabda</text>
</a>
</g>
</g>
<!-- Node1&#45;&gt;Node20 -->
<g id="edge19" class="edge">
<title>Node1&#45;&gt;Node20</title>
<path fill="none" stroke="midnightblue" d="M34.47,-362.36C38.17,-295.32 53.73,-77.03 101,-29 113.97,-15.82 133.54,-10.61 151.25,-8.89"/>
<polygon fill="midnightblue" stroke="midnightblue" points="30.97,-362.24 33.94,-372.41 37.96,-362.61 30.97,-362.24"/>
</g>
<!-- Node6 -->
<g id="node6" class="node">
<title>Node6</title>
<g id="a_node6"><a xlink:href="structCohesiveElement_1_1ArcLengthElement.html" target="_top" xlink:title=" ">
<polygon fill="white" stroke="black" points="337,-597 337,-627 494,-627 494,-597 337,-597"/>
<text text-anchor="start" x="345" y="-615" font-family="Helvetica,sans-Serif" font-size="10.00">CohesiveElement::ArcLength</text>
<text text-anchor="middle" x="415.5" y="-604" font-family="Helvetica,sans-Serif" font-size="10.00">Element</text>
</a>
</g>
</g>
<!-- Node5&#45;&gt;Node6 -->
<g id="edge5" class="edge">
<title>Node5&#45;&gt;Node6</title>
<path fill="none" stroke="midnightblue" d="M282.29,-612C300.34,-612 319.23,-612 336.9,-612"/>
<polygon fill="midnightblue" stroke="midnightblue" points="282.06,-608.5 272.06,-612 282.06,-615.5 282.06,-608.5"/>
</g>
<!-- Node14 -->
<g id="node14" class="node">
<title>Node14</title>
<g id="a_node14"><a xlink:href="structObosleteUsersModules_1_1TangentWithMeshSmoothingFrontConstrain.html" target="_top" xlink:title=" ">
<polygon fill="white" stroke="black" points="322,-246.5 322,-287.5 509,-287.5 509,-246.5 322,-246.5"/>
<text text-anchor="start" x="330" y="-275.5" font-family="Helvetica,sans-Serif" font-size="10.00">ObosleteUsersModules</text>
<text text-anchor="start" x="330" y="-264.5" font-family="Helvetica,sans-Serif" font-size="10.00">::TangentWithMeshSmoothingFront</text>
<text text-anchor="middle" x="415.5" y="-253.5" font-family="Helvetica,sans-Serif" font-size="10.00">Constrain</text>
</a>
</g>
</g>
<!-- Node13&#45;&gt;Node14 -->
<g id="edge13" class="edge">
<title>Node13&#45;&gt;Node14</title>
<path fill="none" stroke="midnightblue" d="M274.17,-267C289.7,-267 306.1,-267 322,-267"/>
<polygon fill="midnightblue" stroke="midnightblue" points="274.11,-263.5 264.11,-267 274.11,-270.5 274.11,-263.5"/>
</g>
</g>
</svg>
