<?xml version="1.0" encoding="UTF-8" standalone="no"?>
<!DOCTYPE svg PUBLIC "-//W3C//DTD SVG 1.1//EN"
 "http://www.w3.org/Graphics/SVG/1.1/DTD/svg11.dtd">
<!-- Generated by graphviz version 9.0.0 (20230911.1827)
 -->
<!-- Title: DomainEleOp Pages: 1 -->
<svg width="234pt" height="83pt"
 viewBox="0.00 0.00 234.12 82.50" xmlns="http://www.w3.org/2000/svg" xmlns:xlink="http://www.w3.org/1999/xlink">
<g id="graph0" class="graph" transform="scale(1 1) rotate(0) translate(4 78.5)">
<title>DomainEleOp</title>
<!-- Node1 -->
<g id="node1" class="node">
<title>Node1</title>
<g id="a_node1"><a xlink:title=" ">
<polygon fill="#999999" stroke="#666666" points="158,-74.5 81.25,-74.5 81.25,-55.25 158,-55.25 158,-74.5"/>
<text text-anchor="middle" x="119.62" y="-61" font-family="Helvetica,sans-Serif" font-size="10.00">DomainEleOp</text>
</a>
</g>
</g>
<!-- Node2 -->
<g id="node2" class="node">
<title>Node2</title>
<g id="a_node2"><a xlink:href="struct_example_1_1_op_error_3_011_01_4.html" target="_top" xlink:title=" ">
<polygon fill="white" stroke="#666666" points="117.25,-19.25 0,-19.25 0,0 117.25,0 117.25,-19.25"/>
<text text-anchor="middle" x="58.62" y="-5.75" font-family="Helvetica,sans-Serif" font-size="10.00">Example::OpError&lt; 1 &gt;</text>
</a>
</g>
</g>
<!-- Node1&#45;&gt;Node2 -->
<g id="edge1" class="edge">
<title>Node1&#45;&gt;Node2</title>
<path fill="none" stroke="#63b8ff" d="M100.74,-47.39C90.2,-38.19 77.5,-27.1 68.82,-19.52"/>
<polygon fill="#63b8ff" stroke="#63b8ff" points="98.3,-49.91 108.14,-53.85 102.91,-44.63 98.3,-49.91"/>
</g>
<!-- Node3 -->
<g id="node3" class="node">
<title>Node3</title>
<g id="a_node3"><a xlink:href="struct_example_1_1_op_rhs.html" target="_top" xlink:title=" ">
<polygon fill="white" stroke="#666666" points="226.12,-19.25 135.12,-19.25 135.12,0 226.12,0 226.12,-19.25"/>
<text text-anchor="middle" x="180.62" y="-5.75" font-family="Helvetica,sans-Serif" font-size="10.00">Example::OpRhs</text>
</a>
</g>
</g>
<!-- Node1&#45;&gt;Node3 -->
<g id="edge2" class="edge">
<title>Node1&#45;&gt;Node3</title>
<path fill="none" stroke="#63b8ff" d="M138.51,-47.39C149.05,-38.19 161.75,-27.1 170.43,-19.52"/>
<polygon fill="#63b8ff" stroke="#63b8ff" points="136.34,-44.63 131.11,-53.85 140.95,-49.91 136.34,-44.63"/>
</g>
</g>
</svg>
