<?xml version="1.0" encoding="UTF-8" standalone="no"?>
<!DOCTYPE svg PUBLIC "-//W3C//DTD SVG 1.1//EN"
 "http://www.w3.org/Graphics/SVG/1.1/DTD/svg11.dtd">
<!-- Generated by graphviz version 2.43.0 (0)
 -->
<!-- Title: FTensor::Riemann_Expr&lt; A, T, Dim, i, j, k, l &gt; Pages: 1 -->
<svg width="155pt" height="128pt"
 viewBox="0.00 0.00 155.00 128.00" xmlns="http://www.w3.org/2000/svg" xmlns:xlink="http://www.w3.org/1999/xlink">
<g id="graph0" class="graph" transform="scale(1 1) rotate(0) translate(4 124)">
<title>FTensor::Riemann_Expr&lt; A, T, Dim, i, j, k, l &gt;</title>
<polygon fill="white" stroke="transparent" points="-4,4 -4,-124 151,-124 151,4 -4,4"/>
<!-- Node1 -->
<g id="node1" class="node">
<title>Node1</title>
<g id="a_node1"><a xlink:title=" ">
<polygon fill="#bfbfbf" stroke="black" points="0,-89.5 0,-119.5 130,-119.5 130,-89.5 0,-89.5"/>
<text text-anchor="start" x="8" y="-107.5" font-family="Helvetica,sans-Serif" font-size="10.00">FTensor::Riemann_Expr</text>
<text text-anchor="middle" x="65" y="-96.5" font-family="Helvetica,sans-Serif" font-size="10.00">&lt; A, T, Dim, i, j, k, l &gt;</text>
</a>
</g>
</g>
<!-- Node2 -->
<g id="node2" class="node">
<title>Node2</title>
<g id="a_node2"><a xlink:href="classFTensor_1_1Riemann__Expr.html" target="_top" xlink:title=" ">
<polygon fill="white" stroke="black" points="0,-0.5 0,-30.5 130,-30.5 130,-0.5 0,-0.5"/>
<text text-anchor="start" x="8" y="-18.5" font-family="Helvetica,sans-Serif" font-size="10.00">FTensor::Riemann_Expr</text>
<text text-anchor="middle" x="65" y="-7.5" font-family="Helvetica,sans-Serif" font-size="10.00">&lt; B, U, Dim, i, j, k, l &gt;</text>
</a>
</g>
</g>
<!-- Node1&#45;&gt;Node2 -->
<g id="edge1" class="edge">
<title>Node1&#45;&gt;Node2</title>
<path fill="none" stroke="orange" stroke-dasharray="5,2" d="M65,-79.09C65,-63.44 65,-43.68 65,-30.6"/>
<polygon fill="orange" stroke="orange" points="61.5,-79.13 65,-89.13 68.5,-79.13 61.5,-79.13"/>
<text text-anchor="start" x="65" y="-63" font-family="Helvetica,sans-Serif" font-size="10.00"> &lt; B, U, Dim, i, j,</text>
<text text-anchor="middle" x="106" y="-52" font-family="Helvetica,sans-Serif" font-size="10.00"> k, l &gt;</text>
</g>
</g>
</svg>
