<?xml version="1.0" encoding="UTF-8" standalone="no"?>
<!DOCTYPE svg PUBLIC "-//W3C//DTD SVG 1.1//EN"
 "http://www.w3.org/Graphics/SVG/1.1/DTD/svg11.dtd">
<!-- Generated by graphviz version 2.43.0 (0)
 -->
<!-- Title: FTensor::Tensor2_carat_Tensor2&lt; A, B, T, U, Dim, Dim1, Dim, Dim1, i, j, k, j &gt; Pages: 1 -->
<svg width="702pt" height="135pt"
 viewBox="0.00 0.00 702.00 135.00" xmlns="http://www.w3.org/2000/svg" xmlns:xlink="http://www.w3.org/1999/xlink">
<g id="graph0" class="graph" transform="scale(1 1) rotate(0) translate(4 131)">
<title>FTensor::Tensor2_carat_Tensor2&lt; A, B, T, U, Dim, Dim1, Dim, Dim1, i, j, k, j &gt;</title>
<polygon fill="white" stroke="transparent" points="-4,4 -4,-131 698,-131 698,4 -4,4"/>
<!-- Node1 -->
<g id="node1" class="node">
<title>Node1</title>
<g id="a_node1"><a xlink:title=" ">
<polygon fill="#bfbfbf" stroke="black" points="560,-23 560,-75 694,-75 694,-23 560,-23"/>
<text text-anchor="start" x="568" y="-63" font-family="Helvetica,sans-Serif" font-size="10.00">FTensor::Tensor2_carat</text>
<text text-anchor="start" x="568" y="-52" font-family="Helvetica,sans-Serif" font-size="10.00">_Tensor2&lt; A, B, T, U,</text>
<text text-anchor="start" x="568" y="-41" font-family="Helvetica,sans-Serif" font-size="10.00"> Dim, Dim1, Dim, Dim1,</text>
<text text-anchor="middle" x="627" y="-30" font-family="Helvetica,sans-Serif" font-size="10.00"> i, j, k, j &gt;</text>
</a>
</g>
</g>
<!-- Node2 -->
<g id="node2" class="node">
<title>Node2</title>
<g id="a_node2"><a xlink:href="classFTensor_1_1Tensor2__Expr.html" target="_top" xlink:title=" ">
<polygon fill="white" stroke="black" points="358,-59 358,-89 497,-89 497,-59 358,-59"/>
<text text-anchor="start" x="366" y="-77" font-family="Helvetica,sans-Serif" font-size="10.00">FTensor::Tensor2_Expr</text>
<text text-anchor="middle" x="427.5" y="-66" font-family="Helvetica,sans-Serif" font-size="10.00">&lt; B, U, Dim, Dim1, k, j &gt;</text>
</a>
</g>
</g>
<!-- Node2&#45;&gt;Node1 -->
<g id="edge1" class="edge">
<title>Node2&#45;&gt;Node1</title>
<path fill="none" stroke="#9a32cd" stroke-dasharray="5,2" d="M507.19,-64.04C524.67,-61.83 543.02,-59.5 559.93,-57.36"/>
<polygon fill="#9a32cd" stroke="#9a32cd" points="506.5,-60.6 497.02,-65.33 507.38,-67.54 506.5,-60.6"/>
<text text-anchor="middle" x="528.5" y="-65" font-family="Helvetica,sans-Serif" font-size="10.00"> iterB</text>
</g>
<!-- Node3 -->
<g id="node3" class="node">
<title>Node3</title>
<g id="a_node3"><a xlink:title=" ">
<polygon fill="white" stroke="#bfbfbf" points="140.5,-107.5 140.5,-126.5 169.5,-126.5 169.5,-107.5 140.5,-107.5"/>
<text text-anchor="middle" x="155" y="-114.5" font-family="Helvetica,sans-Serif" font-size="10.00">B</text>
</a>
</g>
</g>
<!-- Node3&#45;&gt;Node2 -->
<g id="edge2" class="edge">
<title>Node3&#45;&gt;Node2</title>
<path fill="none" stroke="#9a32cd" stroke-dasharray="5,2" d="M180.08,-113.24C215.23,-107.74 282.66,-97.16 340,-88 345.71,-87.09 351.63,-86.14 357.57,-85.18"/>
<polygon fill="#9a32cd" stroke="#9a32cd" points="179.19,-109.83 169.85,-114.84 180.27,-116.75 179.19,-109.83"/>
<text text-anchor="middle" x="291.5" y="-106" font-family="Helvetica,sans-Serif" font-size="10.00"> iter</text>
</g>
<!-- Node4 -->
<g id="node4" class="node">
<title>Node4</title>
<g id="a_node4"><a xlink:href="classFTensor_1_1Tensor2__Expr.html" target="_top" xlink:title=" ">
<polygon fill="white" stroke="black" points="85,-24 85,-54 225,-54 225,-24 85,-24"/>
<text text-anchor="start" x="93" y="-42" font-family="Helvetica,sans-Serif" font-size="10.00">FTensor::Tensor2_Expr</text>
<text text-anchor="middle" x="155" y="-31" font-family="Helvetica,sans-Serif" font-size="10.00">&lt; A, T, Dim0, Dim1, i, j &gt;</text>
</a>
</g>
</g>
<!-- Node4&#45;&gt;Node2 -->
<g id="edge3" class="edge">
<title>Node4&#45;&gt;Node2</title>
<path fill="none" stroke="orange" stroke-dasharray="5,2" d="M235.53,-49.29C274.34,-54.31 320.58,-60.3 357.84,-65.12"/>
<polygon fill="orange" stroke="orange" points="235.68,-45.78 225.31,-47.97 234.78,-52.72 235.68,-45.78"/>
<text text-anchor="start" x="243" y="-76" font-family="Helvetica,sans-Serif" font-size="10.00"> &lt; B, U, Dim, Dim1,</text>
<text text-anchor="middle" x="291.5" y="-65" font-family="Helvetica,sans-Serif" font-size="10.00"> k, j &gt;</text>
</g>
<!-- Node6 -->
<g id="node6" class="node">
<title>Node6</title>
<g id="a_node6"><a xlink:href="classFTensor_1_1Tensor2__Expr.html" target="_top" xlink:title=" ">
<polygon fill="white" stroke="black" points="360.5,-10 360.5,-40 494.5,-40 494.5,-10 360.5,-10"/>
<text text-anchor="start" x="368.5" y="-28" font-family="Helvetica,sans-Serif" font-size="10.00">FTensor::Tensor2_Expr</text>
<text text-anchor="middle" x="427.5" y="-17" font-family="Helvetica,sans-Serif" font-size="10.00">&lt; A, T, Dim, Dim1, i, j &gt;</text>
</a>
</g>
</g>
<!-- Node4&#45;&gt;Node6 -->
<g id="edge7" class="edge">
<title>Node4&#45;&gt;Node6</title>
<path fill="none" stroke="orange" stroke-dasharray="5,2" d="M235.32,-28.6C237.91,-28.38 240.48,-28.18 243,-28 281.77,-25.24 325.27,-24.43 360.17,-24.34"/>
<polygon fill="orange" stroke="orange" points="234.89,-25.13 225.26,-29.55 235.55,-32.1 234.89,-25.13"/>
<text text-anchor="start" x="244" y="-42" font-family="Helvetica,sans-Serif" font-size="10.00"> &lt; A, T, Dim, Dim1,</text>
<text text-anchor="middle" x="291.5" y="-31" font-family="Helvetica,sans-Serif" font-size="10.00"> i, j &gt;</text>
</g>
<!-- Node5 -->
<g id="node5" class="node">
<title>Node5</title>
<g id="a_node5"><a xlink:title=" ">
<polygon fill="white" stroke="#bfbfbf" points="0,-0.5 0,-19.5 29,-19.5 29,-0.5 0,-0.5"/>
<text text-anchor="middle" x="14.5" y="-7.5" font-family="Helvetica,sans-Serif" font-size="10.00">A</text>
</a>
</g>
</g>
<!-- Node5&#45;&gt;Node4 -->
<g id="edge4" class="edge">
<title>Node5&#45;&gt;Node4</title>
<path fill="none" stroke="#9a32cd" stroke-dasharray="5,2" d="M39.19,-14.96C51.95,-17.63 68.41,-21.08 84.87,-24.53"/>
<polygon fill="#9a32cd" stroke="#9a32cd" points="39.54,-11.46 29.03,-12.83 38.1,-18.31 39.54,-11.46"/>
<text text-anchor="middle" x="57" y="-23" font-family="Helvetica,sans-Serif" font-size="10.00"> iter</text>
</g>
<!-- Node5&#45;&gt;Node6 -->
<g id="edge6" class="edge">
<title>Node5&#45;&gt;Node6</title>
<path fill="none" stroke="#9a32cd" stroke-dasharray="5,2" d="M39.34,-7.43C52.74,-6.12 69.78,-4.66 85,-4 147.16,-1.32 162.86,-0.77 225,-4 270.31,-6.35 321.12,-11.67 360.38,-16.36"/>
<polygon fill="#9a32cd" stroke="#9a32cd" points="38.65,-3.98 29.06,-8.48 39.37,-10.95 38.65,-3.98"/>
<text text-anchor="middle" x="155" y="-7" font-family="Helvetica,sans-Serif" font-size="10.00"> iter</text>
</g>
<!-- Node6&#45;&gt;Node1 -->
<g id="edge5" class="edge">
<title>Node6&#45;&gt;Node1</title>
<path fill="none" stroke="#9a32cd" stroke-dasharray="5,2" d="M504.53,-32.65C517.05,-34.02 529.9,-35.5 542,-37 547.7,-37.71 553.62,-38.48 559.54,-39.28"/>
<polygon fill="#9a32cd" stroke="#9a32cd" points="504.88,-29.17 494.57,-31.57 504.13,-36.13 504.88,-29.17"/>
<text text-anchor="middle" x="528.5" y="-40" font-family="Helvetica,sans-Serif" font-size="10.00"> iterA</text>
</g>
</g>
</svg>
