<?xml version="1.0" encoding="UTF-8" standalone="no"?>
<!DOCTYPE svg PUBLIC "-//W3C//DTD SVG 1.1//EN"
 "http://www.w3.org/Graphics/SVG/1.1/DTD/svg11.dtd">
<!-- Generated by graphviz version 2.43.0 (0)
 -->
<!-- Title: FTensor::Tensor2_or_Tensor2&lt; A, B, T, U, Dim, Dim, Dim, Dim, i, j, i, j &gt; Pages: 1 -->
<svg width="701pt" height="113pt"
 viewBox="0.00 0.00 701.00 113.00" xmlns="http://www.w3.org/2000/svg" xmlns:xlink="http://www.w3.org/1999/xlink">
<g id="graph0" class="graph" transform="scale(1 1) rotate(0) translate(4 109)">
<title>FTensor::Tensor2_or_Tensor2&lt; A, B, T, U, Dim, Dim, Dim, Dim, i, j, i, j &gt;</title>
<polygon fill="white" stroke="transparent" points="-4,4 -4,-109 697,-109 697,4 -4,4"/>
<!-- Node1 -->
<g id="node1" class="node">
<title>Node1</title>
<g id="a_node1"><a xlink:title=" ">
<polygon fill="#bfbfbf" stroke="black" points="571,-17 571,-69 693,-69 693,-17 571,-17"/>
<text text-anchor="start" x="579" y="-57" font-family="Helvetica,sans-Serif" font-size="10.00">FTensor::Tensor2_or</text>
<text text-anchor="start" x="579" y="-46" font-family="Helvetica,sans-Serif" font-size="10.00">_Tensor2&lt; A, B, T, U,</text>
<text text-anchor="start" x="579" y="-35" font-family="Helvetica,sans-Serif" font-size="10.00"> Dim, Dim, Dim, Dim,</text>
<text text-anchor="middle" x="632" y="-24" font-family="Helvetica,sans-Serif" font-size="10.00"> i, j, i, j &gt;</text>
</a>
</g>
</g>
<!-- Node2 -->
<g id="node2" class="node">
<title>Node2</title>
<g id="a_node2"><a xlink:href="classFTensor_1_1Tensor2__Expr.html" target="_top" xlink:title=" ">
<polygon fill="white" stroke="black" points="378,-53 378,-83 508,-83 508,-53 378,-53"/>
<text text-anchor="start" x="386" y="-71" font-family="Helvetica,sans-Serif" font-size="10.00">FTensor::Tensor2_Expr</text>
<text text-anchor="middle" x="443" y="-60" font-family="Helvetica,sans-Serif" font-size="10.00">&lt; B, U, Dim, Dim, i, j &gt;</text>
</a>
</g>
</g>
<!-- Node2&#45;&gt;Node1 -->
<g id="edge1" class="edge">
<title>Node2&#45;&gt;Node1</title>
<path fill="none" stroke="#9a32cd" stroke-dasharray="5,2" d="M518.23,-58.08C535.67,-55.75 554.04,-53.29 570.77,-51.05"/>
<polygon fill="#9a32cd" stroke="#9a32cd" points="517.54,-54.64 508.09,-59.43 518.47,-61.58 517.54,-54.64"/>
<text text-anchor="middle" x="539.5" y="-59" font-family="Helvetica,sans-Serif" font-size="10.00"> iterB</text>
</g>
<!-- Node3 -->
<g id="node3" class="node">
<title>Node3</title>
<g id="a_node3"><a xlink:title=" ">
<polygon fill="white" stroke="#bfbfbf" points="140.5,-85.5 140.5,-104.5 169.5,-104.5 169.5,-85.5 140.5,-85.5"/>
<text text-anchor="middle" x="155" y="-92.5" font-family="Helvetica,sans-Serif" font-size="10.00">B</text>
</a>
</g>
</g>
<!-- Node3&#45;&gt;Node2 -->
<g id="edge2" class="edge">
<title>Node3&#45;&gt;Node2</title>
<path fill="none" stroke="#9a32cd" stroke-dasharray="5,2" d="M179.89,-92.75C222.99,-88.68 315.13,-79.98 377.84,-74.06"/>
<polygon fill="#9a32cd" stroke="#9a32cd" points="179.42,-89.27 169.79,-93.7 180.08,-96.24 179.42,-89.27"/>
<text text-anchor="middle" x="301.5" y="-89" font-family="Helvetica,sans-Serif" font-size="10.00"> iter</text>
</g>
<!-- Node4 -->
<g id="node4" class="node">
<title>Node4</title>
<g id="a_node4"><a xlink:href="classFTensor_1_1Tensor2__Expr.html" target="_top" xlink:title=" ">
<polygon fill="white" stroke="black" points="85,-24 85,-54 225,-54 225,-24 85,-24"/>
<text text-anchor="start" x="93" y="-42" font-family="Helvetica,sans-Serif" font-size="10.00">FTensor::Tensor2_Expr</text>
<text text-anchor="middle" x="155" y="-31" font-family="Helvetica,sans-Serif" font-size="10.00">&lt; A, T, Dim0, Dim1, i, j &gt;</text>
</a>
</g>
</g>
<!-- Node4&#45;&gt;Node2 -->
<g id="edge3" class="edge">
<title>Node4&#45;&gt;Node2</title>
<path fill="none" stroke="orange" stroke-dasharray="5,2" d="M235.23,-47.03C280.15,-51.59 335.63,-57.21 377.81,-61.49"/>
<polygon fill="orange" stroke="orange" points="235.53,-43.55 225.23,-46.02 234.83,-50.51 235.53,-43.55"/>
<text text-anchor="middle" x="301.5" y="-62" font-family="Helvetica,sans-Serif" font-size="10.00"> &lt; B, U, Dim, Dim, i, j &gt;</text>
</g>
<!-- Node6 -->
<g id="node6" class="node">
<title>Node6</title>
<g id="a_node6"><a xlink:href="classFTensor_1_1Tensor2__Expr.html" target="_top" xlink:title=" ">
<polygon fill="white" stroke="black" points="379,-4 379,-34 507,-34 507,-4 379,-4"/>
<text text-anchor="start" x="387" y="-22" font-family="Helvetica,sans-Serif" font-size="10.00">FTensor::Tensor2_Expr</text>
<text text-anchor="middle" x="443" y="-11" font-family="Helvetica,sans-Serif" font-size="10.00">&lt; A, T, Dim, Dim, i, j &gt;</text>
</a>
</g>
</g>
<!-- Node4&#45;&gt;Node6 -->
<g id="edge7" class="edge">
<title>Node4&#45;&gt;Node6</title>
<path fill="none" stroke="orange" stroke-dasharray="5,2" d="M235.33,-28.7C237.92,-28.45 240.48,-28.22 243,-28 288.31,-24.12 339.58,-21.85 378.73,-20.56"/>
<polygon fill="orange" stroke="orange" points="234.87,-25.23 225.28,-29.73 235.58,-32.19 234.87,-25.23"/>
<text text-anchor="middle" x="301.5" y="-31" font-family="Helvetica,sans-Serif" font-size="10.00"> &lt; A, T, Dim, Dim, i, j &gt;</text>
</g>
<!-- Node5 -->
<g id="node5" class="node">
<title>Node5</title>
<g id="a_node5"><a xlink:title=" ">
<polygon fill="white" stroke="#bfbfbf" points="0,-0.5 0,-19.5 29,-19.5 29,-0.5 0,-0.5"/>
<text text-anchor="middle" x="14.5" y="-7.5" font-family="Helvetica,sans-Serif" font-size="10.00">A</text>
</a>
</g>
</g>
<!-- Node5&#45;&gt;Node4 -->
<g id="edge4" class="edge">
<title>Node5&#45;&gt;Node4</title>
<path fill="none" stroke="#9a32cd" stroke-dasharray="5,2" d="M39.19,-14.96C51.95,-17.63 68.41,-21.08 84.87,-24.53"/>
<polygon fill="#9a32cd" stroke="#9a32cd" points="39.54,-11.46 29.03,-12.83 38.1,-18.31 39.54,-11.46"/>
<text text-anchor="middle" x="57" y="-23" font-family="Helvetica,sans-Serif" font-size="10.00"> iter</text>
</g>
<!-- Node5&#45;&gt;Node6 -->
<g id="edge6" class="edge">
<title>Node5&#45;&gt;Node6</title>
<path fill="none" stroke="#9a32cd" stroke-dasharray="5,2" d="M39.34,-7.43C52.74,-6.12 69.78,-4.66 85,-4 187.88,0.43 307.45,-7.19 378.8,-13.1"/>
<polygon fill="#9a32cd" stroke="#9a32cd" points="38.65,-3.98 29.06,-8.48 39.37,-10.95 38.65,-3.98"/>
<text text-anchor="middle" x="155" y="-7" font-family="Helvetica,sans-Serif" font-size="10.00"> iter</text>
</g>
<!-- Node6&#45;&gt;Node1 -->
<g id="edge5" class="edge">
<title>Node6&#45;&gt;Node1</title>
<path fill="none" stroke="#9a32cd" stroke-dasharray="5,2" d="M517.15,-26.62C529.14,-27.99 541.42,-29.47 553,-31 558.84,-31.77 564.92,-32.62 570.99,-33.5"/>
<polygon fill="#9a32cd" stroke="#9a32cd" points="517.5,-23.13 507.17,-25.49 516.71,-30.09 517.5,-23.13"/>
<text text-anchor="middle" x="539.5" y="-34" font-family="Helvetica,sans-Serif" font-size="10.00"> iterA</text>
</g>
</g>
</svg>
