<?xml version="1.0" encoding="UTF-8" standalone="no"?>
<!DOCTYPE svg PUBLIC "-//W3C//DTD SVG 1.1//EN"
 "http://www.w3.org/Graphics/SVG/1.1/DTD/svg11.dtd">
<!-- Generated by graphviz version 2.43.0 (0)
 -->
<!-- Title: FTensor::Tensor2&lt; T, Tensor_Dim0, Tensor_Dim1 &gt; Pages: 1 -->
<!--zoomable 632 -->
<svg id="main" version="1.1" xmlns="http://www.w3.org/2000/svg" xmlns:xlink="http://www.w3.org/1999/xlink" xml:space="preserve" onload="init(evt)">
<style type="text/css"><![CDATA[
.edge:hover path { stroke: red; }
.edge:hover polygon { stroke: red; fill: red; }
]]></style>
<script type="text/javascript"><![CDATA[
var edges = document.getElementsByTagName('g');
if (edges && edges.length) {
  for (var i=0;i<edges.length;i++) {
    if (edges[i].id.substr(0,4)=='edge') {
      edges[i].setAttribute('class','edge');
    }
  }
}
]]></script>
        <defs>
                <circle id="rim" cx="0" cy="0" r="7"/>
                <circle id="rim2" cx="0" cy="0" r="3.5"/>
                <g id="zoomPlus">
                        <use xlink:href="#rim" fill="#404040">
                                <set attributeName="fill" to="#808080" begin="zoomplus.mouseover" end="zoomplus.mouseout"/>
                        </use>
                        <path d="M-4,0h8M0,-4v8" fill="none" stroke="white" stroke-width="1.5" pointer-events="none"/>
                </g>
                <g id="zoomMin">
                        <use xlink:href="#rim" fill="#404040">
                                <set attributeName="fill" to="#808080" begin="zoomminus.mouseover" end="zoomminus.mouseout"/>
                        </use>
                        <path d="M-4,0h8" fill="none" stroke="white" stroke-width="1.5" pointer-events="none"/>
                </g>
                <g id="dirArrow">
                        <path fill="none" stroke="white" stroke-width="1.5" d="M0,-3.0v7 M-2.5,-0.5L0,-3.0L2.5,-0.5"/>
                </g>
               <g id="resetDef">
                       <use xlink:href="#rim2" fill="#404040">
                               <set attributeName="fill" to="#808080" begin="reset.mouseover" end="reset.mouseout"/>
                       </use>
               </g>
        </defs>

<script type="text/javascript">
var viewWidth = 442;
var viewHeight = 632;
var sectionId = 'dynsection-0';
</script>
<script xlink:href="svgpan.js"/>
<svg id="graph" class="graph">
<g id="viewport">
<title>FTensor::Tensor2&lt; T, Tensor_Dim0, Tensor_Dim1 &gt;</title>
<polygon fill="white" stroke="transparent" points="-4,4 -4,-627.5 438,-627.5 438,4 -4,4"/>
<!-- Node1 -->
<g id="node1" class="node">
<title>Node1</title>
<g id="a_node1"><a xlink:title=" ">
<polygon fill="#bfbfbf" stroke="black" points="0,-287 0,-328 120,-328 120,-287 0,-287"/>
<text text-anchor="start" x="8" y="-316" font-family="Helvetica,sans-Serif" font-size="10.00">FTensor::Tensor2&lt; T,</text>
<text text-anchor="start" x="8" y="-305" font-family="Helvetica,sans-Serif" font-size="10.00"> Tensor_Dim0, Tensor</text>
<text text-anchor="middle" x="60" y="-294" font-family="Helvetica,sans-Serif" font-size="10.00">_Dim1 &gt;</text>
</a>
</g>
</g>
<!-- Node2 -->
<g id="node2" class="node">
<title>Node2</title>
<g id="a_node2"><a xlink:href="classFTensor_1_1Tensor2.html" target="_top" xlink:title=" ">
<polygon fill="white" stroke="black" points="299,-575 299,-616 419,-616 419,-575 299,-575"/>
<text text-anchor="start" x="307" y="-604" font-family="Helvetica,sans-Serif" font-size="10.00">FTensor::Tensor2&lt; A,</text>
<text text-anchor="start" x="307" y="-593" font-family="Helvetica,sans-Serif" font-size="10.00"> Tensor_Dim0, Tensor</text>
<text text-anchor="middle" x="359" y="-582" font-family="Helvetica,sans-Serif" font-size="10.00">_Dim1 &gt;</text>
</a>
</g>
</g>
<!-- Node1&#45;&gt;Node2 -->
<g id="edge1" class="edge">
<title>Node1&#45;&gt;Node2</title>
<path fill="none" stroke="orange" stroke-dasharray="5,2" d="M60.61,-338.32C61.73,-392.24 72.41,-503.37 138,-560.5 181.75,-598.6 249.76,-604.07 298.58,-602.06"/>
<polygon fill="orange" stroke="orange" points="64.1,-337.99 60.5,-328.03 57.1,-338.07 64.1,-337.99"/>
<text text-anchor="start" x="138" y="-615.5" font-family="Helvetica,sans-Serif" font-size="10.00"> &lt; A, Tensor_Dim0, Tensor</text>
<text text-anchor="middle" x="202" y="-604.5" font-family="Helvetica,sans-Serif" font-size="10.00">_Dim1 &gt;</text>
</g>
<!-- Node3 -->
<g id="node3" class="node">
<title>Node3</title>
<g id="a_node3"><a xlink:href="classFTensor_1_1Tensor2.html" target="_top" xlink:title=" ">
<polygon fill="white" stroke="black" points="287,-525.5 287,-555.5 431,-555.5 431,-525.5 287,-525.5"/>
<text text-anchor="start" x="295" y="-543.5" font-family="Helvetica,sans-Serif" font-size="10.00">FTensor::Tensor2&lt; double,</text>
<text text-anchor="middle" x="359" y="-532.5" font-family="Helvetica,sans-Serif" font-size="10.00"> Dim, Dim &gt;</text>
</a>
</g>
</g>
<!-- Node1&#45;&gt;Node3 -->
<g id="edge2" class="edge">
<title>Node1&#45;&gt;Node3</title>
<path fill="none" stroke="orange" stroke-dasharray="5,2" d="M63.65,-338.36C69.22,-382.73 86.29,-463.78 138,-505.5 179.39,-538.89 239.78,-546.51 286.83,-546.41"/>
<polygon fill="orange" stroke="orange" points="67.1,-337.72 62.5,-328.18 60.15,-338.51 67.1,-337.72"/>
<text text-anchor="middle" x="202" y="-548.5" font-family="Helvetica,sans-Serif" font-size="10.00"> &lt; double, Dim, Dim &gt;</text>
</g>
<!-- Node4 -->
<g id="node4" class="node">
<title>Node4</title>
<g id="a_node4"><a xlink:href="classFTensor_1_1Tensor2.html" target="_top" xlink:title=" ">
<polygon fill="white" stroke="black" points="288.5,-476.5 288.5,-506.5 429.5,-506.5 429.5,-476.5 288.5,-476.5"/>
<text text-anchor="start" x="296.5" y="-494.5" font-family="Helvetica,sans-Serif" font-size="10.00">FTensor::Tensor2&lt; double</text>
<text text-anchor="middle" x="359" y="-483.5" font-family="Helvetica,sans-Serif" font-size="10.00"> *, 3, 3 &gt;</text>
</a>
</g>
</g>
<!-- Node1&#45;&gt;Node4 -->
<g id="edge3" class="edge">
<title>Node1&#45;&gt;Node4</title>
<path fill="none" stroke="orange" stroke-dasharray="5,2" d="M69.09,-338.14C79.42,-371.02 100.62,-422.17 138,-449.5 181.32,-481.17 241.86,-490.9 288.48,-493.14"/>
<polygon fill="orange" stroke="orange" points="72.32,-336.75 66.11,-328.17 65.62,-338.75 72.32,-336.75"/>
<text text-anchor="middle" x="202" y="-493.5" font-family="Helvetica,sans-Serif" font-size="10.00"> &lt; double *, 3, 3 &gt;</text>
</g>
<!-- Node5 -->
<g id="node5" class="node">
<title>Node5</title>
<g id="a_node5"><a xlink:href="classFTensor_1_1Tensor2.html" target="_top" xlink:title=" ">
<polygon fill="white" stroke="black" points="286.5,-416 286.5,-457 431.5,-457 431.5,-416 286.5,-416"/>
<text text-anchor="start" x="294.5" y="-445" font-family="Helvetica,sans-Serif" font-size="10.00">FTensor::Tensor2&lt; FTensor</text>
<text text-anchor="start" x="294.5" y="-434" font-family="Helvetica,sans-Serif" font-size="10.00">::PackPtr&lt; double *, 0</text>
<text text-anchor="middle" x="359" y="-423" font-family="Helvetica,sans-Serif" font-size="10.00"> &gt;, 3, 3 &gt;</text>
</a>
</g>
</g>
<!-- Node1&#45;&gt;Node5 -->
<g id="edge4" class="edge">
<title>Node1&#45;&gt;Node5</title>
<path fill="none" stroke="orange" stroke-dasharray="5,2" d="M84.01,-335.98C98.06,-351.59 117.28,-370.04 138,-381.5 183.91,-406.89 241.63,-420.75 286.43,-428.21"/>
<polygon fill="orange" stroke="orange" points="86.37,-333.36 77.15,-328.13 81.1,-337.97 86.37,-333.36"/>
<text text-anchor="start" x="146" y="-437.5" font-family="Helvetica,sans-Serif" font-size="10.00"> &lt; FTensor::PackPtr</text>
<text text-anchor="middle" x="202" y="-426.5" font-family="Helvetica,sans-Serif" font-size="10.00">&lt; double *, 0 &gt;, 3, 3 &gt;</text>
</g>
<!-- Node6 -->
<g id="node6" class="node">
<title>Node6</title>
<g id="a_node6"><a xlink:href="classFTensor_1_1Tensor2.html" target="_top" xlink:title=" ">
<polygon fill="white" stroke="black" points="293,-366.5 293,-396.5 425,-396.5 425,-366.5 293,-366.5"/>
<text text-anchor="start" x="301" y="-384.5" font-family="Helvetica,sans-Serif" font-size="10.00">FTensor::Tensor2&lt; bool,</text>
<text text-anchor="middle" x="359" y="-373.5" font-family="Helvetica,sans-Serif" font-size="10.00"> Dim, 2 &gt;</text>
</a>
</g>
</g>
<!-- Node1&#45;&gt;Node6 -->
<g id="edge5" class="edge">
<title>Node1&#45;&gt;Node6</title>
<path fill="none" stroke="orange" stroke-dasharray="5,2" d="M117.88,-331.8C124.6,-334.25 131.41,-336.55 138,-338.5 189.12,-353.64 248.53,-364.89 292.72,-372.08"/>
<polygon fill="orange" stroke="orange" points="118.74,-328.38 108.15,-328.12 116.27,-334.93 118.74,-328.38"/>
<text text-anchor="middle" x="202" y="-369.5" font-family="Helvetica,sans-Serif" font-size="10.00"> &lt; bool, Dim, 2 &gt;</text>
</g>
<!-- Node7 -->
<g id="node7" class="node">
<title>Node7</title>
<g id="a_node7"><a xlink:href="classFTensor_1_1Tensor2.html" target="_top" xlink:title=" ">
<polygon fill="white" stroke="black" points="293,-317.5 293,-347.5 425,-347.5 425,-317.5 293,-317.5"/>
<text text-anchor="start" x="301" y="-335.5" font-family="Helvetica,sans-Serif" font-size="10.00">FTensor::Tensor2&lt; bool,</text>
<text text-anchor="middle" x="359" y="-324.5" font-family="Helvetica,sans-Serif" font-size="10.00"> Dim23, 2 &gt;</text>
</a>
</g>
</g>
<!-- Node1&#45;&gt;Node7 -->
<g id="edge6" class="edge">
<title>Node1&#45;&gt;Node7</title>
<path fill="none" stroke="orange" stroke-dasharray="5,2" d="M130.25,-313.33C179.33,-317.46 244.76,-322.97 292.89,-327.02"/>
<polygon fill="orange" stroke="orange" points="130.29,-309.82 120.03,-312.47 129.7,-316.8 130.29,-309.82"/>
<text text-anchor="middle" x="202" y="-326.5" font-family="Helvetica,sans-Serif" font-size="10.00"> &lt; bool, Dim23, 2 &gt;</text>
</g>
<!-- Node8 -->
<g id="node8" class="node">
<title>Node8</title>
<g id="a_node8"><a xlink:href="classFTensor_1_1Tensor2.html" target="_top" xlink:title=" ">
<polygon fill="white" stroke="black" points="293,-268.5 293,-298.5 425,-298.5 425,-268.5 293,-268.5"/>
<text text-anchor="start" x="301" y="-286.5" font-family="Helvetica,sans-Serif" font-size="10.00">FTensor::Tensor2&lt; bool,</text>
<text text-anchor="middle" x="359" y="-275.5" font-family="Helvetica,sans-Serif" font-size="10.00"> Dim2, 2 &gt;</text>
</a>
</g>
</g>
<!-- Node1&#45;&gt;Node8 -->
<g id="edge7" class="edge">
<title>Node1&#45;&gt;Node8</title>
<path fill="none" stroke="orange" stroke-dasharray="5,2" d="M130.33,-300.2C132.92,-299.96 135.48,-299.72 138,-299.5 190.07,-294.9 249.16,-290.66 292.98,-287.7"/>
<polygon fill="orange" stroke="orange" points="129.88,-296.72 120.26,-301.16 130.54,-303.69 129.88,-296.72"/>
<text text-anchor="middle" x="202" y="-302.5" font-family="Helvetica,sans-Serif" font-size="10.00"> &lt; bool, Dim2, 2 &gt;</text>
</g>
<!-- Node9 -->
<g id="node9" class="node">
<title>Node9</title>
<g id="a_node9"><a xlink:href="classFTensor_1_1Tensor2.html" target="_top" xlink:title=" ">
<polygon fill="white" stroke="black" points="284,-219.5 284,-249.5 434,-249.5 434,-219.5 284,-219.5"/>
<text text-anchor="start" x="292" y="-237.5" font-family="Helvetica,sans-Serif" font-size="10.00">FTensor::Tensor2&lt; adouble,</text>
<text text-anchor="middle" x="359" y="-226.5" font-family="Helvetica,sans-Serif" font-size="10.00"> 3, 3 &gt;</text>
</a>
</g>
</g>
<!-- Node1&#45;&gt;Node9 -->
<g id="edge8" class="edge">
<title>Node1&#45;&gt;Node9</title>
<path fill="none" stroke="orange" stroke-dasharray="5,2" d="M113.65,-283.09C121.7,-279.9 129.99,-276.91 138,-274.5 185.67,-260.15 240.8,-250.14 283.94,-243.72"/>
<polygon fill="orange" stroke="orange" points="112.27,-279.88 104.34,-286.91 114.92,-286.35 112.27,-279.88"/>
<text text-anchor="middle" x="202" y="-277.5" font-family="Helvetica,sans-Serif" font-size="10.00"> &lt; adouble, 3, 3 &gt;</text>
</g>
<!-- Node10 -->
<g id="node10" class="node">
<title>Node10</title>
<g id="a_node10"><a xlink:href="classFTensor_1_1Tensor2.html" target="_top" xlink:title=" ">
<polygon fill="white" stroke="black" points="287,-170.5 287,-200.5 431,-200.5 431,-170.5 287,-170.5"/>
<text text-anchor="start" x="295" y="-188.5" font-family="Helvetica,sans-Serif" font-size="10.00">FTensor::Tensor2&lt; double,</text>
<text text-anchor="middle" x="359" y="-177.5" font-family="Helvetica,sans-Serif" font-size="10.00"> 3, 3 &gt;</text>
</a>
</g>
</g>
<!-- Node1&#45;&gt;Node10 -->
<g id="edge9" class="edge">
<title>Node1&#45;&gt;Node10</title>
<path fill="none" stroke="orange" stroke-dasharray="5,2" d="M82.76,-279.02C96.78,-262.65 116.38,-243.1 138,-231.5 183.99,-206.82 241.97,-195.38 286.87,-190.07"/>
<polygon fill="orange" stroke="orange" points="80.04,-276.82 76.34,-286.75 85.42,-281.29 80.04,-276.82"/>
<text text-anchor="middle" x="202" y="-234.5" font-family="Helvetica,sans-Serif" font-size="10.00"> &lt; double, 3, 3 &gt;</text>
</g>
<!-- Node11 -->
<g id="node11" class="node">
<title>Node11</title>
<g id="a_node11"><a xlink:href="classFTensor_1_1Tensor2.html" target="_top" xlink:title=" ">
<polygon fill="white" stroke="black" points="286.5,-110 286.5,-151 431.5,-151 431.5,-110 286.5,-110"/>
<text text-anchor="start" x="294.5" y="-139" font-family="Helvetica,sans-Serif" font-size="10.00">FTensor::Tensor2&lt; FTensor</text>
<text text-anchor="start" x="294.5" y="-128" font-family="Helvetica,sans-Serif" font-size="10.00">::PackPtr&lt; adouble *, 0</text>
<text text-anchor="middle" x="359" y="-117" font-family="Helvetica,sans-Serif" font-size="10.00"> &gt;, 3, 3 &gt;</text>
</a>
</g>
</g>
<!-- Node1&#45;&gt;Node11 -->
<g id="edge10" class="edge">
<title>Node1&#45;&gt;Node11</title>
<path fill="none" stroke="orange" stroke-dasharray="5,2" d="M69.01,-276.88C79.29,-244.07 100.42,-193.13 138,-166.5 180.86,-136.12 240.13,-127.84 286.35,-126.76"/>
<polygon fill="orange" stroke="orange" points="65.55,-276.26 66.05,-286.84 72.26,-278.25 65.55,-276.26"/>
<text text-anchor="start" x="143" y="-180.5" font-family="Helvetica,sans-Serif" font-size="10.00"> &lt; FTensor::PackPtr</text>
<text text-anchor="middle" x="202" y="-169.5" font-family="Helvetica,sans-Serif" font-size="10.00">&lt; adouble *, 0 &gt;, 3, 3 &gt;</text>
</g>
<!-- Node12 -->
<g id="node12" class="node">
<title>Node12</title>
<g id="a_node12"><a xlink:href="classFTensor_1_1Tensor2.html" target="_top" xlink:title=" ">
<polygon fill="white" stroke="black" points="286.5,-50 286.5,-91 431.5,-91 431.5,-50 286.5,-50"/>
<text text-anchor="start" x="294.5" y="-79" font-family="Helvetica,sans-Serif" font-size="10.00">FTensor::Tensor2&lt; FTensor</text>
<text text-anchor="start" x="294.5" y="-68" font-family="Helvetica,sans-Serif" font-size="10.00">::PackPtr&lt; TYPE *, 0 &gt;,</text>
<text text-anchor="middle" x="359" y="-57" font-family="Helvetica,sans-Serif" font-size="10.00"> 3, 3 &gt;</text>
</a>
</g>
</g>
<!-- Node1&#45;&gt;Node12 -->
<g id="edge11" class="edge">
<title>Node1&#45;&gt;Node12</title>
<path fill="none" stroke="orange" stroke-dasharray="5,2" d="M63.01,-276.66C67.77,-230.69 83.84,-144.99 138,-101.5 179.2,-68.41 239.31,-61.86 286.29,-62.92"/>
<polygon fill="orange" stroke="orange" points="59.49,-276.62 62.06,-286.9 66.47,-277.26 59.49,-276.62"/>
<text text-anchor="start" x="150.5" y="-115.5" font-family="Helvetica,sans-Serif" font-size="10.00"> &lt; FTensor::PackPtr</text>
<text text-anchor="middle" x="202" y="-104.5" font-family="Helvetica,sans-Serif" font-size="10.00">&lt; TYPE *, 0 &gt;, 3, 3 &gt;</text>
</g>
<!-- Node13 -->
<g id="node13" class="node">
<title>Node13</title>
<g id="a_node13"><a xlink:href="classFTensor_1_1Tensor2.html" target="_top" xlink:title=" ">
<polygon fill="white" stroke="black" points="291.5,-0.5 291.5,-30.5 426.5,-30.5 426.5,-0.5 291.5,-0.5"/>
<text text-anchor="start" x="299.5" y="-18.5" font-family="Helvetica,sans-Serif" font-size="10.00">FTensor::Tensor2&lt; TYPE,</text>
<text text-anchor="middle" x="359" y="-7.5" font-family="Helvetica,sans-Serif" font-size="10.00"> 3, 3 &gt;</text>
</a>
</g>
</g>
<!-- Node1&#45;&gt;Node13 -->
<g id="edge12" class="edge">
<title>Node1&#45;&gt;Node13</title>
<path fill="none" stroke="orange" stroke-dasharray="5,2" d="M60.23,-276.51C60.69,-221.29 70.27,-106.15 138,-47.5 179.65,-11.43 243.26,-5.64 291.38,-7.57"/>
<polygon fill="orange" stroke="orange" points="56.73,-276.73 60.24,-286.73 63.73,-276.72 56.73,-276.73"/>
<text text-anchor="middle" x="202" y="-50.5" font-family="Helvetica,sans-Serif" font-size="10.00"> &lt; TYPE, 3, 3 &gt;</text>
</g>
</g>
</svg>
        <g id="navigator" transform="translate(0 0)" fill="#404254">
                <rect fill="#f2f5e9" fill-opacity="0.5" stroke="#606060" stroke-width=".5" x="0" y="0" width="60" height="60"/>
                <use id="zoomplus" xlink:href="#zoomPlus" x="17" y="9" onmousedown="handleZoom(evt,'in')"/>
                <use id="zoomminus" xlink:href="#zoomMin" x="42" y="9" onmousedown="handleZoom(evt,'out')"/>
                <use id="reset" xlink:href="#resetDef" x="30" y="36" onmousedown="handleReset()"/>
                <g id="arrowUp" xlink:href="#dirArrow" transform="translate(30 24)" onmousedown="handlePan(0,-1)">
                  <use xlink:href="#rim" fill="#404040">
                        <set attributeName="fill" to="#808080" begin="arrowUp.mouseover" end="arrowUp.mouseout"/>
                  </use>
                  <path fill="none" stroke="white" stroke-width="1.5" d="M0,-3.0v7 M-2.5,-0.5L0,-3.0L2.5,-0.5"/>
                </g>
                <g id="arrowRight" xlink:href="#dirArrow" transform="rotate(90) translate(36 -43)" onmousedown="handlePan(1,0)">
                  <use xlink:href="#rim" fill="#404040">
                        <set attributeName="fill" to="#808080" begin="arrowRight.mouseover" end="arrowRight.mouseout"/>
                  </use>
                  <path fill="none" stroke="white" stroke-width="1.5" d="M0,-3.0v7 M-2.5,-0.5L0,-3.0L2.5,-0.5"/>
                </g>
                <g id="arrowDown" xlink:href="#dirArrow" transform="rotate(180) translate(-30 -48)" onmousedown="handlePan(0,1)">
                  <use xlink:href="#rim" fill="#404040">
                        <set attributeName="fill" to="#808080" begin="arrowDown.mouseover" end="arrowDown.mouseout"/>
                  </use>
                  <path fill="none" stroke="white" stroke-width="1.5" d="M0,-3.0v7 M-2.5,-0.5L0,-3.0L2.5,-0.5"/>
                </g>
                <g id="arrowLeft" xlink:href="#dirArrow" transform="rotate(270) translate(-36 17)" onmousedown="handlePan(-1,0)">
                  <use xlink:href="#rim" fill="#404040">
                        <set attributeName="fill" to="#808080" begin="arrowLeft.mouseover" end="arrowLeft.mouseout"/>
                  </use>
                  <path fill="none" stroke="white" stroke-width="1.5" d="M0,-3.0v7 M-2.5,-0.5L0,-3.0L2.5,-0.5"/>
                </g>
        </g>
        <svg viewBox="0 0 15 15" width="100%" height="30px" preserveAspectRatio="xMaxYMin meet">
         <g id="arrow_out" transform="scale(0.3 0.3)">
          <a xlink:href="classFTensor_1_1Tensor2__inherit__graph_org.svg" target="_base">
           <rect id="button" ry="5" rx="5" y="6" x="6" height="38" width="38"
                fill="#f2f5e9" fill-opacity="0.5" stroke="#606060" stroke-width="1.0"/>
           <path id="arrow"
             d="M 11.500037,31.436501 C 11.940474,20.09759 22.043105,11.32322 32.158766,21.979434 L 37.068811,17.246167 C 37.068811,17.246167 37.088388,32 37.088388,32 L 22.160133,31.978069 C 22.160133,31.978069 26.997745,27.140456 26.997745,27.140456 C 18.528582,18.264221 13.291696,25.230495 11.500037,31.436501 z"
             style="fill:#404040;"/>
          </a>
         </g>
        </svg>
</svg>
