<?xml version="1.0" encoding="UTF-8" standalone="no"?>
<!DOCTYPE svg PUBLIC "-//W3C//DTD SVG 1.1//EN"
 "http://www.w3.org/Graphics/SVG/1.1/DTD/svg11.dtd">
<!-- Generated by graphviz version 2.43.0 (0)
 -->
<!-- Title: FTensor::Tensor4_times_Tensor2_symmetric_03&lt; A, B, T, U, Dim, Dim1, Dim2, i, j, k, l &gt; Pages: 1 -->
<svg width="742pt" height="172pt"
 viewBox="0.00 0.00 742.00 172.00" xmlns="http://www.w3.org/2000/svg" xmlns:xlink="http://www.w3.org/1999/xlink">
<g id="graph0" class="graph" transform="scale(1 1) rotate(0) translate(4 168)">
<title>FTensor::Tensor4_times_Tensor2_symmetric_03&lt; A, B, T, U, Dim, Dim1, Dim2, i, j, k, l &gt;</title>
<polygon fill="white" stroke="transparent" points="-4,4 -4,-168 738,-168 738,4 -4,4"/>
<!-- Node1 -->
<g id="node1" class="node">
<title>Node1</title>
<g id="a_node1"><a xlink:title=" ">
<polygon fill="#bfbfbf" stroke="black" points="600,-55 600,-107 734,-107 734,-55 600,-55"/>
<text text-anchor="start" x="608" y="-95" font-family="Helvetica,sans-Serif" font-size="10.00">FTensor::Tensor4_times</text>
<text text-anchor="start" x="608" y="-84" font-family="Helvetica,sans-Serif" font-size="10.00">_Tensor2_symmetric_03</text>
<text text-anchor="start" x="608" y="-73" font-family="Helvetica,sans-Serif" font-size="10.00">&lt; A, B, T, U, Dim, Dim1,</text>
<text text-anchor="middle" x="667" y="-62" font-family="Helvetica,sans-Serif" font-size="10.00"> Dim2, i, j, k, l &gt;</text>
</a>
</g>
</g>
<!-- Node2 -->
<g id="node2" class="node">
<title>Node2</title>
<g id="a_node2"><a xlink:href="classFTensor_1_1Tensor4__Expr.html" target="_top" xlink:title=" ">
<polygon fill="white" stroke="black" points="389.5,-88.5 389.5,-129.5 529.5,-129.5 529.5,-88.5 389.5,-88.5"/>
<text text-anchor="start" x="397.5" y="-117.5" font-family="Helvetica,sans-Serif" font-size="10.00">FTensor::Tensor4_Expr</text>
<text text-anchor="start" x="397.5" y="-106.5" font-family="Helvetica,sans-Serif" font-size="10.00">&lt; A, T, Dim, Dim1, Dim2,</text>
<text text-anchor="middle" x="459.5" y="-95.5" font-family="Helvetica,sans-Serif" font-size="10.00"> Dim, i, j, k, l &gt;</text>
</a>
</g>
</g>
<!-- Node2&#45;&gt;Node1 -->
<g id="edge1" class="edge">
<title>Node2&#45;&gt;Node1</title>
<path fill="none" stroke="#9a32cd" stroke-dasharray="5,2" d="M539.5,-98.24C559.47,-95.51 580.71,-92.62 599.97,-90"/>
<polygon fill="#9a32cd" stroke="#9a32cd" points="538.94,-94.78 529.5,-99.6 539.88,-101.72 538.94,-94.78"/>
<text text-anchor="middle" x="568.5" y="-98" font-family="Helvetica,sans-Serif" font-size="10.00"> iterA</text>
</g>
<!-- Node3 -->
<g id="node3" class="node">
<title>Node3</title>
<g id="a_node3"><a xlink:title=" ">
<polygon fill="white" stroke="#bfbfbf" points="0,-99.5 0,-118.5 29,-118.5 29,-99.5 0,-99.5"/>
<text text-anchor="middle" x="14.5" y="-106.5" font-family="Helvetica,sans-Serif" font-size="10.00">A</text>
</a>
</g>
</g>
<!-- Node3&#45;&gt;Node2 -->
<g id="edge2" class="edge">
<title>Node3&#45;&gt;Node2</title>
<path fill="none" stroke="#9a32cd" stroke-dasharray="5,2" d="M37.87,-121.65C51.11,-128.36 68.48,-135.86 85,-139 206.83,-162.17 241.39,-153.58 364,-135 373,-133.64 382.37,-131.71 391.55,-129.51"/>
<polygon fill="#9a32cd" stroke="#9a32cd" points="39.51,-118.56 29.03,-116.98 36.24,-124.74 39.51,-118.56"/>
<text text-anchor="middle" x="162.5" y="-156" font-family="Helvetica,sans-Serif" font-size="10.00"> iter</text>
</g>
<!-- Node4 -->
<g id="node4" class="node">
<title>Node4</title>
<g id="a_node4"><a xlink:href="classFTensor_1_1Tensor4__Expr.html" target="_top" xlink:title=" ">
<polygon fill="white" stroke="black" points="89.5,-88.5 89.5,-129.5 235.5,-129.5 235.5,-88.5 89.5,-88.5"/>
<text text-anchor="start" x="97.5" y="-117.5" font-family="Helvetica,sans-Serif" font-size="10.00">FTensor::Tensor4_Expr</text>
<text text-anchor="start" x="97.5" y="-106.5" font-family="Helvetica,sans-Serif" font-size="10.00">&lt; A, T, Dim0, Dim1, Dim2,</text>
<text text-anchor="middle" x="162.5" y="-95.5" font-family="Helvetica,sans-Serif" font-size="10.00"> Dim3, i, j, k, l &gt;</text>
</a>
</g>
</g>
<!-- Node3&#45;&gt;Node4 -->
<g id="edge4" class="edge">
<title>Node3&#45;&gt;Node4</title>
<path fill="none" stroke="#9a32cd" stroke-dasharray="5,2" d="M39.29,-109C53.11,-109 71.34,-109 89.48,-109"/>
<polygon fill="#9a32cd" stroke="#9a32cd" points="39.24,-105.5 29.24,-109 39.24,-112.5 39.24,-105.5"/>
<text text-anchor="middle" x="57" y="-112" font-family="Helvetica,sans-Serif" font-size="10.00"> iter</text>
</g>
<!-- Node7 -->
<g id="node7" class="node">
<title>Node7</title>
<g id="a_node7"><a xlink:href="classFTensor_1_1Tensor2__symmetric__Expr.html" target="_top" xlink:title=" ">
<polygon fill="white" stroke="black" points="85,-39 85,-69 240,-69 240,-39 85,-39"/>
<text text-anchor="start" x="93" y="-57" font-family="Helvetica,sans-Serif" font-size="10.00">FTensor::Tensor2_symmetric</text>
<text text-anchor="middle" x="162.5" y="-46" font-family="Helvetica,sans-Serif" font-size="10.00">_Expr&lt; A, T, Dim, i, j &gt;</text>
</a>
</g>
</g>
<!-- Node3&#45;&gt;Node7 -->
<g id="edge8" class="edge">
<title>Node3&#45;&gt;Node7</title>
<path fill="none" stroke="#9a32cd" stroke-dasharray="5,2" d="M38.52,-97.81C41.36,-96.5 44.24,-95.2 47,-94 68.34,-84.72 92.59,-76 113.26,-69.08"/>
<polygon fill="#9a32cd" stroke="#9a32cd" points="36.75,-94.78 29.21,-102.22 39.74,-101.11 36.75,-94.78"/>
<text text-anchor="middle" x="57" y="-97" font-family="Helvetica,sans-Serif" font-size="10.00"> iter</text>
</g>
<!-- Node4&#45;&gt;Node2 -->
<g id="edge3" class="edge">
<title>Node4&#45;&gt;Node2</title>
<path fill="none" stroke="orange" stroke-dasharray="5,2" d="M245.74,-109C290.95,-109 346.4,-109 389.36,-109"/>
<polygon fill="orange" stroke="orange" points="245.67,-105.5 235.67,-109 245.67,-112.5 245.67,-105.5"/>
<text text-anchor="start" x="258" y="-123" font-family="Helvetica,sans-Serif" font-size="10.00"> &lt; A, T, Dim, Dim1,</text>
<text text-anchor="middle" x="311" y="-112" font-family="Helvetica,sans-Serif" font-size="10.00"> Dim2, Dim, i, j, k, l &gt;</text>
</g>
<!-- Node5 -->
<g id="node5" class="node">
<title>Node5</title>
<g id="a_node5"><a xlink:href="classFTensor_1_1Tensor2__symmetric__Expr.html" target="_top" xlink:title=" ">
<polygon fill="white" stroke="black" points="382,-39 382,-69 537,-69 537,-39 382,-39"/>
<text text-anchor="start" x="390" y="-57" font-family="Helvetica,sans-Serif" font-size="10.00">FTensor::Tensor2_symmetric</text>
<text text-anchor="middle" x="459.5" y="-46" font-family="Helvetica,sans-Serif" font-size="10.00">_Expr&lt; B, U, Dim, i, l &gt;</text>
</a>
</g>
</g>
<!-- Node5&#45;&gt;Node1 -->
<g id="edge5" class="edge">
<title>Node5&#45;&gt;Node1</title>
<path fill="none" stroke="#9a32cd" stroke-dasharray="5,2" d="M547.29,-65.4C564.89,-67.72 583.13,-70.11 599.88,-72.31"/>
<polygon fill="#9a32cd" stroke="#9a32cd" points="547.39,-61.89 537.02,-64.05 546.48,-68.83 547.39,-61.89"/>
<text text-anchor="middle" x="568.5" y="-72" font-family="Helvetica,sans-Serif" font-size="10.00"> iterB</text>
</g>
<!-- Node6 -->
<g id="node6" class="node">
<title>Node6</title>
<g id="a_node6"><a xlink:title=" ">
<polygon fill="white" stroke="#bfbfbf" points="148,-0.5 148,-19.5 177,-19.5 177,-0.5 148,-0.5"/>
<text text-anchor="middle" x="162.5" y="-7.5" font-family="Helvetica,sans-Serif" font-size="10.00">B</text>
</a>
</g>
</g>
<!-- Node6&#45;&gt;Node5 -->
<g id="edge6" class="edge">
<title>Node6&#45;&gt;Node5</title>
<path fill="none" stroke="#9a32cd" stroke-dasharray="5,2" d="M187.07,-13.3C224.55,-18.58 300.07,-29.3 364,-39 369.83,-39.88 375.86,-40.81 381.92,-41.75"/>
<polygon fill="#9a32cd" stroke="#9a32cd" points="187.51,-9.83 177.12,-11.9 186.54,-16.76 187.51,-9.83"/>
<text text-anchor="middle" x="311" y="-42" font-family="Helvetica,sans-Serif" font-size="10.00"> iter</text>
</g>
<!-- Node7&#45;&gt;Node5 -->
<g id="edge7" class="edge">
<title>Node7&#45;&gt;Node5</title>
<path fill="none" stroke="orange" stroke-dasharray="5,2" d="M250.38,-54C292.09,-54 341.61,-54 381.89,-54"/>
<polygon fill="orange" stroke="orange" points="250.24,-50.5 240.24,-54 250.24,-57.5 250.24,-50.5"/>
<text text-anchor="middle" x="311" y="-57" font-family="Helvetica,sans-Serif" font-size="10.00"> &lt; B, U, Dim, i, l &gt;</text>
</g>
</g>
</svg>
