<?xml version="1.0" encoding="UTF-8" standalone="no"?>
<!DOCTYPE svg PUBLIC "-//W3C//DTD SVG 1.1//EN"
 "http://www.w3.org/Graphics/SVG/1.1/DTD/svg11.dtd">
<!-- Generated by graphviz version 9.0.0 (20230911.1827)
 -->
<!-- Title: FTensor::Number&lt; N &gt; Pages: 1 -->
<svg width="389pt" height="94pt"
 viewBox="0.00 0.00 389.00 93.75" xmlns="http://www.w3.org/2000/svg" xmlns:xlink="http://www.w3.org/1999/xlink">
<g id="graph0" class="graph" transform="scale(1 1) rotate(0) translate(4 89.75)">
<title>FTensor::Number&lt; N &gt;</title>
<!-- Node1 -->
<g id="node1" class="node">
<title>Node1</title>
<g id="a_node1"><a xlink:title=" ">
<polygon fill="#999999" stroke="#666666" points="249.12,-85.75 131.88,-85.75 131.88,-66.5 249.12,-66.5 249.12,-85.75"/>
<text text-anchor="middle" x="190.5" y="-72.25" font-family="Helvetica,sans-Serif" font-size="10.00">FTensor::Number&lt; N &gt;</text>
</a>
</g>
</g>
<!-- Node2 -->
<g id="node2" class="node">
<title>Node2</title>
<g id="a_node2"><a xlink:href="class_f_tensor_1_1_number.html" target="_top" xlink:title=" ">
<polygon fill="white" stroke="#666666" points="115,-19.25 0,-19.25 0,0 115,0 115,-19.25"/>
<text text-anchor="middle" x="57.5" y="-5.75" font-family="Helvetica,sans-Serif" font-size="10.00">FTensor::Number&lt; 0 &gt;</text>
</a>
</g>
</g>
<!-- Node1&#45;&gt;Node2 -->
<g id="edge1" class="edge">
<title>Node1&#45;&gt;Node2</title>
<path fill="none" stroke="orange" stroke-dasharray="5,2" d="M161.38,-61C135.46,-48.43 98.31,-30.42 76.18,-19.68"/>
<polygon fill="orange" stroke="orange" points="159.84,-64.15 170.36,-65.36 162.89,-57.85 159.84,-64.15"/>
<text text-anchor="middle" x="145.62" y="-39" font-family="Helvetica,sans-Serif" font-size="10.00"> &lt; 0 &gt;</text>
</g>
<!-- Node3 -->
<g id="node3" class="node">
<title>Node3</title>
<g id="a_node3"><a xlink:href="class_f_tensor_1_1_number.html" target="_top" xlink:title=" ">
<polygon fill="white" stroke="#666666" points="248,-19.25 133,-19.25 133,0 248,0 248,-19.25"/>
<text text-anchor="middle" x="190.5" y="-5.75" font-family="Helvetica,sans-Serif" font-size="10.00">FTensor::Number&lt; 1 &gt;</text>
</a>
</g>
</g>
<!-- Node1&#45;&gt;Node3 -->
<g id="edge2" class="edge">
<title>Node1&#45;&gt;Node3</title>
<path fill="none" stroke="orange" stroke-dasharray="5,2" d="M190.5,-54.65C190.5,-42.82 190.5,-28.54 190.5,-19.52"/>
<polygon fill="orange" stroke="orange" points="187,-54.64 190.5,-64.64 194,-54.64 187,-54.64"/>
<text text-anchor="middle" x="203.62" y="-39" font-family="Helvetica,sans-Serif" font-size="10.00"> &lt; 1 &gt;</text>
</g>
<!-- Node4 -->
<g id="node4" class="node">
<title>Node4</title>
<g id="a_node4"><a xlink:href="class_f_tensor_1_1_number.html" target="_top" xlink:title=" ">
<polygon fill="white" stroke="#666666" points="381,-19.25 266,-19.25 266,0 381,0 381,-19.25"/>
<text text-anchor="middle" x="323.5" y="-5.75" font-family="Helvetica,sans-Serif" font-size="10.00">FTensor::Number&lt; 2 &gt;</text>
</a>
</g>
</g>
<!-- Node1&#45;&gt;Node4 -->
<g id="edge3" class="edge">
<title>Node1&#45;&gt;Node4</title>
<path fill="none" stroke="orange" stroke-dasharray="5,2" d="M219.62,-61C245.54,-48.43 282.69,-30.42 304.82,-19.68"/>
<polygon fill="orange" stroke="orange" points="218.11,-57.85 210.64,-65.36 221.16,-64.15 218.11,-57.85"/>
<text text-anchor="middle" x="277.62" y="-39" font-family="Helvetica,sans-Serif" font-size="10.00"> &lt; 2 &gt;</text>
</g>
</g>
</svg>
