<?xml version="1.0" encoding="UTF-8" standalone="no"?>
<!DOCTYPE svg PUBLIC "-//W3C//DTD SVG 1.1//EN"
 "http://www.w3.org/Graphics/SVG/1.1/DTD/svg11.dtd">
<!-- Generated by graphviz version 9.0.0 (20230911.1827)
 -->
<!-- Title: FTensor::Ddg_times_Tensor2_symmetric_13&lt; A, B, T, U, Dim, i, j, k, l &gt; Pages: 1 -->
<!--zoomable 169 -->
<svg id="main" version="1.1" xmlns="http://www.w3.org/2000/svg" xmlns:xlink="http://www.w3.org/1999/xlink" xml:space="preserve" onload="init(evt)">
<style type="text/css"><![CDATA[
.edge:hover path { stroke: red; }
.edge:hover polygon { stroke: red; fill: red; }
]]></style>
<script type="text/javascript"><![CDATA[
var edges = document.getElementsByTagName('g');
if (edges && edges.length) {
  for (var i=0;i<edges.length;i++) {
    if (edges[i].id.substr(0,4)=='edge') {
      edges[i].setAttribute('class','edge');
    }
  }
}
]]></script>
        <defs>
                <circle id="rim" cx="0" cy="0" r="7"/>
                <circle id="rim2" cx="0" cy="0" r="3.5"/>
                <g id="zoomPlus">
                        <use xlink:href="#rim" fill="#404040">
                                <set attributeName="fill" to="#808080" begin="zoomplus.mouseover" end="zoomplus.mouseout"/>
                        </use>
                        <path d="M-4,0h8M0,-4v8" fill="none" stroke="white" stroke-width="1.5" pointer-events="none"/>
                </g>
                <g id="zoomMin">
                        <use xlink:href="#rim" fill="#404040">
                                <set attributeName="fill" to="#808080" begin="zoomminus.mouseover" end="zoomminus.mouseout"/>
                        </use>
                        <path d="M-4,0h8" fill="none" stroke="white" stroke-width="1.5" pointer-events="none"/>
                </g>
                <g id="dirArrow">
                        <path fill="none" stroke="white" stroke-width="1.5" d="M0,-3.0v7 M-2.5,-0.5L0,-3.0L2.5,-0.5"/>
                </g>
               <g id="resetDef">
                       <use xlink:href="#rim2" fill="#404040">
                               <set attributeName="fill" to="#808080" begin="reset.mouseover" end="reset.mouseout"/>
                       </use>
               </g>
        </defs>

<script type="text/javascript">
var viewWidth = 680;
var viewHeight = 169;
var sectionId = 'dynsection-0';
</script>
<script xlink:href="svgpan.js"/>
<svg id="graph" class="graph">
<g id="viewport">
<title>FTensor::Ddg_times_Tensor2_symmetric_13&lt; A, B, T, U, Dim, i, j, k, l &gt;</title>
<!-- Node1 -->
<g id="node1" class="node">
<title>Node1</title>
<g id="a_node1"><a xlink:title=" ">
<polygon fill="#999999" stroke="#666666" points="672.3,-106.12 549.8,-106.12 549.8,-53.12 672.3,-53.12 672.3,-106.12"/>
<text text-anchor="start" x="557.8" y="-92.62" font-family="Helvetica,sans-Serif" font-size="10.00">FTensor::Ddg_times</text>
<text text-anchor="start" x="557.8" y="-81.38" font-family="Helvetica,sans-Serif" font-size="10.00">_Tensor2_symmetric_13</text>
<text text-anchor="start" x="557.8" y="-70.12" font-family="Helvetica,sans-Serif" font-size="10.00">&lt; A, B, T, U, Dim, i,</text>
<text text-anchor="middle" x="611.05" y="-58.88" font-family="Helvetica,sans-Serif" font-size="10.00"> j, k, l &gt;</text>
</a>
</g>
</g>
<!-- Node2 -->
<g id="node2" class="node">
<title>Node2</title>
<g id="a_node2"><a xlink:href="class_f_tensor_1_1_ddg___expr.html" target="_top" xlink:title=" ">
<polygon fill="white" stroke="#666666" points="472.55,-127.5 365.8,-127.5 365.8,-85.75 472.55,-85.75 472.55,-127.5"/>
<text text-anchor="start" x="373.8" y="-114" font-family="Helvetica,sans-Serif" font-size="10.00">FTensor::Ddg_Expr&lt;</text>
<text text-anchor="start" x="373.8" y="-102.75" font-family="Helvetica,sans-Serif" font-size="10.00"> A, T, Dim, Dim, i,</text>
<text text-anchor="middle" x="419.17" y="-91.5" font-family="Helvetica,sans-Serif" font-size="10.00"> j, k, l &gt;</text>
</a>
</g>
</g>
<!-- Node2&#45;&gt;Node1 -->
<g id="edge1" class="edge">
<title>Node2&#45;&gt;Node1</title>
<path fill="none" stroke="#9a32cd" stroke-dasharray="5,2" d="M483.98,-97.55C505.16,-94.54 528.67,-91.2 549.59,-88.22"/>
<polygon fill="#9a32cd" stroke="#9a32cd" points="483.72,-94.05 474.31,-98.93 484.71,-100.98 483.72,-94.05"/>
<text text-anchor="middle" x="520.17" y="-95.38" font-family="Helvetica,sans-Serif" font-size="10.00"> iterA</text>
</g>
<!-- Node3 -->
<g id="node3" class="node">
<title>Node3</title>
<g id="a_node3"><a xlink:title=" ">
<polygon fill="white" stroke="#666666" points="28.8,-116.25 0,-116.25 0,-97 28.8,-97 28.8,-116.25"/>
<text text-anchor="middle" x="14.4" y="-102.75" font-family="Helvetica,sans-Serif" font-size="10.00">A</text>
</a>
</g>
</g>
<!-- Node3&#45;&gt;Node2 -->
<g id="edge2" class="edge">
<title>Node3&#45;&gt;Node2</title>
<path fill="none" stroke="#9a32cd" stroke-dasharray="5,2" d="M38.97,-120.45C51.16,-126.78 66.55,-133.56 81.3,-136.62 189.44,-159.12 220.8,-151.49 329.8,-133.62 341.52,-131.71 353.84,-128.64 365.45,-125.25"/>
<polygon fill="#9a32cd" stroke="#9a32cd" points="40.95,-117.54 30.5,-115.82 37.6,-123.69 40.95,-117.54"/>
<text text-anchor="middle" x="152.67" y="-151.38" font-family="Helvetica,sans-Serif" font-size="10.00"> iter</text>
</g>
<!-- Node4 -->
<g id="node4" class="node">
<title>Node4</title>
<g id="a_node4"><a xlink:href="class_f_tensor_1_1_ddg___expr.html" target="_top" xlink:title=" ">
<polygon fill="white" stroke="#666666" points="206.42,-127.5 98.92,-127.5 98.92,-85.75 206.42,-85.75 206.42,-127.5"/>
<text text-anchor="start" x="106.92" y="-114" font-family="Helvetica,sans-Serif" font-size="10.00">FTensor::Ddg_Expr&lt;</text>
<text text-anchor="start" x="106.92" y="-102.75" font-family="Helvetica,sans-Serif" font-size="10.00"> A, T, Dim01, Dim23,</text>
<text text-anchor="middle" x="152.67" y="-91.5" font-family="Helvetica,sans-Serif" font-size="10.00"> i, j, k, l &gt;</text>
</a>
</g>
</g>
<!-- Node3&#45;&gt;Node4 -->
<g id="edge4" class="edge">
<title>Node3&#45;&gt;Node4</title>
<path fill="none" stroke="#9a32cd" stroke-dasharray="5,2" d="M40.44,-106.62C56.68,-106.62 78.47,-106.62 98.46,-106.62"/>
<polygon fill="#9a32cd" stroke="#9a32cd" points="40.73,-103.13 30.73,-106.63 40.73,-110.13 40.73,-103.13"/>
<text text-anchor="middle" x="55.05" y="-108.38" font-family="Helvetica,sans-Serif" font-size="10.00"> iter</text>
</g>
<!-- Node7 -->
<g id="node7" class="node">
<title>Node7</title>
<g id="a_node7"><a xlink:href="class_f_tensor_1_1_tensor2__symmetric___expr.html" target="_top" xlink:title=" ">
<polygon fill="white" stroke="#666666" points="224.05,-67.88 81.3,-67.88 81.3,-37.38 224.05,-37.38 224.05,-67.88"/>
<text text-anchor="start" x="89.3" y="-54.38" font-family="Helvetica,sans-Serif" font-size="10.00">FTensor::Tensor2_symmetric</text>
<text text-anchor="middle" x="152.67" y="-43.12" font-family="Helvetica,sans-Serif" font-size="10.00">_Expr&lt; A, T, Dim, i, j &gt;</text>
</a>
</g>
</g>
<!-- Node3&#45;&gt;Node7 -->
<g id="edge8" class="edge">
<title>Node3&#45;&gt;Node7</title>
<path fill="none" stroke="#9a32cd" stroke-dasharray="5,2" d="M39.22,-94.91C41.77,-93.7 44.33,-92.5 46.8,-91.38 61.97,-84.45 65.73,-82.6 81.3,-76.62 88.65,-73.8 96.5,-70.97 104.18,-68.28"/>
<polygon fill="#9a32cd" stroke="#9a32cd" points="37.93,-91.64 30.45,-99.14 40.98,-97.95 37.93,-91.64"/>
<text text-anchor="middle" x="55.05" y="-92.38" font-family="Helvetica,sans-Serif" font-size="10.00"> iter</text>
</g>
<!-- Node4&#45;&gt;Node2 -->
<g id="edge3" class="edge">
<title>Node4&#45;&gt;Node2</title>
<path fill="none" stroke="orange" stroke-dasharray="5,2" d="M218.34,-106.62C263.56,-106.62 323.18,-106.62 365.5,-106.62"/>
<polygon fill="orange" stroke="orange" points="218.4,-103.13 208.4,-106.63 218.4,-110.13 218.4,-103.13"/>
<text text-anchor="start" x="242.05" y="-119.62" font-family="Helvetica,sans-Serif" font-size="10.00"> &lt; A, T, Dim, Dim, i,</text>
<text text-anchor="middle" x="285.92" y="-108.38" font-family="Helvetica,sans-Serif" font-size="10.00"> j, k, l &gt;</text>
</g>
<!-- Node5 -->
<g id="node5" class="node">
<title>Node5</title>
<g id="a_node5"><a xlink:href="class_f_tensor_1_1_tensor2__symmetric___expr.html" target="_top" xlink:title=" ">
<polygon fill="white" stroke="#666666" points="490.55,-67.88 347.8,-67.88 347.8,-37.38 490.55,-37.38 490.55,-67.88"/>
<text text-anchor="start" x="355.8" y="-54.38" font-family="Helvetica,sans-Serif" font-size="10.00">FTensor::Tensor2_symmetric</text>
<text text-anchor="middle" x="419.17" y="-43.12" font-family="Helvetica,sans-Serif" font-size="10.00">_Expr&lt; B, U, Dim, j, l &gt;</text>
</a>
</g>
</g>
<!-- Node5&#45;&gt;Node1 -->
<g id="edge5" class="edge">
<title>Node5&#45;&gt;Node1</title>
<path fill="none" stroke="#9a32cd" stroke-dasharray="5,2" d="M501.86,-64.24C517.87,-66.52 534.4,-68.87 549.57,-71.02"/>
<polygon fill="#9a32cd" stroke="#9a32cd" points="502.77,-60.83 492.38,-62.89 501.78,-67.76 502.77,-60.83"/>
<text text-anchor="middle" x="520.17" y="-69.38" font-family="Helvetica,sans-Serif" font-size="10.00"> iterB</text>
</g>
<!-- Node6 -->
<g id="node6" class="node">
<title>Node6</title>
<g id="a_node6"><a xlink:href="class_b.html" target="_top" xlink:title=" ">
<polygon fill="white" stroke="#666666" points="167.07,-19.25 138.27,-19.25 138.27,0 167.07,0 167.07,-19.25"/>
<text text-anchor="middle" x="152.67" y="-5.75" font-family="Helvetica,sans-Serif" font-size="10.00">B</text>
</a>
</g>
</g>
<!-- Node6&#45;&gt;Node5 -->
<g id="edge6" class="edge">
<title>Node6&#45;&gt;Node5</title>
<path fill="none" stroke="#9a32cd" stroke-dasharray="5,2" d="M178.58,-13.43C212.71,-18.68 275.94,-28.49 329.8,-37.38 335.64,-38.34 341.69,-39.35 347.76,-40.38"/>
<polygon fill="#9a32cd" stroke="#9a32cd" points="179.3,-10 168.88,-11.95 178.24,-16.92 179.3,-10"/>
<text text-anchor="middle" x="285.92" y="-39.38" font-family="Helvetica,sans-Serif" font-size="10.00"> iter</text>
</g>
<!-- Node7&#45;&gt;Node5 -->
<g id="edge7" class="edge">
<title>Node7&#45;&gt;Node5</title>
<path fill="none" stroke="orange" stroke-dasharray="5,2" d="M235.61,-52.62C271.39,-52.62 312.96,-52.62 347.38,-52.62"/>
<polygon fill="orange" stroke="orange" points="235.72,-49.13 225.72,-52.63 235.72,-56.13 235.72,-49.13"/>
<text text-anchor="middle" x="285.92" y="-54.38" font-family="Helvetica,sans-Serif" font-size="10.00"> &lt; B, U, Dim, j, l &gt;</text>
</g>
</g>
</svg>
        <g id="navigator" transform="translate(0 0)" fill="#404254">
                <rect fill="#f2f5e9" fill-opacity="0.5" stroke="#606060" stroke-width=".5" x="0" y="0" width="60" height="60"/>
                <use id="zoomplus" xlink:href="#zoomPlus" x="17" y="9" onmousedown="handleZoom(evt,'in')"/>
                <use id="zoomminus" xlink:href="#zoomMin" x="42" y="9" onmousedown="handleZoom(evt,'out')"/>
                <use id="reset" xlink:href="#resetDef" x="30" y="36" onmousedown="handleReset()"/>
                <g id="arrowUp" xlink:href="#dirArrow" transform="translate(30 24)" onmousedown="handlePan(0,-1)">
                  <use xlink:href="#rim" fill="#404040">
                        <set attributeName="fill" to="#808080" begin="arrowUp.mouseover" end="arrowUp.mouseout"/>
                  </use>
                  <path fill="none" stroke="white" stroke-width="1.5" d="M0,-3.0v7 M-2.5,-0.5L0,-3.0L2.5,-0.5"/>
                </g>
                <g id="arrowRight" xlink:href="#dirArrow" transform="rotate(90) translate(36 -43)" onmousedown="handlePan(1,0)">
                  <use xlink:href="#rim" fill="#404040">
                        <set attributeName="fill" to="#808080" begin="arrowRight.mouseover" end="arrowRight.mouseout"/>
                  </use>
                  <path fill="none" stroke="white" stroke-width="1.5" d="M0,-3.0v7 M-2.5,-0.5L0,-3.0L2.5,-0.5"/>
                </g>
                <g id="arrowDown" xlink:href="#dirArrow" transform="rotate(180) translate(-30 -48)" onmousedown="handlePan(0,1)">
                  <use xlink:href="#rim" fill="#404040">
                        <set attributeName="fill" to="#808080" begin="arrowDown.mouseover" end="arrowDown.mouseout"/>
                  </use>
                  <path fill="none" stroke="white" stroke-width="1.5" d="M0,-3.0v7 M-2.5,-0.5L0,-3.0L2.5,-0.5"/>
                </g>
                <g id="arrowLeft" xlink:href="#dirArrow" transform="rotate(270) translate(-36 17)" onmousedown="handlePan(-1,0)">
                  <use xlink:href="#rim" fill="#404040">
                        <set attributeName="fill" to="#808080" begin="arrowLeft.mouseover" end="arrowLeft.mouseout"/>
                  </use>
                  <path fill="none" stroke="white" stroke-width="1.5" d="M0,-3.0v7 M-2.5,-0.5L0,-3.0L2.5,-0.5"/>
                </g>
        </g>
        <svg viewBox="0 0 15 15" width="100%" height="30px" preserveAspectRatio="xMaxYMin meet">
         <g id="arrow_out" transform="scale(0.3 0.3)">
          <a xlink:href="class_f_tensor_1_1_ddg__times___tensor2__symmetric__13__coll__graph_org.svg" target="_base">
           <rect id="button" ry="5" rx="5" y="6" x="6" height="38" width="38"
                fill="#f2f5e9" fill-opacity="0.5" stroke="#606060" stroke-width="1.0"/>
           <path id="arrow"
             d="M 11.500037,31.436501 C 11.940474,20.09759 22.043105,11.32322 32.158766,21.979434 L 37.068811,17.246167 C 37.068811,17.246167 37.088388,32 37.088388,32 L 22.160133,31.978069 C 22.160133,31.978069 26.997745,27.140456 26.997745,27.140456 C 18.528582,18.264221 13.291696,25.230495 11.500037,31.436501 z"
             style="fill:#404040;"/>
          </a>
         </g>
        </svg>
</svg>
