<?xml version="1.0" encoding="UTF-8" standalone="no"?>
<!DOCTYPE svg PUBLIC "-//W3C//DTD SVG 1.1//EN"
 "http://www.w3.org/Graphics/SVG/1.1/DTD/svg11.dtd">
<!-- Generated by graphviz version 2.43.0 (0)
 -->
<!-- Title: FTensor::generic_minus_Tensor1&lt; A, T, U, Dim, i &gt; Pages: 1 -->
<svg width="185pt" height="117pt"
 viewBox="0.00 0.00 184.50 117.00" xmlns="http://www.w3.org/2000/svg" xmlns:xlink="http://www.w3.org/1999/xlink">
<g id="graph0" class="graph" transform="scale(1 1) rotate(0) translate(4 113)">
<title>FTensor::generic_minus_Tensor1&lt; A, T, U, Dim, i &gt;</title>
<polygon fill="white" stroke="transparent" points="-4,4 -4,-113 180.5,-113 180.5,4 -4,4"/>
<!-- Node1 -->
<g id="node1" class="node">
<title>Node1</title>
<g id="a_node1"><a xlink:title=" ">
<polygon fill="#bfbfbf" stroke="black" points="0,-0.5 0,-30.5 149,-30.5 149,-0.5 0,-0.5"/>
<text text-anchor="start" x="8" y="-18.5" font-family="Helvetica,sans-Serif" font-size="10.00">FTensor::generic_minus</text>
<text text-anchor="middle" x="74.5" y="-7.5" font-family="Helvetica,sans-Serif" font-size="10.00">_Tensor1&lt; A, T, U, Dim, i &gt;</text>
</a>
</g>
</g>
<!-- Node2 -->
<g id="node2" class="node">
<title>Node2</title>
<g id="a_node2"><a xlink:title=" ">
<polygon fill="white" stroke="#bfbfbf" points="15,-84 15,-103 44,-103 44,-84 15,-84"/>
<text text-anchor="middle" x="29.5" y="-91" font-family="Helvetica,sans-Serif" font-size="10.00">U</text>
</a>
</g>
</g>
<!-- Node2&#45;&gt;Node1 -->
<g id="edge1" class="edge">
<title>Node2&#45;&gt;Node1</title>
<path fill="none" stroke="#9a32cd" stroke-dasharray="5,2" d="M39.88,-74.97C47.87,-61.47 58.78,-43.05 66.2,-30.52"/>
<polygon fill="#9a32cd" stroke="#9a32cd" points="36.75,-73.39 34.66,-83.78 42.77,-76.96 36.75,-73.39"/>
<text text-anchor="middle" x="60.5" y="-52" font-family="Helvetica,sans-Serif" font-size="10.00"> d</text>
</g>
<!-- Node3 -->
<g id="node3" class="node">
<title>Node3</title>
<g id="a_node3"><a xlink:title=" ">
<polygon fill="white" stroke="#bfbfbf" points="62.5,-78.5 62.5,-108.5 176.5,-108.5 176.5,-78.5 62.5,-78.5"/>
<text text-anchor="start" x="70.5" y="-96.5" font-family="Helvetica,sans-Serif" font-size="10.00">Tensor1_Expr&lt; A, T,</text>
<text text-anchor="middle" x="119.5" y="-85.5" font-family="Helvetica,sans-Serif" font-size="10.00"> Dim, i &gt;</text>
</a>
</g>
</g>
<!-- Node3&#45;&gt;Node1 -->
<g id="edge2" class="edge">
<title>Node3&#45;&gt;Node1</title>
<path fill="none" stroke="#9a32cd" stroke-dasharray="5,2" d="M105.93,-69.57C98.44,-56.94 89.39,-41.65 82.93,-30.73"/>
<polygon fill="#9a32cd" stroke="#9a32cd" points="102.93,-71.38 111.04,-78.2 108.95,-67.82 102.93,-71.38"/>
<text text-anchor="middle" x="113" y="-52" font-family="Helvetica,sans-Serif" font-size="10.00"> iterA</text>
</g>
</g>
</svg>
