<?xml version="1.0" encoding="UTF-8" standalone="no"?>
<!DOCTYPE svg PUBLIC "-//W3C//DTD SVG 1.1//EN"
 "http://www.w3.org/Graphics/SVG/1.1/DTD/svg11.dtd">
<!-- Generated by graphviz version 2.43.0 (0)
 -->
<!-- Title: FTensor::Tensor3_times_Tensor3_23_23&lt; A, B, T, U, Dim14, Dim25, Dim0, Dim3, i, j, k, l &gt; Pages: 1 -->
<svg width="722pt" height="137pt"
 viewBox="0.00 0.00 722.00 137.00" xmlns="http://www.w3.org/2000/svg" xmlns:xlink="http://www.w3.org/1999/xlink">
<g id="graph0" class="graph" transform="scale(1 1) rotate(0) translate(4 133)">
<title>FTensor::Tensor3_times_Tensor3_23_23&lt; A, B, T, U, Dim14, Dim25, Dim0, Dim3, i, j, k, l &gt;</title>
<polygon fill="white" stroke="transparent" points="-4,4 -4,-133 718,-133 718,4 -4,4"/>
<!-- Node1 -->
<g id="node1" class="node">
<title>Node1</title>
<g id="a_node1"><a xlink:title=" ">
<polygon fill="#bfbfbf" stroke="black" points="563,-25 563,-77 714,-77 714,-25 563,-25"/>
<text text-anchor="start" x="571" y="-65" font-family="Helvetica,sans-Serif" font-size="10.00">FTensor::Tensor3_times</text>
<text text-anchor="start" x="571" y="-54" font-family="Helvetica,sans-Serif" font-size="10.00">_Tensor3_23_23&lt; A, B,</text>
<text text-anchor="start" x="571" y="-43" font-family="Helvetica,sans-Serif" font-size="10.00"> T, U, Dim14, Dim25, Dim0,</text>
<text text-anchor="middle" x="638.5" y="-32" font-family="Helvetica,sans-Serif" font-size="10.00"> Dim3, i, j, k, l &gt;</text>
</a>
</g>
</g>
<!-- Node2 -->
<g id="node2" class="node">
<title>Node2</title>
<g id="a_node2"><a xlink:href="classFTensor_1_1Tensor3__Expr.html" target="_top" xlink:title=" ">
<polygon fill="white" stroke="black" points="376,-60.5 376,-101.5 500,-101.5 500,-60.5 376,-60.5"/>
<text text-anchor="start" x="384" y="-89.5" font-family="Helvetica,sans-Serif" font-size="10.00">FTensor::Tensor3_Expr</text>
<text text-anchor="start" x="384" y="-78.5" font-family="Helvetica,sans-Serif" font-size="10.00">&lt; B, U, Dim3, Dim14,</text>
<text text-anchor="middle" x="438" y="-67.5" font-family="Helvetica,sans-Serif" font-size="10.00"> Dim25, l, i, j &gt;</text>
</a>
</g>
</g>
<!-- Node2&#45;&gt;Node1 -->
<g id="edge1" class="edge">
<title>Node2&#45;&gt;Node1</title>
<path fill="none" stroke="#9a32cd" stroke-dasharray="5,2" d="M510.11,-70.25C527.24,-67.66 545.6,-64.89 562.89,-62.28"/>
<polygon fill="#9a32cd" stroke="#9a32cd" points="509.54,-66.8 500.18,-71.75 510.59,-73.72 509.54,-66.8"/>
<text text-anchor="middle" x="531.5" y="-71" font-family="Helvetica,sans-Serif" font-size="10.00"> iterB</text>
</g>
<!-- Node3 -->
<g id="node3" class="node">
<title>Node3</title>
<g id="a_node3"><a xlink:title=" ">
<polygon fill="white" stroke="#bfbfbf" points="143.5,-109.5 143.5,-128.5 172.5,-128.5 172.5,-109.5 143.5,-109.5"/>
<text text-anchor="middle" x="158" y="-116.5" font-family="Helvetica,sans-Serif" font-size="10.00">B</text>
</a>
</g>
</g>
<!-- Node3&#45;&gt;Node2 -->
<g id="edge2" class="edge">
<title>Node3&#45;&gt;Node2</title>
<path fill="none" stroke="#9a32cd" stroke-dasharray="5,2" d="M182.93,-116.8C220.38,-113.23 295.06,-105.6 358,-96 363.8,-95.12 369.82,-94.12 375.83,-93.07"/>
<polygon fill="#9a32cd" stroke="#9a32cd" points="182.19,-113.35 172.56,-117.78 182.84,-120.32 182.19,-113.35"/>
<text text-anchor="middle" x="303.5" y="-112" font-family="Helvetica,sans-Serif" font-size="10.00"> iter</text>
</g>
<!-- Node4 -->
<g id="node4" class="node">
<title>Node4</title>
<g id="a_node4"><a xlink:href="classFTensor_1_1Tensor3__Expr.html" target="_top" xlink:title=" ">
<polygon fill="white" stroke="black" points="85,-25.5 85,-66.5 231,-66.5 231,-25.5 85,-25.5"/>
<text text-anchor="start" x="93" y="-54.5" font-family="Helvetica,sans-Serif" font-size="10.00">FTensor::Tensor3_Expr</text>
<text text-anchor="start" x="93" y="-43.5" font-family="Helvetica,sans-Serif" font-size="10.00">&lt; A, T, Dim0, Dim1, Dim2,</text>
<text text-anchor="middle" x="158" y="-32.5" font-family="Helvetica,sans-Serif" font-size="10.00"> i, j, k &gt;</text>
</a>
</g>
</g>
<!-- Node4&#45;&gt;Node2 -->
<g id="edge3" class="edge">
<title>Node4&#45;&gt;Node2</title>
<path fill="none" stroke="orange" stroke-dasharray="5,2" d="M241.5,-56.39C284.59,-61.81 336.41,-68.34 375.87,-73.3"/>
<polygon fill="orange" stroke="orange" points="241.67,-52.88 231.32,-55.1 240.8,-59.83 241.67,-52.88"/>
<text text-anchor="start" x="249" y="-84" font-family="Helvetica,sans-Serif" font-size="10.00"> &lt; B, U, Dim3, Dim14,</text>
<text text-anchor="middle" x="303.5" y="-73" font-family="Helvetica,sans-Serif" font-size="10.00"> Dim25, l, i, j &gt;</text>
</g>
<!-- Node6 -->
<g id="node6" class="node">
<title>Node6</title>
<g id="a_node6"><a xlink:href="classFTensor_1_1Tensor3__Expr.html" target="_top" xlink:title=" ">
<polygon fill="white" stroke="black" points="376,-0.5 376,-41.5 500,-41.5 500,-0.5 376,-0.5"/>
<text text-anchor="start" x="384" y="-29.5" font-family="Helvetica,sans-Serif" font-size="10.00">FTensor::Tensor3_Expr</text>
<text text-anchor="start" x="384" y="-18.5" font-family="Helvetica,sans-Serif" font-size="10.00">&lt; A, T, Dim0, Dim14,</text>
<text text-anchor="middle" x="438" y="-7.5" font-family="Helvetica,sans-Serif" font-size="10.00"> Dim25, k, i, j &gt;</text>
</a>
</g>
</g>
<!-- Node4&#45;&gt;Node6 -->
<g id="edge7" class="edge">
<title>Node4&#45;&gt;Node6</title>
<path fill="none" stroke="orange" stroke-dasharray="5,2" d="M241.25,-30.94C243.86,-30.6 246.45,-30.29 249,-30 291.21,-25.26 339.03,-23.01 375.88,-21.95"/>
<polygon fill="orange" stroke="orange" points="240.52,-27.51 231.09,-32.35 241.48,-34.44 240.52,-27.51"/>
<text text-anchor="start" x="250" y="-44" font-family="Helvetica,sans-Serif" font-size="10.00"> &lt; A, T, Dim0, Dim14,</text>
<text text-anchor="middle" x="303.5" y="-33" font-family="Helvetica,sans-Serif" font-size="10.00"> Dim25, k, i, j &gt;</text>
</g>
<!-- Node5 -->
<g id="node5" class="node">
<title>Node5</title>
<g id="a_node5"><a xlink:title=" ">
<polygon fill="white" stroke="#bfbfbf" points="0,-6.5 0,-25.5 29,-25.5 29,-6.5 0,-6.5"/>
<text text-anchor="middle" x="14.5" y="-13.5" font-family="Helvetica,sans-Serif" font-size="10.00">A</text>
</a>
</g>
</g>
<!-- Node5&#45;&gt;Node4 -->
<g id="edge4" class="edge">
<title>Node5&#45;&gt;Node4</title>
<path fill="none" stroke="#9a32cd" stroke-dasharray="5,2" d="M39.18,-21.02C51.88,-23.71 68.27,-27.19 84.77,-30.69"/>
<polygon fill="#9a32cd" stroke="#9a32cd" points="39.58,-17.53 29.07,-18.88 38.12,-24.37 39.58,-17.53"/>
<text text-anchor="middle" x="57" y="-29" font-family="Helvetica,sans-Serif" font-size="10.00"> iter</text>
</g>
<!-- Node5&#45;&gt;Node6 -->
<g id="edge6" class="edge">
<title>Node5&#45;&gt;Node6</title>
<path fill="none" stroke="#9a32cd" stroke-dasharray="5,2" d="M38.86,-11.36C52.3,-8.93 69.53,-6.22 85,-5 186.85,3.01 305.61,-6.24 375.88,-13.64"/>
<polygon fill="#9a32cd" stroke="#9a32cd" points="38.19,-7.93 29.01,-13.22 39.48,-14.81 38.19,-7.93"/>
<text text-anchor="middle" x="158" y="-8" font-family="Helvetica,sans-Serif" font-size="10.00"> iter</text>
</g>
<!-- Node6&#45;&gt;Node1 -->
<g id="edge5" class="edge">
<title>Node6&#45;&gt;Node1</title>
<path fill="none" stroke="#9a32cd" stroke-dasharray="5,2" d="M510.11,-31.75C527.24,-34.34 545.6,-37.11 562.89,-39.72"/>
<polygon fill="#9a32cd" stroke="#9a32cd" points="510.59,-28.28 500.18,-30.25 509.54,-35.2 510.59,-28.28"/>
<text text-anchor="middle" x="531.5" y="-39" font-family="Helvetica,sans-Serif" font-size="10.00"> iterA</text>
</g>
</g>
</svg>
