<?xml version="1.0" encoding="UTF-8" standalone="no"?>
<!DOCTYPE svg PUBLIC "-//W3C//DTD SVG 1.1//EN"
 "http://www.w3.org/Graphics/SVG/1.1/DTD/svg11.dtd">
<!-- Generated by graphviz version 9.0.0 (20230911.1827)
 -->
<!-- Title: FTensor::Dg_times_Tensor2_0&lt; A, B, T, U, Dim01, Dim2, Dim3, i, j, k, l &gt; Pages: 1 -->
<svg width="675pt" height="111pt"
 viewBox="0.00 0.00 675.05 110.50" xmlns="http://www.w3.org/2000/svg" xmlns:xlink="http://www.w3.org/1999/xlink">
<g id="graph0" class="graph" transform="scale(1 1) rotate(0) translate(4 106.5)">
<title>FTensor::Dg_times_Tensor2_0&lt; A, B, T, U, Dim01, Dim2, Dim3, i, j, k, l &gt;</title>
<!-- Node1 -->
<g id="node1" class="node">
<title>Node1</title>
<g id="a_node1"><a xlink:title=" ">
<polygon fill="#999999" stroke="#666666" points="667.05,-84.12 528.05,-84.12 528.05,-42.38 667.05,-42.38 667.05,-84.12"/>
<text text-anchor="start" x="536.05" y="-70.62" font-family="Helvetica,sans-Serif" font-size="10.00">FTensor::Dg_times_Tensor2</text>
<text text-anchor="start" x="536.05" y="-59.38" font-family="Helvetica,sans-Serif" font-size="10.00">_0&lt; A, B, T, U, Dim01,</text>
<text text-anchor="middle" x="597.55" y="-48.12" font-family="Helvetica,sans-Serif" font-size="10.00"> Dim2, Dim3, i, j, k, l &gt;</text>
</a>
</g>
</g>
<!-- Node2 -->
<g id="node2" class="node">
<title>Node2</title>
<g id="a_node2"><a xlink:title=" ">
<polygon fill="white" stroke="#666666" points="461.3,-102.5 344.05,-102.5 344.05,-72 461.3,-72 461.3,-102.5"/>
<text text-anchor="start" x="352.05" y="-89" font-family="Helvetica,sans-Serif" font-size="10.00">Dg_Expr&lt; A, T, Dim01,</text>
<text text-anchor="middle" x="402.67" y="-77.75" font-family="Helvetica,sans-Serif" font-size="10.00"> Dim2, i, j, k &gt;</text>
</a>
</g>
</g>
<!-- Node2&#45;&gt;Node1 -->
<g id="edge1" class="edge">
<title>Node2&#45;&gt;Node1</title>
<path fill="none" stroke="#9a32cd" stroke-dasharray="5,2" d="M472.79,-78.65C490.69,-76.42 509.96,-74.02 527.85,-71.8"/>
<polygon fill="#9a32cd" stroke="#9a32cd" points="472.54,-75.15 463.05,-79.86 473.4,-82.1 472.54,-75.15"/>
<text text-anchor="middle" x="498.42" y="-78" font-family="Helvetica,sans-Serif" font-size="10.00"> iterA</text>
</g>
<!-- Node3 -->
<g id="node3" class="node">
<title>Node3</title>
<g id="a_node3"><a xlink:href="class_f_tensor_1_1_tensor2___expr.html" target="_top" xlink:title=" ">
<polygon fill="white" stroke="#666666" points="468.8,-53.5 336.55,-53.5 336.55,-23 468.8,-23 468.8,-53.5"/>
<text text-anchor="start" x="344.55" y="-40" font-family="Helvetica,sans-Serif" font-size="10.00">FTensor::Tensor2_Expr</text>
<text text-anchor="middle" x="402.67" y="-28.75" font-family="Helvetica,sans-Serif" font-size="10.00">&lt; B, U, Dim2, Dim3, k, l &gt;</text>
</a>
</g>
</g>
<!-- Node3&#45;&gt;Node1 -->
<g id="edge2" class="edge">
<title>Node3&#45;&gt;Node1</title>
<path fill="none" stroke="#9a32cd" stroke-dasharray="5,2" d="M480.49,-48.21C496.15,-50.24 512.52,-52.36 527.87,-54.35"/>
<polygon fill="#9a32cd" stroke="#9a32cd" points="481.11,-44.76 470.74,-46.94 480.21,-51.7 481.11,-44.76"/>
<text text-anchor="middle" x="498.42" y="-54" font-family="Helvetica,sans-Serif" font-size="10.00"> iterB</text>
</g>
<!-- Node4 -->
<g id="node4" class="node">
<title>Node4</title>
<g id="a_node4"><a xlink:href="class_b.html" target="_top" xlink:title=" ">
<polygon fill="white" stroke="#666666" points="158.45,-70.88 129.65,-70.88 129.65,-51.62 158.45,-51.62 158.45,-70.88"/>
<text text-anchor="middle" x="144.05" y="-57.38" font-family="Helvetica,sans-Serif" font-size="10.00">B</text>
</a>
</g>
</g>
<!-- Node4&#45;&gt;Node3 -->
<g id="edge3" class="edge">
<title>Node4&#45;&gt;Node3</title>
<path fill="none" stroke="#9a32cd" stroke-dasharray="5,2" d="M169.86,-59.03C207.89,-55.62 281.86,-48.99 336.06,-44.13"/>
<polygon fill="#9a32cd" stroke="#9a32cd" points="170,-55.5 160.35,-59.88 170.63,-62.47 170,-55.5"/>
<text text-anchor="middle" x="271.67" y="-56" font-family="Helvetica,sans-Serif" font-size="10.00"> iter</text>
</g>
<!-- Node5 -->
<g id="node5" class="node">
<title>Node5</title>
<g id="a_node5"><a xlink:href="class_f_tensor_1_1_tensor2___expr.html" target="_top" xlink:title=" ">
<polygon fill="white" stroke="#666666" points="206.8,-30.5 81.3,-30.5 81.3,0 206.8,0 206.8,-30.5"/>
<text text-anchor="start" x="89.3" y="-17" font-family="Helvetica,sans-Serif" font-size="10.00">FTensor::Tensor2_Expr</text>
<text text-anchor="middle" x="144.05" y="-5.75" font-family="Helvetica,sans-Serif" font-size="10.00">&lt; A, T, Dim0, Dim1, i, j &gt;</text>
</a>
</g>
</g>
<!-- Node5&#45;&gt;Node3 -->
<g id="edge4" class="edge">
<title>Node5&#45;&gt;Node3</title>
<path fill="none" stroke="orange" stroke-dasharray="5,2" d="M218.25,-14.72C249.28,-15.24 285.77,-16.81 318.55,-20.75 324.26,-21.44 330.16,-22.32 336.06,-23.32"/>
<polygon fill="orange" stroke="orange" points="218.64,-11.23 208.59,-14.6 218.55,-18.23 218.64,-11.23"/>
<text text-anchor="start" x="224.8" y="-34.25" font-family="Helvetica,sans-Serif" font-size="10.00"> &lt; B, U, Dim2, Dim3,</text>
<text text-anchor="middle" x="271.67" y="-23" font-family="Helvetica,sans-Serif" font-size="10.00"> k, l &gt;</text>
</g>
<!-- Node6 -->
<g id="node6" class="node">
<title>Node6</title>
<g id="a_node6"><a xlink:title=" ">
<polygon fill="white" stroke="#666666" points="28.8,-24.88 0,-24.88 0,-5.62 28.8,-5.62 28.8,-24.88"/>
<text text-anchor="middle" x="14.4" y="-11.38" font-family="Helvetica,sans-Serif" font-size="10.00">A</text>
</a>
</g>
</g>
<!-- Node6&#45;&gt;Node5 -->
<g id="edge5" class="edge">
<title>Node6&#45;&gt;Node5</title>
<path fill="none" stroke="#9a32cd" stroke-dasharray="5,2" d="M40.53,-15.25C52.23,-15.25 66.72,-15.25 81.09,-15.25"/>
<polygon fill="#9a32cd" stroke="#9a32cd" points="40.57,-11.75 30.57,-15.25 40.57,-18.75 40.57,-11.75"/>
<text text-anchor="middle" x="55.05" y="-17" font-family="Helvetica,sans-Serif" font-size="10.00"> iter</text>
</g>
</g>
</svg>
