<?xml version="1.0" encoding="UTF-8" standalone="no"?>
<!DOCTYPE svg PUBLIC "-//W3C//DTD SVG 1.1//EN"
 "http://www.w3.org/Graphics/SVG/1.1/DTD/svg11.dtd">
<!-- Generated by graphviz version 9.0.0 (20230911.1827)
 -->
<!-- Title: FTensor::Tensor2_symmetric_carat_Tensor2&lt; A, B, T, U, Dim, Dim, Dim, j, i, k, j &gt; Pages: 1 -->
<svg width="722pt" height="152pt"
 viewBox="0.00 0.00 722.30 151.88" xmlns="http://www.w3.org/2000/svg" xmlns:xlink="http://www.w3.org/1999/xlink">
<g id="graph0" class="graph" transform="scale(1 1) rotate(0) translate(4 147.88)">
<title>FTensor::Tensor2_symmetric_carat_Tensor2&lt; A, B, T, U, Dim, Dim, Dim, j, i, k, j &gt;</title>
<!-- Node1 -->
<g id="node1" class="node">
<title>Node1</title>
<g id="a_node1"><a xlink:title=" ">
<polygon fill="#999999" stroke="#666666" points="714.3,-97.5 570.8,-97.5 570.8,-55.75 714.3,-55.75 714.3,-97.5"/>
<text text-anchor="start" x="578.8" y="-84" font-family="Helvetica,sans-Serif" font-size="10.00">FTensor::Tensor2_symmetric</text>
<text text-anchor="start" x="578.8" y="-72.75" font-family="Helvetica,sans-Serif" font-size="10.00">_carat_Tensor2&lt; A, B, T,</text>
<text text-anchor="middle" x="642.55" y="-61.5" font-family="Helvetica,sans-Serif" font-size="10.00"> U, Dim, Dim, Dim, j, i, k, j &gt;</text>
</a>
</g>
</g>
<!-- Node2 -->
<g id="node2" class="node">
<title>Node2</title>
<g id="a_node2"><a xlink:href="class_f_tensor_1_1_tensor2__symmetric___expr.html" target="_top" xlink:title=" ">
<polygon fill="white" stroke="#666666" points="511.55,-116.88 368.8,-116.88 368.8,-86.38 511.55,-86.38 511.55,-116.88"/>
<text text-anchor="start" x="376.8" y="-103.38" font-family="Helvetica,sans-Serif" font-size="10.00">FTensor::Tensor2_symmetric</text>
<text text-anchor="middle" x="440.17" y="-92.12" font-family="Helvetica,sans-Serif" font-size="10.00">_Expr&lt; A, T, Dim, j, i &gt;</text>
</a>
</g>
</g>
<!-- Node2&#45;&gt;Node1 -->
<g id="edge1" class="edge">
<title>Node2&#45;&gt;Node1</title>
<path fill="none" stroke="#9a32cd" stroke-dasharray="5,2" d="M523.13,-91.4C538.85,-89.44 555.19,-87.4 570.53,-85.49"/>
<polygon fill="#9a32cd" stroke="#9a32cd" points="522.81,-87.91 513.32,-92.62 523.68,-94.86 522.81,-87.91"/>
<text text-anchor="middle" x="541.17" y="-91.38" font-family="Helvetica,sans-Serif" font-size="10.00"> iterA</text>
</g>
<!-- Node3 -->
<g id="node3" class="node">
<title>Node3</title>
<g id="a_node3"><a xlink:title=" ">
<polygon fill="white" stroke="#666666" points="28.8,-111.25 0,-111.25 0,-92 28.8,-92 28.8,-111.25"/>
<text text-anchor="middle" x="14.4" y="-97.75" font-family="Helvetica,sans-Serif" font-size="10.00">A</text>
</a>
</g>
</g>
<!-- Node3&#45;&gt;Node2 -->
<g id="edge2" class="edge">
<title>Node3&#45;&gt;Node2</title>
<path fill="none" stroke="#9a32cd" stroke-dasharray="5,2" d="M39.5,-113.7C41.94,-114.75 44.4,-115.75 46.8,-116.62 61.68,-122.06 65.58,-123.61 81.3,-125.62 200.17,-140.87 231.81,-130.91 350.8,-116.62 356.52,-115.94 362.43,-115.14 368.36,-114.27"/>
<polygon fill="#9a32cd" stroke="#9a32cd" points="41.14,-110.6 30.6,-109.57 38.19,-116.95 41.14,-110.6"/>
<text text-anchor="middle" x="152.67" y="-134.38" font-family="Helvetica,sans-Serif" font-size="10.00"> iter</text>
</g>
<!-- Node4 -->
<g id="node4" class="node">
<title>Node4</title>
<g id="a_node4"><a xlink:href="class_f_tensor_1_1_tensor2__symmetric___expr.html" target="_top" xlink:title=" ">
<polygon fill="white" stroke="#666666" points="224.05,-116.88 81.3,-116.88 81.3,-86.38 224.05,-86.38 224.05,-116.88"/>
<text text-anchor="start" x="89.3" y="-103.38" font-family="Helvetica,sans-Serif" font-size="10.00">FTensor::Tensor2_symmetric</text>
<text text-anchor="middle" x="152.67" y="-92.12" font-family="Helvetica,sans-Serif" font-size="10.00">_Expr&lt; A, T, Dim, i, j &gt;</text>
</a>
</g>
</g>
<!-- Node3&#45;&gt;Node4 -->
<g id="edge4" class="edge">
<title>Node3&#45;&gt;Node4</title>
<path fill="none" stroke="#9a32cd" stroke-dasharray="5,2" d="M40.54,-101.62C52.09,-101.62 66.44,-101.62 80.95,-101.62"/>
<polygon fill="#9a32cd" stroke="#9a32cd" points="40.73,-98.13 30.73,-101.63 40.73,-105.13 40.73,-98.13"/>
<text text-anchor="middle" x="55.05" y="-103.38" font-family="Helvetica,sans-Serif" font-size="10.00"> iter</text>
</g>
<!-- Node7 -->
<g id="node7" class="node">
<title>Node7</title>
<g id="a_node7"><a xlink:href="class_f_tensor_1_1_tensor2___expr.html" target="_top" xlink:title=" ">
<polygon fill="white" stroke="#666666" points="215.42,-67.88 89.92,-67.88 89.92,-37.38 215.42,-37.38 215.42,-67.88"/>
<text text-anchor="start" x="97.92" y="-54.38" font-family="Helvetica,sans-Serif" font-size="10.00">FTensor::Tensor2_Expr</text>
<text text-anchor="middle" x="152.67" y="-43.12" font-family="Helvetica,sans-Serif" font-size="10.00">&lt; A, T, Dim0, Dim1, i, j &gt;</text>
</a>
</g>
</g>
<!-- Node3&#45;&gt;Node7 -->
<g id="edge8" class="edge">
<title>Node3&#45;&gt;Node7</title>
<path fill="none" stroke="#9a32cd" stroke-dasharray="5,2" d="M39.55,-89.48C41.98,-88.38 44.42,-87.33 46.8,-86.38 63.13,-79.82 81.27,-73.62 97.8,-68.36"/>
<polygon fill="#9a32cd" stroke="#9a32cd" points="38.17,-86.26 30.64,-93.71 41.18,-92.58 38.17,-86.26"/>
<text text-anchor="middle" x="55.05" y="-87.38" font-family="Helvetica,sans-Serif" font-size="10.00"> iter</text>
</g>
<!-- Node4&#45;&gt;Node2 -->
<g id="edge3" class="edge">
<title>Node4&#45;&gt;Node2</title>
<path fill="none" stroke="orange" stroke-dasharray="5,2" d="M235.56,-101.62C277.54,-101.62 328.16,-101.62 368.42,-101.62"/>
<polygon fill="orange" stroke="orange" points="235.76,-98.13 225.76,-101.63 235.76,-105.13 235.76,-98.13"/>
<text text-anchor="middle" x="296.42" y="-103.38" font-family="Helvetica,sans-Serif" font-size="10.00"> &lt; A, T, Dim, j, i &gt;</text>
</g>
<!-- Node5 -->
<g id="node5" class="node">
<title>Node5</title>
<g id="a_node5"><a xlink:href="class_f_tensor_1_1_tensor2___expr.html" target="_top" xlink:title=" ">
<polygon fill="white" stroke="#666666" points="501.05,-67.88 379.3,-67.88 379.3,-37.38 501.05,-37.38 501.05,-67.88"/>
<text text-anchor="start" x="387.3" y="-54.38" font-family="Helvetica,sans-Serif" font-size="10.00">FTensor::Tensor2_Expr</text>
<text text-anchor="middle" x="440.17" y="-43.12" font-family="Helvetica,sans-Serif" font-size="10.00">&lt; B, U, Dim, Dim, k, j &gt;</text>
</a>
</g>
</g>
<!-- Node5&#45;&gt;Node1 -->
<g id="edge5" class="edge">
<title>Node5&#45;&gt;Node1</title>
<path fill="none" stroke="#9a32cd" stroke-dasharray="5,2" d="M512.56,-59.79C525.94,-61.23 539.8,-62.79 552.8,-64.38 558.51,-65.07 564.43,-65.82 570.37,-66.59"/>
<polygon fill="#9a32cd" stroke="#9a32cd" points="513.28,-56.35 502.97,-58.77 512.54,-63.31 513.28,-56.35"/>
<text text-anchor="middle" x="541.17" y="-65.38" font-family="Helvetica,sans-Serif" font-size="10.00"> iterB</text>
</g>
<!-- Node6 -->
<g id="node6" class="node">
<title>Node6</title>
<g id="a_node6"><a xlink:href="class_b.html" target="_top" xlink:title=" ">
<polygon fill="white" stroke="#666666" points="167.07,-19.25 138.27,-19.25 138.27,0 167.07,0 167.07,-19.25"/>
<text text-anchor="middle" x="152.67" y="-5.75" font-family="Helvetica,sans-Serif" font-size="10.00">B</text>
</a>
</g>
</g>
<!-- Node6&#45;&gt;Node5 -->
<g id="edge6" class="edge">
<title>Node6&#45;&gt;Node5</title>
<path fill="none" stroke="#9a32cd" stroke-dasharray="5,2" d="M178.86,-12.92C216.38,-17.88 289.14,-27.72 350.8,-37.38 359.88,-38.8 369.46,-40.37 378.84,-41.96"/>
<polygon fill="#9a32cd" stroke="#9a32cd" points="179.43,-9.46 169.06,-11.63 178.52,-16.4 179.43,-9.46"/>
<text text-anchor="middle" x="296.42" y="-39.38" font-family="Helvetica,sans-Serif" font-size="10.00"> iter</text>
</g>
<!-- Node7&#45;&gt;Node5 -->
<g id="edge7" class="edge">
<title>Node7&#45;&gt;Node5</title>
<path fill="none" stroke="orange" stroke-dasharray="5,2" d="M226.98,-52.62C274.08,-52.62 334.5,-52.62 378.82,-52.62"/>
<polygon fill="orange" stroke="orange" points="227.14,-49.13 217.14,-52.63 227.14,-56.13 227.14,-49.13"/>
<text text-anchor="middle" x="296.42" y="-54.38" font-family="Helvetica,sans-Serif" font-size="10.00"> &lt; B, U, Dim, Dim, k, j &gt;</text>
</g>
</g>
</svg>
