<?xml version="1.0" encoding="UTF-8" standalone="no"?>
<!DOCTYPE svg PUBLIC "-//W3C//DTD SVG 1.1//EN"
 "http://www.w3.org/Graphics/SVG/1.1/DTD/svg11.dtd">
<!-- Generated by graphviz version 9.0.0 (20230911.1827)
 -->
<!-- Title: FTensor::Christof&lt; PackPtr&lt; T *, I &gt;, Tensor_Dim0, Tensor_Dim12 &gt; Pages: 1 -->
<svg width="139pt" height="206pt"
 viewBox="0.00 0.00 138.75 206.25" xmlns="http://www.w3.org/2000/svg" xmlns:xlink="http://www.w3.org/1999/xlink">
<g id="graph0" class="graph" transform="scale(1 1) rotate(0) translate(4 202.25)">
<title>FTensor::Christof&lt; PackPtr&lt; T *, I &gt;, Tensor_Dim0, Tensor_Dim12 &gt;</title>
<!-- Node1 -->
<g id="node1" class="node">
<title>Node1</title>
<g id="a_node1"><a xlink:title=" ">
<polygon fill="#999999" stroke="#666666" points="121.38,-53 9.38,-53 9.38,0 121.38,0 121.38,-53"/>
<text text-anchor="start" x="17.38" y="-39.5" font-family="Helvetica,sans-Serif" font-size="10.00">FTensor::Christof&lt;</text>
<text text-anchor="start" x="17.38" y="-28.25" font-family="Helvetica,sans-Serif" font-size="10.00"> PackPtr&lt; T *, I &gt;,</text>
<text text-anchor="start" x="17.38" y="-17" font-family="Helvetica,sans-Serif" font-size="10.00"> Tensor_Dim0, Tensor</text>
<text text-anchor="middle" x="65.38" y="-5.75" font-family="Helvetica,sans-Serif" font-size="10.00">_Dim12 &gt;</text>
</a>
</g>
</g>
<!-- Node2 -->
<g id="node2" class="node">
<title>Node2</title>
<g id="a_node2"><a xlink:href="class_f_tensor_1_1_christof_3_01_t_01_5_00_01_tensor___dim0_00_01_tensor___dim12_01_4.html" target="_top" xlink:title=" ">
<polygon fill="white" stroke="#666666" points="130.75,-131.75 0,-131.75 0,-90 130.75,-90 130.75,-131.75"/>
<text text-anchor="start" x="8" y="-118.25" font-family="Helvetica,sans-Serif" font-size="10.00">FTensor::Christof&lt;</text>
<text text-anchor="start" x="8" y="-107" font-family="Helvetica,sans-Serif" font-size="10.00"> T *, Tensor_Dim0, Tensor</text>
<text text-anchor="middle" x="65.38" y="-95.75" font-family="Helvetica,sans-Serif" font-size="10.00">_Dim12 &gt;</text>
</a>
</g>
</g>
<!-- Node2&#45;&gt;Node1 -->
<g id="edge1" class="edge">
<title>Node2&#45;&gt;Node1</title>
<path fill="none" stroke="#63b8ff" d="M65.38,-78.03C65.38,-69.82 65.38,-61.09 65.38,-53.24"/>
<polygon fill="#63b8ff" stroke="#63b8ff" points="61.88,-78 65.38,-88 68.88,-78 61.88,-78"/>
</g>
<!-- Node3 -->
<g id="node3" class="node">
<title>Node3</title>
<g id="a_node3"><a xlink:title=" ">
<polygon fill="white" stroke="#666666" points="56.77,-198.25 27.98,-198.25 27.98,-179 56.77,-179 56.77,-198.25"/>
<text text-anchor="middle" x="42.38" y="-184.75" font-family="Helvetica,sans-Serif" font-size="10.00">int</text>
</a>
</g>
</g>
<!-- Node3&#45;&gt;Node2 -->
<g id="edge2" class="edge">
<title>Node3&#45;&gt;Node2</title>
<path fill="none" stroke="#9a32cd" stroke-dasharray="5,2" d="M46.82,-167.67C48.23,-161.86 49.88,-155.52 51.62,-149.75 53.37,-143.99 55.49,-137.83 57.54,-132.18"/>
<polygon fill="#9a32cd" stroke="#9a32cd" points="43.49,-166.51 44.65,-177.05 50.31,-168.09 43.49,-166.51"/>
<text text-anchor="middle" x="59.25" y="-151.5" font-family="Helvetica,sans-Serif" font-size="10.00"> inc</text>
</g>
<!-- Node4 -->
<g id="node4" class="node">
<title>Node4</title>
<g id="a_node4"><a xlink:title=" ">
<polygon fill="white" stroke="#666666" points="103.78,-198.25 74.97,-198.25 74.97,-179 103.78,-179 103.78,-198.25"/>
<text text-anchor="middle" x="89.38" y="-184.75" font-family="Helvetica,sans-Serif" font-size="10.00">T</text>
</a>
</g>
</g>
<!-- Node4&#45;&gt;Node2 -->
<g id="edge3" class="edge">
<title>Node4&#45;&gt;Node2</title>
<path fill="none" stroke="#9a32cd" stroke-dasharray="5,2" d="M83.05,-167.67C79.59,-156.74 75.31,-143.23 71.83,-132.24"/>
<polygon fill="#9a32cd" stroke="#9a32cd" points="79.71,-168.72 86.07,-177.2 86.39,-166.61 79.71,-168.72"/>
<text text-anchor="middle" x="91.25" y="-151.5" font-family="Helvetica,sans-Serif" font-size="10.00"> data</text>
</g>
</g>
</svg>
