<?xml version="1.0" encoding="UTF-8" standalone="no"?>
<!DOCTYPE svg PUBLIC "-//W3C//DTD SVG 1.1//EN"
 "http://www.w3.org/Graphics/SVG/1.1/DTD/svg11.dtd">
<!-- Generated by graphviz version 9.0.0 (20230911.1827)
 -->
<!-- Title: FTensor::Tensor3_times_Dg&lt; A, B, T, U, Dim0, Dim1, Dim2, Dim, i, j, k, l, m &gt; Pages: 1 -->
<svg width="655pt" height="181pt"
 viewBox="0.00 0.00 654.80 180.88" xmlns="http://www.w3.org/2000/svg" xmlns:xlink="http://www.w3.org/1999/xlink">
<g id="graph0" class="graph" transform="scale(1 1) rotate(0) translate(4 176.88)">
<title>FTensor::Tensor3_times_Dg&lt; A, B, T, U, Dim0, Dim1, Dim2, Dim, i, j, k, l, m &gt;</title>
<!-- Node1 -->
<g id="node1" class="node">
<title>Node1</title>
<g id="a_node1"><a xlink:title=" ">
<polygon fill="#999999" stroke="#666666" points="646.8,-115.12 525.8,-115.12 525.8,-62.12 646.8,-62.12 646.8,-115.12"/>
<text text-anchor="start" x="533.8" y="-101.62" font-family="Helvetica,sans-Serif" font-size="10.00">FTensor::Tensor3_times</text>
<text text-anchor="start" x="533.8" y="-90.38" font-family="Helvetica,sans-Serif" font-size="10.00">_Dg&lt; A, B, T, U, Dim0,</text>
<text text-anchor="start" x="533.8" y="-79.12" font-family="Helvetica,sans-Serif" font-size="10.00"> Dim1, Dim2, Dim, i, j,</text>
<text text-anchor="middle" x="586.3" y="-67.88" font-family="Helvetica,sans-Serif" font-size="10.00"> k, l, m &gt;</text>
</a>
</g>
</g>
<!-- Node2 -->
<g id="node2" class="node">
<title>Node2</title>
<g id="a_node2"><a xlink:href="class_f_tensor_1_1_tensor3___expr.html" target="_top" xlink:title=" ">
<polygon fill="white" stroke="#666666" points="466.55,-139.5 339.55,-139.5 339.55,-97.75 466.55,-97.75 466.55,-139.5"/>
<text text-anchor="start" x="347.55" y="-126" font-family="Helvetica,sans-Serif" font-size="10.00">FTensor::Tensor3_Expr</text>
<text text-anchor="start" x="347.55" y="-114.75" font-family="Helvetica,sans-Serif" font-size="10.00">&lt; A, T, Dim0, Dim1, Dim,</text>
<text text-anchor="middle" x="403.05" y="-103.5" font-family="Helvetica,sans-Serif" font-size="10.00"> i, j, k &gt;</text>
</a>
</g>
</g>
<!-- Node2&#45;&gt;Node1 -->
<g id="edge1" class="edge">
<title>Node2&#45;&gt;Node1</title>
<path fill="none" stroke="#9a32cd" stroke-dasharray="5,2" d="M478.25,-106.34C494.01,-103.74 510.45,-101.01 525.58,-98.51"/>
<polygon fill="#9a32cd" stroke="#9a32cd" points="477.72,-102.88 468.43,-107.97 478.86,-109.79 477.72,-102.88"/>
<text text-anchor="middle" x="496.17" y="-105.38" font-family="Helvetica,sans-Serif" font-size="10.00"> iterA</text>
</g>
<!-- Node3 -->
<g id="node3" class="node">
<title>Node3</title>
<g id="a_node3"><a xlink:title=" ">
<polygon fill="white" stroke="#666666" points="28.8,-128.25 0,-128.25 0,-109 28.8,-109 28.8,-128.25"/>
<text text-anchor="middle" x="14.4" y="-114.75" font-family="Helvetica,sans-Serif" font-size="10.00">A</text>
</a>
</g>
</g>
<!-- Node3&#45;&gt;Node2 -->
<g id="edge2" class="edge">
<title>Node3&#45;&gt;Node2</title>
<path fill="none" stroke="#9a32cd" stroke-dasharray="5,2" d="M38.97,-132.45C51.16,-138.78 66.55,-145.56 81.3,-148.62 185.85,-170.37 216.41,-164.29 321.55,-145.62 329.39,-144.23 337.5,-142.23 345.42,-139.93"/>
<polygon fill="#9a32cd" stroke="#9a32cd" points="40.95,-129.54 30.5,-127.82 37.6,-135.69 40.95,-129.54"/>
<text text-anchor="middle" x="147.42" y="-163.38" font-family="Helvetica,sans-Serif" font-size="10.00"> iter</text>
</g>
<!-- Node4 -->
<g id="node4" class="node">
<title>Node4</title>
<g id="a_node4"><a xlink:href="class_f_tensor_1_1_tensor3___expr.html" target="_top" xlink:title=" ">
<polygon fill="white" stroke="#666666" points="213.55,-139.5 81.3,-139.5 81.3,-97.75 213.55,-97.75 213.55,-139.5"/>
<text text-anchor="start" x="89.3" y="-126" font-family="Helvetica,sans-Serif" font-size="10.00">FTensor::Tensor3_Expr</text>
<text text-anchor="start" x="89.3" y="-114.75" font-family="Helvetica,sans-Serif" font-size="10.00">&lt; A, T, Dim0, Dim1, Dim2,</text>
<text text-anchor="middle" x="147.42" y="-103.5" font-family="Helvetica,sans-Serif" font-size="10.00"> i, j, k &gt;</text>
</a>
</g>
</g>
<!-- Node3&#45;&gt;Node4 -->
<g id="edge4" class="edge">
<title>Node3&#45;&gt;Node4</title>
<path fill="none" stroke="#9a32cd" stroke-dasharray="5,2" d="M40.3,-118.62C51.93,-118.62 66.37,-118.62 80.82,-118.62"/>
<polygon fill="#9a32cd" stroke="#9a32cd" points="40.44,-115.13 30.44,-118.63 40.44,-122.13 40.44,-115.13"/>
<text text-anchor="middle" x="55.05" y="-120.38" font-family="Helvetica,sans-Serif" font-size="10.00"> iter</text>
</g>
<!-- Node7 -->
<g id="node7" class="node">
<title>Node7</title>
<g id="a_node7"><a xlink:href="class_f_tensor_1_1_dg___expr.html" target="_top" xlink:title=" ">
<polygon fill="white" stroke="#666666" points="204.17,-79.5 90.67,-79.5 90.67,-37.75 204.17,-37.75 204.17,-79.5"/>
<text text-anchor="start" x="98.67" y="-66" font-family="Helvetica,sans-Serif" font-size="10.00">FTensor::Dg_Expr&lt; A,</text>
<text text-anchor="start" x="98.67" y="-54.75" font-family="Helvetica,sans-Serif" font-size="10.00"> T, Dim01, Dim2, i,</text>
<text text-anchor="middle" x="147.42" y="-43.5" font-family="Helvetica,sans-Serif" font-size="10.00"> j, k &gt;</text>
</a>
</g>
</g>
<!-- Node3&#45;&gt;Node7 -->
<g id="edge8" class="edge">
<title>Node3&#45;&gt;Node7</title>
<path fill="none" stroke="#9a32cd" stroke-dasharray="5,2" d="M39.24,-106.95C41.79,-105.73 44.34,-104.52 46.8,-103.38 63.46,-95.59 81.8,-87.28 98.15,-79.96"/>
<polygon fill="#9a32cd" stroke="#9a32cd" points="37.95,-103.69 30.48,-111.2 41,-109.99 37.95,-103.69"/>
<text text-anchor="middle" x="55.05" y="-104.38" font-family="Helvetica,sans-Serif" font-size="10.00"> iter</text>
</g>
<!-- Node4&#45;&gt;Node2 -->
<g id="edge3" class="edge">
<title>Node4&#45;&gt;Node2</title>
<path fill="none" stroke="orange" stroke-dasharray="5,2" d="M224.84,-118.62C261.37,-118.62 304.55,-118.62 339.14,-118.62"/>
<polygon fill="orange" stroke="orange" points="225.25,-115.13 215.25,-118.63 225.25,-122.13 225.25,-115.13"/>
<text text-anchor="start" x="231.55" y="-131.62" font-family="Helvetica,sans-Serif" font-size="10.00"> &lt; A, T, Dim0, Dim1,</text>
<text text-anchor="middle" x="276.55" y="-120.38" font-family="Helvetica,sans-Serif" font-size="10.00"> Dim, i, j, k &gt;</text>
</g>
<!-- Node5 -->
<g id="node5" class="node">
<title>Node5</title>
<g id="a_node5"><a xlink:href="class_f_tensor_1_1_dg___expr.html" target="_top" xlink:title=" ">
<polygon fill="white" stroke="#666666" points="464.3,-73.88 341.8,-73.88 341.8,-43.38 464.3,-43.38 464.3,-73.88"/>
<text text-anchor="start" x="349.8" y="-60.38" font-family="Helvetica,sans-Serif" font-size="10.00">FTensor::Dg_Expr&lt; B,</text>
<text text-anchor="middle" x="403.05" y="-49.12" font-family="Helvetica,sans-Serif" font-size="10.00"> U, Dim, Dim2, l, k, m &gt;</text>
</a>
</g>
</g>
<!-- Node5&#45;&gt;Node1 -->
<g id="edge5" class="edge">
<title>Node5&#45;&gt;Node1</title>
<path fill="none" stroke="#9a32cd" stroke-dasharray="5,2" d="M475.85,-70.51C492.25,-73.22 509.52,-76.08 525.37,-78.71"/>
<polygon fill="#9a32cd" stroke="#9a32cd" points="476.59,-67.08 466.15,-68.9 475.44,-73.99 476.59,-67.08"/>
<text text-anchor="middle" x="496.17" y="-76.38" font-family="Helvetica,sans-Serif" font-size="10.00"> iterB</text>
</g>
<!-- Node6 -->
<g id="node6" class="node">
<title>Node6</title>
<g id="a_node6"><a xlink:href="class_b.html" target="_top" xlink:title=" ">
<polygon fill="white" stroke="#666666" points="161.82,-19.25 133.02,-19.25 133.02,0 161.82,0 161.82,-19.25"/>
<text text-anchor="middle" x="147.42" y="-5.75" font-family="Helvetica,sans-Serif" font-size="10.00">B</text>
</a>
</g>
</g>
<!-- Node6&#45;&gt;Node5 -->
<g id="edge6" class="edge">
<title>Node6&#45;&gt;Node5</title>
<path fill="none" stroke="#9a32cd" stroke-dasharray="5,2" d="M173.24,-14.42C211.9,-21.89 287.66,-36.52 341.4,-46.91"/>
<polygon fill="#9a32cd" stroke="#9a32cd" points="174.03,-11.01 163.55,-12.55 172.7,-17.88 174.03,-11.01"/>
<text text-anchor="middle" x="276.55" y="-44.38" font-family="Helvetica,sans-Serif" font-size="10.00"> iter</text>
</g>
<!-- Node7&#45;&gt;Node5 -->
<g id="edge7" class="edge">
<title>Node7&#45;&gt;Node5</title>
<path fill="none" stroke="orange" stroke-dasharray="5,2" d="M215.9,-58.62C254.9,-58.62 303.56,-58.62 341.34,-58.62"/>
<polygon fill="orange" stroke="orange" points="215.91,-55.13 205.91,-58.63 215.91,-62.13 215.91,-55.13"/>
<text text-anchor="start" x="232.3" y="-71.62" font-family="Helvetica,sans-Serif" font-size="10.00"> &lt; B, U, Dim, Dim2,</text>
<text text-anchor="middle" x="276.55" y="-60.38" font-family="Helvetica,sans-Serif" font-size="10.00"> l, k, m &gt;</text>
</g>
</g>
</svg>
