<?xml version="1.0" encoding="UTF-8" standalone="no"?>
<!DOCTYPE svg PUBLIC "-//W3C//DTD SVG 1.1//EN"
 "http://www.w3.org/Graphics/SVG/1.1/DTD/svg11.dtd">
<!-- Generated by graphviz version 2.43.0 (0)
 -->
<!-- Title: FTensor::Dg_times_Tensor2_symmetric_1_1&lt; A, B, T, U, Dim01, Dim2, i, j, k, l &gt; Pages: 1 -->
<svg width="754pt" height="102pt"
 viewBox="0.00 0.00 754.00 101.50" xmlns="http://www.w3.org/2000/svg" xmlns:xlink="http://www.w3.org/1999/xlink">
<g id="graph0" class="graph" transform="scale(1 1) rotate(0) translate(4 97.5)">
<title>FTensor::Dg_times_Tensor2_symmetric_1_1&lt; A, B, T, U, Dim01, Dim2, i, j, k, l &gt;</title>
<polygon fill="white" stroke="transparent" points="-4,4 -4,-97.5 750,-97.5 750,4 -4,4"/>
<!-- Node1 -->
<g id="node1" class="node">
<title>Node1</title>
<g id="a_node1"><a xlink:title=" ">
<polygon fill="#bfbfbf" stroke="black" points="597,-12 597,-53 746,-53 746,-12 597,-12"/>
<text text-anchor="start" x="605" y="-41" font-family="Helvetica,sans-Serif" font-size="10.00">FTensor::Dg_times_Tensor2</text>
<text text-anchor="start" x="605" y="-30" font-family="Helvetica,sans-Serif" font-size="10.00">_symmetric_1_1&lt; A, B, T,</text>
<text text-anchor="middle" x="671.5" y="-19" font-family="Helvetica,sans-Serif" font-size="10.00"> U, Dim01, Dim2, i, j, k, l &gt;</text>
</a>
</g>
</g>
<!-- Node2 -->
<g id="node2" class="node">
<title>Node2</title>
<g id="a_node2"><a xlink:href="classFTensor_1_1Tensor2__symmetric__Expr.html" target="_top" xlink:title=" ">
<polygon fill="white" stroke="black" points="379,-49.5 379,-79.5 534,-79.5 534,-49.5 379,-49.5"/>
<text text-anchor="start" x="387" y="-67.5" font-family="Helvetica,sans-Serif" font-size="10.00">FTensor::Tensor2_symmetric</text>
<text text-anchor="middle" x="456.5" y="-56.5" font-family="Helvetica,sans-Serif" font-size="10.00">_Expr&lt; B, U, Dim01, l, j &gt;</text>
</a>
</g>
</g>
<!-- Node2&#45;&gt;Node1 -->
<g id="edge1" class="edge">
<title>Node2&#45;&gt;Node1</title>
<path fill="none" stroke="#9a32cd" stroke-dasharray="5,2" d="M544.25,-51.47C561.66,-48.85 579.8,-46.13 596.72,-43.58"/>
<polygon fill="#9a32cd" stroke="#9a32cd" points="543.47,-48.05 534.1,-52.99 544.51,-54.97 543.47,-48.05"/>
<text text-anchor="middle" x="565.5" y="-51.5" font-family="Helvetica,sans-Serif" font-size="10.00"> iterB</text>
</g>
<!-- Node3 -->
<g id="node3" class="node">
<title>Node3</title>
<g id="a_node3"><a xlink:title=" ">
<polygon fill="white" stroke="#bfbfbf" points="148,-74 148,-93 177,-93 177,-74 148,-74"/>
<text text-anchor="middle" x="162.5" y="-81" font-family="Helvetica,sans-Serif" font-size="10.00">B</text>
</a>
</g>
</g>
<!-- Node3&#45;&gt;Node2 -->
<g id="edge2" class="edge">
<title>Node3&#45;&gt;Node2</title>
<path fill="none" stroke="#9a32cd" stroke-dasharray="5,2" d="M187.36,-81.95C228.64,-79.26 315.08,-73.64 378.71,-69.5"/>
<polygon fill="#9a32cd" stroke="#9a32cd" points="186.94,-78.47 177.19,-82.61 187.4,-85.45 186.94,-78.47"/>
<text text-anchor="middle" x="309.5" y="-79.5" font-family="Helvetica,sans-Serif" font-size="10.00"> iter</text>
</g>
<!-- Node4 -->
<g id="node4" class="node">
<title>Node4</title>
<g id="a_node4"><a xlink:href="classFTensor_1_1Tensor2__symmetric__Expr.html" target="_top" xlink:title=" ">
<polygon fill="white" stroke="black" points="85,-24.5 85,-54.5 240,-54.5 240,-24.5 85,-24.5"/>
<text text-anchor="start" x="93" y="-42.5" font-family="Helvetica,sans-Serif" font-size="10.00">FTensor::Tensor2_symmetric</text>
<text text-anchor="middle" x="162.5" y="-31.5" font-family="Helvetica,sans-Serif" font-size="10.00">_Expr&lt; A, T, Dim, i, j &gt;</text>
</a>
</g>
</g>
<!-- Node4&#45;&gt;Node2 -->
<g id="edge3" class="edge">
<title>Node4&#45;&gt;Node2</title>
<path fill="none" stroke="orange" stroke-dasharray="5,2" d="M250.46,-46.28C284.89,-49.03 324.82,-52.31 361,-55.5 366.83,-56.01 372.86,-56.56 378.92,-57.11"/>
<polygon fill="orange" stroke="orange" points="250.68,-42.78 240.43,-45.48 250.12,-49.76 250.68,-42.78"/>
<text text-anchor="middle" x="309.5" y="-58.5" font-family="Helvetica,sans-Serif" font-size="10.00"> &lt; B, U, Dim01, l, j &gt;</text>
</g>
<!-- Node5 -->
<g id="node5" class="node">
<title>Node5</title>
<g id="a_node5"><a xlink:title=" ">
<polygon fill="white" stroke="#bfbfbf" points="0,-30 0,-49 29,-49 29,-30 0,-30"/>
<text text-anchor="middle" x="14.5" y="-37" font-family="Helvetica,sans-Serif" font-size="10.00">A</text>
</a>
</g>
</g>
<!-- Node5&#45;&gt;Node4 -->
<g id="edge4" class="edge">
<title>Node5&#45;&gt;Node4</title>
<path fill="none" stroke="#9a32cd" stroke-dasharray="5,2" d="M39.33,-39.5C52,-39.5 68.37,-39.5 84.98,-39.5"/>
<polygon fill="#9a32cd" stroke="#9a32cd" points="39.24,-36 29.24,-39.5 39.24,-43 39.24,-36"/>
<text text-anchor="middle" x="57" y="-42.5" font-family="Helvetica,sans-Serif" font-size="10.00"> iter</text>
</g>
<!-- Node6 -->
<g id="node6" class="node">
<title>Node6</title>
<g id="a_node6"><a xlink:title=" ">
<polygon fill="white" stroke="#bfbfbf" points="392.5,-0.5 392.5,-30.5 520.5,-30.5 520.5,-0.5 392.5,-0.5"/>
<text text-anchor="start" x="400.5" y="-18.5" font-family="Helvetica,sans-Serif" font-size="10.00">Dg_Expr&lt; A, T, Dim01,</text>
<text text-anchor="middle" x="456.5" y="-7.5" font-family="Helvetica,sans-Serif" font-size="10.00"> Dim2, i, j, k &gt;</text>
</a>
</g>
</g>
<!-- Node6&#45;&gt;Node1 -->
<g id="edge5" class="edge">
<title>Node6&#45;&gt;Node1</title>
<path fill="none" stroke="#9a32cd" stroke-dasharray="5,2" d="M530.88,-19.95C546.76,-21.02 563.45,-22.22 579,-23.5 584.73,-23.97 590.65,-24.49 596.61,-25.03"/>
<polygon fill="#9a32cd" stroke="#9a32cd" points="530.8,-16.43 520.59,-19.27 530.34,-23.42 530.8,-16.43"/>
<text text-anchor="middle" x="565.5" y="-26.5" font-family="Helvetica,sans-Serif" font-size="10.00"> iterA</text>
</g>
</g>
</svg>
