<?xml version="1.0" encoding="UTF-8" standalone="no"?>
<!DOCTYPE svg PUBLIC "-//W3C//DTD SVG 1.1//EN"
 "http://www.w3.org/Graphics/SVG/1.1/DTD/svg11.dtd">
<!-- Generated by graphviz version 9.0.0 (20230911.1827)
 -->
<!-- Title: FTensor::Tensor4_Expr&lt; A, T, Dim0, Dim1, Dim2, Dim3, i, j, k, l &gt; Pages: 1 -->
<!--zoomable 622 -->
<svg id="main" version="1.1" xmlns="http://www.w3.org/2000/svg" xmlns:xlink="http://www.w3.org/1999/xlink" xml:space="preserve" onload="init(evt)">
<style type="text/css"><![CDATA[
.edge:hover path { stroke: red; }
.edge:hover polygon { stroke: red; fill: red; }
]]></style>
<script type="text/javascript"><![CDATA[
var edges = document.getElementsByTagName('g');
if (edges && edges.length) {
  for (var i=0;i<edges.length;i++) {
    if (edges[i].id.substr(0,4)=='edge') {
      edges[i].setAttribute('class','edge');
    }
  }
}
]]></script>
        <defs>
                <circle id="rim" cx="0" cy="0" r="7"/>
                <circle id="rim2" cx="0" cy="0" r="3.5"/>
                <g id="zoomPlus">
                        <use xlink:href="#rim" fill="#404040">
                                <set attributeName="fill" to="#808080" begin="zoomplus.mouseover" end="zoomplus.mouseout"/>
                        </use>
                        <path d="M-4,0h8M0,-4v8" fill="none" stroke="white" stroke-width="1.5" pointer-events="none"/>
                </g>
                <g id="zoomMin">
                        <use xlink:href="#rim" fill="#404040">
                                <set attributeName="fill" to="#808080" begin="zoomminus.mouseover" end="zoomminus.mouseout"/>
                        </use>
                        <path d="M-4,0h8" fill="none" stroke="white" stroke-width="1.5" pointer-events="none"/>
                </g>
                <g id="dirArrow">
                        <path fill="none" stroke="white" stroke-width="1.5" d="M0,-3.0v7 M-2.5,-0.5L0,-3.0L2.5,-0.5"/>
                </g>
               <g id="resetDef">
                       <use xlink:href="#rim2" fill="#404040">
                               <set attributeName="fill" to="#808080" begin="reset.mouseover" end="reset.mouseout"/>
                       </use>
               </g>
        </defs>

<script type="text/javascript">
var viewWidth = 427;
var viewHeight = 622;
var sectionId = 'dynsection-0';
</script>
<script xlink:href="svgpan.js"/>
<svg id="graph" class="graph">
<g id="viewport">
<title>FTensor::Tensor4_Expr&lt; A, T, Dim0, Dim1, Dim2, Dim3, i, j, k, l &gt;</title>
<!-- Node1 -->
<g id="node1" class="node">
<title>Node1</title>
<g id="a_node1"><a xlink:title=" ">
<polygon fill="#999999" stroke="#666666" points="132.25,-311.75 0,-311.75 0,-270 132.25,-270 132.25,-311.75"/>
<text text-anchor="start" x="8" y="-298.25" font-family="Helvetica,sans-Serif" font-size="10.00">FTensor::Tensor4_Expr</text>
<text text-anchor="start" x="8" y="-287" font-family="Helvetica,sans-Serif" font-size="10.00">&lt; A, T, Dim0, Dim1, Dim2,</text>
<text text-anchor="middle" x="66.12" y="-275.75" font-family="Helvetica,sans-Serif" font-size="10.00"> Dim3, i, j, k, l &gt;</text>
</a>
</g>
</g>
<!-- Node2 -->
<g id="node2" class="node">
<title>Node2</title>
<g id="a_node2"><a xlink:href="class_f_tensor_1_1_tensor4___expr.html" target="_top" xlink:title=" ">
<polygon fill="white" stroke="#666666" points="411.12,-602.75 285.62,-602.75 285.62,-561 411.12,-561 411.12,-602.75"/>
<text text-anchor="start" x="293.62" y="-589.25" font-family="Helvetica,sans-Serif" font-size="10.00">FTensor::Tensor4_Expr</text>
<text text-anchor="start" x="293.62" y="-578" font-family="Helvetica,sans-Serif" font-size="10.00">&lt; B, U, Dim23, Dim23,</text>
<text text-anchor="middle" x="348.38" y="-566.75" font-family="Helvetica,sans-Serif" font-size="10.00"> Dim2, Dim3, m, n, k, l &gt;</text>
</a>
</g>
</g>
<!-- Node1&#45;&gt;Node2 -->
<g id="edge1" class="edge">
<title>Node1&#45;&gt;Node2</title>
<path fill="none" stroke="orange" stroke-dasharray="5,2" d="M66.58,-323.5C67.56,-381.19 78.69,-500.68 150.25,-559.88 187.4,-590.6 242.87,-594.3 285.51,-591.35"/>
<polygon fill="orange" stroke="orange" points="70.08,-323.67 66.52,-313.69 63.08,-323.71 70.08,-323.67"/>
<text text-anchor="start" x="150.25" y="-604.88" font-family="Helvetica,sans-Serif" font-size="10.00"> &lt; B, U, Dim23, Dim23,</text>
<text text-anchor="middle" x="205" y="-593.62" font-family="Helvetica,sans-Serif" font-size="10.00"> Dim2, Dim3, m, n, k, l &gt;</text>
</g>
<!-- Node3 -->
<g id="node3" class="node">
<title>Node3</title>
<g id="a_node3"><a xlink:href="class_f_tensor_1_1_tensor4___expr.html" target="_top" xlink:title=" ">
<polygon fill="white" stroke="#666666" points="419,-542.75 277.75,-542.75 277.75,-501 419,-501 419,-542.75"/>
<text text-anchor="start" x="285.75" y="-529.25" font-family="Helvetica,sans-Serif" font-size="10.00">FTensor::Tensor4_Expr</text>
<text text-anchor="start" x="285.75" y="-518" font-family="Helvetica,sans-Serif" font-size="10.00">&lt; B, U, Dim0, Dim1, Dim23,</text>
<text text-anchor="middle" x="348.38" y="-506.75" font-family="Helvetica,sans-Serif" font-size="10.00"> Dim23, i, j, m, n &gt;</text>
</a>
</g>
</g>
<!-- Node1&#45;&gt;Node3 -->
<g id="edge2" class="edge">
<title>Node1&#45;&gt;Node3</title>
<path fill="none" stroke="orange" stroke-dasharray="5,2" d="M71.12,-323.57C78.42,-368.31 98.3,-447.75 150.25,-488.88 185.75,-516.98 236.29,-525.01 277.3,-526.12"/>
<polygon fill="orange" stroke="orange" points="74.58,-323.06 69.64,-313.69 67.66,-324.1 74.58,-323.06"/>
<text text-anchor="start" x="158.12" y="-548.12" font-family="Helvetica,sans-Serif" font-size="10.00"> &lt; B, U, Dim0, Dim1,</text>
<text text-anchor="start" x="158.12" y="-536.88" font-family="Helvetica,sans-Serif" font-size="10.00"> Dim23, Dim23, i, j,</text>
<text text-anchor="middle" x="205" y="-525.62" font-family="Helvetica,sans-Serif" font-size="10.00"> m, n &gt;</text>
</g>
<!-- Node4 -->
<g id="node4" class="node">
<title>Node4</title>
<g id="a_node4"><a xlink:href="class_f_tensor_1_1_tensor4___expr.html" target="_top" xlink:title=" ">
<polygon fill="white" stroke="#666666" points="409.62,-483.38 287.12,-483.38 287.12,-430.38 409.62,-430.38 409.62,-483.38"/>
<text text-anchor="start" x="295.12" y="-469.88" font-family="Helvetica,sans-Serif" font-size="10.00">FTensor::Tensor4_Expr</text>
<text text-anchor="start" x="295.12" y="-458.62" font-family="Helvetica,sans-Serif" font-size="10.00">&lt; A, T, Dim0_0, Dim1</text>
<text text-anchor="start" x="295.12" y="-447.38" font-family="Helvetica,sans-Serif" font-size="10.00">_0, Dim2_0, Dim3_0, i0,</text>
<text text-anchor="middle" x="348.38" y="-436.12" font-family="Helvetica,sans-Serif" font-size="10.00"> j0, k0, l0 &gt;</text>
</a>
</g>
</g>
<!-- Node1&#45;&gt;Node4 -->
<g id="edge3" class="edge">
<title>Node1&#45;&gt;Node4</title>
<path fill="none" stroke="orange" stroke-dasharray="5,2" d="M80.02,-322.16C93.36,-350.55 116.95,-391.31 150.25,-413.88 190.55,-441.19 245.21,-451.52 286.74,-455.26"/>
<polygon fill="orange" stroke="orange" points="83.33,-321 76.03,-313.33 76.95,-323.88 83.33,-321"/>
<text text-anchor="start" x="151.75" y="-475.12" font-family="Helvetica,sans-Serif" font-size="10.00"> &lt; A, T, Dim0_0, Dim1</text>
<text text-anchor="start" x="151.75" y="-463.88" font-family="Helvetica,sans-Serif" font-size="10.00">_0, Dim2_0, Dim3_0, i0,</text>
<text text-anchor="middle" x="205" y="-452.62" font-family="Helvetica,sans-Serif" font-size="10.00"> j0, k0, l0 &gt;</text>
</g>
<!-- Node5 -->
<g id="node5" class="node">
<title>Node5</title>
<g id="a_node5"><a xlink:href="class_f_tensor_1_1_tensor4___expr.html" target="_top" xlink:title=" ">
<polygon fill="white" stroke="#666666" points="409.62,-412.38 287.12,-412.38 287.12,-359.38 409.62,-359.38 409.62,-412.38"/>
<text text-anchor="start" x="295.12" y="-398.88" font-family="Helvetica,sans-Serif" font-size="10.00">FTensor::Tensor4_Expr</text>
<text text-anchor="start" x="295.12" y="-387.62" font-family="Helvetica,sans-Serif" font-size="10.00">&lt; B, U, Dim0_1, Dim1</text>
<text text-anchor="start" x="295.12" y="-376.38" font-family="Helvetica,sans-Serif" font-size="10.00">_1, Dim2_1, Dim3_1, i1,</text>
<text text-anchor="middle" x="348.38" y="-365.12" font-family="Helvetica,sans-Serif" font-size="10.00"> j1, k1, l1 &gt;</text>
</a>
</g>
</g>
<!-- Node1&#45;&gt;Node5 -->
<g id="edge4" class="edge">
<title>Node1&#45;&gt;Node5</title>
<path fill="none" stroke="orange" stroke-dasharray="5,2" d="M100.67,-319.16C115.1,-329.99 132.68,-341.5 150.25,-348.88 193.92,-367.2 246.82,-376.5 286.82,-381.19"/>
<polygon fill="orange" stroke="orange" points="102.91,-316.47 92.86,-313.12 98.63,-322 102.91,-316.47"/>
<text text-anchor="start" x="151.75" y="-400.12" font-family="Helvetica,sans-Serif" font-size="10.00"> &lt; B, U, Dim0_1, Dim1</text>
<text text-anchor="start" x="151.75" y="-388.88" font-family="Helvetica,sans-Serif" font-size="10.00">_1, Dim2_1, Dim3_1, i1,</text>
<text text-anchor="middle" x="205" y="-377.62" font-family="Helvetica,sans-Serif" font-size="10.00"> j1, k1, l1 &gt;</text>
</g>
<!-- Node6 -->
<g id="node6" class="node">
<title>Node6</title>
<g id="a_node6"><a xlink:href="class_f_tensor_1_1_tensor4___expr.html" target="_top" xlink:title=" ">
<polygon fill="white" stroke="#666666" points="411.88,-341.75 284.88,-341.75 284.88,-300 411.88,-300 411.88,-341.75"/>
<text text-anchor="start" x="292.88" y="-328.25" font-family="Helvetica,sans-Serif" font-size="10.00">FTensor::Tensor4_Expr</text>
<text text-anchor="start" x="292.88" y="-317" font-family="Helvetica,sans-Serif" font-size="10.00">&lt; A, T, Dim01, Dim01,</text>
<text text-anchor="middle" x="348.38" y="-305.75" font-family="Helvetica,sans-Serif" font-size="10.00"> Dim23, Dim23, i, j, k, l &gt;</text>
</a>
</g>
</g>
<!-- Node1&#45;&gt;Node6 -->
<g id="edge5" class="edge">
<title>Node1&#45;&gt;Node6</title>
<path fill="none" stroke="orange" stroke-dasharray="5,2" d="M143.79,-299.08C188.1,-303.82 243.14,-309.72 284.81,-314.18"/>
<polygon fill="orange" stroke="orange" points="144.3,-295.62 133.98,-298.03 143.55,-302.58 144.3,-295.62"/>
<text text-anchor="start" x="154.75" y="-335.12" font-family="Helvetica,sans-Serif" font-size="10.00"> &lt; A, T, Dim01, Dim01,</text>
<text text-anchor="start" x="154.75" y="-323.88" font-family="Helvetica,sans-Serif" font-size="10.00"> Dim23, Dim23, i, j,</text>
<text text-anchor="middle" x="205" y="-312.62" font-family="Helvetica,sans-Serif" font-size="10.00"> k, l &gt;</text>
</g>
<!-- Node7 -->
<g id="node7" class="node">
<title>Node7</title>
<g id="a_node7"><a xlink:href="class_f_tensor_1_1_tensor4___expr.html" target="_top" xlink:title=" ">
<polygon fill="white" stroke="#666666" points="411.88,-281.75 284.88,-281.75 284.88,-240 411.88,-240 411.88,-281.75"/>
<text text-anchor="start" x="292.88" y="-268.25" font-family="Helvetica,sans-Serif" font-size="10.00">FTensor::Tensor4_Expr</text>
<text text-anchor="start" x="292.88" y="-257" font-family="Helvetica,sans-Serif" font-size="10.00">&lt; B, U, Dim01, Dim01,</text>
<text text-anchor="middle" x="348.38" y="-245.75" font-family="Helvetica,sans-Serif" font-size="10.00"> Dim23, Dim23, j, i, l, k &gt;</text>
</a>
</g>
</g>
<!-- Node1&#45;&gt;Node7 -->
<g id="edge6" class="edge">
<title>Node1&#45;&gt;Node7</title>
<path fill="none" stroke="orange" stroke-dasharray="5,2" d="M131.18,-266.42C137.55,-264.68 143.98,-263.2 150.25,-262.12 194.78,-254.5 245.79,-254.4 284.77,-256.1"/>
<polygon fill="orange" stroke="orange" points="130.62,-262.94 122.01,-269.12 132.59,-269.65 130.62,-262.94"/>
<text text-anchor="start" x="152.88" y="-286.12" font-family="Helvetica,sans-Serif" font-size="10.00"> &lt; B, U, Dim01, Dim01,</text>
<text text-anchor="start" x="152.88" y="-274.88" font-family="Helvetica,sans-Serif" font-size="10.00"> Dim23, Dim23, j, i,</text>
<text text-anchor="middle" x="205" y="-263.62" font-family="Helvetica,sans-Serif" font-size="10.00"> l, k &gt;</text>
</g>
<!-- Node8 -->
<g id="node8" class="node">
<title>Node8</title>
<g id="a_node8"><a xlink:href="class_f_tensor_1_1_tensor4___expr.html" target="_top" xlink:title=" ">
<polygon fill="white" stroke="#666666" points="409.25,-221.75 287.5,-221.75 287.5,-180 409.25,-180 409.25,-221.75"/>
<text text-anchor="start" x="295.5" y="-208.25" font-family="Helvetica,sans-Serif" font-size="10.00">FTensor::Tensor4_Expr</text>
<text text-anchor="start" x="295.5" y="-197" font-family="Helvetica,sans-Serif" font-size="10.00">&lt; A, T, Dim, Dim, Dim2,</text>
<text text-anchor="middle" x="348.38" y="-185.75" font-family="Helvetica,sans-Serif" font-size="10.00"> Dim3, i, j, k, l &gt;</text>
</a>
</g>
</g>
<!-- Node1&#45;&gt;Node8 -->
<g id="edge7" class="edge">
<title>Node1&#45;&gt;Node8</title>
<path fill="none" stroke="orange" stroke-dasharray="5,2" d="M97.49,-262.13C112.3,-249.74 131.04,-236.31 150.25,-228.38 193.85,-210.37 246.99,-203.75 287.11,-201.49"/>
<polygon fill="orange" stroke="orange" points="95.22,-259.46 89.95,-268.66 99.8,-264.76 95.22,-259.46"/>
<text text-anchor="start" x="150.62" y="-240.88" font-family="Helvetica,sans-Serif" font-size="10.00"> &lt; A, T, Dim, Dim, Dim2,</text>
<text text-anchor="middle" x="205" y="-229.62" font-family="Helvetica,sans-Serif" font-size="10.00"> Dim3, i, j, k, l &gt;</text>
</g>
<!-- Node9 -->
<g id="node9" class="node">
<title>Node9</title>
<g id="a_node9"><a xlink:href="class_f_tensor_1_1_tensor4___expr.html" target="_top" xlink:title=" ">
<polygon fill="white" stroke="#666666" points="411.88,-161.75 284.88,-161.75 284.88,-120 411.88,-120 411.88,-161.75"/>
<text text-anchor="start" x="292.88" y="-148.25" font-family="Helvetica,sans-Serif" font-size="10.00">FTensor::Tensor4_Expr</text>
<text text-anchor="start" x="292.88" y="-137" font-family="Helvetica,sans-Serif" font-size="10.00">&lt; A, T, Dim, Dim1, Dim2,</text>
<text text-anchor="middle" x="348.38" y="-125.75" font-family="Helvetica,sans-Serif" font-size="10.00"> Dim, i, j, k, l &gt;</text>
</a>
</g>
</g>
<!-- Node1&#45;&gt;Node9 -->
<g id="edge8" class="edge">
<title>Node1&#45;&gt;Node9</title>
<path fill="none" stroke="orange" stroke-dasharray="5,2" d="M81.56,-259.7C95.39,-233.46 118.8,-197.13 150.25,-177.38 190.33,-152.2 243.46,-143.47 284.46,-140.82"/>
<polygon fill="orange" stroke="orange" points="78.47,-258.05 77.07,-268.56 84.71,-261.22 78.47,-258.05"/>
<text text-anchor="start" x="157.38" y="-189.88" font-family="Helvetica,sans-Serif" font-size="10.00"> &lt; A, T, Dim, Dim1,</text>
<text text-anchor="middle" x="205" y="-178.62" font-family="Helvetica,sans-Serif" font-size="10.00"> Dim2, Dim, i, j, k, l &gt;</text>
</g>
<!-- Node10 -->
<g id="node10" class="node">
<title>Node10</title>
<g id="a_node10"><a xlink:href="class_f_tensor_1_1_tensor4___expr.html" target="_top" xlink:title=" ">
<polygon fill="white" stroke="#666666" points="411.88,-101.75 284.88,-101.75 284.88,-60 411.88,-60 411.88,-101.75"/>
<text text-anchor="start" x="292.88" y="-88.25" font-family="Helvetica,sans-Serif" font-size="10.00">FTensor::Tensor4_Expr</text>
<text text-anchor="start" x="292.88" y="-77" font-family="Helvetica,sans-Serif" font-size="10.00">&lt; A, T, Dim0, Dim1, Dim,</text>
<text text-anchor="middle" x="348.38" y="-65.75" font-family="Helvetica,sans-Serif" font-size="10.00"> Dim, i, j, k, l &gt;</text>
</a>
</g>
</g>
<!-- Node1&#45;&gt;Node10 -->
<g id="edge9" class="edge">
<title>Node1&#45;&gt;Node10</title>
<path fill="none" stroke="orange" stroke-dasharray="5,2" d="M73.19,-258.55C82.48,-218.57 104.23,-151.52 150.25,-116.38 188.39,-87.25 242.69,-79.21 284.65,-77.98"/>
<polygon fill="orange" stroke="orange" points="69.78,-257.78 71.07,-268.3 76.62,-259.27 69.78,-257.78"/>
<text text-anchor="start" x="160" y="-128.88" font-family="Helvetica,sans-Serif" font-size="10.00"> &lt; A, T, Dim0, Dim1,</text>
<text text-anchor="middle" x="205" y="-117.62" font-family="Helvetica,sans-Serif" font-size="10.00"> Dim, Dim, i, j, k, l &gt;</text>
</g>
<!-- Node11 -->
<g id="node11" class="node">
<title>Node11</title>
<g id="a_node11"><a xlink:href="class_f_tensor_1_1_tensor4___expr.html" target="_top" xlink:title=" ">
<polygon fill="white" stroke="#666666" points="416.38,-41.75 280.38,-41.75 280.38,0 416.38,0 416.38,-41.75"/>
<text text-anchor="start" x="288.38" y="-28.25" font-family="Helvetica,sans-Serif" font-size="10.00">FTensor::Tensor4_Expr</text>
<text text-anchor="start" x="288.38" y="-17" font-family="Helvetica,sans-Serif" font-size="10.00">&lt; B, U, Dim2, Dim3, Dim4,</text>
<text text-anchor="middle" x="348.38" y="-5.75" font-family="Helvetica,sans-Serif" font-size="10.00"> Dim5, k, l, m, n &gt;</text>
</a>
</g>
</g>
<!-- Node1&#45;&gt;Node11 -->
<g id="edge10" class="edge">
<title>Node1&#45;&gt;Node11</title>
<path fill="none" stroke="orange" stroke-dasharray="5,2" d="M68.45,-258.66C72.42,-206.84 88.19,-105.52 150.25,-53.38 185.84,-23.48 238.18,-15.97 279.98,-15.61"/>
<polygon fill="orange" stroke="orange" points="64.98,-258.1 67.81,-268.31 71.96,-258.56 64.98,-258.1"/>
<text text-anchor="start" x="150.25" y="-66.88" font-family="Helvetica,sans-Serif" font-size="10.00"> &lt; B, U, Dim2, Dim3,</text>
<text text-anchor="middle" x="205" y="-55.62" font-family="Helvetica,sans-Serif" font-size="10.00"> Dim4, Dim5, k, l, m, n &gt;</text>
</g>
</g>
</svg>
        <g id="navigator" transform="translate(0 0)" fill="#404254">
                <rect fill="#f2f5e9" fill-opacity="0.5" stroke="#606060" stroke-width=".5" x="0" y="0" width="60" height="60"/>
                <use id="zoomplus" xlink:href="#zoomPlus" x="17" y="9" onmousedown="handleZoom(evt,'in')"/>
                <use id="zoomminus" xlink:href="#zoomMin" x="42" y="9" onmousedown="handleZoom(evt,'out')"/>
                <use id="reset" xlink:href="#resetDef" x="30" y="36" onmousedown="handleReset()"/>
                <g id="arrowUp" xlink:href="#dirArrow" transform="translate(30 24)" onmousedown="handlePan(0,-1)">
                  <use xlink:href="#rim" fill="#404040">
                        <set attributeName="fill" to="#808080" begin="arrowUp.mouseover" end="arrowUp.mouseout"/>
                  </use>
                  <path fill="none" stroke="white" stroke-width="1.5" d="M0,-3.0v7 M-2.5,-0.5L0,-3.0L2.5,-0.5"/>
                </g>
                <g id="arrowRight" xlink:href="#dirArrow" transform="rotate(90) translate(36 -43)" onmousedown="handlePan(1,0)">
                  <use xlink:href="#rim" fill="#404040">
                        <set attributeName="fill" to="#808080" begin="arrowRight.mouseover" end="arrowRight.mouseout"/>
                  </use>
                  <path fill="none" stroke="white" stroke-width="1.5" d="M0,-3.0v7 M-2.5,-0.5L0,-3.0L2.5,-0.5"/>
                </g>
                <g id="arrowDown" xlink:href="#dirArrow" transform="rotate(180) translate(-30 -48)" onmousedown="handlePan(0,1)">
                  <use xlink:href="#rim" fill="#404040">
                        <set attributeName="fill" to="#808080" begin="arrowDown.mouseover" end="arrowDown.mouseout"/>
                  </use>
                  <path fill="none" stroke="white" stroke-width="1.5" d="M0,-3.0v7 M-2.5,-0.5L0,-3.0L2.5,-0.5"/>
                </g>
                <g id="arrowLeft" xlink:href="#dirArrow" transform="rotate(270) translate(-36 17)" onmousedown="handlePan(-1,0)">
                  <use xlink:href="#rim" fill="#404040">
                        <set attributeName="fill" to="#808080" begin="arrowLeft.mouseover" end="arrowLeft.mouseout"/>
                  </use>
                  <path fill="none" stroke="white" stroke-width="1.5" d="M0,-3.0v7 M-2.5,-0.5L0,-3.0L2.5,-0.5"/>
                </g>
        </g>
        <svg viewBox="0 0 15 15" width="100%" height="30px" preserveAspectRatio="xMaxYMin meet">
         <g id="arrow_out" transform="scale(0.3 0.3)">
          <a xlink:href="class_f_tensor_1_1_tensor4___expr__inherit__graph_org.svg" target="_base">
           <rect id="button" ry="5" rx="5" y="6" x="6" height="38" width="38"
                fill="#f2f5e9" fill-opacity="0.5" stroke="#606060" stroke-width="1.0"/>
           <path id="arrow"
             d="M 11.500037,31.436501 C 11.940474,20.09759 22.043105,11.32322 32.158766,21.979434 L 37.068811,17.246167 C 37.068811,17.246167 37.088388,32 37.088388,32 L 22.160133,31.978069 C 22.160133,31.978069 26.997745,27.140456 26.997745,27.140456 C 18.528582,18.264221 13.291696,25.230495 11.500037,31.436501 z"
             style="fill:#404040;"/>
          </a>
         </g>
        </svg>
</svg>
