<?xml version="1.0" encoding="UTF-8" standalone="no"?>
<!DOCTYPE svg PUBLIC "-//W3C//DTD SVG 1.1//EN"
 "http://www.w3.org/Graphics/SVG/1.1/DTD/svg11.dtd">
<!-- Generated by graphviz version 9.0.0 (20230911.1827)
 -->
<!-- Title: MoFEM::LogManager::InternalData::NulOStream Pages: 1 -->
<svg width="232pt" height="160pt"
 viewBox="0.00 0.00 232.00 160.25" xmlns="http://www.w3.org/2000/svg" xmlns:xlink="http://www.w3.org/1999/xlink">
<g id="graph0" class="graph" transform="scale(1 1) rotate(0) translate(4 156.25)">
<title>MoFEM::LogManager::InternalData::NulOStream</title>
<!-- Node1 -->
<g id="node1" class="node">
<title>Node1</title>
<g id="a_node1"><a xlink:title=" ">
<polygon fill="#999999" stroke="#666666" points="192.25,-30.5 63,-30.5 63,0 192.25,0 192.25,-30.5"/>
<text text-anchor="start" x="71" y="-17" font-family="Helvetica,sans-Serif" font-size="10.00">MoFEM::LogManager::</text>
<text text-anchor="middle" x="127.62" y="-5.75" font-family="Helvetica,sans-Serif" font-size="10.00">InternalData::NulOStream</text>
</a>
</g>
</g>
<!-- Node2 -->
<g id="node2" class="node">
<title>Node2</title>
<g id="a_node2"><a xlink:href="class_mo_f_e_m_1_1_log_manager_1_1_internal_data_1_1_nul_streambuf.html" target="_top" xlink:title=" ">
<polygon fill="white" stroke="#666666" points="135.25,-97 0,-97 0,-66.5 135.25,-66.5 135.25,-97"/>
<text text-anchor="start" x="8" y="-83.5" font-family="Helvetica,sans-Serif" font-size="10.00">MoFEM::LogManager::</text>
<text text-anchor="middle" x="67.62" y="-72.25" font-family="Helvetica,sans-Serif" font-size="10.00">InternalData::NulStreambuf</text>
</a>
</g>
</g>
<!-- Node2&#45;&gt;Node1 -->
<g id="edge1" class="edge">
<title>Node2&#45;&gt;Node1</title>
<path fill="none" stroke="#8b1a1a" d="M88.87,-57.91C97.25,-48.9 106.63,-38.82 114.06,-30.83"/>
<polygon fill="#8b1a1a" stroke="#8b1a1a" points="86.52,-55.3 82.27,-65.01 91.64,-60.07 86.52,-55.3"/>
</g>
<!-- Node3 -->
<g id="node3" class="node">
<title>Node3</title>
<g id="a_node3"><a xlink:title=" ">
<polygon fill="white" stroke="#666666" points="107.12,-152.25 28.12,-152.25 28.12,-133 107.12,-133 107.12,-152.25"/>
<text text-anchor="middle" x="67.62" y="-138.75" font-family="Helvetica,sans-Serif" font-size="10.00">std::streambuf</text>
</a>
</g>
</g>
<!-- Node3&#45;&gt;Node2 -->
<g id="edge2" class="edge">
<title>Node3&#45;&gt;Node2</title>
<path fill="none" stroke="#63b8ff" d="M67.62,-121.42C67.62,-113.49 67.62,-104.56 67.62,-97.28"/>
<polygon fill="#63b8ff" stroke="#63b8ff" points="64.13,-121.17 67.63,-131.17 71.13,-121.17 64.13,-121.17"/>
</g>
<!-- Node4 -->
<g id="node4" class="node">
<title>Node4</title>
<g id="a_node4"><a xlink:title=" ">
<polygon fill="white" stroke="#666666" points="224,-91.38 153.25,-91.38 153.25,-72.12 224,-72.12 224,-91.38"/>
<text text-anchor="middle" x="188.62" y="-77.88" font-family="Helvetica,sans-Serif" font-size="10.00">std::ostream</text>
</a>
</g>
</g>
<!-- Node4&#45;&gt;Node1 -->
<g id="edge3" class="edge">
<title>Node4&#45;&gt;Node1</title>
<path fill="none" stroke="#63b8ff" d="M172.37,-63.56C162.64,-53.27 150.4,-40.34 141.19,-30.59"/>
<polygon fill="#63b8ff" stroke="#63b8ff" points="169.69,-65.82 179.1,-70.68 174.77,-61.01 169.69,-65.82"/>
</g>
</g>
</svg>
