<?xml version="1.0" encoding="UTF-8" standalone="no"?>
<!DOCTYPE svg PUBLIC "-//W3C//DTD SVG 1.1//EN"
 "http://www.w3.org/Graphics/SVG/1.1/DTD/svg11.dtd">
<!-- Generated by graphviz version 2.43.0 (0)
 -->
<!-- Title: MoFEM::LogManager::InternalData::NulStreambuf Pages: 1 -->
<svg width="186pt" height="106pt"
 viewBox="0.00 0.00 186.00 106.00" xmlns="http://www.w3.org/2000/svg" xmlns:xlink="http://www.w3.org/1999/xlink">
<g id="graph0" class="graph" transform="scale(1 1) rotate(0) translate(4 102)">
<title>MoFEM::LogManager::InternalData::NulStreambuf</title>
<polygon fill="white" stroke="transparent" points="-4,4 -4,-102 182,-102 182,4 -4,4"/>
<!-- Node1 -->
<g id="node1" class="node">
<title>Node1</title>
<g id="a_node1"><a xlink:title=" ">
<polygon fill="#bfbfbf" stroke="black" points="8.5,-0.5 8.5,-30.5 159.5,-30.5 159.5,-0.5 8.5,-0.5"/>
<text text-anchor="start" x="16.5" y="-18.5" font-family="Helvetica,sans-Serif" font-size="10.00">MoFEM::LogManager::</text>
<text text-anchor="middle" x="84" y="-7.5" font-family="Helvetica,sans-Serif" font-size="10.00">InternalData::NulStreambuf</text>
</a>
</g>
</g>
<!-- Node2 -->
<g id="node2" class="node">
<title>Node2</title>
<g id="a_node2"><a xlink:title=" ">
<polygon fill="white" stroke="#bfbfbf" points="0,-78.5 0,-97.5 88,-97.5 88,-78.5 0,-78.5"/>
<text text-anchor="middle" x="44" y="-85.5" font-family="Helvetica,sans-Serif" font-size="10.00">std::streambuf</text>
</a>
</g>
</g>
<!-- Node2&#45;&gt;Node1 -->
<g id="edge1" class="edge">
<title>Node2&#45;&gt;Node1</title>
<path fill="none" stroke="midnightblue" d="M54.03,-69.32C60.83,-57.34 69.69,-41.72 76.01,-30.58"/>
<polygon fill="midnightblue" stroke="midnightblue" points="50.8,-67.93 48.9,-78.36 56.88,-71.38 50.8,-67.93"/>
</g>
<!-- Node3 -->
<g id="node3" class="node">
<title>Node3</title>
<g id="a_node3"><a xlink:title=" ">
<polygon fill="white" stroke="#bfbfbf" points="106,-78.5 106,-97.5 144,-97.5 144,-78.5 106,-78.5"/>
<text text-anchor="middle" x="125" y="-85.5" font-family="Helvetica,sans-Serif" font-size="10.00">char</text>
</a>
</g>
</g>
<!-- Node3&#45;&gt;Node1 -->
<g id="edge2" class="edge">
<title>Node3&#45;&gt;Node1</title>
<path fill="none" stroke="#9a32cd" stroke-dasharray="5,2" d="M114.93,-69.68C107.93,-57.65 98.73,-41.83 92.19,-30.58"/>
<polygon fill="#9a32cd" stroke="#9a32cd" points="111.92,-71.47 119.97,-78.36 117.97,-67.95 111.92,-71.47"/>
<text text-anchor="middle" x="143" y="-52" font-family="Helvetica,sans-Serif" font-size="10.00"> dummyBuffer</text>
</g>
</g>
</svg>
