<?xml version="1.0" encoding="UTF-8" standalone="no"?>
<!DOCTYPE svg PUBLIC "-//W3C//DTD SVG 1.1//EN"
 "http://www.w3.org/Graphics/SVG/1.1/DTD/svg11.dtd">
<!-- Generated by graphviz version 9.0.0 (20230911.1827)
 -->
<!-- Title: FTensor::Ddg_carat_Ddg_13&lt; A, B, T, U, Dim, Dim23, i, j, k, l, m, n &gt; Pages: 1 -->
<!--zoomable 140 -->
<svg id="main" version="1.1" xmlns="http://www.w3.org/2000/svg" xmlns:xlink="http://www.w3.org/1999/xlink" xml:space="preserve" onload="init(evt)">
<style type="text/css"><![CDATA[
.edge:hover path { stroke: red; }
.edge:hover polygon { stroke: red; fill: red; }
]]></style>
<script type="text/javascript"><![CDATA[
var edges = document.getElementsByTagName('g');
if (edges && edges.length) {
  for (var i=0;i<edges.length;i++) {
    if (edges[i].id.substr(0,4)=='edge') {
      edges[i].setAttribute('class','edge');
    }
  }
}
]]></script>
        <defs>
                <circle id="rim" cx="0" cy="0" r="7"/>
                <circle id="rim2" cx="0" cy="0" r="3.5"/>
                <g id="zoomPlus">
                        <use xlink:href="#rim" fill="#404040">
                                <set attributeName="fill" to="#808080" begin="zoomplus.mouseover" end="zoomplus.mouseout"/>
                        </use>
                        <path d="M-4,0h8M0,-4v8" fill="none" stroke="white" stroke-width="1.5" pointer-events="none"/>
                </g>
                <g id="zoomMin">
                        <use xlink:href="#rim" fill="#404040">
                                <set attributeName="fill" to="#808080" begin="zoomminus.mouseover" end="zoomminus.mouseout"/>
                        </use>
                        <path d="M-4,0h8" fill="none" stroke="white" stroke-width="1.5" pointer-events="none"/>
                </g>
                <g id="dirArrow">
                        <path fill="none" stroke="white" stroke-width="1.5" d="M0,-3.0v7 M-2.5,-0.5L0,-3.0L2.5,-0.5"/>
                </g>
               <g id="resetDef">
                       <use xlink:href="#rim2" fill="#404040">
                               <set attributeName="fill" to="#808080" begin="reset.mouseover" end="reset.mouseout"/>
                       </use>
               </g>
        </defs>

<script type="text/javascript">
var viewWidth = 605;
var viewHeight = 140;
var sectionId = 'dynsection-0';
</script>
<script xlink:href="svgpan.js"/>
<svg id="graph" class="graph">
<g id="viewport">
<title>FTensor::Ddg_carat_Ddg_13&lt; A, B, T, U, Dim, Dim23, i, j, k, l, m, n &gt;</title>
<!-- Node1 -->
<g id="node1" class="node">
<title>Node1</title>
<g id="a_node1"><a xlink:title=" ">
<polygon fill="#999999" stroke="#666666" points="596.55,-93.12 486.8,-93.12 486.8,-40.12 596.55,-40.12 596.55,-93.12"/>
<text text-anchor="start" x="494.8" y="-79.62" font-family="Helvetica,sans-Serif" font-size="10.00">FTensor::Ddg_carat</text>
<text text-anchor="start" x="494.8" y="-68.38" font-family="Helvetica,sans-Serif" font-size="10.00">_Ddg_13&lt; A, B, T, U,</text>
<text text-anchor="start" x="494.8" y="-57.12" font-family="Helvetica,sans-Serif" font-size="10.00"> Dim, Dim23, i, j, k,</text>
<text text-anchor="middle" x="541.67" y="-45.88" font-family="Helvetica,sans-Serif" font-size="10.00"> l, m, n &gt;</text>
</a>
</g>
</g>
<!-- Node2 -->
<g id="node2" class="node">
<title>Node2</title>
<g id="a_node2"><a xlink:href="class_f_tensor_1_1_ddg___expr.html" target="_top" xlink:title=" ">
<polygon fill="white" stroke="#666666" points="426.42,-117.5 319.67,-117.5 319.67,-75.75 426.42,-75.75 426.42,-117.5"/>
<text text-anchor="start" x="327.67" y="-104" font-family="Helvetica,sans-Serif" font-size="10.00">FTensor::Ddg_Expr&lt;</text>
<text text-anchor="start" x="327.67" y="-92.75" font-family="Helvetica,sans-Serif" font-size="10.00"> A, T, Dim, Dim, i,</text>
<text text-anchor="middle" x="373.05" y="-81.5" font-family="Helvetica,sans-Serif" font-size="10.00"> j, k, l &gt;</text>
</a>
</g>
</g>
<!-- Node2&#45;&gt;Node1 -->
<g id="edge1" class="edge">
<title>Node2&#45;&gt;Node1</title>
<path fill="none" stroke="#9a32cd" stroke-dasharray="5,2" d="M437.73,-85.16C453.84,-82.26 470.99,-79.17 486.58,-76.37"/>
<polygon fill="#9a32cd" stroke="#9a32cd" points="437.48,-81.65 428.26,-86.86 438.72,-88.54 437.48,-81.65"/>
<text text-anchor="middle" x="457.17" y="-84.38" font-family="Helvetica,sans-Serif" font-size="10.00"> iterA</text>
</g>
<!-- Node3 -->
<g id="node3" class="node">
<title>Node3</title>
<g id="a_node3"><a xlink:title=" ">
<polygon fill="white" stroke="#666666" points="28.8,-109.25 0,-109.25 0,-90 28.8,-90 28.8,-109.25"/>
<text text-anchor="middle" x="14.4" y="-95.75" font-family="Helvetica,sans-Serif" font-size="10.00">A</text>
</a>
</g>
</g>
<!-- Node3&#45;&gt;Node2 -->
<g id="edge2" class="edge">
<title>Node3&#45;&gt;Node2</title>
<path fill="none" stroke="#9a32cd" stroke-dasharray="5,2" d="M40.05,-105.55C42.32,-105.96 44.6,-106.33 46.8,-106.62 158.65,-121.42 188.5,-126.76 300.55,-113.62 306.63,-112.91 312.95,-111.87 319.2,-110.64"/>
<polygon fill="#9a32cd" stroke="#9a32cd" points="41.05,-102.18 30.54,-103.53 39.6,-109.03 41.05,-102.18"/>
<text text-anchor="middle" x="135.05" y="-122.38" font-family="Helvetica,sans-Serif" font-size="10.00"> iter</text>
</g>
<!-- Node4 -->
<g id="node4" class="node">
<title>Node4</title>
<g id="a_node4"><a xlink:href="class_f_tensor_1_1_ddg___expr.html" target="_top" xlink:title=" ">
<polygon fill="white" stroke="#666666" points="188.8,-91.5 81.3,-91.5 81.3,-49.75 188.8,-49.75 188.8,-91.5"/>
<text text-anchor="start" x="89.3" y="-78" font-family="Helvetica,sans-Serif" font-size="10.00">FTensor::Ddg_Expr&lt;</text>
<text text-anchor="start" x="89.3" y="-66.75" font-family="Helvetica,sans-Serif" font-size="10.00"> A, T, Dim01, Dim23,</text>
<text text-anchor="middle" x="135.05" y="-55.5" font-family="Helvetica,sans-Serif" font-size="10.00"> i, j, k, l &gt;</text>
</a>
</g>
</g>
<!-- Node3&#45;&gt;Node4 -->
<g id="edge4" class="edge">
<title>Node3&#45;&gt;Node4</title>
<path fill="none" stroke="#9a32cd" stroke-dasharray="5,2" d="M40.19,-93.57C52.03,-90.67 66.69,-87.09 80.87,-83.62"/>
<polygon fill="#9a32cd" stroke="#9a32cd" points="39.36,-90.16 30.48,-95.94 41.03,-96.96 39.36,-90.16"/>
<text text-anchor="middle" x="55.05" y="-93.38" font-family="Helvetica,sans-Serif" font-size="10.00"> iter</text>
</g>
<!-- Node4&#45;&gt;Node2 -->
<g id="edge3" class="edge">
<title>Node4&#45;&gt;Node2</title>
<path fill="none" stroke="orange" stroke-dasharray="5,2" d="M200.28,-77.7C237.61,-81.81 284.08,-86.93 319.26,-90.81"/>
<polygon fill="orange" stroke="orange" points="200.84,-74.24 190.52,-76.63 200.07,-81.2 200.84,-74.24"/>
<text text-anchor="start" x="209.8" y="-100.62" font-family="Helvetica,sans-Serif" font-size="10.00"> &lt; A, T, Dim, Dim, i,</text>
<text text-anchor="middle" x="253.67" y="-89.38" font-family="Helvetica,sans-Serif" font-size="10.00"> j, k, l &gt;</text>
</g>
<!-- Node5 -->
<g id="node5" class="node">
<title>Node5</title>
<g id="a_node5"><a xlink:href="class_f_tensor_1_1_ddg___expr.html" target="_top" xlink:title=" ">
<polygon fill="white" stroke="#666666" points="427.55,-57.5 318.55,-57.5 318.55,-15.75 427.55,-15.75 427.55,-57.5"/>
<text text-anchor="start" x="326.55" y="-44" font-family="Helvetica,sans-Serif" font-size="10.00">FTensor::Ddg_Expr&lt;</text>
<text text-anchor="start" x="326.55" y="-32.75" font-family="Helvetica,sans-Serif" font-size="10.00"> B, U, Dim, Dim23, j,</text>
<text text-anchor="middle" x="373.05" y="-21.5" font-family="Helvetica,sans-Serif" font-size="10.00"> l, m, n &gt;</text>
</a>
</g>
</g>
<!-- Node4&#45;&gt;Node5 -->
<g id="edge7" class="edge">
<title>Node4&#45;&gt;Node5</title>
<path fill="none" stroke="orange" stroke-dasharray="5,2" d="M200.25,-53.36C202.46,-52.92 204.64,-52.51 206.8,-52.12 243.69,-45.62 285.73,-41.72 318.17,-39.46"/>
<polygon fill="orange" stroke="orange" points="199.67,-49.9 190.64,-55.43 201.15,-56.75 199.67,-49.9"/>
<text text-anchor="start" x="206.8" y="-65.62" font-family="Helvetica,sans-Serif" font-size="10.00"> &lt; B, U, Dim, Dim23,</text>
<text text-anchor="middle" x="253.67" y="-54.38" font-family="Helvetica,sans-Serif" font-size="10.00"> j, l, m, n &gt;</text>
</g>
<!-- Node5&#45;&gt;Node1 -->
<g id="edge5" class="edge">
<title>Node5&#45;&gt;Node1</title>
<path fill="none" stroke="#9a32cd" stroke-dasharray="5,2" d="M438.96,-48.31C454.71,-51.15 471.38,-54.15 486.57,-56.88"/>
<polygon fill="#9a32cd" stroke="#9a32cd" points="439.64,-44.88 429.18,-46.55 438.4,-51.77 439.64,-44.88"/>
<text text-anchor="middle" x="457.17" y="-55.38" font-family="Helvetica,sans-Serif" font-size="10.00"> iterB</text>
</g>
<!-- Node6 -->
<g id="node6" class="node">
<title>Node6</title>
<g id="a_node6"><a xlink:href="class_b.html" target="_top" xlink:title=" ">
<polygon fill="white" stroke="#666666" points="149.45,-19.25 120.65,-19.25 120.65,0 149.45,0 149.45,-19.25"/>
<text text-anchor="middle" x="135.05" y="-5.75" font-family="Helvetica,sans-Serif" font-size="10.00">B</text>
</a>
</g>
</g>
<!-- Node6&#45;&gt;Node5 -->
<g id="edge6" class="edge">
<title>Node6&#45;&gt;Node5</title>
<path fill="none" stroke="#9a32cd" stroke-dasharray="5,2" d="M160.93,-7.09C193.36,-4.38 251.7,-1.58 300.55,-10.38 307.06,-11.55 313.75,-13.26 320.31,-15.26"/>
<polygon fill="#9a32cd" stroke="#9a32cd" points="160.99,-3.57 151.35,-7.96 161.63,-10.54 160.99,-3.57"/>
<text text-anchor="middle" x="253.67" y="-12.38" font-family="Helvetica,sans-Serif" font-size="10.00"> iter</text>
</g>
</g>
</svg>
        <g id="navigator" transform="translate(0 0)" fill="#404254">
                <rect fill="#f2f5e9" fill-opacity="0.5" stroke="#606060" stroke-width=".5" x="0" y="0" width="60" height="60"/>
                <use id="zoomplus" xlink:href="#zoomPlus" x="17" y="9" onmousedown="handleZoom(evt,'in')"/>
                <use id="zoomminus" xlink:href="#zoomMin" x="42" y="9" onmousedown="handleZoom(evt,'out')"/>
                <use id="reset" xlink:href="#resetDef" x="30" y="36" onmousedown="handleReset()"/>
                <g id="arrowUp" xlink:href="#dirArrow" transform="translate(30 24)" onmousedown="handlePan(0,-1)">
                  <use xlink:href="#rim" fill="#404040">
                        <set attributeName="fill" to="#808080" begin="arrowUp.mouseover" end="arrowUp.mouseout"/>
                  </use>
                  <path fill="none" stroke="white" stroke-width="1.5" d="M0,-3.0v7 M-2.5,-0.5L0,-3.0L2.5,-0.5"/>
                </g>
                <g id="arrowRight" xlink:href="#dirArrow" transform="rotate(90) translate(36 -43)" onmousedown="handlePan(1,0)">
                  <use xlink:href="#rim" fill="#404040">
                        <set attributeName="fill" to="#808080" begin="arrowRight.mouseover" end="arrowRight.mouseout"/>
                  </use>
                  <path fill="none" stroke="white" stroke-width="1.5" d="M0,-3.0v7 M-2.5,-0.5L0,-3.0L2.5,-0.5"/>
                </g>
                <g id="arrowDown" xlink:href="#dirArrow" transform="rotate(180) translate(-30 -48)" onmousedown="handlePan(0,1)">
                  <use xlink:href="#rim" fill="#404040">
                        <set attributeName="fill" to="#808080" begin="arrowDown.mouseover" end="arrowDown.mouseout"/>
                  </use>
                  <path fill="none" stroke="white" stroke-width="1.5" d="M0,-3.0v7 M-2.5,-0.5L0,-3.0L2.5,-0.5"/>
                </g>
                <g id="arrowLeft" xlink:href="#dirArrow" transform="rotate(270) translate(-36 17)" onmousedown="handlePan(-1,0)">
                  <use xlink:href="#rim" fill="#404040">
                        <set attributeName="fill" to="#808080" begin="arrowLeft.mouseover" end="arrowLeft.mouseout"/>
                  </use>
                  <path fill="none" stroke="white" stroke-width="1.5" d="M0,-3.0v7 M-2.5,-0.5L0,-3.0L2.5,-0.5"/>
                </g>
        </g>
        <svg viewBox="0 0 15 15" width="100%" height="30px" preserveAspectRatio="xMaxYMin meet">
         <g id="arrow_out" transform="scale(0.3 0.3)">
          <a xlink:href="class_f_tensor_1_1_ddg__carat___ddg__13__coll__graph_org.svg" target="_base">
           <rect id="button" ry="5" rx="5" y="6" x="6" height="38" width="38"
                fill="#f2f5e9" fill-opacity="0.5" stroke="#606060" stroke-width="1.0"/>
           <path id="arrow"
             d="M 11.500037,31.436501 C 11.940474,20.09759 22.043105,11.32322 32.158766,21.979434 L 37.068811,17.246167 C 37.068811,17.246167 37.088388,32 37.088388,32 L 22.160133,31.978069 C 22.160133,31.978069 26.997745,27.140456 26.997745,27.140456 C 18.528582,18.264221 13.291696,25.230495 11.500037,31.436501 z"
             style="fill:#404040;"/>
          </a>
         </g>
        </svg>
</svg>
