<?xml version="1.0" encoding="UTF-8" standalone="no"?>
<!DOCTYPE svg PUBLIC "-//W3C//DTD SVG 1.1//EN"
 "http://www.w3.org/Graphics/SVG/1.1/DTD/svg11.dtd">
<!-- Generated by graphviz version 2.43.0 (0)
 -->
<!-- Title: FTensor::Ddg_times_Tensor4_2323_klij&lt; A, B, T, U, Dim01, Dim23, Dim0, Dim1, i, j, k, l, m, n &gt; Pages: 1 -->
<!--zoomable 181 -->
<svg id="main" version="1.1" xmlns="http://www.w3.org/2000/svg" xmlns:xlink="http://www.w3.org/1999/xlink" xml:space="preserve" onload="init(evt)">
<style type="text/css"><![CDATA[
.edge:hover path { stroke: red; }
.edge:hover polygon { stroke: red; fill: red; }
]]></style>
<script type="text/javascript"><![CDATA[
var edges = document.getElementsByTagName('g');
if (edges && edges.length) {
  for (var i=0;i<edges.length;i++) {
    if (edges[i].id.substr(0,4)=='edge') {
      edges[i].setAttribute('class','edge');
    }
  }
}
]]></script>
        <defs>
                <circle id="rim" cx="0" cy="0" r="7"/>
                <circle id="rim2" cx="0" cy="0" r="3.5"/>
                <g id="zoomPlus">
                        <use xlink:href="#rim" fill="#404040">
                                <set attributeName="fill" to="#808080" begin="zoomplus.mouseover" end="zoomplus.mouseout"/>
                        </use>
                        <path d="M-4,0h8M0,-4v8" fill="none" stroke="white" stroke-width="1.5" pointer-events="none"/>
                </g>
                <g id="zoomMin">
                        <use xlink:href="#rim" fill="#404040">
                                <set attributeName="fill" to="#808080" begin="zoomminus.mouseover" end="zoomminus.mouseout"/>
                        </use>
                        <path d="M-4,0h8" fill="none" stroke="white" stroke-width="1.5" pointer-events="none"/>
                </g>
                <g id="dirArrow">
                        <path fill="none" stroke="white" stroke-width="1.5" d="M0,-3.0v7 M-2.5,-0.5L0,-3.0L2.5,-0.5"/>
                </g>
               <g id="resetDef">
                       <use xlink:href="#rim2" fill="#404040">
                               <set attributeName="fill" to="#808080" begin="reset.mouseover" end="reset.mouseout"/>
                       </use>
               </g>
        </defs>

<script type="text/javascript">
var viewWidth = 749;
var viewHeight = 181;
var sectionId = 'dynsection-0';
</script>
<script xlink:href="svgpan.js"/>
<svg id="graph" class="graph">
<g id="viewport">
<title>FTensor::Ddg_times_Tensor4_2323_klij&lt; A, B, T, U, Dim01, Dim23, Dim0, Dim1, i, j, k, l, m, n &gt;</title>
<polygon fill="white" stroke="transparent" points="-4,4 -4,-177 745,-177 745,4 -4,4"/>
<!-- Node1 -->
<g id="node1" class="node">
<title>Node1</title>
<g id="a_node1"><a xlink:title=" ">
<polygon fill="#bfbfbf" stroke="black" points="597,-57.5 597,-120.5 741,-120.5 741,-57.5 597,-57.5"/>
<text text-anchor="start" x="605" y="-108.5" font-family="Helvetica,sans-Serif" font-size="10.00">FTensor::Ddg_times</text>
<text text-anchor="start" x="605" y="-97.5" font-family="Helvetica,sans-Serif" font-size="10.00">_Tensor4_2323_klij&lt;</text>
<text text-anchor="start" x="605" y="-86.5" font-family="Helvetica,sans-Serif" font-size="10.00"> A, B, T, U, Dim01, Dim23,</text>
<text text-anchor="start" x="605" y="-75.5" font-family="Helvetica,sans-Serif" font-size="10.00"> Dim0, Dim1, i, j, k, l,</text>
<text text-anchor="middle" x="669" y="-64.5" font-family="Helvetica,sans-Serif" font-size="10.00"> m, n &gt;</text>
</a>
</g>
</g>
<!-- Node2 -->
<g id="node2" class="node">
<title>Node2</title>
<g id="a_node2"><a xlink:href="classFTensor_1_1Ddg__Expr.html" target="_top" xlink:title=" ">
<polygon fill="white" stroke="black" points="398,-98.5 398,-139.5 516,-139.5 516,-98.5 398,-98.5"/>
<text text-anchor="start" x="406" y="-127.5" font-family="Helvetica,sans-Serif" font-size="10.00">FTensor::Ddg_Expr&lt;</text>
<text text-anchor="start" x="406" y="-116.5" font-family="Helvetica,sans-Serif" font-size="10.00"> A, T, Dim01, Dim23,</text>
<text text-anchor="middle" x="457" y="-105.5" font-family="Helvetica,sans-Serif" font-size="10.00"> m, n, k, l &gt;</text>
</a>
</g>
</g>
<!-- Node2&#45;&gt;Node1 -->
<g id="edge1" class="edge">
<title>Node2&#45;&gt;Node1</title>
<path fill="none" stroke="#9a32cd" stroke-dasharray="5,2" d="M526.4,-109.23C548.99,-106 574.17,-102.4 596.95,-99.15"/>
<polygon fill="#9a32cd" stroke="#9a32cd" points="525.62,-105.8 516.22,-110.68 526.61,-112.73 525.62,-105.8"/>
<text text-anchor="middle" x="565.5" y="-107" font-family="Helvetica,sans-Serif" font-size="10.00"> iterA</text>
</g>
<!-- Node3 -->
<g id="node3" class="node">
<title>Node3</title>
<g id="a_node3"><a xlink:title=" ">
<polygon fill="white" stroke="#bfbfbf" points="0,-109.5 0,-128.5 29,-128.5 29,-109.5 0,-109.5"/>
<text text-anchor="middle" x="14.5" y="-116.5" font-family="Helvetica,sans-Serif" font-size="10.00">A</text>
</a>
</g>
</g>
<!-- Node3&#45;&gt;Node2 -->
<g id="edge2" class="edge">
<title>Node3&#45;&gt;Node2</title>
<path fill="none" stroke="#9a32cd" stroke-dasharray="5,2" d="M37.87,-131.65C51.11,-138.36 68.48,-145.86 85,-149 205.95,-172.01 240.26,-163.42 362,-145 373.72,-143.23 386.06,-140.48 397.8,-137.42"/>
<polygon fill="#9a32cd" stroke="#9a32cd" points="39.51,-128.56 29.03,-126.98 36.24,-134.74 39.51,-128.56"/>
<text text-anchor="middle" x="158" y="-165" font-family="Helvetica,sans-Serif" font-size="10.00"> iter</text>
</g>
<!-- Node4 -->
<g id="node4" class="node">
<title>Node4</title>
<g id="a_node4"><a xlink:href="classFTensor_1_1Ddg__Expr.html" target="_top" xlink:title=" ">
<polygon fill="white" stroke="black" points="99,-98.5 99,-139.5 217,-139.5 217,-98.5 99,-98.5"/>
<text text-anchor="start" x="107" y="-127.5" font-family="Helvetica,sans-Serif" font-size="10.00">FTensor::Ddg_Expr&lt;</text>
<text text-anchor="start" x="107" y="-116.5" font-family="Helvetica,sans-Serif" font-size="10.00"> A, T, Dim01, Dim23,</text>
<text text-anchor="middle" x="158" y="-105.5" font-family="Helvetica,sans-Serif" font-size="10.00"> i, j, k, l &gt;</text>
</a>
</g>
</g>
<!-- Node3&#45;&gt;Node4 -->
<g id="edge4" class="edge">
<title>Node3&#45;&gt;Node4</title>
<path fill="none" stroke="#9a32cd" stroke-dasharray="5,2" d="M39.29,-119C55.58,-119 77.94,-119 98.79,-119"/>
<polygon fill="#9a32cd" stroke="#9a32cd" points="39.07,-115.5 29.07,-119 39.07,-122.5 39.07,-115.5"/>
<text text-anchor="middle" x="57" y="-122" font-family="Helvetica,sans-Serif" font-size="10.00"> iter</text>
</g>
<!-- Node7 -->
<g id="node7" class="node">
<title>Node7</title>
<g id="a_node7"><a xlink:href="classFTensor_1_1Tensor4__Expr.html" target="_top" xlink:title=" ">
<polygon fill="white" stroke="black" points="85,-38.5 85,-79.5 231,-79.5 231,-38.5 85,-38.5"/>
<text text-anchor="start" x="93" y="-67.5" font-family="Helvetica,sans-Serif" font-size="10.00">FTensor::Tensor4_Expr</text>
<text text-anchor="start" x="93" y="-56.5" font-family="Helvetica,sans-Serif" font-size="10.00">&lt; A, T, Dim0, Dim1, Dim2,</text>
<text text-anchor="middle" x="158" y="-45.5" font-family="Helvetica,sans-Serif" font-size="10.00"> Dim3, i, j, k, l &gt;</text>
</a>
</g>
</g>
<!-- Node3&#45;&gt;Node7 -->
<g id="edge8" class="edge">
<title>Node3&#45;&gt;Node7</title>
<path fill="none" stroke="#9a32cd" stroke-dasharray="5,2" d="M38.54,-107.85C41.38,-106.53 44.25,-105.22 47,-104 65.78,-95.7 86.57,-87.05 104.99,-79.58"/>
<polygon fill="#9a32cd" stroke="#9a32cd" points="36.76,-104.82 29.22,-112.26 39.76,-111.14 36.76,-104.82"/>
<text text-anchor="middle" x="57" y="-107" font-family="Helvetica,sans-Serif" font-size="10.00"> iter</text>
</g>
<!-- Node4&#45;&gt;Node2 -->
<g id="edge3" class="edge">
<title>Node4&#45;&gt;Node2</title>
<path fill="none" stroke="orange" stroke-dasharray="5,2" d="M227.38,-119C278.95,-119 348.91,-119 397.81,-119"/>
<polygon fill="orange" stroke="orange" points="227.32,-115.5 217.32,-119 227.32,-122.5 227.32,-115.5"/>
<text text-anchor="start" x="249" y="-133" font-family="Helvetica,sans-Serif" font-size="10.00"> &lt; A, T, Dim01, Dim23,</text>
<text text-anchor="middle" x="305.5" y="-122" font-family="Helvetica,sans-Serif" font-size="10.00"> m, n, k, l &gt;</text>
</g>
<!-- Node5 -->
<g id="node5" class="node">
<title>Node5</title>
<g id="a_node5"><a xlink:href="classFTensor_1_1Tensor4__Expr.html" target="_top" xlink:title=" ">
<polygon fill="white" stroke="black" points="380,-38.5 380,-79.5 534,-79.5 534,-38.5 380,-38.5"/>
<text text-anchor="start" x="388" y="-67.5" font-family="Helvetica,sans-Serif" font-size="10.00">FTensor::Tensor4_Expr</text>
<text text-anchor="start" x="388" y="-56.5" font-family="Helvetica,sans-Serif" font-size="10.00">&lt; B, U, Dim0, Dim1, Dim23,</text>
<text text-anchor="middle" x="457" y="-45.5" font-family="Helvetica,sans-Serif" font-size="10.00"> Dim23, i, j, m, n &gt;</text>
</a>
</g>
</g>
<!-- Node5&#45;&gt;Node1 -->
<g id="edge5" class="edge">
<title>Node5&#45;&gt;Node1</title>
<path fill="none" stroke="#9a32cd" stroke-dasharray="5,2" d="M544.28,-71.33C561.71,-73.82 579.85,-76.41 596.69,-78.81"/>
<polygon fill="#9a32cd" stroke="#9a32cd" points="544.51,-67.82 534.11,-69.87 543.52,-74.75 544.51,-67.82"/>
<text text-anchor="middle" x="565.5" y="-78" font-family="Helvetica,sans-Serif" font-size="10.00"> iterB</text>
</g>
<!-- Node6 -->
<g id="node6" class="node">
<title>Node6</title>
<g id="a_node6"><a xlink:title=" ">
<polygon fill="white" stroke="#bfbfbf" points="143.5,-0.5 143.5,-19.5 172.5,-19.5 172.5,-0.5 143.5,-0.5"/>
<text text-anchor="middle" x="158" y="-7.5" font-family="Helvetica,sans-Serif" font-size="10.00">B</text>
</a>
</g>
</g>
<!-- Node6&#45;&gt;Node5 -->
<g id="edge6" class="edge">
<title>Node6&#45;&gt;Node5</title>
<path fill="none" stroke="#9a32cd" stroke-dasharray="5,2" d="M182.65,-13.9C224.83,-20.86 314.74,-35.69 379.96,-46.45"/>
<polygon fill="#9a32cd" stroke="#9a32cd" points="182.97,-10.41 172.53,-12.23 181.83,-17.31 182.97,-10.41"/>
<text text-anchor="middle" x="305.5" y="-47" font-family="Helvetica,sans-Serif" font-size="10.00"> iter</text>
</g>
<!-- Node7&#45;&gt;Node5 -->
<g id="edge7" class="edge">
<title>Node7&#45;&gt;Node5</title>
<path fill="none" stroke="orange" stroke-dasharray="5,2" d="M241.49,-59C284.77,-59 337.45,-59 379.76,-59"/>
<polygon fill="orange" stroke="orange" points="241.27,-55.5 231.27,-59 241.27,-62.5 241.27,-55.5"/>
<text text-anchor="start" x="254" y="-84" font-family="Helvetica,sans-Serif" font-size="10.00"> &lt; B, U, Dim0, Dim1,</text>
<text text-anchor="start" x="254" y="-73" font-family="Helvetica,sans-Serif" font-size="10.00"> Dim23, Dim23, i, j,</text>
<text text-anchor="middle" x="305.5" y="-62" font-family="Helvetica,sans-Serif" font-size="10.00"> m, n &gt;</text>
</g>
</g>
</svg>
        <g id="navigator" transform="translate(0 0)" fill="#404254">
                <rect fill="#f2f5e9" fill-opacity="0.5" stroke="#606060" stroke-width=".5" x="0" y="0" width="60" height="60"/>
                <use id="zoomplus" xlink:href="#zoomPlus" x="17" y="9" onmousedown="handleZoom(evt,'in')"/>
                <use id="zoomminus" xlink:href="#zoomMin" x="42" y="9" onmousedown="handleZoom(evt,'out')"/>
                <use id="reset" xlink:href="#resetDef" x="30" y="36" onmousedown="handleReset()"/>
                <g id="arrowUp" xlink:href="#dirArrow" transform="translate(30 24)" onmousedown="handlePan(0,-1)">
                  <use xlink:href="#rim" fill="#404040">
                        <set attributeName="fill" to="#808080" begin="arrowUp.mouseover" end="arrowUp.mouseout"/>
                  </use>
                  <path fill="none" stroke="white" stroke-width="1.5" d="M0,-3.0v7 M-2.5,-0.5L0,-3.0L2.5,-0.5"/>
                </g>
                <g id="arrowRight" xlink:href="#dirArrow" transform="rotate(90) translate(36 -43)" onmousedown="handlePan(1,0)">
                  <use xlink:href="#rim" fill="#404040">
                        <set attributeName="fill" to="#808080" begin="arrowRight.mouseover" end="arrowRight.mouseout"/>
                  </use>
                  <path fill="none" stroke="white" stroke-width="1.5" d="M0,-3.0v7 M-2.5,-0.5L0,-3.0L2.5,-0.5"/>
                </g>
                <g id="arrowDown" xlink:href="#dirArrow" transform="rotate(180) translate(-30 -48)" onmousedown="handlePan(0,1)">
                  <use xlink:href="#rim" fill="#404040">
                        <set attributeName="fill" to="#808080" begin="arrowDown.mouseover" end="arrowDown.mouseout"/>
                  </use>
                  <path fill="none" stroke="white" stroke-width="1.5" d="M0,-3.0v7 M-2.5,-0.5L0,-3.0L2.5,-0.5"/>
                </g>
                <g id="arrowLeft" xlink:href="#dirArrow" transform="rotate(270) translate(-36 17)" onmousedown="handlePan(-1,0)">
                  <use xlink:href="#rim" fill="#404040">
                        <set attributeName="fill" to="#808080" begin="arrowLeft.mouseover" end="arrowLeft.mouseout"/>
                  </use>
                  <path fill="none" stroke="white" stroke-width="1.5" d="M0,-3.0v7 M-2.5,-0.5L0,-3.0L2.5,-0.5"/>
                </g>
        </g>
        <svg viewBox="0 0 15 15" width="100%" height="30px" preserveAspectRatio="xMaxYMin meet">
         <g id="arrow_out" transform="scale(0.3 0.3)">
          <a xlink:href="classFTensor_1_1Ddg__times__Tensor4__2323__klij__coll__graph_org.svg" target="_base">
           <rect id="button" ry="5" rx="5" y="6" x="6" height="38" width="38"
                fill="#f2f5e9" fill-opacity="0.5" stroke="#606060" stroke-width="1.0"/>
           <path id="arrow"
             d="M 11.500037,31.436501 C 11.940474,20.09759 22.043105,11.32322 32.158766,21.979434 L 37.068811,17.246167 C 37.068811,17.246167 37.088388,32 37.088388,32 L 22.160133,31.978069 C 22.160133,31.978069 26.997745,27.140456 26.997745,27.140456 C 18.528582,18.264221 13.291696,25.230495 11.500037,31.436501 z"
             style="fill:#404040;"/>
          </a>
         </g>
        </svg>
</svg>
