<?xml version="1.0" encoding="UTF-8" standalone="no"?>
<!DOCTYPE svg PUBLIC "-//W3C//DTD SVG 1.1//EN"
 "http://www.w3.org/Graphics/SVG/1.1/DTD/svg11.dtd">
<!-- Generated by graphviz version 9.0.0 (20230911.1827)
 -->
<!-- Title: FTensor::Riemann_minus_Riemann&lt; A, B, T, U, Dim, i, j, k, l &gt; Pages: 1 -->
<svg width="632pt" height="111pt"
 viewBox="0.00 0.00 631.55 110.50" xmlns="http://www.w3.org/2000/svg" xmlns:xlink="http://www.w3.org/1999/xlink">
<g id="graph0" class="graph" transform="scale(1 1) rotate(0) translate(4 106.5)">
<title>FTensor::Riemann_minus_Riemann&lt; A, B, T, U, Dim, i, j, k, l &gt;</title>
<!-- Node1 -->
<g id="node1" class="node">
<title>Node1</title>
<g id="a_node1"><a xlink:title=" ">
<polygon fill="#999999" stroke="#666666" points="623.55,-84.12 495.8,-84.12 495.8,-42.38 623.55,-42.38 623.55,-84.12"/>
<text text-anchor="start" x="503.8" y="-70.62" font-family="Helvetica,sans-Serif" font-size="10.00">FTensor::Riemann_minus</text>
<text text-anchor="start" x="503.8" y="-59.38" font-family="Helvetica,sans-Serif" font-size="10.00">_Riemann&lt; A, B, T, U,</text>
<text text-anchor="middle" x="559.67" y="-48.12" font-family="Helvetica,sans-Serif" font-size="10.00"> Dim, i, j, k, l &gt;</text>
</a>
</g>
</g>
<!-- Node2 -->
<g id="node2" class="node">
<title>Node2</title>
<g id="a_node2"><a xlink:title=" ">
<polygon fill="white" stroke="#666666" points="430.17,-102.5 321.17,-102.5 321.17,-72 430.17,-72 430.17,-102.5"/>
<text text-anchor="start" x="329.17" y="-89" font-family="Helvetica,sans-Serif" font-size="10.00">Riemann_Expr&lt; A, T,</text>
<text text-anchor="middle" x="375.67" y="-77.75" font-family="Helvetica,sans-Serif" font-size="10.00"> Dim, i, j, k, l &gt;</text>
</a>
</g>
</g>
<!-- Node2&#45;&gt;Node1 -->
<g id="edge1" class="edge">
<title>Node2&#45;&gt;Node1</title>
<path fill="none" stroke="#9a32cd" stroke-dasharray="5,2" d="M441.58,-78.69C459.11,-76.38 478.06,-73.88 495.49,-71.58"/>
<polygon fill="#9a32cd" stroke="#9a32cd" points="441.25,-75.2 431.8,-79.98 442.17,-82.14 441.25,-75.2"/>
<text text-anchor="middle" x="466.17" y="-78" font-family="Helvetica,sans-Serif" font-size="10.00"> iterA</text>
</g>
<!-- Node3 -->
<g id="node3" class="node">
<title>Node3</title>
<g id="a_node3"><a xlink:href="class_f_tensor_1_1_riemann___expr.html" target="_top" xlink:title=" ">
<polygon fill="white" stroke="#666666" points="436.55,-53.5 314.8,-53.5 314.8,-23 436.55,-23 436.55,-53.5"/>
<text text-anchor="start" x="322.8" y="-40" font-family="Helvetica,sans-Serif" font-size="10.00">FTensor::Riemann_Expr</text>
<text text-anchor="middle" x="375.67" y="-28.75" font-family="Helvetica,sans-Serif" font-size="10.00">&lt; B, U, Dim, i, j, k, l &gt;</text>
</a>
</g>
</g>
<!-- Node3&#45;&gt;Node1 -->
<g id="edge2" class="edge">
<title>Node3&#45;&gt;Node1</title>
<path fill="none" stroke="#9a32cd" stroke-dasharray="5,2" d="M448.2,-48.07C463.77,-50.21 480.14,-52.46 495.37,-54.55"/>
<polygon fill="#9a32cd" stroke="#9a32cd" points="448.91,-44.64 438.53,-46.75 447.96,-51.57 448.91,-44.64"/>
<text text-anchor="middle" x="466.17" y="-54" font-family="Helvetica,sans-Serif" font-size="10.00"> iterB</text>
</g>
<!-- Node4 -->
<g id="node4" class="node">
<title>Node4</title>
<g id="a_node4"><a xlink:href="class_b.html" target="_top" xlink:title=" ">
<polygon fill="white" stroke="#666666" points="156.57,-70.88 127.77,-70.88 127.77,-51.62 156.57,-51.62 156.57,-70.88"/>
<text text-anchor="middle" x="142.17" y="-57.38" font-family="Helvetica,sans-Serif" font-size="10.00">B</text>
</a>
</g>
</g>
<!-- Node4&#45;&gt;Node3 -->
<g id="edge3" class="edge">
<title>Node4&#45;&gt;Node3</title>
<path fill="none" stroke="#9a32cd" stroke-dasharray="5,2" d="M168.38,-58.75C203.14,-55.29 266.89,-48.96 314.36,-44.24"/>
<polygon fill="#9a32cd" stroke="#9a32cd" points="168.07,-55.26 158.47,-59.73 168.77,-62.22 168.07,-55.26"/>
<text text-anchor="middle" x="258.92" y="-55" font-family="Helvetica,sans-Serif" font-size="10.00"> iter</text>
</g>
<!-- Node5 -->
<g id="node5" class="node">
<title>Node5</title>
<g id="a_node5"><a xlink:href="class_f_tensor_1_1_riemann___expr.html" target="_top" xlink:title=" ">
<polygon fill="white" stroke="#666666" points="203.05,-30.5 81.3,-30.5 81.3,0 203.05,0 203.05,-30.5"/>
<text text-anchor="start" x="89.3" y="-17" font-family="Helvetica,sans-Serif" font-size="10.00">FTensor::Riemann_Expr</text>
<text text-anchor="middle" x="142.17" y="-5.75" font-family="Helvetica,sans-Serif" font-size="10.00">&lt; A, T, Dim, i, j, k, l &gt;</text>
</a>
</g>
</g>
<!-- Node5&#45;&gt;Node3 -->
<g id="edge4" class="edge">
<title>Node5&#45;&gt;Node3</title>
<path fill="none" stroke="orange" stroke-dasharray="5,2" d="M214.49,-15.06C240.49,-15.71 270.05,-17.3 296.8,-20.75 302.57,-21.5 308.55,-22.47 314.5,-23.57"/>
<polygon fill="orange" stroke="orange" points="214.79,-11.57 204.72,-14.86 214.65,-18.56 214.79,-11.57"/>
<text text-anchor="start" x="221.05" y="-34.25" font-family="Helvetica,sans-Serif" font-size="10.00"> &lt; B, U, Dim, i, j,</text>
<text text-anchor="middle" x="258.92" y="-23" font-family="Helvetica,sans-Serif" font-size="10.00"> k, l &gt;</text>
</g>
<!-- Node6 -->
<g id="node6" class="node">
<title>Node6</title>
<g id="a_node6"><a xlink:title=" ">
<polygon fill="white" stroke="#666666" points="28.8,-24.88 0,-24.88 0,-5.62 28.8,-5.62 28.8,-24.88"/>
<text text-anchor="middle" x="14.4" y="-11.38" font-family="Helvetica,sans-Serif" font-size="10.00">A</text>
</a>
</g>
</g>
<!-- Node6&#45;&gt;Node5 -->
<g id="edge5" class="edge">
<title>Node6&#45;&gt;Node5</title>
<path fill="none" stroke="#9a32cd" stroke-dasharray="5,2" d="M40.35,-15.25C52.09,-15.25 66.64,-15.25 81,-15.25"/>
<polygon fill="#9a32cd" stroke="#9a32cd" points="40.37,-11.75 30.37,-15.25 40.37,-18.75 40.37,-11.75"/>
<text text-anchor="middle" x="55.05" y="-17" font-family="Helvetica,sans-Serif" font-size="10.00"> iter</text>
</g>
</g>
</svg>
