<?xml version="1.0" encoding="UTF-8" standalone="no"?>
<!DOCTYPE svg PUBLIC "-//W3C//DTD SVG 1.1//EN"
 "http://www.w3.org/Graphics/SVG/1.1/DTD/svg11.dtd">
<!-- Generated by graphviz version 2.43.0 (0)
 -->
<!-- Title: NonLinear Elastic Element Pages: 1 -->
<svg width="508pt" height="29pt"
 viewBox="0.00 0.00 508.00 28.50" xmlns="http://www.w3.org/2000/svg" xmlns:xlink="http://www.w3.org/1999/xlink">
<g id="graph0" class="graph" transform="scale(1 1) rotate(0) translate(4 24.5)">
<title>NonLinear Elastic Element</title>
<polygon fill="white" stroke="transparent" points="-4,4 -4,-24.5 504,-24.5 504,4 -4,4"/>
<!-- Node1 -->
<g id="node1" class="node">
<title>Node1</title>
<g id="a_node1"><a xlink:title=" ">
<polygon fill="#bfbfbf" stroke="black" points="266,-19 121,-19 121,0 266,0 266,-19"/>
<text text-anchor="middle" x="193.5" y="-7" font-family="Helvetica,sans-Serif" font-size="10.00">NonLinear Elastic Element</text>
</a>
</g>
</g>
<!-- Node3 -->
<g id="node2" class="node">
<title>Node3</title>
<g id="a_node2"><a xlink:href="group__convective__mass__elem.html" target="_top" xlink:title=" ">
<polygon fill="white" stroke="black" points="500,-19 414,-19 414,0 500,0 500,-19"/>
<text text-anchor="middle" x="457" y="-7" font-family="Helvetica,sans-Serif" font-size="10.00">Mass Element</text>
</a>
</g>
</g>
<!-- Node1&#45;&gt;Node3 -->
<g id="edge2" class="edge">
<title>Node1&#45;&gt;Node3</title>
<path fill="none" stroke="darkgreen" stroke-dasharray="5,2" d="M266.3,-9.5C313.63,-9.5 373.98,-9.5 413.75,-9.5"/>
<text text-anchor="middle" x="340" y="-12.5" font-family="Helvetica,sans-Serif" font-size="10.00">convective_matrix.cpp</text>
</g>
<!-- Node2 -->
<g id="node3" class="node">
<title>Node2</title>
<g id="a_node3"><a xlink:href="group__user__modules.html" target="_top" xlink:title=" ">
<polygon fill="white" stroke="black" points="84,-19 0,-19 0,0 84,0 84,-19"/>
<text text-anchor="middle" x="42" y="-7" font-family="Helvetica,sans-Serif" font-size="10.00">User modules</text>
</a>
</g>
</g>
<!-- Node2&#45;&gt;Node1 -->
<g id="edge1" class="edge">
<title>Node2&#45;&gt;Node1</title>
<path fill="none" stroke="black" d="M94.43,-9.5C103,-9.5 112.02,-9.5 120.98,-9.5"/>
<polygon fill="black" stroke="black" points="94.25,-6 84.25,-9.5 94.25,-13 94.25,-6"/>
</g>
</g>
</svg>
