<?xml version="1.0" encoding="UTF-8" standalone="no"?>
<!DOCTYPE svg PUBLIC "-//W3C//DTD SVG 1.1//EN"
 "http://www.w3.org/Graphics/SVG/1.1/DTD/svg11.dtd">
<!-- Generated by graphviz version 9.0.0 (20230911.1827)
 -->
<!-- Title: MoFEM Pages: 1 -->
<!--zoomable 1369 -->
<svg id="main" version="1.1" xmlns="http://www.w3.org/2000/svg" xmlns:xlink="http://www.w3.org/1999/xlink" xml:space="preserve" onload="init(evt)">
<style type="text/css"><![CDATA[
.edge:hover path { stroke: red; }
.edge:hover polygon { stroke: red; fill: red; }
]]></style>
<script type="text/javascript"><![CDATA[
var edges = document.getElementsByTagName('g');
if (edges && edges.length) {
  for (var i=0;i<edges.length;i++) {
    if (edges[i].id.substr(0,4)=='edge') {
      edges[i].setAttribute('class','edge');
    }
  }
}
]]></script>
        <defs>
                <circle id="rim" cx="0" cy="0" r="7"/>
                <circle id="rim2" cx="0" cy="0" r="3.5"/>
                <g id="zoomPlus">
                        <use xlink:href="#rim" fill="#404040">
                                <set attributeName="fill" to="#808080" begin="zoomplus.mouseover" end="zoomplus.mouseout"/>
                        </use>
                        <path d="M-4,0h8M0,-4v8" fill="none" stroke="white" stroke-width="1.5" pointer-events="none"/>
                </g>
                <g id="zoomMin">
                        <use xlink:href="#rim" fill="#404040">
                                <set attributeName="fill" to="#808080" begin="zoomminus.mouseover" end="zoomminus.mouseout"/>
                        </use>
                        <path d="M-4,0h8" fill="none" stroke="white" stroke-width="1.5" pointer-events="none"/>
                </g>
                <g id="dirArrow">
                        <path fill="none" stroke="white" stroke-width="1.5" d="M0,-3.0v7 M-2.5,-0.5L0,-3.0L2.5,-0.5"/>
                </g>
               <g id="resetDef">
                       <use xlink:href="#rim2" fill="#404040">
                               <set attributeName="fill" to="#808080" begin="reset.mouseover" end="reset.mouseout"/>
                       </use>
               </g>
        </defs>

<script type="text/javascript">
var viewWidth = 240;
var viewHeight = 1369;
var sectionId = 'dynsection-0';
</script>
<script xlink:href="svgpan.js"/>
<svg id="graph" class="graph">
<g id="viewport">
<title>MoFEM</title>
<!-- Node4 -->
<g id="node1" class="node">
<title>Node4</title>
<g id="a_node1"><a xlink:href="group__bc__manager.html" target="_top" xlink:title="Implementation manages boundary conditions.">
<polygon fill="white" stroke="#666666" points="232.25,-1360.88 86.5,-1360.88 86.5,-1341.62 232.25,-1341.62 232.25,-1360.88"/>
<text text-anchor="middle" x="159.38" y="-1347.38" font-family="Helvetica,sans-Serif" font-size="10.00">Manages boundary conditions</text>
</a>
</g>
</g>
<!-- Node36 -->
<g id="node2" class="node">
<title>Node36</title>
<g id="a_node2"><a xlink:href="group__dm.html" target="_top" xlink:title="Implementation of PETSc DM, managing interactions between mesh data structures and vectors and matric...">
<polygon fill="white" stroke="#666666" points="224.75,-1323.88 94,-1323.88 94,-1304.62 224.75,-1304.62 224.75,-1323.88"/>
<text text-anchor="middle" x="159.38" y="-1310.38" font-family="Helvetica,sans-Serif" font-size="10.00">Distributed mesh manager</text>
</a>
</g>
</g>
<!-- Node30 -->
<g id="node3" class="node">
<title>Node30</title>
<g id="a_node3"><a xlink:href="group__dof__multi__indices.html" target="_top" xlink:title=" ">
<polygon fill="white" stroke="#666666" points="210.5,-1286.5 108.25,-1286.5 108.25,-1256 210.5,-1256 210.5,-1286.5"/>
<text text-anchor="start" x="116.25" y="-1273" font-family="Helvetica,sans-Serif" font-size="10.00">Dofs structures and</text>
<text text-anchor="middle" x="159.38" y="-1261.75" font-family="Helvetica,sans-Serif" font-size="10.00"> multi&#45;indices</text>
</a>
</g>
</g>
<!-- Node32 -->
<g id="node4" class="node">
<title>Node32</title>
<g id="a_node4"><a xlink:href="group__ent__multi__indices.html" target="_top" xlink:title=" ">
<polygon fill="white" stroke="#666666" points="207.12,-1237.5 111.62,-1237.5 111.62,-1207 207.12,-1207 207.12,-1237.5"/>
<text text-anchor="start" x="119.62" y="-1224" font-family="Helvetica,sans-Serif" font-size="10.00">Entities structures</text>
<text text-anchor="middle" x="159.38" y="-1212.75" font-family="Helvetica,sans-Serif" font-size="10.00"> and multi&#45;indices</text>
</a>
</g>
</g>
<!-- Node31 -->
<g id="node5" class="node">
<title>Node31</title>
<g id="a_node5"><a xlink:href="group__fe__multi__indices.html" target="_top" xlink:title=" ">
<polygon fill="white" stroke="#666666" points="224,-1188.5 94.75,-1188.5 94.75,-1158 224,-1158 224,-1188.5"/>
<text text-anchor="start" x="102.75" y="-1175" font-family="Helvetica,sans-Serif" font-size="10.00">Finite elements structures</text>
<text text-anchor="middle" x="159.38" y="-1163.75" font-family="Helvetica,sans-Serif" font-size="10.00"> and multi&#45;indices</text>
</a>
</g>
</g>
<!-- Node8 -->
<g id="node6" class="node">
<title>Node8</title>
<g id="a_node6"><a xlink:href="group__field__evaluator.html" target="_top" xlink:title="Evaluate field at the point.">
<polygon fill="white" stroke="#666666" points="200,-1139.88 118.75,-1139.88 118.75,-1120.62 200,-1120.62 200,-1139.88"/>
<text text-anchor="middle" x="159.38" y="-1126.38" font-family="Helvetica,sans-Serif" font-size="10.00">Field Evaluator</text>
</a>
</g>
</g>
<!-- Node7 -->
<g id="node7" class="node">
<title>Node7</title>
<g id="a_node7"><a xlink:href="group__mesh__cut.html" target="_top" xlink:title="Interface to mesh cut mesh.">
<polygon fill="white" stroke="#666666" points="206.38,-1102.88 112.38,-1102.88 112.38,-1083.62 206.38,-1083.62 206.38,-1102.88"/>
<text text-anchor="middle" x="159.38" y="-1089.38" font-family="Helvetica,sans-Serif" font-size="10.00">CutMeshInterface</text>
</a>
</g>
</g>
<!-- Node26 -->
<g id="node8" class="node">
<title>Node26</title>
<g id="a_node8"><a xlink:href="group__mesh__tetgen.html" target="_top" xlink:title="Interface to run TetGen.">
<polygon fill="white" stroke="#666666" points="203.38,-1065.88 115.38,-1065.88 115.38,-1046.62 203.38,-1046.62 203.38,-1065.88"/>
<text text-anchor="middle" x="159.38" y="-1052.38" font-family="Helvetica,sans-Serif" font-size="10.00">TetGen interface</text>
</a>
</g>
</g>
<!-- Node1 -->
<g id="node9" class="node">
<title>Node1</title>
<g id="a_node9"><a xlink:title=" ">
<polygon fill="#999999" stroke="#666666" points="50.5,-695.88 0,-695.88 0,-676.62 50.5,-676.62 50.5,-695.88"/>
<text text-anchor="middle" x="25.25" y="-682.38" font-family="Helvetica,sans-Serif" font-size="10.00">MoFEM</text>
</a>
</g>
</g>
<!-- Node1&#45;&gt;Node4 -->
<g id="edge3" class="edge">
<title>Node1&#45;&gt;Node4</title>
<path fill="none" stroke="black" d="M26.79,-707.36C29.68,-813.4 44.81,-1284.66 86.5,-1333.25 89.18,-1336.37 92.31,-1339 95.75,-1341.2"/>
<polygon fill="black" stroke="black" points="30.29,-707.48 26.53,-697.57 23.29,-707.66 30.29,-707.48"/>
</g>
<!-- Node1&#45;&gt;Node36 -->
<g id="edge35" class="edge">
<title>Node1&#45;&gt;Node36</title>
<path fill="none" stroke="black" d="M26.93,-707.38C30.41,-809.56 47.56,-1249.53 86.5,-1295.25 89.6,-1298.89 93.3,-1301.87 97.37,-1304.31"/>
<polygon fill="black" stroke="black" points="30.43,-707.34 26.6,-697.46 23.44,-707.57 30.43,-707.34"/>
</g>
<!-- Node1&#45;&gt;Node30 -->
<g id="edge29" class="edge">
<title>Node1&#45;&gt;Node30</title>
<path fill="none" stroke="black" d="M27.2,-707.42C31.73,-804.4 52.32,-1203.26 86.5,-1246.25 92.09,-1253.28 99.78,-1258.34 108.06,-1261.98"/>
<polygon fill="black" stroke="black" points="30.7,-707.37 26.75,-697.54 23.71,-707.69 30.7,-707.37"/>
</g>
<!-- Node1&#45;&gt;Node32 -->
<g id="edge31" class="edge">
<title>Node1&#45;&gt;Node32</title>
<path fill="none" stroke="black" d="M25.86,-707.8C24.7,-794.95 24.64,-1120.24 86.5,-1197.25 92.87,-1205.18 101.91,-1210.6 111.44,-1214.31"/>
<polygon fill="black" stroke="black" points="29.36,-707.9 26.01,-697.84 22.36,-707.79 29.36,-707.9"/>
</g>
<!-- Node1&#45;&gt;Node31 -->
<g id="edge30" class="edge">
<title>Node1&#45;&gt;Node31</title>
<path fill="none" stroke="black" d="M26.13,-707.59C26.08,-789.24 29.94,-1080.57 86.5,-1149.25 89.09,-1152.4 92.11,-1155.14 95.41,-1157.52"/>
<polygon fill="black" stroke="black" points="29.63,-707.69 26.16,-697.68 22.63,-707.67 29.63,-707.69"/>
</g>
<!-- Node1&#45;&gt;Node8 -->
<g id="edge7" class="edge">
<title>Node1&#45;&gt;Node8</title>
<path fill="none" stroke="black" d="M26.24,-707.26C26.62,-784.53 31.94,-1051.65 86.5,-1112.25 94.68,-1121.33 106.68,-1126.15 118.55,-1128.62"/>
<polygon fill="black" stroke="black" points="29.74,-707.69 26.21,-697.7 22.74,-707.71 29.74,-707.69"/>
</g>
<!-- Node1&#45;&gt;Node7 -->
<g id="edge6" class="edge">
<title>Node1&#45;&gt;Node7</title>
<path fill="none" stroke="black" d="M26.55,-707.27C28.02,-780.16 36.64,-1020.6 86.5,-1075.25 93.18,-1082.57 102.34,-1087.11 111.89,-1089.89"/>
<polygon fill="black" stroke="black" points="30.05,-707.48 26.38,-697.54 23.05,-707.6 30.05,-707.48"/>
</g>
<!-- Node1&#45;&gt;Node26 -->
<g id="edge25" class="edge">
<title>Node1&#45;&gt;Node26</title>
<path fill="none" stroke="black" d="M26.93,-707.45C29.58,-775.92 41.36,-989.55 86.5,-1038.25 93.93,-1046.27 104.35,-1050.95 114.96,-1053.62"/>
<polygon fill="black" stroke="black" points="30.44,-707.48 26.58,-697.61 23.44,-707.73 30.44,-707.48"/>
</g>
<!-- Node14 -->
<g id="node10" class="node">
<title>Node14</title>
<g id="a_node10"><a xlink:href="group__mofem__access.html" target="_top" xlink:title="Get direct access to multi&#45;indices in database.">
<polygon fill="white" stroke="#666666" points="219.88,-1028.88 98.88,-1028.88 98.88,-1009.62 219.88,-1009.62 219.88,-1028.88"/>
<text text-anchor="middle" x="159.38" y="-1015.38" font-family="Helvetica,sans-Serif" font-size="10.00">Pointers to multi&#45;indices</text>
</a>
</g>
</g>
<!-- Node1&#45;&gt;Node14 -->
<g id="edge13" class="edge">
<title>Node1&#45;&gt;Node14</title>
<path fill="none" stroke="black" d="M27.42,-707.68C31.32,-771.48 46.07,-958.47 86.5,-1001.25 89.95,-1004.9 94.01,-1007.85 98.42,-1010.24"/>
<polygon fill="black" stroke="black" points="30.92,-707.62 26.85,-697.84 23.93,-708.03 30.92,-707.62"/>
</g>
<!-- Node2 -->
<g id="node11" class="node">
<title>Node2</title>
<g id="a_node11"><a xlink:href="group__mofem__base__functions.html" target="_top" xlink:title="Calculation of base functions at integration points.">
<polygon fill="white" stroke="#666666" points="200,-991.88 118.75,-991.88 118.75,-972.62 200,-972.62 200,-991.88"/>
<text text-anchor="middle" x="159.38" y="-978.38" font-family="Helvetica,sans-Serif" font-size="10.00">Base functions</text>
</a>
</g>
</g>
<!-- Node1&#45;&gt;Node2 -->
<g id="edge1" class="edge">
<title>Node1&#45;&gt;Node2</title>
<path fill="none" stroke="black" d="M28.02,-707.8C33.28,-766.51 50.73,-927.31 86.5,-964.25 94.91,-972.94 106.84,-977.67 118.56,-980.18"/>
<polygon fill="black" stroke="black" points="31.51,-707.5 27.16,-697.84 24.54,-708.1 31.51,-707.5"/>
</g>
<!-- Node21 -->
<g id="node12" class="node">
<title>Node21</title>
<g id="a_node12"><a xlink:href="group__mofem__basic__interface.html" target="_top" xlink:title="Implementation of basic interface for rapid problem implementation.">
<polygon fill="white" stroke="#666666" points="223.62,-954.88 95.12,-954.88 95.12,-935.62 223.62,-935.62 223.62,-954.88"/>
<text text-anchor="middle" x="159.38" y="-941.38" font-family="Helvetica,sans-Serif" font-size="10.00">PipelineManager interface</text>
</a>
</g>
</g>
<!-- Node1&#45;&gt;Node21 -->
<g id="edge20" class="edge">
<title>Node1&#45;&gt;Node21</title>
<path fill="none" stroke="black" d="M28.79,-707.7C35.48,-760.74 55.3,-896.04 86.5,-927.25 89.68,-930.43 93.34,-933.08 97.28,-935.29"/>
<polygon fill="black" stroke="black" points="32.27,-707.36 27.58,-697.86 25.32,-708.21 32.27,-707.36"/>
</g>
<!-- Node29 -->
<g id="node13" class="node">
<title>Node29</title>
<g id="a_node13"><a xlink:href="group__mofem__bc.html" target="_top" xlink:title=" ">
<polygon fill="white" stroke="#666666" points="211.62,-917.88 107.12,-917.88 107.12,-898.62 211.62,-898.62 211.62,-917.88"/>
<text text-anchor="middle" x="159.38" y="-904.38" font-family="Helvetica,sans-Serif" font-size="10.00">Boundary conditions</text>
</a>
</g>
</g>
<!-- Node1&#45;&gt;Node29 -->
<g id="edge28" class="edge">
<title>Node1&#45;&gt;Node29</title>
<path fill="none" stroke="black" d="M26.04,-707.35C26.82,-748.68 34.68,-840.55 86.5,-890.25 92.16,-895.68 99.21,-899.55 106.66,-902.28"/>
<polygon fill="black" stroke="black" points="29.54,-707.54 25.99,-697.56 22.54,-707.57 29.54,-707.54"/>
</g>
<!-- Node5 -->
<g id="node14" class="node">
<title>Node5</title>
<g id="a_node14"><a xlink:href="group__mofem__bit__ref.html" target="_top" xlink:title="Managing BitRefLevels.">
<polygon fill="white" stroke="#666666" points="200,-880.88 118.75,-880.88 118.75,-861.62 200,-861.62 200,-880.88"/>
<text text-anchor="middle" x="159.38" y="-867.38" font-family="Helvetica,sans-Serif" font-size="10.00">BitRefManager</text>
</a>
</g>
</g>
<!-- Node1&#45;&gt;Node5 -->
<g id="edge4" class="edge">
<title>Node1&#45;&gt;Node5</title>
<path fill="none" stroke="black" d="M27.7,-707.67C31.3,-743.28 43.73,-814.59 86.5,-853.25 95.28,-861.19 107.03,-865.74 118.49,-868.32"/>
<polygon fill="black" stroke="black" points="31.2,-707.46 26.86,-697.79 24.22,-708.05 31.2,-707.46"/>
</g>
<!-- Node6 -->
<g id="node15" class="node">
<title>Node6</title>
<g id="a_node15"><a xlink:href="group__mofem__comm.html" target="_top" xlink:title="Comm interface.">
<polygon fill="white" stroke="#666666" points="199.62,-843.88 119.12,-843.88 119.12,-824.62 199.62,-824.62 199.62,-843.88"/>
<text text-anchor="middle" x="159.38" y="-830.38" font-family="Helvetica,sans-Serif" font-size="10.00">Comm intrface</text>
</a>
</g>
</g>
<!-- Node1&#45;&gt;Node6 -->
<g id="edge5" class="edge">
<title>Node1&#45;&gt;Node6</title>
<path fill="none" stroke="black" d="M30.15,-707.39C36.63,-736.38 52.44,-788.07 86.5,-816.25 95.62,-823.79 107.47,-828.24 118.9,-830.84"/>
<polygon fill="black" stroke="black" points="33.59,-706.74 28.16,-697.64 26.73,-708.14 33.59,-706.74"/>
</g>
<!-- Node11 -->
<g id="node16" class="node">
<title>Node11</title>
<g id="a_node16"><a xlink:href="group__mofem__fe.html" target="_top" xlink:title="Adding and managing finite elements.">
<polygon fill="white" stroke="#666666" points="200.75,-806.88 118,-806.88 118,-787.62 200.75,-787.62 200.75,-806.88"/>
<text text-anchor="middle" x="159.38" y="-793.38" font-family="Helvetica,sans-Serif" font-size="10.00">Finite elements</text>
</a>
</g>
</g>
<!-- Node1&#45;&gt;Node11 -->
<g id="edge10" class="edge">
<title>Node1&#45;&gt;Node11</title>
<path fill="none" stroke="black" d="M34.11,-706.66C43.39,-728.02 60.88,-760.94 86.5,-779.25 95.6,-785.76 106.82,-789.92 117.66,-792.58"/>
<polygon fill="black" stroke="black" points="37.41,-705.48 30.37,-697.55 30.93,-708.13 37.41,-705.48"/>
</g>
<!-- Node9 -->
<g id="node17" class="node">
<title>Node9</title>
<g id="a_node17"><a xlink:href="group__mofem__field.html" target="_top" xlink:title="Data structure for adding and managing fields.">
<polygon fill="white" stroke="#666666" points="180.5,-769.88 138.25,-769.88 138.25,-750.62 180.5,-750.62 180.5,-769.88"/>
<text text-anchor="middle" x="159.38" y="-756.38" font-family="Helvetica,sans-Serif" font-size="10.00">Fields</text>
</a>
</g>
</g>
<!-- Node1&#45;&gt;Node9 -->
<g id="edge8" class="edge">
<title>Node1&#45;&gt;Node9</title>
<path fill="none" stroke="black" d="M41.65,-704.81C52.87,-717.17 69.1,-732.81 86.5,-742.25 102.56,-750.96 122.91,-755.55 137.86,-757.9"/>
<polygon fill="black" stroke="black" points="44.32,-702.54 35.11,-697.3 39.04,-707.14 44.32,-702.54"/>
</g>
<!-- Node3 -->
<g id="node18" class="node">
<title>Node3</title>
<g id="a_node18"><a xlink:href="group__mofem__forces__and__sources.html" target="_top" xlink:title="Manages complexities related to assembly of vector and matrices at single finite element level.">
<polygon fill="white" stroke="#666666" points="210.5,-732.88 108.25,-732.88 108.25,-713.62 210.5,-713.62 210.5,-732.88"/>
<text text-anchor="middle" x="159.38" y="-719.38" font-family="Helvetica,sans-Serif" font-size="10.00">Forces and sources</text>
</a>
</g>
</g>
<!-- Node1&#45;&gt;Node3 -->
<g id="edge2" class="edge">
<title>Node1&#45;&gt;Node3</title>
<path fill="none" stroke="black" d="M61.51,-697.76C69.68,-700.32 78.37,-702.95 86.5,-705.25 96.16,-707.98 106.6,-710.72 116.46,-713.2"/>
<polygon fill="black" stroke="black" points="62.81,-694.5 52.22,-694.81 60.69,-701.17 62.81,-694.5"/>
</g>
<!-- Node15 -->
<g id="node19" class="node">
<title>Node15</title>
<g id="a_node19"><a xlink:href="group__mofem__is__managers.html" target="_top" xlink:title="Construct index sets for MoFEM problems.">
<polygon fill="white" stroke="#666666" points="199.62,-695.88 119.12,-695.88 119.12,-676.62 199.62,-676.62 199.62,-695.88"/>
<text text-anchor="middle" x="159.38" y="-682.38" font-family="Helvetica,sans-Serif" font-size="10.00">Index sets (IS)</text>
</a>
</g>
</g>
<!-- Node1&#45;&gt;Node15 -->
<g id="edge14" class="edge">
<title>Node1&#45;&gt;Node15</title>
<path fill="none" stroke="black" d="M62.23,-686.25C79.69,-686.25 100.72,-686.25 118.65,-686.25"/>
<polygon fill="black" stroke="black" points="62.31,-682.75 52.31,-686.25 62.31,-689.75 62.31,-682.75"/>
</g>
<!-- Node16 -->
<g id="node20" class="node">
<title>Node16</title>
<g id="a_node20"><a xlink:href="group__mofem__log__manager.html" target="_top" xlink:title="Log manager.">
<polygon fill="white" stroke="#666666" points="212.75,-658.88 106,-658.88 106,-639.62 212.75,-639.62 212.75,-658.88"/>
<text text-anchor="middle" x="159.38" y="-645.38" font-family="Helvetica,sans-Serif" font-size="10.00">Mofem_log_manager</text>
</a>
</g>
</g>
<!-- Node1&#45;&gt;Node16 -->
<g id="edge15" class="edge">
<title>Node1&#45;&gt;Node16</title>
<path fill="none" stroke="black" d="M61.51,-674.74C69.68,-672.18 78.37,-669.55 86.5,-667.25 96.16,-664.52 106.6,-661.78 116.46,-659.3"/>
<polygon fill="black" stroke="black" points="60.69,-671.33 52.22,-677.69 62.81,-678 60.69,-671.33"/>
</g>
<!-- Node13 -->
<g id="node21" class="node">
<title>Node13</title>
<g id="a_node21"><a xlink:href="group__mofem__loops.html" target="_top" xlink:title="Manages complexities for integrating over finite elements and dofs.">
<polygon fill="white" stroke="#666666" points="180.5,-621.88 138.25,-621.88 138.25,-602.62 180.5,-602.62 180.5,-621.88"/>
<text text-anchor="middle" x="159.38" y="-608.38" font-family="Helvetica,sans-Serif" font-size="10.00">Loops</text>
</a>
</g>
</g>
<!-- Node1&#45;&gt;Node13 -->
<g id="edge12" class="edge">
<title>Node1&#45;&gt;Node13</title>
<path fill="none" stroke="black" d="M41.65,-667.69C52.87,-655.33 69.1,-639.69 86.5,-630.25 102.56,-621.54 122.91,-616.95 137.86,-614.6"/>
<polygon fill="black" stroke="black" points="39.04,-665.36 35.11,-675.2 44.32,-669.96 39.04,-665.36"/>
</g>
<!-- Node17 -->
<g id="node22" class="node">
<title>Node17</title>
<g id="a_node22"><a xlink:href="group__mofem__mat__interface.html" target="_top" xlink:title="Creating and managing matrices.">
<polygon fill="white" stroke="#666666" points="201.12,-584.88 117.62,-584.88 117.62,-565.62 201.12,-565.62 201.12,-584.88"/>
<text text-anchor="middle" x="159.38" y="-571.38" font-family="Helvetica,sans-Serif" font-size="10.00">Matrix Manager</text>
</a>
</g>
</g>
<!-- Node1&#45;&gt;Node17 -->
<g id="edge16" class="edge">
<title>Node1&#45;&gt;Node17</title>
<path fill="none" stroke="black" d="M34.11,-665.84C43.39,-644.48 60.88,-611.56 86.5,-593.25 95.5,-586.82 106.56,-582.67 117.29,-580.01"/>
<polygon fill="black" stroke="black" points="30.93,-664.37 30.37,-674.95 37.41,-667.02 30.93,-664.37"/>
</g>
<!-- Node18 -->
<g id="node23" class="node">
<title>Node18</title>
<g id="a_node23"><a xlink:href="group__mofem__med__files.html" target="_top" xlink:title="Interface for reading and writing med files.">
<polygon fill="white" stroke="#666666" points="210.5,-547.5 108.25,-547.5 108.25,-517 210.5,-517 210.5,-547.5"/>
<text text-anchor="start" x="116.25" y="-534" font-family="Helvetica,sans-Serif" font-size="10.00">Reading and writing</text>
<text text-anchor="middle" x="159.38" y="-522.75" font-family="Helvetica,sans-Serif" font-size="10.00"> med files</text>
</a>
</g>
</g>
<!-- Node1&#45;&gt;Node18 -->
<g id="edge17" class="edge">
<title>Node1&#45;&gt;Node18</title>
<path fill="none" stroke="black" d="M30.56,-665.05C37.47,-636.41 53.71,-585.57 86.5,-556.25 92.68,-550.73 100.17,-546.47 107.95,-543.19"/>
<polygon fill="black" stroke="black" points="27.18,-664.17 28.42,-674.69 34.01,-665.69 27.18,-664.17"/>
</g>
<!-- Node19 -->
<g id="node24" class="node">
<title>Node19</title>
<g id="a_node24"><a xlink:href="group__mofem__meshset__mng.html" target="_top" xlink:title="Interface for meshsets with entities with data and boundary conditions.">
<polygon fill="white" stroke="#666666" points="207.5,-498.88 111.25,-498.88 111.25,-479.62 207.5,-479.62 207.5,-498.88"/>
<text text-anchor="middle" x="159.38" y="-485.38" font-family="Helvetica,sans-Serif" font-size="10.00">MeshsetsManager</text>
</a>
</g>
</g>
<!-- Node1&#45;&gt;Node19 -->
<g id="edge18" class="edge">
<title>Node1&#45;&gt;Node19</title>
<path fill="none" stroke="black" d="M27.18,-665.08C30,-627.83 41.29,-550.49 86.5,-508.25 93.29,-501.91 101.95,-497.63 110.88,-494.75"/>
<polygon fill="black" stroke="black" points="23.7,-664.76 26.59,-674.96 30.68,-665.18 23.7,-664.76"/>
</g>
<!-- Node20 -->
<g id="node25" class="node">
<title>Node20</title>
<g id="a_node25"><a xlink:href="group__mofem__node__merger.html" target="_top" xlink:title="Node merger interface.">
<polygon fill="white" stroke="#666666" points="194,-461.88 124.75,-461.88 124.75,-442.62 194,-442.62 194,-461.88"/>
<text text-anchor="middle" x="159.38" y="-448.38" font-family="Helvetica,sans-Serif" font-size="10.00">NodeMerger</text>
</a>
</g>
</g>
<!-- Node1&#45;&gt;Node20 -->
<g id="edge19" class="edge">
<title>Node1&#45;&gt;Node20</title>
<path fill="none" stroke="black" d="M25.62,-665.1C25.55,-621.99 31.78,-523.53 86.5,-470.25 96.55,-460.47 111.07,-455.75 124.43,-453.56"/>
<polygon fill="black" stroke="black" points="22.11,-664.92 25.77,-674.86 29.11,-664.81 22.11,-664.92"/>
</g>
<!-- Node35 -->
<g id="node26" class="node">
<title>Node35</title>
<g id="a_node26"><a xlink:href="group__mofem__petsc__solvers.html" target="_top" xlink:title="PETSc solvers.">
<polygon fill="white" stroke="#666666" points="200.38,-424.88 118.38,-424.88 118.38,-405.62 200.38,-405.62 200.38,-424.88"/>
<text text-anchor="middle" x="159.38" y="-411.38" font-family="Helvetica,sans-Serif" font-size="10.00">PETSc solvers</text>
</a>
</g>
</g>
<!-- Node1&#45;&gt;Node35 -->
<g id="edge34" class="edge">
<title>Node1&#45;&gt;Node35</title>
<path fill="none" stroke="black" d="M28.51,-664.84C34.72,-609.97 53.81,-466.32 86.5,-433.25 94.82,-424.83 106.44,-420.14 117.92,-417.58"/>
<polygon fill="black" stroke="black" points="25.03,-664.4 27.43,-674.72 31.99,-665.16 25.03,-664.4"/>
</g>
<!-- Node22 -->
<g id="node27" class="node">
<title>Node22</title>
<g id="a_node27"><a xlink:href="group__mofem__prism__interface.html" target="_top" xlink:title="Create prism interface between faces.">
<polygon fill="white" stroke="#666666" points="199.25,-387.88 119.5,-387.88 119.5,-368.62 199.25,-368.62 199.25,-387.88"/>
<text text-anchor="middle" x="159.38" y="-374.38" font-family="Helvetica,sans-Serif" font-size="10.00">PrismInterface</text>
</a>
</g>
</g>
<!-- Node1&#45;&gt;Node22 -->
<g id="edge21" class="edge">
<title>Node1&#45;&gt;Node22</title>
<path fill="none" stroke="black" d="M27.79,-664.97C32.58,-604.77 49.17,-435.12 86.5,-396.25 95.05,-387.34 107.3,-382.58 119.27,-380.12"/>
<polygon fill="black" stroke="black" points="24.31,-664.61 27.04,-674.85 31.29,-665.14 24.31,-664.61"/>
</g>
<!-- Node12 -->
<g id="node28" class="node">
<title>Node12</title>
<g id="a_node28"><a xlink:href="group__mofem__problems.html" target="_top" xlink:title="Adding and managing problems.">
<polygon fill="white" stroke="#666666" points="188,-350.88 130.75,-350.88 130.75,-331.62 188,-331.62 188,-350.88"/>
<text text-anchor="middle" x="159.38" y="-337.38" font-family="Helvetica,sans-Serif" font-size="10.00">Problems</text>
</a>
</g>
</g>
<!-- Node1&#45;&gt;Node12 -->
<g id="edge11" class="edge">
<title>Node1&#45;&gt;Node12</title>
<path fill="none" stroke="black" d="M27.23,-665.29C30.68,-600.34 44.46,-404.03 86.5,-359.25 97.68,-347.34 115.46,-342.82 130.53,-341.28"/>
<polygon fill="black" stroke="black" points="23.75,-664.78 26.74,-674.94 30.74,-665.13 23.75,-664.78"/>
</g>
<!-- Node23 -->
<g id="node29" class="node">
<title>Node23</title>
<g id="a_node29"><a xlink:href="group__mofem__problems__manager.html" target="_top" xlink:title="Adding and managing problems.">
<polygon fill="white" stroke="#666666" points="206.75,-313.88 112,-313.88 112,-294.62 206.75,-294.62 206.75,-313.88"/>
<text text-anchor="middle" x="159.38" y="-300.38" font-family="Helvetica,sans-Serif" font-size="10.00">ProblemsManager</text>
</a>
</g>
</g>
<!-- Node1&#45;&gt;Node23 -->
<g id="edge22" class="edge">
<title>Node1&#45;&gt;Node23</title>
<path fill="none" stroke="black" d="M26.8,-665.24C29.04,-595.44 39.81,-372.91 86.5,-322.25 93.13,-315.06 102.15,-310.55 111.57,-307.77"/>
<polygon fill="black" stroke="black" points="23.31,-664.8 26.51,-674.9 30.3,-665.01 23.31,-664.8"/>
</g>
<!-- Node10 -->
<g id="node30" class="node">
<title>Node10</title>
<g id="a_node30"><a xlink:href="group__mofem__ref__ents.html" target="_top" xlink:title="Get adjacencies/entities for given BitRefLevel (mesh refinement)">
<polygon fill="white" stroke="#666666" points="229.25,-276.88 89.5,-276.88 89.5,-257.62 229.25,-257.62 229.25,-276.88"/>
<text text-anchor="middle" x="159.38" y="-263.38" font-family="Helvetica,sans-Serif" font-size="10.00">Get entities and adjacencies</text>
</a>
</g>
</g>
<!-- Node1&#45;&gt;Node10 -->
<g id="edge9" class="edge">
<title>Node1&#45;&gt;Node10</title>
<path fill="none" stroke="black" d="M26.44,-665.05C27.57,-590.49 35.16,-341.78 86.5,-285.25 89.35,-282.11 92.67,-279.48 96.27,-277.28"/>
<polygon fill="black" stroke="black" points="22.95,-664.62 26.33,-674.66 29.95,-664.7 22.95,-664.62"/>
</g>
<!-- Node24 -->
<g id="node31" class="node">
<title>Node24</title>
<g id="a_node31"><a xlink:href="group__mofem__series.html" target="_top" xlink:title=" ">
<polygon fill="white" stroke="#666666" points="216.12,-239.5 102.62,-239.5 102.62,-209 216.12,-209 216.12,-239.5"/>
<text text-anchor="start" x="110.62" y="-226" font-family="Helvetica,sans-Serif" font-size="10.00">Recording and reading</text>
<text text-anchor="middle" x="159.38" y="-214.75" font-family="Helvetica,sans-Serif" font-size="10.00"> series</text>
</a>
</g>
</g>
<!-- Node1&#45;&gt;Node24 -->
<g id="edge23" class="edge">
<title>Node1&#45;&gt;Node24</title>
<path fill="none" stroke="black" d="M26.3,-665.31C26.9,-587.03 32.87,-312.88 86.5,-248.25 90.78,-243.09 96.21,-239.03 102.16,-235.84"/>
<polygon fill="black" stroke="black" points="22.8,-664.95 26.25,-674.97 29.8,-664.99 22.8,-664.95"/>
</g>
<!-- Node25 -->
<g id="node32" class="node">
<title>Node25</title>
<g id="a_node32"><a xlink:href="group__mofem__simple__interface.html" target="_top" xlink:title="Implementation of simple interface for fast problem set&#45;up.">
<polygon fill="white" stroke="#666666" points="202.62,-190.88 116.12,-190.88 116.12,-171.62 202.62,-171.62 202.62,-190.88"/>
<text text-anchor="middle" x="159.38" y="-177.38" font-family="Helvetica,sans-Serif" font-size="10.00">Simple interface</text>
</a>
</g>
</g>
<!-- Node1&#45;&gt;Node25 -->
<g id="edge24" class="edge">
<title>Node1&#45;&gt;Node25</title>
<path fill="none" stroke="black" d="M25.85,-664.81C24.7,-580.23 24.86,-270.84 86.5,-200.25 93.97,-191.69 104.8,-186.78 115.79,-184"/>
<polygon fill="black" stroke="black" points="22.34,-664.74 26,-674.68 29.34,-664.63 22.34,-664.74"/>
</g>
<!-- Node27 -->
<g id="node33" class="node">
<title>Node27</title>
<g id="a_node33"><a xlink:href="group__mofem__tools.html" target="_top" xlink:title="Interface for tools.">
<polygon fill="white" stroke="#666666" points="199.25,-153.88 119.5,-153.88 119.5,-134.62 199.25,-134.62 199.25,-153.88"/>
<text text-anchor="middle" x="159.38" y="-140.38" font-family="Helvetica,sans-Serif" font-size="10.00">Tools interface</text>
</a>
</g>
</g>
<!-- Node1&#45;&gt;Node27 -->
<g id="edge26" class="edge">
<title>Node1&#45;&gt;Node27</title>
<path fill="none" stroke="black" d="M27.29,-664.9C32.01,-571.38 52.77,-200.72 86.5,-162.25 94.73,-152.87 107.04,-148.01 119.16,-145.6"/>
<polygon fill="black" stroke="black" points="23.8,-664.52 26.8,-674.69 30.79,-664.87 23.8,-664.52"/>
</g>
<!-- Node28 -->
<g id="node34" class="node">
<title>Node28</title>
<g id="a_node34"><a xlink:href="group__mofem__vectors.html" target="_top" xlink:title="Creating and scattering vectors on the mesh for given problem.">
<polygon fill="white" stroke="#666666" points="197.38,-116.88 121.38,-116.88 121.38,-97.62 197.38,-97.62 197.38,-116.88"/>
<text text-anchor="middle" x="159.38" y="-103.38" font-family="Helvetica,sans-Serif" font-size="10.00">Vectors (Vec)</text>
</a>
</g>
</g>
<!-- Node1&#45;&gt;Node28 -->
<g id="edge27" class="edge">
<title>Node1&#45;&gt;Node28</title>
<path fill="none" stroke="black" d="M27.11,-664.97C31.25,-567.51 50.38,-166.75 86.5,-125.25 95.11,-115.35 108.27,-110.48 120.99,-108.21"/>
<polygon fill="black" stroke="black" points="23.62,-664.77 26.7,-674.91 30.61,-665.06 23.62,-664.77"/>
</g>
<!-- Node33 -->
<g id="node35" class="node">
<title>Node33</title>
<g id="a_node35"><a xlink:href="group__problems__multi__indices.html" target="_top" xlink:title=" ">
<polygon fill="white" stroke="#666666" points="211.25,-79.5 107.5,-79.5 107.5,-49 211.25,-49 211.25,-79.5"/>
<text text-anchor="start" x="115.5" y="-66" font-family="Helvetica,sans-Serif" font-size="10.00">Problems structures</text>
<text text-anchor="middle" x="159.38" y="-54.75" font-family="Helvetica,sans-Serif" font-size="10.00"> and multi&#45;indices</text>
</a>
</g>
</g>
<!-- Node1&#45;&gt;Node33 -->
<g id="edge32" class="edge">
<title>Node1&#45;&gt;Node33</title>
<path fill="none" stroke="black" d="M27.04,-664.91C30.98,-563.62 49.75,-134.22 86.5,-88.25 91.92,-81.47 99.33,-76.59 107.33,-73.08"/>
<polygon fill="black" stroke="black" points="23.55,-664.64 26.67,-674.77 30.54,-664.91 23.55,-664.64"/>
</g>
<!-- Node34 -->
<g id="node36" class="node">
<title>Node34</title>
<g id="a_node36"><a xlink:href="group__series__multi__indices.html" target="_top" xlink:title="Interface used to record fields and play them back (for example response of structure subjected to ea...">
<polygon fill="white" stroke="#666666" points="213.88,-30.5 104.88,-30.5 104.88,0 213.88,0 213.88,-30.5"/>
<text text-anchor="start" x="112.88" y="-17" font-family="Helvetica,sans-Serif" font-size="10.00">Series structures and</text>
<text text-anchor="middle" x="159.38" y="-5.75" font-family="Helvetica,sans-Serif" font-size="10.00"> multi&#45;indices</text>
</a>
</g>
</g>
<!-- Node1&#45;&gt;Node34 -->
<g id="edge33" class="edge">
<title>Node1&#45;&gt;Node34</title>
<path fill="none" stroke="black" d="M26.88,-665.24C30.19,-559.71 47.07,-90.58 86.5,-40.25 91.23,-34.22 97.5,-29.64 104.38,-26.16"/>
<polygon fill="black" stroke="black" points="23.39,-664.87 26.58,-674.98 30.38,-665.09 23.39,-664.87"/>
</g>
</g>
</svg>
        <g id="navigator" transform="translate(0 0)" fill="#404254">
                <rect fill="#f2f5e9" fill-opacity="0.5" stroke="#606060" stroke-width=".5" x="0" y="0" width="60" height="60"/>
                <use id="zoomplus" xlink:href="#zoomPlus" x="17" y="9" onmousedown="handleZoom(evt,'in')"/>
                <use id="zoomminus" xlink:href="#zoomMin" x="42" y="9" onmousedown="handleZoom(evt,'out')"/>
                <use id="reset" xlink:href="#resetDef" x="30" y="36" onmousedown="handleReset()"/>
                <g id="arrowUp" xlink:href="#dirArrow" transform="translate(30 24)" onmousedown="handlePan(0,-1)">
                  <use xlink:href="#rim" fill="#404040">
                        <set attributeName="fill" to="#808080" begin="arrowUp.mouseover" end="arrowUp.mouseout"/>
                  </use>
                  <path fill="none" stroke="white" stroke-width="1.5" d="M0,-3.0v7 M-2.5,-0.5L0,-3.0L2.5,-0.5"/>
                </g>
                <g id="arrowRight" xlink:href="#dirArrow" transform="rotate(90) translate(36 -43)" onmousedown="handlePan(1,0)">
                  <use xlink:href="#rim" fill="#404040">
                        <set attributeName="fill" to="#808080" begin="arrowRight.mouseover" end="arrowRight.mouseout"/>
                  </use>
                  <path fill="none" stroke="white" stroke-width="1.5" d="M0,-3.0v7 M-2.5,-0.5L0,-3.0L2.5,-0.5"/>
                </g>
                <g id="arrowDown" xlink:href="#dirArrow" transform="rotate(180) translate(-30 -48)" onmousedown="handlePan(0,1)">
                  <use xlink:href="#rim" fill="#404040">
                        <set attributeName="fill" to="#808080" begin="arrowDown.mouseover" end="arrowDown.mouseout"/>
                  </use>
                  <path fill="none" stroke="white" stroke-width="1.5" d="M0,-3.0v7 M-2.5,-0.5L0,-3.0L2.5,-0.5"/>
                </g>
                <g id="arrowLeft" xlink:href="#dirArrow" transform="rotate(270) translate(-36 17)" onmousedown="handlePan(-1,0)">
                  <use xlink:href="#rim" fill="#404040">
                        <set attributeName="fill" to="#808080" begin="arrowLeft.mouseover" end="arrowLeft.mouseout"/>
                  </use>
                  <path fill="none" stroke="white" stroke-width="1.5" d="M0,-3.0v7 M-2.5,-0.5L0,-3.0L2.5,-0.5"/>
                </g>
        </g>
        <svg viewBox="0 0 15 15" width="100%" height="30px" preserveAspectRatio="xMaxYMin meet">
         <g id="arrow_out" transform="scale(0.3 0.3)">
          <a xlink:href="group__mofem_org.svg" target="_base">
           <rect id="button" ry="5" rx="5" y="6" x="6" height="38" width="38"
                fill="#f2f5e9" fill-opacity="0.5" stroke="#606060" stroke-width="1.0"/>
           <path id="arrow"
             d="M 11.500037,31.436501 C 11.940474,20.09759 22.043105,11.32322 32.158766,21.979434 L 37.068811,17.246167 C 37.068811,17.246167 37.088388,32 37.088388,32 L 22.160133,31.978069 C 22.160133,31.978069 26.997745,27.140456 26.997745,27.140456 C 18.528582,18.264221 13.291696,25.230495 11.500037,31.436501 z"
             style="fill:#404040;"/>
          </a>
         </g>
        </svg>
</svg>
