<?xml version="1.0" encoding="UTF-8" standalone="no"?>
<!DOCTYPE svg PUBLIC "-//W3C//DTD SVG 1.1//EN"
 "http://www.w3.org/Graphics/SVG/1.1/DTD/svg11.dtd">
<!-- Generated by graphviz version 2.43.0 (0)
 -->
<!-- Title: Graphical Class Hierarchy Pages: 1 -->
<svg width="303pt" height="78pt"
 viewBox="0.00 0.00 303.00 77.50" xmlns="http://www.w3.org/2000/svg" xmlns:xlink="http://www.w3.org/1999/xlink">
<g id="graph0" class="graph" transform="scale(1 1) rotate(0) translate(4 73.5)">
<title>Graphical Class Hierarchy</title>
<polygon fill="white" stroke="transparent" points="-4,4 -4,-73.5 299,-73.5 299,4 -4,4"/>
<!-- Node0 -->
<g id="node1" class="node">
<title>Node0</title>
<g id="a_node1"><a xlink:href="classFaceSideOp.html" target="_top" xlink:title=" ">
<polygon fill="white" stroke="black" points="0,-28 0,-47 73,-47 73,-28 0,-28"/>
<text text-anchor="middle" x="36.5" y="-35" font-family="Helvetica,sans-Serif" font-size="10.00">FaceSideOp</text>
</a>
</g>
</g>
<!-- Node1 -->
<g id="node2" class="node">
<title>Node1</title>
<g id="a_node2"><a xlink:href="structOpCalculateSideData.html" target="_top" xlink:title="Operator tp collect data from elements on the side of Edge/Face.">
<polygon fill="white" stroke="black" points="142,-50 142,-69 262,-69 262,-50 142,-50"/>
<text text-anchor="middle" x="202" y="-57" font-family="Helvetica,sans-Serif" font-size="10.00">OpCalculateSideData</text>
</a>
</g>
</g>
<!-- Node0&#45;&gt;Node1 -->
<g id="edge1" class="edge">
<title>Node0&#45;&gt;Node1</title>
<path fill="none" stroke="midnightblue" d="M83.39,-43.67C101.49,-46.11 122.52,-48.94 141.75,-51.53"/>
<polygon fill="midnightblue" stroke="midnightblue" points="83.76,-40.19 73.38,-42.33 82.82,-47.13 83.76,-40.19"/>
</g>
<!-- Node2 -->
<g id="node3" class="node">
<title>Node2</title>
<g id="a_node3"><a xlink:href="structPoisson2DiscontGalerkinOperators_1_1OpCalculateSideData.html" target="_top" xlink:title="Operator tp collect data from elements on the side of Edge/Face.">
<polygon fill="white" stroke="black" points="109,-0.5 109,-30.5 295,-30.5 295,-0.5 109,-0.5"/>
<text text-anchor="start" x="117" y="-18.5" font-family="Helvetica,sans-Serif" font-size="10.00">Poisson2DiscontGalerkinOperators</text>
<text text-anchor="middle" x="202" y="-7.5" font-family="Helvetica,sans-Serif" font-size="10.00">::OpCalculateSideData</text>
</a>
</g>
</g>
<!-- Node0&#45;&gt;Node2 -->
<g id="edge2" class="edge">
<title>Node0&#45;&gt;Node2</title>
<path fill="none" stroke="midnightblue" d="M83.3,-31.34C91.41,-30.25 100.11,-29.08 108.97,-27.88"/>
<polygon fill="midnightblue" stroke="midnightblue" points="82.82,-27.87 73.38,-32.67 83.76,-34.81 82.82,-27.87"/>
</g>
</g>
</svg>
