<?xml version="1.0" encoding="UTF-8" standalone="no"?>
<!DOCTYPE svg PUBLIC "-//W3C//DTD SVG 1.1//EN"
 "http://www.w3.org/Graphics/SVG/1.1/DTD/svg11.dtd">
<!-- Generated by graphviz version 2.43.0 (0)
 -->
<!-- Title: Graphical Class Hierarchy Pages: 1 -->
<svg width="269pt" height="64pt"
 viewBox="0.00 0.00 269.00 64.00" xmlns="http://www.w3.org/2000/svg" xmlns:xlink="http://www.w3.org/1999/xlink">
<g id="graph0" class="graph" transform="scale(1 1) rotate(0) translate(4 60)">
<title>Graphical Class Hierarchy</title>
<!-- Node0 -->
<g id="Node000000" class="node">
<title>Node0</title>
<g id="a_Node000000"><a xlink:href="structGenericSliding.html" target="_top" xlink:title="Implementation of surface sliding constrains.">
<polygon fill="white" stroke="#666666" points="87,-37 0,-37 0,-18 87,-18 87,-37"/>
<text text-anchor="middle" x="43.5" y="-25" font-family="Helvetica,sans-Serif" font-size="10.00">GenericSliding</text>
</a>
</g>
</g>
<!-- Node1 -->
<g id="Node000001" class="node">
<title>Node1</title>
<g id="a_Node000001"><a xlink:href="structEdgeSlidingConstrains.html" target="_top" xlink:title=" ">
<polygon fill="white" stroke="#666666" points="254.5,-56 129.5,-56 129.5,-37 254.5,-37 254.5,-56"/>
<text text-anchor="middle" x="192" y="-44" font-family="Helvetica,sans-Serif" font-size="10.00">EdgeSlidingConstrains</text>
</a>
</g>
</g>
<!-- Node0&#45;&gt;Node1 -->
<g id="edge229_Node000000_Node000001" class="edge">
<title>Node0&#45;&gt;Node1</title>
<g id="a_edge229_Node000000_Node000001"><a xlink:title=" ">
<path fill="none" stroke="#63b8ff" d="M97.41,-34.36C107.79,-35.71 118.76,-37.13 129.4,-38.51"/>
<polygon fill="#63b8ff" stroke="#63b8ff" points="97.63,-30.86 87.27,-33.05 96.73,-37.8 97.63,-30.86"/>
</a>
</g>
</g>
<!-- Node2 -->
<g id="Node000002" class="node">
<title>Node2</title>
<g id="a_Node000002"><a xlink:href="structSurfaceSlidingConstrains.html" target="_top" xlink:title="Shape preserving constrains, i.e. nodes sliding on body surface.">
<polygon fill="white" stroke="#666666" points="261,-19 123,-19 123,0 261,0 261,-19"/>
<text text-anchor="middle" x="192" y="-7" font-family="Helvetica,sans-Serif" font-size="10.00">SurfaceSlidingConstrains</text>
</a>
</g>
</g>
<!-- Node0&#45;&gt;Node2 -->
<g id="edge230_Node000000_Node000002" class="edge">
<title>Node0&#45;&gt;Node2</title>
<g id="a_edge230_Node000000_Node000002"><a xlink:title=" ">
<path fill="none" stroke="#63b8ff" d="M97.46,-20.99C105.7,-19.98 114.31,-18.92 122.82,-17.88"/>
<polygon fill="#63b8ff" stroke="#63b8ff" points="96.77,-17.55 87.27,-22.25 97.62,-24.5 96.77,-17.55"/>
</a>
</g>
</g>
</g>
</svg>
