<?xml version="1.0" encoding="UTF-8" standalone="no"?>
<!DOCTYPE svg PUBLIC "-//W3C//DTD SVG 1.1//EN"
 "http://www.w3.org/Graphics/SVG/1.1/DTD/svg11.dtd">
<!-- Generated by graphviz version 10.0.1 (20240210.2158)
 -->
<!-- Title: Graphical Class Hierarchy Pages: 1 -->
<svg width="324pt" height="206pt"
 viewBox="0.00 0.00 324.25 206.12" xmlns="http://www.w3.org/2000/svg" xmlns:xlink="http://www.w3.org/1999/xlink">
<g id="graph0" class="graph" transform="scale(1 1) rotate(0) translate(4 202.12)">
<title>Graphical Class Hierarchy</title>
<!-- Node0 -->
<g id="Node000000" class="node">
<title>Node0</title>
<g id="a_Node000000"><a xlink:href="class_vol_user_data_operator.html" target="_top" xlink:title=" ">
<polygon fill="white" stroke="#666666" points="109.75,-111.5 0,-111.5 0,-92.25 109.75,-92.25 109.75,-111.5"/>
<text text-anchor="middle" x="54.88" y="-98" font-family="Helvetica,sans-Serif" font-size="10.00">VolUserDataOperator</text>
</a>
</g>
</g>
<!-- Node1 -->
<g id="Node000001" class="node">
<title>Node1</title>
<g id="a_Node000001"><a xlink:href="struct_eshelbian_plasticity_1_1_h_m_h_hencky_1_1_op_calculate_energy.html" target="_top" xlink:title="Calculate energy density for Hencky material model.">
<polygon fill="white" stroke="#666666" points="315.88,-198.12 146.12,-198.12 146.12,-167.62 315.88,-167.62 315.88,-198.12"/>
<text text-anchor="start" x="154.12" y="-184.62" font-family="Helvetica,sans-Serif" font-size="10.00">EshelbianPlasticity</text>
<text text-anchor="middle" x="231" y="-173.38" font-family="Helvetica,sans-Serif" font-size="10.00">::HMHHencky::OpCalculateEnergy</text>
</a>
</g>
</g>
<!-- Node0&#45;&gt;Node1 -->
<g id="edge1321_Node000000_Node000001" class="edge">
<title>Node0&#45;&gt;Node1</title>
<g id="a_edge1321_Node000000_Node000001"><a xlink:title=" ">
<path fill="none" stroke="#63b8ff" d="M77.77,-118.3C95.37,-130.86 121.14,-147.84 145.75,-158.88 152.55,-161.92 159.83,-164.68 167.17,-167.15"/>
<polygon fill="#63b8ff" stroke="#63b8ff" points="80.26,-115.78 70.12,-112.73 76.15,-121.44 80.26,-115.78"/>
</a>
</g>
</g>
<!-- Node2 -->
<g id="Node000002" class="node">
<title>Node2</title>
<g id="a_Node000002"><a xlink:href="struct_eshelbian_plasticity_1_1_h_m_h_hencky_1_1_op_calculate_stretch_from_stress.html" target="_top" xlink:title=" ">
<polygon fill="white" stroke="#666666" points="316.25,-149.75 145.75,-149.75 145.75,-108 316.25,-108 316.25,-149.75"/>
<text text-anchor="start" x="153.75" y="-136.25" font-family="Helvetica,sans-Serif" font-size="10.00">EshelbianPlasticity</text>
<text text-anchor="start" x="153.75" y="-125" font-family="Helvetica,sans-Serif" font-size="10.00">::HMHHencky::OpCalculateStretch</text>
<text text-anchor="middle" x="231" y="-113.75" font-family="Helvetica,sans-Serif" font-size="10.00">FromStress</text>
</a>
</g>
</g>
<!-- Node0&#45;&gt;Node2 -->
<g id="edge1322_Node000000_Node000002" class="edge">
<title>Node0&#45;&gt;Node2</title>
<g id="a_edge1322_Node000000_Node000002"><a xlink:title=" ">
<path fill="none" stroke="#63b8ff" d="M121.37,-112.03C129.26,-113.25 137.41,-114.52 145.52,-115.78"/>
<polygon fill="#63b8ff" stroke="#63b8ff" points="121.93,-108.58 111.51,-110.5 120.86,-115.49 121.93,-108.58"/>
</a>
</g>
</g>
<!-- Node3 -->
<g id="Node000003" class="node">
<title>Node3</title>
<g id="a_Node000003"><a xlink:href="struct_eshelbian_plasticity_1_1_h_m_h_neohookean_1_1_op_get_scale.html" target="_top" xlink:title=" ">
<polygon fill="white" stroke="#666666" points="310.62,-90.12 151.38,-90.12 151.38,-59.62 310.62,-59.62 310.62,-90.12"/>
<text text-anchor="start" x="159.38" y="-76.62" font-family="Helvetica,sans-Serif" font-size="10.00">EshelbianPlasticity</text>
<text text-anchor="middle" x="231" y="-65.38" font-family="Helvetica,sans-Serif" font-size="10.00">::HMHNeohookean::OpGetScale</text>
</a>
</g>
</g>
<!-- Node0&#45;&gt;Node3 -->
<g id="edge1323_Node000000_Node000003" class="edge">
<title>Node0&#45;&gt;Node3</title>
<g id="a_edge1323_Node000000_Node000003"><a xlink:title=" ">
<path fill="none" stroke="#63b8ff" d="M121.21,-91.74C130.92,-90.24 141.01,-88.67 150.97,-87.13"/>
<polygon fill="#63b8ff" stroke="#63b8ff" points="120.86,-88.26 111.51,-93.25 121.93,-95.17 120.86,-88.26"/>
</a>
</g>
</g>
<!-- Node4 -->
<g id="Node000004" class="node">
<title>Node4</title>
<g id="a_Node000004"><a xlink:href="struct_eshelbian_plasticity_1_1_op_calculate_rotation_and_spatial_gradient.html" target="_top" xlink:title=" ">
<polygon fill="white" stroke="#666666" points="311,-41.75 151,-41.75 151,0 311,0 311,-41.75"/>
<text text-anchor="start" x="159" y="-28.25" font-family="Helvetica,sans-Serif" font-size="10.00">EshelbianPlasticity</text>
<text text-anchor="start" x="159" y="-17" font-family="Helvetica,sans-Serif" font-size="10.00">::OpCalculateRotationAndSpatial</text>
<text text-anchor="middle" x="231" y="-5.75" font-family="Helvetica,sans-Serif" font-size="10.00">Gradient</text>
</a>
</g>
</g>
<!-- Node0&#45;&gt;Node4 -->
<g id="edge1324_Node000000_Node000004" class="edge">
<title>Node0&#45;&gt;Node4</title>
<g id="a_edge1324_Node000000_Node000004"><a xlink:title=" ">
<path fill="none" stroke="#63b8ff" d="M81.23,-85.91C98.9,-75.18 123.25,-61.17 145.75,-50.88 152.39,-47.84 159.42,-44.91 166.5,-42.14"/>
<polygon fill="#63b8ff" stroke="#63b8ff" points="79.64,-82.78 72.96,-91 83.31,-88.74 79.64,-82.78"/>
</a>
</g>
</g>
</g>
</svg>
