<?xml version="1.0" encoding="UTF-8" standalone="no"?>
<!DOCTYPE svg PUBLIC "-//W3C//DTD SVG 1.1//EN"
 "http://www.w3.org/Graphics/SVG/1.1/DTD/svg11.dtd">
<!-- Generated by graphviz version 2.43.0 (0)
 -->
<!-- Title: Graphical Class Hierarchy Pages: 1 -->
<svg width="273pt" height="100pt"
 viewBox="0.00 0.00 273.00 99.50" xmlns="http://www.w3.org/2000/svg" xmlns:xlink="http://www.w3.org/1999/xlink">
<g id="graph0" class="graph" transform="scale(1 1) rotate(0) translate(4 95.5)">
<title>Graphical Class Hierarchy</title>
<polygon fill="white" stroke="transparent" points="-4,4 -4,-95.5 269,-95.5 269,4 -4,4"/>
<!-- Node0 -->
<g id="node1" class="node">
<title>Node0</title>
<g id="a_node1"><a xlink:href="classELEMENT.html" target="_top" xlink:title=" ">
<polygon fill="white" stroke="black" points="0,-33 0,-52 62,-52 62,-33 0,-33"/>
<text text-anchor="middle" x="31" y="-40" font-family="Helvetica,sans-Serif" font-size="10.00">ELEMENT</text>
</a>
</g>
</g>
<!-- Node1 -->
<g id="node2" class="node">
<title>Node1</title>
<g id="a_node2"><a xlink:href="structFractureMechanics_1_1CrackFrontSingularBase.html" target="_top" xlink:title=" ">
<polygon fill="white" stroke="black" points="98,-50 98,-91 265,-91 265,-50 98,-50"/>
<text text-anchor="start" x="106" y="-79" font-family="Helvetica,sans-Serif" font-size="10.00">FractureMechanics::</text>
<text text-anchor="start" x="106" y="-68" font-family="Helvetica,sans-Serif" font-size="10.00">CrackFrontSingularBase</text>
<text text-anchor="middle" x="181.5" y="-57" font-family="Helvetica,sans-Serif" font-size="10.00">&lt; ELEMENT, BASE_ELEMENT &gt;</text>
</a>
</g>
</g>
<!-- Node0&#45;&gt;Node1 -->
<g id="edge1" class="edge">
<title>Node0&#45;&gt;Node1</title>
<path fill="none" stroke="midnightblue" d="M71.94,-50.03C80.09,-51.57 88.93,-53.23 97.94,-54.93"/>
<polygon fill="midnightblue" stroke="midnightblue" points="72.53,-46.58 62.05,-48.17 71.23,-53.46 72.53,-46.58"/>
</g>
<!-- Node2 -->
<g id="node3" class="node">
<title>Node2</title>
<g id="a_node3"><a xlink:href="structPostProcTemplateOnRefineMesh.html" target="_top" xlink:title="Generic post&#45;processing class.">
<polygon fill="white" stroke="black" points="107.5,-0.5 107.5,-30.5 255.5,-30.5 255.5,-0.5 107.5,-0.5"/>
<text text-anchor="start" x="115.5" y="-18.5" font-family="Helvetica,sans-Serif" font-size="10.00">PostProcTemplateOnRefine</text>
<text text-anchor="middle" x="181.5" y="-7.5" font-family="Helvetica,sans-Serif" font-size="10.00">Mesh&lt; ELEMENT &gt;</text>
</a>
</g>
</g>
<!-- Node0&#45;&gt;Node2 -->
<g id="edge2" class="edge">
<title>Node0&#45;&gt;Node2</title>
<path fill="none" stroke="midnightblue" d="M72.06,-35.22C82.95,-33.24 95.1,-31.03 107.21,-28.83"/>
<polygon fill="midnightblue" stroke="midnightblue" points="71.26,-31.8 62.05,-37.04 72.52,-38.69 71.26,-31.8"/>
</g>
</g>
</svg>
