<?xml version="1.0" encoding="UTF-8" standalone="no"?>
<!DOCTYPE svg PUBLIC "-//W3C//DTD SVG 1.1//EN"
 "http://www.w3.org/Graphics/SVG/1.1/DTD/svg11.dtd">
<!-- Generated by graphviz version 9.0.0 (20230911.1827)
 -->
<!-- Title: Graphical Class Hierarchy Pages: 1 -->
<svg width="331pt" height="310pt"
 viewBox="0.00 0.00 331.00 310.25" xmlns="http://www.w3.org/2000/svg" xmlns:xlink="http://www.w3.org/1999/xlink">
<g id="graph0" class="graph" transform="scale(1 1) rotate(0) translate(4 306.25)">
<title>Graphical Class Hierarchy</title>
<!-- Node0 -->
<g id="node1" class="node">
<title>Node0</title>
<g id="a_node1"><a xlink:href="struct_mo_f_e_m_1_1_generic_attribute_data.html" target="_top" xlink:title="Generic attribute data structure.">
<polygon fill="white" stroke="#666666" points="148,-160.25 0,-160.25 0,-141 148,-141 148,-160.25"/>
<text text-anchor="middle" x="74" y="-146.75" font-family="Helvetica,sans-Serif" font-size="10.00">MoFEM::GenericAttributeData</text>
</a>
</g>
</g>
<!-- Node1 -->
<g id="node2" class="node">
<title>Node1</title>
<g id="a_node2"><a xlink:href="struct_mo_f_e_m_1_1_block_set_attributes.html" target="_top" xlink:title="Arbitrary block attributes data structure.">
<polygon fill="white" stroke="#666666" points="322.62,-302.25 184.38,-302.25 184.38,-283 322.62,-283 322.62,-302.25"/>
<text text-anchor="middle" x="253.5" y="-288.75" font-family="Helvetica,sans-Serif" font-size="10.00">MoFEM::BlockSetAttributes</text>
</a>
</g>
</g>
<!-- Node0&#45;&gt;Node1 -->
<g id="edge1" class="edge">
<title>Node0&#45;&gt;Node1</title>
<path fill="none" stroke="#63b8ff" d="M86.74,-170.12C104.37,-197.66 140.3,-247.63 184,-274.62 189.13,-277.79 194.8,-280.4 200.62,-282.56"/>
<polygon fill="#63b8ff" stroke="#63b8ff" points="89.77,-168.36 81.52,-161.72 83.83,-172.06 89.77,-168.36"/>
</g>
<!-- Node2 -->
<g id="node3" class="node">
<title>Node2</title>
<g id="a_node3"><a xlink:href="struct_mo_f_e_m_1_1_block___body_forces.html" target="_top" xlink:title="Body force data structure.">
<polygon fill="white" stroke="#666666" points="323,-265.25 184,-265.25 184,-246 323,-246 323,-265.25"/>
<text text-anchor="middle" x="253.5" y="-251.75" font-family="Helvetica,sans-Serif" font-size="10.00">MoFEM::Block_BodyForces</text>
</a>
</g>
</g>
<!-- Node0&#45;&gt;Node2 -->
<g id="edge2" class="edge">
<title>Node0&#45;&gt;Node2</title>
<path fill="none" stroke="#63b8ff" d="M92.49,-168.5C112.75,-188.22 148,-219.55 184,-237.62 190.26,-240.77 197.13,-243.41 204.03,-245.61"/>
<polygon fill="#63b8ff" stroke="#63b8ff" points="95.16,-166.22 85.59,-161.66 90.22,-171.19 95.16,-166.22"/>
</g>
<!-- Node3 -->
<g id="node4" class="node">
<title>Node3</title>
<g id="a_node4"><a xlink:href="struct_mo_f_e_m_1_1_mat___elastic.html" target="_top" xlink:title="Elastic material data structure.">
<polygon fill="white" stroke="#666666" points="307.62,-228.25 199.38,-228.25 199.38,-209 307.62,-209 307.62,-228.25"/>
<text text-anchor="middle" x="253.5" y="-214.75" font-family="Helvetica,sans-Serif" font-size="10.00">MoFEM::Mat_Elastic</text>
</a>
</g>
</g>
<!-- Node0&#45;&gt;Node3 -->
<g id="edge3" class="edge">
<title>Node0&#45;&gt;Node3</title>
<path fill="none" stroke="#63b8ff" d="M104.89,-165.55C126.51,-175.97 156.62,-189.74 184,-199.62 193.05,-202.89 202.95,-205.94 212.33,-208.58"/>
<polygon fill="#63b8ff" stroke="#63b8ff" points="106.6,-162.48 96.07,-161.25 103.53,-168.78 106.6,-162.48"/>
</g>
<!-- Node4 -->
<g id="node5" class="node">
<title>Node4</title>
<g id="a_node5"><a xlink:href="struct_mo_f_e_m_1_1_mat___elastic___eberlein_holzapfel1.html" target="_top" xlink:title="Mat_Elastic with Fibres.">
<polygon fill="white" stroke="#666666" points="307.62,-190.88 199.38,-190.88 199.38,-160.38 307.62,-160.38 307.62,-190.88"/>
<text text-anchor="start" x="207.38" y="-177.38" font-family="Helvetica,sans-Serif" font-size="10.00">MoFEM::Mat_Elastic</text>
<text text-anchor="middle" x="253.5" y="-166.12" font-family="Helvetica,sans-Serif" font-size="10.00">_EberleinHolzapfel1</text>
</a>
</g>
</g>
<!-- Node0&#45;&gt;Node4 -->
<g id="edge4" class="edge">
<title>Node0&#45;&gt;Node4</title>
<path fill="none" stroke="#63b8ff" d="M157.86,-162.3C171.89,-164.27 186.11,-166.27 199.11,-168.11"/>
<polygon fill="#63b8ff" stroke="#63b8ff" points="158.57,-158.86 148.18,-160.93 157.6,-165.79 158.57,-158.86"/>
</g>
<!-- Node5 -->
<g id="node6" class="node">
<title>Node5</title>
<g id="a_node6"><a xlink:href="struct_mo_f_e_m_1_1_mat___elastic___trans_iso.html" target="_top" xlink:title="Transverse Isotropic material data structure.">
<polygon fill="white" stroke="#666666" points="307.62,-141.88 199.38,-141.88 199.38,-111.38 307.62,-111.38 307.62,-141.88"/>
<text text-anchor="start" x="207.38" y="-128.38" font-family="Helvetica,sans-Serif" font-size="10.00">MoFEM::Mat_Elastic</text>
<text text-anchor="middle" x="253.5" y="-117.12" font-family="Helvetica,sans-Serif" font-size="10.00">_TransIso</text>
</a>
</g>
</g>
<!-- Node0&#45;&gt;Node5 -->
<g id="edge5" class="edge">
<title>Node0&#45;&gt;Node5</title>
<path fill="none" stroke="#63b8ff" d="M159.7,-139.17C173.13,-137.36 186.68,-135.52 199.13,-133.84"/>
<polygon fill="#63b8ff" stroke="#63b8ff" points="159.42,-135.68 149.98,-140.49 160.36,-142.62 159.42,-135.68"/>
</g>
<!-- Node6 -->
<g id="node7" class="node">
<title>Node6</title>
<g id="a_node7"><a xlink:href="struct_mo_f_e_m_1_1_mat___interf.html" target="_top" xlink:title="Linear interface data structure.">
<polygon fill="white" stroke="#666666" points="303.88,-93.25 203.12,-93.25 203.12,-74 303.88,-74 303.88,-93.25"/>
<text text-anchor="middle" x="253.5" y="-79.75" font-family="Helvetica,sans-Serif" font-size="10.00">MoFEM::Mat_Interf</text>
</a>
</g>
</g>
<!-- Node0&#45;&gt;Node6 -->
<g id="edge6" class="edge">
<title>Node0&#45;&gt;Node6</title>
<path fill="none" stroke="#63b8ff" d="M105.72,-135.67C127.3,-125.52 157.01,-112.25 184,-102.62 193.07,-99.39 202.97,-96.36 212.35,-93.72"/>
<polygon fill="#63b8ff" stroke="#63b8ff" points="104.43,-132.41 96.9,-139.87 107.44,-138.73 104.43,-132.41"/>
</g>
<!-- Node7 -->
<g id="node8" class="node">
<title>Node7</title>
<g id="a_node8"><a xlink:href="struct_mo_f_e_m_1_1_mat___moisture.html" target="_top" xlink:title="moisture transport material data structure">
<polygon fill="white" stroke="#666666" points="311.38,-56.25 195.62,-56.25 195.62,-37 311.38,-37 311.38,-56.25"/>
<text text-anchor="middle" x="253.5" y="-42.75" font-family="Helvetica,sans-Serif" font-size="10.00">MoFEM::Mat_Moisture</text>
</a>
</g>
</g>
<!-- Node0&#45;&gt;Node7 -->
<g id="edge7" class="edge">
<title>Node0&#45;&gt;Node7</title>
<path fill="none" stroke="#63b8ff" d="M92.53,-132.96C112.83,-113.48 148.11,-82.52 184,-64.62 190.27,-61.5 197.15,-58.87 204.05,-56.68"/>
<polygon fill="#63b8ff" stroke="#63b8ff" points="90.32,-130.22 85.63,-139.72 95.22,-135.23 90.32,-130.22"/>
</g>
<!-- Node8 -->
<g id="node9" class="node">
<title>Node8</title>
<g id="a_node9"><a xlink:href="struct_mo_f_e_m_1_1_mat___thermal.html" target="_top" xlink:title="Thermal material data structure.">
<polygon fill="white" stroke="#666666" points="310.25,-19.25 196.75,-19.25 196.75,0 310.25,0 310.25,-19.25"/>
<text text-anchor="middle" x="253.5" y="-5.75" font-family="Helvetica,sans-Serif" font-size="10.00">MoFEM::Mat_Thermal</text>
</a>
</g>
</g>
<!-- Node0&#45;&gt;Node8 -->
<g id="edge8" class="edge">
<title>Node0&#45;&gt;Node8</title>
<path fill="none" stroke="#63b8ff" d="M87.04,-130.89C104.81,-103.48 140.66,-54.28 184,-27.62 189.13,-24.47 194.81,-21.86 200.64,-19.71"/>
<polygon fill="#63b8ff" stroke="#63b8ff" points="84.13,-128.94 81.76,-139.27 90.05,-132.68 84.13,-128.94"/>
</g>
</g>
</svg>
