<?xml version="1.0" encoding="UTF-8" standalone="no"?>
<!DOCTYPE svg PUBLIC "-//W3C//DTD SVG 1.1//EN"
 "http://www.w3.org/Graphics/SVG/1.1/DTD/svg11.dtd">
<!-- Generated by graphviz version 9.0.0 (20230911.1827)
 -->
<!-- Title: Graphical Class Hierarchy Pages: 1 -->
<svg width="521pt" height="137pt"
 viewBox="0.00 0.00 521.00 136.50" xmlns="http://www.w3.org/2000/svg" xmlns:xlink="http://www.w3.org/1999/xlink">
<g id="graph0" class="graph" transform="scale(1 1) rotate(0) translate(4 132.5)">
<title>Graphical Class Hierarchy</title>
<!-- Node0 -->
<g id="node1" class="node">
<title>Node0</title>
<g id="a_node1"><a xlink:href="struct_post_proc_common_on_ref_mesh_1_1_common_data.html" target="_top" xlink:title=" ">
<polygon fill="white" stroke="#666666" points="148.75,-79.5 0,-79.5 0,-49 148.75,-49 148.75,-79.5"/>
<text text-anchor="start" x="8" y="-66" font-family="Helvetica,sans-Serif" font-size="10.00">PostProcCommonOnRefMesh</text>
<text text-anchor="middle" x="74.38" y="-54.75" font-family="Helvetica,sans-Serif" font-size="10.00">::CommonData</text>
</a>
</g>
</g>
<!-- Node1 -->
<g id="node2" class="node">
<title>Node1</title>
<g id="a_node2"><a xlink:href="struct_post_proc_common_on_ref_mesh_1_1_common_data_for_volume.html" target="_top" xlink:title=" ">
<polygon fill="white" stroke="#666666" points="333.88,-128.5 185.12,-128.5 185.12,-98 333.88,-98 333.88,-128.5"/>
<text text-anchor="start" x="193.12" y="-115" font-family="Helvetica,sans-Serif" font-size="10.00">PostProcCommonOnRefMesh</text>
<text text-anchor="middle" x="259.5" y="-103.75" font-family="Helvetica,sans-Serif" font-size="10.00">::CommonDataForVolume</text>
</a>
</g>
</g>
<!-- Node0&#45;&gt;Node1 -->
<g id="edge1" class="edge">
<title>Node0&#45;&gt;Node1</title>
<path fill="none" stroke="#63b8ff" d="M145.12,-82.91C163.17,-87.74 182.41,-92.89 199.82,-97.55"/>
<polygon fill="#63b8ff" stroke="#63b8ff" points="146.1,-79.55 135.53,-80.35 144.29,-86.31 146.1,-79.55"/>
</g>
<!-- Node3 -->
<g id="node4" class="node">
<title>Node3</title>
<g id="a_node4"><a xlink:href="struct_post_proc_edge_on_refined_mesh_1_1_common_data.html" target="_top" xlink:title=" ">
<polygon fill="white" stroke="#666666" points="334.25,-79.5 184.75,-79.5 184.75,-49 334.25,-49 334.25,-79.5"/>
<text text-anchor="start" x="192.75" y="-66" font-family="Helvetica,sans-Serif" font-size="10.00">PostProcEdgeOnRefinedMesh</text>
<text text-anchor="middle" x="259.5" y="-54.75" font-family="Helvetica,sans-Serif" font-size="10.00">::CommonData</text>
</a>
</g>
</g>
<!-- Node0&#45;&gt;Node3 -->
<g id="edge3" class="edge">
<title>Node0&#45;&gt;Node3</title>
<path fill="none" stroke="#63b8ff" d="M160.34,-64.25C168.36,-64.25 176.45,-64.25 184.36,-64.25"/>
<polygon fill="#63b8ff" stroke="#63b8ff" points="160.58,-60.75 150.58,-64.25 160.58,-67.75 160.58,-60.75"/>
</g>
<!-- Node4 -->
<g id="node5" class="node">
<title>Node4</title>
<g id="a_node5"><a xlink:href="struct_post_proc_face_on_refined_mesh_1_1_common_data.html" target="_top" xlink:title=" ">
<polygon fill="white" stroke="#666666" points="333.88,-30.5 185.12,-30.5 185.12,0 333.88,0 333.88,-30.5"/>
<text text-anchor="start" x="193.12" y="-17" font-family="Helvetica,sans-Serif" font-size="10.00">PostProcFaceOnRefinedMesh</text>
<text text-anchor="middle" x="259.5" y="-5.75" font-family="Helvetica,sans-Serif" font-size="10.00">::CommonData</text>
</a>
</g>
</g>
<!-- Node0&#45;&gt;Node4 -->
<g id="edge4" class="edge">
<title>Node0&#45;&gt;Node4</title>
<path fill="none" stroke="#63b8ff" d="M145.12,-45.59C163.17,-40.76 182.41,-35.61 199.82,-30.95"/>
<polygon fill="#63b8ff" stroke="#63b8ff" points="144.29,-42.19 135.53,-48.15 146.1,-48.95 144.29,-42.19"/>
</g>
<!-- Node2 -->
<g id="node3" class="node">
<title>Node2</title>
<g id="a_node3"><a xlink:href="struct_post_proc_fat_prism_on_refined_mesh_1_1_common_data.html" target="_top" xlink:title=" ">
<polygon fill="white" stroke="#666666" points="513,-128.5 370.25,-128.5 370.25,-98 513,-98 513,-128.5"/>
<text text-anchor="start" x="378.25" y="-115" font-family="Helvetica,sans-Serif" font-size="10.00">PostProcFatPrismOnRefined</text>
<text text-anchor="middle" x="441.62" y="-103.75" font-family="Helvetica,sans-Serif" font-size="10.00">Mesh::CommonData</text>
</a>
</g>
</g>
<!-- Node1&#45;&gt;Node2 -->
<g id="edge2" class="edge">
<title>Node1&#45;&gt;Node2</title>
<path fill="none" stroke="#63b8ff" d="M345.67,-113.25C353.77,-113.25 361.92,-113.25 369.86,-113.25"/>
<polygon fill="#63b8ff" stroke="#63b8ff" points="345.8,-109.75 335.8,-113.25 345.8,-116.75 345.8,-109.75"/>
</g>
</g>
</svg>
