<?xml version="1.0" encoding="UTF-8" standalone="no"?>
<!DOCTYPE svg PUBLIC "-//W3C//DTD SVG 1.1//EN"
 "http://www.w3.org/Graphics/SVG/1.1/DTD/svg11.dtd">
<!-- Generated by graphviz version 9.0.0 (20230911.1827)
 -->
<!-- Title: Graphical Class Hierarchy Pages: 1 -->
<svg width="288pt" height="88pt"
 viewBox="0.00 0.00 288.25 87.50" xmlns="http://www.w3.org/2000/svg" xmlns:xlink="http://www.w3.org/1999/xlink">
<g id="graph0" class="graph" transform="scale(1 1) rotate(0) translate(4 83.5)">
<title>Graphical Class Hierarchy</title>
<!-- Node0 -->
<g id="node1" class="node">
<title>Node0</title>
<g id="a_node1"><a xlink:href="class_domain_side_ele_op.html" target="_top" xlink:title=" ">
<polygon fill="white" stroke="#666666" points="96.25,-48.88 0,-48.88 0,-29.62 96.25,-29.62 96.25,-48.88"/>
<text text-anchor="middle" x="48.12" y="-35.38" font-family="Helvetica,sans-Serif" font-size="10.00">DomainSideEleOp</text>
</a>
</g>
</g>
<!-- Node1 -->
<g id="node2" class="node">
<title>Node1</title>
<g id="a_node2"><a xlink:href="struct_op_rotating_frame_tools_1_1_op_volume_side_calculate_e_p.html" target="_top" xlink:title=" ">
<polygon fill="white" stroke="#666666" points="277.25,-79.5 135.25,-79.5 135.25,-49 277.25,-49 277.25,-79.5"/>
<text text-anchor="start" x="143.25" y="-66" font-family="Helvetica,sans-Serif" font-size="10.00">OpRotatingFrameTools</text>
<text text-anchor="middle" x="206.25" y="-54.75" font-family="Helvetica,sans-Serif" font-size="10.00">::OpVolumeSideCalculateEP</text>
</a>
</g>
</g>
<!-- Node0&#45;&gt;Node1 -->
<g id="edge1" class="edge">
<title>Node0&#45;&gt;Node1</title>
<path fill="none" stroke="#63b8ff" d="M107.75,-48.64C116.58,-50.05 125.77,-51.52 134.81,-52.97"/>
<polygon fill="#63b8ff" stroke="#63b8ff" points="108.31,-45.18 97.89,-47.06 107.21,-52.1 108.31,-45.18"/>
</g>
<!-- Node2 -->
<g id="node3" class="node">
<title>Node2</title>
<g id="a_node3"><a xlink:href="struct_op_rotating_frame_tools_1_1_op_volume_side_calculate_t_a_u.html" target="_top" xlink:title=" ">
<polygon fill="white" stroke="#666666" points="280.25,-30.5 132.25,-30.5 132.25,0 280.25,0 280.25,-30.5"/>
<text text-anchor="start" x="140.25" y="-17" font-family="Helvetica,sans-Serif" font-size="10.00">OpRotatingFrameTools</text>
<text text-anchor="middle" x="206.25" y="-5.75" font-family="Helvetica,sans-Serif" font-size="10.00">::OpVolumeSideCalculateTAU</text>
</a>
</g>
</g>
<!-- Node0&#45;&gt;Node2 -->
<g id="edge2" class="edge">
<title>Node0&#45;&gt;Node2</title>
<path fill="none" stroke="#63b8ff" d="M107.72,-30.24C115.62,-29.03 123.8,-27.77 131.92,-26.52"/>
<polygon fill="#63b8ff" stroke="#63b8ff" points="107.24,-26.78 97.89,-31.75 108.3,-33.69 107.24,-26.78"/>
</g>
</g>
</svg>
