<?xml version="1.0" encoding="UTF-8" standalone="no"?>
<!DOCTYPE svg PUBLIC "-//W3C//DTD SVG 1.1//EN"
 "http://www.w3.org/Graphics/SVG/1.1/DTD/svg11.dtd">
<!-- Generated by graphviz version 2.43.0 (0)
 -->
<!-- Title: Graphical Class Hierarchy Pages: 1 -->
<svg width="441pt" height="78pt"
 viewBox="0.00 0.00 441.00 77.50" xmlns="http://www.w3.org/2000/svg" xmlns:xlink="http://www.w3.org/1999/xlink">
<g id="graph0" class="graph" transform="scale(1 1) rotate(0) translate(4 73.5)">
<title>Graphical Class Hierarchy</title>
<polygon fill="white" stroke="transparent" points="-4,4 -4,-73.5 437,-73.5 437,4 -4,4"/>
<!-- Node1049 -->
<g id="node1" class="node">
<title>Node1049</title>
<g id="a_node1"><a xlink:title=" ">
<polygon fill="white" stroke="#bfbfbf" points="150,-50 150,-69 207,-69 207,-50 150,-50"/>
<text text-anchor="middle" x="178.5" y="-57" font-family="Helvetica,sans-Serif" font-size="10.00">ostream</text>
</a>
</g>
</g>
<!-- Node1 -->
<g id="node2" class="node">
<title>Node1</title>
<g id="a_node2"><a xlink:href="classMoFEM_1_1LogManager_1_1InternalData_1_1NulOStream.html" target="_top" xlink:title=" ">
<polygon fill="white" stroke="black" points="290,-22.5 290,-52.5 433,-52.5 433,-22.5 290,-22.5"/>
<text text-anchor="start" x="298" y="-40.5" font-family="Helvetica,sans-Serif" font-size="10.00">MoFEM::LogManager::</text>
<text text-anchor="middle" x="361.5" y="-29.5" font-family="Helvetica,sans-Serif" font-size="10.00">InternalData::NulOStream</text>
</a>
</g>
</g>
<!-- Node1049&#45;&gt;Node1 -->
<g id="edge1" class="edge">
<title>Node1049&#45;&gt;Node1</title>
<path fill="none" stroke="midnightblue" d="M217.5,-54.88C238.51,-52.33 265.28,-49.07 289.97,-46.07"/>
<polygon fill="midnightblue" stroke="midnightblue" points="216.89,-51.43 207.38,-56.11 217.73,-58.38 216.89,-51.43"/>
</g>
<!-- Node886 -->
<g id="node3" class="node">
<title>Node886</title>
<g id="a_node3"><a xlink:title=" ">
<polygon fill="white" stroke="#bfbfbf" points="0,-6 0,-25 67,-25 67,-6 0,-6"/>
<text text-anchor="middle" x="33.5" y="-13" font-family="Helvetica,sans-Serif" font-size="10.00">streambuf</text>
</a>
</g>
</g>
<!-- Node0 -->
<g id="node4" class="node">
<title>Node0</title>
<g id="a_node4"><a xlink:href="classMoFEM_1_1LogManager_1_1InternalData_1_1NulStreambuf.html" target="_top" xlink:title=" ">
<polygon fill="white" stroke="black" points="103,-0.5 103,-30.5 254,-30.5 254,-0.5 103,-0.5"/>
<text text-anchor="start" x="111" y="-18.5" font-family="Helvetica,sans-Serif" font-size="10.00">MoFEM::LogManager::</text>
<text text-anchor="middle" x="178.5" y="-7.5" font-family="Helvetica,sans-Serif" font-size="10.00">InternalData::NulStreambuf</text>
</a>
</g>
</g>
<!-- Node886&#45;&gt;Node0 -->
<g id="edge2" class="edge">
<title>Node886&#45;&gt;Node0</title>
<path fill="none" stroke="midnightblue" d="M77.52,-15.5C85.58,-15.5 94.22,-15.5 102.91,-15.5"/>
<polygon fill="midnightblue" stroke="midnightblue" points="77.31,-12 67.31,-15.5 77.31,-19 77.31,-12"/>
</g>
<!-- Node0&#45;&gt;Node1 -->
<g id="edge3" class="edge">
<title>Node0&#45;&gt;Node1</title>
<path fill="none" stroke="#8b1a1a" d="M264.18,-25.79C272.75,-26.83 281.39,-27.88 289.79,-28.91"/>
<polygon fill="#8b1a1a" stroke="#8b1a1a" points="264.51,-22.31 254.16,-24.58 263.67,-29.26 264.51,-22.31"/>
</g>
</g>
</svg>
