<?xml version="1.0" encoding="UTF-8" standalone="no"?>
<!DOCTYPE svg PUBLIC "-//W3C//DTD SVG 1.1//EN"
 "http://www.w3.org/Graphics/SVG/1.1/DTD/svg11.dtd">
<!-- Generated by graphviz version 9.0.0 (20230911.1827)
 -->
<!-- Title: Graphical Class Hierarchy Pages: 1 -->
<svg width="496pt" height="555pt"
 viewBox="0.00 0.00 496.25 554.88" xmlns="http://www.w3.org/2000/svg" xmlns:xlink="http://www.w3.org/1999/xlink">
<g id="graph0" class="graph" transform="scale(1 1) rotate(0) translate(4 550.88)">
<title>Graphical Class Hierarchy</title>
<!-- Node0 -->
<g id="node1" class="node">
<title>Node0</title>
<g id="a_node1"><a xlink:title=" ">
<polygon fill="#e0e0e0" stroke="#999999" points="109,-300.5 0,-300.5 0,-270 109,-270 109,-300.5"/>
<text text-anchor="start" x="8" y="-287" font-family="Helvetica,sans-Serif" font-size="10.00">boost::enable_shared</text>
<text text-anchor="middle" x="54.5" y="-275.75" font-family="Helvetica,sans-Serif" font-size="10.00">_from_this</text>
</a>
</g>
</g>
<!-- Node1 -->
<g id="node2" class="node">
<title>Node1</title>
<g id="a_node2"><a xlink:href="struct_contact_ops_1_1_common_data.html" target="_top" xlink:title="[Common data]">
<polygon fill="white" stroke="#666666" points="293.75,-546.88 158.5,-546.88 158.5,-527.62 293.75,-527.62 293.75,-546.88"/>
<text text-anchor="middle" x="226.12" y="-533.38" font-family="Helvetica,sans-Serif" font-size="10.00">ContactOps::CommonData</text>
</a>
</g>
</g>
<!-- Node0&#45;&gt;Node1 -->
<g id="edge1" class="edge">
<title>Node0&#45;&gt;Node1</title>
<path fill="none" stroke="#63b8ff" d="M57.84,-312.24C63.56,-361.01 82.73,-463.81 145,-518.25 149.09,-521.83 153.73,-524.76 158.67,-527.16"/>
<polygon fill="#63b8ff" stroke="#63b8ff" points="61.32,-311.88 56.79,-302.3 54.36,-312.61 61.32,-311.88"/>
</g>
<!-- Node2 -->
<g id="node3" class="node">
<title>Node2</title>
<g id="a_node3"><a xlink:href="struct_eshelbian_plasticity_1_1_data_at_integration_pts.html" target="_top" xlink:title=" ">
<polygon fill="white" stroke="#666666" points="282.88,-509.5 169.38,-509.5 169.38,-479 282.88,-479 282.88,-509.5"/>
<text text-anchor="start" x="177.38" y="-496" font-family="Helvetica,sans-Serif" font-size="10.00">EshelbianPlasticity</text>
<text text-anchor="middle" x="226.12" y="-484.75" font-family="Helvetica,sans-Serif" font-size="10.00">::DataAtIntegrationPts</text>
</a>
</g>
</g>
<!-- Node0&#45;&gt;Node2 -->
<g id="edge2" class="edge">
<title>Node0&#45;&gt;Node2</title>
<path fill="none" stroke="#63b8ff" d="M61.13,-311.77C71.04,-351.94 95.42,-428.01 145,-470.25 151.96,-476.18 160.35,-480.65 169.04,-484.01"/>
<polygon fill="#63b8ff" stroke="#63b8ff" points="64.59,-311.17 58.9,-302.23 57.77,-312.77 64.59,-311.17"/>
</g>
<!-- Node3 -->
<g id="node4" class="node">
<title>Node3</title>
<g id="a_node4"><a xlink:href="struct_example_1_1_common_data.html" target="_top" xlink:title="[Example]">
<polygon fill="white" stroke="#666666" points="286.62,-460.88 165.62,-460.88 165.62,-441.62 286.62,-441.62 286.62,-460.88"/>
<text text-anchor="middle" x="226.12" y="-447.38" font-family="Helvetica,sans-Serif" font-size="10.00">Example::CommonData</text>
</a>
</g>
</g>
<!-- Node0&#45;&gt;Node3 -->
<g id="edge3" class="edge">
<title>Node0&#45;&gt;Node3</title>
<path fill="none" stroke="#63b8ff" d="M64.02,-311.43C76.36,-345.04 102.49,-402.65 145,-433.25 151.13,-437.66 158.16,-441.02 165.45,-443.57"/>
<polygon fill="#63b8ff" stroke="#63b8ff" points="67.35,-310.33 60.73,-302.06 60.74,-312.65 67.35,-310.33"/>
</g>
<!-- Node4 -->
<g id="node5" class="node">
<title>Node4</title>
<g id="a_node5"><a xlink:href="struct_hencky_ops_1_1_common_data.html" target="_top" xlink:title=" ">
<polygon fill="white" stroke="#666666" points="293.38,-423.88 158.88,-423.88 158.88,-404.62 293.38,-404.62 293.38,-423.88"/>
<text text-anchor="middle" x="226.12" y="-410.38" font-family="Helvetica,sans-Serif" font-size="10.00">HenckyOps::CommonData</text>
</a>
</g>
</g>
<!-- Node0&#45;&gt;Node4 -->
<g id="edge4" class="edge">
<title>Node0&#45;&gt;Node4</title>
<path fill="none" stroke="#63b8ff" d="M69.25,-310.41C84.44,-335.77 111.27,-374.09 145,-395.25 150.81,-398.9 157.26,-401.84 163.91,-404.23"/>
<polygon fill="#63b8ff" stroke="#63b8ff" points="72.45,-308.95 64.41,-302.06 66.4,-312.46 72.45,-308.95"/>
</g>
<!-- Node5 -->
<g id="node6" class="node">
<title>Node5</title>
<g id="a_node6"><a xlink:href="struct_meta_spring_b_c_1_1_data_at_integration_pts_springs.html" target="_top" xlink:title=" ">
<polygon fill="white" stroke="#666666" points="307.25,-386.5 145,-386.5 145,-356 307.25,-356 307.25,-386.5"/>
<text text-anchor="start" x="153" y="-373" font-family="Helvetica,sans-Serif" font-size="10.00">MetaSpringBC::DataAtIntegration</text>
<text text-anchor="middle" x="226.12" y="-361.75" font-family="Helvetica,sans-Serif" font-size="10.00">PtsSprings</text>
</a>
</g>
</g>
<!-- Node0&#45;&gt;Node5 -->
<g id="edge5" class="edge">
<title>Node0&#45;&gt;Node5</title>
<path fill="none" stroke="#63b8ff" d="M83.13,-307.8C100.14,-320.79 122.87,-336.6 145,-347.25 151.41,-350.33 158.3,-353.12 165.26,-355.6"/>
<polygon fill="#63b8ff" stroke="#63b8ff" points="85.54,-305.24 75.5,-301.85 81.24,-310.76 85.54,-305.24"/>
</g>
<!-- Node6 -->
<g id="node7" class="node">
<title>Node6</title>
<g id="a_node7"><a xlink:href="struct_mo_f_e_m_1_1_bc_manager_1_1_b_cs.html" target="_top" xlink:title="Data structure storing bc markers and atributes.">
<polygon fill="white" stroke="#666666" points="291.88,-337.88 160.38,-337.88 160.38,-318.62 291.88,-318.62 291.88,-337.88"/>
<text text-anchor="middle" x="226.12" y="-324.38" font-family="Helvetica,sans-Serif" font-size="10.00">MoFEM::BcManager::BCs</text>
</a>
</g>
</g>
<!-- Node0&#45;&gt;Node6 -->
<g id="edge6" class="edge">
<title>Node0&#45;&gt;Node6</title>
<path fill="none" stroke="#63b8ff" d="M120.24,-302.85C128.56,-305.04 136.97,-307.22 145,-309.25 156.78,-312.23 169.57,-315.32 181.4,-318.13"/>
<polygon fill="#63b8ff" stroke="#63b8ff" points="121.41,-299.54 110.85,-300.36 119.62,-306.31 121.41,-299.54"/>
</g>
<!-- Node7 -->
<g id="node8" class="node">
<title>Node7</title>
<g id="a_node8"><a xlink:href="struct_mo_f_e_m_1_1_log_manager_1_1_internal_data.html" target="_top" xlink:title=" ">
<polygon fill="white" stroke="#666666" points="284,-300.5 168.25,-300.5 168.25,-270 284,-270 284,-300.5"/>
<text text-anchor="start" x="176.25" y="-287" font-family="Helvetica,sans-Serif" font-size="10.00">MoFEM::LogManager::</text>
<text text-anchor="middle" x="226.12" y="-275.75" font-family="Helvetica,sans-Serif" font-size="10.00">InternalData</text>
</a>
</g>
</g>
<!-- Node0&#45;&gt;Node7 -->
<g id="edge7" class="edge">
<title>Node0&#45;&gt;Node7</title>
<path fill="none" stroke="#63b8ff" d="M120.38,-285.25C136.06,-285.25 152.7,-285.25 167.99,-285.25"/>
<polygon fill="#63b8ff" stroke="#63b8ff" points="120.68,-281.75 110.68,-285.25 120.68,-288.75 120.68,-281.75"/>
</g>
<!-- Node8 -->
<g id="node9" class="node">
<title>Node8</title>
<g id="a_node9"><a xlink:href="struct_mo_f_e_m_1_1_schur_l2_mats.html" target="_top" xlink:title="Schur complement data storage.">
<polygon fill="white" stroke="#666666" points="283.25,-251.88 169,-251.88 169,-232.62 283.25,-232.62 283.25,-251.88"/>
<text text-anchor="middle" x="226.12" y="-238.38" font-family="Helvetica,sans-Serif" font-size="10.00">MoFEM::SchurL2Mats</text>
</a>
</g>
</g>
<!-- Node0&#45;&gt;Node8 -->
<g id="edge8" class="edge">
<title>Node0&#45;&gt;Node8</title>
<path fill="none" stroke="#63b8ff" d="M120.24,-267.65C128.56,-265.46 136.97,-263.28 145,-261.25 156.78,-258.27 169.57,-255.18 181.4,-252.37"/>
<polygon fill="#63b8ff" stroke="#63b8ff" points="119.62,-264.19 110.85,-270.14 121.41,-270.96 119.62,-264.19"/>
</g>
<!-- Node9 -->
<g id="node10" class="node">
<title>Node9</title>
<g id="a_node10"><a xlink:href="struct_neumann_forces_surface_1_1_data_at_integration_pts.html" target="_top" xlink:title=" ">
<polygon fill="white" stroke="#666666" points="287,-214.5 165.25,-214.5 165.25,-184 287,-184 287,-214.5"/>
<text text-anchor="start" x="173.25" y="-201" font-family="Helvetica,sans-Serif" font-size="10.00">NeumannForcesSurface</text>
<text text-anchor="middle" x="226.12" y="-189.75" font-family="Helvetica,sans-Serif" font-size="10.00">::DataAtIntegrationPts</text>
</a>
</g>
</g>
<!-- Node0&#45;&gt;Node9 -->
<g id="edge9" class="edge">
<title>Node0&#45;&gt;Node9</title>
<path fill="none" stroke="#63b8ff" d="M83.13,-262.7C100.14,-249.71 122.87,-233.9 145,-223.25 151.41,-220.17 158.3,-217.38 165.26,-214.9"/>
<polygon fill="#63b8ff" stroke="#63b8ff" points="81.24,-259.74 75.5,-268.65 85.54,-265.26 81.24,-259.74"/>
</g>
<!-- Node10 -->
<g id="node11" class="node">
<title>Node10</title>
<g id="a_node11"><a xlink:href="struct_plastic_ops_1_1_common_data.html" target="_top" xlink:title="[Common data]">
<polygon fill="white" stroke="#666666" points="291.5,-165.88 160.75,-165.88 160.75,-146.62 291.5,-146.62 291.5,-165.88"/>
<text text-anchor="middle" x="226.12" y="-152.38" font-family="Helvetica,sans-Serif" font-size="10.00">PlasticOps::CommonData</text>
</a>
</g>
</g>
<!-- Node0&#45;&gt;Node10 -->
<g id="edge10" class="edge">
<title>Node0&#45;&gt;Node10</title>
<path fill="none" stroke="#63b8ff" d="M69.25,-260.09C84.44,-234.73 111.27,-196.41 145,-175.25 150.81,-171.6 157.26,-168.66 163.91,-166.27"/>
<polygon fill="#63b8ff" stroke="#63b8ff" points="66.4,-258.04 64.41,-268.44 72.45,-261.55 66.4,-258.04"/>
</g>
<!-- Node11 -->
<g id="node12" class="node">
<title>Node11</title>
<g id="a_node12"><a xlink:href="struct_simple_contact_problem_1_1_common_data_simple_contact.html" target="_top" xlink:title=" ">
<polygon fill="white" stroke="#666666" points="299.75,-128.5 152.5,-128.5 152.5,-98 299.75,-98 299.75,-128.5"/>
<text text-anchor="start" x="160.5" y="-115" font-family="Helvetica,sans-Serif" font-size="10.00">SimpleContactProblem</text>
<text text-anchor="middle" x="226.12" y="-103.75" font-family="Helvetica,sans-Serif" font-size="10.00">::CommonDataSimpleContact</text>
</a>
</g>
</g>
<!-- Node0&#45;&gt;Node11 -->
<g id="edge11" class="edge">
<title>Node0&#45;&gt;Node11</title>
<path fill="none" stroke="#63b8ff" d="M64.55,-259.01C77.33,-225.82 103.8,-169.16 145,-137.25 149.13,-134.05 153.69,-131.27 158.47,-128.87"/>
<polygon fill="#63b8ff" stroke="#63b8ff" points="61.31,-257.68 61.13,-268.27 67.88,-260.1 61.31,-257.68"/>
</g>
<!-- Node13 -->
<g id="node14" class="node">
<title>Node13</title>
<g id="a_node14"><a xlink:href="struct_simple_contact_problem_1_1_convect_slave_integration_pts.html" target="_top" xlink:title="Class used to convect integration points on slave and master, and to calculate directional direvative...">
<polygon fill="white" stroke="#666666" points="298.25,-79.5 154,-79.5 154,-49 298.25,-49 298.25,-79.5"/>
<text text-anchor="start" x="162" y="-66" font-family="Helvetica,sans-Serif" font-size="10.00">SimpleContactProblem</text>
<text text-anchor="middle" x="226.12" y="-54.75" font-family="Helvetica,sans-Serif" font-size="10.00">::ConvectSlaveIntegrationPts</text>
</a>
</g>
</g>
<!-- Node0&#45;&gt;Node13 -->
<g id="edge13" class="edge">
<title>Node0&#45;&gt;Node13</title>
<path fill="none" stroke="#63b8ff" d="M60.46,-258.47C69.64,-216.38 93.28,-134.84 145,-89.25 149.15,-85.59 153.84,-82.46 158.81,-79.8"/>
<polygon fill="#63b8ff" stroke="#63b8ff" points="57.04,-257.73 58.45,-268.23 63.89,-259.14 57.04,-257.73"/>
</g>
<!-- Node14 -->
<g id="node15" class="node">
<title>Node14</title>
<g id="a_node15"><a xlink:href="struct_thermo_elastic_problem_1_1_blocked_parameters.html" target="_top" xlink:title=" ">
<polygon fill="white" stroke="#666666" points="283.62,-30.5 168.62,-30.5 168.62,0 283.62,0 283.62,-30.5"/>
<text text-anchor="start" x="176.62" y="-17" font-family="Helvetica,sans-Serif" font-size="10.00">ThermoElasticProblem</text>
<text text-anchor="middle" x="226.12" y="-5.75" font-family="Helvetica,sans-Serif" font-size="10.00">::BlockedParameters</text>
</a>
</g>
</g>
<!-- Node0&#45;&gt;Node14 -->
<g id="edge14" class="edge">
<title>Node0&#45;&gt;Node14</title>
<path fill="none" stroke="#63b8ff" d="M57.67,-258.38C63.15,-208.3 82,-100.31 145,-40.25 151.64,-33.92 159.87,-29.18 168.5,-25.65"/>
<polygon fill="#63b8ff" stroke="#63b8ff" points="54.19,-258 56.69,-268.3 61.15,-258.69 54.19,-258"/>
</g>
<!-- Node12 -->
<g id="node13" class="node">
<title>Node12</title>
<g id="a_node13"><a xlink:href="struct_mortar_contact_problem_1_1_common_data_mortar_contact.html" target="_top" xlink:title=" ">
<polygon fill="white" stroke="#666666" points="488.25,-128.5 343.25,-128.5 343.25,-98 488.25,-98 488.25,-128.5"/>
<text text-anchor="start" x="351.25" y="-115" font-family="Helvetica,sans-Serif" font-size="10.00">MortarContactProblem</text>
<text text-anchor="middle" x="415.75" y="-103.75" font-family="Helvetica,sans-Serif" font-size="10.00">::CommonDataMortarContact</text>
</a>
</g>
</g>
<!-- Node11&#45;&gt;Node12 -->
<g id="edge12" class="edge">
<title>Node11&#45;&gt;Node12</title>
<path fill="none" stroke="#63b8ff" d="M311.47,-113.25C321.93,-113.25 332.55,-113.25 342.8,-113.25"/>
<polygon fill="#63b8ff" stroke="#63b8ff" points="311.72,-109.75 301.72,-113.25 311.72,-116.75 311.72,-109.75"/>
</g>
</g>
</svg>
