<?xml version="1.0" encoding="UTF-8" standalone="no"?>
<!DOCTYPE svg PUBLIC "-//W3C//DTD SVG 1.1//EN"
 "http://www.w3.org/Graphics/SVG/1.1/DTD/svg11.dtd">
<!-- Generated by graphviz version 2.43.0 (0)
 -->
<!-- Title: Graphical Class Hierarchy Pages: 1 -->
<svg width="573pt" height="50pt"
 viewBox="0.00 0.00 573.00 50.00" xmlns="http://www.w3.org/2000/svg" xmlns:xlink="http://www.w3.org/1999/xlink">
<g id="graph0" class="graph" transform="scale(1 1) rotate(0) translate(4 46)">
<title>Graphical Class Hierarchy</title>
<polygon fill="white" stroke="transparent" points="-4,4 -4,-46 569,-46 569,4 -4,4"/>
<!-- Node158 -->
<g id="node1" class="node">
<title>Node158</title>
<g id="a_node1"><a xlink:title=" ">
<polygon fill="white" stroke="#bfbfbf" points="0,-11.5 0,-30.5 105,-30.5 105,-11.5 0,-11.5"/>
<text text-anchor="middle" x="52.5" y="-18.5" font-family="Helvetica,sans-Serif" font-size="10.00">UserDataOperator</text>
</a>
</g>
</g>
<!-- Node0 -->
<g id="node2" class="node">
<title>Node0</title>
<g id="a_node2"><a xlink:href="structFractureMechanics_1_1MWLSApprox_1_1OpMWLSBase.html" target="_top" xlink:title=" ">
<polygon fill="white" stroke="black" points="141,-6 141,-36 325,-36 325,-6 141,-6"/>
<text text-anchor="start" x="149" y="-24" font-family="Helvetica,sans-Serif" font-size="10.00">FractureMechanics::</text>
<text text-anchor="middle" x="233" y="-13" font-family="Helvetica,sans-Serif" font-size="10.00">MWLSApprox::OpMWLSBase&lt; T &gt;</text>
</a>
</g>
</g>
<!-- Node158&#45;&gt;Node0 -->
<g id="edge1" class="edge">
<title>Node158&#45;&gt;Node0</title>
<path fill="none" stroke="midnightblue" d="M115.36,-21C123.6,-21 132.18,-21 140.79,-21"/>
<polygon fill="midnightblue" stroke="midnightblue" points="115.13,-17.5 105.13,-21 115.13,-24.5 115.13,-17.5"/>
</g>
<!-- Node1 -->
<g id="node3" class="node">
<title>Node1</title>
<g id="a_node3"><a xlink:href="structFractureMechanics_1_1MWLSApprox_1_1OpMWLSCalculateBaseCoeffcientsAtGaussPtsTmpl.html" target="_top" xlink:title=" ">
<polygon fill="white" stroke="black" points="361,-0.5 361,-41.5 565,-41.5 565,-0.5 361,-0.5"/>
<text text-anchor="start" x="369" y="-29.5" font-family="Helvetica,sans-Serif" font-size="10.00">FractureMechanics::</text>
<text text-anchor="start" x="369" y="-18.5" font-family="Helvetica,sans-Serif" font-size="10.00">MWLSApprox::OpMWLSCalculate</text>
<text text-anchor="middle" x="463" y="-7.5" font-family="Helvetica,sans-Serif" font-size="10.00">BaseCoeffcientsAtGaussPtsTmpl&lt; T &gt;</text>
</a>
</g>
</g>
<!-- Node0&#45;&gt;Node1 -->
<g id="edge2" class="edge">
<title>Node0&#45;&gt;Node1</title>
<path fill="none" stroke="midnightblue" d="M335.11,-21C343.68,-21 352.36,-21 360.93,-21"/>
<polygon fill="midnightblue" stroke="midnightblue" points="335.09,-17.5 325.09,-21 335.09,-24.5 335.09,-17.5"/>
</g>
</g>
</svg>
