<?xml version="1.0" encoding="UTF-8" standalone="no"?>
<!DOCTYPE svg PUBLIC "-//W3C//DTD SVG 1.1//EN"
 "http://www.w3.org/Graphics/SVG/1.1/DTD/svg11.dtd">
<!-- Generated by graphviz version 2.43.0 (0)
 -->
<!-- Title: Graphical Class Hierarchy Pages: 1 -->
<svg width="225pt" height="113pt"
 viewBox="0.00 0.00 225.00 112.50" xmlns="http://www.w3.org/2000/svg" xmlns:xlink="http://www.w3.org/1999/xlink">
<g id="graph0" class="graph" transform="scale(1 1) rotate(0) translate(4 108.5)">
<title>Graphical Class Hierarchy</title>
<!-- Node0 -->
<g id="Node000000" class="node">
<title>Node0</title>
<g id="a_Node000000"><a xlink:href="classFEMethod.html" target="_top" xlink:title=" ">
<polygon fill="white" stroke="#666666" points="65,-67.5 0,-67.5 0,-48.5 65,-48.5 65,-67.5"/>
<text text-anchor="middle" x="32.5" y="-55.5" font-family="Helvetica,sans-Serif" font-size="10.00">FEMethod</text>
</a>
</g>
</g>
<!-- Node1 -->
<g id="Node000001" class="node">
<title>Node1</title>
<g id="a_Node000001"><a xlink:href="structContactOps_1_1Monitor.html" target="_top" xlink:title=" ">
<polygon fill="white" stroke="#666666" points="217,-104.5 101,-104.5 101,-85.5 217,-85.5 217,-104.5"/>
<text text-anchor="middle" x="159" y="-92.5" font-family="Helvetica,sans-Serif" font-size="10.00">ContactOps::Monitor</text>
</a>
</g>
</g>
<!-- Node0&#45;&gt;Node1 -->
<g id="edge113_Node000000_Node000001" class="edge">
<title>Node0&#45;&gt;Node1</title>
<g id="a_edge113_Node000000_Node000001"><a xlink:title=" ">
<path fill="none" stroke="#63b8ff" d="M75.2,-70.39C91.73,-75.31 110.44,-80.87 125.89,-85.46"/>
<polygon fill="#63b8ff" stroke="#63b8ff" points="75.82,-66.93 65.24,-67.43 73.83,-73.64 75.82,-66.93"/>
</a>
</g>
</g>
<!-- Node2 -->
<g id="Node000002" class="node">
<title>Node2</title>
<g id="a_Node000002"><a xlink:href="structEshelbianMonitor.html" target="_top" xlink:title=" ">
<polygon fill="white" stroke="#666666" points="209.5,-67.5 108.5,-67.5 108.5,-48.5 209.5,-48.5 209.5,-67.5"/>
<text text-anchor="middle" x="159" y="-55.5" font-family="Helvetica,sans-Serif" font-size="10.00">EshelbianMonitor</text>
</a>
</g>
</g>
<!-- Node0&#45;&gt;Node2 -->
<g id="edge114_Node000000_Node000002" class="edge">
<title>Node0&#45;&gt;Node2</title>
<g id="a_edge114_Node000000_Node000002"><a xlink:title=" ">
<path fill="none" stroke="#63b8ff" d="M75.47,-58C86.05,-58 97.5,-58 108.41,-58"/>
<polygon fill="#63b8ff" stroke="#63b8ff" points="75.24,-54.5 65.24,-58 75.24,-61.5 75.24,-54.5"/>
</a>
</g>
</g>
<!-- Node3 -->
<g id="Node000003" class="node">
<title>Node3</title>
<g id="a_Node000003"><a xlink:href="structPlasticOps_1_1Monitor.html" target="_top" xlink:title=" ">
<polygon fill="white" stroke="#666666" points="214.5,-30 103.5,-30 103.5,0 214.5,0 214.5,-30"/>
<text text-anchor="start" x="111.5" y="-18" font-family="Helvetica,sans-Serif" font-size="10.00">PlasticOps::Monitor</text>
<text text-anchor="middle" x="159" y="-7" font-family="Helvetica,sans-Serif" font-size="10.00">&lt; DIM &gt;</text>
</a>
</g>
</g>
<!-- Node0&#45;&gt;Node3 -->
<g id="edge115_Node000000_Node000003" class="edge">
<title>Node0&#45;&gt;Node3</title>
<g id="a_edge115_Node000000_Node000003"><a xlink:title=" ">
<path fill="none" stroke="#63b8ff" d="M70.72,-45.14C84.43,-40.41 100.08,-35 114.31,-30.09"/>
<polygon fill="#63b8ff" stroke="#63b8ff" points="69.44,-41.88 61.13,-48.46 71.73,-48.5 69.44,-41.88"/>
</a>
</g>
</g>
</g>
</svg>
