<?xml version="1.0" encoding="UTF-8" standalone="no"?>
<!DOCTYPE svg PUBLIC "-//W3C//DTD SVG 1.1//EN"
 "http://www.w3.org/Graphics/SVG/1.1/DTD/svg11.dtd">
<!-- Generated by graphviz version 2.43.0 (0)
 -->
<!-- Title: Graphical Class Hierarchy Pages: 1 -->
<svg width="1030pt" height="39pt"
 viewBox="0.00 0.00 1030.00 39.00" xmlns="http://www.w3.org/2000/svg" xmlns:xlink="http://www.w3.org/1999/xlink">
<g id="graph0" class="graph" transform="scale(1 1) rotate(0) translate(4 35)">
<title>Graphical Class Hierarchy</title>
<polygon fill="white" stroke="transparent" points="-4,4 -4,-35 1026,-35 1026,4 -4,4"/>
<!-- Node0 -->
<g id="node1" class="node">
<title>Node0</title>
<g id="a_node1"><a xlink:href="structMoFEM_1_1interface__RefEntity.html" target="_top" xlink:title=" ">
<polygon fill="white" stroke="black" points="0,-0.5 0,-30.5 152,-30.5 152,-0.5 0,-0.5"/>
<text text-anchor="start" x="8" y="-18.5" font-family="Helvetica,sans-Serif" font-size="10.00">MoFEM::interface_RefEntity</text>
<text text-anchor="middle" x="76" y="-7.5" font-family="Helvetica,sans-Serif" font-size="10.00">&lt; EntFiniteElement &gt;</text>
</a>
</g>
</g>
<!-- Node1 -->
<g id="node2" class="node">
<title>Node1</title>
<g id="a_node2"><a xlink:href="structMoFEM_1_1interface__RefElement.html" target="_top" xlink:title=" ">
<polygon fill="white" stroke="black" points="188,-0.5 188,-30.5 352,-30.5 352,-0.5 188,-0.5"/>
<text text-anchor="start" x="196" y="-18.5" font-family="Helvetica,sans-Serif" font-size="10.00">MoFEM::interface_RefElement</text>
<text text-anchor="middle" x="270" y="-7.5" font-family="Helvetica,sans-Serif" font-size="10.00">&lt; EntFiniteElement &gt;</text>
</a>
</g>
</g>
<!-- Node0&#45;&gt;Node1 -->
<g id="edge1" class="edge">
<title>Node0&#45;&gt;Node1</title>
<path fill="none" stroke="midnightblue" d="M162.08,-15.5C170.69,-15.5 179.41,-15.5 187.97,-15.5"/>
<polygon fill="midnightblue" stroke="midnightblue" points="162.06,-12 152.06,-15.5 162.06,-19 162.06,-12"/>
</g>
<!-- Node2 -->
<g id="node3" class="node">
<title>Node2</title>
<g id="a_node3"><a xlink:href="structMoFEM_1_1interface__FiniteElement.html" target="_top" xlink:title=" ">
<polygon fill="white" stroke="black" points="388,-0.5 388,-30.5 600,-30.5 600,-0.5 388,-0.5"/>
<text text-anchor="start" x="396" y="-18.5" font-family="Helvetica,sans-Serif" font-size="10.00">MoFEM::interface_FiniteElement</text>
<text text-anchor="middle" x="494" y="-7.5" font-family="Helvetica,sans-Serif" font-size="10.00">&lt; EntFiniteElement, EntFiniteElement &gt;</text>
</a>
</g>
</g>
<!-- Node1&#45;&gt;Node2 -->
<g id="edge2" class="edge">
<title>Node1&#45;&gt;Node2</title>
<path fill="none" stroke="midnightblue" d="M362.29,-15.5C370.73,-15.5 379.33,-15.5 387.88,-15.5"/>
<polygon fill="midnightblue" stroke="midnightblue" points="362.09,-12 352.09,-15.5 362.09,-19 362.09,-12"/>
</g>
<!-- Node3 -->
<g id="node4" class="node">
<title>Node3</title>
<g id="a_node4"><a xlink:href="structMoFEM_1_1interface__EntFiniteElement.html" target="_top" xlink:title=" ">
<polygon fill="white" stroke="black" points="636,-0.5 636,-30.5 799,-30.5 799,-0.5 636,-0.5"/>
<text text-anchor="start" x="644" y="-18.5" font-family="Helvetica,sans-Serif" font-size="10.00">MoFEM::interface_EntFinite</text>
<text text-anchor="middle" x="717.5" y="-7.5" font-family="Helvetica,sans-Serif" font-size="10.00">Element&lt; EntFiniteElement &gt;</text>
</a>
</g>
</g>
<!-- Node2&#45;&gt;Node3 -->
<g id="edge3" class="edge">
<title>Node2&#45;&gt;Node3</title>
<path fill="none" stroke="midnightblue" d="M610.32,-15.5C618.91,-15.5 627.46,-15.5 635.77,-15.5"/>
<polygon fill="midnightblue" stroke="midnightblue" points="610.24,-12 600.24,-15.5 610.24,-19 610.24,-12"/>
</g>
<!-- Node4 -->
<g id="node5" class="node">
<title>Node4</title>
<g id="a_node5"><a xlink:href="structMoFEM_1_1NumeredEntFiniteElement.html" target="_top" xlink:title="Partitioned (Indexed) Finite Element in Problem.">
<polygon fill="white" stroke="black" points="835,-6 835,-25 1022,-25 1022,-6 835,-6"/>
<text text-anchor="middle" x="928.5" y="-13" font-family="Helvetica,sans-Serif" font-size="10.00">MoFEM::NumeredEntFiniteElement</text>
</a>
</g>
</g>
<!-- Node3&#45;&gt;Node4 -->
<g id="edge4" class="edge">
<title>Node3&#45;&gt;Node4</title>
<path fill="none" stroke="midnightblue" d="M809.27,-15.5C817.75,-15.5 826.34,-15.5 834.84,-15.5"/>
<polygon fill="midnightblue" stroke="midnightblue" points="809.01,-12 799.01,-15.5 809.01,-19 809.01,-12"/>
</g>
</g>
</svg>
