<?xml version="1.0" encoding="UTF-8" standalone="no"?>
<!DOCTYPE svg PUBLIC "-//W3C//DTD SVG 1.1//EN"
 "http://www.w3.org/Graphics/SVG/1.1/DTD/svg11.dtd">
<!-- Generated by graphviz version 2.43.0 (0)
 -->
<!-- Title: Graphical Class Hierarchy Pages: 1 -->
<svg width="587pt" height="306pt"
 viewBox="0.00 0.00 587.00 305.50" xmlns="http://www.w3.org/2000/svg" xmlns:xlink="http://www.w3.org/1999/xlink">
<g id="graph0" class="graph" transform="scale(1 1) rotate(0) translate(4 301.5)">
<title>Graphical Class Hierarchy</title>
<polygon fill="white" stroke="transparent" points="-4,4 -4,-301.5 583,-301.5 583,4 -4,4"/>
<!-- Node855 -->
<g id="node1" class="node">
<title>Node855</title>
<g id="a_node1"><a xlink:title=" ">
<polygon fill="white" stroke="#bfbfbf" points="0,-168.5 0,-198.5 119,-198.5 119,-168.5 0,-168.5"/>
<text text-anchor="start" x="8" y="-186.5" font-family="Helvetica,sans-Serif" font-size="10.00">template OpSource&lt;</text>
<text text-anchor="middle" x="59.5" y="-175.5" font-family="Helvetica,sans-Serif" font-size="10.00"> 1, FIELD_DIM &gt;</text>
</a>
</g>
</g>
<!-- Node0 -->
<g id="node2" class="node">
<title>Node0</title>
<g id="a_node2"><a xlink:href="structMoFEM_1_1OpEssentialRhsImpl_3_01DisplacementCubitBcData_00_011_00_01FIELD__DIM_00_01A_00_01I_00_01OpBase_01_4.html" target="_top" xlink:title=" ">
<polygon fill="white" stroke="black" points="171.5,-256 171.5,-297 332.5,-297 332.5,-256 171.5,-256"/>
<text text-anchor="start" x="179.5" y="-285" font-family="Helvetica,sans-Serif" font-size="10.00">MoFEM::OpEssentialRhsImpl</text>
<text text-anchor="start" x="179.5" y="-274" font-family="Helvetica,sans-Serif" font-size="10.00">&lt; DisplacementCubitBcData,</text>
<text text-anchor="middle" x="252" y="-263" font-family="Helvetica,sans-Serif" font-size="10.00"> 1, FIELD_DIM, A, I, OpBase &gt;</text>
</a>
</g>
</g>
<!-- Node855&#45;&gt;Node0 -->
<g id="edge1" class="edge">
<title>Node855&#45;&gt;Node0</title>
<path fill="none" stroke="midnightblue" d="M88.16,-205.01C106.36,-218.37 131.15,-235.11 155,-246.5 162.17,-249.92 169.82,-253.08 177.56,-255.95"/>
<polygon fill="midnightblue" stroke="midnightblue" points="89.89,-201.94 79.79,-198.76 85.71,-207.55 89.89,-201.94"/>
</g>
<!-- Node857 -->
<g id="node3" class="node">
<title>Node857</title>
<g id="a_node3"><a xlink:href="structMoFEM_1_1OpEssentialRhsImpl_3_01MPCsType_00_011_00_01FIELD__DIM_00_01A_00_01I_00_01OpBase_01_4.html" target="_top" xlink:title=" ">
<polygon fill="white" stroke="black" points="174,-196 174,-237 330,-237 330,-196 174,-196"/>
<text text-anchor="start" x="182" y="-225" font-family="Helvetica,sans-Serif" font-size="10.00">MoFEM::OpEssentialRhsImpl</text>
<text text-anchor="start" x="182" y="-214" font-family="Helvetica,sans-Serif" font-size="10.00">&lt; MPCsType, 1, FIELD_DIM,</text>
<text text-anchor="middle" x="252" y="-203" font-family="Helvetica,sans-Serif" font-size="10.00"> A, I, OpBase &gt;</text>
</a>
</g>
</g>
<!-- Node855&#45;&gt;Node857 -->
<g id="edge2" class="edge">
<title>Node855&#45;&gt;Node857</title>
<path fill="none" stroke="midnightblue" d="M129.11,-195.38C143.64,-197.9 159.07,-200.57 173.89,-203.14"/>
<polygon fill="midnightblue" stroke="midnightblue" points="129.66,-191.93 119.21,-193.67 128.47,-198.83 129.66,-191.93"/>
</g>
<!-- Node858 -->
<g id="node4" class="node">
<title>Node858</title>
<g id="a_node4"><a xlink:href="structMoFEM_1_1OpFluxRhsImpl_3_01NaturalMeshsetType_3_01UNKNOWNSET_01_4_00_011_00_01FIELD__DIM_00_01A_00_01I_00_01OpBase_01_4.html" target="_top" xlink:title="Base class for OpFluxRhsImpl&lt;NaturalMeshsetType&lt;T&gt;, 1, FIELD_DIM, A, I, OpBase&gt;">
<polygon fill="white" stroke="black" points="173.5,-124.5 173.5,-176.5 330.5,-176.5 330.5,-124.5 173.5,-124.5"/>
<text text-anchor="start" x="181.5" y="-164.5" font-family="Helvetica,sans-Serif" font-size="10.00">MoFEM::OpFluxRhsImpl</text>
<text text-anchor="start" x="181.5" y="-153.5" font-family="Helvetica,sans-Serif" font-size="10.00">&lt; NaturalMeshsetType</text>
<text text-anchor="start" x="181.5" y="-142.5" font-family="Helvetica,sans-Serif" font-size="10.00">&lt; UNKNOWNSET &gt;, 1, FIELD</text>
<text text-anchor="middle" x="252" y="-131.5" font-family="Helvetica,sans-Serif" font-size="10.00">_DIM, A, I, OpBase &gt;</text>
</a>
</g>
</g>
<!-- Node855&#45;&gt;Node858 -->
<g id="edge3" class="edge">
<title>Node855&#45;&gt;Node858</title>
<path fill="none" stroke="midnightblue" d="M129.39,-171.57C143.61,-169.1 158.68,-166.49 173.19,-163.98"/>
<polygon fill="midnightblue" stroke="midnightblue" points="128.47,-168.17 119.21,-173.33 129.66,-175.07 128.47,-168.17"/>
</g>
<!-- Node862 -->
<g id="node8" class="node">
<title>Node862</title>
<g id="a_node8"><a xlink:href="structMoFEM_1_1OpFluxRhsImpl_3_01NaturalMeshsetTypeVectorScaling_3_01UNKNOWNSET_01_4_00_011_00_0771e605d9e858a0adf36062af7a900fd.html" target="_top" xlink:title=" ">
<polygon fill="white" stroke="black" points="155,-35.5 155,-87.5 349,-87.5 349,-35.5 155,-35.5"/>
<text text-anchor="start" x="163" y="-75.5" font-family="Helvetica,sans-Serif" font-size="10.00">MoFEM::OpFluxRhsImpl</text>
<text text-anchor="start" x="163" y="-64.5" font-family="Helvetica,sans-Serif" font-size="10.00">&lt; NaturalMeshsetTypeVectorScaling</text>
<text text-anchor="start" x="163" y="-53.5" font-family="Helvetica,sans-Serif" font-size="10.00">&lt; UNKNOWNSET &gt;, 1, FIELD_DIM,</text>
<text text-anchor="middle" x="252" y="-42.5" font-family="Helvetica,sans-Serif" font-size="10.00"> A, I, OpBase &gt;</text>
</a>
</g>
</g>
<!-- Node855&#45;&gt;Node862 -->
<g id="edge7" class="edge">
<title>Node855&#45;&gt;Node862</title>
<path fill="none" stroke="midnightblue" d="M88.35,-162.21C106.87,-148.36 131.95,-130.21 155,-115.5 169.99,-105.93 186.76,-96.19 202.04,-87.66"/>
<polygon fill="midnightblue" stroke="midnightblue" points="86.21,-159.44 80.33,-168.24 90.42,-165.03 86.21,-159.44"/>
</g>
<!-- Node859 -->
<g id="node5" class="node">
<title>Node859</title>
<g id="a_node5"><a xlink:href="structMoFEM_1_1OpFluxRhsImpl_3_01NaturalMeshsetType_3_01BLOCKSET_01_4_00_011_00_01FIELD__DIM_00_01A_00_01I_00_01OpBase_01_4.html" target="_top" xlink:title=" ">
<polygon fill="white" stroke="black" points="414,-213.5 414,-265.5 550,-265.5 550,-213.5 414,-213.5"/>
<text text-anchor="start" x="422" y="-253.5" font-family="Helvetica,sans-Serif" font-size="10.00">MoFEM::OpFluxRhsImpl</text>
<text text-anchor="start" x="422" y="-242.5" font-family="Helvetica,sans-Serif" font-size="10.00">&lt; NaturalMeshsetType</text>
<text text-anchor="start" x="422" y="-231.5" font-family="Helvetica,sans-Serif" font-size="10.00">&lt; BLOCKSET &gt;, 1, FIELD</text>
<text text-anchor="middle" x="482" y="-220.5" font-family="Helvetica,sans-Serif" font-size="10.00">_DIM, A, I, OpBase &gt;</text>
</a>
</g>
</g>
<!-- Node858&#45;&gt;Node859 -->
<g id="edge4" class="edge">
<title>Node858&#45;&gt;Node859</title>
<path fill="none" stroke="midnightblue" d="M334.45,-180.36C339.4,-182.39 344.28,-184.44 349,-186.5 365.4,-193.65 368.57,-197.42 385,-204.5 394.29,-208.5 404.2,-212.45 413.99,-216.18"/>
<polygon fill="midnightblue" stroke="midnightblue" points="335.47,-177 324.89,-176.52 332.86,-183.5 335.47,-177"/>
</g>
<!-- Node860 -->
<g id="node6" class="node">
<title>Node860</title>
<g id="a_node6"><a xlink:href="structMoFEM_1_1OpFluxRhsImpl_3_01NaturalMeshsetType_3_01FORCESET_01_4_00_011_00_01FIELD__DIM_00_01A_00_01I_00_01OpBase_01_4.html" target="_top" xlink:title=" ">
<polygon fill="white" stroke="black" points="414,-142.5 414,-194.5 550,-194.5 550,-142.5 414,-142.5"/>
<text text-anchor="start" x="422" y="-182.5" font-family="Helvetica,sans-Serif" font-size="10.00">MoFEM::OpFluxRhsImpl</text>
<text text-anchor="start" x="422" y="-171.5" font-family="Helvetica,sans-Serif" font-size="10.00">&lt; NaturalMeshsetType</text>
<text text-anchor="start" x="422" y="-160.5" font-family="Helvetica,sans-Serif" font-size="10.00">&lt; FORCESET &gt;, 1, FIELD</text>
<text text-anchor="middle" x="482" y="-149.5" font-family="Helvetica,sans-Serif" font-size="10.00">_DIM, A, I, OpBase &gt;</text>
</a>
</g>
</g>
<!-- Node858&#45;&gt;Node860 -->
<g id="edge5" class="edge">
<title>Node858&#45;&gt;Node860</title>
<path fill="none" stroke="midnightblue" d="M340.48,-157.41C364.87,-159.33 390.98,-161.39 413.99,-163.21"/>
<polygon fill="midnightblue" stroke="midnightblue" points="340.75,-153.92 330.51,-156.62 340.2,-160.9 340.75,-153.92"/>
</g>
<!-- Node861 -->
<g id="node7" class="node">
<title>Node861</title>
<g id="a_node7"><a xlink:href="structMoFEM_1_1OpFluxRhsImpl_3_01NaturalMeshsetType_3_01PRESSURESET_01_4_00_011_00_01FIELD__DIM_00_01A_00_01I_00_01OpBase_01_4.html" target="_top" xlink:title=" ">
<polygon fill="white" stroke="black" points="405,-71.5 405,-123.5 559,-123.5 559,-71.5 405,-71.5"/>
<text text-anchor="start" x="413" y="-111.5" font-family="Helvetica,sans-Serif" font-size="10.00">MoFEM::OpFluxRhsImpl</text>
<text text-anchor="start" x="413" y="-100.5" font-family="Helvetica,sans-Serif" font-size="10.00">&lt; NaturalMeshsetType</text>
<text text-anchor="start" x="413" y="-89.5" font-family="Helvetica,sans-Serif" font-size="10.00">&lt; PRESSURESET &gt;, 1, FIELD</text>
<text text-anchor="middle" x="482" y="-78.5" font-family="Helvetica,sans-Serif" font-size="10.00">_DIM, A, I, OpBase &gt;</text>
</a>
</g>
</g>
<!-- Node858&#45;&gt;Node861 -->
<g id="edge6" class="edge">
<title>Node858&#45;&gt;Node861</title>
<path fill="none" stroke="midnightblue" d="M340.48,-130.16C361.7,-125.23 384.22,-120 404.87,-115.2"/>
<polygon fill="midnightblue" stroke="midnightblue" points="339.46,-126.81 330.51,-132.48 341.04,-133.63 339.46,-126.81"/>
</g>
<!-- Node863 -->
<g id="node9" class="node">
<title>Node863</title>
<g id="a_node9"><a xlink:href="structMoFEM_1_1OpFluxRhsImpl_3_01NaturalMeshsetTypeVectorScaling_3_01BLOCKSET_01_4_00_011_00_01F78eaefb6a91fbb83864b93ac37043a80.html" target="_top" xlink:title=" ">
<polygon fill="white" stroke="black" points="385,-0.5 385,-52.5 579,-52.5 579,-0.5 385,-0.5"/>
<text text-anchor="start" x="393" y="-40.5" font-family="Helvetica,sans-Serif" font-size="10.00">MoFEM::OpFluxRhsImpl</text>
<text text-anchor="start" x="393" y="-29.5" font-family="Helvetica,sans-Serif" font-size="10.00">&lt; NaturalMeshsetTypeVectorScaling</text>
<text text-anchor="start" x="393" y="-18.5" font-family="Helvetica,sans-Serif" font-size="10.00">&lt; BLOCKSET &gt;, 1, FIELD_DIM,</text>
<text text-anchor="middle" x="482" y="-7.5" font-family="Helvetica,sans-Serif" font-size="10.00"> A, I, OpBase &gt;</text>
</a>
</g>
</g>
<!-- Node862&#45;&gt;Node863 -->
<g id="edge8" class="edge">
<title>Node862&#45;&gt;Node863</title>
<path fill="none" stroke="midnightblue" d="M359.04,-45.22C367.6,-43.91 376.23,-42.58 384.71,-41.28"/>
<polygon fill="midnightblue" stroke="midnightblue" points="358.38,-41.78 349.03,-46.76 359.45,-48.7 358.38,-41.78"/>
</g>
</g>
</svg>
