<?xml version="1.0" encoding="UTF-8" standalone="no"?>
<!DOCTYPE svg PUBLIC "-//W3C//DTD SVG 1.1//EN"
 "http://www.w3.org/Graphics/SVG/1.1/DTD/svg11.dtd">
<!-- Generated by graphviz version 10.0.1 (20240210.2158)
 -->
<!-- Title: Graphical Class Hierarchy Pages: 1 -->
<svg width="330pt" height="358pt"
 viewBox="0.00 0.00 330.25 357.88" xmlns="http://www.w3.org/2000/svg" xmlns:xlink="http://www.w3.org/1999/xlink">
<g id="graph0" class="graph" transform="scale(1 1) rotate(0) translate(4 353.88)">
<title>Graphical Class Hierarchy</title>
<!-- Node0 -->
<g id="Node000000" class="node">
<title>Node0</title>
<g id="a_Node000000"><a xlink:href="struct_method_for_force_scaling.html" target="_top" xlink:title="Class used to scale loads, f.e. in arc&#45;length control.">
<polygon fill="white" stroke="#666666" points="119.5,-172.25 0,-172.25 0,-153 119.5,-153 119.5,-172.25"/>
<text text-anchor="middle" x="59.75" y="-158.75" font-family="Helvetica,sans-Serif" font-size="10.00">MethodForForceScaling</text>
</a>
</g>
</g>
<!-- Node1 -->
<g id="Node000001" class="node">
<title>Node1</title>
<g id="a_Node000001"><a xlink:href="struct_basic_boundary_conditions_interface_1_1_load_scale.html" target="_top" xlink:title=" ">
<polygon fill="white" stroke="#666666" points="322.25,-349.88 155.5,-349.88 155.5,-319.38 322.25,-319.38 322.25,-349.88"/>
<text text-anchor="start" x="163.5" y="-336.38" font-family="Helvetica,sans-Serif" font-size="10.00">BasicBoundaryConditionsInterface</text>
<text text-anchor="middle" x="238.88" y="-325.12" font-family="Helvetica,sans-Serif" font-size="10.00">::LoadScale</text>
</a>
</g>
</g>
<!-- Node0&#45;&gt;Node1 -->
<g id="edge973_Node000000_Node000001" class="edge">
<title>Node0&#45;&gt;Node1</title>
<g id="a_edge973_Node000000_Node000001"><a xlink:title=" ">
<path fill="none" stroke="#63b8ff" d="M68.53,-183.22C81.61,-215.05 111.01,-276.05 155.5,-309.62 160.27,-313.23 165.56,-316.31 171.1,-318.96"/>
<polygon fill="#63b8ff" stroke="#63b8ff" points="71.81,-181.98 64.88,-173.97 65.3,-184.55 71.81,-181.98"/>
</a>
</g>
</g>
<!-- Node2 -->
<g id="Node000002" class="node">
<title>Node2</title>
<g id="a_Node000002"><a xlink:href="struct_meta_nodal_forces_1_1_dof_force_scale.html" target="_top" xlink:title="Scale force based on some DOF value.">
<polygon fill="white" stroke="#666666" points="308.75,-300.88 169,-300.88 169,-270.38 308.75,-270.38 308.75,-300.88"/>
<text text-anchor="start" x="177" y="-287.38" font-family="Helvetica,sans-Serif" font-size="10.00">MetaNodalForces::DofForce</text>
<text text-anchor="middle" x="238.88" y="-276.12" font-family="Helvetica,sans-Serif" font-size="10.00">Scale</text>
</a>
</g>
</g>
<!-- Node0&#45;&gt;Node2 -->
<g id="edge974_Node000000_Node000002" class="edge">
<title>Node0&#45;&gt;Node2</title>
<g id="a_edge974_Node000000_Node000002"><a xlink:title=" ">
<path fill="none" stroke="#63b8ff" d="M74.29,-181.62C90.97,-203.7 121.35,-239.76 155.5,-260.62 161.37,-264.21 167.78,-267.31 174.37,-269.99"/>
<polygon fill="#63b8ff" stroke="#63b8ff" points="77.26,-179.76 68.52,-173.79 71.63,-183.91 77.26,-179.76"/>
</a>
</g>
</g>
<!-- Node3 -->
<g id="Node000003" class="node">
<title>Node3</title>
<g id="a_Node000003"><a xlink:href="struct_meta_nodal_forces_1_1_tag_force_scale.html" target="_top" xlink:title="Scale force based on tag value &quot;_LoadFactor_Scale_&quot;.">
<polygon fill="white" stroke="#666666" points="308.75,-251.88 169,-251.88 169,-221.38 308.75,-221.38 308.75,-251.88"/>
<text text-anchor="start" x="177" y="-238.38" font-family="Helvetica,sans-Serif" font-size="10.00">MetaNodalForces::TagForce</text>
<text text-anchor="middle" x="238.88" y="-227.12" font-family="Helvetica,sans-Serif" font-size="10.00">Scale</text>
</a>
</g>
</g>
<!-- Node0&#45;&gt;Node3 -->
<g id="edge975_Node000000_Node000003" class="edge">
<title>Node0&#45;&gt;Node3</title>
<g id="a_edge975_Node000000_Node000003"><a xlink:title=" ">
<path fill="none" stroke="#63b8ff" d="M87.6,-178.19C106.24,-188.57 131.87,-202.02 155.5,-211.62 163.67,-214.94 172.45,-218.06 181.12,-220.89"/>
<polygon fill="#63b8ff" stroke="#63b8ff" points="89.51,-175.25 79.08,-173.38 86.07,-181.34 89.51,-175.25"/>
</a>
</g>
</g>
<!-- Node4 -->
<g id="Node000004" class="node">
<title>Node4</title>
<g id="a_Node000004"><a xlink:href="struct_mortar_contact_problem_1_1_load_scale.html" target="_top" xlink:title=" ">
<polygon fill="white" stroke="#666666" points="296,-202.88 181.75,-202.88 181.75,-172.38 296,-172.38 296,-202.88"/>
<text text-anchor="start" x="189.75" y="-189.38" font-family="Helvetica,sans-Serif" font-size="10.00">MortarContactProblem</text>
<text text-anchor="middle" x="238.88" y="-178.12" font-family="Helvetica,sans-Serif" font-size="10.00">::LoadScale</text>
</a>
</g>
</g>
<!-- Node0&#45;&gt;Node4 -->
<g id="edge976_Node000000_Node000004" class="edge">
<title>Node0&#45;&gt;Node4</title>
<g id="a_edge976_Node000000_Node000004"><a xlink:title=" ">
<path fill="none" stroke="#63b8ff" d="M131.09,-172.55C147.74,-174.9 165.3,-177.38 181.26,-179.63"/>
<polygon fill="#63b8ff" stroke="#63b8ff" points="131.62,-169.09 121.23,-171.16 130.64,-176.02 131.62,-169.09"/>
</a>
</g>
</g>
<!-- Node5 -->
<g id="Node000005" class="node">
<title>Node5</title>
<g id="a_Node000005"><a xlink:href="struct_navier_stokes_element_1_1_load_scale.html" target="_top" xlink:title=" ">
<polygon fill="white" stroke="#666666" points="294.5,-153.88 183.25,-153.88 183.25,-123.38 294.5,-123.38 294.5,-153.88"/>
<text text-anchor="start" x="191.25" y="-140.38" font-family="Helvetica,sans-Serif" font-size="10.00">NavierStokesElement</text>
<text text-anchor="middle" x="238.88" y="-129.12" font-family="Helvetica,sans-Serif" font-size="10.00">::LoadScale</text>
</a>
</g>
</g>
<!-- Node0&#45;&gt;Node5 -->
<g id="edge977_Node000000_Node000005" class="edge">
<title>Node0&#45;&gt;Node5</title>
<g id="a_edge977_Node000000_Node000005"><a xlink:title=" ">
<path fill="none" stroke="#63b8ff" d="M130.94,-153.11C148.27,-150.77 166.57,-148.29 183.04,-146.05"/>
<polygon fill="#63b8ff" stroke="#63b8ff" points="130.67,-149.62 121.23,-154.43 131.61,-156.56 130.67,-149.62"/>
</a>
</g>
</g>
<!-- Node6 -->
<g id="Node000006" class="node">
<title>Node6</title>
<g id="a_Node000006"><a xlink:href="struct_simple_contact_problem_1_1_load_scale.html" target="_top" xlink:title=" ">
<polygon fill="white" stroke="#666666" points="297.12,-104.88 180.62,-104.88 180.62,-74.38 297.12,-74.38 297.12,-104.88"/>
<text text-anchor="start" x="188.62" y="-91.38" font-family="Helvetica,sans-Serif" font-size="10.00">SimpleContactProblem</text>
<text text-anchor="middle" x="238.88" y="-80.12" font-family="Helvetica,sans-Serif" font-size="10.00">::LoadScale</text>
</a>
</g>
</g>
<!-- Node0&#45;&gt;Node6 -->
<g id="edge978_Node000000_Node000006" class="edge">
<title>Node0&#45;&gt;Node6</title>
<g id="a_edge978_Node000000_Node000006"><a xlink:title=" ">
<path fill="none" stroke="#63b8ff" d="M87.98,-147.23C106.61,-137.1 132.07,-124.03 155.5,-114.62 163.82,-111.28 172.77,-108.14 181.59,-105.27"/>
<polygon fill="#63b8ff" stroke="#63b8ff" points="86.53,-144.03 79.46,-151.93 89.91,-150.17 86.53,-144.03"/>
</a>
</g>
</g>
<!-- Node7 -->
<g id="Node000007" class="node">
<title>Node7</title>
<g id="a_Node000007"><a xlink:href="struct_time_accelerogram.html" target="_top" xlink:title=" ">
<polygon fill="white" stroke="#666666" points="287.75,-56.25 190,-56.25 190,-37 287.75,-37 287.75,-56.25"/>
<text text-anchor="middle" x="238.88" y="-42.75" font-family="Helvetica,sans-Serif" font-size="10.00">TimeAccelerogram</text>
</a>
</g>
</g>
<!-- Node0&#45;&gt;Node7 -->
<g id="edge979_Node000000_Node000007" class="edge">
<title>Node0&#45;&gt;Node7</title>
<g id="a_edge979_Node000000_Node000007"><a xlink:title=" ">
<path fill="none" stroke="#63b8ff" d="M74.09,-143.42C90.6,-121.19 120.79,-85.12 155.5,-65.62 165.86,-59.8 177.92,-55.76 189.55,-52.96"/>
<polygon fill="#63b8ff" stroke="#63b8ff" points="71.4,-141.17 68.39,-151.33 77.08,-145.26 71.4,-141.17"/>
</a>
</g>
</g>
<!-- Node8 -->
<g id="Node000008" class="node">
<title>Node8</title>
<g id="a_Node000008"><a xlink:href="struct_time_force_scale.html" target="_top" xlink:title="Force scale operator for reading two columns.">
<polygon fill="white" stroke="#666666" points="282.5,-19.25 195.25,-19.25 195.25,0 282.5,0 282.5,-19.25"/>
<text text-anchor="middle" x="238.88" y="-5.75" font-family="Helvetica,sans-Serif" font-size="10.00">TimeForceScale</text>
</a>
</g>
</g>
<!-- Node0&#45;&gt;Node8 -->
<g id="edge980_Node000000_Node000008" class="edge">
<title>Node0&#45;&gt;Node8</title>
<g id="a_edge980_Node000000_Node000008"><a xlink:title=" ">
<path fill="none" stroke="#63b8ff" d="M69.28,-142.03C82.86,-111.92 112.35,-56.33 155.5,-27.62 167.08,-19.92 181.41,-15.46 194.85,-12.89"/>
<polygon fill="#63b8ff" stroke="#63b8ff" points="66.08,-140.6 65.32,-151.17 72.5,-143.39 66.08,-140.6"/>
</a>
</g>
</g>
</g>
</svg>
