<?xml version="1.0" encoding="UTF-8" standalone="no"?>
<!DOCTYPE svg PUBLIC "-//W3C//DTD SVG 1.1//EN"
 "http://www.w3.org/Graphics/SVG/1.1/DTD/svg11.dtd">
<!-- Generated by graphviz version 9.0.0 (20230911.1827)
 -->
<!-- Title: Graphical Class Hierarchy Pages: 1 -->
<svg width="309pt" height="88pt"
 viewBox="0.00 0.00 308.50 87.50" xmlns="http://www.w3.org/2000/svg" xmlns:xlink="http://www.w3.org/1999/xlink">
<g id="graph0" class="graph" transform="scale(1 1) rotate(0) translate(4 83.5)">
<title>Graphical Class Hierarchy</title>
<!-- Node0 -->
<g id="node1" class="node">
<title>Node0</title>
<g id="a_node1"><a xlink:href="struct_level_set_1_1_wrapper_class.html" target="_top" xlink:title="Wrapper executing stages while mesh refinement.">
<polygon fill="white" stroke="#666666" points="121.75,-48.88 0,-48.88 0,-29.62 121.75,-29.62 121.75,-48.88"/>
<text text-anchor="middle" x="60.88" y="-35.38" font-family="Helvetica,sans-Serif" font-size="10.00">LevelSet::WrapperClass</text>
</a>
</g>
</g>
<!-- Node1 -->
<g id="node2" class="node">
<title>Node1</title>
<g id="a_node2"><a xlink:href="struct_level_set_1_1_wrapper_class_error_projection.html" target="_top" xlink:title="Use peculated errors on all levels while mesh projection.">
<polygon fill="white" stroke="#666666" points="300.5,-79.5 157.75,-79.5 157.75,-49 300.5,-49 300.5,-79.5"/>
<text text-anchor="start" x="165.75" y="-66" font-family="Helvetica,sans-Serif" font-size="10.00">LevelSet::WrapperClassError</text>
<text text-anchor="middle" x="229.12" y="-54.75" font-family="Helvetica,sans-Serif" font-size="10.00">Projection</text>
</a>
</g>
</g>
<!-- Node0&#45;&gt;Node1 -->
<g id="edge1" class="edge">
<title>Node0&#45;&gt;Node1</title>
<path fill="none" stroke="#63b8ff" d="M133.14,-49.97C141.19,-51.18 149.4,-52.41 157.44,-53.62"/>
<polygon fill="#63b8ff" stroke="#63b8ff" points="133.8,-46.53 123.39,-48.5 132.76,-53.45 133.8,-46.53"/>
</g>
<!-- Node2 -->
<g id="node3" class="node">
<title>Node2</title>
<g id="a_node3"><a xlink:href="struct_level_set_1_1_wrapper_class_inital_solution.html" target="_top" xlink:title="Used to execute inital mesh approximation while mesh refinement.">
<polygon fill="white" stroke="#666666" points="300.5,-30.5 157.75,-30.5 157.75,0 300.5,0 300.5,-30.5"/>
<text text-anchor="start" x="165.75" y="-17" font-family="Helvetica,sans-Serif" font-size="10.00">LevelSet::WrapperClassInital</text>
<text text-anchor="middle" x="229.12" y="-5.75" font-family="Helvetica,sans-Serif" font-size="10.00">Solution</text>
</a>
</g>
</g>
<!-- Node0&#45;&gt;Node2 -->
<g id="edge2" class="edge">
<title>Node0&#45;&gt;Node2</title>
<path fill="none" stroke="#63b8ff" d="M133.14,-28.96C141.19,-27.8 149.4,-26.62 157.44,-25.45"/>
<polygon fill="#63b8ff" stroke="#63b8ff" points="132.79,-25.48 123.39,-30.37 133.79,-32.4 132.79,-25.48"/>
</g>
</g>
</svg>
