<?xml version="1.0" encoding="UTF-8" standalone="no"?>
<!DOCTYPE svg PUBLIC "-//W3C//DTD SVG 1.1//EN"
 "http://www.w3.org/Graphics/SVG/1.1/DTD/svg11.dtd">
<!-- Generated by graphviz version 9.0.0 (20230911.1827)
 -->
<!-- Title: Graphical Class Hierarchy Pages: 1 -->
<svg width="317pt" height="433pt"
 viewBox="0.00 0.00 316.75 433.25" xmlns="http://www.w3.org/2000/svg" xmlns:xlink="http://www.w3.org/1999/xlink">
<g id="graph0" class="graph" transform="scale(1 1) rotate(0) translate(4 429.25)">
<title>Graphical Class Hierarchy</title>
<!-- Node0 -->
<g id="node1" class="node">
<title>Node0</title>
<g id="a_node1"><a xlink:href="class_assembly_domain_ele_op.html" target="_top" xlink:title=" ">
<polygon fill="white" stroke="#666666" points="120.25,-204.25 0,-204.25 0,-185 120.25,-185 120.25,-204.25"/>
<text text-anchor="middle" x="60.12" y="-190.75" font-family="Helvetica,sans-Serif" font-size="10.00">AssemblyDomainEleOp</text>
</a>
</g>
</g>
<!-- Node1 -->
<g id="node2" class="node">
<title>Node1</title>
<g id="a_node2"><a xlink:href="struct_free_surface_ops_1_1_op_lhs_g__d_g.html" target="_top" xlink:title="Lhs for H dH.">
<polygon fill="white" stroke="#666666" points="306.12,-425.25 158.88,-425.25 158.88,-406 306.12,-406 306.12,-425.25"/>
<text text-anchor="middle" x="232.5" y="-411.75" font-family="Helvetica,sans-Serif" font-size="10.00">FreeSurfaceOps::OpLhsG_dG</text>
</a>
</g>
</g>
<!-- Node0&#45;&gt;Node1 -->
<g id="edge1" class="edge">
<title>Node0&#45;&gt;Node1</title>
<path fill="none" stroke="#63b8ff" d="M64.84,-215.48C73.29,-256.67 97.95,-348.61 156.25,-396.62 160.62,-400.22 165.58,-403.15 170.82,-405.53"/>
<polygon fill="#63b8ff" stroke="#63b8ff" points="68.32,-215.08 63,-205.92 61.45,-216.4 68.32,-215.08"/>
</g>
<!-- Node2 -->
<g id="node3" class="node">
<title>Node2</title>
<g id="a_node3"><a xlink:href="struct_free_surface_ops_1_1_op_lhs_g__d_h.html" target="_top" xlink:title="Lhs for H dH.">
<polygon fill="white" stroke="#666666" points="297.12,-387.88 167.88,-387.88 167.88,-357.38 297.12,-357.38 297.12,-387.88"/>
<text text-anchor="start" x="175.88" y="-374.38" font-family="Helvetica,sans-Serif" font-size="10.00">FreeSurfaceOps::OpLhsG</text>
<text text-anchor="middle" x="232.5" y="-363.12" font-family="Helvetica,sans-Serif" font-size="10.00">_dH&lt; I &gt;</text>
</a>
</g>
</g>
<!-- Node0&#45;&gt;Node2 -->
<g id="edge2" class="edge">
<title>Node0&#45;&gt;Node2</title>
<path fill="none" stroke="#63b8ff" d="M68.48,-215C81.29,-247.68 110.75,-311.75 156.25,-347.62 160.79,-351.2 165.87,-354.28 171.18,-356.93"/>
<polygon fill="#63b8ff" stroke="#63b8ff" points="71.85,-214.03 65.05,-205.91 65.31,-216.5 71.85,-214.03"/>
</g>
<!-- Node3 -->
<g id="node4" class="node">
<title>Node3</title>
<g id="a_node4"><a xlink:href="struct_free_surface_ops_1_1_op_lhs_h__d_g.html" target="_top" xlink:title="Lhs for H dH.">
<polygon fill="white" stroke="#666666" points="297.12,-338.88 167.88,-338.88 167.88,-308.38 297.12,-308.38 297.12,-338.88"/>
<text text-anchor="start" x="175.88" y="-325.38" font-family="Helvetica,sans-Serif" font-size="10.00">FreeSurfaceOps::OpLhsH</text>
<text text-anchor="middle" x="232.5" y="-314.12" font-family="Helvetica,sans-Serif" font-size="10.00">_dG&lt; I &gt;</text>
</a>
</g>
</g>
<!-- Node0&#45;&gt;Node3 -->
<g id="edge3" class="edge">
<title>Node0&#45;&gt;Node3</title>
<path fill="none" stroke="#63b8ff" d="M73.84,-213.63C90.28,-236.83 121.02,-275.78 156.25,-298.62 161.68,-302.15 167.65,-305.22 173.78,-307.88"/>
<polygon fill="#63b8ff" stroke="#63b8ff" points="76.93,-211.96 68.37,-205.72 71.17,-215.93 76.93,-211.96"/>
</g>
<!-- Node4 -->
<g id="node5" class="node">
<title>Node4</title>
<g id="a_node5"><a xlink:href="struct_free_surface_ops_1_1_op_lhs_h__d_h.html" target="_top" xlink:title="Lhs for H dH.">
<polygon fill="white" stroke="#666666" points="297.12,-289.88 167.88,-289.88 167.88,-259.38 297.12,-259.38 297.12,-289.88"/>
<text text-anchor="start" x="175.88" y="-276.38" font-family="Helvetica,sans-Serif" font-size="10.00">FreeSurfaceOps::OpLhsH</text>
<text text-anchor="middle" x="232.5" y="-265.12" font-family="Helvetica,sans-Serif" font-size="10.00">_dH&lt; I &gt;</text>
</a>
</g>
</g>
<!-- Node0&#45;&gt;Node4 -->
<g id="edge4" class="edge">
<title>Node0&#45;&gt;Node4</title>
<path fill="none" stroke="#63b8ff" d="M85.24,-210.86C104,-222.99 131.01,-239.34 156.25,-250.62 162.88,-253.59 170,-256.36 177.11,-258.88"/>
<polygon fill="#63b8ff" stroke="#63b8ff" points="87.27,-208.01 76.99,-205.45 83.43,-213.87 87.27,-208.01"/>
</g>
<!-- Node5 -->
<g id="node6" class="node">
<title>Node5</title>
<g id="a_node6"><a xlink:href="struct_free_surface_ops_1_1_op_lhs_h__d_u.html" target="_top" xlink:title="Lhs for H dU.">
<polygon fill="white" stroke="#666666" points="306.12,-241.25 158.88,-241.25 158.88,-222 306.12,-222 306.12,-241.25"/>
<text text-anchor="middle" x="232.5" y="-227.75" font-family="Helvetica,sans-Serif" font-size="10.00">FreeSurfaceOps::OpLhsH_dU</text>
</a>
</g>
</g>
<!-- Node0&#45;&gt;Node5 -->
<g id="edge5" class="edge">
<title>Node0&#45;&gt;Node5</title>
<path fill="none" stroke="#63b8ff" d="M118.7,-207.13C140.29,-211.82 164.54,-217.08 185,-221.53"/>
<polygon fill="#63b8ff" stroke="#63b8ff" points="119.67,-203.76 109.16,-205.06 118.19,-210.6 119.67,-203.76"/>
</g>
<!-- Node6 -->
<g id="node7" class="node">
<title>Node6</title>
<g id="a_node7"><a xlink:href="struct_free_surface_ops_1_1_op_lhs_u__d_g.html" target="_top" xlink:title="Lhs for G dH.">
<polygon fill="white" stroke="#666666" points="306.12,-204.25 158.88,-204.25 158.88,-185 306.12,-185 306.12,-204.25"/>
<text text-anchor="middle" x="232.5" y="-190.75" font-family="Helvetica,sans-Serif" font-size="10.00">FreeSurfaceOps::OpLhsU_dG</text>
</a>
</g>
</g>
<!-- Node0&#45;&gt;Node6 -->
<g id="edge6" class="edge">
<title>Node0&#45;&gt;Node6</title>
<path fill="none" stroke="#63b8ff" d="M132.04,-194.62C140.76,-194.62 149.7,-194.62 158.45,-194.62"/>
<polygon fill="#63b8ff" stroke="#63b8ff" points="132.23,-191.13 122.23,-194.63 132.23,-198.13 132.23,-191.13"/>
</g>
<!-- Node7 -->
<g id="node8" class="node">
<title>Node7</title>
<g id="a_node8"><a xlink:href="struct_free_surface_ops_1_1_op_lhs_u__d_h.html" target="_top" xlink:title="Lhs for U dH.">
<polygon fill="white" stroke="#666666" points="306.12,-167.25 158.88,-167.25 158.88,-148 306.12,-148 306.12,-167.25"/>
<text text-anchor="middle" x="232.5" y="-153.75" font-family="Helvetica,sans-Serif" font-size="10.00">FreeSurfaceOps::OpLhsU_dH</text>
</a>
</g>
</g>
<!-- Node0&#45;&gt;Node7 -->
<g id="edge7" class="edge">
<title>Node0&#45;&gt;Node7</title>
<path fill="none" stroke="#63b8ff" d="M118.7,-182.12C140.29,-177.43 164.54,-172.17 185,-167.72"/>
<polygon fill="#63b8ff" stroke="#63b8ff" points="118.19,-178.65 109.16,-184.19 119.67,-185.49 118.19,-178.65"/>
</g>
<!-- Node8 -->
<g id="node9" class="node">
<title>Node8</title>
<g id="a_node9"><a xlink:href="struct_free_surface_ops_1_1_op_lhs_u__d_u.html" target="_top" xlink:title="Lhs for U dU.">
<polygon fill="white" stroke="#666666" points="306.12,-130.25 158.88,-130.25 158.88,-111 306.12,-111 306.12,-130.25"/>
<text text-anchor="middle" x="232.5" y="-116.75" font-family="Helvetica,sans-Serif" font-size="10.00">FreeSurfaceOps::OpLhsU_dU</text>
</a>
</g>
</g>
<!-- Node0&#45;&gt;Node8 -->
<g id="edge8" class="edge">
<title>Node0&#45;&gt;Node8</title>
<path fill="none" stroke="#63b8ff" d="M84.36,-178.28C103.02,-165.83 130.31,-149.09 156.25,-138.62 163.85,-135.56 172.1,-132.93 180.26,-130.71"/>
<polygon fill="#63b8ff" stroke="#63b8ff" points="82.49,-175.32 76.19,-183.84 86.43,-181.11 82.49,-175.32"/>
</g>
<!-- Node9 -->
<g id="node10" class="node">
<title>Node9</title>
<g id="a_node10"><a xlink:href="struct_free_surface_ops_1_1_op_rhs_g.html" target="_top" xlink:title=" ">
<polygon fill="white" stroke="#666666" points="308.75,-93.25 156.25,-93.25 156.25,-74 308.75,-74 308.75,-93.25"/>
<text text-anchor="middle" x="232.5" y="-79.75" font-family="Helvetica,sans-Serif" font-size="10.00">FreeSurfaceOps::OpRhsG&lt; I &gt;</text>
</a>
</g>
</g>
<!-- Node0&#45;&gt;Node9 -->
<g id="edge9" class="edge">
<title>Node0&#45;&gt;Node9</title>
<path fill="none" stroke="#63b8ff" d="M75.23,-175.66C92.12,-154.36 122.39,-120.32 156.25,-101.62 162.01,-98.44 168.33,-95.82 174.77,-93.66"/>
<polygon fill="#63b8ff" stroke="#63b8ff" points="72.51,-173.46 69.18,-183.51 78.06,-177.73 72.51,-173.46"/>
</g>
<!-- Node10 -->
<g id="node11" class="node">
<title>Node10</title>
<g id="a_node11"><a xlink:href="struct_free_surface_ops_1_1_op_rhs_h.html" target="_top" xlink:title=" ">
<polygon fill="white" stroke="#666666" points="308.75,-56.25 156.25,-56.25 156.25,-37 308.75,-37 308.75,-56.25"/>
<text text-anchor="middle" x="232.5" y="-42.75" font-family="Helvetica,sans-Serif" font-size="10.00">FreeSurfaceOps::OpRhsH&lt; I &gt;</text>
</a>
</g>
</g>
<!-- Node0&#45;&gt;Node10 -->
<g id="edge10" class="edge">
<title>Node0&#45;&gt;Node10</title>
<path fill="none" stroke="#63b8ff" d="M70.19,-174.47C84.3,-145.5 114.31,-92.52 156.25,-64.62 161.06,-61.43 166.38,-58.79 171.89,-56.63"/>
<polygon fill="#63b8ff" stroke="#63b8ff" points="67.15,-172.71 66.07,-183.25 73.49,-175.69 67.15,-172.71"/>
</g>
<!-- Node11 -->
<g id="node12" class="node">
<title>Node11</title>
<g id="a_node12"><a xlink:href="struct_free_surface_ops_1_1_op_rhs_u.html" target="_top" xlink:title="Rhs for U.">
<polygon fill="white" stroke="#666666" points="298.25,-19.25 166.75,-19.25 166.75,0 298.25,0 298.25,-19.25"/>
<text text-anchor="middle" x="232.5" y="-5.75" font-family="Helvetica,sans-Serif" font-size="10.00">FreeSurfaceOps::OpRhsU</text>
</a>
</g>
</g>
<!-- Node0&#45;&gt;Node11 -->
<g id="edge11" class="edge">
<title>Node0&#45;&gt;Node11</title>
<path fill="none" stroke="#63b8ff" d="M66.94,-173.93C78.08,-138.27 105.88,-65.43 156.25,-27.62 160.44,-24.48 165.1,-21.88 169.99,-19.72"/>
<polygon fill="#63b8ff" stroke="#63b8ff" points="63.61,-172.84 64.12,-183.43 70.32,-174.84 63.61,-172.84"/>
</g>
</g>
</svg>
