<?xml version="1.0" encoding="UTF-8" standalone="no"?>
<!DOCTYPE svg PUBLIC "-//W3C//DTD SVG 1.1//EN"
 "http://www.w3.org/Graphics/SVG/1.1/DTD/svg11.dtd">
<!-- Generated by graphviz version 9.0.0 (20230911.1827)
 -->
<!-- Title: Graphical Class Hierarchy Pages: 1 -->
<svg width="393pt" height="186pt"
 viewBox="0.00 0.00 392.50 185.50" xmlns="http://www.w3.org/2000/svg" xmlns:xlink="http://www.w3.org/1999/xlink">
<g id="graph0" class="graph" transform="scale(1 1) rotate(0) translate(4 181.5)">
<title>Graphical Class Hierarchy</title>
<!-- Node0 -->
<g id="node1" class="node">
<title>Node0</title>
<g id="a_node1"><a xlink:href="struct_mo_f_e_m_1_1_op_set_inv_jac_space_for_face_impl.html" target="_top" xlink:title="Transform local reference derivatives of shape functions to global derivatives.">
<polygon fill="white" stroke="#666666" points="158.5,-103.5 0,-103.5 0,-73 158.5,-73 158.5,-103.5"/>
<text text-anchor="start" x="8" y="-90" font-family="Helvetica,sans-Serif" font-size="10.00">MoFEM::OpSetInvJacSpaceFor</text>
<text text-anchor="middle" x="79.25" y="-78.75" font-family="Helvetica,sans-Serif" font-size="10.00">FaceImpl&lt; DIM, DERIVATIVE &gt;</text>
</a>
</g>
</g>
<!-- Node1 -->
<g id="node2" class="node">
<title>Node1</title>
<g id="a_node2"><a xlink:href="struct_mo_f_e_m_1_1_op_set_inv_jac_h1_for_face.html" target="_top" xlink:title=" ">
<polygon fill="white" stroke="#666666" points="370.62,-177.5 208.38,-177.5 208.38,-147 370.62,-147 370.62,-177.5"/>
<text text-anchor="start" x="216.38" y="-164" font-family="Helvetica,sans-Serif" font-size="10.00">MoFEM::OpSetInvJacH1ForFace</text>
<text text-anchor="middle" x="289.5" y="-152.75" font-family="Helvetica,sans-Serif" font-size="10.00">&lt; DERIVARIVE &gt;</text>
</a>
</g>
</g>
<!-- Node0&#45;&gt;Node1 -->
<g id="edge1" class="edge">
<title>Node0&#45;&gt;Node1</title>
<path fill="none" stroke="#63b8ff" d="M123.5,-108.56C144.63,-118.03 170.59,-128.99 194.5,-137.25 204.08,-140.56 214.33,-143.69 224.41,-146.54"/>
<polygon fill="#63b8ff" stroke="#63b8ff" points="125.17,-105.48 114.62,-104.54 122.29,-111.85 125.17,-105.48"/>
</g>
<!-- Node2 -->
<g id="node3" class="node">
<title>Node2</title>
<g id="a_node3"><a xlink:href="struct_mo_f_e_m_1_1_op_set_inv_jac_h1_for_face_embedded_in3_d_space.html" target="_top" xlink:title=" ">
<polygon fill="white" stroke="#666666" points="384.5,-128.5 194.5,-128.5 194.5,-98 384.5,-98 384.5,-128.5"/>
<text text-anchor="start" x="202.5" y="-115" font-family="Helvetica,sans-Serif" font-size="10.00">MoFEM::OpSetInvJacH1ForFace</text>
<text text-anchor="middle" x="289.5" y="-103.75" font-family="Helvetica,sans-Serif" font-size="10.00">EmbeddedIn3DSpace&lt; DERIVARIVE &gt;</text>
</a>
</g>
</g>
<!-- Node0&#45;&gt;Node2 -->
<g id="edge2" class="edge">
<title>Node0&#45;&gt;Node2</title>
<path fill="none" stroke="#63b8ff" d="M170.16,-99.04C178.14,-100 186.23,-100.97 194.25,-101.94"/>
<polygon fill="#63b8ff" stroke="#63b8ff" points="170.83,-95.6 160.48,-97.88 169.99,-102.55 170.83,-95.6"/>
</g>
<!-- Node3 -->
<g id="node4" class="node">
<title>Node3</title>
<g id="a_node4"><a xlink:href="struct_mo_f_e_m_1_1_op_set_inv_jac_l2_for_face.html" target="_top" xlink:title=" ">
<polygon fill="white" stroke="#666666" points="369.5,-79.5 209.5,-79.5 209.5,-49 369.5,-49 369.5,-79.5"/>
<text text-anchor="start" x="217.5" y="-66" font-family="Helvetica,sans-Serif" font-size="10.00">MoFEM::OpSetInvJacL2ForFace</text>
<text text-anchor="middle" x="289.5" y="-54.75" font-family="Helvetica,sans-Serif" font-size="10.00">&lt; DERIVARIVE &gt;</text>
</a>
</g>
</g>
<!-- Node0&#45;&gt;Node3 -->
<g id="edge3" class="edge">
<title>Node0&#45;&gt;Node3</title>
<path fill="none" stroke="#63b8ff" d="M170.29,-77.87C183.28,-76.38 196.56,-74.85 209.31,-73.38"/>
<polygon fill="#63b8ff" stroke="#63b8ff" points="170.02,-74.38 160.48,-79 170.82,-81.34 170.02,-74.38"/>
</g>
<!-- Node4 -->
<g id="node5" class="node">
<title>Node4</title>
<g id="a_node5"><a xlink:href="struct_mo_f_e_m_1_1_op_set_inv_jac_l2_for_face_embedded_in3_d_space.html" target="_top" xlink:title=" ">
<polygon fill="white" stroke="#666666" points="384.5,-30.5 194.5,-30.5 194.5,0 384.5,0 384.5,-30.5"/>
<text text-anchor="start" x="202.5" y="-17" font-family="Helvetica,sans-Serif" font-size="10.00">MoFEM::OpSetInvJacL2ForFace</text>
<text text-anchor="middle" x="289.5" y="-5.75" font-family="Helvetica,sans-Serif" font-size="10.00">EmbeddedIn3DSpace&lt; DERIVARIVE &gt;</text>
</a>
</g>
</g>
<!-- Node0&#45;&gt;Node4 -->
<g id="edge4" class="edge">
<title>Node0&#45;&gt;Node4</title>
<path fill="none" stroke="#63b8ff" d="M124.76,-67.87C145.67,-58.73 171.09,-48.24 194.5,-40.25 204.17,-36.95 214.52,-33.81 224.69,-30.95"/>
<polygon fill="#63b8ff" stroke="#63b8ff" points="123.39,-64.65 115.66,-71.89 126.22,-71.05 123.39,-64.65"/>
</g>
</g>
</svg>
