<?xml version="1.0" encoding="UTF-8" standalone="no"?>
<!DOCTYPE svg PUBLIC "-//W3C//DTD SVG 1.1//EN"
 "http://www.w3.org/Graphics/SVG/1.1/DTD/svg11.dtd">
<!-- Generated by graphviz version 9.0.0 (20230911.1827)
 -->
<!-- Title: Graphical Class Hierarchy Pages: 1 -->
<svg width="326pt" height="64pt"
 viewBox="0.00 0.00 325.75 64.25" xmlns="http://www.w3.org/2000/svg" xmlns:xlink="http://www.w3.org/1999/xlink">
<g id="graph0" class="graph" transform="scale(1 1) rotate(0) translate(4 60.25)">
<title>Graphical Class Hierarchy</title>
<!-- Node0 -->
<g id="node1" class="node">
<title>Node0</title>
<g id="a_node1"><a xlink:href="struct_small_strain_plasticity_1_1_closest_point_projection.html" target="_top" xlink:title="Closest point projection algorithm.">
<polygon fill="white" stroke="#666666" points="121.75,-42.88 0,-42.88 0,-12.37 121.75,-12.37 121.75,-42.88"/>
<text text-anchor="start" x="8" y="-29.38" font-family="Helvetica,sans-Serif" font-size="10.00">SmallStrainPlasticity</text>
<text text-anchor="middle" x="60.88" y="-18.12" font-family="Helvetica,sans-Serif" font-size="10.00">::ClosestPointProjection</text>
</a>
</g>
</g>
<!-- Node1 -->
<g id="node2" class="node">
<title>Node1</title>
<g id="a_node2"><a xlink:href="struct_small_strain_j2_plasticity.html" target="_top" xlink:title="J2 plasticity (Kinematic Isotropic (Linear) Hardening)">
<polygon fill="white" stroke="#666666" points="296.38,-56.25 179.12,-56.25 179.12,-37 296.38,-37 296.38,-56.25"/>
<text text-anchor="middle" x="237.75" y="-42.75" font-family="Helvetica,sans-Serif" font-size="10.00">SmallStrainJ2Plasticity</text>
</a>
</g>
</g>
<!-- Node0&#45;&gt;Node1 -->
<g id="edge1" class="edge">
<title>Node0&#45;&gt;Node1</title>
<path fill="none" stroke="#63b8ff" d="M133.45,-35.4C148.54,-37.04 164.3,-38.75 178.82,-40.33"/>
<polygon fill="#63b8ff" stroke="#63b8ff" points="133.88,-31.93 123.56,-34.33 133.13,-38.89 133.88,-31.93"/>
</g>
<!-- Node2 -->
<g id="node3" class="node">
<title>Node2</title>
<g id="a_node3"><a xlink:href="struct_small_strain_paraboloidal_plasticity.html" target="_top" xlink:title="Small strain plasticity with paraboloidal yield criterion (Isotropic Hardening)">
<polygon fill="white" stroke="#666666" points="317.75,-19.25 157.75,-19.25 157.75,0 317.75,0 317.75,-19.25"/>
<text text-anchor="middle" x="237.75" y="-5.75" font-family="Helvetica,sans-Serif" font-size="10.00">SmallStrainParaboloidalPlasticity</text>
</a>
</g>
</g>
<!-- Node0&#45;&gt;Node2 -->
<g id="edge2" class="edge">
<title>Node0&#45;&gt;Node2</title>
<path fill="none" stroke="#63b8ff" d="M133.43,-20.26C141.3,-19.45 149.35,-18.62 157.31,-17.8"/>
<polygon fill="#63b8ff" stroke="#63b8ff" points="133.15,-16.77 123.56,-21.28 133.87,-23.73 133.15,-16.77"/>
</g>
</g>
</svg>
