<?xml version="1.0" encoding="UTF-8" standalone="no"?>
<!DOCTYPE svg PUBLIC "-//W3C//DTD SVG 1.1//EN"
 "http://www.w3.org/Graphics/SVG/1.1/DTD/svg11.dtd">
<!-- Generated by graphviz version 10.0.1 (20240210.2158)
 -->
<!-- Title: Graphical Class Hierarchy Pages: 1 -->
<svg width="950pt" height="39pt"
 viewBox="0.00 0.00 949.75 38.50" xmlns="http://www.w3.org/2000/svg" xmlns:xlink="http://www.w3.org/1999/xlink">
<g id="graph0" class="graph" transform="scale(1 1) rotate(0) translate(4 34.5)">
<title>Graphical Class Hierarchy</title>
<!-- Node0 -->
<g id="Node000000" class="node">
<title>Node0</title>
<g id="a_Node000000"><a xlink:href="struct_mo_f_e_m_1_1interface___ref_entity.html" target="_top" xlink:title=" ">
<polygon fill="white" stroke="#666666" points="140.5,-30.5 0,-30.5 0,0 140.5,0 140.5,-30.5"/>
<text text-anchor="start" x="8" y="-17" font-family="Helvetica,sans-Serif" font-size="10.00">MoFEM::interface_RefEntity</text>
<text text-anchor="middle" x="70.25" y="-5.75" font-family="Helvetica,sans-Serif" font-size="10.00">&lt; EntFiniteElement &gt;</text>
</a>
</g>
</g>
<!-- Node1 -->
<g id="Node000001" class="node">
<title>Node1</title>
<g id="a_Node000001"><a xlink:href="struct_mo_f_e_m_1_1interface___ref_element.html" target="_top" xlink:title=" ">
<polygon fill="white" stroke="#666666" points="327.5,-30.5 176.5,-30.5 176.5,0 327.5,0 327.5,-30.5"/>
<text text-anchor="start" x="184.5" y="-17" font-family="Helvetica,sans-Serif" font-size="10.00">MoFEM::interface_RefElement</text>
<text text-anchor="middle" x="252" y="-5.75" font-family="Helvetica,sans-Serif" font-size="10.00">&lt; EntFiniteElement &gt;</text>
</a>
</g>
</g>
<!-- Node0&#45;&gt;Node1 -->
<g id="edge1017_Node000000_Node000001" class="edge">
<title>Node0&#45;&gt;Node1</title>
<g id="a_edge1017_Node000000_Node000001"><a xlink:title=" ">
<path fill="none" stroke="#63b8ff" d="M152.25,-15.25C160.16,-15.25 168.17,-15.25 176.03,-15.25"/>
<polygon fill="#63b8ff" stroke="#63b8ff" points="152.26,-11.75 142.26,-15.25 152.26,-18.75 152.26,-11.75"/>
</a>
</g>
</g>
<!-- Node2 -->
<g id="Node000002" class="node">
<title>Node2</title>
<g id="a_Node000002"><a xlink:href="struct_mo_f_e_m_1_1interface___finite_element.html" target="_top" xlink:title=" ">
<polygon fill="white" stroke="#666666" points="553.5,-30.5 363.5,-30.5 363.5,0 553.5,0 553.5,-30.5"/>
<text text-anchor="start" x="371.5" y="-17" font-family="Helvetica,sans-Serif" font-size="10.00">MoFEM::interface_FiniteElement</text>
<text text-anchor="middle" x="458.5" y="-5.75" font-family="Helvetica,sans-Serif" font-size="10.00">&lt; EntFiniteElement, EntFiniteElement &gt;</text>
</a>
</g>
</g>
<!-- Node1&#45;&gt;Node2 -->
<g id="edge1018_Node000001_Node000002" class="edge">
<title>Node1&#45;&gt;Node2</title>
<g id="a_edge1018_Node000001_Node000002"><a xlink:title=" ">
<path fill="none" stroke="#63b8ff" d="M339.34,-15.25C347.17,-15.25 355.13,-15.25 363.02,-15.25"/>
<polygon fill="#63b8ff" stroke="#63b8ff" points="339.5,-11.75 329.5,-15.25 339.5,-18.75 339.5,-11.75"/>
</a>
</g>
</g>
<!-- Node3 -->
<g id="Node000003" class="node">
<title>Node3</title>
<g id="a_Node000003"><a xlink:href="struct_mo_f_e_m_1_1interface___ent_finite_element.html" target="_top" xlink:title=" ">
<polygon fill="white" stroke="#666666" points="734.5,-30.5 589.5,-30.5 589.5,0 734.5,0 734.5,-30.5"/>
<text text-anchor="start" x="597.5" y="-17" font-family="Helvetica,sans-Serif" font-size="10.00">MoFEM::interface_EntFinite</text>
<text text-anchor="middle" x="662" y="-5.75" font-family="Helvetica,sans-Serif" font-size="10.00">Element&lt; EntFiniteElement &gt;</text>
</a>
</g>
</g>
<!-- Node2&#45;&gt;Node3 -->
<g id="edge1019_Node000002_Node000003" class="edge">
<title>Node2&#45;&gt;Node3</title>
<g id="a_edge1019_Node000002_Node000003"><a xlink:title=" ">
<path fill="none" stroke="#63b8ff" d="M565.19,-15.25C573.28,-15.25 581.31,-15.25 589.1,-15.25"/>
<polygon fill="#63b8ff" stroke="#63b8ff" points="565.27,-11.75 555.27,-15.25 565.27,-18.75 565.27,-11.75"/>
</a>
</g>
</g>
<!-- Node4 -->
<g id="Node000004" class="node">
<title>Node4</title>
<g id="a_Node000004"><a xlink:href="struct_mo_f_e_m_1_1_numered_ent_finite_element.html" target="_top" xlink:title="Partitioned (Indexed) Finite Element in Problem.">
<polygon fill="white" stroke="#666666" points="941.75,-24.88 770.5,-24.88 770.5,-5.63 941.75,-5.63 941.75,-24.88"/>
<text text-anchor="middle" x="856.12" y="-11.38" font-family="Helvetica,sans-Serif" font-size="10.00">MoFEM::NumeredEntFiniteElement</text>
</a>
</g>
</g>
<!-- Node3&#45;&gt;Node4 -->
<g id="edge1020_Node000003_Node000004" class="edge">
<title>Node3&#45;&gt;Node4</title>
<g id="a_edge1020_Node000003_Node000004"><a xlink:title=" ">
<path fill="none" stroke="#63b8ff" d="M746.28,-15.25C754.18,-15.25 762.2,-15.25 770.12,-15.25"/>
<polygon fill="#63b8ff" stroke="#63b8ff" points="746.33,-11.75 736.33,-15.25 746.33,-18.75 746.33,-11.75"/>
</a>
</g>
</g>
</g>
</svg>
