<?xml version="1.0" encoding="UTF-8" standalone="no"?>
<!DOCTYPE svg PUBLIC "-//W3C//DTD SVG 1.1//EN"
 "http://www.w3.org/Graphics/SVG/1.1/DTD/svg11.dtd">
<!-- Generated by graphviz version 9.0.0 (20230911.1827)
 -->
<!-- Title: Graphical Class Hierarchy Pages: 1 -->
<svg width="251pt" height="64pt"
 viewBox="0.00 0.00 250.75 64.25" xmlns="http://www.w3.org/2000/svg" xmlns:xlink="http://www.w3.org/1999/xlink">
<g id="graph0" class="graph" transform="scale(1 1) rotate(0) translate(4 60.25)">
<title>Graphical Class Hierarchy</title>
<!-- Node0 -->
<g id="node1" class="node">
<title>Node0</title>
<g id="a_node1"><a xlink:href="class_bi_linear_form.html" target="_top" xlink:title=" ">
<polygon fill="white" stroke="#666666" points="73.75,-56.25 0,-56.25 0,-37 73.75,-37 73.75,-56.25"/>
<text text-anchor="middle" x="36.88" y="-42.75" font-family="Helvetica,sans-Serif" font-size="10.00">BiLinearForm</text>
</a>
</g>
</g>
<!-- Node1 -->
<g id="node2" class="node">
<title>Node1</title>
<g id="a_node2"><a xlink:href="struct_mo_f_e_m_1_1_forms_integrators_1_1_assembly_3_01_a_01_4.html" target="_top" xlink:title="Bilinear integrator form.">
<polygon fill="white" stroke="#666666" points="242.75,-42.88 109.75,-42.88 109.75,-12.37 242.75,-12.37 242.75,-42.88"/>
<text text-anchor="start" x="117.75" y="-29.38" font-family="Helvetica,sans-Serif" font-size="10.00">MoFEM::FormsIntegrators</text>
<text text-anchor="middle" x="176.25" y="-18.12" font-family="Helvetica,sans-Serif" font-size="10.00">&lt; EleOp &gt;::Assembly&lt; A &gt;</text>
</a>
</g>
</g>
<!-- Node0&#45;&gt;Node1 -->
<g id="edge1" class="edge">
<title>Node0&#45;&gt;Node1</title>
<path fill="none" stroke="#63b8ff" d="M85.37,-40.06C93.12,-38.98 101.27,-37.86 109.37,-36.74"/>
<polygon fill="#63b8ff" stroke="#63b8ff" points="84.89,-36.59 75.47,-41.43 85.85,-43.52 84.89,-36.59"/>
</g>
<!-- Node2 -->
<g id="node3" class="node">
<title>Node2</title>
<g id="a_node3"><a xlink:href="class_linear_form.html" target="_top" xlink:title=" ">
<polygon fill="white" stroke="#666666" points="69.25,-19.25 4.5,-19.25 4.5,0 69.25,0 69.25,-19.25"/>
<text text-anchor="middle" x="36.88" y="-5.75" font-family="Helvetica,sans-Serif" font-size="10.00">LinearForm</text>
</a>
</g>
</g>
<!-- Node2&#45;&gt;Node1 -->
<g id="edge2" class="edge">
<title>Node2&#45;&gt;Node1</title>
<path fill="none" stroke="#63b8ff" d="M81.12,-15.29C90.13,-16.47 99.82,-17.74 109.43,-19"/>
<polygon fill="#63b8ff" stroke="#63b8ff" points="81.61,-11.83 71.24,-14 80.7,-18.77 81.61,-11.83"/>
</g>
</g>
</svg>
