<?xml version="1.0" encoding="UTF-8" standalone="no"?>
<!DOCTYPE svg PUBLIC "-//W3C//DTD SVG 1.1//EN"
 "http://www.w3.org/Graphics/SVG/1.1/DTD/svg11.dtd">
<!-- Generated by graphviz version 9.0.0 (20230911.1827)
 -->
<!-- Title: Graphical Class Hierarchy Pages: 1 -->
<svg width="223pt" height="249pt"
 viewBox="0.00 0.00 223.00 249.25" xmlns="http://www.w3.org/2000/svg" xmlns:xlink="http://www.w3.org/1999/xlink">
<g id="graph0" class="graph" transform="scale(1 1) rotate(0) translate(4 245.25)">
<title>Graphical Class Hierarchy</title>
<!-- Node0 -->
<g id="node1" class="node">
<title>Node0</title>
<g id="a_node1"><a xlink:href="struct_rigid_body_data.html" target="_top" xlink:title=" ">
<polygon fill="white" stroke="#666666" points="82,-130.25 0,-130.25 0,-111 82,-111 82,-130.25"/>
<text text-anchor="middle" x="41" y="-116.75" font-family="Helvetica,sans-Serif" font-size="10.00">RigidBodyData</text>
</a>
</g>
</g>
<!-- Node1 -->
<g id="node2" class="node">
<title>Node1</title>
<g id="a_node2"><a xlink:href="struct_cone_rigid_body.html" target="_top" xlink:title=" ">
<polygon fill="white" stroke="#666666" points="208.62,-241.25 124.38,-241.25 124.38,-222 208.62,-222 208.62,-241.25"/>
<text text-anchor="middle" x="166.5" y="-227.75" font-family="Helvetica,sans-Serif" font-size="10.00">ConeRigidBody</text>
</a>
</g>
</g>
<!-- Node0&#45;&gt;Node1 -->
<g id="edge1" class="edge">
<title>Node0&#45;&gt;Node1</title>
<path fill="none" stroke="#63b8ff" d="M53.55,-140.15C66.76,-160.96 90.19,-193.6 118,-213.62 122.29,-216.72 127.18,-219.35 132.16,-221.56"/>
<polygon fill="#63b8ff" stroke="#63b8ff" points="56.62,-138.45 48.4,-131.77 50.66,-142.12 56.62,-138.45"/>
</g>
<!-- Node2 -->
<g id="node3" class="node">
<title>Node2</title>
<g id="a_node3"><a xlink:href="struct_cylinder_rigid_body.html" target="_top" xlink:title=" ">
<polygon fill="white" stroke="#666666" points="215,-204.25 118,-204.25 118,-185 215,-185 215,-204.25"/>
<text text-anchor="middle" x="166.5" y="-190.75" font-family="Helvetica,sans-Serif" font-size="10.00">CylinderRigidBody</text>
</a>
</g>
</g>
<!-- Node0&#45;&gt;Node2 -->
<g id="edge2" class="edge">
<title>Node0&#45;&gt;Node2</title>
<path fill="none" stroke="#63b8ff" d="M62.17,-137.87C76.93,-149.87 97.81,-165.63 118,-176.62 123.34,-179.53 129.26,-182.18 135.05,-184.5"/>
<polygon fill="#63b8ff" stroke="#63b8ff" points="64.53,-135.27 54.6,-131.58 60.06,-140.66 64.53,-135.27"/>
</g>
<!-- Node3 -->
<g id="node4" class="node">
<title>Node3</title>
<g id="a_node4"><a xlink:href="struct_plane_rigid_body.html" target="_top" xlink:title=" ">
<polygon fill="white" stroke="#666666" points="209.38,-167.25 123.62,-167.25 123.62,-148 209.38,-148 209.38,-167.25"/>
<text text-anchor="middle" x="166.5" y="-153.75" font-family="Helvetica,sans-Serif" font-size="10.00">PlaneRigidBody</text>
</a>
</g>
</g>
<!-- Node0&#45;&gt;Node3 -->
<g id="edge3" class="edge">
<title>Node0&#45;&gt;Node3</title>
<path fill="none" stroke="#63b8ff" d="M86.77,-134.04C101.63,-138.49 117.91,-143.37 131.79,-147.53"/>
<polygon fill="#63b8ff" stroke="#63b8ff" points="87.78,-130.69 77.2,-131.17 85.77,-137.39 87.78,-130.69"/>
</g>
<!-- Node4 -->
<g id="node5" class="node">
<title>Node4</title>
<g id="a_node5"><a xlink:href="struct_roller_rigid_body.html" target="_top" xlink:title=" ">
<polygon fill="white" stroke="#666666" points="209.75,-130.25 123.25,-130.25 123.25,-111 209.75,-111 209.75,-130.25"/>
<text text-anchor="middle" x="166.5" y="-116.75" font-family="Helvetica,sans-Serif" font-size="10.00">RollerRigidBody</text>
</a>
</g>
</g>
<!-- Node0&#45;&gt;Node4 -->
<g id="edge4" class="edge">
<title>Node0&#45;&gt;Node4</title>
<path fill="none" stroke="#63b8ff" d="M93.64,-120.62C103.36,-120.62 113.43,-120.62 122.85,-120.62"/>
<polygon fill="#63b8ff" stroke="#63b8ff" points="93.95,-117.13 83.95,-120.63 93.95,-124.13 93.95,-117.13"/>
</g>
<!-- Node5 -->
<g id="node6" class="node">
<title>Node5</title>
<g id="a_node6"><a xlink:href="struct_s_t_l_rigid_body.html" target="_top" xlink:title=" ">
<polygon fill="white" stroke="#666666" points="206,-93.25 127,-93.25 127,-74 206,-74 206,-93.25"/>
<text text-anchor="middle" x="166.5" y="-79.75" font-family="Helvetica,sans-Serif" font-size="10.00">STLRigidBody</text>
</a>
</g>
</g>
<!-- Node0&#45;&gt;Node5 -->
<g id="edge5" class="edge">
<title>Node0&#45;&gt;Node5</title>
<path fill="none" stroke="#63b8ff" d="M86.77,-107.21C101.63,-102.76 117.91,-97.88 131.79,-93.72"/>
<polygon fill="#63b8ff" stroke="#63b8ff" points="85.77,-103.86 77.2,-110.08 87.78,-110.56 85.77,-103.86"/>
</g>
<!-- Node6 -->
<g id="node7" class="node">
<title>Node6</title>
<g id="a_node7"><a xlink:href="struct_sphere_rigid_body.html" target="_top" xlink:title=" ">
<polygon fill="white" stroke="#666666" points="212.38,-56.25 120.62,-56.25 120.62,-37 212.38,-37 212.38,-56.25"/>
<text text-anchor="middle" x="166.5" y="-42.75" font-family="Helvetica,sans-Serif" font-size="10.00">SphereRigidBody</text>
</a>
</g>
</g>
<!-- Node0&#45;&gt;Node6 -->
<g id="edge6" class="edge">
<title>Node0&#45;&gt;Node6</title>
<path fill="none" stroke="#63b8ff" d="M62.17,-103.38C76.93,-91.38 97.81,-75.62 118,-64.62 123.34,-61.72 129.26,-59.07 135.05,-56.75"/>
<polygon fill="#63b8ff" stroke="#63b8ff" points="60.06,-100.59 54.6,-109.67 64.53,-105.98 60.06,-100.59"/>
</g>
<!-- Node7 -->
<g id="node8" class="node">
<title>Node7</title>
<g id="a_node8"><a xlink:href="struct_torus_rigid_body.html" target="_top" xlink:title=" ">
<polygon fill="white" stroke="#666666" points="209,-19.25 124,-19.25 124,0 209,0 209,-19.25"/>
<text text-anchor="middle" x="166.5" y="-5.75" font-family="Helvetica,sans-Serif" font-size="10.00">TorusRigidBody</text>
</a>
</g>
</g>
<!-- Node0&#45;&gt;Node7 -->
<g id="edge7" class="edge">
<title>Node0&#45;&gt;Node7</title>
<path fill="none" stroke="#63b8ff" d="M53.55,-101.1C66.76,-80.29 90.19,-47.65 118,-27.62 122.29,-24.53 127.18,-21.9 132.16,-19.69"/>
<polygon fill="#63b8ff" stroke="#63b8ff" points="50.66,-99.13 48.4,-109.48 56.62,-102.8 50.66,-99.13"/>
</g>
</g>
</svg>
