<?xml version="1.0" encoding="UTF-8" standalone="no"?>
<!DOCTYPE svg PUBLIC "-//W3C//DTD SVG 1.1//EN"
 "http://www.w3.org/Graphics/SVG/1.1/DTD/svg11.dtd">
<!-- Generated by graphviz version 2.43.0 (0)
 -->
<!-- Title: Graphical Class Hierarchy Pages: 1 -->
<svg width="627pt" height="216pt"
 viewBox="0.00 0.00 627.00 216.00" xmlns="http://www.w3.org/2000/svg" xmlns:xlink="http://www.w3.org/1999/xlink">
<g id="graph0" class="graph" transform="scale(1 1) rotate(0) translate(4 212)">
<title>Graphical Class Hierarchy</title>
<polygon fill="white" stroke="transparent" points="-4,4 -4,-212 623,-212 623,4 -4,4"/>
<!-- Node1523 -->
<g id="node1" class="node">
<title>Node1523</title>
<g id="a_node1"><a xlink:title=" ">
<polygon fill="white" stroke="#bfbfbf" points="0,-134 0,-153 127,-153 127,-134 0,-134"/>
<text text-anchor="middle" x="63.5" y="-141" font-family="Helvetica,sans-Serif" font-size="10.00">FaceUserDataOperator</text>
</a>
</g>
</g>
<!-- Node0 -->
<g id="node2" class="node">
<title>Node0</title>
<g id="a_node2"><a xlink:href="structEshelbianPlasticity_1_1OpPostProcDataStructure.html" target="_top" xlink:title=" ">
<polygon fill="white" stroke="black" points="173,-177.5 173,-207.5 319,-207.5 319,-177.5 173,-177.5"/>
<text text-anchor="start" x="181" y="-195.5" font-family="Helvetica,sans-Serif" font-size="10.00">EshelbianPlasticity</text>
<text text-anchor="middle" x="246" y="-184.5" font-family="Helvetica,sans-Serif" font-size="10.00">::OpPostProcDataStructure</text>
</a>
</g>
</g>
<!-- Node1523&#45;&gt;Node0 -->
<g id="edge1" class="edge">
<title>Node1523&#45;&gt;Node0</title>
<path fill="none" stroke="midnightblue" d="M109.4,-155.69C133.68,-162.28 163.88,-170.48 189.61,-177.46"/>
<polygon fill="midnightblue" stroke="midnightblue" points="110.3,-152.31 99.73,-153.06 108.46,-159.06 110.3,-152.31"/>
</g>
<!-- Node1525 -->
<g id="node3" class="node">
<title>Node1525</title>
<g id="a_node3"><a xlink:href="structEshelbianPlasticity_1_1OpTractionBc.html" target="_top" xlink:title=" ">
<polygon fill="white" stroke="black" points="191.5,-128.5 191.5,-158.5 300.5,-158.5 300.5,-128.5 191.5,-128.5"/>
<text text-anchor="start" x="199.5" y="-146.5" font-family="Helvetica,sans-Serif" font-size="10.00">EshelbianPlasticity</text>
<text text-anchor="middle" x="246" y="-135.5" font-family="Helvetica,sans-Serif" font-size="10.00">::OpTractionBc</text>
</a>
</g>
</g>
<!-- Node1523&#45;&gt;Node1525 -->
<g id="edge2" class="edge">
<title>Node1523&#45;&gt;Node1525</title>
<path fill="none" stroke="midnightblue" d="M137.35,-143.5C155.45,-143.5 174.51,-143.5 191.49,-143.5"/>
<polygon fill="midnightblue" stroke="midnightblue" points="137.12,-140 127.12,-143.5 137.12,-147 137.12,-140"/>
</g>
<!-- Node1526 -->
<g id="node4" class="node">
<title>Node1526</title>
<g id="a_node4"><a xlink:href="structEshelbianPlasticity_1_1OpAssembleBasic.html" target="_top" xlink:title=" ">
<polygon fill="white" stroke="black" points="163,-68 163,-109 329,-109 329,-68 163,-68"/>
<text text-anchor="start" x="171" y="-97" font-family="Helvetica,sans-Serif" font-size="10.00">EshelbianPlasticity</text>
<text text-anchor="start" x="171" y="-86" font-family="Helvetica,sans-Serif" font-size="10.00">::OpAssembleBasic&lt; FaceUser</text>
<text text-anchor="middle" x="246" y="-75" font-family="Helvetica,sans-Serif" font-size="10.00">DataOperator &gt;</text>
</a>
</g>
</g>
<!-- Node1523&#45;&gt;Node1526 -->
<g id="edge3" class="edge">
<title>Node1523&#45;&gt;Node1526</title>
<path fill="none" stroke="midnightblue" d="M105.63,-130.97C126.93,-124.48 153.48,-116.39 177.67,-109.02"/>
<polygon fill="midnightblue" stroke="midnightblue" points="104.49,-127.66 95.94,-133.92 106.53,-134.35 104.49,-127.66"/>
</g>
<!-- Node1527 -->
<g id="node5" class="node">
<title>Node1527</title>
<g id="a_node5"><a xlink:href="structEshelbianPlasticity_1_1OpAssembleFace.html" target="_top" xlink:title=" ">
<polygon fill="white" stroke="black" points="365,-73.5 365,-103.5 474,-103.5 474,-73.5 365,-73.5"/>
<text text-anchor="start" x="373" y="-91.5" font-family="Helvetica,sans-Serif" font-size="10.00">EshelbianPlasticity</text>
<text text-anchor="middle" x="419.5" y="-80.5" font-family="Helvetica,sans-Serif" font-size="10.00">::OpAssembleFace</text>
</a>
</g>
</g>
<!-- Node1526&#45;&gt;Node1527 -->
<g id="edge4" class="edge">
<title>Node1526&#45;&gt;Node1527</title>
<path fill="none" stroke="midnightblue" d="M339.39,-88.5C348.02,-88.5 356.57,-88.5 364.67,-88.5"/>
<polygon fill="midnightblue" stroke="midnightblue" points="339.23,-85 329.23,-88.5 339.23,-92 339.23,-85"/>
</g>
<!-- Node1528 -->
<g id="node6" class="node">
<title>Node1528</title>
<g id="a_node6"><a xlink:href="structEshelbianPlasticity_1_1OpDispBc.html" target="_top" xlink:title=" ">
<polygon fill="white" stroke="black" points="510,-147.5 510,-177.5 619,-177.5 619,-147.5 510,-147.5"/>
<text text-anchor="start" x="518" y="-165.5" font-family="Helvetica,sans-Serif" font-size="10.00">EshelbianPlasticity</text>
<text text-anchor="middle" x="564.5" y="-154.5" font-family="Helvetica,sans-Serif" font-size="10.00">::OpDispBc</text>
</a>
</g>
</g>
<!-- Node1527&#45;&gt;Node1528 -->
<g id="edge5" class="edge">
<title>Node1527&#45;&gt;Node1528</title>
<path fill="none" stroke="midnightblue" d="M454.79,-108.58C471.29,-118.01 491.48,-129.2 510,-138.5 516,-141.52 522.47,-144.57 528.76,-147.45"/>
<polygon fill="midnightblue" stroke="midnightblue" points="456.44,-105.5 446.03,-103.55 452.95,-111.57 456.44,-105.5"/>
</g>
<!-- Node1529 -->
<g id="node7" class="node">
<title>Node1529</title>
<g id="a_node7"><a xlink:href="structEshelbianPlasticity_1_1OpDispBc__dx.html" target="_top" xlink:title=" ">
<polygon fill="white" stroke="black" points="510,-98.5 510,-128.5 619,-128.5 619,-98.5 510,-98.5"/>
<text text-anchor="start" x="518" y="-116.5" font-family="Helvetica,sans-Serif" font-size="10.00">EshelbianPlasticity</text>
<text text-anchor="middle" x="564.5" y="-105.5" font-family="Helvetica,sans-Serif" font-size="10.00">::OpDispBc_dx</text>
</a>
</g>
</g>
<!-- Node1527&#45;&gt;Node1529 -->
<g id="edge6" class="edge">
<title>Node1527&#45;&gt;Node1529</title>
<path fill="none" stroke="midnightblue" d="M484.05,-99.61C492.56,-101.1 501.22,-102.61 509.54,-104.07"/>
<polygon fill="midnightblue" stroke="midnightblue" points="484.61,-96.15 474.15,-97.88 483.4,-103.05 484.61,-96.15"/>
</g>
<!-- Node1530 -->
<g id="node8" class="node">
<title>Node1530</title>
<g id="a_node8"><a xlink:href="structEshelbianPlasticity_1_1OpRotationBc.html" target="_top" xlink:title=" ">
<polygon fill="white" stroke="black" points="510,-49.5 510,-79.5 619,-79.5 619,-49.5 510,-49.5"/>
<text text-anchor="start" x="518" y="-67.5" font-family="Helvetica,sans-Serif" font-size="10.00">EshelbianPlasticity</text>
<text text-anchor="middle" x="564.5" y="-56.5" font-family="Helvetica,sans-Serif" font-size="10.00">::OpRotationBc</text>
</a>
</g>
</g>
<!-- Node1527&#45;&gt;Node1530 -->
<g id="edge7" class="edge">
<title>Node1527&#45;&gt;Node1530</title>
<path fill="none" stroke="midnightblue" d="M484.05,-77.83C492.56,-76.41 501.22,-74.95 509.54,-73.56"/>
<polygon fill="midnightblue" stroke="midnightblue" points="483.44,-74.39 474.15,-79.5 484.6,-81.29 483.44,-74.39"/>
</g>
<!-- Node1531 -->
<g id="node9" class="node">
<title>Node1531</title>
<g id="a_node9"><a xlink:href="structEshelbianPlasticity_1_1OpRotationBc__dx.html" target="_top" xlink:title=" ">
<polygon fill="white" stroke="black" points="510,-0.5 510,-30.5 619,-30.5 619,-0.5 510,-0.5"/>
<text text-anchor="start" x="518" y="-18.5" font-family="Helvetica,sans-Serif" font-size="10.00">EshelbianPlasticity</text>
<text text-anchor="middle" x="564.5" y="-7.5" font-family="Helvetica,sans-Serif" font-size="10.00">::OpRotationBc_dx</text>
</a>
</g>
</g>
<!-- Node1527&#45;&gt;Node1531 -->
<g id="edge8" class="edge">
<title>Node1527&#45;&gt;Node1531</title>
<path fill="none" stroke="midnightblue" d="M456.83,-68.43C473,-59.65 492.34,-49.35 510,-40.5 516.6,-37.19 523.72,-33.77 530.54,-30.55"/>
<polygon fill="midnightblue" stroke="midnightblue" points="454.82,-65.54 447.72,-73.4 458.17,-71.69 454.82,-65.54"/>
</g>
</g>
</svg>
