<?xml version="1.0" encoding="UTF-8" standalone="no"?>
<!DOCTYPE svg PUBLIC "-//W3C//DTD SVG 1.1//EN"
 "http://www.w3.org/Graphics/SVG/1.1/DTD/svg11.dtd">
<!-- Generated by graphviz version 2.43.0 (0)
 -->
<!-- Title: Graphical Class Hierarchy Pages: 1 -->
<svg width="507pt" height="38pt"
 viewBox="0.00 0.00 507.00 38.00" xmlns="http://www.w3.org/2000/svg" xmlns:xlink="http://www.w3.org/1999/xlink">
<g id="graph0" class="graph" transform="scale(1 1) rotate(0) translate(4 34)">
<title>Graphical Class Hierarchy</title>
<!-- Node0 -->
<g id="Node000000" class="node">
<title>Node0</title>
<g id="a_Node000000"><a xlink:href="classFormsIntegrators_3_01FaceUserDataOperator_01_4_1_1Assembly_3_01A_01_4_1_1OpBase.html" target="_top" xlink:title=" ">
<polygon fill="white" stroke="#666666" points="154,-30 0,-30 0,0 154,0 154,-30"/>
<text text-anchor="start" x="8" y="-18" font-family="Helvetica,sans-Serif" font-size="10.00">FormsIntegrators::Assembly</text>
<text text-anchor="middle" x="77" y="-7" font-family="Helvetica,sans-Serif" font-size="10.00">::OpBase</text>
</a>
</g>
</g>
<!-- Node1 -->
<g id="Node000001" class="node">
<title>Node1</title>
<g id="a_Node000001"><a xlink:href="structOpNormalDispBcLhsImpl__dU_3_01A_00_01GAUSS_01_4.html" target="_top" xlink:title=" ">
<polygon fill="white" stroke="#666666" points="328,-30 190,-30 190,0 328,0 328,-30"/>
<text text-anchor="start" x="198" y="-18" font-family="Helvetica,sans-Serif" font-size="10.00">OpNormalDispBcLhsImpl</text>
<text text-anchor="middle" x="259" y="-7" font-family="Helvetica,sans-Serif" font-size="10.00">_dU&lt; A, GAUSS &gt;</text>
</a>
</g>
</g>
<!-- Node0&#45;&gt;Node1 -->
<g id="edge131_Node000000_Node000001" class="edge">
<title>Node0&#45;&gt;Node1</title>
<g id="a_edge131_Node000000_Node000001"><a xlink:title=" ">
<path fill="none" stroke="#63b8ff" d="M164.17,-15C172.81,-15 181.5,-15 189.91,-15"/>
<polygon fill="#63b8ff" stroke="#63b8ff" points="164.08,-11.5 154.08,-15 164.08,-18.5 164.08,-11.5"/>
</a>
</g>
</g>
<!-- Node2 -->
<g id="Node000002" class="node">
<title>Node2</title>
<g id="a_Node000002"><a xlink:href="structOpNormalDispLhsBc__dU.html" target="_top" xlink:title=" ">
<polygon fill="white" stroke="#666666" points="499,-24.5 364,-24.5 364,-5.5 499,-5.5 499,-24.5"/>
<text text-anchor="middle" x="431.5" y="-12.5" font-family="Helvetica,sans-Serif" font-size="10.00">OpNormalDispLhsBc_dU</text>
</a>
</g>
</g>
<!-- Node1&#45;&gt;Node2 -->
<g id="edge132_Node000001_Node000002" class="edge">
<title>Node1&#45;&gt;Node2</title>
<g id="a_edge132_Node000001_Node000002"><a xlink:title=" ">
<path fill="none" stroke="#63b8ff" d="M338.58,-15C347,-15 355.51,-15 363.78,-15"/>
<polygon fill="#63b8ff" stroke="#63b8ff" points="338.37,-11.5 328.37,-15 338.37,-18.5 338.37,-11.5"/>
</a>
</g>
</g>
</g>
</svg>
