<?xml version="1.0" encoding="UTF-8" standalone="no"?>
<!DOCTYPE svg PUBLIC "-//W3C//DTD SVG 1.1//EN"
 "http://www.w3.org/Graphics/SVG/1.1/DTD/svg11.dtd">
<!-- Generated by graphviz version 2.43.0 (0)
 -->
<!-- Title: Graphical Class Hierarchy Pages: 1 -->
<svg width="283pt" height="64pt"
 viewBox="0.00 0.00 283.00 64.00" xmlns="http://www.w3.org/2000/svg" xmlns:xlink="http://www.w3.org/1999/xlink">
<g id="graph0" class="graph" transform="scale(1 1) rotate(0) translate(4 60)">
<title>Graphical Class Hierarchy</title>
<!-- Node0 -->
<g id="Node000000" class="node">
<title>Node0</title>
<g id="a_Node000000"><a xlink:href="structMethodForForceScaling.html" target="_top" xlink:title="Class used to scale loads, f.e. in arc&#45;length control.">
<polygon fill="white" stroke="#666666" points="130,-37 0,-37 0,-18 130,-18 130,-37"/>
<text text-anchor="middle" x="65" y="-25" font-family="Helvetica,sans-Serif" font-size="10.00">MethodForForceScaling</text>
</a>
</g>
</g>
<!-- Node1 -->
<g id="Node000001" class="node">
<title>Node1</title>
<g id="a_Node000001"><a xlink:href="structTimeAccelerogram.html" target="_top" xlink:title=" ">
<polygon fill="white" stroke="#666666" points="275,-56 166,-56 166,-37 275,-37 275,-56"/>
<text text-anchor="middle" x="220.5" y="-44" font-family="Helvetica,sans-Serif" font-size="10.00">TimeAccelerogram</text>
</a>
</g>
</g>
<!-- Node0&#45;&gt;Node1 -->
<g id="edge179_Node000000_Node000001" class="edge">
<title>Node0&#45;&gt;Node1</title>
<g id="a_edge179_Node000000_Node000001"><a xlink:title=" ">
<path fill="none" stroke="#63b8ff" d="M140.26,-36.69C148.86,-37.76 157.51,-38.83 165.76,-39.85"/>
<polygon fill="#63b8ff" stroke="#63b8ff" points="140.56,-33.2 130.21,-35.45 139.7,-40.15 140.56,-33.2"/>
</a>
</g>
</g>
<!-- Node2 -->
<g id="Node000002" class="node">
<title>Node2</title>
<g id="a_Node000002"><a xlink:href="structTimeForceScale.html" target="_top" xlink:title="Force scale operator for reading two columns.">
<polygon fill="white" stroke="#666666" points="267.5,-19 173.5,-19 173.5,0 267.5,0 267.5,-19"/>
<text text-anchor="middle" x="220.5" y="-7" font-family="Helvetica,sans-Serif" font-size="10.00">TimeForceScale</text>
</a>
</g>
</g>
<!-- Node0&#45;&gt;Node2 -->
<g id="edge180_Node000000_Node000002" class="edge">
<title>Node0&#45;&gt;Node2</title>
<g id="a_edge180_Node000000_Node000002"><a xlink:title=" ">
<path fill="none" stroke="#63b8ff" d="M140.45,-18.77C151.65,-17.46 162.91,-16.14 173.29,-14.92"/>
<polygon fill="#63b8ff" stroke="#63b8ff" points="139.73,-15.33 130.21,-19.97 140.55,-22.28 139.73,-15.33"/>
</a>
</g>
</g>
</g>
</svg>
