<?xml version="1.0" encoding="UTF-8" standalone="no"?>
<!DOCTYPE svg PUBLIC "-//W3C//DTD SVG 1.1//EN"
 "http://www.w3.org/Graphics/SVG/1.1/DTD/svg11.dtd">
<!-- Generated by graphviz version 9.0.0 (20230911.1827)
 -->
<!-- Title: Graphical Class Hierarchy Pages: 1 -->
<svg width="412pt" height="137pt"
 viewBox="0.00 0.00 412.30 136.50" xmlns="http://www.w3.org/2000/svg" xmlns:xlink="http://www.w3.org/1999/xlink">
<g id="graph0" class="graph" transform="scale(1 1) rotate(0) translate(4 132.5)">
<title>Graphical Class Hierarchy</title>
<!-- Node0 -->
<g id="node1" class="node">
<title>Node0</title>
<g id="a_node1"><a xlink:href="class_e.html" target="_top" xlink:title=" ">
<polygon fill="white" stroke="#666666" points="28.8,-73.88 0,-73.88 0,-54.62 28.8,-54.62 28.8,-73.88"/>
<text text-anchor="middle" x="14.4" y="-60.38" font-family="Helvetica,sans-Serif" font-size="10.00">E</text>
</a>
</g>
</g>
<!-- Node1 -->
<g id="node2" class="node">
<title>Node1</title>
<g id="a_node2"><a xlink:href="struct_mo_f_e_m_1_1_post_proc_broken_mesh_in_moab_base.html" target="_top" xlink:title=" ">
<polygon fill="white" stroke="#666666" points="216.55,-79.5 64.8,-79.5 64.8,-49 216.55,-49 216.55,-79.5"/>
<text text-anchor="start" x="72.8" y="-66" font-family="Helvetica,sans-Serif" font-size="10.00">MoFEM::PostProcBrokenMesh</text>
<text text-anchor="middle" x="140.67" y="-54.75" font-family="Helvetica,sans-Serif" font-size="10.00">InMoabBase&lt; E &gt;</text>
</a>
</g>
</g>
<!-- Node0&#45;&gt;Node1 -->
<g id="edge1" class="edge">
<title>Node0&#45;&gt;Node1</title>
<path fill="none" stroke="#63b8ff" d="M40.44,-64.25C47.59,-64.25 55.77,-64.25 64.3,-64.25"/>
<polygon fill="#63b8ff" stroke="#63b8ff" points="40.69,-60.75 30.69,-64.25 40.69,-67.75 40.69,-60.75"/>
</g>
<!-- Node2 -->
<g id="node3" class="node">
<title>Node2</title>
<g id="a_node3"><a xlink:href="struct_mo_f_e_m_1_1_post_proc_broken_mesh_in_moab_base_begin_impl.html" target="_top" xlink:title=" ">
<polygon fill="white" stroke="#666666" points="404.3,-128.5 252.55,-128.5 252.55,-98 404.3,-98 404.3,-128.5"/>
<text text-anchor="start" x="260.55" y="-115" font-family="Helvetica,sans-Serif" font-size="10.00">MoFEM::PostProcBrokenMesh</text>
<text text-anchor="middle" x="328.42" y="-103.75" font-family="Helvetica,sans-Serif" font-size="10.00">InMoabBaseBeginImpl&lt; E &gt;</text>
</a>
</g>
</g>
<!-- Node1&#45;&gt;Node2 -->
<g id="edge2" class="edge">
<title>Node1&#45;&gt;Node2</title>
<path fill="none" stroke="darkgreen" d="M212.17,-82.84C230.54,-87.69 250.16,-92.87 267.9,-97.55"/>
<polygon fill="darkgreen" stroke="darkgreen" points="213.24,-79.51 202.68,-80.34 211.45,-86.28 213.24,-79.51"/>
</g>
<!-- Node3 -->
<g id="node4" class="node">
<title>Node3</title>
<g id="a_node4"><a xlink:href="struct_mo_f_e_m_1_1_post_proc_broken_mesh_in_moab_base_cont_impl.html" target="_top" xlink:title=" ">
<polygon fill="white" stroke="#666666" points="404.3,-79.5 252.55,-79.5 252.55,-49 404.3,-49 404.3,-79.5"/>
<text text-anchor="start" x="260.55" y="-66" font-family="Helvetica,sans-Serif" font-size="10.00">MoFEM::PostProcBrokenMesh</text>
<text text-anchor="middle" x="328.42" y="-54.75" font-family="Helvetica,sans-Serif" font-size="10.00">InMoabBaseContImpl&lt; E &gt;</text>
</a>
</g>
</g>
<!-- Node1&#45;&gt;Node3 -->
<g id="edge3" class="edge">
<title>Node1&#45;&gt;Node3</title>
<path fill="none" stroke="#63b8ff" d="M228.26,-64.25C236.3,-64.25 244.41,-64.25 252.34,-64.25"/>
<polygon fill="#63b8ff" stroke="#63b8ff" points="228.47,-60.75 218.47,-64.25 228.47,-67.75 228.47,-60.75"/>
</g>
<!-- Node4 -->
<g id="node5" class="node">
<title>Node4</title>
<g id="a_node5"><a xlink:href="struct_mo_f_e_m_1_1_post_proc_broken_mesh_in_moab_base_end_impl.html" target="_top" xlink:title=" ">
<polygon fill="white" stroke="#666666" points="404.3,-30.5 252.55,-30.5 252.55,0 404.3,0 404.3,-30.5"/>
<text text-anchor="start" x="260.55" y="-17" font-family="Helvetica,sans-Serif" font-size="10.00">MoFEM::PostProcBrokenMesh</text>
<text text-anchor="middle" x="328.42" y="-5.75" font-family="Helvetica,sans-Serif" font-size="10.00">InMoabBaseEndImpl&lt; E &gt;</text>
</a>
</g>
</g>
<!-- Node1&#45;&gt;Node4 -->
<g id="edge4" class="edge">
<title>Node1&#45;&gt;Node4</title>
<path fill="none" stroke="darkgreen" d="M212.17,-45.66C230.54,-40.81 250.16,-35.63 267.9,-30.95"/>
<polygon fill="darkgreen" stroke="darkgreen" points="211.45,-42.22 202.68,-48.16 213.24,-48.99 211.45,-42.22"/>
</g>
</g>
</svg>
