<?xml version="1.0" encoding="UTF-8" standalone="no"?>
<!DOCTYPE svg PUBLIC "-//W3C//DTD SVG 1.1//EN"
 "http://www.w3.org/Graphics/SVG/1.1/DTD/svg11.dtd">
<!-- Generated by graphviz version 2.43.0 (0)
 -->
<!-- Title: Graphical Class Hierarchy Pages: 1 -->
<svg width="342pt" height="137pt"
 viewBox="0.00 0.00 342.00 137.00" xmlns="http://www.w3.org/2000/svg" xmlns:xlink="http://www.w3.org/1999/xlink">
<g id="graph0" class="graph" transform="scale(1 1) rotate(0) translate(4 133)">
<title>Graphical Class Hierarchy</title>
<polygon fill="white" stroke="transparent" points="-4,4 -4,-133 338,-133 338,4 -4,4"/>
<!-- Node0 -->
<g id="node1" class="node">
<title>Node0</title>
<g id="a_node1"><a xlink:href="structEshelbianPlasticity_1_1PhysicalEquations.html" target="_top" xlink:title=" ">
<polygon fill="white" stroke="black" points="0,-49.5 0,-79.5 111,-79.5 111,-49.5 0,-49.5"/>
<text text-anchor="start" x="8" y="-67.5" font-family="Helvetica,sans-Serif" font-size="10.00">EshelbianPlasticity</text>
<text text-anchor="middle" x="55.5" y="-56.5" font-family="Helvetica,sans-Serif" font-size="10.00">::PhysicalEquations</text>
</a>
</g>
</g>
<!-- Node1 -->
<g id="node2" class="node">
<title>Node1</title>
<g id="a_node2"><a xlink:href="structEshelbianPlasticity_1_1HMHHencky.html" target="_top" xlink:title=" ">
<polygon fill="white" stroke="black" points="186,-98.5 186,-128.5 295,-128.5 295,-98.5 186,-98.5"/>
<text text-anchor="start" x="194" y="-116.5" font-family="Helvetica,sans-Serif" font-size="10.00">EshelbianPlasticity</text>
<text text-anchor="middle" x="240.5" y="-105.5" font-family="Helvetica,sans-Serif" font-size="10.00">::HMHHencky</text>
</a>
</g>
</g>
<!-- Node0&#45;&gt;Node1 -->
<g id="edge1" class="edge">
<title>Node0&#45;&gt;Node1</title>
<path fill="none" stroke="midnightblue" d="M120.21,-82.23C129.2,-84.7 138.33,-87.18 147,-89.5 159.5,-92.85 172.97,-96.38 185.66,-99.68"/>
<polygon fill="midnightblue" stroke="midnightblue" points="121.11,-78.85 110.54,-79.58 119.25,-85.6 121.11,-78.85"/>
</g>
<!-- Node2 -->
<g id="node3" class="node">
<title>Node2</title>
<g id="a_node3"><a xlink:href="structEshelbianPlasticity_1_1HMHPMooneyRivlinWriggersEq63.html" target="_top" xlink:title=" ">
<polygon fill="white" stroke="black" points="147,-49.5 147,-79.5 334,-79.5 334,-49.5 147,-49.5"/>
<text text-anchor="start" x="155" y="-67.5" font-family="Helvetica,sans-Serif" font-size="10.00">EshelbianPlasticity</text>
<text text-anchor="middle" x="240.5" y="-56.5" font-family="Helvetica,sans-Serif" font-size="10.00">::HMHPMooneyRivlinWriggersEq63</text>
</a>
</g>
</g>
<!-- Node0&#45;&gt;Node2 -->
<g id="edge2" class="edge">
<title>Node0&#45;&gt;Node2</title>
<path fill="none" stroke="midnightblue" d="M121.65,-64.5C129.89,-64.5 138.44,-64.5 147,-64.5"/>
<polygon fill="midnightblue" stroke="midnightblue" points="121.41,-61 111.41,-64.5 121.41,-68 121.41,-61"/>
</g>
<!-- Node3 -->
<g id="node4" class="node">
<title>Node3</title>
<g id="a_node4"><a xlink:href="structEshelbianPlasticity_1_1HMHStVenantKirchhoff.html" target="_top" xlink:title=" ">
<polygon fill="white" stroke="black" points="173.5,-0.5 173.5,-30.5 307.5,-30.5 307.5,-0.5 173.5,-0.5"/>
<text text-anchor="start" x="181.5" y="-18.5" font-family="Helvetica,sans-Serif" font-size="10.00">EshelbianPlasticity</text>
<text text-anchor="middle" x="240.5" y="-7.5" font-family="Helvetica,sans-Serif" font-size="10.00">::HMHStVenantKirchhoff</text>
</a>
</g>
</g>
<!-- Node0&#45;&gt;Node3 -->
<g id="edge3" class="edge">
<title>Node0&#45;&gt;Node3</title>
<path fill="none" stroke="midnightblue" d="M121.19,-47.18C141.49,-41.74 163.71,-35.79 183.37,-30.53"/>
<polygon fill="midnightblue" stroke="midnightblue" points="120.16,-43.83 111.41,-49.8 121.97,-50.59 120.16,-43.83"/>
</g>
</g>
</svg>
