<?xml version="1.0" encoding="UTF-8" standalone="no"?>
<!DOCTYPE svg PUBLIC "-//W3C//DTD SVG 1.1//EN"
 "http://www.w3.org/Graphics/SVG/1.1/DTD/svg11.dtd">
<!-- Generated by graphviz version 2.43.0 (0)
 -->
<!-- Title: Graphical Class Hierarchy Pages: 1 -->
<svg width="334pt" height="186pt"
 viewBox="0.00 0.00 334.00 186.00" xmlns="http://www.w3.org/2000/svg" xmlns:xlink="http://www.w3.org/1999/xlink">
<g id="graph0" class="graph" transform="scale(1 1) rotate(0) translate(4 182)">
<title>Graphical Class Hierarchy</title>
<polygon fill="white" stroke="transparent" points="-4,4 -4,-182 330,-182 330,4 -4,4"/>
<!-- Node0 -->
<g id="node1" class="node">
<title>Node0</title>
<g id="a_node1"><a xlink:href="classAssemblyBoundaryEleOp.html" target="_top" xlink:title=" ">
<polygon fill="white" stroke="black" points="0,-79 0,-98 140,-98 140,-79 0,-79"/>
<text text-anchor="middle" x="70" y="-86" font-family="Helvetica,sans-Serif" font-size="10.00">AssemblyBoundaryEleOp</text>
</a>
</g>
</g>
<!-- Node1 -->
<g id="node2" class="node">
<title>Node1</title>
<g id="a_node2"><a xlink:href="structFreeSurfaceOps_1_1OpNormalConstrainLhs.html" target="_top" xlink:title=" ">
<polygon fill="white" stroke="black" points="176.5,-147.5 176.5,-177.5 325.5,-177.5 325.5,-147.5 176.5,-147.5"/>
<text text-anchor="start" x="184.5" y="-165.5" font-family="Helvetica,sans-Serif" font-size="10.00">FreeSurfaceOps::OpNormal</text>
<text text-anchor="middle" x="251" y="-154.5" font-family="Helvetica,sans-Serif" font-size="10.00">ConstrainLhs</text>
</a>
</g>
</g>
<!-- Node0&#45;&gt;Node1 -->
<g id="edge1" class="edge">
<title>Node0&#45;&gt;Node1</title>
<path fill="none" stroke="midnightblue" d="M98.22,-102.67C119.16,-113.28 149,-127.75 176,-138.5 183.78,-141.6 192.13,-144.6 200.32,-147.38"/>
<polygon fill="midnightblue" stroke="midnightblue" points="99.76,-99.53 89.26,-98.1 96.58,-105.76 99.76,-99.53"/>
</g>
<!-- Node2 -->
<g id="node3" class="node">
<title>Node2</title>
<g id="a_node3"><a xlink:href="structFreeSurfaceOps_1_1OpNormalConstrainRhs.html" target="_top" xlink:title=" ">
<polygon fill="white" stroke="black" points="176.5,-98.5 176.5,-128.5 325.5,-128.5 325.5,-98.5 176.5,-98.5"/>
<text text-anchor="start" x="184.5" y="-116.5" font-family="Helvetica,sans-Serif" font-size="10.00">FreeSurfaceOps::OpNormal</text>
<text text-anchor="middle" x="251" y="-105.5" font-family="Helvetica,sans-Serif" font-size="10.00">ConstrainRhs</text>
</a>
</g>
</g>
<!-- Node0&#45;&gt;Node2 -->
<g id="edge2" class="edge">
<title>Node0&#45;&gt;Node2</title>
<path fill="none" stroke="midnightblue" d="M149.26,-99.43C158.25,-100.69 167.41,-101.96 176.34,-103.21"/>
<polygon fill="midnightblue" stroke="midnightblue" points="149.57,-95.94 139.18,-98.02 148.6,-102.87 149.57,-95.94"/>
</g>
<!-- Node3 -->
<g id="node4" class="node">
<title>Node3</title>
<g id="a_node4"><a xlink:href="structFreeSurfaceOps_1_1OpNormalForceRhs.html" target="_top" xlink:title=" ">
<polygon fill="white" stroke="black" points="176.5,-49.5 176.5,-79.5 325.5,-79.5 325.5,-49.5 176.5,-49.5"/>
<text text-anchor="start" x="184.5" y="-67.5" font-family="Helvetica,sans-Serif" font-size="10.00">FreeSurfaceOps::OpNormal</text>
<text text-anchor="middle" x="251" y="-56.5" font-family="Helvetica,sans-Serif" font-size="10.00">ForceRhs</text>
</a>
</g>
</g>
<!-- Node0&#45;&gt;Node3 -->
<g id="edge3" class="edge">
<title>Node0&#45;&gt;Node3</title>
<path fill="none" stroke="midnightblue" d="M150.27,-77.87C158.9,-76.71 167.67,-75.54 176.23,-74.39"/>
<polygon fill="midnightblue" stroke="midnightblue" points="149.65,-74.42 140.21,-79.22 150.58,-81.36 149.65,-74.42"/>
</g>
<!-- Node4 -->
<g id="node5" class="node">
<title>Node4</title>
<g id="a_node5"><a xlink:href="structFreeSurfaceOps_1_1OpWettingAngleRhs.html" target="_top" xlink:title=" ">
<polygon fill="white" stroke="black" points="176,-0.5 176,-30.5 326,-30.5 326,-0.5 176,-0.5"/>
<text text-anchor="start" x="184" y="-18.5" font-family="Helvetica,sans-Serif" font-size="10.00">FreeSurfaceOps::OpWetting</text>
<text text-anchor="middle" x="251" y="-7.5" font-family="Helvetica,sans-Serif" font-size="10.00">AngleRhs</text>
</a>
</g>
</g>
<!-- Node0&#45;&gt;Node4 -->
<g id="edge4" class="edge">
<title>Node0&#45;&gt;Node4</title>
<path fill="none" stroke="midnightblue" d="M99.75,-74.39C120.66,-64.36 149.78,-50.89 176,-40.5 184.7,-37.05 194.08,-33.65 203.15,-30.51"/>
<polygon fill="midnightblue" stroke="midnightblue" points="97.96,-71.36 90.48,-78.86 101.01,-77.67 97.96,-71.36"/>
</g>
</g>
</svg>
