<?xml version="1.0" encoding="UTF-8" standalone="no"?>
<!DOCTYPE svg PUBLIC "-//W3C//DTD SVG 1.1//EN"
 "http://www.w3.org/Graphics/SVG/1.1/DTD/svg11.dtd">
<!-- Generated by graphviz version 9.0.0 (20230911.1827)
 -->
<!-- Title: Graphical Class Hierarchy Pages: 1 -->
<svg width="302pt" height="137pt"
 viewBox="0.00 0.00 301.75 136.50" xmlns="http://www.w3.org/2000/svg" xmlns:xlink="http://www.w3.org/1999/xlink">
<g id="graph0" class="graph" transform="scale(1 1) rotate(0) translate(4 132.5)">
<title>Graphical Class Hierarchy</title>
<!-- Node0 -->
<g id="node1" class="node">
<title>Node0</title>
<g id="a_node1"><a xlink:href="struct_fracture_mechanics_1_1_analytical_options.html" target="_top" xlink:title=" ">
<polygon fill="white" stroke="#666666" points="120.62,-115.5 15.38,-115.5 15.38,-85 120.62,-85 120.62,-115.5"/>
<text text-anchor="start" x="23.38" y="-102" font-family="Helvetica,sans-Serif" font-size="10.00">FractureMechanics::</text>
<text text-anchor="middle" x="68" y="-90.75" font-family="Helvetica,sans-Serif" font-size="10.00">AnalyticalOptions</text>
</a>
</g>
</g>
<!-- Node1 -->
<g id="node2" class="node">
<title>Node1</title>
<g id="a_node2"><a xlink:href="struct_fracture_mechanics_1_1_analytical_disp.html" target="_top" xlink:title=" ">
<polygon fill="white" stroke="#666666" points="285.5,-128.5 180.25,-128.5 180.25,-98 285.5,-98 285.5,-128.5"/>
<text text-anchor="start" x="188.25" y="-115" font-family="Helvetica,sans-Serif" font-size="10.00">FractureMechanics::</text>
<text text-anchor="middle" x="232.88" y="-103.75" font-family="Helvetica,sans-Serif" font-size="10.00">AnalyticalDisp</text>
</a>
</g>
</g>
<!-- Node0&#45;&gt;Node1 -->
<g id="edge1" class="edge">
<title>Node0&#45;&gt;Node1</title>
<path fill="none" stroke="#63b8ff" d="M132.24,-105.3C147.99,-106.55 164.69,-107.89 179.83,-109.1"/>
<polygon fill="#63b8ff" stroke="#63b8ff" points="132.74,-101.83 122.49,-104.52 132.18,-108.8 132.74,-101.83"/>
</g>
<!-- Node2 -->
<g id="node3" class="node">
<title>Node2</title>
<g id="a_node3"><a xlink:href="struct_fracture_mechanics_1_1_analytical_forces.html" target="_top" xlink:title=" ">
<polygon fill="white" stroke="#666666" points="285.5,-79.5 180.25,-79.5 180.25,-49 285.5,-49 285.5,-79.5"/>
<text text-anchor="start" x="188.25" y="-66" font-family="Helvetica,sans-Serif" font-size="10.00">FractureMechanics::</text>
<text text-anchor="middle" x="232.88" y="-54.75" font-family="Helvetica,sans-Serif" font-size="10.00">AnalyticalForces</text>
</a>
</g>
</g>
<!-- Node0&#45;&gt;Node2 -->
<g id="edge2" class="edge">
<title>Node0&#45;&gt;Node2</title>
<path fill="none" stroke="#63b8ff" d="M131.78,-86.37C147.66,-82.86 164.54,-79.13 179.83,-75.75"/>
<polygon fill="#63b8ff" stroke="#63b8ff" points="131.47,-82.86 122.46,-88.43 132.98,-89.69 131.47,-82.86"/>
</g>
<!-- Node3 -->
<g id="node4" class="node">
<title>Node3</title>
<g id="a_node4"><a xlink:href="struct_neumann_forces_surface_1_1_method_for_analytical_force.html" target="_top" xlink:title="Analytical force method.">
<polygon fill="white" stroke="#666666" points="136,-54.5 0,-54.5 0,-24 136,-24 136,-54.5"/>
<text text-anchor="start" x="8" y="-41" font-family="Helvetica,sans-Serif" font-size="10.00">NeumannForcesSurface</text>
<text text-anchor="middle" x="68" y="-29.75" font-family="Helvetica,sans-Serif" font-size="10.00">::MethodForAnalyticalForce</text>
</a>
</g>
</g>
<!-- Node3&#45;&gt;Node2 -->
<g id="edge3" class="edge">
<title>Node3&#45;&gt;Node2</title>
<path fill="none" stroke="#63b8ff" d="M147.53,-51.3C158.47,-52.98 169.48,-54.67 179.77,-56.25"/>
<polygon fill="#63b8ff" stroke="#63b8ff" points="148.1,-47.85 137.68,-49.79 147.04,-54.77 148.1,-47.85"/>
</g>
<!-- Node4 -->
<g id="node5" class="node">
<title>Node4</title>
<g id="a_node5"><a xlink:href="struct_neumann_forces_surface_1_1_linear_varing_presssure.html" target="_top" xlink:title=" ">
<polygon fill="white" stroke="#666666" points="293.75,-30.5 172,-30.5 172,0 293.75,0 293.75,-30.5"/>
<text text-anchor="start" x="180" y="-17" font-family="Helvetica,sans-Serif" font-size="10.00">NeumannForcesSurface</text>
<text text-anchor="middle" x="232.88" y="-5.75" font-family="Helvetica,sans-Serif" font-size="10.00">::LinearVaringPresssure</text>
</a>
</g>
</g>
<!-- Node3&#45;&gt;Node4 -->
<g id="edge4" class="edge">
<title>Node3&#45;&gt;Node4</title>
<path fill="none" stroke="#63b8ff" d="M147.56,-27.67C155.65,-26.48 163.78,-25.28 171.62,-24.13"/>
<polygon fill="#63b8ff" stroke="#63b8ff" points="147.07,-24.21 137.69,-29.13 148.09,-31.13 147.07,-24.21"/>
</g>
</g>
</svg>
