<?xml version="1.0" encoding="UTF-8" standalone="no"?>
<!DOCTYPE svg PUBLIC "-//W3C//DTD SVG 1.1//EN"
 "http://www.w3.org/Graphics/SVG/1.1/DTD/svg11.dtd">
<!-- Generated by graphviz version 10.0.1 (20240210.2158)
 -->
<!-- Title: Graphical Class Hierarchy Pages: 1 -->
<svg width="742pt" height="121pt"
 viewBox="0.00 0.00 742.25 121.00" xmlns="http://www.w3.org/2000/svg" xmlns:xlink="http://www.w3.org/1999/xlink">
<g id="graph0" class="graph" transform="scale(1 1) rotate(0) translate(4 117)">
<title>Graphical Class Hierarchy</title>
<!-- Node0 -->
<g id="Node000000" class="node">
<title>Node0</title>
<g id="a_Node000000"><a xlink:title=" ">
<polygon fill="#e0e0e0" stroke="#999999" points="168.25,-71.75 0,-71.75 0,-41.25 168.25,-41.25 168.25,-71.75"/>
<text text-anchor="start" x="8" y="-58.25" font-family="Helvetica,sans-Serif" font-size="10.00">VolumeElementForcesAndSources</text>
<text text-anchor="middle" x="84.12" y="-47" font-family="Helvetica,sans-Serif" font-size="10.00">CoreOnSide</text>
</a>
</g>
</g>
<!-- Node1 -->
<g id="Node000001" class="node">
<title>Node1</title>
<g id="a_Node000001"><a xlink:href="struct_fracture_mechanics_1_1_crack_front_singular_base.html" target="_top" xlink:title=" ">
<polygon fill="white" stroke="#666666" points="461.75,-113 204.25,-113 204.25,-60 461.75,-60 461.75,-113"/>
<text text-anchor="start" x="212.25" y="-99.5" font-family="Helvetica,sans-Serif" font-size="10.00">FractureMechanics::</text>
<text text-anchor="start" x="212.25" y="-88.25" font-family="Helvetica,sans-Serif" font-size="10.00">CrackFrontSingularBase</text>
<text text-anchor="start" x="212.25" y="-77" font-family="Helvetica,sans-Serif" font-size="10.00">&lt; VolumeElementForcesAndSources</text>
<text text-anchor="middle" x="333" y="-65.75" font-family="Helvetica,sans-Serif" font-size="10.00">CoreOnSide, VolumeElementForcesAndSourcesCore &gt;</text>
</a>
</g>
</g>
<!-- Node0&#45;&gt;Node1 -->
<g id="edge1314_Node000000_Node000001" class="edge">
<title>Node0&#45;&gt;Node1</title>
<g id="a_edge1314_Node000000_Node000001"><a xlink:title=" ">
<path fill="none" stroke="#63b8ff" d="M180.01,-68.03C187.81,-68.98 195.77,-69.95 203.76,-70.92"/>
<polygon fill="#63b8ff" stroke="#63b8ff" points="180.56,-64.57 170.21,-66.84 179.71,-71.52 180.56,-64.57"/>
</a>
</g>
</g>
<!-- Node2 -->
<g id="Node000002" class="node">
<title>Node2</title>
<g id="a_Node000002"><a xlink:href="struct_fracture_mechanics_1_1_firend_volume_on_side.html" target="_top" xlink:title=" ">
<polygon fill="white" stroke="#666666" points="387.12,-41.75 278.88,-41.75 278.88,-11.25 387.12,-11.25 387.12,-41.75"/>
<text text-anchor="start" x="286.88" y="-28.25" font-family="Helvetica,sans-Serif" font-size="10.00">FractureMechanics::</text>
<text text-anchor="middle" x="333" y="-17" font-family="Helvetica,sans-Serif" font-size="10.00">FirendVolumeOnSide</text>
</a>
</g>
</g>
<!-- Node0&#45;&gt;Node2 -->
<g id="edge1315_Node000000_Node000002" class="edge">
<title>Node0&#45;&gt;Node2</title>
<g id="a_edge1315_Node000000_Node000002"><a xlink:title=" ">
<path fill="none" stroke="#63b8ff" d="M179.93,-44.98C213.42,-40.91 249.87,-36.48 278.7,-32.98"/>
<polygon fill="#63b8ff" stroke="#63b8ff" points="179.71,-41.48 170.21,-46.16 180.56,-48.43 179.71,-41.48"/>
</a>
</g>
</g>
<!-- Node3 -->
<g id="Node000003" class="node">
<title>Node3</title>
<g id="a_Node000003"><a xlink:href="struct_fracture_mechanics_1_1_crack_front_singular_base.html" target="_top" xlink:title=" ">
<polygon fill="white" stroke="#666666" points="734.25,-53 497.75,-53 497.75,0 734.25,0 734.25,-53"/>
<text text-anchor="start" x="505.75" y="-39.5" font-family="Helvetica,sans-Serif" font-size="10.00">FractureMechanics::</text>
<text text-anchor="start" x="505.75" y="-28.25" font-family="Helvetica,sans-Serif" font-size="10.00">CrackFrontSingularBase</text>
<text text-anchor="start" x="505.75" y="-17" font-family="Helvetica,sans-Serif" font-size="10.00">&lt; FractureMechanics::FirendVolume</text>
<text text-anchor="middle" x="616" y="-5.75" font-family="Helvetica,sans-Serif" font-size="10.00">OnSide, VolumeElementForcesAndSourcesCore &gt;</text>
</a>
</g>
</g>
<!-- Node2&#45;&gt;Node3 -->
<g id="edge1316_Node000002_Node000003" class="edge">
<title>Node2&#45;&gt;Node3</title>
<g id="a_edge1316_Node000002_Node000003"><a xlink:title=" ">
<path fill="none" stroke="#63b8ff" d="M398.83,-26.5C428.11,-26.5 463.65,-26.5 497.38,-26.5"/>
<polygon fill="#63b8ff" stroke="#63b8ff" points="399.03,-23 389.03,-26.5 399.03,-30 399.03,-23"/>
</a>
</g>
</g>
</g>
</svg>
