<?xml version="1.0" encoding="UTF-8" standalone="no"?>
<!DOCTYPE svg PUBLIC "-//W3C//DTD SVG 1.1//EN"
 "http://www.w3.org/Graphics/SVG/1.1/DTD/svg11.dtd">
<!-- Generated by graphviz version 12.1.0 (0)
 -->
<!-- Title: Graphical Class Hierarchy Pages: 1 -->
<svg width="395pt" height="530pt"
 viewBox="0.00 0.00 394.68 530.00" xmlns="http://www.w3.org/2000/svg" xmlns:xlink="http://www.w3.org/1999/xlink">
<g id="graph0" class="graph" transform="scale(1 1) rotate(0) translate(4 526)">
<title>Graphical Class Hierarchy</title>
<!-- Node0 -->
<g id="Node000000" class="node">
<title>Node0</title>
<g id="a_Node000000"><a xlink:title=" ">
<polygon fill="#e0e0e0" stroke="#999999" points="179.41,-265 0,-265 0,-237 179.41,-237 179.41,-265"/>
<text text-anchor="start" x="8" y="-253" font-family="Helvetica,sans-Serif" font-size="10.00">ContactPrismElementForces</text>
<text text-anchor="middle" x="89.7" y="-243" font-family="Helvetica,sans-Serif" font-size="10.00">AndSourcesCore::UserDataOperator</text>
</a>
</g>
</g>
<!-- Node1 -->
<g id="Node000001" class="node">
<title>Node1</title>
<g id="a_Node000001"><a xlink:href="struct_simple_contact_problem_1_1_op_cal_augmented_traction_rhs_master.html" target="_top" xlink:title="RHS&#45;operator for the simple contact element.">
<polygon fill="white" stroke="#666666" points="378.34,-522 223.75,-522 223.75,-484 378.34,-484 378.34,-522"/>
<text text-anchor="start" x="231.75" y="-510" font-family="Helvetica,sans-Serif" font-size="10.00">SimpleContactProblem</text>
<text text-anchor="start" x="231.75" y="-500" font-family="Helvetica,sans-Serif" font-size="10.00">::OpCalAugmentedTractionRhs</text>
<text text-anchor="middle" x="301.04" y="-490" font-family="Helvetica,sans-Serif" font-size="10.00">Master</text>
</a>
</g>
</g>
<!-- Node0&#45;&gt;Node1 -->
<g id="edge130_Node000000_Node000001" class="edge">
<title>Node0&#45;&gt;Node1</title>
<g id="a_edge130_Node000000_Node000001"><a xlink:title=" ">
<path fill="none" stroke="#63b8ff" d="M97.99,-276.26C112.59,-322.44 149.79,-420.71 215.41,-475 219.34,-478.26 223.67,-481.14 228.22,-483.69"/>
<polygon fill="#63b8ff" stroke="#63b8ff" points="101.4,-275.44 95.13,-266.9 94.71,-277.48 101.4,-275.44"/>
</a>
</g>
</g>
<!-- Node2 -->
<g id="Node000002" class="node">
<title>Node2</title>
<g id="a_Node000002"><a xlink:href="struct_simple_contact_problem_1_1_op_cal_augmented_traction_rhs_slave.html" target="_top" xlink:title="RHS&#45;operator for the simple contact element.">
<polygon fill="white" stroke="#666666" points="378.34,-466 223.75,-466 223.75,-428 378.34,-428 378.34,-466"/>
<text text-anchor="start" x="231.75" y="-454" font-family="Helvetica,sans-Serif" font-size="10.00">SimpleContactProblem</text>
<text text-anchor="start" x="231.75" y="-444" font-family="Helvetica,sans-Serif" font-size="10.00">::OpCalAugmentedTractionRhs</text>
<text text-anchor="middle" x="301.04" y="-434" font-family="Helvetica,sans-Serif" font-size="10.00">Slave</text>
</a>
</g>
</g>
<!-- Node0&#45;&gt;Node2 -->
<g id="edge131_Node000000_Node000002" class="edge">
<title>Node0&#45;&gt;Node2</title>
<g id="a_edge131_Node000000_Node000002"><a xlink:title=" ">
<path fill="none" stroke="#63b8ff" d="M102.74,-275.74C121.74,-312.26 162.05,-380.43 215.41,-419 219.8,-422.17 224.57,-425 229.54,-427.52"/>
<polygon fill="#63b8ff" stroke="#63b8ff" points="105.87,-274.17 98.23,-266.84 99.63,-277.34 105.87,-274.17"/>
</a>
</g>
</g>
<!-- Node3 -->
<g id="Node000003" class="node">
<title>Node3</title>
<g id="a_Node000003"><a xlink:href="struct_simple_contact_problem_1_1_op_cal_contact_augmented_traction_over_lambda_master_slave.html" target="_top" xlink:title="LHS&#45;operator for the simple contact element with Augmented Lagrangian Method.">
<polygon fill="white" stroke="#666666" points="386.68,-410 215.41,-410 215.41,-372 386.68,-372 386.68,-410"/>
<text text-anchor="start" x="223.41" y="-398" font-family="Helvetica,sans-Serif" font-size="10.00">SimpleContactProblem</text>
<text text-anchor="start" x="223.41" y="-388" font-family="Helvetica,sans-Serif" font-size="10.00">::OpCalContactAugmentedTraction</text>
<text text-anchor="middle" x="301.04" y="-378" font-family="Helvetica,sans-Serif" font-size="10.00">OverLambdaMasterSlave</text>
</a>
</g>
</g>
<!-- Node0&#45;&gt;Node3 -->
<g id="edge132_Node000000_Node000003" class="edge">
<title>Node0&#45;&gt;Node3</title>
<g id="a_edge132_Node000000_Node000003"><a xlink:title=" ">
<path fill="none" stroke="#63b8ff" d="M110.76,-273.96C133.76,-299.03 173.71,-338.81 215.41,-363 220.9,-366.18 226.8,-369.07 232.84,-371.66"/>
<polygon fill="#63b8ff" stroke="#63b8ff" points="113.39,-271.65 104.09,-266.57 108.19,-276.34 113.39,-271.65"/>
</a>
</g>
</g>
<!-- Node4 -->
<g id="Node000004" class="node">
<title>Node4</title>
<g id="a_Node000004"><a xlink:href="struct_simple_contact_problem_1_1_op_cal_contact_augmented_traction_over_lambda_slave_slave.html" target="_top" xlink:title="LHS&#45;operator for the simple contact element with Augmented Lagrangian Method.">
<polygon fill="white" stroke="#666666" points="386.68,-354 215.41,-354 215.41,-316 386.68,-316 386.68,-354"/>
<text text-anchor="start" x="223.41" y="-342" font-family="Helvetica,sans-Serif" font-size="10.00">SimpleContactProblem</text>
<text text-anchor="start" x="223.41" y="-332" font-family="Helvetica,sans-Serif" font-size="10.00">::OpCalContactAugmentedTraction</text>
<text text-anchor="middle" x="301.04" y="-322" font-family="Helvetica,sans-Serif" font-size="10.00">OverLambdaSlaveSlave</text>
</a>
</g>
</g>
<!-- Node0&#45;&gt;Node4 -->
<g id="edge133_Node000000_Node000004" class="edge">
<title>Node0&#45;&gt;Node4</title>
<g id="a_edge133_Node000000_Node000004"><a xlink:title=" ">
<path fill="none" stroke="#63b8ff" d="M130.81,-270.27C155.04,-281.6 186.7,-295.84 215.41,-307 222.91,-309.92 230.85,-312.8 238.76,-315.55"/>
<polygon fill="#63b8ff" stroke="#63b8ff" points="132.48,-267.19 121.95,-266.1 129.5,-273.53 132.48,-267.19"/>
</a>
</g>
</g>
<!-- Node5 -->
<g id="Node000005" class="node">
<title>Node5</title>
<g id="a_Node000005"><a xlink:href="struct_simple_contact_problem_1_1_op_cal_contact_augmented_traction_over_spatial_master_master.html" target="_top" xlink:title="LHS&#45;operator for the simple contact element with Augmented Lagrangian Method.">
<polygon fill="white" stroke="#666666" points="386.68,-298 215.41,-298 215.41,-260 386.68,-260 386.68,-298"/>
<text text-anchor="start" x="223.41" y="-286" font-family="Helvetica,sans-Serif" font-size="10.00">SimpleContactProblem</text>
<text text-anchor="start" x="223.41" y="-276" font-family="Helvetica,sans-Serif" font-size="10.00">::OpCalContactAugmentedTraction</text>
<text text-anchor="middle" x="301.04" y="-266" font-family="Helvetica,sans-Serif" font-size="10.00">OverSpatialMasterMaster</text>
</a>
</g>
</g>
<!-- Node0&#45;&gt;Node5 -->
<g id="edge134_Node000000_Node000005" class="edge">
<title>Node0&#45;&gt;Node5</title>
<g id="a_edge134_Node000000_Node000005"><a xlink:title=" ">
<path fill="none" stroke="#63b8ff" d="M191.08,-264.43C199.09,-265.5 207.14,-266.57 215.04,-267.63"/>
<polygon fill="#63b8ff" stroke="#63b8ff" points="191.66,-260.97 181.29,-263.12 190.73,-267.91 191.66,-260.97"/>
</a>
</g>
</g>
<!-- Node6 -->
<g id="Node000006" class="node">
<title>Node6</title>
<g id="a_Node000006"><a xlink:href="struct_simple_contact_problem_1_1_op_cal_contact_augmented_traction_over_spatial_master_slave.html" target="_top" xlink:title="LHS&#45;operator for the simple contact element with Augmented Lagrangian Method.">
<polygon fill="white" stroke="#666666" points="386.68,-242 215.41,-242 215.41,-204 386.68,-204 386.68,-242"/>
<text text-anchor="start" x="223.41" y="-230" font-family="Helvetica,sans-Serif" font-size="10.00">SimpleContactProblem</text>
<text text-anchor="start" x="223.41" y="-220" font-family="Helvetica,sans-Serif" font-size="10.00">::OpCalContactAugmentedTraction</text>
<text text-anchor="middle" x="301.04" y="-210" font-family="Helvetica,sans-Serif" font-size="10.00">OverSpatialMasterSlave</text>
</a>
</g>
</g>
<!-- Node0&#45;&gt;Node6 -->
<g id="edge135_Node000000_Node000006" class="edge">
<title>Node0&#45;&gt;Node6</title>
<g id="a_edge135_Node000000_Node000006"><a xlink:title=" ">
<path fill="none" stroke="#63b8ff" d="M191.08,-237.57C199.09,-236.5 207.14,-235.43 215.04,-234.37"/>
<polygon fill="#63b8ff" stroke="#63b8ff" points="190.73,-234.09 181.29,-238.88 191.66,-241.03 190.73,-234.09"/>
</a>
</g>
</g>
<!-- Node7 -->
<g id="Node000007" class="node">
<title>Node7</title>
<g id="a_Node000007"><a xlink:href="struct_simple_contact_problem_1_1_op_cal_contact_augmented_traction_over_spatial_slave_master.html" target="_top" xlink:title="LHS&#45;operator for the simple contact element with Augmented Lagrangian Method.">
<polygon fill="white" stroke="#666666" points="386.68,-186 215.41,-186 215.41,-148 386.68,-148 386.68,-186"/>
<text text-anchor="start" x="223.41" y="-174" font-family="Helvetica,sans-Serif" font-size="10.00">SimpleContactProblem</text>
<text text-anchor="start" x="223.41" y="-164" font-family="Helvetica,sans-Serif" font-size="10.00">::OpCalContactAugmentedTraction</text>
<text text-anchor="middle" x="301.04" y="-154" font-family="Helvetica,sans-Serif" font-size="10.00">OverSpatialSlaveMaster</text>
</a>
</g>
</g>
<!-- Node0&#45;&gt;Node7 -->
<g id="edge136_Node000000_Node000007" class="edge">
<title>Node0&#45;&gt;Node7</title>
<g id="a_edge136_Node000000_Node000007"><a xlink:title=" ">
<path fill="none" stroke="#63b8ff" d="M130.81,-231.73C155.04,-220.4 186.7,-206.16 215.41,-195 222.91,-192.08 230.85,-189.2 238.76,-186.45"/>
<polygon fill="#63b8ff" stroke="#63b8ff" points="129.5,-228.47 121.95,-235.9 132.48,-234.81 129.5,-228.47"/>
</a>
</g>
</g>
<!-- Node8 -->
<g id="Node000008" class="node">
<title>Node8</title>
<g id="a_Node000008"><a xlink:href="struct_simple_contact_problem_1_1_op_cal_contact_augmented_traction_over_spatial_slave_slave.html" target="_top" xlink:title="LHS&#45;operator for the simple contact element with Augmented Lagrangian Method.">
<polygon fill="white" stroke="#666666" points="386.68,-130 215.41,-130 215.41,-92 386.68,-92 386.68,-130"/>
<text text-anchor="start" x="223.41" y="-118" font-family="Helvetica,sans-Serif" font-size="10.00">SimpleContactProblem</text>
<text text-anchor="start" x="223.41" y="-108" font-family="Helvetica,sans-Serif" font-size="10.00">::OpCalContactAugmentedTraction</text>
<text text-anchor="middle" x="301.04" y="-98" font-family="Helvetica,sans-Serif" font-size="10.00">OverSpatialSlaveSlave</text>
</a>
</g>
</g>
<!-- Node0&#45;&gt;Node8 -->
<g id="edge137_Node000000_Node000008" class="edge">
<title>Node0&#45;&gt;Node8</title>
<g id="a_edge137_Node000000_Node000008"><a xlink:title=" ">
<path fill="none" stroke="#63b8ff" d="M110.76,-228.04C133.76,-202.97 173.71,-163.19 215.41,-139 220.9,-135.82 226.8,-132.93 232.84,-130.34"/>
<polygon fill="#63b8ff" stroke="#63b8ff" points="108.19,-225.66 104.09,-235.43 113.39,-230.35 108.19,-225.66"/>
</a>
</g>
</g>
<!-- Node9 -->
<g id="Node000009" class="node">
<title>Node9</title>
<g id="a_Node000009"><a xlink:href="struct_simple_contact_problem_1_1_op_gap_constraint_augmented_rhs.html" target="_top" xlink:title="RHS&#45;operator for the simple contact element for Augmented Lagrangian Method.">
<polygon fill="white" stroke="#666666" points="385.19,-74 216.89,-74 216.89,-46 385.19,-46 385.19,-74"/>
<text text-anchor="start" x="224.89" y="-62" font-family="Helvetica,sans-Serif" font-size="10.00">SimpleContactProblem</text>
<text text-anchor="middle" x="301.04" y="-52" font-family="Helvetica,sans-Serif" font-size="10.00">::OpGapConstraintAugmentedRhs</text>
</a>
</g>
</g>
<!-- Node0&#45;&gt;Node9 -->
<g id="edge138_Node000000_Node000009" class="edge">
<title>Node0&#45;&gt;Node9</title>
<g id="a_edge138_Node000000_Node000009"><a xlink:title=" ">
<path fill="none" stroke="#63b8ff" d="M102.2,-226.44C120.74,-189.57 160.75,-120.29 215.41,-83 220.31,-79.65 225.69,-76.79 231.28,-74.35"/>
<polygon fill="#63b8ff" stroke="#63b8ff" points="99.07,-224.89 97.81,-235.41 105.35,-227.96 99.07,-224.89"/>
</a>
</g>
</g>
<!-- Node10 -->
<g id="Node000010" class="node">
<title>Node10</title>
<g id="a_Node000010"><a xlink:href="struct_simple_contact_problem_1_1_op_get_augmented_lambda_slave.html" target="_top" xlink:title="Operator for the simple contact element for Augmented Lagrangian Method.">
<polygon fill="white" stroke="#666666" points="382.7,-28 219.39,-28 219.39,0 382.7,0 382.7,-28"/>
<text text-anchor="start" x="227.39" y="-16" font-family="Helvetica,sans-Serif" font-size="10.00">SimpleContactProblem</text>
<text text-anchor="middle" x="301.04" y="-6" font-family="Helvetica,sans-Serif" font-size="10.00">::OpGetAugmentedLambdaSlave</text>
</a>
</g>
</g>
<!-- Node0&#45;&gt;Node10 -->
<g id="edge139_Node000000_Node000010" class="edge">
<title>Node0&#45;&gt;Node10</title>
<g id="a_edge139_Node000000_Node000010"><a xlink:title=" ">
<path fill="none" stroke="#63b8ff" d="M98.26,-225.92C113.1,-180.99 150.42,-86.85 215.41,-37 219.76,-33.66 224.56,-30.81 229.6,-28.37"/>
<polygon fill="#63b8ff" stroke="#63b8ff" points="94.98,-224.68 95.27,-235.27 101.65,-226.81 94.98,-224.68"/>
</a>
</g>
</g>
</g>
</svg>
