<?xml version="1.0" encoding="UTF-8" standalone="no"?>
<!DOCTYPE svg PUBLIC "-//W3C//DTD SVG 1.1//EN"
 "http://www.w3.org/Graphics/SVG/1.1/DTD/svg11.dtd">
<!-- Generated by graphviz version 9.0.0 (20230911.1827)
 -->
<!-- Title: Graphical Class Hierarchy Pages: 1 -->
<svg width="394pt" height="305pt"
 viewBox="0.00 0.00 394.00 304.75" xmlns="http://www.w3.org/2000/svg" xmlns:xlink="http://www.w3.org/1999/xlink">
<g id="graph0" class="graph" transform="scale(1 1) rotate(0) translate(4 300.75)">
<title>Graphical Class Hierarchy</title>
<!-- Node0 -->
<g id="node1" class="node">
<title>Node0</title>
<g id="a_node1"><a xlink:title=" ">
<polygon fill="#e0e0e0" stroke="#999999" points="158.5,-163.12 0,-163.12 0,-132.62 158.5,-132.62 158.5,-163.12"/>
<text text-anchor="start" x="8" y="-149.62" font-family="Helvetica,sans-Serif" font-size="10.00">FlatPrismElementForcesAnd</text>
<text text-anchor="middle" x="79.25" y="-138.38" font-family="Helvetica,sans-Serif" font-size="10.00">SourcesCore::UserDataOperator</text>
</a>
</g>
</g>
<!-- Node1 -->
<g id="node2" class="node">
<title>Node1</title>
<g id="a_node2"><a xlink:href="struct_cohesive_element_1_1_cohesive_interface_element_1_1_op_calculate_gap_global.html" target="_top" xlink:title="Operator calculate gap, normal vector and rotation matrix.">
<polygon fill="white" stroke="#666666" points="374.38,-296.75 206.12,-296.75 206.12,-255 374.38,-255 374.38,-296.75"/>
<text text-anchor="start" x="214.12" y="-283.25" font-family="Helvetica,sans-Serif" font-size="10.00">CohesiveElement::Cohesive</text>
<text text-anchor="start" x="214.12" y="-272" font-family="Helvetica,sans-Serif" font-size="10.00">InterfaceElement::OpCalculateGap</text>
<text text-anchor="middle" x="290.25" y="-260.75" font-family="Helvetica,sans-Serif" font-size="10.00">Global</text>
</a>
</g>
</g>
<!-- Node0&#45;&gt;Node1 -->
<g id="edge1" class="edge">
<title>Node0&#45;&gt;Node1</title>
<path fill="none" stroke="#63b8ff" d="M102.15,-171.5C123.74,-193.53 158.62,-225.91 194.5,-245.88 200.23,-249.06 206.35,-251.97 212.61,-254.6"/>
<polygon fill="#63b8ff" stroke="#63b8ff" points="104.79,-169.19 95.34,-164.42 99.75,-174.05 104.79,-169.19"/>
</g>
<!-- Node2 -->
<g id="node3" class="node">
<title>Node2</title>
<g id="a_node3"><a xlink:href="struct_cohesive_element_1_1_cohesive_interface_element_1_1_op_calculate_gap_local.html" target="_top" xlink:title="Operator calculate gap in local coordinate system.">
<polygon fill="white" stroke="#666666" points="386,-237.12 194.5,-237.12 194.5,-206.62 386,-206.62 386,-237.12"/>
<text text-anchor="start" x="202.5" y="-223.62" font-family="Helvetica,sans-Serif" font-size="10.00">CohesiveElement::Cohesive</text>
<text text-anchor="middle" x="290.25" y="-212.38" font-family="Helvetica,sans-Serif" font-size="10.00">InterfaceElement::OpCalculateGapLocal</text>
</a>
</g>
</g>
<!-- Node0&#45;&gt;Node2 -->
<g id="edge2" class="edge">
<title>Node0&#45;&gt;Node2</title>
<path fill="none" stroke="#63b8ff" d="M123.5,-168.21C144.62,-177.68 170.58,-188.64 194.5,-196.88 204.15,-200.2 214.48,-203.34 224.65,-206.19"/>
<polygon fill="#63b8ff" stroke="#63b8ff" points="125.17,-165.12 114.62,-164.18 122.28,-171.5 125.17,-165.12"/>
</g>
<!-- Node3 -->
<g id="node4" class="node">
<title>Node3</title>
<g id="a_node4"><a xlink:href="struct_cohesive_element_1_1_cohesive_interface_element_1_1_op_history.html" target="_top" xlink:title="Operator update history variables.">
<polygon fill="white" stroke="#666666" points="360.5,-188.12 220,-188.12 220,-157.62 360.5,-157.62 360.5,-188.12"/>
<text text-anchor="start" x="228" y="-174.62" font-family="Helvetica,sans-Serif" font-size="10.00">CohesiveElement::Cohesive</text>
<text text-anchor="middle" x="290.25" y="-163.38" font-family="Helvetica,sans-Serif" font-size="10.00">InterfaceElement::OpHistory</text>
</a>
</g>
</g>
<!-- Node0&#45;&gt;Node3 -->
<g id="edge3" class="edge">
<title>Node0&#45;&gt;Node3</title>
<path fill="none" stroke="#63b8ff" d="M170.28,-158.64C186.77,-160.62 203.74,-162.65 219.53,-164.53"/>
<polygon fill="#63b8ff" stroke="#63b8ff" points="170.81,-155.18 160.47,-157.47 169.98,-162.13 170.81,-155.18"/>
</g>
<!-- Node4 -->
<g id="node5" class="node">
<title>Node4</title>
<g id="a_node5"><a xlink:href="struct_cohesive_element_1_1_cohesive_interface_element_1_1_op_lhs.html" target="_top" xlink:title="Operator calculate element stiffens matrix.">
<polygon fill="white" stroke="#666666" points="360.5,-139.12 220,-139.12 220,-108.62 360.5,-108.62 360.5,-139.12"/>
<text text-anchor="start" x="228" y="-125.62" font-family="Helvetica,sans-Serif" font-size="10.00">CohesiveElement::Cohesive</text>
<text text-anchor="middle" x="290.25" y="-114.38" font-family="Helvetica,sans-Serif" font-size="10.00">InterfaceElement::OpLhs</text>
</a>
</g>
</g>
<!-- Node0&#45;&gt;Node4 -->
<g id="edge4" class="edge">
<title>Node0&#45;&gt;Node4</title>
<path fill="none" stroke="#63b8ff" d="M170.28,-137.54C186.77,-135.64 203.74,-133.69 219.53,-131.88"/>
<polygon fill="#63b8ff" stroke="#63b8ff" points="170.01,-134.05 160.47,-138.66 170.8,-141 170.01,-134.05"/>
</g>
<!-- Node5 -->
<g id="node6" class="node">
<title>Node5</title>
<g id="a_node6"><a xlink:href="struct_cohesive_element_1_1_cohesive_interface_element_1_1_op_rhs.html" target="_top" xlink:title="Operator calculate right hand side vector.">
<polygon fill="white" stroke="#666666" points="360.5,-90.12 220,-90.12 220,-59.62 360.5,-59.62 360.5,-90.12"/>
<text text-anchor="start" x="228" y="-76.62" font-family="Helvetica,sans-Serif" font-size="10.00">CohesiveElement::Cohesive</text>
<text text-anchor="middle" x="290.25" y="-65.38" font-family="Helvetica,sans-Serif" font-size="10.00">InterfaceElement::OpRhs</text>
</a>
</g>
</g>
<!-- Node0&#45;&gt;Node5 -->
<g id="edge5" class="edge">
<title>Node0&#45;&gt;Node5</title>
<path fill="none" stroke="#63b8ff" d="M124.52,-127.57C145.47,-118.41 171,-107.87 194.5,-99.88 204.16,-96.59 214.5,-93.47 224.67,-90.62"/>
<polygon fill="#63b8ff" stroke="#63b8ff" points="123.13,-124.36 115.4,-131.61 125.96,-130.76 123.13,-124.36"/>
</g>
<!-- Node6 -->
<g id="node7" class="node">
<title>Node6</title>
<g id="a_node7"><a xlink:href="struct_cohesive_element_1_1_cohesive_interface_element_1_1_op_set_sign_to_shape_functions.html" target="_top" xlink:title="Set negative sign to shape functions on face 4.">
<polygon fill="white" stroke="#666666" points="381.12,-41.75 199.38,-41.75 199.38,0 381.12,0 381.12,-41.75"/>
<text text-anchor="start" x="207.38" y="-28.25" font-family="Helvetica,sans-Serif" font-size="10.00">CohesiveElement::Cohesive</text>
<text text-anchor="start" x="207.38" y="-17" font-family="Helvetica,sans-Serif" font-size="10.00">InterfaceElement::OpSetSignToShape</text>
<text text-anchor="middle" x="290.25" y="-5.75" font-family="Helvetica,sans-Serif" font-size="10.00">Functions</text>
</a>
</g>
</g>
<!-- Node0&#45;&gt;Node6 -->
<g id="edge6" class="edge">
<title>Node0&#45;&gt;Node6</title>
<path fill="none" stroke="#63b8ff" d="M102.56,-124.14C124.21,-102.35 158.92,-70.56 194.5,-50.88 200.24,-47.7 206.36,-44.81 212.62,-42.18"/>
<polygon fill="#63b8ff" stroke="#63b8ff" points="100.2,-121.55 95.72,-131.15 105.21,-126.44 100.2,-121.55"/>
</g>
</g>
</svg>
