<?xml version="1.0" encoding="UTF-8" standalone="no"?>
<!DOCTYPE svg PUBLIC "-//W3C//DTD SVG 1.1//EN"
 "http://www.w3.org/Graphics/SVG/1.1/DTD/svg11.dtd">
<!-- Generated by graphviz version 2.43.0 (0)
 -->
<!-- Title: ContactOps::Monitor Pages: 1 -->
<!--zoomable 672 -->
<svg id="main" version="1.1" xmlns="http://www.w3.org/2000/svg" xmlns:xlink="http://www.w3.org/1999/xlink" xml:space="preserve" onload="init(evt)">
<style type="text/css"><![CDATA[
.edge:hover path { stroke: red; }
.edge:hover polygon { stroke: red; fill: red; }
]]></style>
<script type="text/javascript"><![CDATA[
var edges = document.getElementsByTagName('g');
if (edges && edges.length) {
  for (var i=0;i<edges.length;i++) {
    if (edges[i].id.substr(0,4)=='edge') {
      edges[i].setAttribute('class','edge');
    }
  }
}
]]></script>
        <defs>
                <circle id="rim" cx="0" cy="0" r="7"/>
                <circle id="rim2" cx="0" cy="0" r="3.5"/>
                <g id="zoomPlus">
                        <use xlink:href="#rim" fill="#404040">
                                <set attributeName="fill" to="#808080" begin="zoomplus.mouseover" end="zoomplus.mouseout"/>
                        </use>
                        <path d="M-4,0h8M0,-4v8" fill="none" stroke="white" stroke-width="1.5" pointer-events="none"/>
                </g>
                <g id="zoomMin">
                        <use xlink:href="#rim" fill="#404040">
                                <set attributeName="fill" to="#808080" begin="zoomminus.mouseover" end="zoomminus.mouseout"/>
                        </use>
                        <path d="M-4,0h8" fill="none" stroke="white" stroke-width="1.5" pointer-events="none"/>
                </g>
                <g id="dirArrow">
                        <path fill="none" stroke="white" stroke-width="1.5" d="M0,-3.0v7 M-2.5,-0.5L0,-3.0L2.5,-0.5"/>
                </g>
               <g id="resetDef">
                       <use xlink:href="#rim2" fill="#404040">
                               <set attributeName="fill" to="#808080" begin="reset.mouseover" end="reset.mouseout"/>
                       </use>
               </g>
        </defs>

<script type="text/javascript">
var viewWidth = 904;
var viewHeight = 672;
var sectionId = 'dynsection-1';
</script>
<script xlink:href="svgpan.js"/>
<svg id="graph" class="graph">
<g id="viewport">
<title>ContactOps::Monitor</title>
<polygon fill="white" stroke="transparent" points="-4,4 -4,-667.8 900,-667.8 900,4 -4,4"/>
<!-- Node1 -->
<g id="node1" class="node">
<title>Node1</title>
<g id="a_node1"><a xlink:title=" ">
<polygon fill="#bfbfbf" stroke="black" points="780,-283.43 780,-302.43 896,-302.43 896,-283.43 780,-283.43"/>
<text text-anchor="middle" x="838" y="-290.43" font-family="Helvetica,sans-Serif" font-size="10.00">ContactOps::Monitor</text>
</a>
</g>
</g>
<!-- Node2 -->
<g id="node2" class="node">
<title>Node2</title>
<g id="a_node2"><a xlink:href="classFEMethod.html" target="_top" xlink:title=" ">
<polygon fill="white" stroke="black" points="433.5,-626.43 433.5,-645.43 498.5,-645.43 498.5,-626.43 433.5,-626.43"/>
<text text-anchor="middle" x="466" y="-633.43" font-family="Helvetica,sans-Serif" font-size="10.00">FEMethod</text>
</a>
</g>
</g>
<!-- Node2&#45;&gt;Node1 -->
<g id="edge1" class="edge">
<title>Node2&#45;&gt;Node1</title>
<path fill="none" stroke="midnightblue" d="M508.4,-648.03C571.08,-663.57 690.31,-681.95 762,-621.93 813.09,-579.15 832.61,-352.58 836.32,-302.67"/>
<polygon fill="midnightblue" stroke="midnightblue" points="509.04,-644.58 498.48,-645.47 507.29,-651.35 509.04,-644.58"/>
</g>
<!-- Node3 -->
<g id="node3" class="node">
<title>Node3</title>
<g id="a_node3"><a xlink:title=" ">
<polygon fill="white" stroke="#bfbfbf" points="400.5,-556.43 400.5,-597.43 531.5,-597.43 531.5,-556.43 400.5,-556.43"/>
<text text-anchor="start" x="408.5" y="-585.43" font-family="Helvetica,sans-Serif" font-size="10.00">function&lt; double(const</text>
<text text-anchor="start" x="408.5" y="-574.43" font-family="Helvetica,sans-Serif" font-size="10.00"> double, const double,</text>
<text text-anchor="middle" x="466" y="-563.43" font-family="Helvetica,sans-Serif" font-size="10.00"> const double)&gt;</text>
</a>
</g>
</g>
<!-- Node3&#45;&gt;Node1 -->
<g id="edge2" class="edge">
<title>Node3&#45;&gt;Node1</title>
<path fill="none" stroke="#9a32cd" stroke-dasharray="5,2" d="M541.9,-569.58C626.51,-560.97 753.62,-547 762,-539.93 837.38,-476.39 838.59,-339.64 837.44,-302.44"/>
<polygon fill="#9a32cd" stroke="#9a32cd" points="541.4,-566.11 531.8,-570.6 542.1,-573.08 541.4,-566.11"/>
<text text-anchor="start" x="577" y="-611.93" font-family="Helvetica,sans-Serif" font-size="10.00"> analyticalHertzPressurePlane</text>
<text text-anchor="middle" x="669.5" y="-600.93" font-family="Helvetica,sans-Serif" font-size="10.00">Strain</text>
<text text-anchor="middle" x="669.5" y="-589.93" font-family="Helvetica,sans-Serif" font-size="10.00">analyticalHertzPressureAxisymmetric</text>
<text text-anchor="middle" x="669.5" y="-578.93" font-family="Helvetica,sans-Serif" font-size="10.00">analyticalWavy2DPressure</text>
<text text-anchor="middle" x="669.5" y="-567.93" font-family="Helvetica,sans-Serif" font-size="10.00">analyticalHertzPressurePlaneStress</text>
</g>
<!-- Node4 -->
<g id="node4" class="node">
<title>Node4</title>
<g id="a_node4"><a xlink:href="structMoFEM_1_1SmartPetscObj.html" target="_top" xlink:title=" ">
<polygon fill="white" stroke="black" points="400.5,-506.93 400.5,-536.93 531.5,-536.93 531.5,-506.93 400.5,-506.93"/>
<text text-anchor="start" x="408.5" y="-524.93" font-family="Helvetica,sans-Serif" font-size="10.00">MoFEM::SmartPetscObj</text>
<text text-anchor="middle" x="466" y="-513.93" font-family="Helvetica,sans-Serif" font-size="10.00">&lt; Vec &gt;</text>
</a>
</g>
</g>
<!-- Node4&#45;&gt;Node1 -->
<g id="edge3" class="edge">
<title>Node4&#45;&gt;Node1</title>
<path fill="none" stroke="#9a32cd" stroke-dasharray="5,2" d="M541.73,-525.33C617.61,-527.24 728.56,-525.29 762,-499.93 827.79,-450.04 835.95,-336.98 836.9,-302.86"/>
<polygon fill="#9a32cd" stroke="#9a32cd" points="541.82,-521.83 531.73,-525.05 541.63,-528.83 541.82,-521.83"/>
<text text-anchor="middle" x="669.5" y="-527.93" font-family="Helvetica,sans-Serif" font-size="10.00"> normsVec</text>
</g>
<!-- Node5 -->
<g id="node5" class="node">
<title>Node5</title>
<g id="a_node5"><a xlink:title=" ">
<polygon fill="white" stroke="#bfbfbf" points="165.5,-521.43 165.5,-562.43 291.5,-562.43 291.5,-521.43 165.5,-521.43"/>
<text text-anchor="start" x="173.5" y="-550.43" font-family="Helvetica,sans-Serif" font-size="10.00">boost::intrusive_ptr</text>
<text text-anchor="start" x="173.5" y="-539.43" font-family="Helvetica,sans-Serif" font-size="10.00">&lt; std::remove_pointer</text>
<text text-anchor="middle" x="228.5" y="-528.43" font-family="Helvetica,sans-Serif" font-size="10.00">&lt; Vec &gt;::type &gt;</text>
</a>
</g>
</g>
<!-- Node5&#45;&gt;Node4 -->
<g id="edge4" class="edge">
<title>Node5&#45;&gt;Node4</title>
<path fill="none" stroke="midnightblue" d="M301.71,-535.8C333.21,-533.13 369.83,-530.01 400.41,-527.42"/>
<polygon fill="midnightblue" stroke="midnightblue" points="301.35,-532.32 291.68,-536.65 301.94,-539.29 301.35,-532.32"/>
</g>
<!-- Node6 -->
<g id="node6" class="node">
<title>Node6</title>
<g id="a_node6"><a xlink:href="structMoFEM_1_1SmartPetscObj.html" target="_top" xlink:title="intrusive_ptr for managing petsc objects">
<polygon fill="white" stroke="black" points="163,-471.93 163,-501.93 294,-501.93 294,-471.93 163,-471.93"/>
<text text-anchor="start" x="171" y="-489.93" font-family="Helvetica,sans-Serif" font-size="10.00">MoFEM::SmartPetscObj</text>
<text text-anchor="middle" x="228.5" y="-478.93" font-family="Helvetica,sans-Serif" font-size="10.00">&lt; OBJ &gt;</text>
</a>
</g>
</g>
<!-- Node6&#45;&gt;Node4 -->
<g id="edge5" class="edge">
<title>Node6&#45;&gt;Node4</title>
<path fill="none" stroke="orange" stroke-dasharray="5,2" d="M304.45,-498.07C335.34,-502.66 370.77,-507.93 400.48,-512.34"/>
<polygon fill="orange" stroke="orange" points="304.57,-494.55 294.16,-496.54 303.54,-501.47 304.57,-494.55"/>
<text text-anchor="middle" x="333.5" y="-507.93" font-family="Helvetica,sans-Serif" font-size="10.00"> &lt; Vec &gt;</text>
</g>
<!-- Node7 -->
<g id="node7" class="node">
<title>Node7</title>
<g id="a_node7"><a xlink:title=" ">
<polygon fill="white" stroke="#bfbfbf" points="0,-466.43 0,-507.43 126,-507.43 126,-466.43 0,-466.43"/>
<text text-anchor="start" x="8" y="-495.43" font-family="Helvetica,sans-Serif" font-size="10.00">boost::intrusive_ptr</text>
<text text-anchor="start" x="8" y="-484.43" font-family="Helvetica,sans-Serif" font-size="10.00">&lt; std::remove_pointer</text>
<text text-anchor="middle" x="63" y="-473.43" font-family="Helvetica,sans-Serif" font-size="10.00">&lt; OBJ &gt;::type &gt;</text>
</a>
</g>
</g>
<!-- Node7&#45;&gt;Node6 -->
<g id="edge6" class="edge">
<title>Node7&#45;&gt;Node6</title>
<path fill="none" stroke="midnightblue" d="M136.52,-486.93C145.33,-486.93 154.27,-486.93 162.95,-486.93"/>
<polygon fill="midnightblue" stroke="midnightblue" points="136.28,-483.43 126.28,-486.93 136.28,-490.43 136.28,-483.43"/>
</g>
<!-- Node8 -->
<g id="node8" class="node">
<title>Node8</title>
<g id="a_node8"><a xlink:href="classdouble.html" target="_top" xlink:title=" ">
<polygon fill="white" stroke="black" points="441,-468.43 441,-487.43 491,-487.43 491,-468.43 441,-468.43"/>
<text text-anchor="middle" x="466" y="-475.43" font-family="Helvetica,sans-Serif" font-size="10.00">double</text>
</a>
</g>
</g>
<!-- Node8&#45;&gt;Node1 -->
<g id="edge7" class="edge">
<title>Node8&#45;&gt;Node1</title>
<path fill="none" stroke="#9a32cd" stroke-dasharray="5,2" d="M501.54,-477.18C574.86,-475.31 741.04,-469.5 762,-454.93 815.69,-417.6 831.83,-331.76 835.84,-302.73"/>
<polygon fill="#9a32cd" stroke="#9a32cd" points="501.34,-473.69 491.43,-477.43 501.51,-480.68 501.34,-473.69"/>
<text text-anchor="middle" x="669.5" y="-487.93" font-family="Helvetica,sans-Serif" font-size="10.00"> deltaTime</text>
<text text-anchor="middle" x="669.5" y="-476.93" font-family="Helvetica,sans-Serif" font-size="10.00">lastTime</text>
</g>
<!-- Node9 -->
<g id="node9" class="node">
<title>Node9</title>
<g id="a_node9"><a xlink:title=" ">
<polygon fill="white" stroke="#bfbfbf" points="399,-408.43 399,-449.43 533,-449.43 533,-408.43 399,-408.43"/>
<text text-anchor="start" x="407" y="-437.43" font-family="Helvetica,sans-Serif" font-size="10.00">tuple&lt; SmartPetscObj</text>
<text text-anchor="start" x="407" y="-426.43" font-family="Helvetica,sans-Serif" font-size="10.00">&lt; Vec &gt;, SmartPetscObj</text>
<text text-anchor="middle" x="466" y="-415.43" font-family="Helvetica,sans-Serif" font-size="10.00">&lt; VecScatter &gt; &gt;</text>
</a>
</g>
</g>
<!-- Node9&#45;&gt;Node1 -->
<g id="edge8" class="edge">
<title>Node9&#45;&gt;Node1</title>
<path fill="none" stroke="#9a32cd" stroke-dasharray="5,2" d="M543.31,-422.45C624.37,-415.08 743.41,-402.67 762,-391.93 798.97,-370.58 823.62,-323.04 832.89,-302.59"/>
<polygon fill="#9a32cd" stroke="#9a32cd" points="542.77,-418.99 533.12,-423.37 543.4,-425.96 542.77,-418.99"/>
<text text-anchor="middle" x="669.5" y="-443.93" font-family="Helvetica,sans-Serif" font-size="10.00"> uZScatter</text>
<text text-anchor="middle" x="669.5" y="-432.93" font-family="Helvetica,sans-Serif" font-size="10.00">uYScatter</text>
<text text-anchor="middle" x="669.5" y="-421.93" font-family="Helvetica,sans-Serif" font-size="10.00">uXScatter</text>
</g>
<!-- Node10 -->
<g id="node10" class="node">
<title>Node10</title>
<g id="a_node10"><a xlink:title=" ">
<polygon fill="white" stroke="#bfbfbf" points="394.5,-370.43 394.5,-389.43 537.5,-389.43 537.5,-370.43 394.5,-370.43"/>
<text text-anchor="middle" x="466" y="-377.43" font-family="Helvetica,sans-Serif" font-size="10.00">VectorFun&lt; SPACE_DIM &gt;</text>
</a>
</g>
</g>
<!-- Node10&#45;&gt;Node1 -->
<g id="edge9" class="edge">
<title>Node10&#45;&gt;Node1</title>
<path fill="none" stroke="#9a32cd" stroke-dasharray="5,2" d="M547.92,-379.21C608.54,-376.38 692.62,-367.53 762,-341.93 786.81,-332.78 811.74,-314.18 825.69,-302.71"/>
<polygon fill="#9a32cd" stroke="#9a32cd" points="547.49,-375.72 537.65,-379.64 547.78,-382.72 547.49,-375.72"/>
<text text-anchor="middle" x="669.5" y="-379.93" font-family="Helvetica,sans-Serif" font-size="10.00"> analyticalHertzDisplacement3D</text>
</g>
<!-- Node11 -->
<g id="node11" class="node">
<title>Node11</title>
<g id="a_node11"><a xlink:title=" ">
<polygon fill="white" stroke="#bfbfbf" points="387,-320.93 387,-350.93 545,-350.93 545,-320.93 387,-320.93"/>
<text text-anchor="start" x="395" y="-338.93" font-family="Helvetica,sans-Serif" font-size="10.00">shared_ptr&lt; GenericElement</text>
<text text-anchor="middle" x="466" y="-327.93" font-family="Helvetica,sans-Serif" font-size="10.00">Interface &gt;</text>
</a>
</g>
</g>
<!-- Node11&#45;&gt;Node1 -->
<g id="edge10" class="edge">
<title>Node11&#45;&gt;Node1</title>
<path fill="none" stroke="#9a32cd" stroke-dasharray="5,2" d="M555.16,-329.27C613.91,-324.34 692.77,-316.78 762,-306.93 770.92,-305.66 780.39,-304.08 789.49,-302.44"/>
<polygon fill="#9a32cd" stroke="#9a32cd" points="554.85,-325.79 545.17,-330.1 555.42,-332.76 554.85,-325.79"/>
<text text-anchor="middle" x="669.5" y="-329.93" font-family="Helvetica,sans-Serif" font-size="10.00"> mfrontInterface</text>
</g>
<!-- Node12 -->
<g id="node12" class="node">
<title>Node12</title>
<g id="a_node12"><a xlink:title=" ">
<polygon fill="white" stroke="#bfbfbf" points="430.5,-282.43 430.5,-301.43 501.5,-301.43 501.5,-282.43 430.5,-282.43"/>
<text text-anchor="middle" x="466" y="-289.43" font-family="Helvetica,sans-Serif" font-size="10.00">Interface &amp;</text>
</a>
</g>
</g>
<!-- Node12&#45;&gt;Node1 -->
<g id="edge11" class="edge">
<title>Node12&#45;&gt;Node1</title>
<path fill="none" stroke="#9a32cd" stroke-dasharray="5,2" d="M512.08,-292.05C579.38,-292.24 706.06,-292.58 779.79,-292.78"/>
<polygon fill="#9a32cd" stroke="#9a32cd" points="511.82,-288.55 501.81,-292.03 511.8,-295.55 511.82,-288.55"/>
<text text-anchor="middle" x="669.5" y="-294.93" font-family="Helvetica,sans-Serif" font-size="10.00"> moabVertex</text>
</g>
<!-- Node13 -->
<g id="node13" class="node">
<title>Node13</title>
<g id="a_node13"><a xlink:title=" ">
<polygon fill="white" stroke="#bfbfbf" points="451.5,-244.43 451.5,-263.43 480.5,-263.43 480.5,-244.43 451.5,-244.43"/>
<text text-anchor="middle" x="466" y="-251.43" font-family="Helvetica,sans-Serif" font-size="10.00">int</text>
</a>
</g>
</g>
<!-- Node13&#45;&gt;Node1 -->
<g id="edge12" class="edge">
<title>Node13&#45;&gt;Node1</title>
<path fill="none" stroke="#9a32cd" stroke-dasharray="5,2" d="M490.75,-254.72C541.03,-256.61 661.8,-262.4 762,-276.93 773.46,-278.59 785.8,-280.98 797.09,-283.39"/>
<polygon fill="#9a32cd" stroke="#9a32cd" points="490.72,-251.21 480.6,-254.35 490.46,-258.21 490.72,-251.21"/>
<text text-anchor="middle" x="669.5" y="-279.93" font-family="Helvetica,sans-Serif" font-size="10.00"> sTEP</text>
</g>
<!-- Node14 -->
<g id="node14" class="node">
<title>Node14</title>
<g id="a_node14"><a xlink:title=" ">
<polygon fill="white" stroke="#bfbfbf" points="390,-206.43 390,-225.43 542,-225.43 542,-206.43 390,-206.43"/>
<text text-anchor="middle" x="466" y="-213.43" font-family="Helvetica,sans-Serif" font-size="10.00">shared_ptr&lt; BoundaryEle &gt;</text>
</a>
</g>
</g>
<!-- Node14&#45;&gt;Node1 -->
<g id="edge13" class="edge">
<title>Node14&#45;&gt;Node1</title>
<path fill="none" stroke="#9a32cd" stroke-dasharray="5,2" d="M552.33,-207.41C612.83,-204.54 694.87,-207.19 762,-232.93 790.03,-243.68 815.72,-268.98 828.5,-283.05"/>
<polygon fill="#9a32cd" stroke="#9a32cd" points="551.85,-203.93 542.05,-207.96 552.22,-210.92 551.85,-203.93"/>
<text text-anchor="middle" x="669.5" y="-246.93" font-family="Helvetica,sans-Serif" font-size="10.00"> integrateTraction</text>
<text text-anchor="middle" x="669.5" y="-235.93" font-family="Helvetica,sans-Serif" font-size="10.00">integrateArea</text>
</g>
<!-- Node15 -->
<g id="node15" class="node">
<title>Node15</title>
<g id="a_node15"><a xlink:title=" ">
<polygon fill="white" stroke="#bfbfbf" points="373,-168.43 373,-187.43 559,-187.43 559,-168.43 373,-168.43"/>
<text text-anchor="middle" x="466" y="-175.43" font-family="Helvetica,sans-Serif" font-size="10.00">shared_ptr&lt; PostProcEleDomain &gt;</text>
</a>
</g>
</g>
<!-- Node15&#45;&gt;Node1 -->
<g id="edge14" class="edge">
<title>Node15&#45;&gt;Node1</title>
<path fill="none" stroke="#9a32cd" stroke-dasharray="5,2" d="M522.64,-166.8C584.88,-157.3 686.82,-150.79 762,-190.93 800.78,-211.64 824.74,-262.25 833.37,-283.4"/>
<polygon fill="#9a32cd" stroke="#9a32cd" points="521.94,-163.37 512.62,-168.41 523.05,-170.28 521.94,-163.37"/>
<text text-anchor="middle" x="669.5" y="-193.93" font-family="Helvetica,sans-Serif" font-size="10.00"> postProcDomainFe</text>
</g>
<!-- Node16 -->
<g id="node16" class="node">
<title>Node16</title>
<g id="a_node16"><a xlink:title=" ">
<polygon fill="white" stroke="#bfbfbf" points="392.5,-130.43 392.5,-149.43 539.5,-149.43 539.5,-130.43 392.5,-130.43"/>
<text text-anchor="middle" x="466" y="-137.43" font-family="Helvetica,sans-Serif" font-size="10.00">shared_ptr&lt; moab::Core &gt;</text>
</a>
</g>
</g>
<!-- Node16&#45;&gt;Node1 -->
<g id="edge15" class="edge">
<title>Node16&#45;&gt;Node1</title>
<path fill="none" stroke="#9a32cd" stroke-dasharray="5,2" d="M550.12,-131.68C624.85,-125.93 727.94,-122.63 762,-143.93 813.56,-176.19 831,-255.79 835.6,-283.35"/>
<polygon fill="#9a32cd" stroke="#9a32cd" points="549.46,-128.22 539.77,-132.51 550.02,-135.2 549.46,-128.22"/>
<text text-anchor="middle" x="669.5" y="-146.93" font-family="Helvetica,sans-Serif" font-size="10.00"> postProcMesh</text>
</g>
<!-- Node17 -->
<g id="node17" class="node">
<title>Node17</title>
<g id="a_node17"><a xlink:title=" ">
<polygon fill="white" stroke="#bfbfbf" points="402,-92.43 402,-111.43 530,-111.43 530,-92.43 402,-92.43"/>
<text text-anchor="middle" x="466" y="-99.43" font-family="Helvetica,sans-Serif" font-size="10.00">SmartPetscObj&lt; DM &gt;</text>
</a>
</g>
</g>
<!-- Node17&#45;&gt;Node1 -->
<g id="edge16" class="edge">
<title>Node17&#45;&gt;Node1</title>
<path fill="none" stroke="#9a32cd" stroke-dasharray="5,2" d="M540.48,-95.61C616.06,-90.63 727.45,-88 762,-111.93 821.83,-153.39 834.04,-252.02 836.44,-283.26"/>
<polygon fill="#9a32cd" stroke="#9a32cd" points="539.81,-92.15 530.07,-96.33 540.29,-99.13 539.81,-92.15"/>
<text text-anchor="middle" x="669.5" y="-114.93" font-family="Helvetica,sans-Serif" font-size="10.00"> dM</text>
</g>
<!-- Node18 -->
<g id="node18" class="node">
<title>Node18</title>
<g id="a_node18"><a xlink:title=" ">
<polygon fill="white" stroke="#bfbfbf" points="446.5,-54.43 446.5,-73.43 485.5,-73.43 485.5,-54.43 446.5,-54.43"/>
<text text-anchor="middle" x="466" y="-61.43" font-family="Helvetica,sans-Serif" font-size="10.00">Core</text>
</a>
</g>
</g>
<!-- Node18&#45;&gt;Node1 -->
<g id="edge17" class="edge">
<title>Node18&#45;&gt;Node1</title>
<path fill="none" stroke="#9a32cd" stroke-dasharray="5,2" d="M495.99,-61.24C561.93,-55.72 720.62,-46.11 762,-76.93 831.08,-128.4 836.94,-247.81 837.12,-283"/>
<polygon fill="#9a32cd" stroke="#9a32cd" points="495.54,-57.76 485.87,-62.11 496.14,-64.74 495.54,-57.76"/>
<text text-anchor="middle" x="669.5" y="-79.93" font-family="Helvetica,sans-Serif" font-size="10.00"> mbVertexPostproc</text>
</g>
<!-- Node19 -->
<g id="node19" class="node">
<title>Node19</title>
<g id="a_node19"><a xlink:title=" ">
<polygon fill="white" stroke="#bfbfbf" points="382.5,-16.43 382.5,-35.43 549.5,-35.43 549.5,-16.43 382.5,-16.43"/>
<text text-anchor="middle" x="466" y="-23.43" font-family="Helvetica,sans-Serif" font-size="10.00">shared_ptr&lt; PostProcEleBdy &gt;</text>
</a>
</g>
</g>
<!-- Node19&#45;&gt;Node1 -->
<g id="edge18" class="edge">
<title>Node19&#45;&gt;Node1</title>
<path fill="none" stroke="#9a32cd" stroke-dasharray="5,2" d="M510.39,-14.03C573.09,0.36 689.44,16.1 762,-40.93 802.1,-72.46 829.35,-241.01 835.62,-283.3"/>
<polygon fill="#9a32cd" stroke="#9a32cd" points="509.35,-10.68 500.44,-16.4 510.98,-17.49 509.35,-10.68"/>
<text text-anchor="middle" x="669.5" y="-43.93" font-family="Helvetica,sans-Serif" font-size="10.00"> postProcBdyFe</text>
</g>
</g>
</svg>
        <g id="navigator" transform="translate(0 0)" fill="#404254">
                <rect fill="#f2f5e9" fill-opacity="0.5" stroke="#606060" stroke-width=".5" x="0" y="0" width="60" height="60"/>
                <use id="zoomplus" xlink:href="#zoomPlus" x="17" y="9" onmousedown="handleZoom(evt,'in')"/>
                <use id="zoomminus" xlink:href="#zoomMin" x="42" y="9" onmousedown="handleZoom(evt,'out')"/>
                <use id="reset" xlink:href="#resetDef" x="30" y="36" onmousedown="handleReset()"/>
                <g id="arrowUp" xlink:href="#dirArrow" transform="translate(30 24)" onmousedown="handlePan(0,-1)">
                  <use xlink:href="#rim" fill="#404040">
                        <set attributeName="fill" to="#808080" begin="arrowUp.mouseover" end="arrowUp.mouseout"/>
                  </use>
                  <path fill="none" stroke="white" stroke-width="1.5" d="M0,-3.0v7 M-2.5,-0.5L0,-3.0L2.5,-0.5"/>
                </g>
                <g id="arrowRight" xlink:href="#dirArrow" transform="rotate(90) translate(36 -43)" onmousedown="handlePan(1,0)">
                  <use xlink:href="#rim" fill="#404040">
                        <set attributeName="fill" to="#808080" begin="arrowRight.mouseover" end="arrowRight.mouseout"/>
                  </use>
                  <path fill="none" stroke="white" stroke-width="1.5" d="M0,-3.0v7 M-2.5,-0.5L0,-3.0L2.5,-0.5"/>
                </g>
                <g id="arrowDown" xlink:href="#dirArrow" transform="rotate(180) translate(-30 -48)" onmousedown="handlePan(0,1)">
                  <use xlink:href="#rim" fill="#404040">
                        <set attributeName="fill" to="#808080" begin="arrowDown.mouseover" end="arrowDown.mouseout"/>
                  </use>
                  <path fill="none" stroke="white" stroke-width="1.5" d="M0,-3.0v7 M-2.5,-0.5L0,-3.0L2.5,-0.5"/>
                </g>
                <g id="arrowLeft" xlink:href="#dirArrow" transform="rotate(270) translate(-36 17)" onmousedown="handlePan(-1,0)">
                  <use xlink:href="#rim" fill="#404040">
                        <set attributeName="fill" to="#808080" begin="arrowLeft.mouseover" end="arrowLeft.mouseout"/>
                  </use>
                  <path fill="none" stroke="white" stroke-width="1.5" d="M0,-3.0v7 M-2.5,-0.5L0,-3.0L2.5,-0.5"/>
                </g>
        </g>
        <svg viewBox="0 0 15 15" width="100%" height="30px" preserveAspectRatio="xMaxYMin meet">
         <g id="arrow_out" transform="scale(0.3 0.3)">
          <a xlink:href="structContactOps_1_1Monitor__coll__graph_org.svg" target="_base">
           <rect id="button" ry="5" rx="5" y="6" x="6" height="38" width="38"
                fill="#f2f5e9" fill-opacity="0.5" stroke="#606060" stroke-width="1.0"/>
           <path id="arrow"
             d="M 11.500037,31.436501 C 11.940474,20.09759 22.043105,11.32322 32.158766,21.979434 L 37.068811,17.246167 C 37.068811,17.246167 37.088388,32 37.088388,32 L 22.160133,31.978069 C 22.160133,31.978069 26.997745,27.140456 26.997745,27.140456 C 18.528582,18.264221 13.291696,25.230495 11.500037,31.436501 z"
             style="fill:#404040;"/>
          </a>
         </g>
        </svg>
</svg>
