<?xml version="1.0" encoding="UTF-8" standalone="no"?>
<!DOCTYPE svg PUBLIC "-//W3C//DTD SVG 1.1//EN"
 "http://www.w3.org/Graphics/SVG/1.1/DTD/svg11.dtd">
<!-- Generated by graphviz version 2.43.0 (0)
 -->
<!-- Title: FractureMechanics::GriffithForceElement::AuxOp Pages: 1 -->
<svg width="492pt" height="554pt"
 viewBox="0.00 0.00 492.00 553.50" xmlns="http://www.w3.org/2000/svg" xmlns:xlink="http://www.w3.org/1999/xlink">
<g id="graph0" class="graph" transform="scale(1 1) rotate(0) translate(4 549.5)">
<title>FractureMechanics::GriffithForceElement::AuxOp</title>
<polygon fill="white" stroke="transparent" points="-4,4 -4,-549.5 488,-549.5 488,4 -4,4"/>
<!-- Node1 -->
<g id="node1" class="node">
<title>Node1</title>
<g id="a_node1"><a xlink:title=" ">
<polygon fill="#bfbfbf" stroke="black" points="0,-240.5 0,-281.5 117,-281.5 117,-240.5 0,-240.5"/>
<text text-anchor="start" x="8" y="-269.5" font-family="Helvetica,sans-Serif" font-size="10.00">FractureMechanics::</text>
<text text-anchor="start" x="8" y="-258.5" font-family="Helvetica,sans-Serif" font-size="10.00">GriffithForceElement</text>
<text text-anchor="middle" x="58.5" y="-247.5" font-family="Helvetica,sans-Serif" font-size="10.00">::AuxOp</text>
</a>
</g>
</g>
<!-- Node2 -->
<g id="node2" class="node">
<title>Node2</title>
<g id="a_node2"><a xlink:href="structFractureMechanics_1_1GriffithForceElement_1_1FrontArcLengthControl_1_1OpIntLambda.html" target="_top" xlink:title="assemble internal residual">
<polygon fill="white" stroke="black" points="169.5,-493 169.5,-545 300.5,-545 300.5,-493 169.5,-493"/>
<text text-anchor="start" x="177.5" y="-533" font-family="Helvetica,sans-Serif" font-size="10.00">FractureMechanics::</text>
<text text-anchor="start" x="177.5" y="-522" font-family="Helvetica,sans-Serif" font-size="10.00">GriffithForceElement</text>
<text text-anchor="start" x="177.5" y="-511" font-family="Helvetica,sans-Serif" font-size="10.00">::FrontArcLengthControl</text>
<text text-anchor="middle" x="235" y="-500" font-family="Helvetica,sans-Serif" font-size="10.00">::OpIntLambda</text>
</a>
</g>
</g>
<!-- Node1&#45;&gt;Node2 -->
<g id="edge1" class="edge">
<title>Node1&#45;&gt;Node2</title>
<path fill="none" stroke="midnightblue" d="M64.88,-291.42C74.62,-338.25 99.37,-428.31 153,-483 157.74,-487.83 163.24,-492.07 169.11,-495.77"/>
<polygon fill="midnightblue" stroke="midnightblue" points="68.3,-290.69 62.92,-281.57 61.44,-292.06 68.3,-290.69"/>
</g>
<!-- Node4 -->
<g id="node4" class="node">
<title>Node4</title>
<g id="a_node4"><a xlink:href="structFractureMechanics_1_1GriffithForceElement_1_1OpCalculateGriffithForce.html" target="_top" xlink:title="calculate griffith force vector">
<polygon fill="white" stroke="black" points="164,-432.5 164,-473.5 306,-473.5 306,-432.5 164,-432.5"/>
<text text-anchor="start" x="172" y="-461.5" font-family="Helvetica,sans-Serif" font-size="10.00">FractureMechanics::</text>
<text text-anchor="start" x="172" y="-450.5" font-family="Helvetica,sans-Serif" font-size="10.00">GriffithForceElement</text>
<text text-anchor="middle" x="235" y="-439.5" font-family="Helvetica,sans-Serif" font-size="10.00">::OpCalculateGriffithForce</text>
</a>
</g>
</g>
<!-- Node1&#45;&gt;Node4 -->
<g id="edge3" class="edge">
<title>Node1&#45;&gt;Node4</title>
<path fill="none" stroke="midnightblue" d="M69.67,-291.21C83.27,-327.31 110.7,-387.29 153,-423 157.13,-426.48 161.69,-429.58 166.5,-432.33"/>
<polygon fill="midnightblue" stroke="midnightblue" points="72.92,-289.89 66.2,-281.7 66.34,-292.29 72.92,-289.89"/>
</g>
<!-- Node5 -->
<g id="node5" class="node">
<title>Node5</title>
<g id="a_node5"><a xlink:href="structFractureMechanics_1_1GriffithForceElement_1_1OpCalculateRhoAtCrackFrontUsingPrecalulatedCoeffs.html" target="_top" xlink:title="Calculate density at the crack fron nodes and multiplity gc.">
<polygon fill="white" stroke="black" points="153,-361 153,-413 317,-413 317,-361 153,-361"/>
<text text-anchor="start" x="161" y="-401" font-family="Helvetica,sans-Serif" font-size="10.00">FractureMechanics::</text>
<text text-anchor="start" x="161" y="-390" font-family="Helvetica,sans-Serif" font-size="10.00">GriffithForceElement</text>
<text text-anchor="start" x="161" y="-379" font-family="Helvetica,sans-Serif" font-size="10.00">::OpCalculateRhoAtCrackFront</text>
<text text-anchor="middle" x="235" y="-368" font-family="Helvetica,sans-Serif" font-size="10.00">UsingPrecalulatedCoeffs</text>
</a>
</g>
</g>
<!-- Node1&#45;&gt;Node5 -->
<g id="edge4" class="edge">
<title>Node1&#45;&gt;Node5</title>
<path fill="none" stroke="midnightblue" d="M84.01,-289.31C101.73,-308.53 127.04,-333.53 153,-351 158.23,-354.52 163.87,-357.84 169.64,-360.93"/>
<polygon fill="midnightblue" stroke="midnightblue" points="86.44,-286.79 77.13,-281.73 81.26,-291.49 86.44,-286.79"/>
</g>
<!-- Node6 -->
<g id="node6" class="node">
<title>Node6</title>
<g id="a_node6"><a xlink:href="structFractureMechanics_1_1GriffithForceElement_1_1OpConstrainsDelta.html" target="_top" xlink:title=" ">
<polygon fill="white" stroke="black" points="176.5,-300.5 176.5,-341.5 293.5,-341.5 293.5,-300.5 176.5,-300.5"/>
<text text-anchor="start" x="184.5" y="-329.5" font-family="Helvetica,sans-Serif" font-size="10.00">FractureMechanics::</text>
<text text-anchor="start" x="184.5" y="-318.5" font-family="Helvetica,sans-Serif" font-size="10.00">GriffithForceElement</text>
<text text-anchor="middle" x="235" y="-307.5" font-family="Helvetica,sans-Serif" font-size="10.00">::OpConstrainsDelta</text>
</a>
</g>
</g>
<!-- Node1&#45;&gt;Node6 -->
<g id="edge5" class="edge">
<title>Node1&#45;&gt;Node6</title>
<path fill="none" stroke="midnightblue" d="M126.66,-284.09C143.08,-289.74 160.51,-295.73 176.44,-301.21"/>
<polygon fill="midnightblue" stroke="midnightblue" points="127.72,-280.75 117.12,-280.81 125.44,-287.37 127.72,-280.75"/>
</g>
<!-- Node7 -->
<g id="node7" class="node">
<title>Node7</title>
<g id="a_node7"><a xlink:href="structFractureMechanics_1_1GriffithForceElement_1_1OpConstrainsLhs.html" target="_top" xlink:title=" ">
<polygon fill="white" stroke="black" points="176.5,-240.5 176.5,-281.5 293.5,-281.5 293.5,-240.5 176.5,-240.5"/>
<text text-anchor="start" x="184.5" y="-269.5" font-family="Helvetica,sans-Serif" font-size="10.00">FractureMechanics::</text>
<text text-anchor="start" x="184.5" y="-258.5" font-family="Helvetica,sans-Serif" font-size="10.00">GriffithForceElement</text>
<text text-anchor="middle" x="235" y="-247.5" font-family="Helvetica,sans-Serif" font-size="10.00">::OpConstrainsLhs</text>
</a>
</g>
</g>
<!-- Node1&#45;&gt;Node7 -->
<g id="edge6" class="edge">
<title>Node1&#45;&gt;Node7</title>
<path fill="none" stroke="midnightblue" d="M127.58,-261C143.73,-261 160.81,-261 176.44,-261"/>
<polygon fill="midnightblue" stroke="midnightblue" points="127.12,-257.5 117.12,-261 127.12,-264.5 127.12,-257.5"/>
</g>
<!-- Node8 -->
<g id="node8" class="node">
<title>Node8</title>
<g id="a_node8"><a xlink:href="structFractureMechanics_1_1GriffithForceElement_1_1OpConstrainsRhs.html" target="_top" xlink:title=" ">
<polygon fill="white" stroke="black" points="176.5,-180.5 176.5,-221.5 293.5,-221.5 293.5,-180.5 176.5,-180.5"/>
<text text-anchor="start" x="184.5" y="-209.5" font-family="Helvetica,sans-Serif" font-size="10.00">FractureMechanics::</text>
<text text-anchor="start" x="184.5" y="-198.5" font-family="Helvetica,sans-Serif" font-size="10.00">GriffithForceElement</text>
<text text-anchor="middle" x="235" y="-187.5" font-family="Helvetica,sans-Serif" font-size="10.00">::OpConstrainsRhs</text>
</a>
</g>
</g>
<!-- Node1&#45;&gt;Node8 -->
<g id="edge7" class="edge">
<title>Node1&#45;&gt;Node8</title>
<path fill="none" stroke="midnightblue" d="M126.66,-237.91C143.08,-232.26 160.51,-226.27 176.44,-220.79"/>
<polygon fill="midnightblue" stroke="midnightblue" points="125.44,-234.63 117.12,-241.19 127.72,-241.25 125.44,-234.63"/>
</g>
<!-- Node9 -->
<g id="node9" class="node">
<title>Node9</title>
<g id="a_node9"><a xlink:href="structFractureMechanics_1_1GriffithForceElement_1_1OpHeterogeneousGcLhs.html" target="_top" xlink:title=" ">
<polygon fill="white" stroke="black" points="165,-120.5 165,-161.5 305,-161.5 305,-120.5 165,-120.5"/>
<text text-anchor="start" x="173" y="-149.5" font-family="Helvetica,sans-Serif" font-size="10.00">FractureMechanics::</text>
<text text-anchor="start" x="173" y="-138.5" font-family="Helvetica,sans-Serif" font-size="10.00">GriffithForceElement</text>
<text text-anchor="middle" x="235" y="-127.5" font-family="Helvetica,sans-Serif" font-size="10.00">::OpHeterogeneousGcLhs</text>
</a>
</g>
</g>
<!-- Node1&#45;&gt;Node9 -->
<g id="edge8" class="edge">
<title>Node1&#45;&gt;Node9</title>
<path fill="none" stroke="midnightblue" d="M83.33,-232.53C100.92,-213.02 126.33,-187.74 153,-171 158.46,-167.57 164.37,-164.45 170.43,-161.63"/>
<polygon fill="midnightblue" stroke="midnightblue" points="80.53,-230.42 76.53,-240.23 85.78,-235.06 80.53,-230.42"/>
</g>
<!-- Node10 -->
<g id="node10" class="node">
<title>Node10</title>
<g id="a_node10"><a xlink:href="structFractureMechanics_1_1GriffithForceElement_1_1OpLhs.html" target="_top" xlink:title=" ">
<polygon fill="white" stroke="black" points="176.5,-60.5 176.5,-101.5 293.5,-101.5 293.5,-60.5 176.5,-60.5"/>
<text text-anchor="start" x="184.5" y="-89.5" font-family="Helvetica,sans-Serif" font-size="10.00">FractureMechanics::</text>
<text text-anchor="start" x="184.5" y="-78.5" font-family="Helvetica,sans-Serif" font-size="10.00">GriffithForceElement</text>
<text text-anchor="middle" x="235" y="-67.5" font-family="Helvetica,sans-Serif" font-size="10.00">::OpLhs</text>
</a>
</g>
</g>
<!-- Node1&#45;&gt;Node10 -->
<g id="edge9" class="edge">
<title>Node1&#45;&gt;Node10</title>
<path fill="none" stroke="midnightblue" d="M71.14,-230.97C85.59,-197.36 113.28,-143.39 153,-111 159.86,-105.41 167.86,-100.8 176.11,-97.02"/>
<polygon fill="midnightblue" stroke="midnightblue" points="67.87,-229.71 67.25,-240.28 74.33,-232.41 67.87,-229.71"/>
</g>
<!-- Node11 -->
<g id="node11" class="node">
<title>Node11</title>
<g id="a_node11"><a xlink:href="structFractureMechanics_1_1GriffithForceElement_1_1OpRhs.html" target="_top" xlink:title=" ">
<polygon fill="white" stroke="black" points="176.5,-0.5 176.5,-41.5 293.5,-41.5 293.5,-0.5 176.5,-0.5"/>
<text text-anchor="start" x="184.5" y="-29.5" font-family="Helvetica,sans-Serif" font-size="10.00">FractureMechanics::</text>
<text text-anchor="start" x="184.5" y="-18.5" font-family="Helvetica,sans-Serif" font-size="10.00">GriffithForceElement</text>
<text text-anchor="middle" x="235" y="-7.5" font-family="Helvetica,sans-Serif" font-size="10.00">::OpRhs</text>
</a>
</g>
</g>
<!-- Node1&#45;&gt;Node11 -->
<g id="edge10" class="edge">
<title>Node1&#45;&gt;Node11</title>
<path fill="none" stroke="midnightblue" d="M65.24,-230.49C75.28,-185.28 100.2,-100.51 153,-51 159.67,-44.74 167.76,-39.76 176.22,-35.81"/>
<polygon fill="midnightblue" stroke="midnightblue" points="61.81,-229.79 63.16,-240.3 68.66,-231.24 61.81,-229.79"/>
</g>
<!-- Node3 -->
<g id="node3" class="node">
<title>Node3</title>
<g id="a_node3"><a xlink:href="structFractureMechanics_1_1GriffithForceElement_1_1FrontArcLengthControl_1_1OpAssemble__db.html" target="_top" xlink:title="assemble internal residual derivative">
<polygon fill="white" stroke="black" points="353,-493 353,-545 484,-545 484,-493 353,-493"/>
<text text-anchor="start" x="361" y="-533" font-family="Helvetica,sans-Serif" font-size="10.00">FractureMechanics::</text>
<text text-anchor="start" x="361" y="-522" font-family="Helvetica,sans-Serif" font-size="10.00">GriffithForceElement</text>
<text text-anchor="start" x="361" y="-511" font-family="Helvetica,sans-Serif" font-size="10.00">::FrontArcLengthControl</text>
<text text-anchor="middle" x="418.5" y="-500" font-family="Helvetica,sans-Serif" font-size="10.00">::OpAssemble_db</text>
</a>
</g>
</g>
<!-- Node2&#45;&gt;Node3 -->
<g id="edge2" class="edge">
<title>Node2&#45;&gt;Node3</title>
<path fill="none" stroke="midnightblue" d="M310.61,-519C324.64,-519 339.2,-519 352.9,-519"/>
<polygon fill="midnightblue" stroke="midnightblue" points="310.5,-515.5 300.5,-519 310.5,-522.5 310.5,-515.5"/>
</g>
</g>
</svg>
