<?xml version="1.0" encoding="UTF-8" standalone="no"?>
<!DOCTYPE svg PUBLIC "-//W3C//DTD SVG 1.1//EN"
 "http://www.w3.org/Graphics/SVG/1.1/DTD/svg11.dtd">
<!-- Generated by graphviz version 2.43.0 (0)
 -->
<!-- Title: EshelbianPlasticity::OpPostProcDataStructure Pages: 1 -->
<svg width="434pt" height="154pt"
 viewBox="0.00 0.00 434.00 154.00" xmlns="http://www.w3.org/2000/svg" xmlns:xlink="http://www.w3.org/1999/xlink">
<g id="graph0" class="graph" transform="scale(1 1) rotate(0) translate(4 150)">
<title>EshelbianPlasticity::OpPostProcDataStructure</title>
<polygon fill="white" stroke="transparent" points="-4,4 -4,-150 430,-150 430,4 -4,4"/>
<!-- Node1 -->
<g id="node1" class="node">
<title>Node1</title>
<g id="a_node1"><a xlink:title=" ">
<polygon fill="#bfbfbf" stroke="black" points="280,-61 280,-91 426,-91 426,-61 280,-61"/>
<text text-anchor="start" x="288" y="-79" font-family="Helvetica,sans-Serif" font-size="10.00">EshelbianPlasticity</text>
<text text-anchor="middle" x="353" y="-68" font-family="Helvetica,sans-Serif" font-size="10.00">::OpPostProcDataStructure</text>
</a>
</g>
</g>
<!-- Node2 -->
<g id="node2" class="node">
<title>Node2</title>
<g id="a_node2"><a xlink:title=" ">
<polygon fill="white" stroke="#bfbfbf" points="22.5,-126.5 22.5,-145.5 149.5,-145.5 149.5,-126.5 22.5,-126.5"/>
<text text-anchor="middle" x="86" y="-133.5" font-family="Helvetica,sans-Serif" font-size="10.00">FaceUserDataOperator</text>
</a>
</g>
</g>
<!-- Node2&#45;&gt;Node1 -->
<g id="edge1" class="edge">
<title>Node2&#45;&gt;Node1</title>
<path fill="none" stroke="midnightblue" d="M156.3,-124.66C188.6,-118.93 227.44,-111.42 262,-103 276.11,-99.56 291.28,-95.25 305.08,-91.09"/>
<polygon fill="midnightblue" stroke="midnightblue" points="155.31,-121.28 146.06,-126.45 156.52,-128.18 155.31,-121.28"/>
</g>
<!-- Node3 -->
<g id="node3" class="node">
<title>Node3</title>
<g id="a_node3"><a xlink:title=" ">
<polygon fill="white" stroke="#bfbfbf" points="50.5,-88.5 50.5,-107.5 121.5,-107.5 121.5,-88.5 50.5,-88.5"/>
<text text-anchor="middle" x="86" y="-95.5" font-family="Helvetica,sans-Serif" font-size="10.00">Interface &amp;</text>
</a>
</g>
</g>
<!-- Node3&#45;&gt;Node1 -->
<g id="edge2" class="edge">
<title>Node3&#45;&gt;Node1</title>
<path fill="none" stroke="#9a32cd" stroke-dasharray="5,2" d="M131.74,-94.29C172.24,-90.92 232.59,-85.91 279.89,-81.99"/>
<polygon fill="#9a32cd" stroke="#9a32cd" points="131.32,-90.81 121.64,-95.12 131.9,-97.78 131.32,-90.81"/>
<text text-anchor="middle" x="226" y="-91" font-family="Helvetica,sans-Serif" font-size="10.00"> postProcMesh</text>
</g>
<!-- Node4 -->
<g id="node4" class="node">
<title>Node4</title>
<g id="a_node4"><a xlink:title=" ">
<polygon fill="white" stroke="#bfbfbf" points="0,-39 0,-69 172,-69 172,-39 0,-39"/>
<text text-anchor="start" x="8" y="-57" font-family="Helvetica,sans-Serif" font-size="10.00">shared_ptr&lt; EshelbianPlasticity</text>
<text text-anchor="middle" x="86" y="-46" font-family="Helvetica,sans-Serif" font-size="10.00">::DataAtIntegrationPts &gt;</text>
</a>
</g>
</g>
<!-- Node4&#45;&gt;Node1 -->
<g id="edge3" class="edge">
<title>Node4&#45;&gt;Node1</title>
<path fill="none" stroke="#9a32cd" stroke-dasharray="5,2" d="M182.2,-61.46C208.09,-63.53 236.13,-65.82 262,-68 267.78,-68.49 273.78,-69 279.79,-69.53"/>
<polygon fill="#9a32cd" stroke="#9a32cd" points="182.26,-57.96 172.02,-60.65 181.71,-64.93 182.26,-57.96"/>
<text text-anchor="middle" x="226" y="-71" font-family="Helvetica,sans-Serif" font-size="10.00"> dataAtPts</text>
</g>
<!-- Node5 -->
<g id="node5" class="node">
<title>Node5</title>
<g id="a_node5"><a xlink:title=" ">
<polygon fill="white" stroke="#bfbfbf" points="14.5,-0.5 14.5,-19.5 157.5,-19.5 157.5,-0.5 14.5,-0.5"/>
<text text-anchor="middle" x="86" y="-7.5" font-family="Helvetica,sans-Serif" font-size="10.00">vector&lt; EntityHandle &gt; &amp;</text>
</a>
</g>
</g>
<!-- Node5&#45;&gt;Node1 -->
<g id="edge4" class="edge">
<title>Node5&#45;&gt;Node1</title>
<path fill="none" stroke="#9a32cd" stroke-dasharray="5,2" d="M149.16,-21.52C182.77,-28.15 224.88,-37.12 262,-47 277.23,-51.05 293.69,-56.14 308.32,-60.92"/>
<polygon fill="#9a32cd" stroke="#9a32cd" points="149.51,-18.02 139.02,-19.54 148.16,-24.89 149.51,-18.02"/>
<text text-anchor="middle" x="226" y="-50" font-family="Helvetica,sans-Serif" font-size="10.00"> mapGaussPts</text>
</g>
</g>
</svg>
