<?xml version="1.0" encoding="UTF-8" standalone="no"?>
<!DOCTYPE svg PUBLIC "-//W3C//DTD SVG 1.1//EN"
 "http://www.w3.org/Graphics/SVG/1.1/DTD/svg11.dtd">
<!-- Generated by graphviz version 2.43.0 (0)
 -->
<!-- Title: CohesiveElement::CohesiveInterfaceElement::OpCalculateGapLocal Pages: 1 -->
<svg width="388pt" height="195pt"
 viewBox="0.00 0.00 387.50 195.00" xmlns="http://www.w3.org/2000/svg" xmlns:xlink="http://www.w3.org/1999/xlink">
<g id="graph0" class="graph" transform="scale(1 1) rotate(0) translate(4 191)">
<title>CohesiveElement::CohesiveInterfaceElement::OpCalculateGapLocal</title>
<polygon fill="white" stroke="transparent" points="-4,4 -4,-191 383.5,-191 383.5,4 -4,4"/>
<!-- Node1 -->
<g id="node1" class="node">
<title>Node1</title>
<g id="a_node1"><a xlink:title="Operator calculate gap in local coordinate system.">
<polygon fill="#bfbfbf" stroke="black" points="0,-0.5 0,-30.5 211,-30.5 211,-0.5 0,-0.5"/>
<text text-anchor="start" x="8" y="-18.5" font-family="Helvetica,sans-Serif" font-size="10.00">CohesiveElement::Cohesive</text>
<text text-anchor="middle" x="105.5" y="-7.5" font-family="Helvetica,sans-Serif" font-size="10.00">InterfaceElement::OpCalculateGapLocal</text>
</a>
</g>
</g>
<!-- Node2 -->
<g id="node2" class="node">
<title>Node2</title>
<g id="a_node2"><a xlink:title=" ">
<polygon fill="white" stroke="#bfbfbf" points="37,-84 37,-103 142,-103 142,-84 37,-84"/>
<text text-anchor="middle" x="89.5" y="-91" font-family="Helvetica,sans-Serif" font-size="10.00">UserDataOperator</text>
</a>
</g>
</g>
<!-- Node2&#45;&gt;Node1 -->
<g id="edge1" class="edge">
<title>Node2&#45;&gt;Node1</title>
<path fill="none" stroke="midnightblue" d="M93.44,-73.78C96.26,-60.4 99.99,-42.69 102.55,-30.52"/>
<polygon fill="midnightblue" stroke="midnightblue" points="89.97,-73.28 91.34,-83.78 96.82,-74.72 89.97,-73.28"/>
</g>
<!-- Node3 -->
<g id="node3" class="node">
<title>Node3</title>
<g id="a_node3"><a xlink:href="structCohesiveElement_1_1CohesiveInterfaceElement_1_1CommonData.html" target="_top" xlink:title=" ">
<polygon fill="white" stroke="black" points="160.5,-78.5 160.5,-108.5 334.5,-108.5 334.5,-78.5 160.5,-78.5"/>
<text text-anchor="start" x="168.5" y="-96.5" font-family="Helvetica,sans-Serif" font-size="10.00">CohesiveElement::Cohesive</text>
<text text-anchor="middle" x="247.5" y="-85.5" font-family="Helvetica,sans-Serif" font-size="10.00">InterfaceElement::CommonData</text>
</a>
</g>
</g>
<!-- Node3&#45;&gt;Node1 -->
<g id="edge2" class="edge">
<title>Node3&#45;&gt;Node1</title>
<path fill="none" stroke="#9a32cd" stroke-dasharray="5,2" d="M212,-73.5C187.08,-60.16 154.31,-42.62 131.74,-30.54"/>
<polygon fill="#9a32cd" stroke="#9a32cd" points="210.66,-76.75 221.12,-78.38 213.96,-70.58 210.66,-76.75"/>
<text text-anchor="middle" x="220.5" y="-52" font-family="Helvetica,sans-Serif" font-size="10.00"> commonData</text>
</g>
<!-- Node4 -->
<g id="node4" class="node">
<title>Node4</title>
<g id="a_node4"><a xlink:title=" ">
<polygon fill="white" stroke="#bfbfbf" points="142,-167.5 142,-186.5 225,-186.5 225,-167.5 142,-167.5"/>
<text text-anchor="middle" x="183.5" y="-174.5" font-family="Helvetica,sans-Serif" font-size="10.00">MatrixDouble</text>
</a>
</g>
</g>
<!-- Node4&#45;&gt;Node3 -->
<g id="edge3" class="edge">
<title>Node4&#45;&gt;Node3</title>
<path fill="none" stroke="#9a32cd" stroke-dasharray="5,2" d="M196.56,-159.37C208.3,-144.42 225.35,-122.71 236.43,-108.6"/>
<polygon fill="#9a32cd" stroke="#9a32cd" points="193.77,-157.25 190.35,-167.28 199.28,-161.57 193.77,-157.25"/>
<text text-anchor="middle" x="242" y="-141" font-family="Helvetica,sans-Serif" font-size="10.00"> gapLoc</text>
<text text-anchor="middle" x="242" y="-130" font-family="Helvetica,sans-Serif" font-size="10.00">gapGlob</text>
</g>
<!-- Node5 -->
<g id="node5" class="node">
<title>Node5</title>
<g id="a_node5"><a xlink:title=" ">
<polygon fill="white" stroke="#bfbfbf" points="243.5,-167.5 243.5,-186.5 379.5,-186.5 379.5,-167.5 243.5,-167.5"/>
<text text-anchor="middle" x="311.5" y="-174.5" font-family="Helvetica,sans-Serif" font-size="10.00">vector&lt; MatrixDouble &gt;</text>
</a>
</g>
</g>
<!-- Node5&#45;&gt;Node3 -->
<g id="edge4" class="edge">
<title>Node5&#45;&gt;Node3</title>
<path fill="none" stroke="#9a32cd" stroke-dasharray="5,2" d="M298.44,-159.37C286.7,-144.42 269.65,-122.71 258.57,-108.6"/>
<polygon fill="#9a32cd" stroke="#9a32cd" points="295.72,-161.57 304.65,-167.28 301.23,-157.25 295.72,-161.57"/>
<text text-anchor="middle" x="293.5" y="-135.5" font-family="Helvetica,sans-Serif" font-size="10.00"> R</text>
</g>
</g>
</svg>
