<?xml version="1.0" encoding="UTF-8" standalone="no"?>
<!DOCTYPE svg PUBLIC "-//W3C//DTD SVG 1.1//EN"
 "http://www.w3.org/Graphics/SVG/1.1/DTD/svg11.dtd">
<!-- Generated by graphviz version 2.43.0 (0)
 -->
<!-- Title: MethodForForceScaling Pages: 1 -->
<svg width="359pt" height="361pt"
 viewBox="0.00 0.00 359.00 360.50" xmlns="http://www.w3.org/2000/svg" xmlns:xlink="http://www.w3.org/1999/xlink">
<g id="graph0" class="graph" transform="scale(1 1) rotate(0) translate(4 356.5)">
<title>MethodForForceScaling</title>
<polygon fill="white" stroke="transparent" points="-4,4 -4,-356.5 355,-356.5 355,4 -4,4"/>
<!-- Node1 -->
<g id="node1" class="node">
<title>Node1</title>
<g id="a_node1"><a xlink:title="Class used to scale loads, f.e. in arc&#45;length control.">
<polygon fill="#bfbfbf" stroke="black" points="0,-155.5 0,-174.5 130,-174.5 130,-155.5 0,-155.5"/>
<text text-anchor="middle" x="65" y="-162.5" font-family="Helvetica,sans-Serif" font-size="10.00">MethodForForceScaling</text>
</a>
</g>
</g>
<!-- Node2 -->
<g id="node2" class="node">
<title>Node2</title>
<g id="a_node2"><a xlink:href="structBasicBoundaryConditionsInterface_1_1LoadScale.html" target="_top" xlink:title=" ">
<polygon fill="white" stroke="black" points="166,-322 166,-352 351,-352 351,-322 166,-322"/>
<text text-anchor="start" x="174" y="-340" font-family="Helvetica,sans-Serif" font-size="10.00">BasicBoundaryConditionsInterface</text>
<text text-anchor="middle" x="258.5" y="-329" font-family="Helvetica,sans-Serif" font-size="10.00">::LoadScale</text>
</a>
</g>
</g>
<!-- Node1&#45;&gt;Node2 -->
<g id="edge1" class="edge">
<title>Node1&#45;&gt;Node2</title>
<path fill="none" stroke="midnightblue" d="M73.59,-184.22C87.18,-216.04 118.72,-279.49 166,-313 170.82,-316.42 176.1,-319.35 181.61,-321.86"/>
<polygon fill="midnightblue" stroke="midnightblue" points="76.73,-182.63 69.68,-174.72 70.26,-185.3 76.73,-182.63"/>
</g>
<!-- Node3 -->
<g id="node3" class="node">
<title>Node3</title>
<g id="a_node3"><a xlink:href="structMetaNodalForces_1_1DofForceScale.html" target="_top" xlink:title="Scale force based on some DOF value.">
<polygon fill="white" stroke="black" points="183,-273 183,-303 334,-303 334,-273 183,-273"/>
<text text-anchor="start" x="191" y="-291" font-family="Helvetica,sans-Serif" font-size="10.00">MetaNodalForces::DofForce</text>
<text text-anchor="middle" x="258.5" y="-280" font-family="Helvetica,sans-Serif" font-size="10.00">Scale</text>
</a>
</g>
</g>
<!-- Node1&#45;&gt;Node3 -->
<g id="edge2" class="edge">
<title>Node1&#45;&gt;Node3</title>
<path fill="none" stroke="midnightblue" d="M79.1,-182.81C96.47,-205.15 129.26,-243.04 166,-264 171.99,-267.42 178.48,-270.36 185.14,-272.89"/>
<polygon fill="midnightblue" stroke="midnightblue" points="81.66,-180.4 72.83,-174.55 76.09,-184.63 81.66,-180.4"/>
</g>
<!-- Node4 -->
<g id="node4" class="node">
<title>Node4</title>
<g id="a_node4"><a xlink:href="structMetaNodalForces_1_1TagForceScale.html" target="_top" xlink:title="Scale force based on tag value &quot;_LoadFactor_Scale_&quot;.">
<polygon fill="white" stroke="black" points="183.5,-224 183.5,-254 333.5,-254 333.5,-224 183.5,-224"/>
<text text-anchor="start" x="191.5" y="-242" font-family="Helvetica,sans-Serif" font-size="10.00">MetaNodalForces::TagForce</text>
<text text-anchor="middle" x="258.5" y="-231" font-family="Helvetica,sans-Serif" font-size="10.00">Scale</text>
</a>
</g>
</g>
<!-- Node1&#45;&gt;Node4 -->
<g id="edge3" class="edge">
<title>Node1&#45;&gt;Node4</title>
<path fill="none" stroke="midnightblue" d="M91.5,-179.6C111.32,-190.49 139.77,-205.13 166,-215 174.61,-218.24 183.83,-221.21 192.98,-223.88"/>
<polygon fill="midnightblue" stroke="midnightblue" points="92.95,-176.4 82.51,-174.59 89.54,-182.51 92.95,-176.4"/>
</g>
<!-- Node5 -->
<g id="node5" class="node">
<title>Node5</title>
<g id="a_node5"><a xlink:href="structMortarContactProblem_1_1LoadScale.html" target="_top" xlink:title=" ">
<polygon fill="white" stroke="black" points="195,-175 195,-205 322,-205 322,-175 195,-175"/>
<text text-anchor="start" x="203" y="-193" font-family="Helvetica,sans-Serif" font-size="10.00">MortarContactProblem</text>
<text text-anchor="middle" x="258.5" y="-182" font-family="Helvetica,sans-Serif" font-size="10.00">::LoadScale</text>
</a>
</g>
</g>
<!-- Node1&#45;&gt;Node5 -->
<g id="edge4" class="edge">
<title>Node1&#45;&gt;Node5</title>
<path fill="none" stroke="midnightblue" d="M139.97,-174.66C158.08,-177.02 177.3,-179.53 194.83,-181.82"/>
<polygon fill="midnightblue" stroke="midnightblue" points="140.4,-171.18 130.03,-173.36 139.5,-178.12 140.4,-171.18"/>
</g>
<!-- Node6 -->
<g id="node6" class="node">
<title>Node6</title>
<g id="a_node6"><a xlink:href="structNavierStokesElement_1_1LoadScale.html" target="_top" xlink:title=" ">
<polygon fill="white" stroke="black" points="197.5,-126 197.5,-156 319.5,-156 319.5,-126 197.5,-126"/>
<text text-anchor="start" x="205.5" y="-144" font-family="Helvetica,sans-Serif" font-size="10.00">NavierStokesElement</text>
<text text-anchor="middle" x="258.5" y="-133" font-family="Helvetica,sans-Serif" font-size="10.00">::LoadScale</text>
</a>
</g>
</g>
<!-- Node1&#45;&gt;Node6 -->
<g id="edge5" class="edge">
<title>Node1&#45;&gt;Node6</title>
<path fill="none" stroke="midnightblue" d="M140.12,-155.71C159.09,-153.33 179.25,-150.81 197.41,-148.53"/>
<polygon fill="midnightblue" stroke="midnightblue" points="139.52,-152.26 130.03,-156.97 140.39,-159.2 139.52,-152.26"/>
</g>
<!-- Node7 -->
<g id="node7" class="node">
<title>Node7</title>
<g id="a_node7"><a xlink:href="structSimpleContactProblem_1_1LoadScale.html" target="_top" xlink:title=" ">
<polygon fill="white" stroke="black" points="194.5,-77 194.5,-107 322.5,-107 322.5,-77 194.5,-77"/>
<text text-anchor="start" x="202.5" y="-95" font-family="Helvetica,sans-Serif" font-size="10.00">SimpleContactProblem</text>
<text text-anchor="middle" x="258.5" y="-84" font-family="Helvetica,sans-Serif" font-size="10.00">::LoadScale</text>
</a>
</g>
</g>
<!-- Node1&#45;&gt;Node7 -->
<g id="edge6" class="edge">
<title>Node1&#45;&gt;Node7</title>
<path fill="none" stroke="midnightblue" d="M92.67,-150.56C112.49,-140.24 140.42,-126.55 166,-117 175.72,-113.37 186.2,-110.02 196.47,-107.02"/>
<polygon fill="midnightblue" stroke="midnightblue" points="90.85,-147.57 83.64,-155.33 94.12,-153.76 90.85,-147.57"/>
</g>
<!-- Node8 -->
<g id="node8" class="node">
<title>Node8</title>
<g id="a_node8"><a xlink:href="structTimeAccelerogram.html" target="_top" xlink:title=" ">
<polygon fill="white" stroke="black" points="204,-38.5 204,-57.5 313,-57.5 313,-38.5 204,-38.5"/>
<text text-anchor="middle" x="258.5" y="-45.5" font-family="Helvetica,sans-Serif" font-size="10.00">TimeAccelerogram</text>
</a>
</g>
</g>
<!-- Node1&#45;&gt;Node8 -->
<g id="edge7" class="edge">
<title>Node1&#45;&gt;Node8</title>
<path fill="none" stroke="midnightblue" d="M79.31,-146.98C96.7,-124.81 129.29,-87.71 166,-68 177.6,-61.77 191.03,-57.48 203.95,-54.53"/>
<polygon fill="midnightblue" stroke="midnightblue" points="76.32,-145.14 73.02,-155.21 81.88,-149.39 76.32,-145.14"/>
</g>
<!-- Node9 -->
<g id="node9" class="node">
<title>Node9</title>
<g id="a_node9"><a xlink:href="structTimeForceScale.html" target="_top" xlink:title="Force scale operator for reading two columns.">
<polygon fill="white" stroke="black" points="211.5,-0.5 211.5,-19.5 305.5,-19.5 305.5,-0.5 211.5,-0.5"/>
<text text-anchor="middle" x="258.5" y="-7.5" font-family="Helvetica,sans-Serif" font-size="10.00">TimeForceScale</text>
</a>
</g>
</g>
<!-- Node1&#45;&gt;Node9 -->
<g id="edge8" class="edge">
<title>Node1&#45;&gt;Node9</title>
<path fill="none" stroke="midnightblue" d="M74.45,-145.83C88.72,-115.82 120.56,-58.18 166,-29 179.38,-20.41 195.92,-15.61 211.25,-12.96"/>
<polygon fill="midnightblue" stroke="midnightblue" points="71.14,-144.65 70.14,-155.2 77.5,-147.57 71.14,-144.65"/>
</g>
</g>
</svg>
