<?xml version="1.0" encoding="UTF-8" standalone="no"?>
<!DOCTYPE svg PUBLIC "-//W3C//DTD SVG 1.1//EN"
 "http://www.w3.org/Graphics/SVG/1.1/DTD/svg11.dtd">
<!-- Generated by graphviz version 2.43.0 (0)
 -->
<!-- Title: ThermalElement::OpGetFieldAtGaussPts&lt; OP &gt; Pages: 1 -->
<svg width="247pt" height="106pt"
 viewBox="0.00 0.00 246.50 106.00" xmlns="http://www.w3.org/2000/svg" xmlns:xlink="http://www.w3.org/1999/xlink">
<g id="graph0" class="graph" transform="scale(1 1) rotate(0) translate(4 102)">
<title>ThermalElement::OpGetFieldAtGaussPts&lt; OP &gt;</title>
<polygon fill="white" stroke="transparent" points="-4,4 -4,-102 242.5,-102 242.5,4 -4,4"/>
<!-- Node1 -->
<g id="node1" class="node">
<title>Node1</title>
<g id="a_node1"><a xlink:title="operator to calculate temperature and rate of temperature at Gauss points">
<polygon fill="#bfbfbf" stroke="black" points="44.5,-0.5 44.5,-30.5 202.5,-30.5 202.5,-0.5 44.5,-0.5"/>
<text text-anchor="start" x="52.5" y="-18.5" font-family="Helvetica,sans-Serif" font-size="10.00">ThermalElement::OpGetField</text>
<text text-anchor="middle" x="123.5" y="-7.5" font-family="Helvetica,sans-Serif" font-size="10.00">AtGaussPts&lt; OP &gt;</text>
</a>
</g>
</g>
<!-- Node2 -->
<g id="node2" class="node">
<title>Node2</title>
<g id="a_node2"><a xlink:title=" ">
<polygon fill="white" stroke="#bfbfbf" points="0,-78.5 0,-97.5 125,-97.5 125,-78.5 0,-78.5"/>
<text text-anchor="middle" x="62.5" y="-85.5" font-family="Helvetica,sans-Serif" font-size="10.00">OP::UserDataOperator</text>
</a>
</g>
</g>
<!-- Node2&#45;&gt;Node1 -->
<g id="edge1" class="edge">
<title>Node2&#45;&gt;Node1</title>
<path fill="none" stroke="midnightblue" d="M76.57,-70.74C87.07,-58.6 101.3,-42.16 111.32,-30.58"/>
<polygon fill="midnightblue" stroke="midnightblue" points="73.88,-68.5 69.98,-78.36 79.17,-73.08 73.88,-68.5"/>
</g>
<!-- Node3 -->
<g id="node3" class="node">
<title>Node3</title>
<g id="a_node3"><a xlink:title=" ">
<polygon fill="white" stroke="#bfbfbf" points="143.5,-78.5 143.5,-97.5 225.5,-97.5 225.5,-78.5 143.5,-78.5"/>
<text text-anchor="middle" x="184.5" y="-85.5" font-family="Helvetica,sans-Serif" font-size="10.00">VectorDouble</text>
</a>
</g>
</g>
<!-- Node3&#45;&gt;Node1 -->
<g id="edge2" class="edge">
<title>Node3&#45;&gt;Node1</title>
<path fill="none" stroke="#9a32cd" stroke-dasharray="5,2" d="M170.43,-70.74C159.93,-58.6 145.7,-42.16 135.68,-30.58"/>
<polygon fill="#9a32cd" stroke="#9a32cd" points="167.83,-73.08 177.02,-78.36 173.12,-68.5 167.83,-73.08"/>
<text text-anchor="middle" x="198.5" y="-52" font-family="Helvetica,sans-Serif" font-size="10.00"> fieldAtGaussPts</text>
</g>
</g>
</svg>
