<?xml version="1.0" encoding="UTF-8" standalone="no"?>
<!DOCTYPE svg PUBLIC "-//W3C//DTD SVG 1.1//EN"
 "http://www.w3.org/Graphics/SVG/1.1/DTD/svg11.dtd">
<!-- Generated by graphviz version 9.0.0 (20230911.1827)
 -->
<!-- Title: MoFEM::NumeredDofEntity_part_and_indices_change Pages: 1 -->
<svg width="180pt" height="116pt"
 viewBox="0.00 0.00 179.75 116.25" xmlns="http://www.w3.org/2000/svg" xmlns:xlink="http://www.w3.org/1999/xlink">
<g id="graph0" class="graph" transform="scale(1 1) rotate(0) translate(4 112.25)">
<title>MoFEM::NumeredDofEntity_part_and_indices_change</title>
<!-- Node1 -->
<g id="node1" class="node">
<title>Node1</title>
<g id="a_node1"><a xlink:title=" ">
<polygon fill="#999999" stroke="#666666" points="137.5,-30.5 0,-30.5 0,0 137.5,0 137.5,-30.5"/>
<text text-anchor="start" x="8" y="-17" font-family="Helvetica,sans-Serif" font-size="10.00">MoFEM::NumeredDofEntity</text>
<text text-anchor="middle" x="68.75" y="-5.75" font-family="Helvetica,sans-Serif" font-size="10.00">_part_and_indices_change</text>
</a>
</g>
</g>
<!-- Node2 -->
<g id="node2" class="node">
<title>Node2</title>
<g id="a_node2"><a xlink:title=" ">
<polygon fill="white" stroke="#666666" points="66.25,-108.25 11.25,-108.25 11.25,-89 66.25,-89 66.25,-108.25"/>
<text text-anchor="middle" x="38.75" y="-94.75" font-family="Helvetica,sans-Serif" font-size="10.00">unsigned</text>
</a>
</g>
</g>
<!-- Node2&#45;&gt;Node1 -->
<g id="edge1" class="edge">
<title>Node2&#45;&gt;Node1</title>
<path fill="none" stroke="#9a32cd" stroke-dasharray="5,2" d="M45.41,-77.65C48.46,-68.69 52.18,-58.03 55.75,-48.5 57.91,-42.73 60.41,-36.44 62.64,-30.96"/>
<polygon fill="#9a32cd" stroke="#9a32cd" points="42.11,-76.49 42.23,-87.09 48.74,-78.73 42.11,-76.49"/>
<text text-anchor="middle" x="66.25" y="-55.88" font-family="Helvetica,sans-Serif" font-size="10.00"> pArt</text>
</g>
<!-- Node3 -->
<g id="node3" class="node">
<title>Node3</title>
<g id="a_node3"><a xlink:title=" ">
<polygon fill="white" stroke="#666666" points="113.15,-108.25 84.35,-108.25 84.35,-89 113.15,-89 113.15,-108.25"/>
<text text-anchor="middle" x="98.75" y="-94.75" font-family="Helvetica,sans-Serif" font-size="10.00">int</text>
</a>
</g>
</g>
<!-- Node3&#45;&gt;Node1 -->
<g id="edge2" class="edge">
<title>Node3&#45;&gt;Node1</title>
<path fill="none" stroke="#9a32cd" stroke-dasharray="5,2" d="M91.6,-78.23C86.23,-63.66 78.99,-44.03 74.11,-30.79"/>
<polygon fill="#9a32cd" stroke="#9a32cd" points="88.16,-79.01 94.9,-87.19 94.73,-76.59 88.16,-79.01"/>
<text text-anchor="middle" x="129.75" y="-61.5" font-family="Helvetica,sans-Serif" font-size="10.00"> petscGloablDofIdx</text>
<text text-anchor="middle" x="129.75" y="-50.25" font-family="Helvetica,sans-Serif" font-size="10.00">petscLocalDofIdx</text>
</g>
</g>
</svg>
