<?xml version="1.0" encoding="UTF-8" standalone="no"?>
<!DOCTYPE svg PUBLIC "-//W3C//DTD SVG 1.1//EN"
 "http://www.w3.org/Graphics/SVG/1.1/DTD/svg11.dtd">
<!-- Generated by graphviz version 9.0.0 (20230911.1827)
 -->
<!-- Title: MoFEM::OpCalculateScalarFieldValues_General&lt; T, A &gt; Pages: 1 -->
<svg width="318pt" height="375pt"
 viewBox="0.00 0.00 317.75 375.00" xmlns="http://www.w3.org/2000/svg" xmlns:xlink="http://www.w3.org/1999/xlink">
<g id="graph0" class="graph" transform="scale(1 1) rotate(0) translate(4 371)">
<title>MoFEM::OpCalculateScalarFieldValues_General&lt; T, A &gt;</title>
<!-- Node1 -->
<g id="node1" class="node">
<title>Node1</title>
<g id="a_node1"><a xlink:title="Scalar field values at integration points.">
<polygon fill="#999999" stroke="#666666" points="224,-243.25 85.75,-243.25 85.75,-212.75 224,-212.75 224,-243.25"/>
<text text-anchor="start" x="93.75" y="-229.75" font-family="Helvetica,sans-Serif" font-size="10.00">MoFEM::OpCalculateScalar</text>
<text text-anchor="middle" x="154.88" y="-218.5" font-family="Helvetica,sans-Serif" font-size="10.00">FieldValues_General&lt; T, A &gt;</text>
</a>
</g>
</g>
<!-- Node4 -->
<g id="node4" class="node">
<title>Node4</title>
<g id="a_node4"><a xlink:href="struct_mo_f_e_m_1_1_op_calculate_scalar_field_values___general.html" target="_top" xlink:title=" ">
<polygon fill="white" stroke="#666666" points="227.75,-165.5 82,-165.5 82,-123.75 227.75,-123.75 227.75,-165.5"/>
<text text-anchor="start" x="90" y="-152" font-family="Helvetica,sans-Serif" font-size="10.00">MoFEM::OpCalculateScalar</text>
<text text-anchor="start" x="90" y="-140.75" font-family="Helvetica,sans-Serif" font-size="10.00">FieldValues_General&lt; double,</text>
<text text-anchor="middle" x="154.88" y="-129.5" font-family="Helvetica,sans-Serif" font-size="10.00"> DoubleAllocator &gt;</text>
</a>
</g>
</g>
<!-- Node1&#45;&gt;Node4 -->
<g id="edge3" class="edge">
<title>Node1&#45;&gt;Node4</title>
<path fill="none" stroke="orange" stroke-dasharray="5,2" d="M154.88,-201.01C154.88,-189.63 154.88,-176.48 154.88,-165.85"/>
<polygon fill="orange" stroke="orange" points="151.38,-200.94 154.88,-210.94 158.38,-200.94 151.38,-200.94"/>
<text text-anchor="middle" x="217.12" y="-185.25" font-family="Helvetica,sans-Serif" font-size="10.00"> &lt; double, DoubleAllocator &gt;</text>
</g>
<!-- Node2 -->
<g id="node2" class="node">
<title>Node2</title>
<g id="a_node2"><a xlink:href="struct_mo_f_e_m_1_1_forces_and_sources_core_1_1_user_data_operator.html" target="_top" xlink:title=" ">
<polygon fill="white" stroke="#666666" points="235.25,-310.75 74.5,-310.75 74.5,-280.25 235.25,-280.25 235.25,-310.75"/>
<text text-anchor="start" x="82.5" y="-297.25" font-family="Helvetica,sans-Serif" font-size="10.00">MoFEM::ForcesAndSourcesCore</text>
<text text-anchor="middle" x="154.88" y="-286" font-family="Helvetica,sans-Serif" font-size="10.00">::UserDataOperator</text>
</a>
</g>
</g>
<!-- Node2&#45;&gt;Node1 -->
<g id="edge1" class="edge">
<title>Node2&#45;&gt;Node1</title>
<path fill="none" stroke="#63b8ff" d="M154.88,-268.59C154.88,-260.05 154.88,-250.87 154.88,-243.5"/>
<polygon fill="#63b8ff" stroke="#63b8ff" points="151.38,-268.45 154.88,-278.45 158.38,-268.45 151.38,-268.45"/>
</g>
<!-- Node3 -->
<g id="node3" class="node">
<title>Node3</title>
<g id="a_node3"><a xlink:href="struct_mo_f_e_m_1_1_data_operator.html" target="_top" xlink:title="base operator to do operations at Gauss Pt. level">
<polygon fill="white" stroke="#666666" points="212.38,-367 97.38,-367 97.38,-347.75 212.38,-347.75 212.38,-367"/>
<text text-anchor="middle" x="154.88" y="-353.5" font-family="Helvetica,sans-Serif" font-size="10.00">MoFEM::DataOperator</text>
</a>
</g>
</g>
<!-- Node3&#45;&gt;Node2 -->
<g id="edge2" class="edge">
<title>Node3&#45;&gt;Node2</title>
<path fill="none" stroke="#63b8ff" d="M154.88,-335.94C154.88,-327.68 154.88,-318.34 154.88,-310.82"/>
<polygon fill="#63b8ff" stroke="#63b8ff" points="151.38,-335.77 154.88,-345.77 158.38,-335.77 151.38,-335.77"/>
</g>
<!-- Node5 -->
<g id="node5" class="node">
<title>Node5</title>
<g id="a_node5"><a xlink:href="struct_mo_f_e_m_1_1_op_calculate_scalar_field_values.html" target="_top" xlink:title="Get value at integration points for scalar field.">
<polygon fill="white" stroke="#666666" points="224,-86.75 85.75,-86.75 85.75,-56.25 224,-56.25 224,-86.75"/>
<text text-anchor="start" x="93.75" y="-73.25" font-family="Helvetica,sans-Serif" font-size="10.00">MoFEM::OpCalculateScalar</text>
<text text-anchor="middle" x="154.88" y="-62" font-family="Helvetica,sans-Serif" font-size="10.00">FieldValues</text>
</a>
</g>
</g>
<!-- Node4&#45;&gt;Node5 -->
<g id="edge4" class="edge">
<title>Node4&#45;&gt;Node5</title>
<path fill="none" stroke="#63b8ff" d="M154.88,-112.2C154.88,-103.36 154.88,-94.17 154.88,-86.87"/>
<polygon fill="#63b8ff" stroke="#63b8ff" points="151.38,-111.92 154.88,-121.92 158.38,-111.92 151.38,-111.92"/>
</g>
<!-- Node6 -->
<g id="node6" class="node">
<title>Node6</title>
<g id="a_node6"><a xlink:href="struct_cell_engineering_1_1_op_get_disp_x.html" target="_top" xlink:title=" ">
<polygon fill="white" stroke="#666666" points="145.75,-19.25 0,-19.25 0,0 145.75,0 145.75,-19.25"/>
<text text-anchor="middle" x="72.88" y="-5.75" font-family="Helvetica,sans-Serif" font-size="10.00">CellEngineering::OpGetDispX</text>
</a>
</g>
</g>
<!-- Node5&#45;&gt;Node6 -->
<g id="edge5" class="edge">
<title>Node5&#45;&gt;Node6</title>
<path fill="none" stroke="#63b8ff" d="M125.78,-49.26C111.83,-39.07 95.87,-27.42 85.16,-19.6"/>
<polygon fill="#63b8ff" stroke="#63b8ff" points="123.66,-52.04 133.8,-55.11 127.79,-46.39 123.66,-52.04"/>
</g>
<!-- Node7 -->
<g id="node7" class="node">
<title>Node7</title>
<g id="a_node7"><a xlink:href="struct_cell_engineering_1_1_op_get_disp_y.html" target="_top" xlink:title=" ">
<polygon fill="white" stroke="#666666" points="309.75,-19.25 164,-19.25 164,0 309.75,0 309.75,-19.25"/>
<text text-anchor="middle" x="236.88" y="-5.75" font-family="Helvetica,sans-Serif" font-size="10.00">CellEngineering::OpGetDispY</text>
</a>
</g>
</g>
<!-- Node5&#45;&gt;Node7 -->
<g id="edge6" class="edge">
<title>Node5&#45;&gt;Node7</title>
<path fill="none" stroke="#63b8ff" d="M183.97,-49.26C197.92,-39.07 213.88,-27.42 224.59,-19.6"/>
<polygon fill="#63b8ff" stroke="#63b8ff" points="181.96,-46.39 175.95,-55.11 186.09,-52.04 181.96,-46.39"/>
</g>
</g>
</svg>
