<?xml version="1.0" encoding="UTF-8" standalone="no"?>
<!DOCTYPE svg PUBLIC "-//W3C//DTD SVG 1.1//EN"
 "http://www.w3.org/Graphics/SVG/1.1/DTD/svg11.dtd">
<!-- Generated by graphviz version 2.43.0 (0)
 -->
<!-- Title: LevelSet::OpRhsSkeleton Pages: 1 -->
<svg width="392pt" height="154pt"
 viewBox="0.00 0.00 392.00 154.00" xmlns="http://www.w3.org/2000/svg" xmlns:xlink="http://www.w3.org/1999/xlink">
<g id="graph0" class="graph" transform="scale(1 1) rotate(0) translate(4 150)">
<title>LevelSet::OpRhsSkeleton</title>
<polygon fill="white" stroke="transparent" points="-4,4 -4,-150 388,-150 388,4 -4,4"/>
<!-- Node1 -->
<g id="node1" class="node">
<title>Node1</title>
<g id="a_node1"><a xlink:title=" ">
<polygon fill="#bfbfbf" stroke="black" points="246,-66.5 246,-85.5 384,-85.5 384,-66.5 246,-66.5"/>
<text text-anchor="middle" x="315" y="-73.5" font-family="Helvetica,sans-Serif" font-size="10.00">LevelSet::OpRhsSkeleton</text>
</a>
</g>
</g>
<!-- Node2 -->
<g id="node2" class="node">
<title>Node2</title>
<g id="a_node2"><a xlink:href="classBoundaryEleOp.html" target="_top" xlink:title=" ">
<polygon fill="white" stroke="black" points="28.5,-126.5 28.5,-145.5 120.5,-145.5 120.5,-126.5 28.5,-126.5"/>
<text text-anchor="middle" x="74.5" y="-133.5" font-family="Helvetica,sans-Serif" font-size="10.00">BoundaryEleOp</text>
</a>
</g>
</g>
<!-- Node2&#45;&gt;Node1 -->
<g id="edge1" class="edge">
<title>Node2&#45;&gt;Node1</title>
<path fill="none" stroke="midnightblue" d="M130.77,-125.3C159.86,-119.36 196.02,-111.46 228,-103 247.52,-97.84 269.2,-91.02 285.91,-85.53"/>
<polygon fill="midnightblue" stroke="midnightblue" points="129.91,-121.91 120.8,-127.32 131.29,-128.77 129.91,-121.91"/>
</g>
<!-- Node3 -->
<g id="node3" class="node">
<title>Node3</title>
<g id="a_node3"><a xlink:title=" ">
<polygon fill="white" stroke="#bfbfbf" points="0,-88.5 0,-107.5 149,-107.5 149,-88.5 0,-88.5"/>
<text text-anchor="middle" x="74.5" y="-95.5" font-family="Helvetica,sans-Serif" font-size="10.00">shared_ptr&lt; FaceSideEle &gt;</text>
</a>
</g>
</g>
<!-- Node3&#45;&gt;Node1 -->
<g id="edge2" class="edge">
<title>Node3&#45;&gt;Node1</title>
<path fill="none" stroke="#9a32cd" stroke-dasharray="5,2" d="M159.27,-90.27C187.52,-87.67 218.7,-84.79 245.62,-82.31"/>
<polygon fill="#9a32cd" stroke="#9a32cd" points="158.64,-86.82 149,-91.22 159.28,-93.79 158.64,-86.82"/>
<text text-anchor="middle" x="197.5" y="-91" font-family="Helvetica,sans-Serif" font-size="10.00"> sideFEPtr</text>
</g>
<!-- Node4 -->
<g id="node4" class="node">
<title>Node4</title>
<g id="a_node4"><a xlink:title=" ">
<polygon fill="white" stroke="#bfbfbf" points="13.5,-39 13.5,-69 135.5,-69 135.5,-39 13.5,-39"/>
<text text-anchor="start" x="21.5" y="-57" font-family="Helvetica,sans-Serif" font-size="10.00">shared_ptr&lt; LevelSet</text>
<text text-anchor="middle" x="74.5" y="-46" font-family="Helvetica,sans-Serif" font-size="10.00">::SideData &gt;</text>
</a>
</g>
</g>
<!-- Node4&#45;&gt;Node1 -->
<g id="edge3" class="edge">
<title>Node4&#45;&gt;Node1</title>
<path fill="none" stroke="#9a32cd" stroke-dasharray="5,2" d="M145.73,-60.48C177.33,-63.39 214.48,-66.82 245.83,-69.71"/>
<polygon fill="#9a32cd" stroke="#9a32cd" points="145.96,-56.98 135.68,-59.55 145.32,-63.96 145.96,-56.98"/>
<text text-anchor="middle" x="197.5" y="-70" font-family="Helvetica,sans-Serif" font-size="10.00"> sideDataPtr</text>
</g>
<!-- Node5 -->
<g id="node5" class="node">
<title>Node5</title>
<g id="a_node5"><a xlink:title=" ">
<polygon fill="white" stroke="#bfbfbf" points="33.5,-0.5 33.5,-19.5 115.5,-19.5 115.5,-0.5 33.5,-0.5"/>
<text text-anchor="middle" x="74.5" y="-7.5" font-family="Helvetica,sans-Serif" font-size="10.00">VectorDouble</text>
</a>
</g>
</g>
<!-- Node5&#45;&gt;Node1 -->
<g id="edge4" class="edge">
<title>Node5&#45;&gt;Node1</title>
<path fill="none" stroke="#9a32cd" stroke-dasharray="5,2" d="M125.31,-21.47C155.22,-28.59 193.95,-38.23 228,-48 247.62,-53.63 269.49,-60.76 286.27,-66.42"/>
<polygon fill="#9a32cd" stroke="#9a32cd" points="126.06,-18.05 115.52,-19.16 124.45,-24.87 126.06,-18.05"/>
<text text-anchor="middle" x="197.5" y="-51" font-family="Helvetica,sans-Serif" font-size="10.00"> resSkelton</text>
</g>
</g>
</svg>
