<?xml version="1.0" encoding="UTF-8" standalone="no"?>
<!DOCTYPE svg PUBLIC "-//W3C//DTD SVG 1.1//EN"
 "http://www.w3.org/Graphics/SVG/1.1/DTD/svg11.dtd">
<!-- Generated by graphviz version 2.43.0 (0)
 -->
<!-- Title: BCs_RVELagrange_Disp::OpDmatRhs Pages: 1 -->
<svg width="449pt" height="137pt"
 viewBox="0.00 0.00 449.00 137.00" xmlns="http://www.w3.org/2000/svg" xmlns:xlink="http://www.w3.org/1999/xlink">
<g id="graph0" class="graph" transform="scale(1 1) rotate(0) translate(4 133)">
<title>BCs_RVELagrange_Disp::OpDmatRhs</title>
<polygon fill="white" stroke="transparent" points="-4,4 -4,-133 445,-133 445,4 -4,4"/>
<!-- Node1 -->
<g id="node1" class="node">
<title>Node1</title>
<g id="a_node1"><a xlink:title=" ">
<polygon fill="#bfbfbf" stroke="black" points="141,-49.5 141,-79.5 273,-79.5 273,-49.5 141,-49.5"/>
<text text-anchor="start" x="149" y="-67.5" font-family="Helvetica,sans-Serif" font-size="10.00">BCs_RVELagrange_Disp</text>
<text text-anchor="middle" x="207" y="-56.5" font-family="Helvetica,sans-Serif" font-size="10.00">::OpDmatRhs</text>
</a>
</g>
</g>
<!-- Node3 -->
<g id="node3" class="node">
<title>Node3</title>
<g id="a_node3"><a xlink:href="structBCs__RVELagrange__Disp_1_1OpRVEBCsRhs.html" target="_top" xlink:title="\biref operator to calculate the RHS of the constrain for the RVE boundary conditions">
<polygon fill="white" stroke="black" points="309,-98.5 309,-128.5 441,-128.5 441,-98.5 309,-98.5"/>
<text text-anchor="start" x="317" y="-116.5" font-family="Helvetica,sans-Serif" font-size="10.00">BCs_RVELagrange_Disp</text>
<text text-anchor="middle" x="375" y="-105.5" font-family="Helvetica,sans-Serif" font-size="10.00">::OpRVEBCsRhs</text>
</a>
</g>
</g>
<!-- Node1&#45;&gt;Node3 -->
<g id="edge2" class="edge">
<title>Node1&#45;&gt;Node3</title>
<path fill="none" stroke="midnightblue" d="M268.87,-82.47C286.65,-87.72 305.9,-93.4 323.01,-98.45"/>
<polygon fill="midnightblue" stroke="midnightblue" points="269.74,-79.08 259.16,-79.6 267.76,-85.79 269.74,-79.08"/>
</g>
<!-- Node4 -->
<g id="node4" class="node">
<title>Node4</title>
<g id="a_node4"><a xlink:href="structBCs__RVELagrange__Disp_1_1OpRVEBCsRhsHomoC.html" target="_top" xlink:title="\biref operator to calculate the RHS for the calculation of the homgoensied stiffness matrix">
<polygon fill="white" stroke="black" points="309,-49.5 309,-79.5 441,-79.5 441,-49.5 309,-49.5"/>
<text text-anchor="start" x="317" y="-67.5" font-family="Helvetica,sans-Serif" font-size="10.00">BCs_RVELagrange_Disp</text>
<text text-anchor="middle" x="375" y="-56.5" font-family="Helvetica,sans-Serif" font-size="10.00">::OpRVEBCsRhsHomoC</text>
</a>
</g>
</g>
<!-- Node1&#45;&gt;Node4 -->
<g id="edge3" class="edge">
<title>Node1&#45;&gt;Node4</title>
<path fill="none" stroke="midnightblue" d="M283.39,-64.5C291.87,-64.5 300.45,-64.5 308.78,-64.5"/>
<polygon fill="midnightblue" stroke="midnightblue" points="283.13,-61 273.13,-64.5 283.13,-68 283.13,-61"/>
</g>
<!-- Node5 -->
<g id="node5" class="node">
<title>Node5</title>
<g id="a_node5"><a xlink:href="structBCs__RVELagrange__Disp_1_1OpRVEHomoStress.html" target="_top" xlink:title="\biref operator to calculate the RVE homogenised stress">
<polygon fill="white" stroke="black" points="309,-0.5 309,-30.5 441,-30.5 441,-0.5 309,-0.5"/>
<text text-anchor="start" x="317" y="-18.5" font-family="Helvetica,sans-Serif" font-size="10.00">BCs_RVELagrange_Disp</text>
<text text-anchor="middle" x="375" y="-7.5" font-family="Helvetica,sans-Serif" font-size="10.00">::OpRVEHomoStress</text>
</a>
</g>
</g>
<!-- Node1&#45;&gt;Node5 -->
<g id="edge4" class="edge">
<title>Node1&#45;&gt;Node5</title>
<path fill="none" stroke="midnightblue" d="M268.87,-46.53C286.65,-41.28 305.9,-35.6 323.01,-30.55"/>
<polygon fill="midnightblue" stroke="midnightblue" points="267.76,-43.21 259.16,-49.4 269.74,-49.92 267.76,-43.21"/>
</g>
<!-- Node2 -->
<g id="node2" class="node">
<title>Node2</title>
<g id="a_node2"><a xlink:title=" ">
<polygon fill="white" stroke="#bfbfbf" points="0,-55 0,-74 105,-74 105,-55 0,-55"/>
<text text-anchor="middle" x="52.5" y="-62" font-family="Helvetica,sans-Serif" font-size="10.00">UserDataOperator</text>
</a>
</g>
</g>
<!-- Node2&#45;&gt;Node1 -->
<g id="edge1" class="edge">
<title>Node2&#45;&gt;Node1</title>
<path fill="none" stroke="midnightblue" d="M115.28,-64.5C123.72,-64.5 132.41,-64.5 140.9,-64.5"/>
<polygon fill="midnightblue" stroke="midnightblue" points="115.13,-61 105.13,-64.5 115.13,-68 115.13,-61"/>
</g>
</g>
</svg>
