<?xml version="1.0" encoding="UTF-8" standalone="no"?>
<!DOCTYPE svg PUBLIC "-//W3C//DTD SVG 1.1//EN"
 "http://www.w3.org/Graphics/SVG/1.1/DTD/svg11.dtd">
<!-- Generated by graphviz version 9.0.0 (20230911.1827)
 -->
<!-- Title: MoFEM::OpTensorTimesSymmetricTensor&lt; DIM_01, DIM_23, S &gt; Pages: 1 -->
<svg width="181pt" height="160pt"
 viewBox="0.00 0.00 180.75 160.25" xmlns="http://www.w3.org/2000/svg" xmlns:xlink="http://www.w3.org/1999/xlink">
<g id="graph0" class="graph" transform="scale(1 1) rotate(0) translate(4 156.25)">
<title>MoFEM::OpTensorTimesSymmetricTensor&lt; DIM_01, DIM_23, S &gt;</title>
<!-- Node1 -->
<g id="node1" class="node">
<title>Node1</title>
<g id="a_node1"><a xlink:title="Calculate .">
<polygon fill="#999999" stroke="#666666" points="172.75,-30.5 0,-30.5 0,0 172.75,0 172.75,-30.5"/>
<text text-anchor="start" x="8" y="-17" font-family="Helvetica,sans-Serif" font-size="10.00">MoFEM::OpTensorTimesSymmetric</text>
<text text-anchor="middle" x="86.38" y="-5.75" font-family="Helvetica,sans-Serif" font-size="10.00">Tensor&lt; DIM_01, DIM_23, S &gt;</text>
</a>
</g>
</g>
<!-- Node2 -->
<g id="node2" class="node">
<title>Node2</title>
<g id="a_node2"><a xlink:href="struct_mo_f_e_m_1_1_forces_and_sources_core_1_1_user_data_operator.html" target="_top" xlink:title=" ">
<polygon fill="white" stroke="#666666" points="166.75,-97 6,-97 6,-66.5 166.75,-66.5 166.75,-97"/>
<text text-anchor="start" x="14" y="-83.5" font-family="Helvetica,sans-Serif" font-size="10.00">MoFEM::ForcesAndSourcesCore</text>
<text text-anchor="middle" x="86.38" y="-72.25" font-family="Helvetica,sans-Serif" font-size="10.00">::UserDataOperator</text>
</a>
</g>
</g>
<!-- Node2&#45;&gt;Node1 -->
<g id="edge1" class="edge">
<title>Node2&#45;&gt;Node1</title>
<path fill="none" stroke="#63b8ff" d="M86.38,-54.81C86.38,-46.64 86.38,-37.91 86.38,-30.83"/>
<polygon fill="#63b8ff" stroke="#63b8ff" points="82.88,-54.6 86.38,-64.6 89.88,-54.6 82.88,-54.6"/>
</g>
<!-- Node3 -->
<g id="node3" class="node">
<title>Node3</title>
<g id="a_node3"><a xlink:href="struct_mo_f_e_m_1_1_data_operator.html" target="_top" xlink:title="base operator to do operations at Gauss Pt. level">
<polygon fill="white" stroke="#666666" points="143.88,-152.25 28.88,-152.25 28.88,-133 143.88,-133 143.88,-152.25"/>
<text text-anchor="middle" x="86.38" y="-138.75" font-family="Helvetica,sans-Serif" font-size="10.00">MoFEM::DataOperator</text>
</a>
</g>
</g>
<!-- Node3&#45;&gt;Node2 -->
<g id="edge2" class="edge">
<title>Node3&#45;&gt;Node2</title>
<path fill="none" stroke="#63b8ff" d="M86.38,-121.42C86.38,-113.49 86.38,-104.56 86.38,-97.28"/>
<polygon fill="#63b8ff" stroke="#63b8ff" points="82.88,-121.17 86.38,-131.17 89.88,-121.17 82.88,-121.17"/>
</g>
</g>
</svg>
