<?xml version="1.0" encoding="UTF-8" standalone="no"?>
<!DOCTYPE svg PUBLIC "-//W3C//DTD SVG 1.1//EN"
 "http://www.w3.org/Graphics/SVG/1.1/DTD/svg11.dtd">
<!-- Generated by graphviz version 9.0.0 (20230911.1827)
 -->
<!-- Title: MoFEM::LogManager::InternalData::WorldStreamBuf Pages: 1 -->
<svg width="168pt" height="105pt"
 viewBox="0.00 0.00 167.75 105.00" xmlns="http://www.w3.org/2000/svg" xmlns:xlink="http://www.w3.org/1999/xlink">
<g id="graph0" class="graph" transform="scale(1 1) rotate(0) translate(4 101)">
<title>MoFEM::LogManager::InternalData::WorldStreamBuf</title>
<!-- Node1 -->
<g id="node1" class="node">
<title>Node1</title>
<g id="a_node1"><a xlink:title=" ">
<polygon fill="#999999" stroke="#666666" points="153.75,-30.5 7.25,-30.5 7.25,0 153.75,0 153.75,-30.5"/>
<text text-anchor="start" x="15.25" y="-17" font-family="Helvetica,sans-Serif" font-size="10.00">MoFEM::LogManager::</text>
<text text-anchor="middle" x="80.5" y="-5.75" font-family="Helvetica,sans-Serif" font-size="10.00">InternalData::WorldStreamBuf</text>
</a>
</g>
</g>
<!-- Node2 -->
<g id="node2" class="node">
<title>Node2</title>
<g id="a_node2"><a xlink:title=" ">
<polygon fill="white" stroke="#666666" points="73,-97 0,-97 0,-77.75 73,-77.75 73,-97"/>
<text text-anchor="middle" x="36.5" y="-83.5" font-family="Helvetica,sans-Serif" font-size="10.00">std::stringbuf</text>
</a>
</g>
</g>
<!-- Node2&#45;&gt;Node1 -->
<g id="edge1" class="edge">
<title>Node2&#45;&gt;Node1</title>
<path fill="none" stroke="#63b8ff" d="M48.05,-67.96C55.31,-56.4 64.54,-41.69 71.3,-30.92"/>
<polygon fill="#63b8ff" stroke="#63b8ff" points="45.23,-65.88 42.88,-76.21 51.16,-69.6 45.23,-65.88"/>
</g>
<!-- Node3 -->
<g id="node3" class="node">
<title>Node3</title>
<g id="a_node3"><a xlink:title=" ">
<polygon fill="white" stroke="#666666" points="159.75,-97 91.25,-97 91.25,-77.75 159.75,-77.75 159.75,-97"/>
<text text-anchor="middle" x="125.5" y="-83.5" font-family="Helvetica,sans-Serif" font-size="10.00">MPI_Comm</text>
</a>
</g>
</g>
<!-- Node3&#45;&gt;Node1 -->
<g id="edge2" class="edge">
<title>Node3&#45;&gt;Node1</title>
<path fill="none" stroke="#9a32cd" stroke-dasharray="5,2" d="M113.68,-67.96C106.26,-56.4 96.82,-41.69 89.91,-30.92"/>
<polygon fill="#9a32cd" stroke="#9a32cd" points="110.64,-69.69 118.98,-76.22 116.53,-65.91 110.64,-69.69"/>
<text text-anchor="middle" x="123.62" y="-50.25" font-family="Helvetica,sans-Serif" font-size="10.00"> cOmm</text>
</g>
</g>
</svg>
