<?xml version="1.0" encoding="UTF-8" standalone="no"?>
<!DOCTYPE svg PUBLIC "-//W3C//DTD SVG 1.1//EN"
 "http://www.w3.org/Graphics/SVG/1.1/DTD/svg11.dtd">
<!-- Generated by graphviz version 2.43.0 (0)
 -->
<!-- Title: ADOLCPlasticity::J2Plasticity&lt; 3 &gt; Pages: 1 -->
<svg width="191pt" height="151pt"
 viewBox="0.00 0.00 191.00 151.00" xmlns="http://www.w3.org/2000/svg" xmlns:xlink="http://www.w3.org/1999/xlink">
<g id="graph0" class="graph" transform="scale(1 1) rotate(0) translate(4 147)">
<title>ADOLCPlasticity::J2Plasticity&lt; 3 &gt;</title>
<polygon fill="white" stroke="transparent" points="-4,4 -4,-147 187,-147 187,4 -4,4"/>
<!-- Node1 -->
<g id="node1" class="node">
<title>Node1</title>
<g id="a_node1"><a xlink:title="J2 (Von Misses) plasticity.">
<polygon fill="#bfbfbf" stroke="black" points="0,-56.5 0,-75.5 183,-75.5 183,-56.5 0,-56.5"/>
<text text-anchor="middle" x="91.5" y="-63.5" font-family="Helvetica,sans-Serif" font-size="10.00">ADOLCPlasticity::J2Plasticity&lt; 3 &gt;</text>
</a>
</g>
</g>
<!-- Node3 -->
<g id="node3" class="node">
<title>Node3</title>
<g id="a_node3"><a xlink:href="structADOLCPlasticity_1_1J2Plasticity_3_012_01_4.html" target="_top" xlink:title="[J2 2D]">
<polygon fill="white" stroke="black" points="0,-0.5 0,-19.5 183,-19.5 183,-0.5 0,-0.5"/>
<text text-anchor="middle" x="91.5" y="-7.5" font-family="Helvetica,sans-Serif" font-size="10.00">ADOLCPlasticity::J2Plasticity&lt; 2 &gt;</text>
</a>
</g>
</g>
<!-- Node1&#45;&gt;Node3 -->
<g id="edge2" class="edge">
<title>Node1&#45;&gt;Node3</title>
<path fill="none" stroke="midnightblue" d="M91.5,-45.8C91.5,-36.91 91.5,-26.78 91.5,-19.75"/>
<polygon fill="midnightblue" stroke="midnightblue" points="88,-46.08 91.5,-56.08 95,-46.08 88,-46.08"/>
</g>
<!-- Node2 -->
<g id="node2" class="node">
<title>Node2</title>
<g id="a_node2"><a xlink:href="structADOLCPlasticity_1_1ClosestPointProjection.html" target="_top" xlink:title="Closest point projection algorithm.">
<polygon fill="white" stroke="black" points="23,-112.5 23,-142.5 160,-142.5 160,-112.5 23,-112.5"/>
<text text-anchor="start" x="31" y="-130.5" font-family="Helvetica,sans-Serif" font-size="10.00">ADOLCPlasticity::Closest</text>
<text text-anchor="middle" x="91.5" y="-119.5" font-family="Helvetica,sans-Serif" font-size="10.00">PointProjection</text>
</a>
</g>
</g>
<!-- Node2&#45;&gt;Node1 -->
<g id="edge1" class="edge">
<title>Node2&#45;&gt;Node1</title>
<path fill="none" stroke="midnightblue" d="M91.5,-102.29C91.5,-92.86 91.5,-82.65 91.5,-75.66"/>
<polygon fill="midnightblue" stroke="midnightblue" points="88,-102.4 91.5,-112.4 95,-102.4 88,-102.4"/>
</g>
</g>
</svg>
