<?xml version="1.0" encoding="UTF-8" standalone="no"?>
<!DOCTYPE svg PUBLIC "-//W3C//DTD SVG 1.1//EN"
 "http://www.w3.org/Graphics/SVG/1.1/DTD/svg11.dtd">
<!-- Generated by graphviz version 2.43.0 (0)
 -->
<!-- Title: MoFEM::BasicEntityData Pages: 1 -->
<svg width="254pt" height="117pt"
 viewBox="0.00 0.00 253.50 117.00" xmlns="http://www.w3.org/2000/svg" xmlns:xlink="http://www.w3.org/1999/xlink">
<g id="graph0" class="graph" transform="scale(1 1) rotate(0) translate(4 113)">
<title>MoFEM::BasicEntityData</title>
<polygon fill="white" stroke="transparent" points="-4,4 -4,-113 249.5,-113 249.5,4 -4,4"/>
<!-- Node1 -->
<g id="node1" class="node">
<title>Node1</title>
<g id="a_node1"><a xlink:title="PipelineManager data. like access to moab interface and basic tag handlers.">
<polygon fill="#bfbfbf" stroke="black" points="71,-0.5 71,-19.5 208,-19.5 208,-0.5 71,-0.5"/>
<text text-anchor="middle" x="139.5" y="-7.5" font-family="Helvetica,sans-Serif" font-size="10.00">MoFEM::BasicEntityData</text>
</a>
</g>
</g>
<!-- Node2 -->
<g id="node2" class="node">
<title>Node2</title>
<g id="a_node2"><a xlink:title=" ">
<polygon fill="white" stroke="#bfbfbf" points="0,-89.5 0,-108.5 33,-108.5 33,-89.5 0,-89.5"/>
<text text-anchor="middle" x="16.5" y="-96.5" font-family="Helvetica,sans-Serif" font-size="10.00">Tag</text>
</a>
</g>
</g>
<!-- Node2&#45;&gt;Node1 -->
<g id="edge1" class="edge">
<title>Node2&#45;&gt;Node1</title>
<path fill="none" stroke="#9a32cd" stroke-dasharray="5,2" d="M17.74,-79.31C19.62,-66.02 24.23,-48.69 35.5,-38 45.31,-28.69 57.91,-22.49 70.92,-18.38"/>
<polygon fill="#9a32cd" stroke="#9a32cd" points="14.26,-78.99 16.73,-89.29 21.22,-79.69 14.26,-78.99"/>
<text text-anchor="middle" x="85.5" y="-63" font-family="Helvetica,sans-Serif" font-size="10.00"> th_RefParentHandle</text>
<text text-anchor="middle" x="85.5" y="-52" font-family="Helvetica,sans-Serif" font-size="10.00">th_RefBitLevel</text>
<text text-anchor="middle" x="85.5" y="-41" font-family="Helvetica,sans-Serif" font-size="10.00">th_MeshsetPart</text>
</g>
<!-- Node3 -->
<g id="node3" class="node">
<title>Node3</title>
<g id="a_node3"><a xlink:title=" ">
<polygon fill="white" stroke="#bfbfbf" points="104,-89.5 104,-108.5 175,-108.5 175,-89.5 104,-89.5"/>
<text text-anchor="middle" x="139.5" y="-96.5" font-family="Helvetica,sans-Serif" font-size="10.00">Interface &amp;</text>
</a>
</g>
</g>
<!-- Node3&#45;&gt;Node1 -->
<g id="edge2" class="edge">
<title>Node3&#45;&gt;Node1</title>
<path fill="none" stroke="#9a32cd" stroke-dasharray="5,2" d="M139.5,-79.19C139.5,-60.74 139.5,-33.41 139.5,-19.62"/>
<polygon fill="#9a32cd" stroke="#9a32cd" points="136,-79.34 139.5,-89.34 143,-79.34 136,-79.34"/>
<text text-anchor="middle" x="155" y="-52" font-family="Helvetica,sans-Serif" font-size="10.00"> moab</text>
</g>
<!-- Node4 -->
<g id="node4" class="node">
<title>Node4</title>
<g id="a_node4"><a xlink:title=" ">
<polygon fill="white" stroke="#bfbfbf" points="193,-89.5 193,-108.5 222,-108.5 222,-89.5 193,-89.5"/>
<text text-anchor="middle" x="207.5" y="-96.5" font-family="Helvetica,sans-Serif" font-size="10.00">int</text>
</a>
</g>
</g>
<!-- Node4&#45;&gt;Node1 -->
<g id="edge3" class="edge">
<title>Node4&#45;&gt;Node1</title>
<path fill="none" stroke="#9a32cd" stroke-dasharray="5,2" d="M199.87,-79.74C194.06,-67.18 185.25,-50.56 174.5,-38 168.41,-30.89 160.17,-24.42 153.22,-19.6"/>
<polygon fill="#9a32cd" stroke="#9a32cd" points="196.78,-81.42 204.01,-89.16 203.19,-78.6 196.78,-81.42"/>
<text text-anchor="middle" x="220" y="-52" font-family="Helvetica,sans-Serif" font-size="10.00"> pcommID</text>
</g>
</g>
</svg>
