<?xml version="1.0" encoding="UTF-8" standalone="no"?>
<!DOCTYPE svg PUBLIC "-//W3C//DTD SVG 1.1//EN"
 "http://www.w3.org/Graphics/SVG/1.1/DTD/svg11.dtd">
<!-- Generated by graphviz version 2.43.0 (0)
 -->
<!-- Title: MoFEM::OpFluxRhsImpl&lt; NaturalMeshsetType&lt; TEMPERATURESET &gt;, 3, FIELD_DIM, A, I, OpBase &gt; Pages: 1 -->
<!--zoomable 220 -->
<svg id="main" version="1.1" xmlns="http://www.w3.org/2000/svg" xmlns:xlink="http://www.w3.org/1999/xlink" xml:space="preserve" onload="init(evt)">
<style type="text/css"><![CDATA[
.edge:hover path { stroke: red; }
.edge:hover polygon { stroke: red; fill: red; }
]]></style>
<script type="text/javascript"><![CDATA[
var edges = document.getElementsByTagName('g');
if (edges && edges.length) {
  for (var i=0;i<edges.length;i++) {
    if (edges[i].id.substr(0,4)=='edge') {
      edges[i].setAttribute('class','edge');
    }
  }
}
]]></script>
        <defs>
                <circle id="rim" cx="0" cy="0" r="7"/>
                <circle id="rim2" cx="0" cy="0" r="3.5"/>
                <g id="zoomPlus">
                        <use xlink:href="#rim" fill="#404040">
                                <set attributeName="fill" to="#808080" begin="zoomplus.mouseover" end="zoomplus.mouseout"/>
                        </use>
                        <path d="M-4,0h8M0,-4v8" fill="none" stroke="white" stroke-width="1.5" pointer-events="none"/>
                </g>
                <g id="zoomMin">
                        <use xlink:href="#rim" fill="#404040">
                                <set attributeName="fill" to="#808080" begin="zoomminus.mouseover" end="zoomminus.mouseout"/>
                        </use>
                        <path d="M-4,0h8" fill="none" stroke="white" stroke-width="1.5" pointer-events="none"/>
                </g>
                <g id="dirArrow">
                        <path fill="none" stroke="white" stroke-width="1.5" d="M0,-3.0v7 M-2.5,-0.5L0,-3.0L2.5,-0.5"/>
                </g>
               <g id="resetDef">
                       <use xlink:href="#rim2" fill="#404040">
                               <set attributeName="fill" to="#808080" begin="reset.mouseover" end="reset.mouseout"/>
                       </use>
               </g>
        </defs>

<script type="text/javascript">
var viewWidth = 731;
var viewHeight = 220;
var sectionId = 'dynsection-1';
</script>
<script xlink:href="svgpan.js"/>
<svg id="graph" class="graph">
<g id="viewport">
<title>MoFEM::OpFluxRhsImpl&lt; NaturalMeshsetType&lt; TEMPERATURESET &gt;, 3, FIELD_DIM, A, I, OpBase &gt;</title>
<polygon fill="white" stroke="transparent" points="-4,4 -4,-215.5 727,-215.5 727,4 -4,4"/>
<!-- Node1 -->
<g id="node1" class="node">
<title>Node1</title>
<g id="a_node1"><a xlink:title=" ">
<polygon fill="#bfbfbf" stroke="black" points="574,-57.5 574,-109.5 723,-109.5 723,-57.5 574,-57.5"/>
<text text-anchor="start" x="582" y="-97.5" font-family="Helvetica,sans-Serif" font-size="10.00">MoFEM::OpFluxRhsImpl</text>
<text text-anchor="start" x="582" y="-86.5" font-family="Helvetica,sans-Serif" font-size="10.00">&lt; NaturalMeshsetType</text>
<text text-anchor="start" x="582" y="-75.5" font-family="Helvetica,sans-Serif" font-size="10.00">&lt; TEMPERATURESET &gt;, 3,</text>
<text text-anchor="middle" x="648.5" y="-64.5" font-family="Helvetica,sans-Serif" font-size="10.00"> FIELD_DIM, A, I, OpBase &gt;</text>
</a>
</g>
</g>
<!-- Node2 -->
<g id="node2" class="node">
<title>Node2</title>
<g id="a_node2"><a xlink:href="structMoFEM_1_1OpFluxRhsImpl_3_01NaturalMeshsetType_3_01UNKNOWNSET_01_4_00_013_00_01FIELD__DIM_00_01A_00_01I_00_01OpBase_01_4.html" target="_top" xlink:title=" ">
<polygon fill="white" stroke="black" points="380,-57.5 380,-109.5 537,-109.5 537,-57.5 380,-57.5"/>
<text text-anchor="start" x="388" y="-97.5" font-family="Helvetica,sans-Serif" font-size="10.00">MoFEM::OpFluxRhsImpl</text>
<text text-anchor="start" x="388" y="-86.5" font-family="Helvetica,sans-Serif" font-size="10.00">&lt; NaturalMeshsetType</text>
<text text-anchor="start" x="388" y="-75.5" font-family="Helvetica,sans-Serif" font-size="10.00">&lt; UNKNOWNSET &gt;, 3, FIELD</text>
<text text-anchor="middle" x="458.5" y="-64.5" font-family="Helvetica,sans-Serif" font-size="10.00">_DIM, A, I, OpBase &gt;</text>
</a>
</g>
</g>
<!-- Node2&#45;&gt;Node1 -->
<g id="edge1" class="edge">
<title>Node2&#45;&gt;Node1</title>
<path fill="none" stroke="midnightblue" d="M547.08,-83.5C556,-83.5 565,-83.5 573.75,-83.5"/>
<polygon fill="midnightblue" stroke="midnightblue" points="547.05,-80 537.05,-83.5 547.05,-87 547.05,-80"/>
</g>
<!-- Node3 -->
<g id="node3" class="node">
<title>Node3</title>
<g id="a_node3"><a xlink:title=" ">
<polygon fill="white" stroke="#bfbfbf" points="0,-148 0,-211 210,-211 210,-148 0,-148"/>
<text text-anchor="start" x="8" y="-199" font-family="Helvetica,sans-Serif" font-size="10.00">FormsIntegrators&lt; OpBase</text>
<text text-anchor="start" x="8" y="-188" font-family="Helvetica,sans-Serif" font-size="10.00"> &gt;::template Assembly&lt;</text>
<text text-anchor="start" x="8" y="-177" font-family="Helvetica,sans-Serif" font-size="10.00"> A &gt;::template LinearForm</text>
<text text-anchor="start" x="8" y="-166" font-family="Helvetica,sans-Serif" font-size="10.00">&lt; I &gt;::template OpNormalMixVecTimes</text>
<text text-anchor="middle" x="105" y="-155" font-family="Helvetica,sans-Serif" font-size="10.00">Scalar&lt; FIELD_DIM &gt;</text>
</a>
</g>
</g>
<!-- Node3&#45;&gt;Node2 -->
<g id="edge2" class="edge">
<title>Node3&#45;&gt;Node2</title>
<path fill="none" stroke="midnightblue" d="M220.08,-152.23C264.54,-141.16 315.82,-127.84 362,-114.5 367.86,-112.81 373.9,-111 379.97,-109.13"/>
<polygon fill="midnightblue" stroke="midnightblue" points="218.97,-148.89 210.11,-154.7 220.66,-155.69 218.97,-148.89"/>
</g>
<!-- Node4 -->
<g id="node4" class="node">
<title>Node4</title>
<g id="a_node4"><a xlink:title=" ">
<polygon fill="white" stroke="#bfbfbf" points="39.5,-88 39.5,-129 170.5,-129 170.5,-88 39.5,-88"/>
<text text-anchor="start" x="47.5" y="-117" font-family="Helvetica,sans-Serif" font-size="10.00">function&lt; double(const</text>
<text text-anchor="start" x="47.5" y="-106" font-family="Helvetica,sans-Serif" font-size="10.00"> double, const double,</text>
<text text-anchor="middle" x="105" y="-95" font-family="Helvetica,sans-Serif" font-size="10.00"> const double)&gt;</text>
</a>
</g>
</g>
<!-- Node4&#45;&gt;Node2 -->
<g id="edge3" class="edge">
<title>Node4&#45;&gt;Node2</title>
<path fill="none" stroke="#9a32cd" stroke-dasharray="5,2" d="M181.17,-103.15C239.69,-98.99 320.65,-93.23 379.81,-89.03"/>
<polygon fill="#9a32cd" stroke="#9a32cd" points="180.61,-99.68 170.88,-103.89 181.1,-106.67 180.61,-99.68"/>
<text text-anchor="middle" x="295" y="-102.5" font-family="Helvetica,sans-Serif" font-size="10.00"> userFun</text>
</g>
<!-- Node5 -->
<g id="node5" class="node">
<title>Node5</title>
<g id="a_node5"><a xlink:href="classdouble.html" target="_top" xlink:title=" ">
<polygon fill="white" stroke="black" points="80,-50 80,-69 130,-69 130,-50 80,-50"/>
<text text-anchor="middle" x="105" y="-57" font-family="Helvetica,sans-Serif" font-size="10.00">double</text>
</a>
</g>
</g>
<!-- Node5&#45;&gt;Node2 -->
<g id="edge4" class="edge">
<title>Node5&#45;&gt;Node2</title>
<path fill="none" stroke="#9a32cd" stroke-dasharray="5,2" d="M140.07,-61.4C189.15,-64.19 282.56,-69.69 362,-75.5 367.81,-75.92 373.81,-76.38 379.85,-76.86"/>
<polygon fill="#9a32cd" stroke="#9a32cd" points="140.19,-57.9 130.01,-60.83 139.8,-64.89 140.19,-57.9"/>
<text text-anchor="middle" x="295" y="-78.5" font-family="Helvetica,sans-Serif" font-size="10.00"> scalarValue</text>
</g>
<!-- Node6 -->
<g id="node6" class="node">
<title>Node6</title>
<g id="a_node6"><a xlink:title=" ">
<polygon fill="white" stroke="#bfbfbf" points="34.5,-0.5 34.5,-30.5 175.5,-30.5 175.5,-0.5 34.5,-0.5"/>
<text text-anchor="start" x="42.5" y="-18.5" font-family="Helvetica,sans-Serif" font-size="10.00">vector&lt; boost::shared</text>
<text text-anchor="middle" x="105" y="-7.5" font-family="Helvetica,sans-Serif" font-size="10.00">_ptr&lt; ScalingMethod &gt; &gt;</text>
</a>
</g>
</g>
<!-- Node6&#45;&gt;Node2 -->
<g id="edge5" class="edge">
<title>Node6&#45;&gt;Node2</title>
<path fill="none" stroke="#9a32cd" stroke-dasharray="5,2" d="M185.59,-22.88C236.47,-28.54 303.64,-37.74 362,-51.5 369.32,-53.23 376.87,-55.27 384.38,-57.49"/>
<polygon fill="#9a32cd" stroke="#9a32cd" points="185.95,-19.4 175.63,-21.8 185.2,-26.36 185.95,-19.4"/>
<text text-anchor="middle" x="295" y="-54.5" font-family="Helvetica,sans-Serif" font-size="10.00"> vecOfTimeScalingMethods</text>
</g>
</g>
</svg>
        <g id="navigator" transform="translate(0 0)" fill="#404254">
                <rect fill="#f2f5e9" fill-opacity="0.5" stroke="#606060" stroke-width=".5" x="0" y="0" width="60" height="60"/>
                <use id="zoomplus" xlink:href="#zoomPlus" x="17" y="9" onmousedown="handleZoom(evt,'in')"/>
                <use id="zoomminus" xlink:href="#zoomMin" x="42" y="9" onmousedown="handleZoom(evt,'out')"/>
                <use id="reset" xlink:href="#resetDef" x="30" y="36" onmousedown="handleReset()"/>
                <g id="arrowUp" xlink:href="#dirArrow" transform="translate(30 24)" onmousedown="handlePan(0,-1)">
                  <use xlink:href="#rim" fill="#404040">
                        <set attributeName="fill" to="#808080" begin="arrowUp.mouseover" end="arrowUp.mouseout"/>
                  </use>
                  <path fill="none" stroke="white" stroke-width="1.5" d="M0,-3.0v7 M-2.5,-0.5L0,-3.0L2.5,-0.5"/>
                </g>
                <g id="arrowRight" xlink:href="#dirArrow" transform="rotate(90) translate(36 -43)" onmousedown="handlePan(1,0)">
                  <use xlink:href="#rim" fill="#404040">
                        <set attributeName="fill" to="#808080" begin="arrowRight.mouseover" end="arrowRight.mouseout"/>
                  </use>
                  <path fill="none" stroke="white" stroke-width="1.5" d="M0,-3.0v7 M-2.5,-0.5L0,-3.0L2.5,-0.5"/>
                </g>
                <g id="arrowDown" xlink:href="#dirArrow" transform="rotate(180) translate(-30 -48)" onmousedown="handlePan(0,1)">
                  <use xlink:href="#rim" fill="#404040">
                        <set attributeName="fill" to="#808080" begin="arrowDown.mouseover" end="arrowDown.mouseout"/>
                  </use>
                  <path fill="none" stroke="white" stroke-width="1.5" d="M0,-3.0v7 M-2.5,-0.5L0,-3.0L2.5,-0.5"/>
                </g>
                <g id="arrowLeft" xlink:href="#dirArrow" transform="rotate(270) translate(-36 17)" onmousedown="handlePan(-1,0)">
                  <use xlink:href="#rim" fill="#404040">
                        <set attributeName="fill" to="#808080" begin="arrowLeft.mouseover" end="arrowLeft.mouseout"/>
                  </use>
                  <path fill="none" stroke="white" stroke-width="1.5" d="M0,-3.0v7 M-2.5,-0.5L0,-3.0L2.5,-0.5"/>
                </g>
        </g>
        <svg viewBox="0 0 15 15" width="100%" height="30px" preserveAspectRatio="xMaxYMin meet">
         <g id="arrow_out" transform="scale(0.3 0.3)">
          <a xlink:href="structMoFEM_1_1OpFluxRhsImpl_3_01NaturalMeshsetType_3_01TEMPERATURESET_01_4_00_013_00_01FIELD__Dda881fa240b457ea1927aa00b54e985d_org.svg" target="_base">
           <rect id="button" ry="5" rx="5" y="6" x="6" height="38" width="38"
                fill="#f2f5e9" fill-opacity="0.5" stroke="#606060" stroke-width="1.0"/>
           <path id="arrow"
             d="M 11.500037,31.436501 C 11.940474,20.09759 22.043105,11.32322 32.158766,21.979434 L 37.068811,17.246167 C 37.068811,17.246167 37.088388,32 37.088388,32 L 22.160133,31.978069 C 22.160133,31.978069 26.997745,27.140456 26.997745,27.140456 C 18.528582,18.264221 13.291696,25.230495 11.500037,31.436501 z"
             style="fill:#404040;"/>
          </a>
         </g>
        </svg>
</svg>
