<?xml version="1.0" encoding="UTF-8" standalone="no"?>
<!DOCTYPE svg PUBLIC "-//W3C//DTD SVG 1.1//EN"
 "http://www.w3.org/Graphics/SVG/1.1/DTD/svg11.dtd">
<!-- Generated by graphviz version 2.43.0 (0)
 -->
<!-- Title: BlockOptionData Pages: 1 -->
<svg width="198pt" height="139pt"
 viewBox="0.00 0.00 198.00 139.00" xmlns="http://www.w3.org/2000/svg" xmlns:xlink="http://www.w3.org/1999/xlink">
<g id="graph0" class="graph" transform="scale(1 1) rotate(0) translate(4 135)">
<title>BlockOptionData</title>
<polygon fill="white" stroke="transparent" points="-4,4 -4,-135 194,-135 194,4 -4,4"/>
<!-- Node1 -->
<g id="node1" class="node">
<title>Node1</title>
<g id="a_node1"><a xlink:title=" ">
<polygon fill="#bfbfbf" stroke="black" points="60.5,-0.5 60.5,-19.5 159.5,-19.5 159.5,-0.5 60.5,-0.5"/>
<text text-anchor="middle" x="110" y="-7.5" font-family="Helvetica,sans-Serif" font-size="10.00">BlockOptionData</text>
</a>
</g>
</g>
<!-- Node2 -->
<g id="node2" class="node">
<title>Node2</title>
<g id="a_node2"><a xlink:href="classdouble.html" target="_top" xlink:title=" ">
<polygon fill="white" stroke="black" points="0,-111.5 0,-130.5 50,-130.5 50,-111.5 0,-111.5"/>
<text text-anchor="middle" x="25" y="-118.5" font-family="Helvetica,sans-Serif" font-size="10.00">double</text>
</a>
</g>
</g>
<!-- Node2&#45;&gt;Node1 -->
<g id="edge1" class="edge">
<title>Node2&#45;&gt;Node1</title>
<path fill="none" stroke="#9a32cd" stroke-dasharray="5,2" d="M24.64,-100.97C25.29,-82.78 29.01,-55.61 44,-38 51.22,-29.51 61.52,-23.66 71.85,-19.63"/>
<polygon fill="#9a32cd" stroke="#9a32cd" points="21.14,-101.17 24.56,-111.19 28.14,-101.22 21.14,-101.17"/>
<text text-anchor="middle" x="75" y="-85" font-family="Helvetica,sans-Serif" font-size="10.00"> cApacity</text>
<text text-anchor="middle" x="75" y="-74" font-family="Helvetica,sans-Serif" font-size="10.00">cOnductivity</text>
<text text-anchor="middle" x="75" y="-63" font-family="Helvetica,sans-Serif" font-size="10.00">pOisson</text>
<text text-anchor="middle" x="75" y="-52" font-family="Helvetica,sans-Serif" font-size="10.00">initTemp</text>
<text text-anchor="middle" x="75" y="-41" font-family="Helvetica,sans-Serif" font-size="10.00">yOung</text>
</g>
<!-- Node3 -->
<g id="node3" class="node">
<title>Node3</title>
<g id="a_node3"><a xlink:href="classRange.html" target="_top" xlink:title=" ">
<polygon fill="white" stroke="black" points="86.5,-111.5 86.5,-130.5 133.5,-130.5 133.5,-111.5 86.5,-111.5"/>
<text text-anchor="middle" x="110" y="-118.5" font-family="Helvetica,sans-Serif" font-size="10.00">Range</text>
</a>
</g>
</g>
<!-- Node3&#45;&gt;Node1 -->
<g id="edge2" class="edge">
<title>Node3&#45;&gt;Node1</title>
<path fill="none" stroke="#9a32cd" stroke-dasharray="5,2" d="M110,-101.19C110,-77.28 110,-36.99 110,-19.51"/>
<polygon fill="#9a32cd" stroke="#9a32cd" points="106.5,-101.45 110,-111.45 113.5,-101.45 106.5,-101.45"/>
<text text-anchor="middle" x="121" y="-63" font-family="Helvetica,sans-Serif" font-size="10.00"> tRis</text>
</g>
<!-- Node4 -->
<g id="node4" class="node">
<title>Node4</title>
<g id="a_node4"><a xlink:title=" ">
<polygon fill="white" stroke="#bfbfbf" points="151.5,-111.5 151.5,-130.5 180.5,-130.5 180.5,-111.5 151.5,-111.5"/>
<text text-anchor="middle" x="166" y="-118.5" font-family="Helvetica,sans-Serif" font-size="10.00">int</text>
</a>
</g>
</g>
<!-- Node4&#45;&gt;Node1 -->
<g id="edge3" class="edge">
<title>Node4&#45;&gt;Node1</title>
<path fill="none" stroke="#9a32cd" stroke-dasharray="5,2" d="M161.57,-101.37C156.92,-84.07 148.52,-58.03 136,-38 131.72,-31.16 125.49,-24.61 120.2,-19.67"/>
<polygon fill="#9a32cd" stroke="#9a32cd" points="158.24,-102.49 164.09,-111.33 165.03,-100.78 158.24,-102.49"/>
<text text-anchor="middle" x="174" y="-68.5" font-family="Helvetica,sans-Serif" font-size="10.00"> oRder</text>
<text text-anchor="middle" x="174" y="-57.5" font-family="Helvetica,sans-Serif" font-size="10.00">iD</text>
</g>
</g>
</svg>
