<?xml version="1.0" encoding="UTF-8" standalone="no"?>
<!DOCTYPE svg PUBLIC "-//W3C//DTD SVG 1.1//EN"
 "http://www.w3.org/Graphics/SVG/1.1/DTD/svg11.dtd">
<!-- Generated by graphviz version 9.0.0 (20230911.1827)
 -->
<!-- Title: Op&lt; OP &gt; Pages: 1 -->
<svg width="474pt" height="94pt"
 viewBox="0.00 0.00 473.75 93.75" xmlns="http://www.w3.org/2000/svg" xmlns:xlink="http://www.w3.org/1999/xlink">
<g id="graph0" class="graph" transform="scale(1 1) rotate(0) translate(4 89.75)">
<title>Op&lt; OP &gt;</title>
<!-- Node1 -->
<g id="node1" class="node">
<title>Node1</title>
<g id="a_node1"><a xlink:title=" ">
<polygon fill="#999999" stroke="#666666" points="215.62,-19.25 154.62,-19.25 154.62,0 215.62,0 215.62,-19.25"/>
<text text-anchor="middle" x="185.12" y="-5.75" font-family="Helvetica,sans-Serif" font-size="10.00">Op&lt; OP &gt;</text>
</a>
</g>
</g>
<!-- Node2 -->
<g id="node2" class="node">
<title>Node2</title>
<g id="a_node2"><a xlink:href="class_o_p.html" target="_top" xlink:title=" ">
<polygon fill="white" stroke="#666666" points="30.25,-85.75 0,-85.75 0,-66.5 30.25,-66.5 30.25,-85.75"/>
<text text-anchor="middle" x="15.12" y="-72.25" font-family="Helvetica,sans-Serif" font-size="10.00">OP</text>
</a>
</g>
</g>
<!-- Node2&#45;&gt;Node1 -->
<g id="edge1" class="edge">
<title>Node2&#45;&gt;Node1</title>
<path fill="none" stroke="#63b8ff" d="M41.04,-65.29C73.76,-52.88 129.6,-31.69 161.29,-19.67"/>
<polygon fill="#63b8ff" stroke="#63b8ff" points="40.03,-61.93 31.93,-68.75 42.52,-68.48 40.03,-61.93"/>
</g>
<!-- Node3 -->
<g id="node3" class="node">
<title>Node3</title>
<g id="a_node3"><a xlink:title=" ">
<polygon fill="white" stroke="#666666" points="112.12,-85.75 48.12,-85.75 48.12,-66.5 112.12,-66.5 112.12,-85.75"/>
<text text-anchor="middle" x="80.12" y="-72.25" font-family="Helvetica,sans-Serif" font-size="10.00">Interface &amp;</text>
</a>
</g>
</g>
<!-- Node3&#45;&gt;Node1 -->
<g id="edge2" class="edge">
<title>Node3&#45;&gt;Node1</title>
<path fill="none" stroke="#9a32cd" stroke-dasharray="5,2" d="M103.17,-59.98C114.01,-52.95 127.16,-44.55 139.12,-37.25 149.05,-31.2 160.35,-24.65 169.26,-19.57"/>
<polygon fill="#9a32cd" stroke="#9a32cd" points="101.34,-57 94.87,-65.39 105.16,-62.86 101.34,-57"/>
<text text-anchor="middle" x="160.12" y="-39" font-family="Helvetica,sans-Serif" font-size="10.00"> postProc</text>
</g>
<!-- Node4 -->
<g id="node4" class="node">
<title>Node4</title>
<g id="a_node4"><a xlink:title=" ">
<polygon fill="white" stroke="#666666" points="240.38,-85.75 129.88,-85.75 129.88,-66.5 240.38,-66.5 240.38,-85.75"/>
<text text-anchor="middle" x="185.12" y="-72.25" font-family="Helvetica,sans-Serif" font-size="10.00">multi_index_container</text>
</a>
</g>
</g>
<!-- Node4&#45;&gt;Node1 -->
<g id="edge3" class="edge">
<title>Node4&#45;&gt;Node1</title>
<path fill="none" stroke="#9a32cd" stroke-dasharray="5,2" d="M185.12,-54.65C185.12,-42.82 185.12,-28.54 185.12,-19.52"/>
<polygon fill="#9a32cd" stroke="#9a32cd" points="181.63,-54.64 185.13,-64.64 188.63,-54.64 181.63,-54.64"/>
<text text-anchor="middle" x="211.75" y="-39" font-family="Helvetica,sans-Serif" font-size="10.00"> mapCoords</text>
</g>
<!-- Node5 -->
<g id="node5" class="node">
<title>Node5</title>
<g id="a_node5"><a xlink:href="class_entity_handle.html" target="_top" xlink:title=" ">
<polygon fill="white" stroke="#666666" points="330.25,-85.75 258,-85.75 258,-66.5 330.25,-66.5 330.25,-85.75"/>
<text text-anchor="middle" x="294.12" y="-72.25" font-family="Helvetica,sans-Serif" font-size="10.00">EntityHandle</text>
</a>
</g>
</g>
<!-- Node5&#45;&gt;Node1 -->
<g id="edge4" class="edge">
<title>Node5&#45;&gt;Node1</title>
<path fill="none" stroke="#9a32cd" stroke-dasharray="5,2" d="M274.07,-59.12C264.66,-51.98 253.12,-43.74 242.12,-37.25 230.93,-30.64 217.83,-24.43 207.01,-19.66"/>
<polygon fill="#9a32cd" stroke="#9a32cd" points="271.75,-61.75 281.8,-65.11 276.04,-56.22 271.75,-61.75"/>
<text text-anchor="middle" x="271.62" y="-39" font-family="Helvetica,sans-Serif" font-size="10.00"> prism</text>
</g>
<!-- Node6 -->
<g id="node6" class="node">
<title>Node6</title>
<g id="a_node6"><a xlink:title=" ">
<polygon fill="white" stroke="#666666" points="465.75,-85.75 348.5,-85.75 348.5,-66.5 465.75,-66.5 465.75,-85.75"/>
<text text-anchor="middle" x="407.12" y="-72.25" font-family="Helvetica,sans-Serif" font-size="10.00">vector&lt; EntityHandle &gt;</text>
</a>
</g>
</g>
<!-- Node6&#45;&gt;Node1 -->
<g id="edge5" class="edge">
<title>Node6&#45;&gt;Node1</title>
<path fill="none" stroke="#9a32cd" stroke-dasharray="5,2" d="M369.83,-62.52C346.7,-54.86 316.31,-45.08 289.12,-37.25 264.59,-30.18 236.53,-23.05 215.75,-17.95"/>
<polygon fill="#9a32cd" stroke="#9a32cd" points="368.52,-65.78 379.12,-65.61 370.73,-59.13 368.52,-65.78"/>
<text text-anchor="middle" x="354.12" y="-39" font-family="Helvetica,sans-Serif" font-size="10.00"> nodeHandles</text>
</g>
</g>
</svg>
