<?xml version="1.0" encoding="UTF-8" standalone="no"?>
<!DOCTYPE svg PUBLIC "-//W3C//DTD SVG 1.1//EN"
 "http://www.w3.org/Graphics/SVG/1.1/DTD/svg11.dtd">
<!-- Generated by graphviz version 2.43.0 (0)
 -->
<!-- Title: MoFEM::FlatPrismElementForcesAndSourcesCore::UserDataOperator Pages: 1 -->
<svg width="338pt" height="229pt"
 viewBox="0.00 0.00 337.50 229.00" xmlns="http://www.w3.org/2000/svg" xmlns:xlink="http://www.w3.org/1999/xlink">
<g id="graph0" class="graph" transform="scale(1 1) rotate(0) translate(4 225)">
<title>MoFEM::FlatPrismElementForcesAndSourcesCore::UserDataOperator</title>
<polygon fill="white" stroke="transparent" points="-4,4 -4,-225 333.5,-225 333.5,4 -4,4"/>
<!-- Node1 -->
<g id="node1" class="node">
<title>Node1</title>
<g id="a_node1"><a xlink:title="default operator for Flat Prism element">
<polygon fill="#bfbfbf" stroke="black" points="65,-67.5 65,-97.5 256,-97.5 256,-67.5 65,-67.5"/>
<text text-anchor="start" x="73" y="-85.5" font-family="Helvetica,sans-Serif" font-size="10.00">MoFEM::FlatPrismElementForces</text>
<text text-anchor="middle" x="160.5" y="-74.5" font-family="Helvetica,sans-Serif" font-size="10.00">AndSourcesCore::UserDataOperator</text>
</a>
</g>
</g>
<!-- Node4 -->
<g id="node4" class="node">
<title>Node4</title>
<g id="a_node4"><a xlink:href="structMoFEM_1_1OpCalculateInvJacForFlatPrism.html" target="_top" xlink:title="Calculate inverse of jacobian for face element.">
<polygon fill="white" stroke="black" points="0,-0.5 0,-30.5 147,-30.5 147,-0.5 0,-0.5"/>
<text text-anchor="start" x="8" y="-18.5" font-family="Helvetica,sans-Serif" font-size="10.00">MoFEM::OpCalculateInvJac</text>
<text text-anchor="middle" x="73.5" y="-7.5" font-family="Helvetica,sans-Serif" font-size="10.00">ForFlatPrism</text>
</a>
</g>
</g>
<!-- Node1&#45;&gt;Node4 -->
<g id="edge3" class="edge">
<title>Node1&#45;&gt;Node4</title>
<path fill="none" stroke="midnightblue" d="M133.29,-61.17C119.98,-51.23 104.3,-39.51 92.34,-30.58"/>
<polygon fill="midnightblue" stroke="midnightblue" points="131.52,-64.21 141.62,-67.4 135.71,-58.61 131.52,-64.21"/>
</g>
<!-- Node5 -->
<g id="node5" class="node">
<title>Node5</title>
<g id="a_node5"><a xlink:href="structMoFEM_1_1OpSetInvJacH1ForFlatPrism.html" target="_top" xlink:title="Transform local reference derivatives of shape functions to global derivatives.">
<polygon fill="white" stroke="black" points="165.5,-0.5 165.5,-30.5 329.5,-30.5 329.5,-0.5 165.5,-0.5"/>
<text text-anchor="start" x="173.5" y="-18.5" font-family="Helvetica,sans-Serif" font-size="10.00">MoFEM::OpSetInvJacH1ForFlat</text>
<text text-anchor="middle" x="247.5" y="-7.5" font-family="Helvetica,sans-Serif" font-size="10.00">Prism</text>
</a>
</g>
</g>
<!-- Node1&#45;&gt;Node5 -->
<g id="edge4" class="edge">
<title>Node1&#45;&gt;Node5</title>
<path fill="none" stroke="midnightblue" d="M187.71,-61.17C201.02,-51.23 216.7,-39.51 228.66,-30.58"/>
<polygon fill="midnightblue" stroke="midnightblue" points="185.29,-58.61 179.38,-67.4 189.48,-64.21 185.29,-58.61"/>
</g>
<!-- Node2 -->
<g id="node2" class="node">
<title>Node2</title>
<g id="a_node2"><a xlink:href="structMoFEM_1_1ForcesAndSourcesCore_1_1UserDataOperator.html" target="_top" xlink:title=" ">
<polygon fill="white" stroke="black" points="75.5,-134.5 75.5,-164.5 245.5,-164.5 245.5,-134.5 75.5,-134.5"/>
<text text-anchor="start" x="83.5" y="-152.5" font-family="Helvetica,sans-Serif" font-size="10.00">MoFEM::ForcesAndSourcesCore</text>
<text text-anchor="middle" x="160.5" y="-141.5" font-family="Helvetica,sans-Serif" font-size="10.00">::UserDataOperator</text>
</a>
</g>
</g>
<!-- Node2&#45;&gt;Node1 -->
<g id="edge1" class="edge">
<title>Node2&#45;&gt;Node1</title>
<path fill="none" stroke="midnightblue" d="M160.5,-124.11C160.5,-115.15 160.5,-105.32 160.5,-97.58"/>
<polygon fill="midnightblue" stroke="midnightblue" points="157,-124.4 160.5,-134.4 164,-124.4 157,-124.4"/>
</g>
<!-- Node3 -->
<g id="node3" class="node">
<title>Node3</title>
<g id="a_node3"><a xlink:href="structMoFEM_1_1DataOperator.html" target="_top" xlink:title="base operator to do operations at Gauss Pt. level">
<polygon fill="white" stroke="black" points="98,-201.5 98,-220.5 223,-220.5 223,-201.5 98,-201.5"/>
<text text-anchor="middle" x="160.5" y="-208.5" font-family="Helvetica,sans-Serif" font-size="10.00">MoFEM::DataOperator</text>
</a>
</g>
</g>
<!-- Node3&#45;&gt;Node2 -->
<g id="edge2" class="edge">
<title>Node3&#45;&gt;Node2</title>
<path fill="none" stroke="midnightblue" d="M160.5,-191.23C160.5,-182.59 160.5,-172.5 160.5,-164.52"/>
<polygon fill="midnightblue" stroke="midnightblue" points="157,-191.48 160.5,-201.48 164,-191.48 157,-191.48"/>
</g>
</g>
</svg>
