<?xml version="1.0" encoding="UTF-8" standalone="no"?>
<!DOCTYPE svg PUBLIC "-//W3C//DTD SVG 1.1//EN"
 "http://www.w3.org/Graphics/SVG/1.1/DTD/svg11.dtd">
<!-- Generated by graphviz version 2.43.0 (0)
 -->
<!-- Title: MinimalSurfaceEquation::MinimalSurfaceElement::OpCalculateCoefficientsAtGaussPts Pages: 1 -->
<svg width="356pt" height="228pt"
 viewBox="0.00 0.00 355.50 228.00" xmlns="http://www.w3.org/2000/svg" xmlns:xlink="http://www.w3.org/1999/xlink">
<g id="graph0" class="graph" transform="scale(1 1) rotate(0) translate(4 224)">
<title>MinimalSurfaceEquation::MinimalSurfaceElement::OpCalculateCoefficientsAtGaussPts</title>
<polygon fill="white" stroke="transparent" points="-4,4 -4,-224 351.5,-224 351.5,4 -4,4"/>
<!-- Node1 -->
<g id="node1" class="node">
<title>Node1</title>
<g id="a_node1"><a xlink:title="Evaluate function values and gradients at Gauss Pts.">
<polygon fill="#bfbfbf" stroke="black" points="96,-0.5 96,-41.5 291,-41.5 291,-0.5 96,-0.5"/>
<text text-anchor="start" x="104" y="-29.5" font-family="Helvetica,sans-Serif" font-size="10.00">MinimalSurfaceEquation</text>
<text text-anchor="start" x="104" y="-18.5" font-family="Helvetica,sans-Serif" font-size="10.00">::MinimalSurfaceElement</text>
<text text-anchor="middle" x="193.5" y="-7.5" font-family="Helvetica,sans-Serif" font-size="10.00">::OpCalculateCoefficientsAtGaussPts</text>
</a>
</g>
</g>
<!-- Node2 -->
<g id="node2" class="node">
<title>Node2</title>
<g id="a_node2"><a xlink:title=" ">
<polygon fill="white" stroke="#bfbfbf" points="0,-100.5 0,-119.5 105,-119.5 105,-100.5 0,-100.5"/>
<text text-anchor="middle" x="52.5" y="-107.5" font-family="Helvetica,sans-Serif" font-size="10.00">UserDataOperator</text>
</a>
</g>
</g>
<!-- Node2&#45;&gt;Node1 -->
<g id="edge1" class="edge">
<title>Node2&#45;&gt;Node1</title>
<path fill="none" stroke="midnightblue" d="M74.83,-95.22C98.26,-80.76 135.29,-57.92 161.75,-41.59"/>
<polygon fill="midnightblue" stroke="midnightblue" points="72.95,-92.27 66.28,-100.5 76.62,-98.23 72.95,-92.27"/>
</g>
<!-- Node3 -->
<g id="node3" class="node">
<title>Node3</title>
<g id="a_node3"><a xlink:href="structMinimalSurfaceEquation_1_1MinimalSurfaceElement_1_1CommonData.html" target="_top" xlink:title="Keep date between operators.">
<polygon fill="white" stroke="black" points="123.5,-89.5 123.5,-130.5 263.5,-130.5 263.5,-89.5 123.5,-89.5"/>
<text text-anchor="start" x="131.5" y="-118.5" font-family="Helvetica,sans-Serif" font-size="10.00">MinimalSurfaceEquation</text>
<text text-anchor="start" x="131.5" y="-107.5" font-family="Helvetica,sans-Serif" font-size="10.00">::MinimalSurfaceElement</text>
<text text-anchor="middle" x="193.5" y="-96.5" font-family="Helvetica,sans-Serif" font-size="10.00">::CommonData</text>
</a>
</g>
</g>
<!-- Node3&#45;&gt;Node1 -->
<g id="edge2" class="edge">
<title>Node3&#45;&gt;Node1</title>
<path fill="none" stroke="#9a32cd" stroke-dasharray="5,2" d="M193.5,-78.94C193.5,-66.6 193.5,-52.66 193.5,-41.66"/>
<polygon fill="#9a32cd" stroke="#9a32cd" points="190,-79.26 193.5,-89.26 197,-79.26 190,-79.26"/>
<text text-anchor="middle" x="228.5" y="-63" font-family="Helvetica,sans-Serif" font-size="10.00"> commonData</text>
</g>
<!-- Node4 -->
<g id="node4" class="node">
<title>Node4</title>
<g id="a_node4"><a xlink:title=" ">
<polygon fill="white" stroke="#bfbfbf" points="99,-200.5 99,-219.5 182,-219.5 182,-200.5 99,-200.5"/>
<text text-anchor="middle" x="140.5" y="-207.5" font-family="Helvetica,sans-Serif" font-size="10.00">MatrixDouble</text>
</a>
</g>
</g>
<!-- Node4&#45;&gt;Node3 -->
<g id="edge3" class="edge">
<title>Node4&#45;&gt;Node3</title>
<path fill="none" stroke="#9a32cd" stroke-dasharray="5,2" d="M136.66,-190.18C135.11,-177.79 134.97,-161.61 141.5,-149 145.2,-141.85 150.94,-135.72 157.27,-130.6"/>
<polygon fill="#9a32cd" stroke="#9a32cd" points="133.25,-190.98 138.35,-200.27 140.16,-189.83 133.25,-190.98"/>
<text text-anchor="middle" x="183" y="-174" font-family="Helvetica,sans-Serif" font-size="10.00"> gradU</text>
<text text-anchor="middle" x="183" y="-163" font-family="Helvetica,sans-Serif" font-size="10.00">aNbyGradU</text>
<text text-anchor="middle" x="183" y="-152" font-family="Helvetica,sans-Serif" font-size="10.00">aNpow3byGradU</text>
</g>
<!-- Node5 -->
<g id="node5" class="node">
<title>Node5</title>
<g id="a_node5"><a xlink:title=" ">
<polygon fill="white" stroke="#bfbfbf" points="205.5,-200.5 205.5,-219.5 287.5,-219.5 287.5,-200.5 205.5,-200.5"/>
<text text-anchor="middle" x="246.5" y="-207.5" font-family="Helvetica,sans-Serif" font-size="10.00">VectorDouble</text>
</a>
</g>
</g>
<!-- Node5&#45;&gt;Node3 -->
<g id="edge4" class="edge">
<title>Node5&#45;&gt;Node3</title>
<path fill="none" stroke="#9a32cd" stroke-dasharray="5,2" d="M241.48,-190.53C237.74,-178.29 231.98,-162.14 224.5,-149 220.88,-142.64 216.19,-136.26 211.56,-130.6"/>
<polygon fill="#9a32cd" stroke="#9a32cd" points="238.21,-191.82 244.34,-200.46 244.93,-189.88 238.21,-191.82"/>
<text text-anchor="middle" x="269" y="-168.5" font-family="Helvetica,sans-Serif" font-size="10.00"> aN</text>
<text text-anchor="middle" x="269" y="-157.5" font-family="Helvetica,sans-Serif" font-size="10.00">normGradU2</text>
</g>
<!-- Node6 -->
<g id="node6" class="node">
<title>Node6</title>
<g id="a_node6"><a xlink:href="classbool.html" target="_top" xlink:title=" ">
<polygon fill="white" stroke="black" points="281.5,-100.5 281.5,-119.5 319.5,-119.5 319.5,-100.5 281.5,-100.5"/>
<text text-anchor="middle" x="300.5" y="-107.5" font-family="Helvetica,sans-Serif" font-size="10.00">bool</text>
</a>
</g>
</g>
<!-- Node6&#45;&gt;Node1 -->
<g id="edge5" class="edge">
<title>Node6&#45;&gt;Node1</title>
<path fill="none" stroke="#9a32cd" stroke-dasharray="5,2" d="M291.68,-91.59C285.87,-81.42 277.5,-68.88 267.5,-60 259.51,-52.9 249.96,-46.73 240.41,-41.55"/>
<polygon fill="#9a32cd" stroke="#9a32cd" points="288.61,-93.27 296.43,-100.42 294.77,-89.96 288.61,-93.27"/>
<text text-anchor="middle" x="312" y="-63" font-family="Helvetica,sans-Serif" font-size="10.00"> rhsAndNotLhs</text>
</g>
</g>
</svg>
