<?xml version="1.0" encoding="UTF-8" standalone="no"?>
<!DOCTYPE svg PUBLIC "-//W3C//DTD SVG 1.1//EN"
 "http://www.w3.org/Graphics/SVG/1.1/DTD/svg11.dtd">
<!-- Generated by graphviz version 2.43.0 (0)
 -->
<!-- Title: MoFEM::NumeredDofEntity_part_and_mofem_glob_idx_change Pages: 1 -->
<svg width="174pt" height="128pt"
 viewBox="0.00 0.00 173.50 128.00" xmlns="http://www.w3.org/2000/svg" xmlns:xlink="http://www.w3.org/1999/xlink">
<g id="graph0" class="graph" transform="scale(1 1) rotate(0) translate(4 124)">
<title>MoFEM::NumeredDofEntity_part_and_mofem_glob_idx_change</title>
<polygon fill="white" stroke="transparent" points="-4,4 -4,-124 169.5,-124 169.5,4 -4,4"/>
<!-- Node1 -->
<g id="node1" class="node">
<title>Node1</title>
<g id="a_node1"><a xlink:title=" ">
<polygon fill="#bfbfbf" stroke="black" points="0,-0.5 0,-41.5 152,-41.5 152,-0.5 0,-0.5"/>
<text text-anchor="start" x="8" y="-29.5" font-family="Helvetica,sans-Serif" font-size="10.00">MoFEM::NumeredDofEntity</text>
<text text-anchor="start" x="8" y="-18.5" font-family="Helvetica,sans-Serif" font-size="10.00">_part_and_mofem_glob_idx</text>
<text text-anchor="middle" x="76" y="-7.5" font-family="Helvetica,sans-Serif" font-size="10.00">_change</text>
</a>
</g>
</g>
<!-- Node2 -->
<g id="node2" class="node">
<title>Node2</title>
<g id="a_node2"><a xlink:title=" ">
<polygon fill="white" stroke="#bfbfbf" points="3.5,-100.5 3.5,-119.5 32.5,-119.5 32.5,-100.5 3.5,-100.5"/>
<text text-anchor="middle" x="18" y="-107.5" font-family="Helvetica,sans-Serif" font-size="10.00">int</text>
</a>
</g>
</g>
<!-- Node2&#45;&gt;Node1 -->
<g id="edge1" class="edge">
<title>Node2&#45;&gt;Node1</title>
<path fill="none" stroke="#9a32cd" stroke-dasharray="5,2" d="M14.44,-90.3C13.55,-80.69 14,-69.12 19,-60 22.95,-52.8 28.91,-46.73 35.51,-41.69"/>
<polygon fill="#9a32cd" stroke="#9a32cd" points="11,-91.03 15.91,-100.42 17.93,-90.02 11,-91.03"/>
<text text-anchor="middle" x="66" y="-74" font-family="Helvetica,sans-Serif" font-size="10.00"> petscGloablDofIdx</text>
<text text-anchor="middle" x="66" y="-63" font-family="Helvetica,sans-Serif" font-size="10.00">mofemDofIdx</text>
</g>
<!-- Node3 -->
<g id="node3" class="node">
<title>Node3</title>
<g id="a_node3"><a xlink:title=" ">
<polygon fill="white" stroke="#bfbfbf" points="104.5,-100.5 104.5,-119.5 165.5,-119.5 165.5,-100.5 104.5,-100.5"/>
<text text-anchor="middle" x="135" y="-107.5" font-family="Helvetica,sans-Serif" font-size="10.00">unsigned</text>
</a>
</g>
</g>
<!-- Node3&#45;&gt;Node1 -->
<g id="edge2" class="edge">
<title>Node3&#45;&gt;Node1</title>
<path fill="none" stroke="#9a32cd" stroke-dasharray="5,2" d="M128.61,-90.83C124.81,-81.24 119.47,-69.51 113,-60 108.65,-53.6 103.17,-47.31 97.77,-41.75"/>
<polygon fill="#9a32cd" stroke="#9a32cd" points="125.33,-92.06 132.11,-100.2 131.89,-89.61 125.33,-92.06"/>
<text text-anchor="middle" x="136" y="-68.5" font-family="Helvetica,sans-Serif" font-size="10.00"> pArt</text>
</g>
</g>
</svg>
