<?xml version="1.0" encoding="UTF-8" standalone="no"?>
<!DOCTYPE svg PUBLIC "-//W3C//DTD SVG 1.1//EN"
 "http://www.w3.org/Graphics/SVG/1.1/DTD/svg11.dtd">
<!-- Generated by graphviz version 9.0.0 (20230911.1827)
 -->
<!-- Title: FractureMechanics::OpGetCrackFrontDataGradientAtGaussPts Pages: 1 -->
<svg width="332pt" height="128pt"
 viewBox="0.00 0.00 332.00 127.50" xmlns="http://www.w3.org/2000/svg" xmlns:xlink="http://www.w3.org/1999/xlink">
<g id="graph0" class="graph" transform="scale(1 1) rotate(0) translate(4 123.5)">
<title>FractureMechanics::OpGetCrackFrontDataGradientAtGaussPts</title>
<!-- Node1 -->
<g id="node1" class="node">
<title>Node1</title>
<g id="a_node1"><a xlink:title=" ">
<polygon fill="#999999" stroke="#666666" points="266.62,-41.75 115.62,-41.75 115.62,0 266.62,0 266.62,-41.75"/>
<text text-anchor="start" x="123.62" y="-28.25" font-family="Helvetica,sans-Serif" font-size="10.00">FractureMechanics::</text>
<text text-anchor="start" x="123.62" y="-17" font-family="Helvetica,sans-Serif" font-size="10.00">OpGetCrackFrontDataGradient</text>
<text text-anchor="middle" x="191.12" y="-5.75" font-family="Helvetica,sans-Serif" font-size="10.00">AtGaussPts</text>
</a>
</g>
</g>
<!-- Node2 -->
<g id="node2" class="node">
<title>Node2</title>
<g id="a_node2"><a xlink:href="class_op_calculate_vector_field_gradient.html" target="_top" xlink:title=" ">
<polygon fill="white" stroke="#666666" points="156.25,-119.5 0,-119.5 0,-89 156.25,-89 156.25,-119.5"/>
<text text-anchor="start" x="8" y="-106" font-family="Helvetica,sans-Serif" font-size="10.00">OpCalculateVectorFieldGradient</text>
<text text-anchor="middle" x="78.12" y="-94.75" font-family="Helvetica,sans-Serif" font-size="10.00">&lt; 3, 3 &gt;</text>
</a>
</g>
</g>
<!-- Node2&#45;&gt;Node1 -->
<g id="edge1" class="edge">
<title>Node2&#45;&gt;Node1</title>
<path fill="none" stroke="#63b8ff" d="M107.62,-82.01C124.77,-69.66 146.27,-54.17 163.16,-42.01"/>
<polygon fill="#63b8ff" stroke="#63b8ff" points="105.89,-78.95 99.82,-87.63 109.98,-84.63 105.89,-78.95"/>
</g>
<!-- Node3 -->
<g id="node3" class="node">
<title>Node3</title>
<g id="a_node3"><a xlink:href="classbool.html" target="_top" xlink:title=" ">
<polygon fill="white" stroke="#666666" points="208.12,-113.88 174.12,-113.88 174.12,-94.62 208.12,-94.62 208.12,-113.88"/>
<text text-anchor="middle" x="191.12" y="-100.38" font-family="Helvetica,sans-Serif" font-size="10.00">bool</text>
</a>
</g>
</g>
<!-- Node3&#45;&gt;Node1 -->
<g id="edge2" class="edge">
<title>Node3&#45;&gt;Node1</title>
<path fill="none" stroke="#9a32cd" stroke-dasharray="5,2" d="M191.12,-82.77C191.12,-70.32 191.12,-54.5 191.12,-42.1"/>
<polygon fill="#9a32cd" stroke="#9a32cd" points="187.63,-82.72 191.13,-92.72 194.63,-82.72 187.63,-82.72"/>
<text text-anchor="middle" x="227.5" y="-61.5" font-family="Helvetica,sans-Serif" font-size="10.00"> singularElement</text>
</g>
<!-- Node4 -->
<g id="node4" class="node">
<title>Node4</title>
<g id="a_node4"><a xlink:title=" ">
<polygon fill="white" stroke="#666666" points="324,-113.88 250.25,-113.88 250.25,-94.62 324,-94.62 324,-113.88"/>
<text text-anchor="middle" x="287.12" y="-100.38" font-family="Helvetica,sans-Serif" font-size="10.00">MatrixDouble</text>
</a>
</g>
</g>
<!-- Node4&#45;&gt;Node1 -->
<g id="edge3" class="edge">
<title>Node4&#45;&gt;Node1</title>
<path fill="none" stroke="#9a32cd" stroke-dasharray="5,2" d="M280.37,-83.7C276.81,-75.55 271.78,-66.44 265.12,-59.75 258.3,-52.9 249.98,-47.04 241.42,-42.12"/>
<polygon fill="#9a32cd" stroke="#9a32cd" points="277.03,-84.76 283.89,-92.83 283.56,-82.24 277.03,-84.76"/>
<text text-anchor="middle" x="292.25" y="-61.5" font-family="Helvetica,sans-Serif" font-size="10.00"> invSJac</text>
</g>
</g>
</svg>
