<?xml version="1.0" encoding="UTF-8" standalone="no"?>
<!DOCTYPE svg PUBLIC "-//W3C//DTD SVG 1.1//EN"
 "http://www.w3.org/Graphics/SVG/1.1/DTD/svg11.dtd">
<!-- Generated by graphviz version 2.43.0 (0)
 -->
<!-- Title: MoFEM::OpEssentialRhsImpl&lt; TemperatureCubitBcData, 1, 1, A, I, OpBase &gt; Pages: 1 -->
<svg width="350pt" height="61pt"
 viewBox="0.00 0.00 350.00 61.00" xmlns="http://www.w3.org/2000/svg" xmlns:xlink="http://www.w3.org/1999/xlink">
<g id="graph0" class="graph" transform="scale(1 1) rotate(0) translate(4 57)">
<title>MoFEM::OpEssentialRhsImpl&lt; TemperatureCubitBcData, 1, 1, A, I, OpBase &gt;</title>
<polygon fill="white" stroke="transparent" points="-4,4 -4,-57 346,-57 346,4 -4,4"/>
<!-- Node1 -->
<g id="node1" class="node">
<title>Node1</title>
<g id="a_node1"><a xlink:title=" ">
<polygon fill="#bfbfbf" stroke="black" points="186,-6 186,-47 342,-47 342,-6 186,-6"/>
<text text-anchor="start" x="194" y="-35" font-family="Helvetica,sans-Serif" font-size="10.00">MoFEM::OpEssentialRhsImpl</text>
<text text-anchor="start" x="194" y="-24" font-family="Helvetica,sans-Serif" font-size="10.00">&lt; TemperatureCubitBcData,</text>
<text text-anchor="middle" x="264" y="-13" font-family="Helvetica,sans-Serif" font-size="10.00"> 1, 1, A, I, OpBase &gt;</text>
</a>
</g>
</g>
<!-- Node2 -->
<g id="node2" class="node">
<title>Node2</title>
<g id="a_node2"><a xlink:title=" ">
<polygon fill="white" stroke="#bfbfbf" points="0,-0.5 0,-52.5 150,-52.5 150,-0.5 0,-0.5"/>
<text text-anchor="start" x="8" y="-40.5" font-family="Helvetica,sans-Serif" font-size="10.00">FormsIntegrators::template</text>
<text text-anchor="start" x="8" y="-29.5" font-family="Helvetica,sans-Serif" font-size="10.00"> Assembly&lt; A &gt;::template</text>
<text text-anchor="start" x="8" y="-18.5" font-family="Helvetica,sans-Serif" font-size="10.00"> LinearForm&lt; I &gt;::template</text>
<text text-anchor="middle" x="75" y="-7.5" font-family="Helvetica,sans-Serif" font-size="10.00"> OpSource&lt; 1, 1 &gt;</text>
</a>
</g>
</g>
<!-- Node2&#45;&gt;Node1 -->
<g id="edge1" class="edge">
<title>Node2&#45;&gt;Node1</title>
<path fill="none" stroke="midnightblue" d="M160.43,-26.5C168.9,-26.5 177.46,-26.5 185.85,-26.5"/>
<polygon fill="midnightblue" stroke="midnightblue" points="160.18,-23 150.18,-26.5 160.18,-30 160.18,-23"/>
</g>
</g>
</svg>
