<?xml version="1.0" encoding="UTF-8" standalone="no"?>
<!DOCTYPE svg PUBLIC "-//W3C//DTD SVG 1.1//EN"
 "http://www.w3.org/Graphics/SVG/1.1/DTD/svg11.dtd">
<!-- Generated by graphviz version 9.0.0 (20230911.1827)
 -->
<!-- Title: NeumannForcesSurface::OpNeumannPressureMaterialVolOnSideLhs_dX_dx Pages: 1 -->
<svg width="184pt" height="371pt"
 viewBox="0.00 0.00 183.75 371.00" xmlns="http://www.w3.org/2000/svg" xmlns:xlink="http://www.w3.org/1999/xlink">
<g id="graph0" class="graph" transform="scale(1 1) rotate(0) translate(4 367)">
<title>NeumannForcesSurface::OpNeumannPressureMaterialVolOnSideLhs_dX_dx</title>
<!-- Node1 -->
<g id="node1" class="node">
<title>Node1</title>
<g id="a_node1"><a xlink:title="LHS&#45;operator (material configuration) on the side volume.">
<polygon fill="#999999" stroke="#666666" points="163,-41.75 12.75,-41.75 12.75,0 163,0 163,-41.75"/>
<text text-anchor="start" x="20.75" y="-28.25" font-family="Helvetica,sans-Serif" font-size="10.00">NeumannForcesSurface</text>
<text text-anchor="start" x="20.75" y="-17" font-family="Helvetica,sans-Serif" font-size="10.00">::OpNeumannPressureMaterial</text>
<text text-anchor="middle" x="87.88" y="-5.75" font-family="Helvetica,sans-Serif" font-size="10.00">VolOnSideLhs_dX_dx</text>
</a>
</g>
</g>
<!-- Node2 -->
<g id="node2" class="node">
<title>Node2</title>
<g id="a_node2"><a xlink:href="struct_neumann_forces_surface_1_1_op_neumann_pressure_material_vol_on_side_lhs.html" target="_top" xlink:title="Base class for LHS&#45;operators (material) on side volumes.">
<polygon fill="white" stroke="#666666" points="163,-119.5 12.75,-119.5 12.75,-77.75 163,-77.75 163,-119.5"/>
<text text-anchor="start" x="20.75" y="-106" font-family="Helvetica,sans-Serif" font-size="10.00">NeumannForcesSurface</text>
<text text-anchor="start" x="20.75" y="-94.75" font-family="Helvetica,sans-Serif" font-size="10.00">::OpNeumannPressureMaterial</text>
<text text-anchor="middle" x="87.88" y="-83.5" font-family="Helvetica,sans-Serif" font-size="10.00">VolOnSideLhs</text>
</a>
</g>
</g>
<!-- Node2&#45;&gt;Node1 -->
<g id="edge1" class="edge">
<title>Node2&#45;&gt;Node1</title>
<path fill="none" stroke="#63b8ff" d="M87.88,-66C87.88,-57.96 87.88,-49.54 87.88,-42.23"/>
<polygon fill="#63b8ff" stroke="#63b8ff" points="84.38,-65.81 87.88,-75.81 91.38,-65.81 84.38,-65.81"/>
</g>
<!-- Node3 -->
<g id="node3" class="node">
<title>Node3</title>
<g id="a_node3"><a xlink:href="struct_mo_f_e_m_1_1_volume_element_forces_and_sources_core_on_side_1_1_user_data_operator.html" target="_top" xlink:title="default operator for TET element">
<polygon fill="white" stroke="#666666" points="158.88,-174.75 16.88,-174.75 16.88,-155.5 158.88,-155.5 158.88,-174.75"/>
<text text-anchor="middle" x="87.88" y="-161.25" font-family="Helvetica,sans-Serif" font-size="10.00">VolOnSideUserDataOperator</text>
</a>
</g>
</g>
<!-- Node3&#45;&gt;Node2 -->
<g id="edge2" class="edge">
<title>Node3&#45;&gt;Node2</title>
<path fill="none" stroke="#63b8ff" d="M87.88,-143.7C87.88,-136.11 87.88,-127.51 87.88,-119.93"/>
<polygon fill="#63b8ff" stroke="#63b8ff" points="84.38,-143.64 87.88,-153.64 91.38,-143.64 84.38,-143.64"/>
</g>
<!-- Node4 -->
<g id="node4" class="node">
<title>Node4</title>
<g id="a_node4"><a xlink:href="struct_mo_f_e_m_1_1_volume_element_forces_and_sources_core_1_1_user_data_operator.html" target="_top" xlink:title=" ">
<polygon fill="white" stroke="#666666" points="175.75,-241.25 0,-241.25 0,-210.75 175.75,-210.75 175.75,-241.25"/>
<text text-anchor="start" x="8" y="-227.75" font-family="Helvetica,sans-Serif" font-size="10.00">MoFEM::VolumeElementForces</text>
<text text-anchor="middle" x="87.88" y="-216.5" font-family="Helvetica,sans-Serif" font-size="10.00">AndSourcesCore::UserDataOperator</text>
</a>
</g>
</g>
<!-- Node4&#45;&gt;Node3 -->
<g id="edge3" class="edge">
<title>Node4&#45;&gt;Node3</title>
<path fill="none" stroke="#63b8ff" d="M87.88,-198.98C87.88,-190.48 87.88,-181.59 87.88,-175.2"/>
<polygon fill="#63b8ff" stroke="#63b8ff" points="84.38,-198.93 87.88,-208.93 91.38,-198.93 84.38,-198.93"/>
</g>
<!-- Node5 -->
<g id="node5" class="node">
<title>Node5</title>
<g id="a_node5"><a xlink:href="struct_mo_f_e_m_1_1_forces_and_sources_core_1_1_user_data_operator.html" target="_top" xlink:title=" ">
<polygon fill="white" stroke="#666666" points="168.25,-307.75 7.5,-307.75 7.5,-277.25 168.25,-277.25 168.25,-307.75"/>
<text text-anchor="start" x="15.5" y="-294.25" font-family="Helvetica,sans-Serif" font-size="10.00">MoFEM::ForcesAndSourcesCore</text>
<text text-anchor="middle" x="87.88" y="-283" font-family="Helvetica,sans-Serif" font-size="10.00">::UserDataOperator</text>
</a>
</g>
</g>
<!-- Node5&#45;&gt;Node4 -->
<g id="edge4" class="edge">
<title>Node5&#45;&gt;Node4</title>
<path fill="none" stroke="#63b8ff" d="M87.88,-265.56C87.88,-257.39 87.88,-248.66 87.88,-241.58"/>
<polygon fill="#63b8ff" stroke="#63b8ff" points="84.38,-265.35 87.88,-275.35 91.38,-265.35 84.38,-265.35"/>
</g>
<!-- Node6 -->
<g id="node6" class="node">
<title>Node6</title>
<g id="a_node6"><a xlink:href="struct_mo_f_e_m_1_1_data_operator.html" target="_top" xlink:title="base operator to do operations at Gauss Pt. level">
<polygon fill="white" stroke="#666666" points="145.38,-363 30.38,-363 30.38,-343.75 145.38,-343.75 145.38,-363"/>
<text text-anchor="middle" x="87.88" y="-349.5" font-family="Helvetica,sans-Serif" font-size="10.00">MoFEM::DataOperator</text>
</a>
</g>
</g>
<!-- Node6&#45;&gt;Node5 -->
<g id="edge5" class="edge">
<title>Node6&#45;&gt;Node5</title>
<path fill="none" stroke="#63b8ff" d="M87.88,-332.17C87.88,-324.24 87.88,-315.31 87.88,-308.03"/>
<polygon fill="#63b8ff" stroke="#63b8ff" points="84.38,-331.92 87.88,-341.92 91.38,-331.92 84.38,-331.92"/>
</g>
</g>
</svg>
