<?xml version="1.0" encoding="UTF-8" standalone="no"?>
<!DOCTYPE svg PUBLIC "-//W3C//DTD SVG 1.1//EN"
 "http://www.w3.org/Graphics/SVG/1.1/DTD/svg11.dtd">
<!-- Generated by graphviz version 9.0.0 (20230911.1827)
 -->
<!-- Title: EshelbianPlasticity::OpTractionBc Pages: 1 -->
<svg width="1569pt" height="175pt"
 viewBox="0.00 0.00 1568.75 175.25" xmlns="http://www.w3.org/2000/svg" xmlns:xlink="http://www.w3.org/1999/xlink">
<g id="graph0" class="graph" transform="scale(1 1) rotate(0) translate(4 171.25)">
<title>EshelbianPlasticity::OpTractionBc</title>
<!-- Node1 -->
<g id="node1" class="node">
<title>Node1</title>
<g id="a_node1"><a xlink:title=" ">
<polygon fill="#999999" stroke="#666666" points="1560.75,-100.88 1461.5,-100.88 1461.5,-70.38 1560.75,-70.38 1560.75,-100.88"/>
<text text-anchor="start" x="1469.5" y="-87.38" font-family="Helvetica,sans-Serif" font-size="10.00">EshelbianPlasticity</text>
<text text-anchor="middle" x="1511.12" y="-76.12" font-family="Helvetica,sans-Serif" font-size="10.00">::OpTractionBc</text>
</a>
</g>
</g>
<!-- Node2 -->
<g id="node2" class="node">
<title>Node2</title>
<g id="a_node2"><a xlink:title=" ">
<polygon fill="white" stroke="#666666" points="1392.5,-136.25 1275.25,-136.25 1275.25,-117 1392.5,-117 1392.5,-136.25"/>
<text text-anchor="middle" x="1333.88" y="-122.75" font-family="Helvetica,sans-Serif" font-size="10.00">FaceUserDataOperator</text>
</a>
</g>
</g>
<!-- Node2&#45;&gt;Node1 -->
<g id="edge1" class="edge">
<title>Node2&#45;&gt;Node1</title>
<path fill="none" stroke="#63b8ff" d="M1388.76,-114.02C1411.86,-108.61 1438.66,-102.34 1461.19,-97.07"/>
<polygon fill="#63b8ff" stroke="#63b8ff" points="1388.16,-110.56 1379.22,-116.25 1389.75,-117.38 1388.16,-110.56"/>
</g>
<!-- Node3 -->
<g id="node3" class="node">
<title>Node3</title>
<g id="a_node3"><a xlink:href="struct_eshelbian_plasticity_1_1_fe_traction_bc.html" target="_top" xlink:title=" ">
<polygon fill="white" stroke="#666666" points="1383.5,-98.88 1284.25,-98.88 1284.25,-68.38 1383.5,-68.38 1383.5,-98.88"/>
<text text-anchor="start" x="1292.25" y="-85.38" font-family="Helvetica,sans-Serif" font-size="10.00">EshelbianPlasticity</text>
<text text-anchor="middle" x="1333.88" y="-74.12" font-family="Helvetica,sans-Serif" font-size="10.00">::FeTractionBc</text>
</a>
</g>
</g>
<!-- Node3&#45;&gt;Node1 -->
<g id="edge2" class="edge">
<title>Node3&#45;&gt;Node1</title>
<path fill="none" stroke="#9a32cd" stroke-dasharray="5,2" d="M1395.06,-84.31C1416.67,-84.56 1440.74,-84.83 1461.27,-85.07"/>
<polygon fill="#9a32cd" stroke="#9a32cd" points="1395.24,-80.81 1385.21,-84.2 1395.16,-87.81 1395.24,-80.81"/>
<text text-anchor="middle" x="1427" y="-86.38" font-family="Helvetica,sans-Serif" font-size="10.00"> bcFe</text>
</g>
<!-- Node4 -->
<g id="node4" class="node">
<title>Node4</title>
<g id="a_node4"><a xlink:href="class_f_e_method.html" target="_top" xlink:title=" ">
<polygon fill="white" stroke="#666666" points="1105,-167.25 1044,-167.25 1044,-148 1105,-148 1105,-167.25"/>
<text text-anchor="middle" x="1074.5" y="-153.75" font-family="Helvetica,sans-Serif" font-size="10.00">FEMethod</text>
</a>
</g>
</g>
<!-- Node4&#45;&gt;Node3 -->
<g id="edge3" class="edge">
<title>Node4&#45;&gt;Node3</title>
<path fill="none" stroke="#63b8ff" d="M1116.69,-156.78C1154.97,-154.51 1212.64,-147.18 1257.25,-124.62 1267.07,-119.66 1266.02,-113.62 1275.25,-107.62 1279.89,-104.62 1284.96,-101.85 1290.12,-99.36"/>
<polygon fill="#63b8ff" stroke="#63b8ff" points="1116.79,-153.27 1106.98,-157.26 1117.14,-160.26 1116.79,-153.27"/>
</g>
<!-- Node5 -->
<g id="node5" class="node">
<title>Node5</title>
<g id="a_node5"><a xlink:title=" ">
<polygon fill="white" stroke="#666666" points="1088.9,-130.25 1060.1,-130.25 1060.1,-111 1088.9,-111 1088.9,-130.25"/>
<text text-anchor="middle" x="1074.5" y="-116.75" font-family="Helvetica,sans-Serif" font-size="10.00">int</text>
</a>
</g>
</g>
<!-- Node5&#45;&gt;Node3 -->
<g id="edge4" class="edge">
<title>Node5&#45;&gt;Node3</title>
<path fill="none" stroke="#9a32cd" stroke-dasharray="5,2" d="M1100.27,-118.22C1135.33,-114.69 1201.38,-107.53 1257.25,-98.62 1265.97,-97.23 1275.23,-95.56 1284.15,-93.85"/>
<polygon fill="#9a32cd" stroke="#9a32cd" points="1100.34,-114.7 1090.74,-119.17 1101.03,-121.67 1100.34,-114.7"/>
<text text-anchor="middle" x="1216.38" y="-111.38" font-family="Helvetica,sans-Serif" font-size="10.00"> nbConstrainsDofs</text>
</g>
<!-- Node6 -->
<g id="node6" class="node">
<title>Node6</title>
<g id="a_node6"><a xlink:href="struct_mo_f_e_m_1_1_deprecated_core_interface.html" target="_top" xlink:title="Deprecated interface functions.">
<polygon fill="white" stroke="#666666" points="1157.5,-93.25 991.5,-93.25 991.5,-74 1157.5,-74 1157.5,-93.25"/>
<text text-anchor="middle" x="1074.5" y="-79.75" font-family="Helvetica,sans-Serif" font-size="10.00">MoFEM::DeprecatedCoreInterface</text>
</a>
</g>
</g>
<!-- Node6&#45;&gt;Node3 -->
<g id="edge5" class="edge">
<title>Node6&#45;&gt;Node3</title>
<path fill="none" stroke="#9a32cd" stroke-dasharray="5,2" d="M1169.34,-83.62C1208.13,-83.62 1251.49,-83.62 1283.81,-83.62"/>
<polygon fill="#9a32cd" stroke="#9a32cd" points="1169.51,-80.13 1159.51,-83.63 1169.51,-87.13 1169.51,-80.13"/>
<text text-anchor="middle" x="1216.38" y="-85.38" font-family="Helvetica,sans-Serif" font-size="10.00"> mField</text>
</g>
<!-- Node7 -->
<g id="node7" class="node">
<title>Node7</title>
<g id="a_node7"><a xlink:href="struct_mo_f_e_m_1_1_core_interface.html" target="_top" xlink:title="Interface.">
<polygon fill="white" stroke="#666666" points="954.5,-93.25 838.75,-93.25 838.75,-74 954.5,-74 954.5,-93.25"/>
<text text-anchor="middle" x="896.62" y="-79.75" font-family="Helvetica,sans-Serif" font-size="10.00">MoFEM::CoreInterface</text>
</a>
</g>
</g>
<!-- Node7&#45;&gt;Node6 -->
<g id="edge6" class="edge">
<title>Node7&#45;&gt;Node6</title>
<path fill="none" stroke="#63b8ff" d="M966.13,-83.62C974.33,-83.62 982.77,-83.62 991.13,-83.62"/>
<polygon fill="#63b8ff" stroke="#63b8ff" points="966.24,-80.13 956.24,-83.63 966.24,-87.13 966.24,-80.13"/>
</g>
<!-- Node8 -->
<g id="node8" class="node">
<title>Node8</title>
<g id="a_node8"><a xlink:href="struct_mo_f_e_m_1_1_unknown_interface.html" target="_top" xlink:title="base class for all interface classes">
<polygon fill="white" stroke="#666666" points="801.75,-93.25 665.75,-93.25 665.75,-74 801.75,-74 801.75,-93.25"/>
<text text-anchor="middle" x="733.75" y="-79.75" font-family="Helvetica,sans-Serif" font-size="10.00">MoFEM::UnknownInterface</text>
</a>
</g>
</g>
<!-- Node8&#45;&gt;Node7 -->
<g id="edge7" class="edge">
<title>Node8&#45;&gt;Node7</title>
<path fill="none" stroke="#63b8ff" d="M813.43,-83.62C821.81,-83.62 830.23,-83.62 838.3,-83.62"/>
<polygon fill="#63b8ff" stroke="#63b8ff" points="813.56,-80.13 803.56,-83.63 813.56,-87.13 813.56,-80.13"/>
</g>
<!-- Node9 -->
<g id="node9" class="node">
<title>Node9</title>
<g id="a_node9"><a xlink:title=" ">
<polygon fill="white" stroke="#666666" points="563,-115.75 346.75,-115.75 346.75,-51.5 563,-51.5 563,-115.75"/>
<text text-anchor="start" x="354.75" y="-102.25" font-family="Helvetica,sans-Serif" font-size="10.00">multi_index_container</text>
<text text-anchor="start" x="354.75" y="-91" font-family="Helvetica,sans-Serif" font-size="10.00">&lt; UIdTypeMap, indexed</text>
<text text-anchor="start" x="354.75" y="-79.75" font-family="Helvetica,sans-Serif" font-size="10.00">_by&lt; hashed_unique&lt; member</text>
<text text-anchor="start" x="354.75" y="-68.5" font-family="Helvetica,sans-Serif" font-size="10.00">&lt; UIdTypeMap, boost::typeindex</text>
<text text-anchor="middle" x="454.88" y="-57.25" font-family="Helvetica,sans-Serif" font-size="10.00">::type_index, &amp;UIdTypeMap::classIdx &gt; &gt; &gt; &gt;</text>
</a>
</g>
</g>
<!-- Node9&#45;&gt;Node8 -->
<g id="edge8" class="edge">
<title>Node9&#45;&gt;Node8</title>
<path fill="none" stroke="#9a32cd" stroke-dasharray="5,2" d="M574.68,-83.62C605.7,-83.62 638.06,-83.62 665.37,-83.62"/>
<polygon fill="#9a32cd" stroke="#9a32cd" points="574.83,-80.13 564.83,-83.63 574.83,-87.13 574.83,-80.13"/>
<text text-anchor="middle" x="614.38" y="-85.38" font-family="Helvetica,sans-Serif" font-size="10.00"> iFaceTypeMap</text>
</g>
<!-- Node10 -->
<g id="node10" class="node">
<title>Node10</title>
<g id="a_node10"><a xlink:title=" ">
<polygon fill="white" stroke="#666666" points="110.5,-93.25 0,-93.25 0,-74 110.5,-74 110.5,-93.25"/>
<text text-anchor="middle" x="55.25" y="-79.75" font-family="Helvetica,sans-Serif" font-size="10.00">multi_index_container</text>
</a>
</g>
</g>
<!-- Node10&#45;&gt;Node9 -->
<g id="edge9" class="edge">
<title>Node10&#45;&gt;Node9</title>
<path fill="none" stroke="orange" stroke-dasharray="5,2" d="M122.09,-83.62C183.01,-83.62 274.7,-83.62 346.26,-83.62"/>
<polygon fill="orange" stroke="orange" points="122.22,-80.13 112.22,-83.63 122.22,-87.13 122.22,-80.13"/>
<text text-anchor="start" x="128.5" y="-119.12" font-family="Helvetica,sans-Serif" font-size="10.00"> &lt; UIdTypeMap, indexed</text>
<text text-anchor="start" x="128.5" y="-107.88" font-family="Helvetica,sans-Serif" font-size="10.00">_by&lt; hashed_unique&lt; member</text>
<text text-anchor="start" x="128.5" y="-96.62" font-family="Helvetica,sans-Serif" font-size="10.00">&lt; UIdTypeMap, boost::typeindex</text>
<text text-anchor="middle" x="228.62" y="-85.38" font-family="Helvetica,sans-Serif" font-size="10.00">::type_index, &amp;UIdTypeMap::classIdx &gt; &gt; &gt; &gt;</text>
</g>
<!-- Node11 -->
<g id="node11" class="node">
<title>Node11</title>
<g id="a_node11"><a xlink:title=" ">
<polygon fill="white" stroke="#666666" points="1146.62,-56.25 1002.38,-56.25 1002.38,-37 1146.62,-37 1146.62,-56.25"/>
<text text-anchor="middle" x="1074.5" y="-42.75" font-family="Helvetica,sans-Serif" font-size="10.00">shared_ptr&lt; TractionBcVec &gt;</text>
</a>
</g>
</g>
<!-- Node11&#45;&gt;Node3 -->
<g id="edge10" class="edge">
<title>Node11&#45;&gt;Node3</title>
<path fill="none" stroke="#9a32cd" stroke-dasharray="5,2" d="M1158.15,-55.1C1189.29,-58.67 1224.97,-63.2 1257.25,-68.38 1265.85,-69.75 1274.95,-71.42 1283.76,-73.13"/>
<polygon fill="#9a32cd" stroke="#9a32cd" points="1158.73,-51.65 1148.4,-54 1157.94,-58.6 1158.73,-51.65"/>
<text text-anchor="middle" x="1216.38" y="-69.38" font-family="Helvetica,sans-Serif" font-size="10.00"> bcData</text>
</g>
<!-- Node12 -->
<g id="node12" class="node">
<title>Node12</title>
<g id="a_node12"><a xlink:title=" ">
<polygon fill="white" stroke="#666666" points="1094.5,-19.25 1054.5,-19.25 1054.5,0 1094.5,0 1094.5,-19.25"/>
<text text-anchor="middle" x="1074.5" y="-5.75" font-family="Helvetica,sans-Serif" font-size="10.00">string</text>
</a>
</g>
</g>
<!-- Node12&#45;&gt;Node3 -->
<g id="edge11" class="edge">
<title>Node12&#45;&gt;Node3</title>
<path fill="none" stroke="#9a32cd" stroke-dasharray="5,2" d="M1106.15,-9.62C1143.71,-10.78 1208.38,-16.64 1257.25,-41.38 1267.14,-46.38 1266.02,-52.49 1275.25,-58.62 1280.34,-62.01 1285.95,-65.1 1291.63,-67.88"/>
<polygon fill="#9a32cd" stroke="#9a32cd" points="1106.54,-6.13 1096.47,-9.42 1106.4,-13.13 1106.54,-6.13"/>
<text text-anchor="middle" x="1216.38" y="-43.38" font-family="Helvetica,sans-Serif" font-size="10.00"> fieldName</text>
</g>
<!-- Node13 -->
<g id="node13" class="node">
<title>Node13</title>
<g id="a_node13"><a xlink:title=" ">
<polygon fill="white" stroke="#666666" points="1370.75,-49.25 1297,-49.25 1297,-30 1370.75,-30 1370.75,-49.25"/>
<text text-anchor="middle" x="1333.88" y="-35.75" font-family="Helvetica,sans-Serif" font-size="10.00">MatrixDouble</text>
</a>
</g>
</g>
<!-- Node13&#45;&gt;Node1 -->
<g id="edge12" class="edge">
<title>Node13&#45;&gt;Node1</title>
<path fill="none" stroke="#9a32cd" stroke-dasharray="5,2" d="M1382.3,-44.7C1401.53,-47.42 1423.81,-51.42 1443.5,-57.12 1454.98,-60.45 1467.11,-65.23 1477.84,-69.93"/>
<polygon fill="#9a32cd" stroke="#9a32cd" points="1382.95,-41.26 1372.58,-43.41 1382.03,-48.2 1382.95,-41.26"/>
<text text-anchor="middle" x="1427" y="-69.62" font-family="Helvetica,sans-Serif" font-size="10.00"> matPP</text>
<text text-anchor="middle" x="1427" y="-58.38" font-family="Helvetica,sans-Serif" font-size="10.00">vecPv</text>
</g>
</g>
</svg>
