<?xml version="1.0" encoding="UTF-8" standalone="no"?>
<!DOCTYPE svg PUBLIC "-//W3C//DTD SVG 1.1//EN"
 "http://www.w3.org/Graphics/SVG/1.1/DTD/svg11.dtd">
<!-- Generated by graphviz version 9.0.0 (20230911.1827)
 -->
<!-- Title: PostProcFaceOnRefinedMesh::OpGetFieldValuesOnSkinImpl&lt; RANK &gt; Pages: 1 -->
<svg width="423pt" height="276pt"
 viewBox="0.00 0.00 423.25 275.88" xmlns="http://www.w3.org/2000/svg" xmlns:xlink="http://www.w3.org/1999/xlink">
<g id="graph0" class="graph" transform="scale(1 1) rotate(0) translate(4 271.88)">
<title>PostProcFaceOnRefinedMesh::OpGetFieldValuesOnSkinImpl&lt; RANK &gt;</title>
<!-- Node1 -->
<g id="node1" class="node">
<title>Node1</title>
<g id="a_node1"><a xlink:title=" ">
<polygon fill="#999999" stroke="#666666" points="415.25,-159.5 263.5,-159.5 263.5,-117.75 415.25,-117.75 415.25,-159.5"/>
<text text-anchor="start" x="271.5" y="-146" font-family="Helvetica,sans-Serif" font-size="10.00">PostProcFaceOnRefinedMesh</text>
<text text-anchor="start" x="271.5" y="-134.75" font-family="Helvetica,sans-Serif" font-size="10.00">::OpGetFieldValuesOnSkinImpl</text>
<text text-anchor="middle" x="339.38" y="-123.5" font-family="Helvetica,sans-Serif" font-size="10.00">&lt; RANK &gt;</text>
</a>
</g>
</g>
<!-- Node2 -->
<g id="node2" class="node">
<title>Node2</title>
<g id="a_node2"><a xlink:title=" ">
<polygon fill="white" stroke="#666666" points="159.25,-267.88 2.25,-267.88 2.25,-237.38 159.25,-237.38 159.25,-267.88"/>
<text text-anchor="start" x="10.25" y="-254.38" font-family="Helvetica,sans-Serif" font-size="10.00">FaceElementForcesAndSources</text>
<text text-anchor="middle" x="80.75" y="-243.12" font-family="Helvetica,sans-Serif" font-size="10.00">Core::UserDataOperator</text>
</a>
</g>
</g>
<!-- Node2&#45;&gt;Node1 -->
<g id="edge1" class="edge">
<title>Node2&#45;&gt;Node1</title>
<path fill="none" stroke="#63b8ff" d="M164.97,-234C191.41,-226.57 220.31,-216.84 245.5,-204.62 270.24,-192.63 295.5,-174.2 313.41,-159.86"/>
<polygon fill="#63b8ff" stroke="#63b8ff" points="164.39,-230.53 155.66,-236.54 166.23,-237.28 164.39,-230.53"/>
</g>
<!-- Node3 -->
<g id="node3" class="node">
<title>Node3</title>
<g id="a_node3"><a xlink:title=" ">
<polygon fill="white" stroke="#666666" points="112.75,-219.25 48.75,-219.25 48.75,-200 112.75,-200 112.75,-219.25"/>
<text text-anchor="middle" x="80.75" y="-205.75" font-family="Helvetica,sans-Serif" font-size="10.00">Interface &amp;</text>
</a>
</g>
</g>
<!-- Node3&#45;&gt;Node1 -->
<g id="edge2" class="edge">
<title>Node3&#45;&gt;Node1</title>
<path fill="none" stroke="#9a32cd" stroke-dasharray="5,2" d="M124.38,-202.44C157.71,-196.36 205.01,-186.72 245.5,-174.62 259.42,-170.47 274.2,-165.16 287.79,-159.91"/>
<polygon fill="#9a32cd" stroke="#9a32cd" points="123.93,-198.96 114.7,-204.17 125.16,-205.85 123.93,-198.96"/>
<text text-anchor="middle" x="212.5" y="-191.38" font-family="Helvetica,sans-Serif" font-size="10.00"> postProcMesh</text>
</g>
<!-- Node4 -->
<g id="node4" class="node">
<title>Node4</title>
<g id="a_node4"><a xlink:title=" ">
<polygon fill="white" stroke="#666666" points="144.25,-182.25 17.25,-182.25 17.25,-163 144.25,-163 144.25,-182.25"/>
<text text-anchor="middle" x="80.75" y="-168.75" font-family="Helvetica,sans-Serif" font-size="10.00">vector&lt; EntityHandle &gt; &amp;</text>
</a>
</g>
</g>
<!-- Node4&#45;&gt;Node1 -->
<g id="edge3" class="edge">
<title>Node4&#45;&gt;Node1</title>
<path fill="none" stroke="#9a32cd" stroke-dasharray="5,2" d="M155.74,-162.82C189.55,-158.34 229.54,-153.04 263.47,-148.55"/>
<polygon fill="#9a32cd" stroke="#9a32cd" points="155.48,-159.33 146.03,-164.11 156.4,-166.27 155.48,-159.33"/>
<text text-anchor="middle" x="212.5" y="-161.38" font-family="Helvetica,sans-Serif" font-size="10.00"> mapGaussPts</text>
</g>
<!-- Node5 -->
<g id="node5" class="node">
<title>Node5</title>
<g id="a_node5"><a xlink:title=" ">
<polygon fill="white" stroke="#666666" points="161.5,-144.88 0,-144.88 0,-114.38 161.5,-114.38 161.5,-144.88"/>
<text text-anchor="start" x="8" y="-131.38" font-family="Helvetica,sans-Serif" font-size="10.00">shared_ptr&lt; VolumeElement</text>
<text text-anchor="middle" x="80.75" y="-120.12" font-family="Helvetica,sans-Serif" font-size="10.00">ForcesAndSourcesCoreOnSide &gt;</text>
</a>
</g>
</g>
<!-- Node5&#45;&gt;Node1 -->
<g id="edge4" class="edge">
<title>Node5&#45;&gt;Node1</title>
<path fill="none" stroke="#9a32cd" stroke-dasharray="5,2" d="M173.06,-132.83C202.59,-133.86 234.99,-135 263.21,-135.99"/>
<polygon fill="#9a32cd" stroke="#9a32cd" points="173.52,-129.34 163.4,-132.49 173.28,-136.34 173.52,-129.34"/>
<text text-anchor="middle" x="212.5" y="-136.38" font-family="Helvetica,sans-Serif" font-size="10.00"> sideOpFe</text>
</g>
<!-- Node6 -->
<g id="node6" class="node">
<title>Node6</title>
<g id="a_node6"><a xlink:title=" ">
<polygon fill="white" stroke="#666666" points="100.75,-93.25 60.75,-93.25 60.75,-74 100.75,-74 100.75,-93.25"/>
<text text-anchor="middle" x="80.75" y="-79.75" font-family="Helvetica,sans-Serif" font-size="10.00">string</text>
</a>
</g>
</g>
<!-- Node6&#45;&gt;Node1 -->
<g id="edge5" class="edge">
<title>Node6&#45;&gt;Node1</title>
<path fill="none" stroke="#9a32cd" stroke-dasharray="5,2" d="M112.01,-82.39C145.28,-81.79 200.06,-83.06 245.5,-94.88 264.82,-99.9 285.01,-108.9 301.61,-117.44"/>
<polygon fill="#9a32cd" stroke="#9a32cd" points="112.2,-78.88 102.29,-82.64 112.38,-85.88 112.2,-78.88"/>
<text text-anchor="middle" x="212.5" y="-118.88" font-family="Helvetica,sans-Serif" font-size="10.00"> feVolName</text>
<text text-anchor="middle" x="212.5" y="-107.62" font-family="Helvetica,sans-Serif" font-size="10.00">fieldName</text>
<text text-anchor="middle" x="212.5" y="-96.38" font-family="Helvetica,sans-Serif" font-size="10.00">tagName</text>
</g>
<!-- Node7 -->
<g id="node7" class="node">
<title>Node7</title>
<g id="a_node7"><a xlink:title=" ">
<polygon fill="white" stroke="#666666" points="149.5,-56.25 12,-56.25 12,-37 149.5,-37 149.5,-56.25"/>
<text text-anchor="middle" x="80.75" y="-42.75" font-family="Helvetica,sans-Serif" font-size="10.00">shared_ptr&lt; MatrixDouble &gt;</text>
</a>
</g>
</g>
<!-- Node7&#45;&gt;Node1 -->
<g id="edge6" class="edge">
<title>Node7&#45;&gt;Node1</title>
<path fill="none" stroke="#9a32cd" stroke-dasharray="5,2" d="M161.05,-49.6C188.57,-52.71 219.13,-58.55 245.5,-69.38 272.67,-80.52 299.05,-101.48 316.72,-117.43"/>
<polygon fill="#9a32cd" stroke="#9a32cd" points="161.67,-46.14 151.37,-48.62 160.97,-53.11 161.67,-46.14"/>
<text text-anchor="middle" x="212.5" y="-70.38" font-family="Helvetica,sans-Serif" font-size="10.00"> matPtr</text>
</g>
<!-- Node8 -->
<g id="node8" class="node">
<title>Node8</title>
<g id="a_node8"><a xlink:href="classbool.html" target="_top" xlink:title=" ">
<polygon fill="white" stroke="#666666" points="97.75,-19.25 63.75,-19.25 63.75,0 97.75,0 97.75,-19.25"/>
<text text-anchor="middle" x="80.75" y="-5.75" font-family="Helvetica,sans-Serif" font-size="10.00">bool</text>
</a>
</g>
</g>
<!-- Node8&#45;&gt;Node1 -->
<g id="edge7" class="edge">
<title>Node8&#45;&gt;Node1</title>
<path fill="none" stroke="#9a32cd" stroke-dasharray="5,2" d="M109.6,-8.74C143.7,-8.82 202.22,-12.86 245.5,-36.38 280.9,-55.61 309.84,-93.63 325.55,-117.5"/>
<polygon fill="#9a32cd" stroke="#9a32cd" points="109.7,-5.24 99.74,-8.84 109.77,-12.24 109.7,-5.24"/>
<text text-anchor="middle" x="212.5" y="-38.38" font-family="Helvetica,sans-Serif" font-size="10.00"> saveOnTag</text>
</g>
</g>
</svg>
