<?xml version="1.0" encoding="UTF-8" standalone="no"?>
<!DOCTYPE svg PUBLIC "-//W3C//DTD SVG 1.1//EN"
 "http://www.w3.org/Graphics/SVG/1.1/DTD/svg11.dtd">
<!-- Generated by graphviz version 9.0.0 (20230911.1827)
 -->
<!-- Title: AlphaAdaptCtx Pages: 1 -->
<!--zoomable 341 -->
<svg id="main" version="1.1" xmlns="http://www.w3.org/2000/svg" xmlns:xlink="http://www.w3.org/1999/xlink" xml:space="preserve" onload="init(evt)">
<style type="text/css"><![CDATA[
.edge:hover path { stroke: red; }
.edge:hover polygon { stroke: red; fill: red; }
]]></style>
<script type="text/javascript"><![CDATA[
var edges = document.getElementsByTagName('g');
if (edges && edges.length) {
  for (var i=0;i<edges.length;i++) {
    if (edges[i].id.substr(0,4)=='edge') {
      edges[i].setAttribute('class','edge');
    }
  }
}
]]></script>
        <defs>
                <circle id="rim" cx="0" cy="0" r="7"/>
                <circle id="rim2" cx="0" cy="0" r="3.5"/>
                <g id="zoomPlus">
                        <use xlink:href="#rim" fill="#404040">
                                <set attributeName="fill" to="#808080" begin="zoomplus.mouseover" end="zoomplus.mouseout"/>
                        </use>
                        <path d="M-4,0h8M0,-4v8" fill="none" stroke="white" stroke-width="1.5" pointer-events="none"/>
                </g>
                <g id="zoomMin">
                        <use xlink:href="#rim" fill="#404040">
                                <set attributeName="fill" to="#808080" begin="zoomminus.mouseover" end="zoomminus.mouseout"/>
                        </use>
                        <path d="M-4,0h8" fill="none" stroke="white" stroke-width="1.5" pointer-events="none"/>
                </g>
                <g id="dirArrow">
                        <path fill="none" stroke="white" stroke-width="1.5" d="M0,-3.0v7 M-2.5,-0.5L0,-3.0L2.5,-0.5"/>
                </g>
               <g id="resetDef">
                       <use xlink:href="#rim2" fill="#404040">
                               <set attributeName="fill" to="#808080" begin="reset.mouseover" end="reset.mouseout"/>
                       </use>
               </g>
        </defs>

<script type="text/javascript">
var viewWidth = 1557;
var viewHeight = 341;
var sectionId = 'dynsection-0';
</script>
<script xlink:href="svgpan.js"/>
<svg id="graph" class="graph">
<g id="viewport">
<title>AlphaAdaptCtx</title>
<!-- Node1 -->
<g id="node1" class="node">
<title>Node1</title>
<g id="a_node1"><a xlink:title=" ">
<polygon fill="#999999" stroke="#666666" points="1548.5,-263.5 1466.5,-263.5 1466.5,-244.25 1548.5,-244.25 1548.5,-263.5"/>
<text text-anchor="middle" x="1507.5" y="-250" font-family="Helvetica,sans-Serif" font-size="10.00">AlphaAdaptCtx</text>
</a>
</g>
</g>
<!-- Node2 -->
<g id="node2" class="node">
<title>Node2</title>
<g id="a_node2"><a xlink:href="struct_arc_length_ctx.html" target="_top" xlink:title="Store variables for ArcLength analysis.">
<polygon fill="white" stroke="#666666" points="1381,-193.5 1305,-193.5 1305,-174.25 1381,-174.25 1381,-193.5"/>
<text text-anchor="middle" x="1343" y="-180" font-family="Helvetica,sans-Serif" font-size="10.00">ArcLengthCtx</text>
</a>
</g>
</g>
<!-- Node2&#45;&gt;Node1 -->
<g id="edge1" class="edge">
<title>Node2&#45;&gt;Node1</title>
<path fill="none" stroke="#9a32cd" stroke-dasharray="5,2" d="M1377.75,-198.41C1409.22,-211.97 1455.34,-231.84 1483,-243.75"/>
<polygon fill="#9a32cd" stroke="#9a32cd" points="1379.24,-195.24 1368.67,-194.5 1376.47,-201.67 1379.24,-195.24"/>
<text text-anchor="middle" x="1423.75" y="-228.62" font-family="Helvetica,sans-Serif" font-size="10.00"> arcPtrRaw</text>
</g>
<!-- Node3 -->
<g id="node3" class="node">
<title>Node3</title>
<g id="a_node3"><a xlink:href="struct_mo_f_e_m_1_1_deprecated_core_interface.html" target="_top" xlink:title="Deprecated interface functions.">
<polygon fill="white" stroke="#666666" points="1202.25,-196.5 1036.25,-196.5 1036.25,-177.25 1202.25,-177.25 1202.25,-196.5"/>
<text text-anchor="middle" x="1119.25" y="-183" font-family="Helvetica,sans-Serif" font-size="10.00">MoFEM::DeprecatedCoreInterface</text>
</a>
</g>
</g>
<!-- Node3&#45;&gt;Node2 -->
<g id="edge2" class="edge">
<title>Node3&#45;&gt;Node2</title>
<path fill="none" stroke="#9a32cd" stroke-dasharray="5,2" d="M1214.01,-184.72C1216.11,-184.69 1218.19,-184.65 1220.25,-184.62 1248.57,-184.22 1280.6,-184.03 1304.7,-183.95"/>
<polygon fill="#9a32cd" stroke="#9a32cd" points="1214.1,-181.22 1204.16,-184.89 1214.22,-188.22 1214.1,-181.22"/>
<text text-anchor="middle" x="1253.62" y="-185.62" font-family="Helvetica,sans-Serif" font-size="10.00"> mField</text>
</g>
<!-- Node4 -->
<g id="node4" class="node">
<title>Node4</title>
<g id="a_node4"><a xlink:href="struct_mo_f_e_m_1_1_core_interface.html" target="_top" xlink:title="Interface.">
<polygon fill="white" stroke="#666666" points="958.25,-196.5 842.5,-196.5 842.5,-177.25 958.25,-177.25 958.25,-196.5"/>
<text text-anchor="middle" x="900.38" y="-183" font-family="Helvetica,sans-Serif" font-size="10.00">MoFEM::CoreInterface</text>
</a>
</g>
</g>
<!-- Node4&#45;&gt;Node3 -->
<g id="edge3" class="edge">
<title>Node4&#45;&gt;Node3</title>
<path fill="none" stroke="#63b8ff" d="M970.04,-186.88C991.04,-186.88 1014.35,-186.88 1036.15,-186.88"/>
<polygon fill="#63b8ff" stroke="#63b8ff" points="970.15,-183.38 960.15,-186.88 970.15,-190.38 970.15,-183.38"/>
</g>
<!-- Node5 -->
<g id="node5" class="node">
<title>Node5</title>
<g id="a_node5"><a xlink:href="struct_mo_f_e_m_1_1_unknown_interface.html" target="_top" xlink:title="base class for all interface classes">
<polygon fill="white" stroke="#666666" points="801.75,-196.5 665.75,-196.5 665.75,-177.25 801.75,-177.25 801.75,-196.5"/>
<text text-anchor="middle" x="733.75" y="-183" font-family="Helvetica,sans-Serif" font-size="10.00">MoFEM::UnknownInterface</text>
</a>
</g>
</g>
<!-- Node5&#45;&gt;Node4 -->
<g id="edge4" class="edge">
<title>Node5&#45;&gt;Node4</title>
<path fill="none" stroke="#63b8ff" d="M813.44,-186.88C823.08,-186.88 832.79,-186.88 842.04,-186.88"/>
<polygon fill="#63b8ff" stroke="#63b8ff" points="813.7,-183.38 803.7,-186.88 813.7,-190.38 813.7,-183.38"/>
</g>
<!-- Node6 -->
<g id="node6" class="node">
<title>Node6</title>
<g id="a_node6"><a xlink:title=" ">
<polygon fill="white" stroke="#666666" points="563,-219 346.75,-219 346.75,-154.75 563,-154.75 563,-219"/>
<text text-anchor="start" x="354.75" y="-205.5" font-family="Helvetica,sans-Serif" font-size="10.00">multi_index_container</text>
<text text-anchor="start" x="354.75" y="-194.25" font-family="Helvetica,sans-Serif" font-size="10.00">&lt; UIdTypeMap, indexed</text>
<text text-anchor="start" x="354.75" y="-183" font-family="Helvetica,sans-Serif" font-size="10.00">_by&lt; hashed_unique&lt; member</text>
<text text-anchor="start" x="354.75" y="-171.75" font-family="Helvetica,sans-Serif" font-size="10.00">&lt; UIdTypeMap, boost::typeindex</text>
<text text-anchor="middle" x="454.88" y="-160.5" font-family="Helvetica,sans-Serif" font-size="10.00">::type_index, &amp;UIdTypeMap::classIdx &gt; &gt; &gt; &gt;</text>
</a>
</g>
</g>
<!-- Node6&#45;&gt;Node5 -->
<g id="edge5" class="edge">
<title>Node6&#45;&gt;Node5</title>
<path fill="none" stroke="#9a32cd" stroke-dasharray="5,2" d="M574.68,-186.88C605.7,-186.88 638.06,-186.88 665.37,-186.88"/>
<polygon fill="#9a32cd" stroke="#9a32cd" points="574.83,-183.38 564.83,-186.88 574.83,-190.38 574.83,-183.38"/>
<text text-anchor="middle" x="614.38" y="-188.62" font-family="Helvetica,sans-Serif" font-size="10.00"> iFaceTypeMap</text>
</g>
<!-- Node7 -->
<g id="node7" class="node">
<title>Node7</title>
<g id="a_node7"><a xlink:title=" ">
<polygon fill="white" stroke="#666666" points="110.5,-196.5 0,-196.5 0,-177.25 110.5,-177.25 110.5,-196.5"/>
<text text-anchor="middle" x="55.25" y="-183" font-family="Helvetica,sans-Serif" font-size="10.00">multi_index_container</text>
</a>
</g>
</g>
<!-- Node7&#45;&gt;Node6 -->
<g id="edge6" class="edge">
<title>Node7&#45;&gt;Node6</title>
<path fill="none" stroke="orange" stroke-dasharray="5,2" d="M122.09,-186.88C183.01,-186.88 274.7,-186.88 346.26,-186.88"/>
<polygon fill="orange" stroke="orange" points="122.22,-183.38 112.22,-186.88 122.22,-190.38 122.22,-183.38"/>
<text text-anchor="start" x="128.5" y="-222.38" font-family="Helvetica,sans-Serif" font-size="10.00"> &lt; UIdTypeMap, indexed</text>
<text text-anchor="start" x="128.5" y="-211.12" font-family="Helvetica,sans-Serif" font-size="10.00">_by&lt; hashed_unique&lt; member</text>
<text text-anchor="start" x="128.5" y="-199.88" font-family="Helvetica,sans-Serif" font-size="10.00">&lt; UIdTypeMap, boost::typeindex</text>
<text text-anchor="middle" x="228.62" y="-188.62" font-family="Helvetica,sans-Serif" font-size="10.00">::type_index, &amp;UIdTypeMap::classIdx &gt; &gt; &gt; &gt;</text>
</g>
<!-- Node8 -->
<g id="node8" class="node">
<title>Node8</title>
<g id="a_node8"><a xlink:href="classdouble.html" target="_top" xlink:title=" ">
<polygon fill="white" stroke="#666666" points="1141.5,-282.5 1097,-282.5 1097,-263.25 1141.5,-263.25 1141.5,-282.5"/>
<text text-anchor="middle" x="1119.25" y="-269" font-family="Helvetica,sans-Serif" font-size="10.00">double</text>
</a>
</g>
</g>
<!-- Node8&#45;&gt;Node1 -->
<g id="edge13" class="edge">
<title>Node8&#45;&gt;Node1</title>
<path fill="none" stroke="#9a32cd" stroke-dasharray="5,2" d="M1151.83,-287.42C1171.13,-295.51 1196.59,-304.75 1220.25,-308.88 1318.71,-326.06 1435.62,-283.99 1483.91,-263.87"/>
<polygon fill="#9a32cd" stroke="#9a32cd" points="1153.47,-284.32 1142.9,-283.57 1150.69,-290.75 1153.47,-284.32"/>
<text text-anchor="middle" x="1343" y="-323.88" font-family="Helvetica,sans-Serif" font-size="10.00"> damping_ptr</text>
<text text-anchor="middle" x="1343" y="-312.62" font-family="Helvetica,sans-Serif" font-size="10.00">maxnorm</text>
</g>
<!-- Node8&#45;&gt;Node2 -->
<g id="edge7" class="edge">
<title>Node8&#45;&gt;Node2</title>
<path fill="none" stroke="#9a32cd" stroke-dasharray="5,2" d="M1146.13,-256.89C1165.89,-245.19 1194.08,-229.56 1220.25,-218.88 1247.74,-207.65 1280.09,-198.54 1304.54,-192.42"/>
<polygon fill="#9a32cd" stroke="#9a32cd" points="1144.42,-253.84 1137.65,-261.99 1148.02,-259.84 1144.42,-253.84"/>
<text text-anchor="middle" x="1253.62" y="-299.38" font-family="Helvetica,sans-Serif" font-size="10.00"> F_lambda2</text>
<text text-anchor="middle" x="1253.62" y="-288.12" font-family="Helvetica,sans-Serif" font-size="10.00">alpha</text>
<text text-anchor="middle" x="1253.62" y="-276.88" font-family="Helvetica,sans-Serif" font-size="10.00">beta</text>
<text text-anchor="middle" x="1253.62" y="-265.62" font-family="Helvetica,sans-Serif" font-size="10.00">dIag</text>
<text text-anchor="middle" x="1253.62" y="-254.38" font-family="Helvetica,sans-Serif" font-size="10.00">dLambda</text>
<text text-anchor="middle" x="1253.62" y="-243.12" font-family="Helvetica,sans-Serif" font-size="10.00">dx2</text>
<text text-anchor="middle" x="1253.62" y="-231.88" font-family="Helvetica,sans-Serif" font-size="10.00">res_lambda</text>
<text text-anchor="middle" x="1253.62" y="-220.62" font-family="Helvetica,sans-Serif" font-size="10.00">s</text>
</g>
<!-- Node9 -->
<g id="node9" class="node">
<title>Node9</title>
<g id="a_node9"><a xlink:href="struct_mo_f_e_m_1_1_smart_petsc_obj.html" target="_top" xlink:title=" ">
<polygon fill="white" stroke="#666666" points="1180.88,-63.12 1057.62,-63.12 1057.62,-32.62 1180.88,-32.62 1180.88,-63.12"/>
<text text-anchor="start" x="1065.62" y="-49.62" font-family="Helvetica,sans-Serif" font-size="10.00">MoFEM::SmartPetscObj</text>
<text text-anchor="middle" x="1119.25" y="-38.38" font-family="Helvetica,sans-Serif" font-size="10.00">&lt; Vec &gt;</text>
</a>
</g>
</g>
<!-- Node9&#45;&gt;Node2 -->
<g id="edge8" class="edge">
<title>Node9&#45;&gt;Node2</title>
<path fill="none" stroke="#9a32cd" stroke-dasharray="5,2" d="M1192.72,-45.51C1224.29,-47.86 1260.13,-55.44 1287,-75.12 1320.96,-100.01 1335.36,-151.92 1340.09,-173.8"/>
<polygon fill="#9a32cd" stroke="#9a32cd" points="1193,-42.02 1182.82,-44.96 1192.61,-49.01 1193,-42.02"/>
<text text-anchor="middle" x="1253.62" y="-145.12" font-family="Helvetica,sans-Serif" font-size="10.00"> F_lambda</text>
<text text-anchor="middle" x="1253.62" y="-133.88" font-family="Helvetica,sans-Serif" font-size="10.00">db</text>
<text text-anchor="middle" x="1253.62" y="-122.62" font-family="Helvetica,sans-Serif" font-size="10.00">dx</text>
<text text-anchor="middle" x="1253.62" y="-111.38" font-family="Helvetica,sans-Serif" font-size="10.00">ghosTdLambda</text>
<text text-anchor="middle" x="1253.62" y="-100.12" font-family="Helvetica,sans-Serif" font-size="10.00">ghostDiag</text>
<text text-anchor="middle" x="1253.62" y="-88.88" font-family="Helvetica,sans-Serif" font-size="10.00">x0</text>
<text text-anchor="middle" x="1253.62" y="-77.62" font-family="Helvetica,sans-Serif" font-size="10.00">xLambda</text>
</g>
<!-- Node10 -->
<g id="node10" class="node">
<title>Node10</title>
<g id="a_node10"><a xlink:title=" ">
<polygon fill="white" stroke="#666666" points="956,-41.75 844.75,-41.75 844.75,0 956,0 956,-41.75"/>
<text text-anchor="start" x="852.75" y="-28.25" font-family="Helvetica,sans-Serif" font-size="10.00">boost::intrusive_ptr</text>
<text text-anchor="start" x="852.75" y="-17" font-family="Helvetica,sans-Serif" font-size="10.00">&lt; std::remove_pointer</text>
<text text-anchor="middle" x="900.38" y="-5.75" font-family="Helvetica,sans-Serif" font-size="10.00">&lt; Vec &#160;&gt;::type &gt;</text>
</a>
</g>
</g>
<!-- Node10&#45;&gt;Node9 -->
<g id="edge9" class="edge">
<title>Node10&#45;&gt;Node9</title>
<path fill="none" stroke="#63b8ff" d="M967.48,-29.11C996.03,-32.66 1029.22,-36.79 1057.19,-40.27"/>
<polygon fill="#63b8ff" stroke="#63b8ff" points="968.24,-25.67 957.88,-27.91 967.37,-32.62 968.24,-25.67"/>
</g>
<!-- Node11 -->
<g id="node11" class="node">
<title>Node11</title>
<g id="a_node11"><a xlink:href="struct_mo_f_e_m_1_1_smart_petsc_obj.html" target="_top" xlink:title="intrusive_ptr for managing petsc objects">
<polygon fill="white" stroke="#666666" points="962,-90.12 838.75,-90.12 838.75,-59.62 962,-59.62 962,-90.12"/>
<text text-anchor="start" x="846.75" y="-76.62" font-family="Helvetica,sans-Serif" font-size="10.00">MoFEM::SmartPetscObj</text>
<text text-anchor="middle" x="900.38" y="-65.38" font-family="Helvetica,sans-Serif" font-size="10.00">&lt; OBJ &gt;</text>
</a>
</g>
</g>
<!-- Node11&#45;&gt;Node9 -->
<g id="edge10" class="edge">
<title>Node11&#45;&gt;Node9</title>
<path fill="none" stroke="orange" stroke-dasharray="5,2" d="M973.75,-65.86C1000.87,-62.49 1031.37,-58.69 1057.34,-55.46"/>
<polygon fill="orange" stroke="orange" points="973.36,-62.39 963.87,-67.1 974.22,-69.33 973.36,-62.39"/>
<text text-anchor="middle" x="999.12" y="-66.62" font-family="Helvetica,sans-Serif" font-size="10.00"> &lt; Vec &gt;</text>
</g>
<!-- Node12 -->
<g id="node12" class="node">
<title>Node12</title>
<g id="a_node12"><a xlink:title=" ">
<polygon fill="white" stroke="#666666" points="789.38,-95.75 678.12,-95.75 678.12,-54 789.38,-54 789.38,-95.75"/>
<text text-anchor="start" x="686.12" y="-82.25" font-family="Helvetica,sans-Serif" font-size="10.00">boost::intrusive_ptr</text>
<text text-anchor="start" x="686.12" y="-71" font-family="Helvetica,sans-Serif" font-size="10.00">&lt; std::remove_pointer</text>
<text text-anchor="middle" x="733.75" y="-59.75" font-family="Helvetica,sans-Serif" font-size="10.00">&lt; OBJ &gt;::type &gt;</text>
</a>
</g>
</g>
<!-- Node12&#45;&gt;Node11 -->
<g id="edge11" class="edge">
<title>Node12&#45;&gt;Node11</title>
<path fill="none" stroke="#63b8ff" d="M800.76,-74.88C813.15,-74.88 826.04,-74.88 838.27,-74.88"/>
<polygon fill="#63b8ff" stroke="#63b8ff" points="801.08,-71.38 791.08,-74.88 801.08,-78.38 801.08,-71.38"/>
</g>
<!-- Node13 -->
<g id="node13" class="node">
<title>Node13</title>
<g id="a_node13"><a xlink:title=" ">
<polygon fill="white" stroke="#666666" points="1171.12,-159.5 1067.38,-159.5 1067.38,-140.25 1171.12,-140.25 1171.12,-159.5"/>
<text text-anchor="middle" x="1119.25" y="-146" font-family="Helvetica,sans-Serif" font-size="10.00">NumeredDofEntity *</text>
</a>
</g>
</g>
<!-- Node13&#45;&gt;Node2 -->
<g id="edge12" class="edge">
<title>Node13&#45;&gt;Node2</title>
<path fill="none" stroke="#9a32cd" stroke-dasharray="5,2" d="M1182.54,-154.52C1214.03,-157.46 1252.74,-161.99 1287,-168.62 1294.2,-170.02 1301.83,-171.88 1309.05,-173.82"/>
<polygon fill="#9a32cd" stroke="#9a32cd" points="1183.07,-151.05 1172.79,-153.64 1182.44,-158.02 1183.07,-151.05"/>
<text text-anchor="middle" x="1253.62" y="-169.62" font-family="Helvetica,sans-Serif" font-size="10.00"> arcDofRawPtr</text>
</g>
</g>
</svg>
        <g id="navigator" transform="translate(0 0)" fill="#404254">
                <rect fill="#f2f5e9" fill-opacity="0.5" stroke="#606060" stroke-width=".5" x="0" y="0" width="60" height="60"/>
                <use id="zoomplus" xlink:href="#zoomPlus" x="17" y="9" onmousedown="handleZoom(evt,'in')"/>
                <use id="zoomminus" xlink:href="#zoomMin" x="42" y="9" onmousedown="handleZoom(evt,'out')"/>
                <use id="reset" xlink:href="#resetDef" x="30" y="36" onmousedown="handleReset()"/>
                <g id="arrowUp" xlink:href="#dirArrow" transform="translate(30 24)" onmousedown="handlePan(0,-1)">
                  <use xlink:href="#rim" fill="#404040">
                        <set attributeName="fill" to="#808080" begin="arrowUp.mouseover" end="arrowUp.mouseout"/>
                  </use>
                  <path fill="none" stroke="white" stroke-width="1.5" d="M0,-3.0v7 M-2.5,-0.5L0,-3.0L2.5,-0.5"/>
                </g>
                <g id="arrowRight" xlink:href="#dirArrow" transform="rotate(90) translate(36 -43)" onmousedown="handlePan(1,0)">
                  <use xlink:href="#rim" fill="#404040">
                        <set attributeName="fill" to="#808080" begin="arrowRight.mouseover" end="arrowRight.mouseout"/>
                  </use>
                  <path fill="none" stroke="white" stroke-width="1.5" d="M0,-3.0v7 M-2.5,-0.5L0,-3.0L2.5,-0.5"/>
                </g>
                <g id="arrowDown" xlink:href="#dirArrow" transform="rotate(180) translate(-30 -48)" onmousedown="handlePan(0,1)">
                  <use xlink:href="#rim" fill="#404040">
                        <set attributeName="fill" to="#808080" begin="arrowDown.mouseover" end="arrowDown.mouseout"/>
                  </use>
                  <path fill="none" stroke="white" stroke-width="1.5" d="M0,-3.0v7 M-2.5,-0.5L0,-3.0L2.5,-0.5"/>
                </g>
                <g id="arrowLeft" xlink:href="#dirArrow" transform="rotate(270) translate(-36 17)" onmousedown="handlePan(-1,0)">
                  <use xlink:href="#rim" fill="#404040">
                        <set attributeName="fill" to="#808080" begin="arrowLeft.mouseover" end="arrowLeft.mouseout"/>
                  </use>
                  <path fill="none" stroke="white" stroke-width="1.5" d="M0,-3.0v7 M-2.5,-0.5L0,-3.0L2.5,-0.5"/>
                </g>
        </g>
        <svg viewBox="0 0 15 15" width="100%" height="30px" preserveAspectRatio="xMaxYMin meet">
         <g id="arrow_out" transform="scale(0.3 0.3)">
          <a xlink:href="struct_alpha_adapt_ctx__coll__graph_org.svg" target="_base">
           <rect id="button" ry="5" rx="5" y="6" x="6" height="38" width="38"
                fill="#f2f5e9" fill-opacity="0.5" stroke="#606060" stroke-width="1.0"/>
           <path id="arrow"
             d="M 11.500037,31.436501 C 11.940474,20.09759 22.043105,11.32322 32.158766,21.979434 L 37.068811,17.246167 C 37.068811,17.246167 37.088388,32 37.088388,32 L 22.160133,31.978069 C 22.160133,31.978069 26.997745,27.140456 26.997745,27.140456 C 18.528582,18.264221 13.291696,25.230495 11.500037,31.436501 z"
             style="fill:#404040;"/>
          </a>
         </g>
        </svg>
</svg>
