<?xml version="1.0" encoding="UTF-8" standalone="no"?>
<!DOCTYPE svg PUBLIC "-//W3C//DTD SVG 1.1//EN"
 "http://www.w3.org/Graphics/SVG/1.1/DTD/svg11.dtd">
<!-- Generated by graphviz version 9.0.0 (20230911.1827)
 -->
<!-- Title: MoFEM::interface_EntFiniteElement&lt; T &gt; Pages: 1 -->
<!--zoomable 584 -->
<svg id="main" version="1.1" xmlns="http://www.w3.org/2000/svg" xmlns:xlink="http://www.w3.org/1999/xlink" xml:space="preserve" onload="init(evt)">
<style type="text/css"><![CDATA[
.edge:hover path { stroke: red; }
.edge:hover polygon { stroke: red; fill: red; }
]]></style>
<script type="text/javascript"><![CDATA[
var edges = document.getElementsByTagName('g');
if (edges && edges.length) {
  for (var i=0;i<edges.length;i++) {
    if (edges[i].id.substr(0,4)=='edge') {
      edges[i].setAttribute('class','edge');
    }
  }
}
]]></script>
        <defs>
                <circle id="rim" cx="0" cy="0" r="7"/>
                <circle id="rim2" cx="0" cy="0" r="3.5"/>
                <g id="zoomPlus">
                        <use xlink:href="#rim" fill="#404040">
                                <set attributeName="fill" to="#808080" begin="zoomplus.mouseover" end="zoomplus.mouseout"/>
                        </use>
                        <path d="M-4,0h8M0,-4v8" fill="none" stroke="white" stroke-width="1.5" pointer-events="none"/>
                </g>
                <g id="zoomMin">
                        <use xlink:href="#rim" fill="#404040">
                                <set attributeName="fill" to="#808080" begin="zoomminus.mouseover" end="zoomminus.mouseout"/>
                        </use>
                        <path d="M-4,0h8" fill="none" stroke="white" stroke-width="1.5" pointer-events="none"/>
                </g>
                <g id="dirArrow">
                        <path fill="none" stroke="white" stroke-width="1.5" d="M0,-3.0v7 M-2.5,-0.5L0,-3.0L2.5,-0.5"/>
                </g>
               <g id="resetDef">
                       <use xlink:href="#rim2" fill="#404040">
                               <set attributeName="fill" to="#808080" begin="reset.mouseover" end="reset.mouseout"/>
                       </use>
               </g>
        </defs>

<script type="text/javascript">
var viewWidth = 479;
var viewHeight = 584;
var sectionId = 'dynsection-0';
</script>
<script xlink:href="svgpan.js"/>
<svg id="graph" class="graph">
<g id="viewport">
<title>MoFEM::interface_EntFiniteElement&lt; T &gt;</title>
<!-- Node1 -->
<g id="node1" class="node">
<title>Node1</title>
<g id="a_node1"><a xlink:title="interface to EntFiniteElement">
<polygon fill="#999999" stroke="#666666" points="173.62,-164.5 35.38,-164.5 35.38,-134 173.62,-134 173.62,-164.5"/>
<text text-anchor="start" x="43.38" y="-151" font-family="Helvetica,sans-Serif" font-size="10.00">MoFEM::interface_EntFinite</text>
<text text-anchor="middle" x="104.5" y="-139.75" font-family="Helvetica,sans-Serif" font-size="10.00">Element&lt; T &gt;</text>
</a>
</g>
</g>
<!-- Node10 -->
<g id="node10" class="node">
<title>Node10</title>
<g id="a_node10"><a xlink:href="struct_mo_f_e_m_1_1interface___ent_finite_element.html" target="_top" xlink:title=" ">
<polygon fill="white" stroke="#666666" points="177,-86.75 32,-86.75 32,-56.25 177,-56.25 177,-86.75"/>
<text text-anchor="start" x="40" y="-73.25" font-family="Helvetica,sans-Serif" font-size="10.00">MoFEM::interface_EntFinite</text>
<text text-anchor="middle" x="104.5" y="-62" font-family="Helvetica,sans-Serif" font-size="10.00">Element&lt; EntFiniteElement &gt;</text>
</a>
</g>
</g>
<!-- Node1&#45;&gt;Node10 -->
<g id="edge10" class="edge">
<title>Node1&#45;&gt;Node10</title>
<path fill="none" stroke="orange" stroke-dasharray="5,2" d="M104.5,-122.22C104.5,-110.46 104.5,-97.01 104.5,-87.06"/>
<polygon fill="orange" stroke="orange" points="101,-122.13 104.5,-132.13 108,-122.13 101,-122.13"/>
<text text-anchor="middle" x="152.5" y="-106.5" font-family="Helvetica,sans-Serif" font-size="10.00"> &lt; EntFiniteElement &gt;</text>
</g>
<!-- Node2 -->
<g id="node2" class="node">
<title>Node2</title>
<g id="a_node2"><a xlink:href="struct_mo_f_e_m_1_1interface___finite_element_3_01_t_00_01_t_01_4.html" target="_top" xlink:title=" ">
<polygon fill="white" stroke="#666666" points="184.12,-232 24.88,-232 24.88,-201.5 184.12,-201.5 184.12,-232"/>
<text text-anchor="start" x="32.88" y="-218.5" font-family="Helvetica,sans-Serif" font-size="10.00">MoFEM::interface_FiniteElement</text>
<text text-anchor="middle" x="104.5" y="-207.25" font-family="Helvetica,sans-Serif" font-size="10.00">&lt; T, T &gt;</text>
</a>
</g>
</g>
<!-- Node2&#45;&gt;Node1 -->
<g id="edge1" class="edge">
<title>Node2&#45;&gt;Node1</title>
<path fill="none" stroke="#63b8ff" d="M104.5,-189.84C104.5,-181.3 104.5,-172.12 104.5,-164.75"/>
<polygon fill="#63b8ff" stroke="#63b8ff" points="101,-189.7 104.5,-199.7 108,-189.7 101,-189.7"/>
</g>
<!-- Node3 -->
<g id="node3" class="node">
<title>Node3</title>
<g id="a_node3"><a xlink:href="struct_mo_f_e_m_1_1interface___finite_element_impl.html" target="_top" xlink:title=" ">
<polygon fill="white" stroke="#666666" points="184.12,-299.5 24.88,-299.5 24.88,-269 184.12,-269 184.12,-299.5"/>
<text text-anchor="start" x="32.88" y="-286" font-family="Helvetica,sans-Serif" font-size="10.00">MoFEM::interface_FiniteElement</text>
<text text-anchor="middle" x="104.5" y="-274.75" font-family="Helvetica,sans-Serif" font-size="10.00">Impl&lt; T, T &gt;</text>
</a>
</g>
</g>
<!-- Node3&#45;&gt;Node2 -->
<g id="edge2" class="edge">
<title>Node3&#45;&gt;Node2</title>
<path fill="none" stroke="#63b8ff" d="M104.5,-257.34C104.5,-248.8 104.5,-239.62 104.5,-232.25"/>
<polygon fill="#63b8ff" stroke="#63b8ff" points="101,-257.2 104.5,-267.2 108,-257.2 101,-257.2"/>
</g>
<!-- Node4 -->
<g id="node4" class="node">
<title>Node4</title>
<g id="a_node4"><a xlink:href="struct_mo_f_e_m_1_1interface___ref_element.html" target="_top" xlink:title="intrface to RefElement">
<polygon fill="white" stroke="#666666" points="175,-482 0,-482 0,-462.75 175,-462.75 175,-482"/>
<text text-anchor="middle" x="87.5" y="-468.5" font-family="Helvetica,sans-Serif" font-size="10.00">MoFEM::interface_RefElement&lt; T &gt;</text>
</a>
</g>
</g>
<!-- Node4&#45;&gt;Node3 -->
<g id="edge3" class="edge">
<title>Node4&#45;&gt;Node3</title>
<path fill="none" stroke="#63b8ff" d="M89.32,-451.42C92.76,-413.8 100.12,-333.19 103.15,-300"/>
<polygon fill="#63b8ff" stroke="#63b8ff" points="85.88,-450.61 88.46,-460.89 92.85,-451.25 85.88,-450.61"/>
</g>
<!-- Node5 -->
<g id="node5" class="node">
<title>Node5</title>
<g id="a_node5"><a xlink:href="struct_mo_f_e_m_1_1interface___ref_entity.html" target="_top" xlink:title="interface to RefEntity">
<polygon fill="white" stroke="#666666" points="178.75,-575.5 14.25,-575.5 14.25,-556.25 178.75,-556.25 178.75,-575.5"/>
<text text-anchor="middle" x="96.5" y="-562" font-family="Helvetica,sans-Serif" font-size="10.00">MoFEM::interface_RefEntity&lt; T &gt;</text>
</a>
</g>
</g>
<!-- Node5&#45;&gt;Node4 -->
<g id="edge4" class="edge">
<title>Node5&#45;&gt;Node4</title>
<path fill="none" stroke="#63b8ff" d="M94.5,-544.55C92.59,-525.14 89.81,-496.81 88.39,-482.45"/>
<polygon fill="#63b8ff" stroke="#63b8ff" points="90.99,-544.65 95.46,-554.26 97.96,-543.97 90.99,-544.65"/>
</g>
<!-- Node9 -->
<g id="node9" class="node">
<title>Node9</title>
<g id="a_node9"><a xlink:href="struct_mo_f_e_m_1_1interface___ref_element.html" target="_top" xlink:title="intrface to RefElement">
<polygon fill="white" stroke="#666666" points="288,-519.25 113,-519.25 113,-500 288,-500 288,-519.25"/>
<text text-anchor="middle" x="200.5" y="-505.75" font-family="Helvetica,sans-Serif" font-size="10.00">MoFEM::interface_RefElement&lt; T &gt;</text>
</a>
</g>
</g>
<!-- Node5&#45;&gt;Node9 -->
<g id="edge9" class="edge">
<title>Node5&#45;&gt;Node9</title>
<path fill="none" stroke="#63b8ff" d="M123.74,-550.66C142.6,-540.83 167.11,-528.04 183.3,-519.6"/>
<polygon fill="#63b8ff" stroke="#63b8ff" points="122.26,-547.49 115.02,-555.22 125.5,-553.69 122.26,-547.49"/>
</g>
<!-- Node6 -->
<g id="node6" class="node">
<title>Node6</title>
<g id="a_node6"><a xlink:href="struct_mo_f_e_m_1_1interface___finite_element_impl.html" target="_top" xlink:title="Inetface for FE.">
<polygon fill="white" stroke="#666666" points="277.12,-377.25 117.88,-377.25 117.88,-346.75 277.12,-346.75 277.12,-377.25"/>
<text text-anchor="start" x="125.88" y="-363.75" font-family="Helvetica,sans-Serif" font-size="10.00">MoFEM::interface_FiniteElement</text>
<text text-anchor="middle" x="197.5" y="-352.5" font-family="Helvetica,sans-Serif" font-size="10.00">Impl&lt; FE, REFENT &gt;</text>
</a>
</g>
</g>
<!-- Node6&#45;&gt;Node3 -->
<g id="edge5" class="edge">
<title>Node6&#45;&gt;Node3</title>
<path fill="none" stroke="orange" stroke-dasharray="5,2" d="M170.9,-339.34C155.35,-326.67 136.13,-311.01 122.38,-299.81"/>
<polygon fill="orange" stroke="orange" points="168.43,-341.84 178.4,-345.44 172.85,-336.41 168.43,-341.84"/>
<text text-anchor="middle" x="176.25" y="-319.25" font-family="Helvetica,sans-Serif" font-size="10.00"> &lt; T, T &gt;</text>
</g>
<!-- Node7 -->
<g id="node7" class="node">
<title>Node7</title>
<g id="a_node7"><a xlink:href="struct_mo_f_e_m_1_1interface___ref_element.html" target="_top" xlink:title=" ">
<polygon fill="white" stroke="#666666" points="276,-444.75 125,-444.75 125,-414.25 276,-414.25 276,-444.75"/>
<text text-anchor="start" x="133" y="-431.25" font-family="Helvetica,sans-Serif" font-size="10.00">MoFEM::interface_RefElement</text>
<text text-anchor="middle" x="200.5" y="-420" font-family="Helvetica,sans-Serif" font-size="10.00">&lt; REFENT &gt;</text>
</a>
</g>
</g>
<!-- Node7&#45;&gt;Node6 -->
<g id="edge6" class="edge">
<title>Node7&#45;&gt;Node6</title>
<path fill="none" stroke="#63b8ff" d="M199.31,-402.59C198.92,-394.05 198.5,-384.87 198.16,-377.5"/>
<polygon fill="#63b8ff" stroke="#63b8ff" points="195.81,-402.62 199.76,-412.45 202.8,-402.3 195.81,-402.62"/>
</g>
<!-- Node8 -->
<g id="node8" class="node">
<title>Node8</title>
<g id="a_node8"><a xlink:href="struct_mo_f_e_m_1_1interface___ref_entity.html" target="_top" xlink:title="interface to RefEntity">
<polygon fill="white" stroke="#666666" points="470.75,-519.25 306.25,-519.25 306.25,-500 470.75,-500 470.75,-519.25"/>
<text text-anchor="middle" x="388.5" y="-505.75" font-family="Helvetica,sans-Serif" font-size="10.00">MoFEM::interface_RefEntity&lt; T &gt;</text>
</a>
</g>
</g>
<!-- Node8&#45;&gt;Node7 -->
<g id="edge7" class="edge">
<title>Node8&#45;&gt;Node7</title>
<path fill="none" stroke="#63b8ff" d="M355.95,-495.1C322.39,-481.15 270.23,-459.48 235.72,-445.14"/>
<polygon fill="#63b8ff" stroke="#63b8ff" points="354.59,-498.32 365.17,-498.93 357.28,-491.86 354.59,-498.32"/>
</g>
<!-- Node9&#45;&gt;Node7 -->
<g id="edge8" class="edge">
<title>Node9&#45;&gt;Node7</title>
<path fill="none" stroke="orange" stroke-dasharray="5,2" d="M200.5,-488.21C200.5,-474.72 200.5,-457.34 200.5,-445.2"/>
<polygon fill="orange" stroke="orange" points="197,-488.15 200.5,-498.15 204,-488.15 197,-488.15"/>
<text text-anchor="middle" x="231.25" y="-468.5" font-family="Helvetica,sans-Serif" font-size="10.00"> &lt; REFENT &gt;</text>
</g>
<!-- Node11 -->
<g id="node11" class="node">
<title>Node11</title>
<g id="a_node11"><a xlink:href="struct_mo_f_e_m_1_1_numered_ent_finite_element.html" target="_top" xlink:title="Partitioned (Indexed) Finite Element in Problem.">
<polygon fill="white" stroke="#666666" points="190.12,-19.25 18.88,-19.25 18.88,0 190.12,0 190.12,-19.25"/>
<text text-anchor="middle" x="104.5" y="-5.75" font-family="Helvetica,sans-Serif" font-size="10.00">MoFEM::NumeredEntFiniteElement</text>
</a>
</g>
</g>
<!-- Node10&#45;&gt;Node11 -->
<g id="edge11" class="edge">
<title>Node10&#45;&gt;Node11</title>
<path fill="none" stroke="#63b8ff" d="M104.5,-44.77C104.5,-35.79 104.5,-26.29 104.5,-19.6"/>
<polygon fill="#63b8ff" stroke="#63b8ff" points="101,-44.49 104.5,-54.49 108,-44.49 101,-44.49"/>
</g>
</g>
</svg>
        <g id="navigator" transform="translate(0 0)" fill="#404254">
                <rect fill="#f2f5e9" fill-opacity="0.5" stroke="#606060" stroke-width=".5" x="0" y="0" width="60" height="60"/>
                <use id="zoomplus" xlink:href="#zoomPlus" x="17" y="9" onmousedown="handleZoom(evt,'in')"/>
                <use id="zoomminus" xlink:href="#zoomMin" x="42" y="9" onmousedown="handleZoom(evt,'out')"/>
                <use id="reset" xlink:href="#resetDef" x="30" y="36" onmousedown="handleReset()"/>
                <g id="arrowUp" xlink:href="#dirArrow" transform="translate(30 24)" onmousedown="handlePan(0,-1)">
                  <use xlink:href="#rim" fill="#404040">
                        <set attributeName="fill" to="#808080" begin="arrowUp.mouseover" end="arrowUp.mouseout"/>
                  </use>
                  <path fill="none" stroke="white" stroke-width="1.5" d="M0,-3.0v7 M-2.5,-0.5L0,-3.0L2.5,-0.5"/>
                </g>
                <g id="arrowRight" xlink:href="#dirArrow" transform="rotate(90) translate(36 -43)" onmousedown="handlePan(1,0)">
                  <use xlink:href="#rim" fill="#404040">
                        <set attributeName="fill" to="#808080" begin="arrowRight.mouseover" end="arrowRight.mouseout"/>
                  </use>
                  <path fill="none" stroke="white" stroke-width="1.5" d="M0,-3.0v7 M-2.5,-0.5L0,-3.0L2.5,-0.5"/>
                </g>
                <g id="arrowDown" xlink:href="#dirArrow" transform="rotate(180) translate(-30 -48)" onmousedown="handlePan(0,1)">
                  <use xlink:href="#rim" fill="#404040">
                        <set attributeName="fill" to="#808080" begin="arrowDown.mouseover" end="arrowDown.mouseout"/>
                  </use>
                  <path fill="none" stroke="white" stroke-width="1.5" d="M0,-3.0v7 M-2.5,-0.5L0,-3.0L2.5,-0.5"/>
                </g>
                <g id="arrowLeft" xlink:href="#dirArrow" transform="rotate(270) translate(-36 17)" onmousedown="handlePan(-1,0)">
                  <use xlink:href="#rim" fill="#404040">
                        <set attributeName="fill" to="#808080" begin="arrowLeft.mouseover" end="arrowLeft.mouseout"/>
                  </use>
                  <path fill="none" stroke="white" stroke-width="1.5" d="M0,-3.0v7 M-2.5,-0.5L0,-3.0L2.5,-0.5"/>
                </g>
        </g>
        <svg viewBox="0 0 15 15" width="100%" height="30px" preserveAspectRatio="xMaxYMin meet">
         <g id="arrow_out" transform="scale(0.3 0.3)">
          <a xlink:href="struct_mo_f_e_m_1_1interface___ent_finite_element__inherit__graph_org.svg" target="_base">
           <rect id="button" ry="5" rx="5" y="6" x="6" height="38" width="38"
                fill="#f2f5e9" fill-opacity="0.5" stroke="#606060" stroke-width="1.0"/>
           <path id="arrow"
             d="M 11.500037,31.436501 C 11.940474,20.09759 22.043105,11.32322 32.158766,21.979434 L 37.068811,17.246167 C 37.068811,17.246167 37.088388,32 37.088388,32 L 22.160133,31.978069 C 22.160133,31.978069 26.997745,27.140456 26.997745,27.140456 C 18.528582,18.264221 13.291696,25.230495 11.500037,31.436501 z"
             style="fill:#404040;"/>
          </a>
         </g>
        </svg>
</svg>
