<?xml version="1.0" encoding="UTF-8" standalone="no"?>
<!DOCTYPE svg PUBLIC "-//W3C//DTD SVG 1.1//EN"
 "http://www.w3.org/Graphics/SVG/1.1/DTD/svg11.dtd">
<!-- Generated by graphviz version 2.43.0 (0)
 -->
<!-- Title: EshelbianPlasticity::OpSpatialConsistencyBubble Pages: 1 -->
<svg width="297pt" height="321pt"
 viewBox="0.00 0.00 296.50 321.00" xmlns="http://www.w3.org/2000/svg" xmlns:xlink="http://www.w3.org/1999/xlink">
<g id="graph0" class="graph" transform="scale(1 1) rotate(0) translate(4 317)">
<title>EshelbianPlasticity::OpSpatialConsistencyBubble</title>
<polygon fill="white" stroke="transparent" points="-4,4 -4,-317 292.5,-317 292.5,4 -4,4"/>
<!-- Node1 -->
<g id="node1" class="node">
<title>Node1</title>
<g id="a_node1"><a xlink:title=" ">
<polygon fill="#bfbfbf" stroke="black" points="0,-0.5 0,-30.5 163,-30.5 163,-0.5 0,-0.5"/>
<text text-anchor="start" x="8" y="-18.5" font-family="Helvetica,sans-Serif" font-size="10.00">EshelbianPlasticity</text>
<text text-anchor="middle" x="81.5" y="-7.5" font-family="Helvetica,sans-Serif" font-size="10.00">::OpSpatialConsistencyBubble</text>
</a>
</g>
</g>
<!-- Node2 -->
<g id="node2" class="node">
<title>Node2</title>
<g id="a_node2"><a xlink:href="structEshelbianPlasticity_1_1OpAssembleVolume.html" target="_top" xlink:title=" ">
<polygon fill="white" stroke="black" points="21,-68.5 21,-98.5 142,-98.5 142,-68.5 21,-68.5"/>
<text text-anchor="start" x="29" y="-86.5" font-family="Helvetica,sans-Serif" font-size="10.00">EshelbianPlasticity</text>
<text text-anchor="middle" x="81.5" y="-75.5" font-family="Helvetica,sans-Serif" font-size="10.00">::OpAssembleVolume</text>
</a>
</g>
</g>
<!-- Node2&#45;&gt;Node1 -->
<g id="edge1" class="edge">
<title>Node2&#45;&gt;Node1</title>
<path fill="none" stroke="midnightblue" d="M81.5,-58.03C81.5,-48.86 81.5,-38.74 81.5,-30.79"/>
<polygon fill="midnightblue" stroke="midnightblue" points="78,-58.18 81.5,-68.18 85,-58.18 78,-58.18"/>
</g>
<!-- Node3 -->
<g id="node3" class="node">
<title>Node3</title>
<g id="a_node3"><a xlink:href="structEshelbianPlasticity_1_1OpAssembleBasic.html" target="_top" xlink:title=" ">
<polygon fill="white" stroke="black" points="2,-136.5 2,-177.5 161,-177.5 161,-136.5 2,-136.5"/>
<text text-anchor="start" x="10" y="-165.5" font-family="Helvetica,sans-Serif" font-size="10.00">EshelbianPlasticity</text>
<text text-anchor="start" x="10" y="-154.5" font-family="Helvetica,sans-Serif" font-size="10.00">::OpAssembleBasic&lt; VolUser</text>
<text text-anchor="middle" x="81.5" y="-143.5" font-family="Helvetica,sans-Serif" font-size="10.00">DataOperator &gt;</text>
</a>
</g>
</g>
<!-- Node3&#45;&gt;Node2 -->
<g id="edge2" class="edge">
<title>Node3&#45;&gt;Node2</title>
<path fill="none" stroke="midnightblue" d="M81.5,-126.16C81.5,-116.69 81.5,-106.65 81.5,-98.8"/>
<polygon fill="midnightblue" stroke="midnightblue" points="78,-126.46 81.5,-136.46 85,-126.46 78,-126.46"/>
</g>
<!-- Node4 -->
<g id="node4" class="node">
<title>Node4</title>
<g id="a_node4"><a xlink:title=" ">
<polygon fill="white" stroke="#bfbfbf" points="5.5,-231 5.5,-250 125.5,-250 125.5,-231 5.5,-231"/>
<text text-anchor="middle" x="65.5" y="-238" font-family="Helvetica,sans-Serif" font-size="10.00">VolUserDataOperator</text>
</a>
</g>
</g>
<!-- Node4&#45;&gt;Node3 -->
<g id="edge3" class="edge">
<title>Node4&#45;&gt;Node3</title>
<path fill="none" stroke="midnightblue" d="M69.18,-220.75C71.71,-207.89 75.05,-190.84 77.62,-177.76"/>
<polygon fill="midnightblue" stroke="midnightblue" points="65.7,-220.29 67.21,-230.78 72.57,-221.64 65.7,-220.29"/>
</g>
<!-- Node5 -->
<g id="node5" class="node">
<title>Node5</title>
<g id="a_node5"><a xlink:href="structEshelbianPlasticity_1_1OpAssembleBasic.html" target="_top" xlink:title=" ">
<polygon fill="white" stroke="black" points="144,-225.5 144,-255.5 283,-255.5 283,-225.5 144,-225.5"/>
<text text-anchor="start" x="152" y="-243.5" font-family="Helvetica,sans-Serif" font-size="10.00">EshelbianPlasticity</text>
<text text-anchor="middle" x="213.5" y="-232.5" font-family="Helvetica,sans-Serif" font-size="10.00">::OpAssembleBasic&lt; T &gt;</text>
</a>
</g>
</g>
<!-- Node5&#45;&gt;Node3 -->
<g id="edge4" class="edge">
<title>Node5&#45;&gt;Node3</title>
<path fill="none" stroke="orange" stroke-dasharray="5,2" d="M182.04,-220.08C161.26,-207.25 134.12,-190.49 113.27,-177.62"/>
<polygon fill="orange" stroke="orange" points="180.46,-223.21 190.81,-225.49 184.14,-217.26 180.46,-223.21"/>
<text text-anchor="middle" x="223.5" y="-199" font-family="Helvetica,sans-Serif" font-size="10.00"> &lt; VolUserDataOperator &gt;</text>
</g>
<!-- Node6 -->
<g id="node6" class="node">
<title>Node6</title>
<g id="a_node6"><a xlink:title=" ">
<polygon fill="white" stroke="#bfbfbf" points="199,-293.5 199,-312.5 228,-312.5 228,-293.5 199,-293.5"/>
<text text-anchor="middle" x="213.5" y="-300.5" font-family="Helvetica,sans-Serif" font-size="10.00">T</text>
</a>
</g>
</g>
<!-- Node6&#45;&gt;Node5 -->
<g id="edge5" class="edge">
<title>Node6&#45;&gt;Node5</title>
<path fill="none" stroke="midnightblue" d="M213.5,-283.22C213.5,-274.36 213.5,-263.96 213.5,-255.76"/>
<polygon fill="midnightblue" stroke="midnightblue" points="210,-283.33 213.5,-293.33 217,-283.33 210,-283.33"/>
</g>
</g>
</svg>
