<?xml version="1.0" encoding="UTF-8" standalone="no"?>
<!DOCTYPE svg PUBLIC "-//W3C//DTD SVG 1.1//EN"
 "http://www.w3.org/Graphics/SVG/1.1/DTD/svg11.dtd">
<!-- Generated by graphviz version 9.0.0 (20230911.1827)
 -->
<!-- Title: MoFEM::PetscData Pages: 1 -->
<svg width="1004pt" height="317pt"
 viewBox="0.00 0.00 1003.50 316.62" xmlns="http://www.w3.org/2000/svg" xmlns:xlink="http://www.w3.org/1999/xlink">
<g id="graph0" class="graph" transform="scale(1 1) rotate(0) translate(4 312.62)">
<title>MoFEM::PetscData</title>
<!-- Node1 -->
<g id="node1" class="node">
<title>Node1</title>
<g id="a_node1"><a xlink:title=" ">
<polygon fill="#999999" stroke="#666666" points="995.5,-133.25 892.5,-133.25 892.5,-114 995.5,-114 995.5,-133.25"/>
<text text-anchor="middle" x="944" y="-119.75" font-family="Helvetica,sans-Serif" font-size="10.00">MoFEM::PetscData</text>
</a>
</g>
</g>
<!-- Node2 -->
<g id="node2" class="node">
<title>Node2</title>
<g id="a_node2"><a xlink:href="struct_mo_f_e_m_1_1_unknown_interface.html" target="_top" xlink:title="base class for all interface classes">
<polygon fill="white" stroke="#666666" points="801.75,-273.25 665.75,-273.25 665.75,-254 801.75,-254 801.75,-273.25"/>
<text text-anchor="middle" x="733.75" y="-259.75" font-family="Helvetica,sans-Serif" font-size="10.00">MoFEM::UnknownInterface</text>
</a>
</g>
</g>
<!-- Node2&#45;&gt;Node1 -->
<g id="edge1" class="edge">
<title>Node2&#45;&gt;Node1</title>
<path fill="none" stroke="#63b8ff" d="M813.47,-262.04C834.71,-258.56 856.72,-251.89 874.5,-239.62 913.2,-212.94 933.36,-156.65 940.23,-133.69"/>
<polygon fill="#63b8ff" stroke="#63b8ff" points="813.03,-258.57 803.61,-263.41 814,-265.5 813.03,-258.57"/>
</g>
<!-- Node3 -->
<g id="node3" class="node">
<title>Node3</title>
<g id="a_node3"><a xlink:title=" ">
<polygon fill="white" stroke="#666666" points="563,-295.75 346.75,-295.75 346.75,-231.5 563,-231.5 563,-295.75"/>
<text text-anchor="start" x="354.75" y="-282.25" font-family="Helvetica,sans-Serif" font-size="10.00">multi_index_container</text>
<text text-anchor="start" x="354.75" y="-271" font-family="Helvetica,sans-Serif" font-size="10.00">&lt; UIdTypeMap, indexed</text>
<text text-anchor="start" x="354.75" y="-259.75" font-family="Helvetica,sans-Serif" font-size="10.00">_by&lt; hashed_unique&lt; member</text>
<text text-anchor="start" x="354.75" y="-248.5" font-family="Helvetica,sans-Serif" font-size="10.00">&lt; UIdTypeMap, boost::typeindex</text>
<text text-anchor="middle" x="454.88" y="-237.25" font-family="Helvetica,sans-Serif" font-size="10.00">::type_index, &amp;UIdTypeMap::classIdx &gt; &gt; &gt; &gt;</text>
</a>
</g>
</g>
<!-- Node3&#45;&gt;Node2 -->
<g id="edge2" class="edge">
<title>Node3&#45;&gt;Node2</title>
<path fill="none" stroke="#9a32cd" stroke-dasharray="5,2" d="M574.68,-263.62C605.7,-263.62 638.06,-263.62 665.37,-263.62"/>
<polygon fill="#9a32cd" stroke="#9a32cd" points="574.83,-260.13 564.83,-263.63 574.83,-267.13 574.83,-260.13"/>
<text text-anchor="middle" x="614.38" y="-265.38" font-family="Helvetica,sans-Serif" font-size="10.00"> iFaceTypeMap</text>
</g>
<!-- Node4 -->
<g id="node4" class="node">
<title>Node4</title>
<g id="a_node4"><a xlink:title=" ">
<polygon fill="white" stroke="#666666" points="110.5,-273.25 0,-273.25 0,-254 110.5,-254 110.5,-273.25"/>
<text text-anchor="middle" x="55.25" y="-259.75" font-family="Helvetica,sans-Serif" font-size="10.00">multi_index_container</text>
</a>
</g>
</g>
<!-- Node4&#45;&gt;Node3 -->
<g id="edge3" class="edge">
<title>Node4&#45;&gt;Node3</title>
<path fill="none" stroke="orange" stroke-dasharray="5,2" d="M122.09,-263.62C183.01,-263.62 274.7,-263.62 346.26,-263.62"/>
<polygon fill="orange" stroke="orange" points="122.22,-260.13 112.22,-263.63 122.22,-267.13 122.22,-260.13"/>
<text text-anchor="start" x="128.5" y="-299.12" font-family="Helvetica,sans-Serif" font-size="10.00"> &lt; UIdTypeMap, indexed</text>
<text text-anchor="start" x="128.5" y="-287.88" font-family="Helvetica,sans-Serif" font-size="10.00">_by&lt; hashed_unique&lt; member</text>
<text text-anchor="start" x="128.5" y="-276.62" font-family="Helvetica,sans-Serif" font-size="10.00">&lt; UIdTypeMap, boost::typeindex</text>
<text text-anchor="middle" x="228.62" y="-265.38" font-family="Helvetica,sans-Serif" font-size="10.00">::type_index, &amp;UIdTypeMap::classIdx &gt; &gt; &gt; &gt;</text>
</g>
<!-- Node5 -->
<g id="node5" class="node">
<title>Node5</title>
<g id="a_node5"><a xlink:title=" ">
<polygon fill="white" stroke="#666666" points="798.38,-169.25 669.12,-169.25 669.12,-150 798.38,-150 798.38,-169.25"/>
<text text-anchor="middle" x="733.75" y="-155.75" font-family="Helvetica,sans-Serif" font-size="10.00">static constexpr Switches</text>
</a>
</g>
</g>
<!-- Node5&#45;&gt;Node1 -->
<g id="edge4" class="edge">
<title>Node5&#45;&gt;Node1</title>
<path fill="none" stroke="#9a32cd" stroke-dasharray="5,2" d="M809.29,-147.7C830.39,-144.24 853.36,-140.37 874.5,-136.62 880.22,-135.61 886.21,-134.52 892.15,-133.42"/>
<polygon fill="#9a32cd" stroke="#9a32cd" points="808.91,-144.22 799.61,-149.29 810.04,-151.13 808.91,-144.22"/>
<text text-anchor="middle" x="847.12" y="-226.12" font-family="Helvetica,sans-Serif" font-size="10.00"> CtxSetA</text>
<text text-anchor="middle" x="847.12" y="-214.88" font-family="Helvetica,sans-Serif" font-size="10.00">CtxSetB</text>
<text text-anchor="middle" x="847.12" y="-203.62" font-family="Helvetica,sans-Serif" font-size="10.00">CtxSetF</text>
<text text-anchor="middle" x="847.12" y="-192.38" font-family="Helvetica,sans-Serif" font-size="10.00">CtxSetNone</text>
<text text-anchor="middle" x="847.12" y="-181.12" font-family="Helvetica,sans-Serif" font-size="10.00">CtxSetTime</text>
<text text-anchor="middle" x="847.12" y="-169.88" font-family="Helvetica,sans-Serif" font-size="10.00">CtxSetX</text>
<text text-anchor="middle" x="847.12" y="-158.62" font-family="Helvetica,sans-Serif" font-size="10.00">CtxSetX_T</text>
<text text-anchor="middle" x="847.12" y="-147.38" font-family="Helvetica,sans-Serif" font-size="10.00">CtxSetX_TT</text>
</g>
<!-- Node6 -->
<g id="node6" class="node">
<title>Node6</title>
<g id="a_node6"><a xlink:title=" ">
<polygon fill="white" stroke="#666666" points="765.38,-132.25 702.12,-132.25 702.12,-113 765.38,-113 765.38,-132.25"/>
<text text-anchor="middle" x="733.75" y="-118.75" font-family="Helvetica,sans-Serif" font-size="10.00">bitset&lt; 8 &gt;</text>
</a>
</g>
</g>
<!-- Node6&#45;&gt;Node1 -->
<g id="edge5" class="edge">
<title>Node6&#45;&gt;Node1</title>
<path fill="none" stroke="#9a32cd" stroke-dasharray="5,2" d="M776.68,-122.83C810.06,-122.99 856.88,-123.21 892.35,-123.38"/>
<polygon fill="#9a32cd" stroke="#9a32cd" points="777.01,-119.33 766.99,-122.78 776.97,-126.33 777.01,-119.33"/>
<text text-anchor="middle" x="847.12" y="-124.38" font-family="Helvetica,sans-Serif" font-size="10.00"> data_ctx</text>
</g>
<!-- Node7 -->
<g id="node7" class="node">
<title>Node7</title>
<g id="a_node7"><a xlink:title=" ">
<polygon fill="white" stroke="#666666" points="750.38,-65.25 717.12,-65.25 717.12,-46 750.38,-46 750.38,-65.25"/>
<text text-anchor="middle" x="733.75" y="-51.75" font-family="Helvetica,sans-Serif" font-size="10.00">Vec</text>
</a>
</g>
</g>
<!-- Node7&#45;&gt;Node1 -->
<g id="edge6" class="edge">
<title>Node7&#45;&gt;Node1</title>
<path fill="none" stroke="#9a32cd" stroke-dasharray="5,2" d="M761.68,-55.18C790.58,-55.58 837.32,-58.8 874.5,-73.62 897.75,-82.89 920.33,-101.9 932.87,-113.63"/>
<polygon fill="#9a32cd" stroke="#9a32cd" points="761.99,-51.68 751.99,-55.15 761.98,-58.68 761.99,-51.68"/>
<text text-anchor="middle" x="847.12" y="-109.12" font-family="Helvetica,sans-Serif" font-size="10.00"> f</text>
<text text-anchor="middle" x="847.12" y="-97.88" font-family="Helvetica,sans-Serif" font-size="10.00">x</text>
<text text-anchor="middle" x="847.12" y="-86.62" font-family="Helvetica,sans-Serif" font-size="10.00">x_t</text>
<text text-anchor="middle" x="847.12" y="-75.38" font-family="Helvetica,sans-Serif" font-size="10.00">x_tt</text>
</g>
<!-- Node8 -->
<g id="node8" class="node">
<title>Node8</title>
<g id="a_node8"><a xlink:title=" ">
<polygon fill="white" stroke="#666666" points="750,-19.25 717.5,-19.25 717.5,0 750,0 750,-19.25"/>
<text text-anchor="middle" x="733.75" y="-5.75" font-family="Helvetica,sans-Serif" font-size="10.00">Mat</text>
</a>
</g>
</g>
<!-- Node8&#45;&gt;Node1 -->
<g id="edge7" class="edge">
<title>Node8&#45;&gt;Node1</title>
<path fill="none" stroke="#9a32cd" stroke-dasharray="5,2" d="M761.41,-8.45C791.11,-8.36 839.55,-11.95 874.5,-33.12 907.19,-52.93 929.67,-94.69 938.65,-113.76"/>
<polygon fill="#9a32cd" stroke="#9a32cd" points="761.73,-4.94 751.8,-8.63 761.86,-11.94 761.73,-4.94"/>
<text text-anchor="middle" x="847.12" y="-46.62" font-family="Helvetica,sans-Serif" font-size="10.00"> A</text>
<text text-anchor="middle" x="847.12" y="-35.38" font-family="Helvetica,sans-Serif" font-size="10.00">B</text>
</g>
</g>
</svg>
