<?xml version="1.0" encoding="UTF-8" standalone="no"?>
<!DOCTYPE svg PUBLIC "-//W3C//DTD SVG 1.1//EN"
 "http://www.w3.org/Graphics/SVG/1.1/DTD/svg11.dtd">
<!-- Generated by graphviz version 2.43.0 (0)
 -->
<!-- Title: HcurlFaceBase Pages: 1 -->
<!--zoomable 397 -->
<svg id="main" version="1.1" xmlns="http://www.w3.org/2000/svg" xmlns:xlink="http://www.w3.org/1999/xlink" xml:space="preserve" onload="init(evt)">
<style type="text/css"><![CDATA[
.edge:hover path { stroke: red; }
.edge:hover polygon { stroke: red; fill: red; }
]]></style>
<script type="text/javascript"><![CDATA[
var edges = document.getElementsByTagName('g');
if (edges && edges.length) {
  for (var i=0;i<edges.length;i++) {
    if (edges[i].id.substr(0,4)=='edge') {
      edges[i].setAttribute('class','edge');
    }
  }
}
]]></script>
        <defs>
                <circle id="rim" cx="0" cy="0" r="7"/>
                <circle id="rim2" cx="0" cy="0" r="3.5"/>
                <g id="zoomPlus">
                        <use xlink:href="#rim" fill="#404040">
                                <set attributeName="fill" to="#808080" begin="zoomplus.mouseover" end="zoomplus.mouseout"/>
                        </use>
                        <path d="M-4,0h8M0,-4v8" fill="none" stroke="white" stroke-width="1.5" pointer-events="none"/>
                </g>
                <g id="zoomMin">
                        <use xlink:href="#rim" fill="#404040">
                                <set attributeName="fill" to="#808080" begin="zoomminus.mouseover" end="zoomminus.mouseout"/>
                        </use>
                        <path d="M-4,0h8" fill="none" stroke="white" stroke-width="1.5" pointer-events="none"/>
                </g>
                <g id="dirArrow">
                        <path fill="none" stroke="white" stroke-width="1.5" d="M0,-3.0v7 M-2.5,-0.5L0,-3.0L2.5,-0.5"/>
                </g>
               <g id="resetDef">
                       <use xlink:href="#rim2" fill="#404040">
                               <set attributeName="fill" to="#808080" begin="reset.mouseover" end="reset.mouseout"/>
                       </use>
               </g>
        </defs>

<script type="text/javascript">
var viewWidth = 522;
var viewHeight = 397;
var sectionId = 'dynsection-0';
</script>
<script xlink:href="svgpan.js"/>
<svg id="graph" class="graph">
<g id="viewport">
<title>HcurlFaceBase</title>
<polygon fill="white" stroke="transparent" points="-4,4 -4,-393 518,-393 518,4 -4,4"/>
<!-- Node1 -->
<g id="node1" class="node">
<title>Node1</title>
<g id="a_node1"><a xlink:title=" ">
<polygon fill="#bfbfbf" stroke="black" points="242,-0.5 242,-19.5 330,-19.5 330,-0.5 242,-0.5"/>
<text text-anchor="middle" x="286" y="-7.5" font-family="Helvetica,sans-Serif" font-size="10.00">HcurlFaceBase</text>
</a>
</g>
</g>
<!-- Node2 -->
<g id="node2" class="node">
<title>Node2</title>
<g id="a_node2"><a xlink:href="classFTensor_1_1Index.html" target="_top" xlink:title=" ">
<polygon fill="white" stroke="black" points="384,-224.5 384,-243.5 514,-243.5 514,-224.5 384,-224.5"/>
<text text-anchor="middle" x="449" y="-231.5" font-family="Helvetica,sans-Serif" font-size="10.00">FTensor::Index&lt; &#39;i&#39;, 3 &gt;</text>
</a>
</g>
</g>
<!-- Node2&#45;&gt;Node1 -->
<g id="edge1" class="edge">
<title>Node2&#45;&gt;Node1</title>
<path fill="none" stroke="#9a32cd" stroke-dasharray="5,2" d="M447.96,-213.68C444.79,-174.68 432.06,-86.15 381,-38 367.28,-25.06 347.81,-18.26 330.06,-14.7"/>
<polygon fill="#9a32cd" stroke="#9a32cd" points="444.5,-214.36 448.66,-224.1 451.48,-213.88 444.5,-214.36"/>
<text text-anchor="middle" x="442.5" y="-108.5" font-family="Helvetica,sans-Serif" font-size="10.00"> i</text>
</g>
<!-- Node4 -->
<g id="node4" class="node">
<title>Node4</title>
<g id="a_node4"><a xlink:href="structHcurlEdgeBase.html" target="_top" xlink:title=" ">
<polygon fill="white" stroke="black" points="241,-101.5 241,-120.5 331,-120.5 331,-101.5 241,-101.5"/>
<text text-anchor="middle" x="286" y="-108.5" font-family="Helvetica,sans-Serif" font-size="10.00">HcurlEdgeBase</text>
</a>
</g>
</g>
<!-- Node2&#45;&gt;Node4 -->
<g id="edge5" class="edge">
<title>Node2&#45;&gt;Node4</title>
<path fill="none" stroke="#9a32cd" stroke-dasharray="5,2" d="M429.24,-218.33C394.9,-192.84 325.28,-141.16 297.67,-120.66"/>
<polygon fill="#9a32cd" stroke="#9a32cd" points="427.42,-221.34 437.54,-224.49 431.59,-215.72 427.42,-221.34"/>
<text text-anchor="middle" x="413.5" y="-187" font-family="Helvetica,sans-Serif" font-size="10.00"> i</text>
</g>
<!-- Node3 -->
<g id="node3" class="node">
<title>Node3</title>
<g id="a_node3"><a xlink:href="classFTensor_1_1Index.html" target="_top" xlink:title=" ">
<polygon fill="white" stroke="black" points="397,-291.5 397,-321.5 501,-321.5 501,-291.5 397,-291.5"/>
<text text-anchor="start" x="405" y="-309.5" font-family="Helvetica,sans-Serif" font-size="10.00">FTensor::Index&lt; i,</text>
<text text-anchor="middle" x="449" y="-298.5" font-family="Helvetica,sans-Serif" font-size="10.00"> Dim &gt;</text>
</a>
</g>
</g>
<!-- Node3&#45;&gt;Node2 -->
<g id="edge2" class="edge">
<title>Node3&#45;&gt;Node2</title>
<path fill="none" stroke="orange" stroke-dasharray="5,2" d="M449,-281.09C449,-268.21 449,-253.2 449,-243.89"/>
<polygon fill="orange" stroke="orange" points="445.5,-281.23 449,-291.23 452.5,-281.23 445.5,-281.23"/>
<text text-anchor="middle" x="472.5" y="-265" font-family="Helvetica,sans-Serif" font-size="10.00"> &lt; &#39;i&#39;, 3 &gt;</text>
</g>
<!-- Node4&#45;&gt;Node1 -->
<g id="edge3" class="edge">
<title>Node4&#45;&gt;Node1</title>
<path fill="none" stroke="#9a32cd" stroke-dasharray="5,2" d="M286,-91.03C286,-69.54 286,-35.47 286,-19.62"/>
<polygon fill="#9a32cd" stroke="#9a32cd" points="282.5,-91.21 286,-101.21 289.5,-91.21 282.5,-91.21"/>
<text text-anchor="middle" x="331.5" y="-41" font-family="Helvetica,sans-Serif" font-size="10.00"> hCurlBaseOnEdge</text>
</g>
<!-- Node5 -->
<g id="node5" class="node">
<title>Node5</title>
<g id="a_node5"><a xlink:title=" ">
<polygon fill="white" stroke="#bfbfbf" points="282.5,-224.5 282.5,-243.5 365.5,-243.5 365.5,-224.5 282.5,-224.5"/>
<text text-anchor="middle" x="324" y="-231.5" font-family="Helvetica,sans-Serif" font-size="10.00">MatrixDouble</text>
</a>
</g>
</g>
<!-- Node5&#45;&gt;Node4 -->
<g id="edge4" class="edge">
<title>Node5&#45;&gt;Node4</title>
<path fill="none" stroke="#9a32cd" stroke-dasharray="5,2" d="M318.25,-214.7C309.93,-188.2 294.85,-140.17 288.71,-120.62"/>
<polygon fill="#9a32cd" stroke="#9a32cd" points="314.93,-215.81 321.27,-224.3 321.61,-213.71 314.93,-215.81"/>
<text text-anchor="middle" x="329" y="-187" font-family="Helvetica,sans-Serif" font-size="10.00"> diffFi</text>
</g>
<!-- Node6 -->
<g id="node6" class="node">
<title>Node6</title>
<g id="a_node6"><a xlink:title=" ">
<polygon fill="white" stroke="#bfbfbf" points="0,-224.5 0,-243.5 82,-243.5 82,-224.5 0,-224.5"/>
<text text-anchor="middle" x="41" y="-231.5" font-family="Helvetica,sans-Serif" font-size="10.00">VectorDouble</text>
</a>
</g>
</g>
<!-- Node6&#45;&gt;Node1 -->
<g id="edge11" class="edge">
<title>Node6&#45;&gt;Node1</title>
<path fill="none" stroke="#9a32cd" stroke-dasharray="5,2" d="M52.25,-216.13C74.32,-183.98 126.13,-113.05 183,-67 208.79,-46.12 243.49,-29.13 265.31,-19.54"/>
<polygon fill="#9a32cd" stroke="#9a32cd" points="49.32,-214.22 46.6,-224.46 55.11,-218.14 49.32,-214.22"/>
<text text-anchor="middle" x="207.5" y="-147" font-family="Helvetica,sans-Serif" font-size="10.00"> iFiF1</text>
<text text-anchor="middle" x="207.5" y="-136" font-family="Helvetica,sans-Serif" font-size="10.00">diffF0PhiII</text>
<text text-anchor="middle" x="207.5" y="-125" font-family="Helvetica,sans-Serif" font-size="10.00">diffIFiF0</text>
<text text-anchor="middle" x="207.5" y="-114" font-family="Helvetica,sans-Serif" font-size="10.00">diffF1PhiII</text>
<text text-anchor="middle" x="207.5" y="-103" font-family="Helvetica,sans-Serif" font-size="10.00">f1PhiII</text>
<text text-anchor="middle" x="207.5" y="-92" font-family="Helvetica,sans-Serif" font-size="10.00">diffIFiF1</text>
<text text-anchor="middle" x="207.5" y="-81" font-family="Helvetica,sans-Serif" font-size="10.00">f0PhiII</text>
<text text-anchor="middle" x="207.5" y="-70" font-family="Helvetica,sans-Serif" font-size="10.00">iFiF0</text>
</g>
<!-- Node6&#45;&gt;Node4 -->
<g id="edge6" class="edge">
<title>Node6&#45;&gt;Node4</title>
<path fill="none" stroke="#9a32cd" stroke-dasharray="5,2" d="M81.82,-221.38C95.17,-217.1 109.92,-211.85 123,-206 181.45,-179.86 245.94,-138.64 272.97,-120.76"/>
<polygon fill="#9a32cd" stroke="#9a32cd" points="80.45,-218.14 71.94,-224.45 82.53,-224.82 80.45,-218.14"/>
<text text-anchor="middle" x="193" y="-187" font-family="Helvetica,sans-Serif" font-size="10.00"> fI</text>
</g>
<!-- Node7 -->
<g id="node7" class="node">
<title>Node7</title>
<g id="a_node7"><a xlink:href="classFTensor_1_1Tensor1.html" target="_top" xlink:title=" ">
<polygon fill="white" stroke="black" points="100,-224.5 100,-243.5 264,-243.5 264,-224.5 100,-224.5"/>
<text text-anchor="middle" x="182" y="-231.5" font-family="Helvetica,sans-Serif" font-size="10.00">FTensor::Tensor1&lt; double, 3 &gt;</text>
</a>
</g>
</g>
<!-- Node7&#45;&gt;Node4 -->
<g id="edge7" class="edge">
<title>Node7&#45;&gt;Node4</title>
<path fill="none" stroke="#9a32cd" stroke-dasharray="5,2" d="M196.24,-216.43C218.66,-190.35 261.42,-140.6 278.59,-120.62"/>
<polygon fill="#9a32cd" stroke="#9a32cd" points="193.34,-214.43 189.48,-224.3 198.65,-219 193.34,-214.43"/>
<text text-anchor="middle" x="263" y="-198" font-family="Helvetica,sans-Serif" font-size="10.00"> tGradN0pN1</text>
<text text-anchor="middle" x="263" y="-187" font-family="Helvetica,sans-Serif" font-size="10.00">tDiffb</text>
<text text-anchor="middle" x="263" y="-176" font-family="Helvetica,sans-Serif" font-size="10.00">tPhi0</text>
</g>
<!-- Node8 -->
<g id="node8" class="node">
<title>Node8</title>
<g id="a_node8"><a xlink:href="classdouble.html" target="_top" xlink:title=" ">
<polygon fill="white" stroke="black" points="206,-297 206,-316 256,-316 256,-297 206,-297"/>
<text text-anchor="middle" x="231" y="-304" font-family="Helvetica,sans-Serif" font-size="10.00">double</text>
</a>
</g>
</g>
<!-- Node8&#45;&gt;Node7 -->
<g id="edge8" class="edge">
<title>Node8&#45;&gt;Node7</title>
<path fill="none" stroke="#9a32cd" stroke-dasharray="5,2" d="M222.88,-287.46C218.89,-279.36 213.7,-269.88 208,-262 203.19,-255.36 196.82,-248.71 191.59,-243.68"/>
<polygon fill="#9a32cd" stroke="#9a32cd" points="219.83,-289.19 227.26,-296.75 226.16,-286.21 219.83,-289.19"/>
<text text-anchor="middle" x="227.5" y="-265" font-family="Helvetica,sans-Serif" font-size="10.00"> data</text>
</g>
<!-- Node9 -->
<g id="node9" class="node">
<title>Node9</title>
<g id="a_node9"><a xlink:href="classFTensor_1_1Tensor1.html" target="_top" xlink:title=" ">
<polygon fill="white" stroke="black" points="70.5,-291.5 70.5,-321.5 187.5,-321.5 187.5,-291.5 70.5,-291.5"/>
<text text-anchor="start" x="78.5" y="-309.5" font-family="Helvetica,sans-Serif" font-size="10.00">FTensor::Tensor1&lt; T,</text>
<text text-anchor="middle" x="129" y="-298.5" font-family="Helvetica,sans-Serif" font-size="10.00"> Tensor_Dim &gt;</text>
</a>
</g>
</g>
<!-- Node9&#45;&gt;Node7 -->
<g id="edge9" class="edge">
<title>Node9&#45;&gt;Node7</title>
<path fill="none" stroke="orange" stroke-dasharray="5,2" d="M127.16,-281.38C127.69,-274.67 129.29,-267.66 133,-262 138.42,-253.71 147.31,-247.74 156.03,-243.56"/>
<polygon fill="orange" stroke="orange" points="123.66,-281.45 127.09,-291.48 130.66,-281.5 123.66,-281.45"/>
<text text-anchor="middle" x="168.5" y="-265" font-family="Helvetica,sans-Serif" font-size="10.00"> &lt; double, 3 &gt;</text>
</g>
<!-- Node10 -->
<g id="node10" class="node">
<title>Node10</title>
<g id="a_node10"><a xlink:title=" ">
<polygon fill="white" stroke="#bfbfbf" points="114.5,-369.5 114.5,-388.5 143.5,-388.5 143.5,-369.5 114.5,-369.5"/>
<text text-anchor="middle" x="129" y="-376.5" font-family="Helvetica,sans-Serif" font-size="10.00">T</text>
</a>
</g>
</g>
<!-- Node10&#45;&gt;Node9 -->
<g id="edge10" class="edge">
<title>Node10&#45;&gt;Node9</title>
<path fill="none" stroke="#9a32cd" stroke-dasharray="5,2" d="M129,-359.24C129,-347.41 129,-332.38 129,-321.58"/>
<polygon fill="#9a32cd" stroke="#9a32cd" points="125.5,-359.36 129,-369.36 132.5,-359.36 125.5,-359.36"/>
<text text-anchor="middle" x="141.5" y="-343" font-family="Helvetica,sans-Serif" font-size="10.00"> data</text>
</g>
</g>
</svg>
        <g id="navigator" transform="translate(0 0)" fill="#404254">
                <rect fill="#f2f5e9" fill-opacity="0.5" stroke="#606060" stroke-width=".5" x="0" y="0" width="60" height="60"/>
                <use id="zoomplus" xlink:href="#zoomPlus" x="17" y="9" onmousedown="handleZoom(evt,'in')"/>
                <use id="zoomminus" xlink:href="#zoomMin" x="42" y="9" onmousedown="handleZoom(evt,'out')"/>
                <use id="reset" xlink:href="#resetDef" x="30" y="36" onmousedown="handleReset()"/>
                <g id="arrowUp" xlink:href="#dirArrow" transform="translate(30 24)" onmousedown="handlePan(0,-1)">
                  <use xlink:href="#rim" fill="#404040">
                        <set attributeName="fill" to="#808080" begin="arrowUp.mouseover" end="arrowUp.mouseout"/>
                  </use>
                  <path fill="none" stroke="white" stroke-width="1.5" d="M0,-3.0v7 M-2.5,-0.5L0,-3.0L2.5,-0.5"/>
                </g>
                <g id="arrowRight" xlink:href="#dirArrow" transform="rotate(90) translate(36 -43)" onmousedown="handlePan(1,0)">
                  <use xlink:href="#rim" fill="#404040">
                        <set attributeName="fill" to="#808080" begin="arrowRight.mouseover" end="arrowRight.mouseout"/>
                  </use>
                  <path fill="none" stroke="white" stroke-width="1.5" d="M0,-3.0v7 M-2.5,-0.5L0,-3.0L2.5,-0.5"/>
                </g>
                <g id="arrowDown" xlink:href="#dirArrow" transform="rotate(180) translate(-30 -48)" onmousedown="handlePan(0,1)">
                  <use xlink:href="#rim" fill="#404040">
                        <set attributeName="fill" to="#808080" begin="arrowDown.mouseover" end="arrowDown.mouseout"/>
                  </use>
                  <path fill="none" stroke="white" stroke-width="1.5" d="M0,-3.0v7 M-2.5,-0.5L0,-3.0L2.5,-0.5"/>
                </g>
                <g id="arrowLeft" xlink:href="#dirArrow" transform="rotate(270) translate(-36 17)" onmousedown="handlePan(-1,0)">
                  <use xlink:href="#rim" fill="#404040">
                        <set attributeName="fill" to="#808080" begin="arrowLeft.mouseover" end="arrowLeft.mouseout"/>
                  </use>
                  <path fill="none" stroke="white" stroke-width="1.5" d="M0,-3.0v7 M-2.5,-0.5L0,-3.0L2.5,-0.5"/>
                </g>
        </g>
        <svg viewBox="0 0 15 15" width="100%" height="30px" preserveAspectRatio="xMaxYMin meet">
         <g id="arrow_out" transform="scale(0.3 0.3)">
          <a xlink:href="structHcurlFaceBase__coll__graph_org.svg" target="_base">
           <rect id="button" ry="5" rx="5" y="6" x="6" height="38" width="38"
                fill="#f2f5e9" fill-opacity="0.5" stroke="#606060" stroke-width="1.0"/>
           <path id="arrow"
             d="M 11.500037,31.436501 C 11.940474,20.09759 22.043105,11.32322 32.158766,21.979434 L 37.068811,17.246167 C 37.068811,17.246167 37.088388,32 37.088388,32 L 22.160133,31.978069 C 22.160133,31.978069 26.997745,27.140456 26.997745,27.140456 C 18.528582,18.264221 13.291696,25.230495 11.500037,31.436501 z"
             style="fill:#404040;"/>
          </a>
         </g>
        </svg>
</svg>
