<?xml version="1.0" encoding="UTF-8" standalone="no"?>
<!DOCTYPE svg PUBLIC "-//W3C//DTD SVG 1.1//EN"
 "http://www.w3.org/Graphics/SVG/1.1/DTD/svg11.dtd">
<!-- Generated by graphviz version 9.0.0 (20230911.1827)
 -->
<!-- Title: MoFEM::VolumeElementForcesAndSourcesCoreOnSide::UserDataOperator Pages: 1 -->
<svg width="1150pt" height="327pt"
 viewBox="0.00 0.00 1149.50 327.12" xmlns="http://www.w3.org/2000/svg" xmlns:xlink="http://www.w3.org/1999/xlink">
<g id="graph0" class="graph" transform="scale(1 1) rotate(0) translate(4 323.12)">
<title>MoFEM::VolumeElementForcesAndSourcesCoreOnSide::UserDataOperator</title>
<!-- Node1 -->
<g id="node1" class="node">
<title>Node1</title>
<g id="a_node1"><a xlink:title="default operator for TET element">
<polygon fill="#999999" stroke="#666666" points="730,-193.75 559.5,-193.75 559.5,-152 730,-152 730,-193.75"/>
<text text-anchor="start" x="567.5" y="-180.25" font-family="Helvetica,sans-Serif" font-size="10.00">MoFEM::VolumeElementForces</text>
<text text-anchor="start" x="567.5" y="-169" font-family="Helvetica,sans-Serif" font-size="10.00">AndSourcesCoreOnSide::UserData</text>
<text text-anchor="middle" x="644.75" y="-157.75" font-family="Helvetica,sans-Serif" font-size="10.00">Operator</text>
</a>
</g>
</g>
<!-- Node5 -->
<g id="node5" class="node">
<title>Node5</title>
<g id="a_node5"><a xlink:href="struct_meta_spring_b_c_1_1_spring_a_l_e_material_vol_on_side_lhs.html" target="_top" xlink:title="Base class for LHS&#45;operators (material) on side volumes.">
<polygon fill="white" stroke="#666666" points="934.25,-270.12 767.5,-270.12 767.5,-239.62 934.25,-239.62 934.25,-270.12"/>
<text text-anchor="start" x="775.5" y="-256.62" font-family="Helvetica,sans-Serif" font-size="10.00">MetaSpringBC::SpringALEMaterial</text>
<text text-anchor="middle" x="850.88" y="-245.38" font-family="Helvetica,sans-Serif" font-size="10.00">VolOnSideLhs</text>
</a>
</g>
</g>
<!-- Node1&#45;&gt;Node5 -->
<g id="edge4" class="edge">
<title>Node1&#45;&gt;Node5</title>
<path fill="none" stroke="#63b8ff" d="M705.16,-198.72C724.48,-206.96 746.08,-215.97 766,-223.88 778.99,-229.03 793.21,-234.39 806.19,-239.17"/>
<polygon fill="#63b8ff" stroke="#63b8ff" points="706.64,-195.55 696.07,-194.84 703.89,-201.99 706.64,-195.55"/>
</g>
<!-- Node8 -->
<g id="node8" class="node">
<title>Node8</title>
<g id="a_node8"><a xlink:href="struct_neumann_forces_surface_1_1_op_calculate_deformation.html" target="_top" xlink:title="Operator for computing deformation gradients in side volumes.">
<polygon fill="white" stroke="#666666" points="915.5,-215.12 786.25,-215.12 786.25,-184.62 915.5,-184.62 915.5,-215.12"/>
<text text-anchor="start" x="794.25" y="-201.62" font-family="Helvetica,sans-Serif" font-size="10.00">NeumannForcesSurface</text>
<text text-anchor="middle" x="850.88" y="-190.38" font-family="Helvetica,sans-Serif" font-size="10.00">::OpCalculateDeformation</text>
</a>
</g>
</g>
<!-- Node1&#45;&gt;Node8 -->
<g id="edge7" class="edge">
<title>Node1&#45;&gt;Node8</title>
<path fill="none" stroke="#63b8ff" d="M741.25,-185.51C756.42,-187.51 771.8,-189.55 786.01,-191.43"/>
<polygon fill="#63b8ff" stroke="#63b8ff" points="742.12,-182.09 731.75,-184.25 741.2,-189.03 742.12,-182.09"/>
</g>
<!-- Node9 -->
<g id="node9" class="node">
<title>Node9</title>
<g id="a_node9"><a xlink:href="struct_neumann_forces_surface_1_1_op_neumann_pressure_material_vol_on_side_lhs.html" target="_top" xlink:title="Base class for LHS&#45;operators (material) on side volumes.">
<polygon fill="white" stroke="#666666" points="926,-166.75 775.75,-166.75 775.75,-125 926,-125 926,-166.75"/>
<text text-anchor="start" x="783.75" y="-153.25" font-family="Helvetica,sans-Serif" font-size="10.00">NeumannForcesSurface</text>
<text text-anchor="start" x="783.75" y="-142" font-family="Helvetica,sans-Serif" font-size="10.00">::OpNeumannPressureMaterial</text>
<text text-anchor="middle" x="850.88" y="-130.75" font-family="Helvetica,sans-Serif" font-size="10.00">VolOnSideLhs</text>
</a>
</g>
</g>
<!-- Node1&#45;&gt;Node9 -->
<g id="edge8" class="edge">
<title>Node1&#45;&gt;Node9</title>
<path fill="none" stroke="#63b8ff" d="M741.6,-160.2C753,-158.69 764.5,-157.17 775.54,-155.71"/>
<polygon fill="#63b8ff" stroke="#63b8ff" points="741.2,-156.72 731.75,-161.5 742.12,-163.66 741.2,-156.72"/>
</g>
<!-- Node12 -->
<g id="node12" class="node">
<title>Node12</title>
<g id="a_node12"><a xlink:href="struct_neumann_forces_surface_1_1_op_neumann_surface_force_material_vol_on_side_lhs.html" target="_top" xlink:title="Base class for LHS&#45;operators (material) on side volumes.">
<polygon fill="white" stroke="#666666" points="935.75,-101.75 766,-101.75 766,-60 935.75,-60 935.75,-101.75"/>
<text text-anchor="start" x="774" y="-88.25" font-family="Helvetica,sans-Serif" font-size="10.00">NeumannForcesSurface</text>
<text text-anchor="start" x="774" y="-77" font-family="Helvetica,sans-Serif" font-size="10.00">::OpNeumannSurfaceForceMaterial</text>
<text text-anchor="middle" x="850.88" y="-65.75" font-family="Helvetica,sans-Serif" font-size="10.00">VolOnSideLhs</text>
</a>
</g>
</g>
<!-- Node1&#45;&gt;Node12 -->
<g id="edge11" class="edge">
<title>Node1&#45;&gt;Node12</title>
<path fill="none" stroke="#63b8ff" d="M699.67,-146.65C720.31,-136.78 744.15,-125.6 766,-115.88 776.23,-111.32 787.24,-106.6 797.81,-102.15"/>
<polygon fill="#63b8ff" stroke="#63b8ff" points="698.37,-143.39 690.86,-150.87 701.39,-149.71 698.37,-143.39"/>
</g>
<!-- Node2 -->
<g id="node2" class="node">
<title>Node2</title>
<g id="a_node2"><a xlink:href="struct_mo_f_e_m_1_1_volume_element_forces_and_sources_core_1_1_user_data_operator.html" target="_top" xlink:title=" ">
<polygon fill="white" stroke="#666666" points="523.5,-188.12 347.75,-188.12 347.75,-157.62 523.5,-157.62 523.5,-188.12"/>
<text text-anchor="start" x="355.75" y="-174.62" font-family="Helvetica,sans-Serif" font-size="10.00">MoFEM::VolumeElementForces</text>
<text text-anchor="middle" x="435.62" y="-163.38" font-family="Helvetica,sans-Serif" font-size="10.00">AndSourcesCore::UserDataOperator</text>
</a>
</g>
</g>
<!-- Node2&#45;&gt;Node1 -->
<g id="edge1" class="edge">
<title>Node2&#45;&gt;Node1</title>
<path fill="none" stroke="#63b8ff" d="M535.19,-172.88C543.24,-172.88 551.33,-172.88 559.26,-172.88"/>
<polygon fill="#63b8ff" stroke="#63b8ff" points="535.38,-169.38 525.38,-172.88 535.38,-176.38 535.38,-169.38"/>
</g>
<!-- Node3 -->
<g id="node3" class="node">
<title>Node3</title>
<g id="a_node3"><a xlink:href="struct_mo_f_e_m_1_1_forces_and_sources_core_1_1_user_data_operator.html" target="_top" xlink:title=" ">
<polygon fill="white" stroke="#666666" points="311.75,-188.12 151,-188.12 151,-157.62 311.75,-157.62 311.75,-188.12"/>
<text text-anchor="start" x="159" y="-174.62" font-family="Helvetica,sans-Serif" font-size="10.00">MoFEM::ForcesAndSourcesCore</text>
<text text-anchor="middle" x="231.38" y="-163.38" font-family="Helvetica,sans-Serif" font-size="10.00">::UserDataOperator</text>
</a>
</g>
</g>
<!-- Node3&#45;&gt;Node2 -->
<g id="edge2" class="edge">
<title>Node3&#45;&gt;Node2</title>
<path fill="none" stroke="#63b8ff" d="M323.27,-172.88C331.29,-172.88 339.39,-172.88 347.38,-172.88"/>
<polygon fill="#63b8ff" stroke="#63b8ff" points="323.53,-169.38 313.53,-172.88 323.53,-176.38 323.53,-169.38"/>
</g>
<!-- Node4 -->
<g id="node4" class="node">
<title>Node4</title>
<g id="a_node4"><a xlink:href="struct_mo_f_e_m_1_1_data_operator.html" target="_top" xlink:title="base operator to do operations at Gauss Pt. level">
<polygon fill="white" stroke="#666666" points="115,-182.5 0,-182.5 0,-163.25 115,-163.25 115,-182.5"/>
<text text-anchor="middle" x="57.5" y="-169" font-family="Helvetica,sans-Serif" font-size="10.00">MoFEM::DataOperator</text>
</a>
</g>
</g>
<!-- Node4&#45;&gt;Node3 -->
<g id="edge3" class="edge">
<title>Node4&#45;&gt;Node3</title>
<path fill="none" stroke="#63b8ff" d="M126.64,-172.88C134.53,-172.88 142.63,-172.88 150.66,-172.88"/>
<polygon fill="#63b8ff" stroke="#63b8ff" points="126.77,-169.38 116.77,-172.88 126.77,-176.38 126.77,-169.38"/>
</g>
<!-- Node6 -->
<g id="node6" class="node">
<title>Node6</title>
<g id="a_node6"><a xlink:href="struct_meta_spring_b_c_1_1_spring_a_l_e_material_vol_on_side_lhs__d_x__d_x.html" target="_top" xlink:title="LHS&#45;operator (material configuration) on the side volume.">
<polygon fill="white" stroke="#666666" points="1140,-319.12 973.25,-319.12 973.25,-288.62 1140,-288.62 1140,-319.12"/>
<text text-anchor="start" x="981.25" y="-305.62" font-family="Helvetica,sans-Serif" font-size="10.00">MetaSpringBC::SpringALEMaterial</text>
<text text-anchor="middle" x="1056.62" y="-294.38" font-family="Helvetica,sans-Serif" font-size="10.00">VolOnSideLhs_dX_dX</text>
</a>
</g>
</g>
<!-- Node5&#45;&gt;Node6 -->
<g id="edge5" class="edge">
<title>Node5&#45;&gt;Node6</title>
<path fill="none" stroke="#63b8ff" d="M928.35,-273.27C948.75,-278.17 970.6,-283.43 990.34,-288.17"/>
<polygon fill="#63b8ff" stroke="#63b8ff" points="929.2,-269.87 918.66,-270.94 927.56,-276.68 929.2,-269.87"/>
</g>
<!-- Node7 -->
<g id="node7" class="node">
<title>Node7</title>
<g id="a_node7"><a xlink:href="struct_meta_spring_b_c_1_1_spring_a_l_e_material_vol_on_side_lhs__d_x__dx.html" target="_top" xlink:title="LHS&#45;operator (material configuration) on the side volume for spring element.">
<polygon fill="white" stroke="#666666" points="1140,-270.12 973.25,-270.12 973.25,-239.62 1140,-239.62 1140,-270.12"/>
<text text-anchor="start" x="981.25" y="-256.62" font-family="Helvetica,sans-Serif" font-size="10.00">MetaSpringBC::SpringALEMaterial</text>
<text text-anchor="middle" x="1056.62" y="-245.38" font-family="Helvetica,sans-Serif" font-size="10.00">VolOnSideLhs_dX_dx</text>
</a>
</g>
</g>
<!-- Node5&#45;&gt;Node7 -->
<g id="edge6" class="edge">
<title>Node5&#45;&gt;Node7</title>
<path fill="none" stroke="#63b8ff" d="M946.02,-254.88C954.97,-254.88 964,-254.88 972.83,-254.88"/>
<polygon fill="#63b8ff" stroke="#63b8ff" points="946.26,-251.38 936.26,-254.88 946.26,-258.38 946.26,-251.38"/>
</g>
<!-- Node10 -->
<g id="node10" class="node">
<title>Node10</title>
<g id="a_node10"><a xlink:href="struct_neumann_forces_surface_1_1_op_neumann_pressure_material_vol_on_side_lhs__d_x__d_x.html" target="_top" xlink:title="LHS&#45;operator (material configuration) on the side volume.">
<polygon fill="white" stroke="#666666" points="1131.75,-221.75 981.5,-221.75 981.5,-180 1131.75,-180 1131.75,-221.75"/>
<text text-anchor="start" x="989.5" y="-208.25" font-family="Helvetica,sans-Serif" font-size="10.00">NeumannForcesSurface</text>
<text text-anchor="start" x="989.5" y="-197" font-family="Helvetica,sans-Serif" font-size="10.00">::OpNeumannPressureMaterial</text>
<text text-anchor="middle" x="1056.62" y="-185.75" font-family="Helvetica,sans-Serif" font-size="10.00">VolOnSideLhs_dX_dX</text>
</a>
</g>
</g>
<!-- Node9&#45;&gt;Node10 -->
<g id="edge9" class="edge">
<title>Node9&#45;&gt;Node10</title>
<path fill="none" stroke="#63b8ff" d="M937.3,-168.94C951.84,-172.86 966.84,-176.91 981.06,-180.75"/>
<polygon fill="#63b8ff" stroke="#63b8ff" points="938.33,-165.59 927.76,-166.36 936.5,-172.34 938.33,-165.59"/>
</g>
<!-- Node11 -->
<g id="node11" class="node">
<title>Node11</title>
<g id="a_node11"><a xlink:href="struct_neumann_forces_surface_1_1_op_neumann_pressure_material_vol_on_side_lhs__d_x__dx.html" target="_top" xlink:title="LHS&#45;operator (material configuration) on the side volume.">
<polygon fill="white" stroke="#666666" points="1131.75,-161.75 981.5,-161.75 981.5,-120 1131.75,-120 1131.75,-161.75"/>
<text text-anchor="start" x="989.5" y="-148.25" font-family="Helvetica,sans-Serif" font-size="10.00">NeumannForcesSurface</text>
<text text-anchor="start" x="989.5" y="-137" font-family="Helvetica,sans-Serif" font-size="10.00">::OpNeumannPressureMaterial</text>
<text text-anchor="middle" x="1056.62" y="-125.75" font-family="Helvetica,sans-Serif" font-size="10.00">VolOnSideLhs_dX_dx</text>
</a>
</g>
</g>
<!-- Node9&#45;&gt;Node11 -->
<g id="edge10" class="edge">
<title>Node9&#45;&gt;Node11</title>
<path fill="none" stroke="#63b8ff" d="M937.73,-143.77C952.13,-143.41 966.97,-143.05 981.06,-142.7"/>
<polygon fill="#63b8ff" stroke="#63b8ff" points="937.72,-140.27 927.81,-144.01 937.89,-147.27 937.72,-140.27"/>
</g>
<!-- Node13 -->
<g id="node13" class="node">
<title>Node13</title>
<g id="a_node13"><a xlink:href="struct_neumann_forces_surface_1_1_op_neumann_surface_force_material_vol_on_side_lhs__d_x__d_x.html" target="_top" xlink:title="LHS&#45;operator (material configuration) on the side volume.">
<polygon fill="white" stroke="#666666" points="1141.5,-101.75 971.75,-101.75 971.75,-60 1141.5,-60 1141.5,-101.75"/>
<text text-anchor="start" x="979.75" y="-88.25" font-family="Helvetica,sans-Serif" font-size="10.00">NeumannForcesSurface</text>
<text text-anchor="start" x="979.75" y="-77" font-family="Helvetica,sans-Serif" font-size="10.00">::OpNeumannSurfaceForceMaterial</text>
<text text-anchor="middle" x="1056.62" y="-65.75" font-family="Helvetica,sans-Serif" font-size="10.00">VolOnSideLhs_dX_dX</text>
</a>
</g>
</g>
<!-- Node12&#45;&gt;Node13 -->
<g id="edge12" class="edge">
<title>Node12&#45;&gt;Node13</title>
<path fill="none" stroke="#63b8ff" d="M947.72,-80.88C955.61,-80.88 963.55,-80.88 971.34,-80.88"/>
<polygon fill="#63b8ff" stroke="#63b8ff" points="947.73,-77.38 937.73,-80.88 947.73,-84.38 947.73,-77.38"/>
</g>
<!-- Node14 -->
<g id="node14" class="node">
<title>Node14</title>
<g id="a_node14"><a xlink:href="struct_neumann_forces_surface_1_1_op_neumann_surface_force_material_vol_on_side_lhs__d_x__dx.html" target="_top" xlink:title="LHS&#45;operator (material configuration) on the side volume.">
<polygon fill="white" stroke="#666666" points="1141.5,-41.75 971.75,-41.75 971.75,0 1141.5,0 1141.5,-41.75"/>
<text text-anchor="start" x="979.75" y="-28.25" font-family="Helvetica,sans-Serif" font-size="10.00">NeumannForcesSurface</text>
<text text-anchor="start" x="979.75" y="-17" font-family="Helvetica,sans-Serif" font-size="10.00">::OpNeumannSurfaceForceMaterial</text>
<text text-anchor="middle" x="1056.62" y="-5.75" font-family="Helvetica,sans-Serif" font-size="10.00">VolOnSideLhs_dX_dx</text>
</a>
</g>
</g>
<!-- Node12&#45;&gt;Node14 -->
<g id="edge13" class="edge">
<title>Node12&#45;&gt;Node14</title>
<path fill="none" stroke="#63b8ff" d="M935.17,-56.35C951.06,-51.67 967.58,-46.8 983.11,-42.23"/>
<polygon fill="#63b8ff" stroke="#63b8ff" points="934.34,-52.94 925.74,-59.12 936.32,-59.66 934.34,-52.94"/>
</g>
</g>
</svg>
