<?xml version="1.0" encoding="UTF-8" standalone="no"?>
<!DOCTYPE svg PUBLIC "-//W3C//DTD SVG 1.1//EN"
 "http://www.w3.org/Graphics/SVG/1.1/DTD/svg11.dtd">
<!-- Generated by graphviz version 2.43.0 (0)
 -->
<!-- Title: PlasticOps::OpCalculatePlasticInternalForceLhs_LogStrain_dEPImpl&lt; DIM, GAUSS, AssemblyDomainEleOp &gt; Pages: 1 -->
<svg width="232pt" height="173pt"
 viewBox="0.00 0.00 232.00 173.00" xmlns="http://www.w3.org/2000/svg" xmlns:xlink="http://www.w3.org/1999/xlink">
<g id="graph0" class="graph" transform="scale(1 1) rotate(0) translate(4 169)">
<title>PlasticOps::OpCalculatePlasticInternalForceLhs_LogStrain_dEPImpl&lt; DIM, GAUSS, AssemblyDomainEleOp &gt;</title>
<polygon fill="white" stroke="transparent" points="-4,4 -4,-169 228,-169 228,4 -4,4"/>
<!-- Node1 -->
<g id="node1" class="node">
<title>Node1</title>
<g id="a_node1"><a xlink:title=" ">
<polygon fill="#bfbfbf" stroke="black" points="0,-0.5 0,-52.5 224,-52.5 224,-0.5 0,-0.5"/>
<text text-anchor="start" x="8" y="-40.5" font-family="Helvetica,sans-Serif" font-size="10.00">PlasticOps::OpCalculatePlastic</text>
<text text-anchor="start" x="8" y="-29.5" font-family="Helvetica,sans-Serif" font-size="10.00">InternalForceLhs_LogStrain</text>
<text text-anchor="start" x="8" y="-18.5" font-family="Helvetica,sans-Serif" font-size="10.00">_dEPImpl&lt; DIM, GAUSS, AssemblyDomain</text>
<text text-anchor="middle" x="112" y="-7.5" font-family="Helvetica,sans-Serif" font-size="10.00">EleOp &gt;</text>
</a>
</g>
</g>
<!-- Node2 -->
<g id="node2" class="node">
<title>Node2</title>
<g id="a_node2"><a xlink:href="structMoFEM_1_1OpBaseImpl.html" target="_top" xlink:title=" ">
<polygon fill="white" stroke="black" points="46.5,-89.5 46.5,-108.5 177.5,-108.5 177.5,-89.5 46.5,-89.5"/>
<text text-anchor="middle" x="112" y="-96.5" font-family="Helvetica,sans-Serif" font-size="10.00">AssemblyDomainEleOp</text>
</a>
</g>
</g>
<!-- Node2&#45;&gt;Node1 -->
<g id="edge1" class="edge">
<title>Node2&#45;&gt;Node1</title>
<path fill="none" stroke="midnightblue" d="M112,-79.1C112,-70.96 112,-61.33 112,-52.6"/>
<polygon fill="midnightblue" stroke="midnightblue" points="108.5,-79.36 112,-89.36 115.5,-79.36 108.5,-79.36"/>
</g>
<!-- Node3 -->
<g id="node3" class="node">
<title>Node3</title>
<g id="a_node3"><a xlink:href="classEleOp.html" target="_top" xlink:title=" ">
<polygon fill="white" stroke="black" points="89.5,-145.5 89.5,-164.5 134.5,-164.5 134.5,-145.5 89.5,-145.5"/>
<text text-anchor="middle" x="112" y="-152.5" font-family="Helvetica,sans-Serif" font-size="10.00">EleOp</text>
</a>
</g>
</g>
<!-- Node3&#45;&gt;Node2 -->
<g id="edge2" class="edge">
<title>Node3&#45;&gt;Node2</title>
<path fill="none" stroke="midnightblue" d="M112,-134.8C112,-125.91 112,-115.78 112,-108.75"/>
<polygon fill="midnightblue" stroke="midnightblue" points="108.5,-135.08 112,-145.08 115.5,-135.08 108.5,-135.08"/>
</g>
</g>
</svg>
