<?xml version="1.0" encoding="UTF-8" standalone="no"?>
<!DOCTYPE svg PUBLIC "-//W3C//DTD SVG 1.1//EN"
 "http://www.w3.org/Graphics/SVG/1.1/DTD/svg11.dtd">
<!-- Generated by graphviz version 9.0.0 (20230911.1827)
 -->
<!-- Title: ConvectiveMassElement::MatShellCtx Pages: 1 -->
<svg width="301pt" height="139pt"
 viewBox="0.00 0.00 300.88 138.75" xmlns="http://www.w3.org/2000/svg" xmlns:xlink="http://www.w3.org/1999/xlink">
<g id="graph0" class="graph" transform="scale(1 1) rotate(0) translate(4 134.75)">
<title>ConvectiveMassElement::MatShellCtx</title>
<!-- Node1 -->
<g id="node1" class="node">
<title>Node1</title>
<g id="a_node1"><a xlink:title=" ">
<polygon fill="#999999" stroke="#666666" points="219,-30.5 93.5,-30.5 93.5,0 219,0 219,-30.5"/>
<text text-anchor="start" x="101.5" y="-17" font-family="Helvetica,sans-Serif" font-size="10.00">ConvectiveMassElement</text>
<text text-anchor="middle" x="156.25" y="-5.75" font-family="Helvetica,sans-Serif" font-size="10.00">::MatShellCtx</text>
</a>
</g>
</g>
<!-- Node2 -->
<g id="node2" class="node">
<title>Node2</title>
<g id="a_node2"><a xlink:title=" ">
<polygon fill="white" stroke="#666666" points="32.5,-130.75 0,-130.75 0,-111.5 32.5,-111.5 32.5,-130.75"/>
<text text-anchor="middle" x="16.25" y="-117.25" font-family="Helvetica,sans-Serif" font-size="10.00">Mat</text>
</a>
</g>
</g>
<!-- Node2&#45;&gt;Node1 -->
<g id="edge1" class="edge">
<title>Node2&#45;&gt;Node1</title>
<path fill="none" stroke="#9a32cd" stroke-dasharray="5,2" d="M25,-100.95C33.23,-84.87 46.97,-62.39 65,-48.5 74.58,-41.12 85.99,-35.34 97.45,-30.84"/>
<polygon fill="#9a32cd" stroke="#9a32cd" points="21.85,-99.41 20.66,-109.94 28.16,-102.46 21.85,-99.41"/>
<text text-anchor="middle" x="74.38" y="-78.38" font-family="Helvetica,sans-Serif" font-size="10.00"> K</text>
<text text-anchor="middle" x="74.38" y="-67.12" font-family="Helvetica,sans-Serif" font-size="10.00">M</text>
<text text-anchor="middle" x="74.38" y="-55.88" font-family="Helvetica,sans-Serif" font-size="10.00">barK</text>
</g>
<!-- Node3 -->
<g id="node3" class="node">
<title>Node3</title>
<g id="a_node3"><a xlink:title=" ">
<polygon fill="white" stroke="#666666" points="115.62,-130.75 50.88,-130.75 50.88,-111.5 115.62,-111.5 115.62,-130.75"/>
<text text-anchor="middle" x="83.25" y="-117.25" font-family="Helvetica,sans-Serif" font-size="10.00">VecScatter</text>
</a>
</g>
</g>
<!-- Node3&#45;&gt;Node1 -->
<g id="edge2" class="edge">
<title>Node3&#45;&gt;Node1</title>
<path fill="none" stroke="#9a32cd" stroke-dasharray="5,2" d="M87.8,-100.6C92.09,-85.27 99.69,-64 111.75,-48.5 117.02,-41.72 124.09,-35.72 131.03,-30.8"/>
<polygon fill="#9a32cd" stroke="#9a32cd" points="84.5,-99.37 85.42,-109.93 91.28,-101.1 84.5,-99.37"/>
<text text-anchor="middle" x="131.5" y="-72.75" font-family="Helvetica,sans-Serif" font-size="10.00"> scatterU</text>
<text text-anchor="middle" x="131.5" y="-61.5" font-family="Helvetica,sans-Serif" font-size="10.00">scatterV</text>
</g>
<!-- Node4 -->
<g id="node4" class="node">
<title>Node4</title>
<g id="a_node4"><a xlink:href="classdouble.html" target="_top" xlink:title=" ">
<polygon fill="white" stroke="#666666" points="178.5,-130.75 134,-130.75 134,-111.5 178.5,-111.5 178.5,-130.75"/>
<text text-anchor="middle" x="156.25" y="-117.25" font-family="Helvetica,sans-Serif" font-size="10.00">double</text>
</a>
</g>
</g>
<!-- Node4&#45;&gt;Node1 -->
<g id="edge3" class="edge">
<title>Node4&#45;&gt;Node1</title>
<path fill="none" stroke="#9a32cd" stroke-dasharray="5,2" d="M156.25,-99.91C156.25,-79.54 156.25,-48.64 156.25,-30.64"/>
<polygon fill="#9a32cd" stroke="#9a32cd" points="152.75,-99.76 156.25,-109.76 159.75,-99.76 152.75,-99.76"/>
<text text-anchor="middle" x="167.12" y="-67.12" font-family="Helvetica,sans-Serif" font-size="10.00"> ts_a</text>
</g>
<!-- Node5 -->
<g id="node5" class="node">
<title>Node5</title>
<g id="a_node5"><a xlink:href="classbool.html" target="_top" xlink:title=" ">
<polygon fill="white" stroke="#666666" points="230.25,-130.75 196.25,-130.75 196.25,-111.5 230.25,-111.5 230.25,-130.75"/>
<text text-anchor="middle" x="213.25" y="-117.25" font-family="Helvetica,sans-Serif" font-size="10.00">bool</text>
</a>
</g>
</g>
<!-- Node5&#45;&gt;Node1 -->
<g id="edge4" class="edge">
<title>Node5&#45;&gt;Node1</title>
<path fill="none" stroke="#9a32cd" stroke-dasharray="5,2" d="M206.57,-100.95C201.03,-86.11 192.42,-65.34 182.25,-48.5 178.53,-42.34 173.75,-36.08 169.3,-30.72"/>
<polygon fill="#9a32cd" stroke="#9a32cd" points="203.13,-101.73 209.82,-109.95 209.72,-99.36 203.13,-101.73"/>
<text text-anchor="middle" x="225.12" y="-67.12" font-family="Helvetica,sans-Serif" font-size="10.00"> iNitialized</text>
</g>
<!-- Node6 -->
<g id="node6" class="node">
<title>Node6</title>
<g id="a_node6"><a xlink:title=" ">
<polygon fill="white" stroke="#666666" points="292.88,-130.75 259.62,-130.75 259.62,-111.5 292.88,-111.5 292.88,-130.75"/>
<text text-anchor="middle" x="276.25" y="-117.25" font-family="Helvetica,sans-Serif" font-size="10.00">Vec</text>
</a>
</g>
</g>
<!-- Node6&#45;&gt;Node1 -->
<g id="edge5" class="edge">
<title>Node6&#45;&gt;Node1</title>
<path fill="none" stroke="#9a32cd" stroke-dasharray="5,2" d="M274.38,-100.08C271.87,-84.12 266,-62.26 252.25,-48.5 243.18,-39.42 231.47,-32.9 219.38,-28.21"/>
<polygon fill="#9a32cd" stroke="#9a32cd" points="270.89,-100.34 275.57,-109.84 277.84,-99.49 270.89,-100.34"/>
<text text-anchor="middle" x="279.75" y="-84" font-family="Helvetica,sans-Serif" font-size="10.00"> Ku</text>
<text text-anchor="middle" x="279.75" y="-72.75" font-family="Helvetica,sans-Serif" font-size="10.00">Mv</text>
<text text-anchor="middle" x="279.75" y="-61.5" font-family="Helvetica,sans-Serif" font-size="10.00">u</text>
<text text-anchor="middle" x="279.75" y="-50.25" font-family="Helvetica,sans-Serif" font-size="10.00">v</text>
</g>
</g>
</svg>
