<?xml version="1.0" encoding="UTF-8" standalone="no"?>
<!DOCTYPE svg PUBLIC "-//W3C//DTD SVG 1.1//EN"
 "http://www.w3.org/Graphics/SVG/1.1/DTD/svg11.dtd">
<!-- Generated by graphviz version 2.43.0 (0)
 -->
<!-- Title: OpCalculateHomogeneousStiffness&lt; S &gt; Pages: 1 -->
<svg width="225pt" height="207pt"
 viewBox="0.00 0.00 225.00 207.00" xmlns="http://www.w3.org/2000/svg" xmlns:xlink="http://www.w3.org/1999/xlink">
<g id="graph0" class="graph" transform="scale(1 1) rotate(0) translate(4 203)">
<title>OpCalculateHomogeneousStiffness&lt; S &gt;</title>
<polygon fill="white" stroke="transparent" points="-4,4 -4,-203 221,-203 221,4 -4,4"/>
<!-- Node1 -->
<g id="node1" class="node">
<title>Node1</title>
<g id="a_node1"><a xlink:title=" ">
<polygon fill="#bfbfbf" stroke="black" points="0,-0.5 0,-19.5 217,-19.5 217,-0.5 0,-0.5"/>
<text text-anchor="middle" x="108.5" y="-7.5" font-family="Helvetica,sans-Serif" font-size="10.00">OpCalculateHomogeneousStiffness&lt; S &gt;</text>
</a>
</g>
</g>
<!-- Node2 -->
<g id="node2" class="node">
<title>Node2</title>
<g id="a_node2"><a xlink:href="structMoFEM_1_1VolumeElementForcesAndSourcesCore_1_1UserDataOperator.html" target="_top" xlink:title=" ">
<polygon fill="white" stroke="black" points="48.5,-56.5 48.5,-75.5 168.5,-75.5 168.5,-56.5 48.5,-56.5"/>
<text text-anchor="middle" x="108.5" y="-63.5" font-family="Helvetica,sans-Serif" font-size="10.00">VolUserDataOperator</text>
</a>
</g>
</g>
<!-- Node2&#45;&gt;Node1 -->
<g id="edge1" class="edge">
<title>Node2&#45;&gt;Node1</title>
<path fill="none" stroke="midnightblue" d="M108.5,-45.8C108.5,-36.91 108.5,-26.78 108.5,-19.75"/>
<polygon fill="midnightblue" stroke="midnightblue" points="105,-46.08 108.5,-56.08 112,-46.08 105,-46.08"/>
</g>
<!-- Node3 -->
<g id="node3" class="node">
<title>Node3</title>
<g id="a_node3"><a xlink:href="structMoFEM_1_1ForcesAndSourcesCore_1_1UserDataOperator.html" target="_top" xlink:title=" ">
<polygon fill="white" stroke="black" points="23.5,-112.5 23.5,-142.5 193.5,-142.5 193.5,-112.5 23.5,-112.5"/>
<text text-anchor="start" x="31.5" y="-130.5" font-family="Helvetica,sans-Serif" font-size="10.00">MoFEM::ForcesAndSourcesCore</text>
<text text-anchor="middle" x="108.5" y="-119.5" font-family="Helvetica,sans-Serif" font-size="10.00">::UserDataOperator</text>
</a>
</g>
</g>
<!-- Node3&#45;&gt;Node2 -->
<g id="edge2" class="edge">
<title>Node3&#45;&gt;Node2</title>
<path fill="none" stroke="midnightblue" d="M108.5,-102.29C108.5,-92.86 108.5,-82.65 108.5,-75.66"/>
<polygon fill="midnightblue" stroke="midnightblue" points="105,-102.4 108.5,-112.4 112,-102.4 105,-102.4"/>
</g>
<!-- Node4 -->
<g id="node4" class="node">
<title>Node4</title>
<g id="a_node4"><a xlink:href="structMoFEM_1_1DataOperator.html" target="_top" xlink:title="base operator to do operations at Gauss Pt. level">
<polygon fill="white" stroke="black" points="46,-179.5 46,-198.5 171,-198.5 171,-179.5 46,-179.5"/>
<text text-anchor="middle" x="108.5" y="-186.5" font-family="Helvetica,sans-Serif" font-size="10.00">MoFEM::DataOperator</text>
</a>
</g>
</g>
<!-- Node4&#45;&gt;Node3 -->
<g id="edge3" class="edge">
<title>Node4&#45;&gt;Node3</title>
<path fill="none" stroke="midnightblue" d="M108.5,-169.23C108.5,-160.59 108.5,-150.5 108.5,-142.52"/>
<polygon fill="midnightblue" stroke="midnightblue" points="105,-169.48 108.5,-179.48 112,-169.48 105,-169.48"/>
</g>
</g>
</svg>
