<?xml version="1.0" encoding="UTF-8" standalone="no"?>
<!DOCTYPE svg PUBLIC "-//W3C//DTD SVG 1.1//EN"
 "http://www.w3.org/Graphics/SVG/1.1/DTD/svg11.dtd">
<!-- Generated by graphviz version 2.43.0 (0)
 -->
<!-- Title: ZeroFLmabda Pages: 1 -->
<svg width="248pt" height="95pt"
 viewBox="0.00 0.00 247.50 95.00" xmlns="http://www.w3.org/2000/svg" xmlns:xlink="http://www.w3.org/1999/xlink">
<g id="graph0" class="graph" transform="scale(1 1) rotate(0) translate(4 91)">
<title>ZeroFLmabda</title>
<polygon fill="white" stroke="transparent" points="-4,4 -4,-91 243.5,-91 243.5,4 -4,4"/>
<!-- Node1 -->
<g id="node1" class="node">
<title>Node1</title>
<g id="a_node1"><a xlink:title="Zero F_lambda.">
<polygon fill="#bfbfbf" stroke="black" points="54.5,-0.5 54.5,-19.5 138.5,-19.5 138.5,-0.5 54.5,-0.5"/>
<text text-anchor="middle" x="96.5" y="-7.5" font-family="Helvetica,sans-Serif" font-size="10.00">ZeroFLmabda</text>
</a>
</g>
</g>
<!-- Node2 -->
<g id="node2" class="node">
<title>Node2</title>
<g id="a_node2"><a xlink:href="classFEMethod.html" target="_top" xlink:title=" ">
<polygon fill="white" stroke="black" points="0,-67.5 0,-86.5 65,-86.5 65,-67.5 0,-67.5"/>
<text text-anchor="middle" x="32.5" y="-74.5" font-family="Helvetica,sans-Serif" font-size="10.00">FEMethod</text>
</a>
</g>
</g>
<!-- Node2&#45;&gt;Node1 -->
<g id="edge1" class="edge">
<title>Node2&#45;&gt;Node1</title>
<path fill="none" stroke="midnightblue" d="M48.26,-60C60.81,-47.25 77.9,-29.89 88.01,-19.63"/>
<polygon fill="midnightblue" stroke="midnightblue" points="45.65,-57.65 41.13,-67.23 50.64,-62.56 45.65,-57.65"/>
</g>
<!-- Node3 -->
<g id="node3" class="node">
<title>Node3</title>
<g id="a_node3"><a xlink:title=" ">
<polygon fill="white" stroke="#bfbfbf" points="83.5,-67.5 83.5,-86.5 239.5,-86.5 239.5,-67.5 83.5,-67.5"/>
<text text-anchor="middle" x="161.5" y="-74.5" font-family="Helvetica,sans-Serif" font-size="10.00">shared_ptr&lt; ArcLengthCtx &gt;</text>
</a>
</g>
</g>
<!-- Node3&#45;&gt;Node1 -->
<g id="edge2" class="edge">
<title>Node3&#45;&gt;Node1</title>
<path fill="none" stroke="#9a32cd" stroke-dasharray="5,2" d="M145.5,-60C132.75,-47.25 115.39,-29.89 105.13,-19.63"/>
<polygon fill="#9a32cd" stroke="#9a32cd" points="143.19,-62.64 152.73,-67.23 148.14,-57.69 143.19,-62.64"/>
<text text-anchor="middle" x="148.5" y="-41" font-family="Helvetica,sans-Serif" font-size="10.00"> arcPtr</text>
</g>
</g>
</svg>
