<?xml version="1.0" encoding="UTF-8" standalone="no"?>
<!DOCTYPE svg PUBLIC "-//W3C//DTD SVG 1.1//EN"
 "http://www.w3.org/Graphics/SVG/1.1/DTD/svg11.dtd">
<!-- Generated by graphviz version 9.0.0 (20230911.1827)
 -->
<!-- Title: EshelbianPlasticity::OpAssembleFace Pages: 1 -->
<!--zoomable 186 -->
<svg id="main" version="1.1" xmlns="http://www.w3.org/2000/svg" xmlns:xlink="http://www.w3.org/1999/xlink" xml:space="preserve" onload="init(evt)">
<style type="text/css"><![CDATA[
.edge:hover path { stroke: red; }
.edge:hover polygon { stroke: red; fill: red; }
]]></style>
<script type="text/javascript"><![CDATA[
var edges = document.getElementsByTagName('g');
if (edges && edges.length) {
  for (var i=0;i<edges.length;i++) {
    if (edges[i].id.substr(0,4)=='edge') {
      edges[i].setAttribute('class','edge');
    }
  }
}
]]></script>
        <defs>
                <circle id="rim" cx="0" cy="0" r="7"/>
                <circle id="rim2" cx="0" cy="0" r="3.5"/>
                <g id="zoomPlus">
                        <use xlink:href="#rim" fill="#404040">
                                <set attributeName="fill" to="#808080" begin="zoomplus.mouseover" end="zoomplus.mouseout"/>
                        </use>
                        <path d="M-4,0h8M0,-4v8" fill="none" stroke="white" stroke-width="1.5" pointer-events="none"/>
                </g>
                <g id="zoomMin">
                        <use xlink:href="#rim" fill="#404040">
                                <set attributeName="fill" to="#808080" begin="zoomminus.mouseover" end="zoomminus.mouseout"/>
                        </use>
                        <path d="M-4,0h8" fill="none" stroke="white" stroke-width="1.5" pointer-events="none"/>
                </g>
                <g id="dirArrow">
                        <path fill="none" stroke="white" stroke-width="1.5" d="M0,-3.0v7 M-2.5,-0.5L0,-3.0L2.5,-0.5"/>
                </g>
               <g id="resetDef">
                       <use xlink:href="#rim2" fill="#404040">
                               <set attributeName="fill" to="#808080" begin="reset.mouseover" end="reset.mouseout"/>
                       </use>
               </g>
        </defs>

<script type="text/javascript">
var viewWidth = 787;
var viewHeight = 186;
var sectionId = 'dynsection-0';
</script>
<script xlink:href="svgpan.js"/>
<svg id="graph" class="graph">
<g id="viewport">
<title>EshelbianPlasticity::OpAssembleFace</title>
<!-- Node1 -->
<g id="node1" class="node">
<title>Node1</title>
<g id="a_node1"><a xlink:title=" ">
<polygon fill="#999999" stroke="#666666" points="642.8,-103.5 542.8,-103.5 542.8,-73 642.8,-73 642.8,-103.5"/>
<text text-anchor="start" x="550.8" y="-90" font-family="Helvetica,sans-Serif" font-size="10.00">EshelbianPlasticity</text>
<text text-anchor="middle" x="592.8" y="-78.75" font-family="Helvetica,sans-Serif" font-size="10.00">::OpAssembleFace</text>
</a>
</g>
</g>
<!-- Node6 -->
<g id="node6" class="node">
<title>Node6</title>
<g id="a_node6"><a xlink:href="struct_eshelbian_plasticity_1_1_op_disp_bc.html" target="_top" xlink:title=" ">
<polygon fill="white" stroke="#666666" points="779.05,-177.5 679.8,-177.5 679.8,-147 779.05,-147 779.05,-177.5"/>
<text text-anchor="start" x="687.8" y="-164" font-family="Helvetica,sans-Serif" font-size="10.00">EshelbianPlasticity</text>
<text text-anchor="middle" x="729.42" y="-152.75" font-family="Helvetica,sans-Serif" font-size="10.00">::OpDispBc</text>
</a>
</g>
</g>
<!-- Node1&#45;&gt;Node6 -->
<g id="edge5" class="edge">
<title>Node1&#45;&gt;Node6</title>
<path fill="none" stroke="#63b8ff" d="M630.31,-109.51C645.53,-118.26 663.44,-128.39 679.8,-137.25 685.48,-140.32 691.57,-143.53 697.45,-146.58"/>
<polygon fill="#63b8ff" stroke="#63b8ff" points="632.47,-106.72 622.06,-104.75 628.97,-112.78 632.47,-106.72"/>
</g>
<!-- Node7 -->
<g id="node7" class="node">
<title>Node7</title>
<g id="a_node7"><a xlink:href="struct_eshelbian_plasticity_1_1_op_disp_bc__dx.html" target="_top" xlink:title=" ">
<polygon fill="white" stroke="#666666" points="779.05,-128.5 679.8,-128.5 679.8,-98 779.05,-98 779.05,-128.5"/>
<text text-anchor="start" x="687.8" y="-115" font-family="Helvetica,sans-Serif" font-size="10.00">EshelbianPlasticity</text>
<text text-anchor="middle" x="729.42" y="-103.75" font-family="Helvetica,sans-Serif" font-size="10.00">::OpDispBc_dx</text>
</a>
</g>
</g>
<!-- Node1&#45;&gt;Node7 -->
<g id="edge6" class="edge">
<title>Node1&#45;&gt;Node7</title>
<path fill="none" stroke="#63b8ff" d="M654.47,-99.52C662.85,-101.07 671.38,-102.66 679.52,-104.17"/>
<polygon fill="#63b8ff" stroke="#63b8ff" points="655.12,-96.08 644.65,-97.69 653.85,-102.96 655.12,-96.08"/>
</g>
<!-- Node8 -->
<g id="node8" class="node">
<title>Node8</title>
<g id="a_node8"><a xlink:href="struct_eshelbian_plasticity_1_1_op_rotation_bc.html" target="_top" xlink:title=" ">
<polygon fill="white" stroke="#666666" points="779.05,-79.5 679.8,-79.5 679.8,-49 779.05,-49 779.05,-79.5"/>
<text text-anchor="start" x="687.8" y="-66" font-family="Helvetica,sans-Serif" font-size="10.00">EshelbianPlasticity</text>
<text text-anchor="middle" x="729.42" y="-54.75" font-family="Helvetica,sans-Serif" font-size="10.00">::OpRotationBc</text>
</a>
</g>
</g>
<!-- Node1&#45;&gt;Node8 -->
<g id="edge7" class="edge">
<title>Node1&#45;&gt;Node8</title>
<path fill="none" stroke="#63b8ff" d="M654.47,-77.43C662.85,-75.94 671.38,-74.42 679.52,-72.97"/>
<polygon fill="#63b8ff" stroke="#63b8ff" points="653.89,-73.98 644.65,-79.18 655.11,-80.87 653.89,-73.98"/>
</g>
<!-- Node9 -->
<g id="node9" class="node">
<title>Node9</title>
<g id="a_node9"><a xlink:href="struct_eshelbian_plasticity_1_1_op_rotation_bc__dx.html" target="_top" xlink:title=" ">
<polygon fill="white" stroke="#666666" points="779.05,-30.5 679.8,-30.5 679.8,0 779.05,0 779.05,-30.5"/>
<text text-anchor="start" x="687.8" y="-17" font-family="Helvetica,sans-Serif" font-size="10.00">EshelbianPlasticity</text>
<text text-anchor="middle" x="729.42" y="-5.75" font-family="Helvetica,sans-Serif" font-size="10.00">::OpRotationBc_dx</text>
</a>
</g>
</g>
<!-- Node1&#45;&gt;Node9 -->
<g id="edge8" class="edge">
<title>Node1&#45;&gt;Node9</title>
<path fill="none" stroke="#63b8ff" d="M631.14,-67.05C646.19,-58.59 663.76,-48.85 679.8,-40.25 685.49,-37.2 691.59,-34.01 697.47,-30.96"/>
<polygon fill="#63b8ff" stroke="#63b8ff" points="629.48,-63.96 622.49,-71.92 632.92,-70.06 629.48,-63.96"/>
</g>
<!-- Node2 -->
<g id="node2" class="node">
<title>Node2</title>
<g id="a_node2"><a xlink:href="struct_eshelbian_plasticity_1_1_op_assemble_basic.html" target="_top" xlink:title=" ">
<polygon fill="white" stroke="#666666" points="505.8,-109.12 351.05,-109.12 351.05,-67.38 505.8,-67.38 505.8,-109.12"/>
<text text-anchor="start" x="359.05" y="-95.62" font-family="Helvetica,sans-Serif" font-size="10.00">EshelbianPlasticity</text>
<text text-anchor="start" x="359.05" y="-84.38" font-family="Helvetica,sans-Serif" font-size="10.00">::OpAssembleBasic&lt; FaceUser</text>
<text text-anchor="middle" x="428.42" y="-73.12" font-family="Helvetica,sans-Serif" font-size="10.00">DataOperator &gt;</text>
</a>
</g>
</g>
<!-- Node2&#45;&gt;Node1 -->
<g id="edge1" class="edge">
<title>Node2&#45;&gt;Node1</title>
<path fill="none" stroke="#63b8ff" d="M517.29,-88.25C525.98,-88.25 534.55,-88.25 542.63,-88.25"/>
<polygon fill="#63b8ff" stroke="#63b8ff" points="517.37,-84.75 507.37,-88.25 517.37,-91.75 517.37,-84.75"/>
</g>
<!-- Node3 -->
<g id="node3" class="node">
<title>Node3</title>
<g id="a_node3"><a xlink:title=" ">
<polygon fill="white" stroke="#666666" points="187.92,-118.88 70.67,-118.88 70.67,-99.62 187.92,-99.62 187.92,-118.88"/>
<text text-anchor="middle" x="129.3" y="-105.38" font-family="Helvetica,sans-Serif" font-size="10.00">FaceUserDataOperator</text>
</a>
</g>
</g>
<!-- Node3&#45;&gt;Node2 -->
<g id="edge2" class="edge">
<title>Node3&#45;&gt;Node2</title>
<path fill="none" stroke="#63b8ff" d="M199.49,-104.36C244.78,-101.16 304,-96.97 350.72,-93.67"/>
<polygon fill="#63b8ff" stroke="#63b8ff" points="199.53,-100.85 189.8,-105.04 200.03,-107.83 199.53,-100.85"/>
</g>
<!-- Node4 -->
<g id="node4" class="node">
<title>Node4</title>
<g id="a_node4"><a xlink:href="struct_eshelbian_plasticity_1_1_op_assemble_basic.html" target="_top" xlink:title=" ">
<polygon fill="white" stroke="#666666" points="192.8,-81.5 65.8,-81.5 65.8,-51 192.8,-51 192.8,-81.5"/>
<text text-anchor="start" x="73.8" y="-68" font-family="Helvetica,sans-Serif" font-size="10.00">EshelbianPlasticity</text>
<text text-anchor="middle" x="129.3" y="-56.75" font-family="Helvetica,sans-Serif" font-size="10.00">::OpAssembleBasic&lt; T &gt;</text>
</a>
</g>
</g>
<!-- Node4&#45;&gt;Node2 -->
<g id="edge3" class="edge">
<title>Node4&#45;&gt;Node2</title>
<path fill="none" stroke="orange" stroke-dasharray="5,2" d="M204.01,-70.27C242.49,-72.52 290.33,-75.56 333.05,-79 338.79,-79.46 344.73,-79.97 350.7,-80.5"/>
<polygon fill="orange" stroke="orange" points="204.6,-66.79 194.42,-69.71 204.2,-73.78 204.6,-66.79"/>
<text text-anchor="middle" x="271.92" y="-81" font-family="Helvetica,sans-Serif" font-size="10.00"> &lt; FaceUserDataOperator &gt;</text>
</g>
<!-- Node5 -->
<g id="node5" class="node">
<title>Node5</title>
<g id="a_node5"><a xlink:title=" ">
<polygon fill="white" stroke="#666666" points="28.8,-75.88 0,-75.88 0,-56.62 28.8,-56.62 28.8,-75.88"/>
<text text-anchor="middle" x="14.4" y="-62.38" font-family="Helvetica,sans-Serif" font-size="10.00">T</text>
</a>
</g>
</g>
<!-- Node5&#45;&gt;Node4 -->
<g id="edge4" class="edge">
<title>Node5&#45;&gt;Node4</title>
<path fill="none" stroke="#63b8ff" d="M40.64,-66.25C48.09,-66.25 56.6,-66.25 65.32,-66.25"/>
<polygon fill="#63b8ff" stroke="#63b8ff" points="40.76,-62.75 30.76,-66.25 40.76,-69.75 40.76,-62.75"/>
</g>
</g>
</svg>
        <g id="navigator" transform="translate(0 0)" fill="#404254">
                <rect fill="#f2f5e9" fill-opacity="0.5" stroke="#606060" stroke-width=".5" x="0" y="0" width="60" height="60"/>
                <use id="zoomplus" xlink:href="#zoomPlus" x="17" y="9" onmousedown="handleZoom(evt,'in')"/>
                <use id="zoomminus" xlink:href="#zoomMin" x="42" y="9" onmousedown="handleZoom(evt,'out')"/>
                <use id="reset" xlink:href="#resetDef" x="30" y="36" onmousedown="handleReset()"/>
                <g id="arrowUp" xlink:href="#dirArrow" transform="translate(30 24)" onmousedown="handlePan(0,-1)">
                  <use xlink:href="#rim" fill="#404040">
                        <set attributeName="fill" to="#808080" begin="arrowUp.mouseover" end="arrowUp.mouseout"/>
                  </use>
                  <path fill="none" stroke="white" stroke-width="1.5" d="M0,-3.0v7 M-2.5,-0.5L0,-3.0L2.5,-0.5"/>
                </g>
                <g id="arrowRight" xlink:href="#dirArrow" transform="rotate(90) translate(36 -43)" onmousedown="handlePan(1,0)">
                  <use xlink:href="#rim" fill="#404040">
                        <set attributeName="fill" to="#808080" begin="arrowRight.mouseover" end="arrowRight.mouseout"/>
                  </use>
                  <path fill="none" stroke="white" stroke-width="1.5" d="M0,-3.0v7 M-2.5,-0.5L0,-3.0L2.5,-0.5"/>
                </g>
                <g id="arrowDown" xlink:href="#dirArrow" transform="rotate(180) translate(-30 -48)" onmousedown="handlePan(0,1)">
                  <use xlink:href="#rim" fill="#404040">
                        <set attributeName="fill" to="#808080" begin="arrowDown.mouseover" end="arrowDown.mouseout"/>
                  </use>
                  <path fill="none" stroke="white" stroke-width="1.5" d="M0,-3.0v7 M-2.5,-0.5L0,-3.0L2.5,-0.5"/>
                </g>
                <g id="arrowLeft" xlink:href="#dirArrow" transform="rotate(270) translate(-36 17)" onmousedown="handlePan(-1,0)">
                  <use xlink:href="#rim" fill="#404040">
                        <set attributeName="fill" to="#808080" begin="arrowLeft.mouseover" end="arrowLeft.mouseout"/>
                  </use>
                  <path fill="none" stroke="white" stroke-width="1.5" d="M0,-3.0v7 M-2.5,-0.5L0,-3.0L2.5,-0.5"/>
                </g>
        </g>
        <svg viewBox="0 0 15 15" width="100%" height="30px" preserveAspectRatio="xMaxYMin meet">
         <g id="arrow_out" transform="scale(0.3 0.3)">
          <a xlink:href="struct_eshelbian_plasticity_1_1_op_assemble_face__inherit__graph_org.svg" target="_base">
           <rect id="button" ry="5" rx="5" y="6" x="6" height="38" width="38"
                fill="#f2f5e9" fill-opacity="0.5" stroke="#606060" stroke-width="1.0"/>
           <path id="arrow"
             d="M 11.500037,31.436501 C 11.940474,20.09759 22.043105,11.32322 32.158766,21.979434 L 37.068811,17.246167 C 37.068811,17.246167 37.088388,32 37.088388,32 L 22.160133,31.978069 C 22.160133,31.978069 26.997745,27.140456 26.997745,27.140456 C 18.528582,18.264221 13.291696,25.230495 11.500037,31.436501 z"
             style="fill:#404040;"/>
          </a>
         </g>
        </svg>
</svg>
