<?xml version="1.0" encoding="UTF-8" standalone="no"?>
<!DOCTYPE svg PUBLIC "-//W3C//DTD SVG 1.1//EN"
 "http://www.w3.org/Graphics/SVG/1.1/DTD/svg11.dtd">
<!-- Generated by graphviz version 9.0.0 (20230911.1827)
 -->
<!-- Title: MoFEM::OpSetInvJacToScalarBasesBasic Pages: 1 -->
<svg width="913pt" height="235pt"
 viewBox="0.00 0.00 913.00 234.50" xmlns="http://www.w3.org/2000/svg" xmlns:xlink="http://www.w3.org/1999/xlink">
<g id="graph0" class="graph" transform="scale(1 1) rotate(0) translate(4 230.5)">
<title>MoFEM::OpSetInvJacToScalarBasesBasic</title>
<!-- Node1 -->
<g id="node1" class="node">
<title>Node1</title>
<g id="a_node1"><a xlink:title=" ">
<polygon fill="#999999" stroke="#666666" points="499.5,-152.5 347.75,-152.5 347.75,-122 499.5,-122 499.5,-152.5"/>
<text text-anchor="start" x="355.75" y="-139" font-family="Helvetica,sans-Serif" font-size="10.00">MoFEM::OpSetInvJacToScalar</text>
<text text-anchor="middle" x="423.62" y="-127.75" font-family="Helvetica,sans-Serif" font-size="10.00">BasesBasic</text>
</a>
</g>
</g>
<!-- Node4 -->
<g id="node4" class="node">
<title>Node4</title>
<g id="a_node4"><a xlink:href="struct_mo_f_e_m_1_1_op_set_h_o_inv_jac_to_scalar_bases_impl.html" target="_top" xlink:title=" ">
<polygon fill="white" stroke="#666666" points="702.25,-201.5 535.5,-201.5 535.5,-171 702.25,-171 702.25,-201.5"/>
<text text-anchor="start" x="543.5" y="-188" font-family="Helvetica,sans-Serif" font-size="10.00">MoFEM::OpSetHOInvJacToScalar</text>
<text text-anchor="middle" x="618.88" y="-176.75" font-family="Helvetica,sans-Serif" font-size="10.00">BasesImpl</text>
</a>
</g>
</g>
<!-- Node1&#45;&gt;Node4 -->
<g id="edge3" class="edge">
<title>Node1&#45;&gt;Node4</title>
<path fill="none" stroke="#63b8ff" d="M497.69,-155.78C516.89,-160.64 537.4,-165.85 555.95,-170.55"/>
<polygon fill="#63b8ff" stroke="#63b8ff" points="498.59,-152.39 488.04,-153.33 496.87,-159.18 498.59,-152.39"/>
</g>
<!-- Node6 -->
<g id="node6" class="node">
<title>Node6</title>
<g id="a_node6"><a xlink:href="struct_mo_f_e_m_1_1_op_set_inv_jac_space_for_face_impl_3_012_00_011_01_4.html" target="_top" xlink:title=" ">
<polygon fill="white" stroke="#666666" points="696.62,-128.5 541.12,-128.5 541.12,-98 696.62,-98 696.62,-128.5"/>
<text text-anchor="start" x="549.12" y="-115" font-family="Helvetica,sans-Serif" font-size="10.00">MoFEM::OpSetInvJacSpaceFor</text>
<text text-anchor="middle" x="618.88" y="-103.75" font-family="Helvetica,sans-Serif" font-size="10.00">FaceImpl&lt; 2, 1 &gt;</text>
</a>
</g>
</g>
<!-- Node1&#45;&gt;Node6 -->
<g id="edge5" class="edge">
<title>Node1&#45;&gt;Node6</title>
<path fill="none" stroke="#63b8ff" d="M511.04,-126.52C520.99,-125.28 531.09,-124.03 540.9,-122.81"/>
<polygon fill="#63b8ff" stroke="#63b8ff" points="510.89,-123.01 501.4,-127.72 511.75,-129.96 510.89,-123.01"/>
</g>
<!-- Node2 -->
<g id="node2" class="node">
<title>Node2</title>
<g id="a_node2"><a xlink:href="struct_mo_f_e_m_1_1_forces_and_sources_core_1_1_user_data_operator.html" target="_top" xlink:title=" ">
<polygon fill="white" stroke="#666666" points="311.75,-152.5 151,-152.5 151,-122 311.75,-122 311.75,-152.5"/>
<text text-anchor="start" x="159" y="-139" font-family="Helvetica,sans-Serif" font-size="10.00">MoFEM::ForcesAndSourcesCore</text>
<text text-anchor="middle" x="231.38" y="-127.75" font-family="Helvetica,sans-Serif" font-size="10.00">::UserDataOperator</text>
</a>
</g>
</g>
<!-- Node2&#45;&gt;Node1 -->
<g id="edge1" class="edge">
<title>Node2&#45;&gt;Node1</title>
<path fill="none" stroke="#63b8ff" d="M323.54,-137.25C331.58,-137.25 339.65,-137.25 347.53,-137.25"/>
<polygon fill="#63b8ff" stroke="#63b8ff" points="323.74,-133.75 313.74,-137.25 323.74,-140.75 323.74,-133.75"/>
</g>
<!-- Node3 -->
<g id="node3" class="node">
<title>Node3</title>
<g id="a_node3"><a xlink:href="struct_mo_f_e_m_1_1_data_operator.html" target="_top" xlink:title="base operator to do operations at Gauss Pt. level">
<polygon fill="white" stroke="#666666" points="115,-146.88 0,-146.88 0,-127.62 115,-127.62 115,-146.88"/>
<text text-anchor="middle" x="57.5" y="-133.38" font-family="Helvetica,sans-Serif" font-size="10.00">MoFEM::DataOperator</text>
</a>
</g>
</g>
<!-- Node3&#45;&gt;Node2 -->
<g id="edge2" class="edge">
<title>Node3&#45;&gt;Node2</title>
<path fill="none" stroke="#63b8ff" d="M126.64,-137.25C134.53,-137.25 142.63,-137.25 150.66,-137.25"/>
<polygon fill="#63b8ff" stroke="#63b8ff" points="126.77,-133.75 116.77,-137.25 126.77,-140.75 126.77,-133.75"/>
</g>
<!-- Node5 -->
<g id="node5" class="node">
<title>Node5</title>
<g id="a_node5"><a xlink:href="struct_mo_f_e_m_1_1_op_set_h_o_inv_jac_to_scalar_bases.html" target="_top" xlink:title="Set inverse jacobian to base functions.">
<polygon fill="white" stroke="#666666" points="905,-226.5 738.25,-226.5 738.25,-196 905,-196 905,-226.5"/>
<text text-anchor="start" x="746.25" y="-213" font-family="Helvetica,sans-Serif" font-size="10.00">MoFEM::OpSetHOInvJacToScalar</text>
<text text-anchor="middle" x="821.62" y="-201.75" font-family="Helvetica,sans-Serif" font-size="10.00">Bases&lt; DIM &gt;</text>
</a>
</g>
</g>
<!-- Node4&#45;&gt;Node5 -->
<g id="edge4" class="edge">
<title>Node4&#45;&gt;Node5</title>
<path fill="none" stroke="#63b8ff" d="M713.97,-197.97C722,-198.97 730.08,-199.97 738,-200.96"/>
<polygon fill="#63b8ff" stroke="#63b8ff" points="714.54,-194.51 704.19,-196.75 713.68,-201.46 714.54,-194.51"/>
</g>
<!-- Node7 -->
<g id="node7" class="node">
<title>Node7</title>
<g id="a_node7"><a xlink:href="struct_mo_f_e_m_1_1_op_base_derivatives_set_h_o_inv_jacobian_3_012_01_4.html" target="_top" xlink:title=" ">
<polygon fill="white" stroke="#666666" points="892.25,-177.5 751,-177.5 751,-147 892.25,-147 892.25,-177.5"/>
<text text-anchor="start" x="759" y="-164" font-family="Helvetica,sans-Serif" font-size="10.00">MoFEM::OpBaseDerivatives</text>
<text text-anchor="middle" x="821.62" y="-152.75" font-family="Helvetica,sans-Serif" font-size="10.00">SetHOInvJacobian&lt; 2 &gt;</text>
</a>
</g>
</g>
<!-- Node6&#45;&gt;Node7 -->
<g id="edge6" class="edge">
<title>Node6&#45;&gt;Node7</title>
<path fill="none" stroke="#63b8ff" d="M695.22,-131.64C715.32,-136.55 736.85,-141.8 756.3,-146.55"/>
<polygon fill="#63b8ff" stroke="#63b8ff" points="696.24,-128.29 685.69,-129.31 694.58,-135.09 696.24,-128.29"/>
</g>
<!-- Node8 -->
<g id="node8" class="node">
<title>Node8</title>
<g id="a_node8"><a xlink:href="struct_mo_f_e_m_1_1_op_set_h_o_inv_jac_to_scalar_bases_3_012_01_4.html" target="_top" xlink:title=" ">
<polygon fill="white" stroke="#666666" points="905,-128.5 738.25,-128.5 738.25,-98 905,-98 905,-128.5"/>
<text text-anchor="start" x="746.25" y="-115" font-family="Helvetica,sans-Serif" font-size="10.00">MoFEM::OpSetHOInvJacToScalar</text>
<text text-anchor="middle" x="821.62" y="-103.75" font-family="Helvetica,sans-Serif" font-size="10.00">Bases&lt; 2 &gt;</text>
</a>
</g>
</g>
<!-- Node6&#45;&gt;Node8 -->
<g id="edge7" class="edge">
<title>Node6&#45;&gt;Node8</title>
<path fill="none" stroke="#63b8ff" d="M708.32,-113.25C718.12,-113.25 728.06,-113.25 737.79,-113.25"/>
<polygon fill="#63b8ff" stroke="#63b8ff" points="708.43,-109.75 698.43,-113.25 708.43,-116.75 708.43,-109.75"/>
</g>
<!-- Node9 -->
<g id="node9" class="node">
<title>Node9</title>
<g id="a_node9"><a xlink:href="struct_mo_f_e_m_1_1_op_set_inv_jac_space_for_face_impl_3_012_00_012_01_4.html" target="_top" xlink:title=" ">
<polygon fill="white" stroke="#666666" points="899.38,-79.5 743.88,-79.5 743.88,-49 899.38,-49 899.38,-79.5"/>
<text text-anchor="start" x="751.88" y="-66" font-family="Helvetica,sans-Serif" font-size="10.00">MoFEM::OpSetInvJacSpaceFor</text>
<text text-anchor="middle" x="821.62" y="-54.75" font-family="Helvetica,sans-Serif" font-size="10.00">FaceImpl&lt; 2, 2 &gt;</text>
</a>
</g>
</g>
<!-- Node6&#45;&gt;Node9 -->
<g id="edge8" class="edge">
<title>Node6&#45;&gt;Node9</title>
<path fill="none" stroke="#63b8ff" d="M695.22,-94.86C715.32,-89.95 736.85,-84.7 756.3,-79.95"/>
<polygon fill="#63b8ff" stroke="#63b8ff" points="694.58,-91.41 685.69,-97.19 696.24,-98.21 694.58,-91.41"/>
</g>
<!-- Node10 -->
<g id="node10" class="node">
<title>Node10</title>
<g id="a_node10"><a xlink:href="struct_mo_f_e_m_1_1_op_set_inv_jac_space_for_face_impl_3_013_00_011_01_4.html" target="_top" xlink:title=" ">
<polygon fill="white" stroke="#666666" points="899.38,-30.5 743.88,-30.5 743.88,0 899.38,0 899.38,-30.5"/>
<text text-anchor="start" x="751.88" y="-17" font-family="Helvetica,sans-Serif" font-size="10.00">MoFEM::OpSetInvJacSpaceFor</text>
<text text-anchor="middle" x="821.62" y="-5.75" font-family="Helvetica,sans-Serif" font-size="10.00">FaceImpl&lt; 3, 1 &gt;</text>
</a>
</g>
</g>
<!-- Node6&#45;&gt;Node10 -->
<g id="edge9" class="edge">
<title>Node6&#45;&gt;Node10</title>
<path fill="none" stroke="#63b8ff" d="M650.49,-91.31C673.7,-75.45 706.86,-54.41 738.25,-40.25 745.88,-36.81 754.11,-33.68 762.32,-30.88"/>
<polygon fill="#63b8ff" stroke="#63b8ff" points="648.66,-88.32 642.43,-96.89 652.64,-94.07 648.66,-88.32"/>
</g>
</g>
</svg>
