<?xml version="1.0" encoding="UTF-8" standalone="no"?>
<!DOCTYPE svg PUBLIC "-//W3C//DTD SVG 1.1//EN"
 "http://www.w3.org/Graphics/SVG/1.1/DTD/svg11.dtd">
<!-- Generated by graphviz version 2.43.0 (0)
 -->
<!-- Title: PeriodicNitscheConstrains::OpGetFaceData Pages: 1 -->
<!--zoomable 619 -->
<svg id="main" version="1.1" xmlns="http://www.w3.org/2000/svg" xmlns:xlink="http://www.w3.org/1999/xlink" xml:space="preserve" onload="init(evt)">
<style type="text/css"><![CDATA[
.edge:hover path { stroke: red; }
.edge:hover polygon { stroke: red; fill: red; }
]]></style>
<script type="text/javascript"><![CDATA[
var edges = document.getElementsByTagName('g');
if (edges && edges.length) {
  for (var i=0;i<edges.length;i++) {
    if (edges[i].id.substr(0,4)=='edge') {
      edges[i].setAttribute('class','edge');
    }
  }
}
]]></script>
        <defs>
                <circle id="rim" cx="0" cy="0" r="7"/>
                <circle id="rim2" cx="0" cy="0" r="3.5"/>
                <g id="zoomPlus">
                        <use xlink:href="#rim" fill="#404040">
                                <set attributeName="fill" to="#808080" begin="zoomplus.mouseover" end="zoomplus.mouseout"/>
                        </use>
                        <path d="M-4,0h8M0,-4v8" fill="none" stroke="white" stroke-width="1.5" pointer-events="none"/>
                </g>
                <g id="zoomMin">
                        <use xlink:href="#rim" fill="#404040">
                                <set attributeName="fill" to="#808080" begin="zoomminus.mouseover" end="zoomminus.mouseout"/>
                        </use>
                        <path d="M-4,0h8" fill="none" stroke="white" stroke-width="1.5" pointer-events="none"/>
                </g>
                <g id="dirArrow">
                        <path fill="none" stroke="white" stroke-width="1.5" d="M0,-3.0v7 M-2.5,-0.5L0,-3.0L2.5,-0.5"/>
                </g>
               <g id="resetDef">
                       <use xlink:href="#rim2" fill="#404040">
                               <set attributeName="fill" to="#808080" begin="reset.mouseover" end="reset.mouseout"/>
                       </use>
               </g>
        </defs>

<script type="text/javascript">
var viewWidth = 1300;
var viewHeight = 619;
var sectionId = 'dynsection-1';
</script>
<script xlink:href="svgpan.js"/>
<svg id="graph" class="graph">
<g id="viewport">
<title>PeriodicNitscheConstrains::OpGetFaceData</title>
<polygon fill="white" stroke="transparent" points="-4,4 -4,-615.04 1296,-615.04 1296,4 -4,4"/>
<!-- Node1 -->
<g id="node1" class="node">
<title>Node1</title>
<g id="a_node1"><a xlink:title=" ">
<polygon fill="#bfbfbf" stroke="black" points="1148,-201.04 1148,-231.04 1292,-231.04 1292,-201.04 1148,-201.04"/>
<text text-anchor="start" x="1156" y="-219.04" font-family="Helvetica,sans-Serif" font-size="10.00">PeriodicNitscheConstrains</text>
<text text-anchor="middle" x="1220" y="-208.04" font-family="Helvetica,sans-Serif" font-size="10.00">::OpGetFaceData</text>
</a>
</g>
</g>
<!-- Node2 -->
<g id="node2" class="node">
<title>Node2</title>
<g id="a_node2"><a xlink:title=" ">
<polygon fill="white" stroke="#bfbfbf" points="917.5,-250.54 917.5,-269.54 1022.5,-269.54 1022.5,-250.54 917.5,-250.54"/>
<text text-anchor="middle" x="970" y="-257.54" font-family="Helvetica,sans-Serif" font-size="10.00">UserDataOperator</text>
</a>
</g>
</g>
<!-- Node2&#45;&gt;Node1 -->
<g id="edge1" class="edge">
<title>Node2&#45;&gt;Node1</title>
<path fill="none" stroke="midnightblue" d="M1032.73,-249.09C1067.59,-242.9 1111.31,-235.15 1147.63,-228.7"/>
<polygon fill="midnightblue" stroke="midnightblue" points="1031.92,-245.68 1022.69,-250.87 1033.14,-252.57 1031.92,-245.68"/>
</g>
<!-- Node3 -->
<g id="node3" class="node">
<title>Node3</title>
<g id="a_node3"><a xlink:href="structPeriodicNitscheConstrains_1_1CommonData.html" target="_top" xlink:title=" ">
<polygon fill="white" stroke="black" points="898,-201.04 898,-231.04 1042,-231.04 1042,-201.04 898,-201.04"/>
<text text-anchor="start" x="906" y="-219.04" font-family="Helvetica,sans-Serif" font-size="10.00">PeriodicNitscheConstrains</text>
<text text-anchor="middle" x="970" y="-208.04" font-family="Helvetica,sans-Serif" font-size="10.00">::CommonData</text>
</a>
</g>
</g>
<!-- Node3&#45;&gt;Node1 -->
<g id="edge2" class="edge">
<title>Node3&#45;&gt;Node1</title>
<path fill="none" stroke="#9a32cd" stroke-dasharray="5,2" d="M1052.36,-216.04C1083.22,-216.04 1118.09,-216.04 1147.92,-216.04"/>
<polygon fill="#9a32cd" stroke="#9a32cd" points="1052.07,-212.54 1042.07,-216.04 1052.07,-219.54 1052.07,-212.54"/>
<text text-anchor="middle" x="1095" y="-219.04" font-family="Helvetica,sans-Serif" font-size="10.00"> commonData</text>
</g>
<!-- Node4 -->
<g id="node4" class="node">
<title>Node4</title>
<g id="a_node4"><a xlink:title=" ">
<polygon fill="white" stroke="#bfbfbf" points="437,-370.54 437,-543.54 729,-543.54 729,-370.54 437,-370.54"/>
<text text-anchor="start" x="445" y="-531.54" font-family="Helvetica,sans-Serif" font-size="10.00">multi_index_container</text>
<text text-anchor="start" x="445" y="-520.54" font-family="Helvetica,sans-Serif" font-size="10.00">&lt; MultiIndexData, indexed</text>
<text text-anchor="start" x="445" y="-509.54" font-family="Helvetica,sans-Serif" font-size="10.00">_by&lt; ordered_non_unique</text>
<text text-anchor="start" x="445" y="-498.54" font-family="Helvetica,sans-Serif" font-size="10.00">&lt; BOOST_MULTI_INDEX_MEMBER</text>
<text text-anchor="start" x="445" y="-487.54" font-family="Helvetica,sans-Serif" font-size="10.00">(MultiIndexData, int, MultiIndexData</text>
<text text-anchor="start" x="445" y="-476.54" font-family="Helvetica,sans-Serif" font-size="10.00">::gG) &gt;, ordered_non_unique&lt; BOOST</text>
<text text-anchor="start" x="445" y="-465.54" font-family="Helvetica,sans-Serif" font-size="10.00">_MULTI_INDEX_MEMBER(MultiIndexData,</text>
<text text-anchor="start" x="445" y="-454.54" font-family="Helvetica,sans-Serif" font-size="10.00"> int, MultiIndexData::sIde) &gt;, ordered</text>
<text text-anchor="start" x="445" y="-443.54" font-family="Helvetica,sans-Serif" font-size="10.00">_non_unique&lt; BOOST_MULTI_INDEX_MEMBER</text>
<text text-anchor="start" x="445" y="-432.54" font-family="Helvetica,sans-Serif" font-size="10.00">(MultiIndexData, EntityType, MultiIndexData</text>
<text text-anchor="start" x="445" y="-421.54" font-family="Helvetica,sans-Serif" font-size="10.00">::tYpe) &gt;, ordered_unique&lt; composite_key&lt;</text>
<text text-anchor="start" x="445" y="-410.54" font-family="Helvetica,sans-Serif" font-size="10.00"> MultiIndexData, member&lt; MultiIndexData, int,</text>
<text text-anchor="start" x="445" y="-399.54" font-family="Helvetica,sans-Serif" font-size="10.00">&amp;MultiIndexData::gG &gt;, member&lt; MultiIndexData,</text>
<text text-anchor="start" x="445" y="-388.54" font-family="Helvetica,sans-Serif" font-size="10.00"> int,&amp;MultiIndexData::sIde &gt;, member&lt; MultiIndexData,</text>
<text text-anchor="middle" x="583" y="-377.54" font-family="Helvetica,sans-Serif" font-size="10.00"> EntityType,&amp;MultiIndexData::tYpe &gt; &gt; &gt; &gt; &gt;</text>
</a>
</g>
</g>
<!-- Node4&#45;&gt;Node3 -->
<g id="edge3" class="edge">
<title>Node4&#45;&gt;Node3</title>
<path fill="none" stroke="#9a32cd" stroke-dasharray="5,2" d="M739.35,-439.28C791.22,-425.63 844.73,-401.74 880,-360.04 914.55,-319.2 863.9,-282.25 898,-241.04 901.17,-237.21 904.96,-233.97 909.12,-231.23"/>
<polygon fill="#9a32cd" stroke="#9a32cd" points="738.2,-435.96 729.35,-441.79 739.9,-442.75 738.2,-435.96"/>
<text text-anchor="middle" x="813.5" y="-449.04" font-family="Helvetica,sans-Serif" font-size="10.00"> volumesContainer</text>
<text text-anchor="middle" x="813.5" y="-438.04" font-family="Helvetica,sans-Serif" font-size="10.00">facesContainer</text>
</g>
<!-- Node5 -->
<g id="node5" class="node">
<title>Node5</title>
<g id="a_node5"><a xlink:title=" ">
<polygon fill="white" stroke="#bfbfbf" points="0,-447.54 0,-466.54 125,-466.54 125,-447.54 0,-447.54"/>
<text text-anchor="middle" x="62.5" y="-454.54" font-family="Helvetica,sans-Serif" font-size="10.00">multi_index_container</text>
</a>
</g>
</g>
<!-- Node5&#45;&gt;Node4 -->
<g id="edge4" class="edge">
<title>Node5&#45;&gt;Node4</title>
<path fill="none" stroke="orange" stroke-dasharray="5,2" d="M135.17,-457.04C212.75,-457.04 338.59,-457.04 436.98,-457.04"/>
<polygon fill="orange" stroke="orange" points="135.01,-453.54 125.01,-457.04 135.01,-460.54 135.01,-453.54"/>
<text text-anchor="start" x="143" y="-603.04" font-family="Helvetica,sans-Serif" font-size="10.00"> &lt; MultiIndexData, indexed</text>
<text text-anchor="start" x="143" y="-592.04" font-family="Helvetica,sans-Serif" font-size="10.00">_by&lt; ordered_non_unique</text>
<text text-anchor="start" x="143" y="-581.04" font-family="Helvetica,sans-Serif" font-size="10.00">&lt; BOOST_MULTI_INDEX_MEMBER</text>
<text text-anchor="start" x="143" y="-570.04" font-family="Helvetica,sans-Serif" font-size="10.00">(MultiIndexData, int, MultiIndexData</text>
<text text-anchor="start" x="143" y="-559.04" font-family="Helvetica,sans-Serif" font-size="10.00">::gG) &gt;, ordered_non_unique&lt; BOOST</text>
<text text-anchor="start" x="143" y="-548.04" font-family="Helvetica,sans-Serif" font-size="10.00">_MULTI_INDEX_MEMBER(MultiIndexData,</text>
<text text-anchor="start" x="143" y="-537.04" font-family="Helvetica,sans-Serif" font-size="10.00"> int, MultiIndexData::sIde) &gt;, ordered</text>
<text text-anchor="start" x="143" y="-526.04" font-family="Helvetica,sans-Serif" font-size="10.00">_non_unique&lt; BOOST_MULTI_INDEX_MEMBER</text>
<text text-anchor="start" x="143" y="-515.04" font-family="Helvetica,sans-Serif" font-size="10.00">(MultiIndexData, EntityType, MultiIndexData</text>
<text text-anchor="start" x="143" y="-504.04" font-family="Helvetica,sans-Serif" font-size="10.00">::tYpe) &gt;, ordered_unique&lt; composite_key&lt;</text>
<text text-anchor="start" x="143" y="-493.04" font-family="Helvetica,sans-Serif" font-size="10.00"> MultiIndexData, member&lt; MultiIndexData, int,</text>
<text text-anchor="start" x="143" y="-482.04" font-family="Helvetica,sans-Serif" font-size="10.00">&amp;MultiIndexData::gG &gt;, member&lt; MultiIndexData,</text>
<text text-anchor="start" x="143" y="-471.04" font-family="Helvetica,sans-Serif" font-size="10.00"> int,&amp;MultiIndexData::sIde &gt;, member&lt; MultiIndexData,</text>
<text text-anchor="middle" x="281" y="-460.04" font-family="Helvetica,sans-Serif" font-size="10.00"> EntityType,&amp;MultiIndexData::tYpe &gt; &gt; &gt; &gt; &gt;</text>
</g>
<!-- Node6 -->
<g id="node6" class="node">
<title>Node6</title>
<g id="a_node6"><a xlink:href="classdouble.html" target="_top" xlink:title=" ">
<polygon fill="white" stroke="black" points="558,-332.54 558,-351.54 608,-351.54 608,-332.54 558,-332.54"/>
<text text-anchor="middle" x="583" y="-339.54" font-family="Helvetica,sans-Serif" font-size="10.00">double</text>
</a>
</g>
</g>
<!-- Node6&#45;&gt;Node3 -->
<g id="edge5" class="edge">
<title>Node6&#45;&gt;Node3</title>
<path fill="none" stroke="#9a32cd" stroke-dasharray="5,2" d="M618.41,-344.25C687.89,-347.95 841.64,-352.07 880,-319.04 906.96,-295.83 874.29,-267.56 898,-241.04 901.48,-237.14 905.61,-233.85 910.1,-231.08"/>
<polygon fill="#9a32cd" stroke="#9a32cd" points="618.58,-340.75 608.4,-343.69 618.18,-347.74 618.58,-340.75"/>
<text text-anchor="middle" x="813.5" y="-348.04" font-family="Helvetica,sans-Serif" font-size="10.00"> eps</text>
</g>
<!-- Node7 -->
<g id="node7" class="node">
<title>Node7</title>
<g id="a_node7"><a xlink:title=" ">
<polygon fill="white" stroke="#bfbfbf" points="508.5,-283.04 508.5,-313.04 657.5,-313.04 657.5,-283.04 508.5,-283.04"/>
<text text-anchor="start" x="516.5" y="-301.04" font-family="Helvetica,sans-Serif" font-size="10.00">map&lt; EntityHandle,</text>
<text text-anchor="middle" x="583" y="-290.04" font-family="Helvetica,sans-Serif" font-size="10.00"> vector&lt; VectorDouble &gt; &gt;</text>
</a>
</g>
</g>
<!-- Node7&#45;&gt;Node3 -->
<g id="edge6" class="edge">
<title>Node7&#45;&gt;Node3</title>
<path fill="none" stroke="#9a32cd" stroke-dasharray="5,2" d="M667.79,-306.54C730.36,-308.91 815.79,-303.42 880,-266.04 891.83,-259.15 887.04,-249.25 898,-241.04 903.13,-237.2 908.89,-233.92 914.86,-231.11"/>
<polygon fill="#9a32cd" stroke="#9a32cd" points="667.71,-303.03 657.56,-306.08 667.39,-310.03 667.71,-303.03"/>
<text text-anchor="middle" x="813.5" y="-307.04" font-family="Helvetica,sans-Serif" font-size="10.00"> localCoordsMap</text>
</g>
<!-- Node8 -->
<g id="node8" class="node">
<title>Node8</title>
<g id="a_node8"><a xlink:href="classRange.html" target="_top" xlink:title=" ">
<polygon fill="white" stroke="black" points="559.5,-244.54 559.5,-263.54 606.5,-263.54 606.5,-244.54 559.5,-244.54"/>
<text text-anchor="middle" x="583" y="-251.54" font-family="Helvetica,sans-Serif" font-size="10.00">Range</text>
</a>
</g>
</g>
<!-- Node8&#45;&gt;Node3 -->
<g id="edge7" class="edge">
<title>Node8&#45;&gt;Node3</title>
<path fill="none" stroke="#9a32cd" stroke-dasharray="5,2" d="M616.99,-254.53C671.89,-254.87 785.35,-253.52 880,-239.04 892.46,-237.13 905.71,-234.21 918.07,-231.09"/>
<polygon fill="#9a32cd" stroke="#9a32cd" points="616.84,-251.03 606.81,-254.45 616.78,-258.03 616.84,-251.03"/>
<text text-anchor="middle" x="813.5" y="-254.04" font-family="Helvetica,sans-Serif" font-size="10.00"> skinFaces</text>
</g>
<!-- Node9 -->
<g id="node9" class="node">
<title>Node9</title>
<g id="a_node9"><a xlink:title=" ">
<polygon fill="white" stroke="#bfbfbf" points="515,-206.54 515,-225.54 651,-225.54 651,-206.54 515,-206.54"/>
<text text-anchor="middle" x="583" y="-213.54" font-family="Helvetica,sans-Serif" font-size="10.00">vector&lt; MatrixDouble &gt;</text>
</a>
</g>
</g>
<!-- Node9&#45;&gt;Node3 -->
<g id="edge8" class="edge">
<title>Node9&#45;&gt;Node3</title>
<path fill="none" stroke="#9a32cd" stroke-dasharray="5,2" d="M661.44,-216.04C730.49,-216.04 830.74,-216.04 897.82,-216.04"/>
<polygon fill="#9a32cd" stroke="#9a32cd" points="661.06,-212.54 651.06,-216.04 661.06,-219.54 661.06,-212.54"/>
<text text-anchor="middle" x="813.5" y="-230.04" font-family="Helvetica,sans-Serif" font-size="10.00"> sTress</text>
<text text-anchor="middle" x="813.5" y="-219.04" font-family="Helvetica,sans-Serif" font-size="10.00">stressJacobian</text>
</g>
<!-- Node10 -->
<g id="node10" class="node">
<title>Node10</title>
<g id="a_node10"><a xlink:title=" ">
<polygon fill="white" stroke="#bfbfbf" points="525,-157.04 525,-187.04 641,-187.04 641,-157.04 525,-157.04"/>
<text text-anchor="start" x="533" y="-175.04" font-family="Helvetica,sans-Serif" font-size="10.00">map&lt; EntityHandle,</text>
<text text-anchor="middle" x="583" y="-164.04" font-family="Helvetica,sans-Serif" font-size="10.00"> vector&lt; int &gt; &gt;</text>
</a>
</g>
</g>
<!-- Node10&#45;&gt;Node3 -->
<g id="edge9" class="edge">
<title>Node10&#45;&gt;Node3</title>
<path fill="none" stroke="#9a32cd" stroke-dasharray="5,2" d="M651.34,-171.87C711.66,-172.72 802.33,-176.51 880,-190.04 894.75,-192.61 910.53,-196.74 924.64,-200.97"/>
<polygon fill="#9a32cd" stroke="#9a32cd" points="651.22,-168.37 641.18,-171.75 651.14,-175.37 651.22,-168.37"/>
<text text-anchor="middle" x="813.5" y="-204.04" font-family="Helvetica,sans-Serif" font-size="10.00"> inTetFaceGaussPtsNumber</text>
<text text-anchor="middle" x="813.5" y="-193.04" font-family="Helvetica,sans-Serif" font-size="10.00">inTetTetGaussPtsNumber</text>
</g>
<!-- Node11 -->
<g id="node11" class="node">
<title>Node11</title>
<g id="a_node11"><a xlink:title=" ">
<polygon fill="white" stroke="#bfbfbf" points="561,-118.54 561,-137.54 605,-137.54 605,-118.54 561,-118.54"/>
<text text-anchor="middle" x="583" y="-125.54" font-family="Helvetica,sans-Serif" font-size="10.00">string</text>
</a>
</g>
</g>
<!-- Node11&#45;&gt;Node3 -->
<g id="edge10" class="edge">
<title>Node11&#45;&gt;Node3</title>
<path fill="none" stroke="#9a32cd" stroke-dasharray="5,2" d="M615.03,-122.85C672.44,-114.96 796.97,-106.09 880,-160.04 893.36,-168.72 885.73,-180.88 898,-191.04 902.63,-194.87 907.89,-198.14 913.4,-200.91"/>
<polygon fill="#9a32cd" stroke="#9a32cd" points="614.5,-119.39 605.11,-124.29 615.51,-126.32 614.5,-119.39"/>
<text text-anchor="middle" x="813.5" y="-163.04" font-family="Helvetica,sans-Serif" font-size="10.00"> volumeElemName</text>
</g>
<!-- Node12 -->
<g id="node12" class="node">
<title>Node12</title>
<g id="a_node12"><a xlink:title=" ">
<polygon fill="white" stroke="#bfbfbf" points="525,-69.04 525,-99.04 641,-99.04 641,-69.04 525,-69.04"/>
<text text-anchor="start" x="533" y="-87.04" font-family="Helvetica,sans-Serif" font-size="10.00">map&lt; EntityHandle,</text>
<text text-anchor="middle" x="583" y="-76.04" font-family="Helvetica,sans-Serif" font-size="10.00"> double &gt;</text>
</a>
</g>
</g>
<!-- Node12&#45;&gt;Node3 -->
<g id="edge11" class="edge">
<title>Node12&#45;&gt;Node3</title>
<path fill="none" stroke="#9a32cd" stroke-dasharray="5,2" d="M651.1,-79.79C727.82,-76.43 847.08,-76.3 880,-105.04 909.42,-130.72 872.27,-161.66 898,-191.04 901.36,-194.87 905.34,-198.12 909.68,-200.87"/>
<polygon fill="#9a32cd" stroke="#9a32cd" points="650.86,-76.29 641.03,-80.26 651.18,-83.29 650.86,-76.29"/>
<text text-anchor="middle" x="813.5" y="-108.04" font-family="Helvetica,sans-Serif" font-size="10.00"> dIstance</text>
</g>
<!-- Node13 -->
<g id="node13" class="node">
<title>Node13</title>
<g id="a_node13"><a xlink:title=" ">
<polygon fill="white" stroke="#bfbfbf" points="515.5,-23.54 515.5,-42.54 650.5,-42.54 650.5,-23.54 515.5,-23.54"/>
<text text-anchor="middle" x="583" y="-30.54" font-family="Helvetica,sans-Serif" font-size="10.00">vector&lt; VectorDouble &gt;</text>
</a>
</g>
</g>
<!-- Node13&#45;&gt;Node3 -->
<g id="edge12" class="edge">
<title>Node13&#45;&gt;Node3</title>
<path fill="none" stroke="#9a32cd" stroke-dasharray="5,2" d="M621.37,-20.54C683.69,-2.3 809,22.85 880,-42.04 929.24,-87.04 856.25,-139.02 898,-191.04 901.11,-194.91 904.86,-198.19 908.99,-200.95"/>
<polygon fill="#9a32cd" stroke="#9a32cd" points="620.12,-17.26 611.56,-23.5 622.15,-23.96 620.12,-17.26"/>
<text text-anchor="middle" x="813.5" y="-67.04" font-family="Helvetica,sans-Serif" font-size="10.00"> dIsplacements</text>
<text text-anchor="middle" x="813.5" y="-56.04" font-family="Helvetica,sans-Serif" font-size="10.00">coordsAtGaussPts</text>
<text text-anchor="middle" x="813.5" y="-45.04" font-family="Helvetica,sans-Serif" font-size="10.00">hoCoordsAtGaussPts</text>
</g>
<!-- Node14 -->
<g id="node14" class="node">
<title>Node14</title>
<g id="a_node14"><a xlink:href="classbool.html" target="_top" xlink:title=" ">
<polygon fill="white" stroke="black" points="951,-162.54 951,-181.54 989,-181.54 989,-162.54 951,-162.54"/>
<text text-anchor="middle" x="970" y="-169.54" font-family="Helvetica,sans-Serif" font-size="10.00">bool</text>
</a>
</g>
</g>
<!-- Node14&#45;&gt;Node1 -->
<g id="edge13" class="edge">
<title>Node14&#45;&gt;Node1</title>
<path fill="none" stroke="#9a32cd" stroke-dasharray="5,2" d="M999.48,-177.09C1035.45,-183.47 1098.59,-194.68 1147.95,-203.43"/>
<polygon fill="#9a32cd" stroke="#9a32cd" points="999.69,-173.58 989.24,-175.28 998.47,-180.47 999.69,-173.58"/>
<text text-anchor="middle" x="1095" y="-202.04" font-family="Helvetica,sans-Serif" font-size="10.00"> fieldDisp</text>
</g>
</g>
</svg>
        <g id="navigator" transform="translate(0 0)" fill="#404254">
                <rect fill="#f2f5e9" fill-opacity="0.5" stroke="#606060" stroke-width=".5" x="0" y="0" width="60" height="60"/>
                <use id="zoomplus" xlink:href="#zoomPlus" x="17" y="9" onmousedown="handleZoom(evt,'in')"/>
                <use id="zoomminus" xlink:href="#zoomMin" x="42" y="9" onmousedown="handleZoom(evt,'out')"/>
                <use id="reset" xlink:href="#resetDef" x="30" y="36" onmousedown="handleReset()"/>
                <g id="arrowUp" xlink:href="#dirArrow" transform="translate(30 24)" onmousedown="handlePan(0,-1)">
                  <use xlink:href="#rim" fill="#404040">
                        <set attributeName="fill" to="#808080" begin="arrowUp.mouseover" end="arrowUp.mouseout"/>
                  </use>
                  <path fill="none" stroke="white" stroke-width="1.5" d="M0,-3.0v7 M-2.5,-0.5L0,-3.0L2.5,-0.5"/>
                </g>
                <g id="arrowRight" xlink:href="#dirArrow" transform="rotate(90) translate(36 -43)" onmousedown="handlePan(1,0)">
                  <use xlink:href="#rim" fill="#404040">
                        <set attributeName="fill" to="#808080" begin="arrowRight.mouseover" end="arrowRight.mouseout"/>
                  </use>
                  <path fill="none" stroke="white" stroke-width="1.5" d="M0,-3.0v7 M-2.5,-0.5L0,-3.0L2.5,-0.5"/>
                </g>
                <g id="arrowDown" xlink:href="#dirArrow" transform="rotate(180) translate(-30 -48)" onmousedown="handlePan(0,1)">
                  <use xlink:href="#rim" fill="#404040">
                        <set attributeName="fill" to="#808080" begin="arrowDown.mouseover" end="arrowDown.mouseout"/>
                  </use>
                  <path fill="none" stroke="white" stroke-width="1.5" d="M0,-3.0v7 M-2.5,-0.5L0,-3.0L2.5,-0.5"/>
                </g>
                <g id="arrowLeft" xlink:href="#dirArrow" transform="rotate(270) translate(-36 17)" onmousedown="handlePan(-1,0)">
                  <use xlink:href="#rim" fill="#404040">
                        <set attributeName="fill" to="#808080" begin="arrowLeft.mouseover" end="arrowLeft.mouseout"/>
                  </use>
                  <path fill="none" stroke="white" stroke-width="1.5" d="M0,-3.0v7 M-2.5,-0.5L0,-3.0L2.5,-0.5"/>
                </g>
        </g>
        <svg viewBox="0 0 15 15" width="100%" height="30px" preserveAspectRatio="xMaxYMin meet">
         <g id="arrow_out" transform="scale(0.3 0.3)">
          <a xlink:href="structPeriodicNitscheConstrains_1_1OpGetFaceData__coll__graph_org.svg" target="_base">
           <rect id="button" ry="5" rx="5" y="6" x="6" height="38" width="38"
                fill="#f2f5e9" fill-opacity="0.5" stroke="#606060" stroke-width="1.0"/>
           <path id="arrow"
             d="M 11.500037,31.436501 C 11.940474,20.09759 22.043105,11.32322 32.158766,21.979434 L 37.068811,17.246167 C 37.068811,17.246167 37.088388,32 37.088388,32 L 22.160133,31.978069 C 22.160133,31.978069 26.997745,27.140456 26.997745,27.140456 C 18.528582,18.264221 13.291696,25.230495 11.500037,31.436501 z"
             style="fill:#404040;"/>
          </a>
         </g>
        </svg>
</svg>
