<?xml version="1.0" encoding="UTF-8" standalone="no"?>
<!DOCTYPE svg PUBLIC "-//W3C//DTD SVG 1.1//EN"
 "http://www.w3.org/Graphics/SVG/1.1/DTD/svg11.dtd">
<!-- Generated by graphviz version 9.0.0 (20230911.1827)
 -->
<!-- Title: MoFEM::TimeScaleVector&lt; SPACE_DIM &gt; Pages: 1 -->
<svg width="499pt" height="88pt"
 viewBox="0.00 0.00 499.25 87.50" xmlns="http://www.w3.org/2000/svg" xmlns:xlink="http://www.w3.org/1999/xlink">
<g id="graph0" class="graph" transform="scale(1 1) rotate(0) translate(4 83.5)">
<title>MoFEM::TimeScaleVector&lt; SPACE_DIM &gt;</title>
<!-- Node1 -->
<g id="node1" class="node">
<title>Node1</title>
<g id="a_node1"><a xlink:title="Force scale operator for reading four columns (time and vector)">
<polygon fill="#999999" stroke="#666666" points="288.5,-54.5 157,-54.5 157,-24 288.5,-24 288.5,-54.5"/>
<text text-anchor="start" x="165" y="-41" font-family="Helvetica,sans-Serif" font-size="10.00">MoFEM::TimeScaleVector</text>
<text text-anchor="middle" x="222.75" y="-29.75" font-family="Helvetica,sans-Serif" font-size="10.00">&lt; SPACE_DIM &gt;</text>
</a>
</g>
</g>
<!-- Node3 -->
<g id="node3" class="node">
<title>Node3</title>
<g id="a_node3"><a xlink:href="struct_basic_boundary_conditions_interface_1_1_basic_b_c_vector_const.html" target="_top" xlink:title=" ">
<polygon fill="white" stroke="#666666" points="491.25,-79.5 324.5,-79.5 324.5,-49 491.25,-49 491.25,-79.5"/>
<text text-anchor="start" x="332.5" y="-66" font-family="Helvetica,sans-Serif" font-size="10.00">BasicBoundaryConditionsInterface</text>
<text text-anchor="middle" x="407.88" y="-54.75" font-family="Helvetica,sans-Serif" font-size="10.00">::BasicBCVectorConst&lt; 3 &gt;</text>
</a>
</g>
</g>
<!-- Node1&#45;&gt;Node3 -->
<g id="edge2" class="edge">
<title>Node1&#45;&gt;Node3</title>
<path fill="none" stroke="#63b8ff" d="M300.23,-49.69C308.1,-50.77 316.13,-51.86 324.07,-52.95"/>
<polygon fill="#63b8ff" stroke="#63b8ff" points="300.71,-46.22 290.33,-48.34 299.76,-53.16 300.71,-46.22"/>
</g>
<!-- Node4 -->
<g id="node4" class="node">
<title>Node4</title>
<g id="a_node4"><a xlink:href="struct_basic_boundary_conditions_interface_1_1_basic_b_c_vector_scale.html" target="_top" xlink:title=" ">
<polygon fill="white" stroke="#666666" points="491.25,-30.5 324.5,-30.5 324.5,0 491.25,0 491.25,-30.5"/>
<text text-anchor="start" x="332.5" y="-17" font-family="Helvetica,sans-Serif" font-size="10.00">BasicBoundaryConditionsInterface</text>
<text text-anchor="middle" x="407.88" y="-5.75" font-family="Helvetica,sans-Serif" font-size="10.00">::BasicBCVectorScale&lt; 3 &gt;</text>
</a>
</g>
</g>
<!-- Node1&#45;&gt;Node4 -->
<g id="edge3" class="edge">
<title>Node1&#45;&gt;Node4</title>
<path fill="none" stroke="#63b8ff" d="M300.23,-29.23C308.1,-28.2 316.13,-27.14 324.07,-26.1"/>
<polygon fill="#63b8ff" stroke="#63b8ff" points="299.79,-25.75 290.33,-30.52 300.7,-32.7 299.79,-25.75"/>
</g>
<!-- Node2 -->
<g id="node2" class="node">
<title>Node2</title>
<g id="a_node2"><a xlink:href="struct_mo_f_e_m_1_1_scaling_method.html" target="_top" xlink:title=" ">
<polygon fill="white" stroke="#666666" points="121,-48.88 0,-48.88 0,-29.62 121,-29.62 121,-48.88"/>
<text text-anchor="middle" x="60.5" y="-35.38" font-family="Helvetica,sans-Serif" font-size="10.00">MoFEM::ScalingMethod</text>
</a>
</g>
</g>
<!-- Node2&#45;&gt;Node1 -->
<g id="edge1" class="edge">
<title>Node2&#45;&gt;Node1</title>
<path fill="none" stroke="#63b8ff" d="M132.44,-39.25C140.5,-39.25 148.68,-39.25 156.65,-39.25"/>
<polygon fill="#63b8ff" stroke="#63b8ff" points="132.68,-35.75 122.68,-39.25 132.68,-42.75 132.68,-35.75"/>
</g>
</g>
</svg>
