<?xml version="1.0" encoding="UTF-8" standalone="no"?>
<!DOCTYPE svg PUBLIC "-//W3C//DTD SVG 1.1//EN"
 "http://www.w3.org/Graphics/SVG/1.1/DTD/svg11.dtd">
<!-- Generated by graphviz version 2.43.0 (0)
 -->
<!-- Title: MoFEM::OpSourceImpl&lt; 3, FIELD_DIM, GAUSS, SourceFunctionSpecialization::S&lt; OpBase &gt; &gt; Pages: 1 -->
<svg width="220pt" height="128pt"
 viewBox="0.00 0.00 220.00 128.00" xmlns="http://www.w3.org/2000/svg" xmlns:xlink="http://www.w3.org/1999/xlink">
<g id="graph0" class="graph" transform="scale(1 1) rotate(0) translate(4 124)">
<title>MoFEM::OpSourceImpl&lt; 3, FIELD_DIM, GAUSS, SourceFunctionSpecialization::S&lt; OpBase &gt; &gt;</title>
<polygon fill="white" stroke="transparent" points="-4,4 -4,-124 216,-124 216,4 -4,4"/>
<!-- Node1 -->
<g id="node1" class="node">
<title>Node1</title>
<g id="a_node1"><a xlink:title=" ">
<polygon fill="#bfbfbf" stroke="black" points="3,-0.5 3,-52.5 165,-52.5 165,-0.5 3,-0.5"/>
<text text-anchor="start" x="11" y="-40.5" font-family="Helvetica,sans-Serif" font-size="10.00">MoFEM::OpSourceImpl</text>
<text text-anchor="start" x="11" y="-29.5" font-family="Helvetica,sans-Serif" font-size="10.00">&lt; 3, FIELD_DIM, GAUSS,</text>
<text text-anchor="start" x="11" y="-18.5" font-family="Helvetica,sans-Serif" font-size="10.00"> SourceFunctionSpecialization</text>
<text text-anchor="middle" x="84" y="-7.5" font-family="Helvetica,sans-Serif" font-size="10.00">::S&lt; OpBase &gt; &gt;</text>
</a>
</g>
</g>
<!-- Node2 -->
<g id="node2" class="node">
<title>Node2</title>
<g id="a_node2"><a xlink:href="classOpBase.html" target="_top" xlink:title=" ">
<polygon fill="white" stroke="black" points="0,-100.5 0,-119.5 54,-119.5 54,-100.5 0,-100.5"/>
<text text-anchor="middle" x="27" y="-107.5" font-family="Helvetica,sans-Serif" font-size="10.00">OpBase</text>
</a>
</g>
</g>
<!-- Node2&#45;&gt;Node1 -->
<g id="edge1" class="edge">
<title>Node2&#45;&gt;Node1</title>
<path fill="none" stroke="midnightblue" d="M39.06,-91.76C46.98,-80.44 57.47,-65.43 66.33,-52.76"/>
<polygon fill="midnightblue" stroke="midnightblue" points="35.96,-90.08 33.1,-100.28 41.7,-94.09 35.96,-90.08"/>
</g>
<!-- Node3 -->
<g id="node3" class="node">
<title>Node3</title>
<g id="a_node3"><a xlink:title=" ">
<polygon fill="white" stroke="#bfbfbf" points="72,-100.5 72,-119.5 212,-119.5 212,-100.5 72,-100.5"/>
<text text-anchor="middle" x="142" y="-107.5" font-family="Helvetica,sans-Serif" font-size="10.00">VectorFun&lt; FIELD_DIM &gt;</text>
</a>
</g>
</g>
<!-- Node3&#45;&gt;Node1 -->
<g id="edge2" class="edge">
<title>Node3&#45;&gt;Node1</title>
<path fill="none" stroke="#9a32cd" stroke-dasharray="5,2" d="M129.97,-92.1C121.89,-80.74 111.08,-65.56 101.98,-52.76"/>
<polygon fill="#9a32cd" stroke="#9a32cd" points="127.14,-94.16 135.79,-100.28 132.85,-90.1 127.14,-94.16"/>
<text text-anchor="middle" x="147.5" y="-74" font-family="Helvetica,sans-Serif" font-size="10.00"> sourceFun</text>
</g>
</g>
</svg>
