<?xml version="1.0" encoding="UTF-8" standalone="no"?>
<!DOCTYPE svg PUBLIC "-//W3C//DTD SVG 1.1//EN"
 "http://www.w3.org/Graphics/SVG/1.1/DTD/svg11.dtd">
<!-- Generated by graphviz version 2.43.0 (0)
 -->
<!-- Title: MoFEM::FieldSeriesStep Pages: 1 -->
<svg width="947pt" height="383pt"
 viewBox="0.00 0.00 947.00 383.00" xmlns="http://www.w3.org/2000/svg" xmlns:xlink="http://www.w3.org/1999/xlink">
<g id="graph0" class="graph" transform="scale(1 1) rotate(0) translate(4 379)">
<title>MoFEM::FieldSeriesStep</title>
<polygon fill="white" stroke="transparent" points="-4,4 -4,-379 943,-379 943,4 -4,4"/>
<!-- Node1 -->
<g id="node1" class="node">
<title>Node1</title>
<g id="a_node1"><a xlink:title="Structure for keeping time and step.">
<polygon fill="#bfbfbf" stroke="black" points="805,-201.5 805,-220.5 939,-220.5 939,-201.5 805,-201.5"/>
<text text-anchor="middle" x="872" y="-208.5" font-family="Helvetica,sans-Serif" font-size="10.00">MoFEM::FieldSeriesStep</text>
</a>
</g>
</g>
<!-- Node2 -->
<g id="node2" class="node">
<title>Node2</title>
<g id="a_node2"><a xlink:href="structMoFEM_1_1interface__FieldSeries.html" target="_top" xlink:title=" ">
<polygon fill="white" stroke="black" points="582,-196 582,-226 743,-226 743,-196 582,-196"/>
<text text-anchor="start" x="590" y="-214" font-family="Helvetica,sans-Serif" font-size="10.00">MoFEM::interface_FieldSeries</text>
<text text-anchor="middle" x="662.5" y="-203" font-family="Helvetica,sans-Serif" font-size="10.00">&lt; FieldSeries &gt;</text>
</a>
</g>
</g>
<!-- Node2&#45;&gt;Node1 -->
<g id="edge1" class="edge">
<title>Node2&#45;&gt;Node1</title>
<path fill="none" stroke="midnightblue" d="M753.24,-211C770.52,-211 788.34,-211 804.72,-211"/>
<polygon fill="midnightblue" stroke="midnightblue" points="753.13,-207.5 743.13,-211 753.13,-214.5 753.13,-207.5"/>
</g>
<!-- Node3 -->
<g id="node3" class="node">
<title>Node3</title>
<g id="a_node3"><a xlink:href="structMoFEM_1_1FieldSeries.html" target="_top" xlink:title="Structure for recording (time) series.">
<polygon fill="white" stroke="black" points="316.5,-201.5 316.5,-220.5 428.5,-220.5 428.5,-201.5 316.5,-201.5"/>
<text text-anchor="middle" x="372.5" y="-208.5" font-family="Helvetica,sans-Serif" font-size="10.00">MoFEM::FieldSeries</text>
</a>
</g>
</g>
<!-- Node3&#45;&gt;Node2 -->
<g id="edge2" class="edge">
<title>Node3&#45;&gt;Node2</title>
<path fill="none" stroke="#9a32cd" stroke-dasharray="5,2" d="M438.89,-211C481.27,-211 536.75,-211 581.73,-211"/>
<polygon fill="#9a32cd" stroke="#9a32cd" points="438.69,-207.5 428.69,-211 438.69,-214.5 438.69,-207.5"/>
<text text-anchor="middle" x="524.5" y="-214" font-family="Helvetica,sans-Serif" font-size="10.00"> ptr</text>
</g>
<!-- Node4 -->
<g id="node4" class="node">
<title>Node4</title>
<g id="a_node4"><a xlink:title=" ">
<polygon fill="white" stroke="#bfbfbf" points="15,-256.5 15,-275.5 118,-275.5 118,-256.5 15,-256.5"/>
<text text-anchor="middle" x="66.5" y="-263.5" font-family="Helvetica,sans-Serif" font-size="10.00">vector&lt; double &gt;</text>
</a>
</g>
</g>
<!-- Node4&#45;&gt;Node3 -->
<g id="edge3" class="edge">
<title>Node4&#45;&gt;Node3</title>
<path fill="none" stroke="#9a32cd" stroke-dasharray="5,2" d="M128.72,-258.04C166.66,-252.8 216.31,-245.37 260,-237 284.79,-232.25 312.43,-225.81 333.98,-220.53"/>
<polygon fill="#9a32cd" stroke="#9a32cd" points="127.78,-254.64 118.35,-259.46 128.73,-261.58 127.78,-254.64"/>
<text text-anchor="middle" x="205.5" y="-268" font-family="Helvetica,sans-Serif" font-size="10.00"> data</text>
<text text-anchor="middle" x="205.5" y="-257" font-family="Helvetica,sans-Serif" font-size="10.00">time</text>
</g>
<!-- Node5 -->
<g id="node5" class="node">
<title>Node5</title>
<g id="a_node5"><a xlink:href="classEntityHandle.html" target="_top" xlink:title=" ">
<polygon fill="white" stroke="black" points="26.5,-218.5 26.5,-237.5 106.5,-237.5 106.5,-218.5 26.5,-218.5"/>
<text text-anchor="middle" x="66.5" y="-225.5" font-family="Helvetica,sans-Serif" font-size="10.00">EntityHandle</text>
</a>
</g>
</g>
<!-- Node5&#45;&gt;Node3 -->
<g id="edge4" class="edge">
<title>Node5&#45;&gt;Node3</title>
<path fill="none" stroke="#9a32cd" stroke-dasharray="5,2" d="M116.76,-225.25C171.41,-222.19 259.39,-217.27 316.32,-214.09"/>
<polygon fill="#9a32cd" stroke="#9a32cd" points="116.41,-221.76 106.62,-225.81 116.8,-228.75 116.41,-221.76"/>
<text text-anchor="middle" x="205.5" y="-225" font-family="Helvetica,sans-Serif" font-size="10.00"> meshset</text>
</g>
<!-- Node6 -->
<g id="node6" class="node">
<title>Node6</title>
<g id="a_node6"><a xlink:title=" ">
<polygon fill="white" stroke="#bfbfbf" points="0,-180.5 0,-199.5 133,-199.5 133,-180.5 0,-180.5"/>
<text text-anchor="middle" x="66.5" y="-187.5" font-family="Helvetica,sans-Serif" font-size="10.00">vector&lt; EntityHandle &gt;</text>
</a>
</g>
</g>
<!-- Node6&#45;&gt;Node3 -->
<g id="edge5" class="edge">
<title>Node6&#45;&gt;Node3</title>
<path fill="none" stroke="#9a32cd" stroke-dasharray="5,2" d="M143.28,-194.4C178.74,-196.55 221.55,-199.25 260,-202 278.31,-203.31 298.29,-204.88 316.22,-206.34"/>
<polygon fill="#9a32cd" stroke="#9a32cd" points="143.2,-190.89 133.01,-193.79 142.78,-197.88 143.2,-190.89"/>
<text text-anchor="middle" x="205.5" y="-205" font-family="Helvetica,sans-Serif" font-size="10.00"> handles</text>
</g>
<!-- Node7 -->
<g id="node7" class="node">
<title>Node7</title>
<g id="a_node7"><a xlink:title=" ">
<polygon fill="white" stroke="#bfbfbf" points="50,-119.5 50,-138.5 83,-138.5 83,-119.5 50,-119.5"/>
<text text-anchor="middle" x="66.5" y="-126.5" font-family="Helvetica,sans-Serif" font-size="10.00">Tag</text>
</a>
</g>
</g>
<!-- Node7&#45;&gt;Node3 -->
<g id="edge6" class="edge">
<title>Node7&#45;&gt;Node3</title>
<path fill="none" stroke="#9a32cd" stroke-dasharray="5,2" d="M93.25,-127.98C130.83,-127.26 202.49,-128.76 260,-147 298.93,-159.35 339.18,-186.75 358.97,-201.37"/>
<polygon fill="#9a32cd" stroke="#9a32cd" points="93.07,-124.49 83.16,-128.25 93.25,-131.49 93.07,-124.49"/>
<text text-anchor="middle" x="205.5" y="-183" font-family="Helvetica,sans-Serif" font-size="10.00"> th_SeriesDataUIDs</text>
<text text-anchor="middle" x="205.5" y="-172" font-family="Helvetica,sans-Serif" font-size="10.00">th_SeriesData</text>
<text text-anchor="middle" x="205.5" y="-161" font-family="Helvetica,sans-Serif" font-size="10.00">th_SeriesTime</text>
<text text-anchor="middle" x="205.5" y="-150" font-family="Helvetica,sans-Serif" font-size="10.00">th_SeriesDataHandles</text>
</g>
<!-- Node8 -->
<g id="node8" class="node">
<title>Node8</title>
<g id="a_node8"><a xlink:title=" ">
<polygon fill="white" stroke="#bfbfbf" points="29,-81.5 29,-100.5 104,-100.5 104,-81.5 29,-81.5"/>
<text text-anchor="middle" x="66.5" y="-88.5" font-family="Helvetica,sans-Serif" font-size="10.00">const void *</text>
</a>
</g>
</g>
<!-- Node8&#45;&gt;Node3 -->
<g id="edge7" class="edge">
<title>Node8&#45;&gt;Node3</title>
<path fill="none" stroke="#9a32cd" stroke-dasharray="5,2" d="M114.36,-89.39C154.64,-89.72 213.41,-94.34 260,-115 306,-135.4 347.23,-181.25 363.79,-201.3"/>
<polygon fill="#9a32cd" stroke="#9a32cd" points="114.29,-85.89 104.29,-89.4 114.29,-92.89 114.29,-85.89"/>
<text text-anchor="middle" x="205.5" y="-118" font-family="Helvetica,sans-Serif" font-size="10.00"> tagName</text>
</g>
<!-- Node9 -->
<g id="node9" class="node">
<title>Node9</title>
<g id="a_node9"><a xlink:title=" ">
<polygon fill="white" stroke="#bfbfbf" points="25,-38.5 25,-57.5 108,-57.5 108,-38.5 25,-38.5"/>
<text text-anchor="middle" x="66.5" y="-45.5" font-family="Helvetica,sans-Serif" font-size="10.00">vector&lt; int &gt;</text>
</a>
</g>
</g>
<!-- Node9&#45;&gt;Node3 -->
<g id="edge8" class="edge">
<title>Node9&#45;&gt;Node3</title>
<path fill="none" stroke="#9a32cd" stroke-dasharray="5,2" d="M118.36,-38.71C160.72,-33.98 220.33,-34.68 260,-66 279.53,-81.42 264.78,-97.93 278,-119 300.15,-154.3 338.41,-186.14 358.43,-201.43"/>
<polygon fill="#9a32cd" stroke="#9a32cd" points="117.74,-35.26 108.25,-39.98 118.61,-42.21 117.74,-35.26"/>
<text text-anchor="middle" x="205.5" y="-80" font-family="Helvetica,sans-Serif" font-size="10.00"> uids</text>
<text text-anchor="middle" x="205.5" y="-69" font-family="Helvetica,sans-Serif" font-size="10.00">ia</text>
</g>
<!-- Node10 -->
<g id="node10" class="node">
<title>Node10</title>
<g id="a_node10"><a xlink:title=" ">
<polygon fill="white" stroke="#bfbfbf" points="52,-355.5 52,-374.5 81,-374.5 81,-355.5 52,-355.5"/>
<text text-anchor="middle" x="66.5" y="-362.5" font-family="Helvetica,sans-Serif" font-size="10.00">int</text>
</a>
</g>
</g>
<!-- Node10&#45;&gt;Node1 -->
<g id="edge14" class="edge">
<title>Node10&#45;&gt;Node1</title>
<path fill="none" stroke="#9a32cd" stroke-dasharray="5,2" d="M91.23,-366.7C127.69,-368.89 199.6,-371.61 260,-364 489.74,-335.07 757.45,-249.32 843.14,-220.54"/>
<polygon fill="#9a32cd" stroke="#9a32cd" points="91.31,-363.2 81.11,-366.04 90.86,-370.18 91.31,-363.2"/>
<text text-anchor="middle" x="524.5" y="-324" font-family="Helvetica,sans-Serif" font-size="10.00"> step_number</text>
</g>
<!-- Node10&#45;&gt;Node3 -->
<g id="edge9" class="edge">
<title>Node10&#45;&gt;Node3</title>
<path fill="none" stroke="#9a32cd" stroke-dasharray="5,2" d="M91.35,-361.25C139.57,-353.56 245.31,-336.02 260,-328 309.75,-300.84 350.41,-243.7 365.35,-220.8"/>
<polygon fill="#9a32cd" stroke="#9a32cd" points="90.53,-357.84 81.2,-362.86 91.63,-364.75 90.53,-357.84"/>
<text text-anchor="middle" x="205.5" y="-354" font-family="Helvetica,sans-Serif" font-size="10.00"> tagNameSize</text>
</g>
<!-- Node11 -->
<g id="node11" class="node">
<title>Node11</title>
<g id="a_node11"><a xlink:href="classbool.html" target="_top" xlink:title=" ">
<polygon fill="white" stroke="black" points="47.5,-297.5 47.5,-316.5 85.5,-316.5 85.5,-297.5 47.5,-297.5"/>
<text text-anchor="middle" x="66.5" y="-304.5" font-family="Helvetica,sans-Serif" font-size="10.00">bool</text>
</a>
</g>
</g>
<!-- Node11&#45;&gt;Node3 -->
<g id="edge10" class="edge">
<title>Node11&#45;&gt;Node3</title>
<path fill="none" stroke="#9a32cd" stroke-dasharray="5,2" d="M96,-306.64C134.37,-305.36 204.25,-300.15 260,-280 299.61,-265.69 340.2,-236.03 359.67,-220.68"/>
<polygon fill="#9a32cd" stroke="#9a32cd" points="95.51,-303.16 85.61,-306.92 95.7,-310.15 95.51,-303.16"/>
<text text-anchor="middle" x="205.5" y="-316" font-family="Helvetica,sans-Serif" font-size="10.00"> record_begin</text>
<text text-anchor="middle" x="205.5" y="-305" font-family="Helvetica,sans-Serif" font-size="10.00">record_end</text>
</g>
<!-- Node12 -->
<g id="node12" class="node">
<title>Node12</title>
<g id="a_node12"><a xlink:href="structMoFEM_1_1interface__FieldSeries.html" target="_top" xlink:title=" ">
<polygon fill="white" stroke="black" points="278,-90.5 278,-109.5 467,-109.5 467,-90.5 278,-90.5"/>
<text text-anchor="middle" x="372.5" y="-97.5" font-family="Helvetica,sans-Serif" font-size="10.00">MoFEM::interface_FieldSeries&lt; T &gt;</text>
</a>
</g>
</g>
<!-- Node12&#45;&gt;Node2 -->
<g id="edge11" class="edge">
<title>Node12&#45;&gt;Node2</title>
<path fill="none" stroke="orange" stroke-dasharray="5,2" d="M404.16,-113.62C444.53,-131.34 517.9,-162.75 582,-186 591.38,-189.4 601.49,-192.79 611.24,-195.92"/>
<polygon fill="orange" stroke="orange" points="405.43,-110.36 394.87,-109.54 402.61,-116.77 405.43,-110.36"/>
<text text-anchor="middle" x="524.5" y="-180" font-family="Helvetica,sans-Serif" font-size="10.00"> &lt; FieldSeries &gt;</text>
</g>
<!-- Node13 -->
<g id="node13" class="node">
<title>Node13</title>
<g id="a_node13"><a xlink:title=" ">
<polygon fill="white" stroke="#bfbfbf" points="36.5,-0.5 36.5,-19.5 96.5,-19.5 96.5,-0.5 36.5,-0.5"/>
<text text-anchor="middle" x="66.5" y="-7.5" font-family="Helvetica,sans-Serif" font-size="10.00">const T *</text>
</a>
</g>
</g>
<!-- Node13&#45;&gt;Node12 -->
<g id="edge12" class="edge">
<title>Node13&#45;&gt;Node12</title>
<path fill="none" stroke="#9a32cd" stroke-dasharray="5,2" d="M106.64,-4.14C146.46,0.26 209.34,2.84 260,-15 304.54,-30.69 345.61,-71.41 362.89,-90.22"/>
<polygon fill="#9a32cd" stroke="#9a32cd" points="106.06,-0.68 96.55,-5.35 106.89,-7.63 106.06,-0.68"/>
<text text-anchor="middle" x="205.5" y="-18" font-family="Helvetica,sans-Serif" font-size="10.00"> ptr</text>
</g>
<!-- Node14 -->
<g id="node14" class="node">
<title>Node14</title>
<g id="a_node14"><a xlink:href="classdouble.html" target="_top" xlink:title=" ">
<polygon fill="white" stroke="black" points="637.5,-157.5 637.5,-176.5 687.5,-176.5 687.5,-157.5 637.5,-157.5"/>
<text text-anchor="middle" x="662.5" y="-164.5" font-family="Helvetica,sans-Serif" font-size="10.00">double</text>
</a>
</g>
</g>
<!-- Node14&#45;&gt;Node1 -->
<g id="edge13" class="edge">
<title>Node14&#45;&gt;Node1</title>
<path fill="none" stroke="#9a32cd" stroke-dasharray="5,2" d="M697.91,-174.3C732.93,-181.72 787.37,-193.27 825.84,-201.42"/>
<polygon fill="#9a32cd" stroke="#9a32cd" points="698.22,-170.78 687.71,-172.13 696.77,-177.63 698.22,-170.78"/>
<text text-anchor="middle" x="774" y="-195" font-family="Helvetica,sans-Serif" font-size="10.00"> time</text>
</g>
</g>
</svg>
