<?xml version="1.0" encoding="UTF-8" standalone="no"?>
<!DOCTYPE svg PUBLIC "-//W3C//DTD SVG 1.1//EN"
 "http://www.w3.org/Graphics/SVG/1.1/DTD/svg11.dtd">
<!-- Generated by graphviz version 9.0.0 (20230911.1827)
 -->
<!-- Title: EshelbianPlasticity::OpSpatialPrj Pages: 1 -->
<!--zoomable 391 -->
<svg id="main" version="1.1" xmlns="http://www.w3.org/2000/svg" xmlns:xlink="http://www.w3.org/1999/xlink" xml:space="preserve" onload="init(evt)">
<style type="text/css"><![CDATA[
.edge:hover path { stroke: red; }
.edge:hover polygon { stroke: red; fill: red; }
]]></style>
<script type="text/javascript"><![CDATA[
var edges = document.getElementsByTagName('g');
if (edges && edges.length) {
  for (var i=0;i<edges.length;i++) {
    if (edges[i].id.substr(0,4)=='edge') {
      edges[i].setAttribute('class','edge');
    }
  }
}
]]></script>
        <defs>
                <circle id="rim" cx="0" cy="0" r="7"/>
                <circle id="rim2" cx="0" cy="0" r="3.5"/>
                <g id="zoomPlus">
                        <use xlink:href="#rim" fill="#404040">
                                <set attributeName="fill" to="#808080" begin="zoomplus.mouseover" end="zoomplus.mouseout"/>
                        </use>
                        <path d="M-4,0h8M0,-4v8" fill="none" stroke="white" stroke-width="1.5" pointer-events="none"/>
                </g>
                <g id="zoomMin">
                        <use xlink:href="#rim" fill="#404040">
                                <set attributeName="fill" to="#808080" begin="zoomminus.mouseover" end="zoomminus.mouseout"/>
                        </use>
                        <path d="M-4,0h8" fill="none" stroke="white" stroke-width="1.5" pointer-events="none"/>
                </g>
                <g id="dirArrow">
                        <path fill="none" stroke="white" stroke-width="1.5" d="M0,-3.0v7 M-2.5,-0.5L0,-3.0L2.5,-0.5"/>
                </g>
               <g id="resetDef">
                       <use xlink:href="#rim2" fill="#404040">
                               <set attributeName="fill" to="#808080" begin="reset.mouseover" end="reset.mouseout"/>
                       </use>
               </g>
        </defs>

<script type="text/javascript">
var viewWidth = 998;
var viewHeight = 391;
var sectionId = 'dynsection-1';
</script>
<script xlink:href="svgpan.js"/>
<svg id="graph" class="graph">
<g id="viewport">
<title>EshelbianPlasticity::OpSpatialPrj</title>
<!-- Node1 -->
<g id="node1" class="node">
<title>Node1</title>
<g id="a_node1"><a xlink:title=" ">
<polygon fill="#999999" stroke="#666666" points="989.5,-253.88 890.25,-253.88 890.25,-223.38 989.5,-223.38 989.5,-253.88"/>
<text text-anchor="start" x="898.25" y="-240.38" font-family="Helvetica,sans-Serif" font-size="10.00">EshelbianPlasticity</text>
<text text-anchor="middle" x="939.88" y="-229.12" font-family="Helvetica,sans-Serif" font-size="10.00">::OpSpatialPrj</text>
</a>
</g>
</g>
<!-- Node2 -->
<g id="node2" class="node">
<title>Node2</title>
<g id="a_node2"><a xlink:href="struct_eshelbian_plasticity_1_1_op_assemble_volume.html" target="_top" xlink:title=" ">
<polygon fill="white" stroke="#666666" points="853.25,-253.88 742,-253.88 742,-223.38 853.25,-223.38 853.25,-253.88"/>
<text text-anchor="start" x="750" y="-240.38" font-family="Helvetica,sans-Serif" font-size="10.00">EshelbianPlasticity</text>
<text text-anchor="middle" x="797.62" y="-229.12" font-family="Helvetica,sans-Serif" font-size="10.00">::OpAssembleVolume</text>
</a>
</g>
</g>
<!-- Node2&#45;&gt;Node1 -->
<g id="edge1" class="edge">
<title>Node2&#45;&gt;Node1</title>
<path fill="none" stroke="#63b8ff" d="M865.01,-238.62C873.41,-238.62 881.87,-238.62 889.93,-238.62"/>
<polygon fill="#63b8ff" stroke="#63b8ff" points="865.17,-235.13 855.17,-238.63 865.17,-242.13 865.17,-235.13"/>
</g>
<!-- Node3 -->
<g id="node3" class="node">
<title>Node3</title>
<g id="a_node3"><a xlink:href="struct_eshelbian_plasticity_1_1_op_assemble_basic.html" target="_top" xlink:title=" ">
<polygon fill="white" stroke="#666666" points="705,-259.5 557.75,-259.5 557.75,-217.75 705,-217.75 705,-259.5"/>
<text text-anchor="start" x="565.75" y="-246" font-family="Helvetica,sans-Serif" font-size="10.00">EshelbianPlasticity</text>
<text text-anchor="start" x="565.75" y="-234.75" font-family="Helvetica,sans-Serif" font-size="10.00">::OpAssembleBasic&lt; VolUser</text>
<text text-anchor="middle" x="631.38" y="-223.5" font-family="Helvetica,sans-Serif" font-size="10.00">DataOperator &gt;</text>
</a>
</g>
</g>
<!-- Node3&#45;&gt;Node2 -->
<g id="edge2" class="edge">
<title>Node3&#45;&gt;Node2</title>
<path fill="none" stroke="#63b8ff" d="M716.83,-238.62C725.23,-238.62 733.61,-238.62 741.6,-238.62"/>
<polygon fill="#63b8ff" stroke="#63b8ff" points="716.89,-235.13 706.89,-238.63 716.89,-242.13 716.89,-235.13"/>
</g>
<!-- Node4 -->
<g id="node4" class="node">
<title>Node4</title>
<g id="a_node4"><a xlink:title=" ">
<polygon fill="white" stroke="#666666" points="398.38,-383.25 288.62,-383.25 288.62,-364 398.38,-364 398.38,-383.25"/>
<text text-anchor="middle" x="343.5" y="-369.75" font-family="Helvetica,sans-Serif" font-size="10.00">VolUserDataOperator</text>
</a>
</g>
</g>
<!-- Node4&#45;&gt;Node3 -->
<g id="edge3" class="edge">
<title>Node4&#45;&gt;Node3</title>
<path fill="none" stroke="#63b8ff" d="M410.22,-377.97C449.99,-377.77 500.44,-372.3 539.75,-350.62 577.64,-329.73 605.71,-285.93 619.92,-259.72"/>
<polygon fill="#63b8ff" stroke="#63b8ff" points="410.31,-374.47 400.29,-377.9 410.26,-381.47 410.31,-374.47"/>
</g>
<!-- Node5 -->
<g id="node5" class="node">
<title>Node5</title>
<g id="a_node5"><a xlink:href="classconst_01bool.html" target="_top" xlink:title=" ">
<polygon fill="white" stroke="#666666" points="374,-346.25 313,-346.25 313,-327 374,-327 374,-346.25"/>
<text text-anchor="middle" x="343.5" y="-332.75" font-family="Helvetica,sans-Serif" font-size="10.00">const bool</text>
</a>
</g>
</g>
<!-- Node5&#45;&gt;Node3 -->
<g id="edge4" class="edge">
<title>Node5&#45;&gt;Node3</title>
<path fill="none" stroke="#9a32cd" stroke-dasharray="5,2" d="M385.61,-337.75C426.33,-337.42 489.67,-332.96 539.75,-311.62 567.63,-299.75 593.95,-276.73 610.97,-259.7"/>
<polygon fill="#9a32cd" stroke="#9a32cd" points="385.76,-334.25 375.76,-337.74 385.76,-341.25 385.76,-334.25"/>
<text text-anchor="middle" x="482.38" y="-337.38" font-family="Helvetica,sans-Serif" font-size="10.00"> assembleSymmetry</text>
</g>
<!-- Node6 -->
<g id="node6" class="node">
<title>Node6</title>
<g id="a_node6"><a xlink:title=" ">
<polygon fill="white" stroke="#666666" points="154,-278.88 0,-278.88 0,-248.38 154,-248.38 154,-278.88"/>
<text text-anchor="start" x="8" y="-265.38" font-family="Helvetica,sans-Serif" font-size="10.00">shared_ptr&lt; EshelbianPlasticity</text>
<text text-anchor="middle" x="77" y="-254.12" font-family="Helvetica,sans-Serif" font-size="10.00">::DataAtIntegrationPts &gt;</text>
</a>
</g>
</g>
<!-- Node6&#45;&gt;Node3 -->
<g id="edge5" class="edge">
<title>Node6&#45;&gt;Node3</title>
<path fill="none" stroke="#9a32cd" stroke-dasharray="5,2" d="M165.77,-269.41C167.86,-269.49 169.94,-269.56 172,-269.62 335.54,-274.84 377.42,-273.1 539.75,-252.62 545.59,-251.89 551.64,-251.07 557.71,-250.21"/>
<polygon fill="#9a32cd" stroke="#9a32cd" points="166.07,-265.92 155.93,-268.98 165.77,-272.91 166.07,-265.92"/>
<text text-anchor="middle" x="343.5" y="-273.38" font-family="Helvetica,sans-Serif" font-size="10.00"> dataAtPts</text>
</g>
<!-- Node10 -->
<g id="node10" class="node">
<title>Node10</title>
<g id="a_node10"><a xlink:href="struct_eshelbian_plasticity_1_1_op_assemble_basic.html" target="_top" xlink:title=" ">
<polygon fill="white" stroke="#666666" points="407,-114.88 280,-114.88 280,-84.38 407,-84.38 407,-114.88"/>
<text text-anchor="start" x="288" y="-101.38" font-family="Helvetica,sans-Serif" font-size="10.00">EshelbianPlasticity</text>
<text text-anchor="middle" x="343.5" y="-90.12" font-family="Helvetica,sans-Serif" font-size="10.00">::OpAssembleBasic&lt; T &gt;</text>
</a>
</g>
</g>
<!-- Node6&#45;&gt;Node10 -->
<g id="edge12" class="edge">
<title>Node6&#45;&gt;Node10</title>
<path fill="none" stroke="#9a32cd" stroke-dasharray="5,2" d="M165.41,-249.29C199.78,-239.5 236.94,-223.09 262,-195.62 282.78,-172.85 260.15,-152.22 280,-128.62 284.47,-123.32 290.12,-118.92 296.19,-115.31"/>
<polygon fill="#9a32cd" stroke="#9a32cd" points="164.59,-245.88 155.83,-251.84 166.39,-252.65 164.59,-245.88"/>
<text text-anchor="middle" x="217" y="-247.38" font-family="Helvetica,sans-Serif" font-size="10.00"> dataAtPts</text>
</g>
<!-- Node7 -->
<g id="node7" class="node">
<title>Node7</title>
<g id="a_node7"><a xlink:title=" ">
<polygon fill="white" stroke="#666666" points="114.62,-153.25 39.38,-153.25 39.38,-134 114.62,-134 114.62,-153.25"/>
<text text-anchor="middle" x="77" y="-139.75" font-family="Helvetica,sans-Serif" font-size="10.00">VectorDouble</text>
</a>
</g>
</g>
<!-- Node7&#45;&gt;Node3 -->
<g id="edge6" class="edge">
<title>Node7&#45;&gt;Node3</title>
<path fill="none" stroke="#9a32cd" stroke-dasharray="5,2" d="M125.8,-147.96C163.03,-151.61 215.95,-157.38 262,-164.62 365.1,-180.83 483.22,-205.69 557.32,-222.05"/>
<polygon fill="#9a32cd" stroke="#9a32cd" points="126.58,-144.52 116.29,-147.04 125.9,-151.49 126.58,-144.52"/>
<text text-anchor="middle" x="343.5" y="-191.38" font-family="Helvetica,sans-Serif" font-size="10.00"> nF</text>
</g>
<!-- Node7&#45;&gt;Node10 -->
<g id="edge13" class="edge">
<title>Node7&#45;&gt;Node10</title>
<path fill="none" stroke="#9a32cd" stroke-dasharray="5,2" d="M125.92,-133.92C140.68,-131.04 156.99,-127.96 172,-125.38 207.55,-119.24 247.41,-113.18 279.64,-108.48"/>
<polygon fill="#9a32cd" stroke="#9a32cd" points="125.61,-130.41 116.48,-135.78 126.96,-137.28 125.61,-130.41"/>
<text text-anchor="middle" x="217" y="-126.38" font-family="Helvetica,sans-Serif" font-size="10.00"> nF</text>
</g>
<!-- Node8 -->
<g id="node8" class="node">
<title>Node8</title>
<g id="a_node8"><a xlink:title=" ">
<polygon fill="white" stroke="#666666" points="113.88,-199.25 40.12,-199.25 40.12,-180 113.88,-180 113.88,-199.25"/>
<text text-anchor="middle" x="77" y="-185.75" font-family="Helvetica,sans-Serif" font-size="10.00">MatrixDouble</text>
</a>
</g>
</g>
<!-- Node8&#45;&gt;Node3 -->
<g id="edge7" class="edge">
<title>Node8&#45;&gt;Node3</title>
<path fill="none" stroke="#9a32cd" stroke-dasharray="5,2" d="M100.24,-206.2C118.47,-218.68 145.49,-234.78 172,-241.62 210.73,-251.62 222.03,-243.29 262,-241.62 270.02,-241.29 271.98,-240.48 280,-240.12 375.87,-235.93 486.63,-236.34 557.53,-237.27"/>
<polygon fill="#9a32cd" stroke="#9a32cd" points="102.5,-203.51 92.32,-200.59 98.46,-209.22 102.5,-203.51"/>
<text text-anchor="middle" x="343.5" y="-252.62" font-family="Helvetica,sans-Serif" font-size="10.00"> K</text>
<text text-anchor="middle" x="343.5" y="-241.38" font-family="Helvetica,sans-Serif" font-size="10.00">transposeK</text>
</g>
<!-- Node8&#45;&gt;Node10 -->
<g id="edge14" class="edge">
<title>Node8&#45;&gt;Node10</title>
<path fill="none" stroke="#9a32cd" stroke-dasharray="5,2" d="M125.51,-180.59C163.41,-172.48 217.37,-158.86 262,-139.62 270.61,-135.91 271.73,-133.05 280,-128.62 288.54,-124.05 297.94,-119.47 306.79,-115.34"/>
<polygon fill="#9a32cd" stroke="#9a32cd" points="124.84,-177.16 115.77,-182.63 126.27,-184.01 124.84,-177.16"/>
<text text-anchor="middle" x="217" y="-181.62" font-family="Helvetica,sans-Serif" font-size="10.00"> K</text>
<text text-anchor="middle" x="217" y="-170.38" font-family="Helvetica,sans-Serif" font-size="10.00">transposeK</text>
</g>
<!-- Node9 -->
<g id="node9" class="node">
<title>Node9</title>
<g id="a_node9"><a xlink:title=" ">
<polygon fill="white" stroke="#666666" points="127,-19.25 27,-19.25 27,0 127,0 127,-19.25"/>
<text text-anchor="middle" x="77" y="-5.75" font-family="Helvetica,sans-Serif" font-size="10.00">function&lt; double()&gt;</text>
</a>
</g>
</g>
<!-- Node9&#45;&gt;Node3 -->
<g id="edge8" class="edge">
<title>Node9&#45;&gt;Node3</title>
<path fill="none" stroke="#9a32cd" stroke-dasharray="5,2" d="M138.88,-4.71C233.8,-0.26 418.72,-4.81 539.75,-92.62 583.82,-124.6 611.11,-185.18 623.15,-217.34"/>
<polygon fill="#9a32cd" stroke="#9a32cd" points="138.79,-1.21 128.99,-5.23 139.16,-8.2 138.79,-1.21"/>
<text text-anchor="middle" x="343.5" y="-33.38" font-family="Helvetica,sans-Serif" font-size="10.00"> scaleOff</text>
</g>
<!-- Node9&#45;&gt;Node10 -->
<g id="edge15" class="edge">
<title>Node9&#45;&gt;Node10</title>
<path fill="none" stroke="#9a32cd" stroke-dasharray="5,2" d="M138.47,-20.54C174.97,-28.13 222,-39.71 262,-55.38 281.6,-63.05 302.39,-74.57 317.93,-83.94"/>
<polygon fill="#9a32cd" stroke="#9a32cd" points="139.47,-17.17 128.98,-18.61 138.08,-24.03 139.47,-17.17"/>
<text text-anchor="middle" x="217" y="-57.38" font-family="Helvetica,sans-Serif" font-size="10.00"> scaleOff</text>
</g>
<!-- Node10&#45;&gt;Node3 -->
<g id="edge9" class="edge">
<title>Node10&#45;&gt;Node3</title>
<path fill="none" stroke="orange" stroke-dasharray="5,2" d="M418.3,-96.53C456.71,-97.98 503.16,-104.74 539.75,-125.38 577.7,-146.78 605.74,-190.97 619.94,-217.38"/>
<polygon fill="orange" stroke="orange" points="418.78,-93.04 408.69,-96.29 418.6,-100.04 418.78,-93.04"/>
<text text-anchor="middle" x="482.38" y="-126.38" font-family="Helvetica,sans-Serif" font-size="10.00"> &lt; VolUserDataOperator &gt;</text>
</g>
<!-- Node11 -->
<g id="node11" class="node">
<title>Node11</title>
<g id="a_node11"><a xlink:title=" ">
<polygon fill="white" stroke="#666666" points="91.4,-65.25 62.6,-65.25 62.6,-46 91.4,-46 91.4,-65.25"/>
<text text-anchor="middle" x="77" y="-51.75" font-family="Helvetica,sans-Serif" font-size="10.00">T</text>
</a>
</g>
</g>
<!-- Node11&#45;&gt;Node10 -->
<g id="edge10" class="edge">
<title>Node11&#45;&gt;Node10</title>
<path fill="none" stroke="#63b8ff" d="M103.01,-59.62C138.42,-65.29 205.18,-76.05 262,-85.62 267.74,-86.59 273.7,-87.61 279.67,-88.63"/>
<polygon fill="#63b8ff" stroke="#63b8ff" points="103.78,-56.2 93.35,-58.07 102.67,-63.11 103.78,-56.2"/>
</g>
<!-- Node12 -->
<g id="node12" class="node">
<title>Node12</title>
<g id="a_node12"><a xlink:href="classbool.html" target="_top" xlink:title=" ">
<polygon fill="white" stroke="#666666" points="94,-102.25 60,-102.25 60,-83 94,-83 94,-102.25"/>
<text text-anchor="middle" x="77" y="-88.75" font-family="Helvetica,sans-Serif" font-size="10.00">bool</text>
</a>
</g>
</g>
<!-- Node12&#45;&gt;Node10 -->
<g id="edge11" class="edge">
<title>Node12&#45;&gt;Node10</title>
<path fill="none" stroke="#9a32cd" stroke-dasharray="5,2" d="M105.74,-91.44C141.78,-90.13 206.63,-88.55 262,-91.38 267.75,-91.67 273.73,-92.08 279.71,-92.56"/>
<polygon fill="#9a32cd" stroke="#9a32cd" points="105.63,-87.94 95.77,-91.83 105.9,-94.94 105.63,-87.94"/>
<text text-anchor="middle" x="217" y="-92.38" font-family="Helvetica,sans-Serif" font-size="10.00"> assembleSymmetry</text>
</g>
</g>
</svg>
        <g id="navigator" transform="translate(0 0)" fill="#404254">
                <rect fill="#f2f5e9" fill-opacity="0.5" stroke="#606060" stroke-width=".5" x="0" y="0" width="60" height="60"/>
                <use id="zoomplus" xlink:href="#zoomPlus" x="17" y="9" onmousedown="handleZoom(evt,'in')"/>
                <use id="zoomminus" xlink:href="#zoomMin" x="42" y="9" onmousedown="handleZoom(evt,'out')"/>
                <use id="reset" xlink:href="#resetDef" x="30" y="36" onmousedown="handleReset()"/>
                <g id="arrowUp" xlink:href="#dirArrow" transform="translate(30 24)" onmousedown="handlePan(0,-1)">
                  <use xlink:href="#rim" fill="#404040">
                        <set attributeName="fill" to="#808080" begin="arrowUp.mouseover" end="arrowUp.mouseout"/>
                  </use>
                  <path fill="none" stroke="white" stroke-width="1.5" d="M0,-3.0v7 M-2.5,-0.5L0,-3.0L2.5,-0.5"/>
                </g>
                <g id="arrowRight" xlink:href="#dirArrow" transform="rotate(90) translate(36 -43)" onmousedown="handlePan(1,0)">
                  <use xlink:href="#rim" fill="#404040">
                        <set attributeName="fill" to="#808080" begin="arrowRight.mouseover" end="arrowRight.mouseout"/>
                  </use>
                  <path fill="none" stroke="white" stroke-width="1.5" d="M0,-3.0v7 M-2.5,-0.5L0,-3.0L2.5,-0.5"/>
                </g>
                <g id="arrowDown" xlink:href="#dirArrow" transform="rotate(180) translate(-30 -48)" onmousedown="handlePan(0,1)">
                  <use xlink:href="#rim" fill="#404040">
                        <set attributeName="fill" to="#808080" begin="arrowDown.mouseover" end="arrowDown.mouseout"/>
                  </use>
                  <path fill="none" stroke="white" stroke-width="1.5" d="M0,-3.0v7 M-2.5,-0.5L0,-3.0L2.5,-0.5"/>
                </g>
                <g id="arrowLeft" xlink:href="#dirArrow" transform="rotate(270) translate(-36 17)" onmousedown="handlePan(-1,0)">
                  <use xlink:href="#rim" fill="#404040">
                        <set attributeName="fill" to="#808080" begin="arrowLeft.mouseover" end="arrowLeft.mouseout"/>
                  </use>
                  <path fill="none" stroke="white" stroke-width="1.5" d="M0,-3.0v7 M-2.5,-0.5L0,-3.0L2.5,-0.5"/>
                </g>
        </g>
        <svg viewBox="0 0 15 15" width="100%" height="30px" preserveAspectRatio="xMaxYMin meet">
         <g id="arrow_out" transform="scale(0.3 0.3)">
          <a xlink:href="struct_eshelbian_plasticity_1_1_op_spatial_prj__coll__graph_org.svg" target="_base">
           <rect id="button" ry="5" rx="5" y="6" x="6" height="38" width="38"
                fill="#f2f5e9" fill-opacity="0.5" stroke="#606060" stroke-width="1.0"/>
           <path id="arrow"
             d="M 11.500037,31.436501 C 11.940474,20.09759 22.043105,11.32322 32.158766,21.979434 L 37.068811,17.246167 C 37.068811,17.246167 37.088388,32 37.088388,32 L 22.160133,31.978069 C 22.160133,31.978069 26.997745,27.140456 26.997745,27.140456 C 18.528582,18.264221 13.291696,25.230495 11.500037,31.436501 z"
             style="fill:#404040;"/>
          </a>
         </g>
        </svg>
</svg>
