<?xml version="1.0" encoding="UTF-8" standalone="no"?>
<!DOCTYPE svg PUBLIC "-//W3C//DTD SVG 1.1//EN"
 "http://www.w3.org/Graphics/SVG/1.1/DTD/svg11.dtd">
<!-- Generated by graphviz version 9.0.0 (20230911.1827)
 -->
<!-- Title: FreeSurfaceOps::OpLhsU_dU Pages: 1 -->
<svg width="441pt" height="105pt"
 viewBox="0.00 0.00 440.62 105.00" xmlns="http://www.w3.org/2000/svg" xmlns:xlink="http://www.w3.org/1999/xlink">
<g id="graph0" class="graph" transform="scale(1 1) rotate(0) translate(4 101)">
<title>FreeSurfaceOps::OpLhsU_dU</title>
<!-- Node1 -->
<g id="node1" class="node">
<title>Node1</title>
<g id="a_node1"><a xlink:title="Lhs for U dU.">
<polygon fill="#999999" stroke="#666666" points="280.75,-19.25 133.5,-19.25 133.5,0 280.75,0 280.75,-19.25"/>
<text text-anchor="middle" x="207.12" y="-5.75" font-family="Helvetica,sans-Serif" font-size="10.00">FreeSurfaceOps::OpLhsU_dU</text>
</a>
</g>
</g>
<!-- Node2 -->
<g id="node2" class="node">
<title>Node2</title>
<g id="a_node2"><a xlink:href="class_assembly_domain_ele_op.html" target="_top" xlink:title=" ">
<polygon fill="white" stroke="#666666" points="120.25,-97 0,-97 0,-77.75 120.25,-77.75 120.25,-97"/>
<text text-anchor="middle" x="60.12" y="-83.5" font-family="Helvetica,sans-Serif" font-size="10.00">AssemblyDomainEleOp</text>
</a>
</g>
</g>
<!-- Node2&#45;&gt;Node1 -->
<g id="edge1" class="edge">
<title>Node2&#45;&gt;Node1</title>
<path fill="none" stroke="#63b8ff" d="M87.76,-72.14C117.69,-56.71 164.52,-32.58 189.71,-19.6"/>
<polygon fill="#63b8ff" stroke="#63b8ff" points="86.2,-69 78.91,-76.69 89.4,-75.23 86.2,-69"/>
</g>
<!-- Node3 -->
<g id="node3" class="node">
<title>Node3</title>
<g id="a_node3"><a xlink:title=" ">
<polygon fill="white" stroke="#666666" points="275.88,-97 138.38,-97 138.38,-77.75 275.88,-77.75 275.88,-97"/>
<text text-anchor="middle" x="207.12" y="-83.5" font-family="Helvetica,sans-Serif" font-size="10.00">shared_ptr&lt; MatrixDouble &gt;</text>
</a>
</g>
</g>
<!-- Node3&#45;&gt;Node1 -->
<g id="edge2" class="edge">
<title>Node3&#45;&gt;Node1</title>
<path fill="none" stroke="#9a32cd" stroke-dasharray="5,2" d="M207.12,-66.1C207.12,-50.95 207.12,-30.98 207.12,-19.6"/>
<polygon fill="#9a32cd" stroke="#9a32cd" points="203.63,-65.87 207.13,-75.87 210.63,-65.87 203.63,-65.87"/>
<text text-anchor="middle" x="228.12" y="-50.25" font-family="Helvetica,sans-Serif" font-size="10.00"> gradUPtr</text>
<text text-anchor="middle" x="228.12" y="-39" font-family="Helvetica,sans-Serif" font-size="10.00">uPtr</text>
</g>
<!-- Node4 -->
<g id="node4" class="node">
<title>Node4</title>
<g id="a_node4"><a xlink:title=" ">
<polygon fill="white" stroke="#666666" points="432.62,-97 293.62,-97 293.62,-77.75 432.62,-77.75 432.62,-97"/>
<text text-anchor="middle" x="363.12" y="-83.5" font-family="Helvetica,sans-Serif" font-size="10.00">shared_ptr&lt; VectorDouble &gt;</text>
</a>
</g>
</g>
<!-- Node4&#45;&gt;Node1 -->
<g id="edge3" class="edge">
<title>Node4&#45;&gt;Node1</title>
<path fill="none" stroke="#9a32cd" stroke-dasharray="5,2" d="M334.63,-72.54C302.91,-57.14 252.57,-32.69 225.61,-19.6"/>
<polygon fill="#9a32cd" stroke="#9a32cd" points="332.73,-75.51 343.26,-76.73 335.79,-69.21 332.73,-75.51"/>
<text text-anchor="middle" x="318.62" y="-44.62" font-family="Helvetica,sans-Serif" font-size="10.00"> hPtr</text>
</g>
</g>
</svg>
