<?xml version="1.0" encoding="UTF-8" standalone="no"?>
<!DOCTYPE svg PUBLIC "-//W3C//DTD SVG 1.1//EN"
 "http://www.w3.org/Graphics/SVG/1.1/DTD/svg11.dtd">
<!-- Generated by graphviz version 2.43.0 (0)
 -->
<!-- Title: EigenMatrix::d2MImpl&lt; E, C, G &gt; Pages: 1 -->
<svg width="132pt" height="106pt"
 viewBox="0.00 0.00 132.00 106.00" xmlns="http://www.w3.org/2000/svg" xmlns:xlink="http://www.w3.org/1999/xlink">
<g id="graph0" class="graph" transform="scale(1 1) rotate(0) translate(4 102)">
<title>EigenMatrix::d2MImpl&lt; E, C, G &gt;</title>
<polygon fill="white" stroke="transparent" points="-4,4 -4,-102 128,-102 128,4 -4,4"/>
<!-- Node1 -->
<g id="node1" class="node">
<title>Node1</title>
<g id="a_node1"><a xlink:title=" ">
<polygon fill="#bfbfbf" stroke="black" points="0,-0.5 0,-30.5 124,-30.5 124,-0.5 0,-0.5"/>
<text text-anchor="start" x="8" y="-18.5" font-family="Helvetica,sans-Serif" font-size="10.00">EigenMatrix::d2MImpl</text>
<text text-anchor="middle" x="62" y="-7.5" font-family="Helvetica,sans-Serif" font-size="10.00">&lt; E, C, G &gt;</text>
</a>
</g>
</g>
<!-- Node2 -->
<g id="node2" class="node">
<title>Node2</title>
<g id="a_node2"><a xlink:title=" ">
<polygon fill="white" stroke="#bfbfbf" points="23.5,-78.5 23.5,-97.5 52.5,-97.5 52.5,-78.5 23.5,-78.5"/>
<text text-anchor="middle" x="38" y="-85.5" font-family="Helvetica,sans-Serif" font-size="10.00">G</text>
</a>
</g>
</g>
<!-- Node2&#45;&gt;Node1 -->
<g id="edge1" class="edge">
<title>Node2&#45;&gt;Node1</title>
<path fill="none" stroke="#9a32cd" stroke-dasharray="5,2" d="M44.26,-68.6C48.31,-56.72 53.49,-41.49 57.21,-30.58"/>
<polygon fill="#9a32cd" stroke="#9a32cd" points="40.85,-67.76 40.94,-78.36 47.48,-70.02 40.85,-67.76"/>
<text text-anchor="middle" x="56" y="-52" font-family="Helvetica,sans-Serif" font-size="10.00"> g</text>
</g>
<!-- Node3 -->
<g id="node3" class="node">
<title>Node3</title>
<g id="a_node3"><a xlink:title=" ">
<polygon fill="white" stroke="#bfbfbf" points="70.5,-78.5 70.5,-97.5 103.5,-97.5 103.5,-78.5 70.5,-78.5"/>
<text text-anchor="middle" x="87" y="-85.5" font-family="Helvetica,sans-Serif" font-size="10.00">E &amp;</text>
</a>
</g>
</g>
<!-- Node3&#45;&gt;Node1 -->
<g id="edge2" class="edge">
<title>Node3&#45;&gt;Node1</title>
<path fill="none" stroke="#9a32cd" stroke-dasharray="5,2" d="M80.48,-68.6C76.26,-56.72 70.86,-41.49 66.99,-30.58"/>
<polygon fill="#9a32cd" stroke="#9a32cd" points="77.29,-70.1 83.93,-78.36 83.89,-67.76 77.29,-70.1"/>
<text text-anchor="middle" x="81" y="-52" font-family="Helvetica,sans-Serif" font-size="10.00"> e</text>
</g>
</g>
</svg>
