<?xml version="1.0" encoding="UTF-8" standalone="no"?>
<!DOCTYPE svg PUBLIC "-//W3C//DTD SVG 1.1//EN"
 "http://www.w3.org/Graphics/SVG/1.1/DTD/svg11.dtd">
<!-- Generated by graphviz version 2.43.0 (0)
 -->
<!-- Title: PlasticOps::OpCalculateConstraintsLhs_dTAUImpl&lt; GAUSS, AssemblyDomainEleOp &gt; Pages: 1 -->
<svg width="770pt" height="445pt"
 viewBox="0.00 0.00 770.00 444.92" xmlns="http://www.w3.org/2000/svg" xmlns:xlink="http://www.w3.org/1999/xlink">
<g id="graph0" class="graph" transform="scale(1 1) rotate(0) translate(4 440.92)">
<title>PlasticOps::OpCalculateConstraintsLhs_dTAUImpl&lt; GAUSS, AssemblyDomainEleOp &gt;</title>
<polygon fill="white" stroke="transparent" points="-4,4 -4,-440.92 766,-440.92 766,4 -4,4"/>
<!-- Node1 -->
<g id="node1" class="node">
<title>Node1</title>
<g id="a_node1"><a xlink:title=" ">
<polygon fill="#bfbfbf" stroke="black" points="539,-205.42 539,-246.42 762,-246.42 762,-205.42 539,-205.42"/>
<text text-anchor="start" x="547" y="-234.42" font-family="Helvetica,sans-Serif" font-size="10.00">PlasticOps::OpCalculateConstraints</text>
<text text-anchor="start" x="547" y="-223.42" font-family="Helvetica,sans-Serif" font-size="10.00">Lhs_dTAUImpl&lt; GAUSS, AssemblyDomain</text>
<text text-anchor="middle" x="650.5" y="-212.42" font-family="Helvetica,sans-Serif" font-size="10.00">EleOp &gt;</text>
</a>
</g>
</g>
<!-- Node2 -->
<g id="node2" class="node">
<title>Node2</title>
<g id="a_node2"><a xlink:href="structMoFEM_1_1OpBaseImpl.html" target="_top" xlink:title=" ">
<polygon fill="white" stroke="black" points="289,-247.42 289,-266.42 420,-266.42 420,-247.42 289,-247.42"/>
<text text-anchor="middle" x="354.5" y="-254.42" font-family="Helvetica,sans-Serif" font-size="10.00">AssemblyDomainEleOp</text>
</a>
</g>
</g>
<!-- Node2&#45;&gt;Node1 -->
<g id="edge1" class="edge">
<title>Node2&#45;&gt;Node1</title>
<path fill="none" stroke="midnightblue" d="M430.04,-249.06C463.05,-245.58 502.55,-241.41 538.88,-237.58"/>
<polygon fill="midnightblue" stroke="midnightblue" points="429.6,-245.58 420.02,-250.11 430.33,-252.55 429.6,-245.58"/>
</g>
<!-- Node3 -->
<g id="node3" class="node">
<title>Node3</title>
<g id="a_node3"><a xlink:href="classEleOp.html" target="_top" xlink:title=" ">
<polygon fill="white" stroke="black" points="52,-417.42 52,-436.42 97,-436.42 97,-417.42 52,-417.42"/>
<text text-anchor="middle" x="74.5" y="-424.42" font-family="Helvetica,sans-Serif" font-size="10.00">EleOp</text>
</a>
</g>
</g>
<!-- Node3&#45;&gt;Node2 -->
<g id="edge2" class="edge">
<title>Node3&#45;&gt;Node2</title>
<path fill="none" stroke="midnightblue" d="M107.03,-432.1C148.32,-437.13 221.28,-439.84 271,-406.92 322.79,-372.62 345,-294.35 351.42,-266.76"/>
<polygon fill="midnightblue" stroke="midnightblue" points="107.38,-428.61 97.01,-430.75 106.45,-435.55 107.38,-428.61"/>
</g>
<!-- Node4 -->
<g id="node4" class="node">
<title>Node4</title>
<g id="a_node4"><a xlink:href="classUBlasVector_3_01double_01_4.html" target="_top" xlink:title=" ">
<polygon fill="white" stroke="black" points="9,-379.42 9,-398.42 140,-398.42 140,-379.42 9,-379.42"/>
<text text-anchor="middle" x="74.5" y="-386.42" font-family="Helvetica,sans-Serif" font-size="10.00">UBlasVector&lt; double &gt;</text>
</a>
</g>
</g>
<!-- Node4&#45;&gt;Node2 -->
<g id="edge3" class="edge">
<title>Node4&#45;&gt;Node2</title>
<path fill="none" stroke="#9a32cd" stroke-dasharray="5,2" d="M150.28,-393.12C188.64,-392.09 234.78,-385.67 271,-364.92 312.15,-341.34 339.54,-288.21 349.41,-266.47"/>
<polygon fill="#9a32cd" stroke="#9a32cd" points="150.14,-389.63 140.2,-393.28 150.25,-396.63 150.14,-389.63"/>
<text text-anchor="middle" x="219" y="-394.92" font-family="Helvetica,sans-Serif" font-size="10.00"> locF</text>
</g>
<!-- Node5 -->
<g id="node5" class="node">
<title>Node5</title>
<g id="a_node5"><a xlink:title=" ">
<polygon fill="white" stroke="#bfbfbf" points="5,-341.42 5,-360.42 144,-360.42 144,-341.42 5,-341.42"/>
<text text-anchor="middle" x="74.5" y="-348.42" font-family="Helvetica,sans-Serif" font-size="10.00">static MatSetValuesHook</text>
</a>
</g>
</g>
<!-- Node5&#45;&gt;Node2 -->
<g id="edge4" class="edge">
<title>Node5&#45;&gt;Node2</title>
<path fill="none" stroke="#9a32cd" stroke-dasharray="5,2" d="M154.27,-351.52C191.05,-349.26 234.64,-342.85 271,-326.92 303,-312.9 332.05,-282.3 345.55,-266.61"/>
<polygon fill="#9a32cd" stroke="#9a32cd" points="153.9,-348.04 144.09,-352.05 154.26,-355.03 153.9,-348.04"/>
<text text-anchor="middle" x="219" y="-352.92" font-family="Helvetica,sans-Serif" font-size="10.00"> matSetValuesHook</text>
</g>
<!-- Node6 -->
<g id="node6" class="node">
<title>Node6</title>
<g id="a_node6"><a xlink:title=" ">
<polygon fill="white" stroke="#bfbfbf" points="40.5,-302.42 40.5,-321.42 108.5,-321.42 108.5,-302.42 40.5,-302.42"/>
<text text-anchor="middle" x="74.5" y="-309.42" font-family="Helvetica,sans-Serif" font-size="10.00">EntityType</text>
</a>
</g>
</g>
<!-- Node6&#45;&gt;Node2 -->
<g id="edge5" class="edge">
<title>Node6&#45;&gt;Node2</title>
<path fill="none" stroke="#9a32cd" stroke-dasharray="5,2" d="M118.83,-307.48C158.69,-302.93 219.28,-294.82 271,-282.92 290.02,-278.54 311,-271.9 327.04,-266.43"/>
<polygon fill="#9a32cd" stroke="#9a32cd" points="118.21,-304.03 108.66,-308.62 118.99,-310.98 118.21,-304.03"/>
<text text-anchor="middle" x="219" y="-314.92" font-family="Helvetica,sans-Serif" font-size="10.00"> rowType</text>
<text text-anchor="middle" x="219" y="-303.92" font-family="Helvetica,sans-Serif" font-size="10.00">colType</text>
</g>
<!-- Node7 -->
<g id="node7" class="node">
<title>Node7</title>
<g id="a_node7"><a xlink:title=" ">
<polygon fill="white" stroke="#bfbfbf" points="13.5,-264.42 13.5,-283.42 135.5,-283.42 135.5,-264.42 13.5,-264.42"/>
<text text-anchor="middle" x="74.5" y="-271.42" font-family="Helvetica,sans-Serif" font-size="10.00">shared_ptr&lt; Range &gt;</text>
</a>
</g>
</g>
<!-- Node7&#45;&gt;Node2 -->
<g id="edge6" class="edge">
<title>Node7&#45;&gt;Node2</title>
<path fill="none" stroke="#9a32cd" stroke-dasharray="5,2" d="M145.87,-269.61C189.86,-266.92 246.09,-263.49 288.94,-260.87"/>
<polygon fill="#9a32cd" stroke="#9a32cd" points="145.59,-266.12 135.82,-270.23 146.02,-273.11 145.59,-266.12"/>
<text text-anchor="middle" x="219" y="-270.92" font-family="Helvetica,sans-Serif" font-size="10.00"> entsPtr</text>
</g>
<!-- Node8 -->
<g id="node8" class="node">
<title>Node8</title>
<g id="a_node8"><a xlink:title=" ">
<polygon fill="white" stroke="#bfbfbf" points="9,-214.92 9,-244.92 140,-244.92 140,-214.92 9,-214.92"/>
<text text-anchor="start" x="17" y="-232.92" font-family="Helvetica,sans-Serif" font-size="10.00">function&lt; double(const</text>
<text text-anchor="middle" x="74.5" y="-221.92" font-family="Helvetica,sans-Serif" font-size="10.00"> FEMethod *fe_ptr)&gt;</text>
</a>
</g>
</g>
<!-- Node8&#45;&gt;Node2 -->
<g id="edge7" class="edge">
<title>Node8&#45;&gt;Node2</title>
<path fill="none" stroke="#9a32cd" stroke-dasharray="5,2" d="M150.33,-235.83C186.76,-238.86 231.2,-242.78 271,-246.92 276.74,-247.51 282.7,-248.17 288.67,-248.85"/>
<polygon fill="#9a32cd" stroke="#9a32cd" points="150.53,-232.33 140.27,-235 149.95,-239.31 150.53,-232.33"/>
<text text-anchor="middle" x="219" y="-249.92" font-family="Helvetica,sans-Serif" font-size="10.00"> feScalingFun</text>
</g>
<!-- Node9 -->
<g id="node9" class="node">
<title>Node9</title>
<g id="a_node9"><a xlink:title=" ">
<polygon fill="white" stroke="#bfbfbf" points="60,-141.42 60,-160.42 89,-160.42 89,-141.42 60,-141.42"/>
<text text-anchor="middle" x="74.5" y="-148.42" font-family="Helvetica,sans-Serif" font-size="10.00">int</text>
</a>
</g>
</g>
<!-- Node9&#45;&gt;Node2 -->
<g id="edge8" class="edge">
<title>Node9&#45;&gt;Node2</title>
<path fill="none" stroke="#9a32cd" stroke-dasharray="5,2" d="M99.05,-144.99C139.39,-136.35 222.06,-125.52 271,-166.92 295.85,-187.94 266.42,-214.46 289,-237.92 292.72,-241.79 297.19,-244.88 302.02,-247.35"/>
<polygon fill="#9a32cd" stroke="#9a32cd" points="98.05,-141.62 89.08,-147.26 99.61,-148.45 98.05,-141.62"/>
<text text-anchor="middle" x="219" y="-224.92" font-family="Helvetica,sans-Serif" font-size="10.00"> nbIntegrationPts</text>
<text text-anchor="middle" x="219" y="-213.92" font-family="Helvetica,sans-Serif" font-size="10.00">colSide</text>
<text text-anchor="middle" x="219" y="-202.92" font-family="Helvetica,sans-Serif" font-size="10.00">nbCols</text>
<text text-anchor="middle" x="219" y="-191.92" font-family="Helvetica,sans-Serif" font-size="10.00">nbRowBaseFunctions</text>
<text text-anchor="middle" x="219" y="-180.92" font-family="Helvetica,sans-Serif" font-size="10.00">rowSide</text>
<text text-anchor="middle" x="219" y="-169.92" font-family="Helvetica,sans-Serif" font-size="10.00">nbRows</text>
</g>
<!-- Node10 -->
<g id="node10" class="node">
<title>Node10</title>
<g id="a_node10"><a xlink:href="classbool.html" target="_top" xlink:title=" ">
<polygon fill="white" stroke="black" points="55.5,-97.42 55.5,-116.42 93.5,-116.42 93.5,-97.42 55.5,-97.42"/>
<text text-anchor="middle" x="74.5" y="-104.42" font-family="Helvetica,sans-Serif" font-size="10.00">bool</text>
</a>
</g>
</g>
<!-- Node10&#45;&gt;Node2 -->
<g id="edge9" class="edge">
<title>Node10&#45;&gt;Node2</title>
<path fill="none" stroke="#9a32cd" stroke-dasharray="5,2" d="M103.59,-103.4C151.7,-98.04 247.01,-90.57 271,-111.92 313.26,-149.52 251.99,-195.13 289,-237.92 292.36,-241.8 296.47,-244.91 300.97,-247.4"/>
<polygon fill="#9a32cd" stroke="#9a32cd" points="103.07,-99.94 93.54,-104.56 103.87,-106.89 103.07,-99.94"/>
<text text-anchor="middle" x="219" y="-125.92" font-family="Helvetica,sans-Serif" font-size="10.00"> assembleTranspose</text>
<text text-anchor="middle" x="219" y="-114.92" font-family="Helvetica,sans-Serif" font-size="10.00">onlyTranspose</text>
</g>
<!-- Node11 -->
<g id="node11" class="node">
<title>Node11</title>
<g id="a_node11"><a xlink:title=" ">
<polygon fill="white" stroke="#bfbfbf" points="0,-59.42 0,-78.42 149,-78.42 149,-59.42 0,-59.42"/>
<text text-anchor="middle" x="74.5" y="-66.42" font-family="Helvetica,sans-Serif" font-size="10.00">function&lt; double(double)&gt;</text>
</a>
</g>
</g>
<!-- Node11&#45;&gt;Node2 -->
<g id="edge10" class="edge">
<title>Node11&#45;&gt;Node2</title>
<path fill="none" stroke="#9a32cd" stroke-dasharray="5,2" d="M121.12,-57.4C165.49,-49.2 231.77,-45.38 271,-82.92 321.11,-130.86 244.32,-184.87 289,-237.92 292.23,-241.76 296.2,-244.84 300.56,-247.32"/>
<polygon fill="#9a32cd" stroke="#9a32cd" points="120.3,-54 111.17,-59.38 121.66,-60.86 120.3,-54"/>
<text text-anchor="middle" x="219" y="-85.92" font-family="Helvetica,sans-Serif" font-size="10.00"> timeScalingFun</text>
</g>
<!-- Node12 -->
<g id="node12" class="node">
<title>Node12</title>
<g id="a_node12"><a xlink:href="classUBlasMatrix_3_01double_01_4.html" target="_top" xlink:title=" ">
<polygon fill="white" stroke="black" points="8.5,-15.42 8.5,-34.42 140.5,-34.42 140.5,-15.42 8.5,-15.42"/>
<text text-anchor="middle" x="74.5" y="-22.42" font-family="Helvetica,sans-Serif" font-size="10.00">UBlasMatrix&lt; double &gt;</text>
</a>
</g>
</g>
<!-- Node12&#45;&gt;Node2 -->
<g id="edge11" class="edge">
<title>Node12&#45;&gt;Node2</title>
<path fill="none" stroke="#9a32cd" stroke-dasharray="5,2" d="M111.65,-12.41C155.37,0.17 228.41,12.6 271,-26.92 305.5,-58.92 259.24,-201.47 289,-237.92 292.1,-241.72 295.92,-244.78 300.14,-247.25"/>
<polygon fill="#9a32cd" stroke="#9a32cd" points="110.55,-9.09 101.99,-15.33 112.57,-15.79 110.55,-9.09"/>
<text text-anchor="middle" x="219" y="-40.92" font-family="Helvetica,sans-Serif" font-size="10.00"> locMat</text>
<text text-anchor="middle" x="219" y="-29.92" font-family="Helvetica,sans-Serif" font-size="10.00">locMatTranspose</text>
</g>
<!-- Node13 -->
<g id="node13" class="node">
<title>Node13</title>
<g id="a_node13"><a xlink:title=" ">
<polygon fill="white" stroke="#bfbfbf" points="289,-197.92 289,-227.92 420,-227.92 420,-197.92 289,-197.92"/>
<text text-anchor="start" x="297" y="-215.92" font-family="Helvetica,sans-Serif" font-size="10.00">shared_ptr&lt; PlasticOps</text>
<text text-anchor="middle" x="354.5" y="-204.92" font-family="Helvetica,sans-Serif" font-size="10.00">::CommonData &gt;</text>
</a>
</g>
</g>
<!-- Node13&#45;&gt;Node1 -->
<g id="edge12" class="edge">
<title>Node13&#45;&gt;Node1</title>
<path fill="none" stroke="#9a32cd" stroke-dasharray="5,2" d="M430.04,-216.21C463.05,-217.67 502.55,-219.42 538.88,-221.03"/>
<polygon fill="#9a32cd" stroke="#9a32cd" points="430.16,-212.72 420.02,-215.77 429.86,-219.71 430.16,-212.72"/>
<text text-anchor="middle" x="479.5" y="-222.92" font-family="Helvetica,sans-Serif" font-size="10.00"> commonDataPtr</text>
</g>
</g>
</svg>
