<?xml version="1.0" encoding="UTF-8" standalone="no"?>
<!DOCTYPE svg PUBLIC "-//W3C//DTD SVG 1.1//EN"
 "http://www.w3.org/Graphics/SVG/1.1/DTD/svg11.dtd">
<!-- Generated by graphviz version 9.0.0 (20230911.1827)
 -->
<!-- Title: MortarContactProblem::MortarConvectMasterContactElement Pages: 1 -->
<svg width="167pt" height="382pt"
 viewBox="0.00 0.00 167.25 382.25" xmlns="http://www.w3.org/2000/svg" xmlns:xlink="http://www.w3.org/1999/xlink">
<g id="graph0" class="graph" transform="scale(1 1) rotate(0) translate(4 378.25)">
<title>MortarContactProblem::MortarConvectMasterContactElement</title>
<!-- Node1 -->
<g id="node1" class="node">
<title>Node1</title>
<g id="a_node1"><a xlink:title="Element used to integrate on slave surfaces. It convects integration points on slaves,...">
<polygon fill="#999999" stroke="#666666" points="155.12,-119.5 4.12,-119.5 4.12,-77.75 155.12,-77.75 155.12,-119.5"/>
<text text-anchor="start" x="12.12" y="-106" font-family="Helvetica,sans-Serif" font-size="10.00">MortarContactProblem</text>
<text text-anchor="start" x="12.12" y="-94.75" font-family="Helvetica,sans-Serif" font-size="10.00">::MortarConvectMasterContact</text>
<text text-anchor="middle" x="79.62" y="-83.5" font-family="Helvetica,sans-Serif" font-size="10.00">Element</text>
</a>
</g>
</g>
<!-- Node6 -->
<g id="node6" class="node">
<title>Node6</title>
<g id="a_node6"><a xlink:href="struct_mortar_contact_problem_1_1_mortar_convect_slave_contact_element.html" target="_top" xlink:title="Element used to integrate on master surfaces. It convects integration points on slaves,...">
<polygon fill="white" stroke="#666666" points="152.5,-41.75 6.75,-41.75 6.75,0 152.5,0 152.5,-41.75"/>
<text text-anchor="start" x="14.75" y="-28.25" font-family="Helvetica,sans-Serif" font-size="10.00">MortarContactProblem</text>
<text text-anchor="start" x="14.75" y="-17" font-family="Helvetica,sans-Serif" font-size="10.00">::MortarConvectSlaveContact</text>
<text text-anchor="middle" x="79.62" y="-5.75" font-family="Helvetica,sans-Serif" font-size="10.00">Element</text>
</a>
</g>
</g>
<!-- Node1&#45;&gt;Node6 -->
<g id="edge5" class="edge">
<title>Node1&#45;&gt;Node6</title>
<path fill="none" stroke="#63b8ff" d="M79.62,-66C79.62,-57.96 79.62,-49.54 79.62,-42.23"/>
<polygon fill="#63b8ff" stroke="#63b8ff" points="76.13,-65.81 79.63,-75.81 83.13,-65.81 76.13,-65.81"/>
</g>
<!-- Node2 -->
<g id="node2" class="node">
<title>Node2</title>
<g id="a_node2"><a xlink:href="struct_mortar_contact_problem_1_1_mortar_contact_element.html" target="_top" xlink:title=" ">
<polygon fill="white" stroke="#666666" points="139.75,-186 19.5,-186 19.5,-155.5 139.75,-155.5 139.75,-186"/>
<text text-anchor="start" x="27.5" y="-172.5" font-family="Helvetica,sans-Serif" font-size="10.00">MortarContactProblem</text>
<text text-anchor="middle" x="79.62" y="-161.25" font-family="Helvetica,sans-Serif" font-size="10.00">::MortarContactElement</text>
</a>
</g>
</g>
<!-- Node2&#45;&gt;Node1 -->
<g id="edge1" class="edge">
<title>Node2&#45;&gt;Node1</title>
<path fill="none" stroke="#63b8ff" d="M79.62,-143.97C79.62,-136.06 79.62,-127.48 79.62,-119.99"/>
<polygon fill="#63b8ff" stroke="#63b8ff" points="76.13,-143.71 79.63,-153.71 83.13,-143.71 76.13,-143.71"/>
</g>
<!-- Node3 -->
<g id="node3" class="node">
<title>Node3</title>
<g id="a_node3"><a xlink:href="struct_simple_contact_problem_1_1_convect_master_contact_element.html" target="_top" xlink:title="Element used to integrate on slave surfaces. It convects integration points on slaves,...">
<polygon fill="white" stroke="#666666" points="159.25,-252.5 0,-252.5 0,-222 159.25,-222 159.25,-252.5"/>
<text text-anchor="start" x="8" y="-239" font-family="Helvetica,sans-Serif" font-size="10.00">SimpleContactProblem</text>
<text text-anchor="middle" x="79.62" y="-227.75" font-family="Helvetica,sans-Serif" font-size="10.00">::ConvectMasterContactElement</text>
</a>
</g>
</g>
<!-- Node3&#45;&gt;Node2 -->
<g id="edge2" class="edge">
<title>Node3&#45;&gt;Node2</title>
<path fill="none" stroke="#63b8ff" d="M79.62,-210.31C79.62,-202.14 79.62,-193.41 79.62,-186.33"/>
<polygon fill="#63b8ff" stroke="#63b8ff" points="76.13,-210.1 79.63,-220.1 83.13,-210.1 76.13,-210.1"/>
</g>
<!-- Node4 -->
<g id="node4" class="node">
<title>Node4</title>
<g id="a_node4"><a xlink:href="struct_simple_contact_problem_1_1_simple_contact_element.html" target="_top" xlink:title=" ">
<polygon fill="white" stroke="#666666" points="140.88,-319 18.38,-319 18.38,-288.5 140.88,-288.5 140.88,-319"/>
<text text-anchor="start" x="26.38" y="-305.5" font-family="Helvetica,sans-Serif" font-size="10.00">SimpleContactProblem</text>
<text text-anchor="middle" x="79.62" y="-294.25" font-family="Helvetica,sans-Serif" font-size="10.00">::SimpleContactElement</text>
</a>
</g>
</g>
<!-- Node4&#45;&gt;Node3 -->
<g id="edge3" class="edge">
<title>Node4&#45;&gt;Node3</title>
<path fill="none" stroke="#63b8ff" d="M79.62,-276.81C79.62,-268.64 79.62,-259.91 79.62,-252.83"/>
<polygon fill="#63b8ff" stroke="#63b8ff" points="76.13,-276.6 79.63,-286.6 83.13,-276.6 76.13,-276.6"/>
</g>
<!-- Node5 -->
<g id="node5" class="node">
<title>Node5</title>
<g id="a_node5"><a xlink:href="class_contact_ele.html" target="_top" xlink:title=" ">
<polygon fill="white" stroke="#666666" points="112,-374.25 47.25,-374.25 47.25,-355 112,-355 112,-374.25"/>
<text text-anchor="middle" x="79.62" y="-360.75" font-family="Helvetica,sans-Serif" font-size="10.00">ContactEle</text>
</a>
</g>
</g>
<!-- Node5&#45;&gt;Node4 -->
<g id="edge4" class="edge">
<title>Node5&#45;&gt;Node4</title>
<path fill="none" stroke="#63b8ff" d="M79.62,-343.42C79.62,-335.49 79.62,-326.56 79.62,-319.28"/>
<polygon fill="#63b8ff" stroke="#63b8ff" points="76.13,-343.17 79.63,-353.17 83.13,-343.17 76.13,-343.17"/>
</g>
</g>
</svg>
