<?xml version="1.0" encoding="UTF-8" standalone="no"?>
<!DOCTYPE svg PUBLIC "-//W3C//DTD SVG 1.1//EN"
 "http://www.w3.org/Graphics/SVG/1.1/DTD/svg11.dtd">
<!-- Generated by graphviz version 9.0.0 (20230911.1827)
 -->
<!-- Title: CellEngineering::CommonData Pages: 1 -->
<svg width="534pt" height="128pt"
 viewBox="0.00 0.00 533.88 127.50" xmlns="http://www.w3.org/2000/svg" xmlns:xlink="http://www.w3.org/1999/xlink">
<g id="graph0" class="graph" transform="scale(1 1) rotate(0) translate(4 123.5)">
<title>CellEngineering::CommonData</title>
<!-- Node1 -->
<g id="node1" class="node">
<title>Node1</title>
<g id="a_node1"><a xlink:title=" ">
<polygon fill="#999999" stroke="#666666" points="424.38,-19.25 273.38,-19.25 273.38,0 424.38,0 424.38,-19.25"/>
<text text-anchor="middle" x="348.88" y="-5.75" font-family="Helvetica,sans-Serif" font-size="10.00">CellEngineering::CommonData</text>
</a>
</g>
</g>
<!-- Node2 -->
<g id="node2" class="node">
<title>Node2</title>
<g id="a_node2"><a xlink:title=" ">
<polygon fill="white" stroke="#666666" points="73.75,-119.5 0,-119.5 0,-100.25 73.75,-100.25 73.75,-119.5"/>
<text text-anchor="middle" x="36.88" y="-106" font-family="Helvetica,sans-Serif" font-size="10.00">MatrixDouble</text>
</a>
</g>
</g>
<!-- Node2&#45;&gt;Node1 -->
<g id="edge1" class="edge">
<title>Node2&#45;&gt;Node1</title>
<path fill="none" stroke="#9a32cd" stroke-dasharray="5,2" d="M35.21,-88.65C35.08,-72.26 37.87,-49.88 52.12,-37.25 68.36,-22.86 190.74,-15.9 273.18,-12.81"/>
<polygon fill="#9a32cd" stroke="#9a32cd" points="31.7,-88.42 35.67,-98.24 38.69,-88.09 31.7,-88.42"/>
<text text-anchor="middle" x="102.75" y="-72.75" font-family="Helvetica,sans-Serif" font-size="10.00"> forceAtGaussPts</text>
<text text-anchor="middle" x="102.75" y="-61.5" font-family="Helvetica,sans-Serif" font-size="10.00">gradForceAtGaussPtrs</text>
<text text-anchor="middle" x="102.75" y="-50.25" font-family="Helvetica,sans-Serif" font-size="10.00">locA</text>
<text text-anchor="middle" x="102.75" y="-39" font-family="Helvetica,sans-Serif" font-size="10.00">transLocA</text>
</g>
<!-- Node3 -->
<g id="node3" class="node">
<title>Node3</title>
<g id="a_node3"><a xlink:title=" ">
<polygon fill="white" stroke="#666666" points="197.5,-119.5 122.25,-119.5 122.25,-100.25 197.5,-100.25 197.5,-119.5"/>
<text text-anchor="middle" x="159.88" y="-106" font-family="Helvetica,sans-Serif" font-size="10.00">VectorDouble</text>
</a>
</g>
</g>
<!-- Node3&#45;&gt;Node1 -->
<g id="edge2" class="edge">
<title>Node3&#45;&gt;Node1</title>
<path fill="none" stroke="#9a32cd" stroke-dasharray="5,2" d="M156.74,-88.55C155.49,-72.43 156.76,-50.48 169.88,-37.25 184.36,-22.63 230.89,-16 272.88,-13.02"/>
<polygon fill="#9a32cd" stroke="#9a32cd" points="153.26,-88.93 157.92,-98.44 160.21,-88.1 153.26,-88.93"/>
<text text-anchor="middle" x="232.88" y="-67.12" font-family="Helvetica,sans-Serif" font-size="10.00"> dispAtGaussPts</text>
<text text-anchor="middle" x="232.88" y="-55.88" font-family="Helvetica,sans-Serif" font-size="10.00">forcePotentialAtGaussPoints</text>
<text text-anchor="middle" x="232.88" y="-44.62" font-family="Helvetica,sans-Serif" font-size="10.00">locF</text>
</g>
<!-- Node4 -->
<g id="node4" class="node">
<title>Node4</title>
<g id="a_node4"><a xlink:title=" ">
<polygon fill="white" stroke="#666666" points="354.38,-119.5 215.38,-119.5 215.38,-100.25 354.38,-100.25 354.38,-119.5"/>
<text text-anchor="middle" x="284.88" y="-106" font-family="Helvetica,sans-Serif" font-size="10.00">shared_ptr&lt; VectorDouble &gt;</text>
</a>
</g>
</g>
<!-- Node4&#45;&gt;Node1 -->
<g id="edge3" class="edge">
<title>Node4&#45;&gt;Node1</title>
<path fill="none" stroke="#9a32cd" stroke-dasharray="5,2" d="M295.48,-89.95C303.89,-75.29 316.18,-54.61 328.12,-37.25 332.38,-31.07 337.56,-24.41 341.69,-19.3"/>
<polygon fill="#9a32cd" stroke="#9a32cd" points="292.51,-88.1 290.62,-98.52 298.59,-91.55 292.51,-88.1"/>
<text text-anchor="middle" x="341.75" y="-61.5" font-family="Helvetica,sans-Serif" font-size="10.00"> dispX</text>
<text text-anchor="middle" x="341.75" y="-50.25" font-family="Helvetica,sans-Serif" font-size="10.00">dispY</text>
</g>
<!-- Node5 -->
<g id="node5" class="node">
<title>Node5</title>
<g id="a_node5"><a xlink:title=" ">
<polygon fill="white" stroke="#666666" points="405.12,-119.5 372.62,-119.5 372.62,-100.25 405.12,-100.25 405.12,-119.5"/>
<text text-anchor="middle" x="388.88" y="-106" font-family="Helvetica,sans-Serif" font-size="10.00">Mat</text>
</a>
</g>
</g>
<!-- Node5&#45;&gt;Node1 -->
<g id="edge4" class="edge">
<title>Node5&#45;&gt;Node1</title>
<path fill="none" stroke="#9a32cd" stroke-dasharray="5,2" d="M380.85,-89.17C372.24,-68.02 358.95,-35.37 352.56,-19.67"/>
<polygon fill="#9a32cd" stroke="#9a32cd" points="377.6,-90.46 384.61,-98.41 384.08,-87.82 377.6,-90.46"/>
<text text-anchor="middle" x="390.75" y="-55.88" font-family="Helvetica,sans-Serif" font-size="10.00"> globA</text>
</g>
<!-- Node6 -->
<g id="node6" class="node">
<title>Node6</title>
<g id="a_node6"><a xlink:title=" ">
<polygon fill="white" stroke="#666666" points="456.5,-119.5 423.25,-119.5 423.25,-100.25 456.5,-100.25 456.5,-119.5"/>
<text text-anchor="middle" x="439.88" y="-106" font-family="Helvetica,sans-Serif" font-size="10.00">Vec</text>
</a>
</g>
</g>
<!-- Node6&#45;&gt;Node1 -->
<g id="edge5" class="edge">
<title>Node6&#45;&gt;Node1</title>
<path fill="none" stroke="#9a32cd" stroke-dasharray="5,2" d="M435.4,-88.6C431.01,-72.85 422.87,-51.38 408.88,-37.25 401.17,-29.48 390.81,-23.79 380.87,-19.72"/>
<polygon fill="#9a32cd" stroke="#9a32cd" points="432,-89.42 437.8,-98.28 438.8,-87.74 432,-89.42"/>
<text text-anchor="middle" x="446.38" y="-55.88" font-family="Helvetica,sans-Serif" font-size="10.00"> globF</text>
</g>
<!-- Node7 -->
<g id="node7" class="node">
<title>Node7</title>
<g id="a_node7"><a xlink:href="classdouble.html" target="_top" xlink:title=" ">
<polygon fill="white" stroke="#666666" points="519.12,-119.5 474.62,-119.5 474.62,-100.25 519.12,-100.25 519.12,-119.5"/>
<text text-anchor="middle" x="496.88" y="-106" font-family="Helvetica,sans-Serif" font-size="10.00">double</text>
</a>
</g>
</g>
<!-- Node7&#45;&gt;Node1 -->
<g id="edge6" class="edge">
<title>Node7&#45;&gt;Node1</title>
<path fill="none" stroke="#9a32cd" stroke-dasharray="5,2" d="M492.76,-88.81C488.37,-72.52 479.78,-50.2 463.88,-37.25 452.67,-28.13 438.92,-22.01 424.87,-17.94"/>
<polygon fill="#9a32cd" stroke="#9a32cd" points="489.31,-89.43 495.01,-98.37 496.13,-87.83 489.31,-89.43"/>
<text text-anchor="middle" x="507.88" y="-55.88" font-family="Helvetica,sans-Serif" font-size="10.00"> lAmbda</text>
</g>
</g>
</svg>
