<?xml version="1.0" encoding="UTF-8" standalone="no"?>
<!DOCTYPE svg PUBLIC "-//W3C//DTD SVG 1.1//EN"
 "http://www.w3.org/Graphics/SVG/1.1/DTD/svg11.dtd">
<!-- Generated by graphviz version 2.43.0 (0)
 -->
<!-- Title: MoFEM::OpCalculateTensor2FieldValues_General&lt; Tensor_Dim0, Tensor_Dim1, T, L, A &gt; Pages: 1 -->
<!--zoomable 132 -->
<svg id="main" version="1.1" xmlns="http://www.w3.org/2000/svg" xmlns:xlink="http://www.w3.org/1999/xlink" xml:space="preserve" onload="init(evt)">
<style type="text/css"><![CDATA[
.edge:hover path { stroke: red; }
.edge:hover polygon { stroke: red; fill: red; }
]]></style>
<script type="text/javascript"><![CDATA[
var edges = document.getElementsByTagName('g');
if (edges && edges.length) {
  for (var i=0;i<edges.length;i++) {
    if (edges[i].id.substr(0,4)=='edge') {
      edges[i].setAttribute('class','edge');
    }
  }
}
]]></script>
        <defs>
                <circle id="rim" cx="0" cy="0" r="7"/>
                <circle id="rim2" cx="0" cy="0" r="3.5"/>
                <g id="zoomPlus">
                        <use xlink:href="#rim" fill="#404040">
                                <set attributeName="fill" to="#808080" begin="zoomplus.mouseover" end="zoomplus.mouseout"/>
                        </use>
                        <path d="M-4,0h8M0,-4v8" fill="none" stroke="white" stroke-width="1.5" pointer-events="none"/>
                </g>
                <g id="zoomMin">
                        <use xlink:href="#rim" fill="#404040">
                                <set attributeName="fill" to="#808080" begin="zoomminus.mouseover" end="zoomminus.mouseout"/>
                        </use>
                        <path d="M-4,0h8" fill="none" stroke="white" stroke-width="1.5" pointer-events="none"/>
                </g>
                <g id="dirArrow">
                        <path fill="none" stroke="white" stroke-width="1.5" d="M0,-3.0v7 M-2.5,-0.5L0,-3.0L2.5,-0.5"/>
                </g>
               <g id="resetDef">
                       <use xlink:href="#rim2" fill="#404040">
                               <set attributeName="fill" to="#808080" begin="reset.mouseover" end="reset.mouseout"/>
                       </use>
               </g>
        </defs>

<script type="text/javascript">
var viewWidth = 747;
var viewHeight = 132;
var sectionId = 'dynsection-0';
</script>
<script xlink:href="svgpan.js"/>
<svg id="graph" class="graph">
<g id="viewport">
<title>MoFEM::OpCalculateTensor2FieldValues_General&lt; Tensor_Dim0, Tensor_Dim1, T, L, A &gt;</title>
<polygon fill="white" stroke="transparent" points="-4,4 -4,-128 743,-128 743,4 -4,4"/>
<!-- Node1 -->
<g id="node1" class="node">
<title>Node1</title>
<g id="a_node1"><a xlink:title="Calculate field values for tenor field rank 2.">
<polygon fill="#bfbfbf" stroke="black" points="367,-41 367,-82 531,-82 531,-41 367,-41"/>
<text text-anchor="start" x="375" y="-70" font-family="Helvetica,sans-Serif" font-size="10.00">MoFEM::OpCalculateTensor2</text>
<text text-anchor="start" x="375" y="-59" font-family="Helvetica,sans-Serif" font-size="10.00">FieldValues_General&lt; Tensor</text>
<text text-anchor="middle" x="449" y="-48" font-family="Helvetica,sans-Serif" font-size="10.00">_Dim0, Tensor_Dim1, T, L, A &gt;</text>
</a>
</g>
</g>
<!-- Node4 -->
<g id="node4" class="node">
<title>Node4</title>
<g id="a_node4"><a xlink:href="structMoFEM_1_1OpCalculateTensor2SymmetricFieldGradient__General.html" target="_top" xlink:title="Evaluate field gradient values for symmetric 2nd order tensor field, i.e. gradient is tensor rank 3.">
<polygon fill="white" stroke="black" points="567,-71.5 567,-123.5 739,-123.5 739,-71.5 567,-71.5"/>
<text text-anchor="start" x="575" y="-111.5" font-family="Helvetica,sans-Serif" font-size="10.00">MoFEM::OpCalculateTensor2</text>
<text text-anchor="start" x="575" y="-100.5" font-family="Helvetica,sans-Serif" font-size="10.00">SymmetricFieldGradient</text>
<text text-anchor="start" x="575" y="-89.5" font-family="Helvetica,sans-Serif" font-size="10.00">_General&lt; Tensor_Dim0, Tensor</text>
<text text-anchor="middle" x="653" y="-78.5" font-family="Helvetica,sans-Serif" font-size="10.00">_Dim1, T, L, A &gt;</text>
</a>
</g>
</g>
<!-- Node1&#45;&gt;Node4 -->
<g id="edge3" class="edge">
<title>Node1&#45;&gt;Node4</title>
<path fill="none" stroke="midnightblue" d="M541.26,-77.76C549.8,-79.29 558.44,-80.83 566.92,-82.34"/>
<polygon fill="midnightblue" stroke="midnightblue" points="541.75,-74.3 531.29,-75.99 540.52,-81.19 541.75,-74.3"/>
</g>
<!-- Node5 -->
<g id="node5" class="node">
<title>Node5</title>
<g id="a_node5"><a xlink:href="structMoFEM_1_1OpCalculateVectorFieldGradient__General.html" target="_top" xlink:title="Evaluate field gradient values for vector field, i.e. gradient is tensor rank 2.">
<polygon fill="white" stroke="black" points="571.5,-0.5 571.5,-52.5 734.5,-52.5 734.5,-0.5 571.5,-0.5"/>
<text text-anchor="start" x="579.5" y="-40.5" font-family="Helvetica,sans-Serif" font-size="10.00">MoFEM::OpCalculateVector</text>
<text text-anchor="start" x="579.5" y="-29.5" font-family="Helvetica,sans-Serif" font-size="10.00">FieldGradient_General</text>
<text text-anchor="start" x="579.5" y="-18.5" font-family="Helvetica,sans-Serif" font-size="10.00">&lt; Tensor_Dim0, Tensor_Dim1,</text>
<text text-anchor="middle" x="653" y="-7.5" font-family="Helvetica,sans-Serif" font-size="10.00"> T, L, A &gt;</text>
</a>
</g>
</g>
<!-- Node1&#45;&gt;Node5 -->
<g id="edge4" class="edge">
<title>Node1&#45;&gt;Node5</title>
<path fill="none" stroke="midnightblue" d="M541.23,-45.69C551.22,-43.96 561.35,-42.21 571.21,-40.5"/>
<polygon fill="midnightblue" stroke="midnightblue" points="540.54,-42.26 531.29,-47.42 541.74,-49.16 540.54,-42.26"/>
</g>
<!-- Node2 -->
<g id="node2" class="node">
<title>Node2</title>
<g id="a_node2"><a xlink:href="structMoFEM_1_1ForcesAndSourcesCore_1_1UserDataOperator.html" target="_top" xlink:title=" ">
<polygon fill="white" stroke="black" points="161,-46.5 161,-76.5 331,-76.5 331,-46.5 161,-46.5"/>
<text text-anchor="start" x="169" y="-64.5" font-family="Helvetica,sans-Serif" font-size="10.00">MoFEM::ForcesAndSourcesCore</text>
<text text-anchor="middle" x="246" y="-53.5" font-family="Helvetica,sans-Serif" font-size="10.00">::UserDataOperator</text>
</a>
</g>
</g>
<!-- Node2&#45;&gt;Node1 -->
<g id="edge1" class="edge">
<title>Node2&#45;&gt;Node1</title>
<path fill="none" stroke="midnightblue" d="M341.12,-61.5C349.71,-61.5 358.37,-61.5 366.83,-61.5"/>
<polygon fill="midnightblue" stroke="midnightblue" points="341.08,-58 331.08,-61.5 341.08,-65 341.08,-58"/>
</g>
<!-- Node3 -->
<g id="node3" class="node">
<title>Node3</title>
<g id="a_node3"><a xlink:href="structMoFEM_1_1DataOperator.html" target="_top" xlink:title="base operator to do operations at Gauss Pt. level">
<polygon fill="white" stroke="black" points="0,-52 0,-71 125,-71 125,-52 0,-52"/>
<text text-anchor="middle" x="62.5" y="-59" font-family="Helvetica,sans-Serif" font-size="10.00">MoFEM::DataOperator</text>
</a>
</g>
</g>
<!-- Node3&#45;&gt;Node2 -->
<g id="edge2" class="edge">
<title>Node3&#45;&gt;Node2</title>
<path fill="none" stroke="midnightblue" d="M135.34,-61.5C143.75,-61.5 152.4,-61.5 160.97,-61.5"/>
<polygon fill="midnightblue" stroke="midnightblue" points="135.2,-58 125.2,-61.5 135.2,-65 135.2,-58"/>
</g>
</g>
</svg>
        <g id="navigator" transform="translate(0 0)" fill="#404254">
                <rect fill="#f2f5e9" fill-opacity="0.5" stroke="#606060" stroke-width=".5" x="0" y="0" width="60" height="60"/>
                <use id="zoomplus" xlink:href="#zoomPlus" x="17" y="9" onmousedown="handleZoom(evt,'in')"/>
                <use id="zoomminus" xlink:href="#zoomMin" x="42" y="9" onmousedown="handleZoom(evt,'out')"/>
                <use id="reset" xlink:href="#resetDef" x="30" y="36" onmousedown="handleReset()"/>
                <g id="arrowUp" xlink:href="#dirArrow" transform="translate(30 24)" onmousedown="handlePan(0,-1)">
                  <use xlink:href="#rim" fill="#404040">
                        <set attributeName="fill" to="#808080" begin="arrowUp.mouseover" end="arrowUp.mouseout"/>
                  </use>
                  <path fill="none" stroke="white" stroke-width="1.5" d="M0,-3.0v7 M-2.5,-0.5L0,-3.0L2.5,-0.5"/>
                </g>
                <g id="arrowRight" xlink:href="#dirArrow" transform="rotate(90) translate(36 -43)" onmousedown="handlePan(1,0)">
                  <use xlink:href="#rim" fill="#404040">
                        <set attributeName="fill" to="#808080" begin="arrowRight.mouseover" end="arrowRight.mouseout"/>
                  </use>
                  <path fill="none" stroke="white" stroke-width="1.5" d="M0,-3.0v7 M-2.5,-0.5L0,-3.0L2.5,-0.5"/>
                </g>
                <g id="arrowDown" xlink:href="#dirArrow" transform="rotate(180) translate(-30 -48)" onmousedown="handlePan(0,1)">
                  <use xlink:href="#rim" fill="#404040">
                        <set attributeName="fill" to="#808080" begin="arrowDown.mouseover" end="arrowDown.mouseout"/>
                  </use>
                  <path fill="none" stroke="white" stroke-width="1.5" d="M0,-3.0v7 M-2.5,-0.5L0,-3.0L2.5,-0.5"/>
                </g>
                <g id="arrowLeft" xlink:href="#dirArrow" transform="rotate(270) translate(-36 17)" onmousedown="handlePan(-1,0)">
                  <use xlink:href="#rim" fill="#404040">
                        <set attributeName="fill" to="#808080" begin="arrowLeft.mouseover" end="arrowLeft.mouseout"/>
                  </use>
                  <path fill="none" stroke="white" stroke-width="1.5" d="M0,-3.0v7 M-2.5,-0.5L0,-3.0L2.5,-0.5"/>
                </g>
        </g>
        <svg viewBox="0 0 15 15" width="100%" height="30px" preserveAspectRatio="xMaxYMin meet">
         <g id="arrow_out" transform="scale(0.3 0.3)">
          <a xlink:href="structMoFEM_1_1OpCalculateTensor2FieldValues__General__inherit__graph_org.svg" target="_base">
           <rect id="button" ry="5" rx="5" y="6" x="6" height="38" width="38"
                fill="#f2f5e9" fill-opacity="0.5" stroke="#606060" stroke-width="1.0"/>
           <path id="arrow"
             d="M 11.500037,31.436501 C 11.940474,20.09759 22.043105,11.32322 32.158766,21.979434 L 37.068811,17.246167 C 37.068811,17.246167 37.088388,32 37.088388,32 L 22.160133,31.978069 C 22.160133,31.978069 26.997745,27.140456 26.997745,27.140456 C 18.528582,18.264221 13.291696,25.230495 11.500037,31.436501 z"
             style="fill:#404040;"/>
          </a>
         </g>
        </svg>
</svg>
