<?xml version="1.0" encoding="UTF-8" standalone="no"?>
<!DOCTYPE svg PUBLIC "-//W3C//DTD SVG 1.1//EN"
 "http://www.w3.org/Graphics/SVG/1.1/DTD/svg11.dtd">
<!-- Generated by graphviz version 2.43.0 (0)
 -->
<!-- Title: OpFaceSide Pages: 1 -->
<svg width="199pt" height="218pt"
 viewBox="0.00 0.00 199.00 218.00" xmlns="http://www.w3.org/2000/svg" xmlns:xlink="http://www.w3.org/1999/xlink">
<g id="graph0" class="graph" transform="scale(1 1) rotate(0) translate(4 214)">
<title>OpFaceSide</title>
<polygon fill="white" stroke="transparent" points="-4,4 -4,-214 195,-214 195,4 -4,4"/>
<!-- Node1 -->
<g id="node1" class="node">
<title>Node1</title>
<g id="a_node1"><a xlink:title=" ">
<polygon fill="#bfbfbf" stroke="black" points="59,-0.5 59,-19.5 132,-19.5 132,-0.5 59,-0.5"/>
<text text-anchor="middle" x="95.5" y="-7.5" font-family="Helvetica,sans-Serif" font-size="10.00">OpFaceSide</text>
</a>
</g>
</g>
<!-- Node2 -->
<g id="node2" class="node">
<title>Node2</title>
<g id="a_node2"><a xlink:href="structMoFEM_1_1FaceElementForcesAndSourcesCore_1_1UserDataOperator.html" target="_top" xlink:title="default operator for TRI element">
<polygon fill="white" stroke="black" points="0,-56.5 0,-86.5 191,-86.5 191,-56.5 0,-56.5"/>
<text text-anchor="start" x="8" y="-74.5" font-family="Helvetica,sans-Serif" font-size="10.00">MoFEM::FaceElementForces</text>
<text text-anchor="middle" x="95.5" y="-63.5" font-family="Helvetica,sans-Serif" font-size="10.00">AndSourcesCore::UserDataOperator</text>
</a>
</g>
</g>
<!-- Node2&#45;&gt;Node1 -->
<g id="edge1" class="edge">
<title>Node2&#45;&gt;Node1</title>
<path fill="none" stroke="midnightblue" d="M95.5,-46.29C95.5,-36.86 95.5,-26.65 95.5,-19.66"/>
<polygon fill="midnightblue" stroke="midnightblue" points="92,-46.4 95.5,-56.4 99,-46.4 92,-46.4"/>
</g>
<!-- Node3 -->
<g id="node3" class="node">
<title>Node3</title>
<g id="a_node3"><a xlink:href="structMoFEM_1_1ForcesAndSourcesCore_1_1UserDataOperator.html" target="_top" xlink:title=" ">
<polygon fill="white" stroke="black" points="10.5,-123.5 10.5,-153.5 180.5,-153.5 180.5,-123.5 10.5,-123.5"/>
<text text-anchor="start" x="18.5" y="-141.5" font-family="Helvetica,sans-Serif" font-size="10.00">MoFEM::ForcesAndSourcesCore</text>
<text text-anchor="middle" x="95.5" y="-130.5" font-family="Helvetica,sans-Serif" font-size="10.00">::UserDataOperator</text>
</a>
</g>
</g>
<!-- Node3&#45;&gt;Node2 -->
<g id="edge2" class="edge">
<title>Node3&#45;&gt;Node2</title>
<path fill="none" stroke="midnightblue" d="M95.5,-113.11C95.5,-104.15 95.5,-94.32 95.5,-86.58"/>
<polygon fill="midnightblue" stroke="midnightblue" points="92,-113.4 95.5,-123.4 99,-113.4 92,-113.4"/>
</g>
<!-- Node4 -->
<g id="node4" class="node">
<title>Node4</title>
<g id="a_node4"><a xlink:href="structMoFEM_1_1DataOperator.html" target="_top" xlink:title="base operator to do operations at Gauss Pt. level">
<polygon fill="white" stroke="black" points="33,-190.5 33,-209.5 158,-209.5 158,-190.5 33,-190.5"/>
<text text-anchor="middle" x="95.5" y="-197.5" font-family="Helvetica,sans-Serif" font-size="10.00">MoFEM::DataOperator</text>
</a>
</g>
</g>
<!-- Node4&#45;&gt;Node3 -->
<g id="edge3" class="edge">
<title>Node4&#45;&gt;Node3</title>
<path fill="none" stroke="midnightblue" d="M95.5,-180.23C95.5,-171.59 95.5,-161.5 95.5,-153.52"/>
<polygon fill="midnightblue" stroke="midnightblue" points="92,-180.48 95.5,-190.48 99,-180.48 92,-180.48"/>
</g>
</g>
</svg>
