<?xml version="1.0" encoding="UTF-8" standalone="no"?>
<!DOCTYPE svg PUBLIC "-//W3C//DTD SVG 1.1//EN"
 "http://www.w3.org/Graphics/SVG/1.1/DTD/svg11.dtd">
<!-- Generated by graphviz version 2.43.0 (0)
 -->
<!-- Title: MoFEM::DefaultElementAdjacency Pages: 1 -->
<svg width="368pt" height="183pt"
 viewBox="0.00 0.00 367.50 183.00" xmlns="http://www.w3.org/2000/svg" xmlns:xlink="http://www.w3.org/1999/xlink">
<g id="graph0" class="graph" transform="scale(1 1) rotate(0) translate(4 179)">
<title>MoFEM::DefaultElementAdjacency</title>
<polygon fill="white" stroke="transparent" points="-4,4 -4,-179 363.5,-179 363.5,4 -4,4"/>
<!-- Node1 -->
<g id="node1" class="node">
<title>Node1</title>
<g id="a_node1"><a xlink:title="default adjacency map">
<polygon fill="#bfbfbf" stroke="black" points="79,-0.5 79,-19.5 264,-19.5 264,-0.5 79,-0.5"/>
<text text-anchor="middle" x="171.5" y="-7.5" font-family="Helvetica,sans-Serif" font-size="10.00">MoFEM::DefaultElementAdjacency</text>
</a>
</g>
</g>
<!-- Node2 -->
<g id="node2" class="node">
<title>Node2</title>
<g id="a_node2"><a xlink:title=" ">
<polygon fill="white" stroke="#bfbfbf" points="0,-144.5 0,-174.5 159,-174.5 159,-144.5 0,-144.5"/>
<text text-anchor="start" x="8" y="-162.5" font-family="Helvetica,sans-Serif" font-size="10.00">array&lt; const DefEntTypeMap</text>
<text text-anchor="middle" x="79.5" y="-151.5" font-family="Helvetica,sans-Serif" font-size="10.00"> *, MBMAXTYPE &gt;</text>
</a>
</g>
</g>
<!-- Node2&#45;&gt;Node1 -->
<g id="edge1" class="edge">
<title>Node2&#45;&gt;Node1</title>
<path fill="none" stroke="#9a32cd" stroke-dasharray="5,2" d="M93.68,-135.76C114.4,-102.55 151.98,-42.29 166.02,-19.79"/>
<polygon fill="#9a32cd" stroke="#9a32cd" points="90.64,-134.02 88.32,-144.36 96.58,-137.72 90.64,-134.02"/>
<text text-anchor="middle" x="186" y="-79.5" font-family="Helvetica,sans-Serif" font-size="10.00"> defTypeMap</text>
</g>
<!-- Node3 -->
<g id="node3" class="node">
<title>Node3</title>
<g id="a_node3"><a xlink:title=" ">
<polygon fill="white" stroke="#bfbfbf" points="177.5,-150 177.5,-169 351.5,-169 351.5,-150 177.5,-150"/>
<text text-anchor="middle" x="264.5" y="-157" font-family="Helvetica,sans-Serif" font-size="10.00">static constexpr DefEntTypeMap</text>
</a>
</g>
</g>
<!-- Node3&#45;&gt;Node1 -->
<g id="edge2" class="edge">
<title>Node3&#45;&gt;Node1</title>
<path fill="none" stroke="#9a32cd" stroke-dasharray="5,2" d="M262.05,-139.64C257.85,-113.97 247.09,-67.82 221.5,-38 214.56,-29.91 204.58,-23.85 195.35,-19.53"/>
<polygon fill="#9a32cd" stroke="#9a32cd" points="258.64,-140.48 263.55,-149.86 265.56,-139.46 258.64,-140.48"/>
<text text-anchor="middle" x="309" y="-118" font-family="Helvetica,sans-Serif" font-size="10.00"> defEdgeTypeMap</text>
<text text-anchor="middle" x="309" y="-107" font-family="Helvetica,sans-Serif" font-size="10.00">defVertexTypeMap</text>
<text text-anchor="middle" x="309" y="-96" font-family="Helvetica,sans-Serif" font-size="10.00">defMeshsetTypeMap</text>
<text text-anchor="middle" x="309" y="-85" font-family="Helvetica,sans-Serif" font-size="10.00">defHexTypeMap</text>
<text text-anchor="middle" x="309" y="-74" font-family="Helvetica,sans-Serif" font-size="10.00">defTetTypeMap</text>
<text text-anchor="middle" x="309" y="-63" font-family="Helvetica,sans-Serif" font-size="10.00">defQuadTypeMap</text>
<text text-anchor="middle" x="309" y="-52" font-family="Helvetica,sans-Serif" font-size="10.00">defTriTypeMap</text>
<text text-anchor="middle" x="309" y="-41" font-family="Helvetica,sans-Serif" font-size="10.00">defPrismTypeMap</text>
</g>
</g>
</svg>
