<?xml version="1.0" encoding="UTF-8" standalone="no"?>
<!DOCTYPE svg PUBLIC "-//W3C//DTD SVG 1.1//EN"
 "http://www.w3.org/Graphics/SVG/1.1/DTD/svg11.dtd">
<!-- Generated by graphviz version 9.0.0 (20230911.1827)
 -->
<!-- Title: FractureMechanics::GriffithForceElement::OpRhs Pages: 1 -->
<svg width="810pt" height="314pt"
 viewBox="0.00 0.00 809.50 313.88" xmlns="http://www.w3.org/2000/svg" xmlns:xlink="http://www.w3.org/1999/xlink">
<g id="graph0" class="graph" transform="scale(1 1) rotate(0) translate(4 309.88)">
<title>FractureMechanics::GriffithForceElement::OpRhs</title>
<!-- Node1 -->
<g id="node1" class="node">
<title>Node1</title>
<g id="a_node1"><a xlink:title=" ">
<polygon fill="#999999" stroke="#666666" points="801.5,-186.5 695.5,-186.5 695.5,-144.75 801.5,-144.75 801.5,-186.5"/>
<text text-anchor="start" x="703.5" y="-173" font-family="Helvetica,sans-Serif" font-size="10.00">FractureMechanics::</text>
<text text-anchor="start" x="703.5" y="-161.75" font-family="Helvetica,sans-Serif" font-size="10.00">GriffithForceElement</text>
<text text-anchor="middle" x="748.5" y="-150.5" font-family="Helvetica,sans-Serif" font-size="10.00">::OpRhs</text>
</a>
</g>
</g>
<!-- Node2 -->
<g id="node2" class="node">
<title>Node2</title>
<g id="a_node2"><a xlink:title=" ">
<polygon fill="white" stroke="#666666" points="658.5,-207.88 501.5,-207.88 501.5,-177.38 658.5,-177.38 658.5,-207.88"/>
<text text-anchor="start" x="509.5" y="-194.38" font-family="Helvetica,sans-Serif" font-size="10.00">FaceElementForcesAndSources</text>
<text text-anchor="middle" x="580" y="-183.12" font-family="Helvetica,sans-Serif" font-size="10.00">Core::UserDataOperator</text>
</a>
</g>
</g>
<!-- Node2&#45;&gt;Node1 -->
<g id="edge1" class="edge">
<title>Node2&#45;&gt;Node1</title>
<path fill="none" stroke="#63b8ff" d="M670.2,-178.16C678.78,-176.77 687.29,-175.39 695.34,-174.08"/>
<polygon fill="#63b8ff" stroke="#63b8ff" points="669.69,-174.7 660.38,-179.75 670.81,-181.61 669.69,-174.7"/>
</g>
<!-- Node3 -->
<g id="node3" class="node">
<title>Node3</title>
<g id="a_node3"><a xlink:href="struct_fracture_mechanics_1_1_griffith_force_element_1_1_aux_op.html" target="_top" xlink:title=" ">
<polygon fill="white" stroke="#666666" points="633,-159.5 527,-159.5 527,-117.75 633,-117.75 633,-159.5"/>
<text text-anchor="start" x="535" y="-146" font-family="Helvetica,sans-Serif" font-size="10.00">FractureMechanics::</text>
<text text-anchor="start" x="535" y="-134.75" font-family="Helvetica,sans-Serif" font-size="10.00">GriffithForceElement</text>
<text text-anchor="middle" x="580" y="-123.5" font-family="Helvetica,sans-Serif" font-size="10.00">::AuxOp</text>
</a>
</g>
</g>
<!-- Node3&#45;&gt;Node1 -->
<g id="edge2" class="edge">
<title>Node3&#45;&gt;Node1</title>
<path fill="none" stroke="#63b8ff" d="M644.58,-148.94C661.29,-151.65 679.13,-154.54 695.17,-157.14"/>
<polygon fill="#63b8ff" stroke="#63b8ff" points="645.15,-145.48 634.72,-147.34 644.03,-152.39 645.15,-145.48"/>
</g>
<!-- Node4 -->
<g id="node4" class="node">
<title>Node4</title>
<g id="a_node4"><a xlink:title=" ">
<polygon fill="white" stroke="#666666" points="321.9,-301.25 293.1,-301.25 293.1,-282 321.9,-282 321.9,-301.25"/>
<text text-anchor="middle" x="307.5" y="-287.75" font-family="Helvetica,sans-Serif" font-size="10.00">int</text>
</a>
</g>
</g>
<!-- Node4&#45;&gt;Node3 -->
<g id="edge3" class="edge">
<title>Node4&#45;&gt;Node3</title>
<path fill="none" stroke="#9a32cd" stroke-dasharray="5,2" d="M333.16,-294.46C371.02,-297.33 443.28,-296.67 483.5,-256.62 511.79,-228.46 475.73,-199.12 501.5,-168.62 508.2,-160.69 517.27,-154.85 526.83,-150.54"/>
<polygon fill="#9a32cd" stroke="#9a32cd" points="333.95,-291.02 323.67,-293.59 333.31,-297.99 333.95,-291.02"/>
<text text-anchor="middle" x="431" y="-296.38" font-family="Helvetica,sans-Serif" font-size="10.00"> tAg</text>
</g>
<!-- Node5 -->
<g id="node5" class="node">
<title>Node5</title>
<g id="a_node5"><a xlink:href="struct_fracture_mechanics_1_1_griffith_force_element_1_1_block_data.html" target="_top" xlink:title=" ">
<polygon fill="white" stroke="#666666" points="360.5,-263.5 254.5,-263.5 254.5,-221.75 360.5,-221.75 360.5,-263.5"/>
<text text-anchor="start" x="262.5" y="-250" font-family="Helvetica,sans-Serif" font-size="10.00">FractureMechanics::</text>
<text text-anchor="start" x="262.5" y="-238.75" font-family="Helvetica,sans-Serif" font-size="10.00">GriffithForceElement</text>
<text text-anchor="middle" x="307.5" y="-227.5" font-family="Helvetica,sans-Serif" font-size="10.00">::BlockData</text>
</a>
</g>
</g>
<!-- Node5&#45;&gt;Node3 -->
<g id="edge4" class="edge">
<title>Node5&#45;&gt;Node3</title>
<path fill="none" stroke="#9a32cd" stroke-dasharray="5,2" d="M372.09,-243.05C408.12,-240.23 452.13,-231.26 483.5,-206.62 498.2,-195.08 487.81,-181.35 501.5,-168.62 508.69,-161.95 517.52,-156.7 526.63,-152.59"/>
<polygon fill="#9a32cd" stroke="#9a32cd" points="371.97,-239.55 362.21,-243.67 372.4,-246.54 371.97,-239.55"/>
<text text-anchor="middle" x="431" y="-243.38" font-family="Helvetica,sans-Serif" font-size="10.00"> blockData</text>
</g>
<!-- Node6 -->
<g id="node6" class="node">
<title>Node6</title>
<g id="a_node6"><a xlink:href="classdouble.html" target="_top" xlink:title=" ">
<polygon fill="white" stroke="#666666" points="70.38,-280.25 25.88,-280.25 25.88,-261 70.38,-261 70.38,-280.25"/>
<text text-anchor="middle" x="48.12" y="-266.75" font-family="Helvetica,sans-Serif" font-size="10.00">double</text>
</a>
</g>
</g>
<!-- Node6&#45;&gt;Node5 -->
<g id="edge5" class="edge">
<title>Node6&#45;&gt;Node5</title>
<path fill="none" stroke="#9a32cd" stroke-dasharray="5,2" d="M81.94,-267.05C125.41,-262.33 202.59,-253.93 254.16,-248.32"/>
<polygon fill="#9a32cd" stroke="#9a32cd" points="81.69,-263.56 72.13,-268.12 82.45,-270.52 81.69,-263.56"/>
<text text-anchor="middle" x="175.38" y="-286.88" font-family="Helvetica,sans-Serif" font-size="10.00"> E</text>
<text text-anchor="middle" x="175.38" y="-275.62" font-family="Helvetica,sans-Serif" font-size="10.00">gc</text>
<text text-anchor="middle" x="175.38" y="-264.38" font-family="Helvetica,sans-Serif" font-size="10.00">r</text>
</g>
<!-- Node7 -->
<g id="node7" class="node">
<title>Node7</title>
<g id="a_node7"><a xlink:href="class_range.html" target="_top" xlink:title=" ">
<polygon fill="white" stroke="#666666" points="70.38,-243.25 25.88,-243.25 25.88,-224 70.38,-224 70.38,-243.25"/>
<text text-anchor="middle" x="48.12" y="-229.75" font-family="Helvetica,sans-Serif" font-size="10.00">Range</text>
</a>
</g>
</g>
<!-- Node7&#45;&gt;Node5 -->
<g id="edge6" class="edge">
<title>Node7&#45;&gt;Node5</title>
<path fill="none" stroke="#9a32cd" stroke-dasharray="5,2" d="M81.99,-233.74C119.42,-233.99 182.39,-234.81 236.5,-237.38 242.22,-237.65 248.2,-238 254.15,-238.38"/>
<polygon fill="#9a32cd" stroke="#9a32cd" points="82.31,-230.24 72.29,-233.68 82.27,-237.24 82.31,-230.24"/>
<text text-anchor="middle" x="175.38" y="-238.38" font-family="Helvetica,sans-Serif" font-size="10.00"> frontNodes</text>
</g>
<!-- Node8 -->
<g id="node8" class="node">
<title>Node8</title>
<g id="a_node8"><a xlink:href="struct_fracture_mechanics_1_1_griffith_force_element_1_1_common_data.html" target="_top" xlink:title=" ">
<polygon fill="white" stroke="#666666" points="360.5,-156.5 254.5,-156.5 254.5,-114.75 360.5,-114.75 360.5,-156.5"/>
<text text-anchor="start" x="262.5" y="-143" font-family="Helvetica,sans-Serif" font-size="10.00">FractureMechanics::</text>
<text text-anchor="start" x="262.5" y="-131.75" font-family="Helvetica,sans-Serif" font-size="10.00">GriffithForceElement</text>
<text text-anchor="middle" x="307.5" y="-120.5" font-family="Helvetica,sans-Serif" font-size="10.00">::CommonData</text>
</a>
</g>
</g>
<!-- Node8&#45;&gt;Node3 -->
<g id="edge7" class="edge">
<title>Node8&#45;&gt;Node3</title>
<path fill="none" stroke="#9a32cd" stroke-dasharray="5,2" d="M372.26,-136.33C419.32,-136.85 482.57,-137.56 526.67,-138.04"/>
<polygon fill="#9a32cd" stroke="#9a32cd" points="372.53,-132.83 362.49,-136.22 372.45,-139.83 372.53,-132.83"/>
<text text-anchor="middle" x="431" y="-138.38" font-family="Helvetica,sans-Serif" font-size="10.00"> commonData</text>
</g>
<!-- Node9 -->
<g id="node9" class="node">
<title>Node9</title>
<g id="a_node9"><a xlink:title=" ">
<polygon fill="white" stroke="#666666" points="85.75,-183.25 10.5,-183.25 10.5,-164 85.75,-164 85.75,-183.25"/>
<text text-anchor="middle" x="48.12" y="-169.75" font-family="Helvetica,sans-Serif" font-size="10.00">VectorDouble</text>
</a>
</g>
</g>
<!-- Node9&#45;&gt;Node3 -->
<g id="edge14" class="edge">
<title>Node9&#45;&gt;Node3</title>
<path fill="none" stroke="#9a32cd" stroke-dasharray="5,2" d="M96.99,-177.72C102.8,-178.09 108.66,-178.41 114.25,-178.62 278.68,-184.93 320.22,-172.03 483.5,-151.62 497.61,-149.86 512.88,-147.84 526.98,-145.92"/>
<polygon fill="#9a32cd" stroke="#9a32cd" points="97.68,-174.26 87.46,-177.05 97.19,-181.24 97.68,-174.26"/>
<text text-anchor="middle" x="307.5" y="-179.38" font-family="Helvetica,sans-Serif" font-size="10.00"> activeVariables</text>
</g>
<!-- Node9&#45;&gt;Node8 -->
<g id="edge8" class="edge">
<title>Node9&#45;&gt;Node8</title>
<path fill="none" stroke="#9a32cd" stroke-dasharray="5,2" d="M93.38,-160.74C100.32,-159.01 107.45,-157.39 114.25,-156.12 161.27,-147.36 215.51,-142 254.37,-138.97"/>
<polygon fill="#9a32cd" stroke="#9a32cd" points="92.95,-157.24 84.16,-163.15 94.72,-164.01 92.95,-157.24"/>
<text text-anchor="middle" x="175.38" y="-168.62" font-family="Helvetica,sans-Serif" font-size="10.00"> densityRho</text>
<text text-anchor="middle" x="175.38" y="-157.38" font-family="Helvetica,sans-Serif" font-size="10.00">griffithForce</text>
</g>
<!-- Node10 -->
<g id="node10" class="node">
<title>Node10</title>
<g id="a_node10"><a xlink:title=" ">
<polygon fill="white" stroke="#666666" points="85,-118.25 11.25,-118.25 11.25,-99 85,-99 85,-118.25"/>
<text text-anchor="middle" x="48.12" y="-104.75" font-family="Helvetica,sans-Serif" font-size="10.00">MatrixDouble</text>
</a>
</g>
</g>
<!-- Node10&#45;&gt;Node8 -->
<g id="edge9" class="edge">
<title>Node10&#45;&gt;Node8</title>
<path fill="none" stroke="#9a32cd" stroke-dasharray="5,2" d="M96.66,-104.58C134.78,-102.39 189.5,-101.64 236.5,-110.12 242.35,-111.18 248.37,-112.68 254.29,-114.43"/>
<polygon fill="#9a32cd" stroke="#9a32cd" points="96.65,-101.07 86.9,-105.2 97.1,-108.06 96.65,-101.07"/>
<text text-anchor="middle" x="175.38" y="-122.62" font-family="Helvetica,sans-Serif" font-size="10.00"> diffRho</text>
<text text-anchor="middle" x="175.38" y="-111.38" font-family="Helvetica,sans-Serif" font-size="10.00">tangentGriffithForce</text>
</g>
<!-- Node11 -->
<g id="node11" class="node">
<title>Node11</title>
<g id="a_node11"><a xlink:title=" ">
<polygon fill="white" stroke="#666666" points="96.25,-81.25 0,-81.25 0,-62 96.25,-62 96.25,-81.25"/>
<text text-anchor="middle" x="48.12" y="-67.75" font-family="Helvetica,sans-Serif" font-size="10.00">vector&lt; double * &gt;</text>
</a>
</g>
</g>
<!-- Node11&#45;&gt;Node8 -->
<g id="edge10" class="edge">
<title>Node11&#45;&gt;Node8</title>
<path fill="none" stroke="#9a32cd" stroke-dasharray="5,2" d="M107.98,-66.34C146.31,-65.3 196.45,-68.61 236.5,-87.38 246.82,-92.21 245.48,-98.66 254.5,-105.62 258.38,-108.62 262.58,-111.53 266.87,-114.28"/>
<polygon fill="#9a32cd" stroke="#9a32cd" points="107.85,-62.84 98,-66.73 108.12,-69.83 107.85,-62.84"/>
<text text-anchor="middle" x="175.38" y="-88.38" font-family="Helvetica,sans-Serif" font-size="10.00"> tangentGriffithForceRowPtr</text>
</g>
<!-- Node12 -->
<g id="node12" class="node">
<title>Node12</title>
<g id="a_node12"><a xlink:title=" ">
<polygon fill="white" stroke="#666666" points="343.25,-96.25 271.75,-96.25 271.75,-77 343.25,-77 343.25,-96.25"/>
<text text-anchor="middle" x="307.5" y="-82.75" font-family="Helvetica,sans-Serif" font-size="10.00">vector&lt; int &gt;</text>
</a>
</g>
</g>
<!-- Node12&#45;&gt;Node3 -->
<g id="edge11" class="edge">
<title>Node12&#45;&gt;Node3</title>
<path fill="none" stroke="#9a32cd" stroke-dasharray="5,2" d="M355.11,-90.42C390.58,-93.84 440.47,-99.78 483.5,-109.12 497.66,-112.2 512.74,-116.41 526.64,-120.68"/>
<polygon fill="#9a32cd" stroke="#9a32cd" points="355.45,-86.94 345.17,-89.5 354.81,-93.91 355.45,-86.94"/>
<text text-anchor="middle" x="431" y="-121.62" font-family="Helvetica,sans-Serif" font-size="10.00"> rowIndices</text>
<text text-anchor="middle" x="431" y="-110.38" font-family="Helvetica,sans-Serif" font-size="10.00">rowIndicesLocal</text>
</g>
<!-- Node13 -->
<g id="node13" class="node">
<title>Node13</title>
<g id="a_node13"><a xlink:title=" ">
<polygon fill="white" stroke="#666666" points="338,-56.25 277,-56.25 277,-37 338,-37 338,-56.25"/>
<text text-anchor="middle" x="307.5" y="-42.75" font-family="Helvetica,sans-Serif" font-size="10.00">VectorInt3</text>
</a>
</g>
</g>
<!-- Node13&#45;&gt;Node3 -->
<g id="edge12" class="edge">
<title>Node13&#45;&gt;Node3</title>
<path fill="none" stroke="#9a32cd" stroke-dasharray="5,2" d="M349.64,-45.13C386.08,-45.2 440.08,-48.78 483.5,-66.12 512.5,-77.71 540.3,-100.61 558.35,-117.59"/>
<polygon fill="#9a32cd" stroke="#9a32cd" points="349.94,-41.62 339.97,-45.2 350,-48.62 349.94,-41.62"/>
<text text-anchor="middle" x="431" y="-79.62" font-family="Helvetica,sans-Serif" font-size="10.00"> rowLambdaIndices</text>
<text text-anchor="middle" x="431" y="-68.38" font-family="Helvetica,sans-Serif" font-size="10.00">rowLambdaIndicesLocal</text>
</g>
<!-- Node14 -->
<g id="node14" class="node">
<title>Node14</title>
<g id="a_node14"><a xlink:title=" ">
<polygon fill="white" stroke="#666666" points="347.75,-19.25 267.25,-19.25 267.25,0 347.75,0 347.75,-19.25"/>
<text text-anchor="middle" x="307.5" y="-5.75" font-family="Helvetica,sans-Serif" font-size="10.00">VectorDouble3</text>
</a>
</g>
</g>
<!-- Node14&#45;&gt;Node3 -->
<g id="edge13" class="edge">
<title>Node14&#45;&gt;Node3</title>
<path fill="none" stroke="#9a32cd" stroke-dasharray="5,2" d="M359.41,-6.7C395.92,-6.73 445.22,-11.28 483.5,-31.38 521.25,-51.19 551.18,-92.39 566.89,-117.56"/>
<polygon fill="#9a32cd" stroke="#9a32cd" points="359.51,-3.2 349.55,-6.82 359.59,-10.2 359.51,-3.2"/>
<text text-anchor="middle" x="431" y="-33.38" font-family="Helvetica,sans-Serif" font-size="10.00"> lambdaAtNodes</text>
</g>
</g>
</svg>
