<?xml version="1.0" encoding="UTF-8" standalone="no"?>
<!DOCTYPE svg PUBLIC "-//W3C//DTD SVG 1.1//EN"
 "http://www.w3.org/Graphics/SVG/1.1/DTD/svg11.dtd">
<!-- Generated by graphviz version 2.43.0 (0)
 -->
<!-- Title: MoFEM::OpMassImpl&lt; BASE_DIM, FIELD_DIM, I, OpBase &gt; Pages: 1 -->
<svg width="177pt" height="207pt"
 viewBox="0.00 0.00 177.00 207.00" xmlns="http://www.w3.org/2000/svg" xmlns:xlink="http://www.w3.org/1999/xlink">
<g id="graph0" class="graph" transform="scale(1 1) rotate(0) translate(4 203)">
<title>MoFEM::OpMassImpl&lt; BASE_DIM, FIELD_DIM, I, OpBase &gt;</title>
<polygon fill="white" stroke="transparent" points="-4,4 -4,-203 173,-203 173,4 -4,4"/>
<!-- Node1 -->
<g id="node1" class="node">
<title>Node1</title>
<g id="a_node1"><a xlink:title=" ">
<polygon fill="#bfbfbf" stroke="black" points="12.5,-157.5 12.5,-198.5 143.5,-198.5 143.5,-157.5 12.5,-157.5"/>
<text text-anchor="start" x="20.5" y="-186.5" font-family="Helvetica,sans-Serif" font-size="10.00">MoFEM::OpMassImpl&lt;</text>
<text text-anchor="start" x="20.5" y="-175.5" font-family="Helvetica,sans-Serif" font-size="10.00"> BASE_DIM, FIELD_DIM,</text>
<text text-anchor="middle" x="78" y="-164.5" font-family="Helvetica,sans-Serif" font-size="10.00"> I, OpBase &gt;</text>
</a>
</g>
</g>
<!-- Node2 -->
<g id="node2" class="node">
<title>Node2</title>
<g id="a_node2"><a xlink:href="structMoFEM_1_1OpMassImpl.html" target="_top" xlink:title=" ">
<polygon fill="white" stroke="black" points="4,-68.5 4,-98.5 152,-98.5 152,-68.5 4,-68.5"/>
<text text-anchor="start" x="12" y="-86.5" font-family="Helvetica,sans-Serif" font-size="10.00">MoFEM::OpMassImpl&lt;</text>
<text text-anchor="middle" x="78" y="-75.5" font-family="Helvetica,sans-Serif" font-size="10.00"> 1, FIELD_DIM, I, OpBase &gt;</text>
</a>
</g>
</g>
<!-- Node1&#45;&gt;Node2 -->
<g id="edge1" class="edge">
<title>Node1&#45;&gt;Node2</title>
<path fill="none" stroke="orange" stroke-dasharray="5,2" d="M78,-147.24C78,-130.96 78,-111.54 78,-98.66"/>
<polygon fill="orange" stroke="orange" points="74.5,-147.38 78,-157.38 81.5,-147.38 74.5,-147.38"/>
<text text-anchor="start" x="78" y="-131" font-family="Helvetica,sans-Serif" font-size="10.00"> &lt; 1, FIELD_DIM, I,</text>
<text text-anchor="middle" x="123.5" y="-120" font-family="Helvetica,sans-Serif" font-size="10.00"> OpBase &gt;</text>
</g>
<!-- Node3 -->
<g id="node3" class="node">
<title>Node3</title>
<g id="a_node3"><a xlink:href="structMoFEM_1_1OpMassCacheImpl_3_011_00_01FIELD__DIM_00_01I_00_01OpBase_01_4.html" target="_top" xlink:title=" ">
<polygon fill="white" stroke="black" points="0,-0.5 0,-30.5 156,-30.5 156,-0.5 0,-0.5"/>
<text text-anchor="start" x="8" y="-18.5" font-family="Helvetica,sans-Serif" font-size="10.00">MoFEM::OpMassCacheImpl</text>
<text text-anchor="middle" x="78" y="-7.5" font-family="Helvetica,sans-Serif" font-size="10.00">&lt; 1, FIELD_DIM, I, OpBase &gt;</text>
</a>
</g>
</g>
<!-- Node2&#45;&gt;Node3 -->
<g id="edge2" class="edge">
<title>Node2&#45;&gt;Node3</title>
<path fill="none" stroke="midnightblue" d="M78,-58.03C78,-48.86 78,-38.74 78,-30.79"/>
<polygon fill="midnightblue" stroke="midnightblue" points="74.5,-58.18 78,-68.18 81.5,-58.18 74.5,-58.18"/>
</g>
</g>
</svg>
