<?xml version="1.0" encoding="UTF-8" standalone="no"?>
<!DOCTYPE svg PUBLIC "-//W3C//DTD SVG 1.1//EN"
 "http://www.w3.org/Graphics/SVG/1.1/DTD/svg11.dtd">
<!-- Generated by graphviz version 9.0.0 (20230911.1827)
 -->
<!-- Title: MoFEM::SmartPetscObj&lt; OBJ &gt; Pages: 1 -->
<!--zoomable 480 -->
<svg id="main" version="1.1" xmlns="http://www.w3.org/2000/svg" xmlns:xlink="http://www.w3.org/1999/xlink" xml:space="preserve" onload="init(evt)">
<style type="text/css"><![CDATA[
.edge:hover path { stroke: red; }
.edge:hover polygon { stroke: red; fill: red; }
]]></style>
<script type="text/javascript"><![CDATA[
var edges = document.getElementsByTagName('g');
if (edges && edges.length) {
  for (var i=0;i<edges.length;i++) {
    if (edges[i].id.substr(0,4)=='edge') {
      edges[i].setAttribute('class','edge');
    }
  }
}
]]></script>
        <defs>
                <circle id="rim" cx="0" cy="0" r="7"/>
                <circle id="rim2" cx="0" cy="0" r="3.5"/>
                <g id="zoomPlus">
                        <use xlink:href="#rim" fill="#404040">
                                <set attributeName="fill" to="#808080" begin="zoomplus.mouseover" end="zoomplus.mouseout"/>
                        </use>
                        <path d="M-4,0h8M0,-4v8" fill="none" stroke="white" stroke-width="1.5" pointer-events="none"/>
                </g>
                <g id="zoomMin">
                        <use xlink:href="#rim" fill="#404040">
                                <set attributeName="fill" to="#808080" begin="zoomminus.mouseover" end="zoomminus.mouseout"/>
                        </use>
                        <path d="M-4,0h8" fill="none" stroke="white" stroke-width="1.5" pointer-events="none"/>
                </g>
                <g id="dirArrow">
                        <path fill="none" stroke="white" stroke-width="1.5" d="M0,-3.0v7 M-2.5,-0.5L0,-3.0L2.5,-0.5"/>
                </g>
               <g id="resetDef">
                       <use xlink:href="#rim2" fill="#404040">
                               <set attributeName="fill" to="#808080" begin="reset.mouseover" end="reset.mouseout"/>
                       </use>
               </g>
        </defs>

<script type="text/javascript">
var viewWidth = 488;
var viewHeight = 480;
var sectionId = 'dynsection-0';
</script>
<script xlink:href="svgpan.js"/>
<svg id="graph" class="graph">
<g id="viewport">
<title>MoFEM::SmartPetscObj&lt; OBJ &gt;</title>
<!-- Node1 -->
<g id="node1" class="node">
<title>Node1</title>
<g id="a_node1"><a xlink:title="intrusive_ptr for managing petsc objects">
<polygon fill="#999999" stroke="#666666" points="271.5,-250.5 148.25,-250.5 148.25,-220 271.5,-220 271.5,-250.5"/>
<text text-anchor="start" x="156.25" y="-237" font-family="Helvetica,sans-Serif" font-size="10.00">MoFEM::SmartPetscObj</text>
<text text-anchor="middle" x="209.88" y="-225.75" font-family="Helvetica,sans-Serif" font-size="10.00">&lt; OBJ &gt;</text>
</a>
</g>
</g>
<!-- Node3 -->
<g id="node3" class="node">
<title>Node3</title>
<g id="a_node3"><a xlink:href="struct_mo_f_e_m_1_1_smart_petsc_obj.html" target="_top" xlink:title=" ">
<polygon fill="white" stroke="#666666" points="479.5,-471.5 356.25,-471.5 356.25,-441 479.5,-441 479.5,-471.5"/>
<text text-anchor="start" x="364.25" y="-458" font-family="Helvetica,sans-Serif" font-size="10.00">MoFEM::SmartPetscObj</text>
<text text-anchor="middle" x="417.88" y="-446.75" font-family="Helvetica,sans-Serif" font-size="10.00">&lt; Vec &gt;</text>
</a>
</g>
</g>
<!-- Node1&#45;&gt;Node3 -->
<g id="edge2" class="edge">
<title>Node1&#45;&gt;Node3</title>
<path fill="none" stroke="orange" stroke-dasharray="5,2" d="M219.99,-261.67C232.07,-293.84 255.84,-348.55 289.5,-386.25 311.77,-411.19 345.11,-429.07 372.09,-440.51"/>
<polygon fill="orange" stroke="orange" points="223.3,-260.53 216.59,-252.33 216.72,-262.92 223.3,-260.53"/>
<text text-anchor="middle" x="313.88" y="-424" font-family="Helvetica,sans-Serif" font-size="10.00"> &lt; Vec &gt;</text>
</g>
<!-- Node4 -->
<g id="node4" class="node">
<title>Node4</title>
<g id="a_node4"><a xlink:href="struct_mo_f_e_m_1_1_smart_petsc_obj.html" target="_top" xlink:title=" ">
<polygon fill="white" stroke="#666666" points="479.5,-422.5 356.25,-422.5 356.25,-392 479.5,-392 479.5,-422.5"/>
<text text-anchor="start" x="364.25" y="-409" font-family="Helvetica,sans-Serif" font-size="10.00">MoFEM::SmartPetscObj</text>
<text text-anchor="middle" x="417.88" y="-397.75" font-family="Helvetica,sans-Serif" font-size="10.00">&lt; Mat &gt;</text>
</a>
</g>
</g>
<!-- Node1&#45;&gt;Node4 -->
<g id="edge3" class="edge">
<title>Node1&#45;&gt;Node4</title>
<path fill="none" stroke="orange" stroke-dasharray="5,2" d="M226.45,-260.24C241.02,-282.36 264.25,-314.69 289.5,-338.25 315.48,-362.49 324.85,-365.62 356.25,-382.25 362.49,-385.55 369.26,-388.72 375.94,-391.63"/>
<polygon fill="orange" stroke="orange" points="229.59,-258.63 221.22,-252.13 223.71,-262.43 229.59,-258.63"/>
<text text-anchor="middle" x="313.88" y="-373" font-family="Helvetica,sans-Serif" font-size="10.00"> &lt; Mat &gt;</text>
</g>
<!-- Node5 -->
<g id="node5" class="node">
<title>Node5</title>
<g id="a_node5"><a xlink:href="struct_mo_f_e_m_1_1_smart_petsc_obj.html" target="_top" xlink:title=" ">
<polygon fill="white" stroke="#666666" points="479.5,-373.5 356.25,-373.5 356.25,-343 479.5,-343 479.5,-373.5"/>
<text text-anchor="start" x="364.25" y="-360" font-family="Helvetica,sans-Serif" font-size="10.00">MoFEM::SmartPetscObj</text>
<text text-anchor="middle" x="417.88" y="-348.75" font-family="Helvetica,sans-Serif" font-size="10.00">&lt; KSP &gt;</text>
</a>
</g>
</g>
<!-- Node1&#45;&gt;Node5 -->
<g id="edge4" class="edge">
<title>Node1&#45;&gt;Node5</title>
<path fill="none" stroke="orange" stroke-dasharray="5,2" d="M237.98,-257.95C252.8,-269.92 271.7,-284.51 289.5,-296.25 317.82,-314.92 325.69,-318.54 356.25,-333.25 362.92,-336.46 370.11,-339.65 377.13,-342.63"/>
<polygon fill="orange" stroke="orange" points="240.47,-255.46 230.51,-251.84 236.04,-260.88 240.47,-255.46"/>
<text text-anchor="middle" x="313.88" y="-325" font-family="Helvetica,sans-Serif" font-size="10.00"> &lt; KSP &gt;</text>
</g>
<!-- Node6 -->
<g id="node6" class="node">
<title>Node6</title>
<g id="a_node6"><a xlink:href="struct_mo_f_e_m_1_1_smart_petsc_obj.html" target="_top" xlink:title=" ">
<polygon fill="white" stroke="#666666" points="479.5,-324.5 356.25,-324.5 356.25,-294 479.5,-294 479.5,-324.5"/>
<text text-anchor="start" x="364.25" y="-311" font-family="Helvetica,sans-Serif" font-size="10.00">MoFEM::SmartPetscObj</text>
<text text-anchor="middle" x="417.88" y="-299.75" font-family="Helvetica,sans-Serif" font-size="10.00">&lt; DM &gt;</text>
</a>
</g>
</g>
<!-- Node1&#45;&gt;Node6 -->
<g id="edge5" class="edge">
<title>Node1&#45;&gt;Node6</title>
<path fill="none" stroke="orange" stroke-dasharray="5,2" d="M261.79,-254.95C270.99,-258.43 280.52,-261.99 289.5,-265.25 316.11,-274.92 346.02,-285.28 370.17,-293.51"/>
<polygon fill="orange" stroke="orange" points="263.19,-251.74 252.6,-251.45 260.7,-258.28 263.19,-251.74"/>
<text text-anchor="middle" x="313.88" y="-283" font-family="Helvetica,sans-Serif" font-size="10.00"> &lt; DM &gt;</text>
</g>
<!-- Node7 -->
<g id="node7" class="node">
<title>Node7</title>
<g id="a_node7"><a xlink:href="struct_mo_f_e_m_1_1_smart_petsc_obj.html" target="_top" xlink:title=" ">
<polygon fill="white" stroke="#666666" points="479.5,-275.5 356.25,-275.5 356.25,-245 479.5,-245 479.5,-275.5"/>
<text text-anchor="start" x="364.25" y="-262" font-family="Helvetica,sans-Serif" font-size="10.00">MoFEM::SmartPetscObj</text>
<text text-anchor="middle" x="417.88" y="-250.75" font-family="Helvetica,sans-Serif" font-size="10.00">&lt; TS &gt;</text>
</a>
</g>
</g>
<!-- Node1&#45;&gt;Node7 -->
<g id="edge6" class="edge">
<title>Node1&#45;&gt;Node7</title>
<path fill="none" stroke="orange" stroke-dasharray="5,2" d="M282.98,-244C306.84,-246.9 333.13,-250.09 356.06,-252.87"/>
<polygon fill="orange" stroke="orange" points="283.7,-240.56 273.35,-242.83 282.85,-247.51 283.7,-240.56"/>
<text text-anchor="middle" x="313.88" y="-252" font-family="Helvetica,sans-Serif" font-size="10.00"> &lt; TS &gt;</text>
</g>
<!-- Node8 -->
<g id="node8" class="node">
<title>Node8</title>
<g id="a_node8"><a xlink:href="struct_mo_f_e_m_1_1_smart_petsc_obj.html" target="_top" xlink:title=" ">
<polygon fill="white" stroke="#666666" points="479.5,-226.5 356.25,-226.5 356.25,-196 479.5,-196 479.5,-226.5"/>
<text text-anchor="start" x="364.25" y="-213" font-family="Helvetica,sans-Serif" font-size="10.00">MoFEM::SmartPetscObj</text>
<text text-anchor="middle" x="417.88" y="-201.75" font-family="Helvetica,sans-Serif" font-size="10.00">&lt; EPS &gt;</text>
</a>
</g>
</g>
<!-- Node1&#45;&gt;Node8 -->
<g id="edge7" class="edge">
<title>Node1&#45;&gt;Node8</title>
<path fill="none" stroke="orange" stroke-dasharray="5,2" d="M282.98,-226.85C306.84,-224.07 333.13,-221.01 356.06,-218.34"/>
<polygon fill="orange" stroke="orange" points="282.88,-223.34 273.35,-227.97 283.69,-230.29 282.88,-223.34"/>
<text text-anchor="middle" x="313.88" y="-228" font-family="Helvetica,sans-Serif" font-size="10.00"> &lt; EPS &gt;</text>
</g>
<!-- Node9 -->
<g id="node9" class="node">
<title>Node9</title>
<g id="a_node9"><a xlink:href="struct_mo_f_e_m_1_1_smart_petsc_obj.html" target="_top" xlink:title=" ">
<polygon fill="white" stroke="#666666" points="479.5,-177.5 356.25,-177.5 356.25,-147 479.5,-147 479.5,-177.5"/>
<text text-anchor="start" x="364.25" y="-164" font-family="Helvetica,sans-Serif" font-size="10.00">MoFEM::SmartPetscObj</text>
<text text-anchor="middle" x="417.88" y="-152.75" font-family="Helvetica,sans-Serif" font-size="10.00">&lt; PEP &gt;</text>
</a>
</g>
</g>
<!-- Node1&#45;&gt;Node9 -->
<g id="edge8" class="edge">
<title>Node1&#45;&gt;Node9</title>
<path fill="none" stroke="orange" stroke-dasharray="5,2" d="M263.01,-215.64C271.84,-212.38 280.92,-209.07 289.5,-206 316.14,-196.47 346.05,-186.18 370.19,-177.97"/>
<polygon fill="orange" stroke="orange" points="262,-212.28 253.84,-219.04 264.44,-218.85 262,-212.28"/>
<text text-anchor="middle" x="313.88" y="-208" font-family="Helvetica,sans-Serif" font-size="10.00"> &lt; PEP &gt;</text>
</g>
<!-- Node10 -->
<g id="node10" class="node">
<title>Node10</title>
<g id="a_node10"><a xlink:href="struct_mo_f_e_m_1_1_smart_petsc_obj.html" target="_top" xlink:title=" ">
<polygon fill="white" stroke="#666666" points="479.5,-128.5 356.25,-128.5 356.25,-98 479.5,-98 479.5,-128.5"/>
<text text-anchor="start" x="364.25" y="-115" font-family="Helvetica,sans-Serif" font-size="10.00">MoFEM::SmartPetscObj</text>
<text text-anchor="middle" x="417.88" y="-103.75" font-family="Helvetica,sans-Serif" font-size="10.00">&lt; AO &gt;</text>
</a>
</g>
</g>
<!-- Node1&#45;&gt;Node10 -->
<g id="edge9" class="edge">
<title>Node1&#45;&gt;Node10</title>
<path fill="none" stroke="orange" stroke-dasharray="5,2" d="M238.31,-212.6C253.08,-200.83 271.85,-186.53 289.5,-175 317.85,-156.48 325.71,-152.89 356.25,-138.25 362.92,-135.05 370.12,-131.86 377.13,-128.89"/>
<polygon fill="orange" stroke="orange" points="236.44,-209.61 230.85,-218.61 240.83,-215.06 236.44,-209.61"/>
<text text-anchor="middle" x="313.88" y="-177" font-family="Helvetica,sans-Serif" font-size="10.00"> &lt; AO &gt;</text>
</g>
<!-- Node11 -->
<g id="node11" class="node">
<title>Node11</title>
<g id="a_node11"><a xlink:href="struct_mo_f_e_m_1_1_smart_petsc_obj.html" target="_top" xlink:title=" ">
<polygon fill="white" stroke="#666666" points="479.5,-79.5 356.25,-79.5 356.25,-49 479.5,-49 479.5,-79.5"/>
<text text-anchor="start" x="364.25" y="-66" font-family="Helvetica,sans-Serif" font-size="10.00">MoFEM::SmartPetscObj</text>
<text text-anchor="middle" x="417.88" y="-54.75" font-family="Helvetica,sans-Serif" font-size="10.00">&lt; IS &gt;</text>
</a>
</g>
</g>
<!-- Node1&#45;&gt;Node11 -->
<g id="edge10" class="edge">
<title>Node1&#45;&gt;Node11</title>
<path fill="none" stroke="orange" stroke-dasharray="5,2" d="M226.37,-210.12C240.87,-187.89 264.07,-155.44 289.5,-132 315.4,-108.12 325.01,-105.53 356.25,-89.25 362.51,-85.99 369.29,-82.84 375.98,-79.94"/>
<polygon fill="orange" stroke="orange" points="223.6,-207.96 221.16,-218.27 229.49,-211.73 223.6,-207.96"/>
<text text-anchor="middle" x="313.88" y="-134" font-family="Helvetica,sans-Serif" font-size="10.00"> &lt; IS &gt;</text>
</g>
<!-- Node12 -->
<g id="node12" class="node">
<title>Node12</title>
<g id="a_node12"><a xlink:href="struct_mo_f_e_m_1_1_smart_petsc_obj.html" target="_top" xlink:title=" ">
<polygon fill="white" stroke="#666666" points="479.5,-30.5 356.25,-30.5 356.25,0 479.5,0 479.5,-30.5"/>
<text text-anchor="start" x="364.25" y="-17" font-family="Helvetica,sans-Serif" font-size="10.00">MoFEM::SmartPetscObj</text>
<text text-anchor="middle" x="417.88" y="-5.75" font-family="Helvetica,sans-Serif" font-size="10.00">&lt; SNES &gt;</text>
</a>
</g>
</g>
<!-- Node1&#45;&gt;Node12 -->
<g id="edge11" class="edge">
<title>Node1&#45;&gt;Node12</title>
<path fill="none" stroke="orange" stroke-dasharray="5,2" d="M219.9,-208.72C231.88,-176.42 255.56,-121.54 289.5,-84 311.58,-59.58 344.41,-42.15 371.22,-30.95"/>
<polygon fill="orange" stroke="orange" points="216.62,-207.5 216.53,-218.1 223.2,-209.87 216.62,-207.5"/>
<text text-anchor="middle" x="313.88" y="-86" font-family="Helvetica,sans-Serif" font-size="10.00"> &lt; SNES &gt;</text>
</g>
<!-- Node2 -->
<g id="node2" class="node">
<title>Node2</title>
<g id="a_node2"><a xlink:title=" ">
<polygon fill="white" stroke="#666666" points="111.25,-256.12 0,-256.12 0,-214.38 111.25,-214.38 111.25,-256.12"/>
<text text-anchor="start" x="8" y="-242.62" font-family="Helvetica,sans-Serif" font-size="10.00">boost::intrusive_ptr</text>
<text text-anchor="start" x="8" y="-231.38" font-family="Helvetica,sans-Serif" font-size="10.00">&lt; std::remove_pointer</text>
<text text-anchor="middle" x="55.62" y="-220.12" font-family="Helvetica,sans-Serif" font-size="10.00">&lt; OBJ &gt;::type &gt;</text>
</a>
</g>
</g>
<!-- Node2&#45;&gt;Node1 -->
<g id="edge1" class="edge">
<title>Node2&#45;&gt;Node1</title>
<path fill="none" stroke="#63b8ff" d="M123.07,-235.25C131.29,-235.25 139.66,-235.25 147.8,-235.25"/>
<polygon fill="#63b8ff" stroke="#63b8ff" points="123.1,-231.75 113.1,-235.25 123.1,-238.75 123.1,-231.75"/>
</g>
</g>
</svg>
        <g id="navigator" transform="translate(0 0)" fill="#404254">
                <rect fill="#f2f5e9" fill-opacity="0.5" stroke="#606060" stroke-width=".5" x="0" y="0" width="60" height="60"/>
                <use id="zoomplus" xlink:href="#zoomPlus" x="17" y="9" onmousedown="handleZoom(evt,'in')"/>
                <use id="zoomminus" xlink:href="#zoomMin" x="42" y="9" onmousedown="handleZoom(evt,'out')"/>
                <use id="reset" xlink:href="#resetDef" x="30" y="36" onmousedown="handleReset()"/>
                <g id="arrowUp" xlink:href="#dirArrow" transform="translate(30 24)" onmousedown="handlePan(0,-1)">
                  <use xlink:href="#rim" fill="#404040">
                        <set attributeName="fill" to="#808080" begin="arrowUp.mouseover" end="arrowUp.mouseout"/>
                  </use>
                  <path fill="none" stroke="white" stroke-width="1.5" d="M0,-3.0v7 M-2.5,-0.5L0,-3.0L2.5,-0.5"/>
                </g>
                <g id="arrowRight" xlink:href="#dirArrow" transform="rotate(90) translate(36 -43)" onmousedown="handlePan(1,0)">
                  <use xlink:href="#rim" fill="#404040">
                        <set attributeName="fill" to="#808080" begin="arrowRight.mouseover" end="arrowRight.mouseout"/>
                  </use>
                  <path fill="none" stroke="white" stroke-width="1.5" d="M0,-3.0v7 M-2.5,-0.5L0,-3.0L2.5,-0.5"/>
                </g>
                <g id="arrowDown" xlink:href="#dirArrow" transform="rotate(180) translate(-30 -48)" onmousedown="handlePan(0,1)">
                  <use xlink:href="#rim" fill="#404040">
                        <set attributeName="fill" to="#808080" begin="arrowDown.mouseover" end="arrowDown.mouseout"/>
                  </use>
                  <path fill="none" stroke="white" stroke-width="1.5" d="M0,-3.0v7 M-2.5,-0.5L0,-3.0L2.5,-0.5"/>
                </g>
                <g id="arrowLeft" xlink:href="#dirArrow" transform="rotate(270) translate(-36 17)" onmousedown="handlePan(-1,0)">
                  <use xlink:href="#rim" fill="#404040">
                        <set attributeName="fill" to="#808080" begin="arrowLeft.mouseover" end="arrowLeft.mouseout"/>
                  </use>
                  <path fill="none" stroke="white" stroke-width="1.5" d="M0,-3.0v7 M-2.5,-0.5L0,-3.0L2.5,-0.5"/>
                </g>
        </g>
        <svg viewBox="0 0 15 15" width="100%" height="30px" preserveAspectRatio="xMaxYMin meet">
         <g id="arrow_out" transform="scale(0.3 0.3)">
          <a xlink:href="struct_mo_f_e_m_1_1_smart_petsc_obj__inherit__graph_org.svg" target="_base">
           <rect id="button" ry="5" rx="5" y="6" x="6" height="38" width="38"
                fill="#f2f5e9" fill-opacity="0.5" stroke="#606060" stroke-width="1.0"/>
           <path id="arrow"
             d="M 11.500037,31.436501 C 11.940474,20.09759 22.043105,11.32322 32.158766,21.979434 L 37.068811,17.246167 C 37.068811,17.246167 37.088388,32 37.088388,32 L 22.160133,31.978069 C 22.160133,31.978069 26.997745,27.140456 26.997745,27.140456 C 18.528582,18.264221 13.291696,25.230495 11.500037,31.436501 z"
             style="fill:#404040;"/>
          </a>
         </g>
        </svg>
</svg>
