<?xml version="1.0" encoding="UTF-8" standalone="no"?>
<!DOCTYPE svg PUBLIC "-//W3C//DTD SVG 1.1//EN"
 "http://www.w3.org/Graphics/SVG/1.1/DTD/svg11.dtd">
<!-- Generated by graphviz version 9.0.0 (20230911.1827)
 -->
<!-- Title: MoFEM::OpGetDataAndGradient&lt; RANK, DIM &gt; Pages: 1 -->
<!--zoomable 294 -->
<svg id="main" version="1.1" xmlns="http://www.w3.org/2000/svg" xmlns:xlink="http://www.w3.org/1999/xlink" xml:space="preserve" onload="init(evt)">
<style type="text/css"><![CDATA[
.edge:hover path { stroke: red; }
.edge:hover polygon { stroke: red; fill: red; }
]]></style>
<script type="text/javascript"><![CDATA[
var edges = document.getElementsByTagName('g');
if (edges && edges.length) {
  for (var i=0;i<edges.length;i++) {
    if (edges[i].id.substr(0,4)=='edge') {
      edges[i].setAttribute('class','edge');
    }
  }
}
]]></script>
        <defs>
                <circle id="rim" cx="0" cy="0" r="7"/>
                <circle id="rim2" cx="0" cy="0" r="3.5"/>
                <g id="zoomPlus">
                        <use xlink:href="#rim" fill="#404040">
                                <set attributeName="fill" to="#808080" begin="zoomplus.mouseover" end="zoomplus.mouseout"/>
                        </use>
                        <path d="M-4,0h8M0,-4v8" fill="none" stroke="white" stroke-width="1.5" pointer-events="none"/>
                </g>
                <g id="zoomMin">
                        <use xlink:href="#rim" fill="#404040">
                                <set attributeName="fill" to="#808080" begin="zoomminus.mouseover" end="zoomminus.mouseout"/>
                        </use>
                        <path d="M-4,0h8" fill="none" stroke="white" stroke-width="1.5" pointer-events="none"/>
                </g>
                <g id="dirArrow">
                        <path fill="none" stroke="white" stroke-width="1.5" d="M0,-3.0v7 M-2.5,-0.5L0,-3.0L2.5,-0.5"/>
                </g>
               <g id="resetDef">
                       <use xlink:href="#rim2" fill="#404040">
                               <set attributeName="fill" to="#808080" begin="reset.mouseover" end="reset.mouseout"/>
                       </use>
               </g>
        </defs>

<script type="text/javascript">
var viewWidth = 715;
var viewHeight = 294;
var sectionId = 'dynsection-1';
</script>
<script xlink:href="svgpan.js"/>
<svg id="graph" class="graph">
<g id="viewport">
<title>MoFEM::OpGetDataAndGradient&lt; RANK, DIM &gt;</title>
<!-- Node1 -->
<g id="node1" class="node">
<title>Node1</title>
<g id="a_node1"><a xlink:title="Get field values and gradients at Gauss points.">
<polygon fill="#999999" stroke="#666666" points="707.25,-99.9 547.25,-99.9 547.25,-69.4 707.25,-69.4 707.25,-99.9"/>
<text text-anchor="start" x="555.25" y="-86.4" font-family="Helvetica,sans-Serif" font-size="10.00">MoFEM::OpGetDataAndGradient</text>
<text text-anchor="middle" x="627.25" y="-75.15" font-family="Helvetica,sans-Serif" font-size="10.00">&lt; RANK, DIM &gt;</text>
</a>
</g>
</g>
<!-- Node2 -->
<g id="node2" class="node">
<title>Node2</title>
<g id="a_node2"><a xlink:href="struct_mo_f_e_m_1_1_data_operator.html" target="_top" xlink:title="base operator to do operations at Gauss Pt. level">
<polygon fill="white" stroke="#666666" points="417.5,-113.28 302.5,-113.28 302.5,-94.03 417.5,-94.03 417.5,-113.28"/>
<text text-anchor="middle" x="360" y="-99.78" font-family="Helvetica,sans-Serif" font-size="10.00">MoFEM::DataOperator</text>
</a>
</g>
</g>
<!-- Node2&#45;&gt;Node1 -->
<g id="edge1" class="edge">
<title>Node2&#45;&gt;Node1</title>
<path fill="none" stroke="#63b8ff" d="M429.25,-98.76C465.15,-96.19 509.36,-93.02 546.8,-90.34"/>
<polygon fill="#63b8ff" stroke="#63b8ff" points="429.14,-95.26 419.41,-99.47 429.64,-102.24 429.14,-95.26"/>
</g>
<!-- Node3 -->
<g id="node3" class="node">
<title>Node3</title>
<g id="a_node3"><a xlink:title=" ">
<polygon fill="white" stroke="#666666" points="188.5,-286.03 0,-286.03 0,-199.28 188.5,-199.28 188.5,-286.03"/>
<text text-anchor="start" x="8" y="-272.53" font-family="Helvetica,sans-Serif" font-size="10.00">function&lt; MoFEMErrorCode</text>
<text text-anchor="start" x="8" y="-261.28" font-family="Helvetica,sans-Serif" font-size="10.00">(DataOperator *op_ptr,</text>
<text text-anchor="start" x="8" y="-250.03" font-family="Helvetica,sans-Serif" font-size="10.00"> int row_side, int col_side,</text>
<text text-anchor="start" x="8" y="-238.78" font-family="Helvetica,sans-Serif" font-size="10.00"> EntityType row_type, EntityType</text>
<text text-anchor="start" x="8" y="-227.53" font-family="Helvetica,sans-Serif" font-size="10.00"> col_type, EntitiesFieldData::EntData</text>
<text text-anchor="start" x="8" y="-216.28" font-family="Helvetica,sans-Serif" font-size="10.00"> &amp;row_data, EntitiesFieldData::EntData</text>
<text text-anchor="middle" x="94.25" y="-205.03" font-family="Helvetica,sans-Serif" font-size="10.00"> &amp;col_data)&gt;</text>
</a>
</g>
</g>
<!-- Node3&#45;&gt;Node2 -->
<g id="edge2" class="edge">
<title>Node3&#45;&gt;Node2</title>
<path fill="none" stroke="#9a32cd" stroke-dasharray="5,2" d="M199.23,-202.67C227.33,-190.47 257.27,-176.14 283.75,-160.65 308.08,-146.42 333.69,-125.58 347.87,-113.44"/>
<polygon fill="#9a32cd" stroke="#9a32cd" points="198.17,-199.32 190.36,-206.48 200.93,-205.75 198.17,-199.32"/>
<text text-anchor="middle" x="245.12" y="-200.4" font-family="Helvetica,sans-Serif" font-size="10.00"> doWorkLhsHook</text>
</g>
<!-- Node4 -->
<g id="node4" class="node">
<title>Node4</title>
<g id="a_node4"><a xlink:title=" ">
<polygon fill="white" stroke="#666666" points="181,-181.15 7.5,-181.15 7.5,-128.15 181,-128.15 181,-181.15"/>
<text text-anchor="start" x="15.5" y="-167.65" font-family="Helvetica,sans-Serif" font-size="10.00">function&lt; MoFEMErrorCode</text>
<text text-anchor="start" x="15.5" y="-156.4" font-family="Helvetica,sans-Serif" font-size="10.00">(DataOperator *op_ptr,</text>
<text text-anchor="start" x="15.5" y="-145.15" font-family="Helvetica,sans-Serif" font-size="10.00"> int side, EntityType type,</text>
<text text-anchor="middle" x="94.25" y="-133.9" font-family="Helvetica,sans-Serif" font-size="10.00"> EntitiesFieldData::EntData &amp;data)&gt;</text>
</a>
</g>
</g>
<!-- Node4&#45;&gt;Node2 -->
<g id="edge3" class="edge">
<title>Node4&#45;&gt;Node2</title>
<path fill="none" stroke="#9a32cd" stroke-dasharray="5,2" d="M192.63,-148C222.17,-144.73 254.54,-139.86 283.75,-132.65 302.37,-128.05 322.61,-120.07 337.41,-113.64"/>
<polygon fill="#9a32cd" stroke="#9a32cd" points="192.54,-144.49 182.96,-149.02 193.27,-151.46 192.54,-144.49"/>
<text text-anchor="middle" x="245.12" y="-147.4" font-family="Helvetica,sans-Serif" font-size="10.00"> doWorkRhsHook</text>
</g>
<!-- Node5 -->
<g id="node5" class="node">
<title>Node5</title>
<g id="a_node5"><a xlink:href="classbool.html" target="_top" xlink:title=" ">
<polygon fill="white" stroke="#666666" points="111.25,-62.28 77.25,-62.28 77.25,-43.03 111.25,-43.03 111.25,-62.28"/>
<text text-anchor="middle" x="94.25" y="-48.78" font-family="Helvetica,sans-Serif" font-size="10.00">bool</text>
</a>
</g>
</g>
<!-- Node5&#45;&gt;Node2 -->
<g id="edge4" class="edge">
<title>Node5&#45;&gt;Node2</title>
<path fill="none" stroke="#9a32cd" stroke-dasharray="5,2" d="M122.72,-48.76C168.39,-42.86 257.5,-33.94 283.75,-49.9 298.61,-58.94 288.52,-73.36 301.75,-84.65 305.97,-88.25 310.9,-91.18 316.06,-93.55"/>
<polygon fill="#9a32cd" stroke="#9a32cd" points="122.54,-45.25 113.1,-50.05 123.47,-52.19 122.54,-45.25"/>
<text text-anchor="middle" x="245.12" y="-119.9" font-family="Helvetica,sans-Serif" font-size="10.00"> doEdges</text>
<text text-anchor="middle" x="245.12" y="-108.65" font-family="Helvetica,sans-Serif" font-size="10.00">doPrisms</text>
<text text-anchor="middle" x="245.12" y="-97.4" font-family="Helvetica,sans-Serif" font-size="10.00">doQuads</text>
<text text-anchor="middle" x="245.12" y="-86.15" font-family="Helvetica,sans-Serif" font-size="10.00">doTets</text>
<text text-anchor="middle" x="245.12" y="-74.9" font-family="Helvetica,sans-Serif" font-size="10.00">doTris</text>
<text text-anchor="middle" x="245.12" y="-63.65" font-family="Helvetica,sans-Serif" font-size="10.00">doVertices</text>
<text text-anchor="middle" x="245.12" y="-52.4" font-family="Helvetica,sans-Serif" font-size="10.00">sYmm</text>
</g>
<!-- Node6 -->
<g id="node6" class="node">
<title>Node6</title>
<g id="a_node6"><a xlink:title=" ">
<polygon fill="white" stroke="#666666" points="165.62,-25.28 22.88,-25.28 22.88,-6.03 165.62,-6.03 165.62,-25.28"/>
<text text-anchor="middle" x="94.25" y="-11.78" font-family="Helvetica,sans-Serif" font-size="10.00">array&lt; bool, MBMAXTYPE &gt;</text>
</a>
</g>
</g>
<!-- Node6&#45;&gt;Node2 -->
<g id="edge5" class="edge">
<title>Node6&#45;&gt;Node2</title>
<path fill="none" stroke="#9a32cd" stroke-dasharray="5,2" d="M147.89,-3.71C189.16,2.43 245.76,3.33 283.75,-26.4 305.09,-43.1 282.79,-65.29 301.75,-84.65 305.34,-88.32 309.65,-91.27 314.28,-93.66"/>
<polygon fill="#9a32cd" stroke="#9a32cd" points="147.48,-0.23 138.18,-5.31 148.62,-7.13 147.48,-0.23"/>
<text text-anchor="middle" x="245.12" y="-28.4" font-family="Helvetica,sans-Serif" font-size="10.00"> doEntities</text>
</g>
<!-- Node7 -->
<g id="node7" class="node">
<title>Node7</title>
<g id="a_node7"><a xlink:href="class_u_blas_matrix_3_01double_01_4.html" target="_top" xlink:title=" ">
<polygon fill="white" stroke="#666666" points="418.25,-75.28 301.75,-75.28 301.75,-56.03 418.25,-56.03 418.25,-75.28"/>
<text text-anchor="middle" x="360" y="-61.78" font-family="Helvetica,sans-Serif" font-size="10.00">UBlasMatrix&lt; double &gt;</text>
</a>
</g>
</g>
<!-- Node7&#45;&gt;Node1 -->
<g id="edge6" class="edge">
<title>Node7&#45;&gt;Node1</title>
<path fill="none" stroke="#9a32cd" stroke-dasharray="5,2" d="M429.97,-65.17C432.09,-65.16 434.18,-65.16 436.25,-65.15 477.58,-65.01 488.12,-61.06 529.25,-65.15 538.14,-66.03 547.42,-67.36 556.56,-68.92"/>
<polygon fill="#9a32cd" stroke="#9a32cd" points="430.02,-61.67 420.03,-65.22 430.05,-68.67 430.02,-61.67"/>
<text text-anchor="middle" x="482.75" y="-78.65" font-family="Helvetica,sans-Serif" font-size="10.00"> dataAtGaussPts</text>
<text text-anchor="middle" x="482.75" y="-67.4" font-family="Helvetica,sans-Serif" font-size="10.00">dataGradAtGaussPts</text>
</g>
</g>
</svg>
        <g id="navigator" transform="translate(0 0)" fill="#404254">
                <rect fill="#f2f5e9" fill-opacity="0.5" stroke="#606060" stroke-width=".5" x="0" y="0" width="60" height="60"/>
                <use id="zoomplus" xlink:href="#zoomPlus" x="17" y="9" onmousedown="handleZoom(evt,'in')"/>
                <use id="zoomminus" xlink:href="#zoomMin" x="42" y="9" onmousedown="handleZoom(evt,'out')"/>
                <use id="reset" xlink:href="#resetDef" x="30" y="36" onmousedown="handleReset()"/>
                <g id="arrowUp" xlink:href="#dirArrow" transform="translate(30 24)" onmousedown="handlePan(0,-1)">
                  <use xlink:href="#rim" fill="#404040">
                        <set attributeName="fill" to="#808080" begin="arrowUp.mouseover" end="arrowUp.mouseout"/>
                  </use>
                  <path fill="none" stroke="white" stroke-width="1.5" d="M0,-3.0v7 M-2.5,-0.5L0,-3.0L2.5,-0.5"/>
                </g>
                <g id="arrowRight" xlink:href="#dirArrow" transform="rotate(90) translate(36 -43)" onmousedown="handlePan(1,0)">
                  <use xlink:href="#rim" fill="#404040">
                        <set attributeName="fill" to="#808080" begin="arrowRight.mouseover" end="arrowRight.mouseout"/>
                  </use>
                  <path fill="none" stroke="white" stroke-width="1.5" d="M0,-3.0v7 M-2.5,-0.5L0,-3.0L2.5,-0.5"/>
                </g>
                <g id="arrowDown" xlink:href="#dirArrow" transform="rotate(180) translate(-30 -48)" onmousedown="handlePan(0,1)">
                  <use xlink:href="#rim" fill="#404040">
                        <set attributeName="fill" to="#808080" begin="arrowDown.mouseover" end="arrowDown.mouseout"/>
                  </use>
                  <path fill="none" stroke="white" stroke-width="1.5" d="M0,-3.0v7 M-2.5,-0.5L0,-3.0L2.5,-0.5"/>
                </g>
                <g id="arrowLeft" xlink:href="#dirArrow" transform="rotate(270) translate(-36 17)" onmousedown="handlePan(-1,0)">
                  <use xlink:href="#rim" fill="#404040">
                        <set attributeName="fill" to="#808080" begin="arrowLeft.mouseover" end="arrowLeft.mouseout"/>
                  </use>
                  <path fill="none" stroke="white" stroke-width="1.5" d="M0,-3.0v7 M-2.5,-0.5L0,-3.0L2.5,-0.5"/>
                </g>
        </g>
        <svg viewBox="0 0 15 15" width="100%" height="30px" preserveAspectRatio="xMaxYMin meet">
         <g id="arrow_out" transform="scale(0.3 0.3)">
          <a xlink:href="struct_mo_f_e_m_1_1_op_get_data_and_gradient__coll__graph_org.svg" target="_base">
           <rect id="button" ry="5" rx="5" y="6" x="6" height="38" width="38"
                fill="#f2f5e9" fill-opacity="0.5" stroke="#606060" stroke-width="1.0"/>
           <path id="arrow"
             d="M 11.500037,31.436501 C 11.940474,20.09759 22.043105,11.32322 32.158766,21.979434 L 37.068811,17.246167 C 37.068811,17.246167 37.088388,32 37.088388,32 L 22.160133,31.978069 C 22.160133,31.978069 26.997745,27.140456 26.997745,27.140456 C 18.528582,18.264221 13.291696,25.230495 11.500037,31.436501 z"
             style="fill:#404040;"/>
          </a>
         </g>
        </svg>
</svg>
