<?xml version="1.0" encoding="UTF-8" standalone="no"?>
<!DOCTYPE svg PUBLIC "-//W3C//DTD SVG 1.1//EN"
 "http://www.w3.org/Graphics/SVG/1.1/DTD/svg11.dtd">
<!-- Generated by graphviz version 9.0.0 (20230911.1827)
 -->
<!-- Title: FractureMechanics::GriffithForceElement::AuxOp Pages: 1 -->
<!--zoomable 550 -->
<svg id="main" version="1.1" xmlns="http://www.w3.org/2000/svg" xmlns:xlink="http://www.w3.org/1999/xlink" xml:space="preserve" onload="init(evt)">
<style type="text/css"><![CDATA[
.edge:hover path { stroke: red; }
.edge:hover polygon { stroke: red; fill: red; }
]]></style>
<script type="text/javascript"><![CDATA[
var edges = document.getElementsByTagName('g');
if (edges && edges.length) {
  for (var i=0;i<edges.length;i++) {
    if (edges[i].id.substr(0,4)=='edge') {
      edges[i].setAttribute('class','edge');
    }
  }
}
]]></script>
        <defs>
                <circle id="rim" cx="0" cy="0" r="7"/>
                <circle id="rim2" cx="0" cy="0" r="3.5"/>
                <g id="zoomPlus">
                        <use xlink:href="#rim" fill="#404040">
                                <set attributeName="fill" to="#808080" begin="zoomplus.mouseover" end="zoomplus.mouseout"/>
                        </use>
                        <path d="M-4,0h8M0,-4v8" fill="none" stroke="white" stroke-width="1.5" pointer-events="none"/>
                </g>
                <g id="zoomMin">
                        <use xlink:href="#rim" fill="#404040">
                                <set attributeName="fill" to="#808080" begin="zoomminus.mouseover" end="zoomminus.mouseout"/>
                        </use>
                        <path d="M-4,0h8" fill="none" stroke="white" stroke-width="1.5" pointer-events="none"/>
                </g>
                <g id="dirArrow">
                        <path fill="none" stroke="white" stroke-width="1.5" d="M0,-3.0v7 M-2.5,-0.5L0,-3.0L2.5,-0.5"/>
                </g>
               <g id="resetDef">
                       <use xlink:href="#rim2" fill="#404040">
                               <set attributeName="fill" to="#808080" begin="reset.mouseover" end="reset.mouseout"/>
                       </use>
               </g>
        </defs>

<script type="text/javascript">
var viewWidth = 459;
var viewHeight = 550;
var sectionId = 'dynsection-0';
</script>
<script xlink:href="svgpan.js"/>
<svg id="graph" class="graph">
<g id="viewport">
<title>FractureMechanics::GriffithForceElement::AuxOp</title>
<!-- Node1 -->
<g id="node1" class="node">
<title>Node1</title>
<g id="a_node1"><a xlink:title=" ">
<polygon fill="#999999" stroke="#666666" points="106,-281.75 0,-281.75 0,-240 106,-240 106,-281.75"/>
<text text-anchor="start" x="8" y="-268.25" font-family="Helvetica,sans-Serif" font-size="10.00">FractureMechanics::</text>
<text text-anchor="start" x="8" y="-257" font-family="Helvetica,sans-Serif" font-size="10.00">GriffithForceElement</text>
<text text-anchor="middle" x="53" y="-245.75" font-family="Helvetica,sans-Serif" font-size="10.00">::AuxOp</text>
</a>
</g>
</g>
<!-- Node2 -->
<g id="node2" class="node">
<title>Node2</title>
<g id="a_node2"><a xlink:href="struct_fracture_mechanics_1_1_griffith_force_element_1_1_front_arc_length_control_1_1_op_int_lambda.html" target="_top" xlink:title="assemble internal residual">
<polygon fill="white" stroke="#666666" points="278.38,-542.38 158.12,-542.38 158.12,-489.38 278.38,-489.38 278.38,-542.38"/>
<text text-anchor="start" x="166.12" y="-528.88" font-family="Helvetica,sans-Serif" font-size="10.00">FractureMechanics::</text>
<text text-anchor="start" x="166.12" y="-517.62" font-family="Helvetica,sans-Serif" font-size="10.00">GriffithForceElement</text>
<text text-anchor="start" x="166.12" y="-506.38" font-family="Helvetica,sans-Serif" font-size="10.00">::FrontArcLengthControl</text>
<text text-anchor="middle" x="218.25" y="-495.12" font-family="Helvetica,sans-Serif" font-size="10.00">::OpIntLambda</text>
</a>
</g>
</g>
<!-- Node1&#45;&gt;Node2 -->
<g id="edge1" class="edge">
<title>Node1&#45;&gt;Node2</title>
<path fill="none" stroke="#63b8ff" d="M59.23,-293.43C68.31,-340.33 91.14,-427.15 142,-480.88 146.66,-485.79 152.14,-490.08 157.99,-493.81"/>
<polygon fill="#63b8ff" stroke="#63b8ff" points="62.68,-292.84 57.43,-283.63 55.79,-294.1 62.68,-292.84"/>
</g>
<!-- Node4 -->
<g id="node4" class="node">
<title>Node4</title>
<g id="a_node4"><a xlink:href="struct_fracture_mechanics_1_1_griffith_force_element_1_1_op_calculate_griffith_force.html" target="_top" xlink:title="calculate griffith force vector">
<polygon fill="white" stroke="#666666" points="283.25,-471.75 153.25,-471.75 153.25,-430 283.25,-430 283.25,-471.75"/>
<text text-anchor="start" x="161.25" y="-458.25" font-family="Helvetica,sans-Serif" font-size="10.00">FractureMechanics::</text>
<text text-anchor="start" x="161.25" y="-447" font-family="Helvetica,sans-Serif" font-size="10.00">GriffithForceElement</text>
<text text-anchor="middle" x="218.25" y="-435.75" font-family="Helvetica,sans-Serif" font-size="10.00">::OpCalculateGriffithForce</text>
</a>
</g>
</g>
<!-- Node1&#45;&gt;Node4 -->
<g id="edge3" class="edge">
<title>Node1&#45;&gt;Node4</title>
<path fill="none" stroke="#63b8ff" d="M64.02,-293.06C76.74,-329.04 101.99,-386.84 142,-421.88 145.37,-424.83 149.07,-427.49 152.98,-429.9"/>
<polygon fill="#63b8ff" stroke="#63b8ff" points="67.34,-291.97 60.81,-283.63 60.72,-294.23 67.34,-291.97"/>
</g>
<!-- Node5 -->
<g id="node5" class="node">
<title>Node5</title>
<g id="a_node5"><a xlink:href="struct_fracture_mechanics_1_1_griffith_force_element_1_1_op_calculate_rho_at_crack_front_using_precalulated_coeffs.html" target="_top" xlink:title="Calculate density at the crack fron nodes and multiplity gc.">
<polygon fill="white" stroke="#666666" points="294.5,-412.38 142,-412.38 142,-359.38 294.5,-359.38 294.5,-412.38"/>
<text text-anchor="start" x="150" y="-398.88" font-family="Helvetica,sans-Serif" font-size="10.00">FractureMechanics::</text>
<text text-anchor="start" x="150" y="-387.62" font-family="Helvetica,sans-Serif" font-size="10.00">GriffithForceElement</text>
<text text-anchor="start" x="150" y="-376.38" font-family="Helvetica,sans-Serif" font-size="10.00">::OpCalculateRhoAtCrackFront</text>
<text text-anchor="middle" x="218.25" y="-365.12" font-family="Helvetica,sans-Serif" font-size="10.00">UsingPrecalulatedCoeffs</text>
</a>
</g>
</g>
<!-- Node1&#45;&gt;Node5 -->
<g id="edge4" class="edge">
<title>Node1&#45;&gt;Node5</title>
<path fill="none" stroke="#63b8ff" d="M78.06,-290.54C94.58,-309.54 117.83,-333.76 142,-350.88 146,-353.71 150.26,-356.4 154.65,-358.95"/>
<polygon fill="#63b8ff" stroke="#63b8ff" points="80.87,-288.44 71.72,-283.1 75.54,-292.98 80.87,-288.44"/>
</g>
<!-- Node6 -->
<g id="node6" class="node">
<title>Node6</title>
<g id="a_node6"><a xlink:href="struct_fracture_mechanics_1_1_griffith_force_element_1_1_op_constrains_delta.html" target="_top" xlink:title=" ">
<polygon fill="white" stroke="#666666" points="271.25,-341.75 165.25,-341.75 165.25,-300 271.25,-300 271.25,-341.75"/>
<text text-anchor="start" x="173.25" y="-328.25" font-family="Helvetica,sans-Serif" font-size="10.00">FractureMechanics::</text>
<text text-anchor="start" x="173.25" y="-317" font-family="Helvetica,sans-Serif" font-size="10.00">GriffithForceElement</text>
<text text-anchor="middle" x="218.25" y="-305.75" font-family="Helvetica,sans-Serif" font-size="10.00">::OpConstrainsDelta</text>
</a>
</g>
</g>
<!-- Node1&#45;&gt;Node6 -->
<g id="edge5" class="edge">
<title>Node1&#45;&gt;Node6</title>
<path fill="none" stroke="#63b8ff" d="M116.87,-283.98C132.71,-289.8 149.54,-295.99 164.8,-301.6"/>
<polygon fill="#63b8ff" stroke="#63b8ff" points="118.12,-280.71 107.52,-280.55 115.7,-287.28 118.12,-280.71"/>
</g>
<!-- Node7 -->
<g id="node7" class="node">
<title>Node7</title>
<g id="a_node7"><a xlink:href="struct_fracture_mechanics_1_1_griffith_force_element_1_1_op_constrains_lhs.html" target="_top" xlink:title=" ">
<polygon fill="white" stroke="#666666" points="271.25,-281.75 165.25,-281.75 165.25,-240 271.25,-240 271.25,-281.75"/>
<text text-anchor="start" x="173.25" y="-268.25" font-family="Helvetica,sans-Serif" font-size="10.00">FractureMechanics::</text>
<text text-anchor="start" x="173.25" y="-257" font-family="Helvetica,sans-Serif" font-size="10.00">GriffithForceElement</text>
<text text-anchor="middle" x="218.25" y="-245.75" font-family="Helvetica,sans-Serif" font-size="10.00">::OpConstrainsLhs</text>
</a>
</g>
</g>
<!-- Node1&#45;&gt;Node7 -->
<g id="edge6" class="edge">
<title>Node1&#45;&gt;Node7</title>
<path fill="none" stroke="#63b8ff" d="M117.33,-260.88C133.03,-260.88 149.69,-260.88 164.8,-260.88"/>
<polygon fill="#63b8ff" stroke="#63b8ff" points="117.62,-257.38 107.62,-260.88 117.62,-264.38 117.62,-257.38"/>
</g>
<!-- Node8 -->
<g id="node8" class="node">
<title>Node8</title>
<g id="a_node8"><a xlink:href="struct_fracture_mechanics_1_1_griffith_force_element_1_1_op_constrains_rhs.html" target="_top" xlink:title=" ">
<polygon fill="white" stroke="#666666" points="271.25,-221.75 165.25,-221.75 165.25,-180 271.25,-180 271.25,-221.75"/>
<text text-anchor="start" x="173.25" y="-208.25" font-family="Helvetica,sans-Serif" font-size="10.00">FractureMechanics::</text>
<text text-anchor="start" x="173.25" y="-197" font-family="Helvetica,sans-Serif" font-size="10.00">GriffithForceElement</text>
<text text-anchor="middle" x="218.25" y="-185.75" font-family="Helvetica,sans-Serif" font-size="10.00">::OpConstrainsRhs</text>
</a>
</g>
</g>
<!-- Node1&#45;&gt;Node8 -->
<g id="edge7" class="edge">
<title>Node1&#45;&gt;Node8</title>
<path fill="none" stroke="#63b8ff" d="M116.87,-237.77C132.71,-231.95 149.54,-225.76 164.8,-220.15"/>
<polygon fill="#63b8ff" stroke="#63b8ff" points="115.7,-234.47 107.52,-241.2 118.12,-241.04 115.7,-234.47"/>
</g>
<!-- Node9 -->
<g id="node9" class="node">
<title>Node9</title>
<g id="a_node9"><a xlink:href="struct_fracture_mechanics_1_1_griffith_force_element_1_1_op_heterogeneous_gc_lhs.html" target="_top" xlink:title=" ">
<polygon fill="white" stroke="#666666" points="282.88,-161.75 153.62,-161.75 153.62,-120 282.88,-120 282.88,-161.75"/>
<text text-anchor="start" x="161.62" y="-148.25" font-family="Helvetica,sans-Serif" font-size="10.00">FractureMechanics::</text>
<text text-anchor="start" x="161.62" y="-137" font-family="Helvetica,sans-Serif" font-size="10.00">GriffithForceElement</text>
<text text-anchor="middle" x="218.25" y="-125.75" font-family="Helvetica,sans-Serif" font-size="10.00">::OpHeterogeneousGcLhs</text>
</a>
</g>
</g>
<!-- Node1&#45;&gt;Node9 -->
<g id="edge8" class="edge">
<title>Node1&#45;&gt;Node9</title>
<path fill="none" stroke="#63b8ff" d="M77.44,-231.12C93.84,-211.87 117.2,-187.41 142,-170.88 146.68,-167.75 151.74,-164.88 156.93,-162.24"/>
<polygon fill="#63b8ff" stroke="#63b8ff" points="74.87,-228.74 71.15,-238.66 80.24,-233.22 74.87,-228.74"/>
</g>
<!-- Node10 -->
<g id="node10" class="node">
<title>Node10</title>
<g id="a_node10"><a xlink:href="struct_fracture_mechanics_1_1_griffith_force_element_1_1_op_lhs.html" target="_top" xlink:title=" ">
<polygon fill="white" stroke="#666666" points="271.25,-101.75 165.25,-101.75 165.25,-60 271.25,-60 271.25,-101.75"/>
<text text-anchor="start" x="173.25" y="-88.25" font-family="Helvetica,sans-Serif" font-size="10.00">FractureMechanics::</text>
<text text-anchor="start" x="173.25" y="-77" font-family="Helvetica,sans-Serif" font-size="10.00">GriffithForceElement</text>
<text text-anchor="middle" x="218.25" y="-65.75" font-family="Helvetica,sans-Serif" font-size="10.00">::OpLhs</text>
</a>
</g>
</g>
<!-- Node1&#45;&gt;Node10 -->
<g id="edge9" class="edge">
<title>Node1&#45;&gt;Node10</title>
<path fill="none" stroke="#63b8ff" d="M65.38,-229.16C78.9,-195.61 104.45,-143.14 142,-110.88 148.72,-105.1 156.69,-100.35 164.89,-96.47"/>
<polygon fill="#63b8ff" stroke="#63b8ff" points="62.17,-227.76 61.81,-238.35 68.7,-230.3 62.17,-227.76"/>
</g>
<!-- Node11 -->
<g id="node11" class="node">
<title>Node11</title>
<g id="a_node11"><a xlink:href="struct_fracture_mechanics_1_1_griffith_force_element_1_1_op_rhs.html" target="_top" xlink:title=" ">
<polygon fill="white" stroke="#666666" points="271.25,-41.75 165.25,-41.75 165.25,0 271.25,0 271.25,-41.75"/>
<text text-anchor="start" x="173.25" y="-28.25" font-family="Helvetica,sans-Serif" font-size="10.00">FractureMechanics::</text>
<text text-anchor="start" x="173.25" y="-17" font-family="Helvetica,sans-Serif" font-size="10.00">GriffithForceElement</text>
<text text-anchor="middle" x="218.25" y="-5.75" font-family="Helvetica,sans-Serif" font-size="10.00">::OpRhs</text>
</a>
</g>
</g>
<!-- Node1&#45;&gt;Node11 -->
<g id="edge10" class="edge">
<title>Node1&#45;&gt;Node11</title>
<path fill="none" stroke="#63b8ff" d="M59.47,-228.42C68.73,-182.96 91.66,-100.34 142,-50.88 148.52,-44.47 156.58,-39.38 164.98,-35.35"/>
<polygon fill="#63b8ff" stroke="#63b8ff" points="56.04,-227.7 57.59,-238.18 62.92,-229.03 56.04,-227.7"/>
</g>
<!-- Node3 -->
<g id="node3" class="node">
<title>Node3</title>
<g id="a_node3"><a xlink:href="struct_fracture_mechanics_1_1_griffith_force_element_1_1_front_arc_length_control_1_1_op_assemble__db.html" target="_top" xlink:title="assemble internal residual derivative">
<polygon fill="white" stroke="#666666" points="450.75,-542.38 330.5,-542.38 330.5,-489.38 450.75,-489.38 450.75,-542.38"/>
<text text-anchor="start" x="338.5" y="-528.88" font-family="Helvetica,sans-Serif" font-size="10.00">FractureMechanics::</text>
<text text-anchor="start" x="338.5" y="-517.62" font-family="Helvetica,sans-Serif" font-size="10.00">GriffithForceElement</text>
<text text-anchor="start" x="338.5" y="-506.38" font-family="Helvetica,sans-Serif" font-size="10.00">::FrontArcLengthControl</text>
<text text-anchor="middle" x="390.62" y="-495.12" font-family="Helvetica,sans-Serif" font-size="10.00">::OpAssemble_db</text>
</a>
</g>
</g>
<!-- Node2&#45;&gt;Node3 -->
<g id="edge2" class="edge">
<title>Node2&#45;&gt;Node3</title>
<path fill="none" stroke="#63b8ff" d="M290.31,-515.88C303.54,-515.88 317.23,-515.88 330.07,-515.88"/>
<polygon fill="#63b8ff" stroke="#63b8ff" points="290.35,-512.38 280.35,-515.88 290.35,-519.38 290.35,-512.38"/>
</g>
</g>
</svg>
        <g id="navigator" transform="translate(0 0)" fill="#404254">
                <rect fill="#f2f5e9" fill-opacity="0.5" stroke="#606060" stroke-width=".5" x="0" y="0" width="60" height="60"/>
                <use id="zoomplus" xlink:href="#zoomPlus" x="17" y="9" onmousedown="handleZoom(evt,'in')"/>
                <use id="zoomminus" xlink:href="#zoomMin" x="42" y="9" onmousedown="handleZoom(evt,'out')"/>
                <use id="reset" xlink:href="#resetDef" x="30" y="36" onmousedown="handleReset()"/>
                <g id="arrowUp" xlink:href="#dirArrow" transform="translate(30 24)" onmousedown="handlePan(0,-1)">
                  <use xlink:href="#rim" fill="#404040">
                        <set attributeName="fill" to="#808080" begin="arrowUp.mouseover" end="arrowUp.mouseout"/>
                  </use>
                  <path fill="none" stroke="white" stroke-width="1.5" d="M0,-3.0v7 M-2.5,-0.5L0,-3.0L2.5,-0.5"/>
                </g>
                <g id="arrowRight" xlink:href="#dirArrow" transform="rotate(90) translate(36 -43)" onmousedown="handlePan(1,0)">
                  <use xlink:href="#rim" fill="#404040">
                        <set attributeName="fill" to="#808080" begin="arrowRight.mouseover" end="arrowRight.mouseout"/>
                  </use>
                  <path fill="none" stroke="white" stroke-width="1.5" d="M0,-3.0v7 M-2.5,-0.5L0,-3.0L2.5,-0.5"/>
                </g>
                <g id="arrowDown" xlink:href="#dirArrow" transform="rotate(180) translate(-30 -48)" onmousedown="handlePan(0,1)">
                  <use xlink:href="#rim" fill="#404040">
                        <set attributeName="fill" to="#808080" begin="arrowDown.mouseover" end="arrowDown.mouseout"/>
                  </use>
                  <path fill="none" stroke="white" stroke-width="1.5" d="M0,-3.0v7 M-2.5,-0.5L0,-3.0L2.5,-0.5"/>
                </g>
                <g id="arrowLeft" xlink:href="#dirArrow" transform="rotate(270) translate(-36 17)" onmousedown="handlePan(-1,0)">
                  <use xlink:href="#rim" fill="#404040">
                        <set attributeName="fill" to="#808080" begin="arrowLeft.mouseover" end="arrowLeft.mouseout"/>
                  </use>
                  <path fill="none" stroke="white" stroke-width="1.5" d="M0,-3.0v7 M-2.5,-0.5L0,-3.0L2.5,-0.5"/>
                </g>
        </g>
        <svg viewBox="0 0 15 15" width="100%" height="30px" preserveAspectRatio="xMaxYMin meet">
         <g id="arrow_out" transform="scale(0.3 0.3)">
          <a xlink:href="struct_fracture_mechanics_1_1_griffith_force_element_1_1_aux_op__inherit__graph_org.svg" target="_base">
           <rect id="button" ry="5" rx="5" y="6" x="6" height="38" width="38"
                fill="#f2f5e9" fill-opacity="0.5" stroke="#606060" stroke-width="1.0"/>
           <path id="arrow"
             d="M 11.500037,31.436501 C 11.940474,20.09759 22.043105,11.32322 32.158766,21.979434 L 37.068811,17.246167 C 37.068811,17.246167 37.088388,32 37.088388,32 L 22.160133,31.978069 C 22.160133,31.978069 26.997745,27.140456 26.997745,27.140456 C 18.528582,18.264221 13.291696,25.230495 11.500037,31.436501 z"
             style="fill:#404040;"/>
          </a>
         </g>
        </svg>
</svg>
