<?xml version="1.0" encoding="UTF-8" standalone="no"?>
<!DOCTYPE svg PUBLIC "-//W3C//DTD SVG 1.1//EN"
 "http://www.w3.org/Graphics/SVG/1.1/DTD/svg11.dtd">
<!-- Generated by graphviz version 9.0.0 (20230911.1827)
 -->
<!-- Title: MoFEM::SnesCtx Pages: 1 -->
<!--zoomable 475 -->
<svg id="main" version="1.1" xmlns="http://www.w3.org/2000/svg" xmlns:xlink="http://www.w3.org/1999/xlink" xml:space="preserve" onload="init(evt)">
<style type="text/css"><![CDATA[
.edge:hover path { stroke: red; }
.edge:hover polygon { stroke: red; fill: red; }
]]></style>
<script type="text/javascript"><![CDATA[
var edges = document.getElementsByTagName('g');
if (edges && edges.length) {
  for (var i=0;i<edges.length;i++) {
    if (edges[i].id.substr(0,4)=='edge') {
      edges[i].setAttribute('class','edge');
    }
  }
}
]]></script>
        <defs>
                <circle id="rim" cx="0" cy="0" r="7"/>
                <circle id="rim2" cx="0" cy="0" r="3.5"/>
                <g id="zoomPlus">
                        <use xlink:href="#rim" fill="#404040">
                                <set attributeName="fill" to="#808080" begin="zoomplus.mouseover" end="zoomplus.mouseout"/>
                        </use>
                        <path d="M-4,0h8M0,-4v8" fill="none" stroke="white" stroke-width="1.5" pointer-events="none"/>
                </g>
                <g id="zoomMin">
                        <use xlink:href="#rim" fill="#404040">
                                <set attributeName="fill" to="#808080" begin="zoomminus.mouseover" end="zoomminus.mouseout"/>
                        </use>
                        <path d="M-4,0h8" fill="none" stroke="white" stroke-width="1.5" pointer-events="none"/>
                </g>
                <g id="dirArrow">
                        <path fill="none" stroke="white" stroke-width="1.5" d="M0,-3.0v7 M-2.5,-0.5L0,-3.0L2.5,-0.5"/>
                </g>
               <g id="resetDef">
                       <use xlink:href="#rim2" fill="#404040">
                               <set attributeName="fill" to="#808080" begin="reset.mouseover" end="reset.mouseout"/>
                       </use>
               </g>
        </defs>

<script type="text/javascript">
var viewWidth = 1419;
var viewHeight = 475;
var sectionId = 'dynsection-0';
</script>
<script xlink:href="svgpan.js"/>
<svg id="graph" class="graph">
<g id="viewport">
<title>MoFEM::SnesCtx</title>
<!-- Node1 -->
<g id="node1" class="node">
<title>Node1</title>
<g id="a_node1"><a xlink:title="Interface for nonlinear (SNES) solver.">
<polygon fill="#999999" stroke="#666666" points="1411.25,-260.32 1316.5,-260.32 1316.5,-241.07 1411.25,-241.07 1411.25,-260.32"/>
<text text-anchor="middle" x="1363.88" y="-246.82" font-family="Helvetica,sans-Serif" font-size="10.00">MoFEM::SnesCtx</text>
</a>
</g>
</g>
<!-- Node2 -->
<g id="node2" class="node">
<title>Node2</title>
<g id="a_node2"><a xlink:href="struct_mo_f_e_m_1_1_deprecated_core_interface.html" target="_top" xlink:title="Deprecated interface functions.">
<polygon fill="white" stroke="#666666" points="1157.5,-431.32 991.5,-431.32 991.5,-412.07 1157.5,-412.07 1157.5,-431.32"/>
<text text-anchor="middle" x="1074.5" y="-417.82" font-family="Helvetica,sans-Serif" font-size="10.00">MoFEM::DeprecatedCoreInterface</text>
</a>
</g>
</g>
<!-- Node2&#45;&gt;Node1 -->
<g id="edge1" class="edge">
<title>Node2&#45;&gt;Node1</title>
<path fill="none" stroke="#9a32cd" stroke-dasharray="5,2" d="M1169.32,-430.93C1212.39,-430.42 1261.9,-422.63 1298.5,-395.69 1344.64,-361.73 1358.3,-287.24 1361.8,-260.49"/>
<polygon fill="#9a32cd" stroke="#9a32cd" points="1169.46,-427.43 1159.45,-430.9 1169.44,-434.43 1169.46,-427.43"/>
<text text-anchor="middle" x="1237" y="-431.44" font-family="Helvetica,sans-Serif" font-size="10.00"> mField</text>
</g>
<!-- Node3 -->
<g id="node3" class="node">
<title>Node3</title>
<g id="a_node3"><a xlink:href="struct_mo_f_e_m_1_1_core_interface.html" target="_top" xlink:title="Interface.">
<polygon fill="white" stroke="#666666" points="954.5,-431.32 838.75,-431.32 838.75,-412.07 954.5,-412.07 954.5,-431.32"/>
<text text-anchor="middle" x="896.62" y="-417.82" font-family="Helvetica,sans-Serif" font-size="10.00">MoFEM::CoreInterface</text>
</a>
</g>
</g>
<!-- Node3&#45;&gt;Node2 -->
<g id="edge2" class="edge">
<title>Node3&#45;&gt;Node2</title>
<path fill="none" stroke="#63b8ff" d="M966.13,-421.69C974.33,-421.69 982.77,-421.69 991.13,-421.69"/>
<polygon fill="#63b8ff" stroke="#63b8ff" points="966.24,-418.19 956.24,-421.69 966.24,-425.19 966.24,-418.19"/>
</g>
<!-- Node4 -->
<g id="node4" class="node">
<title>Node4</title>
<g id="a_node4"><a xlink:href="struct_mo_f_e_m_1_1_unknown_interface.html" target="_top" xlink:title="base class for all interface classes">
<polygon fill="white" stroke="#666666" points="801.75,-431.32 665.75,-431.32 665.75,-412.07 801.75,-412.07 801.75,-431.32"/>
<text text-anchor="middle" x="733.75" y="-417.82" font-family="Helvetica,sans-Serif" font-size="10.00">MoFEM::UnknownInterface</text>
</a>
</g>
</g>
<!-- Node4&#45;&gt;Node3 -->
<g id="edge3" class="edge">
<title>Node4&#45;&gt;Node3</title>
<path fill="none" stroke="#63b8ff" d="M813.43,-421.69C821.81,-421.69 830.23,-421.69 838.3,-421.69"/>
<polygon fill="#63b8ff" stroke="#63b8ff" points="813.56,-418.19 803.56,-421.69 813.56,-425.19 813.56,-418.19"/>
</g>
<!-- Node5 -->
<g id="node5" class="node">
<title>Node5</title>
<g id="a_node5"><a xlink:title=" ">
<polygon fill="white" stroke="#666666" points="563,-453.82 346.75,-453.82 346.75,-389.57 563,-389.57 563,-453.82"/>
<text text-anchor="start" x="354.75" y="-440.32" font-family="Helvetica,sans-Serif" font-size="10.00">multi_index_container</text>
<text text-anchor="start" x="354.75" y="-429.07" font-family="Helvetica,sans-Serif" font-size="10.00">&lt; UIdTypeMap, indexed</text>
<text text-anchor="start" x="354.75" y="-417.82" font-family="Helvetica,sans-Serif" font-size="10.00">_by&lt; hashed_unique&lt; member</text>
<text text-anchor="start" x="354.75" y="-406.57" font-family="Helvetica,sans-Serif" font-size="10.00">&lt; UIdTypeMap, boost::typeindex</text>
<text text-anchor="middle" x="454.88" y="-395.32" font-family="Helvetica,sans-Serif" font-size="10.00">::type_index, &amp;UIdTypeMap::classIdx &gt; &gt; &gt; &gt;</text>
</a>
</g>
</g>
<!-- Node5&#45;&gt;Node4 -->
<g id="edge4" class="edge">
<title>Node5&#45;&gt;Node4</title>
<path fill="none" stroke="#9a32cd" stroke-dasharray="5,2" d="M574.68,-421.69C605.7,-421.69 638.06,-421.69 665.37,-421.69"/>
<polygon fill="#9a32cd" stroke="#9a32cd" points="574.83,-418.19 564.83,-421.69 574.83,-425.19 574.83,-418.19"/>
<text text-anchor="middle" x="614.38" y="-423.44" font-family="Helvetica,sans-Serif" font-size="10.00"> iFaceTypeMap</text>
</g>
<!-- Node6 -->
<g id="node6" class="node">
<title>Node6</title>
<g id="a_node6"><a xlink:title=" ">
<polygon fill="white" stroke="#666666" points="110.5,-431.32 0,-431.32 0,-412.07 110.5,-412.07 110.5,-431.32"/>
<text text-anchor="middle" x="55.25" y="-417.82" font-family="Helvetica,sans-Serif" font-size="10.00">multi_index_container</text>
</a>
</g>
</g>
<!-- Node6&#45;&gt;Node5 -->
<g id="edge5" class="edge">
<title>Node6&#45;&gt;Node5</title>
<path fill="none" stroke="orange" stroke-dasharray="5,2" d="M122.09,-421.69C183.01,-421.69 274.7,-421.69 346.26,-421.69"/>
<polygon fill="orange" stroke="orange" points="122.22,-418.19 112.22,-421.69 122.22,-425.19 122.22,-418.19"/>
<text text-anchor="start" x="128.5" y="-457.19" font-family="Helvetica,sans-Serif" font-size="10.00"> &lt; UIdTypeMap, indexed</text>
<text text-anchor="start" x="128.5" y="-445.94" font-family="Helvetica,sans-Serif" font-size="10.00">_by&lt; hashed_unique&lt; member</text>
<text text-anchor="start" x="128.5" y="-434.69" font-family="Helvetica,sans-Serif" font-size="10.00">&lt; UIdTypeMap, boost::typeindex</text>
<text text-anchor="middle" x="228.62" y="-423.44" font-family="Helvetica,sans-Serif" font-size="10.00">::type_index, &amp;UIdTypeMap::classIdx &gt; &gt; &gt; &gt;</text>
</g>
<!-- Node7 -->
<g id="node7" class="node">
<title>Node7</title>
<g id="a_node7"><a xlink:title=" ">
<polygon fill="white" stroke="#666666" points="1106.5,-394.32 1042.5,-394.32 1042.5,-375.07 1106.5,-375.07 1106.5,-394.32"/>
<text text-anchor="middle" x="1074.5" y="-380.82" font-family="Helvetica,sans-Serif" font-size="10.00">Interface &amp;</text>
</a>
</g>
</g>
<!-- Node7&#45;&gt;Node1 -->
<g id="edge6" class="edge">
<title>Node7&#45;&gt;Node1</title>
<path fill="none" stroke="#9a32cd" stroke-dasharray="5,2" d="M1118.36,-384.14C1174.62,-382.66 1269.64,-377.38 1298.5,-358.69 1335.14,-334.96 1353.82,-282.39 1360.24,-260.53"/>
<polygon fill="#9a32cd" stroke="#9a32cd" points="1118.41,-380.63 1108.49,-384.36 1118.57,-387.63 1118.41,-380.63"/>
<text text-anchor="middle" x="1237" y="-382.44" font-family="Helvetica,sans-Serif" font-size="10.00"> moab</text>
</g>
<!-- Node8 -->
<g id="node8" class="node">
<title>Node8</title>
<g id="a_node8"><a xlink:title=" ">
<polygon fill="white" stroke="#666666" points="1094.5,-357.32 1054.5,-357.32 1054.5,-338.07 1094.5,-338.07 1094.5,-357.32"/>
<text text-anchor="middle" x="1074.5" y="-343.82" font-family="Helvetica,sans-Serif" font-size="10.00">string</text>
</a>
</g>
</g>
<!-- Node8&#45;&gt;Node1 -->
<g id="edge7" class="edge">
<title>Node8&#45;&gt;Node1</title>
<path fill="none" stroke="#9a32cd" stroke-dasharray="5,2" d="M1106.01,-347.29C1159.05,-346.13 1265.73,-341.7 1298.5,-324.69 1326.76,-310.02 1348.08,-277.3 1357.53,-260.73"/>
<polygon fill="#9a32cd" stroke="#9a32cd" points="1106.1,-343.78 1096.17,-347.47 1106.23,-350.78 1106.1,-343.78"/>
<text text-anchor="middle" x="1237" y="-345.44" font-family="Helvetica,sans-Serif" font-size="10.00"> problemName</text>
</g>
<!-- Node9 -->
<g id="node9" class="node">
<title>Node9</title>
<g id="a_node9"><a xlink:title=" ">
<polygon fill="white" stroke="#666666" points="1112.88,-320.32 1036.12,-320.32 1036.12,-301.07 1112.88,-301.07 1112.88,-320.32"/>
<text text-anchor="middle" x="1074.5" y="-306.82" font-family="Helvetica,sans-Serif" font-size="10.00">MoFEMTypes</text>
</a>
</g>
</g>
<!-- Node9&#45;&gt;Node1 -->
<g id="edge8" class="edge">
<title>Node9&#45;&gt;Node1</title>
<path fill="none" stroke="#9a32cd" stroke-dasharray="5,2" d="M1124.66,-311.87C1170.69,-311.58 1240.84,-307.53 1298.5,-288.69 1317.74,-282.41 1337.44,-269.67 1349.89,-260.68"/>
<polygon fill="#9a32cd" stroke="#9a32cd" points="1124.72,-308.37 1114.72,-311.87 1124.72,-315.37 1124.72,-308.37"/>
<text text-anchor="middle" x="1237" y="-311.44" font-family="Helvetica,sans-Serif" font-size="10.00"> bH</text>
</g>
<!-- Node10 -->
<g id="node10" class="node">
<title>Node10</title>
<g id="a_node10"><a xlink:href="classbool.html" target="_top" xlink:title=" ">
<polygon fill="white" stroke="#666666" points="1091.5,-278.32 1057.5,-278.32 1057.5,-259.07 1091.5,-259.07 1091.5,-278.32"/>
<text text-anchor="middle" x="1074.5" y="-264.82" font-family="Helvetica,sans-Serif" font-size="10.00">bool</text>
</a>
</g>
</g>
<!-- Node10&#45;&gt;Node1 -->
<g id="edge9" class="edge">
<title>Node10&#45;&gt;Node1</title>
<path fill="none" stroke="#9a32cd" stroke-dasharray="5,2" d="M1103.05,-266.97C1152.24,-263.89 1255.66,-257.41 1316.14,-253.62"/>
<polygon fill="#9a32cd" stroke="#9a32cd" points="1103.05,-263.46 1093.28,-267.58 1103.48,-270.45 1103.05,-263.46"/>
<text text-anchor="middle" x="1237" y="-274.69" font-family="Helvetica,sans-Serif" font-size="10.00"> vErify</text>
<text text-anchor="middle" x="1237" y="-263.44" font-family="Helvetica,sans-Serif" font-size="10.00">zeroPreCondMatrixB</text>
</g>
<!-- Node11 -->
<g id="node11" class="node">
<title>Node11</title>
<g id="a_node11"><a xlink:title=" ">
<polygon fill="white" stroke="#666666" points="1123,-241.32 1026,-241.32 1026,-222.07 1123,-222.07 1123,-241.32"/>
<text text-anchor="middle" x="1074.5" y="-227.82" font-family="Helvetica,sans-Serif" font-size="10.00">MatAssemblyType</text>
</a>
</g>
</g>
<!-- Node11&#45;&gt;Node1 -->
<g id="edge10" class="edge">
<title>Node11&#45;&gt;Node1</title>
<path fill="none" stroke="#9a32cd" stroke-dasharray="5,2" d="M1134.81,-231.53C1179.83,-231.94 1243.21,-233.68 1298.5,-239.44 1304.26,-240.04 1310.27,-240.85 1316.22,-241.76"/>
<polygon fill="#9a32cd" stroke="#9a32cd" points="1135.02,-228.03 1125,-231.46 1134.97,-235.03 1135.02,-228.03"/>
<text text-anchor="middle" x="1237" y="-240.44" font-family="Helvetica,sans-Serif" font-size="10.00"> typeOfAssembly</text>
</g>
<!-- Node12 -->
<g id="node12" class="node">
<title>Node12</title>
<g id="a_node12"><a xlink:title=" ">
<polygon fill="white" stroke="#666666" points="1129.38,-197.32 1019.62,-197.32 1019.62,-178.07 1129.38,-178.07 1129.38,-197.32"/>
<text text-anchor="middle" x="1074.5" y="-183.82" font-family="Helvetica,sans-Serif" font-size="10.00">FEMethodsSequence</text>
</a>
</g>
</g>
<!-- Node12&#45;&gt;Node1 -->
<g id="edge11" class="edge">
<title>Node12&#45;&gt;Node1</title>
<path fill="none" stroke="#9a32cd" stroke-dasharray="5,2" d="M1140.94,-183.82C1186.43,-183.27 1247.77,-186.86 1298.5,-205.19 1319.87,-212.91 1340.59,-229.75 1352.52,-240.64"/>
<polygon fill="#9a32cd" stroke="#9a32cd" points="1140.88,-180.32 1130.95,-184.02 1141.02,-187.32 1140.88,-180.32"/>
<text text-anchor="middle" x="1237" y="-217.69" font-family="Helvetica,sans-Serif" font-size="10.00"> loops_to_do_Mat</text>
<text text-anchor="middle" x="1237" y="-206.44" font-family="Helvetica,sans-Serif" font-size="10.00">loops_to_do_Rhs</text>
</g>
<!-- Node13 -->
<g id="node13" class="node">
<title>Node13</title>
<g id="a_node13"><a xlink:title=" ">
<polygon fill="white" stroke="#666666" points="1135.38,-129.32 1013.62,-129.32 1013.62,-110.07 1135.38,-110.07 1135.38,-129.32"/>
<text text-anchor="middle" x="1074.5" y="-115.82" font-family="Helvetica,sans-Serif" font-size="10.00">BasicMethodsSequence</text>
</a>
</g>
</g>
<!-- Node13&#45;&gt;Node1 -->
<g id="edge12" class="edge">
<title>Node13&#45;&gt;Node1</title>
<path fill="none" stroke="#9a32cd" stroke-dasharray="5,2" d="M1141.76,-108.34C1189.04,-103.79 1252.2,-105.3 1298.5,-134.69 1337.78,-159.63 1355.15,-217.44 1360.73,-240.72"/>
<polygon fill="#9a32cd" stroke="#9a32cd" points="1141.48,-104.85 1131.91,-109.41 1142.23,-111.8 1141.48,-104.85"/>
<text text-anchor="middle" x="1237" y="-170.19" font-family="Helvetica,sans-Serif" font-size="10.00"> postProcess_Mat</text>
<text text-anchor="middle" x="1237" y="-158.94" font-family="Helvetica,sans-Serif" font-size="10.00">postProcess_Rhs</text>
<text text-anchor="middle" x="1237" y="-147.69" font-family="Helvetica,sans-Serif" font-size="10.00">preProcess_Mat</text>
<text text-anchor="middle" x="1237" y="-136.44" font-family="Helvetica,sans-Serif" font-size="10.00">preProcess_Rhs</text>
</g>
<!-- Node14 -->
<g id="node14" class="node">
<title>Node14</title>
<g id="a_node14"><a xlink:title=" ">
<polygon fill="white" stroke="#666666" points="1123,-83.32 1026,-83.32 1026,-64.07 1123,-64.07 1123,-83.32"/>
<text text-anchor="middle" x="1074.5" y="-69.82" font-family="Helvetica,sans-Serif" font-size="10.00">unique_ptr&lt; bool &gt;</text>
</a>
</g>
</g>
<!-- Node14&#45;&gt;Node1 -->
<g id="edge13" class="edge">
<title>Node14&#45;&gt;Node1</title>
<path fill="none" stroke="#9a32cd" stroke-dasharray="5,2" d="M1121.27,-61.03C1169.91,-50.47 1246.78,-42.41 1298.5,-79.19 1353.44,-118.27 1361.53,-210.24 1362.69,-240.7"/>
<polygon fill="#9a32cd" stroke="#9a32cd" points="1120.58,-57.59 1111.62,-63.25 1122.15,-64.41 1120.58,-57.59"/>
<text text-anchor="middle" x="1237" y="-91.69" font-family="Helvetica,sans-Serif" font-size="10.00"> matAssembleSwitch</text>
<text text-anchor="middle" x="1237" y="-80.44" font-family="Helvetica,sans-Serif" font-size="10.00">vecAssembleSwitch</text>
</g>
<!-- Node15 -->
<g id="node15" class="node">
<title>Node15</title>
<g id="a_node15"><a xlink:title=" ">
<polygon fill="white" stroke="#666666" points="1115.88,-37.32 1033.12,-37.32 1033.12,-18.07 1115.88,-18.07 1115.88,-37.32"/>
<text text-anchor="middle" x="1074.5" y="-23.82" font-family="Helvetica,sans-Serif" font-size="10.00">PetscLogEvent</text>
</a>
</g>
</g>
<!-- Node15&#45;&gt;Node1 -->
<g id="edge14" class="edge">
<title>Node15&#45;&gt;Node1</title>
<path fill="none" stroke="#9a32cd" stroke-dasharray="5,2" d="M1114.82,-14.31C1163.19,-0.53 1245.4,13.82 1298.5,-26.19 1334.28,-53.16 1356.26,-200.88 1361.6,-240.76"/>
<polygon fill="#9a32cd" stroke="#9a32cd" points="1113.9,-10.93 1105.32,-17.15 1115.91,-17.63 1113.9,-10.93"/>
<text text-anchor="middle" x="1237" y="-39.69" font-family="Helvetica,sans-Serif" font-size="10.00"> MOFEM_EVENT_SnesMat</text>
<text text-anchor="middle" x="1237" y="-28.44" font-family="Helvetica,sans-Serif" font-size="10.00">MOFEM_EVENT_SnesRhs</text>
</g>
</g>
</svg>
        <g id="navigator" transform="translate(0 0)" fill="#404254">
                <rect fill="#f2f5e9" fill-opacity="0.5" stroke="#606060" stroke-width=".5" x="0" y="0" width="60" height="60"/>
                <use id="zoomplus" xlink:href="#zoomPlus" x="17" y="9" onmousedown="handleZoom(evt,'in')"/>
                <use id="zoomminus" xlink:href="#zoomMin" x="42" y="9" onmousedown="handleZoom(evt,'out')"/>
                <use id="reset" xlink:href="#resetDef" x="30" y="36" onmousedown="handleReset()"/>
                <g id="arrowUp" xlink:href="#dirArrow" transform="translate(30 24)" onmousedown="handlePan(0,-1)">
                  <use xlink:href="#rim" fill="#404040">
                        <set attributeName="fill" to="#808080" begin="arrowUp.mouseover" end="arrowUp.mouseout"/>
                  </use>
                  <path fill="none" stroke="white" stroke-width="1.5" d="M0,-3.0v7 M-2.5,-0.5L0,-3.0L2.5,-0.5"/>
                </g>
                <g id="arrowRight" xlink:href="#dirArrow" transform="rotate(90) translate(36 -43)" onmousedown="handlePan(1,0)">
                  <use xlink:href="#rim" fill="#404040">
                        <set attributeName="fill" to="#808080" begin="arrowRight.mouseover" end="arrowRight.mouseout"/>
                  </use>
                  <path fill="none" stroke="white" stroke-width="1.5" d="M0,-3.0v7 M-2.5,-0.5L0,-3.0L2.5,-0.5"/>
                </g>
                <g id="arrowDown" xlink:href="#dirArrow" transform="rotate(180) translate(-30 -48)" onmousedown="handlePan(0,1)">
                  <use xlink:href="#rim" fill="#404040">
                        <set attributeName="fill" to="#808080" begin="arrowDown.mouseover" end="arrowDown.mouseout"/>
                  </use>
                  <path fill="none" stroke="white" stroke-width="1.5" d="M0,-3.0v7 M-2.5,-0.5L0,-3.0L2.5,-0.5"/>
                </g>
                <g id="arrowLeft" xlink:href="#dirArrow" transform="rotate(270) translate(-36 17)" onmousedown="handlePan(-1,0)">
                  <use xlink:href="#rim" fill="#404040">
                        <set attributeName="fill" to="#808080" begin="arrowLeft.mouseover" end="arrowLeft.mouseout"/>
                  </use>
                  <path fill="none" stroke="white" stroke-width="1.5" d="M0,-3.0v7 M-2.5,-0.5L0,-3.0L2.5,-0.5"/>
                </g>
        </g>
        <svg viewBox="0 0 15 15" width="100%" height="30px" preserveAspectRatio="xMaxYMin meet">
         <g id="arrow_out" transform="scale(0.3 0.3)">
          <a xlink:href="struct_mo_f_e_m_1_1_snes_ctx__coll__graph_org.svg" target="_base">
           <rect id="button" ry="5" rx="5" y="6" x="6" height="38" width="38"
                fill="#f2f5e9" fill-opacity="0.5" stroke="#606060" stroke-width="1.0"/>
           <path id="arrow"
             d="M 11.500037,31.436501 C 11.940474,20.09759 22.043105,11.32322 32.158766,21.979434 L 37.068811,17.246167 C 37.068811,17.246167 37.088388,32 37.088388,32 L 22.160133,31.978069 C 22.160133,31.978069 26.997745,27.140456 26.997745,27.140456 C 18.528582,18.264221 13.291696,25.230495 11.500037,31.436501 z"
             style="fill:#404040;"/>
          </a>
         </g>
        </svg>
</svg>
