<?xml version="1.0" encoding="UTF-8" standalone="no"?>
<!DOCTYPE svg PUBLIC "-//W3C//DTD SVG 1.1//EN"
 "http://www.w3.org/Graphics/SVG/1.1/DTD/svg11.dtd">
<!-- Generated by graphviz version 9.0.0 (20230911.1827)
 -->
<!-- Title: PoissonExample::OpK Pages: 1 -->
<svg width="176pt" height="149pt"
 viewBox="0.00 0.00 176.25 149.00" xmlns="http://www.w3.org/2000/svg" xmlns:xlink="http://www.w3.org/1999/xlink">
<g id="graph0" class="graph" transform="scale(1 1) rotate(0) translate(4 145)">
<title>PoissonExample::OpK</title>
<!-- Node1 -->
<g id="node1" class="node">
<title>Node1</title>
<g id="a_node1"><a xlink:title="Calculate the grad&#45;grad operator and assemble matrix.">
<polygon fill="#999999" stroke="#666666" points="141.62,-74.5 26.62,-74.5 26.62,-55.25 141.62,-55.25 141.62,-74.5"/>
<text text-anchor="middle" x="84.12" y="-61" font-family="Helvetica,sans-Serif" font-size="10.00">PoissonExample::OpK</text>
</a>
</g>
</g>
<!-- Node3 -->
<g id="node3" class="node">
<title>Node3</title>
<g id="a_node3"><a xlink:href="struct_poisson_example_1_1_op_kt.html" target="_top" xlink:title=" ">
<polygon fill="white" stroke="#666666" points="143.12,-19.25 25.12,-19.25 25.12,0 143.12,0 143.12,-19.25"/>
<text text-anchor="middle" x="84.12" y="-5.75" font-family="Helvetica,sans-Serif" font-size="10.00">PoissonExample::OpKt</text>
</a>
</g>
</g>
<!-- Node1&#45;&gt;Node3 -->
<g id="edge2" class="edge">
<title>Node1&#45;&gt;Node3</title>
<path fill="none" stroke="#63b8ff" d="M84.12,-43.63C84.12,-35.34 84.12,-26.17 84.12,-19.61"/>
<polygon fill="#63b8ff" stroke="#63b8ff" points="80.63,-43.57 84.13,-53.57 87.63,-43.57 80.63,-43.57"/>
</g>
<!-- Node2 -->
<g id="node2" class="node">
<title>Node2</title>
<g id="a_node2"><a xlink:title=" ">
<polygon fill="white" stroke="#666666" points="168.25,-141 0,-141 0,-110.5 168.25,-110.5 168.25,-141"/>
<text text-anchor="start" x="8" y="-127.5" font-family="Helvetica,sans-Serif" font-size="10.00">VolumeElementForcesAndSources</text>
<text text-anchor="middle" x="84.12" y="-116.25" font-family="Helvetica,sans-Serif" font-size="10.00">Core::UserDataOperator</text>
</a>
</g>
</g>
<!-- Node2&#45;&gt;Node1 -->
<g id="edge1" class="edge">
<title>Node2&#45;&gt;Node1</title>
<path fill="none" stroke="#63b8ff" d="M84.12,-98.73C84.12,-90.23 84.12,-81.34 84.12,-74.95"/>
<polygon fill="#63b8ff" stroke="#63b8ff" points="80.63,-98.68 84.13,-108.68 87.63,-98.68 80.63,-98.68"/>
</g>
</g>
</svg>
