<?xml version="1.0" encoding="UTF-8" standalone="no"?>
<!DOCTYPE svg PUBLIC "-//W3C//DTD SVG 1.1//EN"
 "http://www.w3.org/Graphics/SVG/1.1/DTD/svg11.dtd">
<!-- Generated by graphviz version 2.43.0 (0)
 -->
<!-- Title: MoFEM::LobattoPolynomial Pages: 1 -->
<svg width="178pt" height="263pt"
 viewBox="0.00 0.00 178.00 263.00" xmlns="http://www.w3.org/2000/svg" xmlns:xlink="http://www.w3.org/1999/xlink">
<g id="graph0" class="graph" transform="scale(1 1) rotate(0) translate(4 259)">
<title>MoFEM::LobattoPolynomial</title>
<polygon fill="white" stroke="transparent" points="-4,4 -4,-259 174,-259 174,4 -4,4"/>
<!-- Node1 -->
<g id="node1" class="node">
<title>Node1</title>
<g id="a_node1"><a xlink:title="Calculating Lobatto base functions.">
<polygon fill="#bfbfbf" stroke="black" points="10,-0.5 10,-19.5 160,-19.5 160,-0.5 10,-0.5"/>
<text text-anchor="middle" x="85" y="-7.5" font-family="Helvetica,sans-Serif" font-size="10.00">MoFEM::LobattoPolynomial</text>
</a>
</g>
</g>
<!-- Node2 -->
<g id="node2" class="node">
<title>Node2</title>
<g id="a_node2"><a xlink:href="structMoFEM_1_1LegendrePolynomial.html" target="_top" xlink:title="Calculating Legendre base functions.">
<polygon fill="white" stroke="black" points="6,-56.5 6,-75.5 164,-75.5 164,-56.5 6,-56.5"/>
<text text-anchor="middle" x="85" y="-63.5" font-family="Helvetica,sans-Serif" font-size="10.00">MoFEM::LegendrePolynomial</text>
</a>
</g>
</g>
<!-- Node2&#45;&gt;Node1 -->
<g id="edge1" class="edge">
<title>Node2&#45;&gt;Node1</title>
<path fill="none" stroke="midnightblue" d="M85,-45.8C85,-36.91 85,-26.78 85,-19.75"/>
<polygon fill="midnightblue" stroke="midnightblue" points="81.5,-46.08 85,-56.08 88.5,-46.08 81.5,-46.08"/>
</g>
<!-- Node3 -->
<g id="node3" class="node">
<title>Node3</title>
<g id="a_node3"><a xlink:href="structMoFEM_1_1BaseFunction.html" target="_top" xlink:title="Base class if inherited used to calculate base functions.">
<polygon fill="white" stroke="black" points="23,-112.5 23,-131.5 147,-131.5 147,-112.5 23,-112.5"/>
<text text-anchor="middle" x="85" y="-119.5" font-family="Helvetica,sans-Serif" font-size="10.00">MoFEM::BaseFunction</text>
</a>
</g>
</g>
<!-- Node3&#45;&gt;Node2 -->
<g id="edge2" class="edge">
<title>Node3&#45;&gt;Node2</title>
<path fill="none" stroke="midnightblue" d="M85,-101.8C85,-92.91 85,-82.78 85,-75.75"/>
<polygon fill="midnightblue" stroke="midnightblue" points="81.5,-102.08 85,-112.08 88.5,-102.08 81.5,-102.08"/>
</g>
<!-- Node4 -->
<g id="node4" class="node">
<title>Node4</title>
<g id="a_node4"><a xlink:href="structMoFEM_1_1BaseFunctionUnknownInterface.html" target="_top" xlink:title=" ">
<polygon fill="white" stroke="black" points="0,-168.5 0,-198.5 170,-198.5 170,-168.5 0,-168.5"/>
<text text-anchor="start" x="8" y="-186.5" font-family="Helvetica,sans-Serif" font-size="10.00">MoFEM::BaseFunctionUnknown</text>
<text text-anchor="middle" x="85" y="-175.5" font-family="Helvetica,sans-Serif" font-size="10.00">Interface</text>
</a>
</g>
</g>
<!-- Node4&#45;&gt;Node3 -->
<g id="edge3" class="edge">
<title>Node4&#45;&gt;Node3</title>
<path fill="none" stroke="midnightblue" d="M85,-158.29C85,-148.86 85,-138.65 85,-131.66"/>
<polygon fill="midnightblue" stroke="midnightblue" points="81.5,-158.4 85,-168.4 88.5,-158.4 81.5,-158.4"/>
</g>
<!-- Node5 -->
<g id="node5" class="node">
<title>Node5</title>
<g id="a_node5"><a xlink:href="structMoFEM_1_1UnknownInterface.html" target="_top" xlink:title="base class for all interface classes">
<polygon fill="white" stroke="black" points="11,-235.5 11,-254.5 159,-254.5 159,-235.5 11,-235.5"/>
<text text-anchor="middle" x="85" y="-242.5" font-family="Helvetica,sans-Serif" font-size="10.00">MoFEM::UnknownInterface</text>
</a>
</g>
</g>
<!-- Node5&#45;&gt;Node4 -->
<g id="edge4" class="edge">
<title>Node5&#45;&gt;Node4</title>
<path fill="none" stroke="midnightblue" d="M85,-225.23C85,-216.59 85,-206.5 85,-198.52"/>
<polygon fill="midnightblue" stroke="midnightblue" points="81.5,-225.48 85,-235.48 88.5,-225.48 81.5,-225.48"/>
</g>
</g>
</svg>
