<?xml version="1.0" encoding="UTF-8" standalone="no"?>
<!DOCTYPE svg PUBLIC "-//W3C//DTD SVG 1.1//EN"
 "http://www.w3.org/Graphics/SVG/1.1/DTD/svg11.dtd">
<!-- Generated by graphviz version 9.0.0 (20230911.1827)
 -->
<!-- Title: MoFEM::OpBaseTimesScalarImpl&lt; 1, S, GAUSS, OpBase &gt; Pages: 1 -->
<svg width="161pt" height="149pt"
 viewBox="0.00 0.00 161.25 149.00" xmlns="http://www.w3.org/2000/svg" xmlns:xlink="http://www.w3.org/1999/xlink">
<g id="graph0" class="graph" transform="scale(1 1) rotate(0) translate(4 145)">
<title>MoFEM::OpBaseTimesScalarImpl&lt; 1, S, GAUSS, OpBase &gt;</title>
<!-- Node1 -->
<g id="node1" class="node">
<title>Node1</title>
<g id="a_node1"><a xlink:title=" ">
<polygon fill="#999999" stroke="#666666" points="153.25,-30.5 0,-30.5 0,0 153.25,0 153.25,-30.5"/>
<text text-anchor="start" x="8" y="-17" font-family="Helvetica,sans-Serif" font-size="10.00">MoFEM::OpBaseTimesScalar</text>
<text text-anchor="middle" x="76.62" y="-5.75" font-family="Helvetica,sans-Serif" font-size="10.00">Impl&lt; 1, S, GAUSS, OpBase &gt;</text>
</a>
</g>
</g>
<!-- Node2 -->
<g id="node2" class="node">
<title>Node2</title>
<g id="a_node2"><a xlink:href="struct_mo_f_e_m_1_1_op_base_impl.html" target="_top" xlink:title=" ">
<polygon fill="white" stroke="#666666" points="102.25,-85.75 51,-85.75 51,-66.5 102.25,-66.5 102.25,-85.75"/>
<text text-anchor="middle" x="76.62" y="-72.25" font-family="Helvetica,sans-Serif" font-size="10.00">OpBase</text>
</a>
</g>
</g>
<!-- Node2&#45;&gt;Node1 -->
<g id="edge1" class="edge">
<title>Node2&#45;&gt;Node1</title>
<path fill="none" stroke="#63b8ff" d="M76.62,-54.92C76.62,-46.99 76.62,-38.06 76.62,-30.78"/>
<polygon fill="#63b8ff" stroke="#63b8ff" points="73.13,-54.67 76.63,-64.67 80.13,-54.67 73.13,-54.67"/>
</g>
<!-- Node3 -->
<g id="node3" class="node">
<title>Node3</title>
<g id="a_node3"><a xlink:title=" ">
<polygon fill="white" stroke="#666666" points="98.12,-141 55.12,-141 55.12,-121.75 98.12,-121.75 98.12,-141"/>
<text text-anchor="middle" x="76.62" y="-127.5" font-family="Helvetica,sans-Serif" font-size="10.00">EleOp</text>
</a>
</g>
</g>
<!-- Node3&#45;&gt;Node2 -->
<g id="edge2" class="edge">
<title>Node3&#45;&gt;Node2</title>
<path fill="none" stroke="#63b8ff" d="M76.62,-110.13C76.62,-101.84 76.62,-92.67 76.62,-86.11"/>
<polygon fill="#63b8ff" stroke="#63b8ff" points="73.13,-110.07 76.63,-120.07 80.13,-110.07 73.13,-110.07"/>
</g>
</g>
</svg>
