<?xml version="1.0" encoding="UTF-8" standalone="no"?>
<!DOCTYPE svg PUBLIC "-//W3C//DTD SVG 1.1//EN"
 "http://www.w3.org/Graphics/SVG/1.1/DTD/svg11.dtd">
<!-- Generated by graphviz version 9.0.0 (20230911.1827)
 -->
<!-- Title: LevelSet::WrapperClass Pages: 1 -->
<svg width="312pt" height="94pt"
 viewBox="0.00 0.00 311.75 93.75" xmlns="http://www.w3.org/2000/svg" xmlns:xlink="http://www.w3.org/1999/xlink">
<g id="graph0" class="graph" transform="scale(1 1) rotate(0) translate(4 89.75)">
<title>LevelSet::WrapperClass</title>
<!-- Node1 -->
<g id="node1" class="node">
<title>Node1</title>
<g id="a_node1"><a xlink:title="Wrapper executing stages while mesh refinement.">
<polygon fill="#999999" stroke="#666666" points="212.25,-85.75 90.5,-85.75 90.5,-66.5 212.25,-66.5 212.25,-85.75"/>
<text text-anchor="middle" x="151.38" y="-72.25" font-family="Helvetica,sans-Serif" font-size="10.00">LevelSet::WrapperClass</text>
</a>
</g>
</g>
<!-- Node2 -->
<g id="node2" class="node">
<title>Node2</title>
<g id="a_node2"><a xlink:href="struct_level_set_1_1_wrapper_class_error_projection.html" target="_top" xlink:title="Use peculated errors on all levels while mesh projection.">
<polygon fill="white" stroke="#666666" points="142.75,-30.5 0,-30.5 0,0 142.75,0 142.75,-30.5"/>
<text text-anchor="start" x="8" y="-17" font-family="Helvetica,sans-Serif" font-size="10.00">LevelSet::WrapperClassError</text>
<text text-anchor="middle" x="71.38" y="-5.75" font-family="Helvetica,sans-Serif" font-size="10.00">Projection</text>
</a>
</g>
</g>
<!-- Node1&#45;&gt;Node2 -->
<g id="edge1" class="edge">
<title>Node1&#45;&gt;Node2</title>
<path fill="none" stroke="#63b8ff" d="M130.26,-59.59C118.14,-50.67 103.01,-39.53 91.12,-30.78"/>
<polygon fill="#63b8ff" stroke="#63b8ff" points="127.88,-62.18 138.01,-65.29 132.03,-56.54 127.88,-62.18"/>
</g>
<!-- Node3 -->
<g id="node3" class="node">
<title>Node3</title>
<g id="a_node3"><a xlink:href="struct_level_set_1_1_wrapper_class_inital_solution.html" target="_top" xlink:title="Used to execute inital mesh approximation while mesh refinement.">
<polygon fill="white" stroke="#666666" points="303.75,-30.5 161,-30.5 161,0 303.75,0 303.75,-30.5"/>
<text text-anchor="start" x="169" y="-17" font-family="Helvetica,sans-Serif" font-size="10.00">LevelSet::WrapperClassInital</text>
<text text-anchor="middle" x="232.38" y="-5.75" font-family="Helvetica,sans-Serif" font-size="10.00">Solution</text>
</a>
</g>
</g>
<!-- Node1&#45;&gt;Node3 -->
<g id="edge2" class="edge">
<title>Node1&#45;&gt;Node3</title>
<path fill="none" stroke="#63b8ff" d="M172.75,-59.59C185.03,-50.67 200.35,-39.53 212.38,-30.78"/>
<polygon fill="#63b8ff" stroke="#63b8ff" points="170.93,-56.58 164.9,-65.29 175.05,-62.24 170.93,-56.58"/>
</g>
</g>
</svg>
