<?xml version="1.0" encoding="UTF-8" standalone="no"?>
<!DOCTYPE svg PUBLIC "-//W3C//DTD SVG 1.1//EN"
 "http://www.w3.org/Graphics/SVG/1.1/DTD/svg11.dtd">
<!-- Generated by graphviz version 9.0.0 (20230911.1827)
 -->
<!-- Title: MoFEM::OpFluxRhsImpl&lt; NaturalMeshsetType&lt; UNKNOWNSET &gt;, 3, FIELD_DIM, A, I, OpBase &gt; Pages: 1 -->
<svg width="506pt" height="218pt"
 viewBox="0.00 0.00 505.75 218.00" xmlns="http://www.w3.org/2000/svg" xmlns:xlink="http://www.w3.org/1999/xlink">
<g id="graph0" class="graph" transform="scale(1 1) rotate(0) translate(4 214)">
<title>MoFEM::OpFluxRhsImpl&lt; NaturalMeshsetType&lt; UNKNOWNSET &gt;, 3, FIELD_DIM, A, I, OpBase &gt;</title>
<!-- Node1 -->
<g id="node1" class="node">
<title>Node1</title>
<g id="a_node1"><a xlink:title=" ">
<polygon fill="#999999" stroke="#666666" points="497.75,-122.38 344.5,-122.38 344.5,-69.38 497.75,-69.38 497.75,-122.38"/>
<text text-anchor="start" x="352.5" y="-108.88" font-family="Helvetica,sans-Serif" font-size="10.00">MoFEM::OpFluxRhsImpl</text>
<text text-anchor="start" x="352.5" y="-97.62" font-family="Helvetica,sans-Serif" font-size="10.00">&lt; NaturalMeshsetType</text>
<text text-anchor="start" x="352.5" y="-86.38" font-family="Helvetica,sans-Serif" font-size="10.00">&lt; UNKNOWNSET &gt;, 3, FIELD</text>
<text text-anchor="middle" x="421.12" y="-75.12" font-family="Helvetica,sans-Serif" font-size="10.00">_DIM, A, I, OpBase &gt;</text>
</a>
</g>
</g>
<!-- Node2 -->
<g id="node2" class="node">
<title>Node2</title>
<g id="a_node2"><a xlink:href="class_forms_integrators_3_01_op_base_01_4_1_1template_01_assembly_3_01_a_01_4_1_1template_01_linc9a69e9c71389bd6dec0bb1c4c914636.html" target="_top" xlink:title=" ">
<polygon fill="white" stroke="#666666" points="187.75,-210 0,-210 0,-145.75 187.75,-145.75 187.75,-210"/>
<text text-anchor="start" x="8" y="-196.5" font-family="Helvetica,sans-Serif" font-size="10.00">FormsIntegrators&lt; OpBase</text>
<text text-anchor="start" x="8" y="-185.25" font-family="Helvetica,sans-Serif" font-size="10.00"> &gt;::template Assembly&lt;</text>
<text text-anchor="start" x="8" y="-174" font-family="Helvetica,sans-Serif" font-size="10.00"> A &gt;::template LinearForm</text>
<text text-anchor="start" x="8" y="-162.75" font-family="Helvetica,sans-Serif" font-size="10.00">&lt; I &gt;::template OpNormalMixVecTimes</text>
<text text-anchor="middle" x="93.88" y="-151.5" font-family="Helvetica,sans-Serif" font-size="10.00">Scalar&lt; FIELD_DIM &gt;</text>
</a>
</g>
</g>
<!-- Node2&#45;&gt;Node1 -->
<g id="edge1" class="edge">
<title>Node2&#45;&gt;Node1</title>
<path fill="none" stroke="#63b8ff" d="M199.09,-155.78C239.1,-146.84 285.08,-136.01 326.5,-124.88 332.25,-123.33 338.18,-121.66 344.13,-119.94"/>
<polygon fill="#63b8ff" stroke="#63b8ff" points="198.45,-152.34 189.45,-157.93 199.97,-159.17 198.45,-152.34"/>
</g>
<!-- Node3 -->
<g id="node3" class="node">
<title>Node3</title>
<g id="a_node3"><a xlink:href="classdouble.html" target="_top" xlink:title=" ">
<polygon fill="white" stroke="#666666" points="116.12,-127.5 71.62,-127.5 71.62,-108.25 116.12,-108.25 116.12,-127.5"/>
<text text-anchor="middle" x="93.88" y="-114" font-family="Helvetica,sans-Serif" font-size="10.00">double</text>
</a>
</g>
</g>
<!-- Node3&#45;&gt;Node1 -->
<g id="edge2" class="edge">
<title>Node3&#45;&gt;Node1</title>
<path fill="none" stroke="#9a32cd" stroke-dasharray="5,2" d="M127.94,-115.64C178.35,-112.23 275.79,-105.64 344.24,-101.01"/>
<polygon fill="#9a32cd" stroke="#9a32cd" points="127.72,-112.15 117.98,-116.31 128.19,-119.13 127.72,-112.15"/>
<text text-anchor="middle" x="266.12" y="-111.62" font-family="Helvetica,sans-Serif" font-size="10.00"> scalarValue</text>
</g>
<!-- Node4 -->
<g id="node4" class="node">
<title>Node4</title>
<g id="a_node4"><a xlink:title=" ">
<polygon fill="white" stroke="#666666" points="155.88,-90.12 31.88,-90.12 31.88,-59.62 155.88,-59.62 155.88,-90.12"/>
<text text-anchor="start" x="39.88" y="-76.62" font-family="Helvetica,sans-Serif" font-size="10.00">vector&lt; boost::shared</text>
<text text-anchor="middle" x="93.88" y="-65.38" font-family="Helvetica,sans-Serif" font-size="10.00">_ptr&lt; ScalingMethod &gt; &gt;</text>
</a>
</g>
</g>
<!-- Node4&#45;&gt;Node1 -->
<g id="edge3" class="edge">
<title>Node4&#45;&gt;Node1</title>
<path fill="none" stroke="#9a32cd" stroke-dasharray="5,2" d="M167.21,-76.48C212.94,-77.85 273.24,-80.31 326.5,-84.62 332.21,-85.09 338.11,-85.63 344.04,-86.23"/>
<polygon fill="#9a32cd" stroke="#9a32cd" points="167.52,-72.99 157.43,-76.2 167.32,-79.98 167.52,-72.99"/>
<text text-anchor="middle" x="266.12" y="-85.62" font-family="Helvetica,sans-Serif" font-size="10.00"> vecOfTimeScalingMethods</text>
</g>
<!-- Node5 -->
<g id="node5" class="node">
<title>Node5</title>
<g id="a_node5"><a xlink:title=" ">
<polygon fill="white" stroke="#666666" points="151.38,-41.75 36.38,-41.75 36.38,0 151.38,0 151.38,-41.75"/>
<text text-anchor="start" x="44.38" y="-28.25" font-family="Helvetica,sans-Serif" font-size="10.00">function&lt; double(const</text>
<text text-anchor="start" x="44.38" y="-17" font-family="Helvetica,sans-Serif" font-size="10.00"> double, const double,</text>
<text text-anchor="middle" x="93.88" y="-5.75" font-family="Helvetica,sans-Serif" font-size="10.00"> const double)&gt;</text>
</a>
</g>
</g>
<!-- Node5&#45;&gt;Node1 -->
<g id="edge4" class="edge">
<title>Node5&#45;&gt;Node1</title>
<path fill="none" stroke="#9a32cd" stroke-dasharray="5,2" d="M162.81,-29.6C209.35,-36.36 272.22,-47.04 326.5,-61.62 334.36,-63.74 342.48,-66.23 350.52,-68.88"/>
<polygon fill="#9a32cd" stroke="#9a32cd" points="163.54,-26.17 153.15,-28.22 162.55,-33.1 163.54,-26.17"/>
<text text-anchor="middle" x="266.12" y="-62.62" font-family="Helvetica,sans-Serif" font-size="10.00"> userFun</text>
</g>
</g>
</svg>
