<?xml version="1.0" encoding="UTF-8" standalone="no"?>
<!DOCTYPE svg PUBLIC "-//W3C//DTD SVG 1.1//EN"
 "http://www.w3.org/Graphics/SVG/1.1/DTD/svg11.dtd">
<!-- Generated by graphviz version 9.0.0 (20230911.1827)
 -->
<!-- Title: SimpleContactProblem::OpCalContactAugmentedTractionOverLambdaMasterSlave Pages: 1 -->
<svg width="531pt" height="125pt"
 viewBox="0.00 0.00 531.25 124.88" xmlns="http://www.w3.org/2000/svg" xmlns:xlink="http://www.w3.org/1999/xlink">
<g id="graph0" class="graph" transform="scale(1 1) rotate(0) translate(4 120.88)">
<title>SimpleContactProblem::OpCalContactAugmentedTractionOverLambdaMasterSlave</title>
<!-- Node1 -->
<g id="node1" class="node">
<title>Node1</title>
<g id="a_node1"><a xlink:title="LHS&#45;operator for the simple contact element with Augmented Lagrangian Method.">
<polygon fill="#999999" stroke="#666666" points="523.25,-73.5 354.25,-73.5 354.25,-31.75 523.25,-31.75 523.25,-73.5"/>
<text text-anchor="start" x="362.25" y="-60" font-family="Helvetica,sans-Serif" font-size="10.00">SimpleContactProblem</text>
<text text-anchor="start" x="362.25" y="-48.75" font-family="Helvetica,sans-Serif" font-size="10.00">::OpCalContactAugmentedTraction</text>
<text text-anchor="middle" x="438.75" y="-37.5" font-family="Helvetica,sans-Serif" font-size="10.00">OverLambdaMasterSlave</text>
</a>
</g>
</g>
<!-- Node2 -->
<g id="node2" class="node">
<title>Node2</title>
<g id="a_node2"><a xlink:title=" ">
<polygon fill="white" stroke="#666666" points="184,-116.88 8.25,-116.88 8.25,-86.38 184,-86.38 184,-116.88"/>
<text text-anchor="start" x="16.25" y="-103.38" font-family="Helvetica,sans-Serif" font-size="10.00">ContactPrismElementForces</text>
<text text-anchor="middle" x="96.12" y="-92.12" font-family="Helvetica,sans-Serif" font-size="10.00">AndSourcesCore::UserDataOperator</text>
</a>
</g>
</g>
<!-- Node2&#45;&gt;Node1 -->
<g id="edge1" class="edge">
<title>Node2&#45;&gt;Node1</title>
<path fill="none" stroke="#63b8ff" d="M195.68,-87.74C238.83,-81.62 290.06,-74.32 336.25,-67.62 341.98,-66.79 347.89,-65.93 353.84,-65.06"/>
<polygon fill="#63b8ff" stroke="#63b8ff" points="195.22,-84.27 185.81,-89.13 196.2,-91.2 195.22,-84.27"/>
</g>
<!-- Node3 -->
<g id="node3" class="node">
<title>Node3</title>
<g id="a_node3"><a xlink:title=" ">
<polygon fill="white" stroke="#666666" points="192.25,-67.88 0,-67.88 0,-37.38 192.25,-37.38 192.25,-67.88"/>
<text text-anchor="start" x="8" y="-54.38" font-family="Helvetica,sans-Serif" font-size="10.00">shared_ptr&lt; SimpleContact</text>
<text text-anchor="middle" x="96.12" y="-43.12" font-family="Helvetica,sans-Serif" font-size="10.00">Problem::CommonDataSimpleContact &gt;</text>
</a>
</g>
</g>
<!-- Node3&#45;&gt;Node1 -->
<g id="edge2" class="edge">
<title>Node3&#45;&gt;Node1</title>
<path fill="none" stroke="#9a32cd" stroke-dasharray="5,2" d="M203.94,-52.62C252.35,-52.62 308.76,-52.62 354.03,-52.62"/>
<polygon fill="#9a32cd" stroke="#9a32cd" points="203.97,-49.13 193.97,-52.63 203.97,-56.13 203.97,-49.13"/>
<text text-anchor="middle" x="273.25" y="-54.38" font-family="Helvetica,sans-Serif" font-size="10.00"> commonDataSimpleContact</text>
</g>
<!-- Node4 -->
<g id="node4" class="node">
<title>Node4</title>
<g id="a_node4"><a xlink:title=" ">
<polygon fill="white" stroke="#666666" points="133,-19.25 59.25,-19.25 59.25,0 133,0 133,-19.25"/>
<text text-anchor="middle" x="96.12" y="-5.75" font-family="Helvetica,sans-Serif" font-size="10.00">MatrixDouble</text>
</a>
</g>
</g>
<!-- Node4&#45;&gt;Node1 -->
<g id="edge3" class="edge">
<title>Node4&#45;&gt;Node1</title>
<path fill="none" stroke="#9a32cd" stroke-dasharray="5,2" d="M144.56,-14.66C192.86,-19.89 269.85,-28.54 336.25,-37.38 341.99,-38.14 347.91,-38.96 353.87,-39.8"/>
<polygon fill="#9a32cd" stroke="#9a32cd" points="145.05,-11.19 134.73,-13.59 144.3,-18.15 145.05,-11.19"/>
<text text-anchor="middle" x="273.25" y="-39.38" font-family="Helvetica,sans-Serif" font-size="10.00"> NN</text>
</g>
</g>
</svg>
