<?xml version="1.0" encoding="UTF-8" standalone="no"?>
<!DOCTYPE svg PUBLIC "-//W3C//DTD SVG 1.1//EN"
 "http://www.w3.org/Graphics/SVG/1.1/DTD/svg11.dtd">
<!-- Generated by graphviz version 2.43.0 (0)
 -->
<!-- Title: PlasticOps::OpCalculateConstraintsLhs_LogStrain_dUImpl&lt; DIM, GAUSS, AssemblyDomainEleOp &gt; Pages: 1 -->
<svg width="797pt" height="445pt"
 viewBox="0.00 0.00 797.00 444.92" xmlns="http://www.w3.org/2000/svg" xmlns:xlink="http://www.w3.org/1999/xlink">
<g id="graph0" class="graph" transform="scale(1 1) rotate(0) translate(4 440.92)">
<title>PlasticOps::OpCalculateConstraintsLhs_LogStrain_dUImpl&lt; DIM, GAUSS, AssemblyDomainEleOp &gt;</title>
<polygon fill="white" stroke="transparent" points="-4,4 -4,-440.92 793,-440.92 793,4 -4,4"/>
<!-- Node1 -->
<g id="node1" class="node">
<title>Node1</title>
<g id="a_node1"><a xlink:title=" ">
<polygon fill="#bfbfbf" stroke="black" points="601,-160.42 601,-201.42 789,-201.42 789,-160.42 601,-160.42"/>
<text text-anchor="start" x="609" y="-189.42" font-family="Helvetica,sans-Serif" font-size="10.00">PlasticOps::OpCalculateConstraints</text>
<text text-anchor="start" x="609" y="-178.42" font-family="Helvetica,sans-Serif" font-size="10.00">Lhs_LogStrain_dUImpl&lt; DIM,</text>
<text text-anchor="middle" x="695" y="-167.42" font-family="Helvetica,sans-Serif" font-size="10.00"> GAUSS, AssemblyDomainEleOp &gt;</text>
</a>
</g>
</g>
<!-- Node2 -->
<g id="node2" class="node">
<title>Node2</title>
<g id="a_node2"><a xlink:href="structMoFEM_1_1OpBaseImpl.html" target="_top" xlink:title=" ">
<polygon fill="white" stroke="black" points="302,-247.42 302,-266.42 433,-266.42 433,-247.42 302,-247.42"/>
<text text-anchor="middle" x="367.5" y="-254.42" font-family="Helvetica,sans-Serif" font-size="10.00">AssemblyDomainEleOp</text>
</a>
</g>
</g>
<!-- Node2&#45;&gt;Node1 -->
<g id="edge1" class="edge">
<title>Node2&#45;&gt;Node1</title>
<path fill="none" stroke="midnightblue" d="M443.14,-249.47C484.76,-244.31 537.27,-236.14 583,-223.92 604.66,-218.13 627.9,-209.52 647.49,-201.53"/>
<polygon fill="midnightblue" stroke="midnightblue" points="442.58,-246.01 433.08,-250.68 443.42,-252.96 442.58,-246.01"/>
</g>
<!-- Node3 -->
<g id="node3" class="node">
<title>Node3</title>
<g id="a_node3"><a xlink:href="classEleOp.html" target="_top" xlink:title=" ">
<polygon fill="white" stroke="black" points="52,-417.42 52,-436.42 97,-436.42 97,-417.42 52,-417.42"/>
<text text-anchor="middle" x="74.5" y="-424.42" font-family="Helvetica,sans-Serif" font-size="10.00">EleOp</text>
</a>
</g>
</g>
<!-- Node3&#45;&gt;Node2 -->
<g id="edge2" class="edge">
<title>Node3&#45;&gt;Node2</title>
<path fill="none" stroke="midnightblue" d="M107.05,-430.99C148.06,-434.64 220.39,-435.36 271,-403.92 325.03,-370.35 354.49,-293.61 363.49,-266.57"/>
<polygon fill="midnightblue" stroke="midnightblue" points="107.39,-427.5 97.09,-429.99 106.69,-434.47 107.39,-427.5"/>
</g>
<!-- Node4 -->
<g id="node4" class="node">
<title>Node4</title>
<g id="a_node4"><a xlink:href="classUBlasVector_3_01double_01_4.html" target="_top" xlink:title=" ">
<polygon fill="white" stroke="black" points="9,-379.42 9,-398.42 140,-398.42 140,-379.42 9,-379.42"/>
<text text-anchor="middle" x="74.5" y="-386.42" font-family="Helvetica,sans-Serif" font-size="10.00">UBlasVector&lt; double &gt;</text>
</a>
</g>
</g>
<!-- Node4&#45;&gt;Node2 -->
<g id="edge3" class="edge">
<title>Node4&#45;&gt;Node2</title>
<path fill="none" stroke="#9a32cd" stroke-dasharray="5,2" d="M150.09,-390.99C188.19,-389.16 234.15,-382.33 271,-362.92 314.83,-339.83 348.46,-288.12 361.08,-266.6"/>
<polygon fill="#9a32cd" stroke="#9a32cd" points="149.93,-387.49 140.07,-391.37 150.2,-394.49 149.93,-387.49"/>
<text text-anchor="middle" x="219" y="-391.92" font-family="Helvetica,sans-Serif" font-size="10.00"> locF</text>
</g>
<!-- Node5 -->
<g id="node5" class="node">
<title>Node5</title>
<g id="a_node5"><a xlink:title=" ">
<polygon fill="white" stroke="#bfbfbf" points="5,-341.42 5,-360.42 144,-360.42 144,-341.42 5,-341.42"/>
<text text-anchor="middle" x="74.5" y="-348.42" font-family="Helvetica,sans-Serif" font-size="10.00">static MatSetValuesHook</text>
</a>
</g>
</g>
<!-- Node5&#45;&gt;Node2 -->
<g id="edge4" class="edge">
<title>Node5&#45;&gt;Node2</title>
<path fill="none" stroke="#9a32cd" stroke-dasharray="5,2" d="M154.19,-349.73C190.76,-346.97 234.21,-340.46 271,-325.92 306.38,-311.93 340.76,-281.84 356.92,-266.44"/>
<polygon fill="#9a32cd" stroke="#9a32cd" points="153.81,-346.25 144.07,-350.41 154.28,-353.23 153.81,-346.25"/>
<text text-anchor="middle" x="219" y="-350.92" font-family="Helvetica,sans-Serif" font-size="10.00"> matSetValuesHook</text>
</g>
<!-- Node6 -->
<g id="node6" class="node">
<title>Node6</title>
<g id="a_node6"><a xlink:title=" ">
<polygon fill="white" stroke="#bfbfbf" points="40.5,-302.42 40.5,-321.42 108.5,-321.42 108.5,-302.42 40.5,-302.42"/>
<text text-anchor="middle" x="74.5" y="-309.42" font-family="Helvetica,sans-Serif" font-size="10.00">EntityType</text>
</a>
</g>
</g>
<!-- Node6&#45;&gt;Node2 -->
<g id="edge5" class="edge">
<title>Node6&#45;&gt;Node2</title>
<path fill="none" stroke="#9a32cd" stroke-dasharray="5,2" d="M118.72,-307C158.51,-302.12 219.05,-293.8 271,-282.92 292.53,-278.41 316.4,-271.91 334.9,-266.53"/>
<polygon fill="#9a32cd" stroke="#9a32cd" points="118.08,-303.55 108.57,-308.22 118.92,-310.5 118.08,-303.55"/>
<text text-anchor="middle" x="219" y="-313.92" font-family="Helvetica,sans-Serif" font-size="10.00"> rowType</text>
<text text-anchor="middle" x="219" y="-302.92" font-family="Helvetica,sans-Serif" font-size="10.00">colType</text>
</g>
<!-- Node7 -->
<g id="node7" class="node">
<title>Node7</title>
<g id="a_node7"><a xlink:title=" ">
<polygon fill="white" stroke="#bfbfbf" points="13.5,-264.42 13.5,-283.42 135.5,-283.42 135.5,-264.42 13.5,-264.42"/>
<text text-anchor="middle" x="74.5" y="-271.42" font-family="Helvetica,sans-Serif" font-size="10.00">shared_ptr&lt; Range &gt;</text>
</a>
</g>
</g>
<!-- Node7&#45;&gt;Node2 -->
<g id="edge6" class="edge">
<title>Node7&#45;&gt;Node2</title>
<path fill="none" stroke="#9a32cd" stroke-dasharray="5,2" d="M146.01,-269.8C193.54,-267.02 255.77,-263.39 301.99,-260.69"/>
<polygon fill="#9a32cd" stroke="#9a32cd" points="145.57,-266.32 135.8,-270.39 145.98,-273.31 145.57,-266.32"/>
<text text-anchor="middle" x="219" y="-270.92" font-family="Helvetica,sans-Serif" font-size="10.00"> entsPtr</text>
</g>
<!-- Node8 -->
<g id="node8" class="node">
<title>Node8</title>
<g id="a_node8"><a xlink:title=" ">
<polygon fill="white" stroke="#bfbfbf" points="9,-214.92 9,-244.92 140,-244.92 140,-214.92 9,-214.92"/>
<text text-anchor="start" x="17" y="-232.92" font-family="Helvetica,sans-Serif" font-size="10.00">function&lt; double(const</text>
<text text-anchor="middle" x="74.5" y="-221.92" font-family="Helvetica,sans-Serif" font-size="10.00"> FEMethod *fe_ptr)&gt;</text>
</a>
</g>
</g>
<!-- Node8&#45;&gt;Node2 -->
<g id="edge7" class="edge">
<title>Node8&#45;&gt;Node2</title>
<path fill="none" stroke="#9a32cd" stroke-dasharray="5,2" d="M150.3,-236.11C186.73,-239.21 231.17,-243.1 271,-246.92 280.96,-247.87 291.49,-248.93 301.79,-249.99"/>
<polygon fill="#9a32cd" stroke="#9a32cd" points="150.51,-232.62 140.25,-235.26 149.92,-239.59 150.51,-232.62"/>
<text text-anchor="middle" x="219" y="-249.92" font-family="Helvetica,sans-Serif" font-size="10.00"> feScalingFun</text>
</g>
<!-- Node9 -->
<g id="node9" class="node">
<title>Node9</title>
<g id="a_node9"><a xlink:title=" ">
<polygon fill="white" stroke="#bfbfbf" points="60,-141.42 60,-160.42 89,-160.42 89,-141.42 60,-141.42"/>
<text text-anchor="middle" x="74.5" y="-148.42" font-family="Helvetica,sans-Serif" font-size="10.00">int</text>
</a>
</g>
</g>
<!-- Node9&#45;&gt;Node2 -->
<g id="edge8" class="edge">
<title>Node9&#45;&gt;Node2</title>
<path fill="none" stroke="#9a32cd" stroke-dasharray="5,2" d="M99.05,-144.99C139.39,-136.35 222.06,-125.52 271,-166.92 295.85,-187.94 265.89,-214.99 289,-237.92 292.84,-241.72 297.3,-244.81 302.12,-247.31"/>
<polygon fill="#9a32cd" stroke="#9a32cd" points="98.05,-141.62 89.08,-147.26 99.61,-148.45 98.05,-141.62"/>
<text text-anchor="middle" x="219" y="-224.92" font-family="Helvetica,sans-Serif" font-size="10.00"> nbIntegrationPts</text>
<text text-anchor="middle" x="219" y="-213.92" font-family="Helvetica,sans-Serif" font-size="10.00">colSide</text>
<text text-anchor="middle" x="219" y="-202.92" font-family="Helvetica,sans-Serif" font-size="10.00">nbCols</text>
<text text-anchor="middle" x="219" y="-191.92" font-family="Helvetica,sans-Serif" font-size="10.00">nbRowBaseFunctions</text>
<text text-anchor="middle" x="219" y="-180.92" font-family="Helvetica,sans-Serif" font-size="10.00">rowSide</text>
<text text-anchor="middle" x="219" y="-169.92" font-family="Helvetica,sans-Serif" font-size="10.00">nbRows</text>
</g>
<!-- Node10 -->
<g id="node10" class="node">
<title>Node10</title>
<g id="a_node10"><a xlink:href="classbool.html" target="_top" xlink:title=" ">
<polygon fill="white" stroke="black" points="55.5,-97.42 55.5,-116.42 93.5,-116.42 93.5,-97.42 55.5,-97.42"/>
<text text-anchor="middle" x="74.5" y="-104.42" font-family="Helvetica,sans-Serif" font-size="10.00">bool</text>
</a>
</g>
</g>
<!-- Node10&#45;&gt;Node2 -->
<g id="edge9" class="edge">
<title>Node10&#45;&gt;Node2</title>
<path fill="none" stroke="#9a32cd" stroke-dasharray="5,2" d="M103.58,-103.24C151.68,-97.61 246.97,-89.62 271,-110.92 313.66,-148.73 250.75,-195.65 289,-237.92 292.63,-241.92 296.94,-245.15 301.66,-247.74"/>
<polygon fill="#9a32cd" stroke="#9a32cd" points="103.04,-99.78 93.53,-104.46 103.88,-106.73 103.04,-99.78"/>
<text text-anchor="middle" x="219" y="-124.92" font-family="Helvetica,sans-Serif" font-size="10.00"> assembleTranspose</text>
<text text-anchor="middle" x="219" y="-113.92" font-family="Helvetica,sans-Serif" font-size="10.00">onlyTranspose</text>
</g>
<!-- Node11 -->
<g id="node11" class="node">
<title>Node11</title>
<g id="a_node11"><a xlink:title=" ">
<polygon fill="white" stroke="#bfbfbf" points="0,-59.42 0,-78.42 149,-78.42 149,-59.42 0,-59.42"/>
<text text-anchor="middle" x="74.5" y="-66.42" font-family="Helvetica,sans-Serif" font-size="10.00">function&lt; double(double)&gt;</text>
</a>
</g>
</g>
<!-- Node11&#45;&gt;Node2 -->
<g id="edge10" class="edge">
<title>Node11&#45;&gt;Node2</title>
<path fill="none" stroke="#9a32cd" stroke-dasharray="5,2" d="M121.12,-57.4C165.49,-49.2 231.77,-45.38 271,-82.92 321.11,-130.86 243.11,-185.92 289,-237.92 292.67,-242.07 297.08,-245.39 301.92,-248.04"/>
<polygon fill="#9a32cd" stroke="#9a32cd" points="120.3,-54 111.17,-59.38 121.66,-60.86 120.3,-54"/>
<text text-anchor="middle" x="219" y="-85.92" font-family="Helvetica,sans-Serif" font-size="10.00"> timeScalingFun</text>
</g>
<!-- Node12 -->
<g id="node12" class="node">
<title>Node12</title>
<g id="a_node12"><a xlink:href="classUBlasMatrix_3_01double_01_4.html" target="_top" xlink:title=" ">
<polygon fill="white" stroke="black" points="8.5,-15.42 8.5,-34.42 140.5,-34.42 140.5,-15.42 8.5,-15.42"/>
<text text-anchor="middle" x="74.5" y="-22.42" font-family="Helvetica,sans-Serif" font-size="10.00">UBlasMatrix&lt; double &gt;</text>
</a>
</g>
</g>
<!-- Node12&#45;&gt;Node2 -->
<g id="edge11" class="edge">
<title>Node12&#45;&gt;Node2</title>
<path fill="none" stroke="#9a32cd" stroke-dasharray="5,2" d="M111.65,-12.41C155.37,0.17 228.41,12.6 271,-26.92 305.5,-58.92 258.41,-202.16 289,-237.92 292.6,-242.13 296.97,-245.49 301.78,-248.16"/>
<polygon fill="#9a32cd" stroke="#9a32cd" points="110.55,-9.09 101.99,-15.33 112.57,-15.79 110.55,-9.09"/>
<text text-anchor="middle" x="219" y="-40.92" font-family="Helvetica,sans-Serif" font-size="10.00"> locMat</text>
<text text-anchor="middle" x="219" y="-29.92" font-family="Helvetica,sans-Serif" font-size="10.00">locMatTranspose</text>
</g>
<!-- Node13 -->
<g id="node13" class="node">
<title>Node13</title>
<g id="a_node13"><a xlink:title=" ">
<polygon fill="white" stroke="#bfbfbf" points="289,-209.42 289,-228.42 446,-228.42 446,-209.42 289,-209.42"/>
<text text-anchor="middle" x="367.5" y="-216.42" font-family="Helvetica,sans-Serif" font-size="10.00">shared_ptr&lt; MatrixDouble &gt;</text>
</a>
</g>
</g>
<!-- Node13&#45;&gt;Node1 -->
<g id="edge12" class="edge">
<title>Node13&#45;&gt;Node1</title>
<path fill="none" stroke="#9a32cd" stroke-dasharray="5,2" d="M456.23,-210.06C495.1,-205.99 541.36,-200.96 583,-195.92 588.79,-195.22 594.75,-194.47 600.76,-193.71"/>
<polygon fill="#9a32cd" stroke="#9a32cd" points="455.58,-206.61 446,-211.13 456.31,-213.57 455.58,-206.61"/>
<text text-anchor="middle" x="523.5" y="-211.92" font-family="Helvetica,sans-Serif" font-size="10.00"> mDPtr</text>
</g>
<!-- Node14 -->
<g id="node14" class="node">
<title>Node14</title>
<g id="a_node14"><a xlink:title=" ">
<polygon fill="white" stroke="#bfbfbf" points="326,-171.42 326,-190.42 409,-190.42 409,-171.42 326,-171.42"/>
<text text-anchor="middle" x="367.5" y="-178.42" font-family="Helvetica,sans-Serif" font-size="10.00">MatrixDouble</text>
</a>
</g>
</g>
<!-- Node14&#45;&gt;Node1 -->
<g id="edge13" class="edge">
<title>Node14&#45;&gt;Node1</title>
<path fill="none" stroke="#9a32cd" stroke-dasharray="5,2" d="M419.3,-180.92C467.74,-180.92 541.86,-180.92 600.9,-180.92"/>
<polygon fill="#9a32cd" stroke="#9a32cd" points="419.07,-177.42 409.07,-180.92 419.07,-184.42 419.07,-177.42"/>
<text text-anchor="middle" x="523.5" y="-183.92" font-family="Helvetica,sans-Serif" font-size="10.00"> resDiff</text>
</g>
<!-- Node15 -->
<g id="node15" class="node">
<title>Node15</title>
<g id="a_node15"><a xlink:title=" ">
<polygon fill="white" stroke="#bfbfbf" points="302,-121.92 302,-151.92 433,-151.92 433,-121.92 302,-121.92"/>
<text text-anchor="start" x="310" y="-139.92" font-family="Helvetica,sans-Serif" font-size="10.00">shared_ptr&lt; PlasticOps</text>
<text text-anchor="middle" x="367.5" y="-128.92" font-family="Helvetica,sans-Serif" font-size="10.00">::CommonData &gt;</text>
</a>
</g>
</g>
<!-- Node15&#45;&gt;Node1 -->
<g id="edge14" class="edge">
<title>Node15&#45;&gt;Node1</title>
<path fill="none" stroke="#9a32cd" stroke-dasharray="5,2" d="M443.27,-147.02C490.09,-153.35 550.8,-161.56 600.75,-168.31"/>
<polygon fill="#9a32cd" stroke="#9a32cd" points="443.58,-143.53 433.2,-145.66 442.64,-150.47 443.58,-143.53"/>
<text text-anchor="middle" x="523.5" y="-167.92" font-family="Helvetica,sans-Serif" font-size="10.00"> commonDataPtr</text>
</g>
<!-- Node16 -->
<g id="node16" class="node">
<title>Node16</title>
<g id="a_node16"><a xlink:title=" ">
<polygon fill="white" stroke="#bfbfbf" points="300.5,-72.92 300.5,-102.92 434.5,-102.92 434.5,-72.92 300.5,-72.92"/>
<text text-anchor="start" x="308.5" y="-90.92" font-family="Helvetica,sans-Serif" font-size="10.00">shared_ptr&lt; HenckyOps</text>
<text text-anchor="middle" x="367.5" y="-79.92" font-family="Helvetica,sans-Serif" font-size="10.00">::CommonData &gt;</text>
</a>
</g>
</g>
<!-- Node16&#45;&gt;Node1 -->
<g id="edge15" class="edge">
<title>Node16&#45;&gt;Node1</title>
<path fill="none" stroke="#9a32cd" stroke-dasharray="5,2" d="M444.55,-101.17C485.95,-109.24 537.81,-120.72 583,-134.92 605.39,-141.95 629.54,-151.68 649.57,-160.39"/>
<polygon fill="#9a32cd" stroke="#9a32cd" points="445.01,-97.7 434.53,-99.25 443.69,-104.57 445.01,-97.7"/>
<text text-anchor="middle" x="523.5" y="-137.92" font-family="Helvetica,sans-Serif" font-size="10.00"> commonHenckyDataPtr</text>
</g>
</g>
</svg>
