<?xml version="1.0" encoding="UTF-8" standalone="no"?>
<!DOCTYPE svg PUBLIC "-//W3C//DTD SVG 1.1//EN"
 "http://www.w3.org/Graphics/SVG/1.1/DTD/svg11.dtd">
<!-- Generated by graphviz version 2.43.0 (0)
 -->
<!-- Title: LevelSet::OpLhsSkeleton Pages: 1 -->
<svg width="395pt" height="154pt"
 viewBox="0.00 0.00 395.00 153.50" xmlns="http://www.w3.org/2000/svg" xmlns:xlink="http://www.w3.org/1999/xlink">
<g id="graph0" class="graph" transform="scale(1 1) rotate(0) translate(4 149.5)">
<title>LevelSet::OpLhsSkeleton</title>
<polygon fill="white" stroke="transparent" points="-4,4 -4,-149.5 391,-149.5 391,4 -4,4"/>
<!-- Node1 -->
<g id="node1" class="node">
<title>Node1</title>
<g id="a_node1"><a xlink:title=" ">
<polygon fill="#bfbfbf" stroke="black" points="250,-69 250,-88 387,-88 387,-69 250,-69"/>
<text text-anchor="middle" x="318.5" y="-76" font-family="Helvetica,sans-Serif" font-size="10.00">LevelSet::OpLhsSkeleton</text>
</a>
</g>
</g>
<!-- Node2 -->
<g id="node2" class="node">
<title>Node2</title>
<g id="a_node2"><a xlink:href="classBoundaryEleOp.html" target="_top" xlink:title=" ">
<polygon fill="white" stroke="black" points="28.5,-126 28.5,-145 120.5,-145 120.5,-126 28.5,-126"/>
<text text-anchor="middle" x="74.5" y="-133" font-family="Helvetica,sans-Serif" font-size="10.00">BoundaryEleOp</text>
</a>
</g>
</g>
<!-- Node2&#45;&gt;Node1 -->
<g id="edge1" class="edge">
<title>Node2&#45;&gt;Node1</title>
<path fill="none" stroke="midnightblue" d="M130.53,-125.99C160.66,-120.43 198.57,-112.87 232,-104.5 251.11,-99.71 272.31,-93.28 288.81,-88.01"/>
<polygon fill="midnightblue" stroke="midnightblue" points="129.83,-122.56 120.62,-127.79 131.09,-129.44 129.83,-122.56"/>
</g>
<!-- Node3 -->
<g id="node3" class="node">
<title>Node3</title>
<g id="a_node3"><a xlink:title=" ">
<polygon fill="white" stroke="#bfbfbf" points="33,-88 33,-107 116,-107 116,-88 33,-88"/>
<text text-anchor="middle" x="74.5" y="-95" font-family="Helvetica,sans-Serif" font-size="10.00">MatrixDouble</text>
</a>
</g>
</g>
<!-- Node3&#45;&gt;Node1 -->
<g id="edge2" class="edge">
<title>Node3&#45;&gt;Node1</title>
<path fill="none" stroke="#9a32cd" stroke-dasharray="5,2" d="M126.24,-93.52C162.14,-90.7 210.65,-86.89 249.83,-83.81"/>
<polygon fill="#9a32cd" stroke="#9a32cd" points="125.7,-90.05 116.01,-94.32 126.25,-97.03 125.7,-90.05"/>
<text text-anchor="middle" x="199.5" y="-92.5" font-family="Helvetica,sans-Serif" font-size="10.00"> matSkeleton</text>
</g>
<!-- Node4 -->
<g id="node4" class="node">
<title>Node4</title>
<g id="a_node4"><a xlink:title=" ">
<polygon fill="white" stroke="#bfbfbf" points="0,-50 0,-69 149,-69 149,-50 0,-50"/>
<text text-anchor="middle" x="74.5" y="-57" font-family="Helvetica,sans-Serif" font-size="10.00">shared_ptr&lt; FaceSideEle &gt;</text>
</a>
</g>
</g>
<!-- Node4&#45;&gt;Node1 -->
<g id="edge3" class="edge">
<title>Node4&#45;&gt;Node1</title>
<path fill="none" stroke="#9a32cd" stroke-dasharray="5,2" d="M159.45,-65.04C182.94,-66.69 208.47,-68.57 232,-70.5 237.79,-70.97 243.81,-71.49 249.84,-72.02"/>
<polygon fill="#9a32cd" stroke="#9a32cd" points="159.39,-61.53 149.17,-64.33 158.9,-68.51 159.39,-61.53"/>
<text text-anchor="middle" x="199.5" y="-73.5" font-family="Helvetica,sans-Serif" font-size="10.00"> sideFEPtr</text>
</g>
<!-- Node5 -->
<g id="node5" class="node">
<title>Node5</title>
<g id="a_node5"><a xlink:title=" ">
<polygon fill="white" stroke="#bfbfbf" points="13.5,-0.5 13.5,-30.5 135.5,-30.5 135.5,-0.5 13.5,-0.5"/>
<text text-anchor="start" x="21.5" y="-18.5" font-family="Helvetica,sans-Serif" font-size="10.00">shared_ptr&lt; LevelSet</text>
<text text-anchor="middle" x="74.5" y="-7.5" font-family="Helvetica,sans-Serif" font-size="10.00">::SideData &gt;</text>
</a>
</g>
</g>
<!-- Node5&#45;&gt;Node1 -->
<g id="edge4" class="edge">
<title>Node5&#45;&gt;Node1</title>
<path fill="none" stroke="#9a32cd" stroke-dasharray="5,2" d="M145.47,-29.64C172.63,-35.52 203.91,-42.78 232,-50.5 251.73,-55.92 273.66,-63.13 290.36,-68.87"/>
<polygon fill="#9a32cd" stroke="#9a32cd" points="146.17,-26.21 135.66,-27.53 144.7,-33.05 146.17,-26.21"/>
<text text-anchor="middle" x="199.5" y="-53.5" font-family="Helvetica,sans-Serif" font-size="10.00"> sideDataPtr</text>
</g>
</g>
</svg>
