<?xml version="1.0" encoding="UTF-8" standalone="no"?>
<!DOCTYPE svg PUBLIC "-//W3C//DTD SVG 1.1//EN"
 "http://www.w3.org/Graphics/SVG/1.1/DTD/svg11.dtd">
<!-- Generated by graphviz version 9.0.0 (20230911.1827)
 -->
<!-- Title: MoFEM::PairNameFEMethodPtr Pages: 1 -->
<svg width="244pt" height="105pt"
 viewBox="0.00 0.00 244.00 105.00" xmlns="http://www.w3.org/2000/svg" xmlns:xlink="http://www.w3.org/1999/xlink">
<g id="graph0" class="graph" transform="scale(1 1) rotate(0) translate(4 101)">
<title>MoFEM::PairNameFEMethodPtr</title>
<!-- Node1 -->
<g id="node1" class="node">
<title>Node1</title>
<g id="a_node1"><a xlink:title=" ">
<polygon fill="#999999" stroke="#666666" points="195.25,-19.25 37.5,-19.25 37.5,0 195.25,0 195.25,-19.25"/>
<text text-anchor="middle" x="116.38" y="-5.75" font-family="Helvetica,sans-Serif" font-size="10.00">MoFEM::PairNameFEMethodPtr</text>
</a>
</g>
</g>
<!-- Node2 -->
<g id="node2" class="node">
<title>Node2</title>
<g id="a_node2"><a xlink:title=" ">
<polygon fill="white" stroke="#666666" points="106.75,-97 0,-97 0,-66.5 106.75,-66.5 106.75,-97"/>
<text text-anchor="start" x="8" y="-83.5" font-family="Helvetica,sans-Serif" font-size="10.00">std::pair&lt; std::string,</text>
<text text-anchor="middle" x="53.38" y="-72.25" font-family="Helvetica,sans-Serif" font-size="10.00"> FEMethod * &gt;</text>
</a>
</g>
</g>
<!-- Node2&#45;&gt;Node1 -->
<g id="edge1" class="edge">
<title>Node2&#45;&gt;Node1</title>
<path fill="none" stroke="#63b8ff" d="M74.12,-57.66C85.89,-44.56 99.94,-28.92 108.51,-19.38"/>
<polygon fill="#63b8ff" stroke="#63b8ff" points="71.52,-55.32 67.44,-65.09 76.73,-59.99 71.52,-55.32"/>
</g>
<!-- Node3 -->
<g id="node3" class="node">
<title>Node3</title>
<g id="a_node3"><a xlink:title=" ">
<polygon fill="white" stroke="#666666" points="236,-97 124.75,-97 124.75,-66.5 236,-66.5 236,-97"/>
<text text-anchor="start" x="132.75" y="-83.5" font-family="Helvetica,sans-Serif" font-size="10.00">shared_ptr&lt; MoFEM::</text>
<text text-anchor="middle" x="180.38" y="-72.25" font-family="Helvetica,sans-Serif" font-size="10.00">FEMethod &gt;</text>
</a>
</g>
</g>
<!-- Node3&#45;&gt;Node1 -->
<g id="edge2" class="edge">
<title>Node3&#45;&gt;Node1</title>
<path fill="none" stroke="#9a32cd" stroke-dasharray="5,2" d="M159.65,-58.04C147.62,-44.86 133.15,-29.01 124.37,-19.38"/>
<polygon fill="#9a32cd" stroke="#9a32cd" points="156.77,-60.08 166.09,-65.1 161.94,-55.36 156.77,-60.08"/>
<text text-anchor="middle" x="161.38" y="-39" font-family="Helvetica,sans-Serif" font-size="10.00"> fePtr</text>
</g>
</g>
</svg>
