<?xml version="1.0" encoding="UTF-8" standalone="no"?>
<!DOCTYPE svg PUBLIC "-//W3C//DTD SVG 1.1//EN"
 "http://www.w3.org/Graphics/SVG/1.1/DTD/svg11.dtd">
<!-- Generated by graphviz version 9.0.0 (20230911.1827)
 -->
<!-- Title: MixTransport::MaterialVanGenuchten Pages: 1 -->
<!--zoomable 579 -->
<svg id="main" version="1.1" xmlns="http://www.w3.org/2000/svg" xmlns:xlink="http://www.w3.org/1999/xlink" xml:space="preserve" onload="init(evt)">
<style type="text/css"><![CDATA[
.edge:hover path { stroke: red; }
.edge:hover polygon { stroke: red; fill: red; }
]]></style>
<script type="text/javascript"><![CDATA[
var edges = document.getElementsByTagName('g');
if (edges && edges.length) {
  for (var i=0;i<edges.length;i++) {
    if (edges[i].id.substr(0,4)=='edge') {
      edges[i].setAttribute('class','edge');
    }
  }
}
]]></script>
        <defs>
                <circle id="rim" cx="0" cy="0" r="7"/>
                <circle id="rim2" cx="0" cy="0" r="3.5"/>
                <g id="zoomPlus">
                        <use xlink:href="#rim" fill="#404040">
                                <set attributeName="fill" to="#808080" begin="zoomplus.mouseover" end="zoomplus.mouseout"/>
                        </use>
                        <path d="M-4,0h8M0,-4v8" fill="none" stroke="white" stroke-width="1.5" pointer-events="none"/>
                </g>
                <g id="zoomMin">
                        <use xlink:href="#rim" fill="#404040">
                                <set attributeName="fill" to="#808080" begin="zoomminus.mouseover" end="zoomminus.mouseout"/>
                        </use>
                        <path d="M-4,0h8" fill="none" stroke="white" stroke-width="1.5" pointer-events="none"/>
                </g>
                <g id="dirArrow">
                        <path fill="none" stroke="white" stroke-width="1.5" d="M0,-3.0v7 M-2.5,-0.5L0,-3.0L2.5,-0.5"/>
                </g>
               <g id="resetDef">
                       <use xlink:href="#rim2" fill="#404040">
                               <set attributeName="fill" to="#808080" begin="reset.mouseover" end="reset.mouseout"/>
                       </use>
               </g>
        </defs>

<script type="text/javascript">
var viewWidth = 412;
var viewHeight = 579;
var sectionId = 'dynsection-1';
</script>
<script xlink:href="svgpan.js"/>
<svg id="graph" class="graph">
<g id="viewport">
<title>MixTransport::MaterialVanGenuchten</title>
<!-- Node1 -->
<g id="node1" class="node">
<title>Node1</title>
<g id="a_node1"><a xlink:title=" ">
<polygon fill="#999999" stroke="#666666" points="186.88,-30.5 56.88,-30.5 56.88,0 186.88,0 186.88,-30.5"/>
<text text-anchor="start" x="64.88" y="-17" font-family="Helvetica,sans-Serif" font-size="10.00">MixTransport::MaterialVan</text>
<text text-anchor="middle" x="121.88" y="-5.75" font-family="Helvetica,sans-Serif" font-size="10.00">Genuchten</text>
</a>
</g>
</g>
<!-- Node2 -->
<g id="node2" class="node">
<title>Node2</title>
<g id="a_node2"><a xlink:href="struct_mix_transport_1_1_material_with_automatic_differentiation.html" target="_top" xlink:title=" ">
<polygon fill="white" stroke="#666666" points="133.75,-153.25 0,-153.25 0,-122.75 133.75,-122.75 133.75,-153.25"/>
<text text-anchor="start" x="8" y="-139.75" font-family="Helvetica,sans-Serif" font-size="10.00">MixTransport::MaterialWith</text>
<text text-anchor="middle" x="66.88" y="-128.5" font-family="Helvetica,sans-Serif" font-size="10.00">AutomaticDifferentiation</text>
</a>
</g>
</g>
<!-- Node2&#45;&gt;Node1 -->
<g id="edge1" class="edge">
<title>Node2&#45;&gt;Node1</title>
<path fill="none" stroke="#63b8ff" d="M78.08,-112.39C89.23,-87.92 105.97,-51.17 115.19,-30.93"/>
<polygon fill="#63b8ff" stroke="#63b8ff" points="74.99,-110.75 74.03,-121.3 81.36,-113.65 74.99,-110.75"/>
</g>
<!-- Node3 -->
<g id="node3" class="node">
<title>Node3</title>
<g id="a_node3"><a xlink:href="struct_mix_transport_1_1_common_material_data.html" target="_top" xlink:title=" ">
<polygon fill="white" stroke="#666666" points="310,-209.5 135.75,-209.5 135.75,-190.25 310,-190.25 310,-209.5"/>
<text text-anchor="middle" x="222.88" y="-196" font-family="Helvetica,sans-Serif" font-size="10.00">MixTransport::CommonMaterialData</text>
</a>
</g>
</g>
<!-- Node3&#45;&gt;Node2 -->
<g id="edge2" class="edge">
<title>Node3&#45;&gt;Node2</title>
<path fill="none" stroke="#63b8ff" d="M188.51,-185.69C163.84,-176.22 130.58,-163.45 105.08,-153.66"/>
<polygon fill="#63b8ff" stroke="#63b8ff" points="187.18,-188.92 197.77,-189.24 189.69,-182.39 187.18,-188.92"/>
</g>
<!-- Node4 -->
<g id="node4" class="node">
<title>Node4</title>
<g id="a_node4"><a xlink:href="struct_mix_transport_1_1_generic_material.html" target="_top" xlink:title="Generic material model for unsaturated water transport.">
<polygon fill="white" stroke="#666666" points="296.5,-339.5 149.25,-339.5 149.25,-320.25 296.5,-320.25 296.5,-339.5"/>
<text text-anchor="middle" x="222.88" y="-326" font-family="Helvetica,sans-Serif" font-size="10.00">MixTransport::GenericMaterial</text>
</a>
</g>
</g>
<!-- Node4&#45;&gt;Node3 -->
<g id="edge3" class="edge">
<title>Node4&#45;&gt;Node3</title>
<path fill="none" stroke="#63b8ff" d="M222.88,-308.82C222.88,-280.53 222.88,-230.07 222.88,-209.73"/>
<polygon fill="#63b8ff" stroke="#63b8ff" points="219.38,-308.56 222.88,-318.56 226.38,-308.56 219.38,-308.56"/>
</g>
<!-- Node5 -->
<g id="node5" class="node">
<title>Node5</title>
<g id="a_node5"><a xlink:href="classdouble.html" target="_top" xlink:title=" ">
<polygon fill="white" stroke="#666666" points="123.12,-570.75 78.62,-570.75 78.62,-551.5 123.12,-551.5 123.12,-570.75"/>
<text text-anchor="middle" x="100.88" y="-557.25" font-family="Helvetica,sans-Serif" font-size="10.00">double</text>
</a>
</g>
</g>
<!-- Node5&#45;&gt;Node2 -->
<g id="edge9" class="edge">
<title>Node5&#45;&gt;Node2</title>
<path fill="none" stroke="#9a32cd" stroke-dasharray="5,2" d="M80.65,-542.9C78.32,-540.01 76.28,-536.85 74.88,-533.5 17.15,-395.77 51.94,-206.54 63.54,-153.39"/>
<polygon fill="#9a32cd" stroke="#9a32cd" points="78.12,-545.33 87.6,-550.06 83.14,-540.45 78.12,-545.33"/>
<text text-anchor="middle" x="62.5" y="-240.5" font-family="Helvetica,sans-Serif" font-size="10.00"> Kr</text>
<text text-anchor="middle" x="62.5" y="-229.25" font-family="Helvetica,sans-Serif" font-size="10.00">diffKr</text>
</g>
<!-- Node5&#45;&gt;Node3 -->
<g id="edge8" class="edge">
<title>Node5&#45;&gt;Node3</title>
<path fill="none" stroke="#9a32cd" stroke-dasharray="5,2" d="M95.37,-540.06C82.86,-490.01 57.24,-357.26 109.88,-268 127.72,-237.73 164.99,-219.59 191.85,-209.94"/>
<polygon fill="#9a32cd" stroke="#9a32cd" points="91.98,-540.92 97.9,-549.71 98.75,-539.15 91.98,-540.92"/>
<text text-anchor="middle" x="124.88" y="-382.25" font-family="Helvetica,sans-Serif" font-size="10.00"> Ah</text>
<text text-anchor="middle" x="124.88" y="-371" font-family="Helvetica,sans-Serif" font-size="10.00">AhZ</text>
<text text-anchor="middle" x="124.88" y="-359.75" font-family="Helvetica,sans-Serif" font-size="10.00">AhZZ</text>
<text text-anchor="middle" x="124.88" y="-348.5" font-family="Helvetica,sans-Serif" font-size="10.00">Ks</text>
<text text-anchor="middle" x="124.88" y="-337.25" font-family="Helvetica,sans-Serif" font-size="10.00">alpha</text>
<text text-anchor="middle" x="124.88" y="-326" font-family="Helvetica,sans-Serif" font-size="10.00">hS</text>
<text text-anchor="middle" x="124.88" y="-314.75" font-family="Helvetica,sans-Serif" font-size="10.00">n</text>
<text text-anchor="middle" x="124.88" y="-303.5" font-family="Helvetica,sans-Serif" font-size="10.00">thetaM</text>
<text text-anchor="middle" x="124.88" y="-292.25" font-family="Helvetica,sans-Serif" font-size="10.00">thetaR</text>
<text text-anchor="middle" x="124.88" y="-281" font-family="Helvetica,sans-Serif" font-size="10.00">thetaS</text>
<text text-anchor="middle" x="124.88" y="-269.75" font-family="Helvetica,sans-Serif" font-size="10.00">...</text>
</g>
<!-- Node5&#45;&gt;Node4 -->
<g id="edge4" class="edge">
<title>Node5&#45;&gt;Node4</title>
<path fill="none" stroke="#9a32cd" stroke-dasharray="5,2" d="M111.02,-541.06C136.14,-493.85 200.47,-372.98 218.26,-339.55"/>
<polygon fill="#9a32cd" stroke="#9a32cd" points="107.98,-539.33 106.37,-549.8 114.16,-542.62 107.98,-539.33"/>
<text text-anchor="middle" x="198.62" y="-524" font-family="Helvetica,sans-Serif" font-size="10.00"> C</text>
<text text-anchor="middle" x="198.62" y="-512.75" font-family="Helvetica,sans-Serif" font-size="10.00">K</text>
<text text-anchor="middle" x="198.62" y="-501.5" font-family="Helvetica,sans-Serif" font-size="10.00">Se</text>
<text text-anchor="middle" x="198.62" y="-490.25" font-family="Helvetica,sans-Serif" font-size="10.00">diffC</text>
<text text-anchor="middle" x="198.62" y="-479" font-family="Helvetica,sans-Serif" font-size="10.00">diffK</text>
<text text-anchor="middle" x="198.62" y="-467.75" font-family="Helvetica,sans-Serif" font-size="10.00">ePsilon0</text>
<text text-anchor="middle" x="198.62" y="-456.5" font-family="Helvetica,sans-Serif" font-size="10.00">ePsilon1</text>
<text text-anchor="middle" x="198.62" y="-445.25" font-family="Helvetica,sans-Serif" font-size="10.00">h</text>
<text text-anchor="middle" x="198.62" y="-434" font-family="Helvetica,sans-Serif" font-size="10.00">h_t</text>
<text text-anchor="middle" x="198.62" y="-422.75" font-family="Helvetica,sans-Serif" font-size="10.00">sCale</text>
<text text-anchor="middle" x="198.62" y="-411.5" font-family="Helvetica,sans-Serif" font-size="10.00">...</text>
</g>
<!-- Node6 -->
<g id="node6" class="node">
<title>Node6</title>
<g id="a_node6"><a xlink:href="class_range.html" target="_top" xlink:title=" ">
<polygon fill="white" stroke="#666666" points="245.12,-570.75 200.62,-570.75 200.62,-551.5 245.12,-551.5 245.12,-570.75"/>
<text text-anchor="middle" x="222.88" y="-557.25" font-family="Helvetica,sans-Serif" font-size="10.00">Range</text>
</a>
</g>
</g>
<!-- Node6&#45;&gt;Node4 -->
<g id="edge5" class="edge">
<title>Node6&#45;&gt;Node4</title>
<path fill="none" stroke="#9a32cd" stroke-dasharray="5,2" d="M222.88,-539.84C222.88,-491.82 222.88,-372.7 222.88,-339.55"/>
<polygon fill="#9a32cd" stroke="#9a32cd" points="219.38,-539.62 222.88,-549.62 226.38,-539.62 219.38,-539.62"/>
<text text-anchor="middle" x="233.38" y="-467.75" font-family="Helvetica,sans-Serif" font-size="10.00"> tEts</text>
</g>
<!-- Node7 -->
<g id="node7" class="node">
<title>Node7</title>
<g id="a_node7"><a xlink:title=" ">
<polygon fill="white" stroke="#666666" points="343.27,-339.5 314.48,-339.5 314.48,-320.25 343.27,-320.25 343.27,-339.5"/>
<text text-anchor="middle" x="328.88" y="-326" font-family="Helvetica,sans-Serif" font-size="10.00">int</text>
</a>
</g>
</g>
<!-- Node7&#45;&gt;Node3 -->
<g id="edge6" class="edge">
<title>Node7&#45;&gt;Node3</title>
<path fill="none" stroke="#9a32cd" stroke-dasharray="5,2" d="M324.19,-308.79C320.59,-296.25 314.71,-280.22 305.88,-268 287.42,-242.47 256.87,-221.25 238.43,-209.87"/>
<polygon fill="#9a32cd" stroke="#9a32cd" points="320.79,-309.63 326.67,-318.44 327.57,-307.88 320.79,-309.63"/>
<text text-anchor="middle" x="305.12" y="-234.88" font-family="Helvetica,sans-Serif" font-size="10.00"> blockId</text>
</g>
<!-- Node8 -->
<g id="node8" class="node">
<title>Node8</title>
<g id="a_node8"><a xlink:title=" ">
<polygon fill="white" stroke="#666666" points="403.88,-339.5 363.88,-339.5 363.88,-320.25 403.88,-320.25 403.88,-339.5"/>
<text text-anchor="middle" x="383.88" y="-326" font-family="Helvetica,sans-Serif" font-size="10.00">string</text>
</a>
</g>
</g>
<!-- Node8&#45;&gt;Node3 -->
<g id="edge7" class="edge">
<title>Node8&#45;&gt;Node3</title>
<path fill="none" stroke="#9a32cd" stroke-dasharray="5,2" d="M378.2,-308.93C370.5,-285.66 354.45,-247.78 326.88,-227.5 315.99,-219.49 302.93,-213.89 289.8,-209.96"/>
<polygon fill="#9a32cd" stroke="#9a32cd" points="374.83,-309.9 381.11,-318.43 381.52,-307.85 374.83,-309.9"/>
<text text-anchor="middle" x="370.75" y="-234.88" font-family="Helvetica,sans-Serif" font-size="10.00"> matName</text>
</g>
<!-- Node9 -->
<g id="node9" class="node">
<title>Node9</title>
<g id="a_node9"><a xlink:href="classadouble.html" target="_top" xlink:title=" ">
<polygon fill="white" stroke="#666666" points="201.75,-147.62 152,-147.62 152,-128.38 201.75,-128.38 201.75,-147.62"/>
<text text-anchor="middle" x="176.88" y="-134.12" font-family="Helvetica,sans-Serif" font-size="10.00">adouble</text>
</a>
</g>
</g>
<!-- Node9&#45;&gt;Node1 -->
<g id="edge10" class="edge">
<title>Node9&#45;&gt;Node1</title>
<path fill="none" stroke="#9a32cd" stroke-dasharray="5,2" d="M168.01,-117.54C157,-93.36 138.45,-52.65 128.56,-30.93"/>
<polygon fill="#9a32cd" stroke="#9a32cd" points="164.78,-118.9 172.11,-126.55 171.15,-116 164.78,-118.9"/>
<text text-anchor="middle" x="179.5" y="-95.25" font-family="Helvetica,sans-Serif" font-size="10.00"> aKr</text>
<text text-anchor="middle" x="179.5" y="-84" font-family="Helvetica,sans-Serif" font-size="10.00">aSe</text>
<text text-anchor="middle" x="179.5" y="-72.75" font-family="Helvetica,sans-Serif" font-size="10.00">aSeStar</text>
<text text-anchor="middle" x="179.5" y="-61.5" font-family="Helvetica,sans-Serif" font-size="10.00">aTheta</text>
<text text-anchor="middle" x="179.5" y="-50.25" font-family="Helvetica,sans-Serif" font-size="10.00">ah</text>
</g>
</g>
</svg>
        <g id="navigator" transform="translate(0 0)" fill="#404254">
                <rect fill="#f2f5e9" fill-opacity="0.5" stroke="#606060" stroke-width=".5" x="0" y="0" width="60" height="60"/>
                <use id="zoomplus" xlink:href="#zoomPlus" x="17" y="9" onmousedown="handleZoom(evt,'in')"/>
                <use id="zoomminus" xlink:href="#zoomMin" x="42" y="9" onmousedown="handleZoom(evt,'out')"/>
                <use id="reset" xlink:href="#resetDef" x="30" y="36" onmousedown="handleReset()"/>
                <g id="arrowUp" xlink:href="#dirArrow" transform="translate(30 24)" onmousedown="handlePan(0,-1)">
                  <use xlink:href="#rim" fill="#404040">
                        <set attributeName="fill" to="#808080" begin="arrowUp.mouseover" end="arrowUp.mouseout"/>
                  </use>
                  <path fill="none" stroke="white" stroke-width="1.5" d="M0,-3.0v7 M-2.5,-0.5L0,-3.0L2.5,-0.5"/>
                </g>
                <g id="arrowRight" xlink:href="#dirArrow" transform="rotate(90) translate(36 -43)" onmousedown="handlePan(1,0)">
                  <use xlink:href="#rim" fill="#404040">
                        <set attributeName="fill" to="#808080" begin="arrowRight.mouseover" end="arrowRight.mouseout"/>
                  </use>
                  <path fill="none" stroke="white" stroke-width="1.5" d="M0,-3.0v7 M-2.5,-0.5L0,-3.0L2.5,-0.5"/>
                </g>
                <g id="arrowDown" xlink:href="#dirArrow" transform="rotate(180) translate(-30 -48)" onmousedown="handlePan(0,1)">
                  <use xlink:href="#rim" fill="#404040">
                        <set attributeName="fill" to="#808080" begin="arrowDown.mouseover" end="arrowDown.mouseout"/>
                  </use>
                  <path fill="none" stroke="white" stroke-width="1.5" d="M0,-3.0v7 M-2.5,-0.5L0,-3.0L2.5,-0.5"/>
                </g>
                <g id="arrowLeft" xlink:href="#dirArrow" transform="rotate(270) translate(-36 17)" onmousedown="handlePan(-1,0)">
                  <use xlink:href="#rim" fill="#404040">
                        <set attributeName="fill" to="#808080" begin="arrowLeft.mouseover" end="arrowLeft.mouseout"/>
                  </use>
                  <path fill="none" stroke="white" stroke-width="1.5" d="M0,-3.0v7 M-2.5,-0.5L0,-3.0L2.5,-0.5"/>
                </g>
        </g>
        <svg viewBox="0 0 15 15" width="100%" height="30px" preserveAspectRatio="xMaxYMin meet">
         <g id="arrow_out" transform="scale(0.3 0.3)">
          <a xlink:href="struct_mix_transport_1_1_material_van_genuchten__coll__graph_org.svg" target="_base">
           <rect id="button" ry="5" rx="5" y="6" x="6" height="38" width="38"
                fill="#f2f5e9" fill-opacity="0.5" stroke="#606060" stroke-width="1.0"/>
           <path id="arrow"
             d="M 11.500037,31.436501 C 11.940474,20.09759 22.043105,11.32322 32.158766,21.979434 L 37.068811,17.246167 C 37.068811,17.246167 37.088388,32 37.088388,32 L 22.160133,31.978069 C 22.160133,31.978069 26.997745,27.140456 26.997745,27.140456 C 18.528582,18.264221 13.291696,25.230495 11.500037,31.436501 z"
             style="fill:#404040;"/>
          </a>
         </g>
        </svg>
</svg>
