<?xml version="1.0" encoding="UTF-8" standalone="no"?>
<!DOCTYPE svg PUBLIC "-//W3C//DTD SVG 1.1//EN"
 "http://www.w3.org/Graphics/SVG/1.1/DTD/svg11.dtd">
<!-- Generated by graphviz version 2.43.0 (0)
 -->
<!-- Title: MoFEM::EntityCacheNumeredDofs Pages: 1 -->
<svg width="193pt" height="106pt"
 viewBox="0.00 0.00 193.00 106.00" xmlns="http://www.w3.org/2000/svg" xmlns:xlink="http://www.w3.org/1999/xlink">
<g id="graph0" class="graph" transform="scale(1 1) rotate(0) translate(4 102)">
<title>MoFEM::EntityCacheNumeredDofs</title>
<polygon fill="white" stroke="transparent" points="-4,4 -4,-102 189,-102 189,4 -4,4"/>
<!-- Node1 -->
<g id="node1" class="node">
<title>Node1</title>
<g id="a_node1"><a xlink:title=" ">
<polygon fill="#bfbfbf" stroke="black" points="0,-0.5 0,-19.5 185,-19.5 185,-0.5 0,-0.5"/>
<text text-anchor="middle" x="92.5" y="-7.5" font-family="Helvetica,sans-Serif" font-size="10.00">MoFEM::EntityCacheNumeredDofs</text>
</a>
</g>
</g>
<!-- Node2 -->
<g id="node2" class="node">
<title>Node2</title>
<g id="a_node2"><a xlink:title=" ">
<polygon fill="white" stroke="#bfbfbf" points="20.5,-67.5 20.5,-97.5 164.5,-97.5 164.5,-67.5 20.5,-67.5"/>
<text text-anchor="start" x="28.5" y="-85.5" font-family="Helvetica,sans-Serif" font-size="10.00">array&lt; NumeredDofEntity</text>
<text text-anchor="middle" x="92.5" y="-74.5" font-family="Helvetica,sans-Serif" font-size="10.00">_multiIndex::iterator, 2 &gt;</text>
</a>
</g>
</g>
<!-- Node2&#45;&gt;Node1 -->
<g id="edge1" class="edge">
<title>Node2&#45;&gt;Node1</title>
<path fill="none" stroke="#9a32cd" stroke-dasharray="5,2" d="M92.5,-57.09C92.5,-44.21 92.5,-29.2 92.5,-19.89"/>
<polygon fill="#9a32cd" stroke="#9a32cd" points="89,-57.23 92.5,-67.23 96,-57.23 89,-57.23"/>
<text text-anchor="middle" x="104" y="-41" font-family="Helvetica,sans-Serif" font-size="10.00"> loHi</text>
</g>
</g>
</svg>
