<?xml version="1.0" encoding="UTF-8" standalone="no"?>
<!DOCTYPE svg PUBLIC "-//W3C//DTD SVG 1.1//EN"
 "http://www.w3.org/Graphics/SVG/1.1/DTD/svg11.dtd">
<!-- Generated by graphviz version 9.0.0 (20230911.1827)
 -->
<!-- Title: MetaSpringBC::SpringALEMaterialVolOnSideLhs_dX_dx Pages: 1 -->
<svg width="184pt" height="349pt"
 viewBox="0.00 0.00 183.75 348.50" xmlns="http://www.w3.org/2000/svg" xmlns:xlink="http://www.w3.org/1999/xlink">
<g id="graph0" class="graph" transform="scale(1 1) rotate(0) translate(4 344.5)">
<title>MetaSpringBC::SpringALEMaterialVolOnSideLhs_dX_dx</title>
<!-- Node1 -->
<g id="node1" class="node">
<title>Node1</title>
<g id="a_node1"><a xlink:title="LHS&#45;operator (material configuration) on the side volume for spring element.">
<polygon fill="#999999" stroke="#666666" points="171.25,-30.5 4.5,-30.5 4.5,0 171.25,0 171.25,-30.5"/>
<text text-anchor="start" x="12.5" y="-17" font-family="Helvetica,sans-Serif" font-size="10.00">MetaSpringBC::SpringALEMaterial</text>
<text text-anchor="middle" x="87.88" y="-5.75" font-family="Helvetica,sans-Serif" font-size="10.00">VolOnSideLhs_dX_dx</text>
</a>
</g>
</g>
<!-- Node2 -->
<g id="node2" class="node">
<title>Node2</title>
<g id="a_node2"><a xlink:href="struct_meta_spring_b_c_1_1_spring_a_l_e_material_vol_on_side_lhs.html" target="_top" xlink:title="Base class for LHS&#45;operators (material) on side volumes.">
<polygon fill="white" stroke="#666666" points="171.25,-97 4.5,-97 4.5,-66.5 171.25,-66.5 171.25,-97"/>
<text text-anchor="start" x="12.5" y="-83.5" font-family="Helvetica,sans-Serif" font-size="10.00">MetaSpringBC::SpringALEMaterial</text>
<text text-anchor="middle" x="87.88" y="-72.25" font-family="Helvetica,sans-Serif" font-size="10.00">VolOnSideLhs</text>
</a>
</g>
</g>
<!-- Node2&#45;&gt;Node1 -->
<g id="edge1" class="edge">
<title>Node2&#45;&gt;Node1</title>
<path fill="none" stroke="#63b8ff" d="M87.88,-54.81C87.88,-46.64 87.88,-37.91 87.88,-30.83"/>
<polygon fill="#63b8ff" stroke="#63b8ff" points="84.38,-54.6 87.88,-64.6 91.38,-54.6 84.38,-54.6"/>
</g>
<!-- Node3 -->
<g id="node3" class="node">
<title>Node3</title>
<g id="a_node3"><a xlink:href="struct_mo_f_e_m_1_1_volume_element_forces_and_sources_core_on_side_1_1_user_data_operator.html" target="_top" xlink:title="default operator for TET element">
<polygon fill="white" stroke="#666666" points="158.88,-152.25 16.88,-152.25 16.88,-133 158.88,-133 158.88,-152.25"/>
<text text-anchor="middle" x="87.88" y="-138.75" font-family="Helvetica,sans-Serif" font-size="10.00">VolOnSideUserDataOperator</text>
</a>
</g>
</g>
<!-- Node3&#45;&gt;Node2 -->
<g id="edge2" class="edge">
<title>Node3&#45;&gt;Node2</title>
<path fill="none" stroke="#63b8ff" d="M87.88,-121.42C87.88,-113.49 87.88,-104.56 87.88,-97.28"/>
<polygon fill="#63b8ff" stroke="#63b8ff" points="84.38,-121.17 87.88,-131.17 91.38,-121.17 84.38,-121.17"/>
</g>
<!-- Node4 -->
<g id="node4" class="node">
<title>Node4</title>
<g id="a_node4"><a xlink:href="struct_mo_f_e_m_1_1_volume_element_forces_and_sources_core_1_1_user_data_operator.html" target="_top" xlink:title=" ">
<polygon fill="white" stroke="#666666" points="175.75,-218.75 0,-218.75 0,-188.25 175.75,-188.25 175.75,-218.75"/>
<text text-anchor="start" x="8" y="-205.25" font-family="Helvetica,sans-Serif" font-size="10.00">MoFEM::VolumeElementForces</text>
<text text-anchor="middle" x="87.88" y="-194" font-family="Helvetica,sans-Serif" font-size="10.00">AndSourcesCore::UserDataOperator</text>
</a>
</g>
</g>
<!-- Node4&#45;&gt;Node3 -->
<g id="edge3" class="edge">
<title>Node4&#45;&gt;Node3</title>
<path fill="none" stroke="#63b8ff" d="M87.88,-176.48C87.88,-167.98 87.88,-159.09 87.88,-152.7"/>
<polygon fill="#63b8ff" stroke="#63b8ff" points="84.38,-176.43 87.88,-186.43 91.38,-176.43 84.38,-176.43"/>
</g>
<!-- Node5 -->
<g id="node5" class="node">
<title>Node5</title>
<g id="a_node5"><a xlink:href="struct_mo_f_e_m_1_1_forces_and_sources_core_1_1_user_data_operator.html" target="_top" xlink:title=" ">
<polygon fill="white" stroke="#666666" points="168.25,-285.25 7.5,-285.25 7.5,-254.75 168.25,-254.75 168.25,-285.25"/>
<text text-anchor="start" x="15.5" y="-271.75" font-family="Helvetica,sans-Serif" font-size="10.00">MoFEM::ForcesAndSourcesCore</text>
<text text-anchor="middle" x="87.88" y="-260.5" font-family="Helvetica,sans-Serif" font-size="10.00">::UserDataOperator</text>
</a>
</g>
</g>
<!-- Node5&#45;&gt;Node4 -->
<g id="edge4" class="edge">
<title>Node5&#45;&gt;Node4</title>
<path fill="none" stroke="#63b8ff" d="M87.88,-243.06C87.88,-234.89 87.88,-226.16 87.88,-219.08"/>
<polygon fill="#63b8ff" stroke="#63b8ff" points="84.38,-242.85 87.88,-252.85 91.38,-242.85 84.38,-242.85"/>
</g>
<!-- Node6 -->
<g id="node6" class="node">
<title>Node6</title>
<g id="a_node6"><a xlink:href="struct_mo_f_e_m_1_1_data_operator.html" target="_top" xlink:title="base operator to do operations at Gauss Pt. level">
<polygon fill="white" stroke="#666666" points="145.38,-340.5 30.38,-340.5 30.38,-321.25 145.38,-321.25 145.38,-340.5"/>
<text text-anchor="middle" x="87.88" y="-327" font-family="Helvetica,sans-Serif" font-size="10.00">MoFEM::DataOperator</text>
</a>
</g>
</g>
<!-- Node6&#45;&gt;Node5 -->
<g id="edge5" class="edge">
<title>Node6&#45;&gt;Node5</title>
<path fill="none" stroke="#63b8ff" d="M87.88,-309.67C87.88,-301.74 87.88,-292.81 87.88,-285.53"/>
<polygon fill="#63b8ff" stroke="#63b8ff" points="84.38,-309.42 87.88,-319.42 91.38,-309.42 84.38,-309.42"/>
</g>
</g>
</svg>
