<?xml version="1.0" encoding="UTF-8" standalone="no"?>
<!DOCTYPE svg PUBLIC "-//W3C//DTD SVG 1.1//EN"
 "http://www.w3.org/Graphics/SVG/1.1/DTD/svg11.dtd">
<!-- Generated by graphviz version 2.43.0 (0)
 -->
<!-- Title: BCs_RVELagrange_Periodic::OpDmatRhs Pages: 1 -->
<svg width="778pt" height="394pt"
 viewBox="0.00 0.00 778.00 394.43" xmlns="http://www.w3.org/2000/svg" xmlns:xlink="http://www.w3.org/1999/xlink">
<g id="graph0" class="graph" transform="scale(1 1) rotate(0) translate(4 390.43)">
<title>BCs_RVELagrange_Periodic::OpDmatRhs</title>
<polygon fill="white" stroke="transparent" points="-4,4 -4,-390.43 774,-390.43 774,4 -4,4"/>
<!-- Node1 -->
<g id="node1" class="node">
<title>Node1</title>
<g id="a_node1"><a xlink:title="\biref operator to calculate the RHS of the constrain for the RVE boundary conditions">
<polygon fill="#bfbfbf" stroke="black" points="621,-207.43 621,-237.43 770,-237.43 770,-207.43 621,-207.43"/>
<text text-anchor="start" x="629" y="-225.43" font-family="Helvetica,sans-Serif" font-size="10.00">BCs_RVELagrange_Periodic</text>
<text text-anchor="middle" x="695.5" y="-214.43" font-family="Helvetica,sans-Serif" font-size="10.00">::OpDmatRhs</text>
</a>
</g>
</g>
<!-- Node2 -->
<g id="node2" class="node">
<title>Node2</title>
<g id="a_node2"><a xlink:title=" ">
<polygon fill="white" stroke="#bfbfbf" points="324.5,-366.93 324.5,-385.93 429.5,-385.93 429.5,-366.93 324.5,-366.93"/>
<text text-anchor="middle" x="377" y="-373.93" font-family="Helvetica,sans-Serif" font-size="10.00">UserDataOperator</text>
</a>
</g>
</g>
<!-- Node2&#45;&gt;Node1 -->
<g id="edge1" class="edge">
<title>Node2&#45;&gt;Node1</title>
<path fill="none" stroke="midnightblue" d="M439.76,-384.58C487.55,-387.81 553.67,-385.35 603,-356.43 649.9,-328.94 678.09,-266.74 689.13,-237.79"/>
<polygon fill="midnightblue" stroke="midnightblue" points="439.79,-381.07 429.55,-383.78 439.25,-388.05 439.79,-381.07"/>
</g>
<!-- Node3 -->
<g id="node3" class="node">
<title>Node3</title>
<g id="a_node3"><a xlink:title=" ">
<polygon fill="white" stroke="#bfbfbf" points="335.5,-328.93 335.5,-347.93 418.5,-347.93 418.5,-328.93 335.5,-328.93"/>
<text text-anchor="middle" x="377" y="-335.93" font-family="Helvetica,sans-Serif" font-size="10.00">MatrixDouble</text>
</a>
</g>
</g>
<!-- Node3&#45;&gt;Node1 -->
<g id="edge2" class="edge">
<title>Node3&#45;&gt;Node1</title>
<path fill="none" stroke="#9a32cd" stroke-dasharray="5,2" d="M428.82,-342.09C476.2,-343.41 547.68,-339.93 603,-313.43 639.17,-296.11 669.49,-258.52 684.46,-237.48"/>
<polygon fill="#9a32cd" stroke="#9a32cd" points="428.91,-338.59 418.79,-341.73 428.66,-345.59 428.91,-338.59"/>
<text text-anchor="middle" x="537" y="-344.43" font-family="Helvetica,sans-Serif" font-size="10.00"> N_mat</text>
</g>
<!-- Node4 -->
<g id="node4" class="node">
<title>Node4</title>
<g id="a_node4"><a xlink:title=" ">
<polygon fill="white" stroke="#bfbfbf" points="17.5,-310.93 17.5,-329.93 153.5,-329.93 153.5,-310.93 17.5,-310.93"/>
<text text-anchor="middle" x="85.5" y="-317.93" font-family="Helvetica,sans-Serif" font-size="10.00">vector&lt; MatrixDouble &gt;</text>
</a>
</g>
</g>
<!-- Node4&#45;&gt;Node1 -->
<g id="edge3" class="edge">
<title>Node4&#45;&gt;Node1</title>
<path fill="none" stroke="#9a32cd" stroke-dasharray="5,2" d="M156.06,-309.33C255.27,-293.47 443.09,-263.39 603,-237.43 608.72,-236.5 614.64,-235.54 620.59,-234.57"/>
<polygon fill="#9a32cd" stroke="#9a32cd" points="155.48,-305.87 146.16,-310.91 156.59,-312.79 155.48,-305.87"/>
<text text-anchor="middle" x="377" y="-287.43" font-family="Helvetica,sans-Serif" font-size="10.00"> X_mat</text>
</g>
<!-- Node5 -->
<g id="node5" class="node">
<title>Node5</title>
<g id="a_node5"><a xlink:href="structBCs__RVELagrange__Periodic_1_1CommonDataPeriodic.html" target="_top" xlink:title=" ">
<polygon fill="white" stroke="black" points="302.5,-207.43 302.5,-237.43 451.5,-237.43 451.5,-207.43 302.5,-207.43"/>
<text text-anchor="start" x="310.5" y="-225.43" font-family="Helvetica,sans-Serif" font-size="10.00">BCs_RVELagrange_Periodic</text>
<text text-anchor="middle" x="377" y="-214.43" font-family="Helvetica,sans-Serif" font-size="10.00">::CommonDataPeriodic</text>
</a>
</g>
</g>
<!-- Node4&#45;&gt;Node5 -->
<g id="edge6" class="edge">
<title>Node4&#45;&gt;Node5</title>
<path fill="none" stroke="#9a32cd" stroke-dasharray="5,2" d="M161.91,-306.77C165.08,-305.18 168.12,-303.41 171,-301.43 182.89,-293.27 177.19,-282.71 189,-274.43 224.22,-249.75 241.56,-262.95 283,-251.43 298.32,-247.18 314.92,-242.13 329.81,-237.46"/>
<polygon fill="#9a32cd" stroke="#9a32cd" points="160.48,-303.58 152.72,-310.8 163.28,-309.99 160.48,-303.58"/>
<text text-anchor="middle" x="236" y="-277.43" font-family="Helvetica,sans-Serif" font-size="10.00"> D_mat</text>
</g>
<!-- Node5&#45;&gt;Node1 -->
<g id="edge4" class="edge">
<title>Node5&#45;&gt;Node1</title>
<path fill="none" stroke="#9a32cd" stroke-dasharray="5,2" d="M461.84,-222.43C511.29,-222.43 573.29,-222.43 620.85,-222.43"/>
<polygon fill="#9a32cd" stroke="#9a32cd" points="461.81,-218.93 451.81,-222.43 461.81,-225.93 461.81,-218.93"/>
<text text-anchor="middle" x="537" y="-225.43" font-family="Helvetica,sans-Serif" font-size="10.00"> commonDataPeriodic</text>
</g>
<!-- Node6 -->
<g id="node6" class="node">
<title>Node6</title>
<g id="a_node6"><a xlink:title=" ">
<polygon fill="white" stroke="#bfbfbf" points="6.5,-239.43 6.5,-291.43 164.5,-291.43 164.5,-239.43 6.5,-239.43"/>
<text text-anchor="start" x="14.5" y="-279.43" font-family="Helvetica,sans-Serif" font-size="10.00">vector&lt; map&lt; EntityType,</text>
<text text-anchor="start" x="14.5" y="-268.43" font-family="Helvetica,sans-Serif" font-size="10.00"> map&lt; int, map&lt; EntityType,</text>
<text text-anchor="start" x="14.5" y="-257.43" font-family="Helvetica,sans-Serif" font-size="10.00"> map&lt; int, MatrixDouble &gt;</text>
<text text-anchor="middle" x="85.5" y="-246.43" font-family="Helvetica,sans-Serif" font-size="10.00"> &gt; &gt; &gt; &gt;</text>
</a>
</g>
</g>
<!-- Node6&#45;&gt;Node5 -->
<g id="edge5" class="edge">
<title>Node6&#45;&gt;Node5</title>
<path fill="none" stroke="#9a32cd" stroke-dasharray="5,2" d="M174.6,-243.09C179.46,-242.13 184.28,-241.23 189,-240.43 226.14,-234.15 267.84,-229.87 302.41,-227.07"/>
<polygon fill="#9a32cd" stroke="#9a32cd" points="173.69,-239.71 164.61,-245.16 175.11,-246.56 173.69,-239.71"/>
<text text-anchor="middle" x="236" y="-243.43" font-family="Helvetica,sans-Serif" font-size="10.00"> Cmat</text>
</g>
<!-- Node7 -->
<g id="node7" class="node">
<title>Node7</title>
<g id="a_node7"><a xlink:title=" ">
<polygon fill="white" stroke="#bfbfbf" points="24.5,-190.43 24.5,-220.43 146.5,-220.43 146.5,-190.43 24.5,-190.43"/>
<text text-anchor="start" x="32.5" y="-208.43" font-family="Helvetica,sans-Serif" font-size="10.00">vector&lt; ublas::vector</text>
<text text-anchor="middle" x="85.5" y="-197.43" font-family="Helvetica,sans-Serif" font-size="10.00">&lt; VectorDouble &gt; &gt;</text>
</a>
</g>
</g>
<!-- Node7&#45;&gt;Node5 -->
<g id="edge7" class="edge">
<title>Node7&#45;&gt;Node5</title>
<path fill="none" stroke="#9a32cd" stroke-dasharray="5,2" d="M157.13,-202.98C194.6,-202.39 241.38,-202.77 283,-206.43 289.28,-206.99 295.78,-207.73 302.28,-208.61"/>
<polygon fill="#9a32cd" stroke="#9a32cd" points="156.75,-199.48 146.82,-203.17 156.88,-206.48 156.75,-199.48"/>
<text text-anchor="middle" x="236" y="-209.43" font-family="Helvetica,sans-Serif" font-size="10.00"> DispAtGaussPts</text>
</g>
<!-- Node8 -->
<g id="node8" class="node">
<title>Node8</title>
<g id="a_node8"><a xlink:title=" ">
<polygon fill="white" stroke="#bfbfbf" points="0,-141.43 0,-171.43 171,-171.43 171,-141.43 0,-141.43"/>
<text text-anchor="start" x="8" y="-159.43" font-family="Helvetica,sans-Serif" font-size="10.00">vector&lt; map&lt; EntityType,</text>
<text text-anchor="middle" x="85.5" y="-148.43" font-family="Helvetica,sans-Serif" font-size="10.00"> map&lt; int, MatrixDouble &gt; &gt; &gt;</text>
</a>
</g>
</g>
<!-- Node8&#45;&gt;Node5 -->
<g id="edge8" class="edge">
<title>Node8&#45;&gt;Node5</title>
<path fill="none" stroke="#9a32cd" stroke-dasharray="5,2" d="M181.78,-151.51C215.44,-153.46 252.48,-160.03 283,-176.43 294.13,-182.42 290.55,-191.33 301,-198.43 305.97,-201.82 311.45,-204.75 317.12,-207.28"/>
<polygon fill="#9a32cd" stroke="#9a32cd" points="181.6,-148 171.45,-151.05 181.29,-154.99 181.6,-148"/>
<text text-anchor="middle" x="236" y="-190.43" font-family="Helvetica,sans-Serif" font-size="10.00"> RowN</text>
<text text-anchor="middle" x="236" y="-179.43" font-family="Helvetica,sans-Serif" font-size="10.00">ColN</text>
</g>
<!-- Node9 -->
<g id="node9" class="node">
<title>Node9</title>
<g id="a_node9"><a xlink:title=" ">
<polygon fill="white" stroke="#bfbfbf" points="18,-102.93 18,-121.93 153,-121.93 153,-102.93 18,-102.93"/>
<text text-anchor="middle" x="85.5" y="-109.93" font-family="Helvetica,sans-Serif" font-size="10.00">vector&lt; VectorDouble &gt;</text>
</a>
</g>
</g>
<!-- Node9&#45;&gt;Node5 -->
<g id="edge9" class="edge">
<title>Node9&#45;&gt;Node5</title>
<path fill="none" stroke="#9a32cd" stroke-dasharray="5,2" d="M163.03,-102.98C203.08,-102.28 250.42,-108.72 283,-136.43 304.86,-155.03 280.99,-177.87 301,-198.43 304.34,-201.86 308.16,-204.8 312.28,-207.32"/>
<polygon fill="#9a32cd" stroke="#9a32cd" points="162.9,-99.48 153.01,-103.3 163.12,-106.48 162.9,-99.48"/>
<text text-anchor="middle" x="236" y="-139.43" font-family="Helvetica,sans-Serif" font-size="10.00"> LagMulAtGaussPts</text>
</g>
<!-- Node10 -->
<g id="node10" class="node">
<title>Node10</title>
<g id="a_node10"><a xlink:title=" ">
<polygon fill="white" stroke="#bfbfbf" points="12.5,-42.93 12.5,-83.93 158.5,-83.93 158.5,-42.93 12.5,-42.93"/>
<text text-anchor="start" x="20.5" y="-71.93" font-family="Helvetica,sans-Serif" font-size="10.00">vector&lt; map&lt; EntityType,</text>
<text text-anchor="start" x="20.5" y="-60.93" font-family="Helvetica,sans-Serif" font-size="10.00"> map&lt; int, ublas::vector</text>
<text text-anchor="middle" x="85.5" y="-49.93" font-family="Helvetica,sans-Serif" font-size="10.00">&lt; int &gt; &gt; &gt; &gt;</text>
</a>
</g>
</g>
<!-- Node10&#45;&gt;Node5 -->
<g id="edge10" class="edge">
<title>Node10&#45;&gt;Node5</title>
<path fill="none" stroke="#9a32cd" stroke-dasharray="5,2" d="M168.86,-47.45C208.14,-44.76 252.99,-49.64 283,-77.43 322.89,-114.38 265.79,-157 301,-198.43 303.92,-201.87 307.34,-204.82 311.07,-207.35"/>
<polygon fill="#9a32cd" stroke="#9a32cd" points="168.41,-43.97 158.74,-48.31 169,-50.95 168.41,-43.97"/>
<text text-anchor="middle" x="236" y="-91.43" font-family="Helvetica,sans-Serif" font-size="10.00"> RowInd</text>
<text text-anchor="middle" x="236" y="-80.43" font-family="Helvetica,sans-Serif" font-size="10.00">ColInd</text>
</g>
<!-- Node11 -->
<g id="node11" class="node">
<title>Node11</title>
<g id="a_node11"><a xlink:href="structBCs__RVELagrange__Periodic_1_1CommonFunctionsPeriodic.html" target="_top" xlink:title=" ">
<polygon fill="white" stroke="black" points="301,-158.43 301,-188.43 453,-188.43 453,-158.43 301,-158.43"/>
<text text-anchor="start" x="309" y="-176.43" font-family="Helvetica,sans-Serif" font-size="10.00">BCs_RVELagrange_Periodic</text>
<text text-anchor="middle" x="377" y="-165.43" font-family="Helvetica,sans-Serif" font-size="10.00">::CommonFunctionsPeriodic</text>
</a>
</g>
</g>
<!-- Node11&#45;&gt;Node1 -->
<g id="edge11" class="edge">
<title>Node11&#45;&gt;Node1</title>
<path fill="none" stroke="#9a32cd" stroke-dasharray="5,2" d="M462.98,-186.02C505.11,-192.32 556.76,-200.15 603,-207.43 608.72,-208.33 614.65,-209.28 620.6,-210.24"/>
<polygon fill="#9a32cd" stroke="#9a32cd" points="463.44,-182.55 453.04,-184.53 462.41,-189.47 463.44,-182.55"/>
<text text-anchor="middle" x="537" y="-210.43" font-family="Helvetica,sans-Serif" font-size="10.00"> commonFunctionsPeriodic</text>
</g>
<!-- Node12 -->
<g id="node12" class="node">
<title>Node12</title>
<g id="a_node12"><a xlink:href="structBCs__RVELagrange__Periodic_1_1RVEBC__Data__Periodic.html" target="_top" xlink:title=" ">
<polygon fill="white" stroke="black" points="302.5,-109.43 302.5,-139.43 451.5,-139.43 451.5,-109.43 302.5,-109.43"/>
<text text-anchor="start" x="310.5" y="-127.43" font-family="Helvetica,sans-Serif" font-size="10.00">BCs_RVELagrange_Periodic</text>
<text text-anchor="middle" x="377" y="-116.43" font-family="Helvetica,sans-Serif" font-size="10.00">::RVEBC_Data_Periodic</text>
</a>
</g>
</g>
<!-- Node12&#45;&gt;Node1 -->
<g id="edge12" class="edge">
<title>Node12&#45;&gt;Node1</title>
<path fill="none" stroke="#9a32cd" stroke-dasharray="5,2" d="M461.59,-136.32C504.68,-143.93 557.57,-155.59 603,-172.43 627.44,-181.5 653.34,-196.18 671.32,-207.3"/>
<polygon fill="#9a32cd" stroke="#9a32cd" points="462.16,-132.87 451.71,-134.62 460.97,-139.77 462.16,-132.87"/>
<text text-anchor="middle" x="537" y="-175.43" font-family="Helvetica,sans-Serif" font-size="10.00"> dAta</text>
</g>
<!-- Node13 -->
<g id="node13" class="node">
<title>Node13</title>
<g id="a_node13"><a xlink:href="classRange.html" target="_top" xlink:title=" ">
<polygon fill="white" stroke="black" points="62,-4.93 62,-23.93 109,-23.93 109,-4.93 62,-4.93"/>
<text text-anchor="middle" x="85.5" y="-11.93" font-family="Helvetica,sans-Serif" font-size="10.00">Range</text>
</a>
</g>
</g>
<!-- Node13&#45;&gt;Node12 -->
<g id="edge13" class="edge">
<title>Node13&#45;&gt;Node12</title>
<path fill="none" stroke="#9a32cd" stroke-dasharray="5,2" d="M118.9,-6.73C161.69,1.38 236.99,8.2 283,-30.43 307.27,-50.81 279.35,-76.29 301,-99.43 304.66,-103.34 308.94,-106.64 313.57,-109.42"/>
<polygon fill="#9a32cd" stroke="#9a32cd" points="118.12,-3.32 109.02,-8.74 119.51,-10.18 118.12,-3.32"/>
<text text-anchor="middle" x="236" y="-33.43" font-family="Helvetica,sans-Serif" font-size="10.00"> pRisms</text>
</g>
<!-- Node14 -->
<g id="node14" class="node">
<title>Node14</title>
<g id="a_node14"><a xlink:href="classbool.html" target="_top" xlink:title=" ">
<polygon fill="white" stroke="black" points="358,-70.93 358,-89.93 396,-89.93 396,-70.93 358,-70.93"/>
<text text-anchor="middle" x="377" y="-77.93" font-family="Helvetica,sans-Serif" font-size="10.00">bool</text>
</a>
</g>
</g>
<!-- Node14&#45;&gt;Node1 -->
<g id="edge14" class="edge">
<title>Node14&#45;&gt;Node1</title>
<path fill="none" stroke="#9a32cd" stroke-dasharray="5,2" d="M406.32,-80.3C450.93,-81.25 539.08,-87.95 603,-123.43 640.04,-143.99 670.44,-184.97 685.08,-207.21"/>
<polygon fill="#9a32cd" stroke="#9a32cd" points="406.25,-76.8 396.21,-80.17 406.16,-83.8 406.25,-76.8"/>
<text text-anchor="middle" x="537" y="-126.43" font-family="Helvetica,sans-Serif" font-size="10.00"> hoGeometry</text>
</g>
</g>
</svg>
