<?xml version="1.0" encoding="UTF-8" standalone="no"?>
<!DOCTYPE svg PUBLIC "-//W3C//DTD SVG 1.1//EN"
 "http://www.w3.org/Graphics/SVG/1.1/DTD/svg11.dtd">
<!-- Generated by graphviz version 2.43.0 (0)
 -->
<!-- Title: MoFEM::PostProcGenerateRefMesh&lt; MBEDGE &gt; Pages: 1 -->
<svg width="657pt" height="288pt"
 viewBox="0.00 0.00 657.00 288.00" xmlns="http://www.w3.org/2000/svg" xmlns:xlink="http://www.w3.org/1999/xlink">
<g id="graph0" class="graph" transform="scale(1 1) rotate(0) translate(4 284)">
<title>MoFEM::PostProcGenerateRefMesh&lt; MBEDGE &gt;</title>
<polygon fill="white" stroke="transparent" points="-4,4 -4,-284 653,-284 653,4 -4,4"/>
<!-- Node1 -->
<g id="node1" class="node">
<title>Node1</title>
<g id="a_node1"><a xlink:title=" ">
<polygon fill="#bfbfbf" stroke="black" points="487,-128 487,-158 649,-158 649,-128 487,-128"/>
<text text-anchor="start" x="495" y="-146" font-family="Helvetica,sans-Serif" font-size="10.00">MoFEM::PostProcGenerateRef</text>
<text text-anchor="middle" x="568" y="-135" font-family="Helvetica,sans-Serif" font-size="10.00">Mesh&lt; MBEDGE &gt;</text>
</a>
</g>
</g>
<!-- Node2 -->
<g id="node2" class="node">
<title>Node2</title>
<g id="a_node2"><a xlink:href="structMoFEM_1_1PostProcGenerateRefMeshBase.html" target="_top" xlink:title=" ">
<polygon fill="white" stroke="black" points="288,-128 288,-158 450,-158 450,-128 288,-128"/>
<text text-anchor="start" x="296" y="-146" font-family="Helvetica,sans-Serif" font-size="10.00">MoFEM::PostProcGenerateRef</text>
<text text-anchor="middle" x="369" y="-135" font-family="Helvetica,sans-Serif" font-size="10.00">MeshBase</text>
</a>
</g>
</g>
<!-- Node2&#45;&gt;Node1 -->
<g id="edge1" class="edge">
<title>Node2&#45;&gt;Node1</title>
<path fill="none" stroke="midnightblue" d="M460.16,-143C469.09,-143 478.12,-143 486.94,-143"/>
<polygon fill="midnightblue" stroke="midnightblue" points="460.13,-139.5 450.13,-143 460.13,-146.5 460.13,-139.5"/>
</g>
<!-- Node3 -->
<g id="node3" class="node">
<title>Node3</title>
<g id="a_node3"><a xlink:title=" ">
<polygon fill="white" stroke="#bfbfbf" points="2,-245 2,-275 121,-275 121,-245 2,-245"/>
<text text-anchor="start" x="10" y="-263" font-family="Helvetica,sans-Serif" font-size="10.00">vector&lt; UBlasMatrix</text>
<text text-anchor="middle" x="61.5" y="-252" font-family="Helvetica,sans-Serif" font-size="10.00">&lt; double &gt; &gt;</text>
</a>
</g>
</g>
<!-- Node3&#45;&gt;Node2 -->
<g id="edge2" class="edge">
<title>Node3&#45;&gt;Node2</title>
<path fill="none" stroke="#9a32cd" stroke-dasharray="5,2" d="M131.47,-259.42C173.24,-256.75 226.65,-249.11 270,-229 306.14,-212.24 338.91,-177.87 355.86,-158.04"/>
<polygon fill="#9a32cd" stroke="#9a32cd" points="131.17,-255.93 121.38,-259.98 131.56,-262.92 131.17,-255.93"/>
<text text-anchor="middle" x="205.5" y="-272" font-family="Helvetica,sans-Serif" font-size="10.00"> levelGaussPtsOnRefMesh</text>
<text text-anchor="middle" x="205.5" y="-261" font-family="Helvetica,sans-Serif" font-size="10.00">levelShapeFunctions</text>
</g>
<!-- Node4 -->
<g id="node4" class="node">
<title>Node4</title>
<g id="a_node4"><a xlink:title=" ">
<polygon fill="white" stroke="#bfbfbf" points="29,-206.5 29,-225.5 94,-225.5 94,-206.5 29,-206.5"/>
<text text-anchor="middle" x="61.5" y="-213.5" font-family="Helvetica,sans-Serif" font-size="10.00">PetscBool</text>
</a>
</g>
</g>
<!-- Node4&#45;&gt;Node2 -->
<g id="edge3" class="edge">
<title>Node4&#45;&gt;Node2</title>
<path fill="none" stroke="#9a32cd" stroke-dasharray="5,2" d="M104.42,-216.1C146.98,-215.16 214.36,-210.77 270,-194 297.18,-185.81 325.69,-170.04 344.9,-158.2"/>
<polygon fill="#9a32cd" stroke="#9a32cd" points="104.09,-212.61 94.15,-216.27 104.21,-219.61 104.09,-212.61"/>
<text text-anchor="middle" x="205.5" y="-217" font-family="Helvetica,sans-Serif" font-size="10.00"> hoNodes</text>
</g>
<!-- Node5 -->
<g id="node5" class="node">
<title>Node5</title>
<g id="a_node5"><a xlink:href="classEntityHandle.html" target="_top" xlink:title=" ">
<polygon fill="white" stroke="black" points="21.5,-155.5 21.5,-174.5 101.5,-174.5 101.5,-155.5 21.5,-155.5"/>
<text text-anchor="middle" x="61.5" y="-162.5" font-family="Helvetica,sans-Serif" font-size="10.00">EntityHandle</text>
</a>
</g>
</g>
<!-- Node5&#45;&gt;Node2 -->
<g id="edge4" class="edge">
<title>Node5&#45;&gt;Node2</title>
<path fill="none" stroke="#9a32cd" stroke-dasharray="5,2" d="M111.53,-161.47C159.01,-158.05 231.83,-152.81 287.76,-148.78"/>
<polygon fill="#9a32cd" stroke="#9a32cd" points="111.22,-157.98 101.5,-162.19 111.73,-164.96 111.22,-157.98"/>
<text text-anchor="middle" x="205.5" y="-184" font-family="Helvetica,sans-Serif" font-size="10.00"> eleConn</text>
<text text-anchor="middle" x="205.5" y="-173" font-family="Helvetica,sans-Serif" font-size="10.00">startingEleHandle</text>
<text text-anchor="middle" x="205.5" y="-162" font-family="Helvetica,sans-Serif" font-size="10.00">startingVertEleHandle</text>
</g>
<!-- Node6 -->
<g id="node6" class="node">
<title>Node6</title>
<g id="a_node6"><a xlink:title=" ">
<polygon fill="white" stroke="#bfbfbf" points="0,-106 0,-136 123,-136 123,-106 0,-106"/>
<text text-anchor="start" x="8" y="-124" font-family="Helvetica,sans-Serif" font-size="10.00">vector&lt; ublas::matrix</text>
<text text-anchor="middle" x="61.5" y="-113" font-family="Helvetica,sans-Serif" font-size="10.00">&lt; int &gt; &gt;</text>
</a>
</g>
</g>
<!-- Node6&#45;&gt;Node2 -->
<g id="edge5" class="edge">
<title>Node6&#45;&gt;Node2</title>
<path fill="none" stroke="#9a32cd" stroke-dasharray="5,2" d="M133.56,-125.55C173.63,-128.17 224.62,-131.62 270,-135 275.79,-135.43 281.77,-135.89 287.78,-136.36"/>
<polygon fill="#9a32cd" stroke="#9a32cd" points="133.56,-122.04 123.35,-124.88 133.1,-129.02 133.56,-122.04"/>
<text text-anchor="middle" x="205.5" y="-138" font-family="Helvetica,sans-Serif" font-size="10.00"> levelRef</text>
</g>
<!-- Node7 -->
<g id="node7" class="node">
<title>Node7</title>
<g id="a_node7"><a xlink:title=" ">
<polygon fill="white" stroke="#bfbfbf" points="47,-38.5 47,-57.5 76,-57.5 76,-38.5 47,-38.5"/>
<text text-anchor="middle" x="61.5" y="-45.5" font-family="Helvetica,sans-Serif" font-size="10.00">int</text>
</a>
</g>
</g>
<!-- Node7&#45;&gt;Node2 -->
<g id="edge6" class="edge">
<title>Node7&#45;&gt;Node2</title>
<path fill="none" stroke="#9a32cd" stroke-dasharray="5,2" d="M86.22,-45.97C125.82,-43.48 207.24,-42.26 270,-67 304.25,-80.5 336.47,-109.88 354.09,-127.89"/>
<polygon fill="#9a32cd" stroke="#9a32cd" points="85.93,-42.48 76.21,-46.68 86.43,-49.46 85.93,-42.48"/>
<text text-anchor="middle" x="205.5" y="-114" font-family="Helvetica,sans-Serif" font-size="10.00"> countEle</text>
<text text-anchor="middle" x="205.5" y="-103" font-family="Helvetica,sans-Serif" font-size="10.00">nbVertices</text>
<text text-anchor="middle" x="205.5" y="-92" font-family="Helvetica,sans-Serif" font-size="10.00">nbEles</text>
<text text-anchor="middle" x="205.5" y="-81" font-family="Helvetica,sans-Serif" font-size="10.00">countVertEle</text>
<text text-anchor="middle" x="205.5" y="-70" font-family="Helvetica,sans-Serif" font-size="10.00">defMaxLevel</text>
</g>
<!-- Node8 -->
<g id="node8" class="node">
<title>Node8</title>
<g id="a_node8"><a xlink:title=" ">
<polygon fill="white" stroke="#bfbfbf" points="6,-0.5 6,-19.5 117,-19.5 117,-0.5 6,-0.5"/>
<text text-anchor="middle" x="61.5" y="-7.5" font-family="Helvetica,sans-Serif" font-size="10.00">vector&lt; double * &gt;</text>
</a>
</g>
</g>
<!-- Node8&#45;&gt;Node2 -->
<g id="edge7" class="edge">
<title>Node8&#45;&gt;Node2</title>
<path fill="none" stroke="#9a32cd" stroke-dasharray="5,2" d="M127.19,-3.76C169.99,-2.47 226.09,-6.36 270,-29 313.61,-51.48 346.02,-102.43 360.16,-127.9"/>
<polygon fill="#9a32cd" stroke="#9a32cd" points="127.02,-0.27 117.17,-4.17 127.3,-7.26 127.02,-0.27"/>
<text text-anchor="middle" x="205.5" y="-32" font-family="Helvetica,sans-Serif" font-size="10.00"> verticesOnEleArrays</text>
</g>
</g>
</svg>
