<?xml version="1.0" encoding="UTF-8" standalone="no"?>
<!DOCTYPE svg PUBLIC "-//W3C//DTD SVG 1.1//EN"
 "http://www.w3.org/Graphics/SVG/1.1/DTD/svg11.dtd">
<!-- Generated by graphviz version 2.43.0 (0)
 -->
<!-- Title: EshelbianPlasticity::OpSpatialConsistencyDivTerm Pages: 1 -->
<svg width="300pt" height="321pt"
 viewBox="0.00 0.00 300.00 321.00" xmlns="http://www.w3.org/2000/svg" xmlns:xlink="http://www.w3.org/1999/xlink">
<g id="graph0" class="graph" transform="scale(1 1) rotate(0) translate(4 317)">
<title>EshelbianPlasticity::OpSpatialConsistencyDivTerm</title>
<polygon fill="white" stroke="transparent" points="-4,4 -4,-317 296,-317 296,4 -4,4"/>
<!-- Node1 -->
<g id="node1" class="node">
<title>Node1</title>
<g id="a_node1"><a xlink:title=" ">
<polygon fill="#bfbfbf" stroke="black" points="0,-0.5 0,-30.5 170,-30.5 170,-0.5 0,-0.5"/>
<text text-anchor="start" x="8" y="-18.5" font-family="Helvetica,sans-Serif" font-size="10.00">EshelbianPlasticity</text>
<text text-anchor="middle" x="85" y="-7.5" font-family="Helvetica,sans-Serif" font-size="10.00">::OpSpatialConsistencyDivTerm</text>
</a>
</g>
</g>
<!-- Node2 -->
<g id="node2" class="node">
<title>Node2</title>
<g id="a_node2"><a xlink:href="structEshelbianPlasticity_1_1OpAssembleVolume.html" target="_top" xlink:title=" ">
<polygon fill="white" stroke="black" points="24.5,-68.5 24.5,-98.5 145.5,-98.5 145.5,-68.5 24.5,-68.5"/>
<text text-anchor="start" x="32.5" y="-86.5" font-family="Helvetica,sans-Serif" font-size="10.00">EshelbianPlasticity</text>
<text text-anchor="middle" x="85" y="-75.5" font-family="Helvetica,sans-Serif" font-size="10.00">::OpAssembleVolume</text>
</a>
</g>
</g>
<!-- Node2&#45;&gt;Node1 -->
<g id="edge1" class="edge">
<title>Node2&#45;&gt;Node1</title>
<path fill="none" stroke="midnightblue" d="M85,-58.03C85,-48.86 85,-38.74 85,-30.79"/>
<polygon fill="midnightblue" stroke="midnightblue" points="81.5,-58.18 85,-68.18 88.5,-58.18 81.5,-58.18"/>
</g>
<!-- Node3 -->
<g id="node3" class="node">
<title>Node3</title>
<g id="a_node3"><a xlink:href="structEshelbianPlasticity_1_1OpAssembleBasic.html" target="_top" xlink:title=" ">
<polygon fill="white" stroke="black" points="5.5,-136.5 5.5,-177.5 164.5,-177.5 164.5,-136.5 5.5,-136.5"/>
<text text-anchor="start" x="13.5" y="-165.5" font-family="Helvetica,sans-Serif" font-size="10.00">EshelbianPlasticity</text>
<text text-anchor="start" x="13.5" y="-154.5" font-family="Helvetica,sans-Serif" font-size="10.00">::OpAssembleBasic&lt; VolUser</text>
<text text-anchor="middle" x="85" y="-143.5" font-family="Helvetica,sans-Serif" font-size="10.00">DataOperator &gt;</text>
</a>
</g>
</g>
<!-- Node3&#45;&gt;Node2 -->
<g id="edge2" class="edge">
<title>Node3&#45;&gt;Node2</title>
<path fill="none" stroke="midnightblue" d="M85,-126.16C85,-116.69 85,-106.65 85,-98.8"/>
<polygon fill="midnightblue" stroke="midnightblue" points="81.5,-126.46 85,-136.46 88.5,-126.46 81.5,-126.46"/>
</g>
<!-- Node4 -->
<g id="node4" class="node">
<title>Node4</title>
<g id="a_node4"><a xlink:title=" ">
<polygon fill="white" stroke="#bfbfbf" points="9,-231 9,-250 129,-250 129,-231 9,-231"/>
<text text-anchor="middle" x="69" y="-238" font-family="Helvetica,sans-Serif" font-size="10.00">VolUserDataOperator</text>
</a>
</g>
</g>
<!-- Node4&#45;&gt;Node3 -->
<g id="edge3" class="edge">
<title>Node4&#45;&gt;Node3</title>
<path fill="none" stroke="midnightblue" d="M72.68,-220.75C75.21,-207.89 78.55,-190.84 81.12,-177.76"/>
<polygon fill="midnightblue" stroke="midnightblue" points="69.2,-220.29 70.71,-230.78 76.07,-221.64 69.2,-220.29"/>
</g>
<!-- Node5 -->
<g id="node5" class="node">
<title>Node5</title>
<g id="a_node5"><a xlink:href="structEshelbianPlasticity_1_1OpAssembleBasic.html" target="_top" xlink:title=" ">
<polygon fill="white" stroke="black" points="147.5,-225.5 147.5,-255.5 286.5,-255.5 286.5,-225.5 147.5,-225.5"/>
<text text-anchor="start" x="155.5" y="-243.5" font-family="Helvetica,sans-Serif" font-size="10.00">EshelbianPlasticity</text>
<text text-anchor="middle" x="217" y="-232.5" font-family="Helvetica,sans-Serif" font-size="10.00">::OpAssembleBasic&lt; T &gt;</text>
</a>
</g>
</g>
<!-- Node5&#45;&gt;Node3 -->
<g id="edge4" class="edge">
<title>Node5&#45;&gt;Node3</title>
<path fill="none" stroke="orange" stroke-dasharray="5,2" d="M185.54,-220.08C164.76,-207.25 137.62,-190.49 116.77,-177.62"/>
<polygon fill="orange" stroke="orange" points="183.96,-223.21 194.31,-225.49 187.64,-217.26 183.96,-223.21"/>
<text text-anchor="middle" x="227" y="-199" font-family="Helvetica,sans-Serif" font-size="10.00"> &lt; VolUserDataOperator &gt;</text>
</g>
<!-- Node6 -->
<g id="node6" class="node">
<title>Node6</title>
<g id="a_node6"><a xlink:href="classT.html" target="_top" xlink:title=" ">
<polygon fill="white" stroke="black" points="202.5,-293.5 202.5,-312.5 231.5,-312.5 231.5,-293.5 202.5,-293.5"/>
<text text-anchor="middle" x="217" y="-300.5" font-family="Helvetica,sans-Serif" font-size="10.00">T</text>
</a>
</g>
</g>
<!-- Node6&#45;&gt;Node5 -->
<g id="edge5" class="edge">
<title>Node6&#45;&gt;Node5</title>
<path fill="none" stroke="midnightblue" d="M217,-283.22C217,-274.36 217,-263.96 217,-255.76"/>
<polygon fill="midnightblue" stroke="midnightblue" points="213.5,-283.33 217,-293.33 220.5,-283.33 213.5,-283.33"/>
</g>
</g>
</svg>
