<?xml version="1.0" encoding="UTF-8" standalone="no"?>
<!DOCTYPE svg PUBLIC "-//W3C//DTD SVG 1.1//EN"
 "http://www.w3.org/Graphics/SVG/1.1/DTD/svg11.dtd">
<!-- Generated by graphviz version 9.0.0 (20230911.1827)
 -->
<!-- Title: MoFEM::LogManager::InternalData Pages: 1 -->
<!--zoomable 410 -->
<svg id="main" version="1.1" xmlns="http://www.w3.org/2000/svg" xmlns:xlink="http://www.w3.org/1999/xlink" xml:space="preserve" onload="init(evt)">
<style type="text/css"><![CDATA[
.edge:hover path { stroke: red; }
.edge:hover polygon { stroke: red; fill: red; }
]]></style>
<script type="text/javascript"><![CDATA[
var edges = document.getElementsByTagName('g');
if (edges && edges.length) {
  for (var i=0;i<edges.length;i++) {
    if (edges[i].id.substr(0,4)=='edge') {
      edges[i].setAttribute('class','edge');
    }
  }
}
]]></script>
        <defs>
                <circle id="rim" cx="0" cy="0" r="7"/>
                <circle id="rim2" cx="0" cy="0" r="3.5"/>
                <g id="zoomPlus">
                        <use xlink:href="#rim" fill="#404040">
                                <set attributeName="fill" to="#808080" begin="zoomplus.mouseover" end="zoomplus.mouseout"/>
                        </use>
                        <path d="M-4,0h8M0,-4v8" fill="none" stroke="white" stroke-width="1.5" pointer-events="none"/>
                </g>
                <g id="zoomMin">
                        <use xlink:href="#rim" fill="#404040">
                                <set attributeName="fill" to="#808080" begin="zoomminus.mouseover" end="zoomminus.mouseout"/>
                        </use>
                        <path d="M-4,0h8" fill="none" stroke="white" stroke-width="1.5" pointer-events="none"/>
                </g>
                <g id="dirArrow">
                        <path fill="none" stroke="white" stroke-width="1.5" d="M0,-3.0v7 M-2.5,-0.5L0,-3.0L2.5,-0.5"/>
                </g>
               <g id="resetDef">
                       <use xlink:href="#rim2" fill="#404040">
                               <set attributeName="fill" to="#808080" begin="reset.mouseover" end="reset.mouseout"/>
                       </use>
               </g>
        </defs>

<script type="text/javascript">
var viewWidth = 743;
var viewHeight = 410;
var sectionId = 'dynsection-1';
</script>
<script xlink:href="svgpan.js"/>
<svg id="graph" class="graph">
<g id="viewport">
<title>MoFEM::LogManager::InternalData</title>
<!-- Node1 -->
<g id="node1" class="node">
<title>Node1</title>
<g id="a_node1"><a xlink:title=" ">
<polygon fill="#999999" stroke="#666666" points="735.25,-200.5 619.5,-200.5 619.5,-170 735.25,-170 735.25,-200.5"/>
<text text-anchor="start" x="627.5" y="-187" font-family="Helvetica,sans-Serif" font-size="10.00">MoFEM::LogManager::</text>
<text text-anchor="middle" x="677.38" y="-175.75" font-family="Helvetica,sans-Serif" font-size="10.00">InternalData</text>
</a>
</g>
</g>
<!-- Node2 -->
<g id="node2" class="node">
<title>Node2</title>
<g id="a_node2"><a xlink:title=" ">
<polygon fill="white" stroke="#666666" points="515.25,-402.12 391.25,-402.12 391.25,-360.38 515.25,-360.38 515.25,-402.12"/>
<text text-anchor="start" x="399.25" y="-388.62" font-family="Helvetica,sans-Serif" font-size="10.00">boost::enable_shared</text>
<text text-anchor="start" x="399.25" y="-377.38" font-family="Helvetica,sans-Serif" font-size="10.00">_from_this&lt; LogManager</text>
<text text-anchor="middle" x="453.25" y="-366.12" font-family="Helvetica,sans-Serif" font-size="10.00">::InternalData &gt;</text>
</a>
</g>
</g>
<!-- Node2&#45;&gt;Node1 -->
<g id="edge1" class="edge">
<title>Node2&#45;&gt;Node1</title>
<path fill="none" stroke="#63b8ff" d="M525.73,-356.56C551.86,-344.94 580.21,-328.99 601.5,-308.25 634.63,-275.98 658.98,-226.12 669.94,-200.94"/>
<polygon fill="#63b8ff" stroke="#63b8ff" points="524.66,-353.21 516.85,-360.37 527.42,-359.64 524.66,-353.21"/>
</g>
<!-- Node3 -->
<g id="node3" class="node">
<title>Node3</title>
<g id="a_node3"><a xlink:href="class_mo_f_e_m_1_1_log_manager_1_1_internal_data_1_1_self_stream_buf.html" target="_top" xlink:title=" ">
<polygon fill="white" stroke="#666666" points="522.75,-234.5 383.75,-234.5 383.75,-204 522.75,-204 522.75,-234.5"/>
<text text-anchor="start" x="391.75" y="-221" font-family="Helvetica,sans-Serif" font-size="10.00">MoFEM::LogManager::</text>
<text text-anchor="middle" x="453.25" y="-209.75" font-family="Helvetica,sans-Serif" font-size="10.00">InternalData::SelfStreamBuf</text>
</a>
</g>
</g>
<!-- Node3&#45;&gt;Node1 -->
<g id="edge2" class="edge">
<title>Node3&#45;&gt;Node1</title>
<path fill="none" stroke="#9a32cd" stroke-dasharray="5,2" d="M534.04,-207.04C562.18,-202.73 593.23,-197.98 619.13,-194.01"/>
<polygon fill="#9a32cd" stroke="#9a32cd" points="533.86,-203.52 524.51,-208.5 534.92,-210.44 533.86,-203.52"/>
<text text-anchor="middle" x="573" y="-207" font-family="Helvetica,sans-Serif" font-size="10.00"> selfBuf</text>
</g>
<!-- Node4 -->
<g id="node4" class="node">
<title>Node4</title>
<g id="a_node4"><a xlink:title=" ">
<polygon fill="white" stroke="#666666" points="280.62,-253.88 207.62,-253.88 207.62,-234.62 280.62,-234.62 280.62,-253.88"/>
<text text-anchor="middle" x="244.12" y="-240.38" font-family="Helvetica,sans-Serif" font-size="10.00">std::stringbuf</text>
</a>
</g>
</g>
<!-- Node4&#45;&gt;Node3 -->
<g id="edge3" class="edge">
<title>Node4&#45;&gt;Node3</title>
<path fill="none" stroke="#63b8ff" d="M292.29,-237.99C304.48,-236.4 317.6,-234.73 329.75,-233.25 347.17,-231.12 366,-228.92 383.55,-226.91"/>
<polygon fill="#63b8ff" stroke="#63b8ff" points="291.9,-234.51 282.43,-239.27 292.8,-241.45 291.9,-234.51"/>
</g>
<!-- Node5 -->
<g id="node5" class="node">
<title>Node5</title>
<g id="a_node5"><a xlink:href="struct_mo_f_e_m_1_1_log_manager_1_1_internal_data_1_1_world_stream_buf.html" target="_top" xlink:title=" ">
<polygon fill="white" stroke="#666666" points="526.5,-342.5 380,-342.5 380,-312 526.5,-312 526.5,-342.5"/>
<text text-anchor="start" x="388" y="-329" font-family="Helvetica,sans-Serif" font-size="10.00">MoFEM::LogManager::</text>
<text text-anchor="middle" x="453.25" y="-317.75" font-family="Helvetica,sans-Serif" font-size="10.00">InternalData::WorldStreamBuf</text>
</a>
</g>
</g>
<!-- Node4&#45;&gt;Node5 -->
<g id="edge5" class="edge">
<title>Node4&#45;&gt;Node5</title>
<path fill="none" stroke="#63b8ff" d="M289.93,-258.04C312.29,-265.77 339.33,-276.44 362,-289.25 370.82,-294.24 371.06,-298.47 380,-303.25 385.71,-306.3 391.88,-309.07 398.13,-311.54"/>
<polygon fill="#63b8ff" stroke="#63b8ff" points="291.07,-254.73 280.48,-254.85 288.84,-261.36 291.07,-254.73"/>
</g>
<!-- Node7 -->
<g id="node7" class="node">
<title>Node7</title>
<g id="a_node7"><a xlink:href="struct_mo_f_e_m_1_1_log_manager_1_1_internal_data_1_1_synchronized_stream_buf.html" target="_top" xlink:title=" ">
<polygon fill="white" stroke="#666666" points="520.5,-294.12 386,-294.12 386,-252.38 520.5,-252.38 520.5,-294.12"/>
<text text-anchor="start" x="394" y="-280.62" font-family="Helvetica,sans-Serif" font-size="10.00">MoFEM::LogManager::</text>
<text text-anchor="start" x="394" y="-269.38" font-family="Helvetica,sans-Serif" font-size="10.00">InternalData::Synchronized</text>
<text text-anchor="middle" x="453.25" y="-258.12" font-family="Helvetica,sans-Serif" font-size="10.00">StreamBuf</text>
</a>
</g>
</g>
<!-- Node4&#45;&gt;Node7 -->
<g id="edge8" class="edge">
<title>Node4&#45;&gt;Node7</title>
<path fill="none" stroke="#63b8ff" d="M292.35,-249.41C313.66,-251.87 339.13,-254.98 362,-258.25 369.7,-259.35 377.77,-260.58 385.77,-261.85"/>
<polygon fill="#63b8ff" stroke="#63b8ff" points="292.82,-245.94 282.49,-248.29 292.03,-252.9 292.82,-245.94"/>
</g>
<!-- Node5&#45;&gt;Node1 -->
<g id="edge4" class="edge">
<title>Node5&#45;&gt;Node1</title>
<path fill="none" stroke="#9a32cd" stroke-dasharray="5,2" d="M517.01,-307.44C520.25,-306.09 523.43,-304.7 526.5,-303.25 562.09,-286.49 570.41,-280.35 601.5,-256.25 623.87,-238.91 647.15,-215.93 661.69,-200.88"/>
<polygon fill="#9a32cd" stroke="#9a32cd" points="515.98,-304.08 507.95,-310.99 518.53,-310.6 515.98,-304.08"/>
<text text-anchor="middle" x="573" y="-295" font-family="Helvetica,sans-Serif" font-size="10.00"> worldBuf</text>
</g>
<!-- Node6 -->
<g id="node6" class="node">
<title>Node6</title>
<g id="a_node6"><a xlink:title=" ">
<polygon fill="white" stroke="#666666" points="278.38,-328.88 209.88,-328.88 209.88,-309.62 278.38,-309.62 278.38,-328.88"/>
<text text-anchor="middle" x="244.12" y="-315.38" font-family="Helvetica,sans-Serif" font-size="10.00">MPI_Comm</text>
</a>
</g>
</g>
<!-- Node6&#45;&gt;Node5 -->
<g id="edge6" class="edge">
<title>Node6&#45;&gt;Node5</title>
<path fill="none" stroke="#9a32cd" stroke-dasharray="5,2" d="M290.33,-321C316.52,-322.01 350.09,-323.3 379.87,-324.45"/>
<polygon fill="#9a32cd" stroke="#9a32cd" points="290.5,-317.5 280.38,-320.61 290.23,-324.49 290.5,-317.5"/>
<text text-anchor="middle" x="345.88" y="-325" font-family="Helvetica,sans-Serif" font-size="10.00"> cOmm</text>
</g>
<!-- Node6&#45;&gt;Node7 -->
<g id="edge9" class="edge">
<title>Node6&#45;&gt;Node7</title>
<path fill="none" stroke="#9a32cd" stroke-dasharray="5,2" d="M289.92,-309.3C317.93,-303.08 354.52,-294.95 385.87,-287.99"/>
<polygon fill="#9a32cd" stroke="#9a32cd" points="289.35,-305.84 280.34,-311.43 290.86,-312.68 289.35,-305.84"/>
<text text-anchor="middle" x="345.88" y="-302" font-family="Helvetica,sans-Serif" font-size="10.00"> cOmm</text>
</g>
<!-- Node7&#45;&gt;Node1 -->
<g id="edge7" class="edge">
<title>Node7&#45;&gt;Node1</title>
<path fill="none" stroke="#9a32cd" stroke-dasharray="5,2" d="M528.09,-248.17C551.72,-239.74 577.87,-230 601.5,-220.25 615.83,-214.34 631.39,-207.19 644.6,-200.89"/>
<polygon fill="#9a32cd" stroke="#9a32cd" points="527.12,-244.8 518.86,-251.44 529.45,-251.4 527.12,-244.8"/>
<text text-anchor="middle" x="573" y="-243" font-family="Helvetica,sans-Serif" font-size="10.00"> syncBuf</text>
</g>
<!-- Node8 -->
<g id="node8" class="node">
<title>Node8</title>
<g id="a_node8"><a xlink:title=" ">
<polygon fill="white" stroke="#666666" points="269.75,-157.88 218.5,-157.88 218.5,-138.62 269.75,-138.62 269.75,-157.88"/>
<text text-anchor="middle" x="244.12" y="-144.38" font-family="Helvetica,sans-Serif" font-size="10.00">ostream</text>
</a>
</g>
</g>
<!-- Node8&#45;&gt;Node1 -->
<g id="edge10" class="edge">
<title>Node8&#45;&gt;Node1</title>
<path fill="none" stroke="#9a32cd" stroke-dasharray="5,2" d="M281.32,-148.68C334.99,-149.61 438.76,-152.51 526.5,-161.5 557.29,-164.66 591.39,-169.92 619.28,-174.69"/>
<polygon fill="#9a32cd" stroke="#9a32cd" points="281.6,-145.19 271.55,-148.53 281.49,-152.19 281.6,-145.19"/>
<text text-anchor="middle" x="453.25" y="-185.5" font-family="Helvetica,sans-Serif" font-size="10.00"> strmSelf</text>
<text text-anchor="middle" x="453.25" y="-174.25" font-family="Helvetica,sans-Serif" font-size="10.00">strmSync</text>
<text text-anchor="middle" x="453.25" y="-163" font-family="Helvetica,sans-Serif" font-size="10.00">strmWorld</text>
</g>
<!-- Node9 -->
<g id="node9" class="node">
<title>Node9</title>
<g id="a_node9"><a xlink:href="class_mo_f_e_m_1_1_log_manager_1_1_internal_data_1_1_nul_o_stream.html" target="_top" xlink:title=" ">
<polygon fill="white" stroke="#666666" points="517.88,-116.5 388.62,-116.5 388.62,-86 517.88,-86 517.88,-116.5"/>
<text text-anchor="start" x="396.62" y="-103" font-family="Helvetica,sans-Serif" font-size="10.00">MoFEM::LogManager::</text>
<text text-anchor="middle" x="453.25" y="-91.75" font-family="Helvetica,sans-Serif" font-size="10.00">InternalData::NulOStream</text>
</a>
</g>
</g>
<!-- Node8&#45;&gt;Node9 -->
<g id="edge15" class="edge">
<title>Node8&#45;&gt;Node9</title>
<path fill="none" stroke="#63b8ff" d="M281.14,-140.08C310.7,-133.37 353.27,-123.71 388.56,-115.7"/>
<polygon fill="#63b8ff" stroke="#63b8ff" points="280.56,-136.62 271.59,-142.25 282.11,-143.45 280.56,-136.62"/>
</g>
<!-- Node9&#45;&gt;Node1 -->
<g id="edge11" class="edge">
<title>Node9&#45;&gt;Node1</title>
<path fill="none" stroke="#9a32cd" stroke-dasharray="5,2" d="M529.33,-107.2C553.13,-110.95 579.07,-117.06 601.5,-127 624.54,-137.21 646.78,-156.02 660.95,-169.51"/>
<polygon fill="#9a32cd" stroke="#9a32cd" points="530.1,-103.77 519.7,-105.8 529.09,-110.7 530.1,-103.77"/>
<text text-anchor="middle" x="573" y="-128" font-family="Helvetica,sans-Serif" font-size="10.00"> nullSelf</text>
</g>
<!-- Node10 -->
<g id="node10" class="node">
<title>Node10</title>
<g id="a_node10"><a xlink:href="class_mo_f_e_m_1_1_log_manager_1_1_internal_data_1_1_nul_streambuf.html" target="_top" xlink:title=" ">
<polygon fill="white" stroke="#666666" points="311.75,-116.5 176.5,-116.5 176.5,-86 311.75,-86 311.75,-116.5"/>
<text text-anchor="start" x="184.5" y="-103" font-family="Helvetica,sans-Serif" font-size="10.00">MoFEM::LogManager::</text>
<text text-anchor="middle" x="244.12" y="-91.75" font-family="Helvetica,sans-Serif" font-size="10.00">InternalData::NulStreambuf</text>
</a>
</g>
</g>
<!-- Node10&#45;&gt;Node9 -->
<g id="edge12" class="edge">
<title>Node10&#45;&gt;Node9</title>
<path fill="none" stroke="#8b1a1a" d="M323.46,-101.25C344.88,-101.25 367.83,-101.25 388.34,-101.25"/>
<polygon fill="#8b1a1a" stroke="#8b1a1a" points="323.6,-97.75 313.6,-101.25 323.6,-104.75 323.6,-97.75"/>
</g>
<!-- Node11 -->
<g id="node11" class="node">
<title>Node11</title>
<g id="a_node11"><a xlink:title=" ">
<polygon fill="white" stroke="#666666" points="79,-129.88 0,-129.88 0,-110.62 79,-110.62 79,-129.88"/>
<text text-anchor="middle" x="39.5" y="-116.38" font-family="Helvetica,sans-Serif" font-size="10.00">std::streambuf</text>
</a>
</g>
</g>
<!-- Node11&#45;&gt;Node10 -->
<g id="edge13" class="edge">
<title>Node11&#45;&gt;Node10</title>
<path fill="none" stroke="#63b8ff" d="M90.52,-115.56C116.42,-113.13 148.38,-110.13 176.36,-107.51"/>
<polygon fill="#63b8ff" stroke="#63b8ff" points="90.23,-112.07 80.6,-116.49 90.88,-119.04 90.23,-112.07"/>
</g>
<!-- Node12 -->
<g id="node12" class="node">
<title>Node12</title>
<g id="a_node12"><a xlink:title=" ">
<polygon fill="white" stroke="#666666" points="56.88,-92.88 22.12,-92.88 22.12,-73.62 56.88,-73.62 56.88,-92.88"/>
<text text-anchor="middle" x="39.5" y="-79.38" font-family="Helvetica,sans-Serif" font-size="10.00">char</text>
</a>
</g>
</g>
<!-- Node12&#45;&gt;Node10 -->
<g id="edge14" class="edge">
<title>Node12&#45;&gt;Node10</title>
<path fill="none" stroke="#9a32cd" stroke-dasharray="5,2" d="M68.25,-85.72C95.93,-88.17 139.5,-92.04 176.22,-95.31"/>
<polygon fill="#9a32cd" stroke="#9a32cd" points="68.86,-82.26 58.59,-84.86 68.24,-89.23 68.86,-82.26"/>
<text text-anchor="middle" x="127.75" y="-95" font-family="Helvetica,sans-Serif" font-size="10.00"> dummyBuffer</text>
</g>
<!-- Node13 -->
<g id="node13" class="node">
<title>Node13</title>
<g id="a_node13"><a xlink:href="classbool.html" target="_top" xlink:title=" ">
<polygon fill="white" stroke="#666666" points="470.25,-67.88 436.25,-67.88 436.25,-48.62 470.25,-48.62 470.25,-67.88"/>
<text text-anchor="middle" x="453.25" y="-54.38" font-family="Helvetica,sans-Serif" font-size="10.00">bool</text>
</a>
</g>
</g>
<!-- Node13&#45;&gt;Node1 -->
<g id="edge16" class="edge">
<title>Node13&#45;&gt;Node1</title>
<path fill="none" stroke="#9a32cd" stroke-dasharray="5,2" d="M481.53,-51.41C512.77,-45.16 564.4,-39.81 601.5,-61.25 642.87,-85.16 664.08,-141.88 672.26,-169.54"/>
<polygon fill="#9a32cd" stroke="#9a32cd" points="481.13,-47.91 472.11,-53.47 482.63,-54.75 481.13,-47.91"/>
<text text-anchor="middle" x="573" y="-96.75" font-family="Helvetica,sans-Serif" font-size="10.00"> logQuiet</text>
<text text-anchor="middle" x="573" y="-85.5" font-family="Helvetica,sans-Serif" font-size="10.00">logTime</text>
<text text-anchor="middle" x="573" y="-74.25" font-family="Helvetica,sans-Serif" font-size="10.00">noColors</text>
<text text-anchor="middle" x="573" y="-63" font-family="Helvetica,sans-Serif" font-size="10.00">sinksAdd</text>
</g>
<!-- Node14 -->
<g id="node14" class="node">
<title>Node14</title>
<g id="a_node14"><a xlink:title=" ">
<polygon fill="white" stroke="#666666" points="514.5,-30.5 392,-30.5 392,0 514.5,0 514.5,-30.5"/>
<text text-anchor="start" x="400" y="-17" font-family="Helvetica,sans-Serif" font-size="10.00">map&lt; std::string, Logger</text>
<text text-anchor="middle" x="453.25" y="-5.75" font-family="Helvetica,sans-Serif" font-size="10.00">Type &gt;</text>
</a>
</g>
</g>
<!-- Node14&#45;&gt;Node1 -->
<g id="edge17" class="edge">
<title>Node14&#45;&gt;Node1</title>
<path fill="none" stroke="#9a32cd" stroke-dasharray="5,2" d="M526.11,-9.09C551.88,-10.27 579.88,-15.8 601.5,-31 649.47,-64.73 667.95,-137.89 673.92,-169.82"/>
<polygon fill="#9a32cd" stroke="#9a32cd" points="526.44,-5.6 516.36,-8.87 526.28,-12.6 526.44,-5.6"/>
<text text-anchor="middle" x="573" y="-33" font-family="Helvetica,sans-Serif" font-size="10.00"> logChannels</text>
</g>
</g>
</svg>
        <g id="navigator" transform="translate(0 0)" fill="#404254">
                <rect fill="#f2f5e9" fill-opacity="0.5" stroke="#606060" stroke-width=".5" x="0" y="0" width="60" height="60"/>
                <use id="zoomplus" xlink:href="#zoomPlus" x="17" y="9" onmousedown="handleZoom(evt,'in')"/>
                <use id="zoomminus" xlink:href="#zoomMin" x="42" y="9" onmousedown="handleZoom(evt,'out')"/>
                <use id="reset" xlink:href="#resetDef" x="30" y="36" onmousedown="handleReset()"/>
                <g id="arrowUp" xlink:href="#dirArrow" transform="translate(30 24)" onmousedown="handlePan(0,-1)">
                  <use xlink:href="#rim" fill="#404040">
                        <set attributeName="fill" to="#808080" begin="arrowUp.mouseover" end="arrowUp.mouseout"/>
                  </use>
                  <path fill="none" stroke="white" stroke-width="1.5" d="M0,-3.0v7 M-2.5,-0.5L0,-3.0L2.5,-0.5"/>
                </g>
                <g id="arrowRight" xlink:href="#dirArrow" transform="rotate(90) translate(36 -43)" onmousedown="handlePan(1,0)">
                  <use xlink:href="#rim" fill="#404040">
                        <set attributeName="fill" to="#808080" begin="arrowRight.mouseover" end="arrowRight.mouseout"/>
                  </use>
                  <path fill="none" stroke="white" stroke-width="1.5" d="M0,-3.0v7 M-2.5,-0.5L0,-3.0L2.5,-0.5"/>
                </g>
                <g id="arrowDown" xlink:href="#dirArrow" transform="rotate(180) translate(-30 -48)" onmousedown="handlePan(0,1)">
                  <use xlink:href="#rim" fill="#404040">
                        <set attributeName="fill" to="#808080" begin="arrowDown.mouseover" end="arrowDown.mouseout"/>
                  </use>
                  <path fill="none" stroke="white" stroke-width="1.5" d="M0,-3.0v7 M-2.5,-0.5L0,-3.0L2.5,-0.5"/>
                </g>
                <g id="arrowLeft" xlink:href="#dirArrow" transform="rotate(270) translate(-36 17)" onmousedown="handlePan(-1,0)">
                  <use xlink:href="#rim" fill="#404040">
                        <set attributeName="fill" to="#808080" begin="arrowLeft.mouseover" end="arrowLeft.mouseout"/>
                  </use>
                  <path fill="none" stroke="white" stroke-width="1.5" d="M0,-3.0v7 M-2.5,-0.5L0,-3.0L2.5,-0.5"/>
                </g>
        </g>
        <svg viewBox="0 0 15 15" width="100%" height="30px" preserveAspectRatio="xMaxYMin meet">
         <g id="arrow_out" transform="scale(0.3 0.3)">
          <a xlink:href="struct_mo_f_e_m_1_1_log_manager_1_1_internal_data__coll__graph_org.svg" target="_base">
           <rect id="button" ry="5" rx="5" y="6" x="6" height="38" width="38"
                fill="#f2f5e9" fill-opacity="0.5" stroke="#606060" stroke-width="1.0"/>
           <path id="arrow"
             d="M 11.500037,31.436501 C 11.940474,20.09759 22.043105,11.32322 32.158766,21.979434 L 37.068811,17.246167 C 37.068811,17.246167 37.088388,32 37.088388,32 L 22.160133,31.978069 C 22.160133,31.978069 26.997745,27.140456 26.997745,27.140456 C 18.528582,18.264221 13.291696,25.230495 11.500037,31.436501 z"
             style="fill:#404040;"/>
          </a>
         </g>
        </svg>
</svg>
