<?xml version="1.0" encoding="UTF-8" standalone="no"?>
<!DOCTYPE svg PUBLIC "-//W3C//DTD SVG 1.1//EN"
 "http://www.w3.org/Graphics/SVG/1.1/DTD/svg11.dtd">
<!-- Generated by graphviz version 9.0.0 (20230911.1827)
 -->
<!-- Title: MoFEM::DofEntity Pages: 1 -->
<svg width="1813pt" height="162pt"
 viewBox="0.00 0.00 1812.75 162.25" xmlns="http://www.w3.org/2000/svg" xmlns:xlink="http://www.w3.org/1999/xlink">
<g id="graph0" class="graph" transform="scale(1 1) rotate(0) translate(4 158.25)">
<title>MoFEM::DofEntity</title>
<!-- Node1 -->
<g id="node1" class="node">
<title>Node1</title>
<g id="a_node1"><a xlink:title="keeps information about DOF on the entity">
<polygon fill="#999999" stroke="#666666" points="1804.75,-64.25 1707,-64.25 1707,-45 1804.75,-45 1804.75,-64.25"/>
<text text-anchor="middle" x="1755.88" y="-50.75" font-family="Helvetica,sans-Serif" font-size="10.00">MoFEM::DofEntity</text>
</a>
</g>
</g>
<!-- Node2 -->
<g id="node2" class="node">
<title>Node2</title>
<g id="a_node2"><a xlink:href="struct_mo_f_e_m_1_1interface___field_entity.html" target="_top" xlink:title=" ">
<polygon fill="white" stroke="#666666" points="1654.5,-99.88 1508.75,-99.88 1508.75,-69.38 1654.5,-69.38 1654.5,-99.88"/>
<text text-anchor="start" x="1516.75" y="-86.38" font-family="Helvetica,sans-Serif" font-size="10.00">MoFEM::interface_FieldEntity</text>
<text text-anchor="middle" x="1581.62" y="-75.12" font-family="Helvetica,sans-Serif" font-size="10.00">&lt; FieldEntity &gt;</text>
</a>
</g>
</g>
<!-- Node2&#45;&gt;Node1 -->
<g id="edge1" class="edge">
<title>Node2&#45;&gt;Node1</title>
<path fill="none" stroke="#63b8ff" d="M1665.84,-70.13C1679.82,-67.7 1693.9,-65.24 1706.61,-63.03"/>
<polygon fill="#63b8ff" stroke="#63b8ff" points="1665.42,-66.65 1656.17,-71.82 1666.62,-73.55 1665.42,-66.65"/>
</g>
<!-- Node3 -->
<g id="node3" class="node">
<title>Node3</title>
<g id="a_node3"><a xlink:href="struct_mo_f_e_m_1_1interface___field.html" target="_top" xlink:title=" ">
<polygon fill="white" stroke="#666666" points="1031.88,-116.88 911.62,-116.88 911.62,-86.38 1031.88,-86.38 1031.88,-116.88"/>
<text text-anchor="start" x="919.62" y="-103.38" font-family="Helvetica,sans-Serif" font-size="10.00">MoFEM::interface_Field</text>
<text text-anchor="middle" x="971.75" y="-92.12" font-family="Helvetica,sans-Serif" font-size="10.00">&lt; FIELD, REFENT &gt;</text>
</a>
</g>
</g>
<!-- Node3&#45;&gt;Node2 -->
<g id="edge2" class="edge">
<title>Node3&#45;&gt;Node2</title>
<path fill="none" stroke="#63b8ff" d="M1043.39,-99.65C1159.83,-96.39 1390.88,-89.93 1508.38,-86.65"/>
<polygon fill="#63b8ff" stroke="#63b8ff" points="1043.55,-96.14 1033.66,-99.92 1043.75,-103.14 1043.55,-96.14"/>
</g>
<!-- Node4 -->
<g id="node4" class="node">
<title>Node4</title>
<g id="a_node4"><a xlink:href="struct_mo_f_e_m_1_1interface___field_impl.html" target="_top" xlink:title="Pointer interface for MoFEM::Field.">
<polygon fill="white" stroke="#666666" points="824.25,-116.88 685.25,-116.88 685.25,-86.38 824.25,-86.38 824.25,-116.88"/>
<text text-anchor="start" x="693.25" y="-103.38" font-family="Helvetica,sans-Serif" font-size="10.00">MoFEM::interface_FieldImpl</text>
<text text-anchor="middle" x="754.75" y="-92.12" font-family="Helvetica,sans-Serif" font-size="10.00">&lt; FIELD, REFENT &gt;</text>
</a>
</g>
</g>
<!-- Node4&#45;&gt;Node3 -->
<g id="edge3" class="edge">
<title>Node4&#45;&gt;Node3</title>
<path fill="none" stroke="#63b8ff" d="M835.96,-101.62C860.92,-101.62 887.99,-101.62 911.27,-101.62"/>
<polygon fill="#63b8ff" stroke="#63b8ff" points="836.18,-98.13 826.18,-101.63 836.18,-105.13 836.18,-98.13"/>
</g>
<!-- Node5 -->
<g id="node5" class="node">
<title>Node5</title>
<g id="a_node5"><a xlink:href="struct_mo_f_e_m_1_1interface___ref_entity.html" target="_top" xlink:title=" ">
<polygon fill="white" stroke="#666666" points="648.25,-85.88 507.75,-85.88 507.75,-55.38 648.25,-55.38 648.25,-85.88"/>
<text text-anchor="start" x="515.75" y="-72.38" font-family="Helvetica,sans-Serif" font-size="10.00">MoFEM::interface_RefEntity</text>
<text text-anchor="middle" x="578" y="-61.12" font-family="Helvetica,sans-Serif" font-size="10.00">&lt; REFENT &gt;</text>
</a>
</g>
</g>
<!-- Node5&#45;&gt;Node4 -->
<g id="edge4" class="edge">
<title>Node5&#45;&gt;Node4</title>
<path fill="none" stroke="#63b8ff" d="M659.63,-84.93C668.11,-86.43 676.67,-87.95 684.99,-89.43"/>
<polygon fill="#63b8ff" stroke="#63b8ff" points="660.52,-81.53 650.06,-83.23 659.29,-88.42 660.52,-81.53"/>
</g>
<!-- Node14 -->
<g id="node14" class="node">
<title>Node14</title>
<g id="a_node14"><a xlink:href="struct_mo_f_e_m_1_1interface___field_impl.html" target="_top" xlink:title="Pointer interface for MoFEM::Field.">
<polygon fill="white" stroke="#666666" points="824.25,-67.88 685.25,-67.88 685.25,-37.38 824.25,-37.38 824.25,-67.88"/>
<text text-anchor="start" x="693.25" y="-54.38" font-family="Helvetica,sans-Serif" font-size="10.00">MoFEM::interface_FieldImpl</text>
<text text-anchor="middle" x="754.75" y="-43.12" font-family="Helvetica,sans-Serif" font-size="10.00">&lt; FIELD, REFENT &gt;</text>
</a>
</g>
</g>
<!-- Node5&#45;&gt;Node14 -->
<g id="edge15" class="edge">
<title>Node5&#45;&gt;Node14</title>
<path fill="none" stroke="#63b8ff" d="M659.92,-62.29C668.3,-61.43 676.76,-60.56 684.99,-59.71"/>
<polygon fill="#63b8ff" stroke="#63b8ff" points="659.66,-58.8 650.07,-63.3 660.38,-65.76 659.66,-58.8"/>
</g>
<!-- Node6 -->
<g id="node6" class="node">
<title>Node6</title>
<g id="a_node6"><a xlink:href="classboost_1_1shared__ptr_3_01_r_e_f_e_n_t_01_4.html" target="_top" xlink:title=" ">
<polygon fill="white" stroke="#666666" points="285.12,-57.25 164.88,-57.25 164.88,-38 285.12,-38 285.12,-57.25"/>
<text text-anchor="middle" x="225" y="-43.75" font-family="Helvetica,sans-Serif" font-size="10.00">shared_ptr&lt; REFENT &gt;</text>
</a>
</g>
</g>
<!-- Node6&#45;&gt;Node5 -->
<g id="edge5" class="edge">
<title>Node6&#45;&gt;Node5</title>
<path fill="none" stroke="#9a32cd" stroke-dasharray="5,2" d="M296.88,-49.17C350.04,-50.73 424.55,-53.73 489.75,-59.38 495.53,-59.88 501.52,-60.48 507.53,-61.13"/>
<polygon fill="#9a32cd" stroke="#9a32cd" points="297.15,-45.68 287.05,-48.9 296.95,-52.68 297.15,-45.68"/>
<text text-anchor="middle" x="407.5" y="-61.38" font-family="Helvetica,sans-Serif" font-size="10.00"> sPtr</text>
</g>
<!-- Node7 -->
<g id="node7" class="node">
<title>Node7</title>
<g id="a_node7"><a xlink:href="struct_mo_f_e_m_1_1interface___ref_entity.html" target="_top" xlink:title="interface to RefEntity">
<polygon fill="white" stroke="#666666" points="307.25,-94.25 142.75,-94.25 142.75,-75 307.25,-75 307.25,-94.25"/>
<text text-anchor="middle" x="225" y="-80.75" font-family="Helvetica,sans-Serif" font-size="10.00">MoFEM::interface_RefEntity&lt; T &gt;</text>
</a>
</g>
</g>
<!-- Node7&#45;&gt;Node5 -->
<g id="edge6" class="edge">
<title>Node7&#45;&gt;Node5</title>
<path fill="none" stroke="orange" stroke-dasharray="5,2" d="M318.63,-80.93C377.77,-78.57 453.22,-75.56 507.29,-73.41"/>
<polygon fill="orange" stroke="orange" points="318.77,-77.42 308.92,-81.32 319.05,-84.42 318.77,-77.42"/>
<text text-anchor="middle" x="407.5" y="-82.38" font-family="Helvetica,sans-Serif" font-size="10.00"> &lt; REFENT &gt;</text>
</g>
<!-- Node8 -->
<g id="node8" class="node">
<title>Node8</title>
<g id="a_node8"><a xlink:title=" ">
<polygon fill="white" stroke="#666666" points="85.75,-36.25 0,-36.25 0,-17 85.75,-17 85.75,-36.25"/>
<text text-anchor="middle" x="42.88" y="-22.75" font-family="Helvetica,sans-Serif" font-size="10.00">shared_ptr&lt; T &gt;</text>
</a>
</g>
</g>
<!-- Node8&#45;&gt;Node7 -->
<g id="edge7" class="edge">
<title>Node8&#45;&gt;Node7</title>
<path fill="none" stroke="#9a32cd" stroke-dasharray="5,2" d="M76.01,-41.21C95.11,-49.48 119.99,-59.55 142.75,-66.62 152.27,-69.58 162.56,-72.25 172.52,-74.58"/>
<polygon fill="#9a32cd" stroke="#9a32cd" points="77.44,-38.01 66.87,-37.19 74.62,-44.42 77.44,-38.01"/>
<text text-anchor="middle" x="114.25" y="-62.38" font-family="Helvetica,sans-Serif" font-size="10.00"> sPtr</text>
</g>
<!-- Node13 -->
<g id="node13" class="node">
<title>Node13</title>
<g id="a_node13"><a xlink:href="struct_mo_f_e_m_1_1interface___ref_entity.html" target="_top" xlink:title="interface to RefEntity">
<polygon fill="white" stroke="#666666" points="489.75,-19.25 325.25,-19.25 325.25,0 489.75,0 489.75,-19.25"/>
<text text-anchor="middle" x="407.5" y="-5.75" font-family="Helvetica,sans-Serif" font-size="10.00">MoFEM::interface_RefEntity&lt; T &gt;</text>
</a>
</g>
</g>
<!-- Node8&#45;&gt;Node13 -->
<g id="edge13" class="edge">
<title>Node8&#45;&gt;Node13</title>
<path fill="none" stroke="#9a32cd" stroke-dasharray="5,2" d="M97.67,-24.1C157.75,-21.29 255.64,-16.7 325.09,-13.44"/>
<polygon fill="#9a32cd" stroke="#9a32cd" points="97.52,-20.61 87.69,-24.57 97.85,-27.6 97.52,-20.61"/>
<text text-anchor="middle" x="114.25" y="-25.38" font-family="Helvetica,sans-Serif" font-size="10.00"> sPtr</text>
</g>
<!-- Node9 -->
<g id="node9" class="node">
<title>Node9</title>
<g id="a_node9"><a xlink:title=" ">
<polygon fill="white" stroke="#666666" points="808.88,-154.25 700.62,-154.25 700.62,-135 808.88,-135 808.88,-154.25"/>
<text text-anchor="middle" x="754.75" y="-140.75" font-family="Helvetica,sans-Serif" font-size="10.00">shared_ptr&lt; FIELD &gt;</text>
</a>
</g>
</g>
<!-- Node9&#45;&gt;Node3 -->
<g id="edge8" class="edge">
<title>Node9&#45;&gt;Node3</title>
<path fill="none" stroke="#9a32cd" stroke-dasharray="5,2" d="M817.2,-132.33C846.82,-126.41 882.18,-119.34 911.5,-113.47"/>
<polygon fill="#9a32cd" stroke="#9a32cd" points="816.76,-128.85 807.64,-134.25 818.13,-135.72 816.76,-128.85"/>
<text text-anchor="middle" x="863.25" y="-129.38" font-family="Helvetica,sans-Serif" font-size="10.00"> sFieldPtr</text>
</g>
<!-- Node10 -->
<g id="node10" class="node">
<title>Node10</title>
<g id="a_node10"><a xlink:href="struct_mo_f_e_m_1_1interface___field_entity.html" target="_top" xlink:title="Interface to FieldEntity.">
<polygon fill="white" stroke="#666666" points="1405.25,-71.25 1235.5,-71.25 1235.5,-52 1405.25,-52 1405.25,-71.25"/>
<text text-anchor="middle" x="1320.38" y="-57.75" font-family="Helvetica,sans-Serif" font-size="10.00">MoFEM::interface_FieldEntity&lt; T &gt;</text>
</a>
</g>
</g>
<!-- Node10&#45;&gt;Node2 -->
<g id="edge9" class="edge">
<title>Node10&#45;&gt;Node2</title>
<path fill="none" stroke="orange" stroke-dasharray="5,2" d="M1416.74,-69C1440.89,-70.97 1466.78,-73.17 1490.75,-75.38 1496.53,-75.91 1502.52,-76.48 1508.53,-77.07"/>
<polygon fill="orange" stroke="orange" points="1417.16,-65.53 1406.91,-68.21 1416.6,-72.5 1417.16,-65.53"/>
<text text-anchor="middle" x="1457" y="-77.38" font-family="Helvetica,sans-Serif" font-size="10.00"> &lt; FieldEntity &gt;</text>
</g>
<!-- Node11 -->
<g id="node11" class="node">
<title>Node11</title>
<g id="a_node11"><a xlink:href="struct_mo_f_e_m_1_1interface___field_3_01_t_00_01_t_01_4.html" target="_top" xlink:title=" ">
<polygon fill="white" stroke="#666666" points="1198.5,-71.88 1078.25,-71.88 1078.25,-41.38 1198.5,-41.38 1198.5,-71.88"/>
<text text-anchor="start" x="1086.25" y="-58.38" font-family="Helvetica,sans-Serif" font-size="10.00">MoFEM::interface_Field</text>
<text text-anchor="middle" x="1138.38" y="-47.12" font-family="Helvetica,sans-Serif" font-size="10.00">&lt; T, T &gt;</text>
</a>
</g>
</g>
<!-- Node11&#45;&gt;Node10 -->
<g id="edge10" class="edge">
<title>Node11&#45;&gt;Node10</title>
<path fill="none" stroke="#63b8ff" d="M1210.24,-58.59C1218.45,-58.82 1226.88,-59.06 1235.24,-59.29"/>
<polygon fill="#63b8ff" stroke="#63b8ff" points="1210.42,-55.1 1200.33,-58.32 1210.22,-62.09 1210.42,-55.1"/>
</g>
<!-- Node12 -->
<g id="node12" class="node">
<title>Node12</title>
<g id="a_node12"><a xlink:href="struct_mo_f_e_m_1_1interface___field_impl.html" target="_top" xlink:title=" ">
<polygon fill="white" stroke="#666666" points="1041.25,-67.88 902.25,-67.88 902.25,-37.38 1041.25,-37.38 1041.25,-67.88"/>
<text text-anchor="start" x="910.25" y="-54.38" font-family="Helvetica,sans-Serif" font-size="10.00">MoFEM::interface_FieldImpl</text>
<text text-anchor="middle" x="971.75" y="-43.12" font-family="Helvetica,sans-Serif" font-size="10.00">&lt; T, T &gt;</text>
</a>
</g>
</g>
<!-- Node12&#45;&gt;Node11 -->
<g id="edge11" class="edge">
<title>Node12&#45;&gt;Node11</title>
<path fill="none" stroke="#63b8ff" d="M1053.01,-54.58C1061.41,-54.78 1069.83,-54.98 1077.94,-55.18"/>
<polygon fill="#63b8ff" stroke="#63b8ff" points="1053.21,-51.08 1043.13,-54.33 1053.04,-58.08 1053.21,-51.08"/>
</g>
<!-- Node13&#45;&gt;Node12 -->
<g id="edge12" class="edge">
<title>Node13&#45;&gt;Node12</title>
<path fill="none" stroke="#63b8ff" d="M501.33,-10.77C585.73,-12.55 713.63,-17.08 824.25,-28.62 849.76,-31.29 877.57,-35.51 902.04,-39.67"/>
<polygon fill="#63b8ff" stroke="#63b8ff" points="501.55,-7.27 491.48,-10.57 501.41,-14.27 501.55,-7.27"/>
</g>
<!-- Node14&#45;&gt;Node12 -->
<g id="edge14" class="edge">
<title>Node14&#45;&gt;Node12</title>
<path fill="none" stroke="orange" stroke-dasharray="5,2" d="M836.14,-52.62C857.76,-52.62 880.93,-52.62 901.86,-52.62"/>
<polygon fill="orange" stroke="orange" points="836.18,-49.13 826.18,-52.63 836.18,-56.13 836.18,-49.13"/>
<text text-anchor="middle" x="863.25" y="-54.38" font-family="Helvetica,sans-Serif" font-size="10.00"> &lt; T, T &gt;</text>
</g>
<!-- Node15 -->
<g id="node15" class="node">
<title>Node15</title>
<g id="a_node15"><a xlink:title=" ">
<polygon fill="white" stroke="#666666" points="1596.03,-51.25 1567.22,-51.25 1567.22,-32 1596.03,-32 1596.03,-51.25"/>
<text text-anchor="middle" x="1581.62" y="-37.75" font-family="Helvetica,sans-Serif" font-size="10.00">int</text>
</a>
</g>
</g>
<!-- Node15&#45;&gt;Node1 -->
<g id="edge16" class="edge">
<title>Node15&#45;&gt;Node1</title>
<path fill="none" stroke="#9a32cd" stroke-dasharray="5,2" d="M1607.82,-43.53C1633.68,-45.48 1674.58,-48.56 1706.69,-50.99"/>
<polygon fill="#9a32cd" stroke="#9a32cd" points="1608.17,-40.04 1597.94,-42.78 1607.65,-47.02 1608.17,-40.04"/>
<text text-anchor="middle" x="1680.75" y="-51.38" font-family="Helvetica,sans-Serif" font-size="10.00"> dof</text>
</g>
</g>
</svg>
