<?xml version="1.0" encoding="UTF-8" standalone="no"?>
<!DOCTYPE svg PUBLIC "-//W3C//DTD SVG 1.1//EN"
 "http://www.w3.org/Graphics/SVG/1.1/DTD/svg11.dtd">
<!-- Generated by graphviz version 2.43.0 (0)
 -->
<!-- Title: ThermoElasticProblem Pages: 1 -->
<svg width="1513pt" height="241pt"
 viewBox="0.00 0.00 1513.00 240.50" xmlns="http://www.w3.org/2000/svg" xmlns:xlink="http://www.w3.org/1999/xlink">
<g id="graph0" class="graph" transform="scale(1 1) rotate(0) translate(4 236.5)">
<title>ThermoElasticProblem</title>
<polygon fill="white" stroke="transparent" points="-4,4 -4,-236.5 1509,-236.5 1509,4 -4,4"/>
<!-- Node1 -->
<g id="node1" class="node">
<title>Node1</title>
<g id="a_node1"><a xlink:title=" ">
<polygon fill="#bfbfbf" stroke="black" points="1378,-120 1378,-139 1505,-139 1505,-120 1378,-120"/>
<text text-anchor="middle" x="1441.5" y="-127" font-family="Helvetica,sans-Serif" font-size="10.00">ThermoElasticProblem</text>
</a>
</g>
</g>
<!-- Node2 -->
<g id="node2" class="node">
<title>Node2</title>
<g id="a_node2"><a xlink:title=" ">
<polygon fill="white" stroke="#bfbfbf" points="1094,-213 1094,-232 1251,-232 1251,-213 1094,-213"/>
<text text-anchor="middle" x="1172.5" y="-220" font-family="Helvetica,sans-Serif" font-size="10.00">shared_ptr&lt; MatrixDouble &gt;</text>
</a>
</g>
</g>
<!-- Node2&#45;&gt;Node1 -->
<g id="edge1" class="edge">
<title>Node2&#45;&gt;Node1</title>
<path fill="none" stroke="#9a32cd" stroke-dasharray="5,2" d="M1261.47,-211.27C1293.32,-205.36 1329.05,-196.53 1360,-183.5 1386.99,-172.14 1414.48,-151.27 1429.32,-139.07"/>
<polygon fill="#9a32cd" stroke="#9a32cd" points="1260.51,-207.89 1251.27,-213.09 1261.73,-214.78 1260.51,-207.89"/>
<text text-anchor="middle" x="1320.5" y="-219.5" font-family="Helvetica,sans-Serif" font-size="10.00"> tensorFieldPtr</text>
<text text-anchor="middle" x="1320.5" y="-208.5" font-family="Helvetica,sans-Serif" font-size="10.00">vectorFieldPtr</text>
</g>
<!-- Node3 -->
<g id="node3" class="node">
<title>Node3</title>
<g id="a_node3"><a xlink:title=" ">
<polygon fill="white" stroke="#bfbfbf" points="1140,-175 1140,-194 1205,-194 1205,-175 1140,-175"/>
<text text-anchor="middle" x="1172.5" y="-182" font-family="Helvetica,sans-Serif" font-size="10.00">PetscBool</text>
</a>
</g>
</g>
<!-- Node3&#45;&gt;Node1 -->
<g id="edge2" class="edge">
<title>Node3&#45;&gt;Node1</title>
<path fill="none" stroke="#9a32cd" stroke-dasharray="5,2" d="M1215.3,-179.5C1253.31,-174.55 1310.82,-166.03 1360,-154.5 1377.95,-150.29 1397.73,-144.17 1413.19,-139.04"/>
<polygon fill="#9a32cd" stroke="#9a32cd" points="1214.59,-176.06 1205.11,-180.8 1215.48,-183.01 1214.59,-176.06"/>
<text text-anchor="middle" x="1320.5" y="-171.5" font-family="Helvetica,sans-Serif" font-size="10.00"> doEvalField</text>
</g>
<!-- Node4 -->
<g id="node4" class="node">
<title>Node4</title>
<g id="a_node4"><a xlink:title=" ">
<polygon fill="white" stroke="#bfbfbf" points="1094.5,-137 1094.5,-156 1250.5,-156 1250.5,-137 1094.5,-137"/>
<text text-anchor="middle" x="1172.5" y="-144" font-family="Helvetica,sans-Serif" font-size="10.00">shared_ptr&lt; VectorDouble &gt;</text>
</a>
</g>
</g>
<!-- Node4&#45;&gt;Node1 -->
<g id="edge3" class="edge">
<title>Node4&#45;&gt;Node1</title>
<path fill="none" stroke="#9a32cd" stroke-dasharray="5,2" d="M1260.82,-140.94C1299,-138.51 1342.94,-135.71 1377.81,-133.49"/>
<polygon fill="#9a32cd" stroke="#9a32cd" points="1260.48,-137.45 1250.73,-141.58 1260.93,-144.44 1260.48,-137.45"/>
<text text-anchor="middle" x="1320.5" y="-142.5" font-family="Helvetica,sans-Serif" font-size="10.00"> scalarFieldPtr</text>
</g>
<!-- Node5 -->
<g id="node5" class="node">
<title>Node5</title>
<g id="a_node5"><a xlink:href="structMoFEM_1_1DeprecatedCoreInterface.html" target="_top" xlink:title="Deprecated interface functions.">
<polygon fill="white" stroke="black" points="1082,-99 1082,-118 1263,-118 1263,-99 1082,-99"/>
<text text-anchor="middle" x="1172.5" y="-106" font-family="Helvetica,sans-Serif" font-size="10.00">MoFEM::DeprecatedCoreInterface</text>
</a>
</g>
</g>
<!-- Node5&#45;&gt;Node1 -->
<g id="edge4" class="edge">
<title>Node5&#45;&gt;Node1</title>
<path fill="none" stroke="#9a32cd" stroke-dasharray="5,2" d="M1273.44,-113.2C1301.47,-114.84 1331.95,-116.93 1360,-119.5 1365.75,-120.03 1371.72,-120.64 1377.7,-121.3"/>
<polygon fill="#9a32cd" stroke="#9a32cd" points="1273.42,-109.69 1263.23,-112.61 1273.02,-116.68 1273.42,-109.69"/>
<text text-anchor="middle" x="1320.5" y="-122.5" font-family="Helvetica,sans-Serif" font-size="10.00"> mField</text>
</g>
<!-- Node6 -->
<g id="node6" class="node">
<title>Node6</title>
<g id="a_node6"><a xlink:href="structMoFEM_1_1CoreInterface.html" target="_top" xlink:title="Interface.">
<polygon fill="white" stroke="black" points="920,-99 920,-118 1045,-118 1045,-99 920,-99"/>
<text text-anchor="middle" x="982.5" y="-106" font-family="Helvetica,sans-Serif" font-size="10.00">MoFEM::CoreInterface</text>
</a>
</g>
</g>
<!-- Node6&#45;&gt;Node5 -->
<g id="edge5" class="edge">
<title>Node6&#45;&gt;Node5</title>
<path fill="none" stroke="midnightblue" d="M1055.16,-108.5C1063.89,-108.5 1072.89,-108.5 1081.84,-108.5"/>
<polygon fill="midnightblue" stroke="midnightblue" points="1055.06,-105 1045.06,-108.5 1055.06,-112 1055.06,-105"/>
</g>
<!-- Node7 -->
<g id="node7" class="node">
<title>Node7</title>
<g id="a_node7"><a xlink:href="structMoFEM_1_1UnknownInterface.html" target="_top" xlink:title="base class for all interface classes">
<polygon fill="white" stroke="black" points="735,-99 735,-118 883,-118 883,-99 735,-99"/>
<text text-anchor="middle" x="809" y="-106" font-family="Helvetica,sans-Serif" font-size="10.00">MoFEM::UnknownInterface</text>
</a>
</g>
</g>
<!-- Node7&#45;&gt;Node6 -->
<g id="edge6" class="edge">
<title>Node7&#45;&gt;Node6</title>
<path fill="none" stroke="midnightblue" d="M893.29,-108.5C902.24,-108.5 911.22,-108.5 919.85,-108.5"/>
<polygon fill="midnightblue" stroke="midnightblue" points="893.23,-105 883.23,-108.5 893.23,-112 893.23,-105"/>
</g>
<!-- Node8 -->
<g id="node8" class="node">
<title>Node8</title>
<g id="a_node8"><a xlink:title=" ">
<polygon fill="white" stroke="#bfbfbf" points="386,-77 386,-140 627,-140 627,-77 386,-77"/>
<text text-anchor="start" x="394" y="-128" font-family="Helvetica,sans-Serif" font-size="10.00">multi_index_container</text>
<text text-anchor="start" x="394" y="-117" font-family="Helvetica,sans-Serif" font-size="10.00">&lt; UIdTypeMap, indexed</text>
<text text-anchor="start" x="394" y="-106" font-family="Helvetica,sans-Serif" font-size="10.00">_by&lt; hashed_unique&lt; member</text>
<text text-anchor="start" x="394" y="-95" font-family="Helvetica,sans-Serif" font-size="10.00">&lt; UIdTypeMap, boost::typeindex</text>
<text text-anchor="middle" x="506.5" y="-84" font-family="Helvetica,sans-Serif" font-size="10.00">::type_index, &amp;UIdTypeMap::classIdx &gt; &gt; &gt; &gt;</text>
</a>
</g>
</g>
<!-- Node8&#45;&gt;Node7 -->
<g id="edge7" class="edge">
<title>Node8&#45;&gt;Node7</title>
<path fill="none" stroke="#9a32cd" stroke-dasharray="5,2" d="M637.41,-108.5C670.69,-108.5 705.33,-108.5 734.62,-108.5"/>
<polygon fill="#9a32cd" stroke="#9a32cd" points="637.13,-105 627.13,-108.5 637.13,-112 637.13,-105"/>
<text text-anchor="middle" x="681" y="-111.5" font-family="Helvetica,sans-Serif" font-size="10.00"> iFaceTypeMap</text>
</g>
<!-- Node9 -->
<g id="node9" class="node">
<title>Node9</title>
<g id="a_node9"><a xlink:title=" ">
<polygon fill="white" stroke="#bfbfbf" points="0,-99 0,-118 125,-118 125,-99 0,-99"/>
<text text-anchor="middle" x="62.5" y="-106" font-family="Helvetica,sans-Serif" font-size="10.00">multi_index_container</text>
</a>
</g>
</g>
<!-- Node9&#45;&gt;Node8 -->
<g id="edge8" class="edge">
<title>Node9&#45;&gt;Node8</title>
<path fill="none" stroke="orange" stroke-dasharray="5,2" d="M135.56,-108.5C203.25,-108.5 305.79,-108.5 385.77,-108.5"/>
<polygon fill="orange" stroke="orange" points="135.42,-105 125.42,-108.5 135.42,-112 135.42,-105"/>
<text text-anchor="start" x="143" y="-144.5" font-family="Helvetica,sans-Serif" font-size="10.00"> &lt; UIdTypeMap, indexed</text>
<text text-anchor="start" x="143" y="-133.5" font-family="Helvetica,sans-Serif" font-size="10.00">_by&lt; hashed_unique&lt; member</text>
<text text-anchor="start" x="143" y="-122.5" font-family="Helvetica,sans-Serif" font-size="10.00">&lt; UIdTypeMap, boost::typeindex</text>
<text text-anchor="middle" x="255.5" y="-111.5" font-family="Helvetica,sans-Serif" font-size="10.00">::type_index, &amp;UIdTypeMap::classIdx &gt; &gt; &gt; &gt;</text>
</g>
<!-- Node10 -->
<g id="node10" class="node">
<title>Node10</title>
<g id="a_node10"><a xlink:title=" ">
<polygon fill="white" stroke="#bfbfbf" points="1111,-49.5 1111,-79.5 1234,-79.5 1234,-49.5 1111,-49.5"/>
<text text-anchor="start" x="1119" y="-67.5" font-family="Helvetica,sans-Serif" font-size="10.00">array&lt; double, SPACE</text>
<text text-anchor="middle" x="1172.5" y="-56.5" font-family="Helvetica,sans-Serif" font-size="10.00">_DIM &gt;</text>
</a>
</g>
</g>
<!-- Node10&#45;&gt;Node1 -->
<g id="edge9" class="edge">
<title>Node10&#45;&gt;Node1</title>
<path fill="none" stroke="#9a32cd" stroke-dasharray="5,2" d="M1244.37,-74.22C1279.51,-79.84 1322.37,-87.92 1360,-98.5 1380.47,-104.25 1403,-113.16 1419.01,-119.96"/>
<polygon fill="#9a32cd" stroke="#9a32cd" points="1244.63,-70.72 1234.21,-72.62 1243.54,-77.63 1244.63,-70.72"/>
<text text-anchor="middle" x="1320.5" y="-101.5" font-family="Helvetica,sans-Serif" font-size="10.00"> fieldEvalCoords</text>
</g>
<!-- Node11 -->
<g id="node11" class="node">
<title>Node11</title>
<g id="a_node11"><a xlink:title=" ">
<polygon fill="white" stroke="#bfbfbf" points="1098,-0.5 1098,-30.5 1247,-30.5 1247,-0.5 1098,-0.5"/>
<text text-anchor="start" x="1106" y="-18.5" font-family="Helvetica,sans-Serif" font-size="10.00">shared_ptr&lt; FieldEvaluator</text>
<text text-anchor="middle" x="1172.5" y="-7.5" font-family="Helvetica,sans-Serif" font-size="10.00">Interface::SetPtsData &gt;</text>
</a>
</g>
</g>
<!-- Node11&#45;&gt;Node1 -->
<g id="edge10" class="edge">
<title>Node11&#45;&gt;Node1</title>
<path fill="none" stroke="#9a32cd" stroke-dasharray="5,2" d="M1257.42,-30.3C1290.5,-38.08 1328.12,-49.44 1360,-65.5 1388.7,-79.96 1416.84,-105.73 1431.02,-119.75"/>
<polygon fill="#9a32cd" stroke="#9a32cd" points="1257.84,-26.81 1247.31,-28 1256.29,-33.64 1257.84,-26.81"/>
<text text-anchor="middle" x="1320.5" y="-68.5" font-family="Helvetica,sans-Serif" font-size="10.00"> fieldEvalData</text>
</g>
</g>
</svg>
