<?xml version="1.0" encoding="UTF-8" standalone="no"?>
<!DOCTYPE svg PUBLIC "-//W3C//DTD SVG 1.1//EN"
 "http://www.w3.org/Graphics/SVG/1.1/DTD/svg11.dtd">
<!-- Generated by graphviz version 2.43.0 (0)
 -->
<!-- Title: Example::CommonData Pages: 1 -->
<svg width="804pt" height="176pt"
 viewBox="0.00 0.00 804.00 176.00" xmlns="http://www.w3.org/2000/svg" xmlns:xlink="http://www.w3.org/1999/xlink">
<g id="graph0" class="graph" transform="scale(1 1) rotate(0) translate(4 172)">
<title>Example::CommonData</title>
<polygon fill="white" stroke="transparent" points="-4,4 -4,-172 800,-172 800,4 -4,4"/>
<!-- Node1 -->
<g id="node1" class="node">
<title>Node1</title>
<g id="a_node1"><a xlink:title="[Example]">
<polygon fill="#bfbfbf" stroke="black" points="663,-60.5 663,-79.5 796,-79.5 796,-60.5 663,-60.5"/>
<text text-anchor="middle" x="729.5" y="-67.5" font-family="Helvetica,sans-Serif" font-size="10.00">Example::CommonData</text>
</a>
</g>
</g>
<!-- Node2 -->
<g id="node2" class="node">
<title>Node2</title>
<g id="a_node2"><a xlink:title=" ">
<polygon fill="white" stroke="#bfbfbf" points="387,-126.5 387,-167.5 515,-167.5 515,-126.5 387,-126.5"/>
<text text-anchor="start" x="395" y="-155.5" font-family="Helvetica,sans-Serif" font-size="10.00">boost::enable_shared</text>
<text text-anchor="start" x="395" y="-144.5" font-family="Helvetica,sans-Serif" font-size="10.00">_from_this&lt; Example::</text>
<text text-anchor="middle" x="451" y="-133.5" font-family="Helvetica,sans-Serif" font-size="10.00">CommonData &gt;</text>
</a>
</g>
</g>
<!-- Node2&#45;&gt;Node1 -->
<g id="edge1" class="edge">
<title>Node2&#45;&gt;Node1</title>
<path fill="none" stroke="midnightblue" d="M525.4,-144.25C562.16,-141.11 606.85,-134.54 645,-121 672.69,-111.17 701.09,-91.33 716.59,-79.51"/>
<polygon fill="midnightblue" stroke="midnightblue" points="524.95,-140.78 515.25,-145.05 525.5,-147.76 524.95,-140.78"/>
</g>
<!-- Node3 -->
<g id="node3" class="node">
<title>Node3</title>
<g id="a_node3"><a xlink:href="structMoFEM_1_1SmartPetscObj.html" target="_top" xlink:title=" ">
<polygon fill="white" stroke="black" points="385.5,-77 385.5,-107 516.5,-107 516.5,-77 385.5,-77"/>
<text text-anchor="start" x="393.5" y="-95" font-family="Helvetica,sans-Serif" font-size="10.00">MoFEM::SmartPetscObj</text>
<text text-anchor="middle" x="451" y="-84" font-family="Helvetica,sans-Serif" font-size="10.00">&lt; Vec &gt;</text>
</a>
</g>
</g>
<!-- Node3&#45;&gt;Node1 -->
<g id="edge2" class="edge">
<title>Node3&#45;&gt;Node1</title>
<path fill="none" stroke="#9a32cd" stroke-dasharray="5,2" d="M526.82,-86.05C569.23,-82.67 621.8,-78.49 662.64,-75.24"/>
<polygon fill="#9a32cd" stroke="#9a32cd" points="526.52,-82.56 516.83,-86.84 527.07,-89.54 526.52,-82.56"/>
<text text-anchor="middle" x="596" y="-109" font-family="Helvetica,sans-Serif" font-size="10.00"> petscVec</text>
<text text-anchor="middle" x="596" y="-98" font-family="Helvetica,sans-Serif" font-size="10.00">resVec</text>
<text text-anchor="middle" x="596" y="-87" font-family="Helvetica,sans-Serif" font-size="10.00">L2Vec</text>
</g>
<!-- Node4 -->
<g id="node4" class="node">
<title>Node4</title>
<g id="a_node4"><a xlink:title=" ">
<polygon fill="white" stroke="#bfbfbf" points="165.5,-91.5 165.5,-132.5 291.5,-132.5 291.5,-91.5 165.5,-91.5"/>
<text text-anchor="start" x="173.5" y="-120.5" font-family="Helvetica,sans-Serif" font-size="10.00">boost::intrusive_ptr</text>
<text text-anchor="start" x="173.5" y="-109.5" font-family="Helvetica,sans-Serif" font-size="10.00">&lt; std::remove_pointer</text>
<text text-anchor="middle" x="228.5" y="-98.5" font-family="Helvetica,sans-Serif" font-size="10.00">&lt; Vec &gt;::type &gt;</text>
</a>
</g>
</g>
<!-- Node4&#45;&gt;Node3 -->
<g id="edge3" class="edge">
<title>Node4&#45;&gt;Node3</title>
<path fill="none" stroke="midnightblue" d="M301.67,-105.45C328.66,-103.01 359.12,-100.24 385.39,-97.86"/>
<polygon fill="midnightblue" stroke="midnightblue" points="301.15,-101.99 291.51,-106.38 301.78,-108.96 301.15,-101.99"/>
</g>
<!-- Node5 -->
<g id="node5" class="node">
<title>Node5</title>
<g id="a_node5"><a xlink:href="structMoFEM_1_1SmartPetscObj.html" target="_top" xlink:title="intrusive_ptr for managing petsc objects">
<polygon fill="white" stroke="black" points="163,-42 163,-72 294,-72 294,-42 163,-42"/>
<text text-anchor="start" x="171" y="-60" font-family="Helvetica,sans-Serif" font-size="10.00">MoFEM::SmartPetscObj</text>
<text text-anchor="middle" x="228.5" y="-49" font-family="Helvetica,sans-Serif" font-size="10.00">&lt; OBJ &gt;</text>
</a>
</g>
</g>
<!-- Node5&#45;&gt;Node3 -->
<g id="edge4" class="edge">
<title>Node5&#45;&gt;Node3</title>
<path fill="none" stroke="orange" stroke-dasharray="5,2" d="M304.11,-68.84C330.46,-73.03 359.87,-77.69 385.33,-81.74"/>
<polygon fill="orange" stroke="orange" points="304.59,-65.38 294.17,-67.26 303.5,-72.29 304.59,-65.38"/>
<text text-anchor="middle" x="333.5" y="-79" font-family="Helvetica,sans-Serif" font-size="10.00"> &lt; Vec &gt;</text>
</g>
<!-- Node6 -->
<g id="node6" class="node">
<title>Node6</title>
<g id="a_node6"><a xlink:title=" ">
<polygon fill="white" stroke="#bfbfbf" points="0,-36.5 0,-77.5 126,-77.5 126,-36.5 0,-36.5"/>
<text text-anchor="start" x="8" y="-65.5" font-family="Helvetica,sans-Serif" font-size="10.00">boost::intrusive_ptr</text>
<text text-anchor="start" x="8" y="-54.5" font-family="Helvetica,sans-Serif" font-size="10.00">&lt; std::remove_pointer</text>
<text text-anchor="middle" x="63" y="-43.5" font-family="Helvetica,sans-Serif" font-size="10.00">&lt; OBJ &gt;::type &gt;</text>
</a>
</g>
</g>
<!-- Node6&#45;&gt;Node5 -->
<g id="edge5" class="edge">
<title>Node6&#45;&gt;Node5</title>
<path fill="none" stroke="midnightblue" d="M136.52,-57C145.33,-57 154.27,-57 162.95,-57"/>
<polygon fill="midnightblue" stroke="midnightblue" points="136.28,-53.5 126.28,-57 136.28,-60.5 136.28,-53.5"/>
</g>
<!-- Node7 -->
<g id="node7" class="node">
<title>Node7</title>
<g id="a_node7"><a xlink:title=" ">
<polygon fill="white" stroke="#bfbfbf" points="373,-38.5 373,-57.5 529,-57.5 529,-38.5 373,-38.5"/>
<text text-anchor="middle" x="451" y="-45.5" font-family="Helvetica,sans-Serif" font-size="10.00">shared_ptr&lt; VectorDouble &gt;</text>
</a>
</g>
</g>
<!-- Node7&#45;&gt;Node1 -->
<g id="edge6" class="edge">
<title>Node7&#45;&gt;Node1</title>
<path fill="none" stroke="#9a32cd" stroke-dasharray="5,2" d="M539.16,-53.89C572.31,-56.25 610.41,-59.09 645,-62 650.8,-62.49 656.83,-63.02 662.88,-63.57"/>
<polygon fill="#9a32cd" stroke="#9a32cd" points="539.26,-50.39 529.04,-53.18 538.77,-57.37 539.26,-50.39"/>
<text text-anchor="middle" x="596" y="-65" font-family="Helvetica,sans-Serif" font-size="10.00"> approxVals</text>
</g>
<!-- Node8 -->
<g id="node8" class="node">
<title>Node8</title>
<g id="a_node8"><a xlink:title=" ">
<polygon fill="white" stroke="#bfbfbf" points="410,-0.5 410,-19.5 492,-19.5 492,-0.5 410,-0.5"/>
<text text-anchor="middle" x="451" y="-7.5" font-family="Helvetica,sans-Serif" font-size="10.00">VectorDouble</text>
</a>
</g>
</g>
<!-- Node8&#45;&gt;Node1 -->
<g id="edge7" class="edge">
<title>Node8&#45;&gt;Node1</title>
<path fill="none" stroke="#9a32cd" stroke-dasharray="5,2" d="M502.15,-14.67C541.44,-19.01 597.26,-26.69 645,-39 666.41,-44.52 689.96,-53.55 706.57,-60.44"/>
<polygon fill="#9a32cd" stroke="#9a32cd" points="502.35,-11.17 492.03,-13.58 501.6,-18.13 502.35,-11.17"/>
<text text-anchor="middle" x="596" y="-42" font-family="Helvetica,sans-Serif" font-size="10.00"> rhoAtIntegrationPts</text>
</g>
</g>
</svg>
