<?xml version="1.0" encoding="UTF-8" standalone="no"?>
<!DOCTYPE svg PUBLIC "-//W3C//DTD SVG 1.1//EN"
 "http://www.w3.org/Graphics/SVG/1.1/DTD/svg11.dtd">
<!-- Generated by graphviz version 9.0.0 (20230911.1827)
 -->
<!-- Title: EshelbianPlasticity::ContactTree Pages: 1 -->
<svg width="478pt" height="544pt"
 viewBox="0.00 0.00 478.00 543.75" xmlns="http://www.w3.org/2000/svg" xmlns:xlink="http://www.w3.org/1999/xlink">
<g id="graph0" class="graph" transform="scale(1 1) rotate(0) translate(4 539.75)">
<title>EshelbianPlasticity::ContactTree</title>
<!-- Node1 -->
<g id="node1" class="node">
<title>Node1</title>
<g id="a_node1"><a xlink:title=" ">
<polygon fill="#999999" stroke="#666666" points="311.62,-30.5 212.38,-30.5 212.38,0 311.62,0 311.62,-30.5"/>
<text text-anchor="start" x="220.38" y="-17" font-family="Helvetica,sans-Serif" font-size="10.00">EshelbianPlasticity</text>
<text text-anchor="middle" x="262" y="-5.75" font-family="Helvetica,sans-Serif" font-size="10.00">::ContactTree</text>
</a>
</g>
</g>
<!-- Node2 -->
<g id="node2" class="node">
<title>Node2</title>
<g id="a_node2"><a xlink:href="struct_mo_f_e_m_1_1_post_proc_broken_mesh_in_moab_base.html" target="_top" xlink:title=" ">
<polygon fill="white" stroke="#666666" points="354.38,-109.25 169.62,-109.25 169.62,-67.5 354.38,-67.5 354.38,-109.25"/>
<text text-anchor="start" x="177.62" y="-95.75" font-family="Helvetica,sans-Serif" font-size="10.00">MoFEM::PostProcBrokenMesh</text>
<text text-anchor="start" x="177.62" y="-84.5" font-family="Helvetica,sans-Serif" font-size="10.00">InMoabBase&lt; FaceElementForcesAnd</text>
<text text-anchor="middle" x="262" y="-73.25" font-family="Helvetica,sans-Serif" font-size="10.00">SourcesCore &gt;</text>
</a>
</g>
</g>
<!-- Node2&#45;&gt;Node1 -->
<g id="edge1" class="edge">
<title>Node2&#45;&gt;Node1</title>
<path fill="none" stroke="#63b8ff" d="M262,-55.95C262,-47.11 262,-37.92 262,-30.62"/>
<polygon fill="#63b8ff" stroke="#63b8ff" points="258.5,-55.67 262,-65.67 265.5,-55.67 258.5,-55.67"/>
</g>
<!-- Node3 -->
<g id="node3" class="node">
<title>Node3</title>
<g id="a_node3"><a xlink:href="struct_mo_f_e_m_1_1_face_element_forces_and_sources_core.html" target="_top" xlink:title="Face finite element.">
<polygon fill="white" stroke="#666666" points="252.12,-198.25 107.88,-198.25 107.88,-167.75 252.12,-167.75 252.12,-198.25"/>
<text text-anchor="start" x="115.88" y="-184.75" font-family="Helvetica,sans-Serif" font-size="10.00">MoFEM::FaceElementForces</text>
<text text-anchor="middle" x="180" y="-173.5" font-family="Helvetica,sans-Serif" font-size="10.00">AndSourcesCore</text>
</a>
</g>
</g>
<!-- Node3&#45;&gt;Node2 -->
<g id="edge2" class="edge">
<title>Node3&#45;&gt;Node2</title>
<path fill="none" stroke="#63b8ff" d="M200.2,-159.19C213.65,-143.99 231.16,-124.21 244.11,-109.59"/>
<polygon fill="#63b8ff" stroke="#63b8ff" points="197.82,-156.59 193.82,-166.39 203.06,-161.23 197.82,-156.59"/>
</g>
<!-- Node4 -->
<g id="node4" class="node">
<title>Node4</title>
<g id="a_node4"><a xlink:href="struct_mo_f_e_m_1_1_forces_and_sources_core.html" target="_top" xlink:title="structure to get information form mofem into EntitiesFieldData">
<polygon fill="white" stroke="#666666" points="260.38,-254.5 99.62,-254.5 99.62,-235.25 260.38,-235.25 260.38,-254.5"/>
<text text-anchor="middle" x="180" y="-241" font-family="Helvetica,sans-Serif" font-size="10.00">MoFEM::ForcesAndSourcesCore</text>
</a>
</g>
</g>
<!-- Node4&#45;&gt;Node3 -->
<g id="edge3" class="edge">
<title>Node4&#45;&gt;Node3</title>
<path fill="none" stroke="#63b8ff" d="M180,-223.44C180,-215.18 180,-205.84 180,-198.32"/>
<polygon fill="#63b8ff" stroke="#63b8ff" points="176.5,-223.27 180,-233.27 183.5,-223.27 176.5,-223.27"/>
</g>
<!-- Node5 -->
<g id="node5" class="node">
<title>Node5</title>
<g id="a_node5"><a xlink:href="struct_mo_f_e_m_1_1_f_e_method.html" target="_top" xlink:title="structure for User Loop Methods on finite elements">
<polygon fill="white" stroke="#666666" points="230.75,-310.75 129.25,-310.75 129.25,-291.5 230.75,-291.5 230.75,-310.75"/>
<text text-anchor="middle" x="180" y="-297.25" font-family="Helvetica,sans-Serif" font-size="10.00">MoFEM::FEMethod</text>
</a>
</g>
</g>
<!-- Node5&#45;&gt;Node4 -->
<g id="edge4" class="edge">
<title>Node5&#45;&gt;Node4</title>
<path fill="none" stroke="#63b8ff" d="M180,-279.94C180,-271.23 180,-261.49 180,-254.67"/>
<polygon fill="#63b8ff" stroke="#63b8ff" points="176.5,-279.65 180,-289.65 183.5,-279.65 176.5,-279.65"/>
</g>
<!-- Node6 -->
<g id="node6" class="node">
<title>Node6</title>
<g id="a_node6"><a xlink:href="struct_mo_f_e_m_1_1_basic_method.html" target="_top" xlink:title="Data structure to exchange data between mofem and User Loop Methods.">
<polygon fill="white" stroke="#666666" points="236.75,-367 123.25,-367 123.25,-347.75 236.75,-347.75 236.75,-367"/>
<text text-anchor="middle" x="180" y="-353.5" font-family="Helvetica,sans-Serif" font-size="10.00">MoFEM::BasicMethod</text>
</a>
</g>
</g>
<!-- Node6&#45;&gt;Node5 -->
<g id="edge5" class="edge">
<title>Node6&#45;&gt;Node5</title>
<path fill="none" stroke="#63b8ff" d="M180,-336.19C180,-327.48 180,-317.74 180,-310.92"/>
<polygon fill="#63b8ff" stroke="#63b8ff" points="176.5,-335.9 180,-345.9 183.5,-335.9 176.5,-335.9"/>
</g>
<!-- Node7 -->
<g id="node7" class="node">
<title>Node7</title>
<g id="a_node7"><a xlink:href="struct_mo_f_e_m_1_1_ksp_method.html" target="_top" xlink:title="data structure for ksp (linear solver) context">
<polygon fill="white" stroke="#666666" points="106,-423.25 0,-423.25 0,-404 106,-404 106,-423.25"/>
<text text-anchor="middle" x="53" y="-409.75" font-family="Helvetica,sans-Serif" font-size="10.00">MoFEM::KspMethod</text>
</a>
</g>
</g>
<!-- Node7&#45;&gt;Node6 -->
<g id="edge6" class="edge">
<title>Node7&#45;&gt;Node6</title>
<path fill="none" stroke="#63b8ff" d="M84.59,-399.13C107.69,-389.26 138.41,-376.14 158.67,-367.48"/>
<polygon fill="#63b8ff" stroke="#63b8ff" points="83.47,-395.8 75.65,-402.95 86.22,-402.24 83.47,-395.8"/>
</g>
<!-- Node8 -->
<g id="node8" class="node">
<title>Node8</title>
<g id="a_node8"><a xlink:href="struct_mo_f_e_m_1_1_petsc_data.html" target="_top" xlink:title=" ">
<polygon fill="white" stroke="#666666" points="231.5,-479.5 128.5,-479.5 128.5,-460.25 231.5,-460.25 231.5,-479.5"/>
<text text-anchor="middle" x="180" y="-466" font-family="Helvetica,sans-Serif" font-size="10.00">MoFEM::PetscData</text>
</a>
</g>
</g>
<!-- Node8&#45;&gt;Node7 -->
<g id="edge7" class="edge">
<title>Node8&#45;&gt;Node7</title>
<path fill="none" stroke="#63b8ff" d="M148.41,-455.38C125.31,-445.51 94.59,-432.39 74.33,-423.73"/>
<polygon fill="#63b8ff" stroke="#63b8ff" points="146.78,-458.49 157.35,-459.2 149.53,-452.05 146.78,-458.49"/>
</g>
<!-- Node10 -->
<g id="node10" class="node">
<title>Node10</title>
<g id="a_node10"><a xlink:href="struct_mo_f_e_m_1_1_snes_method.html" target="_top" xlink:title="data structure for snes (nonlinear solver) context">
<polygon fill="white" stroke="#666666" points="235.62,-423.25 124.38,-423.25 124.38,-404 235.62,-404 235.62,-423.25"/>
<text text-anchor="middle" x="180" y="-409.75" font-family="Helvetica,sans-Serif" font-size="10.00">MoFEM::SnesMethod</text>
</a>
</g>
</g>
<!-- Node8&#45;&gt;Node10 -->
<g id="edge10" class="edge">
<title>Node8&#45;&gt;Node10</title>
<path fill="none" stroke="darkgreen" d="M180,-448.69C180,-439.98 180,-430.24 180,-423.42"/>
<polygon fill="darkgreen" stroke="darkgreen" points="176.5,-448.4 180,-458.4 183.5,-448.4 176.5,-448.4"/>
</g>
<!-- Node11 -->
<g id="node11" class="node">
<title>Node11</title>
<g id="a_node11"><a xlink:href="struct_mo_f_e_m_1_1_t_s_method.html" target="_top" xlink:title="data structure for TS (time stepping) context">
<polygon fill="white" stroke="#666666" points="354.75,-423.25 253.25,-423.25 253.25,-404 354.75,-404 354.75,-423.25"/>
<text text-anchor="middle" x="304" y="-409.75" font-family="Helvetica,sans-Serif" font-size="10.00">MoFEM::TSMethod</text>
</a>
</g>
</g>
<!-- Node8&#45;&gt;Node11 -->
<g id="edge12" class="edge">
<title>Node8&#45;&gt;Node11</title>
<path fill="none" stroke="darkgreen" d="M211.15,-455.25C233.67,-445.39 263.48,-432.35 283.18,-423.73"/>
<polygon fill="darkgreen" stroke="darkgreen" points="209.9,-451.97 202.14,-459.19 212.71,-458.39 209.9,-451.97"/>
</g>
<!-- Node9 -->
<g id="node9" class="node">
<title>Node9</title>
<g id="a_node9"><a xlink:href="struct_mo_f_e_m_1_1_unknown_interface.html" target="_top" xlink:title="base class for all interface classes">
<polygon fill="white" stroke="#666666" points="248,-535.75 112,-535.75 112,-516.5 248,-516.5 248,-535.75"/>
<text text-anchor="middle" x="180" y="-522.25" font-family="Helvetica,sans-Serif" font-size="10.00">MoFEM::UnknownInterface</text>
</a>
</g>
</g>
<!-- Node9&#45;&gt;Node8 -->
<g id="edge8" class="edge">
<title>Node9&#45;&gt;Node8</title>
<path fill="none" stroke="#63b8ff" d="M180,-504.94C180,-496.23 180,-486.49 180,-479.67"/>
<polygon fill="#63b8ff" stroke="#63b8ff" points="176.5,-504.65 180,-514.65 183.5,-504.65 176.5,-504.65"/>
</g>
<!-- Node10&#45;&gt;Node6 -->
<g id="edge9" class="edge">
<title>Node10&#45;&gt;Node6</title>
<path fill="none" stroke="#63b8ff" d="M180,-392.44C180,-383.73 180,-373.99 180,-367.17"/>
<polygon fill="#63b8ff" stroke="#63b8ff" points="176.5,-392.15 180,-402.15 183.5,-392.15 176.5,-392.15"/>
</g>
<!-- Node11&#45;&gt;Node6 -->
<g id="edge11" class="edge">
<title>Node11&#45;&gt;Node6</title>
<path fill="none" stroke="#63b8ff" d="M272.85,-399C250.33,-389.14 220.52,-376.1 200.82,-367.48"/>
<polygon fill="#63b8ff" stroke="#63b8ff" points="271.29,-402.14 281.86,-402.94 274.1,-395.72 271.29,-402.14"/>
</g>
<!-- Node12 -->
<g id="node12" class="node">
<title>Node12</title>
<g id="a_node12"><a xlink:href="struct_mo_f_e_m_1_1_post_proc_broken_mesh_in_moab_base.html" target="_top" xlink:title=" ">
<polygon fill="white" stroke="#666666" points="421.88,-198.25 270.12,-198.25 270.12,-167.75 421.88,-167.75 421.88,-198.25"/>
<text text-anchor="start" x="278.12" y="-184.75" font-family="Helvetica,sans-Serif" font-size="10.00">MoFEM::PostProcBrokenMesh</text>
<text text-anchor="middle" x="346" y="-173.5" font-family="Helvetica,sans-Serif" font-size="10.00">InMoabBase&lt; E &gt;</text>
</a>
</g>
</g>
<!-- Node12&#45;&gt;Node2 -->
<g id="edge13" class="edge">
<title>Node12&#45;&gt;Node2</title>
<path fill="none" stroke="orange" stroke-dasharray="5,2" d="M325.31,-159.19C311.53,-143.99 293.59,-124.21 280.33,-109.59"/>
<polygon fill="orange" stroke="orange" points="322.55,-161.35 331.86,-166.41 327.73,-156.65 322.55,-161.35"/>
<text text-anchor="start" x="317" y="-140.25" font-family="Helvetica,sans-Serif" font-size="10.00"> &lt; FaceElementForcesAndSources</text>
<text text-anchor="middle" x="393.5" y="-129" font-family="Helvetica,sans-Serif" font-size="10.00">Core &gt;</text>
</g>
<!-- Node13 -->
<g id="node13" class="node">
<title>Node13</title>
<g id="a_node13"><a xlink:href="class_e.html" target="_top" xlink:title=" ">
<polygon fill="white" stroke="#666666" points="360.4,-254.5 331.6,-254.5 331.6,-235.25 360.4,-235.25 360.4,-254.5"/>
<text text-anchor="middle" x="346" y="-241" font-family="Helvetica,sans-Serif" font-size="10.00">E</text>
</a>
</g>
</g>
<!-- Node13&#45;&gt;Node12 -->
<g id="edge14" class="edge">
<title>Node13&#45;&gt;Node12</title>
<path fill="none" stroke="#63b8ff" d="M346,-223.44C346,-215.18 346,-205.84 346,-198.32"/>
<polygon fill="#63b8ff" stroke="#63b8ff" points="342.5,-223.27 346,-233.27 349.5,-223.27 342.5,-223.27"/>
</g>
</g>
</svg>
