<?xml version="1.0" encoding="UTF-8" standalone="no"?>
<!DOCTYPE svg PUBLIC "-//W3C//DTD SVG 1.1//EN"
 "http://www.w3.org/Graphics/SVG/1.1/DTD/svg11.dtd">
<!-- Generated by graphviz version 2.43.0 (0)
 -->
<!-- Title: MoFEM::OpEssentialLhsImpl&lt; DisplacementCubitBcData, BASE_DIM, FIELD_DIM, A, I, OpBase &gt; Pages: 1 -->
<svg width="584pt" height="61pt"
 viewBox="0.00 0.00 584.00 61.00" xmlns="http://www.w3.org/2000/svg" xmlns:xlink="http://www.w3.org/1999/xlink">
<g id="graph0" class="graph" transform="scale(1 1) rotate(0) translate(4 57)">
<title>MoFEM::OpEssentialLhsImpl&lt; DisplacementCubitBcData, BASE_DIM, FIELD_DIM, A, I, OpBase &gt;</title>
<polygon fill="white" stroke="transparent" points="-4,4 -4,-57 580,-57 580,4 -4,4"/>
<!-- Node1 -->
<g id="node1" class="node">
<title>Node1</title>
<g id="a_node1"><a xlink:title=" ">
<polygon fill="#bfbfbf" stroke="black" points="226,-0.5 226,-52.5 385,-52.5 385,-0.5 226,-0.5"/>
<text text-anchor="start" x="234" y="-40.5" font-family="Helvetica,sans-Serif" font-size="10.00">MoFEM::OpEssentialLhsImpl</text>
<text text-anchor="start" x="234" y="-29.5" font-family="Helvetica,sans-Serif" font-size="10.00">&lt; DisplacementCubitBcData,</text>
<text text-anchor="start" x="234" y="-18.5" font-family="Helvetica,sans-Serif" font-size="10.00"> BASE_DIM, FIELD_DIM, A,</text>
<text text-anchor="middle" x="305.5" y="-7.5" font-family="Helvetica,sans-Serif" font-size="10.00"> I, OpBase &gt;</text>
</a>
</g>
</g>
<!-- Node3 -->
<g id="node3" class="node">
<title>Node3</title>
<g id="a_node3"><a xlink:href="structMoFEM_1_1OpEssentialLhsImpl_3_01HeatFluxCubitBcData_00_01BASE__DIM_00_01FIELD__DIM_00_01A_00_01I_00_01OpBase_01_4.html" target="_top" xlink:title=" ">
<polygon fill="white" stroke="black" points="421,-0.5 421,-52.5 576,-52.5 576,-0.5 421,-0.5"/>
<text text-anchor="start" x="429" y="-40.5" font-family="Helvetica,sans-Serif" font-size="10.00">MoFEM::OpEssentialLhsImpl</text>
<text text-anchor="start" x="429" y="-29.5" font-family="Helvetica,sans-Serif" font-size="10.00">&lt; HeatFluxCubitBcData,</text>
<text text-anchor="start" x="429" y="-18.5" font-family="Helvetica,sans-Serif" font-size="10.00"> BASE_DIM, FIELD_DIM, A,</text>
<text text-anchor="middle" x="498.5" y="-7.5" font-family="Helvetica,sans-Serif" font-size="10.00"> I, OpBase &gt;</text>
</a>
</g>
</g>
<!-- Node1&#45;&gt;Node3 -->
<g id="edge2" class="edge">
<title>Node1&#45;&gt;Node3</title>
<path fill="none" stroke="midnightblue" d="M395.07,-26.5C403.67,-26.5 412.36,-26.5 420.83,-26.5"/>
<polygon fill="midnightblue" stroke="midnightblue" points="395.01,-23 385.01,-26.5 395.01,-30 395.01,-23"/>
</g>
<!-- Node2 -->
<g id="node2" class="node">
<title>Node2</title>
<g id="a_node2"><a xlink:title=" ">
<polygon fill="white" stroke="#bfbfbf" points="0,-0.5 0,-52.5 190,-52.5 190,-0.5 0,-0.5"/>
<text text-anchor="start" x="8" y="-40.5" font-family="Helvetica,sans-Serif" font-size="10.00">FormsIntegrators::template</text>
<text text-anchor="start" x="8" y="-29.5" font-family="Helvetica,sans-Serif" font-size="10.00"> Assembly&lt; A &gt;::template</text>
<text text-anchor="start" x="8" y="-18.5" font-family="Helvetica,sans-Serif" font-size="10.00"> BiLinearForm&lt; I &gt;::template</text>
<text text-anchor="middle" x="95" y="-7.5" font-family="Helvetica,sans-Serif" font-size="10.00"> OpMass&lt; BASE_DIM, FIELD_DIM &gt;</text>
</a>
</g>
</g>
<!-- Node2&#45;&gt;Node1 -->
<g id="edge1" class="edge">
<title>Node2&#45;&gt;Node1</title>
<path fill="none" stroke="midnightblue" d="M200.23,-26.5C208.8,-26.5 217.37,-26.5 225.7,-26.5"/>
<polygon fill="midnightblue" stroke="midnightblue" points="200.19,-23 190.19,-26.5 200.19,-30 200.19,-23"/>
</g>
</g>
</svg>
