<?xml version="1.0" encoding="UTF-8" standalone="no"?>
<!DOCTYPE svg PUBLIC "-//W3C//DTD SVG 1.1//EN"
 "http://www.w3.org/Graphics/SVG/1.1/DTD/svg11.dtd">
<!-- Generated by graphviz version 9.0.0 (20230911.1827)
 -->
<!-- Title: FractureMechanics::MWLSApprox::OpMWLSSpatialStressRhs Pages: 1 -->
<svg width="210pt" height="227pt"
 viewBox="0.00 0.00 210.00 226.75" xmlns="http://www.w3.org/2000/svg" xmlns:xlink="http://www.w3.org/1999/xlink">
<g id="graph0" class="graph" transform="scale(1 1) rotate(0) translate(4 222.75)">
<title>FractureMechanics::MWLSApprox::OpMWLSSpatialStressRhs</title>
<!-- Node1 -->
<g id="node1" class="node">
<title>Node1</title>
<g id="a_node1"><a xlink:title="Integrate force vector.">
<polygon fill="#999999" stroke="#666666" points="202,-30.5 0,-30.5 0,0 202,0 202,-30.5"/>
<text text-anchor="start" x="8" y="-17" font-family="Helvetica,sans-Serif" font-size="10.00">FractureMechanics::</text>
<text text-anchor="middle" x="101" y="-5.75" font-family="Helvetica,sans-Serif" font-size="10.00">MWLSApprox::OpMWLSSpatialStressRhs</text>
</a>
</g>
</g>
<!-- Node2 -->
<g id="node2" class="node">
<title>Node2</title>
<g id="a_node2"><a xlink:href="struct_mo_f_e_m_1_1_volume_element_forces_and_sources_core_1_1_user_data_operator.html" target="_top" xlink:title=" ">
<polygon fill="white" stroke="#666666" points="188.88,-97 13.12,-97 13.12,-66.5 188.88,-66.5 188.88,-97"/>
<text text-anchor="start" x="21.12" y="-83.5" font-family="Helvetica,sans-Serif" font-size="10.00">MoFEM::VolumeElementForces</text>
<text text-anchor="middle" x="101" y="-72.25" font-family="Helvetica,sans-Serif" font-size="10.00">AndSourcesCore::UserDataOperator</text>
</a>
</g>
</g>
<!-- Node2&#45;&gt;Node1 -->
<g id="edge1" class="edge">
<title>Node2&#45;&gt;Node1</title>
<path fill="none" stroke="#63b8ff" d="M101,-54.81C101,-46.64 101,-37.91 101,-30.83"/>
<polygon fill="#63b8ff" stroke="#63b8ff" points="97.5,-54.6 101,-64.6 104.5,-54.6 97.5,-54.6"/>
</g>
<!-- Node3 -->
<g id="node3" class="node">
<title>Node3</title>
<g id="a_node3"><a xlink:href="struct_mo_f_e_m_1_1_forces_and_sources_core_1_1_user_data_operator.html" target="_top" xlink:title=" ">
<polygon fill="white" stroke="#666666" points="181.38,-163.5 20.62,-163.5 20.62,-133 181.38,-133 181.38,-163.5"/>
<text text-anchor="start" x="28.62" y="-150" font-family="Helvetica,sans-Serif" font-size="10.00">MoFEM::ForcesAndSourcesCore</text>
<text text-anchor="middle" x="101" y="-138.75" font-family="Helvetica,sans-Serif" font-size="10.00">::UserDataOperator</text>
</a>
</g>
</g>
<!-- Node3&#45;&gt;Node2 -->
<g id="edge2" class="edge">
<title>Node3&#45;&gt;Node2</title>
<path fill="none" stroke="#63b8ff" d="M101,-121.31C101,-113.14 101,-104.41 101,-97.33"/>
<polygon fill="#63b8ff" stroke="#63b8ff" points="97.5,-121.1 101,-131.1 104.5,-121.1 97.5,-121.1"/>
</g>
<!-- Node4 -->
<g id="node4" class="node">
<title>Node4</title>
<g id="a_node4"><a xlink:href="struct_mo_f_e_m_1_1_data_operator.html" target="_top" xlink:title="base operator to do operations at Gauss Pt. level">
<polygon fill="white" stroke="#666666" points="158.5,-218.75 43.5,-218.75 43.5,-199.5 158.5,-199.5 158.5,-218.75"/>
<text text-anchor="middle" x="101" y="-205.25" font-family="Helvetica,sans-Serif" font-size="10.00">MoFEM::DataOperator</text>
</a>
</g>
</g>
<!-- Node4&#45;&gt;Node3 -->
<g id="edge3" class="edge">
<title>Node4&#45;&gt;Node3</title>
<path fill="none" stroke="#63b8ff" d="M101,-187.92C101,-179.99 101,-171.06 101,-163.78"/>
<polygon fill="#63b8ff" stroke="#63b8ff" points="97.5,-187.67 101,-197.67 104.5,-187.67 97.5,-187.67"/>
</g>
</g>
</svg>
