<?xml version="1.0" encoding="UTF-8" standalone="no"?>
<!DOCTYPE svg PUBLIC "-//W3C//DTD SVG 1.1//EN"
 "http://www.w3.org/Graphics/SVG/1.1/DTD/svg11.dtd">
<!-- Generated by graphviz version 2.43.0 (0)
 -->
<!-- Title: MoFEM::JacobiPolynomialCtx Pages: 1 -->
<svg width="1617pt" height="288pt"
 viewBox="0.00 0.00 1617.00 288.00" xmlns="http://www.w3.org/2000/svg" xmlns:xlink="http://www.w3.org/1999/xlink">
<g id="graph0" class="graph" transform="scale(1 1) rotate(0) translate(4 284)">
<title>MoFEM::JacobiPolynomialCtx</title>
<polygon fill="white" stroke="transparent" points="-4,4 -4,-284 1613,-284 1613,4 -4,4"/>
<!-- Node1 -->
<g id="node1" class="node">
<title>Node1</title>
<g id="a_node1"><a xlink:title="Class used to give arguments to Legendre base functions.">
<polygon fill="#bfbfbf" stroke="black" points="1450,-133.5 1450,-152.5 1609,-152.5 1609,-133.5 1450,-133.5"/>
<text text-anchor="middle" x="1529.5" y="-140.5" font-family="Helvetica,sans-Serif" font-size="10.00">MoFEM::JacobiPolynomialCtx</text>
</a>
</g>
</g>
<!-- Node2 -->
<g id="node2" class="node">
<title>Node2</title>
<g id="a_node2"><a xlink:href="structMoFEM_1_1BaseFunctionCtx.html" target="_top" xlink:title="Base class used to exchange data between element data structures and class calculating base functions...">
<polygon fill="white" stroke="black" points="1143,-226.5 1143,-245.5 1283,-245.5 1283,-226.5 1143,-226.5"/>
<text text-anchor="middle" x="1213" y="-233.5" font-family="Helvetica,sans-Serif" font-size="10.00">MoFEM::BaseFunctionCtx</text>
</a>
</g>
</g>
<!-- Node2&#45;&gt;Node1 -->
<g id="edge1" class="edge">
<title>Node2&#45;&gt;Node1</title>
<path fill="none" stroke="midnightblue" d="M1293.03,-239.66C1335.52,-239.06 1388.07,-234.07 1432,-217 1469.19,-202.55 1504.07,-169.1 1519.77,-152.58"/>
<polygon fill="midnightblue" stroke="midnightblue" points="1292.99,-236.16 1283.01,-239.73 1293.03,-243.16 1292.99,-236.16"/>
</g>
<!-- Node3 -->
<g id="node3" class="node">
<title>Node3</title>
<g id="a_node3"><a xlink:href="structMoFEM_1_1BaseFunctionUnknownInterface.html" target="_top" xlink:title=" ">
<polygon fill="white" stroke="black" points="920,-221 920,-251 1090,-251 1090,-221 920,-221"/>
<text text-anchor="start" x="928" y="-239" font-family="Helvetica,sans-Serif" font-size="10.00">MoFEM::BaseFunctionUnknown</text>
<text text-anchor="middle" x="1005" y="-228" font-family="Helvetica,sans-Serif" font-size="10.00">Interface</text>
</a>
</g>
</g>
<!-- Node3&#45;&gt;Node2 -->
<g id="edge2" class="edge">
<title>Node3&#45;&gt;Node2</title>
<path fill="none" stroke="midnightblue" d="M1100.46,-236C1114.77,-236 1129.31,-236 1142.96,-236"/>
<polygon fill="midnightblue" stroke="midnightblue" points="1100.09,-232.5 1090.09,-236 1100.09,-239.5 1100.09,-232.5"/>
</g>
<!-- Node4 -->
<g id="node4" class="node">
<title>Node4</title>
<g id="a_node4"><a xlink:href="structMoFEM_1_1UnknownInterface.html" target="_top" xlink:title="base class for all interface classes">
<polygon fill="white" stroke="black" points="735,-226.5 735,-245.5 883,-245.5 883,-226.5 735,-226.5"/>
<text text-anchor="middle" x="809" y="-233.5" font-family="Helvetica,sans-Serif" font-size="10.00">MoFEM::UnknownInterface</text>
</a>
</g>
</g>
<!-- Node4&#45;&gt;Node3 -->
<g id="edge3" class="edge">
<title>Node4&#45;&gt;Node3</title>
<path fill="none" stroke="midnightblue" d="M893.32,-236C902.14,-236 911.1,-236 919.92,-236"/>
<polygon fill="midnightblue" stroke="midnightblue" points="893.07,-232.5 883.07,-236 893.07,-239.5 893.07,-232.5"/>
</g>
<!-- Node5 -->
<g id="node5" class="node">
<title>Node5</title>
<g id="a_node5"><a xlink:title=" ">
<polygon fill="white" stroke="#bfbfbf" points="386,-204.5 386,-267.5 627,-267.5 627,-204.5 386,-204.5"/>
<text text-anchor="start" x="394" y="-255.5" font-family="Helvetica,sans-Serif" font-size="10.00">multi_index_container</text>
<text text-anchor="start" x="394" y="-244.5" font-family="Helvetica,sans-Serif" font-size="10.00">&lt; UIdTypeMap, indexed</text>
<text text-anchor="start" x="394" y="-233.5" font-family="Helvetica,sans-Serif" font-size="10.00">_by&lt; hashed_unique&lt; member</text>
<text text-anchor="start" x="394" y="-222.5" font-family="Helvetica,sans-Serif" font-size="10.00">&lt; UIdTypeMap, boost::typeindex</text>
<text text-anchor="middle" x="506.5" y="-211.5" font-family="Helvetica,sans-Serif" font-size="10.00">::type_index, &amp;UIdTypeMap::classIdx &gt; &gt; &gt; &gt;</text>
</a>
</g>
</g>
<!-- Node5&#45;&gt;Node4 -->
<g id="edge4" class="edge">
<title>Node5&#45;&gt;Node4</title>
<path fill="none" stroke="#9a32cd" stroke-dasharray="5,2" d="M637.41,-236C670.69,-236 705.33,-236 734.62,-236"/>
<polygon fill="#9a32cd" stroke="#9a32cd" points="637.13,-232.5 627.13,-236 637.13,-239.5 637.13,-232.5"/>
<text text-anchor="middle" x="681" y="-239" font-family="Helvetica,sans-Serif" font-size="10.00"> iFaceTypeMap</text>
</g>
<!-- Node6 -->
<g id="node6" class="node">
<title>Node6</title>
<g id="a_node6"><a xlink:title=" ">
<polygon fill="white" stroke="#bfbfbf" points="0,-226.5 0,-245.5 125,-245.5 125,-226.5 0,-226.5"/>
<text text-anchor="middle" x="62.5" y="-233.5" font-family="Helvetica,sans-Serif" font-size="10.00">multi_index_container</text>
</a>
</g>
</g>
<!-- Node6&#45;&gt;Node5 -->
<g id="edge5" class="edge">
<title>Node6&#45;&gt;Node5</title>
<path fill="none" stroke="orange" stroke-dasharray="5,2" d="M135.56,-236C203.25,-236 305.79,-236 385.77,-236"/>
<polygon fill="orange" stroke="orange" points="135.42,-232.5 125.42,-236 135.42,-239.5 135.42,-232.5"/>
<text text-anchor="start" x="143" y="-272" font-family="Helvetica,sans-Serif" font-size="10.00"> &lt; UIdTypeMap, indexed</text>
<text text-anchor="start" x="143" y="-261" font-family="Helvetica,sans-Serif" font-size="10.00">_by&lt; hashed_unique&lt; member</text>
<text text-anchor="start" x="143" y="-250" font-family="Helvetica,sans-Serif" font-size="10.00">&lt; UIdTypeMap, boost::typeindex</text>
<text text-anchor="middle" x="255.5" y="-239" font-family="Helvetica,sans-Serif" font-size="10.00">::type_index, &amp;UIdTypeMap::classIdx &gt; &gt; &gt; &gt;</text>
</g>
<!-- Node7 -->
<g id="node7" class="node">
<title>Node7</title>
<g id="a_node7"><a xlink:href="classdouble.html" target="_top" xlink:title=" ">
<polygon fill="white" stroke="black" points="1188,-178.5 1188,-197.5 1238,-197.5 1238,-178.5 1188,-178.5"/>
<text text-anchor="middle" x="1213" y="-185.5" font-family="Helvetica,sans-Serif" font-size="10.00">double</text>
</a>
</g>
</g>
<!-- Node7&#45;&gt;Node1 -->
<g id="edge6" class="edge">
<title>Node7&#45;&gt;Node1</title>
<path fill="none" stroke="#9a32cd" stroke-dasharray="5,2" d="M1248.23,-185.96C1291.32,-183.08 1367.51,-176.89 1432,-166 1452.55,-162.53 1475.23,-157.2 1493.44,-152.55"/>
<polygon fill="#9a32cd" stroke="#9a32cd" points="1247.76,-182.49 1238.01,-186.63 1248.22,-189.47 1247.76,-182.49"/>
<text text-anchor="middle" x="1374.5" y="-205" font-family="Helvetica,sans-Serif" font-size="10.00"> aLpha</text>
<text text-anchor="middle" x="1374.5" y="-194" font-family="Helvetica,sans-Serif" font-size="10.00">diffT</text>
<text text-anchor="middle" x="1374.5" y="-183" font-family="Helvetica,sans-Serif" font-size="10.00">diffX</text>
</g>
<!-- Node8 -->
<g id="node8" class="node">
<title>Node8</title>
<g id="a_node8"><a xlink:title=" ">
<polygon fill="white" stroke="#bfbfbf" points="1198.5,-133.5 1198.5,-152.5 1227.5,-152.5 1227.5,-133.5 1198.5,-133.5"/>
<text text-anchor="middle" x="1213" y="-140.5" font-family="Helvetica,sans-Serif" font-size="10.00">int</text>
</a>
</g>
</g>
<!-- Node8&#45;&gt;Node1 -->
<g id="edge7" class="edge">
<title>Node8&#45;&gt;Node1</title>
<path fill="none" stroke="#9a32cd" stroke-dasharray="5,2" d="M1237.61,-143C1282.04,-143 1379.91,-143 1449.85,-143"/>
<polygon fill="#9a32cd" stroke="#9a32cd" points="1237.51,-139.5 1227.51,-143 1237.51,-146.5 1237.51,-139.5"/>
<text text-anchor="middle" x="1374.5" y="-157" font-family="Helvetica,sans-Serif" font-size="10.00"> dIm</text>
<text text-anchor="middle" x="1374.5" y="-146" font-family="Helvetica,sans-Serif" font-size="10.00">P</text>
</g>
<!-- Node9 -->
<g id="node9" class="node">
<title>Node9</title>
<g id="a_node9"><a xlink:title=" ">
<polygon fill="white" stroke="#bfbfbf" points="1143,-83 1143,-113 1283,-113 1283,-83 1143,-83"/>
<text text-anchor="start" x="1151" y="-101" font-family="Helvetica,sans-Serif" font-size="10.00">shared_ptr&lt; UBlasMatrix</text>
<text text-anchor="middle" x="1213" y="-90" font-family="Helvetica,sans-Serif" font-size="10.00">&lt; double &gt; &gt;</text>
</a>
</g>
</g>
<!-- Node9&#45;&gt;Node1 -->
<g id="edge8" class="edge">
<title>Node9&#45;&gt;Node1</title>
<path fill="none" stroke="#9a32cd" stroke-dasharray="5,2" d="M1293.2,-101.54C1334.76,-104.24 1386.38,-108.93 1432,-117 1454.55,-120.99 1479.5,-127.78 1498.39,-133.42"/>
<polygon fill="#9a32cd" stroke="#9a32cd" points="1293.33,-98.04 1283.13,-100.91 1292.9,-105.02 1293.33,-98.04"/>
<text text-anchor="middle" x="1374.5" y="-131" font-family="Helvetica,sans-Serif" font-size="10.00"> baseDiffFunPtr</text>
<text text-anchor="middle" x="1374.5" y="-120" font-family="Helvetica,sans-Serif" font-size="10.00">baseFunPtr</text>
</g>
<!-- Node10 -->
<g id="node10" class="node">
<title>Node10</title>
<g id="a_node10"><a xlink:title=" ">
<polygon fill="white" stroke="#bfbfbf" points="1127,-0.5 1127,-63.5 1299,-63.5 1299,-0.5 1127,-0.5"/>
<text text-anchor="start" x="1135" y="-51.5" font-family="Helvetica,sans-Serif" font-size="10.00">PetscErrorCode(*)(int</text>
<text text-anchor="start" x="1135" y="-40.5" font-family="Helvetica,sans-Serif" font-size="10.00"> p, double alpha, double</text>
<text text-anchor="start" x="1135" y="-29.5" font-family="Helvetica,sans-Serif" font-size="10.00"> x, double t, double *diff</text>
<text text-anchor="start" x="1135" y="-18.5" font-family="Helvetica,sans-Serif" font-size="10.00">_x, double *diff_t, double</text>
<text text-anchor="middle" x="1213" y="-7.5" font-family="Helvetica,sans-Serif" font-size="10.00"> *L, double *diffL, const int dim)</text>
</a>
</g>
</g>
<!-- Node10&#45;&gt;Node1 -->
<g id="edge9" class="edge">
<title>Node10&#45;&gt;Node1</title>
<path fill="none" stroke="#9a32cd" stroke-dasharray="5,2" d="M1308.77,-50.55C1347.71,-59.65 1392.77,-72.11 1432,-88 1462.92,-100.52 1496.12,-121.24 1514.4,-133.35"/>
<polygon fill="#9a32cd" stroke="#9a32cd" points="1309.54,-47.13 1299.01,-48.31 1307.98,-53.96 1309.54,-47.13"/>
<text text-anchor="middle" x="1374.5" y="-91" font-family="Helvetica,sans-Serif" font-size="10.00"> basePolynomialsType1</text>
</g>
</g>
</svg>
