<?xml version="1.0" encoding="UTF-8" standalone="no"?>
<!DOCTYPE svg PUBLIC "-//W3C//DTD SVG 1.1//EN"
 "http://www.w3.org/Graphics/SVG/1.1/DTD/svg11.dtd">
<!-- Generated by graphviz version 2.43.0 (0)
 -->
<!-- Title: MinimalSurfaceEquation::MinimalSurfaceElement::OpGetDataAtGaussPts Pages: 1 -->
<svg width="310pt" height="228pt"
 viewBox="0.00 0.00 310.00 228.00" xmlns="http://www.w3.org/2000/svg" xmlns:xlink="http://www.w3.org/1999/xlink">
<g id="graph0" class="graph" transform="scale(1 1) rotate(0) translate(4 224)">
<title>MinimalSurfaceEquation::MinimalSurfaceElement::OpGetDataAtGaussPts</title>
<polygon fill="white" stroke="transparent" points="-4,4 -4,-224 306,-224 306,4 -4,4"/>
<!-- Node1 -->
<g id="node1" class="node">
<title>Node1</title>
<g id="a_node1"><a xlink:title="Evaluate function values and gradients at Gauss Pts.">
<polygon fill="#bfbfbf" stroke="black" points="0,-0.5 0,-41.5 140,-41.5 140,-0.5 0,-0.5"/>
<text text-anchor="start" x="8" y="-29.5" font-family="Helvetica,sans-Serif" font-size="10.00">MinimalSurfaceEquation</text>
<text text-anchor="start" x="8" y="-18.5" font-family="Helvetica,sans-Serif" font-size="10.00">::MinimalSurfaceElement</text>
<text text-anchor="middle" x="70" y="-7.5" font-family="Helvetica,sans-Serif" font-size="10.00">::OpGetDataAtGaussPts</text>
</a>
</g>
</g>
<!-- Node2 -->
<g id="node2" class="node">
<title>Node2</title>
<g id="a_node2"><a xlink:title=" ">
<polygon fill="white" stroke="#bfbfbf" points="1.5,-100.5 1.5,-119.5 106.5,-119.5 106.5,-100.5 1.5,-100.5"/>
<text text-anchor="middle" x="54" y="-107.5" font-family="Helvetica,sans-Serif" font-size="10.00">UserDataOperator</text>
</a>
</g>
</g>
<!-- Node2&#45;&gt;Node1 -->
<g id="edge1" class="edge">
<title>Node2&#45;&gt;Node1</title>
<path fill="none" stroke="midnightblue" d="M57.46,-90.2C60.09,-75.88 63.71,-56.21 66.38,-41.68"/>
<polygon fill="midnightblue" stroke="midnightblue" points="53.96,-89.87 55.59,-100.34 60.84,-91.14 53.96,-89.87"/>
</g>
<!-- Node3 -->
<g id="node3" class="node">
<title>Node3</title>
<g id="a_node3"><a xlink:href="structMinimalSurfaceEquation_1_1MinimalSurfaceElement_1_1CommonData.html" target="_top" xlink:title="Keep date between operators.">
<polygon fill="white" stroke="black" points="125,-89.5 125,-130.5 265,-130.5 265,-89.5 125,-89.5"/>
<text text-anchor="start" x="133" y="-118.5" font-family="Helvetica,sans-Serif" font-size="10.00">MinimalSurfaceEquation</text>
<text text-anchor="start" x="133" y="-107.5" font-family="Helvetica,sans-Serif" font-size="10.00">::MinimalSurfaceElement</text>
<text text-anchor="middle" x="195" y="-96.5" font-family="Helvetica,sans-Serif" font-size="10.00">::CommonData</text>
</a>
</g>
</g>
<!-- Node3&#45;&gt;Node1 -->
<g id="edge2" class="edge">
<title>Node3&#45;&gt;Node1</title>
<path fill="none" stroke="#9a32cd" stroke-dasharray="5,2" d="M158.72,-83.75C139.51,-70.38 116.27,-54.2 98.39,-41.76"/>
<polygon fill="#9a32cd" stroke="#9a32cd" points="156.74,-86.64 166.95,-89.48 160.74,-80.89 156.74,-86.64"/>
<text text-anchor="middle" x="175" y="-63" font-family="Helvetica,sans-Serif" font-size="10.00"> commonData</text>
</g>
<!-- Node4 -->
<g id="node4" class="node">
<title>Node4</title>
<g id="a_node4"><a xlink:title=" ">
<polygon fill="white" stroke="#bfbfbf" points="100.5,-200.5 100.5,-219.5 183.5,-219.5 183.5,-200.5 100.5,-200.5"/>
<text text-anchor="middle" x="142" y="-207.5" font-family="Helvetica,sans-Serif" font-size="10.00">MatrixDouble</text>
</a>
</g>
</g>
<!-- Node4&#45;&gt;Node3 -->
<g id="edge3" class="edge">
<title>Node4&#45;&gt;Node3</title>
<path fill="none" stroke="#9a32cd" stroke-dasharray="5,2" d="M138.16,-190.18C136.61,-177.79 136.47,-161.61 143,-149 146.7,-141.85 152.44,-135.72 158.77,-130.6"/>
<polygon fill="#9a32cd" stroke="#9a32cd" points="134.75,-190.98 139.85,-200.27 141.66,-189.83 134.75,-190.98"/>
<text text-anchor="middle" x="184.5" y="-174" font-family="Helvetica,sans-Serif" font-size="10.00"> gradU</text>
<text text-anchor="middle" x="184.5" y="-163" font-family="Helvetica,sans-Serif" font-size="10.00">aNbyGradU</text>
<text text-anchor="middle" x="184.5" y="-152" font-family="Helvetica,sans-Serif" font-size="10.00">aNpow3byGradU</text>
</g>
<!-- Node5 -->
<g id="node5" class="node">
<title>Node5</title>
<g id="a_node5"><a xlink:title=" ">
<polygon fill="white" stroke="#bfbfbf" points="207,-200.5 207,-219.5 289,-219.5 289,-200.5 207,-200.5"/>
<text text-anchor="middle" x="248" y="-207.5" font-family="Helvetica,sans-Serif" font-size="10.00">VectorDouble</text>
</a>
</g>
</g>
<!-- Node5&#45;&gt;Node3 -->
<g id="edge4" class="edge">
<title>Node5&#45;&gt;Node3</title>
<path fill="none" stroke="#9a32cd" stroke-dasharray="5,2" d="M242.98,-190.53C239.24,-178.29 233.48,-162.14 226,-149 222.38,-142.64 217.69,-136.26 213.06,-130.6"/>
<polygon fill="#9a32cd" stroke="#9a32cd" points="239.71,-191.82 245.84,-200.46 246.43,-189.88 239.71,-191.82"/>
<text text-anchor="middle" x="270.5" y="-168.5" font-family="Helvetica,sans-Serif" font-size="10.00"> aN</text>
<text text-anchor="middle" x="270.5" y="-157.5" font-family="Helvetica,sans-Serif" font-size="10.00">normGradU2</text>
</g>
</g>
</svg>
