<?xml version="1.0" encoding="UTF-8" standalone="no"?>
<!DOCTYPE svg PUBLIC "-//W3C//DTD SVG 1.1//EN"
 "http://www.w3.org/Graphics/SVG/1.1/DTD/svg11.dtd">
<!-- Generated by graphviz version 9.0.0 (20230911.1827)
 -->
<!-- Title: OpULhs_dH Pages: 1 -->
<!--zoomable 456 -->
<svg id="main" version="1.1" xmlns="http://www.w3.org/2000/svg" xmlns:xlink="http://www.w3.org/1999/xlink" xml:space="preserve" onload="init(evt)">
<style type="text/css"><![CDATA[
.edge:hover path { stroke: red; }
.edge:hover polygon { stroke: red; fill: red; }
]]></style>
<script type="text/javascript"><![CDATA[
var edges = document.getElementsByTagName('g');
if (edges && edges.length) {
  for (var i=0;i<edges.length;i++) {
    if (edges[i].id.substr(0,4)=='edge') {
      edges[i].setAttribute('class','edge');
    }
  }
}
]]></script>
        <defs>
                <circle id="rim" cx="0" cy="0" r="7"/>
                <circle id="rim2" cx="0" cy="0" r="3.5"/>
                <g id="zoomPlus">
                        <use xlink:href="#rim" fill="#404040">
                                <set attributeName="fill" to="#808080" begin="zoomplus.mouseover" end="zoomplus.mouseout"/>
                        </use>
                        <path d="M-4,0h8M0,-4v8" fill="none" stroke="white" stroke-width="1.5" pointer-events="none"/>
                </g>
                <g id="zoomMin">
                        <use xlink:href="#rim" fill="#404040">
                                <set attributeName="fill" to="#808080" begin="zoomminus.mouseover" end="zoomminus.mouseout"/>
                        </use>
                        <path d="M-4,0h8" fill="none" stroke="white" stroke-width="1.5" pointer-events="none"/>
                </g>
                <g id="dirArrow">
                        <path fill="none" stroke="white" stroke-width="1.5" d="M0,-3.0v7 M-2.5,-0.5L0,-3.0L2.5,-0.5"/>
                </g>
               <g id="resetDef">
                       <use xlink:href="#rim2" fill="#404040">
                               <set attributeName="fill" to="#808080" begin="reset.mouseover" end="reset.mouseout"/>
                       </use>
               </g>
        </defs>

<script type="text/javascript">
var viewWidth = 496;
var viewHeight = 456;
var sectionId = 'dynsection-1';
</script>
<script xlink:href="svgpan.js"/>
<svg id="graph" class="graph">
<g id="viewport">
<title>OpULhs_dH</title>
<!-- Node1 -->
<g id="node1" class="node">
<title>Node1</title>
<g id="a_node1"><a xlink:title=" ">
<polygon fill="#999999" stroke="#666666" points="487.75,-245.06 417.75,-245.06 417.75,-225.81 487.75,-225.81 487.75,-245.06"/>
<text text-anchor="middle" x="452.75" y="-231.56" font-family="Helvetica,sans-Serif" font-size="10.00">OpULhs_dH</text>
</a>
</g>
</g>
<!-- Node2 -->
<g id="node2" class="node">
<title>Node2</title>
<g id="a_node2"><a xlink:href="struct_mo_f_e_m_1_1_op_base_impl.html" target="_top" xlink:title=" ">
<polygon fill="white" stroke="#666666" points="380.75,-245.06 260.5,-245.06 260.5,-225.81 380.75,-225.81 380.75,-245.06"/>
<text text-anchor="middle" x="320.62" y="-231.56" font-family="Helvetica,sans-Serif" font-size="10.00">AssemblyDomainEleOp</text>
</a>
</g>
</g>
<!-- Node2&#45;&gt;Node1 -->
<g id="edge1" class="edge">
<title>Node2&#45;&gt;Node1</title>
<path fill="none" stroke="#63b8ff" d="M392.4,-235.43C401.07,-235.43 409.6,-235.43 417.37,-235.43"/>
<polygon fill="#63b8ff" stroke="#63b8ff" points="392.49,-231.93 382.49,-235.43 392.49,-238.93 392.49,-231.93"/>
</g>
<!-- Node3 -->
<g id="node3" class="node">
<title>Node3</title>
<g id="a_node3"><a xlink:title=" ">
<polygon fill="white" stroke="#666666" points="85.75,-448.06 42.75,-448.06 42.75,-428.81 85.75,-428.81 85.75,-448.06"/>
<text text-anchor="middle" x="64.25" y="-434.56" font-family="Helvetica,sans-Serif" font-size="10.00">EleOp</text>
</a>
</g>
</g>
<!-- Node3&#45;&gt;Node2 -->
<g id="edge2" class="edge">
<title>Node3&#45;&gt;Node2</title>
<path fill="none" stroke="#63b8ff" d="M97.26,-443.13C135.72,-446.95 200.31,-447.34 242.5,-415.43 300.26,-371.75 315.29,-276.15 318.72,-245.26"/>
<polygon fill="#63b8ff" stroke="#63b8ff" points="97.83,-439.67 87.49,-442.01 97.03,-446.63 97.83,-439.67"/>
</g>
<!-- Node4 -->
<g id="node4" class="node">
<title>Node4</title>
<g id="a_node4"><a xlink:title=" ">
<polygon fill="white" stroke="#666666" points="128.5,-411.06 0,-411.06 0,-391.81 128.5,-391.81 128.5,-411.06"/>
<text text-anchor="middle" x="64.25" y="-397.56" font-family="Helvetica,sans-Serif" font-size="10.00">function&lt; double(double)&gt;</text>
</a>
</g>
</g>
<!-- Node4&#45;&gt;Node2 -->
<g id="edge3" class="edge">
<title>Node4&#45;&gt;Node2</title>
<path fill="none" stroke="#9a32cd" stroke-dasharray="5,2" d="M140.17,-401.36C174.03,-398.03 212.98,-389.27 242.5,-368.43 287.2,-336.88 309.77,-270.57 316.98,-245.41"/>
<polygon fill="#9a32cd" stroke="#9a32cd" points="140.09,-397.85 130.41,-402.16 140.67,-404.83 140.09,-397.85"/>
<text text-anchor="middle" x="194.5" y="-402.18" font-family="Helvetica,sans-Serif" font-size="10.00"> timeScalingFun</text>
</g>
<!-- Node5 -->
<g id="node5" class="node">
<title>Node5</title>
<g id="a_node5"><a xlink:title=" ">
<polygon fill="white" stroke="#666666" points="121.75,-373.68 6.75,-373.68 6.75,-343.18 121.75,-343.18 121.75,-373.68"/>
<text text-anchor="start" x="14.75" y="-360.18" font-family="Helvetica,sans-Serif" font-size="10.00">function&lt; double(const</text>
<text text-anchor="middle" x="64.25" y="-348.93" font-family="Helvetica,sans-Serif" font-size="10.00"> FEMethod *fe_ptr)&gt;</text>
</a>
</g>
</g>
<!-- Node5&#45;&gt;Node2 -->
<g id="edge4" class="edge">
<title>Node5&#45;&gt;Node2</title>
<path fill="none" stroke="#9a32cd" stroke-dasharray="5,2" d="M133.49,-355.87C168.06,-352.05 209.58,-343.42 242.5,-324.43 276.68,-304.72 303.16,-264.14 314.12,-245.37"/>
<polygon fill="#9a32cd" stroke="#9a32cd" points="133.17,-352.38 123.56,-356.84 133.85,-359.35 133.17,-352.38"/>
<text text-anchor="middle" x="194.5" y="-355.18" font-family="Helvetica,sans-Serif" font-size="10.00"> feScalingFun</text>
</g>
<!-- Node6 -->
<g id="node6" class="node">
<title>Node6</title>
<g id="a_node6"><a xlink:title=" ">
<polygon fill="white" stroke="#666666" points="118.38,-325.06 10.12,-325.06 10.12,-305.81 118.38,-305.81 118.38,-325.06"/>
<text text-anchor="middle" x="64.25" y="-311.56" font-family="Helvetica,sans-Serif" font-size="10.00">shared_ptr&lt; Range &gt;</text>
</a>
</g>
</g>
<!-- Node6&#45;&gt;Node2 -->
<g id="edge5" class="edge">
<title>Node6&#45;&gt;Node2</title>
<path fill="none" stroke="#9a32cd" stroke-dasharray="5,2" d="M130.12,-311.98C164.47,-308.49 206.82,-301.47 242.5,-287.43 268.2,-277.32 293.98,-257.51 308.26,-245.48"/>
<polygon fill="#9a32cd" stroke="#9a32cd" points="129.94,-308.48 120.3,-312.9 130.59,-315.45 129.94,-308.48"/>
<text text-anchor="middle" x="194.5" y="-311.18" font-family="Helvetica,sans-Serif" font-size="10.00"> entsPtr</text>
</g>
<!-- Node7 -->
<g id="node7" class="node">
<title>Node7</title>
<g id="a_node7"><a xlink:title=" ">
<polygon fill="white" stroke="#666666" points="127.75,-288.06 0.75,-288.06 0.75,-268.81 127.75,-268.81 127.75,-288.06"/>
<text text-anchor="middle" x="64.25" y="-274.56" font-family="Helvetica,sans-Serif" font-size="10.00">static MatSetValuesHook</text>
</a>
</g>
</g>
<!-- Node7&#45;&gt;Node2 -->
<g id="edge6" class="edge">
<title>Node7&#45;&gt;Node2</title>
<path fill="none" stroke="#9a32cd" stroke-dasharray="5,2" d="M139.12,-273.75C171.12,-270.89 208.88,-266.39 242.5,-259.43 259.12,-255.99 277.25,-250.44 291.76,-245.54"/>
<polygon fill="#9a32cd" stroke="#9a32cd" points="139.23,-270.23 129.56,-274.57 139.82,-277.2 139.23,-270.23"/>
<text text-anchor="middle" x="194.5" y="-274.18" font-family="Helvetica,sans-Serif" font-size="10.00"> matSetValuesHook</text>
</g>
<!-- Node8 -->
<g id="node8" class="node">
<title>Node8</title>
<g id="a_node8"><a xlink:title=" ">
<polygon fill="white" stroke="#666666" points="78.65,-200.06 49.85,-200.06 49.85,-180.81 78.65,-180.81 78.65,-200.06"/>
<text text-anchor="middle" x="64.25" y="-186.56" font-family="Helvetica,sans-Serif" font-size="10.00">int</text>
</a>
</g>
</g>
<!-- Node8&#45;&gt;Node2 -->
<g id="edge7" class="edge">
<title>Node8&#45;&gt;Node2</title>
<path fill="none" stroke="#9a32cd" stroke-dasharray="5,2" d="M89.9,-185.72C124.68,-180.04 189.79,-173 242.5,-187.93 268.22,-195.22 293.79,-213.77 308.07,-225.42"/>
<polygon fill="#9a32cd" stroke="#9a32cd" points="89.68,-182.21 80.43,-187.37 90.88,-189.1 89.68,-182.21"/>
<text text-anchor="middle" x="194.5" y="-245.43" font-family="Helvetica,sans-Serif" font-size="10.00"> colSide</text>
<text text-anchor="middle" x="194.5" y="-234.18" font-family="Helvetica,sans-Serif" font-size="10.00">nbCols</text>
<text text-anchor="middle" x="194.5" y="-222.93" font-family="Helvetica,sans-Serif" font-size="10.00">nbIntegrationPts</text>
<text text-anchor="middle" x="194.5" y="-211.68" font-family="Helvetica,sans-Serif" font-size="10.00">nbRowBaseFunctions</text>
<text text-anchor="middle" x="194.5" y="-200.43" font-family="Helvetica,sans-Serif" font-size="10.00">nbRows</text>
<text text-anchor="middle" x="194.5" y="-189.18" font-family="Helvetica,sans-Serif" font-size="10.00">rowSide</text>
</g>
<!-- Node9 -->
<g id="node9" class="node">
<title>Node9</title>
<g id="a_node9"><a xlink:href="class_entity_type.html" target="_top" xlink:title=" ">
<polygon fill="white" stroke="#666666" points="95.5,-154.06 33,-154.06 33,-134.81 95.5,-134.81 95.5,-154.06"/>
<text text-anchor="middle" x="64.25" y="-140.56" font-family="Helvetica,sans-Serif" font-size="10.00">EntityType</text>
</a>
</g>
</g>
<!-- Node9&#45;&gt;Node2 -->
<g id="edge8" class="edge">
<title>Node9&#45;&gt;Node2</title>
<path fill="none" stroke="#9a32cd" stroke-dasharray="5,2" d="M106.7,-137.57C144.01,-133.34 199.44,-131.99 242.5,-151.93 276.88,-167.85 303.07,-206.86 314.02,-225.37"/>
<polygon fill="#9a32cd" stroke="#9a32cd" points="106.72,-134.04 97.24,-138.76 107.6,-140.98 106.72,-134.04"/>
<text text-anchor="middle" x="194.5" y="-164.43" font-family="Helvetica,sans-Serif" font-size="10.00"> colType</text>
<text text-anchor="middle" x="194.5" y="-153.18" font-family="Helvetica,sans-Serif" font-size="10.00">rowType</text>
</g>
<!-- Node10 -->
<g id="node10" class="node">
<title>Node10</title>
<g id="a_node10"><a xlink:href="classbool.html" target="_top" xlink:title=" ">
<polygon fill="white" stroke="#666666" points="81.25,-108.06 47.25,-108.06 47.25,-88.81 81.25,-88.81 81.25,-108.06"/>
<text text-anchor="middle" x="64.25" y="-94.56" font-family="Helvetica,sans-Serif" font-size="10.00">bool</text>
</a>
</g>
</g>
<!-- Node10&#45;&gt;Node2 -->
<g id="edge9" class="edge">
<title>Node10&#45;&gt;Node2</title>
<path fill="none" stroke="#9a32cd" stroke-dasharray="5,2" d="M92.48,-92.51C129.34,-86.04 195.88,-79.97 242.5,-107.93 287.98,-135.21 310.08,-200.56 317.08,-225.51"/>
<polygon fill="#9a32cd" stroke="#9a32cd" points="92.27,-88.98 83.1,-94.3 93.58,-95.86 92.27,-88.98"/>
<text text-anchor="middle" x="194.5" y="-120.43" font-family="Helvetica,sans-Serif" font-size="10.00"> assembleTranspose</text>
<text text-anchor="middle" x="194.5" y="-109.18" font-family="Helvetica,sans-Serif" font-size="10.00">onlyTranspose</text>
</g>
<!-- Node11 -->
<g id="node11" class="node">
<title>Node11</title>
<g id="a_node11"><a xlink:href="class_u_blas_matrix_3_01double_01_4.html" target="_top" xlink:title=" ">
<polygon fill="white" stroke="#666666" points="122.5,-62.06 6,-62.06 6,-42.81 122.5,-42.81 122.5,-62.06"/>
<text text-anchor="middle" x="64.25" y="-48.56" font-family="Helvetica,sans-Serif" font-size="10.00">UBlasMatrix&lt; double &gt;</text>
</a>
</g>
</g>
<!-- Node11&#45;&gt;Node2 -->
<g id="edge10" class="edge">
<title>Node11&#45;&gt;Node2</title>
<path fill="none" stroke="#9a32cd" stroke-dasharray="5,2" d="M119.87,-40.62C157.54,-35.64 207.01,-35.68 242.5,-59.93 301.03,-99.93 315.55,-194.86 318.78,-225.63"/>
<polygon fill="#9a32cd" stroke="#9a32cd" points="119.46,-37.14 110.09,-42.08 120.5,-44.07 119.46,-37.14"/>
<text text-anchor="middle" x="194.5" y="-72.43" font-family="Helvetica,sans-Serif" font-size="10.00"> locMat</text>
<text text-anchor="middle" x="194.5" y="-61.18" font-family="Helvetica,sans-Serif" font-size="10.00">locMatTranspose</text>
</g>
<!-- Node12 -->
<g id="node12" class="node">
<title>Node12</title>
<g id="a_node12"><a xlink:href="class_u_blas_vector_3_01double_01_4.html" target="_top" xlink:title=" ">
<polygon fill="white" stroke="#666666" points="123.25,-25.06 5.25,-25.06 5.25,-5.81 123.25,-5.81 123.25,-25.06"/>
<text text-anchor="middle" x="64.25" y="-11.56" font-family="Helvetica,sans-Serif" font-size="10.00">UBlasVector&lt; double &gt;</text>
</a>
</g>
</g>
<!-- Node12&#45;&gt;Node2 -->
<g id="edge11" class="edge">
<title>Node12&#45;&gt;Node2</title>
<path fill="none" stroke="#9a32cd" stroke-dasharray="5,2" d="M116.97,-3.49C155.27,2.23 206.79,3.02 242.5,-23.18 311.1,-73.51 318.82,-191.02 319.58,-225.66"/>
<polygon fill="#9a32cd" stroke="#9a32cd" points="116.82,0.03 107.53,-5.06 117.97,-6.87 116.82,0.03"/>
<text text-anchor="middle" x="194.5" y="-25.18" font-family="Helvetica,sans-Serif" font-size="10.00"> locF</text>
</g>
</g>
</svg>
        <g id="navigator" transform="translate(0 0)" fill="#404254">
                <rect fill="#f2f5e9" fill-opacity="0.5" stroke="#606060" stroke-width=".5" x="0" y="0" width="60" height="60"/>
                <use id="zoomplus" xlink:href="#zoomPlus" x="17" y="9" onmousedown="handleZoom(evt,'in')"/>
                <use id="zoomminus" xlink:href="#zoomMin" x="42" y="9" onmousedown="handleZoom(evt,'out')"/>
                <use id="reset" xlink:href="#resetDef" x="30" y="36" onmousedown="handleReset()"/>
                <g id="arrowUp" xlink:href="#dirArrow" transform="translate(30 24)" onmousedown="handlePan(0,-1)">
                  <use xlink:href="#rim" fill="#404040">
                        <set attributeName="fill" to="#808080" begin="arrowUp.mouseover" end="arrowUp.mouseout"/>
                  </use>
                  <path fill="none" stroke="white" stroke-width="1.5" d="M0,-3.0v7 M-2.5,-0.5L0,-3.0L2.5,-0.5"/>
                </g>
                <g id="arrowRight" xlink:href="#dirArrow" transform="rotate(90) translate(36 -43)" onmousedown="handlePan(1,0)">
                  <use xlink:href="#rim" fill="#404040">
                        <set attributeName="fill" to="#808080" begin="arrowRight.mouseover" end="arrowRight.mouseout"/>
                  </use>
                  <path fill="none" stroke="white" stroke-width="1.5" d="M0,-3.0v7 M-2.5,-0.5L0,-3.0L2.5,-0.5"/>
                </g>
                <g id="arrowDown" xlink:href="#dirArrow" transform="rotate(180) translate(-30 -48)" onmousedown="handlePan(0,1)">
                  <use xlink:href="#rim" fill="#404040">
                        <set attributeName="fill" to="#808080" begin="arrowDown.mouseover" end="arrowDown.mouseout"/>
                  </use>
                  <path fill="none" stroke="white" stroke-width="1.5" d="M0,-3.0v7 M-2.5,-0.5L0,-3.0L2.5,-0.5"/>
                </g>
                <g id="arrowLeft" xlink:href="#dirArrow" transform="rotate(270) translate(-36 17)" onmousedown="handlePan(-1,0)">
                  <use xlink:href="#rim" fill="#404040">
                        <set attributeName="fill" to="#808080" begin="arrowLeft.mouseover" end="arrowLeft.mouseout"/>
                  </use>
                  <path fill="none" stroke="white" stroke-width="1.5" d="M0,-3.0v7 M-2.5,-0.5L0,-3.0L2.5,-0.5"/>
                </g>
        </g>
        <svg viewBox="0 0 15 15" width="100%" height="30px" preserveAspectRatio="xMaxYMin meet">
         <g id="arrow_out" transform="scale(0.3 0.3)">
          <a xlink:href="struct_op_u_lhs__d_h__coll__graph_org.svg" target="_base">
           <rect id="button" ry="5" rx="5" y="6" x="6" height="38" width="38"
                fill="#f2f5e9" fill-opacity="0.5" stroke="#606060" stroke-width="1.0"/>
           <path id="arrow"
             d="M 11.500037,31.436501 C 11.940474,20.09759 22.043105,11.32322 32.158766,21.979434 L 37.068811,17.246167 C 37.068811,17.246167 37.088388,32 37.088388,32 L 22.160133,31.978069 C 22.160133,31.978069 26.997745,27.140456 26.997745,27.140456 C 18.528582,18.264221 13.291696,25.230495 11.500037,31.436501 z"
             style="fill:#404040;"/>
          </a>
         </g>
        </svg>
</svg>
