<?xml version="1.0" encoding="UTF-8" standalone="no"?>
<!DOCTYPE svg PUBLIC "-//W3C//DTD SVG 1.1//EN"
 "http://www.w3.org/Graphics/SVG/1.1/DTD/svg11.dtd">
<!-- Generated by graphviz version 9.0.0 (20230911.1827)
 -->
<!-- Title: FractureMechanics::ConstantArea::OpAreaC Pages: 1 -->
<!--zoomable 446 -->
<svg id="main" version="1.1" xmlns="http://www.w3.org/2000/svg" xmlns:xlink="http://www.w3.org/1999/xlink" xml:space="preserve" onload="init(evt)">
<style type="text/css"><![CDATA[
.edge:hover path { stroke: red; }
.edge:hover polygon { stroke: red; fill: red; }
]]></style>
<script type="text/javascript"><![CDATA[
var edges = document.getElementsByTagName('g');
if (edges && edges.length) {
  for (var i=0;i<edges.length;i++) {
    if (edges[i].id.substr(0,4)=='edge') {
      edges[i].setAttribute('class','edge');
    }
  }
}
]]></script>
        <defs>
                <circle id="rim" cx="0" cy="0" r="7"/>
                <circle id="rim2" cx="0" cy="0" r="3.5"/>
                <g id="zoomPlus">
                        <use xlink:href="#rim" fill="#404040">
                                <set attributeName="fill" to="#808080" begin="zoomplus.mouseover" end="zoomplus.mouseout"/>
                        </use>
                        <path d="M-4,0h8M0,-4v8" fill="none" stroke="white" stroke-width="1.5" pointer-events="none"/>
                </g>
                <g id="zoomMin">
                        <use xlink:href="#rim" fill="#404040">
                                <set attributeName="fill" to="#808080" begin="zoomminus.mouseover" end="zoomminus.mouseout"/>
                        </use>
                        <path d="M-4,0h8" fill="none" stroke="white" stroke-width="1.5" pointer-events="none"/>
                </g>
                <g id="dirArrow">
                        <path fill="none" stroke="white" stroke-width="1.5" d="M0,-3.0v7 M-2.5,-0.5L0,-3.0L2.5,-0.5"/>
                </g>
               <g id="resetDef">
                       <use xlink:href="#rim2" fill="#404040">
                               <set attributeName="fill" to="#808080" begin="reset.mouseover" end="reset.mouseout"/>
                       </use>
               </g>
        </defs>

<script type="text/javascript">
var viewWidth = 1884;
var viewHeight = 446;
var sectionId = 'dynsection-1';
</script>
<script xlink:href="svgpan.js"/>
<svg id="graph" class="graph">
<g id="viewport">
<title>FractureMechanics::ConstantArea::OpAreaC</title>
<!-- Node1 -->
<g id="node1" class="node">
<title>Node1</title>
<g id="a_node1"><a xlink:title=" ">
<polygon fill="#999999" stroke="#666666" points="1875.5,-394.88 1753,-394.88 1753,-364.38 1875.5,-364.38 1875.5,-394.88"/>
<text text-anchor="start" x="1761" y="-381.38" font-family="Helvetica,sans-Serif" font-size="10.00">FractureMechanics::</text>
<text text-anchor="middle" x="1814.25" y="-370.12" font-family="Helvetica,sans-Serif" font-size="10.00">ConstantArea::OpAreaC</text>
</a>
</g>
</g>
<!-- Node2 -->
<g id="node2" class="node">
<title>Node2</title>
<g id="a_node2"><a xlink:title=" ">
<polygon fill="white" stroke="#666666" points="1716,-437.88 1559,-437.88 1559,-407.38 1716,-407.38 1716,-437.88"/>
<text text-anchor="start" x="1567" y="-424.38" font-family="Helvetica,sans-Serif" font-size="10.00">FaceElementForcesAndSources</text>
<text text-anchor="middle" x="1637.5" y="-413.12" font-family="Helvetica,sans-Serif" font-size="10.00">Core::UserDataOperator</text>
</a>
</g>
</g>
<!-- Node2&#45;&gt;Node1 -->
<g id="edge1" class="edge">
<title>Node2&#45;&gt;Node1</title>
<path fill="none" stroke="#63b8ff" d="M1713.05,-404.28C1726.26,-401.03 1739.87,-397.68 1752.63,-394.54"/>
<polygon fill="#63b8ff" stroke="#63b8ff" points="1712.43,-400.83 1703.55,-406.62 1714.1,-407.63 1712.43,-400.83"/>
</g>
<!-- Node3 -->
<g id="node3" class="node">
<title>Node3</title>
<g id="a_node3"><a xlink:href="struct_fracture_mechanics_1_1_constant_area_1_1_aux_op.html" target="_top" xlink:title=" ">
<polygon fill="white" stroke="#666666" points="1693.5,-107.88 1581.5,-107.88 1581.5,-77.38 1693.5,-77.38 1693.5,-107.88"/>
<text text-anchor="start" x="1589.5" y="-94.38" font-family="Helvetica,sans-Serif" font-size="10.00">FractureMechanics::</text>
<text text-anchor="middle" x="1637.5" y="-83.12" font-family="Helvetica,sans-Serif" font-size="10.00">ConstantArea::AuxOp</text>
</a>
</g>
</g>
<!-- Node3&#45;&gt;Node1 -->
<g id="edge2" class="edge">
<title>Node3&#45;&gt;Node1</title>
<path fill="none" stroke="#63b8ff" d="M1653.87,-117.87C1689.17,-175.84 1775.18,-317.1 1803.81,-364.12"/>
<polygon fill="#63b8ff" stroke="#63b8ff" points="1656.87,-116.07 1648.68,-109.35 1650.89,-119.71 1656.87,-116.07"/>
</g>
<!-- Node4 -->
<g id="node4" class="node">
<title>Node4</title>
<g id="a_node4"><a xlink:title=" ">
<polygon fill="white" stroke="#666666" points="1404.53,-19.25 1375.72,-19.25 1375.72,0 1404.53,0 1404.53,-19.25"/>
<text text-anchor="middle" x="1390.12" y="-5.75" font-family="Helvetica,sans-Serif" font-size="10.00">int</text>
</a>
</g>
</g>
<!-- Node4&#45;&gt;Node3 -->
<g id="edge3" class="edge">
<title>Node4&#45;&gt;Node3</title>
<path fill="none" stroke="#9a32cd" stroke-dasharray="5,2" d="M1415.86,-12.67C1446.07,-16.89 1498.41,-25.8 1541,-41.38 1566.27,-50.62 1593.11,-65.53 1611.88,-76.89"/>
<polygon fill="#9a32cd" stroke="#9a32cd" points="1416.59,-9.24 1406.21,-11.39 1415.67,-16.18 1416.59,-9.24"/>
<text text-anchor="middle" x="1510.25" y="-42.38" font-family="Helvetica,sans-Serif" font-size="10.00"> tAg</text>
</g>
<!-- Node5 -->
<g id="node5" class="node">
<title>Node5</title>
<g id="a_node5"><a xlink:href="struct_fracture_mechanics_1_1_constant_area_1_1_common_data.html" target="_top" xlink:title=" ">
<polygon fill="white" stroke="#666666" points="1461.5,-203.88 1318.75,-203.88 1318.75,-173.38 1461.5,-173.38 1461.5,-203.88"/>
<text text-anchor="start" x="1326.75" y="-190.38" font-family="Helvetica,sans-Serif" font-size="10.00">FractureMechanics::</text>
<text text-anchor="middle" x="1390.12" y="-179.12" font-family="Helvetica,sans-Serif" font-size="10.00">ConstantArea::CommonData</text>
</a>
</g>
</g>
<!-- Node5&#45;&gt;Node3 -->
<g id="edge4" class="edge">
<title>Node5&#45;&gt;Node3</title>
<path fill="none" stroke="#9a32cd" stroke-dasharray="5,2" d="M1441.99,-168.73C1487.89,-150.77 1554.5,-124.71 1596.64,-108.22"/>
<polygon fill="#9a32cd" stroke="#9a32cd" points="1440.82,-165.43 1432.78,-172.33 1443.37,-171.94 1440.82,-165.43"/>
<text text-anchor="middle" x="1510.25" y="-153.38" font-family="Helvetica,sans-Serif" font-size="10.00"> commonData</text>
</g>
<!-- Node6 -->
<g id="node6" class="node">
<title>Node6</title>
<g id="a_node6"><a xlink:href="struct_mo_f_e_m_1_1_deprecated_core_interface.html" target="_top" xlink:title="Deprecated interface functions.">
<polygon fill="white" stroke="#666666" points="1157.5,-76.25 991.5,-76.25 991.5,-57 1157.5,-57 1157.5,-76.25"/>
<text text-anchor="middle" x="1074.5" y="-62.75" font-family="Helvetica,sans-Serif" font-size="10.00">MoFEM::DeprecatedCoreInterface</text>
</a>
</g>
</g>
<!-- Node6&#45;&gt;Node5 -->
<g id="edge5" class="edge">
<title>Node6&#45;&gt;Node5</title>
<path fill="none" stroke="#9a32cd" stroke-dasharray="5,2" d="M1169.33,-71.14C1211.29,-76.14 1260.29,-86.23 1300.75,-106.38 1333.02,-122.45 1361.82,-154.05 1377.25,-173.06"/>
<polygon fill="#9a32cd" stroke="#9a32cd" points="1169.81,-67.67 1159.48,-70.06 1169.04,-74.63 1169.81,-67.67"/>
<text text-anchor="middle" x="1238.12" y="-107.38" font-family="Helvetica,sans-Serif" font-size="10.00"> mField</text>
</g>
<!-- Node7 -->
<g id="node7" class="node">
<title>Node7</title>
<g id="a_node7"><a xlink:href="struct_mo_f_e_m_1_1_core_interface.html" target="_top" xlink:title="Interface.">
<polygon fill="white" stroke="#666666" points="954.5,-76.25 838.75,-76.25 838.75,-57 954.5,-57 954.5,-76.25"/>
<text text-anchor="middle" x="896.62" y="-62.75" font-family="Helvetica,sans-Serif" font-size="10.00">MoFEM::CoreInterface</text>
</a>
</g>
</g>
<!-- Node7&#45;&gt;Node6 -->
<g id="edge6" class="edge">
<title>Node7&#45;&gt;Node6</title>
<path fill="none" stroke="#63b8ff" d="M966.13,-66.62C974.33,-66.62 982.77,-66.62 991.13,-66.62"/>
<polygon fill="#63b8ff" stroke="#63b8ff" points="966.24,-63.13 956.24,-66.63 966.24,-70.13 966.24,-63.13"/>
</g>
<!-- Node8 -->
<g id="node8" class="node">
<title>Node8</title>
<g id="a_node8"><a xlink:href="struct_mo_f_e_m_1_1_unknown_interface.html" target="_top" xlink:title="base class for all interface classes">
<polygon fill="white" stroke="#666666" points="801.75,-76.25 665.75,-76.25 665.75,-57 801.75,-57 801.75,-76.25"/>
<text text-anchor="middle" x="733.75" y="-62.75" font-family="Helvetica,sans-Serif" font-size="10.00">MoFEM::UnknownInterface</text>
</a>
</g>
</g>
<!-- Node8&#45;&gt;Node7 -->
<g id="edge7" class="edge">
<title>Node8&#45;&gt;Node7</title>
<path fill="none" stroke="#63b8ff" d="M813.43,-66.62C821.81,-66.62 830.23,-66.62 838.3,-66.62"/>
<polygon fill="#63b8ff" stroke="#63b8ff" points="813.56,-63.13 803.56,-66.63 813.56,-70.13 813.56,-63.13"/>
</g>
<!-- Node9 -->
<g id="node9" class="node">
<title>Node9</title>
<g id="a_node9"><a xlink:title=" ">
<polygon fill="white" stroke="#666666" points="563,-98.75 346.75,-98.75 346.75,-34.5 563,-34.5 563,-98.75"/>
<text text-anchor="start" x="354.75" y="-85.25" font-family="Helvetica,sans-Serif" font-size="10.00">multi_index_container</text>
<text text-anchor="start" x="354.75" y="-74" font-family="Helvetica,sans-Serif" font-size="10.00">&lt; UIdTypeMap, indexed</text>
<text text-anchor="start" x="354.75" y="-62.75" font-family="Helvetica,sans-Serif" font-size="10.00">_by&lt; hashed_unique&lt; member</text>
<text text-anchor="start" x="354.75" y="-51.5" font-family="Helvetica,sans-Serif" font-size="10.00">&lt; UIdTypeMap, boost::typeindex</text>
<text text-anchor="middle" x="454.88" y="-40.25" font-family="Helvetica,sans-Serif" font-size="10.00">::type_index, &amp;UIdTypeMap::classIdx &gt; &gt; &gt; &gt;</text>
</a>
</g>
</g>
<!-- Node9&#45;&gt;Node8 -->
<g id="edge8" class="edge">
<title>Node9&#45;&gt;Node8</title>
<path fill="none" stroke="#9a32cd" stroke-dasharray="5,2" d="M574.68,-66.62C605.7,-66.62 638.06,-66.62 665.37,-66.62"/>
<polygon fill="#9a32cd" stroke="#9a32cd" points="574.83,-63.13 564.83,-66.63 574.83,-70.13 574.83,-63.13"/>
<text text-anchor="middle" x="614.38" y="-68.38" font-family="Helvetica,sans-Serif" font-size="10.00"> iFaceTypeMap</text>
</g>
<!-- Node10 -->
<g id="node10" class="node">
<title>Node10</title>
<g id="a_node10"><a xlink:title=" ">
<polygon fill="white" stroke="#666666" points="110.5,-76.25 0,-76.25 0,-57 110.5,-57 110.5,-76.25"/>
<text text-anchor="middle" x="55.25" y="-62.75" font-family="Helvetica,sans-Serif" font-size="10.00">multi_index_container</text>
</a>
</g>
</g>
<!-- Node10&#45;&gt;Node9 -->
<g id="edge9" class="edge">
<title>Node10&#45;&gt;Node9</title>
<path fill="none" stroke="orange" stroke-dasharray="5,2" d="M122.09,-66.62C183.01,-66.62 274.7,-66.62 346.26,-66.62"/>
<polygon fill="orange" stroke="orange" points="122.22,-63.13 112.22,-66.63 122.22,-70.13 122.22,-63.13"/>
<text text-anchor="start" x="128.5" y="-102.12" font-family="Helvetica,sans-Serif" font-size="10.00"> &lt; UIdTypeMap, indexed</text>
<text text-anchor="start" x="128.5" y="-90.88" font-family="Helvetica,sans-Serif" font-size="10.00">_by&lt; hashed_unique&lt; member</text>
<text text-anchor="start" x="128.5" y="-79.62" font-family="Helvetica,sans-Serif" font-size="10.00">&lt; UIdTypeMap, boost::typeindex</text>
<text text-anchor="middle" x="228.62" y="-68.38" font-family="Helvetica,sans-Serif" font-size="10.00">::type_index, &amp;UIdTypeMap::classIdx &gt; &gt; &gt; &gt;</text>
</g>
<!-- Node11 -->
<g id="node11" class="node">
<title>Node11</title>
<g id="a_node11"><a xlink:title=" ">
<polygon fill="white" stroke="#666666" points="1112.12,-124.25 1036.88,-124.25 1036.88,-105 1112.12,-105 1112.12,-124.25"/>
<text text-anchor="middle" x="1074.5" y="-110.75" font-family="Helvetica,sans-Serif" font-size="10.00">VectorDouble</text>
</a>
</g>
</g>
<!-- Node11&#45;&gt;Node3 -->
<g id="edge17" class="edge">
<title>Node11&#45;&gt;Node3</title>
<path fill="none" stroke="#9a32cd" stroke-dasharray="5,2" d="M1123.66,-112.74C1227.35,-108.67 1471.23,-99.11 1581.11,-94.8"/>
<polygon fill="#9a32cd" stroke="#9a32cd" points="1123.68,-109.23 1113.82,-113.12 1123.95,-116.23 1123.68,-109.23"/>
<text text-anchor="middle" x="1390.12" y="-106.38" font-family="Helvetica,sans-Serif" font-size="10.00"> activeVariables</text>
</g>
<!-- Node11&#45;&gt;Node5 -->
<g id="edge10" class="edge">
<title>Node11&#45;&gt;Node5</title>
<path fill="none" stroke="#9a32cd" stroke-dasharray="5,2" d="M1123.76,-116.66C1170.03,-119.66 1241.42,-127.03 1300.75,-145.12 1322.67,-151.81 1345.85,-163.41 1362.98,-172.96"/>
<polygon fill="#9a32cd" stroke="#9a32cd" points="1124.26,-113.19 1114.07,-116.08 1123.84,-120.17 1124.26,-113.19"/>
<text text-anchor="middle" x="1238.12" y="-157.62" font-family="Helvetica,sans-Serif" font-size="10.00"> crackAreaIncrement</text>
<text text-anchor="middle" x="1238.12" y="-146.38" font-family="Helvetica,sans-Serif" font-size="10.00">crackFrontTangent</text>
</g>
<!-- Node12 -->
<g id="node12" class="node">
<title>Node12</title>
<g id="a_node12"><a xlink:title=" ">
<polygon fill="white" stroke="#666666" points="1111.38,-372.25 1037.62,-372.25 1037.62,-353 1111.38,-353 1111.38,-372.25"/>
<text text-anchor="middle" x="1074.5" y="-358.75" font-family="Helvetica,sans-Serif" font-size="10.00">MatrixDouble</text>
</a>
</g>
</g>
<!-- Node12&#45;&gt;Node1 -->
<g id="edge18" class="edge">
<title>Node12&#45;&gt;Node1</title>
<path fill="none" stroke="#9a32cd" stroke-dasharray="5,2" d="M1122.74,-364.12C1139.41,-364.63 1158.29,-365.18 1175.5,-365.62 1387.51,-371.13 1639.2,-376.23 1752.57,-378.46"/>
<polygon fill="#9a32cd" stroke="#9a32cd" points="1123.22,-360.63 1113.11,-363.82 1123,-367.63 1123.22,-360.63"/>
<text text-anchor="middle" x="1510.25" y="-375.38" font-family="Helvetica,sans-Serif" font-size="10.00"> cMat</text>
</g>
<!-- Node12&#45;&gt;Node5 -->
<g id="edge11" class="edge">
<title>Node12&#45;&gt;Node5</title>
<path fill="none" stroke="#9a32cd" stroke-dasharray="5,2" d="M1122.73,-353.34C1139.4,-350.09 1158.28,-346.42 1175.5,-343.12 1231.13,-332.48 1253.42,-350.73 1300.75,-319.62 1344.54,-290.85 1372.18,-232.09 1383.4,-204.11"/>
<polygon fill="#9a32cd" stroke="#9a32cd" points="1122.22,-349.88 1113.08,-355.23 1123.56,-356.75 1122.22,-349.88"/>
<text text-anchor="middle" x="1238.12" y="-355.62" font-family="Helvetica,sans-Serif" font-size="10.00"> tangentCrackAreaIncrement</text>
<text text-anchor="middle" x="1238.12" y="-344.38" font-family="Helvetica,sans-Serif" font-size="10.00">tangentCrackFrontTangent</text>
</g>
<!-- Node13 -->
<g id="node13" class="node">
<title>Node13</title>
<g id="a_node13"><a xlink:title=" ">
<polygon fill="white" stroke="#666666" points="1122.62,-216.25 1026.38,-216.25 1026.38,-197 1122.62,-197 1122.62,-216.25"/>
<text text-anchor="middle" x="1074.5" y="-202.75" font-family="Helvetica,sans-Serif" font-size="10.00">vector&lt; double * &gt;</text>
</a>
</g>
</g>
<!-- Node13&#45;&gt;Node5 -->
<g id="edge12" class="edge">
<title>Node13&#45;&gt;Node5</title>
<path fill="none" stroke="#9a32cd" stroke-dasharray="5,2" d="M1134.2,-203.26C1186.41,-200.26 1262.88,-195.87 1318.43,-192.68"/>
<polygon fill="#9a32cd" stroke="#9a32cd" points="1134.09,-199.76 1124.3,-203.82 1134.49,-206.75 1134.09,-199.76"/>
<text text-anchor="start" x="1175.5" y="-236.12" font-family="Helvetica,sans-Serif" font-size="10.00"> tangentCrackAreaIncrement</text>
<text text-anchor="middle" x="1238.12" y="-224.88" font-family="Helvetica,sans-Serif" font-size="10.00">RowPtr</text>
<text text-anchor="start" x="1175.5" y="-213.62" font-family="Helvetica,sans-Serif" font-size="10.00">tangentCrackFrontTangent</text>
<text text-anchor="middle" x="1238.12" y="-202.38" font-family="Helvetica,sans-Serif" font-size="10.00">RowPtr</text>
</g>
<!-- Node14 -->
<g id="node14" class="node">
<title>Node14</title>
<g id="a_node14"><a xlink:title=" ">
<polygon fill="white" stroke="#666666" points="1117.75,-179.25 1031.25,-179.25 1031.25,-160 1117.75,-160 1117.75,-179.25"/>
<text text-anchor="middle" x="1074.5" y="-165.75" font-family="Helvetica,sans-Serif" font-size="10.00">map&lt; int, Vec &gt;</text>
</a>
</g>
</g>
<!-- Node14&#45;&gt;Node5 -->
<g id="edge13" class="edge">
<title>Node14&#45;&gt;Node5</title>
<path fill="none" stroke="#9a32cd" stroke-dasharray="5,2" d="M1129.32,-170.56C1174.99,-171.63 1242.24,-173.85 1300.75,-178.38 1306.45,-178.82 1312.34,-179.34 1318.26,-179.92"/>
<polygon fill="#9a32cd" stroke="#9a32cd" points="1129.49,-167.06 1119.41,-170.34 1129.33,-174.06 1129.49,-167.06"/>
<text text-anchor="middle" x="1238.12" y="-179.38" font-family="Helvetica,sans-Serif" font-size="10.00"> mapV</text>
</g>
<!-- Node15 -->
<g id="node15" class="node">
<title>Node15</title>
<g id="a_node15"><a xlink:href="classbool.html" target="_top" xlink:title=" ">
<polygon fill="white" stroke="#666666" points="1091.5,-318.25 1057.5,-318.25 1057.5,-299 1091.5,-299 1091.5,-318.25"/>
<text text-anchor="middle" x="1074.5" y="-304.75" font-family="Helvetica,sans-Serif" font-size="10.00">bool</text>
</a>
</g>
</g>
<!-- Node15&#45;&gt;Node5 -->
<g id="edge14" class="edge">
<title>Node15&#45;&gt;Node5</title>
<path fill="none" stroke="#9a32cd" stroke-dasharray="5,2" d="M1103.16,-308.24C1155.49,-307.12 1266.79,-302.74 1300.75,-285.62 1337.37,-267.17 1366.18,-226.71 1380.07,-204.32"/>
<polygon fill="#9a32cd" stroke="#9a32cd" points="1103.23,-304.74 1093.29,-308.43 1103.36,-311.74 1103.23,-304.74"/>
<text text-anchor="middle" x="1238.12" y="-306.38" font-family="Helvetica,sans-Serif" font-size="10.00"> setMapV</text>
</g>
<!-- Node16 -->
<g id="node16" class="node">
<title>Node16</title>
<g id="a_node16"><a xlink:title=" ">
<polygon fill="white" stroke="#666666" points="1090.38,-281.25 1058.62,-281.25 1058.62,-262 1090.38,-262 1090.38,-281.25"/>
<text text-anchor="middle" x="1074.5" y="-267.75" font-family="Helvetica,sans-Serif" font-size="10.00">Tag</text>
</a>
</g>
</g>
<!-- Node16&#45;&gt;Node5 -->
<g id="edge15" class="edge">
<title>Node16&#45;&gt;Node5</title>
<path fill="none" stroke="#9a32cd" stroke-dasharray="5,2" d="M1102.28,-273.26C1145.48,-274.97 1232.57,-274.57 1300.75,-249.62 1328.41,-239.5 1355.59,-218.64 1372.35,-204.15"/>
<polygon fill="#9a32cd" stroke="#9a32cd" points="1102.5,-269.76 1092.35,-272.78 1102.17,-276.76 1102.5,-269.76"/>
<text text-anchor="middle" x="1238.12" y="-273.38" font-family="Helvetica,sans-Serif" font-size="10.00"> thInterfaceSide</text>
</g>
<!-- Node17 -->
<g id="node17" class="node">
<title>Node17</title>
<g id="a_node17"><a xlink:title=" ">
<polygon fill="white" stroke="#666666" points="1425.88,-56.25 1354.38,-56.25 1354.38,-37 1425.88,-37 1425.88,-56.25"/>
<text text-anchor="middle" x="1390.12" y="-42.75" font-family="Helvetica,sans-Serif" font-size="10.00">vector&lt; int &gt;</text>
</a>
</g>
</g>
<!-- Node17&#45;&gt;Node3 -->
<g id="edge16" class="edge">
<title>Node17&#45;&gt;Node3</title>
<path fill="none" stroke="#9a32cd" stroke-dasharray="5,2" d="M1437.45,-51.57C1467.19,-55.11 1506.55,-60.46 1541,-67.38 1554.28,-70.04 1568.46,-73.47 1581.72,-76.93"/>
<polygon fill="#9a32cd" stroke="#9a32cd" points="1437.99,-48.11 1427.66,-50.44 1437.19,-55.07 1437.99,-48.11"/>
<text text-anchor="middle" x="1510.25" y="-68.38" font-family="Helvetica,sans-Serif" font-size="10.00"> rowIndices</text>
</g>
</g>
</svg>
        <g id="navigator" transform="translate(0 0)" fill="#404254">
                <rect fill="#f2f5e9" fill-opacity="0.5" stroke="#606060" stroke-width=".5" x="0" y="0" width="60" height="60"/>
                <use id="zoomplus" xlink:href="#zoomPlus" x="17" y="9" onmousedown="handleZoom(evt,'in')"/>
                <use id="zoomminus" xlink:href="#zoomMin" x="42" y="9" onmousedown="handleZoom(evt,'out')"/>
                <use id="reset" xlink:href="#resetDef" x="30" y="36" onmousedown="handleReset()"/>
                <g id="arrowUp" xlink:href="#dirArrow" transform="translate(30 24)" onmousedown="handlePan(0,-1)">
                  <use xlink:href="#rim" fill="#404040">
                        <set attributeName="fill" to="#808080" begin="arrowUp.mouseover" end="arrowUp.mouseout"/>
                  </use>
                  <path fill="none" stroke="white" stroke-width="1.5" d="M0,-3.0v7 M-2.5,-0.5L0,-3.0L2.5,-0.5"/>
                </g>
                <g id="arrowRight" xlink:href="#dirArrow" transform="rotate(90) translate(36 -43)" onmousedown="handlePan(1,0)">
                  <use xlink:href="#rim" fill="#404040">
                        <set attributeName="fill" to="#808080" begin="arrowRight.mouseover" end="arrowRight.mouseout"/>
                  </use>
                  <path fill="none" stroke="white" stroke-width="1.5" d="M0,-3.0v7 M-2.5,-0.5L0,-3.0L2.5,-0.5"/>
                </g>
                <g id="arrowDown" xlink:href="#dirArrow" transform="rotate(180) translate(-30 -48)" onmousedown="handlePan(0,1)">
                  <use xlink:href="#rim" fill="#404040">
                        <set attributeName="fill" to="#808080" begin="arrowDown.mouseover" end="arrowDown.mouseout"/>
                  </use>
                  <path fill="none" stroke="white" stroke-width="1.5" d="M0,-3.0v7 M-2.5,-0.5L0,-3.0L2.5,-0.5"/>
                </g>
                <g id="arrowLeft" xlink:href="#dirArrow" transform="rotate(270) translate(-36 17)" onmousedown="handlePan(-1,0)">
                  <use xlink:href="#rim" fill="#404040">
                        <set attributeName="fill" to="#808080" begin="arrowLeft.mouseover" end="arrowLeft.mouseout"/>
                  </use>
                  <path fill="none" stroke="white" stroke-width="1.5" d="M0,-3.0v7 M-2.5,-0.5L0,-3.0L2.5,-0.5"/>
                </g>
        </g>
        <svg viewBox="0 0 15 15" width="100%" height="30px" preserveAspectRatio="xMaxYMin meet">
         <g id="arrow_out" transform="scale(0.3 0.3)">
          <a xlink:href="struct_fracture_mechanics_1_1_constant_area_1_1_op_area_c__coll__graph_org.svg" target="_base">
           <rect id="button" ry="5" rx="5" y="6" x="6" height="38" width="38"
                fill="#f2f5e9" fill-opacity="0.5" stroke="#606060" stroke-width="1.0"/>
           <path id="arrow"
             d="M 11.500037,31.436501 C 11.940474,20.09759 22.043105,11.32322 32.158766,21.979434 L 37.068811,17.246167 C 37.068811,17.246167 37.088388,32 37.088388,32 L 22.160133,31.978069 C 22.160133,31.978069 26.997745,27.140456 26.997745,27.140456 C 18.528582,18.264221 13.291696,25.230495 11.500037,31.436501 z"
             style="fill:#404040;"/>
          </a>
         </g>
        </svg>
</svg>
