<?xml version="1.0" encoding="UTF-8" standalone="no"?>
<!DOCTYPE svg PUBLIC "-//W3C//DTD SVG 1.1//EN"
 "http://www.w3.org/Graphics/SVG/1.1/DTD/svg11.dtd">
<!-- Generated by graphviz version 2.43.0 (0)
 -->
<!-- Title: EshelbianPlasticity::OpSpatialEquilibrium_dw_dw Pages: 1 -->
<svg width="1186pt" height="398pt"
 viewBox="0.00 0.00 1186.00 398.00" xmlns="http://www.w3.org/2000/svg" xmlns:xlink="http://www.w3.org/1999/xlink">
<g id="graph0" class="graph" transform="scale(1 1) rotate(0) translate(4 394)">
<title>EshelbianPlasticity::OpSpatialEquilibrium_dw_dw</title>
<polygon fill="white" stroke="transparent" points="-4,4 -4,-394 1182,-394 1182,4 -4,4"/>
<!-- Node1 -->
<g id="node1" class="node">
<title>Node1</title>
<g id="a_node1"><a xlink:title=" ">
<polygon fill="#bfbfbf" stroke="black" points="1014,-204 1014,-234 1178,-234 1178,-204 1014,-204"/>
<text text-anchor="start" x="1022" y="-222" font-family="Helvetica,sans-Serif" font-size="10.00">EshelbianPlasticity</text>
<text text-anchor="middle" x="1096" y="-211" font-family="Helvetica,sans-Serif" font-size="10.00">::OpSpatialEquilibrium_dw_dw</text>
</a>
</g>
</g>
<!-- Node2 -->
<g id="node2" class="node">
<title>Node2</title>
<g id="a_node2"><a xlink:href="structEshelbianPlasticity_1_1OpAssembleVolume.html" target="_top" xlink:title=" ">
<polygon fill="white" stroke="black" points="811,-230 811,-260 932,-260 932,-230 811,-230"/>
<text text-anchor="start" x="819" y="-248" font-family="Helvetica,sans-Serif" font-size="10.00">EshelbianPlasticity</text>
<text text-anchor="middle" x="871.5" y="-237" font-family="Helvetica,sans-Serif" font-size="10.00">::OpAssembleVolume</text>
</a>
</g>
</g>
<!-- Node2&#45;&gt;Node1 -->
<g id="edge1" class="edge">
<title>Node2&#45;&gt;Node1</title>
<path fill="none" stroke="midnightblue" d="M942.35,-236.84C965.05,-234.19 990.43,-231.22 1013.87,-228.48"/>
<polygon fill="midnightblue" stroke="midnightblue" points="941.65,-233.4 932.13,-238.03 942.46,-240.35 941.65,-233.4"/>
</g>
<!-- Node3 -->
<g id="node3" class="node">
<title>Node3</title>
<g id="a_node3"><a xlink:href="structEshelbianPlasticity_1_1OpAssembleBasic.html" target="_top" xlink:title=" ">
<polygon fill="white" stroke="black" points="615,-224.5 615,-265.5 774,-265.5 774,-224.5 615,-224.5"/>
<text text-anchor="start" x="623" y="-253.5" font-family="Helvetica,sans-Serif" font-size="10.00">EshelbianPlasticity</text>
<text text-anchor="start" x="623" y="-242.5" font-family="Helvetica,sans-Serif" font-size="10.00">::OpAssembleBasic&lt; VolUser</text>
<text text-anchor="middle" x="694.5" y="-231.5" font-family="Helvetica,sans-Serif" font-size="10.00">DataOperator &gt;</text>
</a>
</g>
</g>
<!-- Node3&#45;&gt;Node2 -->
<g id="edge2" class="edge">
<title>Node3&#45;&gt;Node2</title>
<path fill="none" stroke="midnightblue" d="M784.21,-245C793.23,-245 802.23,-245 810.84,-245"/>
<polygon fill="midnightblue" stroke="midnightblue" points="784.04,-241.5 774.04,-245 784.04,-248.5 784.04,-241.5"/>
</g>
<!-- Node4 -->
<g id="node4" class="node">
<title>Node4</title>
<g id="a_node4"><a xlink:title=" ">
<polygon fill="white" stroke="#bfbfbf" points="319.5,-370.5 319.5,-389.5 439.5,-389.5 439.5,-370.5 319.5,-370.5"/>
<text text-anchor="middle" x="379.5" y="-377.5" font-family="Helvetica,sans-Serif" font-size="10.00">VolUserDataOperator</text>
</a>
</g>
</g>
<!-- Node4&#45;&gt;Node3 -->
<g id="edge3" class="edge">
<title>Node4&#45;&gt;Node3</title>
<path fill="none" stroke="midnightblue" d="M449.94,-382.15C494.31,-380.77 551.78,-373.69 597,-350 634.5,-330.35 664.96,-290.1 681.05,-265.54"/>
<polygon fill="midnightblue" stroke="midnightblue" points="449.74,-378.65 439.82,-382.37 449.9,-385.65 449.74,-378.65"/>
</g>
<!-- Node5 -->
<g id="node5" class="node">
<title>Node5</title>
<g id="a_node5"><a xlink:href="classconst_01bool.html" target="_top" xlink:title=" ">
<polygon fill="white" stroke="black" points="346,-332.5 346,-351.5 413,-351.5 413,-332.5 346,-332.5"/>
<text text-anchor="middle" x="379.5" y="-339.5" font-family="Helvetica,sans-Serif" font-size="10.00">const bool</text>
</a>
</g>
</g>
<!-- Node5&#45;&gt;Node3 -->
<g id="edge4" class="edge">
<title>Node5&#45;&gt;Node3</title>
<path fill="none" stroke="#9a32cd" stroke-dasharray="5,2" d="M423.29,-339.9C467.94,-336.57 539.32,-327.99 597,-306 622.56,-296.26 648.6,-279.29 667.18,-265.72"/>
<polygon fill="#9a32cd" stroke="#9a32cd" points="422.83,-336.42 413.09,-340.6 423.31,-343.41 422.83,-336.42"/>
<text text-anchor="middle" x="532" y="-338" font-family="Helvetica,sans-Serif" font-size="10.00"> assembleSymmetry</text>
</g>
<!-- Node6 -->
<g id="node6" class="node">
<title>Node6</title>
<g id="a_node6"><a xlink:title=" ">
<polygon fill="white" stroke="#bfbfbf" points="44.5,-248.5 44.5,-267.5 127.5,-267.5 127.5,-248.5 44.5,-248.5"/>
<text text-anchor="middle" x="86" y="-255.5" font-family="Helvetica,sans-Serif" font-size="10.00">MatrixDouble</text>
</a>
</g>
</g>
<!-- Node6&#45;&gt;Node3 -->
<g id="edge5" class="edge">
<title>Node6&#45;&gt;Node3</title>
<path fill="none" stroke="#9a32cd" stroke-dasharray="5,2" d="M137.59,-265.08C154.25,-267.09 172.88,-269.01 190,-270 300.12,-276.39 565.67,-261.83 597,-259 602.82,-258.47 608.82,-257.84 614.85,-257.13"/>
<polygon fill="#9a32cd" stroke="#9a32cd" points="137.87,-261.58 127.51,-263.82 137,-268.53 137.87,-261.58"/>
<text text-anchor="middle" x="379.5" y="-286" font-family="Helvetica,sans-Serif" font-size="10.00"> K</text>
<text text-anchor="middle" x="379.5" y="-275" font-family="Helvetica,sans-Serif" font-size="10.00">transposeK</text>
</g>
<!-- Node10 -->
<g id="node10" class="node">
<title>Node10</title>
<g id="a_node10"><a xlink:href="structEshelbianPlasticity_1_1OpAssembleBasic.html" target="_top" xlink:title=" ">
<polygon fill="white" stroke="black" points="310,-85 310,-115 449,-115 449,-85 310,-85"/>
<text text-anchor="start" x="318" y="-103" font-family="Helvetica,sans-Serif" font-size="10.00">EshelbianPlasticity</text>
<text text-anchor="middle" x="379.5" y="-92" font-family="Helvetica,sans-Serif" font-size="10.00">::OpAssembleBasic&lt; T &gt;</text>
</a>
</g>
</g>
<!-- Node6&#45;&gt;Node10 -->
<g id="edge11" class="edge">
<title>Node6&#45;&gt;Node10</title>
<path fill="none" stroke="#9a32cd" stroke-dasharray="5,2" d="M137.96,-253.84C184.22,-247.38 251.24,-230.94 292,-189 311.11,-169.34 291.78,-150.48 310,-130 315.44,-123.89 322.35,-118.97 329.67,-115.02"/>
<polygon fill="#9a32cd" stroke="#9a32cd" points="137.32,-250.39 127.84,-255.14 138.21,-257.33 137.32,-250.39"/>
<text text-anchor="middle" x="241" y="-258" font-family="Helvetica,sans-Serif" font-size="10.00"> K</text>
<text text-anchor="middle" x="241" y="-247" font-family="Helvetica,sans-Serif" font-size="10.00">transposeK</text>
</g>
<!-- Node7 -->
<g id="node7" class="node">
<title>Node7</title>
<g id="a_node7"><a xlink:title=" ">
<polygon fill="white" stroke="#bfbfbf" points="0,-130 0,-160 172,-160 172,-130 0,-130"/>
<text text-anchor="start" x="8" y="-148" font-family="Helvetica,sans-Serif" font-size="10.00">shared_ptr&lt; EshelbianPlasticity</text>
<text text-anchor="middle" x="86" y="-137" font-family="Helvetica,sans-Serif" font-size="10.00">::DataAtIntegrationPts &gt;</text>
</a>
</g>
</g>
<!-- Node7&#45;&gt;Node3 -->
<g id="edge6" class="edge">
<title>Node7&#45;&gt;Node3</title>
<path fill="none" stroke="#9a32cd" stroke-dasharray="5,2" d="M182.59,-152.95C217.15,-156.31 256.41,-160.69 292,-166 404.77,-182.83 533.96,-209.61 614.65,-227.25"/>
<polygon fill="#9a32cd" stroke="#9a32cd" points="182.79,-149.45 172.5,-151.98 182.12,-156.42 182.79,-149.45"/>
<text text-anchor="middle" x="379.5" y="-196" font-family="Helvetica,sans-Serif" font-size="10.00"> dataAtPts</text>
</g>
<!-- Node7&#45;&gt;Node10 -->
<g id="edge12" class="edge">
<title>Node7&#45;&gt;Node10</title>
<path fill="none" stroke="#9a32cd" stroke-dasharray="5,2" d="M181.86,-128.31C184.6,-127.86 187.32,-127.43 190,-127 229.67,-120.69 274.14,-114.29 309.93,-109.31"/>
<polygon fill="#9a32cd" stroke="#9a32cd" points="181.14,-124.88 171.84,-129.96 182.27,-131.79 181.14,-124.88"/>
<text text-anchor="middle" x="241" y="-130" font-family="Helvetica,sans-Serif" font-size="10.00"> dataAtPts</text>
</g>
<!-- Node8 -->
<g id="node8" class="node">
<title>Node8</title>
<g id="a_node8"><a xlink:title=" ">
<polygon fill="white" stroke="#bfbfbf" points="28,-181.5 28,-200.5 144,-200.5 144,-181.5 28,-181.5"/>
<text text-anchor="middle" x="86" y="-188.5" font-family="Helvetica,sans-Serif" font-size="10.00">function&lt; double()&gt;</text>
</a>
</g>
</g>
<!-- Node8&#45;&gt;Node3 -->
<g id="edge7" class="edge">
<title>Node8&#45;&gt;Node3</title>
<path fill="none" stroke="#9a32cd" stroke-dasharray="5,2" d="M109.67,-206.01C129.81,-218.39 160.54,-235.01 190,-242 230.03,-251.49 483.45,-248.65 614.78,-246.48"/>
<polygon fill="#9a32cd" stroke="#9a32cd" points="111.53,-203.04 101.2,-200.67 107.8,-208.96 111.53,-203.04"/>
<text text-anchor="middle" x="379.5" y="-252" font-family="Helvetica,sans-Serif" font-size="10.00"> scaleOff</text>
</g>
<!-- Node8&#45;&gt;Node10 -->
<g id="edge14" class="edge">
<title>Node8&#45;&gt;Node10</title>
<path fill="none" stroke="#9a32cd" stroke-dasharray="5,2" d="M154.3,-181.1C195.26,-173.58 248,-161.19 292,-142 300.81,-138.16 301.56,-134.61 310,-130 319.8,-124.64 330.74,-119.5 340.96,-115.03"/>
<polygon fill="#9a32cd" stroke="#9a32cd" points="153.65,-177.66 144.42,-182.86 154.88,-184.55 153.65,-177.66"/>
<text text-anchor="middle" x="241" y="-177" font-family="Helvetica,sans-Serif" font-size="10.00"> scaleOff</text>
</g>
<!-- Node9 -->
<g id="node9" class="node">
<title>Node9</title>
<g id="a_node9"><a xlink:title=" ">
<polygon fill="white" stroke="#bfbfbf" points="45,-0.5 45,-19.5 127,-19.5 127,-0.5 45,-0.5"/>
<text text-anchor="middle" x="86" y="-7.5" font-family="Helvetica,sans-Serif" font-size="10.00">VectorDouble</text>
</a>
</g>
</g>
<!-- Node9&#45;&gt;Node3 -->
<g id="edge8" class="edge">
<title>Node9&#45;&gt;Node3</title>
<path fill="none" stroke="#9a32cd" stroke-dasharray="5,2" d="M137.26,-4.68C235.21,3.01 454.47,6.76 597,-93 644.5,-126.25 673.83,-191.12 686.38,-224.33"/>
<polygon fill="#9a32cd" stroke="#9a32cd" points="136.73,-1.21 127.05,-5.53 137.31,-8.19 136.73,-1.21"/>
<text text-anchor="middle" x="379.5" y="-29" font-family="Helvetica,sans-Serif" font-size="10.00"> nF</text>
</g>
<!-- Node9&#45;&gt;Node10 -->
<g id="edge15" class="edge">
<title>Node9&#45;&gt;Node10</title>
<path fill="none" stroke="#9a32cd" stroke-dasharray="5,2" d="M137.04,-18.5C179.11,-26.4 240.45,-39.7 292,-58 312.61,-65.31 334.78,-76.14 351.51,-84.97"/>
<polygon fill="#9a32cd" stroke="#9a32cd" points="137.52,-15.02 127.05,-16.65 136.25,-21.91 137.52,-15.02"/>
<text text-anchor="middle" x="241" y="-61" font-family="Helvetica,sans-Serif" font-size="10.00"> nF</text>
</g>
<!-- Node10&#45;&gt;Node3 -->
<g id="edge9" class="edge">
<title>Node10&#45;&gt;Node3</title>
<path fill="none" stroke="orange" stroke-dasharray="5,2" d="M459.54,-95.98C502.59,-97.08 555.41,-104.02 597,-127 637.77,-149.52 668.09,-196.85 683.06,-224.23"/>
<polygon fill="orange" stroke="orange" points="459.44,-92.48 449.39,-95.82 459.33,-99.48 459.44,-92.48"/>
<text text-anchor="middle" x="532" y="-130" font-family="Helvetica,sans-Serif" font-size="10.00"> &lt; VolUserDataOperator &gt;</text>
</g>
<!-- Node11 -->
<g id="node11" class="node">
<title>Node11</title>
<g id="a_node11"><a xlink:href="classT.html" target="_top" xlink:title=" ">
<polygon fill="white" stroke="black" points="71.5,-46.5 71.5,-65.5 100.5,-65.5 100.5,-46.5 71.5,-46.5"/>
<text text-anchor="middle" x="86" y="-53.5" font-family="Helvetica,sans-Serif" font-size="10.00">T</text>
</a>
</g>
</g>
<!-- Node11&#45;&gt;Node10 -->
<g id="edge10" class="edge">
<title>Node11&#45;&gt;Node10</title>
<path fill="none" stroke="midnightblue" d="M110.72,-59.58C153.68,-66.07 245.86,-79.98 309.99,-89.66"/>
<polygon fill="midnightblue" stroke="midnightblue" points="111.08,-56.1 100.67,-58.06 110.03,-63.02 111.08,-56.1"/>
</g>
<!-- Node12 -->
<g id="node12" class="node">
<title>Node12</title>
<g id="a_node12"><a xlink:href="classbool.html" target="_top" xlink:title=" ">
<polygon fill="white" stroke="black" points="67,-84.5 67,-103.5 105,-103.5 105,-84.5 67,-84.5"/>
<text text-anchor="middle" x="86" y="-91.5" font-family="Helvetica,sans-Serif" font-size="10.00">bool</text>
</a>
</g>
</g>
<!-- Node12&#45;&gt;Node10 -->
<g id="edge13" class="edge">
<title>Node12&#45;&gt;Node10</title>
<path fill="none" stroke="#9a32cd" stroke-dasharray="5,2" d="M115.32,-93.05C154.88,-91.91 228.94,-90.45 292,-93 297.72,-93.23 303.65,-93.55 309.6,-93.92"/>
<polygon fill="#9a32cd" stroke="#9a32cd" points="115,-89.56 105.11,-93.36 115.21,-96.56 115,-89.56"/>
<text text-anchor="middle" x="241" y="-96" font-family="Helvetica,sans-Serif" font-size="10.00"> assembleSymmetry</text>
</g>
<!-- Node13 -->
<g id="node13" class="node">
<title>Node13</title>
<g id="a_node13"><a xlink:href="classdouble.html" target="_top" xlink:title=" ">
<polygon fill="white" stroke="black" points="846.5,-191.5 846.5,-210.5 896.5,-210.5 896.5,-191.5 846.5,-191.5"/>
<text text-anchor="middle" x="871.5" y="-198.5" font-family="Helvetica,sans-Serif" font-size="10.00">double</text>
</a>
</g>
</g>
<!-- Node13&#45;&gt;Node1 -->
<g id="edge16" class="edge">
<title>Node13&#45;&gt;Node1</title>
<path fill="none" stroke="#9a32cd" stroke-dasharray="5,2" d="M906.7,-201.12C931.52,-201.44 965.89,-202.39 996,-205 1001.79,-205.5 1007.77,-206.11 1013.77,-206.79"/>
<polygon fill="#9a32cd" stroke="#9a32cd" points="906.72,-197.62 896.68,-201.01 906.65,-204.62 906.72,-197.62"/>
<text text-anchor="middle" x="973" y="-219" font-family="Helvetica,sans-Serif" font-size="10.00"> alphaW</text>
<text text-anchor="middle" x="973" y="-208" font-family="Helvetica,sans-Serif" font-size="10.00">alphaRho</text>
</g>
</g>
</svg>
