<?xml version="1.0" encoding="UTF-8" standalone="no"?>
<!DOCTYPE svg PUBLIC "-//W3C//DTD SVG 1.1//EN"
 "http://www.w3.org/Graphics/SVG/1.1/DTD/svg11.dtd">
<!-- Generated by graphviz version 2.43.0 (0)
 -->
<!-- Title: MoFEM::ScalingMethod Pages: 1 -->
<svg width="536pt" height="302pt"
 viewBox="0.00 0.00 536.00 301.50" xmlns="http://www.w3.org/2000/svg" xmlns:xlink="http://www.w3.org/1999/xlink">
<g id="graph0" class="graph" transform="scale(1 1) rotate(0) translate(4 297.5)">
<title>MoFEM::ScalingMethod</title>
<polygon fill="white" stroke="transparent" points="-4,4 -4,-297.5 532,-297.5 532,4 -4,4"/>
<!-- Node1 -->
<g id="node1" class="node">
<title>Node1</title>
<g id="a_node1"><a xlink:title=" ">
<polygon fill="#bfbfbf" stroke="black" points="0,-96 0,-115 131,-115 131,-96 0,-96"/>
<text text-anchor="middle" x="65.5" y="-103" font-family="Helvetica,sans-Serif" font-size="10.00">MoFEM::ScalingMethod</text>
</a>
</g>
</g>
<!-- Node2 -->
<g id="node2" class="node">
<title>Node2</title>
<g id="a_node2"><a xlink:href="structMoFEM_1_1TimeScale.html" target="_top" xlink:title="Force scale operator for reading two columns.">
<polygon fill="white" stroke="black" points="182,-159 182,-178 292,-178 292,-159 182,-159"/>
<text text-anchor="middle" x="237" y="-166" font-family="Helvetica,sans-Serif" font-size="10.00">MoFEM::TimeScale</text>
</a>
</g>
</g>
<!-- Node1&#45;&gt;Node2 -->
<g id="edge1" class="edge">
<title>Node1&#45;&gt;Node2</title>
<path fill="none" stroke="midnightblue" d="M101.78,-118.61C134.15,-130.65 181.35,-148.19 210.29,-158.95"/>
<polygon fill="midnightblue" stroke="midnightblue" points="102.84,-115.27 92.24,-115.07 100.4,-121.83 102.84,-115.27"/>
</g>
<!-- Node8 -->
<g id="node8" class="node">
<title>Node8</title>
<g id="a_node8"><a xlink:href="structMoFEM_1_1TimeScaleVector.html" target="_top" xlink:title="Force scale operator for reading four columns (time and vector)">
<polygon fill="white" stroke="black" points="167,-49.5 167,-79.5 307,-79.5 307,-49.5 167,-49.5"/>
<text text-anchor="start" x="175" y="-67.5" font-family="Helvetica,sans-Serif" font-size="10.00">MoFEM::TimeScaleVector</text>
<text text-anchor="middle" x="237" y="-56.5" font-family="Helvetica,sans-Serif" font-size="10.00">&lt; SPACE_DIM &gt;</text>
</a>
</g>
</g>
<!-- Node1&#45;&gt;Node8 -->
<g id="edge7" class="edge">
<title>Node1&#45;&gt;Node8</title>
<path fill="none" stroke="midnightblue" d="M115.59,-93.63C133.72,-89.24 154.52,-84.21 173.67,-79.58"/>
<polygon fill="midnightblue" stroke="midnightblue" points="114.71,-90.24 105.81,-95.99 116.36,-97.04 114.71,-90.24"/>
</g>
<!-- Node3 -->
<g id="node3" class="node">
<title>Node3</title>
<g id="a_node3"><a xlink:href="structContact_1_1ScaledTimeScale.html" target="_top" xlink:title=" ">
<polygon fill="white" stroke="black" points="364,-274 364,-293 507,-293 507,-274 364,-274"/>
<text text-anchor="middle" x="435.5" y="-281" font-family="Helvetica,sans-Serif" font-size="10.00">Contact::ScaledTimeScale</text>
</a>
</g>
</g>
<!-- Node2&#45;&gt;Node3 -->
<g id="edge2" class="edge">
<title>Node2&#45;&gt;Node3</title>
<path fill="none" stroke="midnightblue" d="M251.95,-186.08C270.37,-208.03 304.95,-245.04 343,-264.5 350.66,-268.41 359.06,-271.52 367.58,-273.99"/>
<polygon fill="midnightblue" stroke="midnightblue" points="254.54,-183.73 245.5,-178.22 249.13,-188.17 254.54,-183.73"/>
</g>
<!-- Node4 -->
<g id="node4" class="node">
<title>Node4</title>
<g id="a_node4"><a xlink:href="structExample_1_1DynamicFirstOrderConsConstantTimeScale.html" target="_top" xlink:title=" ">
<polygon fill="white" stroke="black" points="357,-224.5 357,-254.5 514,-254.5 514,-224.5 357,-224.5"/>
<text text-anchor="start" x="365" y="-242.5" font-family="Helvetica,sans-Serif" font-size="10.00">Example::DynamicFirstOrder</text>
<text text-anchor="middle" x="435.5" y="-231.5" font-family="Helvetica,sans-Serif" font-size="10.00">ConsConstantTimeScale</text>
</a>
</g>
</g>
<!-- Node2&#45;&gt;Node4 -->
<g id="edge3" class="edge">
<title>Node2&#45;&gt;Node4</title>
<path fill="none" stroke="midnightblue" d="M266.19,-182.64C287.04,-192.73 316.33,-206.11 343,-215.5 352.14,-218.72 361.93,-221.73 371.58,-224.46"/>
<polygon fill="midnightblue" stroke="midnightblue" points="267.49,-179.38 256.97,-178.13 264.41,-185.67 267.49,-179.38"/>
</g>
<!-- Node5 -->
<g id="node5" class="node">
<title>Node5</title>
<g id="a_node5"><a xlink:href="structExample_1_1DynamicFirstOrderConsSinusTimeScale.html" target="_top" xlink:title=" ">
<polygon fill="white" stroke="black" points="357,-175.5 357,-205.5 514,-205.5 514,-175.5 357,-175.5"/>
<text text-anchor="start" x="365" y="-193.5" font-family="Helvetica,sans-Serif" font-size="10.00">Example::DynamicFirstOrder</text>
<text text-anchor="middle" x="435.5" y="-182.5" font-family="Helvetica,sans-Serif" font-size="10.00">ConsSinusTimeScale</text>
</a>
</g>
</g>
<!-- Node2&#45;&gt;Node5 -->
<g id="edge4" class="edge">
<title>Node2&#45;&gt;Node5</title>
<path fill="none" stroke="midnightblue" d="M302.28,-175.7C319.74,-177.65 338.82,-179.79 356.93,-181.81"/>
<polygon fill="midnightblue" stroke="midnightblue" points="302.54,-172.2 292.21,-174.57 301.76,-179.16 302.54,-172.2"/>
</g>
<!-- Node6 -->
<g id="node6" class="node">
<title>Node6</title>
<g id="a_node6"><a xlink:href="structExample_1_1ScaledTimeScale.html" target="_top" xlink:title=" ">
<polygon fill="white" stroke="black" points="361,-137 361,-156 510,-156 510,-137 361,-137"/>
<text text-anchor="middle" x="435.5" y="-144" font-family="Helvetica,sans-Serif" font-size="10.00">Example::ScaledTimeScale</text>
</a>
</g>
</g>
<!-- Node2&#45;&gt;Node6 -->
<g id="edge5" class="edge">
<title>Node2&#45;&gt;Node6</title>
<path fill="none" stroke="midnightblue" d="M302.41,-161.29C321.13,-159.19 341.73,-156.89 360.97,-154.73"/>
<polygon fill="midnightblue" stroke="midnightblue" points="301.76,-157.84 292.21,-162.43 302.54,-164.8 301.76,-157.84"/>
</g>
<!-- Node7 -->
<g id="node7" class="node">
<title>Node7</title>
<g id="a_node7"><a xlink:href="structLinMomTimeScale.html" target="_top" xlink:title=" ">
<polygon fill="white" stroke="black" points="382,-99 382,-118 489,-118 489,-99 382,-99"/>
<text text-anchor="middle" x="435.5" y="-106" font-family="Helvetica,sans-Serif" font-size="10.00">LinMomTimeScale</text>
</a>
</g>
</g>
<!-- Node2&#45;&gt;Node7 -->
<g id="edge6" class="edge">
<title>Node2&#45;&gt;Node7</title>
<path fill="none" stroke="midnightblue" d="M268.58,-154.99C289.28,-146.24 317.41,-135.09 343,-127.5 355.44,-123.81 369.04,-120.57 381.87,-117.86"/>
<polygon fill="midnightblue" stroke="midnightblue" points="267.16,-151.79 259.35,-158.94 269.92,-158.22 267.16,-151.79"/>
</g>
<!-- Node9 -->
<g id="node9" class="node">
<title>Node9</title>
<g id="a_node9"><a xlink:href="structBasicBoundaryConditionsInterface_1_1BasicBCVectorConst.html" target="_top" xlink:title=" ">
<polygon fill="white" stroke="black" points="343,-49.5 343,-79.5 528,-79.5 528,-49.5 343,-49.5"/>
<text text-anchor="start" x="351" y="-67.5" font-family="Helvetica,sans-Serif" font-size="10.00">BasicBoundaryConditionsInterface</text>
<text text-anchor="middle" x="435.5" y="-56.5" font-family="Helvetica,sans-Serif" font-size="10.00">::BasicBCVectorConst&lt; 3 &gt;</text>
</a>
</g>
</g>
<!-- Node8&#45;&gt;Node9 -->
<g id="edge8" class="edge">
<title>Node8&#45;&gt;Node9</title>
<path fill="none" stroke="midnightblue" d="M317.2,-64.5C325.66,-64.5 334.32,-64.5 342.9,-64.5"/>
<polygon fill="midnightblue" stroke="midnightblue" points="317,-61 307,-64.5 317,-68 317,-61"/>
</g>
<!-- Node10 -->
<g id="node10" class="node">
<title>Node10</title>
<g id="a_node10"><a xlink:href="structBasicBoundaryConditionsInterface_1_1BasicBCVectorScale.html" target="_top" xlink:title=" ">
<polygon fill="white" stroke="black" points="343,-0.5 343,-30.5 528,-30.5 528,-0.5 343,-0.5"/>
<text text-anchor="start" x="351" y="-18.5" font-family="Helvetica,sans-Serif" font-size="10.00">BasicBoundaryConditionsInterface</text>
<text text-anchor="middle" x="435.5" y="-7.5" font-family="Helvetica,sans-Serif" font-size="10.00">::BasicBCVectorScale&lt; 3 &gt;</text>
</a>
</g>
</g>
<!-- Node8&#45;&gt;Node10 -->
<g id="edge9" class="edge">
<title>Node8&#45;&gt;Node10</title>
<path fill="none" stroke="midnightblue" d="M308.09,-47.02C329.74,-41.62 353.4,-35.72 374.32,-30.51"/>
<polygon fill="midnightblue" stroke="midnightblue" points="307.15,-43.65 298.29,-49.47 308.84,-50.44 307.15,-43.65"/>
</g>
</g>
</svg>
