<?xml version="1.0" encoding="UTF-8" standalone="no"?>
<!DOCTYPE svg PUBLIC "-//W3C//DTD SVG 1.1//EN"
 "http://www.w3.org/Graphics/SVG/1.1/DTD/svg11.dtd">
<!-- Generated by graphviz version 2.43.0 (0)
 -->
<!-- Title: EigenMatrix::GetDiffDiffMatImpl&lt; E, C, T1, FTensor::Tensor2_symmetric&lt; VT2, DimT2 &gt; &gt; Pages: 1 -->
<!--zoomable 284 -->
<svg id="main" version="1.1" xmlns="http://www.w3.org/2000/svg" xmlns:xlink="http://www.w3.org/1999/xlink" xml:space="preserve" onload="init(evt)">
<style type="text/css"><![CDATA[
.edge:hover path { stroke: red; }
.edge:hover polygon { stroke: red; fill: red; }
]]></style>
<script type="text/javascript"><![CDATA[
var edges = document.getElementsByTagName('g');
if (edges && edges.length) {
  for (var i=0;i<edges.length;i++) {
    if (edges[i].id.substr(0,4)=='edge') {
      edges[i].setAttribute('class','edge');
    }
  }
}
]]></script>
        <defs>
                <circle id="rim" cx="0" cy="0" r="7"/>
                <circle id="rim2" cx="0" cy="0" r="3.5"/>
                <g id="zoomPlus">
                        <use xlink:href="#rim" fill="#404040">
                                <set attributeName="fill" to="#808080" begin="zoomplus.mouseover" end="zoomplus.mouseout"/>
                        </use>
                        <path d="M-4,0h8M0,-4v8" fill="none" stroke="white" stroke-width="1.5" pointer-events="none"/>
                </g>
                <g id="zoomMin">
                        <use xlink:href="#rim" fill="#404040">
                                <set attributeName="fill" to="#808080" begin="zoomminus.mouseover" end="zoomminus.mouseout"/>
                        </use>
                        <path d="M-4,0h8" fill="none" stroke="white" stroke-width="1.5" pointer-events="none"/>
                </g>
                <g id="dirArrow">
                        <path fill="none" stroke="white" stroke-width="1.5" d="M0,-3.0v7 M-2.5,-0.5L0,-3.0L2.5,-0.5"/>
                </g>
               <g id="resetDef">
                       <use xlink:href="#rim2" fill="#404040">
                               <set attributeName="fill" to="#808080" begin="reset.mouseover" end="reset.mouseout"/>
                       </use>
               </g>
        </defs>

<script type="text/javascript">
var viewWidth = 511;
var viewHeight = 284;
var sectionId = 'dynsection-0';
</script>
<script xlink:href="svgpan.js"/>
<svg id="graph" class="graph">
<g id="viewport">
<title>EigenMatrix::GetDiffDiffMatImpl&lt; E, C, T1, FTensor::Tensor2_symmetric&lt; VT2, DimT2 &gt; &gt;</title>
<polygon fill="white" stroke="transparent" points="-4,4 -4,-280 507,-280 507,4 -4,4"/>
<!-- Node1 -->
<g id="node1" class="node">
<title>Node1</title>
<g id="a_node1"><a xlink:title=" ">
<polygon fill="#bfbfbf" stroke="black" points="52,-0.5 52,-52.5 203,-52.5 203,-0.5 52,-0.5"/>
<text text-anchor="start" x="60" y="-40.5" font-family="Helvetica,sans-Serif" font-size="10.00">EigenMatrix::GetDiffDiff</text>
<text text-anchor="start" x="60" y="-29.5" font-family="Helvetica,sans-Serif" font-size="10.00">MatImpl&lt; E, C, T1, FTensor</text>
<text text-anchor="start" x="60" y="-18.5" font-family="Helvetica,sans-Serif" font-size="10.00">::Tensor2_symmetric&lt; VT2,</text>
<text text-anchor="middle" x="127.5" y="-7.5" font-family="Helvetica,sans-Serif" font-size="10.00"> DimT2 &gt; &gt;</text>
</a>
</g>
</g>
<!-- Node2 -->
<g id="node2" class="node">
<title>Node2</title>
<g id="a_node2"><a xlink:title=" ">
<polygon fill="white" stroke="#bfbfbf" points="0,-106 0,-125 39,-125 39,-106 0,-106"/>
<text text-anchor="middle" x="19.5" y="-113" font-family="Helvetica,sans-Serif" font-size="10.00">T1 &amp;</text>
</a>
</g>
</g>
<!-- Node2&#45;&gt;Node1 -->
<g id="edge1" class="edge">
<title>Node2&#45;&gt;Node1</title>
<path fill="none" stroke="#9a32cd" stroke-dasharray="5,2" d="M38.3,-99.35C54.28,-86.48 77.54,-67.75 96.3,-52.63"/>
<polygon fill="#9a32cd" stroke="#9a32cd" points="35.84,-96.84 30.25,-105.84 40.23,-102.29 35.84,-96.84"/>
<text text-anchor="middle" x="80.5" y="-74" font-family="Helvetica,sans-Serif" font-size="10.00"> tA</text>
</g>
<!-- Node3 -->
<g id="node3" class="node">
<title>Node3</title>
<g id="a_node3"><a xlink:title=" ">
<polygon fill="white" stroke="#bfbfbf" points="57,-106 57,-125 90,-125 90,-106 57,-106"/>
<text text-anchor="middle" x="73.5" y="-113" font-family="Helvetica,sans-Serif" font-size="10.00">E &amp;</text>
</a>
</g>
</g>
<!-- Node3&#45;&gt;Node1 -->
<g id="edge2" class="edge">
<title>Node3&#45;&gt;Node1</title>
<path fill="none" stroke="#9a32cd" stroke-dasharray="5,2" d="M84.27,-97.16C92.17,-84.41 103.04,-66.91 111.9,-52.63"/>
<polygon fill="#9a32cd" stroke="#9a32cd" points="81.18,-95.5 78.88,-105.84 87.12,-99.19 81.18,-95.5"/>
<text text-anchor="middle" x="105.5" y="-74" font-family="Helvetica,sans-Serif" font-size="10.00"> e</text>
</g>
<!-- Node4 -->
<g id="node4" class="node">
<title>Node4</title>
<g id="a_node4"><a xlink:title=" ">
<polygon fill="white" stroke="#bfbfbf" points="108,-100.5 108,-130.5 257,-130.5 257,-100.5 108,-100.5"/>
<text text-anchor="start" x="116" y="-118.5" font-family="Helvetica,sans-Serif" font-size="10.00">SecondMatrixDirectiveImpl</text>
<text text-anchor="middle" x="182.5" y="-107.5" font-family="Helvetica,sans-Serif" font-size="10.00">&lt; E, C &gt;</text>
</a>
</g>
</g>
<!-- Node4&#45;&gt;Node1 -->
<g id="edge3" class="edge">
<title>Node4&#45;&gt;Node1</title>
<path fill="none" stroke="#9a32cd" stroke-dasharray="5,2" d="M168.03,-91.62C160.49,-79.69 151.25,-65.07 143.49,-52.8"/>
<polygon fill="#9a32cd" stroke="#9a32cd" points="165.12,-93.55 173.42,-100.13 171.03,-89.81 165.12,-93.55"/>
<text text-anchor="middle" x="166" y="-74" font-family="Helvetica,sans-Serif" font-size="10.00"> r</text>
</g>
<!-- Node5 -->
<g id="node5" class="node">
<title>Node5</title>
<g id="a_node5"><a xlink:href="classFTensor_1_1Tensor2__symmetric.html" target="_top" xlink:title=" ">
<polygon fill="white" stroke="black" points="275,-100.5 275,-130.5 430,-130.5 430,-100.5 275,-100.5"/>
<text text-anchor="start" x="283" y="-118.5" font-family="Helvetica,sans-Serif" font-size="10.00">FTensor::Tensor2_symmetric</text>
<text text-anchor="middle" x="352.5" y="-107.5" font-family="Helvetica,sans-Serif" font-size="10.00">&lt; VT2, DimT2 &gt;</text>
</a>
</g>
</g>
<!-- Node5&#45;&gt;Node1 -->
<g id="edge4" class="edge">
<title>Node5&#45;&gt;Node1</title>
<path fill="none" stroke="#9a32cd" stroke-dasharray="5,2" d="M306.73,-96.8C273.84,-84.09 229.04,-66.76 192.46,-52.62"/>
<polygon fill="#9a32cd" stroke="#9a32cd" points="305.51,-100.08 316.1,-100.43 308.04,-93.55 305.51,-100.08"/>
<text text-anchor="middle" x="274" y="-74" font-family="Helvetica,sans-Serif" font-size="10.00"> tS</text>
</g>
<!-- Node6 -->
<g id="node6" class="node">
<title>Node6</title>
<g id="a_node6"><a xlink:title=" ">
<polygon fill="white" stroke="#bfbfbf" points="295,-184 295,-203 330,-203 330,-184 295,-184"/>
<text text-anchor="middle" x="312.5" y="-191" font-family="Helvetica,sans-Serif" font-size="10.00">VT2</text>
</a>
</g>
</g>
<!-- Node6&#45;&gt;Node5 -->
<g id="edge5" class="edge">
<title>Node6&#45;&gt;Node5</title>
<path fill="none" stroke="#9a32cd" stroke-dasharray="5,2" d="M321.93,-174.58C329.02,-161.11 338.59,-142.93 345.12,-130.52"/>
<polygon fill="#9a32cd" stroke="#9a32cd" points="318.65,-173.3 317.09,-183.78 324.84,-176.56 318.65,-173.3"/>
<text text-anchor="middle" x="347" y="-152" font-family="Helvetica,sans-Serif" font-size="10.00"> data</text>
</g>
<!-- Node7 -->
<g id="node7" class="node">
<title>Node7</title>
<g id="a_node7"><a xlink:href="classFTensor_1_1Tensor2__symmetric.html" target="_top" xlink:title=" ">
<polygon fill="white" stroke="black" points="348,-178.5 348,-208.5 503,-208.5 503,-178.5 348,-178.5"/>
<text text-anchor="start" x="356" y="-196.5" font-family="Helvetica,sans-Serif" font-size="10.00">FTensor::Tensor2_symmetric</text>
<text text-anchor="middle" x="425.5" y="-185.5" font-family="Helvetica,sans-Serif" font-size="10.00">&lt; T, Tensor_Dim &gt;</text>
</a>
</g>
</g>
<!-- Node7&#45;&gt;Node5 -->
<g id="edge6" class="edge">
<title>Node7&#45;&gt;Node5</title>
<path fill="none" stroke="orange" stroke-dasharray="5,2" d="M404.53,-170.67C392.2,-157.83 376.96,-141.97 366.17,-130.73"/>
<polygon fill="orange" stroke="orange" points="402.32,-173.42 411.77,-178.2 407.37,-168.57 402.32,-173.42"/>
<text text-anchor="middle" x="434" y="-152" font-family="Helvetica,sans-Serif" font-size="10.00"> &lt; VT2, DimT2 &gt;</text>
</g>
<!-- Node8 -->
<g id="node8" class="node">
<title>Node8</title>
<g id="a_node8"><a xlink:title=" ">
<polygon fill="white" stroke="#bfbfbf" points="411,-256.5 411,-275.5 440,-275.5 440,-256.5 411,-256.5"/>
<text text-anchor="middle" x="425.5" y="-263.5" font-family="Helvetica,sans-Serif" font-size="10.00">T</text>
</a>
</g>
</g>
<!-- Node8&#45;&gt;Node7 -->
<g id="edge7" class="edge">
<title>Node8&#45;&gt;Node7</title>
<path fill="none" stroke="#9a32cd" stroke-dasharray="5,2" d="M425.5,-246.24C425.5,-234.41 425.5,-219.38 425.5,-208.58"/>
<polygon fill="#9a32cd" stroke="#9a32cd" points="422,-246.36 425.5,-256.36 429,-246.36 422,-246.36"/>
<text text-anchor="middle" x="438" y="-230" font-family="Helvetica,sans-Serif" font-size="10.00"> data</text>
</g>
</g>
</svg>
        <g id="navigator" transform="translate(0 0)" fill="#404254">
                <rect fill="#f2f5e9" fill-opacity="0.5" stroke="#606060" stroke-width=".5" x="0" y="0" width="60" height="60"/>
                <use id="zoomplus" xlink:href="#zoomPlus" x="17" y="9" onmousedown="handleZoom(evt,'in')"/>
                <use id="zoomminus" xlink:href="#zoomMin" x="42" y="9" onmousedown="handleZoom(evt,'out')"/>
                <use id="reset" xlink:href="#resetDef" x="30" y="36" onmousedown="handleReset()"/>
                <g id="arrowUp" xlink:href="#dirArrow" transform="translate(30 24)" onmousedown="handlePan(0,-1)">
                  <use xlink:href="#rim" fill="#404040">
                        <set attributeName="fill" to="#808080" begin="arrowUp.mouseover" end="arrowUp.mouseout"/>
                  </use>
                  <path fill="none" stroke="white" stroke-width="1.5" d="M0,-3.0v7 M-2.5,-0.5L0,-3.0L2.5,-0.5"/>
                </g>
                <g id="arrowRight" xlink:href="#dirArrow" transform="rotate(90) translate(36 -43)" onmousedown="handlePan(1,0)">
                  <use xlink:href="#rim" fill="#404040">
                        <set attributeName="fill" to="#808080" begin="arrowRight.mouseover" end="arrowRight.mouseout"/>
                  </use>
                  <path fill="none" stroke="white" stroke-width="1.5" d="M0,-3.0v7 M-2.5,-0.5L0,-3.0L2.5,-0.5"/>
                </g>
                <g id="arrowDown" xlink:href="#dirArrow" transform="rotate(180) translate(-30 -48)" onmousedown="handlePan(0,1)">
                  <use xlink:href="#rim" fill="#404040">
                        <set attributeName="fill" to="#808080" begin="arrowDown.mouseover" end="arrowDown.mouseout"/>
                  </use>
                  <path fill="none" stroke="white" stroke-width="1.5" d="M0,-3.0v7 M-2.5,-0.5L0,-3.0L2.5,-0.5"/>
                </g>
                <g id="arrowLeft" xlink:href="#dirArrow" transform="rotate(270) translate(-36 17)" onmousedown="handlePan(-1,0)">
                  <use xlink:href="#rim" fill="#404040">
                        <set attributeName="fill" to="#808080" begin="arrowLeft.mouseover" end="arrowLeft.mouseout"/>
                  </use>
                  <path fill="none" stroke="white" stroke-width="1.5" d="M0,-3.0v7 M-2.5,-0.5L0,-3.0L2.5,-0.5"/>
                </g>
        </g>
        <svg viewBox="0 0 15 15" width="100%" height="30px" preserveAspectRatio="xMaxYMin meet">
         <g id="arrow_out" transform="scale(0.3 0.3)">
          <a xlink:href="structEigenMatrix_1_1GetDiffDiffMatImpl_3_01E_00_01C_00_01T1_00_01FTensor_1_1Tensor2__symmetric_5f67f520f79d30899d2d342205a20f9e_org.svg" target="_base">
           <rect id="button" ry="5" rx="5" y="6" x="6" height="38" width="38"
                fill="#f2f5e9" fill-opacity="0.5" stroke="#606060" stroke-width="1.0"/>
           <path id="arrow"
             d="M 11.500037,31.436501 C 11.940474,20.09759 22.043105,11.32322 32.158766,21.979434 L 37.068811,17.246167 C 37.068811,17.246167 37.088388,32 37.088388,32 L 22.160133,31.978069 C 22.160133,31.978069 26.997745,27.140456 26.997745,27.140456 C 18.528582,18.264221 13.291696,25.230495 11.500037,31.436501 z"
             style="fill:#404040;"/>
          </a>
         </g>
        </svg>
</svg>
