<?xml version="1.0" encoding="UTF-8" standalone="no"?>
<!DOCTYPE svg PUBLIC "-//W3C//DTD SVG 1.1//EN"
 "http://www.w3.org/Graphics/SVG/1.1/DTD/svg11.dtd">
<!-- Generated by graphviz version 9.0.0 (20230911.1827)
 -->
<!-- Title: PlaneRigidBody Pages: 1 -->
<svg width="861pt" height="554pt"
 viewBox="0.00 0.00 861.30 553.88" xmlns="http://www.w3.org/2000/svg" xmlns:xlink="http://www.w3.org/1999/xlink">
<g id="graph0" class="graph" transform="scale(1 1) rotate(0) translate(4 549.88)">
<title>PlaneRigidBody</title>
<!-- Node1 -->
<g id="node1" class="node">
<title>Node1</title>
<g id="a_node1"><a xlink:title=" ">
<polygon fill="#999999" stroke="#666666" points="853.3,-57.25 767.55,-57.25 767.55,-38 853.3,-38 853.3,-57.25"/>
<text text-anchor="middle" x="810.42" y="-43.75" font-family="Helvetica,sans-Serif" font-size="10.00">PlaneRigidBody</text>
</a>
</g>
</g>
<!-- Node2 -->
<g id="node2" class="node">
<title>Node2</title>
<g id="a_node2"><a xlink:href="struct_rigid_body_data.html" target="_top" xlink:title=" ">
<polygon fill="white" stroke="#666666" points="712.8,-288.25 630.8,-288.25 630.8,-269 712.8,-269 712.8,-288.25"/>
<text text-anchor="middle" x="671.8" y="-274.75" font-family="Helvetica,sans-Serif" font-size="10.00">RigidBodyData</text>
</a>
</g>
</g>
<!-- Node2&#45;&gt;Node1 -->
<g id="edge1" class="edge">
<title>Node2&#45;&gt;Node1</title>
<path fill="none" stroke="#63b8ff" d="M684.39,-259.03C712.37,-211.72 782.81,-92.63 803.58,-57.51"/>
<polygon fill="#63b8ff" stroke="#63b8ff" points="681.52,-257.01 679.44,-267.4 687.54,-260.57 681.52,-257.01"/>
</g>
<!-- Node3 -->
<g id="node3" class="node">
<title>Node3</title>
<g id="a_node3"><a xlink:title=" ">
<polygon fill="white" stroke="#666666" points="401.7,-379.25 372.9,-379.25 372.9,-360 401.7,-360 401.7,-379.25"/>
<text text-anchor="middle" x="387.3" y="-365.75" font-family="Helvetica,sans-Serif" font-size="10.00">int</text>
</a>
</g>
</g>
<!-- Node3&#45;&gt;Node2 -->
<g id="edge2" class="edge">
<title>Node3&#45;&gt;Node2</title>
<path fill="none" stroke="#9a32cd" stroke-dasharray="5,2" d="M413.31,-369.52C464.38,-368.93 578.71,-365.58 612.8,-347.62 638.28,-334.21 657.09,-304.43 665.66,-288.74"/>
<polygon fill="#9a32cd" stroke="#9a32cd" points="413.53,-366.02 403.56,-369.6 413.59,-373.02 413.53,-366.02"/>
<text text-anchor="middle" x="549.42" y="-380.62" font-family="Helvetica,sans-Serif" font-size="10.00"> bodyType</text>
<text text-anchor="middle" x="549.42" y="-369.38" font-family="Helvetica,sans-Serif" font-size="10.00">iD</text>
</g>
<!-- Node4 -->
<g id="node4" class="node">
<title>Node4</title>
<g id="a_node4"><a xlink:href="class_f_tensor_1_1_index.html" target="_top" xlink:title=" ">
<polygon fill="white" stroke="#666666" points="445.92,-531.25 328.67,-531.25 328.67,-512 445.92,-512 445.92,-531.25"/>
<text text-anchor="middle" x="387.3" y="-517.75" font-family="Helvetica,sans-Serif" font-size="10.00">FTensor::Index&lt; &#39;i&#39;, 3 &gt;</text>
</a>
</g>
</g>
<!-- Node4&#45;&gt;Node2 -->
<g id="edge3" class="edge">
<title>Node4&#45;&gt;Node2</title>
<path fill="none" stroke="#9a32cd" stroke-dasharray="5,2" d="M451.89,-533.02C501.46,-538.09 569.02,-536.07 612.8,-498.62 645.89,-470.32 665.01,-327.56 669.67,-288.51"/>
<polygon fill="#9a32cd" stroke="#9a32cd" points="452.49,-529.57 442.16,-531.9 451.69,-536.52 452.49,-529.57"/>
<text text-anchor="middle" x="549.42" y="-536.38" font-family="Helvetica,sans-Serif" font-size="10.00"> i</text>
</g>
<!-- Node5 -->
<g id="node5" class="node">
<title>Node5</title>
<g id="a_node5"><a xlink:href="class_f_tensor_1_1_index.html" target="_top" xlink:title=" ">
<polygon fill="white" stroke="#666666" points="190.3,-462.88 94.8,-462.88 94.8,-432.38 190.3,-432.38 190.3,-462.88"/>
<text text-anchor="start" x="102.8" y="-449.38" font-family="Helvetica,sans-Serif" font-size="10.00">FTensor::Index&lt; i,</text>
<text text-anchor="middle" x="142.55" y="-438.12" font-family="Helvetica,sans-Serif" font-size="10.00"> Dim &gt;</text>
</a>
</g>
</g>
<!-- Node5&#45;&gt;Node4 -->
<g id="edge4" class="edge">
<title>Node5&#45;&gt;Node4</title>
<path fill="none" stroke="orange" stroke-dasharray="5,2" d="M195.83,-467.21C227.58,-478.7 269.08,-493 306.55,-503.62 316.52,-506.45 327.29,-509.13 337.59,-511.52"/>
<polygon fill="orange" stroke="orange" points="197.05,-463.93 186.45,-463.79 194.65,-470.51 197.05,-463.93"/>
<text text-anchor="middle" x="252.55" y="-498.38" font-family="Helvetica,sans-Serif" font-size="10.00"> &lt; &#39;i&#39;, 3 &gt;</text>
</g>
<!-- Node6 -->
<g id="node6" class="node">
<title>Node6</title>
<g id="a_node6"><a xlink:href="class_f_tensor_1_1_index.html" target="_top" xlink:title=" ">
<polygon fill="white" stroke="#666666" points="445.92,-457.25 328.67,-457.25 328.67,-438 445.92,-438 445.92,-457.25"/>
<text text-anchor="middle" x="387.3" y="-443.75" font-family="Helvetica,sans-Serif" font-size="10.00">FTensor::Index&lt; &#39;j&#39;, 3 &gt;</text>
</a>
</g>
</g>
<!-- Node5&#45;&gt;Node6 -->
<g id="edge6" class="edge">
<title>Node5&#45;&gt;Node6</title>
<path fill="none" stroke="orange" stroke-dasharray="5,2" d="M202.11,-447.62C240.35,-447.62 290.06,-447.62 328.2,-447.62"/>
<polygon fill="orange" stroke="orange" points="202.16,-444.13 192.16,-447.63 202.16,-451.13 202.16,-444.13"/>
<text text-anchor="middle" x="252.55" y="-449.38" font-family="Helvetica,sans-Serif" font-size="10.00"> &lt; &#39;j&#39;, 3 &gt;</text>
</g>
<!-- Node7 -->
<g id="node7" class="node">
<title>Node7</title>
<g id="a_node7"><a xlink:href="class_f_tensor_1_1_index.html" target="_top" xlink:title=" ">
<polygon fill="white" stroke="#666666" points="447.42,-420.25 327.17,-420.25 327.17,-401 447.42,-401 447.42,-420.25"/>
<text text-anchor="middle" x="387.3" y="-406.75" font-family="Helvetica,sans-Serif" font-size="10.00">FTensor::Index&lt; &#39;k&#39;, 3 &gt;</text>
</a>
</g>
</g>
<!-- Node5&#45;&gt;Node7 -->
<g id="edge8" class="edge">
<title>Node5&#45;&gt;Node7</title>
<path fill="none" stroke="orange" stroke-dasharray="5,2" d="M201.59,-435.07C206.64,-434.11 211.68,-433.19 216.55,-432.38 253.03,-426.24 294.17,-420.93 326.82,-417.09"/>
<polygon fill="orange" stroke="orange" points="201.19,-431.58 192.06,-436.94 202.54,-438.45 201.19,-431.58"/>
<text text-anchor="middle" x="252.55" y="-433.38" font-family="Helvetica,sans-Serif" font-size="10.00"> &lt; &#39;k&#39;, 3 &gt;</text>
</g>
<!-- Node6&#45;&gt;Node2 -->
<g id="edge5" class="edge">
<title>Node6&#45;&gt;Node2</title>
<path fill="none" stroke="#9a32cd" stroke-dasharray="5,2" d="M457.81,-448.9C514.55,-448.56 589.06,-444.49 612.8,-426.62 658.66,-392.1 668.29,-315.98 670.28,-288.64"/>
<polygon fill="#9a32cd" stroke="#9a32cd" points="457.87,-445.4 447.88,-448.92 457.88,-452.4 457.87,-445.4"/>
<text text-anchor="middle" x="549.42" y="-449.38" font-family="Helvetica,sans-Serif" font-size="10.00"> j</text>
</g>
<!-- Node7&#45;&gt;Node2 -->
<g id="edge7" class="edge">
<title>Node7&#45;&gt;Node2</title>
<path fill="none" stroke="#9a32cd" stroke-dasharray="5,2" d="M459.19,-412.68C515.4,-412.97 588.41,-409.94 612.8,-393.62 650.34,-368.51 664.75,-311.43 669.16,-288.46"/>
<polygon fill="#9a32cd" stroke="#9a32cd" points="459.38,-409.18 449.35,-412.59 459.31,-416.18 459.38,-409.18"/>
<text text-anchor="middle" x="549.42" y="-413.38" font-family="Helvetica,sans-Serif" font-size="10.00"> k</text>
</g>
<!-- Node8 -->
<g id="node8" class="node">
<title>Node8</title>
<g id="a_node8"><a xlink:title=" ">
<polygon fill="white" stroke="#666666" points="424.92,-229.25 349.67,-229.25 349.67,-210 424.92,-210 424.92,-229.25"/>
<text text-anchor="middle" x="387.3" y="-215.75" font-family="Helvetica,sans-Serif" font-size="10.00">VectorDouble</text>
</a>
</g>
</g>
<!-- Node8&#45;&gt;Node2 -->
<g id="edge9" class="edge">
<title>Node8&#45;&gt;Node2</title>
<path fill="none" stroke="#9a32cd" stroke-dasharray="5,2" d="M436.68,-210.31C483.59,-203.53 555.82,-199.16 612.8,-222.62 635.84,-232.11 654.88,-255.48 664.34,-268.84"/>
<polygon fill="#9a32cd" stroke="#9a32cd" points="436.17,-206.85 426.82,-211.84 437.24,-213.77 436.17,-206.85"/>
<text text-anchor="middle" x="549.42" y="-258.12" font-family="Helvetica,sans-Serif" font-size="10.00"> BodyDirectionScaled</text>
<text text-anchor="middle" x="549.42" y="-246.88" font-family="Helvetica,sans-Serif" font-size="10.00">BodyDispScaled</text>
<text text-anchor="middle" x="549.42" y="-235.62" font-family="Helvetica,sans-Serif" font-size="10.00">originCoords</text>
<text text-anchor="middle" x="549.42" y="-224.38" font-family="Helvetica,sans-Serif" font-size="10.00">rollerDisp</text>
</g>
<!-- Node9 -->
<g id="node9" class="node">
<title>Node9</title>
<g id="a_node9"><a xlink:href="classdouble.html" target="_top" xlink:title=" ">
<polygon fill="white" stroke="#666666" points="164.8,-152.25 120.3,-152.25 120.3,-133 164.8,-133 164.8,-152.25"/>
<text text-anchor="middle" x="142.55" y="-138.75" font-family="Helvetica,sans-Serif" font-size="10.00">double</text>
</a>
</g>
</g>
<!-- Node9&#45;&gt;Node1 -->
<g id="edge22" class="edge">
<title>Node9&#45;&gt;Node1</title>
<path fill="none" stroke="#9a32cd" stroke-dasharray="5,2" d="M169.63,-126.99C200.94,-109.05 255.63,-80.35 306.55,-66.62 472.1,-22 679.36,-34.63 767.09,-42.95"/>
<polygon fill="#9a32cd" stroke="#9a32cd" points="168.14,-123.81 161.25,-131.86 171.66,-129.86 168.14,-123.81"/>
<text text-anchor="middle" x="549.42" y="-40.38" font-family="Helvetica,sans-Serif" font-size="10.00"> sIze</text>
</g>
<!-- Node9&#45;&gt;Node2 -->
<g id="edge10" class="edge">
<title>Node9&#45;&gt;Node2</title>
<path fill="none" stroke="#9a32cd" stroke-dasharray="5,2" d="M176.41,-138.78C271.14,-128.38 542.51,-103.66 612.8,-152.62 653.11,-180.71 666.01,-244.04 669.58,-268.62"/>
<polygon fill="#9a32cd" stroke="#9a32cd" points="176.31,-135.27 166.76,-139.86 177.08,-142.22 176.31,-135.27"/>
<text text-anchor="middle" x="387.3" y="-129.38" font-family="Helvetica,sans-Serif" font-size="10.00"> gAp</text>
</g>
<!-- Node10 -->
<g id="node10" class="node">
<title>Node10</title>
<g id="a_node10"><a xlink:href="class_f_tensor_1_1_tensor1.html" target="_top" xlink:title=" ">
<polygon fill="white" stroke="#666666" points="462.05,-276.25 312.55,-276.25 312.55,-257 462.05,-257 462.05,-276.25"/>
<text text-anchor="middle" x="387.3" y="-262.75" font-family="Helvetica,sans-Serif" font-size="10.00">FTensor::Tensor1&lt; double, 3 &gt;</text>
</a>
</g>
</g>
<!-- Node9&#45;&gt;Node10 -->
<g id="edge12" class="edge">
<title>Node9&#45;&gt;Node10</title>
<path fill="none" stroke="#9a32cd" stroke-dasharray="5,2" d="M175.46,-154.46C183.72,-158.63 192.09,-163.98 198.55,-170.62 211.57,-184.03 202.61,-196.18 216.55,-208.62 245.12,-234.14 285.43,-248.52 319.59,-256.58"/>
<polygon fill="#9a32cd" stroke="#9a32cd" points="177.15,-151.38 166.6,-150.42 174.25,-157.75 177.15,-151.38"/>
<text text-anchor="middle" x="252.55" y="-250.38" font-family="Helvetica,sans-Serif" font-size="10.00"> data</text>
</g>
<!-- Node13 -->
<g id="node13" class="node">
<title>Node13</title>
<g id="a_node13"><a xlink:href="class_f_tensor_1_1_tensor2.html" target="_top" xlink:title=" ">
<polygon fill="white" stroke="#666666" points="453.42,-191.88 321.17,-191.88 321.17,-161.38 453.42,-161.38 453.42,-191.88"/>
<text text-anchor="start" x="329.17" y="-178.38" font-family="Helvetica,sans-Serif" font-size="10.00">FTensor::Tensor2&lt; double,</text>
<text text-anchor="middle" x="387.3" y="-167.12" font-family="Helvetica,sans-Serif" font-size="10.00"> 3, 3 &gt;</text>
</a>
</g>
</g>
<!-- Node9&#45;&gt;Node13 -->
<g id="edge16" class="edge">
<title>Node9&#45;&gt;Node13</title>
<path fill="none" stroke="#9a32cd" stroke-dasharray="5,2" d="M176.17,-147.19C213.03,-152.36 274,-160.9 320.79,-167.45"/>
<polygon fill="#9a32cd" stroke="#9a32cd" points="176.98,-143.77 166.59,-145.85 176.01,-150.71 176.98,-143.77"/>
<text text-anchor="middle" x="252.55" y="-165.38" font-family="Helvetica,sans-Serif" font-size="10.00"> data</text>
</g>
<!-- Node10&#45;&gt;Node2 -->
<g id="edge11" class="edge">
<title>Node10&#45;&gt;Node2</title>
<path fill="none" stroke="#9a32cd" stroke-dasharray="5,2" d="M473.78,-270.26C525.84,-272.47 589.95,-275.19 630.61,-276.92"/>
<polygon fill="#9a32cd" stroke="#9a32cd" points="474.18,-266.77 464.04,-269.84 473.88,-273.76 474.18,-266.77"/>
<text text-anchor="middle" x="549.42" y="-334.62" font-family="Helvetica,sans-Serif" font-size="10.00"> closestPoint</text>
<text text-anchor="middle" x="549.42" y="-323.38" font-family="Helvetica,sans-Serif" font-size="10.00">dGap</text>
<text text-anchor="middle" x="549.42" y="-312.12" font-family="Helvetica,sans-Serif" font-size="10.00">defaultOrientation</text>
<text text-anchor="middle" x="549.42" y="-300.88" font-family="Helvetica,sans-Serif" font-size="10.00">oRientation</text>
<text text-anchor="middle" x="549.42" y="-289.62" font-family="Helvetica,sans-Serif" font-size="10.00">pointCoords</text>
<text text-anchor="middle" x="549.42" y="-278.38" font-family="Helvetica,sans-Serif" font-size="10.00">tNormal</text>
</g>
<!-- Node11 -->
<g id="node11" class="node">
<title>Node11</title>
<g id="a_node11"><a xlink:href="class_f_tensor_1_1_tensor1.html" target="_top" xlink:title=" ">
<polygon fill="white" stroke="#666666" points="196.67,-277.88 88.42,-277.88 88.42,-247.38 196.67,-247.38 196.67,-277.88"/>
<text text-anchor="start" x="96.42" y="-264.38" font-family="Helvetica,sans-Serif" font-size="10.00">FTensor::Tensor1&lt; T,</text>
<text text-anchor="middle" x="142.55" y="-253.12" font-family="Helvetica,sans-Serif" font-size="10.00"> Tensor_Dim &gt;</text>
</a>
</g>
</g>
<!-- Node11&#45;&gt;Node10 -->
<g id="edge13" class="edge">
<title>Node11&#45;&gt;Node10</title>
<path fill="none" stroke="orange" stroke-dasharray="5,2" d="M208.56,-263.7C240.48,-264.22 279.08,-264.86 312.15,-265.4"/>
<polygon fill="orange" stroke="orange" points="208.69,-260.2 198.64,-263.53 208.58,-267.2 208.69,-260.2"/>
<text text-anchor="middle" x="252.55" y="-267.38" font-family="Helvetica,sans-Serif" font-size="10.00"> &lt; double, 3 &gt;</text>
</g>
<!-- Node12 -->
<g id="node12" class="node">
<title>Node12</title>
<g id="a_node12"><a xlink:title=" ">
<polygon fill="white" stroke="#666666" points="28.8,-244.25 0,-244.25 0,-225 28.8,-225 28.8,-244.25"/>
<text text-anchor="middle" x="14.4" y="-230.75" font-family="Helvetica,sans-Serif" font-size="10.00">T</text>
</a>
</g>
</g>
<!-- Node12&#45;&gt;Node11 -->
<g id="edge14" class="edge">
<title>Node12&#45;&gt;Node11</title>
<path fill="none" stroke="#9a32cd" stroke-dasharray="5,2" d="M39.8,-240.04C53.51,-243.08 71.18,-247.01 87.94,-250.73"/>
<polygon fill="#9a32cd" stroke="#9a32cd" points="40.9,-236.7 30.38,-237.95 39.38,-243.53 40.9,-236.7"/>
<text text-anchor="middle" x="57.67" y="-248.38" font-family="Helvetica,sans-Serif" font-size="10.00"> data</text>
</g>
<!-- Node14 -->
<g id="node14" class="node">
<title>Node14</title>
<g id="a_node14"><a xlink:href="class_f_tensor_1_1_tensor2.html" target="_top" xlink:title=" ">
<polygon fill="white" stroke="#666666" points="198.55,-221.5 86.55,-221.5 86.55,-179.75 198.55,-179.75 198.55,-221.5"/>
<text text-anchor="start" x="94.55" y="-208" font-family="Helvetica,sans-Serif" font-size="10.00">FTensor::Tensor2&lt; T,</text>
<text text-anchor="start" x="94.55" y="-196.75" font-family="Helvetica,sans-Serif" font-size="10.00"> Tensor_Dim0, Tensor</text>
<text text-anchor="middle" x="142.55" y="-185.5" font-family="Helvetica,sans-Serif" font-size="10.00">_Dim1 &gt;</text>
</a>
</g>
</g>
<!-- Node12&#45;&gt;Node14 -->
<g id="edge18" class="edge">
<title>Node12&#45;&gt;Node14</title>
<path fill="none" stroke="#9a32cd" stroke-dasharray="5,2" d="M39.88,-228.03C53.1,-224.46 69.99,-219.91 86.19,-215.55"/>
<polygon fill="#9a32cd" stroke="#9a32cd" points="39.11,-224.61 30.36,-230.59 40.93,-231.37 39.11,-224.61"/>
<text text-anchor="middle" x="57.67" y="-227.38" font-family="Helvetica,sans-Serif" font-size="10.00"> data</text>
</g>
<!-- Node13&#45;&gt;Node2 -->
<g id="edge15" class="edge">
<title>Node13&#45;&gt;Node2</title>
<path fill="none" stroke="#9a32cd" stroke-dasharray="5,2" d="M465.14,-159.45C511,-153.39 568.7,-153.46 612.8,-179.12 647.02,-199.04 663,-247.67 668.49,-268.68"/>
<polygon fill="#9a32cd" stroke="#9a32cd" points="464.64,-155.98 455.25,-160.89 465.65,-162.91 464.64,-155.98"/>
<text text-anchor="middle" x="549.42" y="-192.62" font-family="Helvetica,sans-Serif" font-size="10.00"> diffNormal</text>
<text text-anchor="middle" x="549.42" y="-181.38" font-family="Helvetica,sans-Serif" font-size="10.00">rotationMat</text>
</g>
<!-- Node14&#45;&gt;Node13 -->
<g id="edge17" class="edge">
<title>Node14&#45;&gt;Node13</title>
<path fill="none" stroke="orange" stroke-dasharray="5,2" d="M210.31,-194.02C244.74,-190.62 286.57,-186.48 320.81,-183.1"/>
<polygon fill="orange" stroke="orange" points="210.05,-190.53 200.44,-195 210.74,-197.5 210.05,-190.53"/>
<text text-anchor="middle" x="252.55" y="-195.38" font-family="Helvetica,sans-Serif" font-size="10.00"> &lt; double, 3, 3 &gt;</text>
</g>
<!-- Node15 -->
<g id="node15" class="node">
<title>Node15</title>
<g id="a_node15"><a xlink:title=" ">
<polygon fill="white" stroke="#666666" points="468.05,-95.25 306.55,-95.25 306.55,-76 468.05,-76 468.05,-95.25"/>
<text text-anchor="middle" x="387.3" y="-81.75" font-family="Helvetica,sans-Serif" font-size="10.00">shared_ptr&lt; TimeAccelerogram &gt;</text>
</a>
</g>
</g>
<!-- Node15&#45;&gt;Node2 -->
<g id="edge19" class="edge">
<title>Node15&#45;&gt;Node2</title>
<path fill="none" stroke="#9a32cd" stroke-dasharray="5,2" d="M435.83,-73.14C485.28,-63.17 562.37,-56.51 612.8,-95.12 669.57,-138.59 671.96,-237.62 671.21,-268.94"/>
<polygon fill="#9a32cd" stroke="#9a32cd" points="435.33,-69.66 426.29,-75.19 436.8,-76.51 435.33,-69.66"/>
<text text-anchor="middle" x="549.42" y="-108.62" font-family="Helvetica,sans-Serif" font-size="10.00"> methodOpForRollerDirection</text>
<text text-anchor="middle" x="549.42" y="-97.38" font-family="Helvetica,sans-Serif" font-size="10.00">methodOpForRollerPosition</text>
</g>
<!-- Node16 -->
<g id="node16" class="node">
<title>Node16</title>
<g id="a_node16"><a xlink:title=" ">
<polygon fill="white" stroke="#666666" points="435.05,-494.25 339.55,-494.25 339.55,-475 435.05,-475 435.05,-494.25"/>
<text text-anchor="middle" x="387.3" y="-480.75" font-family="Helvetica,sans-Serif" font-size="10.00">array&lt; double, 9 &gt;</text>
</a>
</g>
</g>
<!-- Node16&#45;&gt;Node2 -->
<g id="edge20" class="edge">
<title>Node16&#45;&gt;Node2</title>
<path fill="none" stroke="#9a32cd" stroke-dasharray="5,2" d="M446.71,-485.99C504.61,-486.12 588.14,-482.63 612.8,-462.62 668.2,-417.68 671.56,-320.15 671.13,-288.65"/>
<polygon fill="#9a32cd" stroke="#9a32cd" points="447.03,-482.49 437.01,-485.93 446.99,-489.49 447.03,-482.49"/>
<text text-anchor="middle" x="549.42" y="-486.38" font-family="Helvetica,sans-Serif" font-size="10.00"> dataForTags</text>
</g>
<!-- Node17 -->
<g id="node17" class="node">
<title>Node17</title>
<g id="a_node17"><a xlink:title=" ">
<polygon fill="white" stroke="#666666" points="702.3,-19.25 641.3,-19.25 641.3,0 702.3,0 702.3,-19.25"/>
<text text-anchor="middle" x="671.8" y="-5.75" font-family="Helvetica,sans-Serif" font-size="10.00">PetscBool</text>
</a>
</g>
</g>
<!-- Node17&#45;&gt;Node1 -->
<g id="edge21" class="edge">
<title>Node17&#45;&gt;Node1</title>
<path fill="none" stroke="#9a32cd" stroke-dasharray="5,2" d="M713.93,-14.64C725.57,-16.54 738.17,-19.08 749.55,-22.38 762.99,-26.27 777.45,-32.31 788.8,-37.51"/>
<polygon fill="#9a32cd" stroke="#9a32cd" points="714.59,-11.2 704.18,-13.16 713.54,-18.12 714.59,-11.2"/>
<text text-anchor="middle" x="740.17" y="-24.38" font-family="Helvetica,sans-Serif" font-size="10.00"> fLip</text>
</g>
</g>
</svg>
