<?xml version="1.0" encoding="UTF-8" standalone="no"?>
<!DOCTYPE svg PUBLIC "-//W3C//DTD SVG 1.1//EN"
 "http://www.w3.org/Graphics/SVG/1.1/DTD/svg11.dtd">
<!-- Generated by graphviz version 2.43.0 (0)
 -->
<!-- Title: MoFEM::PostProcBrokenMeshInMoab&lt; VolumeElementForcesAndSourcesCore &gt; Pages: 1 -->
<!--zoomable 560 -->
<svg id="main" version="1.1" xmlns="http://www.w3.org/2000/svg" xmlns:xlink="http://www.w3.org/1999/xlink" xml:space="preserve" onload="init(evt)">
<style type="text/css"><![CDATA[
.edge:hover path { stroke: red; }
.edge:hover polygon { stroke: red; fill: red; }
]]></style>
<script type="text/javascript"><![CDATA[
var edges = document.getElementsByTagName('g');
if (edges && edges.length) {
  for (var i=0;i<edges.length;i++) {
    if (edges[i].id.substr(0,4)=='edge') {
      edges[i].setAttribute('class','edge');
    }
  }
}
]]></script>
        <defs>
                <circle id="rim" cx="0" cy="0" r="7"/>
                <circle id="rim2" cx="0" cy="0" r="3.5"/>
                <g id="zoomPlus">
                        <use xlink:href="#rim" fill="#404040">
                                <set attributeName="fill" to="#808080" begin="zoomplus.mouseover" end="zoomplus.mouseout"/>
                        </use>
                        <path d="M-4,0h8M0,-4v8" fill="none" stroke="white" stroke-width="1.5" pointer-events="none"/>
                </g>
                <g id="zoomMin">
                        <use xlink:href="#rim" fill="#404040">
                                <set attributeName="fill" to="#808080" begin="zoomminus.mouseover" end="zoomminus.mouseout"/>
                        </use>
                        <path d="M-4,0h8" fill="none" stroke="white" stroke-width="1.5" pointer-events="none"/>
                </g>
                <g id="dirArrow">
                        <path fill="none" stroke="white" stroke-width="1.5" d="M0,-3.0v7 M-2.5,-0.5L0,-3.0L2.5,-0.5"/>
                </g>
               <g id="resetDef">
                       <use xlink:href="#rim2" fill="#404040">
                               <set attributeName="fill" to="#808080" begin="reset.mouseover" end="reset.mouseout"/>
                       </use>
               </g>
        </defs>

<script type="text/javascript">
var viewWidth = 491;
var viewHeight = 560;
var sectionId = 'dynsection-0';
</script>
<script xlink:href="svgpan.js"/>
<svg id="graph" class="graph">
<g id="viewport">
<title>MoFEM::PostProcBrokenMeshInMoab&lt; VolumeElementForcesAndSourcesCore &gt;</title>
<polygon fill="white" stroke="transparent" points="-4,4 -4,-556 486.5,-556 486.5,4 -4,4"/>
<!-- Node1 -->
<g id="node1" class="node">
<title>Node1</title>
<g id="a_node1"><a xlink:title=" ">
<polygon fill="#bfbfbf" stroke="black" points="185,-0.5 185,-41.5 376,-41.5 376,-0.5 185,-0.5"/>
<text text-anchor="start" x="193" y="-29.5" font-family="Helvetica,sans-Serif" font-size="10.00">MoFEM::PostProcBrokenMesh</text>
<text text-anchor="start" x="193" y="-18.5" font-family="Helvetica,sans-Serif" font-size="10.00">InMoab&lt; VolumeElementForcesAnd</text>
<text text-anchor="middle" x="280.5" y="-7.5" font-family="Helvetica,sans-Serif" font-size="10.00">SourcesCore &gt;</text>
</a>
</g>
</g>
<!-- Node2 -->
<g id="node2" class="node">
<title>Node2</title>
<g id="a_node2"><a xlink:href="structMoFEM_1_1PostProcBrokenMeshInMoabBase.html" target="_top" xlink:title=" ">
<polygon fill="white" stroke="black" points="182,-79.5 182,-120.5 379,-120.5 379,-79.5 182,-79.5"/>
<text text-anchor="start" x="190" y="-108.5" font-family="Helvetica,sans-Serif" font-size="10.00">MoFEM::PostProcBrokenMesh</text>
<text text-anchor="start" x="190" y="-97.5" font-family="Helvetica,sans-Serif" font-size="10.00">InMoabBase&lt; VolumeElementForces</text>
<text text-anchor="middle" x="280.5" y="-86.5" font-family="Helvetica,sans-Serif" font-size="10.00">AndSourcesCore &gt;</text>
</a>
</g>
</g>
<!-- Node2&#45;&gt;Node1 -->
<g id="edge1" class="edge">
<title>Node2&#45;&gt;Node1</title>
<path fill="none" stroke="midnightblue" d="M280.5,-68.91C280.5,-59.79 280.5,-50.02 280.5,-41.76"/>
<polygon fill="midnightblue" stroke="midnightblue" points="277,-69.17 280.5,-79.17 284,-69.17 277,-69.17"/>
</g>
<!-- Node3 -->
<g id="node3" class="node">
<title>Node3</title>
<g id="a_node3"><a xlink:href="structMoFEM_1_1VolumeElementForcesAndSourcesCore.html" target="_top" xlink:title="Volume finite element base.">
<polygon fill="white" stroke="black" points="107,-179.5 107,-209.5 274,-209.5 274,-179.5 107,-179.5"/>
<text text-anchor="start" x="115" y="-197.5" font-family="Helvetica,sans-Serif" font-size="10.00">MoFEM::VolumeElementForces</text>
<text text-anchor="middle" x="190.5" y="-186.5" font-family="Helvetica,sans-Serif" font-size="10.00">AndSourcesCore</text>
</a>
</g>
</g>
<!-- Node3&#45;&gt;Node2 -->
<g id="edge2" class="edge">
<title>Node3&#45;&gt;Node2</title>
<path fill="none" stroke="midnightblue" d="M211.53,-171.88C226.6,-156.4 246.73,-135.71 261.35,-120.68"/>
<polygon fill="midnightblue" stroke="midnightblue" points="208.63,-169.84 204.17,-179.45 213.65,-174.72 208.63,-169.84"/>
</g>
<!-- Node4 -->
<g id="node4" class="node">
<title>Node4</title>
<g id="a_node4"><a xlink:href="structMoFEM_1_1ForcesAndSourcesCore.html" target="_top" xlink:title="structure to get information form mofem into EntitiesFieldData">
<polygon fill="white" stroke="black" points="105.5,-247.5 105.5,-266.5 275.5,-266.5 275.5,-247.5 105.5,-247.5"/>
<text text-anchor="middle" x="190.5" y="-254.5" font-family="Helvetica,sans-Serif" font-size="10.00">MoFEM::ForcesAndSourcesCore</text>
</a>
</g>
</g>
<!-- Node4&#45;&gt;Node3 -->
<g id="edge3" class="edge">
<title>Node4&#45;&gt;Node3</title>
<path fill="none" stroke="midnightblue" d="M190.5,-237.22C190.5,-228.36 190.5,-217.96 190.5,-209.76"/>
<polygon fill="midnightblue" stroke="midnightblue" points="187,-237.33 190.5,-247.33 194,-237.33 187,-237.33"/>
</g>
<!-- Node5 -->
<g id="node5" class="node">
<title>Node5</title>
<g id="a_node5"><a xlink:href="structMoFEM_1_1FEMethod.html" target="_top" xlink:title="structure for User Loop Methods on finite elements">
<polygon fill="white" stroke="black" points="137,-304.5 137,-323.5 244,-323.5 244,-304.5 137,-304.5"/>
<text text-anchor="middle" x="190.5" y="-311.5" font-family="Helvetica,sans-Serif" font-size="10.00">MoFEM::FEMethod</text>
</a>
</g>
</g>
<!-- Node5&#45;&gt;Node4 -->
<g id="edge4" class="edge">
<title>Node5&#45;&gt;Node4</title>
<path fill="none" stroke="midnightblue" d="M190.5,-294.12C190.5,-284.82 190.5,-274.06 190.5,-266.71"/>
<polygon fill="midnightblue" stroke="midnightblue" points="187,-294.41 190.5,-304.41 194,-294.41 187,-294.41"/>
</g>
<!-- Node6 -->
<g id="node6" class="node">
<title>Node6</title>
<g id="a_node6"><a xlink:href="structMoFEM_1_1BasicMethod.html" target="_top" xlink:title="Data structure to exchange data between mofem and User Loop Methods.">
<polygon fill="white" stroke="black" points="129.5,-361.5 129.5,-380.5 251.5,-380.5 251.5,-361.5 129.5,-361.5"/>
<text text-anchor="middle" x="190.5" y="-368.5" font-family="Helvetica,sans-Serif" font-size="10.00">MoFEM::BasicMethod</text>
</a>
</g>
</g>
<!-- Node6&#45;&gt;Node5 -->
<g id="edge5" class="edge">
<title>Node6&#45;&gt;Node5</title>
<path fill="none" stroke="midnightblue" d="M190.5,-351.12C190.5,-341.82 190.5,-331.06 190.5,-323.71"/>
<polygon fill="midnightblue" stroke="midnightblue" points="187,-351.41 190.5,-361.41 194,-351.41 187,-351.41"/>
</g>
<!-- Node7 -->
<g id="node7" class="node">
<title>Node7</title>
<g id="a_node7"><a xlink:href="structMoFEM_1_1KspMethod.html" target="_top" xlink:title="data structure for ksp (linear solver) context">
<polygon fill="white" stroke="black" points="0,-418.5 0,-437.5 113,-437.5 113,-418.5 0,-418.5"/>
<text text-anchor="middle" x="56.5" y="-425.5" font-family="Helvetica,sans-Serif" font-size="10.00">MoFEM::KspMethod</text>
</a>
</g>
</g>
<!-- Node7&#45;&gt;Node6 -->
<g id="edge6" class="edge">
<title>Node7&#45;&gt;Node6</title>
<path fill="none" stroke="midnightblue" d="M86.93,-414.51C112.22,-404.13 147.54,-389.63 169.71,-380.53"/>
<polygon fill="midnightblue" stroke="midnightblue" points="85.36,-411.37 77.44,-418.41 88.02,-417.85 85.36,-411.37"/>
</g>
<!-- Node8 -->
<g id="node8" class="node">
<title>Node8</title>
<g id="a_node8"><a xlink:href="structMoFEM_1_1PetscData.html" target="_top" xlink:title=" ">
<polygon fill="white" stroke="black" points="136.5,-475.5 136.5,-494.5 244.5,-494.5 244.5,-475.5 136.5,-475.5"/>
<text text-anchor="middle" x="190.5" y="-482.5" font-family="Helvetica,sans-Serif" font-size="10.00">MoFEM::PetscData</text>
</a>
</g>
</g>
<!-- Node8&#45;&gt;Node7 -->
<g id="edge7" class="edge">
<title>Node8&#45;&gt;Node7</title>
<path fill="none" stroke="midnightblue" d="M160.07,-471.51C134.78,-461.13 99.46,-446.63 77.29,-437.53"/>
<polygon fill="midnightblue" stroke="midnightblue" points="158.98,-474.85 169.56,-475.41 161.64,-468.37 158.98,-474.85"/>
</g>
<!-- Node10 -->
<g id="node10" class="node">
<title>Node10</title>
<g id="a_node10"><a xlink:href="structMoFEM_1_1SnesMethod.html" target="_top" xlink:title="data structure for snes (nonlinear solver) context">
<polygon fill="white" stroke="black" points="131,-418.5 131,-437.5 250,-437.5 250,-418.5 131,-418.5"/>
<text text-anchor="middle" x="190.5" y="-425.5" font-family="Helvetica,sans-Serif" font-size="10.00">MoFEM::SnesMethod</text>
</a>
</g>
</g>
<!-- Node8&#45;&gt;Node10 -->
<g id="edge10" class="edge">
<title>Node8&#45;&gt;Node10</title>
<path fill="none" stroke="darkgreen" d="M190.5,-465.12C190.5,-455.82 190.5,-445.06 190.5,-437.71"/>
<polygon fill="darkgreen" stroke="darkgreen" points="187,-465.41 190.5,-475.41 194,-465.41 187,-465.41"/>
</g>
<!-- Node11 -->
<g id="node11" class="node">
<title>Node11</title>
<g id="a_node11"><a xlink:href="structMoFEM_1_1TSMethod.html" target="_top" xlink:title="data structure for TS (time stepping) context">
<polygon fill="white" stroke="black" points="268,-418.5 268,-437.5 375,-437.5 375,-418.5 268,-418.5"/>
<text text-anchor="middle" x="321.5" y="-425.5" font-family="Helvetica,sans-Serif" font-size="10.00">MoFEM::TSMethod</text>
</a>
</g>
</g>
<!-- Node8&#45;&gt;Node11 -->
<g id="edge12" class="edge">
<title>Node8&#45;&gt;Node11</title>
<path fill="none" stroke="darkgreen" d="M220.25,-471.51C244.97,-461.13 279.51,-446.63 301.17,-437.53"/>
<polygon fill="darkgreen" stroke="darkgreen" points="218.83,-468.31 210.97,-475.41 221.54,-474.76 218.83,-468.31"/>
</g>
<!-- Node9 -->
<g id="node9" class="node">
<title>Node9</title>
<g id="a_node9"><a xlink:href="structMoFEM_1_1UnknownInterface.html" target="_top" xlink:title="base class for all interface classes">
<polygon fill="white" stroke="black" points="116.5,-532.5 116.5,-551.5 264.5,-551.5 264.5,-532.5 116.5,-532.5"/>
<text text-anchor="middle" x="190.5" y="-539.5" font-family="Helvetica,sans-Serif" font-size="10.00">MoFEM::UnknownInterface</text>
</a>
</g>
</g>
<!-- Node9&#45;&gt;Node8 -->
<g id="edge8" class="edge">
<title>Node9&#45;&gt;Node8</title>
<path fill="none" stroke="midnightblue" d="M190.5,-522.12C190.5,-512.82 190.5,-502.06 190.5,-494.71"/>
<polygon fill="midnightblue" stroke="midnightblue" points="187,-522.41 190.5,-532.41 194,-522.41 187,-522.41"/>
</g>
<!-- Node10&#45;&gt;Node6 -->
<g id="edge9" class="edge">
<title>Node10&#45;&gt;Node6</title>
<path fill="none" stroke="midnightblue" d="M190.5,-408.12C190.5,-398.82 190.5,-388.06 190.5,-380.71"/>
<polygon fill="midnightblue" stroke="midnightblue" points="187,-408.41 190.5,-418.41 194,-408.41 187,-408.41"/>
</g>
<!-- Node11&#45;&gt;Node6 -->
<g id="edge11" class="edge">
<title>Node11&#45;&gt;Node6</title>
<path fill="none" stroke="midnightblue" d="M291.75,-414.51C267.03,-404.13 232.49,-389.63 210.83,-380.53"/>
<polygon fill="midnightblue" stroke="midnightblue" points="290.46,-417.76 301.03,-418.41 293.17,-411.31 290.46,-417.76"/>
</g>
<!-- Node12 -->
<g id="node12" class="node">
<title>Node12</title>
<g id="a_node12"><a xlink:href="structMoFEM_1_1PostProcBrokenMeshInMoabBase.html" target="_top" xlink:title=" ">
<polygon fill="white" stroke="black" points="292,-179.5 292,-209.5 453,-209.5 453,-179.5 292,-179.5"/>
<text text-anchor="start" x="300" y="-197.5" font-family="Helvetica,sans-Serif" font-size="10.00">MoFEM::PostProcBrokenMesh</text>
<text text-anchor="middle" x="372.5" y="-186.5" font-family="Helvetica,sans-Serif" font-size="10.00">InMoabBase&lt; E &gt;</text>
</a>
</g>
</g>
<!-- Node12&#45;&gt;Node2 -->
<g id="edge13" class="edge">
<title>Node12&#45;&gt;Node2</title>
<path fill="none" stroke="orange" stroke-dasharray="5,2" d="M351.42,-172.31C335.98,-156.78 315.16,-135.85 300.08,-120.68"/>
<polygon fill="orange" stroke="orange" points="348.99,-174.83 358.53,-179.45 353.96,-169.89 348.99,-174.83"/>
<text text-anchor="start" x="340.5" y="-153" font-family="Helvetica,sans-Serif" font-size="10.00"> &lt; VolumeElementForcesAnd</text>
<text text-anchor="middle" x="411.5" y="-142" font-family="Helvetica,sans-Serif" font-size="10.00">SourcesCore &gt;</text>
</g>
<!-- Node13 -->
<g id="node13" class="node">
<title>Node13</title>
<g id="a_node13"><a xlink:href="classE.html" target="_top" xlink:title=" ">
<polygon fill="white" stroke="black" points="358,-247.5 358,-266.5 387,-266.5 387,-247.5 358,-247.5"/>
<text text-anchor="middle" x="372.5" y="-254.5" font-family="Helvetica,sans-Serif" font-size="10.00">E</text>
</a>
</g>
</g>
<!-- Node13&#45;&gt;Node12 -->
<g id="edge14" class="edge">
<title>Node13&#45;&gt;Node12</title>
<path fill="none" stroke="midnightblue" d="M372.5,-237.22C372.5,-228.36 372.5,-217.96 372.5,-209.76"/>
<polygon fill="midnightblue" stroke="midnightblue" points="369,-237.33 372.5,-247.33 376,-237.33 369,-237.33"/>
</g>
</g>
</svg>
        <g id="navigator" transform="translate(0 0)" fill="#404254">
                <rect fill="#f2f5e9" fill-opacity="0.5" stroke="#606060" stroke-width=".5" x="0" y="0" width="60" height="60"/>
                <use id="zoomplus" xlink:href="#zoomPlus" x="17" y="9" onmousedown="handleZoom(evt,'in')"/>
                <use id="zoomminus" xlink:href="#zoomMin" x="42" y="9" onmousedown="handleZoom(evt,'out')"/>
                <use id="reset" xlink:href="#resetDef" x="30" y="36" onmousedown="handleReset()"/>
                <g id="arrowUp" xlink:href="#dirArrow" transform="translate(30 24)" onmousedown="handlePan(0,-1)">
                  <use xlink:href="#rim" fill="#404040">
                        <set attributeName="fill" to="#808080" begin="arrowUp.mouseover" end="arrowUp.mouseout"/>
                  </use>
                  <path fill="none" stroke="white" stroke-width="1.5" d="M0,-3.0v7 M-2.5,-0.5L0,-3.0L2.5,-0.5"/>
                </g>
                <g id="arrowRight" xlink:href="#dirArrow" transform="rotate(90) translate(36 -43)" onmousedown="handlePan(1,0)">
                  <use xlink:href="#rim" fill="#404040">
                        <set attributeName="fill" to="#808080" begin="arrowRight.mouseover" end="arrowRight.mouseout"/>
                  </use>
                  <path fill="none" stroke="white" stroke-width="1.5" d="M0,-3.0v7 M-2.5,-0.5L0,-3.0L2.5,-0.5"/>
                </g>
                <g id="arrowDown" xlink:href="#dirArrow" transform="rotate(180) translate(-30 -48)" onmousedown="handlePan(0,1)">
                  <use xlink:href="#rim" fill="#404040">
                        <set attributeName="fill" to="#808080" begin="arrowDown.mouseover" end="arrowDown.mouseout"/>
                  </use>
                  <path fill="none" stroke="white" stroke-width="1.5" d="M0,-3.0v7 M-2.5,-0.5L0,-3.0L2.5,-0.5"/>
                </g>
                <g id="arrowLeft" xlink:href="#dirArrow" transform="rotate(270) translate(-36 17)" onmousedown="handlePan(-1,0)">
                  <use xlink:href="#rim" fill="#404040">
                        <set attributeName="fill" to="#808080" begin="arrowLeft.mouseover" end="arrowLeft.mouseout"/>
                  </use>
                  <path fill="none" stroke="white" stroke-width="1.5" d="M0,-3.0v7 M-2.5,-0.5L0,-3.0L2.5,-0.5"/>
                </g>
        </g>
        <svg viewBox="0 0 15 15" width="100%" height="30px" preserveAspectRatio="xMaxYMin meet">
         <g id="arrow_out" transform="scale(0.3 0.3)">
          <a xlink:href="structMoFEM_1_1PostProcBrokenMeshInMoab_3_01VolumeElementForcesAndSourcesCore_01_4__inherit__graph_org.svg" target="_base">
           <rect id="button" ry="5" rx="5" y="6" x="6" height="38" width="38"
                fill="#f2f5e9" fill-opacity="0.5" stroke="#606060" stroke-width="1.0"/>
           <path id="arrow"
             d="M 11.500037,31.436501 C 11.940474,20.09759 22.043105,11.32322 32.158766,21.979434 L 37.068811,17.246167 C 37.068811,17.246167 37.088388,32 37.088388,32 L 22.160133,31.978069 C 22.160133,31.978069 26.997745,27.140456 26.997745,27.140456 C 18.528582,18.264221 13.291696,25.230495 11.500037,31.436501 z"
             style="fill:#404040;"/>
          </a>
         </g>
        </svg>
</svg>
