<?xml version="1.0" encoding="UTF-8" standalone="no"?>
<!DOCTYPE svg PUBLIC "-//W3C//DTD SVG 1.1//EN"
 "http://www.w3.org/Graphics/SVG/1.1/DTD/svg11.dtd">
<!-- Generated by graphviz version 2.43.0 (0)
 -->
<!-- Title: MoFEM::Problem Pages: 1 -->
<!--zoomable 561 -->
<svg id="main" version="1.1" xmlns="http://www.w3.org/2000/svg" xmlns:xlink="http://www.w3.org/1999/xlink" xml:space="preserve" onload="init(evt)">
<style type="text/css"><![CDATA[
.edge:hover path { stroke: red; }
.edge:hover polygon { stroke: red; fill: red; }
]]></style>
<script type="text/javascript"><![CDATA[
var edges = document.getElementsByTagName('g');
if (edges && edges.length) {
  for (var i=0;i<edges.length;i++) {
    if (edges[i].id.substr(0,4)=='edge') {
      edges[i].setAttribute('class','edge');
    }
  }
}
]]></script>
        <defs>
                <circle id="rim" cx="0" cy="0" r="7"/>
                <circle id="rim2" cx="0" cy="0" r="3.5"/>
                <g id="zoomPlus">
                        <use xlink:href="#rim" fill="#404040">
                                <set attributeName="fill" to="#808080" begin="zoomplus.mouseover" end="zoomplus.mouseout"/>
                        </use>
                        <path d="M-4,0h8M0,-4v8" fill="none" stroke="white" stroke-width="1.5" pointer-events="none"/>
                </g>
                <g id="zoomMin">
                        <use xlink:href="#rim" fill="#404040">
                                <set attributeName="fill" to="#808080" begin="zoomminus.mouseover" end="zoomminus.mouseout"/>
                        </use>
                        <path d="M-4,0h8" fill="none" stroke="white" stroke-width="1.5" pointer-events="none"/>
                </g>
                <g id="dirArrow">
                        <path fill="none" stroke="white" stroke-width="1.5" d="M0,-3.0v7 M-2.5,-0.5L0,-3.0L2.5,-0.5"/>
                </g>
               <g id="resetDef">
                       <use xlink:href="#rim2" fill="#404040">
                               <set attributeName="fill" to="#808080" begin="reset.mouseover" end="reset.mouseout"/>
                       </use>
               </g>
        </defs>

<script type="text/javascript">
var viewWidth = 482;
var viewHeight = 561;
var sectionId = 'dynsection-0';
</script>
<script xlink:href="svgpan.js"/>
<svg id="graph" class="graph">
<g id="viewport">
<title>MoFEM::Problem</title>
<polygon fill="white" stroke="transparent" points="-4,4 -4,-556.83 478,-556.83 478,4 -4,4"/>
<!-- Node1 -->
<g id="node1" class="node">
<title>Node1</title>
<g id="a_node1"><a xlink:title="keeps basic data about problem">
<polygon fill="#bfbfbf" stroke="black" points="375,-283.33 375,-302.33 474,-302.33 474,-283.33 375,-283.33"/>
<text text-anchor="middle" x="424.5" y="-290.33" font-family="Helvetica,sans-Serif" font-size="10.00">MoFEM::Problem</text>
</a>
</g>
</g>
<!-- Node2 -->
<g id="node2" class="node">
<title>Node2</title>
<g id="a_node2"><a xlink:title=" ">
<polygon fill="white" stroke="#bfbfbf" points="18,-514.83 18,-544.83 185,-544.83 185,-514.83 18,-514.83"/>
<text text-anchor="start" x="26" y="-532.83" font-family="Helvetica,sans-Serif" font-size="10.00">shared_ptr&lt; NumeredEntFinite</text>
<text text-anchor="middle" x="101.5" y="-521.83" font-family="Helvetica,sans-Serif" font-size="10.00">Element_multiIndex &gt;</text>
</a>
</g>
</g>
<!-- Node2&#45;&gt;Node1 -->
<g id="edge1" class="edge">
<title>Node2&#45;&gt;Node1</title>
<path fill="none" stroke="#9a32cd" stroke-dasharray="5,2" d="M195.31,-542.36C248.21,-544.32 312.6,-537.28 357,-500.83 420.29,-448.86 424.12,-336.51 423.77,-302.67"/>
<polygon fill="#9a32cd" stroke="#9a32cd" points="195.39,-538.86 185.23,-541.88 195.05,-545.86 195.39,-538.86"/>
<text text-anchor="middle" x="289" y="-544.83" font-family="Helvetica,sans-Serif" font-size="10.00"> numeredFiniteElementsPtr</text>
</g>
<!-- Node3 -->
<g id="node3" class="node">
<title>Node3</title>
<g id="a_node3"><a xlink:title=" ">
<polygon fill="white" stroke="#bfbfbf" points="72,-476.33 72,-495.33 131,-495.33 131,-476.33 72,-476.33"/>
<text text-anchor="middle" x="101.5" y="-483.33" font-family="Helvetica,sans-Serif" font-size="10.00">BitFEId *</text>
</a>
</g>
</g>
<!-- Node3&#45;&gt;Node1 -->
<g id="edge2" class="edge">
<title>Node3&#45;&gt;Node1</title>
<path fill="none" stroke="#9a32cd" stroke-dasharray="5,2" d="M141.55,-487.16C204.32,-488.52 323.97,-487.63 357,-462.83 410.73,-422.49 421.07,-332.37 423.04,-302.59"/>
<polygon fill="#9a32cd" stroke="#9a32cd" points="141.34,-483.65 131.25,-486.9 141.17,-490.65 141.34,-483.65"/>
<text text-anchor="middle" x="289" y="-488.83" font-family="Helvetica,sans-Serif" font-size="10.00"> tagBitFEId</text>
</g>
<!-- Node4 -->
<g id="node4" class="node">
<title>Node4</title>
<g id="a_node4"><a xlink:href="classEntityHandle.html" target="_top" xlink:title=" ">
<polygon fill="white" stroke="black" points="61.5,-438.33 61.5,-457.33 141.5,-457.33 141.5,-438.33 61.5,-438.33"/>
<text text-anchor="middle" x="101.5" y="-445.33" font-family="Helvetica,sans-Serif" font-size="10.00">EntityHandle</text>
</a>
</g>
</g>
<!-- Node4&#45;&gt;Node1 -->
<g id="edge3" class="edge">
<title>Node4&#45;&gt;Node1</title>
<path fill="none" stroke="#9a32cd" stroke-dasharray="5,2" d="M151.86,-449.15C216.3,-449.93 324.68,-447.78 357,-425.83 400.99,-395.94 417.24,-328.03 421.91,-302.64"/>
<polygon fill="#9a32cd" stroke="#9a32cd" points="151.58,-445.64 141.53,-448.99 151.47,-452.64 151.58,-445.64"/>
<text text-anchor="middle" x="289" y="-450.83" font-family="Helvetica,sans-Serif" font-size="10.00"> meshset</text>
</g>
<!-- Node5 -->
<g id="node5" class="node">
<title>Node5</title>
<g id="a_node5"><a xlink:title=" ">
<polygon fill="white" stroke="#bfbfbf" points="27,-388.83 27,-418.83 176,-418.83 176,-388.83 27,-388.83"/>
<text text-anchor="start" x="35" y="-406.83" font-family="Helvetica,sans-Serif" font-size="10.00">shared_ptr&lt; MoFEM::</text>
<text text-anchor="middle" x="101.5" y="-395.83" font-family="Helvetica,sans-Serif" font-size="10.00">ComposedProblemsData &gt;</text>
</a>
</g>
</g>
<!-- Node5&#45;&gt;Node1 -->
<g id="edge4" class="edge">
<title>Node5&#45;&gt;Node1</title>
<path fill="none" stroke="#9a32cd" stroke-dasharray="5,2" d="M186.45,-413.32C238.65,-415.33 305.41,-410.53 357,-381.83 389.87,-363.54 411.25,-321.47 419.57,-302.46"/>
<polygon fill="#9a32cd" stroke="#9a32cd" points="186.37,-409.81 176.22,-412.84 186.04,-416.81 186.37,-409.81"/>
<text text-anchor="middle" x="289" y="-415.83" font-family="Helvetica,sans-Serif" font-size="10.00"> composedProblemsData</text>
</g>
<!-- Node6 -->
<g id="node6" class="node">
<title>Node6</title>
<g id="a_node6"><a xlink:title=" ">
<polygon fill="white" stroke="#bfbfbf" points="61,-350.33 61,-369.33 142,-369.33 142,-350.33 61,-350.33"/>
<text text-anchor="middle" x="101.5" y="-357.33" font-family="Helvetica,sans-Serif" font-size="10.00">BitRefLevel *</text>
</a>
</g>
</g>
<!-- Node6&#45;&gt;Node1 -->
<g id="edge5" class="edge">
<title>Node6&#45;&gt;Node1</title>
<path fill="none" stroke="#9a32cd" stroke-dasharray="5,2" d="M152.46,-360.84C204.77,-360.46 288.68,-355.74 357,-332.83 377.44,-325.97 398.3,-312.06 411.08,-302.59"/>
<polygon fill="#9a32cd" stroke="#9a32cd" points="152.42,-357.34 142.43,-360.86 152.44,-364.34 152.42,-357.34"/>
<text text-anchor="middle" x="289" y="-370.83" font-family="Helvetica,sans-Serif" font-size="10.00"> tagBitRefLevelMask</text>
<text text-anchor="middle" x="289" y="-359.83" font-family="Helvetica,sans-Serif" font-size="10.00">tagBitRefLevel</text>
</g>
<!-- Node7 -->
<g id="node7" class="node">
<title>Node7</title>
<g id="a_node7"><a xlink:title=" ">
<polygon fill="white" stroke="#bfbfbf" points="16.5,-300.83 16.5,-330.83 186.5,-330.83 186.5,-300.83 16.5,-300.83"/>
<text text-anchor="start" x="24.5" y="-318.83" font-family="Helvetica,sans-Serif" font-size="10.00">shared_ptr&lt; NumeredDofEntity</text>
<text text-anchor="middle" x="101.5" y="-307.83" font-family="Helvetica,sans-Serif" font-size="10.00">_multiIndex &gt;</text>
</a>
</g>
</g>
<!-- Node7&#45;&gt;Node1 -->
<g id="edge6" class="edge">
<title>Node7&#45;&gt;Node1</title>
<path fill="none" stroke="#9a32cd" stroke-dasharray="5,2" d="M197.17,-309.04C255.42,-304.87 327.66,-299.69 374.63,-296.33"/>
<polygon fill="#9a32cd" stroke="#9a32cd" points="196.56,-305.58 186.84,-309.78 197.06,-312.56 196.56,-305.58"/>
<text text-anchor="middle" x="289" y="-320.83" font-family="Helvetica,sans-Serif" font-size="10.00"> numeredRowDofsPtr</text>
<text text-anchor="middle" x="289" y="-309.83" font-family="Helvetica,sans-Serif" font-size="10.00">numeredColDofsPtr</text>
</g>
<!-- Node8 -->
<g id="node8" class="node">
<title>Node8</title>
<g id="a_node8"><a xlink:title=" ">
<polygon fill="white" stroke="#bfbfbf" points="82.5,-262.33 82.5,-281.33 120.5,-281.33 120.5,-262.33 82.5,-262.33"/>
<text text-anchor="middle" x="101.5" y="-269.33" font-family="Helvetica,sans-Serif" font-size="10.00">char</text>
</a>
</g>
</g>
<!-- Node8&#45;&gt;Node1 -->
<g id="edge7" class="edge">
<title>Node8&#45;&gt;Node1</title>
<path fill="none" stroke="#9a32cd" stroke-dasharray="5,2" d="M130.83,-271.51C177.93,-271.27 275.23,-272.05 357,-280.83 362.95,-281.46 369.17,-282.32 375.31,-283.29"/>
<polygon fill="#9a32cd" stroke="#9a32cd" points="130.75,-268.01 120.77,-271.58 130.79,-275.01 130.75,-268.01"/>
<text text-anchor="middle" x="289" y="-283.83" font-family="Helvetica,sans-Serif" font-size="10.00"> tagName</text>
</g>
<!-- Node9 -->
<g id="node9" class="node">
<title>Node9</title>
<g id="a_node9"><a xlink:title=" ">
<polygon fill="white" stroke="#bfbfbf" points="32.5,-224.33 32.5,-243.33 170.5,-243.33 170.5,-224.33 32.5,-224.33"/>
<text text-anchor="middle" x="101.5" y="-231.33" font-family="Helvetica,sans-Serif" font-size="10.00">vector&lt; BlockFieldPair &gt;</text>
</a>
</g>
</g>
<!-- Node9&#45;&gt;Node1 -->
<g id="edge8" class="edge">
<title>Node9&#45;&gt;Node1</title>
<path fill="none" stroke="#9a32cd" stroke-dasharray="5,2" d="M180.63,-232.78C231.79,-234.05 299.56,-239.49 357,-256.83 376.48,-262.71 396.75,-274.66 409.71,-283.18"/>
<polygon fill="#9a32cd" stroke="#9a32cd" points="180.69,-229.28 170.63,-232.58 180.55,-236.28 180.69,-229.28"/>
<text text-anchor="middle" x="289" y="-259.83" font-family="Helvetica,sans-Serif" font-size="10.00"> emptyFieldBlocks</text>
</g>
<!-- Node10 -->
<g id="node10" class="node">
<title>Node10</title>
<g id="a_node10"><a xlink:title=" ">
<polygon fill="white" stroke="#bfbfbf" points="23.5,-174.83 23.5,-204.83 179.5,-204.83 179.5,-174.83 23.5,-174.83"/>
<text text-anchor="start" x="31.5" y="-192.83" font-family="Helvetica,sans-Serif" font-size="10.00">shared_ptr&lt; MoFEM::</text>
<text text-anchor="middle" x="101.5" y="-181.83" font-family="Helvetica,sans-Serif" font-size="10.00">Problem::SubProblemData &gt;</text>
</a>
</g>
</g>
<!-- Node10&#45;&gt;Node1 -->
<g id="edge9" class="edge">
<title>Node10&#45;&gt;Node1</title>
<path fill="none" stroke="#9a32cd" stroke-dasharray="5,2" d="M189.84,-185.27C241.12,-186.11 305.71,-193.47 357,-219.83 385.67,-234.56 408.09,-267.02 417.98,-283.23"/>
<polygon fill="#9a32cd" stroke="#9a32cd" points="189.8,-181.77 179.78,-185.19 189.75,-188.77 189.8,-181.77"/>
<text text-anchor="middle" x="289" y="-222.83" font-family="Helvetica,sans-Serif" font-size="10.00"> subProblemData</text>
</g>
<!-- Node11 -->
<g id="node11" class="node">
<title>Node11</title>
<g id="a_node11"><a xlink:title=" ">
<polygon fill="white" stroke="#bfbfbf" points="87,-98.33 87,-117.33 116,-117.33 116,-98.33 87,-98.33"/>
<text text-anchor="middle" x="101.5" y="-105.33" font-family="Helvetica,sans-Serif" font-size="10.00">int</text>
</a>
</g>
</g>
<!-- Node11&#45;&gt;Node1 -->
<g id="edge10" class="edge">
<title>Node11&#45;&gt;Node1</title>
<path fill="none" stroke="#9a32cd" stroke-dasharray="5,2" d="M126.03,-104.16C181.85,-95.99 320.38,-78.94 357,-104.83 417.78,-147.8 423.37,-251.19 423.61,-283.21"/>
<polygon fill="#9a32cd" stroke="#9a32cd" points="125.39,-100.72 116.02,-105.66 126.43,-107.64 125.39,-100.72"/>
<text text-anchor="middle" x="289" y="-173.83" font-family="Helvetica,sans-Serif" font-size="10.00"> tagNameSize</text>
<text text-anchor="middle" x="289" y="-162.83" font-family="Helvetica,sans-Serif" font-size="10.00">nbDofsRow</text>
<text text-anchor="middle" x="289" y="-151.83" font-family="Helvetica,sans-Serif" font-size="10.00">nbLocDofsCol</text>
<text text-anchor="middle" x="289" y="-140.83" font-family="Helvetica,sans-Serif" font-size="10.00">nbDofsCol</text>
<text text-anchor="middle" x="289" y="-129.83" font-family="Helvetica,sans-Serif" font-size="10.00">nbGhostDofsRow</text>
<text text-anchor="middle" x="289" y="-118.83" font-family="Helvetica,sans-Serif" font-size="10.00">nbGhostDofsCol</text>
<text text-anchor="middle" x="289" y="-107.83" font-family="Helvetica,sans-Serif" font-size="10.00">nbLocDofsRow</text>
</g>
<!-- Node12 -->
<g id="node12" class="node">
<title>Node12</title>
<g id="a_node12"><a xlink:title=" ">
<polygon fill="white" stroke="#bfbfbf" points="0,-53.33 0,-72.33 203,-72.33 203,-53.33 0,-53.33"/>
<text text-anchor="middle" x="101.5" y="-60.33" font-family="Helvetica,sans-Serif" font-size="10.00">shared_ptr&lt; SequenceDofContainer &gt;</text>
</a>
</g>
</g>
<!-- Node12&#45;&gt;Node1 -->
<g id="edge11" class="edge">
<title>Node12&#45;&gt;Node1</title>
<path fill="none" stroke="#9a32cd" stroke-dasharray="5,2" d="M193.64,-52.44C256.06,-47.37 331.92,-45.86 357,-64.83 393.51,-92.43 416.71,-243.62 422.22,-283.29"/>
<polygon fill="#9a32cd" stroke="#9a32cd" points="193.02,-48.98 183.35,-53.32 193.61,-55.96 193.02,-48.98"/>
<text text-anchor="middle" x="289" y="-78.83" font-family="Helvetica,sans-Serif" font-size="10.00"> sequenceRowDofContainer</text>
<text text-anchor="middle" x="289" y="-67.83" font-family="Helvetica,sans-Serif" font-size="10.00">sequenceColDofContainer</text>
</g>
<!-- Node13 -->
<g id="node13" class="node">
<title>Node13</title>
<g id="a_node13"><a xlink:title=" ">
<polygon fill="white" stroke="#bfbfbf" points="57.5,-15.33 57.5,-34.33 145.5,-34.33 145.5,-15.33 57.5,-15.33"/>
<text text-anchor="middle" x="101.5" y="-22.33" font-family="Helvetica,sans-Serif" font-size="10.00">BitProblemId *</text>
</a>
</g>
</g>
<!-- Node13&#45;&gt;Node1 -->
<g id="edge12" class="edge">
<title>Node13&#45;&gt;Node1</title>
<path fill="none" stroke="#9a32cd" stroke-dasharray="5,2" d="M143.74,-12.84C198.81,0.44 296.42,14.06 357,-34.83 397.32,-67.36 417.99,-240.49 422.53,-283.26"/>
<polygon fill="#9a32cd" stroke="#9a32cd" points="142.82,-9.46 133.97,-15.3 144.53,-16.25 142.82,-9.46"/>
<text text-anchor="middle" x="289" y="-37.83" font-family="Helvetica,sans-Serif" font-size="10.00"> tagId</text>
</g>
</g>
</svg>
        <g id="navigator" transform="translate(0 0)" fill="#404254">
                <rect fill="#f2f5e9" fill-opacity="0.5" stroke="#606060" stroke-width=".5" x="0" y="0" width="60" height="60"/>
                <use id="zoomplus" xlink:href="#zoomPlus" x="17" y="9" onmousedown="handleZoom(evt,'in')"/>
                <use id="zoomminus" xlink:href="#zoomMin" x="42" y="9" onmousedown="handleZoom(evt,'out')"/>
                <use id="reset" xlink:href="#resetDef" x="30" y="36" onmousedown="handleReset()"/>
                <g id="arrowUp" xlink:href="#dirArrow" transform="translate(30 24)" onmousedown="handlePan(0,-1)">
                  <use xlink:href="#rim" fill="#404040">
                        <set attributeName="fill" to="#808080" begin="arrowUp.mouseover" end="arrowUp.mouseout"/>
                  </use>
                  <path fill="none" stroke="white" stroke-width="1.5" d="M0,-3.0v7 M-2.5,-0.5L0,-3.0L2.5,-0.5"/>
                </g>
                <g id="arrowRight" xlink:href="#dirArrow" transform="rotate(90) translate(36 -43)" onmousedown="handlePan(1,0)">
                  <use xlink:href="#rim" fill="#404040">
                        <set attributeName="fill" to="#808080" begin="arrowRight.mouseover" end="arrowRight.mouseout"/>
                  </use>
                  <path fill="none" stroke="white" stroke-width="1.5" d="M0,-3.0v7 M-2.5,-0.5L0,-3.0L2.5,-0.5"/>
                </g>
                <g id="arrowDown" xlink:href="#dirArrow" transform="rotate(180) translate(-30 -48)" onmousedown="handlePan(0,1)">
                  <use xlink:href="#rim" fill="#404040">
                        <set attributeName="fill" to="#808080" begin="arrowDown.mouseover" end="arrowDown.mouseout"/>
                  </use>
                  <path fill="none" stroke="white" stroke-width="1.5" d="M0,-3.0v7 M-2.5,-0.5L0,-3.0L2.5,-0.5"/>
                </g>
                <g id="arrowLeft" xlink:href="#dirArrow" transform="rotate(270) translate(-36 17)" onmousedown="handlePan(-1,0)">
                  <use xlink:href="#rim" fill="#404040">
                        <set attributeName="fill" to="#808080" begin="arrowLeft.mouseover" end="arrowLeft.mouseout"/>
                  </use>
                  <path fill="none" stroke="white" stroke-width="1.5" d="M0,-3.0v7 M-2.5,-0.5L0,-3.0L2.5,-0.5"/>
                </g>
        </g>
        <svg viewBox="0 0 15 15" width="100%" height="30px" preserveAspectRatio="xMaxYMin meet">
         <g id="arrow_out" transform="scale(0.3 0.3)">
          <a xlink:href="structMoFEM_1_1Problem__coll__graph_org.svg" target="_base">
           <rect id="button" ry="5" rx="5" y="6" x="6" height="38" width="38"
                fill="#f2f5e9" fill-opacity="0.5" stroke="#606060" stroke-width="1.0"/>
           <path id="arrow"
             d="M 11.500037,31.436501 C 11.940474,20.09759 22.043105,11.32322 32.158766,21.979434 L 37.068811,17.246167 C 37.068811,17.246167 37.088388,32 37.088388,32 L 22.160133,31.978069 C 22.160133,31.978069 26.997745,27.140456 26.997745,27.140456 C 18.528582,18.264221 13.291696,25.230495 11.500037,31.436501 z"
             style="fill:#404040;"/>
          </a>
         </g>
        </svg>
</svg>
