<?xml version="1.0" encoding="UTF-8" standalone="no"?>
<!DOCTYPE svg PUBLIC "-//W3C//DTD SVG 1.1//EN"
 "http://www.w3.org/Graphics/SVG/1.1/DTD/svg11.dtd">
<!-- Generated by graphviz version 2.43.0 (0)
 -->
<!-- Title: SimpleContactProblem::OpGetGaussPtsState Pages: 1 -->
<!--zoomable 192 -->
<svg id="main" version="1.1" xmlns="http://www.w3.org/2000/svg" xmlns:xlink="http://www.w3.org/1999/xlink" xml:space="preserve" onload="init(evt)">
<style type="text/css"><![CDATA[
.edge:hover path { stroke: red; }
.edge:hover polygon { stroke: red; fill: red; }
]]></style>
<script type="text/javascript"><![CDATA[
var edges = document.getElementsByTagName('g');
if (edges && edges.length) {
  for (var i=0;i<edges.length;i++) {
    if (edges[i].id.substr(0,4)=='edge') {
      edges[i].setAttribute('class','edge');
    }
  }
}
]]></script>
        <defs>
                <circle id="rim" cx="0" cy="0" r="7"/>
                <circle id="rim2" cx="0" cy="0" r="3.5"/>
                <g id="zoomPlus">
                        <use xlink:href="#rim" fill="#404040">
                                <set attributeName="fill" to="#808080" begin="zoomplus.mouseover" end="zoomplus.mouseout"/>
                        </use>
                        <path d="M-4,0h8M0,-4v8" fill="none" stroke="white" stroke-width="1.5" pointer-events="none"/>
                </g>
                <g id="zoomMin">
                        <use xlink:href="#rim" fill="#404040">
                                <set attributeName="fill" to="#808080" begin="zoomminus.mouseover" end="zoomminus.mouseout"/>
                        </use>
                        <path d="M-4,0h8" fill="none" stroke="white" stroke-width="1.5" pointer-events="none"/>
                </g>
                <g id="dirArrow">
                        <path fill="none" stroke="white" stroke-width="1.5" d="M0,-3.0v7 M-2.5,-0.5L0,-3.0L2.5,-0.5"/>
                </g>
               <g id="resetDef">
                       <use xlink:href="#rim2" fill="#404040">
                               <set attributeName="fill" to="#808080" begin="reset.mouseover" end="reset.mouseout"/>
                       </use>
               </g>
        </defs>

<script type="text/javascript">
var viewWidth = 526;
var viewHeight = 192;
var sectionId = 'dynsection-1';
</script>
<script xlink:href="svgpan.js"/>
<svg id="graph" class="graph">
<g id="viewport">
<title>SimpleContactProblem::OpGetGaussPtsState</title>
<polygon fill="white" stroke="transparent" points="-4,4 -4,-188 522,-188 522,4 -4,4"/>
<!-- Node1 -->
<g id="node1" class="node">
<title>Node1</title>
<g id="a_node1"><a xlink:title=" ">
<polygon fill="#bfbfbf" stroke="black" points="390,-71 390,-101 518,-101 518,-71 390,-71"/>
<text text-anchor="start" x="398" y="-89" font-family="Helvetica,sans-Serif" font-size="10.00">SimpleContactProblem</text>
<text text-anchor="middle" x="454" y="-78" font-family="Helvetica,sans-Serif" font-size="10.00">::OpGetGaussPtsState</text>
</a>
</g>
</g>
<!-- Node2 -->
<g id="node2" class="node">
<title>Node2</title>
<g id="a_node2"><a xlink:href="classContactOp.html" target="_top" xlink:title=" ">
<polygon fill="white" stroke="black" points="72.5,-164.5 72.5,-183.5 140.5,-183.5 140.5,-164.5 72.5,-164.5"/>
<text text-anchor="middle" x="106.5" y="-171.5" font-family="Helvetica,sans-Serif" font-size="10.00">ContactOp</text>
</a>
</g>
</g>
<!-- Node2&#45;&gt;Node1 -->
<g id="edge1" class="edge">
<title>Node2&#45;&gt;Node1</title>
<path fill="none" stroke="midnightblue" d="M150.71,-171.88C204.05,-168.21 296.92,-158.3 372,-132 393.37,-124.51 415.59,-111.46 431.34,-101.16"/>
<polygon fill="midnightblue" stroke="midnightblue" points="150.34,-168.4 140.59,-172.54 150.79,-175.39 150.34,-168.4"/>
</g>
<!-- Node3 -->
<g id="node3" class="node">
<title>Node3</title>
<g id="a_node3"><a xlink:title=" ">
<polygon fill="white" stroke="#bfbfbf" points="0,-115 0,-145 213,-145 213,-115 0,-115"/>
<text text-anchor="start" x="8" y="-133" font-family="Helvetica,sans-Serif" font-size="10.00">shared_ptr&lt; SimpleContact</text>
<text text-anchor="middle" x="106.5" y="-122" font-family="Helvetica,sans-Serif" font-size="10.00">Problem::CommonDataSimpleContact &gt;</text>
</a>
</g>
</g>
<!-- Node3&#45;&gt;Node1 -->
<g id="edge2" class="edge">
<title>Node3&#45;&gt;Node1</title>
<path fill="none" stroke="#9a32cd" stroke-dasharray="5,2" d="M223.34,-119.17C269.67,-114.35 323.46,-108.15 372,-101 377.8,-100.15 383.82,-99.18 389.84,-98.16"/>
<polygon fill="#9a32cd" stroke="#9a32cd" points="222.86,-115.7 213.27,-120.21 223.58,-122.67 222.86,-115.7"/>
<text text-anchor="middle" x="301.5" y="-120" font-family="Helvetica,sans-Serif" font-size="10.00"> commonDataSimpleContact</text>
</g>
<!-- Node4 -->
<g id="node4" class="node">
<title>Node4</title>
<g id="a_node4"><a xlink:href="classdouble.html" target="_top" xlink:title=" ">
<polygon fill="white" stroke="black" points="81.5,-76.5 81.5,-95.5 131.5,-95.5 131.5,-76.5 81.5,-76.5"/>
<text text-anchor="middle" x="106.5" y="-83.5" font-family="Helvetica,sans-Serif" font-size="10.00">double</text>
</a>
</g>
</g>
<!-- Node4&#45;&gt;Node1 -->
<g id="edge3" class="edge">
<title>Node4&#45;&gt;Node1</title>
<path fill="none" stroke="#9a32cd" stroke-dasharray="5,2" d="M141.56,-86C199.21,-86 316.84,-86 389.89,-86"/>
<polygon fill="#9a32cd" stroke="#9a32cd" points="141.52,-82.5 131.52,-86 141.52,-89.5 141.52,-82.5"/>
<text text-anchor="middle" x="301.5" y="-89" font-family="Helvetica,sans-Serif" font-size="10.00"> cN</text>
</g>
<!-- Node5 -->
<g id="node5" class="node">
<title>Node5</title>
<g id="a_node5"><a xlink:href="classbool.html" target="_top" xlink:title=" ">
<polygon fill="white" stroke="black" points="87.5,-38.5 87.5,-57.5 125.5,-57.5 125.5,-38.5 87.5,-38.5"/>
<text text-anchor="middle" x="106.5" y="-45.5" font-family="Helvetica,sans-Serif" font-size="10.00">bool</text>
</a>
</g>
</g>
<!-- Node5&#45;&gt;Node1 -->
<g id="edge4" class="edge">
<title>Node5&#45;&gt;Node1</title>
<path fill="none" stroke="#9a32cd" stroke-dasharray="5,2" d="M135.55,-49.55C183.96,-52.42 286.22,-59.36 372,-71 377.81,-71.79 383.84,-72.71 389.86,-73.7"/>
<polygon fill="#9a32cd" stroke="#9a32cd" points="135.71,-46.05 125.53,-48.97 135.31,-53.04 135.71,-46.05"/>
<text text-anchor="middle" x="301.5" y="-74" font-family="Helvetica,sans-Serif" font-size="10.00"> almFlag</text>
</g>
<!-- Node6 -->
<g id="node6" class="node">
<title>Node6</title>
<g id="a_node6"><a xlink:title=" ">
<polygon fill="white" stroke="#bfbfbf" points="65.5,-0.5 65.5,-19.5 147.5,-19.5 147.5,-0.5 65.5,-0.5"/>
<text text-anchor="middle" x="106.5" y="-7.5" font-family="Helvetica,sans-Serif" font-size="10.00">VectorDouble</text>
</a>
</g>
</g>
<!-- Node6&#45;&gt;Node1 -->
<g id="edge5" class="edge">
<title>Node6&#45;&gt;Node1</title>
<path fill="none" stroke="#9a32cd" stroke-dasharray="5,2" d="M157.53,-10.12C211.65,-11.56 299.86,-17.74 372,-41 393.44,-47.91 415.65,-60.72 431.38,-70.91"/>
<polygon fill="#9a32cd" stroke="#9a32cd" points="157.58,-6.62 147.51,-9.9 157.43,-13.62 157.58,-6.62"/>
<text text-anchor="middle" x="301.5" y="-44" font-family="Helvetica,sans-Serif" font-size="10.00"> vecR</text>
</g>
</g>
</svg>
        <g id="navigator" transform="translate(0 0)" fill="#404254">
                <rect fill="#f2f5e9" fill-opacity="0.5" stroke="#606060" stroke-width=".5" x="0" y="0" width="60" height="60"/>
                <use id="zoomplus" xlink:href="#zoomPlus" x="17" y="9" onmousedown="handleZoom(evt,'in')"/>
                <use id="zoomminus" xlink:href="#zoomMin" x="42" y="9" onmousedown="handleZoom(evt,'out')"/>
                <use id="reset" xlink:href="#resetDef" x="30" y="36" onmousedown="handleReset()"/>
                <g id="arrowUp" xlink:href="#dirArrow" transform="translate(30 24)" onmousedown="handlePan(0,-1)">
                  <use xlink:href="#rim" fill="#404040">
                        <set attributeName="fill" to="#808080" begin="arrowUp.mouseover" end="arrowUp.mouseout"/>
                  </use>
                  <path fill="none" stroke="white" stroke-width="1.5" d="M0,-3.0v7 M-2.5,-0.5L0,-3.0L2.5,-0.5"/>
                </g>
                <g id="arrowRight" xlink:href="#dirArrow" transform="rotate(90) translate(36 -43)" onmousedown="handlePan(1,0)">
                  <use xlink:href="#rim" fill="#404040">
                        <set attributeName="fill" to="#808080" begin="arrowRight.mouseover" end="arrowRight.mouseout"/>
                  </use>
                  <path fill="none" stroke="white" stroke-width="1.5" d="M0,-3.0v7 M-2.5,-0.5L0,-3.0L2.5,-0.5"/>
                </g>
                <g id="arrowDown" xlink:href="#dirArrow" transform="rotate(180) translate(-30 -48)" onmousedown="handlePan(0,1)">
                  <use xlink:href="#rim" fill="#404040">
                        <set attributeName="fill" to="#808080" begin="arrowDown.mouseover" end="arrowDown.mouseout"/>
                  </use>
                  <path fill="none" stroke="white" stroke-width="1.5" d="M0,-3.0v7 M-2.5,-0.5L0,-3.0L2.5,-0.5"/>
                </g>
                <g id="arrowLeft" xlink:href="#dirArrow" transform="rotate(270) translate(-36 17)" onmousedown="handlePan(-1,0)">
                  <use xlink:href="#rim" fill="#404040">
                        <set attributeName="fill" to="#808080" begin="arrowLeft.mouseover" end="arrowLeft.mouseout"/>
                  </use>
                  <path fill="none" stroke="white" stroke-width="1.5" d="M0,-3.0v7 M-2.5,-0.5L0,-3.0L2.5,-0.5"/>
                </g>
        </g>
        <svg viewBox="0 0 15 15" width="100%" height="30px" preserveAspectRatio="xMaxYMin meet">
         <g id="arrow_out" transform="scale(0.3 0.3)">
          <a xlink:href="structSimpleContactProblem_1_1OpGetGaussPtsState__coll__graph_org.svg" target="_base">
           <rect id="button" ry="5" rx="5" y="6" x="6" height="38" width="38"
                fill="#f2f5e9" fill-opacity="0.5" stroke="#606060" stroke-width="1.0"/>
           <path id="arrow"
             d="M 11.500037,31.436501 C 11.940474,20.09759 22.043105,11.32322 32.158766,21.979434 L 37.068811,17.246167 C 37.068811,17.246167 37.088388,32 37.088388,32 L 22.160133,31.978069 C 22.160133,31.978069 26.997745,27.140456 26.997745,27.140456 C 18.528582,18.264221 13.291696,25.230495 11.500037,31.436501 z"
             style="fill:#404040;"/>
          </a>
         </g>
        </svg>
</svg>
