<?xml version="1.0" encoding="UTF-8" standalone="no"?>
<!DOCTYPE svg PUBLIC "-//W3C//DTD SVG 1.1//EN"
 "http://www.w3.org/Graphics/SVG/1.1/DTD/svg11.dtd">
<!-- Generated by graphviz version 2.43.0 (0)
 -->
<!-- Title: FractureMechanics::GriffithForceElement::AuxFunctions&lt; TYPE &gt; Pages: 1 -->
<svg width="781pt" height="446pt"
 viewBox="0.00 0.00 781.00 445.50" xmlns="http://www.w3.org/2000/svg" xmlns:xlink="http://www.w3.org/1999/xlink">
<g id="graph0" class="graph" transform="scale(1 1) rotate(0) translate(4 441.5)">
<title>FractureMechanics::GriffithForceElement::AuxFunctions&lt; TYPE &gt;</title>
<polygon fill="white" stroke="transparent" points="-4,4 -4,-441.5 777,-441.5 777,4 -4,4"/>
<!-- Node1 -->
<g id="node1" class="node">
<title>Node1</title>
<g id="a_node1"><a xlink:title=" ">
<polygon fill="#bfbfbf" stroke="black" points="639,-220 639,-261 773,-261 773,-220 639,-220"/>
<text text-anchor="start" x="647" y="-249" font-family="Helvetica,sans-Serif" font-size="10.00">FractureMechanics::</text>
<text text-anchor="start" x="647" y="-238" font-family="Helvetica,sans-Serif" font-size="10.00">GriffithForceElement</text>
<text text-anchor="middle" x="706" y="-227" font-family="Helvetica,sans-Serif" font-size="10.00">::AuxFunctions&lt; TYPE &gt;</text>
</a>
</g>
</g>
<!-- Node2 -->
<g id="node2" class="node">
<title>Node2</title>
<g id="a_node2"><a xlink:href="classFTensor_1_1Index.html" target="_top" xlink:title=" ">
<polygon fill="white" stroke="black" points="330,-410 330,-429 460,-429 460,-410 330,-410"/>
<text text-anchor="middle" x="395" y="-417" font-family="Helvetica,sans-Serif" font-size="10.00">FTensor::Index&lt; &#39;i&#39;, 3 &gt;</text>
</a>
</g>
</g>
<!-- Node2&#45;&gt;Node1 -->
<g id="edge1" class="edge">
<title>Node2&#45;&gt;Node1</title>
<path fill="none" stroke="#9a32cd" stroke-dasharray="5,2" d="M470.15,-427C517.12,-428.02 577.07,-422.09 621,-392.5 667.64,-361.09 690.91,-294.77 700.1,-261.08"/>
<polygon fill="#9a32cd" stroke="#9a32cd" points="470.14,-423.5 460.03,-426.67 469.91,-430.49 470.14,-423.5"/>
<text text-anchor="middle" x="556.5" y="-429.5" font-family="Helvetica,sans-Serif" font-size="10.00"> i</text>
</g>
<!-- Node3 -->
<g id="node3" class="node">
<title>Node3</title>
<g id="a_node3"><a xlink:href="classFTensor_1_1Index.html" target="_top" xlink:title=" ">
<polygon fill="white" stroke="black" points="102,-366.5 102,-396.5 206,-396.5 206,-366.5 102,-366.5"/>
<text text-anchor="start" x="110" y="-384.5" font-family="Helvetica,sans-Serif" font-size="10.00">FTensor::Index&lt; i,</text>
<text text-anchor="middle" x="154" y="-373.5" font-family="Helvetica,sans-Serif" font-size="10.00"> Dim &gt;</text>
</a>
</g>
</g>
<!-- Node3&#45;&gt;Node2 -->
<g id="edge2" class="edge">
<title>Node3&#45;&gt;Node2</title>
<path fill="none" stroke="orange" stroke-dasharray="5,2" d="M216.62,-392.28C223.16,-393.39 229.71,-394.48 236,-395.5 266.81,-400.5 301.05,-405.74 329.76,-410.05"/>
<polygon fill="orange" stroke="orange" points="216.84,-388.77 206.39,-390.55 215.66,-395.67 216.84,-388.77"/>
<text text-anchor="middle" x="267" y="-407.5" font-family="Helvetica,sans-Serif" font-size="10.00"> &lt; &#39;i&#39;, 3 &gt;</text>
</g>
<!-- Node4 -->
<g id="node4" class="node">
<title>Node4</title>
<g id="a_node4"><a xlink:href="classFTensor_1_1Index.html" target="_top" xlink:title=" ">
<polygon fill="white" stroke="black" points="330,-372 330,-391 460,-391 460,-372 330,-372"/>
<text text-anchor="middle" x="395" y="-379" font-family="Helvetica,sans-Serif" font-size="10.00">FTensor::Index&lt; &#39;j&#39;, 3 &gt;</text>
</a>
</g>
</g>
<!-- Node3&#45;&gt;Node4 -->
<g id="edge4" class="edge">
<title>Node3&#45;&gt;Node4</title>
<path fill="none" stroke="orange" stroke-dasharray="5,2" d="M216.28,-381.5C250.99,-381.5 294.37,-381.5 329.58,-381.5"/>
<polygon fill="orange" stroke="orange" points="216.27,-378 206.27,-381.5 216.27,-385 216.27,-378"/>
<text text-anchor="middle" x="267" y="-384.5" font-family="Helvetica,sans-Serif" font-size="10.00"> &lt; &#39;j&#39;, 3 &gt;</text>
</g>
<!-- Node6 -->
<g id="node6" class="node">
<title>Node6</title>
<g id="a_node6"><a xlink:href="classFTensor_1_1Index.html" target="_top" xlink:title=" ">
<polygon fill="white" stroke="black" points="328.5,-334 328.5,-353 461.5,-353 461.5,-334 328.5,-334"/>
<text text-anchor="middle" x="395" y="-341" font-family="Helvetica,sans-Serif" font-size="10.00">FTensor::Index&lt; &#39;k&#39;, 3 &gt;</text>
</a>
</g>
</g>
<!-- Node3&#45;&gt;Node6 -->
<g id="edge7" class="edge">
<title>Node3&#45;&gt;Node6</title>
<path fill="none" stroke="orange" stroke-dasharray="5,2" d="M216.6,-369.84C223.14,-368.67 229.7,-367.54 236,-366.5 266.22,-361.5 299.79,-356.54 328.19,-352.5"/>
<polygon fill="orange" stroke="orange" points="215.59,-366.46 206.37,-371.68 216.83,-373.35 215.59,-366.46"/>
<text text-anchor="middle" x="267" y="-369.5" font-family="Helvetica,sans-Serif" font-size="10.00"> &lt; &#39;k&#39;, 3 &gt;</text>
</g>
<!-- Node4&#45;&gt;Node1 -->
<g id="edge3" class="edge">
<title>Node4&#45;&gt;Node1</title>
<path fill="none" stroke="#9a32cd" stroke-dasharray="5,2" d="M470.22,-379.66C525.69,-377.11 596.06,-371.02 621,-356.5 658.6,-334.6 684.05,-288.44 696.39,-261.41"/>
<polygon fill="#9a32cd" stroke="#9a32cd" points="469.89,-376.17 460.05,-380.1 470.19,-383.17 469.89,-376.17"/>
<text text-anchor="middle" x="556.5" y="-380.5" font-family="Helvetica,sans-Serif" font-size="10.00"> j</text>
</g>
<!-- Node5 -->
<g id="node5" class="node">
<title>Node5</title>
<g id="a_node5"><a xlink:title=" ">
<polygon fill="white" stroke="#bfbfbf" points="348,-293 348,-312 442,-312 442,-293 348,-293"/>
<text text-anchor="middle" x="395" y="-300" font-family="Helvetica,sans-Serif" font-size="10.00">vector&lt; TYPE &gt;</text>
</a>
</g>
</g>
<!-- Node5&#45;&gt;Node1 -->
<g id="edge5" class="edge">
<title>Node5&#45;&gt;Node1</title>
<path fill="none" stroke="#9a32cd" stroke-dasharray="5,2" d="M452.2,-297.2C498.06,-292.18 564.3,-283.32 621,-269.5 630.59,-267.16 640.64,-264.18 650.31,-261.02"/>
<polygon fill="#9a32cd" stroke="#9a32cd" points="451.73,-293.73 442.16,-298.28 452.48,-300.69 451.73,-293.73"/>
<text text-anchor="middle" x="556.5" y="-316.5" font-family="Helvetica,sans-Serif" font-size="10.00"> referenceCoords</text>
<text text-anchor="middle" x="556.5" y="-305.5" font-family="Helvetica,sans-Serif" font-size="10.00">griffithForce</text>
<text text-anchor="middle" x="556.5" y="-294.5" font-family="Helvetica,sans-Serif" font-size="10.00">currentCoords</text>
</g>
<!-- Node6&#45;&gt;Node1 -->
<g id="edge6" class="edge">
<title>Node6&#45;&gt;Node1</title>
<path fill="none" stroke="#9a32cd" stroke-dasharray="5,2" d="M471.72,-343.04C526.5,-341.67 595.25,-337.49 621,-325.5 651.28,-311.41 676.7,-281.42 691.39,-261.11"/>
<polygon fill="#9a32cd" stroke="#9a32cd" points="471.58,-339.54 461.67,-343.27 471.74,-346.54 471.58,-339.54"/>
<text text-anchor="middle" x="556.5" y="-344.5" font-family="Helvetica,sans-Serif" font-size="10.00"> k</text>
</g>
<!-- Node7 -->
<g id="node7" class="node">
<title>Node7</title>
<g id="a_node7"><a xlink:href="classFTensor_1_1Number.html" target="_top" xlink:title=" ">
<polygon fill="white" stroke="black" points="331.5,-255 331.5,-274 458.5,-274 458.5,-255 331.5,-255"/>
<text text-anchor="middle" x="395" y="-262" font-family="Helvetica,sans-Serif" font-size="10.00">FTensor::Number&lt; 1 &gt;</text>
</a>
</g>
</g>
<!-- Node7&#45;&gt;Node1 -->
<g id="edge8" class="edge">
<title>Node7&#45;&gt;Node1</title>
<path fill="none" stroke="#9a32cd" stroke-dasharray="5,2" d="M468.6,-258.86C520.14,-254.86 588.79,-249.53 638.82,-245.64"/>
<polygon fill="#9a32cd" stroke="#9a32cd" points="468.23,-255.38 458.53,-259.64 468.77,-262.36 468.23,-255.38"/>
<text text-anchor="middle" x="556.5" y="-259.5" font-family="Helvetica,sans-Serif" font-size="10.00"> N1</text>
</g>
<!-- Node8 -->
<g id="node8" class="node">
<title>Node8</title>
<g id="a_node8"><a xlink:href="classFTensor_1_1Number.html" target="_top" xlink:title=" ">
<polygon fill="white" stroke="black" points="90,-236 90,-255 218,-255 218,-236 90,-236"/>
<text text-anchor="middle" x="154" y="-243" font-family="Helvetica,sans-Serif" font-size="10.00">FTensor::Number&lt; N &gt;</text>
</a>
</g>
</g>
<!-- Node8&#45;&gt;Node7 -->
<g id="edge9" class="edge">
<title>Node8&#45;&gt;Node7</title>
<path fill="none" stroke="orange" stroke-dasharray="5,2" d="M228.15,-251.32C261.15,-253.94 299.73,-257.01 331.37,-259.52"/>
<polygon fill="orange" stroke="orange" points="228.35,-247.82 218.11,-250.52 227.8,-254.8 228.35,-247.82"/>
<text text-anchor="middle" x="267" y="-259.5" font-family="Helvetica,sans-Serif" font-size="10.00"> &lt; 1 &gt;</text>
</g>
<!-- Node10 -->
<g id="node10" class="node">
<title>Node10</title>
<g id="a_node10"><a xlink:href="classFTensor_1_1Number.html" target="_top" xlink:title=" ">
<polygon fill="white" stroke="black" points="331.5,-217 331.5,-236 458.5,-236 458.5,-217 331.5,-217"/>
<text text-anchor="middle" x="395" y="-224" font-family="Helvetica,sans-Serif" font-size="10.00">FTensor::Number&lt; 0 &gt;</text>
</a>
</g>
</g>
<!-- Node8&#45;&gt;Node10 -->
<g id="edge12" class="edge">
<title>Node8&#45;&gt;Node10</title>
<path fill="none" stroke="orange" stroke-dasharray="5,2" d="M228.3,-237.2C230.9,-236.95 233.47,-236.72 236,-236.5 267.35,-233.77 302.27,-231.48 331.28,-229.78"/>
<polygon fill="orange" stroke="orange" points="227.82,-233.73 218.2,-238.18 228.5,-240.7 227.82,-233.73"/>
<text text-anchor="middle" x="267" y="-239.5" font-family="Helvetica,sans-Serif" font-size="10.00"> &lt; 0 &gt;</text>
</g>
<!-- Node9 -->
<g id="node9" class="node">
<title>Node9</title>
<g id="a_node9"><a xlink:title=" ">
<polygon fill="white" stroke="#bfbfbf" points="133.5,-170 133.5,-189 174.5,-189 174.5,-170 133.5,-170"/>
<text text-anchor="middle" x="154" y="-177" font-family="Helvetica,sans-Serif" font-size="10.00">TYPE</text>
</a>
</g>
</g>
<!-- Node9&#45;&gt;Node1 -->
<g id="edge10" class="edge">
<title>Node9&#45;&gt;Node1</title>
<path fill="none" stroke="#9a32cd" stroke-dasharray="5,2" d="M184.85,-179.25C259.32,-179.2 458.99,-182.52 621,-216.5 626.79,-217.71 632.76,-219.12 638.73,-220.62"/>
<polygon fill="#9a32cd" stroke="#9a32cd" points="184.78,-175.75 174.79,-179.28 184.8,-182.75 184.78,-175.75"/>
<text text-anchor="middle" x="395" y="-196.5" font-family="Helvetica,sans-Serif" font-size="10.00"> currentArea</text>
</g>
<!-- Node11 -->
<g id="node11" class="node">
<title>Node11</title>
<g id="a_node11"><a xlink:href="classFTensor_1_1Tensor1.html" target="_top" xlink:title=" ">
<polygon fill="white" stroke="black" points="317.5,-132 317.5,-151 472.5,-151 472.5,-132 317.5,-132"/>
<text text-anchor="middle" x="395" y="-139" font-family="Helvetica,sans-Serif" font-size="10.00">FTensor::Tensor1&lt; TYPE, 3 &gt;</text>
</a>
</g>
</g>
<!-- Node9&#45;&gt;Node11 -->
<g id="edge14" class="edge">
<title>Node9&#45;&gt;Node11</title>
<path fill="none" stroke="#9a32cd" stroke-dasharray="5,2" d="M184.5,-172.76C199.81,-169.4 218.85,-165.43 236,-162.5 262.46,-157.97 291.55,-153.86 317.48,-150.5"/>
<polygon fill="#9a32cd" stroke="#9a32cd" points="183.56,-169.38 174.56,-174.97 185.08,-176.21 183.56,-169.38"/>
<text text-anchor="middle" x="267" y="-165.5" font-family="Helvetica,sans-Serif" font-size="10.00"> data</text>
</g>
<!-- Node10&#45;&gt;Node1 -->
<g id="edge11" class="edge">
<title>Node10&#45;&gt;Node1</title>
<path fill="none" stroke="#9a32cd" stroke-dasharray="5,2" d="M468.77,-222.07C512.9,-220.32 570.31,-219.72 621,-224.5 626.76,-225.04 632.72,-225.79 638.68,-226.67"/>
<polygon fill="#9a32cd" stroke="#9a32cd" points="468.55,-218.58 458.7,-222.5 468.84,-225.57 468.55,-218.58"/>
<text text-anchor="middle" x="556.5" y="-227.5" font-family="Helvetica,sans-Serif" font-size="10.00"> N0</text>
</g>
<!-- Node11&#45;&gt;Node1 -->
<g id="edge13" class="edge">
<title>Node11&#45;&gt;Node1</title>
<path fill="none" stroke="#9a32cd" stroke-dasharray="5,2" d="M443.49,-130.01C490.83,-121.07 564.43,-114.14 621,-140.5 655.94,-156.78 681.52,-195.54 694.76,-219.74"/>
<polygon fill="#9a32cd" stroke="#9a32cd" points="442.64,-126.61 433.51,-132 444,-133.48 442.64,-126.61"/>
<text text-anchor="middle" x="556.5" y="-165.5" font-family="Helvetica,sans-Serif" font-size="10.00"> t_Tangent2_eta</text>
<text text-anchor="middle" x="556.5" y="-154.5" font-family="Helvetica,sans-Serif" font-size="10.00">t_Tangent1_ksi</text>
<text text-anchor="middle" x="556.5" y="-143.5" font-family="Helvetica,sans-Serif" font-size="10.00">t_Normal</text>
</g>
<!-- Node12 -->
<g id="node12" class="node">
<title>Node12</title>
<g id="a_node12"><a xlink:href="classFTensor_1_1Tensor1.html" target="_top" xlink:title=" ">
<polygon fill="white" stroke="black" points="95.5,-112.5 95.5,-142.5 212.5,-142.5 212.5,-112.5 95.5,-112.5"/>
<text text-anchor="start" x="103.5" y="-130.5" font-family="Helvetica,sans-Serif" font-size="10.00">FTensor::Tensor1&lt; T,</text>
<text text-anchor="middle" x="154" y="-119.5" font-family="Helvetica,sans-Serif" font-size="10.00"> Tensor_Dim &gt;</text>
</a>
</g>
</g>
<!-- Node12&#45;&gt;Node11 -->
<g id="edge15" class="edge">
<title>Node12&#45;&gt;Node11</title>
<path fill="none" stroke="orange" stroke-dasharray="5,2" d="M223.13,-126.21C246.85,-126.22 273.62,-126.77 298,-128.5 309.16,-129.29 320.99,-130.55 332.41,-131.98"/>
<polygon fill="orange" stroke="orange" points="222.81,-122.71 212.82,-126.23 222.82,-129.71 222.81,-122.71"/>
<text text-anchor="middle" x="267" y="-131.5" font-family="Helvetica,sans-Serif" font-size="10.00"> &lt; TYPE, 3 &gt;</text>
</g>
<!-- Node13 -->
<g id="node13" class="node">
<title>Node13</title>
<g id="a_node13"><a xlink:title=" ">
<polygon fill="white" stroke="#bfbfbf" points="0,-118 0,-137 29,-137 29,-118 0,-118"/>
<text text-anchor="middle" x="14.5" y="-125" font-family="Helvetica,sans-Serif" font-size="10.00">T</text>
</a>
</g>
</g>
<!-- Node13&#45;&gt;Node12 -->
<g id="edge16" class="edge">
<title>Node13&#45;&gt;Node12</title>
<path fill="none" stroke="#9a32cd" stroke-dasharray="5,2" d="M39.4,-127.5C54.85,-127.5 75.68,-127.5 95.27,-127.5"/>
<polygon fill="#9a32cd" stroke="#9a32cd" points="39.19,-124 29.19,-127.5 39.19,-131 39.19,-124"/>
<text text-anchor="middle" x="59.5" y="-130.5" font-family="Helvetica,sans-Serif" font-size="10.00"> data</text>
</g>
<!-- Node14 -->
<g id="node14" class="node">
<title>Node14</title>
<g id="a_node14"><a xlink:title=" ">
<polygon fill="white" stroke="#bfbfbf" points="317.5,-72 317.5,-113 472.5,-113 472.5,-72 317.5,-72"/>
<text text-anchor="start" x="325.5" y="-101" font-family="Helvetica,sans-Serif" font-size="10.00">function&lt; FTensor::</text>
<text text-anchor="start" x="325.5" y="-90" font-family="Helvetica,sans-Serif" font-size="10.00">Tensor1&lt; TYPE *, 3 &gt;</text>
<text text-anchor="middle" x="395" y="-79" font-family="Helvetica,sans-Serif" font-size="10.00">ublas::vector&lt; TYPE &gt; &amp;v)&gt;</text>
</a>
</g>
</g>
<!-- Node14&#45;&gt;Node1 -->
<g id="edge17" class="edge">
<title>Node14&#45;&gt;Node1</title>
<path fill="none" stroke="#9a32cd" stroke-dasharray="5,2" d="M482.93,-79.92C527.14,-77.79 580.04,-82.14 621,-106.5 663.95,-132.04 688.29,-188.99 698.77,-219.79"/>
<polygon fill="#9a32cd" stroke="#9a32cd" points="482.54,-76.44 472.76,-80.53 482.95,-83.42 482.54,-76.44"/>
<text text-anchor="middle" x="556.5" y="-109.5" font-family="Helvetica,sans-Serif" font-size="10.00"> get_ftensor_from_vec</text>
</g>
<!-- Node15 -->
<g id="node15" class="node">
<title>Node15</title>
<g id="a_node15"><a xlink:title=" ">
<polygon fill="white" stroke="#bfbfbf" points="316,-0.5 316,-52.5 474,-52.5 474,-0.5 316,-0.5"/>
<text text-anchor="start" x="324" y="-40.5" font-family="Helvetica,sans-Serif" font-size="10.00">function&lt; FTensor::</text>
<text text-anchor="start" x="324" y="-29.5" font-family="Helvetica,sans-Serif" font-size="10.00">Tensor1&lt; FTensor::PackPtr</text>
<text text-anchor="start" x="324" y="-18.5" font-family="Helvetica,sans-Serif" font-size="10.00">&lt; const double *, 2 &gt;, 2</text>
<text text-anchor="middle" x="395" y="-7.5" font-family="Helvetica,sans-Serif" font-size="10.00"> &gt; const MatrixDouble &amp;m)&gt;</text>
</a>
</g>
</g>
<!-- Node15&#45;&gt;Node1 -->
<g id="edge18" class="edge">
<title>Node15&#45;&gt;Node1</title>
<path fill="none" stroke="#9a32cd" stroke-dasharray="5,2" d="M484.15,-22.4C529.09,-24.61 582.26,-34.34 621,-63.5 673.04,-102.68 694.23,-182.29 701.6,-219.91"/>
<polygon fill="#9a32cd" stroke="#9a32cd" points="484.24,-18.9 474.11,-22.02 483.97,-25.89 484.24,-18.9"/>
<text text-anchor="middle" x="556.5" y="-66.5" font-family="Helvetica,sans-Serif" font-size="10.00"> get_ftensor_from_mat_2d</text>
</g>
</g>
</svg>
