<?xml version="1.0" encoding="UTF-8" standalone="no"?>
<!DOCTYPE svg PUBLIC "-//W3C//DTD SVG 1.1//EN"
 "http://www.w3.org/Graphics/SVG/1.1/DTD/svg11.dtd">
<!-- Generated by graphviz version 2.43.0 (0)
 -->
<!-- Title: FractureMechanics::MWLSApprox::OpMWLSStressAtGaussUsingPrecalulatedCoeffs Pages: 1 -->
<!--zoomable 271 -->
<svg id="main" version="1.1" xmlns="http://www.w3.org/2000/svg" xmlns:xlink="http://www.w3.org/1999/xlink" xml:space="preserve" onload="init(evt)">
<style type="text/css"><![CDATA[
.edge:hover path { stroke: red; }
.edge:hover polygon { stroke: red; fill: red; }
]]></style>
<script type="text/javascript"><![CDATA[
var edges = document.getElementsByTagName('g');
if (edges && edges.length) {
  for (var i=0;i<edges.length;i++) {
    if (edges[i].id.substr(0,4)=='edge') {
      edges[i].setAttribute('class','edge');
    }
  }
}
]]></script>
        <defs>
                <circle id="rim" cx="0" cy="0" r="7"/>
                <circle id="rim2" cx="0" cy="0" r="3.5"/>
                <g id="zoomPlus">
                        <use xlink:href="#rim" fill="#404040">
                                <set attributeName="fill" to="#808080" begin="zoomplus.mouseover" end="zoomplus.mouseout"/>
                        </use>
                        <path d="M-4,0h8M0,-4v8" fill="none" stroke="white" stroke-width="1.5" pointer-events="none"/>
                </g>
                <g id="zoomMin">
                        <use xlink:href="#rim" fill="#404040">
                                <set attributeName="fill" to="#808080" begin="zoomminus.mouseover" end="zoomminus.mouseout"/>
                        </use>
                        <path d="M-4,0h8" fill="none" stroke="white" stroke-width="1.5" pointer-events="none"/>
                </g>
                <g id="dirArrow">
                        <path fill="none" stroke="white" stroke-width="1.5" d="M0,-3.0v7 M-2.5,-0.5L0,-3.0L2.5,-0.5"/>
                </g>
               <g id="resetDef">
                       <use xlink:href="#rim2" fill="#404040">
                               <set attributeName="fill" to="#808080" begin="reset.mouseover" end="reset.mouseout"/>
                       </use>
               </g>
        </defs>

<script type="text/javascript">
var viewWidth = 1178;
var viewHeight = 271;
var sectionId = 'dynsection-1';
</script>
<script xlink:href="svgpan.js"/>
<svg id="graph" class="graph">
<g id="viewport">
<title>FractureMechanics::MWLSApprox::OpMWLSStressAtGaussUsingPrecalulatedCoeffs</title>
<polygon fill="white" stroke="transparent" points="-4,4 -4,-267 1174,-267 1174,4 -4,4"/>
<!-- Node1 -->
<g id="node1" class="node">
<title>Node1</title>
<g id="a_node1"><a xlink:title=" ">
<polygon fill="#bfbfbf" stroke="black" points="998,-39 998,-80 1170,-80 1170,-39 998,-39"/>
<text text-anchor="start" x="1006" y="-68" font-family="Helvetica,sans-Serif" font-size="10.00">FractureMechanics::</text>
<text text-anchor="start" x="1006" y="-57" font-family="Helvetica,sans-Serif" font-size="10.00">MWLSApprox::OpMWLSStressAt</text>
<text text-anchor="middle" x="1084" y="-46" font-family="Helvetica,sans-Serif" font-size="10.00">GaussUsingPrecalulatedCoeffs</text>
</a>
</g>
</g>
<!-- Node2 -->
<g id="node2" class="node">
<title>Node2</title>
<g id="a_node2"><a xlink:href="structFractureMechanics_1_1MWLSApprox_1_1OpMWLSBase.html" target="_top" xlink:title=" ">
<polygon fill="white" stroke="black" points="669,-88.5 669,-140.5 863,-140.5 863,-88.5 669,-88.5"/>
<text text-anchor="start" x="677" y="-128.5" font-family="Helvetica,sans-Serif" font-size="10.00">FractureMechanics::</text>
<text text-anchor="start" x="677" y="-117.5" font-family="Helvetica,sans-Serif" font-size="10.00">MWLSApprox::OpMWLSBase</text>
<text text-anchor="start" x="677" y="-106.5" font-family="Helvetica,sans-Serif" font-size="10.00">&lt; VolumeElementForcesAndSources</text>
<text text-anchor="middle" x="766" y="-95.5" font-family="Helvetica,sans-Serif" font-size="10.00">Core &gt;</text>
</a>
</g>
</g>
<!-- Node2&#45;&gt;Node1 -->
<g id="edge1" class="edge">
<title>Node2&#45;&gt;Node1</title>
<path fill="none" stroke="midnightblue" d="M873.09,-102.43C907.35,-97.9 945.4,-92.2 980,-85.5 988.33,-83.89 996.99,-82.01 1005.6,-80.03"/>
<polygon fill="midnightblue" stroke="midnightblue" points="872.53,-98.98 863.07,-103.74 873.44,-105.92 872.53,-98.98"/>
</g>
<!-- Node3 -->
<g id="node3" class="node">
<title>Node3</title>
<g id="a_node3"><a xlink:title=" ">
<polygon fill="white" stroke="#bfbfbf" points="308,-232.5 308,-262.5 490,-262.5 490,-232.5 308,-232.5"/>
<text text-anchor="start" x="316" y="-250.5" font-family="Helvetica,sans-Serif" font-size="10.00">VolumeElementForcesAndSources</text>
<text text-anchor="middle" x="399" y="-239.5" font-family="Helvetica,sans-Serif" font-size="10.00">Core ::UserDataOperator</text>
</a>
</g>
</g>
<!-- Node3&#45;&gt;Node2 -->
<g id="edge2" class="edge">
<title>Node3&#45;&gt;Node2</title>
<path fill="none" stroke="midnightblue" d="M500.25,-242.39C547.6,-237.09 603.92,-226.51 651,-205.5 685.46,-190.12 718.42,-161.82 739.96,-140.84"/>
<polygon fill="midnightblue" stroke="midnightblue" points="499.87,-238.91 490.29,-243.44 500.6,-245.87 499.87,-238.91"/>
</g>
<!-- Node4 -->
<g id="node4" class="node">
<title>Node4</title>
<g id="a_node4"><a xlink:title=" ">
<polygon fill="white" stroke="#bfbfbf" points="7,-166 7,-185 164,-185 164,-166 7,-166"/>
<text text-anchor="middle" x="85.5" y="-173" font-family="Helvetica,sans-Serif" font-size="10.00">shared_ptr&lt; MatrixDouble &gt;</text>
</a>
</g>
</g>
<!-- Node4&#45;&gt;Node2 -->
<g id="edge3" class="edge">
<title>Node4&#45;&gt;Node2</title>
<path fill="none" stroke="#9a32cd" stroke-dasharray="5,2" d="M174.28,-177.33C179.26,-177.39 184.19,-177.45 189,-177.5 394.98,-179.51 447.74,-173.94 651,-140.5 656.81,-139.54 662.76,-138.47 668.76,-137.32"/>
<polygon fill="#9a32cd" stroke="#9a32cd" points="174.06,-173.82 164.01,-177.17 173.96,-180.82 174.06,-173.82"/>
<text text-anchor="middle" x="399" y="-190.5" font-family="Helvetica,sans-Serif" font-size="10.00"> matPosAtPtsPtr</text>
<text text-anchor="middle" x="399" y="-179.5" font-family="Helvetica,sans-Serif" font-size="10.00">matGradPosAtPtsPtr</text>
</g>
<!-- Node7 -->
<g id="node7" class="node">
<title>Node7</title>
<g id="a_node7"><a xlink:href="structFractureMechanics_1_1MWLSApprox_1_1OpMWLSBase.html" target="_top" xlink:title=" ">
<polygon fill="white" stroke="black" points="307,-99.5 307,-129.5 491,-129.5 491,-99.5 307,-99.5"/>
<text text-anchor="start" x="315" y="-117.5" font-family="Helvetica,sans-Serif" font-size="10.00">FractureMechanics::</text>
<text text-anchor="middle" x="399" y="-106.5" font-family="Helvetica,sans-Serif" font-size="10.00">MWLSApprox::OpMWLSBase&lt; T &gt;</text>
</a>
</g>
</g>
<!-- Node4&#45;&gt;Node7 -->
<g id="edge8" class="edge">
<title>Node4&#45;&gt;Node7</title>
<path fill="none" stroke="#9a32cd" stroke-dasharray="5,2" d="M145.14,-164.02C194.95,-154.26 266.81,-140.19 321.2,-129.54"/>
<polygon fill="#9a32cd" stroke="#9a32cd" points="144.31,-160.61 135.17,-165.97 145.66,-167.48 144.31,-160.61"/>
<text text-anchor="middle" x="239" y="-167.5" font-family="Helvetica,sans-Serif" font-size="10.00"> matPosAtPtsPtr</text>
<text text-anchor="middle" x="239" y="-156.5" font-family="Helvetica,sans-Serif" font-size="10.00">matGradPosAtPtsPtr</text>
</g>
<!-- Node5 -->
<g id="node5" class="node">
<title>Node5</title>
<g id="a_node5"><a xlink:title=" ">
<polygon fill="white" stroke="#bfbfbf" points="3.5,-54.5 3.5,-84.5 167.5,-84.5 167.5,-54.5 3.5,-54.5"/>
<text text-anchor="start" x="11.5" y="-72.5" font-family="Helvetica,sans-Serif" font-size="10.00">weak_ptr&lt; FractureMechanics</text>
<text text-anchor="middle" x="85.5" y="-61.5" font-family="Helvetica,sans-Serif" font-size="10.00">::CrackFrontSingularBase &gt;</text>
</a>
</g>
</g>
<!-- Node5&#45;&gt;Node2 -->
<g id="edge4" class="edge">
<title>Node5&#45;&gt;Node2</title>
<path fill="none" stroke="#9a32cd" stroke-dasharray="5,2" d="M177.64,-69.09C259.71,-69.36 383.58,-71.33 491,-79.5 550.29,-84.01 616.43,-92.36 668.87,-99.78"/>
<polygon fill="#9a32cd" stroke="#9a32cd" points="177.6,-65.59 167.59,-69.07 177.58,-72.59 177.6,-65.59"/>
<text text-anchor="middle" x="399" y="-82.5" font-family="Helvetica,sans-Serif" font-size="10.00"> feSingularPtr</text>
</g>
<!-- Node5&#45;&gt;Node7 -->
<g id="edge9" class="edge">
<title>Node5&#45;&gt;Node7</title>
<path fill="none" stroke="#9a32cd" stroke-dasharray="5,2" d="M177.46,-82.64C218.21,-88.53 266.17,-95.46 306.93,-101.34"/>
<polygon fill="#9a32cd" stroke="#9a32cd" points="177.93,-79.17 167.53,-81.21 176.93,-86.1 177.93,-79.17"/>
<text text-anchor="middle" x="239" y="-101.5" font-family="Helvetica,sans-Serif" font-size="10.00"> feSingularPtr</text>
</g>
<!-- Node6 -->
<g id="node6" class="node">
<title>Node6</title>
<g id="a_node6"><a xlink:title=" ">
<polygon fill="white" stroke="#bfbfbf" points="0,-0.5 0,-30.5 171,-30.5 171,-0.5 0,-0.5"/>
<text text-anchor="start" x="8" y="-18.5" font-family="Helvetica,sans-Serif" font-size="10.00">shared_ptr&lt; FractureMechanics</text>
<text text-anchor="middle" x="85.5" y="-7.5" font-family="Helvetica,sans-Serif" font-size="10.00">::MWLSApprox &gt;</text>
</a>
</g>
</g>
<!-- Node6&#45;&gt;Node2 -->
<g id="edge5" class="edge">
<title>Node6&#45;&gt;Node2</title>
<path fill="none" stroke="#9a32cd" stroke-dasharray="5,2" d="M181.23,-18.89C294.31,-24.5 488.51,-39.12 651,-76.5 665.03,-79.73 679.78,-83.98 693.84,-88.46"/>
<polygon fill="#9a32cd" stroke="#9a32cd" points="181.38,-15.39 171.22,-18.41 181.04,-22.39 181.38,-15.39"/>
<text text-anchor="middle" x="399" y="-50.5" font-family="Helvetica,sans-Serif" font-size="10.00"> mwlsApprox</text>
</g>
<!-- Node6&#45;&gt;Node7 -->
<g id="edge10" class="edge">
<title>Node6&#45;&gt;Node7</title>
<path fill="none" stroke="#9a32cd" stroke-dasharray="5,2" d="M163.45,-32.99C201.64,-42.43 248.21,-55.1 289,-69.5 297.26,-72.41 298.94,-74.07 307,-77.5 324.42,-84.91 343.84,-92.85 360.25,-99.47"/>
<polygon fill="#9a32cd" stroke="#9a32cd" points="163.97,-29.51 153.42,-30.53 162.31,-36.31 163.97,-29.51"/>
<text text-anchor="middle" x="239" y="-72.5" font-family="Helvetica,sans-Serif" font-size="10.00"> mwlsApprox</text>
</g>
<!-- Node7&#45;&gt;Node2 -->
<g id="edge6" class="edge">
<title>Node7&#45;&gt;Node2</title>
<path fill="none" stroke="orange" stroke-dasharray="5,2" d="M501.48,-114.5C553.85,-114.5 617.38,-114.5 668.94,-114.5"/>
<polygon fill="orange" stroke="orange" points="501.16,-111 491.16,-114.5 501.16,-118 501.16,-111"/>
<text text-anchor="start" x="509" y="-128.5" font-family="Helvetica,sans-Serif" font-size="10.00"> &lt; VolumeElementForcesAnd</text>
<text text-anchor="middle" x="580" y="-117.5" font-family="Helvetica,sans-Serif" font-size="10.00">SourcesCore &gt;</text>
</g>
<!-- Node8 -->
<g id="node8" class="node">
<title>Node8</title>
<g id="a_node8"><a xlink:title=" ">
<polygon fill="white" stroke="#bfbfbf" points="27.5,-112 27.5,-131 143.5,-131 143.5,-112 27.5,-112"/>
<text text-anchor="middle" x="85.5" y="-119" font-family="Helvetica,sans-Serif" font-size="10.00">T::UserDataOperator</text>
</a>
</g>
</g>
<!-- Node8&#45;&gt;Node7 -->
<g id="edge7" class="edge">
<title>Node8&#45;&gt;Node7</title>
<path fill="none" stroke="midnightblue" d="M153.82,-119.99C198.61,-118.98 258,-117.65 306.99,-116.55"/>
<polygon fill="midnightblue" stroke="midnightblue" points="153.55,-116.49 143.63,-120.22 153.71,-123.49 153.55,-116.49"/>
</g>
<!-- Node9 -->
<g id="node9" class="node">
<title>Node9</title>
<g id="a_node9"><a xlink:href="classbool.html" target="_top" xlink:title=" ">
<polygon fill="white" stroke="black" points="747,-50 747,-69 785,-69 785,-50 747,-50"/>
<text text-anchor="middle" x="766" y="-57" font-family="Helvetica,sans-Serif" font-size="10.00">bool</text>
</a>
</g>
</g>
<!-- Node9&#45;&gt;Node1 -->
<g id="edge11" class="edge">
<title>Node9&#45;&gt;Node1</title>
<path fill="none" stroke="#9a32cd" stroke-dasharray="5,2" d="M795.6,-59.5C840.82,-59.5 930.62,-59.5 997.87,-59.5"/>
<polygon fill="#9a32cd" stroke="#9a32cd" points="795.36,-56 785.36,-59.5 795.36,-63 795.36,-56"/>
<text text-anchor="middle" x="930.5" y="-73.5" font-family="Helvetica,sans-Serif" font-size="10.00"> calculateDerivative</text>
<text text-anchor="middle" x="930.5" y="-62.5" font-family="Helvetica,sans-Serif" font-size="10.00">testing</text>
</g>
<!-- Node10 -->
<g id="node10" class="node">
<title>Node10</title>
<g id="a_node10"><a xlink:title=" ">
<polygon fill="white" stroke="#bfbfbf" points="744,-12 744,-31 788,-31 788,-12 744,-12"/>
<text text-anchor="middle" x="766" y="-19" font-family="Helvetica,sans-Serif" font-size="10.00">string</text>
</a>
</g>
</g>
<!-- Node10&#45;&gt;Node1 -->
<g id="edge12" class="edge">
<title>Node10&#45;&gt;Node1</title>
<path fill="none" stroke="#9a32cd" stroke-dasharray="5,2" d="M798.24,-24.51C839.79,-28.59 915.51,-36.32 980,-44.5 985.83,-45.24 991.83,-46.03 997.88,-46.85"/>
<polygon fill="#9a32cd" stroke="#9a32cd" points="798.49,-21.02 788.19,-23.53 797.81,-27.98 798.49,-21.02"/>
<text text-anchor="middle" x="930.5" y="-47.5" font-family="Helvetica,sans-Serif" font-size="10.00"> stressTagName</text>
</g>
</g>
</svg>
        <g id="navigator" transform="translate(0 0)" fill="#404254">
                <rect fill="#f2f5e9" fill-opacity="0.5" stroke="#606060" stroke-width=".5" x="0" y="0" width="60" height="60"/>
                <use id="zoomplus" xlink:href="#zoomPlus" x="17" y="9" onmousedown="handleZoom(evt,'in')"/>
                <use id="zoomminus" xlink:href="#zoomMin" x="42" y="9" onmousedown="handleZoom(evt,'out')"/>
                <use id="reset" xlink:href="#resetDef" x="30" y="36" onmousedown="handleReset()"/>
                <g id="arrowUp" xlink:href="#dirArrow" transform="translate(30 24)" onmousedown="handlePan(0,-1)">
                  <use xlink:href="#rim" fill="#404040">
                        <set attributeName="fill" to="#808080" begin="arrowUp.mouseover" end="arrowUp.mouseout"/>
                  </use>
                  <path fill="none" stroke="white" stroke-width="1.5" d="M0,-3.0v7 M-2.5,-0.5L0,-3.0L2.5,-0.5"/>
                </g>
                <g id="arrowRight" xlink:href="#dirArrow" transform="rotate(90) translate(36 -43)" onmousedown="handlePan(1,0)">
                  <use xlink:href="#rim" fill="#404040">
                        <set attributeName="fill" to="#808080" begin="arrowRight.mouseover" end="arrowRight.mouseout"/>
                  </use>
                  <path fill="none" stroke="white" stroke-width="1.5" d="M0,-3.0v7 M-2.5,-0.5L0,-3.0L2.5,-0.5"/>
                </g>
                <g id="arrowDown" xlink:href="#dirArrow" transform="rotate(180) translate(-30 -48)" onmousedown="handlePan(0,1)">
                  <use xlink:href="#rim" fill="#404040">
                        <set attributeName="fill" to="#808080" begin="arrowDown.mouseover" end="arrowDown.mouseout"/>
                  </use>
                  <path fill="none" stroke="white" stroke-width="1.5" d="M0,-3.0v7 M-2.5,-0.5L0,-3.0L2.5,-0.5"/>
                </g>
                <g id="arrowLeft" xlink:href="#dirArrow" transform="rotate(270) translate(-36 17)" onmousedown="handlePan(-1,0)">
                  <use xlink:href="#rim" fill="#404040">
                        <set attributeName="fill" to="#808080" begin="arrowLeft.mouseover" end="arrowLeft.mouseout"/>
                  </use>
                  <path fill="none" stroke="white" stroke-width="1.5" d="M0,-3.0v7 M-2.5,-0.5L0,-3.0L2.5,-0.5"/>
                </g>
        </g>
        <svg viewBox="0 0 15 15" width="100%" height="30px" preserveAspectRatio="xMaxYMin meet">
         <g id="arrow_out" transform="scale(0.3 0.3)">
          <a xlink:href="structFractureMechanics_1_1MWLSApprox_1_1OpMWLSStressAtGaussUsingPrecalulatedCoeffs__coll__graph_org.svg" target="_base">
           <rect id="button" ry="5" rx="5" y="6" x="6" height="38" width="38"
                fill="#f2f5e9" fill-opacity="0.5" stroke="#606060" stroke-width="1.0"/>
           <path id="arrow"
             d="M 11.500037,31.436501 C 11.940474,20.09759 22.043105,11.32322 32.158766,21.979434 L 37.068811,17.246167 C 37.068811,17.246167 37.088388,32 37.088388,32 L 22.160133,31.978069 C 22.160133,31.978069 26.997745,27.140456 26.997745,27.140456 C 18.528582,18.264221 13.291696,25.230495 11.500037,31.436501 z"
             style="fill:#404040;"/>
          </a>
         </g>
        </svg>
</svg>
