<?xml version="1.0" encoding="UTF-8" standalone="no"?>
<!DOCTYPE svg PUBLIC "-//W3C//DTD SVG 1.1//EN"
 "http://www.w3.org/Graphics/SVG/1.1/DTD/svg11.dtd">
<!-- Generated by graphviz version 2.43.0 (0)
 -->
<!-- Title: BCs_RVELagrange_Disp::OpRVEBCsRhsHomoC Pages: 1 -->
<svg width="581pt" height="284pt"
 viewBox="0.00 0.00 580.50 284.00" xmlns="http://www.w3.org/2000/svg" xmlns:xlink="http://www.w3.org/1999/xlink">
<g id="graph0" class="graph" transform="scale(1 1) rotate(0) translate(4 280)">
<title>BCs_RVELagrange_Disp::OpRVEBCsRhsHomoC</title>
<polygon fill="white" stroke="transparent" points="-4,4 -4,-280 576.5,-280 576.5,4 -4,4"/>
<!-- Node1 -->
<g id="node1" class="node">
<title>Node1</title>
<g id="a_node1"><a xlink:title="\biref operator to calculate the RHS for the calculation of the homgoensied stiffness matrix">
<polygon fill="#bfbfbf" stroke="black" points="285.5,-0.5 285.5,-30.5 417.5,-30.5 417.5,-0.5 285.5,-0.5"/>
<text text-anchor="start" x="293.5" y="-18.5" font-family="Helvetica,sans-Serif" font-size="10.00">BCs_RVELagrange_Disp</text>
<text text-anchor="middle" x="351.5" y="-7.5" font-family="Helvetica,sans-Serif" font-size="10.00">::OpRVEBCsRhsHomoC</text>
</a>
</g>
</g>
<!-- Node2 -->
<g id="node2" class="node">
<title>Node2</title>
<g id="a_node2"><a xlink:href="structBCs__RVELagrange__Disp_1_1OpDmatRhs.html" target="_top" xlink:title=" ">
<polygon fill="white" stroke="black" points="219.5,-78.5 219.5,-108.5 351.5,-108.5 351.5,-78.5 219.5,-78.5"/>
<text text-anchor="start" x="227.5" y="-96.5" font-family="Helvetica,sans-Serif" font-size="10.00">BCs_RVELagrange_Disp</text>
<text text-anchor="middle" x="285.5" y="-85.5" font-family="Helvetica,sans-Serif" font-size="10.00">::OpDmatRhs</text>
</a>
</g>
</g>
<!-- Node2&#45;&gt;Node1 -->
<g id="edge1" class="edge">
<title>Node2&#45;&gt;Node1</title>
<path fill="none" stroke="midnightblue" d="M304.77,-70.31C315.87,-57.53 329.48,-41.86 339.14,-30.73"/>
<polygon fill="midnightblue" stroke="midnightblue" points="301.83,-68.36 297.91,-78.2 307.11,-72.95 301.83,-68.36"/>
</g>
<!-- Node3 -->
<g id="node3" class="node">
<title>Node3</title>
<g id="a_node3"><a xlink:title=" ">
<polygon fill="white" stroke="#bfbfbf" points="0,-184 0,-203 105,-203 105,-184 0,-184"/>
<text text-anchor="middle" x="52.5" y="-191" font-family="Helvetica,sans-Serif" font-size="10.00">UserDataOperator</text>
</a>
</g>
</g>
<!-- Node3&#45;&gt;Node2 -->
<g id="edge2" class="edge">
<title>Node3&#45;&gt;Node2</title>
<path fill="none" stroke="midnightblue" d="M74.58,-178.52C98.12,-164.08 136.84,-141.65 172.5,-127 189.97,-119.82 209.56,-113.59 227.47,-108.56"/>
<polygon fill="midnightblue" stroke="midnightblue" points="72.7,-175.56 66.05,-183.81 76.39,-181.51 72.7,-175.56"/>
</g>
<!-- Node4 -->
<g id="node4" class="node">
<title>Node4</title>
<g id="a_node4"><a xlink:title=" ">
<polygon fill="white" stroke="#bfbfbf" points="123,-184 123,-203 206,-203 206,-184 123,-184"/>
<text text-anchor="middle" x="164.5" y="-191" font-family="Helvetica,sans-Serif" font-size="10.00">MatrixDouble</text>
</a>
</g>
</g>
<!-- Node4&#45;&gt;Node2 -->
<g id="edge3" class="edge">
<title>Node4&#45;&gt;Node2</title>
<path fill="none" stroke="#9a32cd" stroke-dasharray="5,2" d="M170.11,-173.67C175.33,-159.13 184.44,-139.45 198.5,-127 207.31,-119.2 218.17,-113.2 229.2,-108.62"/>
<polygon fill="#9a32cd" stroke="#9a32cd" points="166.65,-172.99 166.87,-183.58 173.31,-175.17 166.65,-172.99"/>
<text text-anchor="middle" x="216" y="-152" font-family="Helvetica,sans-Serif" font-size="10.00"> X_mat</text>
<text text-anchor="middle" x="216" y="-141" font-family="Helvetica,sans-Serif" font-size="10.00">N_mat</text>
<text text-anchor="middle" x="216" y="-130" font-family="Helvetica,sans-Serif" font-size="10.00">D_mat</text>
</g>
<!-- Node5 -->
<g id="node5" class="node">
<title>Node5</title>
<g id="a_node5"><a xlink:title=" ">
<polygon fill="white" stroke="#bfbfbf" points="224,-184 224,-203 253,-203 253,-184 224,-184"/>
<text text-anchor="middle" x="238.5" y="-191" font-family="Helvetica,sans-Serif" font-size="10.00">int</text>
</a>
</g>
</g>
<!-- Node5&#45;&gt;Node2 -->
<g id="edge4" class="edge">
<title>Node5&#45;&gt;Node2</title>
<path fill="none" stroke="#9a32cd" stroke-dasharray="5,2" d="M236.82,-173.65C236.44,-159.91 237.74,-141.29 245.5,-127 249.43,-119.77 255.7,-113.53 262.12,-108.52"/>
<polygon fill="#9a32cd" stroke="#9a32cd" points="233.34,-174.06 237.43,-183.83 240.32,-173.64 233.34,-174.06"/>
<text text-anchor="middle" x="278" y="-146.5" font-family="Helvetica,sans-Serif" font-size="10.00"> nb_row_dofs</text>
<text text-anchor="middle" x="278" y="-135.5" font-family="Helvetica,sans-Serif" font-size="10.00">rank</text>
</g>
<!-- Node6 -->
<g id="node6" class="node">
<title>Node6</title>
<g id="a_node6"><a xlink:href="structBCs__RVELagrange__Disp_1_1RVEBC__Data.html" target="_top" xlink:title=" ">
<polygon fill="white" stroke="black" points="271.5,-178.5 271.5,-208.5 403.5,-208.5 403.5,-178.5 271.5,-178.5"/>
<text text-anchor="start" x="279.5" y="-196.5" font-family="Helvetica,sans-Serif" font-size="10.00">BCs_RVELagrange_Disp</text>
<text text-anchor="middle" x="337.5" y="-185.5" font-family="Helvetica,sans-Serif" font-size="10.00">::RVEBC_Data</text>
</a>
</g>
</g>
<!-- Node6&#45;&gt;Node2 -->
<g id="edge5" class="edge">
<title>Node6&#45;&gt;Node2</title>
<path fill="none" stroke="#9a32cd" stroke-dasharray="5,2" d="M329.52,-168.96C324.77,-156.16 318.16,-140.28 310.5,-127 306.87,-120.71 302.17,-114.27 297.82,-108.81"/>
<polygon fill="#9a32cd" stroke="#9a32cd" points="326.26,-170.22 332.93,-178.45 332.85,-167.86 326.26,-170.22"/>
<text text-anchor="middle" x="338.5" y="-141" font-family="Helvetica,sans-Serif" font-size="10.00"> dAta</text>
</g>
<!-- Node7 -->
<g id="node7" class="node">
<title>Node7</title>
<g id="a_node7"><a xlink:href="classRange.html" target="_top" xlink:title=" ">
<polygon fill="white" stroke="black" points="314,-256.5 314,-275.5 361,-275.5 361,-256.5 314,-256.5"/>
<text text-anchor="middle" x="337.5" y="-263.5" font-family="Helvetica,sans-Serif" font-size="10.00">Range</text>
</a>
</g>
</g>
<!-- Node7&#45;&gt;Node6 -->
<g id="edge6" class="edge">
<title>Node7&#45;&gt;Node6</title>
<path fill="none" stroke="#9a32cd" stroke-dasharray="5,2" d="M337.5,-246.24C337.5,-234.41 337.5,-219.38 337.5,-208.58"/>
<polygon fill="#9a32cd" stroke="#9a32cd" points="334,-246.36 337.5,-256.36 341,-246.36 334,-246.36"/>
<text text-anchor="middle" x="348.5" y="-230" font-family="Helvetica,sans-Serif" font-size="10.00"> tRis</text>
</g>
<!-- Node8 -->
<g id="node8" class="node">
<title>Node8</title>
<g id="a_node8"><a xlink:href="classbool.html" target="_top" xlink:title=" ">
<polygon fill="white" stroke="black" points="421.5,-184 421.5,-203 459.5,-203 459.5,-184 421.5,-184"/>
<text text-anchor="middle" x="440.5" y="-191" font-family="Helvetica,sans-Serif" font-size="10.00">bool</text>
</a>
</g>
</g>
<!-- Node8&#45;&gt;Node2 -->
<g id="edge7" class="edge">
<title>Node8&#45;&gt;Node2</title>
<path fill="none" stroke="#9a32cd" stroke-dasharray="5,2" d="M423.04,-177.18C406.42,-163.06 380.32,-142.07 355.5,-127 344.28,-120.19 331.39,-113.83 319.75,-108.57"/>
<polygon fill="#9a32cd" stroke="#9a32cd" points="420.95,-180 430.82,-183.88 425.52,-174.7 420.95,-180"/>
<text text-anchor="middle" x="432.5" y="-141" font-family="Helvetica,sans-Serif" font-size="10.00"> hoGeometry</text>
</g>
<!-- Node9 -->
<g id="node9" class="node">
<title>Node9</title>
<g id="a_node9"><a xlink:title=" ">
<polygon fill="white" stroke="#bfbfbf" points="481.5,-184 481.5,-203 563.5,-203 563.5,-184 481.5,-184"/>
<text text-anchor="middle" x="522.5" y="-191" font-family="Helvetica,sans-Serif" font-size="10.00">VectorDouble</text>
</a>
</g>
</g>
<!-- Node9&#45;&gt;Node2 -->
<g id="edge8" class="edge">
<title>Node9&#45;&gt;Node2</title>
<path fill="none" stroke="#9a32cd" stroke-dasharray="5,2" d="M512.72,-174.57C503.42,-159.35 487.98,-138.24 468.5,-127 426.35,-102.68 408.39,-117.62 360.5,-109 357.63,-108.48 354.7,-107.95 351.74,-107.4"/>
<polygon fill="#9a32cd" stroke="#9a32cd" points="509.88,-176.66 517.92,-183.56 515.94,-173.15 509.88,-176.66"/>
<text text-anchor="middle" x="537.5" y="-146.5" font-family="Helvetica,sans-Serif" font-size="10.00"> f</text>
<text text-anchor="middle" x="537.5" y="-135.5" font-family="Helvetica,sans-Serif" font-size="10.00">applied_strain</text>
</g>
<!-- Node10 -->
<g id="node10" class="node">
<title>Node10</title>
<g id="a_node10"><a xlink:title=" ">
<polygon fill="white" stroke="#bfbfbf" points="369.5,-84 369.5,-103 467.5,-103 467.5,-84 369.5,-84"/>
<text text-anchor="middle" x="418.5" y="-91" font-family="Helvetica,sans-Serif" font-size="10.00">vector&lt; Vec &gt; &amp;</text>
</a>
</g>
</g>
<!-- Node10&#45;&gt;Node1 -->
<g id="edge9" class="edge">
<title>Node10&#45;&gt;Node1</title>
<path fill="none" stroke="#9a32cd" stroke-dasharray="5,2" d="M404.08,-76.14C392.1,-62.55 375.23,-43.42 363.86,-30.52"/>
<polygon fill="#9a32cd" stroke="#9a32cd" points="401.58,-78.6 410.81,-83.78 406.83,-73.97 401.58,-78.6"/>
<text text-anchor="middle" x="393.5" y="-52" font-family="Helvetica,sans-Serif" font-size="10.00"> F</text>
</g>
</g>
</svg>
