<?xml version="1.0" encoding="UTF-8" standalone="no"?>
<!DOCTYPE svg PUBLIC "-//W3C//DTD SVG 1.1//EN"
 "http://www.w3.org/Graphics/SVG/1.1/DTD/svg11.dtd">
<!-- Generated by graphviz version 2.43.0 (0)
 -->
<!-- Title: FreeSurfaceOps::OpWettingAngleRhs Pages: 1 -->
<svg width="532pt" height="106pt"
 viewBox="0.00 0.00 532.00 106.00" xmlns="http://www.w3.org/2000/svg" xmlns:xlink="http://www.w3.org/1999/xlink">
<g id="graph0" class="graph" transform="scale(1 1) rotate(0) translate(4 102)">
<title>FreeSurfaceOps::OpWettingAngleRhs</title>
<polygon fill="white" stroke="transparent" points="-4,4 -4,-102 528,-102 528,4 -4,4"/>
<!-- Node1 -->
<g id="node1" class="node">
<title>Node1</title>
<g id="a_node1"><a xlink:title=" ">
<polygon fill="#bfbfbf" stroke="black" points="223,-0.5 223,-30.5 373,-30.5 373,-0.5 223,-0.5"/>
<text text-anchor="start" x="231" y="-18.5" font-family="Helvetica,sans-Serif" font-size="10.00">FreeSurfaceOps::OpWetting</text>
<text text-anchor="middle" x="298" y="-7.5" font-family="Helvetica,sans-Serif" font-size="10.00">AngleRhs</text>
</a>
</g>
</g>
<!-- Node2 -->
<g id="node2" class="node">
<title>Node2</title>
<g id="a_node2"><a xlink:href="classAssemblyBoundaryEleOp.html" target="_top" xlink:title=" ">
<polygon fill="white" stroke="black" points="0,-78.5 0,-97.5 140,-97.5 140,-78.5 0,-78.5"/>
<text text-anchor="middle" x="70" y="-85.5" font-family="Helvetica,sans-Serif" font-size="10.00">AssemblyBoundaryEleOp</text>
</a>
</g>
</g>
<!-- Node2&#45;&gt;Node1 -->
<g id="edge1" class="edge">
<title>Node2&#45;&gt;Node1</title>
<path fill="none" stroke="midnightblue" d="M107.08,-75.53C146.85,-63.24 210.02,-43.7 252.7,-30.51"/>
<polygon fill="midnightblue" stroke="midnightblue" points="106.02,-72.2 97.5,-78.5 108.09,-78.89 106.02,-72.2"/>
</g>
<!-- Node3 -->
<g id="node3" class="node">
<title>Node3</title>
<g id="a_node3"><a xlink:title=" ">
<polygon fill="white" stroke="#bfbfbf" points="158.5,-78.5 158.5,-97.5 315.5,-97.5 315.5,-78.5 158.5,-78.5"/>
<text text-anchor="middle" x="237" y="-85.5" font-family="Helvetica,sans-Serif" font-size="10.00">shared_ptr&lt; MatrixDouble &gt;</text>
</a>
</g>
</g>
<!-- Node3&#45;&gt;Node1 -->
<g id="edge2" class="edge">
<title>Node3&#45;&gt;Node1</title>
<path fill="none" stroke="#9a32cd" stroke-dasharray="5,2" d="M251.07,-70.74C261.57,-58.6 275.8,-42.16 285.82,-30.58"/>
<polygon fill="#9a32cd" stroke="#9a32cd" points="248.38,-68.5 244.48,-78.36 253.67,-73.08 248.38,-68.5"/>
<text text-anchor="middle" x="292" y="-52" font-family="Helvetica,sans-Serif" font-size="10.00"> gradHPtr</text>
</g>
<!-- Node4 -->
<g id="node4" class="node">
<title>Node4</title>
<g id="a_node4"><a xlink:href="classdouble.html" target="_top" xlink:title=" ">
<polygon fill="white" stroke="black" points="334,-78.5 334,-97.5 384,-97.5 384,-78.5 334,-78.5"/>
<text text-anchor="middle" x="359" y="-85.5" font-family="Helvetica,sans-Serif" font-size="10.00">double</text>
</a>
</g>
</g>
<!-- Node4&#45;&gt;Node1 -->
<g id="edge3" class="edge">
<title>Node4&#45;&gt;Node1</title>
<path fill="none" stroke="#9a32cd" stroke-dasharray="5,2" d="M344.93,-70.74C334.43,-58.6 320.2,-42.16 310.18,-30.58"/>
<polygon fill="#9a32cd" stroke="#9a32cd" points="342.33,-73.08 351.52,-78.36 347.62,-68.5 342.33,-73.08"/>
<text text-anchor="middle" x="367" y="-52" font-family="Helvetica,sans-Serif" font-size="10.00"> wettingAngle</text>
</g>
<!-- Node5 -->
<g id="node5" class="node">
<title>Node5</title>
<g id="a_node5"><a xlink:title=" ">
<polygon fill="white" stroke="#bfbfbf" points="402,-78.5 402,-97.5 524,-97.5 524,-78.5 402,-78.5"/>
<text text-anchor="middle" x="463" y="-85.5" font-family="Helvetica,sans-Serif" font-size="10.00">shared_ptr&lt; Range &gt;</text>
</a>
</g>
</g>
<!-- Node5&#45;&gt;Node1 -->
<g id="edge4" class="edge">
<title>Node5&#45;&gt;Node1</title>
<path fill="none" stroke="#9a32cd" stroke-dasharray="5,2" d="M443.69,-72.34C432.78,-64.58 418.63,-55.37 405,-49 389.26,-41.64 371.45,-35.45 354.94,-30.52"/>
<polygon fill="#9a32cd" stroke="#9a32cd" points="441.87,-75.35 452.01,-78.42 446,-69.69 441.87,-75.35"/>
<text text-anchor="middle" x="444" y="-52" font-family="Helvetica,sans-Serif" font-size="10.00"> entsPtr</text>
</g>
</g>
</svg>
