<?xml version="1.0" encoding="UTF-8" standalone="no"?>
<!DOCTYPE svg PUBLIC "-//W3C//DTD SVG 1.1//EN"
 "http://www.w3.org/Graphics/SVG/1.1/DTD/svg11.dtd">
<!-- Generated by graphviz version 9.0.0 (20230911.1827)
 -->
<!-- Title: PoissonExample::OpResF_Domain Pages: 1 -->
<!--zoomable 443 -->
<svg id="main" version="1.1" xmlns="http://www.w3.org/2000/svg" xmlns:xlink="http://www.w3.org/1999/xlink" xml:space="preserve" onload="init(evt)">
<style type="text/css"><![CDATA[
.edge:hover path { stroke: red; }
.edge:hover polygon { stroke: red; fill: red; }
]]></style>
<script type="text/javascript"><![CDATA[
var edges = document.getElementsByTagName('g');
if (edges && edges.length) {
  for (var i=0;i<edges.length;i++) {
    if (edges[i].id.substr(0,4)=='edge') {
      edges[i].setAttribute('class','edge');
    }
  }
}
]]></script>
        <defs>
                <circle id="rim" cx="0" cy="0" r="7"/>
                <circle id="rim2" cx="0" cy="0" r="3.5"/>
                <g id="zoomPlus">
                        <use xlink:href="#rim" fill="#404040">
                                <set attributeName="fill" to="#808080" begin="zoomplus.mouseover" end="zoomplus.mouseout"/>
                        </use>
                        <path d="M-4,0h8M0,-4v8" fill="none" stroke="white" stroke-width="1.5" pointer-events="none"/>
                </g>
                <g id="zoomMin">
                        <use xlink:href="#rim" fill="#404040">
                                <set attributeName="fill" to="#808080" begin="zoomminus.mouseover" end="zoomminus.mouseout"/>
                        </use>
                        <path d="M-4,0h8" fill="none" stroke="white" stroke-width="1.5" pointer-events="none"/>
                </g>
                <g id="dirArrow">
                        <path fill="none" stroke="white" stroke-width="1.5" d="M0,-3.0v7 M-2.5,-0.5L0,-3.0L2.5,-0.5"/>
                </g>
               <g id="resetDef">
                       <use xlink:href="#rim2" fill="#404040">
                               <set attributeName="fill" to="#808080" begin="reset.mouseover" end="reset.mouseout"/>
                       </use>
               </g>
        </defs>

<script type="text/javascript">
var viewWidth = 1131;
var viewHeight = 443;
var sectionId = 'dynsection-1';
</script>
<script xlink:href="svgpan.js"/>
<svg id="graph" class="graph">
<g id="viewport">
<title>PoissonExample::OpResF_Domain</title>
<!-- Node1 -->
<g id="node1" class="node">
<title>Node1</title>
<g id="a_node1"><a xlink:title=" ">
<polygon fill="#999999" stroke="#666666" points="1123.25,-104.88 991,-104.88 991,-74.38 1123.25,-74.38 1123.25,-104.88"/>
<text text-anchor="start" x="999" y="-91.38" font-family="Helvetica,sans-Serif" font-size="10.00">PoissonExample::OpResF</text>
<text text-anchor="middle" x="1057.12" y="-80.12" font-family="Helvetica,sans-Serif" font-size="10.00">_Domain</text>
</a>
</g>
</g>
<!-- Node2 -->
<g id="node2" class="node">
<title>Node2</title>
<g id="a_node2"><a xlink:href="struct_poisson_example_1_1_op_f.html" target="_top" xlink:title="Operator calculate source term,.">
<polygon fill="white" stroke="#666666" points="902.12,-231.25 787.88,-231.25 787.88,-212 902.12,-212 902.12,-231.25"/>
<text text-anchor="middle" x="845" y="-217.75" font-family="Helvetica,sans-Serif" font-size="10.00">PoissonExample::OpF</text>
</a>
</g>
</g>
<!-- Node2&#45;&gt;Node1 -->
<g id="edge1" class="edge">
<title>Node2&#45;&gt;Node1</title>
<path fill="none" stroke="#63b8ff" d="M871.48,-205.62C912.1,-180.1 991.04,-130.51 1031.27,-105.24"/>
<polygon fill="#63b8ff" stroke="#63b8ff" points="869.68,-202.62 863.08,-210.9 873.4,-208.54 869.68,-202.62"/>
</g>
<!-- Node3 -->
<g id="node3" class="node">
<title>Node3</title>
<g id="a_node3"><a xlink:href="struct_poisson_example_1_1_op_base_rhs.html" target="_top" xlink:title=" ">
<polygon fill="white" stroke="#666666" points="700.5,-375.5 523.25,-375.5 523.25,-333.75 700.5,-333.75 700.5,-375.5"/>
<text text-anchor="start" x="531.25" y="-362" font-family="Helvetica,sans-Serif" font-size="10.00">PoissonExample::OpBaseRhs</text>
<text text-anchor="start" x="531.25" y="-350.75" font-family="Helvetica,sans-Serif" font-size="10.00">&lt; VolumeElementForcesAndSources</text>
<text text-anchor="middle" x="611.88" y="-339.5" font-family="Helvetica,sans-Serif" font-size="10.00">Core::UserDataOperator &gt;</text>
</a>
</g>
</g>
<!-- Node3&#45;&gt;Node2 -->
<g id="edge2" class="edge">
<title>Node3&#45;&gt;Node2</title>
<path fill="none" stroke="#63b8ff" d="M670.62,-328.68C680.62,-324.07 690.89,-319.26 700.5,-314.62 726.1,-302.28 733.33,-300.57 757.5,-285.62 785.31,-268.43 815.52,-244.84 831.85,-231.63"/>
<polygon fill="#63b8ff" stroke="#63b8ff" points="669.35,-325.42 661.72,-332.77 672.27,-331.78 669.35,-325.42"/>
</g>
<!-- Node4 -->
<g id="node4" class="node">
<title>Node4</title>
<g id="a_node4"><a xlink:title=" ">
<polygon fill="white" stroke="#666666" points="335.75,-434.88 167.5,-434.88 167.5,-404.38 335.75,-404.38 335.75,-434.88"/>
<text text-anchor="start" x="175.5" y="-421.38" font-family="Helvetica,sans-Serif" font-size="10.00">VolumeElementForcesAndSources</text>
<text text-anchor="middle" x="251.62" y="-410.12" font-family="Helvetica,sans-Serif" font-size="10.00">Core::UserDataOperator</text>
</a>
</g>
</g>
<!-- Node4&#45;&gt;Node3 -->
<g id="edge3" class="edge">
<title>Node4&#45;&gt;Node3</title>
<path fill="none" stroke="#63b8ff" d="M347.36,-405.02C394.86,-397.4 453.21,-387.61 505.25,-377.62 510.96,-376.53 516.84,-375.36 522.76,-374.15"/>
<polygon fill="#63b8ff" stroke="#63b8ff" points="346.98,-401.53 337.65,-406.57 348.08,-408.45 346.98,-401.53"/>
</g>
<!-- Node5 -->
<g id="node5" class="node">
<title>Node5</title>
<g id="a_node5"><a xlink:title=" ">
<polygon fill="white" stroke="#666666" points="43.02,-356.25 14.22,-356.25 14.22,-337 43.02,-337 43.02,-356.25"/>
<text text-anchor="middle" x="28.62" y="-342.75" font-family="Helvetica,sans-Serif" font-size="10.00">int</text>
</a>
</g>
</g>
<!-- Node5&#45;&gt;Node3 -->
<g id="edge4" class="edge">
<title>Node5&#45;&gt;Node3</title>
<path fill="none" stroke="#9a32cd" stroke-dasharray="5,2" d="M54.48,-348.51C61.21,-348.96 68.51,-349.37 75.25,-349.62 233,-355.54 417.05,-355.81 523.16,-355.32"/>
<polygon fill="#9a32cd" stroke="#9a32cd" points="54.92,-345.04 44.7,-347.82 54.43,-352.02 54.92,-345.04"/>
<text text-anchor="middle" x="251.62" y="-367.62" font-family="Helvetica,sans-Serif" font-size="10.00"> nbIntegrationPts</text>
<text text-anchor="middle" x="251.62" y="-356.38" font-family="Helvetica,sans-Serif" font-size="10.00">nbRows</text>
</g>
<!-- Node6 -->
<g id="node6" class="node">
<title>Node6</title>
<g id="a_node6"><a xlink:href="struct_poisson_example_1_1_op_base_rhs.html" target="_top" xlink:title="template class for integration oh the right hand side">
<polygon fill="white" stroke="#666666" points="326,-327.88 177.25,-327.88 177.25,-297.38 326,-297.38 326,-327.88"/>
<text text-anchor="start" x="185.25" y="-314.38" font-family="Helvetica,sans-Serif" font-size="10.00">PoissonExample::OpBaseRhs</text>
<text text-anchor="middle" x="251.62" y="-303.12" font-family="Helvetica,sans-Serif" font-size="10.00">&lt; OPBASE &gt;</text>
</a>
</g>
</g>
<!-- Node5&#45;&gt;Node6 -->
<g id="edge7" class="edge">
<title>Node5&#45;&gt;Node6</title>
<path fill="none" stroke="#9a32cd" stroke-dasharray="5,2" d="M53.29,-334.81C60.21,-331.82 67.9,-328.95 75.25,-327.12 108.02,-319 145.17,-315.18 176.82,-313.47"/>
<polygon fill="#9a32cd" stroke="#9a32cd" points="52.19,-331.46 44.58,-338.82 55.12,-337.82 52.19,-331.46"/>
<text text-anchor="middle" x="112.38" y="-339.62" font-family="Helvetica,sans-Serif" font-size="10.00"> nbIntegrationPts</text>
<text text-anchor="middle" x="112.38" y="-328.38" font-family="Helvetica,sans-Serif" font-size="10.00">nbRows</text>
</g>
<!-- Node6&#45;&gt;Node3 -->
<g id="edge5" class="edge">
<title>Node6&#45;&gt;Node3</title>
<path fill="none" stroke="orange" stroke-dasharray="5,2" d="M337.51,-313.33C386.75,-314.77 449.79,-318.4 505.25,-327.12 515.45,-328.73 526.1,-330.9 536.53,-333.32"/>
<polygon fill="orange" stroke="orange" points="337.87,-309.84 327.78,-313.07 337.68,-316.83 337.87,-309.84"/>
<text text-anchor="start" x="353.75" y="-339.62" font-family="Helvetica,sans-Serif" font-size="10.00"> &lt; VolumeElementForcesAnd</text>
<text text-anchor="middle" x="429.5" y="-328.38" font-family="Helvetica,sans-Serif" font-size="10.00">SourcesCore::UserDataOperator &gt;</text>
</g>
<!-- Node7 -->
<g id="node7" class="node">
<title>Node7</title>
<g id="a_node7"><a xlink:href="class_o_p_b_a_s_e.html" target="_top" xlink:title=" ">
<polygon fill="white" stroke="#666666" points="57.25,-302.25 0,-302.25 0,-283 57.25,-283 57.25,-302.25"/>
<text text-anchor="middle" x="28.62" y="-288.75" font-family="Helvetica,sans-Serif" font-size="10.00">OPBASE</text>
</a>
</g>
</g>
<!-- Node7&#45;&gt;Node6 -->
<g id="edge6" class="edge">
<title>Node7&#45;&gt;Node6</title>
<path fill="none" stroke="#63b8ff" d="M68.84,-296.17C98.73,-298.88 140.77,-302.68 176.9,-305.95"/>
<polygon fill="#63b8ff" stroke="#63b8ff" points="69.4,-292.71 59.12,-295.29 68.77,-299.68 69.4,-292.71"/>
</g>
<!-- Node8 -->
<g id="node8" class="node">
<title>Node8</title>
<g id="a_node8"><a xlink:href="class_f_tensor_1_1_number.html" target="_top" xlink:title=" ">
<polygon fill="white" stroke="#666666" points="669.38,-305.25 554.38,-305.25 554.38,-286 669.38,-286 669.38,-305.25"/>
<text text-anchor="middle" x="611.88" y="-291.75" font-family="Helvetica,sans-Serif" font-size="10.00">FTensor::Number&lt; 0 &gt;</text>
</a>
</g>
</g>
<!-- Node8&#45;&gt;Node2 -->
<g id="edge8" class="edge">
<title>Node8&#45;&gt;Node2</title>
<path fill="none" stroke="#9a32cd" stroke-dasharray="5,2" d="M679.84,-283.07C686.86,-281.39 693.85,-279.58 700.5,-277.62 744.64,-264.67 794.24,-243.84 822.04,-231.57"/>
<polygon fill="#9a32cd" stroke="#9a32cd" points="679.29,-279.6 670.32,-285.24 680.85,-286.43 679.29,-279.6"/>
<text text-anchor="middle" x="738" y="-272.38" font-family="Helvetica,sans-Serif" font-size="10.00"> NX</text>
</g>
<!-- Node9 -->
<g id="node9" class="node">
<title>Node9</title>
<g id="a_node9"><a xlink:href="class_f_tensor_1_1_number.html" target="_top" xlink:title=" ">
<polygon fill="white" stroke="#666666" points="310.25,-267.25 193,-267.25 193,-248 310.25,-248 310.25,-267.25"/>
<text text-anchor="middle" x="251.62" y="-253.75" font-family="Helvetica,sans-Serif" font-size="10.00">FTensor::Number&lt; N &gt;</text>
</a>
</g>
</g>
<!-- Node9&#45;&gt;Node8 -->
<g id="edge9" class="edge">
<title>Node9&#45;&gt;Node8</title>
<path fill="none" stroke="orange" stroke-dasharray="5,2" d="M322.03,-266.02C332.65,-267.26 343.49,-268.5 353.75,-269.62 422.54,-277.18 501.79,-285.07 553.91,-290.15"/>
<polygon fill="orange" stroke="orange" points="322.47,-262.55 312.13,-264.86 321.65,-269.5 322.47,-262.55"/>
<text text-anchor="middle" x="429.5" y="-286.38" font-family="Helvetica,sans-Serif" font-size="10.00"> &lt; 0 &gt;</text>
</g>
<!-- Node10 -->
<g id="node10" class="node">
<title>Node10</title>
<g id="a_node10"><a xlink:href="class_f_tensor_1_1_number.html" target="_top" xlink:title=" ">
<polygon fill="white" stroke="#666666" points="669.38,-268.25 554.38,-268.25 554.38,-249 669.38,-249 669.38,-268.25"/>
<text text-anchor="middle" x="611.88" y="-254.75" font-family="Helvetica,sans-Serif" font-size="10.00">FTensor::Number&lt; 1 &gt;</text>
</a>
</g>
</g>
<!-- Node9&#45;&gt;Node10 -->
<g id="edge11" class="edge">
<title>Node9&#45;&gt;Node10</title>
<path fill="none" stroke="orange" stroke-dasharray="5,2" d="M321.95,-257.82C389.48,-258.01 490.91,-258.29 553.89,-258.47"/>
<polygon fill="orange" stroke="orange" points="322.11,-254.32 312.1,-257.79 322.09,-261.32 322.11,-254.32"/>
<text text-anchor="middle" x="429.5" y="-259.38" font-family="Helvetica,sans-Serif" font-size="10.00"> &lt; 1 &gt;</text>
</g>
<!-- Node11 -->
<g id="node11" class="node">
<title>Node11</title>
<g id="a_node11"><a xlink:href="class_f_tensor_1_1_number.html" target="_top" xlink:title=" ">
<polygon fill="white" stroke="#666666" points="669.38,-231.25 554.38,-231.25 554.38,-212 669.38,-212 669.38,-231.25"/>
<text text-anchor="middle" x="611.88" y="-217.75" font-family="Helvetica,sans-Serif" font-size="10.00">FTensor::Number&lt; 2 &gt;</text>
</a>
</g>
</g>
<!-- Node9&#45;&gt;Node11 -->
<g id="edge13" class="edge">
<title>Node9&#45;&gt;Node11</title>
<path fill="none" stroke="orange" stroke-dasharray="5,2" d="M321.62,-246.57C332.36,-245.04 343.34,-243.58 353.75,-242.38 422.48,-234.43 501.91,-228.52 554.08,-225.08"/>
<polygon fill="orange" stroke="orange" points="321.44,-243.06 312.05,-247.97 322.45,-249.99 321.44,-243.06"/>
<text text-anchor="middle" x="429.5" y="-243.38" font-family="Helvetica,sans-Serif" font-size="10.00"> &lt; 2 &gt;</text>
</g>
<!-- Node10&#45;&gt;Node2 -->
<g id="edge10" class="edge">
<title>Node10&#45;&gt;Node2</title>
<path fill="none" stroke="#9a32cd" stroke-dasharray="5,2" d="M680.92,-247.73C714.78,-242.31 755.24,-235.83 787.38,-230.69"/>
<polygon fill="#9a32cd" stroke="#9a32cd" points="680.53,-244.25 671.21,-249.29 681.63,-251.16 680.53,-244.25"/>
<text text-anchor="middle" x="738" y="-242.38" font-family="Helvetica,sans-Serif" font-size="10.00"> NY</text>
</g>
<!-- Node11&#45;&gt;Node2 -->
<g id="edge12" class="edge">
<title>Node11&#45;&gt;Node2</title>
<path fill="none" stroke="#9a32cd" stroke-dasharray="5,2" d="M680.92,-221.62C714.78,-221.62 755.24,-221.62 787.38,-221.62"/>
<polygon fill="#9a32cd" stroke="#9a32cd" points="681.22,-218.13 671.22,-221.63 681.22,-225.13 681.22,-218.13"/>
<text text-anchor="middle" x="738" y="-223.38" font-family="Helvetica,sans-Serif" font-size="10.00"> NZ</text>
</g>
<!-- Node12 -->
<g id="node12" class="node">
<title>Node12</title>
<g id="a_node12"><a xlink:title=" ">
<polygon fill="white" stroke="#666666" points="669.38,-193.5 554.38,-193.5 554.38,-151.75 669.38,-151.75 669.38,-193.5"/>
<text text-anchor="start" x="562.38" y="-180" font-family="Helvetica,sans-Serif" font-size="10.00">function&lt; double(const</text>
<text text-anchor="start" x="562.38" y="-168.75" font-family="Helvetica,sans-Serif" font-size="10.00"> double, const double,</text>
<text text-anchor="middle" x="611.88" y="-157.5" font-family="Helvetica,sans-Serif" font-size="10.00"> const double)&gt;</text>
</a>
</g>
</g>
<!-- Node12&#45;&gt;Node2 -->
<g id="edge14" class="edge">
<title>Node12&#45;&gt;Node2</title>
<path fill="none" stroke="#9a32cd" stroke-dasharray="5,2" d="M680.95,-187.06C718.04,-194.92 763.04,-204.46 796.36,-211.52"/>
<polygon fill="#9a32cd" stroke="#9a32cd" points="681.7,-183.64 671.19,-184.99 680.25,-190.49 681.7,-183.64"/>
<text text-anchor="middle" x="738" y="-204.38" font-family="Helvetica,sans-Serif" font-size="10.00"> fSource</text>
</g>
<!-- Node13 -->
<g id="node13" class="node">
<title>Node13</title>
<g id="a_node13"><a xlink:title=" ">
<polygon fill="white" stroke="#666666" points="649.5,-133.25 574.25,-133.25 574.25,-114 649.5,-114 649.5,-133.25"/>
<text text-anchor="middle" x="611.88" y="-119.75" font-family="Helvetica,sans-Serif" font-size="10.00">VectorDouble</text>
</a>
</g>
</g>
<!-- Node13&#45;&gt;Node2 -->
<g id="edge15" class="edge">
<title>Node13&#45;&gt;Node2</title>
<path fill="none" stroke="#9a32cd" stroke-dasharray="5,2" d="M660.96,-131.44C674.01,-134.26 687.99,-137.94 700.5,-142.62 750.3,-161.28 803.92,-194.83 829.2,-211.57"/>
<polygon fill="#9a32cd" stroke="#9a32cd" points="661.77,-128.03 651.27,-129.47 660.38,-134.89 661.77,-128.03"/>
<text text-anchor="middle" x="738" y="-168.38" font-family="Helvetica,sans-Serif" font-size="10.00"> locVec</text>
</g>
<!-- Node14 -->
<g id="node14" class="node">
<title>Node14</title>
<g id="a_node14"><a xlink:href="class_f_tensor_1_1_index.html" target="_top" xlink:title=" ">
<polygon fill="white" stroke="#666666" points="903.62,-142.25 786.38,-142.25 786.38,-123 903.62,-123 903.62,-142.25"/>
<text text-anchor="middle" x="845" y="-128.75" font-family="Helvetica,sans-Serif" font-size="10.00">FTensor::Index&lt; &#39;i&#39;, 3 &gt;</text>
</a>
</g>
</g>
<!-- Node14&#45;&gt;Node1 -->
<g id="edge16" class="edge">
<title>Node14&#45;&gt;Node1</title>
<path fill="none" stroke="#9a32cd" stroke-dasharray="5,2" d="M906.29,-120.29C932.74,-114.87 963.85,-108.51 990.85,-102.98"/>
<polygon fill="#9a32cd" stroke="#9a32cd" points="905.84,-116.81 896.75,-122.24 907.25,-123.66 905.84,-116.81"/>
<text text-anchor="middle" x="952.75" y="-115.38" font-family="Helvetica,sans-Serif" font-size="10.00"> i</text>
</g>
<!-- Node15 -->
<g id="node15" class="node">
<title>Node15</title>
<g id="a_node15"><a xlink:href="class_f_tensor_1_1_index.html" target="_top" xlink:title=" ">
<polygon fill="white" stroke="#666666" points="659.62,-95.88 564.12,-95.88 564.12,-65.38 659.62,-65.38 659.62,-95.88"/>
<text text-anchor="start" x="572.12" y="-82.38" font-family="Helvetica,sans-Serif" font-size="10.00">FTensor::Index&lt; i,</text>
<text text-anchor="middle" x="611.88" y="-71.12" font-family="Helvetica,sans-Serif" font-size="10.00"> Dim &gt;</text>
</a>
</g>
</g>
<!-- Node15&#45;&gt;Node14 -->
<g id="edge17" class="edge">
<title>Node15&#45;&gt;Node14</title>
<path fill="none" stroke="orange" stroke-dasharray="5,2" d="M671.33,-73.88C698.94,-73.29 731.46,-76.5 757.5,-90.38 769.03,-96.52 764.65,-106.34 775.5,-113.62 780.93,-117.27 787.05,-120.22 793.34,-122.61"/>
<polygon fill="orange" stroke="orange" points="671.19,-70.39 661.34,-74.29 671.48,-77.38 671.19,-70.39"/>
<text text-anchor="middle" x="738" y="-92.38" font-family="Helvetica,sans-Serif" font-size="10.00"> &lt; &#39;i&#39;, 3 &gt;</text>
</g>
<!-- Node16 -->
<g id="node16" class="node">
<title>Node16</title>
<g id="a_node16"><a xlink:title=" ">
<polygon fill="white" stroke="#666666" points="902.5,-104.88 787.5,-104.88 787.5,-74.38 902.5,-74.38 902.5,-104.88"/>
<text text-anchor="start" x="795.5" y="-91.38" font-family="Helvetica,sans-Serif" font-size="10.00">function&lt; double(const</text>
<text text-anchor="middle" x="845" y="-80.12" font-family="Helvetica,sans-Serif" font-size="10.00"> double)&gt;</text>
</a>
</g>
</g>
<!-- Node16&#45;&gt;Node1 -->
<g id="edge18" class="edge">
<title>Node16&#45;&gt;Node1</title>
<path fill="none" stroke="#9a32cd" stroke-dasharray="5,2" d="M914.26,-89.62C938.79,-89.62 966.38,-89.62 990.67,-89.62"/>
<polygon fill="#9a32cd" stroke="#9a32cd" points="914.38,-86.13 904.38,-89.63 914.38,-93.13 914.38,-86.13"/>
<text text-anchor="middle" x="952.75" y="-91.38" font-family="Helvetica,sans-Serif" font-size="10.00"> A</text>
</g>
<!-- Node17 -->
<g id="node17" class="node">
<title>Node17</title>
<g id="a_node17"><a xlink:title=" ">
<polygon fill="white" stroke="#666666" points="914.5,-56.25 775.5,-56.25 775.5,-37 914.5,-37 914.5,-56.25"/>
<text text-anchor="middle" x="845" y="-42.75" font-family="Helvetica,sans-Serif" font-size="10.00">shared_ptr&lt; VectorDouble &gt;</text>
</a>
</g>
</g>
<!-- Node17&#45;&gt;Node1 -->
<g id="edge19" class="edge">
<title>Node17&#45;&gt;Node1</title>
<path fill="none" stroke="#9a32cd" stroke-dasharray="5,2" d="M906.29,-58.96C932.74,-64.38 963.85,-70.74 990.85,-76.27"/>
<polygon fill="#9a32cd" stroke="#9a32cd" points="907.25,-55.59 896.75,-57.01 905.84,-62.44 907.25,-55.59"/>
<text text-anchor="middle" x="952.75" y="-74.38" font-family="Helvetica,sans-Serif" font-size="10.00"> fieldVals</text>
</g>
<!-- Node18 -->
<g id="node18" class="node">
<title>Node18</title>
<g id="a_node18"><a xlink:title=" ">
<polygon fill="white" stroke="#666666" points="913.75,-19.25 776.25,-19.25 776.25,0 913.75,0 913.75,-19.25"/>
<text text-anchor="middle" x="845" y="-5.75" font-family="Helvetica,sans-Serif" font-size="10.00">shared_ptr&lt; MatrixDouble &gt;</text>
</a>
</g>
</g>
<!-- Node18&#45;&gt;Node1 -->
<g id="edge20" class="edge">
<title>Node18&#45;&gt;Node1</title>
<path fill="none" stroke="#9a32cd" stroke-dasharray="5,2" d="M898.56,-22.78C903.97,-24.33 909.36,-25.96 914.5,-27.62 953.69,-40.35 996.8,-60.1 1025.04,-73.88"/>
<polygon fill="#9a32cd" stroke="#9a32cd" points="899.55,-19.42 888.97,-20.13 897.68,-26.17 899.55,-19.42"/>
<text text-anchor="middle" x="952.75" y="-51.38" font-family="Helvetica,sans-Serif" font-size="10.00"> gradVals</text>
</g>
</g>
</svg>
        <g id="navigator" transform="translate(0 0)" fill="#404254">
                <rect fill="#f2f5e9" fill-opacity="0.5" stroke="#606060" stroke-width=".5" x="0" y="0" width="60" height="60"/>
                <use id="zoomplus" xlink:href="#zoomPlus" x="17" y="9" onmousedown="handleZoom(evt,'in')"/>
                <use id="zoomminus" xlink:href="#zoomMin" x="42" y="9" onmousedown="handleZoom(evt,'out')"/>
                <use id="reset" xlink:href="#resetDef" x="30" y="36" onmousedown="handleReset()"/>
                <g id="arrowUp" xlink:href="#dirArrow" transform="translate(30 24)" onmousedown="handlePan(0,-1)">
                  <use xlink:href="#rim" fill="#404040">
                        <set attributeName="fill" to="#808080" begin="arrowUp.mouseover" end="arrowUp.mouseout"/>
                  </use>
                  <path fill="none" stroke="white" stroke-width="1.5" d="M0,-3.0v7 M-2.5,-0.5L0,-3.0L2.5,-0.5"/>
                </g>
                <g id="arrowRight" xlink:href="#dirArrow" transform="rotate(90) translate(36 -43)" onmousedown="handlePan(1,0)">
                  <use xlink:href="#rim" fill="#404040">
                        <set attributeName="fill" to="#808080" begin="arrowRight.mouseover" end="arrowRight.mouseout"/>
                  </use>
                  <path fill="none" stroke="white" stroke-width="1.5" d="M0,-3.0v7 M-2.5,-0.5L0,-3.0L2.5,-0.5"/>
                </g>
                <g id="arrowDown" xlink:href="#dirArrow" transform="rotate(180) translate(-30 -48)" onmousedown="handlePan(0,1)">
                  <use xlink:href="#rim" fill="#404040">
                        <set attributeName="fill" to="#808080" begin="arrowDown.mouseover" end="arrowDown.mouseout"/>
                  </use>
                  <path fill="none" stroke="white" stroke-width="1.5" d="M0,-3.0v7 M-2.5,-0.5L0,-3.0L2.5,-0.5"/>
                </g>
                <g id="arrowLeft" xlink:href="#dirArrow" transform="rotate(270) translate(-36 17)" onmousedown="handlePan(-1,0)">
                  <use xlink:href="#rim" fill="#404040">
                        <set attributeName="fill" to="#808080" begin="arrowLeft.mouseover" end="arrowLeft.mouseout"/>
                  </use>
                  <path fill="none" stroke="white" stroke-width="1.5" d="M0,-3.0v7 M-2.5,-0.5L0,-3.0L2.5,-0.5"/>
                </g>
        </g>
        <svg viewBox="0 0 15 15" width="100%" height="30px" preserveAspectRatio="xMaxYMin meet">
         <g id="arrow_out" transform="scale(0.3 0.3)">
          <a xlink:href="struct_poisson_example_1_1_op_res_f___domain__coll__graph_org.svg" target="_base">
           <rect id="button" ry="5" rx="5" y="6" x="6" height="38" width="38"
                fill="#f2f5e9" fill-opacity="0.5" stroke="#606060" stroke-width="1.0"/>
           <path id="arrow"
             d="M 11.500037,31.436501 C 11.940474,20.09759 22.043105,11.32322 32.158766,21.979434 L 37.068811,17.246167 C 37.068811,17.246167 37.088388,32 37.088388,32 L 22.160133,31.978069 C 22.160133,31.978069 26.997745,27.140456 26.997745,27.140456 C 18.528582,18.264221 13.291696,25.230495 11.500037,31.436501 z"
             style="fill:#404040;"/>
          </a>
         </g>
        </svg>
</svg>
