<?xml version="1.0" encoding="UTF-8" standalone="no"?>
<!DOCTYPE svg PUBLIC "-//W3C//DTD SVG 1.1//EN"
 "http://www.w3.org/Graphics/SVG/1.1/DTD/svg11.dtd">
<!-- Generated by graphviz version 2.43.0 (0)
 -->
<!-- Title: BCs_RVELagrange_Periodic::OpRVEBCsPeriodicRhs Pages: 1 -->
<svg width="1031pt" height="394pt"
 viewBox="0.00 0.00 1031.00 394.43" xmlns="http://www.w3.org/2000/svg" xmlns:xlink="http://www.w3.org/1999/xlink">
<g id="graph0" class="graph" transform="scale(1 1) rotate(0) translate(4 390.43)">
<title>BCs_RVELagrange_Periodic::OpRVEBCsPeriodicRhs</title>
<polygon fill="white" stroke="transparent" points="-4,4 -4,-390.43 1027,-390.43 1027,4 -4,4"/>
<!-- Node1 -->
<g id="node1" class="node">
<title>Node1</title>
<g id="a_node1"><a xlink:title=" ">
<polygon fill="#bfbfbf" stroke="black" points="874,-163.43 874,-193.43 1023,-193.43 1023,-163.43 874,-163.43"/>
<text text-anchor="start" x="882" y="-181.43" font-family="Helvetica,sans-Serif" font-size="10.00">BCs_RVELagrange_Periodic</text>
<text text-anchor="middle" x="948.5" y="-170.43" font-family="Helvetica,sans-Serif" font-size="10.00">::OpRVEBCsPeriodicRhs</text>
</a>
</g>
</g>
<!-- Node2 -->
<g id="node2" class="node">
<title>Node2</title>
<g id="a_node2"><a xlink:href="structBCs__RVELagrange__Periodic_1_1OpDmatRhs.html" target="_top" xlink:title="\biref operator to calculate the RHS of the constrain for the RVE boundary conditions">
<polygon fill="white" stroke="black" points="621,-207.43 621,-237.43 770,-237.43 770,-207.43 621,-207.43"/>
<text text-anchor="start" x="629" y="-225.43" font-family="Helvetica,sans-Serif" font-size="10.00">BCs_RVELagrange_Periodic</text>
<text text-anchor="middle" x="695.5" y="-214.43" font-family="Helvetica,sans-Serif" font-size="10.00">::OpDmatRhs</text>
</a>
</g>
</g>
<!-- Node2&#45;&gt;Node1 -->
<g id="edge1" class="edge">
<title>Node2&#45;&gt;Node1</title>
<path fill="none" stroke="midnightblue" d="M780.24,-207.75C810.54,-202.44 844.52,-196.49 873.89,-191.34"/>
<polygon fill="midnightblue" stroke="midnightblue" points="779.36,-204.35 770.11,-209.53 780.57,-211.25 779.36,-204.35"/>
</g>
<!-- Node3 -->
<g id="node3" class="node">
<title>Node3</title>
<g id="a_node3"><a xlink:title=" ">
<polygon fill="white" stroke="#bfbfbf" points="324.5,-366.93 324.5,-385.93 429.5,-385.93 429.5,-366.93 324.5,-366.93"/>
<text text-anchor="middle" x="377" y="-373.93" font-family="Helvetica,sans-Serif" font-size="10.00">UserDataOperator</text>
</a>
</g>
</g>
<!-- Node3&#45;&gt;Node2 -->
<g id="edge2" class="edge">
<title>Node3&#45;&gt;Node2</title>
<path fill="none" stroke="midnightblue" d="M439.76,-384.58C487.55,-387.81 553.67,-385.35 603,-356.43 649.9,-328.94 678.09,-266.74 689.13,-237.79"/>
<polygon fill="midnightblue" stroke="midnightblue" points="439.79,-381.07 429.55,-383.78 439.25,-388.05 439.79,-381.07"/>
</g>
<!-- Node4 -->
<g id="node4" class="node">
<title>Node4</title>
<g id="a_node4"><a xlink:title=" ">
<polygon fill="white" stroke="#bfbfbf" points="335.5,-328.93 335.5,-347.93 418.5,-347.93 418.5,-328.93 335.5,-328.93"/>
<text text-anchor="middle" x="377" y="-335.93" font-family="Helvetica,sans-Serif" font-size="10.00">MatrixDouble</text>
</a>
</g>
</g>
<!-- Node4&#45;&gt;Node2 -->
<g id="edge3" class="edge">
<title>Node4&#45;&gt;Node2</title>
<path fill="none" stroke="#9a32cd" stroke-dasharray="5,2" d="M428.82,-342.09C476.2,-343.41 547.68,-339.93 603,-313.43 639.17,-296.11 669.49,-258.52 684.46,-237.48"/>
<polygon fill="#9a32cd" stroke="#9a32cd" points="428.91,-338.59 418.79,-341.73 428.66,-345.59 428.91,-338.59"/>
<text text-anchor="middle" x="537" y="-344.43" font-family="Helvetica,sans-Serif" font-size="10.00"> N_mat</text>
</g>
<!-- Node5 -->
<g id="node5" class="node">
<title>Node5</title>
<g id="a_node5"><a xlink:title=" ">
<polygon fill="white" stroke="#bfbfbf" points="17.5,-310.93 17.5,-329.93 153.5,-329.93 153.5,-310.93 17.5,-310.93"/>
<text text-anchor="middle" x="85.5" y="-317.93" font-family="Helvetica,sans-Serif" font-size="10.00">vector&lt; MatrixDouble &gt;</text>
</a>
</g>
</g>
<!-- Node5&#45;&gt;Node2 -->
<g id="edge4" class="edge">
<title>Node5&#45;&gt;Node2</title>
<path fill="none" stroke="#9a32cd" stroke-dasharray="5,2" d="M156.06,-309.33C255.27,-293.47 443.09,-263.39 603,-237.43 608.72,-236.5 614.64,-235.54 620.59,-234.57"/>
<polygon fill="#9a32cd" stroke="#9a32cd" points="155.48,-305.87 146.16,-310.91 156.59,-312.79 155.48,-305.87"/>
<text text-anchor="middle" x="377" y="-287.43" font-family="Helvetica,sans-Serif" font-size="10.00"> X_mat</text>
</g>
<!-- Node6 -->
<g id="node6" class="node">
<title>Node6</title>
<g id="a_node6"><a xlink:href="structBCs__RVELagrange__Periodic_1_1CommonDataPeriodic.html" target="_top" xlink:title=" ">
<polygon fill="white" stroke="black" points="302.5,-207.43 302.5,-237.43 451.5,-237.43 451.5,-207.43 302.5,-207.43"/>
<text text-anchor="start" x="310.5" y="-225.43" font-family="Helvetica,sans-Serif" font-size="10.00">BCs_RVELagrange_Periodic</text>
<text text-anchor="middle" x="377" y="-214.43" font-family="Helvetica,sans-Serif" font-size="10.00">::CommonDataPeriodic</text>
</a>
</g>
</g>
<!-- Node5&#45;&gt;Node6 -->
<g id="edge7" class="edge">
<title>Node5&#45;&gt;Node6</title>
<path fill="none" stroke="#9a32cd" stroke-dasharray="5,2" d="M161.91,-306.77C165.08,-305.18 168.12,-303.41 171,-301.43 182.89,-293.27 177.19,-282.71 189,-274.43 224.22,-249.75 241.56,-262.95 283,-251.43 298.32,-247.18 314.92,-242.13 329.81,-237.46"/>
<polygon fill="#9a32cd" stroke="#9a32cd" points="160.48,-303.58 152.72,-310.8 163.28,-309.99 160.48,-303.58"/>
<text text-anchor="middle" x="236" y="-277.43" font-family="Helvetica,sans-Serif" font-size="10.00"> D_mat</text>
</g>
<!-- Node6&#45;&gt;Node2 -->
<g id="edge5" class="edge">
<title>Node6&#45;&gt;Node2</title>
<path fill="none" stroke="#9a32cd" stroke-dasharray="5,2" d="M461.84,-222.43C511.29,-222.43 573.29,-222.43 620.85,-222.43"/>
<polygon fill="#9a32cd" stroke="#9a32cd" points="461.81,-218.93 451.81,-222.43 461.81,-225.93 461.81,-218.93"/>
<text text-anchor="middle" x="537" y="-225.43" font-family="Helvetica,sans-Serif" font-size="10.00"> commonDataPeriodic</text>
</g>
<!-- Node7 -->
<g id="node7" class="node">
<title>Node7</title>
<g id="a_node7"><a xlink:title=" ">
<polygon fill="white" stroke="#bfbfbf" points="6.5,-239.43 6.5,-291.43 164.5,-291.43 164.5,-239.43 6.5,-239.43"/>
<text text-anchor="start" x="14.5" y="-279.43" font-family="Helvetica,sans-Serif" font-size="10.00">vector&lt; map&lt; EntityType,</text>
<text text-anchor="start" x="14.5" y="-268.43" font-family="Helvetica,sans-Serif" font-size="10.00"> map&lt; int, map&lt; EntityType,</text>
<text text-anchor="start" x="14.5" y="-257.43" font-family="Helvetica,sans-Serif" font-size="10.00"> map&lt; int, MatrixDouble &gt;</text>
<text text-anchor="middle" x="85.5" y="-246.43" font-family="Helvetica,sans-Serif" font-size="10.00"> &gt; &gt; &gt; &gt;</text>
</a>
</g>
</g>
<!-- Node7&#45;&gt;Node6 -->
<g id="edge6" class="edge">
<title>Node7&#45;&gt;Node6</title>
<path fill="none" stroke="#9a32cd" stroke-dasharray="5,2" d="M174.6,-243.09C179.46,-242.13 184.28,-241.23 189,-240.43 226.14,-234.15 267.84,-229.87 302.41,-227.07"/>
<polygon fill="#9a32cd" stroke="#9a32cd" points="173.69,-239.71 164.61,-245.16 175.11,-246.56 173.69,-239.71"/>
<text text-anchor="middle" x="236" y="-243.43" font-family="Helvetica,sans-Serif" font-size="10.00"> Cmat</text>
</g>
<!-- Node8 -->
<g id="node8" class="node">
<title>Node8</title>
<g id="a_node8"><a xlink:title=" ">
<polygon fill="white" stroke="#bfbfbf" points="24.5,-190.43 24.5,-220.43 146.5,-220.43 146.5,-190.43 24.5,-190.43"/>
<text text-anchor="start" x="32.5" y="-208.43" font-family="Helvetica,sans-Serif" font-size="10.00">vector&lt; ublas::vector</text>
<text text-anchor="middle" x="85.5" y="-197.43" font-family="Helvetica,sans-Serif" font-size="10.00">&lt; VectorDouble &gt; &gt;</text>
</a>
</g>
</g>
<!-- Node8&#45;&gt;Node6 -->
<g id="edge8" class="edge">
<title>Node8&#45;&gt;Node6</title>
<path fill="none" stroke="#9a32cd" stroke-dasharray="5,2" d="M157.13,-202.98C194.6,-202.39 241.38,-202.77 283,-206.43 289.28,-206.99 295.78,-207.73 302.28,-208.61"/>
<polygon fill="#9a32cd" stroke="#9a32cd" points="156.75,-199.48 146.82,-203.17 156.88,-206.48 156.75,-199.48"/>
<text text-anchor="middle" x="236" y="-209.43" font-family="Helvetica,sans-Serif" font-size="10.00"> DispAtGaussPts</text>
</g>
<!-- Node9 -->
<g id="node9" class="node">
<title>Node9</title>
<g id="a_node9"><a xlink:title=" ">
<polygon fill="white" stroke="#bfbfbf" points="0,-141.43 0,-171.43 171,-171.43 171,-141.43 0,-141.43"/>
<text text-anchor="start" x="8" y="-159.43" font-family="Helvetica,sans-Serif" font-size="10.00">vector&lt; map&lt; EntityType,</text>
<text text-anchor="middle" x="85.5" y="-148.43" font-family="Helvetica,sans-Serif" font-size="10.00"> map&lt; int, MatrixDouble &gt; &gt; &gt;</text>
</a>
</g>
</g>
<!-- Node9&#45;&gt;Node6 -->
<g id="edge9" class="edge">
<title>Node9&#45;&gt;Node6</title>
<path fill="none" stroke="#9a32cd" stroke-dasharray="5,2" d="M181.39,-152.87C215.01,-155.07 252.13,-161.66 283,-177.43 293.65,-182.87 291,-190.88 301,-197.43 306.86,-201.27 313.35,-204.57 320.01,-207.39"/>
<polygon fill="#9a32cd" stroke="#9a32cd" points="181.25,-149.36 171.08,-152.32 180.88,-156.35 181.25,-149.36"/>
<text text-anchor="middle" x="236" y="-191.43" font-family="Helvetica,sans-Serif" font-size="10.00"> RowN</text>
<text text-anchor="middle" x="236" y="-180.43" font-family="Helvetica,sans-Serif" font-size="10.00">ColN</text>
</g>
<!-- Node10 -->
<g id="node10" class="node">
<title>Node10</title>
<g id="a_node10"><a xlink:title=" ">
<polygon fill="white" stroke="#bfbfbf" points="18,-102.93 18,-121.93 153,-121.93 153,-102.93 18,-102.93"/>
<text text-anchor="middle" x="85.5" y="-109.93" font-family="Helvetica,sans-Serif" font-size="10.00">vector&lt; VectorDouble &gt;</text>
</a>
</g>
</g>
<!-- Node10&#45;&gt;Node6 -->
<g id="edge10" class="edge">
<title>Node10&#45;&gt;Node6</title>
<path fill="none" stroke="#9a32cd" stroke-dasharray="5,2" d="M163.64,-104.54C203.52,-104.65 250.5,-111.88 283,-139.43 303.59,-156.89 282.11,-178.15 301,-197.43 304.75,-201.26 309.09,-204.5 313.77,-207.24"/>
<polygon fill="#9a32cd" stroke="#9a32cd" points="163.36,-101.05 153.4,-104.67 163.44,-108.04 163.36,-101.05"/>
<text text-anchor="middle" x="236" y="-142.43" font-family="Helvetica,sans-Serif" font-size="10.00"> LagMulAtGaussPts</text>
</g>
<!-- Node11 -->
<g id="node11" class="node">
<title>Node11</title>
<g id="a_node11"><a xlink:title=" ">
<polygon fill="white" stroke="#bfbfbf" points="12.5,-42.93 12.5,-83.93 158.5,-83.93 158.5,-42.93 12.5,-42.93"/>
<text text-anchor="start" x="20.5" y="-71.93" font-family="Helvetica,sans-Serif" font-size="10.00">vector&lt; map&lt; EntityType,</text>
<text text-anchor="start" x="20.5" y="-60.93" font-family="Helvetica,sans-Serif" font-size="10.00"> map&lt; int, ublas::vector</text>
<text text-anchor="middle" x="85.5" y="-49.93" font-family="Helvetica,sans-Serif" font-size="10.00">&lt; int &gt; &gt; &gt; &gt;</text>
</a>
</g>
</g>
<!-- Node11&#45;&gt;Node6 -->
<g id="edge11" class="edge">
<title>Node11&#45;&gt;Node6</title>
<path fill="none" stroke="#9a32cd" stroke-dasharray="5,2" d="M168.95,-48.94C208.25,-46.91 253.1,-52.45 283,-80.43 321.42,-116.38 267.07,-157.22 301,-197.43 304.27,-201.31 308.17,-204.6 312.44,-207.37"/>
<polygon fill="#9a32cd" stroke="#9a32cd" points="168.56,-45.46 158.83,-49.63 169.04,-52.44 168.56,-45.46"/>
<text text-anchor="middle" x="236" y="-94.43" font-family="Helvetica,sans-Serif" font-size="10.00"> RowInd</text>
<text text-anchor="middle" x="236" y="-83.43" font-family="Helvetica,sans-Serif" font-size="10.00">ColInd</text>
</g>
<!-- Node12 -->
<g id="node12" class="node">
<title>Node12</title>
<g id="a_node12"><a xlink:href="structBCs__RVELagrange__Periodic_1_1CommonFunctionsPeriodic.html" target="_top" xlink:title=" ">
<polygon fill="white" stroke="black" points="301,-158.43 301,-188.43 453,-188.43 453,-158.43 301,-158.43"/>
<text text-anchor="start" x="309" y="-176.43" font-family="Helvetica,sans-Serif" font-size="10.00">BCs_RVELagrange_Periodic</text>
<text text-anchor="middle" x="377" y="-165.43" font-family="Helvetica,sans-Serif" font-size="10.00">::CommonFunctionsPeriodic</text>
</a>
</g>
</g>
<!-- Node12&#45;&gt;Node2 -->
<g id="edge12" class="edge">
<title>Node12&#45;&gt;Node2</title>
<path fill="none" stroke="#9a32cd" stroke-dasharray="5,2" d="M462.98,-186.02C505.11,-192.32 556.76,-200.15 603,-207.43 608.72,-208.33 614.65,-209.28 620.6,-210.24"/>
<polygon fill="#9a32cd" stroke="#9a32cd" points="463.44,-182.55 453.04,-184.53 462.41,-189.47 463.44,-182.55"/>
<text text-anchor="middle" x="537" y="-210.43" font-family="Helvetica,sans-Serif" font-size="10.00"> commonFunctionsPeriodic</text>
</g>
<!-- Node13 -->
<g id="node13" class="node">
<title>Node13</title>
<g id="a_node13"><a xlink:href="structBCs__RVELagrange__Periodic_1_1RVEBC__Data__Periodic.html" target="_top" xlink:title=" ">
<polygon fill="white" stroke="black" points="302.5,-109.43 302.5,-139.43 451.5,-139.43 451.5,-109.43 302.5,-109.43"/>
<text text-anchor="start" x="310.5" y="-127.43" font-family="Helvetica,sans-Serif" font-size="10.00">BCs_RVELagrange_Periodic</text>
<text text-anchor="middle" x="377" y="-116.43" font-family="Helvetica,sans-Serif" font-size="10.00">::RVEBC_Data_Periodic</text>
</a>
</g>
</g>
<!-- Node13&#45;&gt;Node2 -->
<g id="edge13" class="edge">
<title>Node13&#45;&gt;Node2</title>
<path fill="none" stroke="#9a32cd" stroke-dasharray="5,2" d="M461.63,-128.61C506.49,-134.15 561.02,-146.47 603,-173.43 614.22,-180.64 610.21,-189.6 621,-197.43 626.24,-201.23 632.09,-204.49 638.15,-207.26"/>
<polygon fill="#9a32cd" stroke="#9a32cd" points="461.96,-125.12 451.62,-127.46 461.16,-132.08 461.96,-125.12"/>
<text text-anchor="middle" x="537" y="-176.43" font-family="Helvetica,sans-Serif" font-size="10.00"> dAta</text>
</g>
<!-- Node14 -->
<g id="node14" class="node">
<title>Node14</title>
<g id="a_node14"><a xlink:href="classRange.html" target="_top" xlink:title=" ">
<polygon fill="white" stroke="black" points="62,-4.93 62,-23.93 109,-23.93 109,-4.93 62,-4.93"/>
<text text-anchor="middle" x="85.5" y="-11.93" font-family="Helvetica,sans-Serif" font-size="10.00">Range</text>
</a>
</g>
</g>
<!-- Node14&#45;&gt;Node13 -->
<g id="edge14" class="edge">
<title>Node14&#45;&gt;Node13</title>
<path fill="none" stroke="#9a32cd" stroke-dasharray="5,2" d="M118.9,-6.73C161.69,1.38 236.99,8.2 283,-30.43 307.27,-50.81 279.35,-76.29 301,-99.43 304.66,-103.34 308.94,-106.64 313.57,-109.42"/>
<polygon fill="#9a32cd" stroke="#9a32cd" points="118.12,-3.32 109.02,-8.74 119.51,-10.18 118.12,-3.32"/>
<text text-anchor="middle" x="236" y="-33.43" font-family="Helvetica,sans-Serif" font-size="10.00"> pRisms</text>
</g>
<!-- Node15 -->
<g id="node15" class="node">
<title>Node15</title>
<g id="a_node15"><a xlink:href="classbool.html" target="_top" xlink:title=" ">
<polygon fill="white" stroke="black" points="358,-70.93 358,-89.93 396,-89.93 396,-70.93 358,-70.93"/>
<text text-anchor="middle" x="377" y="-77.93" font-family="Helvetica,sans-Serif" font-size="10.00">bool</text>
</a>
</g>
</g>
<!-- Node15&#45;&gt;Node2 -->
<g id="edge15" class="edge">
<title>Node15&#45;&gt;Node2</title>
<path fill="none" stroke="#9a32cd" stroke-dasharray="5,2" d="M406.18,-75.7C453.5,-69.48 549.02,-64.69 603,-115.43 630.19,-140.99 596.13,-169.62 621,-197.43 624.41,-201.25 628.43,-204.49 632.8,-207.23"/>
<polygon fill="#9a32cd" stroke="#9a32cd" points="405.45,-72.26 396.04,-77.15 406.44,-79.19 405.45,-72.26"/>
<text text-anchor="middle" x="537" y="-118.43" font-family="Helvetica,sans-Serif" font-size="10.00"> hoGeometry</text>
</g>
<!-- Node16 -->
<g id="node16" class="node">
<title>Node16</title>
<g id="a_node16"><a xlink:title=" ">
<polygon fill="white" stroke="#bfbfbf" points="646.5,-168.93 646.5,-187.93 744.5,-187.93 744.5,-168.93 646.5,-168.93"/>
<text text-anchor="middle" x="695.5" y="-175.93" font-family="Helvetica,sans-Serif" font-size="10.00">vector&lt; Vec &gt; &amp;</text>
</a>
</g>
</g>
<!-- Node16&#45;&gt;Node1 -->
<g id="edge16" class="edge">
<title>Node16&#45;&gt;Node1</title>
<path fill="none" stroke="#9a32cd" stroke-dasharray="5,2" d="M754.79,-178.43C790.27,-178.43 835.91,-178.43 873.87,-178.43"/>
<polygon fill="#9a32cd" stroke="#9a32cd" points="754.6,-174.93 744.6,-178.43 754.6,-181.93 754.6,-174.93"/>
<text text-anchor="middle" x="822" y="-181.43" font-family="Helvetica,sans-Serif" font-size="10.00"> F</text>
</g>
<!-- Node17 -->
<g id="node17" class="node">
<title>Node17</title>
<g id="a_node17"><a xlink:title=" ">
<polygon fill="white" stroke="#bfbfbf" points="654.5,-123.93 654.5,-142.93 736.5,-142.93 736.5,-123.93 654.5,-123.93"/>
<text text-anchor="middle" x="695.5" y="-130.93" font-family="Helvetica,sans-Serif" font-size="10.00">VectorDouble</text>
</a>
</g>
</g>
<!-- Node17&#45;&gt;Node1 -->
<g id="edge17" class="edge">
<title>Node17&#45;&gt;Node1</title>
<path fill="none" stroke="#9a32cd" stroke-dasharray="5,2" d="M747.06,-137.39C778.58,-140.37 819.89,-145.2 856,-152.43 870.41,-155.32 885.86,-159.34 899.89,-163.36"/>
<polygon fill="#9a32cd" stroke="#9a32cd" points="747.04,-133.88 736.76,-136.45 746.4,-140.85 747.04,-133.88"/>
<text text-anchor="middle" x="822" y="-166.43" font-family="Helvetica,sans-Serif" font-size="10.00"> appliedStrain</text>
<text text-anchor="middle" x="822" y="-155.43" font-family="Helvetica,sans-Serif" font-size="10.00">nF</text>
</g>
</g>
</svg>
