<?xml version="1.0" encoding="UTF-8" standalone="no"?>
<!DOCTYPE svg PUBLIC "-//W3C//DTD SVG 1.1//EN"
 "http://www.w3.org/Graphics/SVG/1.1/DTD/svg11.dtd">
<!-- Generated by graphviz version 2.43.0 (0)
 -->
<!-- Title: MoFEM::CutMeshInterface::TreeData Pages: 1 -->
<svg width="192pt" height="128pt"
 viewBox="0.00 0.00 192.00 128.00" xmlns="http://www.w3.org/2000/svg" xmlns:xlink="http://www.w3.org/1999/xlink">
<g id="graph0" class="graph" transform="scale(1 1) rotate(0) translate(4 124)">
<title>MoFEM::CutMeshInterface::TreeData</title>
<polygon fill="white" stroke="transparent" points="-4,4 -4,-124 188,-124 188,4 -4,4"/>
<!-- Node1 -->
<g id="node1" class="node">
<title>Node1</title>
<g id="a_node1"><a xlink:title=" ">
<polygon fill="#bfbfbf" stroke="black" points="35.5,-0.5 35.5,-30.5 180.5,-30.5 180.5,-0.5 35.5,-0.5"/>
<text text-anchor="start" x="43.5" y="-18.5" font-family="Helvetica,sans-Serif" font-size="10.00">MoFEM::CutMeshInterface</text>
<text text-anchor="middle" x="108" y="-7.5" font-family="Helvetica,sans-Serif" font-size="10.00">::TreeData</text>
</a>
</g>
</g>
<!-- Node2 -->
<g id="node2" class="node">
<title>Node2</title>
<g id="a_node2"><a xlink:title=" ">
<polygon fill="white" stroke="#bfbfbf" points="0,-89.5 0,-119.5 116,-119.5 116,-89.5 0,-89.5"/>
<text text-anchor="start" x="8" y="-107.5" font-family="Helvetica,sans-Serif" font-size="10.00">VectorBoundedArray</text>
<text text-anchor="middle" x="58" y="-96.5" font-family="Helvetica,sans-Serif" font-size="10.00">&lt; double, 3 &gt;</text>
</a>
</g>
</g>
<!-- Node2&#45;&gt;Node1 -->
<g id="edge1" class="edge">
<title>Node2&#45;&gt;Node1</title>
<path fill="none" stroke="#9a32cd" stroke-dasharray="5,2" d="M68.59,-80.14C73.28,-70.34 79.08,-58.93 85,-49 88.68,-42.83 93.17,-36.31 97.2,-30.74"/>
<polygon fill="#9a32cd" stroke="#9a32cd" points="65.37,-78.75 64.3,-89.29 71.71,-81.72 65.37,-78.75"/>
<text text-anchor="middle" x="111" y="-63" font-family="Helvetica,sans-Serif" font-size="10.00"> rayPoint</text>
<text text-anchor="middle" x="111" y="-52" font-family="Helvetica,sans-Serif" font-size="10.00">unitRayDir</text>
</g>
<!-- Node3 -->
<g id="node3" class="node">
<title>Node3</title>
<g id="a_node3"><a xlink:href="classdouble.html" target="_top" xlink:title=" ">
<polygon fill="white" stroke="black" points="134,-95 134,-114 184,-114 184,-95 134,-95"/>
<text text-anchor="middle" x="159" y="-102" font-family="Helvetica,sans-Serif" font-size="10.00">double</text>
</a>
</g>
</g>
<!-- Node3&#45;&gt;Node1 -->
<g id="edge2" class="edge">
<title>Node3&#45;&gt;Node1</title>
<path fill="none" stroke="#9a32cd" stroke-dasharray="5,2" d="M153.39,-85.2C149.61,-74.25 144.03,-60.31 137,-49 132.93,-42.45 127.5,-35.96 122.44,-30.52"/>
<polygon fill="#9a32cd" stroke="#9a32cd" points="150.14,-86.52 156.56,-94.95 156.8,-84.36 150.14,-86.52"/>
<text text-anchor="middle" x="162.5" y="-63" font-family="Helvetica,sans-Serif" font-size="10.00"> dIst</text>
<text text-anchor="middle" x="162.5" y="-52" font-family="Helvetica,sans-Serif" font-size="10.00">lEngth</text>
</g>
</g>
</svg>
