<?xml version="1.0" encoding="UTF-8" standalone="no"?>
<!DOCTYPE svg PUBLIC "-//W3C//DTD SVG 1.1//EN"
 "http://www.w3.org/Graphics/SVG/1.1/DTD/svg11.dtd">
<!-- Generated by graphviz version 9.0.0 (20230911.1827)
 -->
<!-- Title: NeumannForcesSurface::DataAtIntegrationPts Pages: 1 -->
<svg width="429pt" height="268pt"
 viewBox="0.00 0.00 429.25 267.50" xmlns="http://www.w3.org/2000/svg" xmlns:xlink="http://www.w3.org/1999/xlink">
<g id="graph0" class="graph" transform="scale(1 1) rotate(0) translate(4 263.5)">
<title>NeumannForcesSurface::DataAtIntegrationPts</title>
<!-- Node1 -->
<g id="node1" class="node">
<title>Node1</title>
<g id="a_node1"><a xlink:title=" ">
<polygon fill="#999999" stroke="#666666" points="421.25,-116.88 299.5,-116.88 299.5,-86.38 421.25,-86.38 421.25,-116.88"/>
<text text-anchor="start" x="307.5" y="-103.38" font-family="Helvetica,sans-Serif" font-size="10.00">NeumannForcesSurface</text>
<text text-anchor="middle" x="360.38" y="-92.12" font-family="Helvetica,sans-Serif" font-size="10.00">::DataAtIntegrationPts</text>
</a>
</g>
</g>
<!-- Node2 -->
<g id="node2" class="node">
<title>Node2</title>
<g id="a_node2"><a xlink:title=" ">
<polygon fill="white" stroke="#666666" points="147.25,-259.5 0,-259.5 0,-217.75 147.25,-217.75 147.25,-259.5"/>
<text text-anchor="start" x="8" y="-246" font-family="Helvetica,sans-Serif" font-size="10.00">boost::enable_shared</text>
<text text-anchor="start" x="8" y="-234.75" font-family="Helvetica,sans-Serif" font-size="10.00">_from_this&lt; DataAtIntegration</text>
<text text-anchor="middle" x="73.62" y="-223.5" font-family="Helvetica,sans-Serif" font-size="10.00">Pts &gt;</text>
</a>
</g>
</g>
<!-- Node2&#45;&gt;Node1 -->
<g id="edge1" class="edge">
<title>Node2&#45;&gt;Node1</title>
<path fill="none" stroke="#63b8ff" d="M158.67,-247.08C198.45,-247.2 245.09,-241.43 281.5,-219.62 321.09,-195.92 344.53,-143.39 354.19,-117.16"/>
<polygon fill="#63b8ff" stroke="#63b8ff" points="158.95,-243.58 148.89,-246.91 158.83,-250.58 158.95,-243.58"/>
</g>
<!-- Node3 -->
<g id="node3" class="node">
<title>Node3</title>
<g id="a_node3"><a xlink:title=" ">
<polygon fill="white" stroke="#666666" points="110.5,-167.25 36.75,-167.25 36.75,-148 110.5,-148 110.5,-167.25"/>
<text text-anchor="middle" x="73.62" y="-153.75" font-family="Helvetica,sans-Serif" font-size="10.00">MatrixDouble</text>
</a>
</g>
</g>
<!-- Node3&#45;&gt;Node1 -->
<g id="edge2" class="edge">
<title>Node3&#45;&gt;Node1</title>
<path fill="none" stroke="#9a32cd" stroke-dasharray="5,2" d="M122.24,-153.6C164.49,-149.41 227.68,-141.6 281.5,-128.62 293.88,-125.64 307.07,-121.47 319,-117.29"/>
<polygon fill="#9a32cd" stroke="#9a32cd" points="122.03,-150.11 112.41,-154.55 122.7,-157.08 122.03,-150.11"/>
<text text-anchor="middle" x="223.38" y="-205.62" font-family="Helvetica,sans-Serif" font-size="10.00"> FMat</text>
<text text-anchor="middle" x="223.38" y="-194.38" font-family="Helvetica,sans-Serif" font-size="10.00">HMat</text>
<text text-anchor="middle" x="223.38" y="-183.12" font-family="Helvetica,sans-Serif" font-size="10.00">hMat</text>
<text text-anchor="middle" x="223.38" y="-171.88" font-family="Helvetica,sans-Serif" font-size="10.00">invHMat</text>
<text text-anchor="middle" x="223.38" y="-160.62" font-family="Helvetica,sans-Serif" font-size="10.00">tangent1</text>
<text text-anchor="middle" x="223.38" y="-149.38" font-family="Helvetica,sans-Serif" font-size="10.00">tangent2</text>
</g>
<!-- Node4 -->
<g id="node4" class="node">
<title>Node4</title>
<g id="a_node4"><a xlink:title=" ">
<polygon fill="white" stroke="#666666" points="111.25,-130.25 36,-130.25 36,-111 111.25,-111 111.25,-130.25"/>
<text text-anchor="middle" x="73.62" y="-116.75" font-family="Helvetica,sans-Serif" font-size="10.00">VectorDouble</text>
</a>
</g>
</g>
<!-- Node4&#45;&gt;Node1 -->
<g id="edge3" class="edge">
<title>Node4&#45;&gt;Node1</title>
<path fill="none" stroke="#9a32cd" stroke-dasharray="5,2" d="M123.02,-117.4C171.64,-114.15 246.69,-109.14 299.14,-105.64"/>
<polygon fill="#9a32cd" stroke="#9a32cd" points="122.81,-113.9 113.07,-118.06 123.28,-120.89 122.81,-113.9"/>
<text text-anchor="middle" x="223.38" y="-115.38" font-family="Helvetica,sans-Serif" font-size="10.00"> detHVec</text>
</g>
<!-- Node5 -->
<g id="node5" class="node">
<title>Node5</title>
<g id="a_node5"><a xlink:title=" ">
<polygon fill="white" stroke="#666666" points="103,-93.25 44.25,-93.25 44.25,-74 103,-74 103,-93.25"/>
<text text-anchor="middle" x="73.62" y="-79.75" font-family="Helvetica,sans-Serif" font-size="10.00">EntData *</text>
</a>
</g>
</g>
<!-- Node5&#45;&gt;Node1 -->
<g id="edge4" class="edge">
<title>Node5&#45;&gt;Node1</title>
<path fill="none" stroke="#9a32cd" stroke-dasharray="5,2" d="M114.83,-82.42C156.6,-81.63 223.79,-81.61 281.5,-87.38 287.24,-87.95 293.2,-88.72 299.14,-89.6"/>
<polygon fill="#9a32cd" stroke="#9a32cd" points="114.93,-78.92 105.01,-82.64 115.08,-85.92 114.93,-78.92"/>
<text text-anchor="middle" x="223.38" y="-88.38" font-family="Helvetica,sans-Serif" font-size="10.00"> faceRowData</text>
</g>
<!-- Node6 -->
<g id="node6" class="node">
<title>Node6</title>
<g id="a_node6"><a xlink:title=" ">
<polygon fill="white" stroke="#666666" points="131.12,-56.25 16.12,-56.25 16.12,-37 131.12,-37 131.12,-56.25"/>
<text text-anchor="middle" x="73.62" y="-42.75" font-family="Helvetica,sans-Serif" font-size="10.00">weak_ptr&lt; DofEntity &gt;</text>
</a>
</g>
</g>
<!-- Node6&#45;&gt;Node1 -->
<g id="edge5" class="edge">
<title>Node6&#45;&gt;Node1</title>
<path fill="none" stroke="#9a32cd" stroke-dasharray="5,2" d="M142.72,-47.5C183.56,-49.41 236.18,-54.31 281.5,-66.38 298.57,-70.92 316.59,-78.85 331,-86.05"/>
<polygon fill="#9a32cd" stroke="#9a32cd" points="142.91,-44.01 132.78,-47.09 142.62,-51 142.91,-44.01"/>
<text text-anchor="middle" x="223.38" y="-67.38" font-family="Helvetica,sans-Serif" font-size="10.00"> arcLengthDof</text>
</g>
<!-- Node7 -->
<g id="node7" class="node">
<title>Node7</title>
<g id="a_node7"><a xlink:href="class_range.html" target="_top" xlink:title=" ">
<polygon fill="white" stroke="#666666" points="95.88,-19.25 51.38,-19.25 51.38,0 95.88,0 95.88,-19.25"/>
<text text-anchor="middle" x="73.62" y="-5.75" font-family="Helvetica,sans-Serif" font-size="10.00">Range</text>
</a>
</g>
</g>
<!-- Node7&#45;&gt;Node1 -->
<g id="edge6" class="edge">
<title>Node7&#45;&gt;Node1</title>
<path fill="none" stroke="#9a32cd" stroke-dasharray="5,2" d="M107.51,-7.52C149.69,-6.1 224.22,-8 281.5,-33.38 308.46,-45.32 332.84,-69.97 346.88,-86.14"/>
<polygon fill="#9a32cd" stroke="#9a32cd" points="107.62,-4.01 97.78,-7.93 107.92,-11 107.62,-4.01"/>
<text text-anchor="middle" x="223.38" y="-35.38" font-family="Helvetica,sans-Serif" font-size="10.00"> forcesOnlyOnEntitiesRow</text>
</g>
</g>
</svg>
