<?xml version="1.0" encoding="UTF-8" standalone="no"?>
<!DOCTYPE svg PUBLIC "-//W3C//DTD SVG 1.1//EN"
 "http://www.w3.org/Graphics/SVG/1.1/DTD/svg11.dtd">
<!-- Generated by graphviz version 2.43.0 (0)
 -->
<!-- Title: CohesiveElement::CohesiveInterfaceElement::CommonData Pages: 1 -->
<svg width="246pt" height="117pt"
 viewBox="0.00 0.00 245.50 117.00" xmlns="http://www.w3.org/2000/svg" xmlns:xlink="http://www.w3.org/1999/xlink">
<g id="graph0" class="graph" transform="scale(1 1) rotate(0) translate(4 113)">
<title>CohesiveElement::CohesiveInterfaceElement::CommonData</title>
<polygon fill="white" stroke="transparent" points="-4,4 -4,-113 241.5,-113 241.5,4 -4,4"/>
<!-- Node1 -->
<g id="node1" class="node">
<title>Node1</title>
<g id="a_node1"><a xlink:title=" ">
<polygon fill="#bfbfbf" stroke="black" points="18.5,-0.5 18.5,-30.5 192.5,-30.5 192.5,-0.5 18.5,-0.5"/>
<text text-anchor="start" x="26.5" y="-18.5" font-family="Helvetica,sans-Serif" font-size="10.00">CohesiveElement::Cohesive</text>
<text text-anchor="middle" x="105.5" y="-7.5" font-family="Helvetica,sans-Serif" font-size="10.00">InterfaceElement::CommonData</text>
</a>
</g>
</g>
<!-- Node2 -->
<g id="node2" class="node">
<title>Node2</title>
<g id="a_node2"><a xlink:title=" ">
<polygon fill="white" stroke="#bfbfbf" points="0,-89.5 0,-108.5 83,-108.5 83,-89.5 0,-89.5"/>
<text text-anchor="middle" x="41.5" y="-96.5" font-family="Helvetica,sans-Serif" font-size="10.00">MatrixDouble</text>
</a>
</g>
</g>
<!-- Node2&#45;&gt;Node1 -->
<g id="edge1" class="edge">
<title>Node2&#45;&gt;Node1</title>
<path fill="none" stroke="#9a32cd" stroke-dasharray="5,2" d="M54.56,-81.37C66.3,-66.42 83.35,-44.71 94.43,-30.6"/>
<polygon fill="#9a32cd" stroke="#9a32cd" points="51.77,-79.25 48.35,-89.28 57.28,-83.57 51.77,-79.25"/>
<text text-anchor="middle" x="100" y="-63" font-family="Helvetica,sans-Serif" font-size="10.00"> gapLoc</text>
<text text-anchor="middle" x="100" y="-52" font-family="Helvetica,sans-Serif" font-size="10.00">gapGlob</text>
</g>
<!-- Node3 -->
<g id="node3" class="node">
<title>Node3</title>
<g id="a_node3"><a xlink:title=" ">
<polygon fill="white" stroke="#bfbfbf" points="101.5,-89.5 101.5,-108.5 237.5,-108.5 237.5,-89.5 101.5,-89.5"/>
<text text-anchor="middle" x="169.5" y="-96.5" font-family="Helvetica,sans-Serif" font-size="10.00">vector&lt; MatrixDouble &gt;</text>
</a>
</g>
</g>
<!-- Node3&#45;&gt;Node1 -->
<g id="edge2" class="edge">
<title>Node3&#45;&gt;Node1</title>
<path fill="none" stroke="#9a32cd" stroke-dasharray="5,2" d="M156.44,-81.37C144.7,-66.42 127.65,-44.71 116.57,-30.6"/>
<polygon fill="#9a32cd" stroke="#9a32cd" points="153.72,-83.57 162.65,-89.28 159.23,-79.25 153.72,-83.57"/>
<text text-anchor="middle" x="151.5" y="-57.5" font-family="Helvetica,sans-Serif" font-size="10.00"> R</text>
</g>
</g>
</svg>
