<?xml version="1.0" encoding="UTF-8" standalone="no"?>
<!DOCTYPE svg PUBLIC "-//W3C//DTD SVG 1.1//EN"
 "http://www.w3.org/Graphics/SVG/1.1/DTD/svg11.dtd">
<!-- Generated by graphviz version 2.43.0 (0)
 -->
<!-- Title: MoFEM::FlatPrismPolynomialBase Pages: 1 -->
<svg width="3462pt" height="598pt"
 viewBox="0.00 0.00 3462.00 598.00" xmlns="http://www.w3.org/2000/svg" xmlns:xlink="http://www.w3.org/1999/xlink">
<g id="graph0" class="graph" transform="scale(1 1) rotate(0) translate(4 594)">
<title>MoFEM::FlatPrismPolynomialBase</title>
<polygon fill="white" stroke="transparent" points="-4,4 -4,-594 3458,-594 3458,4 -4,4"/>
<!-- Node1 -->
<g id="node1" class="node">
<title>Node1</title>
<g id="a_node1"><a xlink:title="Calculate base functions on tetrahedral.">
<polygon fill="#bfbfbf" stroke="black" points="3270,-122.5 3270,-141.5 3454,-141.5 3454,-122.5 3270,-122.5"/>
<text text-anchor="middle" x="3362" y="-129.5" font-family="Helvetica,sans-Serif" font-size="10.00">MoFEM::FlatPrismPolynomialBase</text>
</a>
</g>
</g>
<!-- Node2 -->
<g id="node2" class="node">
<title>Node2</title>
<g id="a_node2"><a xlink:href="structMoFEM_1_1BaseFunction.html" target="_top" xlink:title="Base class if inherited used to calculate base functions.">
<polygon fill="white" stroke="black" points="2620,-59.5 2620,-78.5 2744,-78.5 2744,-59.5 2620,-59.5"/>
<text text-anchor="middle" x="2682" y="-66.5" font-family="Helvetica,sans-Serif" font-size="10.00">MoFEM::BaseFunction</text>
</a>
</g>
</g>
<!-- Node2&#45;&gt;Node1 -->
<g id="edge1" class="edge">
<title>Node2&#45;&gt;Node1</title>
<path fill="none" stroke="midnightblue" d="M2724.95,-81.51C2787.96,-99.79 2911.09,-133.52 3018,-151 3096.35,-163.81 3116.68,-162.66 3196,-166 3220.87,-167.05 3227.39,-169.75 3252,-166 3282.37,-161.37 3315.93,-149.88 3337.67,-141.54"/>
<polygon fill="midnightblue" stroke="midnightblue" points="2725.57,-78.05 2714.99,-78.61 2723.61,-84.77 2725.57,-78.05"/>
</g>
<!-- Node3 -->
<g id="node3" class="node">
<title>Node3</title>
<g id="a_node3"><a xlink:href="structMoFEM_1_1BaseFunctionUnknownInterface.html" target="_top" xlink:title=" ">
<polygon fill="white" stroke="black" points="2108,-17 2108,-47 2278,-47 2278,-17 2108,-17"/>
<text text-anchor="start" x="2116" y="-35" font-family="Helvetica,sans-Serif" font-size="10.00">MoFEM::BaseFunctionUnknown</text>
<text text-anchor="middle" x="2193" y="-24" font-family="Helvetica,sans-Serif" font-size="10.00">Interface</text>
</a>
</g>
</g>
<!-- Node3&#45;&gt;Node2 -->
<g id="edge2" class="edge">
<title>Node3&#45;&gt;Node2</title>
<path fill="none" stroke="midnightblue" d="M2288.46,-39.18C2386.3,-46.61 2536.31,-58.01 2619.7,-64.34"/>
<polygon fill="midnightblue" stroke="midnightblue" points="2288.51,-35.67 2278.27,-38.4 2287.98,-42.65 2288.51,-35.67"/>
</g>
<!-- Node10 -->
<g id="node10" class="node">
<title>Node10</title>
<g id="a_node10"><a xlink:href="structMoFEM_1_1BaseFunctionCtx.html" target="_top" xlink:title="Base class used to exchange data between element data structures and class calculating base functions...">
<polygon fill="white" stroke="black" points="2446,-4.5 2446,-23.5 2586,-23.5 2586,-4.5 2446,-4.5"/>
<text text-anchor="middle" x="2516" y="-11.5" font-family="Helvetica,sans-Serif" font-size="10.00">MoFEM::BaseFunctionCtx</text>
</a>
</g>
</g>
<!-- Node3&#45;&gt;Node10 -->
<g id="edge10" class="edge">
<title>Node3&#45;&gt;Node10</title>
<path fill="none" stroke="midnightblue" d="M2288.6,-26.7C2339,-23.87 2399.89,-20.45 2445.82,-17.88"/>
<polygon fill="midnightblue" stroke="midnightblue" points="2288.13,-23.22 2278.34,-27.27 2288.52,-30.21 2288.13,-23.22"/>
</g>
<!-- Node4 -->
<g id="node4" class="node">
<title>Node4</title>
<g id="a_node4"><a xlink:href="structMoFEM_1_1UnknownInterface.html" target="_top" xlink:title="base class for all interface classes">
<polygon fill="white" stroke="black" points="1907.5,-22.5 1907.5,-41.5 2055.5,-41.5 2055.5,-22.5 1907.5,-22.5"/>
<text text-anchor="middle" x="1981.5" y="-29.5" font-family="Helvetica,sans-Serif" font-size="10.00">MoFEM::UnknownInterface</text>
</a>
</g>
</g>
<!-- Node4&#45;&gt;Node3 -->
<g id="edge3" class="edge">
<title>Node4&#45;&gt;Node3</title>
<path fill="none" stroke="midnightblue" d="M2066.11,-32C2079.78,-32 2093.96,-32 2107.65,-32"/>
<polygon fill="midnightblue" stroke="midnightblue" points="2065.77,-28.5 2055.77,-32 2065.77,-35.5 2065.77,-28.5"/>
</g>
<!-- Node5 -->
<g id="node5" class="node">
<title>Node5</title>
<g id="a_node5"><a xlink:title=" ">
<polygon fill="white" stroke="#bfbfbf" points="1545,-0.5 1545,-63.5 1786,-63.5 1786,-0.5 1545,-0.5"/>
<text text-anchor="start" x="1553" y="-51.5" font-family="Helvetica,sans-Serif" font-size="10.00">multi_index_container</text>
<text text-anchor="start" x="1553" y="-40.5" font-family="Helvetica,sans-Serif" font-size="10.00">&lt; UIdTypeMap, indexed</text>
<text text-anchor="start" x="1553" y="-29.5" font-family="Helvetica,sans-Serif" font-size="10.00">_by&lt; hashed_unique&lt; member</text>
<text text-anchor="start" x="1553" y="-18.5" font-family="Helvetica,sans-Serif" font-size="10.00">&lt; UIdTypeMap, boost::typeindex</text>
<text text-anchor="middle" x="1665.5" y="-7.5" font-family="Helvetica,sans-Serif" font-size="10.00">::type_index, &amp;UIdTypeMap::classIdx &gt; &gt; &gt; &gt;</text>
</a>
</g>
</g>
<!-- Node5&#45;&gt;Node4 -->
<g id="edge4" class="edge">
<title>Node5&#45;&gt;Node4</title>
<path fill="none" stroke="#9a32cd" stroke-dasharray="5,2" d="M1796.19,-32C1834.05,-32 1874.08,-32 1907.13,-32"/>
<polygon fill="#9a32cd" stroke="#9a32cd" points="1796.11,-28.5 1786.11,-32 1796.11,-35.5 1796.11,-28.5"/>
<text text-anchor="middle" x="1840" y="-35" font-family="Helvetica,sans-Serif" font-size="10.00"> iFaceTypeMap</text>
</g>
<!-- Node6 -->
<g id="node6" class="node">
<title>Node6</title>
<g id="a_node6"><a xlink:title=" ">
<polygon fill="white" stroke="#bfbfbf" points="1134,-22.5 1134,-41.5 1259,-41.5 1259,-22.5 1134,-22.5"/>
<text text-anchor="middle" x="1196.5" y="-29.5" font-family="Helvetica,sans-Serif" font-size="10.00">multi_index_container</text>
</a>
</g>
</g>
<!-- Node6&#45;&gt;Node5 -->
<g id="edge5" class="edge">
<title>Node6&#45;&gt;Node5</title>
<path fill="none" stroke="orange" stroke-dasharray="5,2" d="M1269.09,-32C1342.38,-32 1457.58,-32 1544.78,-32"/>
<polygon fill="orange" stroke="orange" points="1269.03,-28.5 1259.03,-32 1269.03,-35.5 1269.03,-28.5"/>
<text text-anchor="start" x="1302" y="-68" font-family="Helvetica,sans-Serif" font-size="10.00"> &lt; UIdTypeMap, indexed</text>
<text text-anchor="start" x="1302" y="-57" font-family="Helvetica,sans-Serif" font-size="10.00">_by&lt; hashed_unique&lt; member</text>
<text text-anchor="start" x="1302" y="-46" font-family="Helvetica,sans-Serif" font-size="10.00">&lt; UIdTypeMap, boost::typeindex</text>
<text text-anchor="middle" x="1414.5" y="-35" font-family="Helvetica,sans-Serif" font-size="10.00">::type_index, &amp;UIdTypeMap::classIdx &gt; &gt; &gt; &gt;</text>
</g>
<!-- Node7 -->
<g id="node7" class="node">
<title>Node7</title>
<g id="a_node7"><a xlink:href="classEntityHandle.html" target="_top" xlink:title=" ">
<polygon fill="white" stroke="black" points="3058,-122.5 3058,-141.5 3138,-141.5 3138,-122.5 3058,-122.5"/>
<text text-anchor="middle" x="3098" y="-129.5" font-family="Helvetica,sans-Serif" font-size="10.00">EntityHandle</text>
</a>
</g>
</g>
<!-- Node7&#45;&gt;Node1 -->
<g id="edge6" class="edge">
<title>Node7&#45;&gt;Node1</title>
<path fill="none" stroke="#9a32cd" stroke-dasharray="5,2" d="M3148.42,-132C3182.59,-132 3229.07,-132 3269.86,-132"/>
<polygon fill="#9a32cd" stroke="#9a32cd" points="3148.22,-128.5 3138.22,-132 3148.22,-135.5 3148.22,-128.5"/>
<text text-anchor="middle" x="3224" y="-157" font-family="Helvetica,sans-Serif" font-size="10.00"> connPrism</text>
<text text-anchor="middle" x="3224" y="-146" font-family="Helvetica,sans-Serif" font-size="10.00">connFace3</text>
<text text-anchor="middle" x="3224" y="-135" font-family="Helvetica,sans-Serif" font-size="10.00">connFace4</text>
</g>
<!-- Node8 -->
<g id="node8" class="node">
<title>Node8</title>
<g id="a_node8"><a xlink:href="structMoFEM_1_1FlatPrismPolynomialBaseCtx.html" target="_top" xlink:title="Class used to pass element data to calculate base functions on flat prism.">
<polygon fill="white" stroke="black" points="3018,-225 3018,-255 3178,-255 3178,-225 3018,-225"/>
<text text-anchor="start" x="3026" y="-243" font-family="Helvetica,sans-Serif" font-size="10.00">MoFEM::FlatPrismPolynomial</text>
<text text-anchor="middle" x="3098" y="-232" font-family="Helvetica,sans-Serif" font-size="10.00">BaseCtx</text>
</a>
</g>
</g>
<!-- Node8&#45;&gt;Node1 -->
<g id="edge7" class="edge">
<title>Node8&#45;&gt;Node1</title>
<path fill="none" stroke="#9a32cd" stroke-dasharray="5,2" d="M3170.27,-222.17C3196.44,-214.7 3226,-205.13 3252,-194 3287.62,-178.74 3326.4,-154.73 3346.73,-141.51"/>
<polygon fill="#9a32cd" stroke="#9a32cd" points="3169.11,-218.86 3160.43,-224.94 3171,-225.6 3169.11,-218.86"/>
<text text-anchor="middle" x="3224" y="-216" font-family="Helvetica,sans-Serif" font-size="10.00"> cTx</text>
</g>
<!-- Node9 -->
<g id="node9" class="node">
<title>Node9</title>
<g id="a_node9"><a xlink:href="structMoFEM_1_1EntPolynomialBaseCtx.html" target="_top" xlink:title="Class used to pass element data to calculate base functions on tet,triangle,edge.">
<polygon fill="white" stroke="black" points="2770.5,-219.5 2770.5,-238.5 2940.5,-238.5 2940.5,-219.5 2770.5,-219.5"/>
<text text-anchor="middle" x="2855.5" y="-226.5" font-family="Helvetica,sans-Serif" font-size="10.00">MoFEM::EntPolynomialBaseCtx</text>
</a>
</g>
</g>
<!-- Node9&#45;&gt;Node8 -->
<g id="edge8" class="edge">
<title>Node9&#45;&gt;Node8</title>
<path fill="none" stroke="midnightblue" d="M2950.71,-233.31C2972.9,-234.32 2996.33,-235.4 3017.78,-236.38"/>
<polygon fill="midnightblue" stroke="midnightblue" points="2950.76,-229.81 2940.62,-232.85 2950.44,-236.8 2950.76,-229.81"/>
</g>
<!-- Node10&#45;&gt;Node9 -->
<g id="edge9" class="edge">
<title>Node10&#45;&gt;Node9</title>
<path fill="none" stroke="midnightblue" d="M2596.25,-10.67C2642.79,-12.39 2700.76,-21.2 2744,-50 2808.75,-93.12 2842.25,-188.4 2851.67,-219.2"/>
<polygon fill="midnightblue" stroke="midnightblue" points="2596.29,-7.17 2586.2,-10.41 2596.11,-14.17 2596.29,-7.17"/>
</g>
<!-- Node11 -->
<g id="node11" class="node">
<title>Node11</title>
<g id="a_node11"><a xlink:title=" ">
<polygon fill="white" stroke="#bfbfbf" points="2456.5,-386.5 2456.5,-405.5 2575.5,-405.5 2575.5,-386.5 2456.5,-386.5"/>
<text text-anchor="middle" x="2516" y="-393.5" font-family="Helvetica,sans-Serif" font-size="10.00">const FieldContinuity</text>
</a>
</g>
</g>
<!-- Node11&#45;&gt;Node9 -->
<g id="edge11" class="edge">
<title>Node11&#45;&gt;Node9</title>
<path fill="none" stroke="#9a32cd" stroke-dasharray="5,2" d="M2585.74,-402.52C2636.45,-403.29 2703.41,-395.2 2744,-354 2777.54,-319.96 2728.8,-282.37 2762,-248 2765.65,-244.23 2769.82,-241.1 2774.35,-238.52"/>
<polygon fill="#9a32cd" stroke="#9a32cd" points="2585.6,-399.01 2575.51,-402.24 2585.41,-406.01 2585.6,-399.01"/>
<text text-anchor="middle" x="2682" y="-404" font-family="Helvetica,sans-Serif" font-size="10.00"> spaceContinuity</text>
</g>
<!-- Node12 -->
<g id="node12" class="node">
<title>Node12</title>
<g id="a_node12"><a xlink:title=" ">
<polygon fill="white" stroke="#bfbfbf" points="2444.5,-315 2444.5,-367 2587.5,-367 2587.5,-315 2444.5,-315"/>
<text text-anchor="start" x="2452.5" y="-355" font-family="Helvetica,sans-Serif" font-size="10.00">PetscErrorCode(*)(int</text>
<text text-anchor="start" x="2452.5" y="-344" font-family="Helvetica,sans-Serif" font-size="10.00"> p, double s, double</text>
<text text-anchor="start" x="2452.5" y="-333" font-family="Helvetica,sans-Serif" font-size="10.00"> *diff_s, double *L, double</text>
<text text-anchor="middle" x="2516" y="-322" font-family="Helvetica,sans-Serif" font-size="10.00"> *diffL, const int dim)</text>
</a>
</g>
</g>
<!-- Node12&#45;&gt;Node9 -->
<g id="edge12" class="edge">
<title>Node12&#45;&gt;Node9</title>
<path fill="none" stroke="#9a32cd" stroke-dasharray="5,2" d="M2597.99,-342.11C2645.42,-338.68 2703.72,-326.88 2744,-293 2760.48,-279.13 2745.48,-261.82 2762,-248 2766.53,-244.21 2771.61,-241.12 2777,-238.59"/>
<polygon fill="#9a32cd" stroke="#9a32cd" points="2597.51,-338.64 2587.74,-342.74 2597.94,-345.62 2597.51,-338.64"/>
<text text-anchor="middle" x="2682" y="-342" font-family="Helvetica,sans-Serif" font-size="10.00"> basePolynomialsType0</text>
</g>
<!-- Node13 -->
<g id="node13" class="node">
<title>Node13</title>
<g id="a_node13"><a xlink:title=" ">
<polygon fill="white" stroke="#bfbfbf" points="2494,-276.5 2494,-295.5 2538,-295.5 2538,-276.5 2494,-276.5"/>
<text text-anchor="middle" x="2516" y="-283.5" font-family="Helvetica,sans-Serif" font-size="10.00">string</text>
</a>
</g>
</g>
<!-- Node13&#45;&gt;Node9 -->
<g id="edge13" class="edge">
<title>Node13&#45;&gt;Node9</title>
<path fill="none" stroke="#9a32cd" stroke-dasharray="5,2" d="M2548.19,-284.7C2592.47,-282.23 2675.78,-275.23 2744,-256 2752.43,-253.62 2753.66,-250.67 2762,-248 2773.55,-244.29 2786.15,-241.14 2798.24,-238.54"/>
<polygon fill="#9a32cd" stroke="#9a32cd" points="2547.87,-281.21 2538.06,-285.23 2548.23,-288.2 2547.87,-281.21"/>
<text text-anchor="middle" x="2682" y="-281" font-family="Helvetica,sans-Serif" font-size="10.00"> fieldName</text>
</g>
<!-- Node14 -->
<g id="node14" class="node">
<title>Node14</title>
<g id="a_node14"><a xlink:title=" ">
<polygon fill="white" stroke="#bfbfbf" points="2467,-238.5 2467,-257.5 2565,-257.5 2565,-238.5 2467,-238.5"/>
<text text-anchor="middle" x="2516" y="-245.5" font-family="Helvetica,sans-Serif" font-size="10.00">const FieldSpace</text>
</a>
</g>
</g>
<!-- Node14&#45;&gt;Node9 -->
<g id="edge14" class="edge">
<title>Node14&#45;&gt;Node9</title>
<path fill="none" stroke="#9a32cd" stroke-dasharray="5,2" d="M2575.41,-244.71C2629.21,-241.68 2709.65,-237.15 2770.36,-233.74"/>
<polygon fill="#9a32cd" stroke="#9a32cd" points="2575.14,-241.22 2565.36,-245.28 2575.54,-248.21 2575.14,-241.22"/>
<text text-anchor="middle" x="2682" y="-244" font-family="Helvetica,sans-Serif" font-size="10.00"> sPace</text>
</g>
<!-- Node15 -->
<g id="node15" class="node">
<title>Node15</title>
<g id="a_node15"><a xlink:title=" ">
<polygon fill="white" stroke="#bfbfbf" points="2433.5,-200.5 2433.5,-219.5 2598.5,-219.5 2598.5,-200.5 2433.5,-200.5"/>
<text text-anchor="middle" x="2516" y="-207.5" font-family="Helvetica,sans-Serif" font-size="10.00">const FieldApproximationBase</text>
</a>
</g>
</g>
<!-- Node15&#45;&gt;Node9 -->
<g id="edge15" class="edge">
<title>Node15&#45;&gt;Node9</title>
<path fill="none" stroke="#9a32cd" stroke-dasharray="5,2" d="M2608.7,-209.06C2612.51,-209.04 2616.29,-209.02 2620,-209 2675.11,-208.73 2689.11,-204.07 2744,-209 2766.62,-211.03 2791.54,-215.36 2811.98,-219.46"/>
<polygon fill="#9a32cd" stroke="#9a32cd" points="2608.5,-205.57 2598.52,-209.14 2608.55,-212.57 2608.5,-205.57"/>
<text text-anchor="middle" x="2682" y="-223" font-family="Helvetica,sans-Serif" font-size="10.00"> copyNodeBase</text>
<text text-anchor="middle" x="2682" y="-212" font-family="Helvetica,sans-Serif" font-size="10.00">bAse</text>
</g>
<!-- Node16 -->
<g id="node16" class="node">
<title>Node16</title>
<g id="a_node16"><a xlink:href="structMoFEM_1_1EntitiesFieldData.html" target="_top" xlink:title="data structure for finite element entity">
<polygon fill="white" stroke="black" points="2445,-162.5 2445,-181.5 2587,-181.5 2587,-162.5 2445,-162.5"/>
<text text-anchor="middle" x="2516" y="-169.5" font-family="Helvetica,sans-Serif" font-size="10.00">MoFEM::EntitiesFieldData</text>
</a>
</g>
</g>
<!-- Node16&#45;&gt;Node9 -->
<g id="edge16" class="edge">
<title>Node16&#45;&gt;Node9</title>
<path fill="none" stroke="#9a32cd" stroke-dasharray="5,2" d="M2597.21,-173.88C2640.97,-176.11 2695.89,-180.88 2744,-191 2775.37,-197.6 2810.11,-210.53 2832.11,-219.46"/>
<polygon fill="#9a32cd" stroke="#9a32cd" points="2597.35,-170.38 2587.19,-173.4 2597.01,-177.37 2597.35,-170.38"/>
<text text-anchor="middle" x="2682" y="-194" font-family="Helvetica,sans-Serif" font-size="10.00"> dAta</text>
</g>
<!-- Node17 -->
<g id="node17" class="node">
<title>Node17</title>
<g id="a_node17"><a xlink:title=" ">
<polygon fill="white" stroke="#bfbfbf" points="2112,-313 2112,-343 2274,-343 2274,-313 2112,-313"/>
<text text-anchor="start" x="2120" y="-331" font-family="Helvetica,sans-Serif" font-size="10.00">array&lt; std::bitset</text>
<text text-anchor="middle" x="2193" y="-320" font-family="Helvetica,sans-Serif" font-size="10.00">&lt; LASTBASE &gt;, LASTSPACE &gt;</text>
</a>
</g>
</g>
<!-- Node17&#45;&gt;Node16 -->
<g id="edge17" class="edge">
<title>Node17&#45;&gt;Node16</title>
<path fill="none" stroke="#9a32cd" stroke-dasharray="5,2" d="M2284.44,-327.52C2328.58,-322.48 2379.12,-308.8 2412,-275 2438.63,-247.63 2403.12,-218.12 2430,-191 2434.26,-186.7 2439.26,-183.29 2444.67,-180.58"/>
<polygon fill="#9a32cd" stroke="#9a32cd" points="2283.85,-324.06 2274.25,-328.54 2284.55,-331.02 2283.85,-324.06"/>
<text text-anchor="middle" x="2355" y="-339" font-family="Helvetica,sans-Serif" font-size="10.00"> brokenBasesOnSpaces</text>
<text text-anchor="middle" x="2355" y="-328" font-family="Helvetica,sans-Serif" font-size="10.00">basesOnSpaces</text>
</g>
<!-- Node18 -->
<g id="node18" class="node">
<title>Node18</title>
<g id="a_node18"><a xlink:title=" ">
<polygon fill="white" stroke="#bfbfbf" points="2116.5,-252.5 2116.5,-293.5 2269.5,-293.5 2269.5,-252.5 2116.5,-252.5"/>
<text text-anchor="start" x="2124.5" y="-281.5" font-family="Helvetica,sans-Serif" font-size="10.00">array&lt; boost::ptr_vector</text>
<text text-anchor="start" x="2124.5" y="-270.5" font-family="Helvetica,sans-Serif" font-size="10.00">&lt; MoFEM::EntitiesFieldData</text>
<text text-anchor="middle" x="2193" y="-259.5" font-family="Helvetica,sans-Serif" font-size="10.00">::EntData &gt;, MBMAXTYPE &gt;</text>
</a>
</g>
</g>
<!-- Node18&#45;&gt;Node16 -->
<g id="edge18" class="edge">
<title>Node18&#45;&gt;Node16</title>
<path fill="none" stroke="#9a32cd" stroke-dasharray="5,2" d="M2279.81,-264.43C2322.48,-256.88 2373.1,-242.68 2412,-216 2423.29,-208.25 2418.57,-198.54 2430,-191 2435.81,-187.17 2442.27,-184.1 2448.97,-181.65"/>
<polygon fill="#9a32cd" stroke="#9a32cd" points="2279,-261.01 2269.71,-266.12 2280.15,-267.92 2279,-261.01"/>
<text text-anchor="middle" x="2355" y="-263" font-family="Helvetica,sans-Serif" font-size="10.00"> dataOnEntities</text>
</g>
<!-- Node19 -->
<g id="node19" class="node">
<title>Node19</title>
<g id="a_node19"><a xlink:title=" ">
<polygon fill="white" stroke="#bfbfbf" points="2106,-203 2106,-233 2280,-233 2280,-203 2106,-203"/>
<text text-anchor="start" x="2114" y="-221" font-family="Helvetica,sans-Serif" font-size="10.00">array&lt; std::bitset</text>
<text text-anchor="middle" x="2193" y="-210" font-family="Helvetica,sans-Serif" font-size="10.00">&lt; LASTSPACE &gt;, MBMAXTYPE &gt;</text>
</a>
</g>
</g>
<!-- Node19&#45;&gt;Node16 -->
<g id="edge19" class="edge">
<title>Node19&#45;&gt;Node16</title>
<path fill="none" stroke="#9a32cd" stroke-dasharray="5,2" d="M2290.1,-204.23C2341.23,-196.9 2402.81,-188.08 2448.6,-181.52"/>
<polygon fill="#9a32cd" stroke="#9a32cd" points="2289.42,-200.79 2280.02,-205.67 2290.42,-207.72 2289.42,-200.79"/>
<text text-anchor="middle" x="2355" y="-204" font-family="Helvetica,sans-Serif" font-size="10.00"> spacesOnEntities</text>
</g>
<!-- Node20 -->
<g id="node20" class="node">
<title>Node20</title>
<g id="a_node20"><a xlink:title=" ">
<polygon fill="white" stroke="#bfbfbf" points="2108.5,-154 2108.5,-184 2277.5,-184 2277.5,-154 2108.5,-154"/>
<text text-anchor="start" x="2116.5" y="-172" font-family="Helvetica,sans-Serif" font-size="10.00">array&lt; std::bitset</text>
<text text-anchor="middle" x="2193" y="-161" font-family="Helvetica,sans-Serif" font-size="10.00">&lt; LASTBASE &gt;, MBMAXTYPE &gt;</text>
</a>
</g>
</g>
<!-- Node20&#45;&gt;Node16 -->
<g id="edge20" class="edge">
<title>Node20&#45;&gt;Node16</title>
<path fill="none" stroke="#9a32cd" stroke-dasharray="5,2" d="M2287.73,-169.88C2337.97,-170.35 2398.84,-170.91 2444.94,-171.35"/>
<polygon fill="#9a32cd" stroke="#9a32cd" points="2287.53,-166.37 2277.5,-169.78 2287.47,-173.37 2287.53,-166.37"/>
<text text-anchor="middle" x="2355" y="-174" font-family="Helvetica,sans-Serif" font-size="10.00"> basesOnEntities</text>
</g>
<!-- Node21 -->
<g id="node21" class="node">
<title>Node21</title>
<g id="a_node21"><a xlink:title=" ">
<polygon fill="white" stroke="#bfbfbf" points="2137,-115.5 2137,-134.5 2249,-134.5 2249,-115.5 2137,-115.5"/>
<text text-anchor="middle" x="2193" y="-122.5" font-family="Helvetica,sans-Serif" font-size="10.00">UBlasMatrix&lt; int &gt;</text>
</a>
</g>
</g>
<!-- Node21&#45;&gt;Node16 -->
<g id="edge21" class="edge">
<title>Node21&#45;&gt;Node16</title>
<path fill="none" stroke="#9a32cd" stroke-dasharray="5,2" d="M2259.49,-124.34C2303.39,-125.43 2362.08,-129.9 2412,-144 2420.61,-146.43 2421.57,-150 2430,-153 2440.4,-156.7 2451.78,-159.83 2462.74,-162.43"/>
<polygon fill="#9a32cd" stroke="#9a32cd" points="2259.29,-120.83 2249.22,-124.14 2259.15,-127.83 2259.29,-120.83"/>
<text text-anchor="middle" x="2355" y="-158" font-family="Helvetica,sans-Serif" font-size="10.00"> facesNodesOrder</text>
<text text-anchor="middle" x="2355" y="-147" font-family="Helvetica,sans-Serif" font-size="10.00">facesNodes</text>
</g>
<!-- Node22 -->
<g id="node22" class="node">
<title>Node22</title>
<g id="a_node22"><a xlink:title=" ">
<polygon fill="white" stroke="#bfbfbf" points="2134.5,-77.5 2134.5,-96.5 2251.5,-96.5 2251.5,-77.5 2134.5,-77.5"/>
<text text-anchor="middle" x="2193" y="-84.5" font-family="Helvetica,sans-Serif" font-size="10.00">bitset&lt; LASTBASE &gt;</text>
</a>
</g>
</g>
<!-- Node22&#45;&gt;Node16 -->
<g id="edge22" class="edge">
<title>Node22&#45;&gt;Node16</title>
<path fill="none" stroke="#9a32cd" stroke-dasharray="5,2" d="M2261.54,-78.23C2308.13,-75.84 2369.16,-80.39 2412,-112 2428.01,-123.82 2414.63,-140.36 2430,-153 2434.67,-156.84 2439.96,-159.95 2445.55,-162.45"/>
<polygon fill="#9a32cd" stroke="#9a32cd" points="2261.29,-74.74 2251.52,-78.86 2261.72,-81.73 2261.29,-74.74"/>
<text text-anchor="middle" x="2355" y="-115" font-family="Helvetica,sans-Serif" font-size="10.00"> bAse</text>
</g>
<!-- Node23 -->
<g id="node23" class="node">
<title>Node23</title>
<g id="a_node23"><a xlink:title=" ">
<polygon fill="white" stroke="#bfbfbf" points="2430,-80.5 2430,-143.5 2602,-143.5 2602,-80.5 2430,-80.5"/>
<text text-anchor="start" x="2438" y="-131.5" font-family="Helvetica,sans-Serif" font-size="10.00">PetscErrorCode(*)(int</text>
<text text-anchor="start" x="2438" y="-120.5" font-family="Helvetica,sans-Serif" font-size="10.00"> p, double alpha, double</text>
<text text-anchor="start" x="2438" y="-109.5" font-family="Helvetica,sans-Serif" font-size="10.00"> x, double t, double *diff</text>
<text text-anchor="start" x="2438" y="-98.5" font-family="Helvetica,sans-Serif" font-size="10.00">_x, double *diff_t, double</text>
<text text-anchor="middle" x="2516" y="-87.5" font-family="Helvetica,sans-Serif" font-size="10.00"> *L, double *diffL, const int dim)</text>
</a>
</g>
</g>
<!-- Node23&#45;&gt;Node9 -->
<g id="edge23" class="edge">
<title>Node23&#45;&gt;Node9</title>
<path fill="none" stroke="#9a32cd" stroke-dasharray="5,2" d="M2612.19,-114.03C2656.01,-119.23 2706.48,-131.71 2744,-160 2757.65,-170.29 2749.18,-182.69 2762,-194 2775.65,-206.04 2793.85,-214.11 2810.5,-219.43"/>
<polygon fill="#9a32cd" stroke="#9a32cd" points="2612.4,-110.54 2602.08,-112.95 2611.65,-117.5 2612.4,-110.54"/>
<text text-anchor="middle" x="2682" y="-163" font-family="Helvetica,sans-Serif" font-size="10.00"> basePolynomialsType1</text>
</g>
<!-- Node24 -->
<g id="node24" class="node">
<title>Node24</title>
<g id="a_node24"><a xlink:href="structMoFEM_1_1NumeredEntFiniteElement.html" target="_top" xlink:title="Partitioned (Indexed) Finite Element in Problem.">
<polygon fill="white" stroke="black" points="2762,-424.5 2762,-443.5 2949,-443.5 2949,-424.5 2762,-424.5"/>
<text text-anchor="middle" x="2855.5" y="-431.5" font-family="Helvetica,sans-Serif" font-size="10.00">MoFEM::NumeredEntFiniteElement</text>
</a>
</g>
</g>
<!-- Node24&#45;&gt;Node8 -->
<g id="edge24" class="edge">
<title>Node24&#45;&gt;Node8</title>
<path fill="none" stroke="#9a32cd" stroke-dasharray="5,2" d="M2876.4,-417.95C2922.08,-381.1 3033.95,-290.86 3078.37,-255.03"/>
<polygon fill="#9a32cd" stroke="#9a32cd" points="2874.01,-415.38 2868.43,-424.38 2878.41,-420.83 2874.01,-415.38"/>
<text text-anchor="middle" x="2983.5" y="-345" font-family="Helvetica,sans-Serif" font-size="10.00"> fePtr</text>
</g>
<!-- Node25 -->
<g id="node25" class="node">
<title>Node25</title>
<g id="a_node25"><a xlink:href="structMoFEM_1_1interface__EntFiniteElement.html" target="_top" xlink:title=" ">
<polygon fill="white" stroke="black" points="2434.5,-463 2434.5,-493 2597.5,-493 2597.5,-463 2434.5,-463"/>
<text text-anchor="start" x="2442.5" y="-481" font-family="Helvetica,sans-Serif" font-size="10.00">MoFEM::interface_EntFinite</text>
<text text-anchor="middle" x="2516" y="-470" font-family="Helvetica,sans-Serif" font-size="10.00">Element&lt; EntFiniteElement &gt;</text>
</a>
</g>
</g>
<!-- Node25&#45;&gt;Node24 -->
<g id="edge25" class="edge">
<title>Node25&#45;&gt;Node24</title>
<path fill="none" stroke="midnightblue" d="M2607.75,-466.57C2649.29,-461.3 2699.15,-454.91 2744,-449 2757.24,-447.26 2771.38,-445.36 2784.96,-443.53"/>
<polygon fill="midnightblue" stroke="midnightblue" points="2607.13,-463.12 2597.65,-467.85 2608.01,-470.07 2607.13,-463.12"/>
</g>
<!-- Node26 -->
<g id="node26" class="node">
<title>Node26</title>
<g id="a_node26"><a xlink:href="structMoFEM_1_1interface__FiniteElement.html" target="_top" xlink:title=" ">
<polygon fill="white" stroke="black" points="1559.5,-493 1559.5,-523 1771.5,-523 1771.5,-493 1559.5,-493"/>
<text text-anchor="start" x="1567.5" y="-511" font-family="Helvetica,sans-Serif" font-size="10.00">MoFEM::interface_FiniteElement</text>
<text text-anchor="middle" x="1665.5" y="-500" font-family="Helvetica,sans-Serif" font-size="10.00">&lt; EntFiniteElement, EntFiniteElement &gt;</text>
</a>
</g>
</g>
<!-- Node26&#45;&gt;Node25 -->
<g id="edge26" class="edge">
<title>Node26&#45;&gt;Node25</title>
<path fill="none" stroke="midnightblue" d="M1782.14,-505.21C1928.72,-501.46 2189.19,-494.07 2412,-484 2419.25,-483.67 2426.78,-483.3 2434.32,-482.9"/>
<polygon fill="midnightblue" stroke="midnightblue" points="1781.69,-501.72 1771.78,-505.47 1781.87,-508.72 1781.69,-501.72"/>
</g>
<!-- Node27 -->
<g id="node27" class="node">
<title>Node27</title>
<g id="a_node27"><a xlink:href="structMoFEM_1_1interface__RefElement.html" target="_top" xlink:title=" ">
<polygon fill="white" stroke="black" points="819,-512 819,-542 983,-542 983,-512 819,-512"/>
<text text-anchor="start" x="827" y="-530" font-family="Helvetica,sans-Serif" font-size="10.00">MoFEM::interface_RefElement</text>
<text text-anchor="middle" x="901" y="-519" font-family="Helvetica,sans-Serif" font-size="10.00">&lt; EntFiniteElement &gt;</text>
</a>
</g>
</g>
<!-- Node27&#45;&gt;Node26 -->
<g id="edge27" class="edge">
<title>Node27&#45;&gt;Node26</title>
<path fill="none" stroke="midnightblue" d="M993.44,-525.35C1115.22,-523.06 1337.33,-518.57 1527,-513 1537.51,-512.69 1548.46,-512.34 1559.4,-511.97"/>
<polygon fill="midnightblue" stroke="midnightblue" points="993.34,-521.85 983.41,-525.54 993.48,-528.85 993.34,-521.85"/>
</g>
<!-- Node28 -->
<g id="node28" class="node">
<title>Node28</title>
<g id="a_node28"><a xlink:href="structMoFEM_1_1interface__RefEntity.html" target="_top" xlink:title=" ">
<polygon fill="white" stroke="black" points="501.5,-512 501.5,-542 653.5,-542 653.5,-512 501.5,-512"/>
<text text-anchor="start" x="509.5" y="-530" font-family="Helvetica,sans-Serif" font-size="10.00">MoFEM::interface_RefEntity</text>
<text text-anchor="middle" x="577.5" y="-519" font-family="Helvetica,sans-Serif" font-size="10.00">&lt; EntFiniteElement &gt;</text>
</a>
</g>
</g>
<!-- Node28&#45;&gt;Node27 -->
<g id="edge28" class="edge">
<title>Node28&#45;&gt;Node27</title>
<path fill="none" stroke="midnightblue" d="M663.94,-527C711.98,-527 771.6,-527 818.91,-527"/>
<polygon fill="midnightblue" stroke="midnightblue" points="663.88,-523.5 653.88,-527 663.88,-530.5 663.88,-523.5"/>
</g>
<!-- Node29 -->
<g id="node29" class="node">
<title>Node29</title>
<g id="a_node29"><a xlink:href="classboost_1_1shared__ptr_3_01EntFiniteElement_01_4.html" target="_top" xlink:title=" ">
<polygon fill="white" stroke="black" points="158.5,-558.5 158.5,-577.5 332.5,-577.5 332.5,-558.5 158.5,-558.5"/>
<text text-anchor="middle" x="245.5" y="-565.5" font-family="Helvetica,sans-Serif" font-size="10.00">shared_ptr&lt; EntFiniteElement &gt;</text>
</a>
</g>
</g>
<!-- Node29&#45;&gt;Node26 -->
<g id="edge34" class="edge">
<title>Node29&#45;&gt;Node26</title>
<path fill="none" stroke="#9a32cd" stroke-dasharray="5,2" d="M342.98,-572.91C408.77,-575.84 497.87,-579 576.5,-579 576.5,-579 576.5,-579 1197.5,-579 1345.11,-579 1516.02,-543.9 1604.49,-523.06"/>
<polygon fill="#9a32cd" stroke="#9a32cd" points="342.78,-569.4 332.63,-572.44 342.46,-576.39 342.78,-569.4"/>
<text text-anchor="middle" x="901" y="-582" font-family="Helvetica,sans-Serif" font-size="10.00"> sFiniteElementPtr</text>
</g>
<!-- Node29&#45;&gt;Node28 -->
<g id="edge29" class="edge">
<title>Node29&#45;&gt;Node28</title>
<path fill="none" stroke="#9a32cd" stroke-dasharray="5,2" d="M328.75,-557.21C337.28,-556.12 345.81,-555.03 354,-554 403.03,-547.83 458.17,-541.14 501.3,-535.96"/>
<polygon fill="#9a32cd" stroke="#9a32cd" points="328.24,-553.75 318.77,-558.5 329.14,-560.69 328.24,-553.75"/>
<text text-anchor="middle" x="408.5" y="-557" font-family="Helvetica,sans-Serif" font-size="10.00"> sPtr</text>
</g>
<!-- Node30 -->
<g id="node30" class="node">
<title>Node30</title>
<g id="a_node30"><a xlink:href="structMoFEM_1_1interface__RefEntity.html" target="_top" xlink:title="interface to RefEntity">
<polygon fill="white" stroke="black" points="155,-441.5 155,-460.5 336,-460.5 336,-441.5 155,-441.5"/>
<text text-anchor="middle" x="245.5" y="-448.5" font-family="Helvetica,sans-Serif" font-size="10.00">MoFEM::interface_RefEntity&lt; T &gt;</text>
</a>
</g>
</g>
<!-- Node30&#45;&gt;Node28 -->
<g id="edge30" class="edge">
<title>Node30&#45;&gt;Node28</title>
<path fill="none" stroke="orange" stroke-dasharray="5,2" d="M335.62,-461.82C390.08,-468.91 451.44,-477.96 463,-484 473.31,-489.39 470.96,-497.13 481,-503 487.35,-506.71 494.25,-509.85 501.36,-512.51"/>
<polygon fill="orange" stroke="orange" points="335.91,-458.33 325.55,-460.52 335.02,-465.27 335.91,-458.33"/>
<text text-anchor="middle" x="408.5" y="-487" font-family="Helvetica,sans-Serif" font-size="10.00"> &lt; EntFiniteElement &gt;</text>
</g>
<!-- Node32 -->
<g id="node32" class="node">
<title>Node32</title>
<g id="a_node32"><a xlink:href="structMoFEM_1_1interface__RefElement.html" target="_top" xlink:title="intrface to RefElement">
<polygon fill="white" stroke="black" points="481,-408.5 481,-427.5 674,-427.5 674,-408.5 481,-408.5"/>
<text text-anchor="middle" x="577.5" y="-415.5" font-family="Helvetica,sans-Serif" font-size="10.00">MoFEM::interface_RefElement&lt; T &gt;</text>
</a>
</g>
</g>
<!-- Node30&#45;&gt;Node32 -->
<g id="edge33" class="edge">
<title>Node30&#45;&gt;Node32</title>
<path fill="none" stroke="midnightblue" d="M346.4,-441.01C389.22,-436.73 439.01,-431.75 481.3,-427.52"/>
<polygon fill="midnightblue" stroke="midnightblue" points="345.84,-437.55 336.24,-442.03 346.54,-444.51 345.84,-437.55"/>
</g>
<!-- Node35 -->
<g id="node35" class="node">
<title>Node35</title>
<g id="a_node35"><a xlink:href="structMoFEM_1_1interface__RefEntity.html" target="_top" xlink:title=" ">
<polygon fill="white" stroke="black" points="501.5,-463 501.5,-493 653.5,-493 653.5,-463 501.5,-463"/>
<text text-anchor="start" x="509.5" y="-481" font-family="Helvetica,sans-Serif" font-size="10.00">MoFEM::interface_RefEntity</text>
<text text-anchor="middle" x="577.5" y="-470" font-family="Helvetica,sans-Serif" font-size="10.00">&lt; REFENT &gt;</text>
</a>
</g>
</g>
<!-- Node30&#45;&gt;Node35 -->
<g id="edge39" class="edge">
<title>Node30&#45;&gt;Node35</title>
<path fill="none" stroke="orange" stroke-dasharray="5,2" d="M346.27,-446.88C383.06,-446.56 425.03,-447.62 463,-452 482.48,-454.25 503.49,-458.53 522.08,-462.97"/>
<polygon fill="orange" stroke="orange" points="345.99,-443.38 336.03,-447 346.08,-450.38 345.99,-443.38"/>
<text text-anchor="middle" x="408.5" y="-455" font-family="Helvetica,sans-Serif" font-size="10.00"> &lt; REFENT &gt;</text>
</g>
<!-- Node31 -->
<g id="node31" class="node">
<title>Node31</title>
<g id="a_node31"><a xlink:title=" ">
<polygon fill="white" stroke="#bfbfbf" points="0,-441.5 0,-460.5 97,-460.5 97,-441.5 0,-441.5"/>
<text text-anchor="middle" x="48.5" y="-448.5" font-family="Helvetica,sans-Serif" font-size="10.00">shared_ptr&lt; T &gt;</text>
</a>
</g>
</g>
<!-- Node31&#45;&gt;Node30 -->
<g id="edge31" class="edge">
<title>Node31&#45;&gt;Node30</title>
<path fill="none" stroke="#9a32cd" stroke-dasharray="5,2" d="M107.25,-451C122.14,-451 138.53,-451 154.63,-451"/>
<polygon fill="#9a32cd" stroke="#9a32cd" points="107.2,-447.5 97.2,-451 107.2,-454.5 107.2,-447.5"/>
<text text-anchor="middle" x="126" y="-454" font-family="Helvetica,sans-Serif" font-size="10.00"> sPtr</text>
</g>
<!-- Node32&#45;&gt;Node27 -->
<g id="edge32" class="edge">
<title>Node32&#45;&gt;Node27</title>
<path fill="none" stroke="orange" stroke-dasharray="5,2" d="M614.42,-431.01C661.31,-447.88 746,-478 819,-502 829.07,-505.31 839.88,-508.74 850.22,-511.95"/>
<polygon fill="orange" stroke="orange" points="615.32,-427.61 604.73,-427.51 612.95,-434.2 615.32,-427.61"/>
<text text-anchor="middle" x="746.5" y="-498" font-family="Helvetica,sans-Serif" font-size="10.00"> &lt; EntFiniteElement &gt;</text>
</g>
<!-- Node34 -->
<g id="node34" class="node">
<title>Node34</title>
<g id="a_node34"><a xlink:href="structMoFEM_1_1interface__RefElement.html" target="_top" xlink:title=" ">
<polygon fill="white" stroke="black" points="819,-419 819,-449 983,-449 983,-419 819,-419"/>
<text text-anchor="start" x="827" y="-437" font-family="Helvetica,sans-Serif" font-size="10.00">MoFEM::interface_RefElement</text>
<text text-anchor="middle" x="901" y="-426" font-family="Helvetica,sans-Serif" font-size="10.00">&lt; REFENT &gt;</text>
</a>
</g>
</g>
<!-- Node32&#45;&gt;Node34 -->
<g id="edge40" class="edge">
<title>Node32&#45;&gt;Node34</title>
<path fill="none" stroke="orange" stroke-dasharray="5,2" d="M684.46,-415.33C721.39,-415.23 763.07,-416.06 801,-419 806.81,-419.45 812.79,-420.04 818.8,-420.72"/>
<polygon fill="orange" stroke="orange" points="684.16,-411.83 674.18,-415.38 684.2,-418.83 684.16,-411.83"/>
<text text-anchor="middle" x="746.5" y="-422" font-family="Helvetica,sans-Serif" font-size="10.00"> &lt; REFENT &gt;</text>
</g>
<!-- Node40 -->
<g id="node40" class="node">
<title>Node40</title>
<g id="a_node40"><a xlink:href="structMoFEM_1_1interface__FiniteElementImpl.html" target="_top" xlink:title=" ">
<polygon fill="white" stroke="black" points="1578,-414 1578,-444 1753,-444 1753,-414 1578,-414"/>
<text text-anchor="start" x="1586" y="-432" font-family="Helvetica,sans-Serif" font-size="10.00">MoFEM::interface_FiniteElement</text>
<text text-anchor="middle" x="1665.5" y="-421" font-family="Helvetica,sans-Serif" font-size="10.00">Impl&lt; T, T &gt;</text>
</a>
</g>
</g>
<!-- Node32&#45;&gt;Node40 -->
<g id="edge45" class="edge">
<title>Node32&#45;&gt;Node40</title>
<path fill="none" stroke="midnightblue" d="M684.28,-411.31C686.88,-411.2 689.45,-411.1 692,-411 954.93,-401.01 1021.01,-396.71 1284,-405 1384.89,-408.18 1500.6,-416.09 1577.68,-421.96"/>
<polygon fill="midnightblue" stroke="midnightblue" points="683.99,-407.82 674.16,-411.78 684.31,-414.82 683.99,-407.82"/>
</g>
<!-- Node33 -->
<g id="node33" class="node">
<title>Node33</title>
<g id="a_node33"><a xlink:href="structMoFEM_1_1interface__FiniteElement.html" target="_top" xlink:title=" ">
<polygon fill="white" stroke="black" points="1109,-468 1109,-498 1284,-498 1284,-468 1109,-468"/>
<text text-anchor="start" x="1117" y="-486" font-family="Helvetica,sans-Serif" font-size="10.00">MoFEM::interface_FiniteElement</text>
<text text-anchor="middle" x="1196.5" y="-475" font-family="Helvetica,sans-Serif" font-size="10.00">&lt; FE, REFENT &gt;</text>
</a>
</g>
</g>
<!-- Node33&#45;&gt;Node26 -->
<g id="edge35" class="edge">
<title>Node33&#45;&gt;Node26</title>
<path fill="none" stroke="orange" stroke-dasharray="5,2" d="M1294.67,-482.84C1360.35,-483.36 1449,-485.25 1527,-491 1537.43,-491.77 1548.29,-492.77 1559.13,-493.9"/>
<polygon fill="orange" stroke="orange" points="1294.36,-479.34 1284.33,-482.77 1294.31,-486.34 1294.36,-479.34"/>
<text text-anchor="start" x="1364" y="-505" font-family="Helvetica,sans-Serif" font-size="10.00"> &lt; EntFiniteElement,</text>
<text text-anchor="middle" x="1414.5" y="-494" font-family="Helvetica,sans-Serif" font-size="10.00"> EntFiniteElement &gt;</text>
</g>
<!-- Node34&#45;&gt;Node33 -->
<g id="edge36" class="edge">
<title>Node34&#45;&gt;Node33</title>
<path fill="none" stroke="midnightblue" d="M993.59,-449.29C1030.37,-455.43 1072.57,-462.48 1108.84,-468.53"/>
<polygon fill="midnightblue" stroke="midnightblue" points="993.81,-445.78 983.37,-447.58 992.65,-452.68 993.81,-445.78"/>
</g>
<!-- Node41 -->
<g id="node41" class="node">
<title>Node41</title>
<g id="a_node41"><a xlink:href="structMoFEM_1_1interface__FiniteElementImpl.html" target="_top" xlink:title="Inetface for FE.">
<polygon fill="white" stroke="black" points="1109,-414 1109,-444 1284,-444 1284,-414 1109,-414"/>
<text text-anchor="start" x="1117" y="-432" font-family="Helvetica,sans-Serif" font-size="10.00">MoFEM::interface_FiniteElement</text>
<text text-anchor="middle" x="1196.5" y="-421" font-family="Helvetica,sans-Serif" font-size="10.00">Impl&lt; FE, REFENT &gt;</text>
</a>
</g>
</g>
<!-- Node34&#45;&gt;Node41 -->
<g id="edge47" class="edge">
<title>Node34&#45;&gt;Node41</title>
<path fill="none" stroke="midnightblue" d="M993.59,-432.44C1030.37,-431.81 1072.57,-431.09 1108.84,-430.48"/>
<polygon fill="midnightblue" stroke="midnightblue" points="993.31,-428.94 983.37,-432.61 993.42,-435.94 993.31,-428.94"/>
</g>
<!-- Node35&#45;&gt;Node34 -->
<g id="edge37" class="edge">
<title>Node35&#45;&gt;Node34</title>
<path fill="none" stroke="midnightblue" d="M663.8,-477.24C705.45,-475.71 756.13,-472.1 801,-464 820.09,-460.56 840.69,-454.68 858.13,-449.03"/>
<polygon fill="midnightblue" stroke="midnightblue" points="663.57,-473.75 653.69,-477.58 663.81,-480.75 663.57,-473.75"/>
</g>
<!-- Node36 -->
<g id="node36" class="node">
<title>Node36</title>
<g id="a_node36"><a xlink:href="classboost_1_1shared__ptr_3_01REFENT_01_4.html" target="_top" xlink:title=" ">
<polygon fill="white" stroke="black" points="181,-509.5 181,-528.5 310,-528.5 310,-509.5 181,-509.5"/>
<text text-anchor="middle" x="245.5" y="-516.5" font-family="Helvetica,sans-Serif" font-size="10.00">shared_ptr&lt; REFENT &gt;</text>
</a>
</g>
</g>
<!-- Node36&#45;&gt;Node35 -->
<g id="edge38" class="edge">
<title>Node36&#45;&gt;Node35</title>
<path fill="none" stroke="#9a32cd" stroke-dasharray="5,2" d="M320.23,-512.7C362.16,-508.82 415.61,-503.37 463,-497 475.38,-495.34 488.47,-493.35 501.2,-491.31"/>
<polygon fill="#9a32cd" stroke="#9a32cd" points="319.74,-509.23 310.1,-513.63 320.38,-516.2 319.74,-509.23"/>
<text text-anchor="middle" x="408.5" y="-512" font-family="Helvetica,sans-Serif" font-size="10.00"> sPtr</text>
</g>
<!-- Node37 -->
<g id="node37" class="node">
<title>Node37</title>
<g id="a_node37"><a xlink:title=" ">
<polygon fill="white" stroke="#bfbfbf" points="849.5,-473.5 849.5,-492.5 952.5,-492.5 952.5,-473.5 849.5,-473.5"/>
<text text-anchor="middle" x="901" y="-480.5" font-family="Helvetica,sans-Serif" font-size="10.00">shared_ptr&lt; FE &gt;</text>
</a>
</g>
</g>
<!-- Node37&#45;&gt;Node33 -->
<g id="edge41" class="edge">
<title>Node37&#45;&gt;Node33</title>
<path fill="none" stroke="#9a32cd" stroke-dasharray="5,2" d="M962.92,-483C1005.13,-483 1061.95,-483 1108.86,-483"/>
<polygon fill="#9a32cd" stroke="#9a32cd" points="962.79,-479.5 952.79,-483 962.79,-486.5 962.79,-479.5"/>
<text text-anchor="middle" x="1046" y="-486" font-family="Helvetica,sans-Serif" font-size="10.00"> sFiniteElementPtr</text>
</g>
<!-- Node38 -->
<g id="node38" class="node">
<title>Node38</title>
<g id="a_node38"><a xlink:href="structMoFEM_1_1interface__EntFiniteElement.html" target="_top" xlink:title="interface to EntFiniteElement">
<polygon fill="white" stroke="black" points="2118,-437 2118,-467 2268,-467 2268,-437 2118,-437"/>
<text text-anchor="start" x="2126" y="-455" font-family="Helvetica,sans-Serif" font-size="10.00">MoFEM::interface_EntFinite</text>
<text text-anchor="middle" x="2193" y="-444" font-family="Helvetica,sans-Serif" font-size="10.00">Element&lt; T &gt;</text>
</a>
</g>
</g>
<!-- Node38&#45;&gt;Node25 -->
<g id="edge42" class="edge">
<title>Node38&#45;&gt;Node25</title>
<path fill="none" stroke="orange" stroke-dasharray="5,2" d="M2278.15,-458.82C2326.39,-462.72 2386.64,-467.6 2434.29,-471.46"/>
<polygon fill="orange" stroke="orange" points="2278.3,-455.32 2268.05,-458 2277.73,-462.29 2278.3,-455.32"/>
<text text-anchor="middle" x="2355" y="-472" font-family="Helvetica,sans-Serif" font-size="10.00"> &lt; EntFiniteElement &gt;</text>
</g>
<!-- Node39 -->
<g id="node39" class="node">
<title>Node39</title>
<g id="a_node39"><a xlink:href="structMoFEM_1_1interface__FiniteElement_3_01T_00_01T_01_4.html" target="_top" xlink:title=" ">
<polygon fill="white" stroke="black" points="1894,-426 1894,-456 2069,-456 2069,-426 1894,-426"/>
<text text-anchor="start" x="1902" y="-444" font-family="Helvetica,sans-Serif" font-size="10.00">MoFEM::interface_FiniteElement</text>
<text text-anchor="middle" x="1981.5" y="-433" font-family="Helvetica,sans-Serif" font-size="10.00">&lt; T, T &gt;</text>
</a>
</g>
</g>
<!-- Node39&#45;&gt;Node38 -->
<g id="edge43" class="edge">
<title>Node39&#45;&gt;Node38</title>
<path fill="none" stroke="midnightblue" d="M2079.47,-446.09C2092.31,-446.77 2105.31,-447.45 2117.69,-448.1"/>
<polygon fill="midnightblue" stroke="midnightblue" points="2079.39,-442.58 2069.22,-445.55 2079.03,-449.57 2079.39,-442.58"/>
</g>
<!-- Node40&#45;&gt;Node39 -->
<g id="edge44" class="edge">
<title>Node40&#45;&gt;Node39</title>
<path fill="none" stroke="midnightblue" d="M1763.3,-432.7C1805,-434.29 1853.38,-436.14 1893.88,-437.69"/>
<polygon fill="midnightblue" stroke="midnightblue" points="1763.26,-429.2 1753.13,-432.31 1762.99,-436.19 1763.26,-429.2"/>
</g>
<!-- Node41&#45;&gt;Node40 -->
<g id="edge46" class="edge">
<title>Node41&#45;&gt;Node40</title>
<path fill="none" stroke="orange" stroke-dasharray="5,2" d="M1294.25,-429C1377.78,-429 1497.37,-429 1577.82,-429"/>
<polygon fill="orange" stroke="orange" points="1294.24,-425.5 1284.24,-429 1294.24,-432.5 1294.24,-425.5"/>
<text text-anchor="middle" x="1414.5" y="-432" font-family="Helvetica,sans-Serif" font-size="10.00"> &lt; T, T &gt;</text>
</g>
<!-- Node42 -->
<g id="node42" class="node">
<title>Node42</title>
<g id="a_node42"><a xlink:title=" ">
<polygon fill="white" stroke="#bfbfbf" points="2485.5,-424.5 2485.5,-443.5 2546.5,-443.5 2546.5,-424.5 2485.5,-424.5"/>
<text text-anchor="middle" x="2516" y="-431.5" font-family="Helvetica,sans-Serif" font-size="10.00">unsigned</text>
</a>
</g>
</g>
<!-- Node42&#45;&gt;Node24 -->
<g id="edge48" class="edge">
<title>Node42&#45;&gt;Node24</title>
<path fill="none" stroke="#9a32cd" stroke-dasharray="5,2" d="M2556.75,-434C2606.84,-434 2694.5,-434 2761.78,-434"/>
<polygon fill="#9a32cd" stroke="#9a32cd" points="2556.66,-430.5 2546.66,-434 2556.66,-437.5 2556.66,-430.5"/>
<text text-anchor="middle" x="2682" y="-437" font-family="Helvetica,sans-Serif" font-size="10.00"> part</text>
</g>
<!-- Node43 -->
<g id="node43" class="node">
<title>Node43</title>
<g id="a_node43"><a xlink:title=" ">
<polygon fill="white" stroke="#bfbfbf" points="2820,-257.5 2820,-276.5 2891,-276.5 2891,-257.5 2820,-257.5"/>
<text text-anchor="middle" x="2855.5" y="-264.5" font-family="Helvetica,sans-Serif" font-size="10.00">Interface &amp;</text>
</a>
</g>
</g>
<!-- Node43&#45;&gt;Node8 -->
<g id="edge49" class="edge">
<title>Node43&#45;&gt;Node8</title>
<path fill="none" stroke="#9a32cd" stroke-dasharray="5,2" d="M2901.36,-261.96C2934.03,-258.3 2979.14,-253.23 3017.82,-248.89"/>
<polygon fill="#9a32cd" stroke="#9a32cd" points="2900.76,-258.51 2891.21,-263.1 2901.54,-265.47 2900.76,-258.51"/>
<text text-anchor="middle" x="2983.5" y="-257" font-family="Helvetica,sans-Serif" font-size="10.00"> mOab</text>
</g>
<!-- Node44 -->
<g id="node44" class="node">
<title>Node44</title>
<g id="a_node44"><a xlink:title=" ">
<polygon fill="white" stroke="#bfbfbf" points="3083.5,-77.5 3083.5,-96.5 3112.5,-96.5 3112.5,-77.5 3083.5,-77.5"/>
<text text-anchor="middle" x="3098" y="-84.5" font-family="Helvetica,sans-Serif" font-size="10.00">int</text>
</a>
</g>
</g>
<!-- Node44&#45;&gt;Node1 -->
<g id="edge50" class="edge">
<title>Node44&#45;&gt;Node1</title>
<path fill="none" stroke="#9a32cd" stroke-dasharray="5,2" d="M3122.56,-89.11C3152.72,-92 3206.49,-97.77 3252,-106 3276.7,-110.46 3304.18,-117.03 3325.37,-122.45"/>
<polygon fill="#9a32cd" stroke="#9a32cd" points="3122.87,-85.62 3112.58,-88.18 3122.22,-92.59 3122.87,-85.62"/>
<text text-anchor="middle" x="3224" y="-120" font-family="Helvetica,sans-Serif" font-size="10.00"> numNodes</text>
<text text-anchor="middle" x="3224" y="-109" font-family="Helvetica,sans-Serif" font-size="10.00">faceNodes</text>
</g>
<!-- Node45 -->
<g id="node45" class="node">
<title>Node45</title>
<g id="a_node45"><a xlink:href="classUBlasMatrix_3_01double_01_4.html" target="_top" xlink:title=" ">
<polygon fill="white" stroke="black" points="3032,-32.5 3032,-51.5 3164,-51.5 3164,-32.5 3032,-32.5"/>
<text text-anchor="middle" x="3098" y="-39.5" font-family="Helvetica,sans-Serif" font-size="10.00">UBlasMatrix&lt; double &gt;</text>
</a>
</g>
</g>
<!-- Node45&#45;&gt;Node1 -->
<g id="edge51" class="edge">
<title>Node45&#45;&gt;Node1</title>
<path fill="none" stroke="#9a32cd" stroke-dasharray="5,2" d="M3174.1,-51.95C3199.32,-56.54 3227.29,-63.03 3252,-72 3288.14,-85.13 3326.72,-109.01 3346.87,-122.34"/>
<polygon fill="#9a32cd" stroke="#9a32cd" points="3174.68,-48.5 3164.22,-50.22 3173.47,-55.4 3174.68,-48.5"/>
<text text-anchor="middle" x="3224" y="-86" font-family="Helvetica,sans-Serif" font-size="10.00"> diffN</text>
<text text-anchor="middle" x="3224" y="-75" font-family="Helvetica,sans-Serif" font-size="10.00">N</text>
</g>
</g>
</svg>
