<?xml version="1.0" encoding="UTF-8" standalone="no"?>
<!DOCTYPE svg PUBLIC "-//W3C//DTD SVG 1.1//EN"
 "http://www.w3.org/Graphics/SVG/1.1/DTD/svg11.dtd">
<!-- Generated by graphviz version 2.43.0 (0)
 -->
<!-- Title: ClipperLib::OutRec Pages: 1 -->
<!--zoomable 361 -->
<svg id="main" version="1.1" xmlns="http://www.w3.org/2000/svg" xmlns:xlink="http://www.w3.org/1999/xlink" xml:space="preserve" onload="init(evt)">
<style type="text/css"><![CDATA[
.edge:hover path { stroke: red; }
.edge:hover polygon { stroke: red; fill: red; }
]]></style>
<script type="text/javascript"><![CDATA[
var edges = document.getElementsByTagName('g');
if (edges && edges.length) {
  for (var i=0;i<edges.length;i++) {
    if (edges[i].id.substr(0,4)=='edge') {
      edges[i].setAttribute('class','edge');
    }
  }
}
]]></script>
        <defs>
                <circle id="rim" cx="0" cy="0" r="7"/>
                <circle id="rim2" cx="0" cy="0" r="3.5"/>
                <g id="zoomPlus">
                        <use xlink:href="#rim" fill="#404040">
                                <set attributeName="fill" to="#808080" begin="zoomplus.mouseover" end="zoomplus.mouseout"/>
                        </use>
                        <path d="M-4,0h8M0,-4v8" fill="none" stroke="white" stroke-width="1.5" pointer-events="none"/>
                </g>
                <g id="zoomMin">
                        <use xlink:href="#rim" fill="#404040">
                                <set attributeName="fill" to="#808080" begin="zoomminus.mouseover" end="zoomminus.mouseout"/>
                        </use>
                        <path d="M-4,0h8" fill="none" stroke="white" stroke-width="1.5" pointer-events="none"/>
                </g>
                <g id="dirArrow">
                        <path fill="none" stroke="white" stroke-width="1.5" d="M0,-3.0v7 M-2.5,-0.5L0,-3.0L2.5,-0.5"/>
                </g>
               <g id="resetDef">
                       <use xlink:href="#rim2" fill="#404040">
                               <set attributeName="fill" to="#808080" begin="reset.mouseover" end="reset.mouseout"/>
                       </use>
               </g>
        </defs>

<script type="text/javascript">
var viewWidth = 677;
var viewHeight = 361;
var sectionId = 'dynsection-0';
</script>
<script xlink:href="svgpan.js"/>
<svg id="graph" class="graph">
<g id="viewport">
<title>ClipperLib::OutRec</title>
<polygon fill="white" stroke="transparent" points="-4,4 -4,-357 673,-357 673,4 -4,4"/>
<!-- Node1 -->
<g id="node1" class="node">
<title>Node1</title>
<g id="a_node1"><a xlink:title=" ">
<polygon fill="#bfbfbf" stroke="black" points="562,-233.5 562,-252.5 669,-252.5 669,-233.5 562,-233.5"/>
<text text-anchor="middle" x="615.5" y="-240.5" font-family="Helvetica,sans-Serif" font-size="10.00">ClipperLib::OutRec</text>
</a>
</g>
</g>
<!-- Node1&#45;&gt;Node1 -->
<g id="edge16" class="edge">
<title>Node1&#45;&gt;Node1</title>
<path fill="none" stroke="#9a32cd" stroke-dasharray="5,2" d="M598.09,-262.4C599.26,-267.31 605.06,-271 615.5,-271 632.21,-271 637.04,-261.57 629.99,-252.76"/>
<polygon fill="#9a32cd" stroke="#9a32cd" points="601.47,-263.34 601.01,-252.76 594.77,-261.31 601.47,-263.34"/>
<text text-anchor="middle" x="615.5" y="-274" font-family="Helvetica,sans-Serif" font-size="10.00"> FirstLeft</text>
</g>
<!-- Node2 -->
<g id="node2" class="node">
<title>Node2</title>
<g id="a_node2"><a xlink:href="structClipperLib_1_1OutPt.html" target="_top" xlink:title=" ">
<polygon fill="white" stroke="black" points="372,-258.5 372,-277.5 470,-277.5 470,-258.5 372,-258.5"/>
<text text-anchor="middle" x="421" y="-265.5" font-family="Helvetica,sans-Serif" font-size="10.00">ClipperLib::OutPt</text>
</a>
</g>
</g>
<!-- Node2&#45;&gt;Node1 -->
<g id="edge1" class="edge">
<title>Node2&#45;&gt;Node1</title>
<path fill="none" stroke="#9a32cd" stroke-dasharray="5,2" d="M480.18,-260.44C506.2,-257.06 536.65,-253.11 561.97,-249.82"/>
<polygon fill="#9a32cd" stroke="#9a32cd" points="479.55,-257 470.08,-261.76 480.45,-263.94 479.55,-257"/>
<text text-anchor="middle" x="521" y="-271" font-family="Helvetica,sans-Serif" font-size="10.00"> Pts</text>
<text text-anchor="middle" x="521" y="-260" font-family="Helvetica,sans-Serif" font-size="10.00">BottomPt</text>
</g>
<!-- Node2&#45;&gt;Node2 -->
<g id="edge2" class="edge">
<title>Node2&#45;&gt;Node2</title>
<path fill="none" stroke="#9a32cd" stroke-dasharray="5,2" d="M402.48,-287.4C403.72,-292.31 409.89,-296 421,-296 438.77,-296 443.91,-286.57 436.41,-277.76"/>
<polygon fill="#9a32cd" stroke="#9a32cd" points="405.85,-288.35 405.59,-277.76 399.19,-286.2 405.85,-288.35"/>
<text text-anchor="middle" x="421" y="-310" font-family="Helvetica,sans-Serif" font-size="10.00"> Prev</text>
<text text-anchor="middle" x="421" y="-299" font-family="Helvetica,sans-Serif" font-size="10.00">Next</text>
</g>
<!-- Node3 -->
<g id="node3" class="node">
<title>Node3</title>
<g id="a_node3"><a xlink:title=" ">
<polygon fill="white" stroke="#bfbfbf" points="191,-318.5 191,-337.5 220,-337.5 220,-318.5 191,-318.5"/>
<text text-anchor="middle" x="205.5" y="-325.5" font-family="Helvetica,sans-Serif" font-size="10.00">int</text>
</a>
</g>
</g>
<!-- Node3&#45;&gt;Node1 -->
<g id="edge6" class="edge">
<title>Node3&#45;&gt;Node1</title>
<path fill="none" stroke="#9a32cd" stroke-dasharray="5,2" d="M230.32,-332.2C278.58,-339.78 390.91,-352.71 480,-327 531.31,-312.19 582.1,-271.59 603.68,-252.79"/>
<polygon fill="#9a32cd" stroke="#9a32cd" points="230.68,-328.71 220.25,-330.54 229.55,-335.62 230.68,-328.71"/>
<text text-anchor="middle" x="421" y="-345" font-family="Helvetica,sans-Serif" font-size="10.00"> Idx</text>
</g>
<!-- Node3&#45;&gt;Node2 -->
<g id="edge3" class="edge">
<title>Node3&#45;&gt;Node2</title>
<path fill="none" stroke="#9a32cd" stroke-dasharray="5,2" d="M230.28,-321.32C268.18,-310.66 342.46,-289.79 385.98,-277.56"/>
<polygon fill="#9a32cd" stroke="#9a32cd" points="228.86,-318.08 220.18,-324.16 230.75,-324.82 228.86,-318.08"/>
<text text-anchor="middle" x="315" y="-308" font-family="Helvetica,sans-Serif" font-size="10.00"> Idx</text>
</g>
<!-- Node4 -->
<g id="node4" class="node">
<title>Node4</title>
<g id="a_node4"><a xlink:href="structClipperLib_1_1IntPoint.html" target="_top" xlink:title=" ">
<polygon fill="white" stroke="black" points="151,-258.5 151,-277.5 260,-277.5 260,-258.5 151,-258.5"/>
<text text-anchor="middle" x="205.5" y="-265.5" font-family="Helvetica,sans-Serif" font-size="10.00">ClipperLib::IntPoint</text>
</a>
</g>
</g>
<!-- Node4&#45;&gt;Node2 -->
<g id="edge4" class="edge">
<title>Node4&#45;&gt;Node2</title>
<path fill="none" stroke="#9a32cd" stroke-dasharray="5,2" d="M270.42,-268C302.96,-268 341.87,-268 371.85,-268"/>
<polygon fill="#9a32cd" stroke="#9a32cd" points="270.1,-264.5 260.1,-268 270.1,-271.5 270.1,-264.5"/>
<text text-anchor="middle" x="315" y="-271" font-family="Helvetica,sans-Serif" font-size="10.00"> Pt</text>
</g>
<!-- Node5 -->
<g id="node5" class="node">
<title>Node5</title>
<g id="a_node5"><a xlink:title=" ">
<polygon fill="white" stroke="#bfbfbf" points="0,-258.5 0,-277.5 97,-277.5 97,-258.5 0,-258.5"/>
<text text-anchor="middle" x="48.5" y="-265.5" font-family="Helvetica,sans-Serif" font-size="10.00">signed long long</text>
</a>
</g>
</g>
<!-- Node5&#45;&gt;Node4 -->
<g id="edge5" class="edge">
<title>Node5&#45;&gt;Node4</title>
<path fill="none" stroke="#9a32cd" stroke-dasharray="5,2" d="M107.45,-268C121.71,-268 136.9,-268 150.94,-268"/>
<polygon fill="#9a32cd" stroke="#9a32cd" points="107.27,-264.5 97.27,-268 107.27,-271.5 107.27,-264.5"/>
<text text-anchor="middle" x="120" y="-282" font-family="Helvetica,sans-Serif" font-size="10.00"> X</text>
<text text-anchor="middle" x="120" y="-271" font-family="Helvetica,sans-Serif" font-size="10.00">Y</text>
</g>
<!-- Node6 -->
<g id="node6" class="node">
<title>Node6</title>
<g id="a_node6"><a xlink:href="classbool.html" target="_top" xlink:title=" ">
<polygon fill="white" stroke="black" points="186.5,-199.5 186.5,-218.5 224.5,-218.5 224.5,-199.5 186.5,-199.5"/>
<text text-anchor="middle" x="205.5" y="-206.5" font-family="Helvetica,sans-Serif" font-size="10.00">bool</text>
</a>
</g>
</g>
<!-- Node6&#45;&gt;Node1 -->
<g id="edge7" class="edge">
<title>Node6&#45;&gt;Node1</title>
<path fill="none" stroke="#9a32cd" stroke-dasharray="5,2" d="M234.76,-210.37C284.44,-212.88 390.61,-218.75 480,-227 507.05,-229.5 537.06,-233 561.87,-236.09"/>
<polygon fill="#9a32cd" stroke="#9a32cd" points="234.93,-206.87 224.77,-209.87 234.58,-213.86 234.93,-206.87"/>
<text text-anchor="middle" x="421" y="-241" font-family="Helvetica,sans-Serif" font-size="10.00"> IsHole</text>
<text text-anchor="middle" x="421" y="-230" font-family="Helvetica,sans-Serif" font-size="10.00">IsOpen</text>
</g>
<!-- Node7 -->
<g id="node7" class="node">
<title>Node7</title>
<g id="a_node7"><a xlink:href="classClipperLib_1_1PolyNode.html" target="_top" xlink:title=" ">
<polygon fill="white" stroke="black" points="362,-114.5 362,-133.5 480,-133.5 480,-114.5 362,-114.5"/>
<text text-anchor="middle" x="421" y="-121.5" font-family="Helvetica,sans-Serif" font-size="10.00">ClipperLib::PolyNode</text>
</a>
</g>
</g>
<!-- Node6&#45;&gt;Node7 -->
<g id="edge12" class="edge">
<title>Node6&#45;&gt;Node7</title>
<path fill="none" stroke="#9a32cd" stroke-dasharray="5,2" d="M234.55,-200.98C262.67,-192.62 306.97,-178.59 344,-163 364.91,-154.2 387.97,-141.98 403.15,-133.58"/>
<polygon fill="#9a32cd" stroke="#9a32cd" points="233.23,-197.72 224.62,-203.89 235.2,-204.43 233.23,-197.72"/>
<text text-anchor="middle" x="315" y="-187" font-family="Helvetica,sans-Serif" font-size="10.00"> m_IsOpen</text>
</g>
<!-- Node7&#45;&gt;Node1 -->
<g id="edge8" class="edge">
<title>Node7&#45;&gt;Node1</title>
<path fill="none" stroke="#9a32cd" stroke-dasharray="5,2" d="M449.46,-138.49C474.5,-151.94 512.31,-172.87 544,-193 564.77,-206.19 587.86,-223 601.78,-233.38"/>
<polygon fill="#9a32cd" stroke="#9a32cd" points="451,-135.34 440.53,-133.72 447.7,-141.52 451,-135.34"/>
<text text-anchor="middle" x="521" y="-196" font-family="Helvetica,sans-Serif" font-size="10.00"> PolyNd</text>
</g>
<!-- Node7&#45;&gt;Node7 -->
<g id="edge13" class="edge">
<title>Node7&#45;&gt;Node7</title>
<path fill="none" stroke="#9a32cd" stroke-dasharray="5,2" d="M402.48,-143.4C403.72,-148.31 409.89,-152 421,-152 438.77,-152 443.91,-142.57 436.41,-133.76"/>
<polygon fill="#9a32cd" stroke="#9a32cd" points="405.85,-144.35 405.59,-133.76 399.19,-142.2 405.85,-144.35"/>
<text text-anchor="middle" x="421" y="-155" font-family="Helvetica,sans-Serif" font-size="10.00"> Parent</text>
</g>
<!-- Node8 -->
<g id="node8" class="node">
<title>Node8</title>
<g id="a_node8"><a xlink:title=" ">
<polygon fill="white" stroke="#bfbfbf" points="177,-152.5 177,-171.5 234,-171.5 234,-152.5 177,-152.5"/>
<text text-anchor="middle" x="205.5" y="-159.5" font-family="Helvetica,sans-Serif" font-size="10.00">JoinType</text>
</a>
</g>
</g>
<!-- Node8&#45;&gt;Node7 -->
<g id="edge9" class="edge">
<title>Node8&#45;&gt;Node7</title>
<path fill="none" stroke="#9a32cd" stroke-dasharray="5,2" d="M244.37,-155.26C278.23,-149.23 328.22,-140.34 366.22,-133.57"/>
<polygon fill="#9a32cd" stroke="#9a32cd" points="243.64,-151.83 234.41,-157.03 244.87,-158.73 243.64,-151.83"/>
<text text-anchor="middle" x="315" y="-151" font-family="Helvetica,sans-Serif" font-size="10.00"> m_jointype</text>
</g>
<!-- Node9 -->
<g id="node9" class="node">
<title>Node9</title>
<g id="a_node9"><a xlink:title=" ">
<polygon fill="white" stroke="#bfbfbf" points="177,-114.5 177,-133.5 234,-133.5 234,-114.5 177,-114.5"/>
<text text-anchor="middle" x="205.5" y="-121.5" font-family="Helvetica,sans-Serif" font-size="10.00">EndType</text>
</a>
</g>
</g>
<!-- Node9&#45;&gt;Node7 -->
<g id="edge10" class="edge">
<title>Node9&#45;&gt;Node7</title>
<path fill="none" stroke="#9a32cd" stroke-dasharray="5,2" d="M244.44,-124C277.03,-124 324.53,-124 361.9,-124"/>
<polygon fill="#9a32cd" stroke="#9a32cd" points="244.41,-120.5 234.41,-124 244.41,-127.5 244.41,-120.5"/>
<text text-anchor="middle" x="315" y="-127" font-family="Helvetica,sans-Serif" font-size="10.00"> m_endtype</text>
</g>
<!-- Node10 -->
<g id="node10" class="node">
<title>Node10</title>
<g id="a_node10"><a xlink:title=" ">
<polygon fill="white" stroke="#bfbfbf" points="143,-76.5 143,-95.5 268,-95.5 268,-76.5 143,-76.5"/>
<text text-anchor="middle" x="205.5" y="-83.5" font-family="Helvetica,sans-Serif" font-size="10.00">vector&lt; PolyNode * &gt;</text>
</a>
</g>
</g>
<!-- Node10&#45;&gt;Node7 -->
<g id="edge11" class="edge">
<title>Node10&#45;&gt;Node7</title>
<path fill="none" stroke="#9a32cd" stroke-dasharray="5,2" d="M275.66,-97.16C297.54,-100.8 321.8,-104.95 344,-109 353.26,-110.69 363.14,-112.57 372.61,-114.42"/>
<polygon fill="#9a32cd" stroke="#9a32cd" points="276.22,-93.71 265.79,-95.53 275.08,-100.62 276.22,-93.71"/>
<text text-anchor="middle" x="315" y="-112" font-family="Helvetica,sans-Serif" font-size="10.00"> Childs</text>
</g>
<!-- Node11 -->
<g id="node11" class="node">
<title>Node11</title>
<g id="a_node11"><a xlink:title=" ">
<polygon fill="white" stroke="#bfbfbf" points="175,-38.5 175,-57.5 236,-57.5 236,-38.5 175,-38.5"/>
<text text-anchor="middle" x="205.5" y="-45.5" font-family="Helvetica,sans-Serif" font-size="10.00">unsigned</text>
</a>
</g>
</g>
<!-- Node11&#45;&gt;Node7 -->
<g id="edge14" class="edge">
<title>Node11&#45;&gt;Node7</title>
<path fill="none" stroke="#9a32cd" stroke-dasharray="5,2" d="M245.83,-56.25C273.71,-62.66 311.75,-72.55 344,-85 365.44,-93.28 388.78,-105.83 403.86,-114.44"/>
<polygon fill="#9a32cd" stroke="#9a32cd" points="246.57,-52.83 236.04,-54.05 245.03,-59.66 246.57,-52.83"/>
<text text-anchor="middle" x="315" y="-88" font-family="Helvetica,sans-Serif" font-size="10.00"> Index</text>
</g>
<!-- Node12 -->
<g id="node12" class="node">
<title>Node12</title>
<g id="a_node12"><a xlink:title=" ">
<polygon fill="white" stroke="#bfbfbf" points="152,-0.5 152,-19.5 259,-19.5 259,-0.5 152,-0.5"/>
<text text-anchor="middle" x="205.5" y="-7.5" font-family="Helvetica,sans-Serif" font-size="10.00">vector&lt; IntPoint &gt;</text>
</a>
</g>
</g>
<!-- Node12&#45;&gt;Node7 -->
<g id="edge15" class="edge">
<title>Node12&#45;&gt;Node7</title>
<path fill="none" stroke="#9a32cd" stroke-dasharray="5,2" d="M266.87,-22.01C291.83,-28.58 320.39,-38.25 344,-52 372.9,-68.83 399.52,-98.66 412.2,-114.11"/>
<polygon fill="#9a32cd" stroke="#9a32cd" points="267.69,-18.61 257.14,-19.56 265.98,-25.4 267.69,-18.61"/>
<text text-anchor="middle" x="315" y="-55" font-family="Helvetica,sans-Serif" font-size="10.00"> Contour</text>
</g>
</g>
</svg>
        <g id="navigator" transform="translate(0 0)" fill="#404254">
                <rect fill="#f2f5e9" fill-opacity="0.5" stroke="#606060" stroke-width=".5" x="0" y="0" width="60" height="60"/>
                <use id="zoomplus" xlink:href="#zoomPlus" x="17" y="9" onmousedown="handleZoom(evt,'in')"/>
                <use id="zoomminus" xlink:href="#zoomMin" x="42" y="9" onmousedown="handleZoom(evt,'out')"/>
                <use id="reset" xlink:href="#resetDef" x="30" y="36" onmousedown="handleReset()"/>
                <g id="arrowUp" xlink:href="#dirArrow" transform="translate(30 24)" onmousedown="handlePan(0,-1)">
                  <use xlink:href="#rim" fill="#404040">
                        <set attributeName="fill" to="#808080" begin="arrowUp.mouseover" end="arrowUp.mouseout"/>
                  </use>
                  <path fill="none" stroke="white" stroke-width="1.5" d="M0,-3.0v7 M-2.5,-0.5L0,-3.0L2.5,-0.5"/>
                </g>
                <g id="arrowRight" xlink:href="#dirArrow" transform="rotate(90) translate(36 -43)" onmousedown="handlePan(1,0)">
                  <use xlink:href="#rim" fill="#404040">
                        <set attributeName="fill" to="#808080" begin="arrowRight.mouseover" end="arrowRight.mouseout"/>
                  </use>
                  <path fill="none" stroke="white" stroke-width="1.5" d="M0,-3.0v7 M-2.5,-0.5L0,-3.0L2.5,-0.5"/>
                </g>
                <g id="arrowDown" xlink:href="#dirArrow" transform="rotate(180) translate(-30 -48)" onmousedown="handlePan(0,1)">
                  <use xlink:href="#rim" fill="#404040">
                        <set attributeName="fill" to="#808080" begin="arrowDown.mouseover" end="arrowDown.mouseout"/>
                  </use>
                  <path fill="none" stroke="white" stroke-width="1.5" d="M0,-3.0v7 M-2.5,-0.5L0,-3.0L2.5,-0.5"/>
                </g>
                <g id="arrowLeft" xlink:href="#dirArrow" transform="rotate(270) translate(-36 17)" onmousedown="handlePan(-1,0)">
                  <use xlink:href="#rim" fill="#404040">
                        <set attributeName="fill" to="#808080" begin="arrowLeft.mouseover" end="arrowLeft.mouseout"/>
                  </use>
                  <path fill="none" stroke="white" stroke-width="1.5" d="M0,-3.0v7 M-2.5,-0.5L0,-3.0L2.5,-0.5"/>
                </g>
        </g>
        <svg viewBox="0 0 15 15" width="100%" height="30px" preserveAspectRatio="xMaxYMin meet">
         <g id="arrow_out" transform="scale(0.3 0.3)">
          <a xlink:href="structClipperLib_1_1OutRec__coll__graph_org.svg" target="_base">
           <rect id="button" ry="5" rx="5" y="6" x="6" height="38" width="38"
                fill="#f2f5e9" fill-opacity="0.5" stroke="#606060" stroke-width="1.0"/>
           <path id="arrow"
             d="M 11.500037,31.436501 C 11.940474,20.09759 22.043105,11.32322 32.158766,21.979434 L 37.068811,17.246167 C 37.068811,17.246167 37.088388,32 37.088388,32 L 22.160133,31.978069 C 22.160133,31.978069 26.997745,27.140456 26.997745,27.140456 C 18.528582,18.264221 13.291696,25.230495 11.500037,31.436501 z"
             style="fill:#404040;"/>
          </a>
         </g>
        </svg>
</svg>
