<?xml version="1.0" encoding="UTF-8" standalone="no"?>
<!DOCTYPE svg PUBLIC "-//W3C//DTD SVG 1.1//EN"
 "http://www.w3.org/Graphics/SVG/1.1/DTD/svg11.dtd">
<!-- Generated by graphviz version 2.43.0 (0)
 -->
<!-- Title: OpAssembleK Pages: 1 -->
<!--zoomable 584 -->
<svg id="main" version="1.1" xmlns="http://www.w3.org/2000/svg" xmlns:xlink="http://www.w3.org/1999/xlink" xml:space="preserve" onload="init(evt)">
<style type="text/css"><![CDATA[
.edge:hover path { stroke: red; }
.edge:hover polygon { stroke: red; fill: red; }
]]></style>
<script type="text/javascript"><![CDATA[
var edges = document.getElementsByTagName('g');
if (edges && edges.length) {
  for (var i=0;i<edges.length;i++) {
    if (edges[i].id.substr(0,4)=='edge') {
      edges[i].setAttribute('class','edge');
    }
  }
}
]]></script>
        <defs>
                <circle id="rim" cx="0" cy="0" r="7"/>
                <circle id="rim2" cx="0" cy="0" r="3.5"/>
                <g id="zoomPlus">
                        <use xlink:href="#rim" fill="#404040">
                                <set attributeName="fill" to="#808080" begin="zoomplus.mouseover" end="zoomplus.mouseout"/>
                        </use>
                        <path d="M-4,0h8M0,-4v8" fill="none" stroke="white" stroke-width="1.5" pointer-events="none"/>
                </g>
                <g id="zoomMin">
                        <use xlink:href="#rim" fill="#404040">
                                <set attributeName="fill" to="#808080" begin="zoomminus.mouseover" end="zoomminus.mouseout"/>
                        </use>
                        <path d="M-4,0h8" fill="none" stroke="white" stroke-width="1.5" pointer-events="none"/>
                </g>
                <g id="dirArrow">
                        <path fill="none" stroke="white" stroke-width="1.5" d="M0,-3.0v7 M-2.5,-0.5L0,-3.0L2.5,-0.5"/>
                </g>
               <g id="resetDef">
                       <use xlink:href="#rim2" fill="#404040">
                               <set attributeName="fill" to="#808080" begin="reset.mouseover" end="reset.mouseout"/>
                       </use>
               </g>
        </defs>

<script type="text/javascript">
var viewWidth = 1865;
var viewHeight = 584;
var sectionId = 'dynsection-1';
</script>
<script xlink:href="svgpan.js"/>
<svg id="graph" class="graph">
<g id="viewport">
<title>OpAssembleK</title>
<polygon fill="white" stroke="transparent" points="-4,4 -4,-579.61 1861,-579.61 1861,4 -4,4"/>
<!-- Node1 -->
<g id="node1" class="node">
<title>Node1</title>
<g id="a_node1"><a xlink:title="Assemble K *.">
<polygon fill="#bfbfbf" stroke="black" points="1772,-446.11 1772,-465.11 1857,-465.11 1857,-446.11 1772,-446.11"/>
<text text-anchor="middle" x="1814.5" y="-453.11" font-family="Helvetica,sans-Serif" font-size="10.00">OpAssembleK</text>
</a>
</g>
</g>
<!-- Node2 -->
<g id="node2" class="node">
<title>Node2</title>
<g id="a_node2"><a xlink:title=" ">
<polygon fill="white" stroke="#bfbfbf" points="1554,-522.11 1554,-541.11 1659,-541.11 1659,-522.11 1554,-522.11"/>
<text text-anchor="middle" x="1606.5" y="-529.11" font-family="Helvetica,sans-Serif" font-size="10.00">UserDataOperator</text>
</a>
</g>
</g>
<!-- Node2&#45;&gt;Node1 -->
<g id="edge1" class="edge">
<title>Node2&#45;&gt;Node1</title>
<path fill="none" stroke="midnightblue" d="M1669.23,-529.71C1696.29,-526.95 1727.79,-521.01 1754,-508.61 1775.76,-498.32 1795.43,-477.54 1805.79,-465.28"/>
<polygon fill="midnightblue" stroke="midnightblue" points="1668.74,-526.24 1659.09,-530.63 1669.36,-533.22 1668.74,-526.24"/>
</g>
<!-- Node3 -->
<g id="node3" class="node">
<title>Node3</title>
<g id="a_node3"><a xlink:title=" ">
<polygon fill="white" stroke="#bfbfbf" points="1565,-484.11 1565,-503.11 1648,-503.11 1648,-484.11 1565,-484.11"/>
<text text-anchor="middle" x="1606.5" y="-491.11" font-family="Helvetica,sans-Serif" font-size="10.00">MatrixDouble</text>
</a>
</g>
</g>
<!-- Node3&#45;&gt;Node1 -->
<g id="edge2" class="edge">
<title>Node3&#45;&gt;Node1</title>
<path fill="none" stroke="#9a32cd" stroke-dasharray="5,2" d="M1658.16,-486.82C1686.47,-482.74 1722.32,-477.08 1754,-470.61 1761.72,-469.04 1769.95,-467.12 1777.75,-465.19"/>
<polygon fill="#9a32cd" stroke="#9a32cd" points="1657.5,-483.38 1648.1,-488.25 1658.49,-490.31 1657.5,-483.38"/>
<text text-anchor="middle" x="1719" y="-496.61" font-family="Helvetica,sans-Serif" font-size="10.00"> translocK</text>
<text text-anchor="middle" x="1719" y="-485.61" font-family="Helvetica,sans-Serif" font-size="10.00">locK</text>
</g>
<!-- Node4 -->
<g id="node4" class="node">
<title>Node4</title>
<g id="a_node4"><a xlink:href="structBlockData.html" target="_top" xlink:title=" ">
<polygon fill="white" stroke="black" points="1573,-446.11 1573,-465.11 1640,-465.11 1640,-446.11 1573,-446.11"/>
<text text-anchor="middle" x="1606.5" y="-453.11" font-family="Helvetica,sans-Serif" font-size="10.00">BlockData</text>
</a>
</g>
</g>
<!-- Node4&#45;&gt;Node1 -->
<g id="edge3" class="edge">
<title>Node4&#45;&gt;Node1</title>
<path fill="none" stroke="#9a32cd" stroke-dasharray="5,2" d="M1650.23,-455.61C1685.88,-455.61 1736.39,-455.61 1771.76,-455.61"/>
<polygon fill="#9a32cd" stroke="#9a32cd" points="1650.14,-452.11 1640.14,-455.61 1650.14,-459.11 1650.14,-452.11"/>
<text text-anchor="middle" x="1719" y="-458.61" font-family="Helvetica,sans-Serif" font-size="10.00"> dAta</text>
</g>
<!-- Node5 -->
<g id="node5" class="node">
<title>Node5</title>
<g id="a_node5"><a xlink:href="classdouble.html" target="_top" xlink:title=" ">
<polygon fill="white" stroke="black" points="989,-339.11 989,-358.11 1039,-358.11 1039,-339.11 989,-339.11"/>
<text text-anchor="middle" x="1014" y="-346.11" font-family="Helvetica,sans-Serif" font-size="10.00">double</text>
</a>
</g>
</g>
<!-- Node5&#45;&gt;Node4 -->
<g id="edge4" class="edge">
<title>Node5&#45;&gt;Node4</title>
<path fill="none" stroke="#9a32cd" stroke-dasharray="5,2" d="M1028.39,-366.38C1056.24,-401.68 1124.39,-479.69 1203,-508.61 1338.98,-558.65 1404.18,-579.2 1529,-505.61 1542.72,-497.52 1534.61,-484.62 1547,-474.61 1554.39,-468.64 1563.72,-464.53 1572.73,-461.7"/>
<polygon fill="#9a32cd" stroke="#9a32cd" points="1031.09,-364.15 1022.19,-358.39 1025.55,-368.44 1031.09,-364.15"/>
<text text-anchor="middle" x="1293.5" y="-567.61" font-family="Helvetica,sans-Serif" font-size="10.00"> pOisson</text>
<text text-anchor="middle" x="1293.5" y="-556.61" font-family="Helvetica,sans-Serif" font-size="10.00">yOung</text>
</g>
<!-- Node8 -->
<g id="node8" class="node">
<title>Node8</title>
<g id="a_node8"><a xlink:href="classFTensor_1_1Tensor2.html" target="_top" xlink:title=" ">
<polygon fill="white" stroke="black" points="1221.5,-392.61 1221.5,-422.61 1365.5,-422.61 1365.5,-392.61 1221.5,-392.61"/>
<text text-anchor="start" x="1229.5" y="-410.61" font-family="Helvetica,sans-Serif" font-size="10.00">FTensor::Tensor2&lt; double,</text>
<text text-anchor="middle" x="1293.5" y="-399.61" font-family="Helvetica,sans-Serif" font-size="10.00"> 3, 3 &gt;</text>
</a>
</g>
</g>
<!-- Node5&#45;&gt;Node8 -->
<g id="edge8" class="edge">
<title>Node5&#45;&gt;Node8</title>
<path fill="none" stroke="#9a32cd" stroke-dasharray="5,2" d="M1049.05,-355.85C1091.85,-364.95 1166.4,-380.8 1221.76,-392.57"/>
<polygon fill="#9a32cd" stroke="#9a32cd" points="1049.65,-352.4 1039.14,-353.75 1048.19,-359.25 1049.65,-352.4"/>
<text text-anchor="middle" x="1143.5" y="-385.61" font-family="Helvetica,sans-Serif" font-size="10.00"> data</text>
</g>
<!-- Node11 -->
<g id="node11" class="node">
<title>Node11</title>
<g id="a_node11"><a xlink:href="structDataAtIntegrationPts.html" target="_top" xlink:title=" ">
<polygon fill="white" stroke="black" points="1547,-269.11 1547,-288.11 1666,-288.11 1666,-269.11 1547,-269.11"/>
<text text-anchor="middle" x="1606.5" y="-276.11" font-family="Helvetica,sans-Serif" font-size="10.00">DataAtIntegrationPts</text>
</a>
</g>
</g>
<!-- Node5&#45;&gt;Node11 -->
<g id="edge13" class="edge">
<title>Node5&#45;&gt;Node11</title>
<path fill="none" stroke="#9a32cd" stroke-dasharray="5,2" d="M1048.87,-337.83C1086.2,-326.45 1148.22,-309.02 1203,-300.61 1324.23,-282.01 1468.1,-278.57 1546.81,-278.25"/>
<polygon fill="#9a32cd" stroke="#9a32cd" points="1047.55,-334.57 1039.02,-340.87 1049.61,-341.26 1047.55,-334.57"/>
<text text-anchor="middle" x="1293.5" y="-336.61" font-family="Helvetica,sans-Serif" font-size="10.00"> mU</text>
<text text-anchor="middle" x="1293.5" y="-325.61" font-family="Helvetica,sans-Serif" font-size="10.00">lAmbda</text>
<text text-anchor="middle" x="1293.5" y="-314.61" font-family="Helvetica,sans-Serif" font-size="10.00">pOisson</text>
<text text-anchor="middle" x="1293.5" y="-303.61" font-family="Helvetica,sans-Serif" font-size="10.00">yOung</text>
</g>
<!-- Node19 -->
<g id="node19" class="node">
<title>Node19</title>
<g id="a_node19"><a xlink:href="classFTensor_1_1Ddg.html" target="_top" xlink:title=" ">
<polygon fill="white" stroke="black" points="1230.5,-224.61 1230.5,-254.61 1356.5,-254.61 1356.5,-224.61 1230.5,-224.61"/>
<text text-anchor="start" x="1238.5" y="-242.61" font-family="Helvetica,sans-Serif" font-size="10.00">FTensor::Ddg&lt; double,</text>
<text text-anchor="middle" x="1293.5" y="-231.61" font-family="Helvetica,sans-Serif" font-size="10.00"> 3, 3 &gt;</text>
</a>
</g>
</g>
<!-- Node5&#45;&gt;Node19 -->
<g id="edge22" class="edge">
<title>Node5&#45;&gt;Node19</title>
<path fill="none" stroke="#9a32cd" stroke-dasharray="5,2" d="M1028.05,-331.05C1043.42,-311.77 1070.86,-281.59 1102,-266.61 1124.13,-255.97 1183.65,-248.65 1230.34,-244.34"/>
<polygon fill="#9a32cd" stroke="#9a32cd" points="1025.21,-328.99 1021.86,-339.04 1030.75,-333.27 1025.21,-328.99"/>
<text text-anchor="middle" x="1143.5" y="-269.61" font-family="Helvetica,sans-Serif" font-size="10.00"> data</text>
</g>
<!-- Node6 -->
<g id="node6" class="node">
<title>Node6</title>
<g id="a_node6"><a xlink:href="classRange.html" target="_top" xlink:title=" ">
<polygon fill="white" stroke="black" points="1270,-442.11 1270,-461.11 1317,-461.11 1317,-442.11 1270,-442.11"/>
<text text-anchor="middle" x="1293.5" y="-449.11" font-family="Helvetica,sans-Serif" font-size="10.00">Range</text>
</a>
</g>
</g>
<!-- Node6&#45;&gt;Node4 -->
<g id="edge5" class="edge">
<title>Node6&#45;&gt;Node4</title>
<path fill="none" stroke="#9a32cd" stroke-dasharray="5,2" d="M1327.13,-452.03C1386.91,-452.8 1513.29,-454.43 1572.98,-455.2"/>
<polygon fill="#9a32cd" stroke="#9a32cd" points="1327.16,-448.53 1317.12,-451.9 1327.07,-455.53 1327.16,-448.53"/>
<text text-anchor="middle" x="1465.5" y="-456.61" font-family="Helvetica,sans-Serif" font-size="10.00"> tEts</text>
</g>
<!-- Node6&#45;&gt;Node11 -->
<g id="edge20" class="edge">
<title>Node6&#45;&gt;Node11</title>
<path fill="none" stroke="#9a32cd" stroke-dasharray="5,2" d="M1327.36,-446.36C1344.48,-443.2 1365.62,-438.61 1384,-432.61 1417.57,-421.66 1500.7,-388.73 1529,-367.61 1560.35,-344.22 1587.71,-305.85 1599.43,-288.13"/>
<polygon fill="#9a32cd" stroke="#9a32cd" points="1326.52,-442.96 1317.29,-448.15 1327.74,-449.85 1326.52,-442.96"/>
<text text-anchor="middle" x="1465.5" y="-439.61" font-family="Helvetica,sans-Serif" font-size="10.00"> forcesOnlyOnEntitiesRow</text>
<text text-anchor="middle" x="1465.5" y="-428.61" font-family="Helvetica,sans-Serif" font-size="10.00">forcesOnlyOnEntitiesCol</text>
</g>
<!-- Node7 -->
<g id="node7" class="node">
<title>Node7</title>
<g id="a_node7"><a xlink:title=" ">
<polygon fill="white" stroke="#bfbfbf" points="1279,-480.11 1279,-499.11 1308,-499.11 1308,-480.11 1279,-480.11"/>
<text text-anchor="middle" x="1293.5" y="-487.11" font-family="Helvetica,sans-Serif" font-size="10.00">int</text>
</a>
</g>
</g>
<!-- Node7&#45;&gt;Node4 -->
<g id="edge6" class="edge">
<title>Node7&#45;&gt;Node4</title>
<path fill="none" stroke="#9a32cd" stroke-dasharray="5,2" d="M1318.14,-487.88C1360.5,-484.67 1452.09,-477.24 1529,-467.61 1543.41,-465.81 1559.27,-463.39 1572.8,-461.2"/>
<polygon fill="#9a32cd" stroke="#9a32cd" points="1317.73,-484.4 1308.01,-488.64 1318.25,-491.39 1317.73,-484.4"/>
<text text-anchor="middle" x="1465.5" y="-493.61" font-family="Helvetica,sans-Serif" font-size="10.00"> oRder</text>
<text text-anchor="middle" x="1465.5" y="-482.61" font-family="Helvetica,sans-Serif" font-size="10.00">iD</text>
</g>
<!-- Node8&#45;&gt;Node1 -->
<g id="edge7" class="edge">
<title>Node8&#45;&gt;Node1</title>
<path fill="none" stroke="#9a32cd" stroke-dasharray="5,2" d="M1375.71,-394.23C1384.56,-393.16 1393.46,-392.25 1402,-391.61 1458.29,-387.45 1472.9,-385.38 1529,-391.61 1622.34,-401.98 1729.79,-430.93 1781.89,-446.08"/>
<polygon fill="#9a32cd" stroke="#9a32cd" points="1375.22,-390.76 1365.75,-395.5 1376.11,-397.71 1375.22,-390.76"/>
<text text-anchor="middle" x="1606.5" y="-417.61" font-family="Helvetica,sans-Serif" font-size="10.00"> diffDiff</text>
</g>
<!-- Node9 -->
<g id="node9" class="node">
<title>Node9</title>
<g id="a_node9"><a xlink:href="classFTensor_1_1Tensor2.html" target="_top" xlink:title=" ">
<polygon fill="white" stroke="black" points="954,-491.11 954,-532.11 1074,-532.11 1074,-491.11 954,-491.11"/>
<text text-anchor="start" x="962" y="-520.11" font-family="Helvetica,sans-Serif" font-size="10.00">FTensor::Tensor2&lt; T,</text>
<text text-anchor="start" x="962" y="-509.11" font-family="Helvetica,sans-Serif" font-size="10.00"> Tensor_Dim0, Tensor</text>
<text text-anchor="middle" x="1014" y="-498.11" font-family="Helvetica,sans-Serif" font-size="10.00">_Dim1 &gt;</text>
</a>
</g>
</g>
<!-- Node9&#45;&gt;Node8 -->
<g id="edge9" class="edge">
<title>Node9&#45;&gt;Node8</title>
<path fill="none" stroke="orange" stroke-dasharray="5,2" d="M1068.74,-486.91C1105.97,-470.33 1156.92,-448.66 1203,-432.61 1213.06,-429.11 1223.87,-425.75 1234.4,-422.7"/>
<polygon fill="orange" stroke="orange" points="1067.28,-483.73 1059.59,-491.01 1070.14,-490.12 1067.28,-483.73"/>
<text text-anchor="middle" x="1143.5" y="-473.61" font-family="Helvetica,sans-Serif" font-size="10.00"> &lt; double, 3, 3 &gt;</text>
</g>
<!-- Node10 -->
<g id="node10" class="node">
<title>Node10</title>
<g id="a_node10"><a xlink:title=" ">
<polygon fill="white" stroke="#bfbfbf" points="794.5,-324.11 794.5,-343.11 823.5,-343.11 823.5,-324.11 794.5,-324.11"/>
<text text-anchor="middle" x="809" y="-331.11" font-family="Helvetica,sans-Serif" font-size="10.00">T</text>
</a>
</g>
</g>
<!-- Node10&#45;&gt;Node9 -->
<g id="edge10" class="edge">
<title>Node10&#45;&gt;Node9</title>
<path fill="none" stroke="#9a32cd" stroke-dasharray="5,2" d="M828.49,-349.83C865.54,-382.32 948.82,-455.34 989.6,-491.1"/>
<polygon fill="#9a32cd" stroke="#9a32cd" points="830.74,-347.14 820.91,-343.18 826.13,-352.41 830.74,-347.14"/>
<text text-anchor="middle" x="913.5" y="-435.61" font-family="Helvetica,sans-Serif" font-size="10.00"> data</text>
</g>
<!-- Node20 -->
<g id="node20" class="node">
<title>Node20</title>
<g id="a_node20"><a xlink:href="classFTensor_1_1Ddg.html" target="_top" xlink:title=" ">
<polygon fill="white" stroke="black" points="944,-228.61 944,-258.61 1084,-258.61 1084,-228.61 944,-228.61"/>
<text text-anchor="start" x="952" y="-246.61" font-family="Helvetica,sans-Serif" font-size="10.00">FTensor::Ddg&lt; T, Tensor</text>
<text text-anchor="middle" x="1014" y="-235.61" font-family="Helvetica,sans-Serif" font-size="10.00">_Dim01, Tensor_Dim23 &gt;</text>
</a>
</g>
</g>
<!-- Node10&#45;&gt;Node20 -->
<g id="edge24" class="edge">
<title>Node10&#45;&gt;Node20</title>
<path fill="none" stroke="#9a32cd" stroke-dasharray="5,2" d="M833.2,-323.33C868.94,-307.48 937.66,-277.01 979.02,-258.68"/>
<polygon fill="#9a32cd" stroke="#9a32cd" points="831.36,-320.32 823.63,-327.57 834.2,-326.71 831.36,-320.32"/>
<text text-anchor="middle" x="913.5" y="-293.61" font-family="Helvetica,sans-Serif" font-size="10.00"> data</text>
</g>
<!-- Node11&#45;&gt;Node1 -->
<g id="edge11" class="edge">
<title>Node11&#45;&gt;Node1</title>
<path fill="none" stroke="#9a32cd" stroke-dasharray="5,2" d="M1647.54,-291.61C1679.35,-303.51 1723.41,-323.7 1754,-352.61 1783.41,-380.42 1802.66,-426.02 1810.07,-445.87"/>
<polygon fill="#9a32cd" stroke="#9a32cd" points="1648.69,-288.3 1638.09,-288.18 1646.3,-294.88 1648.69,-288.3"/>
<text text-anchor="middle" x="1719" y="-355.61" font-family="Helvetica,sans-Serif" font-size="10.00"> commonData</text>
</g>
<!-- Node12 -->
<g id="node12" class="node">
<title>Node12</title>
<g id="a_node12"><a xlink:title=" ">
<polygon fill="white" stroke="#bfbfbf" points="1215,-9.11 1215,-28.11 1372,-28.11 1372,-9.11 1215,-9.11"/>
<text text-anchor="middle" x="1293.5" y="-16.11" font-family="Helvetica,sans-Serif" font-size="10.00">shared_ptr&lt; MatrixDouble &gt;</text>
</a>
</g>
</g>
<!-- Node12&#45;&gt;Node11 -->
<g id="edge12" class="edge">
<title>Node12&#45;&gt;Node11</title>
<path fill="none" stroke="#9a32cd" stroke-dasharray="5,2" d="M1342.26,-7.19C1393.96,2.19 1476.07,7.98 1529,-33.61 1606.08,-94.18 1607.18,-231.59 1605.96,-269.03"/>
<polygon fill="#9a32cd" stroke="#9a32cd" points="1341.51,-3.77 1332.35,-9.1 1342.83,-10.64 1341.51,-3.77"/>
<text text-anchor="middle" x="1465.5" y="-146.61" font-family="Helvetica,sans-Serif" font-size="10.00"> eshelbyStress_dx</text>
<text text-anchor="middle" x="1465.5" y="-135.61" font-family="Helvetica,sans-Serif" font-size="10.00">invHMat</text>
<text text-anchor="middle" x="1465.5" y="-124.61" font-family="Helvetica,sans-Serif" font-size="10.00">stiffnessMat</text>
<text text-anchor="middle" x="1465.5" y="-113.61" font-family="Helvetica,sans-Serif" font-size="10.00">HMat</text>
<text text-anchor="middle" x="1465.5" y="-102.61" font-family="Helvetica,sans-Serif" font-size="10.00">FMat</text>
<text text-anchor="middle" x="1465.5" y="-91.61" font-family="Helvetica,sans-Serif" font-size="10.00">hMat</text>
<text text-anchor="middle" x="1465.5" y="-80.61" font-family="Helvetica,sans-Serif" font-size="10.00">gradDispPtr</text>
<text text-anchor="middle" x="1465.5" y="-69.61" font-family="Helvetica,sans-Serif" font-size="10.00">eshelbyStressMat</text>
<text text-anchor="middle" x="1465.5" y="-58.61" font-family="Helvetica,sans-Serif" font-size="10.00">cauchyStressMat</text>
<text text-anchor="middle" x="1465.5" y="-47.61" font-family="Helvetica,sans-Serif" font-size="10.00">smallStrainMat</text>
<text text-anchor="middle" x="1465.5" y="-36.61" font-family="Helvetica,sans-Serif" font-size="10.00">...</text>
</g>
<!-- Node13 -->
<g id="node13" class="node">
<title>Node13</title>
<g id="a_node13"><a xlink:href="structMoFEM_1_1DeprecatedCoreInterface.html" target="_top" xlink:title="Deprecated interface functions.">
<polygon fill="white" stroke="black" points="1203,-186.11 1203,-205.11 1384,-205.11 1384,-186.11 1203,-186.11"/>
<text text-anchor="middle" x="1293.5" y="-193.11" font-family="Helvetica,sans-Serif" font-size="10.00">MoFEM::DeprecatedCoreInterface</text>
</a>
</g>
</g>
<!-- Node13&#45;&gt;Node11 -->
<g id="edge14" class="edge">
<title>Node13&#45;&gt;Node11</title>
<path fill="none" stroke="#9a32cd" stroke-dasharray="5,2" d="M1394.27,-205.69C1436.62,-211.84 1486.04,-221.53 1529,-236.61 1552.16,-244.74 1576.64,-259.4 1591.5,-269.07"/>
<polygon fill="#9a32cd" stroke="#9a32cd" points="1394.61,-202.2 1384.22,-204.28 1393.64,-209.13 1394.61,-202.2"/>
<text text-anchor="middle" x="1465.5" y="-239.61" font-family="Helvetica,sans-Serif" font-size="10.00"> mField</text>
</g>
<!-- Node14 -->
<g id="node14" class="node">
<title>Node14</title>
<g id="a_node14"><a xlink:href="structMoFEM_1_1CoreInterface.html" target="_top" xlink:title="Interface.">
<polygon fill="white" stroke="black" points="951.5,-186.11 951.5,-205.11 1076.5,-205.11 1076.5,-186.11 951.5,-186.11"/>
<text text-anchor="middle" x="1014" y="-193.11" font-family="Helvetica,sans-Serif" font-size="10.00">MoFEM::CoreInterface</text>
</a>
</g>
</g>
<!-- Node14&#45;&gt;Node13 -->
<g id="edge15" class="edge">
<title>Node14&#45;&gt;Node13</title>
<path fill="none" stroke="midnightblue" d="M1086.84,-195.61C1122.27,-195.61 1165.35,-195.61 1202.91,-195.61"/>
<polygon fill="midnightblue" stroke="midnightblue" points="1086.59,-192.11 1076.59,-195.61 1086.59,-199.11 1086.59,-192.11"/>
</g>
<!-- Node15 -->
<g id="node15" class="node">
<title>Node15</title>
<g id="a_node15"><a xlink:href="structMoFEM_1_1UnknownInterface.html" target="_top" xlink:title="base class for all interface classes">
<polygon fill="white" stroke="black" points="735,-186.11 735,-205.11 883,-205.11 883,-186.11 735,-186.11"/>
<text text-anchor="middle" x="809" y="-193.11" font-family="Helvetica,sans-Serif" font-size="10.00">MoFEM::UnknownInterface</text>
</a>
</g>
</g>
<!-- Node15&#45;&gt;Node14 -->
<g id="edge16" class="edge">
<title>Node15&#45;&gt;Node14</title>
<path fill="none" stroke="midnightblue" d="M893.09,-195.61C912.58,-195.61 933,-195.61 951.36,-195.61"/>
<polygon fill="midnightblue" stroke="midnightblue" points="893,-192.11 883,-195.61 893,-199.11 893,-192.11"/>
</g>
<!-- Node16 -->
<g id="node16" class="node">
<title>Node16</title>
<g id="a_node16"><a xlink:title=" ">
<polygon fill="white" stroke="#bfbfbf" points="386,-164.11 386,-227.11 627,-227.11 627,-164.11 386,-164.11"/>
<text text-anchor="start" x="394" y="-215.11" font-family="Helvetica,sans-Serif" font-size="10.00">multi_index_container</text>
<text text-anchor="start" x="394" y="-204.11" font-family="Helvetica,sans-Serif" font-size="10.00">&lt; UIdTypeMap, indexed</text>
<text text-anchor="start" x="394" y="-193.11" font-family="Helvetica,sans-Serif" font-size="10.00">_by&lt; hashed_unique&lt; member</text>
<text text-anchor="start" x="394" y="-182.11" font-family="Helvetica,sans-Serif" font-size="10.00">&lt; UIdTypeMap, boost::typeindex</text>
<text text-anchor="middle" x="506.5" y="-171.11" font-family="Helvetica,sans-Serif" font-size="10.00">::type_index, &amp;UIdTypeMap::classIdx &gt; &gt; &gt; &gt;</text>
</a>
</g>
</g>
<!-- Node16&#45;&gt;Node15 -->
<g id="edge17" class="edge">
<title>Node16&#45;&gt;Node15</title>
<path fill="none" stroke="#9a32cd" stroke-dasharray="5,2" d="M637.41,-195.61C670.69,-195.61 705.33,-195.61 734.62,-195.61"/>
<polygon fill="#9a32cd" stroke="#9a32cd" points="637.13,-192.11 627.13,-195.61 637.13,-199.11 637.13,-192.11"/>
<text text-anchor="middle" x="681" y="-198.61" font-family="Helvetica,sans-Serif" font-size="10.00"> iFaceTypeMap</text>
</g>
<!-- Node17 -->
<g id="node17" class="node">
<title>Node17</title>
<g id="a_node17"><a xlink:title=" ">
<polygon fill="white" stroke="#bfbfbf" points="0,-186.11 0,-205.11 125,-205.11 125,-186.11 0,-186.11"/>
<text text-anchor="middle" x="62.5" y="-193.11" font-family="Helvetica,sans-Serif" font-size="10.00">multi_index_container</text>
</a>
</g>
</g>
<!-- Node17&#45;&gt;Node16 -->
<g id="edge18" class="edge">
<title>Node17&#45;&gt;Node16</title>
<path fill="none" stroke="orange" stroke-dasharray="5,2" d="M135.56,-195.61C203.25,-195.61 305.79,-195.61 385.77,-195.61"/>
<polygon fill="orange" stroke="orange" points="135.42,-192.11 125.42,-195.61 135.42,-199.11 135.42,-192.11"/>
<text text-anchor="start" x="143" y="-231.61" font-family="Helvetica,sans-Serif" font-size="10.00"> &lt; UIdTypeMap, indexed</text>
<text text-anchor="start" x="143" y="-220.61" font-family="Helvetica,sans-Serif" font-size="10.00">_by&lt; hashed_unique&lt; member</text>
<text text-anchor="start" x="143" y="-209.61" font-family="Helvetica,sans-Serif" font-size="10.00">&lt; UIdTypeMap, boost::typeindex</text>
<text text-anchor="middle" x="255.5" y="-198.61" font-family="Helvetica,sans-Serif" font-size="10.00">::type_index, &amp;UIdTypeMap::classIdx &gt; &gt; &gt; &gt;</text>
</g>
<!-- Node18 -->
<g id="node18" class="node">
<title>Node18</title>
<g id="a_node18"><a xlink:title=" ">
<polygon fill="white" stroke="#bfbfbf" points="1215.5,-354.11 1215.5,-373.11 1371.5,-373.11 1371.5,-354.11 1215.5,-354.11"/>
<text text-anchor="middle" x="1293.5" y="-361.11" font-family="Helvetica,sans-Serif" font-size="10.00">shared_ptr&lt; VectorDouble &gt;</text>
</a>
</g>
</g>
<!-- Node18&#45;&gt;Node11 -->
<g id="edge19" class="edge">
<title>Node18&#45;&gt;Node11</title>
<path fill="none" stroke="#9a32cd" stroke-dasharray="5,2" d="M1346.7,-351.52C1359.08,-348.13 1372.13,-344.12 1384,-339.61 1392.36,-336.44 1393.54,-333.5 1402,-330.61 1456.44,-312.03 1473.51,-320.78 1529,-305.61 1546.8,-300.75 1566.41,-293.79 1581.32,-288.16"/>
<polygon fill="#9a32cd" stroke="#9a32cd" points="1345.71,-348.15 1336.94,-354.1 1347.51,-354.92 1345.71,-348.15"/>
<text text-anchor="middle" x="1465.5" y="-355.61" font-family="Helvetica,sans-Serif" font-size="10.00"> pPtr</text>
<text text-anchor="middle" x="1465.5" y="-344.61" font-family="Helvetica,sans-Serif" font-size="10.00">detHVec</text>
<text text-anchor="middle" x="1465.5" y="-333.61" font-family="Helvetica,sans-Serif" font-size="10.00">energyVec</text>
</g>
<!-- Node19&#45;&gt;Node11 -->
<g id="edge21" class="edge">
<title>Node19&#45;&gt;Node11</title>
<path fill="none" stroke="#9a32cd" stroke-dasharray="5,2" d="M1366.76,-247.16C1413.17,-252.2 1474.71,-259.23 1529,-266.61 1534.73,-267.39 1540.69,-268.25 1546.65,-269.13"/>
<polygon fill="#9a32cd" stroke="#9a32cd" points="1367.11,-243.68 1356.8,-246.08 1366.36,-250.64 1367.11,-243.68"/>
<text text-anchor="middle" x="1465.5" y="-269.61" font-family="Helvetica,sans-Serif" font-size="10.00"> tD</text>
</g>
<!-- Node20&#45;&gt;Node19 -->
<g id="edge23" class="edge">
<title>Node20&#45;&gt;Node19</title>
<path fill="none" stroke="orange" stroke-dasharray="5,2" d="M1094.32,-233.16C1096.91,-232.96 1099.47,-232.77 1102,-232.61 1144.77,-229.92 1193.02,-231.74 1230.26,-234.2"/>
<polygon fill="orange" stroke="orange" points="1093.91,-229.69 1084.26,-234.06 1094.53,-236.66 1093.91,-229.69"/>
<text text-anchor="middle" x="1143.5" y="-235.61" font-family="Helvetica,sans-Serif" font-size="10.00"> &lt; double, 3, 3 &gt;</text>
</g>
<!-- Node21 -->
<g id="node21" class="node">
<title>Node21</title>
<g id="a_node21"><a xlink:title=" ">
<polygon fill="white" stroke="#bfbfbf" points="1228.5,-148.11 1228.5,-167.11 1358.5,-167.11 1358.5,-148.11 1228.5,-148.11"/>
<text text-anchor="middle" x="1293.5" y="-155.11" font-family="Helvetica,sans-Serif" font-size="10.00">map&lt; int, BlockData &gt;</text>
</a>
</g>
</g>
<!-- Node21&#45;&gt;Node11 -->
<g id="edge25" class="edge">
<title>Node21&#45;&gt;Node11</title>
<path fill="none" stroke="#9a32cd" stroke-dasharray="5,2" d="M1368.77,-155.46C1417.07,-157.07 1479.96,-165.03 1529,-191.61 1563.3,-210.21 1589.55,-250.58 1600.25,-269.05"/>
<polygon fill="#9a32cd" stroke="#9a32cd" points="1368.78,-151.96 1358.7,-155.21 1368.61,-158.96 1368.78,-151.96"/>
<text text-anchor="middle" x="1465.5" y="-194.61" font-family="Helvetica,sans-Serif" font-size="10.00"> setOfBlocksData</text>
</g>
</g>
</svg>
        <g id="navigator" transform="translate(0 0)" fill="#404254">
                <rect fill="#f2f5e9" fill-opacity="0.5" stroke="#606060" stroke-width=".5" x="0" y="0" width="60" height="60"/>
                <use id="zoomplus" xlink:href="#zoomPlus" x="17" y="9" onmousedown="handleZoom(evt,'in')"/>
                <use id="zoomminus" xlink:href="#zoomMin" x="42" y="9" onmousedown="handleZoom(evt,'out')"/>
                <use id="reset" xlink:href="#resetDef" x="30" y="36" onmousedown="handleReset()"/>
                <g id="arrowUp" xlink:href="#dirArrow" transform="translate(30 24)" onmousedown="handlePan(0,-1)">
                  <use xlink:href="#rim" fill="#404040">
                        <set attributeName="fill" to="#808080" begin="arrowUp.mouseover" end="arrowUp.mouseout"/>
                  </use>
                  <path fill="none" stroke="white" stroke-width="1.5" d="M0,-3.0v7 M-2.5,-0.5L0,-3.0L2.5,-0.5"/>
                </g>
                <g id="arrowRight" xlink:href="#dirArrow" transform="rotate(90) translate(36 -43)" onmousedown="handlePan(1,0)">
                  <use xlink:href="#rim" fill="#404040">
                        <set attributeName="fill" to="#808080" begin="arrowRight.mouseover" end="arrowRight.mouseout"/>
                  </use>
                  <path fill="none" stroke="white" stroke-width="1.5" d="M0,-3.0v7 M-2.5,-0.5L0,-3.0L2.5,-0.5"/>
                </g>
                <g id="arrowDown" xlink:href="#dirArrow" transform="rotate(180) translate(-30 -48)" onmousedown="handlePan(0,1)">
                  <use xlink:href="#rim" fill="#404040">
                        <set attributeName="fill" to="#808080" begin="arrowDown.mouseover" end="arrowDown.mouseout"/>
                  </use>
                  <path fill="none" stroke="white" stroke-width="1.5" d="M0,-3.0v7 M-2.5,-0.5L0,-3.0L2.5,-0.5"/>
                </g>
                <g id="arrowLeft" xlink:href="#dirArrow" transform="rotate(270) translate(-36 17)" onmousedown="handlePan(-1,0)">
                  <use xlink:href="#rim" fill="#404040">
                        <set attributeName="fill" to="#808080" begin="arrowLeft.mouseover" end="arrowLeft.mouseout"/>
                  </use>
                  <path fill="none" stroke="white" stroke-width="1.5" d="M0,-3.0v7 M-2.5,-0.5L0,-3.0L2.5,-0.5"/>
                </g>
        </g>
        <svg viewBox="0 0 15 15" width="100%" height="30px" preserveAspectRatio="xMaxYMin meet">
         <g id="arrow_out" transform="scale(0.3 0.3)">
          <a xlink:href="structOpAssembleK__coll__graph_org.svg" target="_base">
           <rect id="button" ry="5" rx="5" y="6" x="6" height="38" width="38"
                fill="#f2f5e9" fill-opacity="0.5" stroke="#606060" stroke-width="1.0"/>
           <path id="arrow"
             d="M 11.500037,31.436501 C 11.940474,20.09759 22.043105,11.32322 32.158766,21.979434 L 37.068811,17.246167 C 37.068811,17.246167 37.088388,32 37.088388,32 L 22.160133,31.978069 C 22.160133,31.978069 26.997745,27.140456 26.997745,27.140456 C 18.528582,18.264221 13.291696,25.230495 11.500037,31.436501 z"
             style="fill:#404040;"/>
          </a>
         </g>
        </svg>
</svg>
