<?xml version="1.0" encoding="UTF-8" standalone="no"?>
<!DOCTYPE svg PUBLIC "-//W3C//DTD SVG 1.1//EN"
 "http://www.w3.org/Graphics/SVG/1.1/DTD/svg11.dtd">
<!-- Generated by graphviz version 2.43.0 (0)
 -->
<!-- Title: PostProcTemplateVolumeOnRefinedMesh&lt; VOLUME_ELEMENT &gt;::OpHdivFunctions Pages: 1 -->
<svg width="419pt" height="128pt"
 viewBox="0.00 0.00 419.00 128.00" xmlns="http://www.w3.org/2000/svg" xmlns:xlink="http://www.w3.org/1999/xlink">
<g id="graph0" class="graph" transform="scale(1 1) rotate(0) translate(4 124)">
<title>PostProcTemplateVolumeOnRefinedMesh&lt; VOLUME_ELEMENT &gt;::OpHdivFunctions</title>
<polygon fill="white" stroke="transparent" points="-4,4 -4,-124 415,-124 415,4 -4,4"/>
<!-- Node1 -->
<g id="node1" class="node">
<title>Node1</title>
<g id="a_node1"><a xlink:title=" ">
<polygon fill="#bfbfbf" stroke="black" points="122.5,-0.5 122.5,-41.5 306.5,-41.5 306.5,-0.5 122.5,-0.5"/>
<text text-anchor="start" x="130.5" y="-29.5" font-family="Helvetica,sans-Serif" font-size="10.00">PostProcTemplateVolumeOn</text>
<text text-anchor="start" x="130.5" y="-18.5" font-family="Helvetica,sans-Serif" font-size="10.00">RefinedMesh&lt; VOLUME_ELEMENT</text>
<text text-anchor="middle" x="214.5" y="-7.5" font-family="Helvetica,sans-Serif" font-size="10.00"> &gt;::OpHdivFunctions</text>
</a>
</g>
</g>
<!-- Node2 -->
<g id="node2" class="node">
<title>Node2</title>
<g id="a_node2"><a xlink:title=" ">
<polygon fill="white" stroke="#bfbfbf" points="0,-89.5 0,-119.5 161,-119.5 161,-89.5 0,-89.5"/>
<text text-anchor="start" x="8" y="-107.5" font-family="Helvetica,sans-Serif" font-size="10.00">VOLUME_ELEMENT::UserData</text>
<text text-anchor="middle" x="80.5" y="-96.5" font-family="Helvetica,sans-Serif" font-size="10.00">Operator</text>
</a>
</g>
</g>
<!-- Node2&#45;&gt;Node1 -->
<g id="edge1" class="edge">
<title>Node2&#45;&gt;Node1</title>
<path fill="none" stroke="midnightblue" d="M112.15,-84.25C133.28,-71.4 160.99,-54.55 182.25,-41.62"/>
<polygon fill="midnightblue" stroke="midnightblue" points="110.26,-81.3 103.54,-89.49 113.9,-87.28 110.26,-81.3"/>
</g>
<!-- Node3 -->
<g id="node3" class="node">
<title>Node3</title>
<g id="a_node3"><a xlink:title=" ">
<polygon fill="white" stroke="#bfbfbf" points="179,-95 179,-114 250,-114 250,-95 179,-95"/>
<text text-anchor="middle" x="214.5" y="-102" font-family="Helvetica,sans-Serif" font-size="10.00">Interface &amp;</text>
</a>
</g>
</g>
<!-- Node3&#45;&gt;Node1 -->
<g id="edge2" class="edge">
<title>Node3&#45;&gt;Node1</title>
<path fill="none" stroke="#9a32cd" stroke-dasharray="5,2" d="M214.5,-84.75C214.5,-71.89 214.5,-54.84 214.5,-41.76"/>
<polygon fill="#9a32cd" stroke="#9a32cd" points="211,-84.78 214.5,-94.78 218,-84.78 211,-84.78"/>
<text text-anchor="middle" x="250.5" y="-63" font-family="Helvetica,sans-Serif" font-size="10.00"> postProcMesh</text>
</g>
<!-- Node4 -->
<g id="node4" class="node">
<title>Node4</title>
<g id="a_node4"><a xlink:title=" ">
<polygon fill="white" stroke="#bfbfbf" points="268,-95 268,-114 411,-114 411,-95 268,-95"/>
<text text-anchor="middle" x="339.5" y="-102" font-family="Helvetica,sans-Serif" font-size="10.00">vector&lt; EntityHandle &gt; &amp;</text>
</a>
</g>
</g>
<!-- Node4&#45;&gt;Node1 -->
<g id="edge3" class="edge">
<title>Node4&#45;&gt;Node1</title>
<path fill="none" stroke="#9a32cd" stroke-dasharray="5,2" d="M323.79,-87.63C314.59,-78.84 302.45,-68.09 290.5,-60 280.6,-53.3 269.36,-47.04 258.61,-41.61"/>
<polygon fill="#9a32cd" stroke="#9a32cd" points="321.46,-90.24 331.05,-94.73 326.35,-85.24 321.46,-90.24"/>
<text text-anchor="middle" x="339.5" y="-63" font-family="Helvetica,sans-Serif" font-size="10.00"> mapGaussPts</text>
</g>
</g>
</svg>
