<?xml version="1.0" encoding="UTF-8" standalone="no"?>
<!DOCTYPE svg PUBLIC "-//W3C//DTD SVG 1.1//EN"
 "http://www.w3.org/Graphics/SVG/1.1/DTD/svg11.dtd">
<!-- Generated by graphviz version 9.0.0 (20230911.1827)
 -->
<!-- Title: NeumannForcesSurface::bCPressure Pages: 1 -->
<svg width="182pt" height="105pt"
 viewBox="0.00 0.00 181.88 105.00" xmlns="http://www.w3.org/2000/svg" xmlns:xlink="http://www.w3.org/1999/xlink">
<g id="graph0" class="graph" transform="scale(1 1) rotate(0) translate(4 101)">
<title>NeumannForcesSurface::bCPressure</title>
<!-- Node1 -->
<g id="node1" class="node">
<title>Node1</title>
<g id="a_node1"><a xlink:title=" ">
<polygon fill="#999999" stroke="#666666" points="164.5,-30.5 42.75,-30.5 42.75,0 164.5,0 164.5,-30.5"/>
<text text-anchor="start" x="50.75" y="-17" font-family="Helvetica,sans-Serif" font-size="10.00">NeumannForcesSurface</text>
<text text-anchor="middle" x="103.62" y="-5.75" font-family="Helvetica,sans-Serif" font-size="10.00">::bCPressure</text>
</a>
</g>
</g>
<!-- Node2 -->
<g id="node2" class="node">
<title>Node2</title>
<g id="a_node2"><a xlink:title=" ">
<polygon fill="white" stroke="#666666" points="111.25,-97 0,-97 0,-77.75 111.25,-77.75 111.25,-97"/>
<text text-anchor="middle" x="55.62" y="-83.5" font-family="Helvetica,sans-Serif" font-size="10.00">PressureCubitBcData</text>
</a>
</g>
</g>
<!-- Node2&#45;&gt;Node1 -->
<g id="edge1" class="edge">
<title>Node2&#45;&gt;Node1</title>
<path fill="none" stroke="#9a32cd" stroke-dasharray="5,2" d="M67.99,-68.32C75.94,-56.7 86.14,-41.8 93.59,-30.92"/>
<polygon fill="#9a32cd" stroke="#9a32cd" points="65.32,-66.02 62.56,-76.24 71.1,-69.97 65.32,-66.02"/>
<text text-anchor="middle" x="92.5" y="-50.25" font-family="Helvetica,sans-Serif" font-size="10.00"> data</text>
</g>
<!-- Node3 -->
<g id="node3" class="node">
<title>Node3</title>
<g id="a_node3"><a xlink:href="class_range.html" target="_top" xlink:title=" ">
<polygon fill="white" stroke="#666666" points="173.88,-97 129.38,-97 129.38,-77.75 173.88,-77.75 173.88,-97"/>
<text text-anchor="middle" x="151.62" y="-83.5" font-family="Helvetica,sans-Serif" font-size="10.00">Range</text>
</a>
</g>
</g>
<!-- Node3&#45;&gt;Node1 -->
<g id="edge2" class="edge">
<title>Node3&#45;&gt;Node1</title>
<path fill="none" stroke="#9a32cd" stroke-dasharray="5,2" d="M139.26,-68.32C131.31,-56.7 121.11,-41.8 113.66,-30.92"/>
<polygon fill="#9a32cd" stroke="#9a32cd" points="136.15,-69.97 144.69,-76.24 141.93,-66.02 136.15,-69.97"/>
<text text-anchor="middle" x="143.12" y="-50.25" font-family="Helvetica,sans-Serif" font-size="10.00"> tRis</text>
</g>
</g>
</svg>
