<?xml version="1.0" encoding="UTF-8" standalone="no"?>
<!DOCTYPE svg PUBLIC "-//W3C//DTD SVG 1.1//EN"
 "http://www.w3.org/Graphics/SVG/1.1/DTD/svg11.dtd">
<!-- Generated by graphviz version 9.0.0 (20230911.1827)
 -->
<!-- Title: ThermoElasticProblem::BlockedParameters Pages: 1 -->
<svg width="351pt" height="139pt"
 viewBox="0.00 0.00 351.12 138.75" xmlns="http://www.w3.org/2000/svg" xmlns:xlink="http://www.w3.org/1999/xlink">
<g id="graph0" class="graph" transform="scale(1 1) rotate(0) translate(4 134.75)">
<title>ThermoElasticProblem::BlockedParameters</title>
<!-- Node1 -->
<g id="node1" class="node">
<title>Node1</title>
<g id="a_node1"><a xlink:title=" ">
<polygon fill="#999999" stroke="#666666" points="278.12,-30.5 163.12,-30.5 163.12,0 278.12,0 278.12,-30.5"/>
<text text-anchor="start" x="171.12" y="-17" font-family="Helvetica,sans-Serif" font-size="10.00">ThermoElasticProblem</text>
<text text-anchor="middle" x="220.62" y="-5.75" font-family="Helvetica,sans-Serif" font-size="10.00">::BlockedParameters</text>
</a>
</g>
</g>
<!-- Node2 -->
<g id="node2" class="node">
<title>Node2</title>
<g id="a_node2"><a xlink:title=" ">
<polygon fill="white" stroke="#666666" points="165.25,-130.75 0,-130.75 0,-100.25 165.25,-100.25 165.25,-130.75"/>
<text text-anchor="start" x="8" y="-117.25" font-family="Helvetica,sans-Serif" font-size="10.00">boost::enable_shared</text>
<text text-anchor="middle" x="82.62" y="-106" font-family="Helvetica,sans-Serif" font-size="10.00">_from_this&lt; BlockedParameters &gt;</text>
</a>
</g>
</g>
<!-- Node2&#45;&gt;Node1 -->
<g id="edge1" class="edge">
<title>Node2&#45;&gt;Node1</title>
<path fill="none" stroke="#63b8ff" d="M112.49,-93.24C139.03,-74.34 177.1,-47.24 200.27,-30.74"/>
<polygon fill="#63b8ff" stroke="#63b8ff" points="110.63,-90.26 104.52,-98.91 114.69,-95.96 110.63,-90.26"/>
</g>
<!-- Node3 -->
<g id="node3" class="node">
<title>Node3</title>
<g id="a_node3"><a xlink:title=" ">
<polygon fill="white" stroke="#666666" points="257.5,-125.12 183.75,-125.12 183.75,-105.88 257.5,-105.88 257.5,-125.12"/>
<text text-anchor="middle" x="220.62" y="-111.62" font-family="Helvetica,sans-Serif" font-size="10.00">MatrixDouble</text>
</a>
</g>
</g>
<!-- Node3&#45;&gt;Node1 -->
<g id="edge2" class="edge">
<title>Node3&#45;&gt;Node1</title>
<path fill="none" stroke="#9a32cd" stroke-dasharray="5,2" d="M220.62,-94.01C220.62,-75.19 220.62,-47.73 220.62,-30.99"/>
<polygon fill="#9a32cd" stroke="#9a32cd" points="217.13,-93.92 220.63,-103.92 224.13,-93.92 217.13,-93.92"/>
<text text-anchor="middle" x="230" y="-61.5" font-family="Helvetica,sans-Serif" font-size="10.00"> mD</text>
</g>
<!-- Node4 -->
<g id="node4" class="node">
<title>Node4</title>
<g id="a_node4"><a xlink:href="classdouble.html" target="_top" xlink:title=" ">
<polygon fill="white" stroke="#666666" points="319.88,-125.12 275.38,-125.12 275.38,-105.88 319.88,-105.88 319.88,-125.12"/>
<text text-anchor="middle" x="297.62" y="-111.62" font-family="Helvetica,sans-Serif" font-size="10.00">double</text>
</a>
</g>
</g>
<!-- Node4&#45;&gt;Node1 -->
<g id="edge3" class="edge">
<title>Node4&#45;&gt;Node1</title>
<path fill="none" stroke="#9a32cd" stroke-dasharray="5,2" d="M283.45,-96.41C268.69,-77.58 245.87,-48.46 232.17,-30.99"/>
<polygon fill="#9a32cd" stroke="#9a32cd" points="280.66,-98.53 289.59,-104.24 286.17,-94.21 280.66,-98.53"/>
<text text-anchor="middle" x="306.38" y="-72.75" font-family="Helvetica,sans-Serif" font-size="10.00"> coeffExpansion</text>
<text text-anchor="middle" x="306.38" y="-61.5" font-family="Helvetica,sans-Serif" font-size="10.00">heatCapacity</text>
<text text-anchor="middle" x="306.38" y="-50.25" font-family="Helvetica,sans-Serif" font-size="10.00">heatConductivity</text>
</g>
</g>
</svg>
