<?xml version="1.0" encoding="UTF-8" standalone="no"?>
<!DOCTYPE svg PUBLIC "-//W3C//DTD SVG 1.1//EN"
 "http://www.w3.org/Graphics/SVG/1.1/DTD/svg11.dtd">
<!-- Generated by graphviz version 2.43.0 (0)
 -->
<!-- Title: MortarContactProblem Pages: 1 -->
<!--zoomable 489 -->
<svg id="main" version="1.1" xmlns="http://www.w3.org/2000/svg" xmlns:xlink="http://www.w3.org/1999/xlink" xml:space="preserve" onload="init(evt)">
<style type="text/css"><![CDATA[
.edge:hover path { stroke: red; }
.edge:hover polygon { stroke: red; fill: red; }
]]></style>
<script type="text/javascript"><![CDATA[
var edges = document.getElementsByTagName('g');
if (edges && edges.length) {
  for (var i=0;i<edges.length;i++) {
    if (edges[i].id.substr(0,4)=='edge') {
      edges[i].setAttribute('class','edge');
    }
  }
}
]]></script>
        <defs>
                <circle id="rim" cx="0" cy="0" r="7"/>
                <circle id="rim2" cx="0" cy="0" r="3.5"/>
                <g id="zoomPlus">
                        <use xlink:href="#rim" fill="#404040">
                                <set attributeName="fill" to="#808080" begin="zoomplus.mouseover" end="zoomplus.mouseout"/>
                        </use>
                        <path d="M-4,0h8M0,-4v8" fill="none" stroke="white" stroke-width="1.5" pointer-events="none"/>
                </g>
                <g id="zoomMin">
                        <use xlink:href="#rim" fill="#404040">
                                <set attributeName="fill" to="#808080" begin="zoomminus.mouseover" end="zoomminus.mouseout"/>
                        </use>
                        <path d="M-4,0h8" fill="none" stroke="white" stroke-width="1.5" pointer-events="none"/>
                </g>
                <g id="dirArrow">
                        <path fill="none" stroke="white" stroke-width="1.5" d="M0,-3.0v7 M-2.5,-0.5L0,-3.0L2.5,-0.5"/>
                </g>
               <g id="resetDef">
                       <use xlink:href="#rim2" fill="#404040">
                               <set attributeName="fill" to="#808080" begin="reset.mouseover" end="reset.mouseout"/>
                       </use>
               </g>
        </defs>

<script type="text/javascript">
var viewWidth = 1935;
var viewHeight = 489;
var sectionId = 'dynsection-1';
</script>
<script xlink:href="svgpan.js"/>
<svg id="graph" class="graph">
<g id="viewport">
<title>MortarContactProblem</title>
<polygon fill="white" stroke="transparent" points="-4,4 -4,-485 1931,-485 1931,4 -4,4"/>
<!-- Node1 -->
<g id="node1" class="node">
<title>Node1</title>
<g id="a_node1"><a xlink:title=" ">
<polygon fill="#bfbfbf" stroke="black" points="1800,-165.5 1800,-184.5 1927,-184.5 1927,-165.5 1800,-165.5"/>
<text text-anchor="middle" x="1863.5" y="-172.5" font-family="Helvetica,sans-Serif" font-size="10.00">MortarContactProblem</text>
</a>
</g>
</g>
<!-- Node2 -->
<g id="node2" class="node">
<title>Node2</title>
<g id="a_node2"><a xlink:href="structSimpleContactProblem.html" target="_top" xlink:title="Set of functions declaring elements and setting operators to apply contact conditions between surface...">
<polygon fill="white" stroke="black" points="1453.5,-274.5 1453.5,-293.5 1581.5,-293.5 1581.5,-274.5 1453.5,-274.5"/>
<text text-anchor="middle" x="1517.5" y="-281.5" font-family="Helvetica,sans-Serif" font-size="10.00">SimpleContactProblem</text>
</a>
</g>
</g>
<!-- Node2&#45;&gt;Node1 -->
<g id="edge1" class="edge">
<title>Node2&#45;&gt;Node1</title>
<path fill="none" stroke="midnightblue" d="M1591.85,-279.82C1646.26,-274.58 1721.22,-262.73 1782,-236 1810.89,-223.29 1838.95,-198.3 1853.07,-184.58"/>
<polygon fill="midnightblue" stroke="midnightblue" points="1591.24,-276.36 1581.6,-280.76 1591.87,-283.34 1591.24,-276.36"/>
</g>
<!-- Node3 -->
<g id="node3" class="node">
<title>Node3</title>
<g id="a_node3"><a xlink:href="classdouble.html" target="_top" xlink:title=" ">
<polygon fill="white" stroke="black" points="1147.5,-247.5 1147.5,-266.5 1197.5,-266.5 1197.5,-247.5 1147.5,-247.5"/>
<text text-anchor="middle" x="1172.5" y="-254.5" font-family="Helvetica,sans-Serif" font-size="10.00">double</text>
</a>
</g>
</g>
<!-- Node3&#45;&gt;Node1 -->
<g id="edge12" class="edge">
<title>Node3&#45;&gt;Node1</title>
<path fill="none" stroke="#9a32cd" stroke-dasharray="5,2" d="M1207.35,-247.31C1228.38,-241.66 1256.06,-234.91 1281,-231 1501.58,-196.42 1561.33,-227.97 1782,-194 1797.04,-191.68 1813.43,-188.03 1827.47,-184.54"/>
<polygon fill="#9a32cd" stroke="#9a32cd" points="1206.33,-243.96 1197.61,-249.97 1208.18,-250.71 1206.33,-243.96"/>
<text text-anchor="middle" x="1517.5" y="-217" font-family="Helvetica,sans-Serif" font-size="10.00"> cnValue</text>
</g>
<!-- Node3&#45;&gt;Node2 -->
<g id="edge2" class="edge">
<title>Node3&#45;&gt;Node2</title>
<path fill="none" stroke="#9a32cd" stroke-dasharray="5,2" d="M1207.94,-259.71C1265.25,-264.22 1381.02,-273.34 1453.31,-279.03"/>
<polygon fill="#9a32cd" stroke="#9a32cd" points="1207.86,-256.19 1197.62,-258.9 1207.31,-263.17 1207.86,-256.19"/>
<text text-anchor="middle" x="1345.5" y="-300" font-family="Helvetica,sans-Serif" font-size="10.00"> ALM_TOL</text>
<text text-anchor="middle" x="1345.5" y="-289" font-family="Helvetica,sans-Serif" font-size="10.00">cnValue</text>
<text text-anchor="middle" x="1345.5" y="-278" font-family="Helvetica,sans-Serif" font-size="10.00">TOL</text>
</g>
<!-- Node4 -->
<g id="node4" class="node">
<title>Node4</title>
<g id="a_node4"><a xlink:title=" ">
<polygon fill="white" stroke="#bfbfbf" points="1082.5,-370 1082.5,-400 1262.5,-400 1262.5,-370 1082.5,-370"/>
<text text-anchor="start" x="1090.5" y="-388" font-family="Helvetica,sans-Serif" font-size="10.00">map&lt; int, SimpleContactProblem</text>
<text text-anchor="middle" x="1172.5" y="-377" font-family="Helvetica,sans-Serif" font-size="10.00">::SimpleContactPrismsData &gt;</text>
</a>
</g>
</g>
<!-- Node4&#45;&gt;Node2 -->
<g id="edge3" class="edge">
<title>Node4&#45;&gt;Node2</title>
<path fill="none" stroke="#9a32cd" stroke-dasharray="5,2" d="M1272.59,-383.22C1315.9,-379.83 1366.6,-372.25 1410,-356 1449.09,-341.37 1487.9,-309.69 1505.98,-293.68"/>
<polygon fill="#9a32cd" stroke="#9a32cd" points="1272.34,-379.73 1262.61,-383.94 1272.84,-386.71 1272.34,-379.73"/>
<text text-anchor="middle" x="1345.5" y="-385" font-family="Helvetica,sans-Serif" font-size="10.00"> setOfSimpleContactPrism</text>
</g>
<!-- Node5 -->
<g id="node5" class="node">
<title>Node5</title>
<g id="a_node5"><a xlink:href="structMoFEM_1_1DeprecatedCoreInterface.html" target="_top" xlink:title="Deprecated interface functions.">
<polygon fill="white" stroke="black" points="1082,-427.5 1082,-446.5 1263,-446.5 1263,-427.5 1082,-427.5"/>
<text text-anchor="middle" x="1172.5" y="-434.5" font-family="Helvetica,sans-Serif" font-size="10.00">MoFEM::DeprecatedCoreInterface</text>
</a>
</g>
</g>
<!-- Node5&#45;&gt;Node1 -->
<g id="edge13" class="edge">
<title>Node5&#45;&gt;Node1</title>
<path fill="none" stroke="#9a32cd" stroke-dasharray="5,2" d="M1273.29,-442.91C1315.87,-443.26 1365.82,-440.79 1410,-431 1586.06,-391.99 1637,-376.21 1782,-269 1815.52,-244.22 1844.46,-203.01 1856.52,-184.51"/>
<polygon fill="#9a32cd" stroke="#9a32cd" points="1273.25,-439.41 1263.2,-442.77 1273.15,-446.4 1273.25,-439.41"/>
<text text-anchor="middle" x="1517.5" y="-428" font-family="Helvetica,sans-Serif" font-size="10.00"> mField</text>
</g>
<!-- Node5&#45;&gt;Node2 -->
<g id="edge4" class="edge">
<title>Node5&#45;&gt;Node2</title>
<path fill="none" stroke="#9a32cd" stroke-dasharray="5,2" d="M1242.4,-425.89C1310.87,-414.76 1406.25,-399.01 1410,-397 1458.01,-371.31 1496.57,-315.81 1510.69,-293.53"/>
<polygon fill="#9a32cd" stroke="#9a32cd" points="1241.81,-422.43 1232.5,-427.49 1242.94,-429.34 1241.81,-422.43"/>
<text text-anchor="middle" x="1345.5" y="-422" font-family="Helvetica,sans-Serif" font-size="10.00"> mField</text>
</g>
<!-- Node6 -->
<g id="node6" class="node">
<title>Node6</title>
<g id="a_node6"><a xlink:href="structMoFEM_1_1CoreInterface.html" target="_top" xlink:title="Interface.">
<polygon fill="white" stroke="black" points="920,-427.5 920,-446.5 1045,-446.5 1045,-427.5 920,-427.5"/>
<text text-anchor="middle" x="982.5" y="-434.5" font-family="Helvetica,sans-Serif" font-size="10.00">MoFEM::CoreInterface</text>
</a>
</g>
</g>
<!-- Node6&#45;&gt;Node5 -->
<g id="edge5" class="edge">
<title>Node6&#45;&gt;Node5</title>
<path fill="none" stroke="midnightblue" d="M1055.16,-437C1063.89,-437 1072.89,-437 1081.84,-437"/>
<polygon fill="midnightblue" stroke="midnightblue" points="1055.06,-433.5 1045.06,-437 1055.06,-440.5 1055.06,-433.5"/>
</g>
<!-- Node7 -->
<g id="node7" class="node">
<title>Node7</title>
<g id="a_node7"><a xlink:href="structMoFEM_1_1UnknownInterface.html" target="_top" xlink:title="base class for all interface classes">
<polygon fill="white" stroke="black" points="735,-427.5 735,-446.5 883,-446.5 883,-427.5 735,-427.5"/>
<text text-anchor="middle" x="809" y="-434.5" font-family="Helvetica,sans-Serif" font-size="10.00">MoFEM::UnknownInterface</text>
</a>
</g>
</g>
<!-- Node7&#45;&gt;Node6 -->
<g id="edge6" class="edge">
<title>Node7&#45;&gt;Node6</title>
<path fill="none" stroke="midnightblue" d="M893.29,-437C902.24,-437 911.22,-437 919.85,-437"/>
<polygon fill="midnightblue" stroke="midnightblue" points="893.23,-433.5 883.23,-437 893.23,-440.5 893.23,-433.5"/>
</g>
<!-- Node8 -->
<g id="node8" class="node">
<title>Node8</title>
<g id="a_node8"><a xlink:title=" ">
<polygon fill="white" stroke="#bfbfbf" points="386,-405.5 386,-468.5 627,-468.5 627,-405.5 386,-405.5"/>
<text text-anchor="start" x="394" y="-456.5" font-family="Helvetica,sans-Serif" font-size="10.00">multi_index_container</text>
<text text-anchor="start" x="394" y="-445.5" font-family="Helvetica,sans-Serif" font-size="10.00">&lt; UIdTypeMap, indexed</text>
<text text-anchor="start" x="394" y="-434.5" font-family="Helvetica,sans-Serif" font-size="10.00">_by&lt; hashed_unique&lt; member</text>
<text text-anchor="start" x="394" y="-423.5" font-family="Helvetica,sans-Serif" font-size="10.00">&lt; UIdTypeMap, boost::typeindex</text>
<text text-anchor="middle" x="506.5" y="-412.5" font-family="Helvetica,sans-Serif" font-size="10.00">::type_index, &amp;UIdTypeMap::classIdx &gt; &gt; &gt; &gt;</text>
</a>
</g>
</g>
<!-- Node8&#45;&gt;Node7 -->
<g id="edge7" class="edge">
<title>Node8&#45;&gt;Node7</title>
<path fill="none" stroke="#9a32cd" stroke-dasharray="5,2" d="M637.41,-437C670.69,-437 705.33,-437 734.62,-437"/>
<polygon fill="#9a32cd" stroke="#9a32cd" points="637.13,-433.5 627.13,-437 637.13,-440.5 637.13,-433.5"/>
<text text-anchor="middle" x="681" y="-440" font-family="Helvetica,sans-Serif" font-size="10.00"> iFaceTypeMap</text>
</g>
<!-- Node9 -->
<g id="node9" class="node">
<title>Node9</title>
<g id="a_node9"><a xlink:title=" ">
<polygon fill="white" stroke="#bfbfbf" points="0,-427.5 0,-446.5 125,-446.5 125,-427.5 0,-427.5"/>
<text text-anchor="middle" x="62.5" y="-434.5" font-family="Helvetica,sans-Serif" font-size="10.00">multi_index_container</text>
</a>
</g>
</g>
<!-- Node9&#45;&gt;Node8 -->
<g id="edge8" class="edge">
<title>Node9&#45;&gt;Node8</title>
<path fill="none" stroke="orange" stroke-dasharray="5,2" d="M135.56,-437C203.25,-437 305.79,-437 385.77,-437"/>
<polygon fill="orange" stroke="orange" points="135.42,-433.5 125.42,-437 135.42,-440.5 135.42,-433.5"/>
<text text-anchor="start" x="143" y="-473" font-family="Helvetica,sans-Serif" font-size="10.00"> &lt; UIdTypeMap, indexed</text>
<text text-anchor="start" x="143" y="-462" font-family="Helvetica,sans-Serif" font-size="10.00">_by&lt; hashed_unique&lt; member</text>
<text text-anchor="start" x="143" y="-451" font-family="Helvetica,sans-Serif" font-size="10.00">&lt; UIdTypeMap, boost::typeindex</text>
<text text-anchor="middle" x="255.5" y="-440" font-family="Helvetica,sans-Serif" font-size="10.00">::type_index, &amp;UIdTypeMap::classIdx &gt; &gt; &gt; &gt;</text>
</g>
<!-- Node10 -->
<g id="node10" class="node">
<title>Node10</title>
<g id="a_node10"><a xlink:title=" ">
<polygon fill="white" stroke="#bfbfbf" points="1110.5,-188.5 1110.5,-207.5 1234.5,-207.5 1234.5,-188.5 1110.5,-188.5"/>
<text text-anchor="middle" x="1172.5" y="-195.5" font-family="Helvetica,sans-Serif" font-size="10.00">shared_ptr&lt; double &gt;</text>
</a>
</g>
</g>
<!-- Node10&#45;&gt;Node1 -->
<g id="edge14" class="edge">
<title>Node10&#45;&gt;Node1</title>
<path fill="none" stroke="#9a32cd" stroke-dasharray="5,2" d="M1244.95,-195.41C1295.96,-193.58 1366.2,-191.09 1428,-189 1560.38,-184.53 1715.46,-179.61 1799.9,-176.96"/>
<polygon fill="#9a32cd" stroke="#9a32cd" points="1244.56,-191.92 1234.69,-195.78 1244.81,-198.92 1244.56,-191.92"/>
<text text-anchor="middle" x="1517.5" y="-192" font-family="Helvetica,sans-Serif" font-size="10.00"> cnValuePtr</text>
</g>
<!-- Node10&#45;&gt;Node2 -->
<g id="edge9" class="edge">
<title>Node10&#45;&gt;Node2</title>
<path fill="none" stroke="#9a32cd" stroke-dasharray="5,2" d="M1233.12,-209.52C1281.16,-219.18 1350.31,-233.95 1410,-250 1437.18,-257.31 1467.73,-267.25 1489.12,-274.49"/>
<polygon fill="#9a32cd" stroke="#9a32cd" points="1233.69,-206.06 1223.2,-207.53 1232.32,-212.93 1233.69,-206.06"/>
<text text-anchor="middle" x="1345.5" y="-253" font-family="Helvetica,sans-Serif" font-size="10.00"> cnValuePtr</text>
</g>
<!-- Node11 -->
<g id="node11" class="node">
<title>Node11</title>
<g id="a_node11"><a xlink:title=" ">
<polygon fill="white" stroke="#bfbfbf" points="1158,-330.5 1158,-349.5 1187,-349.5 1187,-330.5 1158,-330.5"/>
<text text-anchor="middle" x="1172.5" y="-337.5" font-family="Helvetica,sans-Serif" font-size="10.00">int</text>
</a>
</g>
</g>
<!-- Node11&#45;&gt;Node2 -->
<g id="edge10" class="edge">
<title>Node11&#45;&gt;Node2</title>
<path fill="none" stroke="#9a32cd" stroke-dasharray="5,2" d="M1197.19,-338.29C1239.96,-334.97 1332.83,-326.64 1410,-312 1435.36,-307.19 1463.59,-299.67 1484.61,-293.63"/>
<polygon fill="#9a32cd" stroke="#9a32cd" points="1196.91,-334.81 1187.2,-339.05 1197.43,-341.79 1196.91,-334.81"/>
<text text-anchor="middle" x="1345.5" y="-344" font-family="Helvetica,sans-Serif" font-size="10.00"> POSITION_RANK</text>
<text text-anchor="middle" x="1345.5" y="-333" font-family="Helvetica,sans-Serif" font-size="10.00">LAGRANGE_RANK</text>
</g>
<!-- Node12 -->
<g id="node12" class="node">
<title>Node12</title>
<g id="a_node12"><a xlink:href="classbool.html" target="_top" xlink:title=" ">
<polygon fill="white" stroke="black" points="1153.5,-140.5 1153.5,-159.5 1191.5,-159.5 1191.5,-140.5 1153.5,-140.5"/>
<text text-anchor="middle" x="1172.5" y="-147.5" font-family="Helvetica,sans-Serif" font-size="10.00">bool</text>
</a>
</g>
</g>
<!-- Node12&#45;&gt;Node1 -->
<g id="edge16" class="edge">
<title>Node12&#45;&gt;Node1</title>
<path fill="none" stroke="#9a32cd" stroke-dasharray="5,2" d="M1201.63,-149.68C1245.95,-149.26 1334.74,-148.85 1410,-151 1549.38,-154.99 1712.68,-164.96 1799.96,-170.72"/>
<polygon fill="#9a32cd" stroke="#9a32cd" points="1201.57,-146.18 1191.6,-149.78 1201.64,-153.18 1201.57,-146.18"/>
<text text-anchor="middle" x="1517.5" y="-162" font-family="Helvetica,sans-Serif" font-size="10.00"> newtonCotes</text>
</g>
<!-- Node12&#45;&gt;Node2 -->
<g id="edge11" class="edge">
<title>Node12&#45;&gt;Node2</title>
<path fill="none" stroke="#9a32cd" stroke-dasharray="5,2" d="M1201.79,-149.29C1249.54,-149.53 1347.07,-156.36 1410,-204 1423.32,-214.08 1416.12,-225.25 1428,-237 1445.32,-254.13 1470.16,-266.58 1489.12,-274.34"/>
<polygon fill="#9a32cd" stroke="#9a32cd" points="1201.56,-145.79 1191.58,-149.34 1201.59,-152.79 1201.56,-145.79"/>
<text text-anchor="middle" x="1345.5" y="-207" font-family="Helvetica,sans-Serif" font-size="10.00"> newtonCotes</text>
</g>
<!-- Node13 -->
<g id="node13" class="node">
<title>Node13</title>
<g id="a_node13"><a xlink:title=" ">
<polygon fill="white" stroke="#bfbfbf" points="1428,-61 1428,-91 1607,-91 1607,-61 1428,-61"/>
<text text-anchor="start" x="1436" y="-79" font-family="Helvetica,sans-Serif" font-size="10.00">map&lt; int, MortarContactProblem</text>
<text text-anchor="middle" x="1517.5" y="-68" font-family="Helvetica,sans-Serif" font-size="10.00">::MortarContactPrismsData &gt;</text>
</a>
</g>
</g>
<!-- Node13&#45;&gt;Node1 -->
<g id="edge15" class="edge">
<title>Node13&#45;&gt;Node1</title>
<path fill="none" stroke="#9a32cd" stroke-dasharray="5,2" d="M1617.19,-71.81C1668.32,-73.13 1730.63,-80.31 1782,-103 1814.25,-117.24 1842.54,-149.4 1855.3,-165.47"/>
<polygon fill="#9a32cd" stroke="#9a32cd" points="1617.18,-68.31 1607.12,-71.63 1617.05,-75.31 1617.18,-68.31"/>
<text text-anchor="middle" x="1703.5" y="-106" font-family="Helvetica,sans-Serif" font-size="10.00"> setOfMortarContactPrism</text>
</g>
<!-- Node14 -->
<g id="node14" class="node">
<title>Node14</title>
<g id="a_node14"><a xlink:title=" ">
<polygon fill="white" stroke="#bfbfbf" points="1437,-0.5 1437,-41.5 1598,-41.5 1598,-0.5 1437,-0.5"/>
<text text-anchor="start" x="1445" y="-29.5" font-family="Helvetica,sans-Serif" font-size="10.00">shared_ptr&lt; ContactSearch</text>
<text text-anchor="start" x="1445" y="-18.5" font-family="Helvetica,sans-Serif" font-size="10.00">KdTree::ContactCommonData</text>
<text text-anchor="middle" x="1517.5" y="-7.5" font-family="Helvetica,sans-Serif" font-size="10.00">_multiIndex &gt;</text>
</a>
</g>
</g>
<!-- Node14&#45;&gt;Node1 -->
<g id="edge17" class="edge">
<title>Node14&#45;&gt;Node1</title>
<path fill="none" stroke="#9a32cd" stroke-dasharray="5,2" d="M1608.45,-16.08C1662.44,-17.19 1730.42,-26.1 1782,-58 1824.57,-84.32 1850.24,-142.47 1859.05,-165.42"/>
<polygon fill="#9a32cd" stroke="#9a32cd" points="1608.23,-12.57 1598.19,-15.96 1608.15,-19.57 1608.23,-12.57"/>
<text text-anchor="middle" x="1703.5" y="-61" font-family="Helvetica,sans-Serif" font-size="10.00"> contactCommondataMultiIndex</text>
</g>
</g>
</svg>
        <g id="navigator" transform="translate(0 0)" fill="#404254">
                <rect fill="#f2f5e9" fill-opacity="0.5" stroke="#606060" stroke-width=".5" x="0" y="0" width="60" height="60"/>
                <use id="zoomplus" xlink:href="#zoomPlus" x="17" y="9" onmousedown="handleZoom(evt,'in')"/>
                <use id="zoomminus" xlink:href="#zoomMin" x="42" y="9" onmousedown="handleZoom(evt,'out')"/>
                <use id="reset" xlink:href="#resetDef" x="30" y="36" onmousedown="handleReset()"/>
                <g id="arrowUp" xlink:href="#dirArrow" transform="translate(30 24)" onmousedown="handlePan(0,-1)">
                  <use xlink:href="#rim" fill="#404040">
                        <set attributeName="fill" to="#808080" begin="arrowUp.mouseover" end="arrowUp.mouseout"/>
                  </use>
                  <path fill="none" stroke="white" stroke-width="1.5" d="M0,-3.0v7 M-2.5,-0.5L0,-3.0L2.5,-0.5"/>
                </g>
                <g id="arrowRight" xlink:href="#dirArrow" transform="rotate(90) translate(36 -43)" onmousedown="handlePan(1,0)">
                  <use xlink:href="#rim" fill="#404040">
                        <set attributeName="fill" to="#808080" begin="arrowRight.mouseover" end="arrowRight.mouseout"/>
                  </use>
                  <path fill="none" stroke="white" stroke-width="1.5" d="M0,-3.0v7 M-2.5,-0.5L0,-3.0L2.5,-0.5"/>
                </g>
                <g id="arrowDown" xlink:href="#dirArrow" transform="rotate(180) translate(-30 -48)" onmousedown="handlePan(0,1)">
                  <use xlink:href="#rim" fill="#404040">
                        <set attributeName="fill" to="#808080" begin="arrowDown.mouseover" end="arrowDown.mouseout"/>
                  </use>
                  <path fill="none" stroke="white" stroke-width="1.5" d="M0,-3.0v7 M-2.5,-0.5L0,-3.0L2.5,-0.5"/>
                </g>
                <g id="arrowLeft" xlink:href="#dirArrow" transform="rotate(270) translate(-36 17)" onmousedown="handlePan(-1,0)">
                  <use xlink:href="#rim" fill="#404040">
                        <set attributeName="fill" to="#808080" begin="arrowLeft.mouseover" end="arrowLeft.mouseout"/>
                  </use>
                  <path fill="none" stroke="white" stroke-width="1.5" d="M0,-3.0v7 M-2.5,-0.5L0,-3.0L2.5,-0.5"/>
                </g>
        </g>
        <svg viewBox="0 0 15 15" width="100%" height="30px" preserveAspectRatio="xMaxYMin meet">
         <g id="arrow_out" transform="scale(0.3 0.3)">
          <a xlink:href="structMortarContactProblem__coll__graph_org.svg" target="_base">
           <rect id="button" ry="5" rx="5" y="6" x="6" height="38" width="38"
                fill="#f2f5e9" fill-opacity="0.5" stroke="#606060" stroke-width="1.0"/>
           <path id="arrow"
             d="M 11.500037,31.436501 C 11.940474,20.09759 22.043105,11.32322 32.158766,21.979434 L 37.068811,17.246167 C 37.068811,17.246167 37.088388,32 37.088388,32 L 22.160133,31.978069 C 22.160133,31.978069 26.997745,27.140456 26.997745,27.140456 C 18.528582,18.264221 13.291696,25.230495 11.500037,31.436501 z"
             style="fill:#404040;"/>
          </a>
         </g>
        </svg>
</svg>
