<?xml version="1.0" encoding="UTF-8" standalone="no"?>
<!DOCTYPE svg PUBLIC "-//W3C//DTD SVG 1.1//EN"
 "http://www.w3.org/Graphics/SVG/1.1/DTD/svg11.dtd">
<!-- Generated by graphviz version 9.0.0 (20230911.1827)
 -->
<!-- Title: DataAtIntegrationPts Pages: 1 -->
<!--zoomable 469 -->
<svg id="main" version="1.1" xmlns="http://www.w3.org/2000/svg" xmlns:xlink="http://www.w3.org/1999/xlink" xml:space="preserve" onload="init(evt)">
<style type="text/css"><![CDATA[
.edge:hover path { stroke: red; }
.edge:hover polygon { stroke: red; fill: red; }
]]></style>
<script type="text/javascript"><![CDATA[
var edges = document.getElementsByTagName('g');
if (edges && edges.length) {
  for (var i=0;i<edges.length;i++) {
    if (edges[i].id.substr(0,4)=='edge') {
      edges[i].setAttribute('class','edge');
    }
  }
}
]]></script>
        <defs>
                <circle id="rim" cx="0" cy="0" r="7"/>
                <circle id="rim2" cx="0" cy="0" r="3.5"/>
                <g id="zoomPlus">
                        <use xlink:href="#rim" fill="#404040">
                                <set attributeName="fill" to="#808080" begin="zoomplus.mouseover" end="zoomplus.mouseout"/>
                        </use>
                        <path d="M-4,0h8M0,-4v8" fill="none" stroke="white" stroke-width="1.5" pointer-events="none"/>
                </g>
                <g id="zoomMin">
                        <use xlink:href="#rim" fill="#404040">
                                <set attributeName="fill" to="#808080" begin="zoomminus.mouseover" end="zoomminus.mouseout"/>
                        </use>
                        <path d="M-4,0h8" fill="none" stroke="white" stroke-width="1.5" pointer-events="none"/>
                </g>
                <g id="dirArrow">
                        <path fill="none" stroke="white" stroke-width="1.5" d="M0,-3.0v7 M-2.5,-0.5L0,-3.0L2.5,-0.5"/>
                </g>
               <g id="resetDef">
                       <use xlink:href="#rim2" fill="#404040">
                               <set attributeName="fill" to="#808080" begin="reset.mouseover" end="reset.mouseout"/>
                       </use>
               </g>
        </defs>

<script type="text/javascript">
var viewWidth = 1526;
var viewHeight = 469;
var sectionId = 'dynsection-0';
</script>
<script xlink:href="svgpan.js"/>
<svg id="graph" class="graph">
<g id="viewport">
<title>DataAtIntegrationPts</title>
<!-- Node1 -->
<g id="node1" class="node">
<title>Node1</title>
<g id="a_node1"><a xlink:title=" ">
<polygon fill="#999999" stroke="#666666" points="1518,-172.75 1410.5,-172.75 1410.5,-153.5 1518,-153.5 1518,-172.75"/>
<text text-anchor="middle" x="1464.25" y="-159.25" font-family="Helvetica,sans-Serif" font-size="10.00">DataAtIntegrationPts</text>
</a>
</g>
</g>
<!-- Node2 -->
<g id="node2" class="node">
<title>Node2</title>
<g id="a_node2"><a xlink:title=" ">
<polygon fill="white" stroke="#666666" points="1247,-339.75 1109.5,-339.75 1109.5,-320.5 1247,-320.5 1247,-339.75"/>
<text text-anchor="middle" x="1178.25" y="-326.25" font-family="Helvetica,sans-Serif" font-size="10.00">shared_ptr&lt; MatrixDouble &gt;</text>
</a>
</g>
</g>
<!-- Node2&#45;&gt;Node1 -->
<g id="edge1" class="edge">
<title>Node2&#45;&gt;Node1</title>
<path fill="none" stroke="#9a32cd" stroke-dasharray="5,2" d="M1258.42,-338.22C1301.63,-338.63 1354.01,-332.18 1392.5,-305.12 1439.15,-272.34 1456.61,-199.73 1461.59,-173.14"/>
<polygon fill="#9a32cd" stroke="#9a32cd" points="1258.66,-334.73 1248.58,-337.99 1258.5,-341.73 1258.66,-334.73"/>
<text text-anchor="middle" x="1335.88" y="-451.38" font-family="Helvetica,sans-Serif" font-size="10.00"> FMat</text>
<text text-anchor="middle" x="1335.88" y="-440.12" font-family="Helvetica,sans-Serif" font-size="10.00">HMat</text>
<text text-anchor="middle" x="1335.88" y="-428.88" font-family="Helvetica,sans-Serif" font-size="10.00">cauchyStressMat</text>
<text text-anchor="middle" x="1335.88" y="-417.62" font-family="Helvetica,sans-Serif" font-size="10.00">eshelbyStressMat</text>
<text text-anchor="middle" x="1335.88" y="-406.38" font-family="Helvetica,sans-Serif" font-size="10.00">eshelbyStress_dx</text>
<text text-anchor="middle" x="1335.88" y="-395.12" font-family="Helvetica,sans-Serif" font-size="10.00">gradDispPtr</text>
<text text-anchor="middle" x="1335.88" y="-383.88" font-family="Helvetica,sans-Serif" font-size="10.00">hMat</text>
<text text-anchor="middle" x="1335.88" y="-372.62" font-family="Helvetica,sans-Serif" font-size="10.00">invHMat</text>
<text text-anchor="middle" x="1335.88" y="-361.38" font-family="Helvetica,sans-Serif" font-size="10.00">smallStrainMat</text>
<text text-anchor="middle" x="1335.88" y="-350.12" font-family="Helvetica,sans-Serif" font-size="10.00">stiffnessMat</text>
<text text-anchor="middle" x="1335.88" y="-338.88" font-family="Helvetica,sans-Serif" font-size="10.00">...</text>
</g>
<!-- Node3 -->
<g id="node3" class="node">
<title>Node3</title>
<g id="a_node3"><a xlink:title=" ">
<polygon fill="white" stroke="#666666" points="1247.75,-282.75 1108.75,-282.75 1108.75,-263.5 1247.75,-263.5 1247.75,-282.75"/>
<text text-anchor="middle" x="1178.25" y="-269.25" font-family="Helvetica,sans-Serif" font-size="10.00">shared_ptr&lt; VectorDouble &gt;</text>
</a>
</g>
</g>
<!-- Node3&#45;&gt;Node1 -->
<g id="edge2" class="edge">
<title>Node3&#45;&gt;Node1</title>
<path fill="none" stroke="#9a32cd" stroke-dasharray="5,2" d="M1259.25,-270.46C1300.97,-266.28 1351.67,-256.66 1392.5,-235.12 1421.18,-220 1445.36,-189.14 1456.56,-173.18"/>
<polygon fill="#9a32cd" stroke="#9a32cd" points="1259.16,-266.95 1249.52,-271.34 1259.8,-273.92 1259.16,-266.95"/>
<text text-anchor="middle" x="1335.88" y="-291.38" font-family="Helvetica,sans-Serif" font-size="10.00"> detHVec</text>
<text text-anchor="middle" x="1335.88" y="-280.12" font-family="Helvetica,sans-Serif" font-size="10.00">energyVec</text>
<text text-anchor="middle" x="1335.88" y="-268.88" font-family="Helvetica,sans-Serif" font-size="10.00">pPtr</text>
</g>
<!-- Node4 -->
<g id="node4" class="node">
<title>Node4</title>
<g id="a_node4"><a xlink:href="class_range.html" target="_top" xlink:title=" ">
<polygon fill="white" stroke="#666666" points="1200.5,-245.75 1156,-245.75 1156,-226.5 1200.5,-226.5 1200.5,-245.75"/>
<text text-anchor="middle" x="1178.25" y="-232.25" font-family="Helvetica,sans-Serif" font-size="10.00">Range</text>
</a>
</g>
</g>
<!-- Node4&#45;&gt;Node1 -->
<g id="edge3" class="edge">
<title>Node4&#45;&gt;Node1</title>
<path fill="none" stroke="#9a32cd" stroke-dasharray="5,2" d="M1211.57,-227.82C1263.96,-214.35 1367.27,-187.8 1423.87,-173.25"/>
<polygon fill="#9a32cd" stroke="#9a32cd" points="1210.88,-224.38 1202.06,-230.26 1212.62,-231.16 1210.88,-224.38"/>
<text text-anchor="middle" x="1335.88" y="-221.12" font-family="Helvetica,sans-Serif" font-size="10.00"> forcesOnlyOnEntitiesCol</text>
<text text-anchor="middle" x="1335.88" y="-209.88" font-family="Helvetica,sans-Serif" font-size="10.00">forcesOnlyOnEntitiesRow</text>
</g>
<!-- Node5 -->
<g id="node5" class="node">
<title>Node5</title>
<g id="a_node5"><a xlink:href="class_f_tensor_1_1_ddg.html" target="_top" xlink:title=" ">
<polygon fill="white" stroke="#666666" points="1236.12,-127.38 1120.38,-127.38 1120.38,-96.88 1236.12,-96.88 1236.12,-127.38"/>
<text text-anchor="start" x="1128.38" y="-113.88" font-family="Helvetica,sans-Serif" font-size="10.00">FTensor::Ddg&lt; double,</text>
<text text-anchor="middle" x="1178.25" y="-102.62" font-family="Helvetica,sans-Serif" font-size="10.00"> 3, 3 &gt;</text>
</a>
</g>
</g>
<!-- Node5&#45;&gt;Node1 -->
<g id="edge4" class="edge">
<title>Node5&#45;&gt;Node1</title>
<path fill="none" stroke="#9a32cd" stroke-dasharray="5,2" d="M1247.69,-116.49C1289.85,-120.14 1344.79,-126.63 1392.5,-137.88 1408.49,-141.65 1425.88,-147.82 1439.42,-153.12"/>
<polygon fill="#9a32cd" stroke="#9a32cd" points="1248.19,-113.02 1237.93,-115.69 1247.61,-120 1248.19,-113.02"/>
<text text-anchor="middle" x="1335.88" y="-138.88" font-family="Helvetica,sans-Serif" font-size="10.00"> tD</text>
</g>
<!-- Node6 -->
<g id="node6" class="node">
<title>Node6</title>
<g id="a_node6"><a xlink:href="classdouble.html" target="_top" xlink:title=" ">
<polygon fill="white" stroke="#666666" points="945.62,-163.75 901.12,-163.75 901.12,-144.5 945.62,-144.5 945.62,-163.75"/>
<text text-anchor="middle" x="923.38" y="-150.25" font-family="Helvetica,sans-Serif" font-size="10.00">double</text>
</a>
</g>
</g>
<!-- Node6&#45;&gt;Node1 -->
<g id="edge8" class="edge">
<title>Node6&#45;&gt;Node1</title>
<path fill="none" stroke="#9a32cd" stroke-dasharray="5,2" d="M957.21,-154.67C1047.42,-156.18 1299.62,-160.39 1410.18,-162.24"/>
<polygon fill="#9a32cd" stroke="#9a32cd" points="957.4,-151.18 947.35,-154.51 957.29,-158.18 957.4,-151.18"/>
<text text-anchor="middle" x="1178.25" y="-194.62" font-family="Helvetica,sans-Serif" font-size="10.00"> lAmbda</text>
<text text-anchor="middle" x="1178.25" y="-183.38" font-family="Helvetica,sans-Serif" font-size="10.00">mU</text>
<text text-anchor="middle" x="1178.25" y="-172.12" font-family="Helvetica,sans-Serif" font-size="10.00">pOisson</text>
<text text-anchor="middle" x="1178.25" y="-160.88" font-family="Helvetica,sans-Serif" font-size="10.00">yOung</text>
</g>
<!-- Node6&#45;&gt;Node5 -->
<g id="edge5" class="edge">
<title>Node6&#45;&gt;Node5</title>
<path fill="none" stroke="#9a32cd" stroke-dasharray="5,2" d="M957.03,-147.18C971.74,-144.15 989.33,-140.66 1005.25,-137.88 1043.47,-131.18 1086.65,-124.72 1120.19,-119.94"/>
<polygon fill="#9a32cd" stroke="#9a32cd" points="956.5,-143.71 947.43,-149.18 957.93,-150.57 956.5,-143.71"/>
<text text-anchor="middle" x="1041.25" y="-138.88" font-family="Helvetica,sans-Serif" font-size="10.00"> data</text>
</g>
<!-- Node7 -->
<g id="node7" class="node">
<title>Node7</title>
<g id="a_node7"><a xlink:href="class_f_tensor_1_1_ddg.html" target="_top" xlink:title=" ">
<polygon fill="white" stroke="#666666" points="987.25,-118.38 859.5,-118.38 859.5,-87.88 987.25,-87.88 987.25,-118.38"/>
<text text-anchor="start" x="867.5" y="-104.88" font-family="Helvetica,sans-Serif" font-size="10.00">FTensor::Ddg&lt; T, Tensor</text>
<text text-anchor="middle" x="923.38" y="-93.62" font-family="Helvetica,sans-Serif" font-size="10.00">_Dim01, Tensor_Dim23 &gt;</text>
</a>
</g>
</g>
<!-- Node7&#45;&gt;Node5 -->
<g id="edge6" class="edge">
<title>Node7&#45;&gt;Node5</title>
<path fill="none" stroke="orange" stroke-dasharray="5,2" d="M998.85,-102.34C1023.78,-102.38 1051.73,-102.76 1077.25,-103.88 1091.09,-104.48 1105.97,-105.5 1119.92,-106.63"/>
<polygon fill="orange" stroke="orange" points="999.14,-98.84 989.14,-102.34 999.14,-105.84 999.14,-98.84"/>
<text text-anchor="middle" x="1041.25" y="-104.88" font-family="Helvetica,sans-Serif" font-size="10.00"> &lt; double, 3, 3 &gt;</text>
</g>
<!-- Node8 -->
<g id="node8" class="node">
<title>Node8</title>
<g id="a_node8"><a xlink:title=" ">
<polygon fill="white" stroke="#666666" points="748.15,-112.75 719.35,-112.75 719.35,-93.5 748.15,-93.5 748.15,-112.75"/>
<text text-anchor="middle" x="733.75" y="-99.25" font-family="Helvetica,sans-Serif" font-size="10.00">T</text>
</a>
</g>
</g>
<!-- Node8&#45;&gt;Node7 -->
<g id="edge7" class="edge">
<title>Node8&#45;&gt;Node7</title>
<path fill="none" stroke="#9a32cd" stroke-dasharray="5,2" d="M760.02,-103.12C785.32,-103.12 825.27,-103.12 859.21,-103.12"/>
<polygon fill="#9a32cd" stroke="#9a32cd" points="760.06,-99.63 750.06,-103.13 760.06,-106.63 760.06,-99.63"/>
<text text-anchor="middle" x="830.62" y="-104.88" font-family="Helvetica,sans-Serif" font-size="10.00"> data</text>
</g>
<!-- Node9 -->
<g id="node9" class="node">
<title>Node9</title>
<g id="a_node9"><a xlink:title=" ">
<polygon fill="white" stroke="#666666" points="1235.75,-78.75 1120.75,-78.75 1120.75,-59.5 1235.75,-59.5 1235.75,-78.75"/>
<text text-anchor="middle" x="1178.25" y="-65.25" font-family="Helvetica,sans-Serif" font-size="10.00">map&lt; int, BlockData &gt;</text>
</a>
</g>
</g>
<!-- Node9&#45;&gt;Node1 -->
<g id="edge9" class="edge">
<title>Node9&#45;&gt;Node1</title>
<path fill="none" stroke="#9a32cd" stroke-dasharray="5,2" d="M1247.22,-71.02C1290.49,-74.41 1346.79,-82.95 1392.5,-103.88 1418.43,-115.75 1442.51,-139.75 1454.77,-153.28"/>
<polygon fill="#9a32cd" stroke="#9a32cd" points="1247.68,-67.54 1237.46,-70.34 1247.19,-74.53 1247.68,-67.54"/>
<text text-anchor="middle" x="1335.88" y="-104.88" font-family="Helvetica,sans-Serif" font-size="10.00"> setOfBlocksData</text>
</g>
<!-- Node10 -->
<g id="node10" class="node">
<title>Node10</title>
<g id="a_node10"><a xlink:href="struct_mo_f_e_m_1_1_deprecated_core_interface.html" target="_top" xlink:title="Deprecated interface functions.">
<polygon fill="white" stroke="#666666" points="1261.25,-41.75 1095.25,-41.75 1095.25,-22.5 1261.25,-22.5 1261.25,-41.75"/>
<text text-anchor="middle" x="1178.25" y="-28.25" font-family="Helvetica,sans-Serif" font-size="10.00">MoFEM::DeprecatedCoreInterface</text>
</a>
</g>
</g>
<!-- Node10&#45;&gt;Node1 -->
<g id="edge10" class="edge">
<title>Node10&#45;&gt;Node1</title>
<path fill="none" stroke="#9a32cd" stroke-dasharray="5,2" d="M1273.2,-27.34C1312.55,-29.36 1357.24,-37.28 1392.5,-58.88 1429.62,-81.61 1451.78,-132 1459.81,-153.3"/>
<polygon fill="#9a32cd" stroke="#9a32cd" points="1273.36,-23.84 1263.23,-26.96 1273.09,-30.83 1273.36,-23.84"/>
<text text-anchor="middle" x="1335.88" y="-60.88" font-family="Helvetica,sans-Serif" font-size="10.00"> mField</text>
</g>
<!-- Node11 -->
<g id="node11" class="node">
<title>Node11</title>
<g id="a_node11"><a xlink:href="struct_mo_f_e_m_1_1_core_interface.html" target="_top" xlink:title="Interface.">
<polygon fill="white" stroke="#666666" points="981.25,-41.75 865.5,-41.75 865.5,-22.5 981.25,-22.5 981.25,-41.75"/>
<text text-anchor="middle" x="923.38" y="-28.25" font-family="Helvetica,sans-Serif" font-size="10.00">MoFEM::CoreInterface</text>
</a>
</g>
</g>
<!-- Node11&#45;&gt;Node10 -->
<g id="edge11" class="edge">
<title>Node11&#45;&gt;Node10</title>
<path fill="none" stroke="#63b8ff" d="M992.75,-32.12C1024.26,-32.12 1061.92,-32.12 1094.97,-32.12"/>
<polygon fill="#63b8ff" stroke="#63b8ff" points="992.95,-28.63 982.95,-32.13 992.95,-35.63 992.95,-28.63"/>
</g>
<!-- Node12 -->
<g id="node12" class="node">
<title>Node12</title>
<g id="a_node12"><a xlink:href="struct_mo_f_e_m_1_1_unknown_interface.html" target="_top" xlink:title="base class for all interface classes">
<polygon fill="white" stroke="#666666" points="801.75,-41.75 665.75,-41.75 665.75,-22.5 801.75,-22.5 801.75,-41.75"/>
<text text-anchor="middle" x="733.75" y="-28.25" font-family="Helvetica,sans-Serif" font-size="10.00">MoFEM::UnknownInterface</text>
</a>
</g>
</g>
<!-- Node12&#45;&gt;Node11 -->
<g id="edge12" class="edge">
<title>Node12&#45;&gt;Node11</title>
<path fill="none" stroke="#63b8ff" d="M813.47,-32.12C830.79,-32.12 848.81,-32.12 865.1,-32.12"/>
<polygon fill="#63b8ff" stroke="#63b8ff" points="813.74,-28.63 803.74,-32.13 813.74,-35.63 813.74,-28.63"/>
</g>
<!-- Node13 -->
<g id="node13" class="node">
<title>Node13</title>
<g id="a_node13"><a xlink:title=" ">
<polygon fill="white" stroke="#666666" points="563,-64.25 346.75,-64.25 346.75,0 563,0 563,-64.25"/>
<text text-anchor="start" x="354.75" y="-50.75" font-family="Helvetica,sans-Serif" font-size="10.00">multi_index_container</text>
<text text-anchor="start" x="354.75" y="-39.5" font-family="Helvetica,sans-Serif" font-size="10.00">&lt; UIdTypeMap, indexed</text>
<text text-anchor="start" x="354.75" y="-28.25" font-family="Helvetica,sans-Serif" font-size="10.00">_by&lt; hashed_unique&lt; member</text>
<text text-anchor="start" x="354.75" y="-17" font-family="Helvetica,sans-Serif" font-size="10.00">&lt; UIdTypeMap, boost::typeindex</text>
<text text-anchor="middle" x="454.88" y="-5.75" font-family="Helvetica,sans-Serif" font-size="10.00">::type_index, &amp;UIdTypeMap::classIdx &gt; &gt; &gt; &gt;</text>
</a>
</g>
</g>
<!-- Node13&#45;&gt;Node12 -->
<g id="edge13" class="edge">
<title>Node13&#45;&gt;Node12</title>
<path fill="none" stroke="#9a32cd" stroke-dasharray="5,2" d="M574.68,-32.12C605.7,-32.12 638.06,-32.12 665.37,-32.12"/>
<polygon fill="#9a32cd" stroke="#9a32cd" points="574.83,-28.63 564.83,-32.13 574.83,-35.63 574.83,-28.63"/>
<text text-anchor="middle" x="614.38" y="-33.88" font-family="Helvetica,sans-Serif" font-size="10.00"> iFaceTypeMap</text>
</g>
<!-- Node14 -->
<g id="node14" class="node">
<title>Node14</title>
<g id="a_node14"><a xlink:title=" ">
<polygon fill="white" stroke="#666666" points="110.5,-41.75 0,-41.75 0,-22.5 110.5,-22.5 110.5,-41.75"/>
<text text-anchor="middle" x="55.25" y="-28.25" font-family="Helvetica,sans-Serif" font-size="10.00">multi_index_container</text>
</a>
</g>
</g>
<!-- Node14&#45;&gt;Node13 -->
<g id="edge14" class="edge">
<title>Node14&#45;&gt;Node13</title>
<path fill="none" stroke="orange" stroke-dasharray="5,2" d="M122.09,-32.12C183.01,-32.12 274.7,-32.12 346.26,-32.12"/>
<polygon fill="orange" stroke="orange" points="122.22,-28.63 112.22,-32.13 122.22,-35.63 122.22,-28.63"/>
<text text-anchor="start" x="128.5" y="-67.62" font-family="Helvetica,sans-Serif" font-size="10.00"> &lt; UIdTypeMap, indexed</text>
<text text-anchor="start" x="128.5" y="-56.38" font-family="Helvetica,sans-Serif" font-size="10.00">_by&lt; hashed_unique&lt; member</text>
<text text-anchor="start" x="128.5" y="-45.12" font-family="Helvetica,sans-Serif" font-size="10.00">&lt; UIdTypeMap, boost::typeindex</text>
<text text-anchor="middle" x="228.62" y="-33.88" font-family="Helvetica,sans-Serif" font-size="10.00">::type_index, &amp;UIdTypeMap::classIdx &gt; &gt; &gt; &gt;</text>
</g>
</g>
</svg>
        <g id="navigator" transform="translate(0 0)" fill="#404254">
                <rect fill="#f2f5e9" fill-opacity="0.5" stroke="#606060" stroke-width=".5" x="0" y="0" width="60" height="60"/>
                <use id="zoomplus" xlink:href="#zoomPlus" x="17" y="9" onmousedown="handleZoom(evt,'in')"/>
                <use id="zoomminus" xlink:href="#zoomMin" x="42" y="9" onmousedown="handleZoom(evt,'out')"/>
                <use id="reset" xlink:href="#resetDef" x="30" y="36" onmousedown="handleReset()"/>
                <g id="arrowUp" xlink:href="#dirArrow" transform="translate(30 24)" onmousedown="handlePan(0,-1)">
                  <use xlink:href="#rim" fill="#404040">
                        <set attributeName="fill" to="#808080" begin="arrowUp.mouseover" end="arrowUp.mouseout"/>
                  </use>
                  <path fill="none" stroke="white" stroke-width="1.5" d="M0,-3.0v7 M-2.5,-0.5L0,-3.0L2.5,-0.5"/>
                </g>
                <g id="arrowRight" xlink:href="#dirArrow" transform="rotate(90) translate(36 -43)" onmousedown="handlePan(1,0)">
                  <use xlink:href="#rim" fill="#404040">
                        <set attributeName="fill" to="#808080" begin="arrowRight.mouseover" end="arrowRight.mouseout"/>
                  </use>
                  <path fill="none" stroke="white" stroke-width="1.5" d="M0,-3.0v7 M-2.5,-0.5L0,-3.0L2.5,-0.5"/>
                </g>
                <g id="arrowDown" xlink:href="#dirArrow" transform="rotate(180) translate(-30 -48)" onmousedown="handlePan(0,1)">
                  <use xlink:href="#rim" fill="#404040">
                        <set attributeName="fill" to="#808080" begin="arrowDown.mouseover" end="arrowDown.mouseout"/>
                  </use>
                  <path fill="none" stroke="white" stroke-width="1.5" d="M0,-3.0v7 M-2.5,-0.5L0,-3.0L2.5,-0.5"/>
                </g>
                <g id="arrowLeft" xlink:href="#dirArrow" transform="rotate(270) translate(-36 17)" onmousedown="handlePan(-1,0)">
                  <use xlink:href="#rim" fill="#404040">
                        <set attributeName="fill" to="#808080" begin="arrowLeft.mouseover" end="arrowLeft.mouseout"/>
                  </use>
                  <path fill="none" stroke="white" stroke-width="1.5" d="M0,-3.0v7 M-2.5,-0.5L0,-3.0L2.5,-0.5"/>
                </g>
        </g>
        <svg viewBox="0 0 15 15" width="100%" height="30px" preserveAspectRatio="xMaxYMin meet">
         <g id="arrow_out" transform="scale(0.3 0.3)">
          <a xlink:href="struct_data_at_integration_pts__coll__graph_org.svg" target="_base">
           <rect id="button" ry="5" rx="5" y="6" x="6" height="38" width="38"
                fill="#f2f5e9" fill-opacity="0.5" stroke="#606060" stroke-width="1.0"/>
           <path id="arrow"
             d="M 11.500037,31.436501 C 11.940474,20.09759 22.043105,11.32322 32.158766,21.979434 L 37.068811,17.246167 C 37.068811,17.246167 37.088388,32 37.088388,32 L 22.160133,31.978069 C 22.160133,31.978069 26.997745,27.140456 26.997745,27.140456 C 18.528582,18.264221 13.291696,25.230495 11.500037,31.436501 z"
             style="fill:#404040;"/>
          </a>
         </g>
        </svg>
</svg>
