<?xml version="1.0" encoding="UTF-8" standalone="no"?>
<!DOCTYPE svg PUBLIC "-//W3C//DTD SVG 1.1//EN"
 "http://www.w3.org/Graphics/SVG/1.1/DTD/svg11.dtd">
<!-- Generated by graphviz version 9.0.0 (20230911.1827)
 -->
<!-- Title: MinimalSurfaceEquation::MinimalSurfaceElement::OpGetDataAtGaussPts Pages: 1 -->
<!--zoomable 110 -->
<svg id="main" version="1.1" xmlns="http://www.w3.org/2000/svg" xmlns:xlink="http://www.w3.org/1999/xlink" xml:space="preserve" onload="init(evt)">
<style type="text/css"><![CDATA[
.edge:hover path { stroke: red; }
.edge:hover polygon { stroke: red; fill: red; }
]]></style>
<script type="text/javascript"><![CDATA[
var edges = document.getElementsByTagName('g');
if (edges && edges.length) {
  for (var i=0;i<edges.length;i++) {
    if (edges[i].id.substr(0,4)=='edge') {
      edges[i].setAttribute('class','edge');
    }
  }
}
]]></script>
        <defs>
                <circle id="rim" cx="0" cy="0" r="7"/>
                <circle id="rim2" cx="0" cy="0" r="3.5"/>
                <g id="zoomPlus">
                        <use xlink:href="#rim" fill="#404040">
                                <set attributeName="fill" to="#808080" begin="zoomplus.mouseover" end="zoomplus.mouseout"/>
                        </use>
                        <path d="M-4,0h8M0,-4v8" fill="none" stroke="white" stroke-width="1.5" pointer-events="none"/>
                </g>
                <g id="zoomMin">
                        <use xlink:href="#rim" fill="#404040">
                                <set attributeName="fill" to="#808080" begin="zoomminus.mouseover" end="zoomminus.mouseout"/>
                        </use>
                        <path d="M-4,0h8" fill="none" stroke="white" stroke-width="1.5" pointer-events="none"/>
                </g>
                <g id="dirArrow">
                        <path fill="none" stroke="white" stroke-width="1.5" d="M0,-3.0v7 M-2.5,-0.5L0,-3.0L2.5,-0.5"/>
                </g>
               <g id="resetDef">
                       <use xlink:href="#rim2" fill="#404040">
                               <set attributeName="fill" to="#808080" begin="reset.mouseover" end="reset.mouseout"/>
                       </use>
               </g>
        </defs>

<script type="text/javascript">
var viewWidth = 574;
var viewHeight = 110;
var sectionId = 'dynsection-1';
</script>
<script xlink:href="svgpan.js"/>
<svg id="graph" class="graph">
<g id="viewport">
<title>MinimalSurfaceEquation::MinimalSurfaceElement::OpGetDataAtGaussPts</title>
<!-- Node1 -->
<g id="node1" class="node">
<title>Node1</title>
<g id="a_node1"><a xlink:title="Evaluate function values and gradients at Gauss Pts.">
<polygon fill="#999999" stroke="#666666" points="566.25,-80.5 440.75,-80.5 440.75,-38.75 566.25,-38.75 566.25,-80.5"/>
<text text-anchor="start" x="448.75" y="-67" font-family="Helvetica,sans-Serif" font-size="10.00">MinimalSurfaceEquation</text>
<text text-anchor="start" x="448.75" y="-55.75" font-family="Helvetica,sans-Serif" font-size="10.00">::MinimalSurfaceElement</text>
<text text-anchor="middle" x="503.5" y="-44.5" font-family="Helvetica,sans-Serif" font-size="10.00">::OpGetDataAtGaussPts</text>
</a>
</g>
</g>
<!-- Node2 -->
<g id="node2" class="node">
<title>Node2</title>
<g id="a_node2"><a xlink:title=" ">
<polygon fill="white" stroke="#666666" points="343.25,-101.88 186.25,-101.88 186.25,-71.38 343.25,-71.38 343.25,-101.88"/>
<text text-anchor="start" x="194.25" y="-88.38" font-family="Helvetica,sans-Serif" font-size="10.00">FaceElementForcesAndSources</text>
<text text-anchor="middle" x="264.75" y="-77.12" font-family="Helvetica,sans-Serif" font-size="10.00">Core::UserDataOperator</text>
</a>
</g>
</g>
<!-- Node2&#45;&gt;Node1 -->
<g id="edge1" class="edge">
<title>Node2&#45;&gt;Node1</title>
<path fill="none" stroke="#63b8ff" d="M354.8,-76.47C383.29,-73.22 414.2,-69.7 440.34,-66.71"/>
<polygon fill="#63b8ff" stroke="#63b8ff" points="354.64,-72.96 345.1,-77.58 355.43,-79.92 354.64,-72.96"/>
</g>
<!-- Node3 -->
<g id="node3" class="node">
<title>Node3</title>
<g id="a_node3"><a xlink:href="struct_minimal_surface_equation_1_1_minimal_surface_element_1_1_common_data.html" target="_top" xlink:title="Keep date between operators.">
<polygon fill="white" stroke="#666666" points="327.5,-53.5 202,-53.5 202,-11.75 327.5,-11.75 327.5,-53.5"/>
<text text-anchor="start" x="210" y="-40" font-family="Helvetica,sans-Serif" font-size="10.00">MinimalSurfaceEquation</text>
<text text-anchor="start" x="210" y="-28.75" font-family="Helvetica,sans-Serif" font-size="10.00">::MinimalSurfaceElement</text>
<text text-anchor="middle" x="264.75" y="-17.5" font-family="Helvetica,sans-Serif" font-size="10.00">::CommonData</text>
</a>
</g>
</g>
<!-- Node3&#45;&gt;Node1 -->
<g id="edge2" class="edge">
<title>Node3&#45;&gt;Node1</title>
<path fill="none" stroke="#9a32cd" stroke-dasharray="5,2" d="M339.18,-41C371.6,-44.7 409.3,-49 440.3,-52.53"/>
<polygon fill="#9a32cd" stroke="#9a32cd" points="339.79,-37.55 329.46,-39.89 339,-44.5 339.79,-37.55"/>
<text text-anchor="middle" x="392" y="-51.38" font-family="Helvetica,sans-Serif" font-size="10.00"> commonData</text>
</g>
<!-- Node4 -->
<g id="node4" class="node">
<title>Node4</title>
<g id="a_node4"><a xlink:title=" ">
<polygon fill="white" stroke="#666666" points="74.5,-65.25 0.75,-65.25 0.75,-46 74.5,-46 74.5,-65.25"/>
<text text-anchor="middle" x="37.62" y="-51.75" font-family="Helvetica,sans-Serif" font-size="10.00">MatrixDouble</text>
</a>
</g>
</g>
<!-- Node4&#45;&gt;Node3 -->
<g id="edge3" class="edge">
<title>Node4&#45;&gt;Node3</title>
<path fill="none" stroke="#9a32cd" stroke-dasharray="5,2" d="M86.17,-50.77C119.81,-47.33 165.25,-42.69 201.74,-38.96"/>
<polygon fill="#9a32cd" stroke="#9a32cd" points="85.89,-47.28 76.3,-51.78 86.6,-54.24 85.89,-47.28"/>
<text text-anchor="middle" x="130.75" y="-72.88" font-family="Helvetica,sans-Serif" font-size="10.00"> aNbyGradU</text>
<text text-anchor="middle" x="130.75" y="-61.62" font-family="Helvetica,sans-Serif" font-size="10.00">aNpow3byGradU</text>
<text text-anchor="middle" x="130.75" y="-50.38" font-family="Helvetica,sans-Serif" font-size="10.00">gradU</text>
</g>
<!-- Node5 -->
<g id="node5" class="node">
<title>Node5</title>
<g id="a_node5"><a xlink:title=" ">
<polygon fill="white" stroke="#666666" points="75.25,-19.25 0,-19.25 0,0 75.25,0 75.25,-19.25"/>
<text text-anchor="middle" x="37.62" y="-5.75" font-family="Helvetica,sans-Serif" font-size="10.00">VectorDouble</text>
</a>
</g>
</g>
<!-- Node5&#45;&gt;Node3 -->
<g id="edge4" class="edge">
<title>Node5&#45;&gt;Node3</title>
<path fill="none" stroke="#9a32cd" stroke-dasharray="5,2" d="M87.07,-11.24C111.47,-12.36 141.48,-14.19 168.25,-17.12 179.1,-18.32 190.6,-19.9 201.72,-21.61"/>
<polygon fill="#9a32cd" stroke="#9a32cd" points="87.24,-7.75 77.1,-10.81 86.94,-14.74 87.24,-7.75"/>
<text text-anchor="middle" x="130.75" y="-30.62" font-family="Helvetica,sans-Serif" font-size="10.00"> aN</text>
<text text-anchor="middle" x="130.75" y="-19.38" font-family="Helvetica,sans-Serif" font-size="10.00">normGradU2</text>
</g>
</g>
</svg>
        <g id="navigator" transform="translate(0 0)" fill="#404254">
                <rect fill="#f2f5e9" fill-opacity="0.5" stroke="#606060" stroke-width=".5" x="0" y="0" width="60" height="60"/>
                <use id="zoomplus" xlink:href="#zoomPlus" x="17" y="9" onmousedown="handleZoom(evt,'in')"/>
                <use id="zoomminus" xlink:href="#zoomMin" x="42" y="9" onmousedown="handleZoom(evt,'out')"/>
                <use id="reset" xlink:href="#resetDef" x="30" y="36" onmousedown="handleReset()"/>
                <g id="arrowUp" xlink:href="#dirArrow" transform="translate(30 24)" onmousedown="handlePan(0,-1)">
                  <use xlink:href="#rim" fill="#404040">
                        <set attributeName="fill" to="#808080" begin="arrowUp.mouseover" end="arrowUp.mouseout"/>
                  </use>
                  <path fill="none" stroke="white" stroke-width="1.5" d="M0,-3.0v7 M-2.5,-0.5L0,-3.0L2.5,-0.5"/>
                </g>
                <g id="arrowRight" xlink:href="#dirArrow" transform="rotate(90) translate(36 -43)" onmousedown="handlePan(1,0)">
                  <use xlink:href="#rim" fill="#404040">
                        <set attributeName="fill" to="#808080" begin="arrowRight.mouseover" end="arrowRight.mouseout"/>
                  </use>
                  <path fill="none" stroke="white" stroke-width="1.5" d="M0,-3.0v7 M-2.5,-0.5L0,-3.0L2.5,-0.5"/>
                </g>
                <g id="arrowDown" xlink:href="#dirArrow" transform="rotate(180) translate(-30 -48)" onmousedown="handlePan(0,1)">
                  <use xlink:href="#rim" fill="#404040">
                        <set attributeName="fill" to="#808080" begin="arrowDown.mouseover" end="arrowDown.mouseout"/>
                  </use>
                  <path fill="none" stroke="white" stroke-width="1.5" d="M0,-3.0v7 M-2.5,-0.5L0,-3.0L2.5,-0.5"/>
                </g>
                <g id="arrowLeft" xlink:href="#dirArrow" transform="rotate(270) translate(-36 17)" onmousedown="handlePan(-1,0)">
                  <use xlink:href="#rim" fill="#404040">
                        <set attributeName="fill" to="#808080" begin="arrowLeft.mouseover" end="arrowLeft.mouseout"/>
                  </use>
                  <path fill="none" stroke="white" stroke-width="1.5" d="M0,-3.0v7 M-2.5,-0.5L0,-3.0L2.5,-0.5"/>
                </g>
        </g>
        <svg viewBox="0 0 15 15" width="100%" height="30px" preserveAspectRatio="xMaxYMin meet">
         <g id="arrow_out" transform="scale(0.3 0.3)">
          <a xlink:href="struct_minimal_surface_equation_1_1_minimal_surface_element_1_1_op_get_data_at_gauss_pts__coll__graph_org.svg" target="_base">
           <rect id="button" ry="5" rx="5" y="6" x="6" height="38" width="38"
                fill="#f2f5e9" fill-opacity="0.5" stroke="#606060" stroke-width="1.0"/>
           <path id="arrow"
             d="M 11.500037,31.436501 C 11.940474,20.09759 22.043105,11.32322 32.158766,21.979434 L 37.068811,17.246167 C 37.068811,17.246167 37.088388,32 37.088388,32 L 22.160133,31.978069 C 22.160133,31.978069 26.997745,27.140456 26.997745,27.140456 C 18.528582,18.264221 13.291696,25.230495 11.500037,31.436501 z"
             style="fill:#404040;"/>
          </a>
         </g>
        </svg>
</svg>
