<?xml version="1.0" encoding="UTF-8" standalone="no"?>
<!DOCTYPE svg PUBLIC "-//W3C//DTD SVG 1.1//EN"
 "http://www.w3.org/Graphics/SVG/1.1/DTD/svg11.dtd">
<!-- Generated by graphviz version 2.43.0 (0)
 -->
<!-- Title: EshelbianPlasticity::HMHHencky::OpSpatialPhysical_du_du Pages: 1 -->
<svg width="320pt" height="321pt"
 viewBox="0.00 0.00 320.00 321.00" xmlns="http://www.w3.org/2000/svg" xmlns:xlink="http://www.w3.org/1999/xlink">
<g id="graph0" class="graph" transform="scale(1 1) rotate(0) translate(4 317)">
<title>EshelbianPlasticity::HMHHencky::OpSpatialPhysical_du_du</title>
<polygon fill="white" stroke="transparent" points="-4,4 -4,-317 316,-317 316,4 -4,4"/>
<!-- Node1 -->
<g id="node1" class="node">
<title>Node1</title>
<g id="a_node1"><a xlink:title=" ">
<polygon fill="#bfbfbf" stroke="black" points="0,-0.5 0,-30.5 210,-30.5 210,-0.5 0,-0.5"/>
<text text-anchor="start" x="8" y="-18.5" font-family="Helvetica,sans-Serif" font-size="10.00">EshelbianPlasticity</text>
<text text-anchor="middle" x="105" y="-7.5" font-family="Helvetica,sans-Serif" font-size="10.00">::HMHHencky::OpSpatialPhysical_du_du</text>
</a>
</g>
</g>
<!-- Node2 -->
<g id="node2" class="node">
<title>Node2</title>
<g id="a_node2"><a xlink:href="structEshelbianPlasticity_1_1OpAssembleVolume.html" target="_top" xlink:title=" ">
<polygon fill="white" stroke="black" points="44.5,-68.5 44.5,-98.5 165.5,-98.5 165.5,-68.5 44.5,-68.5"/>
<text text-anchor="start" x="52.5" y="-86.5" font-family="Helvetica,sans-Serif" font-size="10.00">EshelbianPlasticity</text>
<text text-anchor="middle" x="105" y="-75.5" font-family="Helvetica,sans-Serif" font-size="10.00">::OpAssembleVolume</text>
</a>
</g>
</g>
<!-- Node2&#45;&gt;Node1 -->
<g id="edge1" class="edge">
<title>Node2&#45;&gt;Node1</title>
<path fill="none" stroke="midnightblue" d="M105,-58.03C105,-48.86 105,-38.74 105,-30.79"/>
<polygon fill="midnightblue" stroke="midnightblue" points="101.5,-58.18 105,-68.18 108.5,-58.18 101.5,-58.18"/>
</g>
<!-- Node3 -->
<g id="node3" class="node">
<title>Node3</title>
<g id="a_node3"><a xlink:href="structEshelbianPlasticity_1_1OpAssembleBasic.html" target="_top" xlink:title=" ">
<polygon fill="white" stroke="black" points="25.5,-136.5 25.5,-177.5 184.5,-177.5 184.5,-136.5 25.5,-136.5"/>
<text text-anchor="start" x="33.5" y="-165.5" font-family="Helvetica,sans-Serif" font-size="10.00">EshelbianPlasticity</text>
<text text-anchor="start" x="33.5" y="-154.5" font-family="Helvetica,sans-Serif" font-size="10.00">::OpAssembleBasic&lt; VolUser</text>
<text text-anchor="middle" x="105" y="-143.5" font-family="Helvetica,sans-Serif" font-size="10.00">DataOperator &gt;</text>
</a>
</g>
</g>
<!-- Node3&#45;&gt;Node2 -->
<g id="edge2" class="edge">
<title>Node3&#45;&gt;Node2</title>
<path fill="none" stroke="midnightblue" d="M105,-126.16C105,-116.69 105,-106.65 105,-98.8"/>
<polygon fill="midnightblue" stroke="midnightblue" points="101.5,-126.46 105,-136.46 108.5,-126.46 101.5,-126.46"/>
</g>
<!-- Node4 -->
<g id="node4" class="node">
<title>Node4</title>
<g id="a_node4"><a xlink:title=" ">
<polygon fill="white" stroke="#bfbfbf" points="29,-231 29,-250 149,-250 149,-231 29,-231"/>
<text text-anchor="middle" x="89" y="-238" font-family="Helvetica,sans-Serif" font-size="10.00">VolUserDataOperator</text>
</a>
</g>
</g>
<!-- Node4&#45;&gt;Node3 -->
<g id="edge3" class="edge">
<title>Node4&#45;&gt;Node3</title>
<path fill="none" stroke="midnightblue" d="M92.68,-220.75C95.21,-207.89 98.55,-190.84 101.12,-177.76"/>
<polygon fill="midnightblue" stroke="midnightblue" points="89.2,-220.29 90.71,-230.78 96.07,-221.64 89.2,-220.29"/>
</g>
<!-- Node5 -->
<g id="node5" class="node">
<title>Node5</title>
<g id="a_node5"><a xlink:href="structEshelbianPlasticity_1_1OpAssembleBasic.html" target="_top" xlink:title=" ">
<polygon fill="white" stroke="black" points="167.5,-225.5 167.5,-255.5 306.5,-255.5 306.5,-225.5 167.5,-225.5"/>
<text text-anchor="start" x="175.5" y="-243.5" font-family="Helvetica,sans-Serif" font-size="10.00">EshelbianPlasticity</text>
<text text-anchor="middle" x="237" y="-232.5" font-family="Helvetica,sans-Serif" font-size="10.00">::OpAssembleBasic&lt; T &gt;</text>
</a>
</g>
</g>
<!-- Node5&#45;&gt;Node3 -->
<g id="edge4" class="edge">
<title>Node5&#45;&gt;Node3</title>
<path fill="none" stroke="orange" stroke-dasharray="5,2" d="M205.54,-220.08C184.76,-207.25 157.62,-190.49 136.77,-177.62"/>
<polygon fill="orange" stroke="orange" points="203.96,-223.21 214.31,-225.49 207.64,-217.26 203.96,-223.21"/>
<text text-anchor="middle" x="247" y="-199" font-family="Helvetica,sans-Serif" font-size="10.00"> &lt; VolUserDataOperator &gt;</text>
</g>
<!-- Node6 -->
<g id="node6" class="node">
<title>Node6</title>
<g id="a_node6"><a xlink:title=" ">
<polygon fill="white" stroke="#bfbfbf" points="222.5,-293.5 222.5,-312.5 251.5,-312.5 251.5,-293.5 222.5,-293.5"/>
<text text-anchor="middle" x="237" y="-300.5" font-family="Helvetica,sans-Serif" font-size="10.00">T</text>
</a>
</g>
</g>
<!-- Node6&#45;&gt;Node5 -->
<g id="edge5" class="edge">
<title>Node6&#45;&gt;Node5</title>
<path fill="none" stroke="midnightblue" d="M237,-283.22C237,-274.36 237,-263.96 237,-255.76"/>
<polygon fill="midnightblue" stroke="midnightblue" points="233.5,-283.33 237,-293.33 240.5,-283.33 233.5,-283.33"/>
</g>
</g>
</svg>
