<?xml version="1.0" encoding="UTF-8" standalone="no"?>
<!DOCTYPE svg PUBLIC "-//W3C//DTD SVG 1.1//EN"
 "http://www.w3.org/Graphics/SVG/1.1/DTD/svg11.dtd">
<!-- Generated by graphviz version 2.43.0 (0)
 -->
<!-- Title: BCs_RVEVolume::OpVolumeCal Pages: 1 -->
<!--zoomable 320 -->
<svg id="main" version="1.1" xmlns="http://www.w3.org/2000/svg" xmlns:xlink="http://www.w3.org/1999/xlink" xml:space="preserve" onload="init(evt)">
<style type="text/css"><![CDATA[
.edge:hover path { stroke: red; }
.edge:hover polygon { stroke: red; fill: red; }
]]></style>
<script type="text/javascript"><![CDATA[
var edges = document.getElementsByTagName('g');
if (edges && edges.length) {
  for (var i=0;i<edges.length;i++) {
    if (edges[i].id.substr(0,4)=='edge') {
      edges[i].setAttribute('class','edge');
    }
  }
}
]]></script>
        <defs>
                <circle id="rim" cx="0" cy="0" r="7"/>
                <circle id="rim2" cx="0" cy="0" r="3.5"/>
                <g id="zoomPlus">
                        <use xlink:href="#rim" fill="#404040">
                                <set attributeName="fill" to="#808080" begin="zoomplus.mouseover" end="zoomplus.mouseout"/>
                        </use>
                        <path d="M-4,0h8M0,-4v8" fill="none" stroke="white" stroke-width="1.5" pointer-events="none"/>
                </g>
                <g id="zoomMin">
                        <use xlink:href="#rim" fill="#404040">
                                <set attributeName="fill" to="#808080" begin="zoomminus.mouseover" end="zoomminus.mouseout"/>
                        </use>
                        <path d="M-4,0h8" fill="none" stroke="white" stroke-width="1.5" pointer-events="none"/>
                </g>
                <g id="dirArrow">
                        <path fill="none" stroke="white" stroke-width="1.5" d="M0,-3.0v7 M-2.5,-0.5L0,-3.0L2.5,-0.5"/>
                </g>
               <g id="resetDef">
                       <use xlink:href="#rim2" fill="#404040">
                               <set attributeName="fill" to="#808080" begin="reset.mouseover" end="reset.mouseout"/>
                       </use>
               </g>
        </defs>

<script type="text/javascript">
var viewWidth = 1755;
var viewHeight = 320;
var sectionId = 'dynsection-1';
</script>
<script xlink:href="svgpan.js"/>
<svg id="graph" class="graph">
<g id="viewport">
<title>BCs_RVEVolume::OpVolumeCal</title>
<polygon fill="white" stroke="transparent" points="-4,4 -4,-316.39 1751,-316.39 1751,4 -4,4"/>
<!-- Node1 -->
<g id="node1" class="node">
<title>Node1</title>
<g id="a_node1"><a xlink:title=" ">
<polygon fill="#bfbfbf" stroke="black" points="1578,-149.89 1578,-168.89 1747,-168.89 1747,-149.89 1578,-149.89"/>
<text text-anchor="middle" x="1662.5" y="-156.89" font-family="Helvetica,sans-Serif" font-size="10.00">BCs_RVEVolume::OpVolumeCal</text>
</a>
</g>
</g>
<!-- Node2 -->
<g id="node2" class="node">
<title>Node2</title>
<g id="a_node2"><a xlink:title=" ">
<polygon fill="white" stroke="#bfbfbf" points="1311,-207.89 1311,-226.89 1416,-226.89 1416,-207.89 1311,-207.89"/>
<text text-anchor="middle" x="1363.5" y="-214.89" font-family="Helvetica,sans-Serif" font-size="10.00">UserDataOperator</text>
</a>
</g>
</g>
<!-- Node2&#45;&gt;Node1 -->
<g id="edge1" class="edge">
<title>Node2&#45;&gt;Node1</title>
<path fill="none" stroke="midnightblue" d="M1426.27,-209.26C1464.89,-203.76 1515.56,-195.8 1560,-186.39 1583.19,-181.48 1609,-174.6 1628.79,-169.01"/>
<polygon fill="midnightblue" stroke="midnightblue" points="1425.63,-205.81 1416.22,-210.67 1426.61,-212.74 1425.63,-205.81"/>
</g>
<!-- Node3 -->
<g id="node3" class="node">
<title>Node3</title>
<g id="a_node3"><a xlink:href="structMoFEM_1_1DeprecatedCoreInterface.html" target="_top" xlink:title="Deprecated interface functions.">
<polygon fill="white" stroke="black" points="1273,-169.89 1273,-188.89 1454,-188.89 1454,-169.89 1273,-169.89"/>
<text text-anchor="middle" x="1363.5" y="-176.89" font-family="Helvetica,sans-Serif" font-size="10.00">MoFEM::DeprecatedCoreInterface</text>
</a>
</g>
</g>
<!-- Node3&#45;&gt;Node1 -->
<g id="edge2" class="edge">
<title>Node3&#45;&gt;Node1</title>
<path fill="none" stroke="#9a32cd" stroke-dasharray="5,2" d="M1464.28,-172.67C1501.13,-170.19 1542.47,-167.41 1577.76,-165.03"/>
<polygon fill="#9a32cd" stroke="#9a32cd" points="1463.75,-169.2 1454.01,-173.37 1464.23,-176.19 1463.75,-169.2"/>
<text text-anchor="middle" x="1516" y="-174.39" font-family="Helvetica,sans-Serif" font-size="10.00"> mField</text>
</g>
<!-- Node4 -->
<g id="node4" class="node">
<title>Node4</title>
<g id="a_node4"><a xlink:href="structMoFEM_1_1CoreInterface.html" target="_top" xlink:title="Interface.">
<polygon fill="white" stroke="black" points="952.5,-258.89 952.5,-277.89 1077.5,-277.89 1077.5,-258.89 952.5,-258.89"/>
<text text-anchor="middle" x="1015" y="-265.89" font-family="Helvetica,sans-Serif" font-size="10.00">MoFEM::CoreInterface</text>
</a>
</g>
</g>
<!-- Node4&#45;&gt;Node3 -->
<g id="edge3" class="edge">
<title>Node4&#45;&gt;Node3</title>
<path fill="none" stroke="midnightblue" d="M1087.95,-274.36C1139.02,-274.93 1206.81,-267.84 1255,-233.39 1269.23,-223.22 1259.1,-209.01 1273,-198.39 1278.05,-194.54 1283.7,-191.42 1289.65,-188.91"/>
<polygon fill="midnightblue" stroke="midnightblue" points="1087.71,-270.86 1077.64,-274.14 1087.56,-277.86 1087.71,-270.86"/>
</g>
<!-- Node5 -->
<g id="node5" class="node">
<title>Node5</title>
<g id="a_node5"><a xlink:href="structMoFEM_1_1UnknownInterface.html" target="_top" xlink:title="base class for all interface classes">
<polygon fill="white" stroke="black" points="735,-258.89 735,-277.89 883,-277.89 883,-258.89 735,-258.89"/>
<text text-anchor="middle" x="809" y="-265.89" font-family="Helvetica,sans-Serif" font-size="10.00">MoFEM::UnknownInterface</text>
</a>
</g>
</g>
<!-- Node5&#45;&gt;Node4 -->
<g id="edge4" class="edge">
<title>Node5&#45;&gt;Node4</title>
<path fill="none" stroke="midnightblue" d="M893.27,-268.39C912.98,-268.39 933.65,-268.39 952.21,-268.39"/>
<polygon fill="midnightblue" stroke="midnightblue" points="893.07,-264.89 883.07,-268.39 893.07,-271.89 893.07,-264.89"/>
</g>
<!-- Node6 -->
<g id="node6" class="node">
<title>Node6</title>
<g id="a_node6"><a xlink:title=" ">
<polygon fill="white" stroke="#bfbfbf" points="386,-236.89 386,-299.89 627,-299.89 627,-236.89 386,-236.89"/>
<text text-anchor="start" x="394" y="-287.89" font-family="Helvetica,sans-Serif" font-size="10.00">multi_index_container</text>
<text text-anchor="start" x="394" y="-276.89" font-family="Helvetica,sans-Serif" font-size="10.00">&lt; UIdTypeMap, indexed</text>
<text text-anchor="start" x="394" y="-265.89" font-family="Helvetica,sans-Serif" font-size="10.00">_by&lt; hashed_unique&lt; member</text>
<text text-anchor="start" x="394" y="-254.89" font-family="Helvetica,sans-Serif" font-size="10.00">&lt; UIdTypeMap, boost::typeindex</text>
<text text-anchor="middle" x="506.5" y="-243.89" font-family="Helvetica,sans-Serif" font-size="10.00">::type_index, &amp;UIdTypeMap::classIdx &gt; &gt; &gt; &gt;</text>
</a>
</g>
</g>
<!-- Node6&#45;&gt;Node5 -->
<g id="edge5" class="edge">
<title>Node6&#45;&gt;Node5</title>
<path fill="none" stroke="#9a32cd" stroke-dasharray="5,2" d="M637.41,-268.39C670.69,-268.39 705.33,-268.39 734.62,-268.39"/>
<polygon fill="#9a32cd" stroke="#9a32cd" points="637.13,-264.89 627.13,-268.39 637.13,-271.89 637.13,-264.89"/>
<text text-anchor="middle" x="681" y="-271.39" font-family="Helvetica,sans-Serif" font-size="10.00"> iFaceTypeMap</text>
</g>
<!-- Node7 -->
<g id="node7" class="node">
<title>Node7</title>
<g id="a_node7"><a xlink:title=" ">
<polygon fill="white" stroke="#bfbfbf" points="0,-258.89 0,-277.89 125,-277.89 125,-258.89 0,-258.89"/>
<text text-anchor="middle" x="62.5" y="-265.89" font-family="Helvetica,sans-Serif" font-size="10.00">multi_index_container</text>
</a>
</g>
</g>
<!-- Node7&#45;&gt;Node6 -->
<g id="edge6" class="edge">
<title>Node7&#45;&gt;Node6</title>
<path fill="none" stroke="orange" stroke-dasharray="5,2" d="M135.56,-268.39C203.25,-268.39 305.79,-268.39 385.77,-268.39"/>
<polygon fill="orange" stroke="orange" points="135.42,-264.89 125.42,-268.39 135.42,-271.89 135.42,-264.89"/>
<text text-anchor="start" x="143" y="-304.39" font-family="Helvetica,sans-Serif" font-size="10.00"> &lt; UIdTypeMap, indexed</text>
<text text-anchor="start" x="143" y="-293.39" font-family="Helvetica,sans-Serif" font-size="10.00">_by&lt; hashed_unique&lt; member</text>
<text text-anchor="start" x="143" y="-282.39" font-family="Helvetica,sans-Serif" font-size="10.00">&lt; UIdTypeMap, boost::typeindex</text>
<text text-anchor="middle" x="255.5" y="-271.39" font-family="Helvetica,sans-Serif" font-size="10.00">::type_index, &amp;UIdTypeMap::classIdx &gt; &gt; &gt; &gt;</text>
</g>
<!-- Node8 -->
<g id="node8" class="node">
<title>Node8</title>
<g id="a_node8"><a xlink:href="structNonlinearElasticElement_1_1BlockData.html" target="_top" xlink:title="data for calculation heat conductivity and heat capacity elements">
<polygon fill="white" stroke="black" points="1295,-120.39 1295,-150.39 1432,-150.39 1432,-120.39 1295,-120.39"/>
<text text-anchor="start" x="1303" y="-138.39" font-family="Helvetica,sans-Serif" font-size="10.00">NonlinearElasticElement</text>
<text text-anchor="middle" x="1363.5" y="-127.39" font-family="Helvetica,sans-Serif" font-size="10.00">::BlockData</text>
</a>
</g>
</g>
<!-- Node8&#45;&gt;Node1 -->
<g id="edge7" class="edge">
<title>Node8&#45;&gt;Node1</title>
<path fill="none" stroke="#9a32cd" stroke-dasharray="5,2" d="M1442.36,-141.69C1484.02,-145.05 1535.34,-149.2 1577.85,-152.63"/>
<polygon fill="#9a32cd" stroke="#9a32cd" points="1442.51,-138.19 1432.27,-140.87 1441.95,-145.16 1442.51,-138.19"/>
<text text-anchor="middle" x="1516" y="-153.39" font-family="Helvetica,sans-Serif" font-size="10.00"> dAta</text>
</g>
<!-- Node9 -->
<g id="node9" class="node">
<title>Node9</title>
<g id="a_node9"><a xlink:title=" ">
<polygon fill="white" stroke="#bfbfbf" points="920,-198.89 920,-239.89 1110,-239.89 1110,-198.89 920,-198.89"/>
<text text-anchor="start" x="928" y="-227.89" font-family="Helvetica,sans-Serif" font-size="10.00">shared_ptr&lt; NonlinearElastic</text>
<text text-anchor="start" x="928" y="-216.89" font-family="Helvetica,sans-Serif" font-size="10.00">Element::FunctionsToCalculatePiola</text>
<text text-anchor="middle" x="1015" y="-205.89" font-family="Helvetica,sans-Serif" font-size="10.00">KirchhoffI&lt; adouble &gt; &gt;</text>
</a>
</g>
</g>
<!-- Node9&#45;&gt;Node8 -->
<g id="edge8" class="edge">
<title>Node9&#45;&gt;Node8</title>
<path fill="none" stroke="#9a32cd" stroke-dasharray="5,2" d="M1120.21,-219.73C1174.16,-217.98 1233.22,-212.45 1255,-197.39 1270.04,-186.99 1258.96,-172.11 1273,-160.39 1279.44,-155.02 1286.96,-150.8 1294.85,-147.48"/>
<polygon fill="#9a32cd" stroke="#9a32cd" points="1120.1,-216.23 1110.2,-220.02 1120.3,-223.23 1120.1,-216.23"/>
<text text-anchor="middle" x="1191.5" y="-221.39" font-family="Helvetica,sans-Serif" font-size="10.00"> materialAdoublePtr</text>
</g>
<!-- Node10 -->
<g id="node10" class="node">
<title>Node10</title>
<g id="a_node10"><a xlink:href="classdouble.html" target="_top" xlink:title=" ">
<polygon fill="white" stroke="black" points="990,-154.89 990,-173.89 1040,-173.89 1040,-154.89 990,-154.89"/>
<text text-anchor="middle" x="1015" y="-161.89" font-family="Helvetica,sans-Serif" font-size="10.00">double</text>
</a>
</g>
</g>
<!-- Node10&#45;&gt;Node8 -->
<g id="edge9" class="edge">
<title>Node10&#45;&gt;Node8</title>
<path fill="none" stroke="#9a32cd" stroke-dasharray="5,2" d="M1050.26,-160.84C1072.43,-158.58 1101.91,-155.68 1128,-153.39 1184.23,-148.47 1248.12,-143.62 1295,-140.19"/>
<polygon fill="#9a32cd" stroke="#9a32cd" points="1049.61,-157.39 1040.02,-161.89 1050.32,-164.35 1049.61,-157.39"/>
<text text-anchor="middle" x="1191.5" y="-189.39" font-family="Helvetica,sans-Serif" font-size="10.00"> E</text>
<text text-anchor="middle" x="1191.5" y="-178.39" font-family="Helvetica,sans-Serif" font-size="10.00">k1</text>
<text text-anchor="middle" x="1191.5" y="-167.39" font-family="Helvetica,sans-Serif" font-size="10.00">k2</text>
<text text-anchor="middle" x="1191.5" y="-156.39" font-family="Helvetica,sans-Serif" font-size="10.00">PoissonRatio</text>
</g>
<!-- Node11 -->
<g id="node11" class="node">
<title>Node11</title>
<g id="a_node11"><a xlink:title=" ">
<polygon fill="white" stroke="#bfbfbf" points="920,-94.89 920,-135.89 1110,-135.89 1110,-94.89 920,-94.89"/>
<text text-anchor="start" x="928" y="-123.89" font-family="Helvetica,sans-Serif" font-size="10.00">shared_ptr&lt; NonlinearElastic</text>
<text text-anchor="start" x="928" y="-112.89" font-family="Helvetica,sans-Serif" font-size="10.00">Element::FunctionsToCalculatePiola</text>
<text text-anchor="middle" x="1015" y="-101.89" font-family="Helvetica,sans-Serif" font-size="10.00">KirchhoffI&lt; double &gt; &gt;</text>
</a>
</g>
</g>
<!-- Node11&#45;&gt;Node8 -->
<g id="edge10" class="edge">
<title>Node11&#45;&gt;Node8</title>
<path fill="none" stroke="#9a32cd" stroke-dasharray="5,2" d="M1120.29,-114.18C1162.22,-114.46 1210.97,-115.76 1255,-119.39 1267.98,-120.46 1281.77,-122.12 1294.99,-123.97"/>
<polygon fill="#9a32cd" stroke="#9a32cd" points="1120.09,-110.68 1110.07,-114.13 1120.05,-117.68 1120.09,-110.68"/>
<text text-anchor="middle" x="1191.5" y="-122.39" font-family="Helvetica,sans-Serif" font-size="10.00"> materialDoublePtr</text>
</g>
<!-- Node12 -->
<g id="node12" class="node">
<title>Node12</title>
<g id="a_node12"><a xlink:href="classRange.html" target="_top" xlink:title=" ">
<polygon fill="white" stroke="black" points="991.5,-52.89 991.5,-71.89 1038.5,-71.89 1038.5,-52.89 991.5,-52.89"/>
<text text-anchor="middle" x="1015" y="-59.89" font-family="Helvetica,sans-Serif" font-size="10.00">Range</text>
</a>
</g>
</g>
<!-- Node12&#45;&gt;Node8 -->
<g id="edge11" class="edge">
<title>Node12&#45;&gt;Node8</title>
<path fill="none" stroke="#9a32cd" stroke-dasharray="5,2" d="M1048.68,-54.92C1097.75,-45.64 1191.48,-35.57 1255,-76.39 1269.38,-85.64 1259.69,-99.67 1273,-110.39 1279.41,-115.56 1286.81,-119.65 1294.57,-122.9"/>
<polygon fill="#9a32cd" stroke="#9a32cd" points="1047.75,-51.54 1038.63,-56.94 1049.12,-58.41 1047.75,-51.54"/>
<text text-anchor="middle" x="1191.5" y="-101.39" font-family="Helvetica,sans-Serif" font-size="10.00"> forcesOnlyOnEntitiesRow</text>
<text text-anchor="middle" x="1191.5" y="-90.39" font-family="Helvetica,sans-Serif" font-size="10.00">tEts</text>
<text text-anchor="middle" x="1191.5" y="-79.39" font-family="Helvetica,sans-Serif" font-size="10.00">forcesOnlyOnEntitiesCol</text>
</g>
<!-- Node13 -->
<g id="node13" class="node">
<title>Node13</title>
<g id="a_node13"><a xlink:title=" ">
<polygon fill="white" stroke="#bfbfbf" points="1000.5,-14.89 1000.5,-33.89 1029.5,-33.89 1029.5,-14.89 1000.5,-14.89"/>
<text text-anchor="middle" x="1015" y="-21.89" font-family="Helvetica,sans-Serif" font-size="10.00">int</text>
</a>
</g>
</g>
<!-- Node13&#45;&gt;Node8 -->
<g id="edge12" class="edge">
<title>Node13&#45;&gt;Node8</title>
<path fill="none" stroke="#9a32cd" stroke-dasharray="5,2" d="M1039.39,-16.84C1086.23,-3.3 1192.4,19.13 1255,-32.39 1282.47,-55.01 1248.42,-84.67 1273,-110.39 1279.13,-116.81 1286.76,-121.62 1294.95,-125.22"/>
<polygon fill="#9a32cd" stroke="#9a32cd" points="1038.13,-13.56 1029.57,-19.8 1040.16,-20.26 1038.13,-13.56"/>
<text text-anchor="middle" x="1191.5" y="-35.39" font-family="Helvetica,sans-Serif" font-size="10.00"> iD</text>
</g>
<!-- Node14 -->
<g id="node14" class="node">
<title>Node14</title>
<g id="a_node14"><a xlink:title=" ">
<polygon fill="white" stroke="#bfbfbf" points="1346.5,-81.89 1346.5,-100.89 1380.5,-100.89 1380.5,-81.89 1346.5,-81.89"/>
<text text-anchor="middle" x="1363.5" y="-88.89" font-family="Helvetica,sans-Serif" font-size="10.00">Vec</text>
</a>
</g>
</g>
<!-- Node14&#45;&gt;Node1 -->
<g id="edge13" class="edge">
<title>Node14&#45;&gt;Node1</title>
<path fill="none" stroke="#9a32cd" stroke-dasharray="5,2" d="M1390.7,-95.67C1428.37,-102 1499.93,-114.71 1560,-129.39 1584.45,-135.37 1611.8,-143.54 1631.95,-149.85"/>
<polygon fill="#9a32cd" stroke="#9a32cd" points="1391.02,-92.17 1380.58,-93.98 1389.87,-99.08 1391.02,-92.17"/>
<text text-anchor="middle" x="1516" y="-132.39" font-family="Helvetica,sans-Serif" font-size="10.00"> RVE_volume_Vec</text>
</g>
</g>
</svg>
        <g id="navigator" transform="translate(0 0)" fill="#404254">
                <rect fill="#f2f5e9" fill-opacity="0.5" stroke="#606060" stroke-width=".5" x="0" y="0" width="60" height="60"/>
                <use id="zoomplus" xlink:href="#zoomPlus" x="17" y="9" onmousedown="handleZoom(evt,'in')"/>
                <use id="zoomminus" xlink:href="#zoomMin" x="42" y="9" onmousedown="handleZoom(evt,'out')"/>
                <use id="reset" xlink:href="#resetDef" x="30" y="36" onmousedown="handleReset()"/>
                <g id="arrowUp" xlink:href="#dirArrow" transform="translate(30 24)" onmousedown="handlePan(0,-1)">
                  <use xlink:href="#rim" fill="#404040">
                        <set attributeName="fill" to="#808080" begin="arrowUp.mouseover" end="arrowUp.mouseout"/>
                  </use>
                  <path fill="none" stroke="white" stroke-width="1.5" d="M0,-3.0v7 M-2.5,-0.5L0,-3.0L2.5,-0.5"/>
                </g>
                <g id="arrowRight" xlink:href="#dirArrow" transform="rotate(90) translate(36 -43)" onmousedown="handlePan(1,0)">
                  <use xlink:href="#rim" fill="#404040">
                        <set attributeName="fill" to="#808080" begin="arrowRight.mouseover" end="arrowRight.mouseout"/>
                  </use>
                  <path fill="none" stroke="white" stroke-width="1.5" d="M0,-3.0v7 M-2.5,-0.5L0,-3.0L2.5,-0.5"/>
                </g>
                <g id="arrowDown" xlink:href="#dirArrow" transform="rotate(180) translate(-30 -48)" onmousedown="handlePan(0,1)">
                  <use xlink:href="#rim" fill="#404040">
                        <set attributeName="fill" to="#808080" begin="arrowDown.mouseover" end="arrowDown.mouseout"/>
                  </use>
                  <path fill="none" stroke="white" stroke-width="1.5" d="M0,-3.0v7 M-2.5,-0.5L0,-3.0L2.5,-0.5"/>
                </g>
                <g id="arrowLeft" xlink:href="#dirArrow" transform="rotate(270) translate(-36 17)" onmousedown="handlePan(-1,0)">
                  <use xlink:href="#rim" fill="#404040">
                        <set attributeName="fill" to="#808080" begin="arrowLeft.mouseover" end="arrowLeft.mouseout"/>
                  </use>
                  <path fill="none" stroke="white" stroke-width="1.5" d="M0,-3.0v7 M-2.5,-0.5L0,-3.0L2.5,-0.5"/>
                </g>
        </g>
        <svg viewBox="0 0 15 15" width="100%" height="30px" preserveAspectRatio="xMaxYMin meet">
         <g id="arrow_out" transform="scale(0.3 0.3)">
          <a xlink:href="structBCs__RVEVolume_1_1OpVolumeCal__coll__graph_org.svg" target="_base">
           <rect id="button" ry="5" rx="5" y="6" x="6" height="38" width="38"
                fill="#f2f5e9" fill-opacity="0.5" stroke="#606060" stroke-width="1.0"/>
           <path id="arrow"
             d="M 11.500037,31.436501 C 11.940474,20.09759 22.043105,11.32322 32.158766,21.979434 L 37.068811,17.246167 C 37.068811,17.246167 37.088388,32 37.088388,32 L 22.160133,31.978069 C 22.160133,31.978069 26.997745,27.140456 26.997745,27.140456 C 18.528582,18.264221 13.291696,25.230495 11.500037,31.436501 z"
             style="fill:#404040;"/>
          </a>
         </g>
        </svg>
</svg>
