<?xml version="1.0" encoding="UTF-8" standalone="no"?>
<!DOCTYPE svg PUBLIC "-//W3C//DTD SVG 1.1//EN"
 "http://www.w3.org/Graphics/SVG/1.1/DTD/svg11.dtd">
<!-- Generated by graphviz version 2.43.0 (0)
 -->
<!-- Title: MoFEM::interface_FieldEntity&lt; T &gt; Pages: 1 -->
<svg width="336pt" height="444pt"
 viewBox="0.00 0.00 336.00 444.00" xmlns="http://www.w3.org/2000/svg" xmlns:xlink="http://www.w3.org/1999/xlink">
<g id="graph0" class="graph" transform="scale(1 1) rotate(0) translate(4 440)">
<title>MoFEM::interface_FieldEntity&lt; T &gt;</title>
<polygon fill="white" stroke="transparent" points="-4,4 -4,-440 332,-440 332,4 -4,4"/>
<!-- Node1 -->
<g id="node1" class="node">
<title>Node1</title>
<g id="a_node1"><a xlink:title="Interface to FieldEntity.">
<polygon fill="#bfbfbf" stroke="black" points="91.5,-0.5 91.5,-19.5 279.5,-19.5 279.5,-0.5 91.5,-0.5"/>
<text text-anchor="middle" x="185.5" y="-7.5" font-family="Helvetica,sans-Serif" font-size="10.00">MoFEM::interface_FieldEntity&lt; T &gt;</text>
</a>
</g>
</g>
<!-- Node2 -->
<g id="node2" class="node">
<title>Node2</title>
<g id="a_node2"><a xlink:href="structMoFEM_1_1interface__Field_3_01T_00_01T_01_4.html" target="_top" xlink:title=" ">
<polygon fill="white" stroke="black" points="120,-57.5 120,-87.5 251,-87.5 251,-57.5 120,-57.5"/>
<text text-anchor="start" x="128" y="-75.5" font-family="Helvetica,sans-Serif" font-size="10.00">MoFEM::interface_Field</text>
<text text-anchor="middle" x="185.5" y="-64.5" font-family="Helvetica,sans-Serif" font-size="10.00">&lt; T, T &gt;</text>
</a>
</g>
</g>
<!-- Node2&#45;&gt;Node1 -->
<g id="edge1" class="edge">
<title>Node2&#45;&gt;Node1</title>
<path fill="none" stroke="midnightblue" d="M185.5,-47.35C185.5,-37.51 185.5,-26.78 185.5,-19.54"/>
<polygon fill="midnightblue" stroke="midnightblue" points="182,-47.47 185.5,-57.47 189,-47.47 182,-47.47"/>
</g>
<!-- Node3 -->
<g id="node3" class="node">
<title>Node3</title>
<g id="a_node3"><a xlink:href="structMoFEM_1_1interface__FieldImpl.html" target="_top" xlink:title=" ">
<polygon fill="white" stroke="black" points="109.5,-125.5 109.5,-155.5 261.5,-155.5 261.5,-125.5 109.5,-125.5"/>
<text text-anchor="start" x="117.5" y="-143.5" font-family="Helvetica,sans-Serif" font-size="10.00">MoFEM::interface_FieldImpl</text>
<text text-anchor="middle" x="185.5" y="-132.5" font-family="Helvetica,sans-Serif" font-size="10.00">&lt; T, T &gt;</text>
</a>
</g>
</g>
<!-- Node3&#45;&gt;Node2 -->
<g id="edge2" class="edge">
<title>Node3&#45;&gt;Node2</title>
<path fill="none" stroke="midnightblue" d="M185.5,-115.03C185.5,-105.86 185.5,-95.74 185.5,-87.79"/>
<polygon fill="midnightblue" stroke="midnightblue" points="182,-115.18 185.5,-125.18 189,-115.18 182,-115.18"/>
</g>
<!-- Node4 -->
<g id="node4" class="node">
<title>Node4</title>
<g id="a_node4"><a xlink:href="structMoFEM_1_1interface__RefEntity.html" target="_top" xlink:title="interface to RefEntity">
<polygon fill="white" stroke="black" points="147,-349.5 147,-368.5 328,-368.5 328,-349.5 147,-349.5"/>
<text text-anchor="middle" x="237.5" y="-356.5" font-family="Helvetica,sans-Serif" font-size="10.00">MoFEM::interface_RefEntity&lt; T &gt;</text>
</a>
</g>
</g>
<!-- Node4&#45;&gt;Node3 -->
<g id="edge3" class="edge">
<title>Node4&#45;&gt;Node3</title>
<path fill="none" stroke="midnightblue" d="M238.48,-339.31C239.51,-304.74 238.06,-229.3 210.5,-174 207.26,-167.5 202.63,-161.02 198.24,-155.58"/>
<polygon fill="midnightblue" stroke="midnightblue" points="234.98,-339.25 238.07,-349.38 241.97,-339.53 234.98,-339.25"/>
</g>
<!-- Node7 -->
<g id="node7" class="node">
<title>Node7</title>
<g id="a_node7"><a xlink:href="structMoFEM_1_1interface__RefEntity.html" target="_top" xlink:title=" ">
<polygon fill="white" stroke="black" points="57.5,-271.5 57.5,-301.5 209.5,-301.5 209.5,-271.5 57.5,-271.5"/>
<text text-anchor="start" x="65.5" y="-289.5" font-family="Helvetica,sans-Serif" font-size="10.00">MoFEM::interface_RefEntity</text>
<text text-anchor="middle" x="133.5" y="-278.5" font-family="Helvetica,sans-Serif" font-size="10.00">&lt; REFENT &gt;</text>
</a>
</g>
</g>
<!-- Node4&#45;&gt;Node7 -->
<g id="edge8" class="edge">
<title>Node4&#45;&gt;Node7</title>
<path fill="none" stroke="orange" stroke-dasharray="5,2" d="M186.34,-346.05C176.78,-342.28 167.34,-337.37 159.5,-331 150.08,-323.34 143.26,-311.3 138.98,-301.82"/>
<polygon fill="orange" stroke="orange" points="185.29,-349.4 195.88,-349.46 187.64,-342.8 185.29,-349.4"/>
<text text-anchor="middle" x="191.5" y="-323" font-family="Helvetica,sans-Serif" font-size="10.00"> &lt; REFENT &gt;</text>
</g>
<!-- Node5 -->
<g id="node5" class="node">
<title>Node5</title>
<g id="a_node5"><a xlink:title=" ">
<polygon fill="white" stroke="#bfbfbf" points="189,-416.5 189,-435.5 286,-435.5 286,-416.5 189,-416.5"/>
<text text-anchor="middle" x="237.5" y="-423.5" font-family="Helvetica,sans-Serif" font-size="10.00">shared_ptr&lt; T &gt;</text>
</a>
</g>
</g>
<!-- Node5&#45;&gt;Node4 -->
<g id="edge4" class="edge">
<title>Node5&#45;&gt;Node4</title>
<path fill="none" stroke="#9a32cd" stroke-dasharray="5,2" d="M237.5,-406.04C237.5,-393.67 237.5,-378.12 237.5,-368.63"/>
<polygon fill="#9a32cd" stroke="#9a32cd" points="234,-406.23 237.5,-416.23 241,-406.23 234,-406.23"/>
<text text-anchor="middle" x="248.5" y="-390" font-family="Helvetica,sans-Serif" font-size="10.00"> sPtr</text>
</g>
<!-- Node6 -->
<g id="node6" class="node">
<title>Node6</title>
<g id="a_node6"><a xlink:href="structMoFEM_1_1interface__FieldImpl.html" target="_top" xlink:title="Pointer interface for MoFEM::Field.">
<polygon fill="white" stroke="black" points="57.5,-203.5 57.5,-233.5 209.5,-233.5 209.5,-203.5 57.5,-203.5"/>
<text text-anchor="start" x="65.5" y="-221.5" font-family="Helvetica,sans-Serif" font-size="10.00">MoFEM::interface_FieldImpl</text>
<text text-anchor="middle" x="133.5" y="-210.5" font-family="Helvetica,sans-Serif" font-size="10.00">&lt; FIELD, REFENT &gt;</text>
</a>
</g>
</g>
<!-- Node6&#45;&gt;Node3 -->
<g id="edge5" class="edge">
<title>Node6&#45;&gt;Node3</title>
<path fill="none" stroke="orange" stroke-dasharray="5,2" d="M148.94,-194.94C157.63,-182.23 168.22,-166.75 175.76,-155.73"/>
<polygon fill="orange" stroke="orange" points="146.04,-192.98 143.28,-203.2 151.82,-196.93 146.04,-192.98"/>
<text text-anchor="middle" x="184.5" y="-177" font-family="Helvetica,sans-Serif" font-size="10.00"> &lt; T, T &gt;</text>
</g>
<!-- Node7&#45;&gt;Node6 -->
<g id="edge6" class="edge">
<title>Node7&#45;&gt;Node6</title>
<path fill="none" stroke="midnightblue" d="M133.5,-261.03C133.5,-251.86 133.5,-241.74 133.5,-233.79"/>
<polygon fill="midnightblue" stroke="midnightblue" points="130,-261.18 133.5,-271.18 137,-261.18 130,-261.18"/>
</g>
<!-- Node8 -->
<g id="node8" class="node">
<title>Node8</title>
<g id="a_node8"><a xlink:href="classboost_1_1shared__ptr_3_01REFENT_01_4.html" target="_top" xlink:title=" ">
<polygon fill="white" stroke="black" points="0,-349.5 0,-368.5 129,-368.5 129,-349.5 0,-349.5"/>
<text text-anchor="middle" x="64.5" y="-356.5" font-family="Helvetica,sans-Serif" font-size="10.00">shared_ptr&lt; REFENT &gt;</text>
</a>
</g>
</g>
<!-- Node8&#45;&gt;Node7 -->
<g id="edge7" class="edge">
<title>Node8&#45;&gt;Node7</title>
<path fill="none" stroke="#9a32cd" stroke-dasharray="5,2" d="M80.07,-342.09C91.99,-329.91 108.27,-313.27 119.72,-301.58"/>
<polygon fill="#9a32cd" stroke="#9a32cd" points="77.45,-339.76 72.96,-349.36 82.46,-344.66 77.45,-339.76"/>
<text text-anchor="middle" x="111.5" y="-323" font-family="Helvetica,sans-Serif" font-size="10.00"> sPtr</text>
</g>
</g>
</svg>
