<?xml version="1.0" encoding="UTF-8" standalone="no"?>
<!DOCTYPE svg PUBLIC "-//W3C//DTD SVG 1.1//EN"
 "http://www.w3.org/Graphics/SVG/1.1/DTD/svg11.dtd">
<!-- Generated by graphviz version 9.0.0 (20230911.1827)
 -->
<!-- Title: MoFEM::ParentFiniteElementAdjacencyFunction&lt; DIM &gt; Pages: 1 -->
<svg width="260pt" height="150pt"
 viewBox="0.00 0.00 259.50 150.00" xmlns="http://www.w3.org/2000/svg" xmlns:xlink="http://www.w3.org/1999/xlink">
<g id="graph0" class="graph" transform="scale(1 1) rotate(0) translate(4 146)">
<title>MoFEM::ParentFiniteElementAdjacencyFunction&lt; DIM &gt;</title>
<!-- Node1 -->
<g id="node1" class="node">
<title>Node1</title>
<g id="a_node1"><a xlink:title="Create adjacency to parent elements.">
<polygon fill="#999999" stroke="#666666" points="197.38,-30.5 52.38,-30.5 52.38,0 197.38,0 197.38,-30.5"/>
<text text-anchor="start" x="60.38" y="-17" font-family="Helvetica,sans-Serif" font-size="10.00">MoFEM::ParentFiniteElement</text>
<text text-anchor="middle" x="124.88" y="-5.75" font-family="Helvetica,sans-Serif" font-size="10.00">AdjacencyFunction&lt; DIM &gt;</text>
</a>
</g>
</g>
<!-- Node2 -->
<g id="node2" class="node">
<title>Node2</title>
<g id="a_node2"><a xlink:title=" ">
<polygon fill="white" stroke="#666666" points="115.75,-142 0,-142 0,-111.5 115.75,-111.5 115.75,-142"/>
<text text-anchor="start" x="8" y="-128.5" font-family="Helvetica,sans-Serif" font-size="10.00">bitset&lt; BITREFLEVEL</text>
<text text-anchor="middle" x="57.88" y="-117.25" font-family="Helvetica,sans-Serif" font-size="10.00">_SIZE &gt;</text>
</a>
</g>
</g>
<!-- Node2&#45;&gt;Node1 -->
<g id="edge1" class="edge">
<title>Node2&#45;&gt;Node1</title>
<path fill="none" stroke="#9a32cd" stroke-dasharray="5,2" d="M72.6,-101.68C85.83,-80.06 104.82,-49.02 115.9,-30.92"/>
<polygon fill="#9a32cd" stroke="#9a32cd" points="69.66,-99.79 67.42,-110.14 75.63,-103.44 69.66,-99.79"/>
<text text-anchor="middle" x="137.38" y="-84" font-family="Helvetica,sans-Serif" font-size="10.00"> bitEnt</text>
<text text-anchor="middle" x="137.38" y="-72.75" font-family="Helvetica,sans-Serif" font-size="10.00">bitEntMask</text>
<text text-anchor="middle" x="137.38" y="-61.5" font-family="Helvetica,sans-Serif" font-size="10.00">bitParent</text>
<text text-anchor="middle" x="137.38" y="-50.25" font-family="Helvetica,sans-Serif" font-size="10.00">bitParentMask</text>
</g>
<!-- Node3 -->
<g id="node3" class="node">
<title>Node3</title>
<g id="a_node3"><a xlink:title=" ">
<polygon fill="white" stroke="#666666" points="251.5,-136.38 134.25,-136.38 134.25,-117.12 251.5,-117.12 251.5,-136.38"/>
<text text-anchor="middle" x="192.88" y="-122.88" font-family="Helvetica,sans-Serif" font-size="10.00">vector&lt; EntityHandle &gt;</text>
</a>
</g>
</g>
<!-- Node3&#45;&gt;Node1 -->
<g id="edge2" class="edge">
<title>Node3&#45;&gt;Node1</title>
<path fill="none" stroke="#9a32cd" stroke-dasharray="5,2" d="M190.91,-105.69C188.46,-89.08 182.99,-65.52 170.88,-48.5 166.01,-41.67 159.23,-35.78 152.36,-30.99"/>
<polygon fill="#9a32cd" stroke="#9a32cd" points="187.4,-105.81 192.08,-115.31 194.35,-104.96 187.4,-105.81"/>
<text text-anchor="middle" x="205.5" y="-67.12" font-family="Helvetica,sans-Serif" font-size="10.00"> adjTmp</text>
</g>
</g>
</svg>
