<?xml version="1.0" encoding="UTF-8" standalone="no"?>
<!DOCTYPE svg PUBLIC "-//W3C//DTD SVG 1.1//EN"
 "http://www.w3.org/Graphics/SVG/1.1/DTD/svg11.dtd">
<!-- Generated by graphviz version 9.0.0 (20230911.1827)
 -->
<!-- Title: SimpleContactProblem::OpGetGaussPtsState Pages: 1 -->
<svg width="480pt" height="187pt"
 viewBox="0.00 0.00 479.50 187.25" xmlns="http://www.w3.org/2000/svg" xmlns:xlink="http://www.w3.org/1999/xlink">
<g id="graph0" class="graph" transform="scale(1 1) rotate(0) translate(4 183.25)">
<title>SimpleContactProblem::OpGetGaussPtsState</title>
<!-- Node1 -->
<g id="node1" class="node">
<title>Node1</title>
<g id="a_node1"><a xlink:title=" ">
<polygon fill="#999999" stroke="#666666" points="471.5,-98.88 354.25,-98.88 354.25,-68.38 471.5,-68.38 471.5,-98.88"/>
<text text-anchor="start" x="362.25" y="-85.38" font-family="Helvetica,sans-Serif" font-size="10.00">SimpleContactProblem</text>
<text text-anchor="middle" x="412.88" y="-74.12" font-family="Helvetica,sans-Serif" font-size="10.00">::OpGetGaussPtsState</text>
</a>
</g>
</g>
<!-- Node2 -->
<g id="node2" class="node">
<title>Node2</title>
<g id="a_node2"><a xlink:href="class_contact_op.html" target="_top" xlink:title=" ">
<polygon fill="white" stroke="#666666" points="127.75,-179.25 64.5,-179.25 64.5,-160 127.75,-160 127.75,-179.25"/>
<text text-anchor="middle" x="96.12" y="-165.75" font-family="Helvetica,sans-Serif" font-size="10.00">ContactOp</text>
</a>
</g>
</g>
<!-- Node2&#45;&gt;Node1 -->
<g id="edge1" class="edge">
<title>Node2&#45;&gt;Node1</title>
<path fill="none" stroke="#63b8ff" d="M139.26,-167.41C188.02,-163.76 270.1,-154.23 336.25,-129.62 356.13,-122.23 376.55,-109.44 391.15,-99.22"/>
<polygon fill="#63b8ff" stroke="#63b8ff" points="139.14,-163.91 129.41,-168.1 139.63,-170.9 139.14,-163.91"/>
</g>
<!-- Node3 -->
<g id="node3" class="node">
<title>Node3</title>
<g id="a_node3"><a xlink:title=" ">
<polygon fill="white" stroke="#666666" points="192.25,-141.88 0,-141.88 0,-111.38 192.25,-111.38 192.25,-141.88"/>
<text text-anchor="start" x="8" y="-128.38" font-family="Helvetica,sans-Serif" font-size="10.00">shared_ptr&lt; SimpleContact</text>
<text text-anchor="middle" x="96.12" y="-117.12" font-family="Helvetica,sans-Serif" font-size="10.00">Problem::CommonDataSimpleContact &gt;</text>
</a>
</g>
</g>
<!-- Node3&#45;&gt;Node1 -->
<g id="edge2" class="edge">
<title>Node3&#45;&gt;Node1</title>
<path fill="none" stroke="#9a32cd" stroke-dasharray="5,2" d="M203.73,-115.97C245.19,-111.35 293.04,-105.43 336.25,-98.62 342.07,-97.71 348.12,-96.66 354.15,-95.56"/>
<polygon fill="#9a32cd" stroke="#9a32cd" points="203.55,-112.47 193.99,-117.04 204.32,-119.43 203.55,-112.47"/>
<text text-anchor="middle" x="273.25" y="-116.38" font-family="Helvetica,sans-Serif" font-size="10.00"> commonDataSimpleContact</text>
</g>
<!-- Node4 -->
<g id="node4" class="node">
<title>Node4</title>
<g id="a_node4"><a xlink:href="classdouble.html" target="_top" xlink:title=" ">
<polygon fill="white" stroke="#666666" points="118.38,-93.25 73.88,-93.25 73.88,-74 118.38,-74 118.38,-93.25"/>
<text text-anchor="middle" x="96.12" y="-79.75" font-family="Helvetica,sans-Serif" font-size="10.00">double</text>
</a>
</g>
</g>
<!-- Node4&#45;&gt;Node1 -->
<g id="edge3" class="edge">
<title>Node4&#45;&gt;Node1</title>
<path fill="none" stroke="#9a32cd" stroke-dasharray="5,2" d="M130.18,-83.62C183.27,-83.62 288.23,-83.62 353.96,-83.62"/>
<polygon fill="#9a32cd" stroke="#9a32cd" points="130.27,-80.13 120.27,-83.63 130.27,-87.13 130.27,-80.13"/>
<text text-anchor="middle" x="273.25" y="-85.38" font-family="Helvetica,sans-Serif" font-size="10.00"> cN</text>
</g>
<!-- Node5 -->
<g id="node5" class="node">
<title>Node5</title>
<g id="a_node5"><a xlink:href="classbool.html" target="_top" xlink:title=" ">
<polygon fill="white" stroke="#666666" points="113.12,-56.25 79.12,-56.25 79.12,-37 113.12,-37 113.12,-56.25"/>
<text text-anchor="middle" x="96.12" y="-42.75" font-family="Helvetica,sans-Serif" font-size="10.00">bool</text>
</a>
</g>
</g>
<!-- Node5&#45;&gt;Node1 -->
<g id="edge4" class="edge">
<title>Node5&#45;&gt;Node1</title>
<path fill="none" stroke="#9a32cd" stroke-dasharray="5,2" d="M124.75,-48.16C169.4,-50.87 260.09,-57.27 336.25,-68.38 341.95,-69.21 347.87,-70.19 353.77,-71.25"/>
<polygon fill="#9a32cd" stroke="#9a32cd" points="125.13,-44.68 114.94,-47.59 124.72,-51.67 125.13,-44.68"/>
<text text-anchor="middle" x="273.25" y="-69.38" font-family="Helvetica,sans-Serif" font-size="10.00"> almFlag</text>
</g>
<!-- Node6 -->
<g id="node6" class="node">
<title>Node6</title>
<g id="a_node6"><a xlink:title=" ">
<polygon fill="white" stroke="#666666" points="133.75,-19.25 58.5,-19.25 58.5,0 133.75,0 133.75,-19.25"/>
<text text-anchor="middle" x="96.12" y="-5.75" font-family="Helvetica,sans-Serif" font-size="10.00">VectorDouble</text>
</a>
</g>
</g>
<!-- Node6&#45;&gt;Node1 -->
<g id="edge5" class="edge">
<title>Node6&#45;&gt;Node1</title>
<path fill="none" stroke="#9a32cd" stroke-dasharray="5,2" d="M145.5,-9.58C194.76,-10.87 272.7,-16.65 336.25,-38.38 356.23,-45.21 376.64,-57.82 391.22,-68"/>
<polygon fill="#9a32cd" stroke="#9a32cd" points="145.82,-6.08 135.75,-9.38 145.67,-13.08 145.82,-6.08"/>
<text text-anchor="middle" x="273.25" y="-40.38" font-family="Helvetica,sans-Serif" font-size="10.00"> vecR</text>
</g>
</g>
</svg>
