<?xml version="1.0" encoding="UTF-8" standalone="no"?>
<!DOCTYPE svg PUBLIC "-//W3C//DTD SVG 1.1//EN"
 "http://www.w3.org/Graphics/SVG/1.1/DTD/svg11.dtd">
<!-- Generated by graphviz version 2.43.0 (0)
 -->
<!-- Title: PeriodicNitscheConstrains::PeriodicFace Pages: 1 -->
<!--zoomable 607 -->
<svg id="main" version="1.1" xmlns="http://www.w3.org/2000/svg" xmlns:xlink="http://www.w3.org/1999/xlink" xml:space="preserve" onload="init(evt)">
<style type="text/css"><![CDATA[
.edge:hover path { stroke: red; }
.edge:hover polygon { stroke: red; fill: red; }
]]></style>
<script type="text/javascript"><![CDATA[
var edges = document.getElementsByTagName('g');
if (edges && edges.length) {
  for (var i=0;i<edges.length;i++) {
    if (edges[i].id.substr(0,4)=='edge') {
      edges[i].setAttribute('class','edge');
    }
  }
}
]]></script>
        <defs>
                <circle id="rim" cx="0" cy="0" r="7"/>
                <circle id="rim2" cx="0" cy="0" r="3.5"/>
                <g id="zoomPlus">
                        <use xlink:href="#rim" fill="#404040">
                                <set attributeName="fill" to="#808080" begin="zoomplus.mouseover" end="zoomplus.mouseout"/>
                        </use>
                        <path d="M-4,0h8M0,-4v8" fill="none" stroke="white" stroke-width="1.5" pointer-events="none"/>
                </g>
                <g id="zoomMin">
                        <use xlink:href="#rim" fill="#404040">
                                <set attributeName="fill" to="#808080" begin="zoomminus.mouseover" end="zoomminus.mouseout"/>
                        </use>
                        <path d="M-4,0h8" fill="none" stroke="white" stroke-width="1.5" pointer-events="none"/>
                </g>
                <g id="dirArrow">
                        <path fill="none" stroke="white" stroke-width="1.5" d="M0,-3.0v7 M-2.5,-0.5L0,-3.0L2.5,-0.5"/>
                </g>
               <g id="resetDef">
                       <use xlink:href="#rim2" fill="#404040">
                               <set attributeName="fill" to="#808080" begin="reset.mouseover" end="reset.mouseout"/>
                       </use>
               </g>
        </defs>

<script type="text/javascript">
var viewWidth = 1346;
var viewHeight = 607;
var sectionId = 'dynsection-1';
</script>
<script xlink:href="svgpan.js"/>
<svg id="graph" class="graph">
<g id="viewport">
<title>PeriodicNitscheConstrains::PeriodicFace</title>
<polygon fill="white" stroke="transparent" points="-4,4 -4,-603.25 1342,-603.25 1342,4 -4,4"/>
<!-- Node1 -->
<g id="node1" class="node">
<title>Node1</title>
<g id="a_node1"><a xlink:title=" ">
<polygon fill="#bfbfbf" stroke="black" points="1194,-220.25 1194,-250.25 1338,-250.25 1338,-220.25 1194,-220.25"/>
<text text-anchor="start" x="1202" y="-238.25" font-family="Helvetica,sans-Serif" font-size="10.00">PeriodicNitscheConstrains</text>
<text text-anchor="middle" x="1266" y="-227.25" font-family="Helvetica,sans-Serif" font-size="10.00">::PeriodicFace</text>
</a>
</g>
</g>
<!-- Node2 -->
<g id="node2" class="node">
<title>Node2</title>
<g id="a_node2"><a xlink:href="classFaceElementForcesAndSourcesCore.html" target="_top" xlink:title=" ">
<polygon fill="white" stroke="black" points="898,-247.75 898,-266.75 1088,-266.75 1088,-247.75 898,-247.75"/>
<text text-anchor="middle" x="993" y="-254.75" font-family="Helvetica,sans-Serif" font-size="10.00">FaceElementForcesAndSourcesCore</text>
</a>
</g>
</g>
<!-- Node2&#45;&gt;Node1 -->
<g id="edge1" class="edge">
<title>Node2&#45;&gt;Node1</title>
<path fill="none" stroke="midnightblue" d="M1098.29,-248.78C1130.23,-246.19 1164.6,-243.4 1193.8,-241.03"/>
<polygon fill="midnightblue" stroke="midnightblue" points="1097.71,-245.32 1088.02,-249.62 1098.27,-252.3 1097.71,-245.32"/>
</g>
<!-- Node3 -->
<g id="node3" class="node">
<title>Node3</title>
<g id="a_node3"><a xlink:href="structPeriodicNitscheConstrains_1_1CommonData.html" target="_top" xlink:title=" ">
<polygon fill="white" stroke="black" points="921,-198.25 921,-228.25 1065,-228.25 1065,-198.25 921,-198.25"/>
<text text-anchor="start" x="929" y="-216.25" font-family="Helvetica,sans-Serif" font-size="10.00">PeriodicNitscheConstrains</text>
<text text-anchor="middle" x="993" y="-205.25" font-family="Helvetica,sans-Serif" font-size="10.00">::CommonData</text>
</a>
</g>
</g>
<!-- Node3&#45;&gt;Node1 -->
<g id="edge2" class="edge">
<title>Node3&#45;&gt;Node1</title>
<path fill="none" stroke="#9a32cd" stroke-dasharray="5,2" d="M1075.36,-219.28C1106.81,-221.67 1143.09,-224.5 1176,-227.25 1181.72,-227.73 1187.65,-228.23 1193.6,-228.75"/>
<polygon fill="#9a32cd" stroke="#9a32cd" points="1075.56,-215.79 1065.33,-218.52 1075.03,-222.77 1075.56,-215.79"/>
<text text-anchor="middle" x="1141" y="-230.25" font-family="Helvetica,sans-Serif" font-size="10.00"> commonData</text>
</g>
<!-- Node4 -->
<g id="node4" class="node">
<title>Node4</title>
<g id="a_node4"><a xlink:title=" ">
<polygon fill="white" stroke="#bfbfbf" points="437,-358.75 437,-531.75 729,-531.75 729,-358.75 437,-358.75"/>
<text text-anchor="start" x="445" y="-519.75" font-family="Helvetica,sans-Serif" font-size="10.00">multi_index_container</text>
<text text-anchor="start" x="445" y="-508.75" font-family="Helvetica,sans-Serif" font-size="10.00">&lt; MultiIndexData, indexed</text>
<text text-anchor="start" x="445" y="-497.75" font-family="Helvetica,sans-Serif" font-size="10.00">_by&lt; ordered_non_unique</text>
<text text-anchor="start" x="445" y="-486.75" font-family="Helvetica,sans-Serif" font-size="10.00">&lt; BOOST_MULTI_INDEX_MEMBER</text>
<text text-anchor="start" x="445" y="-475.75" font-family="Helvetica,sans-Serif" font-size="10.00">(MultiIndexData, int, MultiIndexData</text>
<text text-anchor="start" x="445" y="-464.75" font-family="Helvetica,sans-Serif" font-size="10.00">::gG) &gt;, ordered_non_unique&lt; BOOST</text>
<text text-anchor="start" x="445" y="-453.75" font-family="Helvetica,sans-Serif" font-size="10.00">_MULTI_INDEX_MEMBER(MultiIndexData,</text>
<text text-anchor="start" x="445" y="-442.75" font-family="Helvetica,sans-Serif" font-size="10.00"> int, MultiIndexData::sIde) &gt;, ordered</text>
<text text-anchor="start" x="445" y="-431.75" font-family="Helvetica,sans-Serif" font-size="10.00">_non_unique&lt; BOOST_MULTI_INDEX_MEMBER</text>
<text text-anchor="start" x="445" y="-420.75" font-family="Helvetica,sans-Serif" font-size="10.00">(MultiIndexData, EntityType, MultiIndexData</text>
<text text-anchor="start" x="445" y="-409.75" font-family="Helvetica,sans-Serif" font-size="10.00">::tYpe) &gt;, ordered_unique&lt; composite_key&lt;</text>
<text text-anchor="start" x="445" y="-398.75" font-family="Helvetica,sans-Serif" font-size="10.00"> MultiIndexData, member&lt; MultiIndexData, int,</text>
<text text-anchor="start" x="445" y="-387.75" font-family="Helvetica,sans-Serif" font-size="10.00">&amp;MultiIndexData::gG &gt;, member&lt; MultiIndexData,</text>
<text text-anchor="start" x="445" y="-376.75" font-family="Helvetica,sans-Serif" font-size="10.00"> int,&amp;MultiIndexData::sIde &gt;, member&lt; MultiIndexData,</text>
<text text-anchor="middle" x="583" y="-365.75" font-family="Helvetica,sans-Serif" font-size="10.00"> EntityType,&amp;MultiIndexData::tYpe &gt; &gt; &gt; &gt; &gt;</text>
</a>
</g>
</g>
<!-- Node4&#45;&gt;Node3 -->
<g id="edge3" class="edge">
<title>Node4&#45;&gt;Node3</title>
<path fill="none" stroke="#9a32cd" stroke-dasharray="5,2" d="M738.75,-413.84C790.54,-396.01 844.15,-368.26 880,-325.25 905.28,-294.92 870.87,-266.94 898,-238.25 904.38,-231.5 912.36,-226.5 920.95,-222.8"/>
<polygon fill="#9a32cd" stroke="#9a32cd" points="737.48,-410.57 729.11,-417.06 739.7,-417.22 737.48,-410.57"/>
<text text-anchor="middle" x="813.5" y="-422.25" font-family="Helvetica,sans-Serif" font-size="10.00"> volumesContainer</text>
<text text-anchor="middle" x="813.5" y="-411.25" font-family="Helvetica,sans-Serif" font-size="10.00">facesContainer</text>
</g>
<!-- Node5 -->
<g id="node5" class="node">
<title>Node5</title>
<g id="a_node5"><a xlink:title=" ">
<polygon fill="white" stroke="#bfbfbf" points="0,-435.75 0,-454.75 125,-454.75 125,-435.75 0,-435.75"/>
<text text-anchor="middle" x="62.5" y="-442.75" font-family="Helvetica,sans-Serif" font-size="10.00">multi_index_container</text>
</a>
</g>
</g>
<!-- Node5&#45;&gt;Node4 -->
<g id="edge4" class="edge">
<title>Node5&#45;&gt;Node4</title>
<path fill="none" stroke="orange" stroke-dasharray="5,2" d="M135.17,-445.25C212.75,-445.25 338.59,-445.25 436.98,-445.25"/>
<polygon fill="orange" stroke="orange" points="135.01,-441.75 125.01,-445.25 135.01,-448.75 135.01,-441.75"/>
<text text-anchor="start" x="143" y="-591.25" font-family="Helvetica,sans-Serif" font-size="10.00"> &lt; MultiIndexData, indexed</text>
<text text-anchor="start" x="143" y="-580.25" font-family="Helvetica,sans-Serif" font-size="10.00">_by&lt; ordered_non_unique</text>
<text text-anchor="start" x="143" y="-569.25" font-family="Helvetica,sans-Serif" font-size="10.00">&lt; BOOST_MULTI_INDEX_MEMBER</text>
<text text-anchor="start" x="143" y="-558.25" font-family="Helvetica,sans-Serif" font-size="10.00">(MultiIndexData, int, MultiIndexData</text>
<text text-anchor="start" x="143" y="-547.25" font-family="Helvetica,sans-Serif" font-size="10.00">::gG) &gt;, ordered_non_unique&lt; BOOST</text>
<text text-anchor="start" x="143" y="-536.25" font-family="Helvetica,sans-Serif" font-size="10.00">_MULTI_INDEX_MEMBER(MultiIndexData,</text>
<text text-anchor="start" x="143" y="-525.25" font-family="Helvetica,sans-Serif" font-size="10.00"> int, MultiIndexData::sIde) &gt;, ordered</text>
<text text-anchor="start" x="143" y="-514.25" font-family="Helvetica,sans-Serif" font-size="10.00">_non_unique&lt; BOOST_MULTI_INDEX_MEMBER</text>
<text text-anchor="start" x="143" y="-503.25" font-family="Helvetica,sans-Serif" font-size="10.00">(MultiIndexData, EntityType, MultiIndexData</text>
<text text-anchor="start" x="143" y="-492.25" font-family="Helvetica,sans-Serif" font-size="10.00">::tYpe) &gt;, ordered_unique&lt; composite_key&lt;</text>
<text text-anchor="start" x="143" y="-481.25" font-family="Helvetica,sans-Serif" font-size="10.00"> MultiIndexData, member&lt; MultiIndexData, int,</text>
<text text-anchor="start" x="143" y="-470.25" font-family="Helvetica,sans-Serif" font-size="10.00">&amp;MultiIndexData::gG &gt;, member&lt; MultiIndexData,</text>
<text text-anchor="start" x="143" y="-459.25" font-family="Helvetica,sans-Serif" font-size="10.00"> int,&amp;MultiIndexData::sIde &gt;, member&lt; MultiIndexData,</text>
<text text-anchor="middle" x="281" y="-448.25" font-family="Helvetica,sans-Serif" font-size="10.00"> EntityType,&amp;MultiIndexData::tYpe &gt; &gt; &gt; &gt; &gt;</text>
</g>
<!-- Node6 -->
<g id="node6" class="node">
<title>Node6</title>
<g id="a_node6"><a xlink:href="classdouble.html" target="_top" xlink:title=" ">
<polygon fill="white" stroke="black" points="558,-320.75 558,-339.75 608,-339.75 608,-320.75 558,-320.75"/>
<text text-anchor="middle" x="583" y="-327.75" font-family="Helvetica,sans-Serif" font-size="10.00">double</text>
</a>
</g>
</g>
<!-- Node6&#45;&gt;Node3 -->
<g id="edge5" class="edge">
<title>Node6&#45;&gt;Node3</title>
<path fill="none" stroke="#9a32cd" stroke-dasharray="5,2" d="M618.32,-326.15C647.74,-322.54 691.22,-316.97 729,-311.25 796.33,-301.05 827.38,-328.48 880,-285.25 897.28,-271.05 881.37,-253.21 898,-238.25 904.65,-232.26 912.58,-227.69 920.97,-224.19"/>
<polygon fill="#9a32cd" stroke="#9a32cd" points="617.66,-322.7 608.16,-327.38 618.51,-329.65 617.66,-322.7"/>
<text text-anchor="middle" x="813.5" y="-313.25" font-family="Helvetica,sans-Serif" font-size="10.00"> eps</text>
</g>
<!-- Node7 -->
<g id="node7" class="node">
<title>Node7</title>
<g id="a_node7"><a xlink:title=" ">
<polygon fill="white" stroke="#bfbfbf" points="561,-282.75 561,-301.75 605,-301.75 605,-282.75 561,-282.75"/>
<text text-anchor="middle" x="583" y="-289.75" font-family="Helvetica,sans-Serif" font-size="10.00">string</text>
</a>
</g>
</g>
<!-- Node7&#45;&gt;Node3 -->
<g id="edge6" class="edge">
<title>Node7&#45;&gt;Node3</title>
<path fill="none" stroke="#9a32cd" stroke-dasharray="5,2" d="M615.22,-288.35C644.6,-284.63 689.82,-278.8 729,-273.25 796.21,-263.73 816.7,-274.77 880,-250.25 888.97,-246.78 889.24,-242.2 898,-238.25 906.39,-234.46 915.47,-231.16 924.56,-228.3"/>
<polygon fill="#9a32cd" stroke="#9a32cd" points="614.63,-284.9 605.15,-289.62 615.51,-291.84 614.63,-284.9"/>
<text text-anchor="middle" x="813.5" y="-273.25" font-family="Helvetica,sans-Serif" font-size="10.00"> volumeElemName</text>
</g>
<!-- Node8 -->
<g id="node8" class="node">
<title>Node8</title>
<g id="a_node8"><a xlink:title=" ">
<polygon fill="white" stroke="#bfbfbf" points="508.5,-233.25 508.5,-263.25 657.5,-263.25 657.5,-233.25 508.5,-233.25"/>
<text text-anchor="start" x="516.5" y="-251.25" font-family="Helvetica,sans-Serif" font-size="10.00">map&lt; EntityHandle,</text>
<text text-anchor="middle" x="583" y="-240.25" font-family="Helvetica,sans-Serif" font-size="10.00"> vector&lt; VectorDouble &gt; &gt;</text>
</a>
</g>
</g>
<!-- Node8&#45;&gt;Node3 -->
<g id="edge7" class="edge">
<title>Node8&#45;&gt;Node3</title>
<path fill="none" stroke="#9a32cd" stroke-dasharray="5,2" d="M667.71,-242.4C727.02,-238.09 808.44,-231.86 880,-225.25 893.24,-224.03 907.35,-222.61 920.93,-221.18"/>
<polygon fill="#9a32cd" stroke="#9a32cd" points="667.37,-238.91 657.64,-243.13 667.87,-245.9 667.37,-238.91"/>
<text text-anchor="middle" x="813.5" y="-238.25" font-family="Helvetica,sans-Serif" font-size="10.00"> localCoordsMap</text>
</g>
<!-- Node9 -->
<g id="node9" class="node">
<title>Node9</title>
<g id="a_node9"><a xlink:href="classRange.html" target="_top" xlink:title=" ">
<polygon fill="white" stroke="black" points="559.5,-194.75 559.5,-213.75 606.5,-213.75 606.5,-194.75 559.5,-194.75"/>
<text text-anchor="middle" x="583" y="-201.75" font-family="Helvetica,sans-Serif" font-size="10.00">Range</text>
</a>
</g>
</g>
<!-- Node9&#45;&gt;Node3 -->
<g id="edge8" class="edge">
<title>Node9&#45;&gt;Node3</title>
<path fill="none" stroke="#9a32cd" stroke-dasharray="5,2" d="M616.67,-204.97C682.27,-206.42 831.35,-209.71 920.62,-211.67"/>
<polygon fill="#9a32cd" stroke="#9a32cd" points="616.59,-201.47 606.52,-204.75 616.44,-208.47 616.59,-201.47"/>
<text text-anchor="middle" x="813.5" y="-213.25" font-family="Helvetica,sans-Serif" font-size="10.00"> skinFaces</text>
</g>
<!-- Node10 -->
<g id="node10" class="node">
<title>Node10</title>
<g id="a_node10"><a xlink:title=" ">
<polygon fill="white" stroke="#bfbfbf" points="515,-156.75 515,-175.75 651,-175.75 651,-156.75 515,-156.75"/>
<text text-anchor="middle" x="583" y="-163.75" font-family="Helvetica,sans-Serif" font-size="10.00">vector&lt; MatrixDouble &gt;</text>
</a>
</g>
</g>
<!-- Node10&#45;&gt;Node3 -->
<g id="edge9" class="edge">
<title>Node10&#45;&gt;Node3</title>
<path fill="none" stroke="#9a32cd" stroke-dasharray="5,2" d="M661.34,-165.38C721.36,-165.85 806.46,-169.04 880,-181.25 902.84,-185.04 927.66,-191.84 948.11,-198.2"/>
<polygon fill="#9a32cd" stroke="#9a32cd" points="661.2,-161.87 651.18,-165.32 661.16,-168.87 661.2,-161.87"/>
<text text-anchor="middle" x="813.5" y="-195.25" font-family="Helvetica,sans-Serif" font-size="10.00"> sTress</text>
<text text-anchor="middle" x="813.5" y="-184.25" font-family="Helvetica,sans-Serif" font-size="10.00">stressJacobian</text>
</g>
<!-- Node11 -->
<g id="node11" class="node">
<title>Node11</title>
<g id="a_node11"><a xlink:title=" ">
<polygon fill="white" stroke="#bfbfbf" points="515.5,-102.75 515.5,-121.75 650.5,-121.75 650.5,-102.75 515.5,-102.75"/>
<text text-anchor="middle" x="583" y="-109.75" font-family="Helvetica,sans-Serif" font-size="10.00">vector&lt; VectorDouble &gt;</text>
</a>
</g>
</g>
<!-- Node11&#45;&gt;Node3 -->
<g id="edge10" class="edge">
<title>Node11&#45;&gt;Node3</title>
<path fill="none" stroke="#9a32cd" stroke-dasharray="5,2" d="M660.91,-105.16C722.13,-102.27 809,-104.39 880,-130.25 919.8,-144.74 957.52,-178.21 977.41,-197.93"/>
<polygon fill="#9a32cd" stroke="#9a32cd" points="660.36,-101.69 650.56,-105.71 660.73,-108.68 660.36,-101.69"/>
<text text-anchor="middle" x="813.5" y="-155.25" font-family="Helvetica,sans-Serif" font-size="10.00"> dIsplacements</text>
<text text-anchor="middle" x="813.5" y="-144.25" font-family="Helvetica,sans-Serif" font-size="10.00">coordsAtGaussPts</text>
<text text-anchor="middle" x="813.5" y="-133.25" font-family="Helvetica,sans-Serif" font-size="10.00">hoCoordsAtGaussPts</text>
</g>
<!-- Node12 -->
<g id="node12" class="node">
<title>Node12</title>
<g id="a_node12"><a xlink:title=" ">
<polygon fill="white" stroke="#bfbfbf" points="525,-52.25 525,-82.25 641,-82.25 641,-52.25 525,-52.25"/>
<text text-anchor="start" x="533" y="-70.25" font-family="Helvetica,sans-Serif" font-size="10.00">map&lt; EntityHandle,</text>
<text text-anchor="middle" x="583" y="-59.25" font-family="Helvetica,sans-Serif" font-size="10.00"> vector&lt; int &gt; &gt;</text>
</a>
</g>
</g>
<!-- Node12&#45;&gt;Node3 -->
<g id="edge11" class="edge">
<title>Node12&#45;&gt;Node3</title>
<path fill="none" stroke="#9a32cd" stroke-dasharray="5,2" d="M651.19,-55.1C713.78,-47.11 807.99,-43.79 880,-79.25 932.77,-105.23 969.88,-168.79 984.76,-198.05"/>
<polygon fill="#9a32cd" stroke="#9a32cd" points="650.48,-51.66 641.04,-56.47 651.42,-58.6 650.48,-51.66"/>
<text text-anchor="middle" x="813.5" y="-93.25" font-family="Helvetica,sans-Serif" font-size="10.00"> inTetFaceGaussPtsNumber</text>
<text text-anchor="middle" x="813.5" y="-82.25" font-family="Helvetica,sans-Serif" font-size="10.00">inTetTetGaussPtsNumber</text>
</g>
<!-- Node13 -->
<g id="node13" class="node">
<title>Node13</title>
<g id="a_node13"><a xlink:title=" ">
<polygon fill="white" stroke="#bfbfbf" points="525,-3.25 525,-33.25 641,-33.25 641,-3.25 525,-3.25"/>
<text text-anchor="start" x="533" y="-21.25" font-family="Helvetica,sans-Serif" font-size="10.00">map&lt; EntityHandle,</text>
<text text-anchor="middle" x="583" y="-10.25" font-family="Helvetica,sans-Serif" font-size="10.00"> double &gt;</text>
</a>
</g>
</g>
<!-- Node13&#45;&gt;Node3 -->
<g id="edge12" class="edge">
<title>Node13&#45;&gt;Node3</title>
<path fill="none" stroke="#9a32cd" stroke-dasharray="5,2" d="M650.94,-5.53C714.44,2.91 810.26,5.92 880,-35.25 943.67,-72.83 976.69,-162.33 987.71,-198.1"/>
<polygon fill="#9a32cd" stroke="#9a32cd" points="650.45,-2.07 641.03,-6.93 651.42,-9 650.45,-2.07"/>
<text text-anchor="middle" x="813.5" y="-38.25" font-family="Helvetica,sans-Serif" font-size="10.00"> dIstance</text>
</g>
</g>
</svg>
        <g id="navigator" transform="translate(0 0)" fill="#404254">
                <rect fill="#f2f5e9" fill-opacity="0.5" stroke="#606060" stroke-width=".5" x="0" y="0" width="60" height="60"/>
                <use id="zoomplus" xlink:href="#zoomPlus" x="17" y="9" onmousedown="handleZoom(evt,'in')"/>
                <use id="zoomminus" xlink:href="#zoomMin" x="42" y="9" onmousedown="handleZoom(evt,'out')"/>
                <use id="reset" xlink:href="#resetDef" x="30" y="36" onmousedown="handleReset()"/>
                <g id="arrowUp" xlink:href="#dirArrow" transform="translate(30 24)" onmousedown="handlePan(0,-1)">
                  <use xlink:href="#rim" fill="#404040">
                        <set attributeName="fill" to="#808080" begin="arrowUp.mouseover" end="arrowUp.mouseout"/>
                  </use>
                  <path fill="none" stroke="white" stroke-width="1.5" d="M0,-3.0v7 M-2.5,-0.5L0,-3.0L2.5,-0.5"/>
                </g>
                <g id="arrowRight" xlink:href="#dirArrow" transform="rotate(90) translate(36 -43)" onmousedown="handlePan(1,0)">
                  <use xlink:href="#rim" fill="#404040">
                        <set attributeName="fill" to="#808080" begin="arrowRight.mouseover" end="arrowRight.mouseout"/>
                  </use>
                  <path fill="none" stroke="white" stroke-width="1.5" d="M0,-3.0v7 M-2.5,-0.5L0,-3.0L2.5,-0.5"/>
                </g>
                <g id="arrowDown" xlink:href="#dirArrow" transform="rotate(180) translate(-30 -48)" onmousedown="handlePan(0,1)">
                  <use xlink:href="#rim" fill="#404040">
                        <set attributeName="fill" to="#808080" begin="arrowDown.mouseover" end="arrowDown.mouseout"/>
                  </use>
                  <path fill="none" stroke="white" stroke-width="1.5" d="M0,-3.0v7 M-2.5,-0.5L0,-3.0L2.5,-0.5"/>
                </g>
                <g id="arrowLeft" xlink:href="#dirArrow" transform="rotate(270) translate(-36 17)" onmousedown="handlePan(-1,0)">
                  <use xlink:href="#rim" fill="#404040">
                        <set attributeName="fill" to="#808080" begin="arrowLeft.mouseover" end="arrowLeft.mouseout"/>
                  </use>
                  <path fill="none" stroke="white" stroke-width="1.5" d="M0,-3.0v7 M-2.5,-0.5L0,-3.0L2.5,-0.5"/>
                </g>
        </g>
        <svg viewBox="0 0 15 15" width="100%" height="30px" preserveAspectRatio="xMaxYMin meet">
         <g id="arrow_out" transform="scale(0.3 0.3)">
          <a xlink:href="structPeriodicNitscheConstrains_1_1PeriodicFace__coll__graph_org.svg" target="_base">
           <rect id="button" ry="5" rx="5" y="6" x="6" height="38" width="38"
                fill="#f2f5e9" fill-opacity="0.5" stroke="#606060" stroke-width="1.0"/>
           <path id="arrow"
             d="M 11.500037,31.436501 C 11.940474,20.09759 22.043105,11.32322 32.158766,21.979434 L 37.068811,17.246167 C 37.068811,17.246167 37.088388,32 37.088388,32 L 22.160133,31.978069 C 22.160133,31.978069 26.997745,27.140456 26.997745,27.140456 C 18.528582,18.264221 13.291696,25.230495 11.500037,31.436501 z"
             style="fill:#404040;"/>
          </a>
         </g>
        </svg>
</svg>
