<?xml version="1.0" encoding="UTF-8" standalone="no"?>
<!DOCTYPE svg PUBLIC "-//W3C//DTD SVG 1.1//EN"
 "http://www.w3.org/Graphics/SVG/1.1/DTD/svg11.dtd">
<!-- Generated by graphviz version 2.43.0 (0)
 -->
<!-- Title: EshelbianPlasticity::OpConstrainBoundaryHDivRhs&lt; A, IntegrationType::GAUSS &gt; Pages: 1 -->
<svg width="470pt" height="137pt"
 viewBox="0.00 0.00 470.00 137.00" xmlns="http://www.w3.org/2000/svg" xmlns:xlink="http://www.w3.org/1999/xlink">
<g id="graph0" class="graph" transform="scale(1 1) rotate(0) translate(4 133)">
<title>EshelbianPlasticity::OpConstrainBoundaryHDivRhs&lt; A, IntegrationType::GAUSS &gt;</title>
<polygon fill="white" stroke="transparent" points="-4,4 -4,-133 466,-133 466,4 -4,4"/>
<!-- Node1 -->
<g id="node1" class="node">
<title>Node1</title>
<g id="a_node1"><a xlink:title=" ">
<polygon fill="#bfbfbf" stroke="black" points="291,-44 291,-85 462,-85 462,-44 291,-44"/>
<text text-anchor="start" x="299" y="-73" font-family="Helvetica,sans-Serif" font-size="10.00">EshelbianPlasticity</text>
<text text-anchor="start" x="299" y="-62" font-family="Helvetica,sans-Serif" font-size="10.00">::OpConstrainBoundaryHDivRhs</text>
<text text-anchor="middle" x="376.5" y="-51" font-family="Helvetica,sans-Serif" font-size="10.00">&lt; A, IntegrationType::GAUSS &gt;</text>
</a>
</g>
</g>
<!-- Node2 -->
<g id="node2" class="node">
<title>Node2</title>
<g id="a_node2"><a xlink:title=" ">
<polygon fill="white" stroke="#bfbfbf" points="9,-98.5 9,-128.5 163,-128.5 163,-98.5 9,-98.5"/>
<text text-anchor="start" x="17" y="-116.5" font-family="Helvetica,sans-Serif" font-size="10.00">FormsIntegrators::Assembly</text>
<text text-anchor="middle" x="86" y="-105.5" font-family="Helvetica,sans-Serif" font-size="10.00">&lt; A &gt;::OpBrokenBase</text>
</a>
</g>
</g>
<!-- Node2&#45;&gt;Node1 -->
<g id="edge1" class="edge">
<title>Node2&#45;&gt;Node1</title>
<path fill="none" stroke="midnightblue" d="M173.47,-98.81C210.59,-92.51 253.83,-85.17 290.75,-78.89"/>
<polygon fill="midnightblue" stroke="midnightblue" points="172.45,-95.44 163.18,-100.56 173.62,-102.34 172.45,-95.44"/>
</g>
<!-- Node3 -->
<g id="node3" class="node">
<title>Node3</title>
<g id="a_node3"><a xlink:title=" ">
<polygon fill="white" stroke="#bfbfbf" points="0,-49.5 0,-79.5 172,-79.5 172,-49.5 0,-49.5"/>
<text text-anchor="start" x="8" y="-67.5" font-family="Helvetica,sans-Serif" font-size="10.00">shared_ptr&lt; EshelbianPlasticity</text>
<text text-anchor="middle" x="86" y="-56.5" font-family="Helvetica,sans-Serif" font-size="10.00">::ContactTree &gt;</text>
</a>
</g>
</g>
<!-- Node3&#45;&gt;Node1 -->
<g id="edge2" class="edge">
<title>Node3&#45;&gt;Node1</title>
<path fill="none" stroke="#9a32cd" stroke-dasharray="5,2" d="M182.61,-64.5C217.58,-64.5 256.88,-64.5 290.83,-64.5"/>
<polygon fill="#9a32cd" stroke="#9a32cd" points="182.39,-61 172.39,-64.5 182.39,-68 182.39,-61"/>
<text text-anchor="middle" x="231.5" y="-67.5" font-family="Helvetica,sans-Serif" font-size="10.00"> contactTreePtr</text>
</g>
<!-- Node4 -->
<g id="node4" class="node">
<title>Node4</title>
<g id="a_node4"><a xlink:title=" ">
<polygon fill="white" stroke="#bfbfbf" points="18,-0.5 18,-30.5 154,-30.5 154,-0.5 18,-0.5"/>
<text text-anchor="start" x="26" y="-18.5" font-family="Helvetica,sans-Serif" font-size="10.00">shared_ptr&lt; ContactOps</text>
<text text-anchor="middle" x="86" y="-7.5" font-family="Helvetica,sans-Serif" font-size="10.00">::CommonData &gt;</text>
</a>
</g>
</g>
<!-- Node4&#45;&gt;Node1 -->
<g id="edge3" class="edge">
<title>Node4&#45;&gt;Node1</title>
<path fill="none" stroke="#9a32cd" stroke-dasharray="5,2" d="M164.52,-28.67C203.5,-35.29 250.83,-43.33 290.78,-50.11"/>
<polygon fill="#9a32cd" stroke="#9a32cd" points="164.72,-25.15 154.28,-26.93 163.55,-32.05 164.72,-25.15"/>
<text text-anchor="middle" x="231.5" y="-48.5" font-family="Helvetica,sans-Serif" font-size="10.00"> commonDataPtr</text>
</g>
</g>
</svg>
