<?xml version="1.0" encoding="UTF-8" standalone="no"?>
<!DOCTYPE svg PUBLIC "-//W3C//DTD SVG 1.1//EN"
 "http://www.w3.org/Graphics/SVG/1.1/DTD/svg11.dtd">
<!-- Generated by graphviz version 2.43.0 (0)
 -->
<!-- Title: MixTransport::MaterialWithAutomaticDifferentiation Pages: 1 -->
<!--zoomable 452 -->
<svg id="main" version="1.1" xmlns="http://www.w3.org/2000/svg" xmlns:xlink="http://www.w3.org/1999/xlink" xml:space="preserve" onload="init(evt)">
<style type="text/css"><![CDATA[
.edge:hover path { stroke: red; }
.edge:hover polygon { stroke: red; fill: red; }
]]></style>
<script type="text/javascript"><![CDATA[
var edges = document.getElementsByTagName('g');
if (edges && edges.length) {
  for (var i=0;i<edges.length;i++) {
    if (edges[i].id.substr(0,4)=='edge') {
      edges[i].setAttribute('class','edge');
    }
  }
}
]]></script>
        <defs>
                <circle id="rim" cx="0" cy="0" r="7"/>
                <circle id="rim2" cx="0" cy="0" r="3.5"/>
                <g id="zoomPlus">
                        <use xlink:href="#rim" fill="#404040">
                                <set attributeName="fill" to="#808080" begin="zoomplus.mouseover" end="zoomplus.mouseout"/>
                        </use>
                        <path d="M-4,0h8M0,-4v8" fill="none" stroke="white" stroke-width="1.5" pointer-events="none"/>
                </g>
                <g id="zoomMin">
                        <use xlink:href="#rim" fill="#404040">
                                <set attributeName="fill" to="#808080" begin="zoomminus.mouseover" end="zoomminus.mouseout"/>
                        </use>
                        <path d="M-4,0h8" fill="none" stroke="white" stroke-width="1.5" pointer-events="none"/>
                </g>
                <g id="dirArrow">
                        <path fill="none" stroke="white" stroke-width="1.5" d="M0,-3.0v7 M-2.5,-0.5L0,-3.0L2.5,-0.5"/>
                </g>
               <g id="resetDef">
                       <use xlink:href="#rim2" fill="#404040">
                               <set attributeName="fill" to="#808080" begin="reset.mouseover" end="reset.mouseout"/>
                       </use>
               </g>
        </defs>

<script type="text/javascript">
var viewWidth = 408;
var viewHeight = 452;
var sectionId = 'dynsection-1';
</script>
<script xlink:href="svgpan.js"/>
<svg id="graph" class="graph">
<g id="viewport">
<title>MixTransport::MaterialWithAutomaticDifferentiation</title>
<polygon fill="white" stroke="transparent" points="-4,4 -4,-448 403.5,-448 403.5,4 -4,4"/>
<!-- Node1 -->
<g id="node1" class="node">
<title>Node1</title>
<g id="a_node1"><a xlink:title=" ">
<polygon fill="#bfbfbf" stroke="black" points="0,-0.5 0,-30.5 149,-30.5 149,-0.5 0,-0.5"/>
<text text-anchor="start" x="8" y="-18.5" font-family="Helvetica,sans-Serif" font-size="10.00">MixTransport::MaterialWith</text>
<text text-anchor="middle" x="74.5" y="-7.5" font-family="Helvetica,sans-Serif" font-size="10.00">AutomaticDifferentiation</text>
</a>
</g>
</g>
<!-- Node2 -->
<g id="node2" class="node">
<title>Node2</title>
<g id="a_node2"><a xlink:href="structMixTransport_1_1CommonMaterialData.html" target="_top" xlink:title=" ">
<polygon fill="white" stroke="black" points="107.5,-68.5 107.5,-87.5 301.5,-87.5 301.5,-68.5 107.5,-68.5"/>
<text text-anchor="middle" x="204.5" y="-75.5" font-family="Helvetica,sans-Serif" font-size="10.00">MixTransport::CommonMaterialData</text>
</a>
</g>
</g>
<!-- Node2&#45;&gt;Node1 -->
<g id="edge1" class="edge">
<title>Node2&#45;&gt;Node1</title>
<path fill="none" stroke="midnightblue" d="M177.05,-64.22C155.88,-54.37 126.62,-40.76 104.77,-30.59"/>
<polygon fill="midnightblue" stroke="midnightblue" points="175.61,-67.41 186.15,-68.46 178.56,-61.07 175.61,-67.41"/>
</g>
<!-- Node3 -->
<g id="node3" class="node">
<title>Node3</title>
<g id="a_node3"><a xlink:href="structMixTransport_1_1GenericMaterial.html" target="_top" xlink:title="Generic material model for unsaturated water transport.">
<polygon fill="white" stroke="black" points="122.5,-197 122.5,-216 286.5,-216 286.5,-197 122.5,-197"/>
<text text-anchor="middle" x="204.5" y="-204" font-family="Helvetica,sans-Serif" font-size="10.00">MixTransport::GenericMaterial</text>
</a>
</g>
</g>
<!-- Node3&#45;&gt;Node2 -->
<g id="edge2" class="edge">
<title>Node3&#45;&gt;Node2</title>
<path fill="none" stroke="midnightblue" d="M204.5,-186.44C204.5,-158.62 204.5,-108.04 204.5,-87.76"/>
<polygon fill="midnightblue" stroke="midnightblue" points="201,-186.81 204.5,-196.81 208,-186.81 201,-186.81"/>
</g>
<!-- Node4 -->
<g id="node4" class="node">
<title>Node4</title>
<g id="a_node4"><a xlink:href="classdouble.html" target="_top" xlink:title=" ">
<polygon fill="white" stroke="black" points="44.5,-424.5 44.5,-443.5 94.5,-443.5 94.5,-424.5 44.5,-424.5"/>
<text text-anchor="middle" x="69.5" y="-431.5" font-family="Helvetica,sans-Serif" font-size="10.00">double</text>
</a>
</g>
</g>
<!-- Node4&#45;&gt;Node1 -->
<g id="edge8" class="edge">
<title>Node4&#45;&gt;Node1</title>
<path fill="none" stroke="#9a32cd" stroke-dasharray="5,2" d="M49.93,-417.37C46.9,-413.97 44.21,-410.13 42.5,-406 -1.72,-299.24 28.54,-260.71 42.5,-146 47.7,-103.24 62.24,-54.25 69.8,-30.66"/>
<polygon fill="#9a32cd" stroke="#9a32cd" points="47.68,-420.06 57.31,-424.46 52.52,-415.01 47.68,-420.06"/>
<text text-anchor="middle" x="63" y="-120" font-family="Helvetica,sans-Serif" font-size="10.00"> Kr</text>
<text text-anchor="middle" x="63" y="-109" font-family="Helvetica,sans-Serif" font-size="10.00">diffKr</text>
</g>
<!-- Node4&#45;&gt;Node2 -->
<g id="edge5" class="edge">
<title>Node4&#45;&gt;Node2</title>
<path fill="none" stroke="#9a32cd" stroke-dasharray="5,2" d="M64.18,-414.38C51.46,-365.84 24.25,-233.17 78.5,-146 98.27,-114.24 138.55,-96.64 168.27,-87.54"/>
<polygon fill="#9a32cd" stroke="#9a32cd" points="60.83,-415.4 66.84,-424.13 67.58,-413.56 60.83,-415.4"/>
<text text-anchor="middle" x="96" y="-259" font-family="Helvetica,sans-Serif" font-size="10.00"> AhZ</text>
<text text-anchor="middle" x="96" y="-248" font-family="Helvetica,sans-Serif" font-size="10.00">thetaM</text>
<text text-anchor="middle" x="96" y="-237" font-family="Helvetica,sans-Serif" font-size="10.00">AhZZ</text>
<text text-anchor="middle" x="96" y="-226" font-family="Helvetica,sans-Serif" font-size="10.00">Ah</text>
<text text-anchor="middle" x="96" y="-215" font-family="Helvetica,sans-Serif" font-size="10.00">thetaR</text>
<text text-anchor="middle" x="96" y="-204" font-family="Helvetica,sans-Serif" font-size="10.00">thetaS</text>
<text text-anchor="middle" x="96" y="-193" font-family="Helvetica,sans-Serif" font-size="10.00">Ks</text>
<text text-anchor="middle" x="96" y="-182" font-family="Helvetica,sans-Serif" font-size="10.00">n</text>
<text text-anchor="middle" x="96" y="-171" font-family="Helvetica,sans-Serif" font-size="10.00">alpha</text>
<text text-anchor="middle" x="96" y="-160" font-family="Helvetica,sans-Serif" font-size="10.00">hS</text>
<text text-anchor="middle" x="96" y="-149" font-family="Helvetica,sans-Serif" font-size="10.00">...</text>
</g>
<!-- Node4&#45;&gt;Node3 -->
<g id="edge3" class="edge">
<title>Node4&#45;&gt;Node3</title>
<path fill="none" stroke="#9a32cd" stroke-dasharray="5,2" d="M79.82,-415.76C106.93,-370.47 179.44,-249.37 199.37,-216.07"/>
<polygon fill="#9a32cd" stroke="#9a32cd" points="76.76,-414.06 74.63,-424.44 82.77,-417.65 76.76,-414.06"/>
<text text-anchor="middle" x="178.5" y="-398" font-family="Helvetica,sans-Serif" font-size="10.00"> x</text>
<text text-anchor="middle" x="178.5" y="-387" font-family="Helvetica,sans-Serif" font-size="10.00">Se</text>
<text text-anchor="middle" x="178.5" y="-376" font-family="Helvetica,sans-Serif" font-size="10.00">scaleZ</text>
<text text-anchor="middle" x="178.5" y="-365" font-family="Helvetica,sans-Serif" font-size="10.00">y</text>
<text text-anchor="middle" x="178.5" y="-354" font-family="Helvetica,sans-Serif" font-size="10.00">diffK</text>
<text text-anchor="middle" x="178.5" y="-343" font-family="Helvetica,sans-Serif" font-size="10.00">h</text>
<text text-anchor="middle" x="178.5" y="-332" font-family="Helvetica,sans-Serif" font-size="10.00">sCale</text>
<text text-anchor="middle" x="178.5" y="-321" font-family="Helvetica,sans-Serif" font-size="10.00">z</text>
<text text-anchor="middle" x="178.5" y="-310" font-family="Helvetica,sans-Serif" font-size="10.00">ePsilon0</text>
<text text-anchor="middle" x="178.5" y="-299" font-family="Helvetica,sans-Serif" font-size="10.00">ePsilon1</text>
<text text-anchor="middle" x="178.5" y="-288" font-family="Helvetica,sans-Serif" font-size="10.00">...</text>
</g>
<!-- Node5 -->
<g id="node5" class="node">
<title>Node5</title>
<g id="a_node5"><a xlink:href="classRange.html" target="_top" xlink:title=" ">
<polygon fill="white" stroke="black" points="181,-424.5 181,-443.5 228,-443.5 228,-424.5 181,-424.5"/>
<text text-anchor="middle" x="204.5" y="-431.5" font-family="Helvetica,sans-Serif" font-size="10.00">Range</text>
</a>
</g>
</g>
<!-- Node5&#45;&gt;Node3 -->
<g id="edge4" class="edge">
<title>Node5&#45;&gt;Node3</title>
<path fill="none" stroke="#9a32cd" stroke-dasharray="5,2" d="M204.5,-414.31C204.5,-367.94 204.5,-249.02 204.5,-216.07"/>
<polygon fill="#9a32cd" stroke="#9a32cd" points="201,-414.44 204.5,-424.44 208,-414.44 201,-414.44"/>
<text text-anchor="middle" x="215.5" y="-343" font-family="Helvetica,sans-Serif" font-size="10.00"> tEts</text>
</g>
<!-- Node6 -->
<g id="node6" class="node">
<title>Node6</title>
<g id="a_node6"><a xlink:title=" ">
<polygon fill="white" stroke="#bfbfbf" points="305,-197 305,-216 334,-216 334,-197 305,-197"/>
<text text-anchor="middle" x="319.5" y="-204" font-family="Helvetica,sans-Serif" font-size="10.00">int</text>
</a>
</g>
</g>
<!-- Node6&#45;&gt;Node2 -->
<g id="edge6" class="edge">
<title>Node6&#45;&gt;Node2</title>
<path fill="none" stroke="#9a32cd" stroke-dasharray="5,2" d="M314.88,-186.88C311.13,-174.41 304.9,-158.12 295.5,-146 275.06,-119.65 241.64,-98.75 221.49,-87.68"/>
<polygon fill="#9a32cd" stroke="#9a32cd" points="311.54,-187.94 317.56,-196.66 318.29,-186.09 311.54,-187.94"/>
<text text-anchor="middle" x="299" y="-114.5" font-family="Helvetica,sans-Serif" font-size="10.00"> blockId</text>
</g>
<!-- Node7 -->
<g id="node7" class="node">
<title>Node7</title>
<g id="a_node7"><a xlink:title=" ">
<polygon fill="white" stroke="#bfbfbf" points="355.5,-197 355.5,-216 399.5,-216 399.5,-197 355.5,-197"/>
<text text-anchor="middle" x="377.5" y="-204" font-family="Helvetica,sans-Serif" font-size="10.00">string</text>
</a>
</g>
</g>
<!-- Node7&#45;&gt;Node2 -->
<g id="edge7" class="edge">
<title>Node7&#45;&gt;Node2</title>
<path fill="none" stroke="#9a32cd" stroke-dasharray="5,2" d="M372.47,-187.28C365.26,-164.64 349.74,-126.51 322.5,-106 311.25,-97.53 297.81,-91.64 284.09,-87.57"/>
<polygon fill="#9a32cd" stroke="#9a32cd" points="369.16,-188.41 375.36,-197 375.87,-186.42 369.16,-188.41"/>
<text text-anchor="middle" x="367.5" y="-114.5" font-family="Helvetica,sans-Serif" font-size="10.00"> matName</text>
</g>
</g>
</svg>
        <g id="navigator" transform="translate(0 0)" fill="#404254">
                <rect fill="#f2f5e9" fill-opacity="0.5" stroke="#606060" stroke-width=".5" x="0" y="0" width="60" height="60"/>
                <use id="zoomplus" xlink:href="#zoomPlus" x="17" y="9" onmousedown="handleZoom(evt,'in')"/>
                <use id="zoomminus" xlink:href="#zoomMin" x="42" y="9" onmousedown="handleZoom(evt,'out')"/>
                <use id="reset" xlink:href="#resetDef" x="30" y="36" onmousedown="handleReset()"/>
                <g id="arrowUp" xlink:href="#dirArrow" transform="translate(30 24)" onmousedown="handlePan(0,-1)">
                  <use xlink:href="#rim" fill="#404040">
                        <set attributeName="fill" to="#808080" begin="arrowUp.mouseover" end="arrowUp.mouseout"/>
                  </use>
                  <path fill="none" stroke="white" stroke-width="1.5" d="M0,-3.0v7 M-2.5,-0.5L0,-3.0L2.5,-0.5"/>
                </g>
                <g id="arrowRight" xlink:href="#dirArrow" transform="rotate(90) translate(36 -43)" onmousedown="handlePan(1,0)">
                  <use xlink:href="#rim" fill="#404040">
                        <set attributeName="fill" to="#808080" begin="arrowRight.mouseover" end="arrowRight.mouseout"/>
                  </use>
                  <path fill="none" stroke="white" stroke-width="1.5" d="M0,-3.0v7 M-2.5,-0.5L0,-3.0L2.5,-0.5"/>
                </g>
                <g id="arrowDown" xlink:href="#dirArrow" transform="rotate(180) translate(-30 -48)" onmousedown="handlePan(0,1)">
                  <use xlink:href="#rim" fill="#404040">
                        <set attributeName="fill" to="#808080" begin="arrowDown.mouseover" end="arrowDown.mouseout"/>
                  </use>
                  <path fill="none" stroke="white" stroke-width="1.5" d="M0,-3.0v7 M-2.5,-0.5L0,-3.0L2.5,-0.5"/>
                </g>
                <g id="arrowLeft" xlink:href="#dirArrow" transform="rotate(270) translate(-36 17)" onmousedown="handlePan(-1,0)">
                  <use xlink:href="#rim" fill="#404040">
                        <set attributeName="fill" to="#808080" begin="arrowLeft.mouseover" end="arrowLeft.mouseout"/>
                  </use>
                  <path fill="none" stroke="white" stroke-width="1.5" d="M0,-3.0v7 M-2.5,-0.5L0,-3.0L2.5,-0.5"/>
                </g>
        </g>
        <svg viewBox="0 0 15 15" width="100%" height="30px" preserveAspectRatio="xMaxYMin meet">
         <g id="arrow_out" transform="scale(0.3 0.3)">
          <a xlink:href="structMixTransport_1_1MaterialWithAutomaticDifferentiation__coll__graph_org.svg" target="_base">
           <rect id="button" ry="5" rx="5" y="6" x="6" height="38" width="38"
                fill="#f2f5e9" fill-opacity="0.5" stroke="#606060" stroke-width="1.0"/>
           <path id="arrow"
             d="M 11.500037,31.436501 C 11.940474,20.09759 22.043105,11.32322 32.158766,21.979434 L 37.068811,17.246167 C 37.068811,17.246167 37.088388,32 37.088388,32 L 22.160133,31.978069 C 22.160133,31.978069 26.997745,27.140456 26.997745,27.140456 C 18.528582,18.264221 13.291696,25.230495 11.500037,31.436501 z"
             style="fill:#404040;"/>
          </a>
         </g>
        </svg>
</svg>
