<?xml version="1.0" encoding="UTF-8" standalone="no"?>
<!DOCTYPE svg PUBLIC "-//W3C//DTD SVG 1.1//EN"
 "http://www.w3.org/Graphics/SVG/1.1/DTD/svg11.dtd">
<!-- Generated by graphviz version 9.0.0 (20230911.1827)
 -->
<!-- Title: FractureMechanics::GriffithForceElement::OpCalculateRhoAtCrackFrontUsingPrecalulatedCoeffs Pages: 1 -->
<svg width="354pt" height="98pt"
 viewBox="0.00 0.00 353.50 98.12" xmlns="http://www.w3.org/2000/svg" xmlns:xlink="http://www.w3.org/1999/xlink">
<g id="graph0" class="graph" transform="scale(1 1) rotate(0) translate(4 94.12)">
<title>FractureMechanics::GriffithForceElement::OpCalculateRhoAtCrackFrontUsingPrecalulatedCoeffs</title>
<!-- Node1 -->
<g id="node1" class="node">
<title>Node1</title>
<g id="a_node1"><a xlink:title="Calculate density at the crack fron nodes and multiplity gc.">
<polygon fill="#999999" stroke="#666666" points="345.5,-74.38 193,-74.38 193,-21.38 345.5,-21.38 345.5,-74.38"/>
<text text-anchor="start" x="201" y="-60.88" font-family="Helvetica,sans-Serif" font-size="10.00">FractureMechanics::</text>
<text text-anchor="start" x="201" y="-49.62" font-family="Helvetica,sans-Serif" font-size="10.00">GriffithForceElement</text>
<text text-anchor="start" x="201" y="-38.38" font-family="Helvetica,sans-Serif" font-size="10.00">::OpCalculateRhoAtCrackFront</text>
<text text-anchor="middle" x="269.25" y="-27.12" font-family="Helvetica,sans-Serif" font-size="10.00">UsingPrecalulatedCoeffs</text>
</a>
</g>
</g>
<!-- Node2 -->
<g id="node2" class="node">
<title>Node2</title>
<g id="a_node2"><a xlink:title=" ">
<polygon fill="white" stroke="#666666" points="157,-90.12 0,-90.12 0,-59.62 157,-59.62 157,-90.12"/>
<text text-anchor="start" x="8" y="-76.62" font-family="Helvetica,sans-Serif" font-size="10.00">FaceElementForcesAndSources</text>
<text text-anchor="middle" x="78.5" y="-65.38" font-family="Helvetica,sans-Serif" font-size="10.00">Core::UserDataOperator</text>
</a>
</g>
</g>
<!-- Node2&#45;&gt;Node1 -->
<g id="edge1" class="edge">
<title>Node2&#45;&gt;Node1</title>
<path fill="none" stroke="#63b8ff" d="M168.67,-62.12C176.7,-60.97 184.79,-59.81 192.7,-58.68"/>
<polygon fill="#63b8ff" stroke="#63b8ff" points="168.26,-58.64 158.86,-63.52 169.25,-65.57 168.26,-58.64"/>
</g>
<!-- Node3 -->
<g id="node3" class="node">
<title>Node3</title>
<g id="a_node3"><a xlink:href="struct_fracture_mechanics_1_1_griffith_force_element_1_1_aux_op.html" target="_top" xlink:title=" ">
<polygon fill="white" stroke="#666666" points="131.5,-41.75 25.5,-41.75 25.5,0 131.5,0 131.5,-41.75"/>
<text text-anchor="start" x="33.5" y="-28.25" font-family="Helvetica,sans-Serif" font-size="10.00">FractureMechanics::</text>
<text text-anchor="start" x="33.5" y="-17" font-family="Helvetica,sans-Serif" font-size="10.00">GriffithForceElement</text>
<text text-anchor="middle" x="78.5" y="-5.75" font-family="Helvetica,sans-Serif" font-size="10.00">::AuxOp</text>
</a>
</g>
</g>
<!-- Node3&#45;&gt;Node1 -->
<g id="edge2" class="edge">
<title>Node3&#45;&gt;Node1</title>
<path fill="none" stroke="#63b8ff" d="M143.18,-29.98C159.13,-32.27 176.39,-34.73 192.85,-37.09"/>
<polygon fill="#63b8ff" stroke="#63b8ff" points="143.72,-26.53 133.33,-28.57 142.73,-33.46 143.72,-26.53"/>
</g>
</g>
</svg>
