<?xml version="1.0" encoding="UTF-8" standalone="no"?>
<!DOCTYPE svg PUBLIC "-//W3C//DTD SVG 1.1//EN"
 "http://www.w3.org/Graphics/SVG/1.1/DTD/svg11.dtd">
<!-- Generated by graphviz version 2.43.0 (0)
 -->
<!-- Title: EshelbianPlasticity::OpAssembleBasic&lt; T &gt; Pages: 1 -->
<svg width="457pt" height="230pt"
 viewBox="0.00 0.00 457.00 230.00" xmlns="http://www.w3.org/2000/svg" xmlns:xlink="http://www.w3.org/1999/xlink">
<g id="graph0" class="graph" transform="scale(1 1) rotate(0) translate(4 226)">
<title>EshelbianPlasticity::OpAssembleBasic&lt; T &gt;</title>
<polygon fill="white" stroke="transparent" points="-4,4 -4,-226 453,-226 453,4 -4,4"/>
<!-- Node1 -->
<g id="node1" class="node">
<title>Node1</title>
<g id="a_node1"><a xlink:title=" ">
<polygon fill="#bfbfbf" stroke="black" points="310,-93 310,-123 449,-123 449,-93 310,-93"/>
<text text-anchor="start" x="318" y="-111" font-family="Helvetica,sans-Serif" font-size="10.00">EshelbianPlasticity</text>
<text text-anchor="middle" x="379.5" y="-100" font-family="Helvetica,sans-Serif" font-size="10.00">::OpAssembleBasic&lt; T &gt;</text>
</a>
</g>
</g>
<!-- Node2 -->
<g id="node2" class="node">
<title>Node2</title>
<g id="a_node2"><a xlink:title=" ">
<polygon fill="white" stroke="#bfbfbf" points="71.5,-202.5 71.5,-221.5 100.5,-221.5 100.5,-202.5 71.5,-202.5"/>
<text text-anchor="middle" x="86" y="-209.5" font-family="Helvetica,sans-Serif" font-size="10.00">T</text>
</a>
</g>
</g>
<!-- Node2&#45;&gt;Node1 -->
<g id="edge1" class="edge">
<title>Node2&#45;&gt;Node1</title>
<path fill="none" stroke="midnightblue" d="M110.91,-212.9C150.45,-213.47 231.13,-210.72 292,-183 322.57,-169.08 350.47,-140.85 365.91,-123.27"/>
<polygon fill="midnightblue" stroke="midnightblue" points="110.76,-209.39 100.68,-212.66 110.59,-216.39 110.76,-209.39"/>
</g>
<!-- Node3 -->
<g id="node3" class="node">
<title>Node3</title>
<g id="a_node3"><a xlink:title=" ">
<polygon fill="white" stroke="#bfbfbf" points="44.5,-164.5 44.5,-183.5 127.5,-183.5 127.5,-164.5 44.5,-164.5"/>
<text text-anchor="middle" x="86" y="-171.5" font-family="Helvetica,sans-Serif" font-size="10.00">MatrixDouble</text>
</a>
</g>
</g>
<!-- Node3&#45;&gt;Node1 -->
<g id="edge2" class="edge">
<title>Node3&#45;&gt;Node1</title>
<path fill="none" stroke="#9a32cd" stroke-dasharray="5,2" d="M137.71,-166.48C179.44,-159.84 239.97,-149.18 292,-136 306.38,-132.36 321.87,-127.61 335.7,-123.07"/>
<polygon fill="#9a32cd" stroke="#9a32cd" points="137.13,-163.03 127.79,-168.04 138.21,-169.94 137.13,-163.03"/>
<text text-anchor="middle" x="241" y="-171" font-family="Helvetica,sans-Serif" font-size="10.00"> K</text>
<text text-anchor="middle" x="241" y="-160" font-family="Helvetica,sans-Serif" font-size="10.00">transposeK</text>
</g>
<!-- Node4 -->
<g id="node4" class="node">
<title>Node4</title>
<g id="a_node4"><a xlink:title=" ">
<polygon fill="white" stroke="#bfbfbf" points="0,-115 0,-145 172,-145 172,-115 0,-115"/>
<text text-anchor="start" x="8" y="-133" font-family="Helvetica,sans-Serif" font-size="10.00">shared_ptr&lt; EshelbianPlasticity</text>
<text text-anchor="middle" x="86" y="-122" font-family="Helvetica,sans-Serif" font-size="10.00">::DataAtIntegrationPts &gt;</text>
</a>
</g>
</g>
<!-- Node4&#45;&gt;Node1 -->
<g id="edge3" class="edge">
<title>Node4&#45;&gt;Node1</title>
<path fill="none" stroke="#9a32cd" stroke-dasharray="5,2" d="M182.27,-122.81C223.93,-119.67 271.88,-116.05 309.94,-113.17"/>
<polygon fill="#9a32cd" stroke="#9a32cd" points="181.81,-119.33 172.1,-123.58 182.33,-126.31 181.81,-119.33"/>
<text text-anchor="middle" x="241" y="-124" font-family="Helvetica,sans-Serif" font-size="10.00"> dataAtPts</text>
</g>
<!-- Node5 -->
<g id="node5" class="node">
<title>Node5</title>
<g id="a_node5"><a xlink:href="classbool.html" target="_top" xlink:title=" ">
<polygon fill="white" stroke="black" points="67,-76.5 67,-95.5 105,-95.5 105,-76.5 67,-76.5"/>
<text text-anchor="middle" x="86" y="-83.5" font-family="Helvetica,sans-Serif" font-size="10.00">bool</text>
</a>
</g>
</g>
<!-- Node5&#45;&gt;Node1 -->
<g id="edge4" class="edge">
<title>Node5&#45;&gt;Node1</title>
<path fill="none" stroke="#9a32cd" stroke-dasharray="5,2" d="M115.32,-87.72C154.88,-90.17 228.94,-94.93 292,-100 297.71,-100.46 303.64,-100.96 309.58,-101.48"/>
<polygon fill="#9a32cd" stroke="#9a32cd" points="115.31,-84.21 105.11,-87.09 114.88,-91.2 115.31,-84.21"/>
<text text-anchor="middle" x="241" y="-103" font-family="Helvetica,sans-Serif" font-size="10.00"> assembleSymmetry</text>
</g>
<!-- Node6 -->
<g id="node6" class="node">
<title>Node6</title>
<g id="a_node6"><a xlink:title=" ">
<polygon fill="white" stroke="#bfbfbf" points="28,-38.5 28,-57.5 144,-57.5 144,-38.5 28,-38.5"/>
<text text-anchor="middle" x="86" y="-45.5" font-family="Helvetica,sans-Serif" font-size="10.00">function&lt; double()&gt;</text>
</a>
</g>
</g>
<!-- Node6&#45;&gt;Node1 -->
<g id="edge5" class="edge">
<title>Node6&#45;&gt;Node1</title>
<path fill="none" stroke="#9a32cd" stroke-dasharray="5,2" d="M154.15,-54.01C194.49,-58.49 246.64,-65.79 292,-77 308.57,-81.1 326.4,-87.18 341.54,-92.88"/>
<polygon fill="#9a32cd" stroke="#9a32cd" points="154.47,-50.53 144.15,-52.94 153.72,-57.49 154.47,-50.53"/>
<text text-anchor="middle" x="241" y="-80" font-family="Helvetica,sans-Serif" font-size="10.00"> scaleOff</text>
</g>
<!-- Node7 -->
<g id="node7" class="node">
<title>Node7</title>
<g id="a_node7"><a xlink:title=" ">
<polygon fill="white" stroke="#bfbfbf" points="45,-0.5 45,-19.5 127,-19.5 127,-0.5 45,-0.5"/>
<text text-anchor="middle" x="86" y="-7.5" font-family="Helvetica,sans-Serif" font-size="10.00">VectorDouble</text>
</a>
</g>
</g>
<!-- Node7&#45;&gt;Node1 -->
<g id="edge6" class="edge">
<title>Node7&#45;&gt;Node1</title>
<path fill="none" stroke="#9a32cd" stroke-dasharray="5,2" d="M137.24,-11.37C179.93,-14.09 242.04,-21.76 292,-43 320.01,-54.91 347.21,-77.77 363.4,-92.96"/>
<polygon fill="#9a32cd" stroke="#9a32cd" points="137.28,-7.87 127.1,-10.8 136.88,-14.86 137.28,-7.87"/>
<text text-anchor="middle" x="241" y="-46" font-family="Helvetica,sans-Serif" font-size="10.00"> nF</text>
</g>
</g>
</svg>
