<?xml version="1.0" encoding="UTF-8" standalone="no"?>
<!DOCTYPE svg PUBLIC "-//W3C//DTD SVG 1.1//EN"
 "http://www.w3.org/Graphics/SVG/1.1/DTD/svg11.dtd">
<!-- Generated by graphviz version 2.43.0 (0)
 -->
<!-- Title: PeriodicNitscheConstrains::PeriodicVolume Pages: 1 -->
<!--zoomable 613 -->
<svg id="main" version="1.1" xmlns="http://www.w3.org/2000/svg" xmlns:xlink="http://www.w3.org/1999/xlink" xml:space="preserve" onload="init(evt)">
<style type="text/css"><![CDATA[
.edge:hover path { stroke: red; }
.edge:hover polygon { stroke: red; fill: red; }
]]></style>
<script type="text/javascript"><![CDATA[
var edges = document.getElementsByTagName('g');
if (edges && edges.length) {
  for (var i=0;i<edges.length;i++) {
    if (edges[i].id.substr(0,4)=='edge') {
      edges[i].setAttribute('class','edge');
    }
  }
}
]]></script>
        <defs>
                <circle id="rim" cx="0" cy="0" r="7"/>
                <circle id="rim2" cx="0" cy="0" r="3.5"/>
                <g id="zoomPlus">
                        <use xlink:href="#rim" fill="#404040">
                                <set attributeName="fill" to="#808080" begin="zoomplus.mouseover" end="zoomplus.mouseout"/>
                        </use>
                        <path d="M-4,0h8M0,-4v8" fill="none" stroke="white" stroke-width="1.5" pointer-events="none"/>
                </g>
                <g id="zoomMin">
                        <use xlink:href="#rim" fill="#404040">
                                <set attributeName="fill" to="#808080" begin="zoomminus.mouseover" end="zoomminus.mouseout"/>
                        </use>
                        <path d="M-4,0h8" fill="none" stroke="white" stroke-width="1.5" pointer-events="none"/>
                </g>
                <g id="dirArrow">
                        <path fill="none" stroke="white" stroke-width="1.5" d="M0,-3.0v7 M-2.5,-0.5L0,-3.0L2.5,-0.5"/>
                </g>
               <g id="resetDef">
                       <use xlink:href="#rim2" fill="#404040">
                               <set attributeName="fill" to="#808080" begin="reset.mouseover" end="reset.mouseout"/>
                       </use>
               </g>
        </defs>

<script type="text/javascript">
var viewWidth = 1361;
var viewHeight = 613;
var sectionId = 'dynsection-1';
</script>
<script xlink:href="svgpan.js"/>
<svg id="graph" class="graph">
<g id="viewport">
<title>PeriodicNitscheConstrains::PeriodicVolume</title>
<polygon fill="white" stroke="transparent" points="-4,4 -4,-609.34 1357,-609.34 1357,4 -4,4"/>
<!-- Node1 -->
<g id="node1" class="node">
<title>Node1</title>
<g id="a_node1"><a xlink:title=" ">
<polygon fill="#bfbfbf" stroke="black" points="1209,-204.34 1209,-234.34 1353,-234.34 1353,-204.34 1209,-204.34"/>
<text text-anchor="start" x="1217" y="-222.34" font-family="Helvetica,sans-Serif" font-size="10.00">PeriodicNitscheConstrains</text>
<text text-anchor="middle" x="1281" y="-211.34" font-family="Helvetica,sans-Serif" font-size="10.00">::PeriodicVolume</text>
</a>
</g>
</g>
<!-- Node2 -->
<g id="node2" class="node">
<title>Node2</title>
<g id="a_node2"><a xlink:title=" ">
<polygon fill="white" stroke="#bfbfbf" points="898,-253.84 898,-272.84 1103,-272.84 1103,-253.84 898,-253.84"/>
<text text-anchor="middle" x="1000.5" y="-260.84" font-family="Helvetica,sans-Serif" font-size="10.00">VolumeElementForcesAndSourcesCore</text>
</a>
</g>
</g>
<!-- Node2&#45;&gt;Node1 -->
<g id="edge1" class="edge">
<title>Node2&#45;&gt;Node1</title>
<path fill="none" stroke="midnightblue" d="M1075.71,-252.24C1110.7,-246.95 1153.02,-240.44 1191,-234.34 1196.72,-233.41 1202.65,-232.45 1208.61,-231.47"/>
<polygon fill="midnightblue" stroke="midnightblue" points="1074.93,-248.82 1065.57,-253.78 1075.98,-255.74 1074.93,-248.82"/>
</g>
<!-- Node3 -->
<g id="node3" class="node">
<title>Node3</title>
<g id="a_node3"><a xlink:href="structPeriodicNitscheConstrains_1_1CommonData.html" target="_top" xlink:title=" ">
<polygon fill="white" stroke="black" points="928.5,-204.34 928.5,-234.34 1072.5,-234.34 1072.5,-204.34 928.5,-204.34"/>
<text text-anchor="start" x="936.5" y="-222.34" font-family="Helvetica,sans-Serif" font-size="10.00">PeriodicNitscheConstrains</text>
<text text-anchor="middle" x="1000.5" y="-211.34" font-family="Helvetica,sans-Serif" font-size="10.00">::CommonData</text>
</a>
</g>
</g>
<!-- Node3&#45;&gt;Node1 -->
<g id="edge2" class="edge">
<title>Node3&#45;&gt;Node1</title>
<path fill="none" stroke="#9a32cd" stroke-dasharray="5,2" d="M1083.08,-219.34C1122.94,-219.34 1170.46,-219.34 1208.83,-219.34"/>
<polygon fill="#9a32cd" stroke="#9a32cd" points="1082.86,-215.84 1072.86,-219.34 1082.86,-222.84 1082.86,-215.84"/>
<text text-anchor="middle" x="1156" y="-222.34" font-family="Helvetica,sans-Serif" font-size="10.00"> commonData</text>
</g>
<!-- Node4 -->
<g id="node4" class="node">
<title>Node4</title>
<g id="a_node4"><a xlink:title=" ">
<polygon fill="white" stroke="#bfbfbf" points="437,-364.84 437,-537.84 729,-537.84 729,-364.84 437,-364.84"/>
<text text-anchor="start" x="445" y="-525.84" font-family="Helvetica,sans-Serif" font-size="10.00">multi_index_container</text>
<text text-anchor="start" x="445" y="-514.84" font-family="Helvetica,sans-Serif" font-size="10.00">&lt; MultiIndexData, indexed</text>
<text text-anchor="start" x="445" y="-503.84" font-family="Helvetica,sans-Serif" font-size="10.00">_by&lt; ordered_non_unique</text>
<text text-anchor="start" x="445" y="-492.84" font-family="Helvetica,sans-Serif" font-size="10.00">&lt; BOOST_MULTI_INDEX_MEMBER</text>
<text text-anchor="start" x="445" y="-481.84" font-family="Helvetica,sans-Serif" font-size="10.00">(MultiIndexData, int, MultiIndexData</text>
<text text-anchor="start" x="445" y="-470.84" font-family="Helvetica,sans-Serif" font-size="10.00">::gG) &gt;, ordered_non_unique&lt; BOOST</text>
<text text-anchor="start" x="445" y="-459.84" font-family="Helvetica,sans-Serif" font-size="10.00">_MULTI_INDEX_MEMBER(MultiIndexData,</text>
<text text-anchor="start" x="445" y="-448.84" font-family="Helvetica,sans-Serif" font-size="10.00"> int, MultiIndexData::sIde) &gt;, ordered</text>
<text text-anchor="start" x="445" y="-437.84" font-family="Helvetica,sans-Serif" font-size="10.00">_non_unique&lt; BOOST_MULTI_INDEX_MEMBER</text>
<text text-anchor="start" x="445" y="-426.84" font-family="Helvetica,sans-Serif" font-size="10.00">(MultiIndexData, EntityType, MultiIndexData</text>
<text text-anchor="start" x="445" y="-415.84" font-family="Helvetica,sans-Serif" font-size="10.00">::tYpe) &gt;, ordered_unique&lt; composite_key&lt;</text>
<text text-anchor="start" x="445" y="-404.84" font-family="Helvetica,sans-Serif" font-size="10.00"> MultiIndexData, member&lt; MultiIndexData, int,</text>
<text text-anchor="start" x="445" y="-393.84" font-family="Helvetica,sans-Serif" font-size="10.00">&amp;MultiIndexData::gG &gt;, member&lt; MultiIndexData,</text>
<text text-anchor="start" x="445" y="-382.84" font-family="Helvetica,sans-Serif" font-size="10.00"> int,&amp;MultiIndexData::sIde &gt;, member&lt; MultiIndexData,</text>
<text text-anchor="middle" x="583" y="-371.84" font-family="Helvetica,sans-Serif" font-size="10.00"> EntityType,&amp;MultiIndexData::tYpe &gt; &gt; &gt; &gt; &gt;</text>
</a>
</g>
</g>
<!-- Node4&#45;&gt;Node3 -->
<g id="edge3" class="edge">
<title>Node4&#45;&gt;Node3</title>
<path fill="none" stroke="#9a32cd" stroke-dasharray="5,2" d="M738.75,-419.93C790.54,-402.09 844.15,-374.34 880,-331.34 905.28,-301 870.61,-272.77 898,-244.34 906.31,-235.71 917.08,-229.87 928.49,-225.95"/>
<polygon fill="#9a32cd" stroke="#9a32cd" points="737.48,-416.66 729.11,-423.15 739.7,-423.3 737.48,-416.66"/>
<text text-anchor="middle" x="813.5" y="-428.34" font-family="Helvetica,sans-Serif" font-size="10.00"> volumesContainer</text>
<text text-anchor="middle" x="813.5" y="-417.34" font-family="Helvetica,sans-Serif" font-size="10.00">facesContainer</text>
</g>
<!-- Node5 -->
<g id="node5" class="node">
<title>Node5</title>
<g id="a_node5"><a xlink:title=" ">
<polygon fill="white" stroke="#bfbfbf" points="0,-441.84 0,-460.84 125,-460.84 125,-441.84 0,-441.84"/>
<text text-anchor="middle" x="62.5" y="-448.84" font-family="Helvetica,sans-Serif" font-size="10.00">multi_index_container</text>
</a>
</g>
</g>
<!-- Node5&#45;&gt;Node4 -->
<g id="edge4" class="edge">
<title>Node5&#45;&gt;Node4</title>
<path fill="none" stroke="orange" stroke-dasharray="5,2" d="M135.17,-451.34C212.75,-451.34 338.59,-451.34 436.98,-451.34"/>
<polygon fill="orange" stroke="orange" points="135.01,-447.84 125.01,-451.34 135.01,-454.84 135.01,-447.84"/>
<text text-anchor="start" x="143" y="-597.34" font-family="Helvetica,sans-Serif" font-size="10.00"> &lt; MultiIndexData, indexed</text>
<text text-anchor="start" x="143" y="-586.34" font-family="Helvetica,sans-Serif" font-size="10.00">_by&lt; ordered_non_unique</text>
<text text-anchor="start" x="143" y="-575.34" font-family="Helvetica,sans-Serif" font-size="10.00">&lt; BOOST_MULTI_INDEX_MEMBER</text>
<text text-anchor="start" x="143" y="-564.34" font-family="Helvetica,sans-Serif" font-size="10.00">(MultiIndexData, int, MultiIndexData</text>
<text text-anchor="start" x="143" y="-553.34" font-family="Helvetica,sans-Serif" font-size="10.00">::gG) &gt;, ordered_non_unique&lt; BOOST</text>
<text text-anchor="start" x="143" y="-542.34" font-family="Helvetica,sans-Serif" font-size="10.00">_MULTI_INDEX_MEMBER(MultiIndexData,</text>
<text text-anchor="start" x="143" y="-531.34" font-family="Helvetica,sans-Serif" font-size="10.00"> int, MultiIndexData::sIde) &gt;, ordered</text>
<text text-anchor="start" x="143" y="-520.34" font-family="Helvetica,sans-Serif" font-size="10.00">_non_unique&lt; BOOST_MULTI_INDEX_MEMBER</text>
<text text-anchor="start" x="143" y="-509.34" font-family="Helvetica,sans-Serif" font-size="10.00">(MultiIndexData, EntityType, MultiIndexData</text>
<text text-anchor="start" x="143" y="-498.34" font-family="Helvetica,sans-Serif" font-size="10.00">::tYpe) &gt;, ordered_unique&lt; composite_key&lt;</text>
<text text-anchor="start" x="143" y="-487.34" font-family="Helvetica,sans-Serif" font-size="10.00"> MultiIndexData, member&lt; MultiIndexData, int,</text>
<text text-anchor="start" x="143" y="-476.34" font-family="Helvetica,sans-Serif" font-size="10.00">&amp;MultiIndexData::gG &gt;, member&lt; MultiIndexData,</text>
<text text-anchor="start" x="143" y="-465.34" font-family="Helvetica,sans-Serif" font-size="10.00"> int,&amp;MultiIndexData::sIde &gt;, member&lt; MultiIndexData,</text>
<text text-anchor="middle" x="281" y="-454.34" font-family="Helvetica,sans-Serif" font-size="10.00"> EntityType,&amp;MultiIndexData::tYpe &gt; &gt; &gt; &gt; &gt;</text>
</g>
<!-- Node6 -->
<g id="node6" class="node">
<title>Node6</title>
<g id="a_node6"><a xlink:href="classdouble.html" target="_top" xlink:title=" ">
<polygon fill="white" stroke="black" points="558,-326.84 558,-345.84 608,-345.84 608,-326.84 558,-326.84"/>
<text text-anchor="middle" x="583" y="-333.84" font-family="Helvetica,sans-Serif" font-size="10.00">double</text>
</a>
</g>
</g>
<!-- Node6&#45;&gt;Node3 -->
<g id="edge5" class="edge">
<title>Node6&#45;&gt;Node3</title>
<path fill="none" stroke="#9a32cd" stroke-dasharray="5,2" d="M618.32,-332.23C647.74,-328.62 691.22,-323.06 729,-317.34 796.33,-307.13 827.38,-334.57 880,-291.34 897.28,-277.14 881.23,-259.14 898,-244.34 906.64,-236.71 917.24,-231.33 928.29,-227.55"/>
<polygon fill="#9a32cd" stroke="#9a32cd" points="617.66,-328.79 608.16,-333.47 618.51,-335.74 617.66,-328.79"/>
<text text-anchor="middle" x="813.5" y="-319.34" font-family="Helvetica,sans-Serif" font-size="10.00"> eps</text>
</g>
<!-- Node7 -->
<g id="node7" class="node">
<title>Node7</title>
<g id="a_node7"><a xlink:title=" ">
<polygon fill="white" stroke="#bfbfbf" points="561,-288.84 561,-307.84 605,-307.84 605,-288.84 561,-288.84"/>
<text text-anchor="middle" x="583" y="-295.84" font-family="Helvetica,sans-Serif" font-size="10.00">string</text>
</a>
</g>
</g>
<!-- Node7&#45;&gt;Node3 -->
<g id="edge6" class="edge">
<title>Node7&#45;&gt;Node3</title>
<path fill="none" stroke="#9a32cd" stroke-dasharray="5,2" d="M615.22,-294.44C644.6,-290.72 689.82,-284.89 729,-279.34 796.21,-269.81 816.7,-280.86 880,-256.34 888.97,-252.86 889.2,-248.21 898,-244.34 907.55,-240.13 917.93,-236.55 928.29,-233.53"/>
<polygon fill="#9a32cd" stroke="#9a32cd" points="614.63,-290.98 605.15,-295.7 615.51,-297.93 614.63,-290.98"/>
<text text-anchor="middle" x="813.5" y="-279.34" font-family="Helvetica,sans-Serif" font-size="10.00"> volumeElemName</text>
</g>
<!-- Node8 -->
<g id="node8" class="node">
<title>Node8</title>
<g id="a_node8"><a xlink:title=" ">
<polygon fill="white" stroke="#bfbfbf" points="508.5,-239.34 508.5,-269.34 657.5,-269.34 657.5,-239.34 508.5,-239.34"/>
<text text-anchor="start" x="516.5" y="-257.34" font-family="Helvetica,sans-Serif" font-size="10.00">map&lt; EntityHandle,</text>
<text text-anchor="middle" x="583" y="-246.34" font-family="Helvetica,sans-Serif" font-size="10.00"> vector&lt; VectorDouble &gt; &gt;</text>
</a>
</g>
</g>
<!-- Node8&#45;&gt;Node3 -->
<g id="edge7" class="edge">
<title>Node8&#45;&gt;Node3</title>
<path fill="none" stroke="#9a32cd" stroke-dasharray="5,2" d="M667.7,-248.34C727,-243.96 808.41,-237.71 880,-231.34 895.68,-229.94 912.51,-228.32 928.44,-226.74"/>
<polygon fill="#9a32cd" stroke="#9a32cd" points="667.35,-244.85 657.63,-249.08 667.86,-251.83 667.35,-244.85"/>
<text text-anchor="middle" x="813.5" y="-244.34" font-family="Helvetica,sans-Serif" font-size="10.00"> localCoordsMap</text>
</g>
<!-- Node9 -->
<g id="node9" class="node">
<title>Node9</title>
<g id="a_node9"><a xlink:href="classRange.html" target="_top" xlink:title=" ">
<polygon fill="white" stroke="black" points="559.5,-200.84 559.5,-219.84 606.5,-219.84 606.5,-200.84 559.5,-200.84"/>
<text text-anchor="middle" x="583" y="-207.84" font-family="Helvetica,sans-Serif" font-size="10.00">Range</text>
</a>
</g>
</g>
<!-- Node9&#45;&gt;Node3 -->
<g id="edge8" class="edge">
<title>Node9&#45;&gt;Node3</title>
<path fill="none" stroke="#9a32cd" stroke-dasharray="5,2" d="M617,-211.05C684.03,-212.5 837.43,-215.82 928.29,-217.79"/>
<polygon fill="#9a32cd" stroke="#9a32cd" points="616.71,-207.54 606.63,-210.83 616.56,-214.54 616.71,-207.54"/>
<text text-anchor="middle" x="813.5" y="-219.34" font-family="Helvetica,sans-Serif" font-size="10.00"> skinFaces</text>
</g>
<!-- Node10 -->
<g id="node10" class="node">
<title>Node10</title>
<g id="a_node10"><a xlink:title=" ">
<polygon fill="white" stroke="#bfbfbf" points="515,-162.84 515,-181.84 651,-181.84 651,-162.84 515,-162.84"/>
<text text-anchor="middle" x="583" y="-169.84" font-family="Helvetica,sans-Serif" font-size="10.00">vector&lt; MatrixDouble &gt;</text>
</a>
</g>
</g>
<!-- Node10&#45;&gt;Node3 -->
<g id="edge9" class="edge">
<title>Node10&#45;&gt;Node3</title>
<path fill="none" stroke="#9a32cd" stroke-dasharray="5,2" d="M661.41,-169.55C721.65,-168.98 806.99,-171.72 880,-187.34 888.39,-189.13 889.82,-191.75 898,-194.34 909.25,-197.89 921.33,-201.25 933.09,-204.29"/>
<polygon fill="#9a32cd" stroke="#9a32cd" points="661.17,-166.05 651.21,-169.68 661.26,-173.05 661.17,-166.05"/>
<text text-anchor="middle" x="813.5" y="-201.34" font-family="Helvetica,sans-Serif" font-size="10.00"> sTress</text>
<text text-anchor="middle" x="813.5" y="-190.34" font-family="Helvetica,sans-Serif" font-size="10.00">stressJacobian</text>
</g>
<!-- Node11 -->
<g id="node11" class="node">
<title>Node11</title>
<g id="a_node11"><a xlink:title=" ">
<polygon fill="white" stroke="#bfbfbf" points="515.5,-108.84 515.5,-127.84 650.5,-127.84 650.5,-108.84 515.5,-108.84"/>
<text text-anchor="middle" x="583" y="-115.84" font-family="Helvetica,sans-Serif" font-size="10.00">vector&lt; VectorDouble &gt;</text>
</a>
</g>
</g>
<!-- Node11&#45;&gt;Node3 -->
<g id="edge10" class="edge">
<title>Node11&#45;&gt;Node3</title>
<path fill="none" stroke="#9a32cd" stroke-dasharray="5,2" d="M660.85,-113.12C737.1,-109.61 847.17,-109.54 880,-135.34 901.56,-152.27 878.09,-175.49 898,-194.34 906.5,-202.38 917.16,-207.96 928.35,-211.81"/>
<polygon fill="#9a32cd" stroke="#9a32cd" points="660.61,-109.63 650.8,-113.61 660.96,-116.62 660.61,-109.63"/>
<text text-anchor="middle" x="813.5" y="-160.34" font-family="Helvetica,sans-Serif" font-size="10.00"> dIsplacements</text>
<text text-anchor="middle" x="813.5" y="-149.34" font-family="Helvetica,sans-Serif" font-size="10.00">coordsAtGaussPts</text>
<text text-anchor="middle" x="813.5" y="-138.34" font-family="Helvetica,sans-Serif" font-size="10.00">hoCoordsAtGaussPts</text>
</g>
<!-- Node12 -->
<g id="node12" class="node">
<title>Node12</title>
<g id="a_node12"><a xlink:title=" ">
<polygon fill="white" stroke="#bfbfbf" points="525,-58.34 525,-88.34 641,-88.34 641,-58.34 525,-58.34"/>
<text text-anchor="start" x="533" y="-76.34" font-family="Helvetica,sans-Serif" font-size="10.00">map&lt; EntityHandle,</text>
<text text-anchor="middle" x="583" y="-65.34" font-family="Helvetica,sans-Serif" font-size="10.00"> vector&lt; int &gt; &gt;</text>
</a>
</g>
</g>
<!-- Node12&#45;&gt;Node3 -->
<g id="edge11" class="edge">
<title>Node12&#45;&gt;Node3</title>
<path fill="none" stroke="#9a32cd" stroke-dasharray="5,2" d="M651.19,-66.9C727.99,-61.11 847.34,-57.41 880,-86.34 916.43,-118.6 864.93,-158.64 898,-194.34 906.2,-203.19 916.99,-209.13 928.47,-213.07"/>
<polygon fill="#9a32cd" stroke="#9a32cd" points="650.8,-63.42 641.11,-67.69 651.35,-70.4 650.8,-63.42"/>
<text text-anchor="middle" x="813.5" y="-100.34" font-family="Helvetica,sans-Serif" font-size="10.00"> inTetFaceGaussPtsNumber</text>
<text text-anchor="middle" x="813.5" y="-89.34" font-family="Helvetica,sans-Serif" font-size="10.00">inTetTetGaussPtsNumber</text>
</g>
<!-- Node13 -->
<g id="node13" class="node">
<title>Node13</title>
<g id="a_node13"><a xlink:title=" ">
<polygon fill="white" stroke="#bfbfbf" points="525,-9.34 525,-39.34 641,-39.34 641,-9.34 525,-9.34"/>
<text text-anchor="start" x="533" y="-27.34" font-family="Helvetica,sans-Serif" font-size="10.00">map&lt; EntityHandle,</text>
<text text-anchor="middle" x="583" y="-16.34" font-family="Helvetica,sans-Serif" font-size="10.00"> double &gt;</text>
</a>
</g>
</g>
<!-- Node13&#45;&gt;Node3 -->
<g id="edge12" class="edge">
<title>Node13&#45;&gt;Node3</title>
<path fill="none" stroke="#9a32cd" stroke-dasharray="5,2" d="M651.3,-8.06C718.48,3.8 820.1,9.12 880,-48.34 927.19,-93.59 854.6,-145.44 898,-194.34 906.07,-203.43 916.87,-209.47 928.42,-213.45"/>
<polygon fill="#9a32cd" stroke="#9a32cd" points="650.43,-4.66 641.24,-9.93 651.71,-11.54 650.43,-4.66"/>
<text text-anchor="middle" x="813.5" y="-51.34" font-family="Helvetica,sans-Serif" font-size="10.00"> dIstance</text>
</g>
<!-- Node14 -->
<g id="node14" class="node">
<title>Node14</title>
<g id="a_node14"><a xlink:href="classEntityHandle.html" target="_top" xlink:title=" ">
<polygon fill="white" stroke="black" points="960.5,-165.84 960.5,-184.84 1040.5,-184.84 1040.5,-165.84 960.5,-165.84"/>
<text text-anchor="middle" x="1000.5" y="-172.84" font-family="Helvetica,sans-Serif" font-size="10.00">EntityHandle</text>
</a>
</g>
</g>
<!-- Node14&#45;&gt;Node1 -->
<g id="edge13" class="edge">
<title>Node14&#45;&gt;Node1</title>
<path fill="none" stroke="#9a32cd" stroke-dasharray="5,2" d="M1051.07,-182.71C1089.32,-188.45 1143.54,-196.71 1191,-204.34 1196.72,-205.26 1202.65,-206.22 1208.61,-207.21"/>
<polygon fill="#9a32cd" stroke="#9a32cd" points="1051.13,-179.18 1040.72,-181.16 1050.09,-186.1 1051.13,-179.18"/>
<text text-anchor="middle" x="1156" y="-207.34" font-family="Helvetica,sans-Serif" font-size="10.00"> forFace</text>
</g>
</g>
</svg>
        <g id="navigator" transform="translate(0 0)" fill="#404254">
                <rect fill="#f2f5e9" fill-opacity="0.5" stroke="#606060" stroke-width=".5" x="0" y="0" width="60" height="60"/>
                <use id="zoomplus" xlink:href="#zoomPlus" x="17" y="9" onmousedown="handleZoom(evt,'in')"/>
                <use id="zoomminus" xlink:href="#zoomMin" x="42" y="9" onmousedown="handleZoom(evt,'out')"/>
                <use id="reset" xlink:href="#resetDef" x="30" y="36" onmousedown="handleReset()"/>
                <g id="arrowUp" xlink:href="#dirArrow" transform="translate(30 24)" onmousedown="handlePan(0,-1)">
                  <use xlink:href="#rim" fill="#404040">
                        <set attributeName="fill" to="#808080" begin="arrowUp.mouseover" end="arrowUp.mouseout"/>
                  </use>
                  <path fill="none" stroke="white" stroke-width="1.5" d="M0,-3.0v7 M-2.5,-0.5L0,-3.0L2.5,-0.5"/>
                </g>
                <g id="arrowRight" xlink:href="#dirArrow" transform="rotate(90) translate(36 -43)" onmousedown="handlePan(1,0)">
                  <use xlink:href="#rim" fill="#404040">
                        <set attributeName="fill" to="#808080" begin="arrowRight.mouseover" end="arrowRight.mouseout"/>
                  </use>
                  <path fill="none" stroke="white" stroke-width="1.5" d="M0,-3.0v7 M-2.5,-0.5L0,-3.0L2.5,-0.5"/>
                </g>
                <g id="arrowDown" xlink:href="#dirArrow" transform="rotate(180) translate(-30 -48)" onmousedown="handlePan(0,1)">
                  <use xlink:href="#rim" fill="#404040">
                        <set attributeName="fill" to="#808080" begin="arrowDown.mouseover" end="arrowDown.mouseout"/>
                  </use>
                  <path fill="none" stroke="white" stroke-width="1.5" d="M0,-3.0v7 M-2.5,-0.5L0,-3.0L2.5,-0.5"/>
                </g>
                <g id="arrowLeft" xlink:href="#dirArrow" transform="rotate(270) translate(-36 17)" onmousedown="handlePan(-1,0)">
                  <use xlink:href="#rim" fill="#404040">
                        <set attributeName="fill" to="#808080" begin="arrowLeft.mouseover" end="arrowLeft.mouseout"/>
                  </use>
                  <path fill="none" stroke="white" stroke-width="1.5" d="M0,-3.0v7 M-2.5,-0.5L0,-3.0L2.5,-0.5"/>
                </g>
        </g>
        <svg viewBox="0 0 15 15" width="100%" height="30px" preserveAspectRatio="xMaxYMin meet">
         <g id="arrow_out" transform="scale(0.3 0.3)">
          <a xlink:href="structPeriodicNitscheConstrains_1_1PeriodicVolume__coll__graph_org.svg" target="_base">
           <rect id="button" ry="5" rx="5" y="6" x="6" height="38" width="38"
                fill="#f2f5e9" fill-opacity="0.5" stroke="#606060" stroke-width="1.0"/>
           <path id="arrow"
             d="M 11.500037,31.436501 C 11.940474,20.09759 22.043105,11.32322 32.158766,21.979434 L 37.068811,17.246167 C 37.068811,17.246167 37.088388,32 37.088388,32 L 22.160133,31.978069 C 22.160133,31.978069 26.997745,27.140456 26.997745,27.140456 C 18.528582,18.264221 13.291696,25.230495 11.500037,31.436501 z"
             style="fill:#404040;"/>
          </a>
         </g>
        </svg>
</svg>
