<?xml version="1.0" encoding="UTF-8" standalone="no"?>
<!DOCTYPE svg PUBLIC "-//W3C//DTD SVG 1.1//EN"
 "http://www.w3.org/Graphics/SVG/1.1/DTD/svg11.dtd">
<!-- Generated by graphviz version 9.0.0 (20230911.1827)
 -->
<!-- Title: BCs_RVELagrange_Periodic::OpRVEBCsPeriodicCalCTLam Pages: 1 -->
<!--zoomable 383 -->
<svg id="main" version="1.1" xmlns="http://www.w3.org/2000/svg" xmlns:xlink="http://www.w3.org/1999/xlink" xml:space="preserve" onload="init(evt)">
<style type="text/css"><![CDATA[
.edge:hover path { stroke: red; }
.edge:hover polygon { stroke: red; fill: red; }
]]></style>
<script type="text/javascript"><![CDATA[
var edges = document.getElementsByTagName('g');
if (edges && edges.length) {
  for (var i=0;i<edges.length;i++) {
    if (edges[i].id.substr(0,4)=='edge') {
      edges[i].setAttribute('class','edge');
    }
  }
}
]]></script>
        <defs>
                <circle id="rim" cx="0" cy="0" r="7"/>
                <circle id="rim2" cx="0" cy="0" r="3.5"/>
                <g id="zoomPlus">
                        <use xlink:href="#rim" fill="#404040">
                                <set attributeName="fill" to="#808080" begin="zoomplus.mouseover" end="zoomplus.mouseout"/>
                        </use>
                        <path d="M-4,0h8M0,-4v8" fill="none" stroke="white" stroke-width="1.5" pointer-events="none"/>
                </g>
                <g id="zoomMin">
                        <use xlink:href="#rim" fill="#404040">
                                <set attributeName="fill" to="#808080" begin="zoomminus.mouseover" end="zoomminus.mouseout"/>
                        </use>
                        <path d="M-4,0h8" fill="none" stroke="white" stroke-width="1.5" pointer-events="none"/>
                </g>
                <g id="dirArrow">
                        <path fill="none" stroke="white" stroke-width="1.5" d="M0,-3.0v7 M-2.5,-0.5L0,-3.0L2.5,-0.5"/>
                </g>
               <g id="resetDef">
                       <use xlink:href="#rim2" fill="#404040">
                               <set attributeName="fill" to="#808080" begin="reset.mouseover" end="reset.mouseout"/>
                       </use>
               </g>
        </defs>

<script type="text/javascript">
var viewWidth = 745;
var viewHeight = 383;
var sectionId = 'dynsection-1';
</script>
<script xlink:href="svgpan.js"/>
<svg id="graph" class="graph">
<g id="viewport">
<title>BCs_RVELagrange_Periodic::OpRVEBCsPeriodicCalCTLam</title>
<!-- Node1 -->
<g id="node1" class="node">
<title>Node1</title>
<g id="a_node1"><a xlink:title=" ">
<polygon fill="#999999" stroke="#666666" points="737.25,-202.88 579.5,-202.88 579.5,-172.38 737.25,-172.38 737.25,-202.88"/>
<text text-anchor="start" x="587.5" y="-189.38" font-family="Helvetica,sans-Serif" font-size="10.00">BCs_RVELagrange_Periodic</text>
<text text-anchor="middle" x="658.38" y="-178.12" font-family="Helvetica,sans-Serif" font-size="10.00">::OpRVEBCsPeriodicCalCTLam</text>
</a>
</g>
</g>
<!-- Node2 -->
<g id="node2" class="node">
<title>Node2</title>
<g id="a_node2"><a xlink:title=" ">
<polygon fill="white" stroke="#666666" points="425,-374.88 271.75,-374.88 271.75,-344.38 425,-344.38 425,-374.88"/>
<text text-anchor="start" x="279.75" y="-361.38" font-family="Helvetica,sans-Serif" font-size="10.00">FlatPrismElementForcesAnd</text>
<text text-anchor="middle" x="348.38" y="-350.12" font-family="Helvetica,sans-Serif" font-size="10.00">SurcesCore::UserDataOperator</text>
</a>
</g>
</g>
<!-- Node2&#45;&gt;Node1 -->
<g id="edge1" class="edge">
<title>Node2&#45;&gt;Node1</title>
<path fill="none" stroke="#63b8ff" d="M436.61,-359.9C477.23,-356.41 524.6,-346.88 561.5,-323.62 608.42,-294.05 638.89,-232.34 651.19,-203.33"/>
<polygon fill="#63b8ff" stroke="#63b8ff" points="436.58,-356.39 426.86,-360.62 437.09,-363.38 436.58,-356.39"/>
</g>
<!-- Node3 -->
<g id="node3" class="node">
<title>Node3</title>
<g id="a_node3"><a xlink:title=" ">
<polygon fill="white" stroke="#666666" points="365,-326.25 331.75,-326.25 331.75,-307 365,-307 365,-326.25"/>
<text text-anchor="middle" x="348.38" y="-312.75" font-family="Helvetica,sans-Serif" font-size="10.00">Vec</text>
</a>
</g>
</g>
<!-- Node3&#45;&gt;Node1 -->
<g id="edge2" class="edge">
<title>Node3&#45;&gt;Node1</title>
<path fill="none" stroke="#9a32cd" stroke-dasharray="5,2" d="M376.94,-315.83C418.91,-313.62 500.43,-305.35 561.5,-274.62 596.44,-257.05 628.17,-223.17 644.92,-203.27"/>
<polygon fill="#9a32cd" stroke="#9a32cd" points="376.83,-312.33 366.99,-316.26 377.14,-319.32 376.83,-312.33"/>
<text text-anchor="middle" x="502.25" y="-310.38" font-family="Helvetica,sans-Serif" font-size="10.00"> F</text>
</g>
<!-- Node4 -->
<g id="node4" class="node">
<title>Node4</title>
<g id="a_node4"><a xlink:href="struct_b_cs___r_v_e_lagrange___periodic_1_1_r_v_e_b_c___data___periodic.html" target="_top" xlink:title=" ">
<polygon fill="white" stroke="#666666" points="419.38,-288.88 277.38,-288.88 277.38,-258.38 419.38,-258.38 419.38,-288.88"/>
<text text-anchor="start" x="285.38" y="-275.38" font-family="Helvetica,sans-Serif" font-size="10.00">BCs_RVELagrange_Periodic</text>
<text text-anchor="middle" x="348.38" y="-264.12" font-family="Helvetica,sans-Serif" font-size="10.00">::RVEBC_Data_Periodic</text>
</a>
</g>
</g>
<!-- Node4&#45;&gt;Node1 -->
<g id="edge3" class="edge">
<title>Node4&#45;&gt;Node1</title>
<path fill="none" stroke="#9a32cd" stroke-dasharray="5,2" d="M431.03,-262.7C470.96,-256.13 519.37,-246.35 561.5,-232.62 584.93,-224.99 610.1,-213.02 628.77,-203.35"/>
<polygon fill="#9a32cd" stroke="#9a32cd" points="430.56,-259.23 421.24,-264.27 431.66,-266.14 430.56,-259.23"/>
<text text-anchor="middle" x="502.25" y="-261.38" font-family="Helvetica,sans-Serif" font-size="10.00"> dAta</text>
</g>
<!-- Node5 -->
<g id="node5" class="node">
<title>Node5</title>
<g id="a_node5"><a xlink:href="class_range.html" target="_top" xlink:title=" ">
<polygon fill="white" stroke="#666666" points="96.25,-353.25 51.75,-353.25 51.75,-334 96.25,-334 96.25,-353.25"/>
<text text-anchor="middle" x="74" y="-339.75" font-family="Helvetica,sans-Serif" font-size="10.00">Range</text>
</a>
</g>
</g>
<!-- Node5&#45;&gt;Node4 -->
<g id="edge4" class="edge">
<title>Node5&#45;&gt;Node4</title>
<path fill="none" stroke="#9a32cd" stroke-dasharray="5,2" d="M107.84,-346.95C145.64,-349.19 208.34,-347.92 253.75,-321.62 265.29,-314.94 260.88,-305.34 271.75,-297.62 276.24,-294.44 281.18,-291.66 286.31,-289.24"/>
<polygon fill="#9a32cd" stroke="#9a32cd" points="108.23,-343.47 98.01,-346.24 107.73,-350.45 108.23,-343.47"/>
<text text-anchor="middle" x="209.88" y="-347.38" font-family="Helvetica,sans-Serif" font-size="10.00"> pRisms</text>
</g>
<!-- Node6 -->
<g id="node6" class="node">
<title>Node6</title>
<g id="a_node6"><a xlink:href="classbool.html" target="_top" xlink:title=" ">
<polygon fill="white" stroke="#666666" points="365.38,-240.25 331.38,-240.25 331.38,-221 365.38,-221 365.38,-240.25"/>
<text text-anchor="middle" x="348.38" y="-226.75" font-family="Helvetica,sans-Serif" font-size="10.00">bool</text>
</a>
</g>
</g>
<!-- Node6&#45;&gt;Node1 -->
<g id="edge5" class="edge">
<title>Node6&#45;&gt;Node1</title>
<path fill="none" stroke="#9a32cd" stroke-dasharray="5,2" d="M376.94,-227.2C417.43,-222.12 495.36,-212.16 561.5,-202.62 567.25,-201.8 573.2,-200.92 579.17,-200.02"/>
<polygon fill="#9a32cd" stroke="#9a32cd" points="376.62,-223.71 367.13,-228.43 377.49,-230.66 376.62,-223.71"/>
<text text-anchor="middle" x="502.25" y="-219.38" font-family="Helvetica,sans-Serif" font-size="10.00"> hoGeometry</text>
</g>
<!-- Node7 -->
<g id="node7" class="node">
<title>Node7</title>
<g id="a_node7"><a xlink:href="struct_b_cs___r_v_e_lagrange___periodic_1_1_common_data_periodic.html" target="_top" xlink:title=" ">
<polygon fill="white" stroke="#666666" points="419.38,-202.88 277.38,-202.88 277.38,-172.38 419.38,-172.38 419.38,-202.88"/>
<text text-anchor="start" x="285.38" y="-189.38" font-family="Helvetica,sans-Serif" font-size="10.00">BCs_RVELagrange_Periodic</text>
<text text-anchor="middle" x="348.38" y="-178.12" font-family="Helvetica,sans-Serif" font-size="10.00">::CommonDataPeriodic</text>
</a>
</g>
</g>
<!-- Node7&#45;&gt;Node1 -->
<g id="edge6" class="edge">
<title>Node7&#45;&gt;Node1</title>
<path fill="none" stroke="#9a32cd" stroke-dasharray="5,2" d="M431.05,-187.62C476.87,-187.62 533.74,-187.62 579.01,-187.62"/>
<polygon fill="#9a32cd" stroke="#9a32cd" points="431.16,-184.13 421.16,-187.63 431.16,-191.13 431.16,-184.13"/>
<text text-anchor="middle" x="502.25" y="-189.38" font-family="Helvetica,sans-Serif" font-size="10.00"> commonDataPeriodic</text>
</g>
<!-- Node8 -->
<g id="node8" class="node">
<title>Node8</title>
<g id="a_node8"><a xlink:title=" ">
<polygon fill="white" stroke="#666666" points="133.38,-316.25 14.62,-316.25 14.62,-297 133.38,-297 133.38,-316.25"/>
<text text-anchor="middle" x="74" y="-302.75" font-family="Helvetica,sans-Serif" font-size="10.00">vector&lt; MatrixDouble &gt;</text>
</a>
</g>
</g>
<!-- Node8&#45;&gt;Node7 -->
<g id="edge7" class="edge">
<title>Node8&#45;&gt;Node7</title>
<path fill="none" stroke="#9a32cd" stroke-dasharray="5,2" d="M130.35,-293.72C136.34,-292.11 142.31,-290.39 148,-288.62 195.98,-273.69 216.64,-282.5 253.75,-248.62 267.26,-236.3 257.91,-223.58 271.75,-211.62 275.4,-208.47 279.46,-205.73 283.76,-203.35"/>
<polygon fill="#9a32cd" stroke="#9a32cd" points="129.88,-290.23 121.09,-296.14 131.65,-297 129.88,-290.23"/>
<text text-anchor="middle" x="209.88" y="-284.38" font-family="Helvetica,sans-Serif" font-size="10.00"> D_mat</text>
</g>
<!-- Node9 -->
<g id="node9" class="node">
<title>Node9</title>
<g id="a_node9"><a xlink:title=" ">
<polygon fill="white" stroke="#666666" points="144.25,-279.12 3.75,-279.12 3.75,-226.12 144.25,-226.12 144.25,-279.12"/>
<text text-anchor="start" x="11.75" y="-265.62" font-family="Helvetica,sans-Serif" font-size="10.00">vector&lt; map&lt; EntityType,</text>
<text text-anchor="start" x="11.75" y="-254.38" font-family="Helvetica,sans-Serif" font-size="10.00"> map&lt; int, map&lt; EntityType,</text>
<text text-anchor="start" x="11.75" y="-243.12" font-family="Helvetica,sans-Serif" font-size="10.00"> map&lt; int, MatrixDouble &gt;</text>
<text text-anchor="middle" x="74" y="-231.88" font-family="Helvetica,sans-Serif" font-size="10.00"> &gt; &gt; &gt; &gt;</text>
</a>
</g>
</g>
<!-- Node9&#45;&gt;Node7 -->
<g id="edge8" class="edge">
<title>Node9&#45;&gt;Node7</title>
<path fill="none" stroke="#9a32cd" stroke-dasharray="5,2" d="M155.58,-236.77C186.4,-230.37 221.82,-222.61 253.75,-214.62 267.37,-211.22 282,-207.18 295.55,-203.28"/>
<polygon fill="#9a32cd" stroke="#9a32cd" points="155.02,-233.31 145.93,-238.76 156.43,-240.17 155.02,-233.31"/>
<text text-anchor="middle" x="209.88" y="-235.38" font-family="Helvetica,sans-Serif" font-size="10.00"> Cmat</text>
</g>
<!-- Node10 -->
<g id="node10" class="node">
<title>Node10</title>
<g id="a_node10"><a xlink:title=" ">
<polygon fill="white" stroke="#666666" points="138.62,-208.5 9.38,-208.5 9.38,-166.75 138.62,-166.75 138.62,-208.5"/>
<text text-anchor="start" x="17.38" y="-195" font-family="Helvetica,sans-Serif" font-size="10.00">vector&lt; map&lt; EntityType,</text>
<text text-anchor="start" x="17.38" y="-183.75" font-family="Helvetica,sans-Serif" font-size="10.00"> map&lt; int, ublas::vector</text>
<text text-anchor="middle" x="74" y="-172.5" font-family="Helvetica,sans-Serif" font-size="10.00">&lt; int &gt; &gt; &gt; &gt;</text>
</a>
</g>
</g>
<!-- Node10&#45;&gt;Node7 -->
<g id="edge9" class="edge">
<title>Node10&#45;&gt;Node7</title>
<path fill="none" stroke="#9a32cd" stroke-dasharray="5,2" d="M150.34,-187.62C190.01,-187.62 238.35,-187.62 277.22,-187.62"/>
<polygon fill="#9a32cd" stroke="#9a32cd" points="150.37,-184.13 140.37,-187.63 150.37,-191.13 150.37,-184.13"/>
<text text-anchor="middle" x="209.88" y="-200.62" font-family="Helvetica,sans-Serif" font-size="10.00"> ColInd</text>
<text text-anchor="middle" x="209.88" y="-189.38" font-family="Helvetica,sans-Serif" font-size="10.00">RowInd</text>
</g>
<!-- Node11 -->
<g id="node11" class="node">
<title>Node11</title>
<g id="a_node11"><a xlink:title=" ">
<polygon fill="white" stroke="#666666" points="148,-148.88 0,-148.88 0,-118.38 148,-118.38 148,-148.88"/>
<text text-anchor="start" x="8" y="-135.38" font-family="Helvetica,sans-Serif" font-size="10.00">vector&lt; map&lt; EntityType,</text>
<text text-anchor="middle" x="74" y="-124.12" font-family="Helvetica,sans-Serif" font-size="10.00"> map&lt; int, MatrixDouble &gt; &gt; &gt;</text>
</a>
</g>
</g>
<!-- Node11&#45;&gt;Node7 -->
<g id="edge10" class="edge">
<title>Node11&#45;&gt;Node7</title>
<path fill="none" stroke="#9a32cd" stroke-dasharray="5,2" d="M159.68,-144.47C189.55,-148.87 223.28,-154.5 253.75,-161.12 267.62,-164.14 282.46,-168.03 296.15,-171.9"/>
<polygon fill="#9a32cd" stroke="#9a32cd" points="160.32,-141.03 149.93,-143.06 159.32,-147.96 160.32,-141.03"/>
<text text-anchor="middle" x="209.88" y="-173.62" font-family="Helvetica,sans-Serif" font-size="10.00"> ColN</text>
<text text-anchor="middle" x="209.88" y="-162.38" font-family="Helvetica,sans-Serif" font-size="10.00">RowN</text>
</g>
<!-- Node12 -->
<g id="node12" class="node">
<title>Node12</title>
<g id="a_node12"><a xlink:title=" ">
<polygon fill="white" stroke="#666666" points="128.12,-99.88 19.88,-99.88 19.88,-69.38 128.12,-69.38 128.12,-99.88"/>
<text text-anchor="start" x="27.88" y="-86.38" font-family="Helvetica,sans-Serif" font-size="10.00">vector&lt; ublas::vector</text>
<text text-anchor="middle" x="74" y="-75.12" font-family="Helvetica,sans-Serif" font-size="10.00">&lt; VectorDouble &gt; &gt;</text>
</a>
</g>
</g>
<!-- Node12&#45;&gt;Node7 -->
<g id="edge11" class="edge">
<title>Node12&#45;&gt;Node7</title>
<path fill="none" stroke="#9a32cd" stroke-dasharray="5,2" d="M139.52,-88.09C176.23,-92.96 221.23,-104.14 253.75,-129.38 267.03,-139.68 258.86,-151.84 271.75,-162.62 276.1,-166.26 280.99,-169.38 286.15,-172.04"/>
<polygon fill="#9a32cd" stroke="#9a32cd" points="140.27,-84.66 129.92,-86.95 139.44,-91.61 140.27,-84.66"/>
<text text-anchor="middle" x="209.88" y="-130.38" font-family="Helvetica,sans-Serif" font-size="10.00"> DispAtGaussPts</text>
</g>
<!-- Node13 -->
<g id="node13" class="node">
<title>Node13</title>
<g id="a_node13"><a xlink:title=" ">
<polygon fill="white" stroke="#666666" points="134.12,-51.25 13.88,-51.25 13.88,-32 134.12,-32 134.12,-51.25"/>
<text text-anchor="middle" x="74" y="-37.75" font-family="Helvetica,sans-Serif" font-size="10.00">vector&lt; VectorDouble &gt;</text>
</a>
</g>
</g>
<!-- Node13&#45;&gt;Node7 -->
<g id="edge12" class="edge">
<title>Node13&#45;&gt;Node7</title>
<path fill="none" stroke="#9a32cd" stroke-dasharray="5,2" d="M145.77,-38.29C182.62,-40.43 225.72,-49.64 253.75,-77.38 281.28,-104.61 245.93,-133.76 271.75,-162.62 274.98,-166.23 278.73,-169.32 282.82,-171.96"/>
<polygon fill="#9a32cd" stroke="#9a32cd" points="146.2,-34.81 136.07,-37.9 145.92,-41.8 146.2,-34.81"/>
<text text-anchor="middle" x="209.88" y="-78.38" font-family="Helvetica,sans-Serif" font-size="10.00"> LagMulAtGaussPts</text>
</g>
<!-- Node14 -->
<g id="node14" class="node">
<title>Node14</title>
<g id="a_node14"><a xlink:href="struct_b_cs___r_v_e_lagrange___periodic_1_1_common_functions_periodic.html" target="_top" xlink:title=" ">
<polygon fill="white" stroke="#666666" points="419.38,-153.88 277.38,-153.88 277.38,-123.38 419.38,-123.38 419.38,-153.88"/>
<text text-anchor="start" x="285.38" y="-140.38" font-family="Helvetica,sans-Serif" font-size="10.00">BCs_RVELagrange_Periodic</text>
<text text-anchor="middle" x="348.38" y="-129.12" font-family="Helvetica,sans-Serif" font-size="10.00">::CommonFunctionsPeriodic</text>
</a>
</g>
</g>
<!-- Node14&#45;&gt;Node1 -->
<g id="edge13" class="edge">
<title>Node14&#45;&gt;Node1</title>
<path fill="none" stroke="#9a32cd" stroke-dasharray="5,2" d="M430.76,-151.57C476.63,-158.87 533.64,-167.94 579.01,-175.16"/>
<polygon fill="#9a32cd" stroke="#9a32cd" points="431.57,-148.16 421.15,-150.04 430.47,-155.07 431.57,-148.16"/>
<text text-anchor="middle" x="502.25" y="-173.38" font-family="Helvetica,sans-Serif" font-size="10.00"> commonFunctionsPeriodic</text>
</g>
<!-- Node15 -->
<g id="node15" class="node">
<title>Node15</title>
<g id="a_node15"><a xlink:title=" ">
<polygon fill="white" stroke="#666666" points="402.5,-104.88 294.25,-104.88 294.25,-74.38 402.5,-74.38 402.5,-104.88"/>
<text text-anchor="start" x="302.25" y="-91.38" font-family="Helvetica,sans-Serif" font-size="10.00">vector&lt; ublas::vector</text>
<text text-anchor="middle" x="348.38" y="-80.12" font-family="Helvetica,sans-Serif" font-size="10.00">&lt; int &gt; &gt;</text>
</a>
</g>
</g>
<!-- Node15&#45;&gt;Node1 -->
<g id="edge14" class="edge">
<title>Node15&#45;&gt;Node1</title>
<path fill="none" stroke="#9a32cd" stroke-dasharray="5,2" d="M413.82,-100.12C456.5,-108.11 513.28,-120.76 561.5,-138.38 586.11,-147.36 612.47,-161.25 631.32,-171.99"/>
<polygon fill="#9a32cd" stroke="#9a32cd" points="414.69,-96.72 404.22,-98.36 413.43,-103.61 414.69,-96.72"/>
<text text-anchor="middle" x="502.25" y="-139.38" font-family="Helvetica,sans-Serif" font-size="10.00"> col_ind</text>
</g>
<!-- Node16 -->
<g id="node16" class="node">
<title>Node16</title>
<g id="a_node16"><a xlink:title=" ">
<polygon fill="white" stroke="#666666" points="386,-56.25 310.75,-56.25 310.75,-37 386,-37 386,-56.25"/>
<text text-anchor="middle" x="348.38" y="-42.75" font-family="Helvetica,sans-Serif" font-size="10.00">VectorDouble</text>
</a>
</g>
</g>
<!-- Node16&#45;&gt;Node1 -->
<g id="edge15" class="edge">
<title>Node16&#45;&gt;Node1</title>
<path fill="none" stroke="#9a32cd" stroke-dasharray="5,2" d="M397.77,-45.21C442.8,-45.91 510.43,-52.25 561.5,-80.12 601.89,-102.17 633.75,-148.06 648.47,-172.13"/>
<polygon fill="#9a32cd" stroke="#9a32cd" points="397.8,-41.71 387.79,-45.16 397.77,-48.71 397.8,-41.71"/>
<text text-anchor="middle" x="502.25" y="-92.62" font-family="Helvetica,sans-Serif" font-size="10.00"> fe1</text>
<text text-anchor="middle" x="502.25" y="-81.38" font-family="Helvetica,sans-Serif" font-size="10.00">fe2</text>
</g>
<!-- Node17 -->
<g id="node17" class="node">
<title>Node17</title>
<g id="a_node17"><a xlink:title=" ">
<polygon fill="white" stroke="#666666" points="385.25,-19.25 311.5,-19.25 311.5,0 385.25,0 385.25,-19.25"/>
<text text-anchor="middle" x="348.38" y="-5.75" font-family="Helvetica,sans-Serif" font-size="10.00">MatrixDouble</text>
</a>
</g>
</g>
<!-- Node17&#45;&gt;Node1 -->
<g id="edge16" class="edge">
<title>Node17&#45;&gt;Node1</title>
<path fill="none" stroke="#9a32cd" stroke-dasharray="5,2" d="M396.87,-3.38C442.59,0.18 511.92,-1.14 561.5,-32.38 614.3,-65.64 642.61,-139.64 652.86,-171.99"/>
<polygon fill="#9a32cd" stroke="#9a32cd" points="396.65,0.12 387,-4.26 397.27,-6.85 396.65,0.12"/>
<text text-anchor="middle" x="502.25" y="-34.38" font-family="Helvetica,sans-Serif" font-size="10.00"> N_mat</text>
</g>
</g>
</svg>
        <g id="navigator" transform="translate(0 0)" fill="#404254">
                <rect fill="#f2f5e9" fill-opacity="0.5" stroke="#606060" stroke-width=".5" x="0" y="0" width="60" height="60"/>
                <use id="zoomplus" xlink:href="#zoomPlus" x="17" y="9" onmousedown="handleZoom(evt,'in')"/>
                <use id="zoomminus" xlink:href="#zoomMin" x="42" y="9" onmousedown="handleZoom(evt,'out')"/>
                <use id="reset" xlink:href="#resetDef" x="30" y="36" onmousedown="handleReset()"/>
                <g id="arrowUp" xlink:href="#dirArrow" transform="translate(30 24)" onmousedown="handlePan(0,-1)">
                  <use xlink:href="#rim" fill="#404040">
                        <set attributeName="fill" to="#808080" begin="arrowUp.mouseover" end="arrowUp.mouseout"/>
                  </use>
                  <path fill="none" stroke="white" stroke-width="1.5" d="M0,-3.0v7 M-2.5,-0.5L0,-3.0L2.5,-0.5"/>
                </g>
                <g id="arrowRight" xlink:href="#dirArrow" transform="rotate(90) translate(36 -43)" onmousedown="handlePan(1,0)">
                  <use xlink:href="#rim" fill="#404040">
                        <set attributeName="fill" to="#808080" begin="arrowRight.mouseover" end="arrowRight.mouseout"/>
                  </use>
                  <path fill="none" stroke="white" stroke-width="1.5" d="M0,-3.0v7 M-2.5,-0.5L0,-3.0L2.5,-0.5"/>
                </g>
                <g id="arrowDown" xlink:href="#dirArrow" transform="rotate(180) translate(-30 -48)" onmousedown="handlePan(0,1)">
                  <use xlink:href="#rim" fill="#404040">
                        <set attributeName="fill" to="#808080" begin="arrowDown.mouseover" end="arrowDown.mouseout"/>
                  </use>
                  <path fill="none" stroke="white" stroke-width="1.5" d="M0,-3.0v7 M-2.5,-0.5L0,-3.0L2.5,-0.5"/>
                </g>
                <g id="arrowLeft" xlink:href="#dirArrow" transform="rotate(270) translate(-36 17)" onmousedown="handlePan(-1,0)">
                  <use xlink:href="#rim" fill="#404040">
                        <set attributeName="fill" to="#808080" begin="arrowLeft.mouseover" end="arrowLeft.mouseout"/>
                  </use>
                  <path fill="none" stroke="white" stroke-width="1.5" d="M0,-3.0v7 M-2.5,-0.5L0,-3.0L2.5,-0.5"/>
                </g>
        </g>
        <svg viewBox="0 0 15 15" width="100%" height="30px" preserveAspectRatio="xMaxYMin meet">
         <g id="arrow_out" transform="scale(0.3 0.3)">
          <a xlink:href="struct_b_cs___r_v_e_lagrange___periodic_1_1_op_r_v_e_b_cs_periodic_cal_c_t_lam__coll__graph_org.svg" target="_base">
           <rect id="button" ry="5" rx="5" y="6" x="6" height="38" width="38"
                fill="#f2f5e9" fill-opacity="0.5" stroke="#606060" stroke-width="1.0"/>
           <path id="arrow"
             d="M 11.500037,31.436501 C 11.940474,20.09759 22.043105,11.32322 32.158766,21.979434 L 37.068811,17.246167 C 37.068811,17.246167 37.088388,32 37.088388,32 L 22.160133,31.978069 C 22.160133,31.978069 26.997745,27.140456 26.997745,27.140456 C 18.528582,18.264221 13.291696,25.230495 11.500037,31.436501 z"
             style="fill:#404040;"/>
          </a>
         </g>
        </svg>
</svg>
