<?xml version="1.0" encoding="UTF-8" standalone="no"?>
<!DOCTYPE svg PUBLIC "-//W3C//DTD SVG 1.1//EN"
 "http://www.w3.org/Graphics/SVG/1.1/DTD/svg11.dtd">
<!-- Generated by graphviz version 2.43.0 (0)
 -->
<!-- Title: MoFEM::OpFluxRhsImpl&lt; NaturalMeshsetType&lt; UNKNOWNSET &gt;, 1, FIELD_DIM, A, I, OpBase &gt; Pages: 1 -->
<svg width="544pt" height="203pt"
 viewBox="0.00 0.00 544.00 203.00" xmlns="http://www.w3.org/2000/svg" xmlns:xlink="http://www.w3.org/1999/xlink">
<g id="graph0" class="graph" transform="scale(1 1) rotate(0) translate(4 199)">
<title>MoFEM::OpFluxRhsImpl&lt; NaturalMeshsetType&lt; UNKNOWNSET &gt;, 1, FIELD_DIM, A, I, OpBase &gt;</title>
<polygon fill="white" stroke="transparent" points="-4,4 -4,-199 540,-199 540,4 -4,4"/>
<!-- Node1 -->
<g id="node1" class="node">
<title>Node1</title>
<g id="a_node1"><a xlink:title="Base class for OpFluxRhsImpl&lt;NaturalMeshsetType&lt;T&gt;, 1, FIELD_DIM, A, I, OpBase&gt;">
<polygon fill="#bfbfbf" stroke="black" points="189,-71.5 189,-123.5 346,-123.5 346,-71.5 189,-71.5"/>
<text text-anchor="start" x="197" y="-111.5" font-family="Helvetica,sans-Serif" font-size="10.00">MoFEM::OpFluxRhsImpl</text>
<text text-anchor="start" x="197" y="-100.5" font-family="Helvetica,sans-Serif" font-size="10.00">&lt; NaturalMeshsetType</text>
<text text-anchor="start" x="197" y="-89.5" font-family="Helvetica,sans-Serif" font-size="10.00">&lt; UNKNOWNSET &gt;, 1, FIELD</text>
<text text-anchor="middle" x="267.5" y="-78.5" font-family="Helvetica,sans-Serif" font-size="10.00">_DIM, A, I, OpBase &gt;</text>
</a>
</g>
</g>
<!-- Node3 -->
<g id="node3" class="node">
<title>Node3</title>
<g id="a_node3"><a xlink:href="structMoFEM_1_1OpFluxRhsImpl_3_01NaturalMeshsetType_3_01BLOCKSET_01_4_00_011_00_01FIELD__DIM_00_01A_00_01I_00_01OpBase_01_4.html" target="_top" xlink:title=" ">
<polygon fill="white" stroke="black" points="391,-142.5 391,-194.5 527,-194.5 527,-142.5 391,-142.5"/>
<text text-anchor="start" x="399" y="-182.5" font-family="Helvetica,sans-Serif" font-size="10.00">MoFEM::OpFluxRhsImpl</text>
<text text-anchor="start" x="399" y="-171.5" font-family="Helvetica,sans-Serif" font-size="10.00">&lt; NaturalMeshsetType</text>
<text text-anchor="start" x="399" y="-160.5" font-family="Helvetica,sans-Serif" font-size="10.00">&lt; BLOCKSET &gt;, 1, FIELD</text>
<text text-anchor="middle" x="459" y="-149.5" font-family="Helvetica,sans-Serif" font-size="10.00">_DIM, A, I, OpBase &gt;</text>
</a>
</g>
</g>
<!-- Node1&#45;&gt;Node3 -->
<g id="edge2" class="edge">
<title>Node1&#45;&gt;Node3</title>
<path fill="none" stroke="midnightblue" d="M347.37,-127.05C361.78,-132.45 376.7,-138.04 390.73,-143.3"/>
<polygon fill="midnightblue" stroke="midnightblue" points="348.58,-123.77 337.99,-123.53 346.12,-130.32 348.58,-123.77"/>
</g>
<!-- Node4 -->
<g id="node4" class="node">
<title>Node4</title>
<g id="a_node4"><a xlink:href="structMoFEM_1_1OpFluxRhsImpl_3_01NaturalMeshsetType_3_01FORCESET_01_4_00_011_00_01FIELD__DIM_00_01A_00_01I_00_01OpBase_01_4.html" target="_top" xlink:title=" ">
<polygon fill="white" stroke="black" points="391,-71.5 391,-123.5 527,-123.5 527,-71.5 391,-71.5"/>
<text text-anchor="start" x="399" y="-111.5" font-family="Helvetica,sans-Serif" font-size="10.00">MoFEM::OpFluxRhsImpl</text>
<text text-anchor="start" x="399" y="-100.5" font-family="Helvetica,sans-Serif" font-size="10.00">&lt; NaturalMeshsetType</text>
<text text-anchor="start" x="399" y="-89.5" font-family="Helvetica,sans-Serif" font-size="10.00">&lt; FORCESET &gt;, 1, FIELD</text>
<text text-anchor="middle" x="459" y="-78.5" font-family="Helvetica,sans-Serif" font-size="10.00">_DIM, A, I, OpBase &gt;</text>
</a>
</g>
</g>
<!-- Node1&#45;&gt;Node4 -->
<g id="edge3" class="edge">
<title>Node1&#45;&gt;Node4</title>
<path fill="none" stroke="midnightblue" d="M356.27,-97.5C367.87,-97.5 379.62,-97.5 390.8,-97.5"/>
<polygon fill="midnightblue" stroke="midnightblue" points="356.12,-94 346.12,-97.5 356.12,-101 356.12,-94"/>
</g>
<!-- Node5 -->
<g id="node5" class="node">
<title>Node5</title>
<g id="a_node5"><a xlink:href="structMoFEM_1_1OpFluxRhsImpl_3_01NaturalMeshsetType_3_01PRESSURESET_01_4_00_011_00_01FIELD__DIM_00_01A_00_01I_00_01OpBase_01_4.html" target="_top" xlink:title=" ">
<polygon fill="white" stroke="black" points="382,-0.5 382,-52.5 536,-52.5 536,-0.5 382,-0.5"/>
<text text-anchor="start" x="390" y="-40.5" font-family="Helvetica,sans-Serif" font-size="10.00">MoFEM::OpFluxRhsImpl</text>
<text text-anchor="start" x="390" y="-29.5" font-family="Helvetica,sans-Serif" font-size="10.00">&lt; NaturalMeshsetType</text>
<text text-anchor="start" x="390" y="-18.5" font-family="Helvetica,sans-Serif" font-size="10.00">&lt; PRESSURESET &gt;, 1, FIELD</text>
<text text-anchor="middle" x="459" y="-7.5" font-family="Helvetica,sans-Serif" font-size="10.00">_DIM, A, I, OpBase &gt;</text>
</a>
</g>
</g>
<!-- Node1&#45;&gt;Node5 -->
<g id="edge4" class="edge">
<title>Node1&#45;&gt;Node5</title>
<path fill="none" stroke="midnightblue" d="M347.36,-67.95C361.02,-62.84 375.13,-57.55 388.52,-52.53"/>
<polygon fill="midnightblue" stroke="midnightblue" points="346.12,-64.68 337.99,-71.47 348.58,-71.23 346.12,-64.68"/>
</g>
<!-- Node2 -->
<g id="node2" class="node">
<title>Node2</title>
<g id="a_node2"><a xlink:title=" ">
<polygon fill="white" stroke="#bfbfbf" points="0,-71.5 0,-123.5 153,-123.5 153,-71.5 0,-71.5"/>
<text text-anchor="start" x="8" y="-111.5" font-family="Helvetica,sans-Serif" font-size="10.00">FormsIntegrators::template</text>
<text text-anchor="start" x="8" y="-100.5" font-family="Helvetica,sans-Serif" font-size="10.00"> Assembly&lt; A &gt;::template</text>
<text text-anchor="start" x="8" y="-89.5" font-family="Helvetica,sans-Serif" font-size="10.00"> LinearForm&lt; I &gt;::template</text>
<text text-anchor="middle" x="76.5" y="-78.5" font-family="Helvetica,sans-Serif" font-size="10.00"> OpSource&lt; 1, FIELD_DIM &gt;</text>
</a>
</g>
</g>
<!-- Node2&#45;&gt;Node1 -->
<g id="edge1" class="edge">
<title>Node2&#45;&gt;Node1</title>
<path fill="none" stroke="midnightblue" d="M163.07,-97.5C171.69,-97.5 180.41,-97.5 188.94,-97.5"/>
<polygon fill="midnightblue" stroke="midnightblue" points="163.01,-94 153.01,-97.5 163.01,-101 163.01,-94"/>
</g>
</g>
</svg>
