<?xml version="1.0" encoding="UTF-8" standalone="no"?>
<!DOCTYPE svg PUBLIC "-//W3C//DTD SVG 1.1//EN"
 "http://www.w3.org/Graphics/SVG/1.1/DTD/svg11.dtd">
<!-- Generated by graphviz version 9.0.0 (20230911.1827)
 -->
<!-- Title: EshelbianPlasticity::OpPostProcDataStructure Pages: 1 -->
<svg width="400pt" height="150pt"
 viewBox="0.00 0.00 400.00 149.88" xmlns="http://www.w3.org/2000/svg" xmlns:xlink="http://www.w3.org/1999/xlink">
<g id="graph0" class="graph" transform="scale(1 1) rotate(0) translate(4 145.88)">
<title>EshelbianPlasticity::OpPostProcDataStructure</title>
<!-- Node1 -->
<g id="node1" class="node">
<title>Node1</title>
<g id="a_node1"><a xlink:title=" ">
<polygon fill="#999999" stroke="#666666" points="392,-91.5 256,-91.5 256,-61 392,-61 392,-91.5"/>
<text text-anchor="start" x="264" y="-78" font-family="Helvetica,sans-Serif" font-size="10.00">EshelbianPlasticity</text>
<text text-anchor="middle" x="324" y="-66.75" font-family="Helvetica,sans-Serif" font-size="10.00">::OpPostProcDataStructure</text>
</a>
</g>
</g>
<!-- Node2 -->
<g id="node2" class="node">
<title>Node2</title>
<g id="a_node2"><a xlink:title=" ">
<polygon fill="white" stroke="#666666" points="135.62,-141.88 18.38,-141.88 18.38,-122.62 135.62,-122.62 135.62,-141.88"/>
<text text-anchor="middle" x="77" y="-128.38" font-family="Helvetica,sans-Serif" font-size="10.00">FaceUserDataOperator</text>
</a>
</g>
</g>
<!-- Node2&#45;&gt;Node1 -->
<g id="edge1" class="edge">
<title>Node2&#45;&gt;Node1</title>
<path fill="none" stroke="#63b8ff" d="M147.11,-121.03C175.43,-115.98 208.44,-109.52 238,-102.25 250.14,-99.27 263.1,-95.57 275.16,-91.9"/>
<polygon fill="#63b8ff" stroke="#63b8ff" points="146.83,-117.52 137.59,-122.7 148.05,-124.42 146.83,-117.52"/>
</g>
<!-- Node3 -->
<g id="node3" class="node">
<title>Node3</title>
<g id="a_node3"><a xlink:title=" ">
<polygon fill="white" stroke="#666666" points="109,-104.88 45,-104.88 45,-85.62 109,-85.62 109,-104.88"/>
<text text-anchor="middle" x="77" y="-91.38" font-family="Helvetica,sans-Serif" font-size="10.00">Interface &amp;</text>
</a>
</g>
</g>
<!-- Node3&#45;&gt;Node1 -->
<g id="edge2" class="edge">
<title>Node3&#45;&gt;Node1</title>
<path fill="none" stroke="#9a32cd" stroke-dasharray="5,2" d="M120.45,-91.96C157.63,-89.07 212.32,-84.83 255.5,-81.48"/>
<polygon fill="#9a32cd" stroke="#9a32cd" points="120.24,-88.46 110.54,-92.73 120.78,-95.44 120.24,-88.46"/>
<text text-anchor="middle" x="205" y="-89" font-family="Helvetica,sans-Serif" font-size="10.00"> postProcMesh</text>
</g>
<!-- Node4 -->
<g id="node4" class="node">
<title>Node4</title>
<g id="a_node4"><a xlink:title=" ">
<polygon fill="white" stroke="#666666" points="140.5,-67.88 13.5,-67.88 13.5,-48.62 140.5,-48.62 140.5,-67.88"/>
<text text-anchor="middle" x="77" y="-54.38" font-family="Helvetica,sans-Serif" font-size="10.00">vector&lt; EntityHandle &gt; &amp;</text>
</a>
</g>
</g>
<!-- Node4&#45;&gt;Node1 -->
<g id="edge3" class="edge">
<title>Node4&#45;&gt;Node1</title>
<path fill="none" stroke="#9a32cd" stroke-dasharray="5,2" d="M152.16,-57.79C179.23,-58.2 210.05,-59.34 238,-62 243.81,-62.55 249.82,-63.27 255.84,-64.08"/>
<polygon fill="#9a32cd" stroke="#9a32cd" points="152.37,-54.29 142.33,-57.67 152.28,-61.29 152.37,-54.29"/>
<text text-anchor="middle" x="205" y="-63" font-family="Helvetica,sans-Serif" font-size="10.00"> mapGaussPts</text>
</g>
<!-- Node5 -->
<g id="node5" class="node">
<title>Node5</title>
<g id="a_node5"><a xlink:title=" ">
<polygon fill="white" stroke="#666666" points="154,-30.5 0,-30.5 0,0 154,0 154,-30.5"/>
<text text-anchor="start" x="8" y="-17" font-family="Helvetica,sans-Serif" font-size="10.00">shared_ptr&lt; EshelbianPlasticity</text>
<text text-anchor="middle" x="77" y="-5.75" font-family="Helvetica,sans-Serif" font-size="10.00">::DataAtIntegrationPts &gt;</text>
</a>
</g>
</g>
<!-- Node5&#45;&gt;Node1 -->
<g id="edge4" class="edge">
<title>Node5&#45;&gt;Node1</title>
<path fill="none" stroke="#9a32cd" stroke-dasharray="5,2" d="M165.56,-26.37C189.3,-30.33 214.83,-35.48 238,-42 255.15,-46.83 273.57,-53.99 288.85,-60.51"/>
<polygon fill="#9a32cd" stroke="#9a32cd" points="166.36,-22.95 155.93,-24.81 165.25,-29.86 166.36,-22.95"/>
<text text-anchor="middle" x="205" y="-44" font-family="Helvetica,sans-Serif" font-size="10.00"> dataAtPts</text>
</g>
</g>
</svg>
