<?xml version="1.0" encoding="UTF-8" standalone="no"?>
<!DOCTYPE svg PUBLIC "-//W3C//DTD SVG 1.1//EN"
 "http://www.w3.org/Graphics/SVG/1.1/DTD/svg11.dtd">
<!-- Generated by graphviz version 9.0.0 (20230911.1827)
 -->
<!-- Title: MoFEM::OpSetCovariantPiolaTransformOnFace Pages: 1 -->
<!--zoomable 306 -->
<svg id="main" version="1.1" xmlns="http://www.w3.org/2000/svg" xmlns:xlink="http://www.w3.org/1999/xlink" xml:space="preserve" onload="init(evt)">
<style type="text/css"><![CDATA[
.edge:hover path { stroke: red; }
.edge:hover polygon { stroke: red; fill: red; }
]]></style>
<script type="text/javascript"><![CDATA[
var edges = document.getElementsByTagName('g');
if (edges && edges.length) {
  for (var i=0;i<edges.length;i++) {
    if (edges[i].id.substr(0,4)=='edge') {
      edges[i].setAttribute('class','edge');
    }
  }
}
]]></script>
        <defs>
                <circle id="rim" cx="0" cy="0" r="7"/>
                <circle id="rim2" cx="0" cy="0" r="3.5"/>
                <g id="zoomPlus">
                        <use xlink:href="#rim" fill="#404040">
                                <set attributeName="fill" to="#808080" begin="zoomplus.mouseover" end="zoomplus.mouseout"/>
                        </use>
                        <path d="M-4,0h8M0,-4v8" fill="none" stroke="white" stroke-width="1.5" pointer-events="none"/>
                </g>
                <g id="zoomMin">
                        <use xlink:href="#rim" fill="#404040">
                                <set attributeName="fill" to="#808080" begin="zoomminus.mouseover" end="zoomminus.mouseout"/>
                        </use>
                        <path d="M-4,0h8" fill="none" stroke="white" stroke-width="1.5" pointer-events="none"/>
                </g>
                <g id="dirArrow">
                        <path fill="none" stroke="white" stroke-width="1.5" d="M0,-3.0v7 M-2.5,-0.5L0,-3.0L2.5,-0.5"/>
                </g>
               <g id="resetDef">
                       <use xlink:href="#rim2" fill="#404040">
                               <set attributeName="fill" to="#808080" begin="reset.mouseover" end="reset.mouseout"/>
                       </use>
               </g>
        </defs>

<script type="text/javascript">
var viewWidth = 703;
var viewHeight = 306;
var sectionId = 'dynsection-1';
</script>
<script xlink:href="svgpan.js"/>
<svg id="graph" class="graph">
<g id="viewport">
<title>MoFEM::OpSetCovariantPiolaTransformOnFace</title>
<!-- Node1 -->
<g id="node1" class="node">
<title>Node1</title>
<g id="a_node1"><a xlink:title="transform Hcurl base fluxes from reference element to physical triangle">
<polygon fill="#999999" stroke="#666666" points="694.5,-81.88 546.5,-81.88 546.5,-51.38 694.5,-51.38 694.5,-81.88"/>
<text text-anchor="start" x="554.5" y="-68.38" font-family="Helvetica,sans-Serif" font-size="10.00">MoFEM::OpSetCovariantPiola</text>
<text text-anchor="middle" x="620.5" y="-57.12" font-family="Helvetica,sans-Serif" font-size="10.00">TransformOnFace</text>
</a>
</g>
</g>
<!-- Node2 -->
<g id="node2" class="node">
<title>Node2</title>
<g id="a_node2"><a xlink:href="struct_mo_f_e_m_1_1_data_operator.html" target="_top" xlink:title="base operator to do operations at Gauss Pt. level">
<polygon fill="white" stroke="#666666" points="418.25,-125.25 303.25,-125.25 303.25,-106 418.25,-106 418.25,-125.25"/>
<text text-anchor="middle" x="360.75" y="-111.75" font-family="Helvetica,sans-Serif" font-size="10.00">MoFEM::DataOperator</text>
</a>
</g>
</g>
<!-- Node2&#45;&gt;Node1 -->
<g id="edge1" class="edge">
<title>Node2&#45;&gt;Node1</title>
<path fill="none" stroke="#63b8ff" d="M430.07,-114.25C460.51,-112.53 496.61,-108.94 528.5,-101.62 547.97,-97.16 568.82,-89.37 585.65,-82.28"/>
<polygon fill="#63b8ff" stroke="#63b8ff" points="430.03,-110.75 420.22,-114.75 430.38,-117.74 430.03,-110.75"/>
</g>
<!-- Node3 -->
<g id="node3" class="node">
<title>Node3</title>
<g id="a_node3"><a xlink:title=" ">
<polygon fill="white" stroke="#666666" points="188.5,-298 0,-298 0,-211.25 188.5,-211.25 188.5,-298"/>
<text text-anchor="start" x="8" y="-284.5" font-family="Helvetica,sans-Serif" font-size="10.00">function&lt; MoFEMErrorCode</text>
<text text-anchor="start" x="8" y="-273.25" font-family="Helvetica,sans-Serif" font-size="10.00">(DataOperator *op_ptr,</text>
<text text-anchor="start" x="8" y="-262" font-family="Helvetica,sans-Serif" font-size="10.00"> int row_side, int col_side,</text>
<text text-anchor="start" x="8" y="-250.75" font-family="Helvetica,sans-Serif" font-size="10.00"> EntityType row_type, EntityType</text>
<text text-anchor="start" x="8" y="-239.5" font-family="Helvetica,sans-Serif" font-size="10.00"> col_type, EntitiesFieldData::EntData</text>
<text text-anchor="start" x="8" y="-228.25" font-family="Helvetica,sans-Serif" font-size="10.00"> &amp;row_data, EntitiesFieldData::EntData</text>
<text text-anchor="middle" x="94.25" y="-217" font-family="Helvetica,sans-Serif" font-size="10.00"> &amp;col_data)&gt;</text>
</a>
</g>
</g>
<!-- Node3&#45;&gt;Node2 -->
<g id="edge2" class="edge">
<title>Node3&#45;&gt;Node2</title>
<path fill="none" stroke="#9a32cd" stroke-dasharray="5,2" d="M199.18,-214.56C227.28,-202.36 257.24,-188.05 283.75,-172.62 308.13,-158.44 333.85,-137.77 348.24,-125.61"/>
<polygon fill="#9a32cd" stroke="#9a32cd" points="198.12,-211.21 190.31,-218.37 200.88,-217.64 198.12,-211.21"/>
<text text-anchor="middle" x="245.12" y="-211.38" font-family="Helvetica,sans-Serif" font-size="10.00"> doWorkLhsHook</text>
</g>
<!-- Node4 -->
<g id="node4" class="node">
<title>Node4</title>
<g id="a_node4"><a xlink:title=" ">
<polygon fill="white" stroke="#666666" points="181,-193.12 7.5,-193.12 7.5,-140.12 181,-140.12 181,-193.12"/>
<text text-anchor="start" x="15.5" y="-179.62" font-family="Helvetica,sans-Serif" font-size="10.00">function&lt; MoFEMErrorCode</text>
<text text-anchor="start" x="15.5" y="-168.38" font-family="Helvetica,sans-Serif" font-size="10.00">(DataOperator *op_ptr,</text>
<text text-anchor="start" x="15.5" y="-157.12" font-family="Helvetica,sans-Serif" font-size="10.00"> int side, EntityType type,</text>
<text text-anchor="middle" x="94.25" y="-145.88" font-family="Helvetica,sans-Serif" font-size="10.00"> EntitiesFieldData::EntData &amp;data)&gt;</text>
</a>
</g>
</g>
<!-- Node4&#45;&gt;Node2 -->
<g id="edge3" class="edge">
<title>Node4&#45;&gt;Node2</title>
<path fill="none" stroke="#9a32cd" stroke-dasharray="5,2" d="M192.61,-159.92C222.16,-156.64 254.52,-151.79 283.75,-144.62 302.54,-140.02 322.99,-132.04 337.93,-125.61"/>
<polygon fill="#9a32cd" stroke="#9a32cd" points="192.52,-156.41 182.95,-160.94 193.26,-163.37 192.52,-156.41"/>
<text text-anchor="middle" x="245.12" y="-159.38" font-family="Helvetica,sans-Serif" font-size="10.00"> doWorkRhsHook</text>
</g>
<!-- Node5 -->
<g id="node5" class="node">
<title>Node5</title>
<g id="a_node5"><a xlink:href="classbool.html" target="_top" xlink:title=" ">
<polygon fill="white" stroke="#666666" points="111.25,-74.25 77.25,-74.25 77.25,-55 111.25,-55 111.25,-74.25"/>
<text text-anchor="middle" x="94.25" y="-60.75" font-family="Helvetica,sans-Serif" font-size="10.00">bool</text>
</a>
</g>
</g>
<!-- Node5&#45;&gt;Node2 -->
<g id="edge4" class="edge">
<title>Node5&#45;&gt;Node2</title>
<path fill="none" stroke="#9a32cd" stroke-dasharray="5,2" d="M123.07,-61.15C168.52,-55.99 256.36,-48.27 283.75,-61.88 295.61,-67.77 291.62,-77.09 301.75,-85.62 311.46,-93.8 323.78,-100.57 334.56,-105.59"/>
<polygon fill="#9a32cd" stroke="#9a32cd" points="122.75,-57.67 113.23,-62.31 123.57,-64.62 122.75,-57.67"/>
<text text-anchor="middle" x="245.12" y="-130.88" font-family="Helvetica,sans-Serif" font-size="10.00"> doEdges</text>
<text text-anchor="middle" x="245.12" y="-119.62" font-family="Helvetica,sans-Serif" font-size="10.00">doPrisms</text>
<text text-anchor="middle" x="245.12" y="-108.38" font-family="Helvetica,sans-Serif" font-size="10.00">doQuads</text>
<text text-anchor="middle" x="245.12" y="-97.12" font-family="Helvetica,sans-Serif" font-size="10.00">doTets</text>
<text text-anchor="middle" x="245.12" y="-85.88" font-family="Helvetica,sans-Serif" font-size="10.00">doTris</text>
<text text-anchor="middle" x="245.12" y="-74.62" font-family="Helvetica,sans-Serif" font-size="10.00">doVertices</text>
<text text-anchor="middle" x="245.12" y="-63.38" font-family="Helvetica,sans-Serif" font-size="10.00">sYmm</text>
</g>
<!-- Node6 -->
<g id="node6" class="node">
<title>Node6</title>
<g id="a_node6"><a xlink:title=" ">
<polygon fill="white" stroke="#666666" points="165.62,-37.25 22.88,-37.25 22.88,-18 165.62,-18 165.62,-37.25"/>
<text text-anchor="middle" x="94.25" y="-23.75" font-family="Helvetica,sans-Serif" font-size="10.00">array&lt; bool, MBMAXTYPE &gt;</text>
</a>
</g>
</g>
<!-- Node6&#45;&gt;Node2 -->
<g id="edge5" class="edge">
<title>Node6&#45;&gt;Node2</title>
<path fill="none" stroke="#9a32cd" stroke-dasharray="5,2" d="M151.12,-15.85C191.74,-10.58 245.99,-10.74 283.75,-38.38 301.88,-51.65 286.79,-68.86 301.75,-85.62 309.53,-94.34 320.43,-100.89 330.69,-105.62"/>
<polygon fill="#9a32cd" stroke="#9a32cd" points="150.67,-12.38 141.28,-17.28 151.68,-19.3 150.67,-12.38"/>
<text text-anchor="middle" x="245.12" y="-40.38" font-family="Helvetica,sans-Serif" font-size="10.00"> doEntities</text>
</g>
<!-- Node7 -->
<g id="node7" class="node">
<title>Node7</title>
<g id="a_node7"><a xlink:href="class_u_blas_vector_3_01double_01_4.html" target="_top" xlink:title=" ">
<polygon fill="white" stroke="#666666" points="419.75,-76.25 301.75,-76.25 301.75,-57 419.75,-57 419.75,-76.25"/>
<text text-anchor="middle" x="360.75" y="-62.75" font-family="Helvetica,sans-Serif" font-size="10.00">UBlasVector&lt; double &gt;</text>
</a>
</g>
</g>
<!-- Node7&#45;&gt;Node1 -->
<g id="edge6" class="edge">
<title>Node7&#45;&gt;Node1</title>
<path fill="none" stroke="#9a32cd" stroke-dasharray="5,2" d="M431.47,-66.62C466.93,-66.62 510.03,-66.62 546.01,-66.62"/>
<polygon fill="#9a32cd" stroke="#9a32cd" points="431.75,-63.13 421.75,-66.63 431.75,-70.13 431.75,-63.13"/>
<text text-anchor="middle" x="483.12" y="-90.88" font-family="Helvetica,sans-Serif" font-size="10.00"> nOrmal</text>
<text text-anchor="middle" x="483.12" y="-79.62" font-family="Helvetica,sans-Serif" font-size="10.00">tAngent0</text>
<text text-anchor="middle" x="483.12" y="-68.38" font-family="Helvetica,sans-Serif" font-size="10.00">tAngent1</text>
</g>
<!-- Node8 -->
<g id="node8" class="node">
<title>Node8</title>
<g id="a_node8"><a xlink:href="class_u_blas_matrix_3_01double_01_4.html" target="_top" xlink:title=" ">
<polygon fill="white" stroke="#666666" points="419,-19.25 302.5,-19.25 302.5,0 419,0 419,-19.25"/>
<text text-anchor="middle" x="360.75" y="-5.75" font-family="Helvetica,sans-Serif" font-size="10.00">UBlasMatrix&lt; double &gt;</text>
</a>
</g>
</g>
<!-- Node8&#45;&gt;Node1 -->
<g id="edge7" class="edge">
<title>Node8&#45;&gt;Node1</title>
<path fill="none" stroke="#9a32cd" stroke-dasharray="5,2" d="M430.55,-13.25C460.93,-15.95 496.86,-20.66 528.5,-28.88 548.86,-34.16 570.67,-43.08 587.82,-50.93"/>
<polygon fill="#9a32cd" stroke="#9a32cd" points="430.96,-9.77 420.71,-12.43 430.38,-16.74 430.96,-9.77"/>
<text text-anchor="middle" x="483.12" y="-53.88" font-family="Helvetica,sans-Serif" font-size="10.00"> normalsAtGaussPts</text>
<text text-anchor="middle" x="483.12" y="-42.62" font-family="Helvetica,sans-Serif" font-size="10.00">tangent0AtGaussPt</text>
<text text-anchor="middle" x="483.12" y="-31.38" font-family="Helvetica,sans-Serif" font-size="10.00">tangent1AtGaussPt</text>
</g>
</g>
</svg>
        <g id="navigator" transform="translate(0 0)" fill="#404254">
                <rect fill="#f2f5e9" fill-opacity="0.5" stroke="#606060" stroke-width=".5" x="0" y="0" width="60" height="60"/>
                <use id="zoomplus" xlink:href="#zoomPlus" x="17" y="9" onmousedown="handleZoom(evt,'in')"/>
                <use id="zoomminus" xlink:href="#zoomMin" x="42" y="9" onmousedown="handleZoom(evt,'out')"/>
                <use id="reset" xlink:href="#resetDef" x="30" y="36" onmousedown="handleReset()"/>
                <g id="arrowUp" xlink:href="#dirArrow" transform="translate(30 24)" onmousedown="handlePan(0,-1)">
                  <use xlink:href="#rim" fill="#404040">
                        <set attributeName="fill" to="#808080" begin="arrowUp.mouseover" end="arrowUp.mouseout"/>
                  </use>
                  <path fill="none" stroke="white" stroke-width="1.5" d="M0,-3.0v7 M-2.5,-0.5L0,-3.0L2.5,-0.5"/>
                </g>
                <g id="arrowRight" xlink:href="#dirArrow" transform="rotate(90) translate(36 -43)" onmousedown="handlePan(1,0)">
                  <use xlink:href="#rim" fill="#404040">
                        <set attributeName="fill" to="#808080" begin="arrowRight.mouseover" end="arrowRight.mouseout"/>
                  </use>
                  <path fill="none" stroke="white" stroke-width="1.5" d="M0,-3.0v7 M-2.5,-0.5L0,-3.0L2.5,-0.5"/>
                </g>
                <g id="arrowDown" xlink:href="#dirArrow" transform="rotate(180) translate(-30 -48)" onmousedown="handlePan(0,1)">
                  <use xlink:href="#rim" fill="#404040">
                        <set attributeName="fill" to="#808080" begin="arrowDown.mouseover" end="arrowDown.mouseout"/>
                  </use>
                  <path fill="none" stroke="white" stroke-width="1.5" d="M0,-3.0v7 M-2.5,-0.5L0,-3.0L2.5,-0.5"/>
                </g>
                <g id="arrowLeft" xlink:href="#dirArrow" transform="rotate(270) translate(-36 17)" onmousedown="handlePan(-1,0)">
                  <use xlink:href="#rim" fill="#404040">
                        <set attributeName="fill" to="#808080" begin="arrowLeft.mouseover" end="arrowLeft.mouseout"/>
                  </use>
                  <path fill="none" stroke="white" stroke-width="1.5" d="M0,-3.0v7 M-2.5,-0.5L0,-3.0L2.5,-0.5"/>
                </g>
        </g>
        <svg viewBox="0 0 15 15" width="100%" height="30px" preserveAspectRatio="xMaxYMin meet">
         <g id="arrow_out" transform="scale(0.3 0.3)">
          <a xlink:href="struct_mo_f_e_m_1_1_op_set_covariant_piola_transform_on_face__coll__graph_org.svg" target="_base">
           <rect id="button" ry="5" rx="5" y="6" x="6" height="38" width="38"
                fill="#f2f5e9" fill-opacity="0.5" stroke="#606060" stroke-width="1.0"/>
           <path id="arrow"
             d="M 11.500037,31.436501 C 11.940474,20.09759 22.043105,11.32322 32.158766,21.979434 L 37.068811,17.246167 C 37.068811,17.246167 37.088388,32 37.088388,32 L 22.160133,31.978069 C 22.160133,31.978069 26.997745,27.140456 26.997745,27.140456 C 18.528582,18.264221 13.291696,25.230495 11.500037,31.436501 z"
             style="fill:#404040;"/>
          </a>
         </g>
        </svg>
</svg>
