<?xml version="1.0" encoding="UTF-8" standalone="no"?>
<!DOCTYPE svg PUBLIC "-//W3C//DTD SVG 1.1//EN"
 "http://www.w3.org/Graphics/SVG/1.1/DTD/svg11.dtd">
<!-- Generated by graphviz version 9.0.0 (20230911.1827)
 -->
<!-- Title: MoFEM::Exceptions::MoFEMExceptionInitial Pages: 1 -->
<svg width="284pt" height="240pt"
 viewBox="0.00 0.00 283.50 240.00" xmlns="http://www.w3.org/2000/svg" xmlns:xlink="http://www.w3.org/1999/xlink">
<g id="graph0" class="graph" transform="scale(1 1) rotate(0) translate(4 236)">
<title>MoFEM::Exceptions::MoFEMExceptionInitial</title>
<!-- Node1 -->
<g id="node1" class="node">
<title>Node1</title>
<g id="a_node1"><a xlink:title=" ">
<polygon fill="#999999" stroke="#666666" points="271.38,-30.5 154.12,-30.5 154.12,0 271.38,0 271.38,-30.5"/>
<text text-anchor="start" x="162.12" y="-17" font-family="Helvetica,sans-Serif" font-size="10.00">MoFEM::Exceptions::</text>
<text text-anchor="middle" x="212.75" y="-5.75" font-family="Helvetica,sans-Serif" font-size="10.00">MoFEMExceptionInitial</text>
</a>
</g>
</g>
<!-- Node2 -->
<g id="node2" class="node">
<title>Node2</title>
<g id="a_node2"><a xlink:href="struct_mo_f_e_m_1_1_exceptions_1_1_mo_f_e_m_exception_repeat.html" target="_top" xlink:title=" ">
<polygon fill="white" stroke="#666666" points="275.5,-98 150,-98 150,-67.5 275.5,-67.5 275.5,-98"/>
<text text-anchor="start" x="158" y="-84.5" font-family="Helvetica,sans-Serif" font-size="10.00">MoFEM::Exceptions::</text>
<text text-anchor="middle" x="212.75" y="-73.25" font-family="Helvetica,sans-Serif" font-size="10.00">MoFEMExceptionRepeat</text>
</a>
</g>
</g>
<!-- Node2&#45;&gt;Node1 -->
<g id="edge1" class="edge">
<title>Node2&#45;&gt;Node1</title>
<path fill="none" stroke="#63b8ff" d="M212.75,-55.84C212.75,-47.3 212.75,-38.12 212.75,-30.75"/>
<polygon fill="#63b8ff" stroke="#63b8ff" points="209.25,-55.7 212.75,-65.7 216.25,-55.7 209.25,-55.7"/>
</g>
<!-- Node3 -->
<g id="node3" class="node">
<title>Node3</title>
<g id="a_node3"><a xlink:href="struct_mo_f_e_m_1_1_exceptions_1_1_mo_f_e_m_exception.html" target="_top" xlink:title="Exception to catch.">
<polygon fill="white" stroke="#666666" points="195.38,-165.5 84.12,-165.5 84.12,-135 195.38,-135 195.38,-165.5"/>
<text text-anchor="start" x="92.12" y="-152" font-family="Helvetica,sans-Serif" font-size="10.00">MoFEM::Exceptions::</text>
<text text-anchor="middle" x="139.75" y="-140.75" font-family="Helvetica,sans-Serif" font-size="10.00">MoFEMException</text>
</a>
</g>
</g>
<!-- Node3&#45;&gt;Node2 -->
<g id="edge2" class="edge">
<title>Node3&#45;&gt;Node2</title>
<path fill="none" stroke="#63b8ff" d="M164.36,-127.17C174.9,-117.71 186.92,-106.93 196.34,-98.47"/>
<polygon fill="#63b8ff" stroke="#63b8ff" points="162.18,-124.42 157.08,-133.7 166.86,-129.63 162.18,-124.42"/>
</g>
<!-- Node4 -->
<g id="node4" class="node">
<title>Node4</title>
<g id="a_node4"><a xlink:title=" ">
<polygon fill="white" stroke="#666666" points="77.5,-232 0,-232 0,-212.75 77.5,-212.75 77.5,-232"/>
<text text-anchor="middle" x="38.75" y="-218.5" font-family="Helvetica,sans-Serif" font-size="10.00">std::exception</text>
</a>
</g>
</g>
<!-- Node4&#45;&gt;Node3 -->
<g id="edge3" class="edge">
<title>Node4&#45;&gt;Node3</title>
<path fill="none" stroke="#63b8ff" d="M60.8,-206.06C77.98,-194.13 101.69,-177.68 118.63,-165.92"/>
<polygon fill="#63b8ff" stroke="#63b8ff" points="59,-203.05 52.78,-211.63 63,-208.8 59,-203.05"/>
</g>
<!-- Node5 -->
<g id="node5" class="node">
<title>Node5</title>
<g id="a_node5"><a xlink:title=" ">
<polygon fill="white" stroke="#666666" points="242.15,-232 213.35,-232 213.35,-212.75 242.15,-212.75 242.15,-232"/>
<text text-anchor="middle" x="227.75" y="-218.5" font-family="Helvetica,sans-Serif" font-size="10.00">int</text>
</a>
</g>
</g>
<!-- Node5&#45;&gt;Node2 -->
<g id="edge6" class="edge">
<title>Node5&#45;&gt;Node2</title>
<path fill="none" stroke="#9a32cd" stroke-dasharray="5,2" d="M240.59,-202.79C241.88,-200.19 243,-197.47 243.75,-194.75 245.09,-189.93 244.5,-188.44 243.75,-183.5 239.01,-152.3 226.39,-117.43 218.8,-98.29"/>
<polygon fill="#9a32cd" stroke="#9a32cd" points="237.64,-200.91 235.48,-211.28 243.63,-204.52 237.64,-200.91"/>
<text text-anchor="middle" x="251" y="-146.38" font-family="Helvetica,sans-Serif" font-size="10.00"> lINE</text>
</g>
<!-- Node5&#45;&gt;Node3 -->
<g id="edge4" class="edge">
<title>Node5&#45;&gt;Node3</title>
<path fill="none" stroke="#9a32cd" stroke-dasharray="5,2" d="M207.69,-205.39C192.8,-193.52 172.64,-177.46 158.16,-165.92"/>
<polygon fill="#9a32cd" stroke="#9a32cd" points="205.42,-208.06 215.42,-211.55 209.78,-202.58 205.42,-208.06"/>
<text text-anchor="middle" x="216.62" y="-185.25" font-family="Helvetica,sans-Serif" font-size="10.00"> errorCode</text>
</g>
<!-- Node6 -->
<g id="node6" class="node">
<title>Node6</title>
<g id="a_node6"><a xlink:title=" ">
<polygon fill="white" stroke="#666666" points="130.12,-232 95.38,-232 95.38,-212.75 130.12,-212.75 130.12,-232"/>
<text text-anchor="middle" x="112.75" y="-218.5" font-family="Helvetica,sans-Serif" font-size="10.00">char</text>
</a>
</g>
</g>
<!-- Node6&#45;&gt;Node3 -->
<g id="edge5" class="edge">
<title>Node6&#45;&gt;Node3</title>
<path fill="none" stroke="#9a32cd" stroke-dasharray="5,2" d="M110.72,-201.31C110.76,-195.42 111.46,-189.07 113.5,-183.5 115.84,-177.13 120,-171.09 124.33,-165.99"/>
<polygon fill="#9a32cd" stroke="#9a32cd" points="107.2,-201.04 111.23,-210.84 114.19,-200.66 107.2,-201.04"/>
<text text-anchor="middle" x="143.88" y="-185.25" font-family="Helvetica,sans-Serif" font-size="10.00"> errorMessage</text>
</g>
</g>
</svg>
