<?xml version="1.0" encoding="UTF-8" standalone="no"?>
<!DOCTYPE svg PUBLIC "-//W3C//DTD SVG 1.1//EN"
 "http://www.w3.org/Graphics/SVG/1.1/DTD/svg11.dtd">
<!-- Generated by graphviz version 2.43.0 (0)
 -->
<!-- Title: PhotonDiffusion Pages: 1 -->
<svg width="1492pt" height="212pt"
 viewBox="0.00 0.00 1492.00 211.50" xmlns="http://www.w3.org/2000/svg" xmlns:xlink="http://www.w3.org/1999/xlink">
<g id="graph0" class="graph" transform="scale(1 1) rotate(0) translate(4 207.5)">
<title>PhotonDiffusion</title>
<polygon fill="white" stroke="transparent" points="-4,4 -4,-207.5 1488,-207.5 1488,4 -4,4"/>
<!-- Node1 -->
<g id="node1" class="node">
<title>Node1</title>
<g id="a_node1"><a xlink:title=" ">
<polygon fill="#bfbfbf" stroke="black" points="1390,-72 1390,-91 1484,-91 1484,-72 1390,-72"/>
<text text-anchor="middle" x="1437" y="-79" font-family="Helvetica,sans-Serif" font-size="10.00">PhotonDiffusion</text>
</a>
</g>
</g>
<!-- Node2 -->
<g id="node2" class="node">
<title>Node2</title>
<g id="a_node2"><a xlink:href="structMoFEM_1_1DeprecatedCoreInterface.html" target="_top" xlink:title="Deprecated interface functions.">
<polygon fill="white" stroke="black" points="1082,-150 1082,-169 1263,-169 1263,-150 1082,-150"/>
<text text-anchor="middle" x="1172.5" y="-157" font-family="Helvetica,sans-Serif" font-size="10.00">MoFEM::DeprecatedCoreInterface</text>
</a>
</g>
</g>
<!-- Node2&#45;&gt;Node1 -->
<g id="edge1" class="edge">
<title>Node2&#45;&gt;Node1</title>
<path fill="none" stroke="#9a32cd" stroke-dasharray="5,2" d="M1273.21,-157.19C1305.73,-153.65 1341.33,-146.69 1372,-133.5 1394.88,-123.66 1416.23,-103.17 1427.55,-91.06"/>
<polygon fill="#9a32cd" stroke="#9a32cd" points="1272.83,-153.71 1263.23,-158.18 1273.53,-160.67 1272.83,-153.71"/>
<text text-anchor="middle" x="1326.5" y="-158.5" font-family="Helvetica,sans-Serif" font-size="10.00"> mField</text>
</g>
<!-- Node3 -->
<g id="node3" class="node">
<title>Node3</title>
<g id="a_node3"><a xlink:href="structMoFEM_1_1CoreInterface.html" target="_top" xlink:title="Interface.">
<polygon fill="white" stroke="black" points="920,-150 920,-169 1045,-169 1045,-150 920,-150"/>
<text text-anchor="middle" x="982.5" y="-157" font-family="Helvetica,sans-Serif" font-size="10.00">MoFEM::CoreInterface</text>
</a>
</g>
</g>
<!-- Node3&#45;&gt;Node2 -->
<g id="edge2" class="edge">
<title>Node3&#45;&gt;Node2</title>
<path fill="none" stroke="midnightblue" d="M1055.16,-159.5C1063.89,-159.5 1072.89,-159.5 1081.84,-159.5"/>
<polygon fill="midnightblue" stroke="midnightblue" points="1055.06,-156 1045.06,-159.5 1055.06,-163 1055.06,-156"/>
</g>
<!-- Node4 -->
<g id="node4" class="node">
<title>Node4</title>
<g id="a_node4"><a xlink:href="structMoFEM_1_1UnknownInterface.html" target="_top" xlink:title="base class for all interface classes">
<polygon fill="white" stroke="black" points="735,-150 735,-169 883,-169 883,-150 735,-150"/>
<text text-anchor="middle" x="809" y="-157" font-family="Helvetica,sans-Serif" font-size="10.00">MoFEM::UnknownInterface</text>
</a>
</g>
</g>
<!-- Node4&#45;&gt;Node3 -->
<g id="edge3" class="edge">
<title>Node4&#45;&gt;Node3</title>
<path fill="none" stroke="midnightblue" d="M893.29,-159.5C902.24,-159.5 911.22,-159.5 919.85,-159.5"/>
<polygon fill="midnightblue" stroke="midnightblue" points="893.23,-156 883.23,-159.5 893.23,-163 893.23,-156"/>
</g>
<!-- Node5 -->
<g id="node5" class="node">
<title>Node5</title>
<g id="a_node5"><a xlink:title=" ">
<polygon fill="white" stroke="#bfbfbf" points="386,-128 386,-191 627,-191 627,-128 386,-128"/>
<text text-anchor="start" x="394" y="-179" font-family="Helvetica,sans-Serif" font-size="10.00">multi_index_container</text>
<text text-anchor="start" x="394" y="-168" font-family="Helvetica,sans-Serif" font-size="10.00">&lt; UIdTypeMap, indexed</text>
<text text-anchor="start" x="394" y="-157" font-family="Helvetica,sans-Serif" font-size="10.00">_by&lt; hashed_unique&lt; member</text>
<text text-anchor="start" x="394" y="-146" font-family="Helvetica,sans-Serif" font-size="10.00">&lt; UIdTypeMap, boost::typeindex</text>
<text text-anchor="middle" x="506.5" y="-135" font-family="Helvetica,sans-Serif" font-size="10.00">::type_index, &amp;UIdTypeMap::classIdx &gt; &gt; &gt; &gt;</text>
</a>
</g>
</g>
<!-- Node5&#45;&gt;Node4 -->
<g id="edge4" class="edge">
<title>Node5&#45;&gt;Node4</title>
<path fill="none" stroke="#9a32cd" stroke-dasharray="5,2" d="M637.41,-159.5C670.69,-159.5 705.33,-159.5 734.62,-159.5"/>
<polygon fill="#9a32cd" stroke="#9a32cd" points="637.13,-156 627.13,-159.5 637.13,-163 637.13,-156"/>
<text text-anchor="middle" x="681" y="-162.5" font-family="Helvetica,sans-Serif" font-size="10.00"> iFaceTypeMap</text>
</g>
<!-- Node6 -->
<g id="node6" class="node">
<title>Node6</title>
<g id="a_node6"><a xlink:title=" ">
<polygon fill="white" stroke="#bfbfbf" points="0,-150 0,-169 125,-169 125,-150 0,-150"/>
<text text-anchor="middle" x="62.5" y="-157" font-family="Helvetica,sans-Serif" font-size="10.00">multi_index_container</text>
</a>
</g>
</g>
<!-- Node6&#45;&gt;Node5 -->
<g id="edge5" class="edge">
<title>Node6&#45;&gt;Node5</title>
<path fill="none" stroke="orange" stroke-dasharray="5,2" d="M135.56,-159.5C203.25,-159.5 305.79,-159.5 385.77,-159.5"/>
<polygon fill="orange" stroke="orange" points="135.42,-156 125.42,-159.5 135.42,-163 135.42,-156"/>
<text text-anchor="start" x="143" y="-195.5" font-family="Helvetica,sans-Serif" font-size="10.00"> &lt; UIdTypeMap, indexed</text>
<text text-anchor="start" x="143" y="-184.5" font-family="Helvetica,sans-Serif" font-size="10.00">_by&lt; hashed_unique&lt; member</text>
<text text-anchor="start" x="143" y="-173.5" font-family="Helvetica,sans-Serif" font-size="10.00">&lt; UIdTypeMap, boost::typeindex</text>
<text text-anchor="middle" x="255.5" y="-162.5" font-family="Helvetica,sans-Serif" font-size="10.00">::type_index, &amp;UIdTypeMap::classIdx &gt; &gt; &gt; &gt;</text>
</g>
<!-- Node7 -->
<g id="node7" class="node">
<title>Node7</title>
<g id="a_node7"><a xlink:title=" ">
<polygon fill="white" stroke="#bfbfbf" points="1102.5,-99 1102.5,-118 1242.5,-118 1242.5,-99 1102.5,-99"/>
<text text-anchor="middle" x="1172.5" y="-106" font-family="Helvetica,sans-Serif" font-size="10.00">shared_ptr&lt; FEMethod &gt;</text>
</a>
</g>
</g>
<!-- Node7&#45;&gt;Node1 -->
<g id="edge6" class="edge">
<title>Node7&#45;&gt;Node1</title>
<path fill="none" stroke="#9a32cd" stroke-dasharray="5,2" d="M1252.8,-100.34C1297.62,-95.73 1352.08,-90.13 1389.92,-86.24"/>
<polygon fill="#9a32cd" stroke="#9a32cd" points="1252.4,-96.87 1242.81,-101.37 1253.12,-103.83 1252.4,-96.87"/>
<text text-anchor="middle" x="1326.5" y="-121.5" font-family="Helvetica,sans-Serif" font-size="10.00"> boundaryLhsFEPtr</text>
<text text-anchor="middle" x="1326.5" y="-110.5" font-family="Helvetica,sans-Serif" font-size="10.00">boundaryRhsFEPtr</text>
<text text-anchor="middle" x="1326.5" y="-99.5" font-family="Helvetica,sans-Serif" font-size="10.00">domainLhsFEPtr</text>
</g>
<!-- Node8 -->
<g id="node8" class="node">
<title>Node8</title>
<g id="a_node8"><a xlink:title=" ">
<polygon fill="white" stroke="#bfbfbf" points="1107,-49.5 1107,-79.5 1238,-79.5 1238,-49.5 1107,-49.5"/>
<text text-anchor="start" x="1115" y="-67.5" font-family="Helvetica,sans-Serif" font-size="10.00">shared_ptr&lt; std::vector</text>
<text text-anchor="middle" x="1172.5" y="-56.5" font-family="Helvetica,sans-Serif" font-size="10.00">&lt; unsigned char &gt; &gt;</text>
</a>
</g>
</g>
<!-- Node8&#45;&gt;Node1 -->
<g id="edge7" class="edge">
<title>Node8&#45;&gt;Node1</title>
<path fill="none" stroke="#9a32cd" stroke-dasharray="5,2" d="M1248.29,-64.29C1285.55,-64.81 1331.24,-66.4 1372,-70.5 1377.83,-71.09 1383.94,-71.89 1389.96,-72.79"/>
<polygon fill="#9a32cd" stroke="#9a32cd" points="1248.05,-60.79 1238.01,-64.17 1247.97,-67.79 1248.05,-60.79"/>
<text text-anchor="middle" x="1326.5" y="-73.5" font-family="Helvetica,sans-Serif" font-size="10.00"> boundaryMarker</text>
</g>
<!-- Node9 -->
<g id="node9" class="node">
<title>Node9</title>
<g id="a_node9"><a xlink:title=" ">
<polygon fill="white" stroke="#bfbfbf" points="1094,-0.5 1094,-30.5 1251,-30.5 1251,-0.5 1094,-0.5"/>
<text text-anchor="start" x="1102" y="-18.5" font-family="Helvetica,sans-Serif" font-size="10.00">shared_ptr&lt; PhotonDiffusion</text>
<text text-anchor="middle" x="1172.5" y="-7.5" font-family="Helvetica,sans-Serif" font-size="10.00">::CommonData &gt;</text>
</a>
</g>
</g>
<!-- Node9&#45;&gt;Node1 -->
<g id="edge8" class="edge">
<title>Node9&#45;&gt;Node1</title>
<path fill="none" stroke="#9a32cd" stroke-dasharray="5,2" d="M1261.33,-24.88C1296.33,-30.08 1336.62,-37.91 1372,-49.5 1389.24,-55.15 1407.63,-64.76 1420.25,-71.98"/>
<polygon fill="#9a32cd" stroke="#9a32cd" points="1261.53,-21.37 1251.13,-23.42 1260.53,-28.3 1261.53,-21.37"/>
<text text-anchor="middle" x="1326.5" y="-52.5" font-family="Helvetica,sans-Serif" font-size="10.00"> commonDataPtr</text>
</g>
</g>
</svg>
