<?xml version="1.0" encoding="UTF-8" standalone="no"?>
<!DOCTYPE svg PUBLIC "-//W3C//DTD SVG 1.1//EN"
 "http://www.w3.org/Graphics/SVG/1.1/DTD/svg11.dtd">
<!-- Generated by graphviz version 2.43.0 (0)
 -->
<!-- Title: TSElasticPostStep Pages: 1 -->
<svg width="719pt" height="229pt"
 viewBox="0.00 0.00 719.00 229.00" xmlns="http://www.w3.org/2000/svg" xmlns:xlink="http://www.w3.org/1999/xlink">
<g id="graph0" class="graph" transform="scale(1 1) rotate(0) translate(4 225)">
<title>TSElasticPostStep</title>
<polygon fill="white" stroke="transparent" points="-4,4 -4,-225 715,-225 715,4 -4,4"/>
<!-- Node1 -->
<g id="node1" class="node">
<title>Node1</title>
<g id="a_node1"><a xlink:title=" ">
<polygon fill="#bfbfbf" stroke="black" points="607,-88.5 607,-107.5 711,-107.5 711,-88.5 607,-88.5"/>
<text text-anchor="middle" x="659" y="-95.5" font-family="Helvetica,sans-Serif" font-size="10.00">TSElasticPostStep</text>
</a>
</g>
</g>
<!-- Node2 -->
<g id="node2" class="node">
<title>Node2</title>
<g id="a_node2"><a xlink:href="structMoFEM_1_1SmartPetscObj.html" target="_top" xlink:title=" ">
<polygon fill="white" stroke="black" points="377.5,-165 377.5,-195 508.5,-195 508.5,-165 377.5,-165"/>
<text text-anchor="start" x="385.5" y="-183" font-family="Helvetica,sans-Serif" font-size="10.00">MoFEM::SmartPetscObj</text>
<text text-anchor="middle" x="443" y="-172" font-family="Helvetica,sans-Serif" font-size="10.00">&lt; Vec &gt;</text>
</a>
</g>
</g>
<!-- Node2&#45;&gt;Node1 -->
<g id="edge1" class="edge">
<title>Node2&#45;&gt;Node1</title>
<path fill="none" stroke="#9a32cd" stroke-dasharray="5,2" d="M515.75,-162.2C539.47,-155.4 565.74,-146.87 589,-137 608.63,-128.67 629.79,-116.13 643.42,-107.53"/>
<polygon fill="#9a32cd" stroke="#9a32cd" points="514.79,-158.83 506.11,-164.91 516.68,-165.57 514.79,-158.83"/>
<text text-anchor="middle" x="560" y="-170" font-family="Helvetica,sans-Serif" font-size="10.00"> prjF</text>
<text text-anchor="middle" x="560" y="-159" font-family="Helvetica,sans-Serif" font-size="10.00">prjD</text>
</g>
<!-- Node3 -->
<g id="node3" class="node">
<title>Node3</title>
<g id="a_node3"><a xlink:title=" ">
<polygon fill="white" stroke="#bfbfbf" points="165.5,-179.5 165.5,-220.5 291.5,-220.5 291.5,-179.5 165.5,-179.5"/>
<text text-anchor="start" x="173.5" y="-208.5" font-family="Helvetica,sans-Serif" font-size="10.00">boost::intrusive_ptr</text>
<text text-anchor="start" x="173.5" y="-197.5" font-family="Helvetica,sans-Serif" font-size="10.00">&lt; std::remove_pointer</text>
<text text-anchor="middle" x="228.5" y="-186.5" font-family="Helvetica,sans-Serif" font-size="10.00">&lt; Vec &gt;::type &gt;</text>
</a>
</g>
</g>
<!-- Node3&#45;&gt;Node2 -->
<g id="edge2" class="edge">
<title>Node3&#45;&gt;Node2</title>
<path fill="none" stroke="midnightblue" d="M301.51,-193.22C326.07,-190.91 353.36,-188.34 377.3,-186.09"/>
<polygon fill="midnightblue" stroke="midnightblue" points="301.16,-189.74 291.54,-194.16 301.82,-196.71 301.16,-189.74"/>
</g>
<!-- Node4 -->
<g id="node4" class="node">
<title>Node4</title>
<g id="a_node4"><a xlink:href="structMoFEM_1_1SmartPetscObj.html" target="_top" xlink:title="intrusive_ptr for managing petsc objects">
<polygon fill="white" stroke="black" points="163,-130 163,-160 294,-160 294,-130 163,-130"/>
<text text-anchor="start" x="171" y="-148" font-family="Helvetica,sans-Serif" font-size="10.00">MoFEM::SmartPetscObj</text>
<text text-anchor="middle" x="228.5" y="-137" font-family="Helvetica,sans-Serif" font-size="10.00">&lt; OBJ &gt;</text>
</a>
</g>
</g>
<!-- Node4&#45;&gt;Node2 -->
<g id="edge3" class="edge">
<title>Node4&#45;&gt;Node2</title>
<path fill="none" stroke="orange" stroke-dasharray="5,2" d="M304.19,-157.3C328.04,-161.23 354.24,-165.54 377.32,-169.35"/>
<polygon fill="orange" stroke="orange" points="304.56,-153.82 294.12,-155.64 303.42,-160.72 304.56,-153.82"/>
<text text-anchor="middle" x="333.5" y="-168" font-family="Helvetica,sans-Serif" font-size="10.00"> &lt; Vec &gt;</text>
</g>
<!-- Node5 -->
<g id="node5" class="node">
<title>Node5</title>
<g id="a_node5"><a xlink:title=" ">
<polygon fill="white" stroke="#bfbfbf" points="0,-124.5 0,-165.5 126,-165.5 126,-124.5 0,-124.5"/>
<text text-anchor="start" x="8" y="-153.5" font-family="Helvetica,sans-Serif" font-size="10.00">boost::intrusive_ptr</text>
<text text-anchor="start" x="8" y="-142.5" font-family="Helvetica,sans-Serif" font-size="10.00">&lt; std::remove_pointer</text>
<text text-anchor="middle" x="63" y="-131.5" font-family="Helvetica,sans-Serif" font-size="10.00">&lt; OBJ &gt;::type &gt;</text>
</a>
</g>
</g>
<!-- Node5&#45;&gt;Node4 -->
<g id="edge4" class="edge">
<title>Node5&#45;&gt;Node4</title>
<path fill="none" stroke="midnightblue" d="M136.52,-145C145.33,-145 154.27,-145 162.95,-145"/>
<polygon fill="midnightblue" stroke="midnightblue" points="136.28,-141.5 126.28,-145 136.28,-148.5 136.28,-141.5"/>
</g>
<!-- Node6 -->
<g id="node6" class="node">
<title>Node6</title>
<g id="a_node6"><a xlink:title=" ">
<polygon fill="white" stroke="#bfbfbf" points="373,-126.5 373,-145.5 513,-145.5 513,-126.5 373,-126.5"/>
<text text-anchor="middle" x="443" y="-133.5" font-family="Helvetica,sans-Serif" font-size="10.00">shared_ptr&lt; FEMethod &gt;</text>
</a>
</g>
</g>
<!-- Node6&#45;&gt;Node1 -->
<g id="edge5" class="edge">
<title>Node6&#45;&gt;Node1</title>
<path fill="none" stroke="#9a32cd" stroke-dasharray="5,2" d="M519.26,-124.89C541.74,-121.35 566.41,-117.24 589,-113 597.8,-111.35 607.19,-109.42 616.12,-107.5"/>
<polygon fill="#9a32cd" stroke="#9a32cd" points="518.44,-121.48 509.1,-126.48 519.52,-128.4 518.44,-121.48"/>
<text text-anchor="middle" x="560" y="-125" font-family="Helvetica,sans-Serif" font-size="10.00"> preProcRhs</text>
</g>
<!-- Node7 -->
<g id="node7" class="node">
<title>Node7</title>
<g id="a_node7"><a xlink:title=" ">
<polygon fill="white" stroke="#bfbfbf" points="380.5,-88.5 380.5,-107.5 505.5,-107.5 505.5,-88.5 380.5,-88.5"/>
<text text-anchor="middle" x="443" y="-95.5" font-family="Helvetica,sans-Serif" font-size="10.00">static EshelbianCore *</text>
</a>
</g>
</g>
<!-- Node7&#45;&gt;Node1 -->
<g id="edge6" class="edge">
<title>Node7&#45;&gt;Node1</title>
<path fill="none" stroke="#9a32cd" stroke-dasharray="5,2" d="M515.97,-98C545.8,-98 579.72,-98 606.92,-98"/>
<polygon fill="#9a32cd" stroke="#9a32cd" points="515.61,-94.5 505.61,-98 515.61,-101.5 515.61,-94.5"/>
<text text-anchor="middle" x="560" y="-101" font-family="Helvetica,sans-Serif" font-size="10.00"> epPtr</text>
</g>
<!-- Node8 -->
<g id="node8" class="node">
<title>Node8</title>
<g id="a_node8"><a xlink:title=" ">
<polygon fill="white" stroke="#bfbfbf" points="383.5,-39 383.5,-69 502.5,-69 502.5,-39 383.5,-39"/>
<text text-anchor="start" x="391.5" y="-57" font-family="Helvetica,sans-Serif" font-size="10.00">static SmartPetscObj</text>
<text text-anchor="middle" x="443" y="-46" font-family="Helvetica,sans-Serif" font-size="10.00">&lt; KSP &gt;</text>
</a>
</g>
</g>
<!-- Node8&#45;&gt;Node1 -->
<g id="edge7" class="edge">
<title>Node8&#45;&gt;Node1</title>
<path fill="none" stroke="#9a32cd" stroke-dasharray="5,2" d="M512.41,-67.44C536.62,-72.26 564.04,-77.79 589,-83 597.28,-84.73 606.11,-86.61 614.59,-88.45"/>
<polygon fill="#9a32cd" stroke="#9a32cd" points="513.09,-64.01 502.6,-65.49 511.73,-70.87 513.09,-64.01"/>
<text text-anchor="middle" x="560" y="-86" font-family="Helvetica,sans-Serif" font-size="10.00"> prjKsp</text>
</g>
<!-- Node9 -->
<g id="node9" class="node">
<title>Node9</title>
<g id="a_node9"><a xlink:title=" ">
<polygon fill="white" stroke="#bfbfbf" points="379,-0.5 379,-19.5 507,-19.5 507,-0.5 379,-0.5"/>
<text text-anchor="middle" x="443" y="-7.5" font-family="Helvetica,sans-Serif" font-size="10.00">SmartPetscObj&lt; DM &gt;</text>
</a>
</g>
</g>
<!-- Node9&#45;&gt;Node1 -->
<g id="edge8" class="edge">
<title>Node9&#45;&gt;Node1</title>
<path fill="none" stroke="#9a32cd" stroke-dasharray="5,2" d="M487.79,-22.35C496.18,-24.82 504.88,-27.44 513,-30 547.04,-40.75 556.67,-40.85 589,-56 609.06,-65.4 630.65,-79.2 644.23,-88.38"/>
<polygon fill="#9a32cd" stroke="#9a32cd" points="488.72,-18.98 478.14,-19.55 486.77,-25.7 488.72,-18.98"/>
<text text-anchor="middle" x="560" y="-59" font-family="Helvetica,sans-Serif" font-size="10.00"> prjDM</text>
</g>
</g>
</svg>
