<?xml version="1.0" encoding="UTF-8" standalone="no"?>
<!DOCTYPE svg PUBLIC "-//W3C//DTD SVG 1.1//EN"
 "http://www.w3.org/Graphics/SVG/1.1/DTD/svg11.dtd">
<!-- Generated by graphviz version 9.0.0 (20230911.1827)
 -->
<!-- Title: SmallStrainParaboloidalPlasticity Pages: 1 -->
<!--zoomable 1095 -->
<svg id="main" version="1.1" xmlns="http://www.w3.org/2000/svg" xmlns:xlink="http://www.w3.org/1999/xlink" xml:space="preserve" onload="init(evt)">
<style type="text/css"><![CDATA[
.edge:hover path { stroke: red; }
.edge:hover polygon { stroke: red; fill: red; }
]]></style>
<script type="text/javascript"><![CDATA[
var edges = document.getElementsByTagName('g');
if (edges && edges.length) {
  for (var i=0;i<edges.length;i++) {
    if (edges[i].id.substr(0,4)=='edge') {
      edges[i].setAttribute('class','edge');
    }
  }
}
]]></script>
        <defs>
                <circle id="rim" cx="0" cy="0" r="7"/>
                <circle id="rim2" cx="0" cy="0" r="3.5"/>
                <g id="zoomPlus">
                        <use xlink:href="#rim" fill="#404040">
                                <set attributeName="fill" to="#808080" begin="zoomplus.mouseover" end="zoomplus.mouseout"/>
                        </use>
                        <path d="M-4,0h8M0,-4v8" fill="none" stroke="white" stroke-width="1.5" pointer-events="none"/>
                </g>
                <g id="zoomMin">
                        <use xlink:href="#rim" fill="#404040">
                                <set attributeName="fill" to="#808080" begin="zoomminus.mouseover" end="zoomminus.mouseout"/>
                        </use>
                        <path d="M-4,0h8" fill="none" stroke="white" stroke-width="1.5" pointer-events="none"/>
                </g>
                <g id="dirArrow">
                        <path fill="none" stroke="white" stroke-width="1.5" d="M0,-3.0v7 M-2.5,-0.5L0,-3.0L2.5,-0.5"/>
                </g>
               <g id="resetDef">
                       <use xlink:href="#rim2" fill="#404040">
                               <set attributeName="fill" to="#808080" begin="reset.mouseover" end="reset.mouseout"/>
                       </use>
               </g>
        </defs>

<script type="text/javascript">
var viewWidth = 579;
var viewHeight = 1095;
var sectionId = 'dynsection-1';
</script>
<script xlink:href="svgpan.js"/>
<svg id="graph" class="graph">
<g id="viewport">
<title>SmallStrainParaboloidalPlasticity</title>
<!-- Node1 -->
<g id="node1" class="node">
<title>Node1</title>
<g id="a_node1"><a xlink:title="Small strain plasticity with paraboloidal yield criterion (Isotropic Hardening)">
<polygon fill="#999999" stroke="#666666" points="571,-509.83 411,-509.83 411,-490.58 571,-490.58 571,-509.83"/>
<text text-anchor="middle" x="491" y="-496.33" font-family="Helvetica,sans-Serif" font-size="10.00">SmallStrainParaboloidalPlasticity</text>
</a>
</g>
</g>
<!-- Node2 -->
<g id="node2" class="node">
<title>Node2</title>
<g id="a_node2"><a xlink:href="struct_small_strain_plasticity_1_1_closest_point_projection.html" target="_top" xlink:title="Closest point projection algorithm.">
<polygon fill="white" stroke="#666666" points="374,-515.46 252.25,-515.46 252.25,-484.96 374,-484.96 374,-515.46"/>
<text text-anchor="start" x="260.25" y="-501.96" font-family="Helvetica,sans-Serif" font-size="10.00">SmallStrainPlasticity</text>
<text text-anchor="middle" x="313.12" y="-490.71" font-family="Helvetica,sans-Serif" font-size="10.00">::ClosestPointProjection</text>
</a>
</g>
</g>
<!-- Node2&#45;&gt;Node1 -->
<g id="edge1" class="edge">
<title>Node2&#45;&gt;Node1</title>
<path fill="none" stroke="#63b8ff" d="M385.64,-500.21C393.88,-500.21 402.31,-500.21 410.64,-500.21"/>
<polygon fill="#63b8ff" stroke="#63b8ff" points="385.67,-496.71 375.67,-500.21 385.67,-503.71 385.67,-496.71"/>
</g>
<!-- Node3 -->
<g id="node3" class="node">
<title>Node3</title>
<g id="a_node3"><a xlink:title=" ">
<polygon fill="white" stroke="#666666" points="104.88,-705.83 29.62,-705.83 29.62,-686.58 104.88,-686.58 104.88,-705.83"/>
<text text-anchor="middle" x="67.25" y="-692.33" font-family="Helvetica,sans-Serif" font-size="10.00">VectorDouble</text>
</a>
</g>
</g>
<!-- Node3&#45;&gt;Node2 -->
<g id="edge2" class="edge">
<title>Node3&#45;&gt;Node2</title>
<path fill="none" stroke="#9a32cd" stroke-dasharray="5,2" d="M116.38,-692.72C158.66,-688.79 216.17,-681.06 234.25,-667.21 284.66,-628.59 303.72,-549.46 309.73,-515.86"/>
<polygon fill="#9a32cd" stroke="#9a32cd" points="116.34,-689.21 106.69,-693.58 116.96,-696.19 116.34,-689.21"/>
<text text-anchor="middle" x="193.38" y="-802.46" font-family="Helvetica,sans-Serif" font-size="10.00"> Yp</text>
<text text-anchor="middle" x="193.38" y="-791.21" font-family="Helvetica,sans-Serif" font-size="10.00">activeVariablesW</text>
<text text-anchor="middle" x="193.38" y="-779.96" font-family="Helvetica,sans-Serif" font-size="10.00">activeVariablesYH</text>
<text text-anchor="middle" x="193.38" y="-768.71" font-family="Helvetica,sans-Serif" font-size="10.00">gradientH</text>
<text text-anchor="middle" x="193.38" y="-757.46" font-family="Helvetica,sans-Serif" font-size="10.00">gradientW</text>
<text text-anchor="middle" x="193.38" y="-746.21" font-family="Helvetica,sans-Serif" font-size="10.00">gradientY</text>
<text text-anchor="middle" x="193.38" y="-734.96" font-family="Helvetica,sans-Serif" font-size="10.00">internalVariables</text>
<text text-anchor="middle" x="193.38" y="-723.71" font-family="Helvetica,sans-Serif" font-size="10.00">internalVariables0</text>
<text text-anchor="middle" x="193.38" y="-712.46" font-family="Helvetica,sans-Serif" font-size="10.00">plasticStrain</text>
<text text-anchor="middle" x="193.38" y="-701.21" font-family="Helvetica,sans-Serif" font-size="10.00">plasticStrain0</text>
<text text-anchor="middle" x="193.38" y="-689.96" font-family="Helvetica,sans-Serif" font-size="10.00">...</text>
</g>
<!-- Node4 -->
<g id="node4" class="node">
<title>Node4</title>
<g id="a_node4"><a xlink:href="classdouble.html" target="_top" xlink:title=" ">
<polygon fill="white" stroke="#666666" points="89.5,-989.83 45,-989.83 45,-970.58 89.5,-970.58 89.5,-989.83"/>
<text text-anchor="middle" x="67.25" y="-976.33" font-family="Helvetica,sans-Serif" font-size="10.00">double</text>
</a>
</g>
</g>
<!-- Node4&#45;&gt;Node1 -->
<g id="edge18" class="edge">
<title>Node4&#45;&gt;Node1</title>
<path fill="none" stroke="#9a32cd" stroke-dasharray="5,2" d="M99.09,-994.5C134.41,-1008.56 192.75,-1024.57 234.25,-999.21 426.13,-881.94 479.96,-570.01 488.65,-510.2"/>
<polygon fill="#9a32cd" stroke="#9a32cd" points="100.88,-991.45 90.3,-990.83 98.18,-997.91 100.88,-991.45"/>
<text text-anchor="middle" x="313.12" y="-1077.96" font-family="Helvetica,sans-Serif" font-size="10.00"> Hc</text>
<text text-anchor="middle" x="313.12" y="-1066.71" font-family="Helvetica,sans-Serif" font-size="10.00">Ht</text>
<text text-anchor="middle" x="313.12" y="-1055.46" font-family="Helvetica,sans-Serif" font-size="10.00">lambda</text>
<text text-anchor="middle" x="313.12" y="-1044.21" font-family="Helvetica,sans-Serif" font-size="10.00">mu</text>
<text text-anchor="middle" x="313.12" y="-1032.96" font-family="Helvetica,sans-Serif" font-size="10.00">nc</text>
<text text-anchor="middle" x="313.12" y="-1021.71" font-family="Helvetica,sans-Serif" font-size="10.00">nt</text>
<text text-anchor="middle" x="313.12" y="-1010.46" font-family="Helvetica,sans-Serif" font-size="10.00">nup</text>
<text text-anchor="middle" x="313.12" y="-999.21" font-family="Helvetica,sans-Serif" font-size="10.00">sIgma_yc</text>
<text text-anchor="middle" x="313.12" y="-987.96" font-family="Helvetica,sans-Serif" font-size="10.00">sIgma_yt</text>
</g>
<!-- Node4&#45;&gt;Node2 -->
<g id="edge3" class="edge">
<title>Node4&#45;&gt;Node2</title>
<path fill="none" stroke="#9a32cd" stroke-dasharray="5,2" d="M98.92,-965.36C114.71,-958.05 134.39,-949.44 152.5,-942.96 188.01,-930.25 208.78,-948.03 234.25,-920.21 290.21,-859.09 307.82,-584.56 311.38,-515.84"/>
<polygon fill="#9a32cd" stroke="#9a32cd" points="97.62,-962.11 90.05,-969.53 100.59,-968.45 97.62,-962.11"/>
<text text-anchor="middle" x="193.38" y="-988.96" font-family="Helvetica,sans-Serif" font-size="10.00"> deltaGamma</text>
<text text-anchor="middle" x="193.38" y="-977.71" font-family="Helvetica,sans-Serif" font-size="10.00">h</text>
<text text-anchor="middle" x="193.38" y="-966.46" font-family="Helvetica,sans-Serif" font-size="10.00">tOl</text>
<text text-anchor="middle" x="193.38" y="-955.21" font-family="Helvetica,sans-Serif" font-size="10.00">w</text>
<text text-anchor="middle" x="193.38" y="-943.96" font-family="Helvetica,sans-Serif" font-size="10.00">y</text>
</g>
<!-- Node5 -->
<g id="node5" class="node">
<title>Node5</title>
<g id="a_node5"><a xlink:title=" ">
<polygon fill="white" stroke="#666666" points="81.65,-631.83 52.85,-631.83 52.85,-612.58 81.65,-612.58 81.65,-631.83"/>
<text text-anchor="middle" x="67.25" y="-618.33" font-family="Helvetica,sans-Serif" font-size="10.00">int</text>
</a>
</g>
</g>
<!-- Node5&#45;&gt;Node2 -->
<g id="edge4" class="edge">
<title>Node5&#45;&gt;Node2</title>
<path fill="none" stroke="#9a32cd" stroke-dasharray="5,2" d="M92.99,-623.45C127.09,-624.05 189.41,-621.04 234.25,-595.21 267.33,-576.15 292.22,-537.3 304.2,-515.65"/>
<polygon fill="#9a32cd" stroke="#9a32cd" points="93.4,-619.96 83.3,-623.15 93.19,-626.96 93.4,-619.96"/>
<text text-anchor="middle" x="193.38" y="-620.96" font-family="Helvetica,sans-Serif" font-size="10.00"> gG</text>
</g>
<!-- Node6 -->
<g id="node6" class="node">
<title>Node6</title>
<g id="a_node6"><a xlink:title=" ">
<polygon fill="white" stroke="#666666" points="106.38,-543.83 28.12,-543.83 28.12,-524.58 106.38,-524.58 106.38,-543.83"/>
<text text-anchor="middle" x="67.25" y="-530.33" font-family="Helvetica,sans-Serif" font-size="10.00">VectorAdaptor</text>
</a>
</g>
</g>
<!-- Node6&#45;&gt;Node2 -->
<g id="edge5" class="edge">
<title>Node6&#45;&gt;Node2</title>
<path fill="none" stroke="#9a32cd" stroke-dasharray="5,2" d="M118.03,-527.89C151.02,-523.64 195.25,-517.8 234.25,-512.21 239.94,-511.39 245.85,-510.52 251.77,-509.64"/>
<polygon fill="#9a32cd" stroke="#9a32cd" points="117.83,-524.39 108.36,-529.14 118.72,-531.33 117.83,-524.39"/>
<text text-anchor="middle" x="193.38" y="-581.21" font-family="Helvetica,sans-Serif" font-size="10.00"> internalFluxes</text>
<text text-anchor="middle" x="193.38" y="-569.96" font-family="Helvetica,sans-Serif" font-size="10.00">partialHFlux</text>
<text text-anchor="middle" x="193.38" y="-558.71" font-family="Helvetica,sans-Serif" font-size="10.00">partialHSigma</text>
<text text-anchor="middle" x="193.38" y="-547.46" font-family="Helvetica,sans-Serif" font-size="10.00">partialYFlux</text>
<text text-anchor="middle" x="193.38" y="-536.21" font-family="Helvetica,sans-Serif" font-size="10.00">partialYSigma</text>
<text text-anchor="middle" x="193.38" y="-524.96" font-family="Helvetica,sans-Serif" font-size="10.00">sTress</text>
</g>
<!-- Node7 -->
<g id="node7" class="node">
<title>Node7</title>
<g id="a_node7"><a xlink:title=" ">
<polygon fill="white" stroke="#666666" points="134.5,-481.46 0,-481.46 0,-450.96 134.5,-450.96 134.5,-481.46"/>
<text text-anchor="start" x="8" y="-467.96" font-family="Helvetica,sans-Serif" font-size="10.00">symmetric_matrix&lt; double,</text>
<text text-anchor="middle" x="67.25" y="-456.71" font-family="Helvetica,sans-Serif" font-size="10.00"> ublas::lower &gt;</text>
</a>
</g>
</g>
<!-- Node7&#45;&gt;Node2 -->
<g id="edge6" class="edge">
<title>Node7&#45;&gt;Node2</title>
<path fill="none" stroke="#9a32cd" stroke-dasharray="5,2" d="M146.19,-457.19C174.25,-455.93 205.95,-456.83 234.25,-463.21 252.65,-467.36 271.8,-476.39 286.51,-484.49"/>
<polygon fill="#9a32cd" stroke="#9a32cd" points="146.12,-453.68 136.33,-457.74 146.51,-460.67 146.12,-453.68"/>
<text text-anchor="middle" x="193.38" y="-498.71" font-family="Helvetica,sans-Serif" font-size="10.00"> C</text>
<text text-anchor="middle" x="193.38" y="-487.46" font-family="Helvetica,sans-Serif" font-size="10.00">D</text>
<text text-anchor="middle" x="193.38" y="-476.21" font-family="Helvetica,sans-Serif" font-size="10.00">partial2HFlux</text>
<text text-anchor="middle" x="193.38" y="-464.96" font-family="Helvetica,sans-Serif" font-size="10.00">partial2HSigma</text>
</g>
<!-- Node8 -->
<g id="node8" class="node">
<title>Node8</title>
<g id="a_node8"><a xlink:title=" ">
<polygon fill="white" stroke="#666666" points="104.12,-340.83 30.38,-340.83 30.38,-321.58 104.12,-321.58 104.12,-340.83"/>
<text text-anchor="middle" x="67.25" y="-327.33" font-family="Helvetica,sans-Serif" font-size="10.00">MatrixDouble</text>
</a>
</g>
</g>
<!-- Node8&#45;&gt;Node2 -->
<g id="edge7" class="edge">
<title>Node8&#45;&gt;Node2</title>
<path fill="none" stroke="#9a32cd" stroke-dasharray="5,2" d="M115.6,-321.52C151.16,-316.94 199.52,-316.7 234.25,-339.71 285.5,-373.66 304.09,-451.46 309.86,-484.69"/>
<polygon fill="#9a32cd" stroke="#9a32cd" points="115.42,-318.01 106.03,-322.92 116.43,-324.94 115.42,-318.01"/>
<text text-anchor="middle" x="193.38" y="-442.21" font-family="Helvetica,sans-Serif" font-size="10.00"> Cep</text>
<text text-anchor="middle" x="193.38" y="-430.96" font-family="Helvetica,sans-Serif" font-size="10.00">Cp</text>
<text text-anchor="middle" x="193.38" y="-419.71" font-family="Helvetica,sans-Serif" font-size="10.00">Ep</text>
<text text-anchor="middle" x="193.38" y="-408.46" font-family="Helvetica,sans-Serif" font-size="10.00">Lp</text>
<text text-anchor="middle" x="193.38" y="-397.21" font-family="Helvetica,sans-Serif" font-size="10.00">hessianH</text>
<text text-anchor="middle" x="193.38" y="-385.96" font-family="Helvetica,sans-Serif" font-size="10.00">hessianW</text>
<text text-anchor="start" x="160" y="-374.71" font-family="Helvetica,sans-Serif" font-size="10.00">partial2HSigma</text>
<text text-anchor="middle" x="193.38" y="-363.46" font-family="Helvetica,sans-Serif" font-size="10.00">Flux</text>
<text text-anchor="start" x="160" y="-352.21" font-family="Helvetica,sans-Serif" font-size="10.00">partialWStrain</text>
<text text-anchor="middle" x="193.38" y="-340.96" font-family="Helvetica,sans-Serif" font-size="10.00">PlasticStrain</text>
</g>
<!-- Node9 -->
<g id="node9" class="node">
<title>Node9</title>
<g id="a_node9"><a xlink:title=" ">
<polygon fill="white" stroke="#666666" points="103,-303.83 31.5,-303.83 31.5,-284.58 103,-284.58 103,-303.83"/>
<text text-anchor="middle" x="67.25" y="-290.33" font-family="Helvetica,sans-Serif" font-size="10.00">vector&lt; int &gt;</text>
</a>
</g>
</g>
<!-- Node9&#45;&gt;Node2 -->
<g id="edge8" class="edge">
<title>Node9&#45;&gt;Node2</title>
<path fill="none" stroke="#9a32cd" stroke-dasharray="5,2" d="M114.47,-284.45C150.48,-279.57 199.94,-279.16 234.25,-303.96 294.85,-347.76 308.32,-446.38 311.29,-484.63"/>
<polygon fill="#9a32cd" stroke="#9a32cd" points="114.14,-280.96 104.79,-285.93 115.2,-287.88 114.14,-280.96"/>
<text text-anchor="middle" x="193.38" y="-305.96" font-family="Helvetica,sans-Serif" font-size="10.00"> tAgs</text>
</g>
<!-- Node10 -->
<g id="node10" class="node">
<title>Node10</title>
<g id="a_node10"><a xlink:title=" ">
<polygon fill="white" stroke="#666666" points="114.62,-229.83 19.88,-229.83 19.88,-210.58 114.62,-210.58 114.62,-229.83"/>
<text text-anchor="middle" x="67.25" y="-216.33" font-family="Helvetica,sans-Serif" font-size="10.00">vector&lt; adouble &gt;</text>
</a>
</g>
</g>
<!-- Node10&#45;&gt;Node2 -->
<g id="edge9" class="edge">
<title>Node10&#45;&gt;Node2</title>
<path fill="none" stroke="#9a32cd" stroke-dasharray="5,2" d="M111.11,-207.61C147.62,-199.67 199.53,-195.34 234.25,-221.96 277.34,-255 303.24,-431.17 310.21,-484.74"/>
<polygon fill="#9a32cd" stroke="#9a32cd" points="110.72,-204.11 101.79,-209.81 112.32,-210.92 110.72,-204.11"/>
<text text-anchor="middle" x="193.38" y="-268.96" font-family="Helvetica,sans-Serif" font-size="10.00"> a_internalFluxes</text>
<text text-anchor="middle" x="193.38" y="-257.71" font-family="Helvetica,sans-Serif" font-size="10.00">a_internalVariables</text>
<text text-anchor="middle" x="193.38" y="-246.46" font-family="Helvetica,sans-Serif" font-size="10.00">a_plasticStrain</text>
<text text-anchor="middle" x="193.38" y="-235.21" font-family="Helvetica,sans-Serif" font-size="10.00">a_sTrain</text>
<text text-anchor="middle" x="193.38" y="-223.96" font-family="Helvetica,sans-Serif" font-size="10.00">a_sTress</text>
</g>
<!-- Node11 -->
<g id="node11" class="node">
<title>Node11</title>
<g id="a_node11"><a xlink:href="classadouble.html" target="_top" xlink:title=" ">
<polygon fill="white" stroke="#666666" points="92.12,-28.83 42.38,-28.83 42.38,-9.58 92.12,-9.58 92.12,-28.83"/>
<text text-anchor="middle" x="67.25" y="-15.33" font-family="Helvetica,sans-Serif" font-size="10.00">adouble</text>
</a>
</g>
</g>
<!-- Node11&#45;&gt;Node1 -->
<g id="edge19" class="edge">
<title>Node11&#45;&gt;Node1</title>
<path fill="none" stroke="#9a32cd" stroke-dasharray="5,2" d="M103.4,-8.39C139.05,0.37 194.49,7.75 234.25,-16.21 421.88,-129.28 478.97,-431.12 488.48,-490.13"/>
<polygon fill="#9a32cd" stroke="#9a32cd" points="102.8,-4.93 94.03,-10.86 104.59,-11.7 102.8,-4.93"/>
<text text-anchor="middle" x="313.12" y="-175.21" font-family="Helvetica,sans-Serif" font-size="10.00"> I1</text>
<text text-anchor="middle" x="313.12" y="-163.96" font-family="Helvetica,sans-Serif" font-size="10.00">J2</text>
</g>
<!-- Node11&#45;&gt;Node2 -->
<g id="edge10" class="edge">
<title>Node11&#45;&gt;Node2</title>
<path fill="none" stroke="#9a32cd" stroke-dasharray="5,2" d="M103.73,-18.52C146.84,-18.47 216.08,-21.2 234.25,-38.46 300.72,-101.58 310.51,-411.78 311.9,-484.8"/>
<polygon fill="#9a32cd" stroke="#9a32cd" points="103.81,-15.02 93.84,-18.59 103.86,-22.02 103.81,-15.02"/>
<text text-anchor="middle" x="193.38" y="-63.46" font-family="Helvetica,sans-Serif" font-size="10.00"> a_h</text>
<text text-anchor="middle" x="193.38" y="-52.21" font-family="Helvetica,sans-Serif" font-size="10.00">a_w</text>
<text text-anchor="middle" x="193.38" y="-40.96" font-family="Helvetica,sans-Serif" font-size="10.00">a_y</text>
</g>
<!-- Node12 -->
<g id="node12" class="node">
<title>Node12</title>
<g id="a_node12"><a xlink:title=" ">
<polygon fill="white" stroke="#666666" points="83.5,-192.83 51,-192.83 51,-173.58 83.5,-173.58 83.5,-192.83"/>
<text text-anchor="middle" x="67.25" y="-179.33" font-family="Helvetica,sans-Serif" font-size="10.00">Mat</text>
</a>
</g>
</g>
<!-- Node12&#45;&gt;Node2 -->
<g id="edge11" class="edge">
<title>Node12&#45;&gt;Node2</title>
<path fill="none" stroke="#9a32cd" stroke-dasharray="5,2" d="M94.54,-174.95C130.31,-165.49 194.41,-155.08 234.25,-186.96 282.05,-225.21 304.99,-426.37 310.68,-484.48"/>
<polygon fill="#9a32cd" stroke="#9a32cd" points="93.69,-171.55 85.03,-177.65 95.6,-178.29 93.69,-171.55"/>
<text text-anchor="middle" x="193.38" y="-188.96" font-family="Helvetica,sans-Serif" font-size="10.00"> A</text>
</g>
<!-- Node13 -->
<g id="node13" class="node">
<title>Node13</title>
<g id="a_node13"><a xlink:title=" ">
<polygon fill="white" stroke="#666666" points="122.12,-155.46 12.38,-155.46 12.38,-124.96 122.12,-124.96 122.12,-155.46"/>
<text text-anchor="start" x="20.38" y="-141.96" font-family="Helvetica,sans-Serif" font-size="10.00">matrix&lt; double, ublas</text>
<text text-anchor="middle" x="67.25" y="-130.71" font-family="Helvetica,sans-Serif" font-size="10.00">::column_major &gt;</text>
</a>
</g>
</g>
<!-- Node13&#45;&gt;Node2 -->
<g id="edge12" class="edge">
<title>Node13&#45;&gt;Node2</title>
<path fill="none" stroke="#9a32cd" stroke-dasharray="5,2" d="M133.73,-136.66C173.48,-135.96 219.34,-138.2 234.25,-150.96 286.28,-195.5 306.45,-422.42 311.05,-484.49"/>
<polygon fill="#9a32cd" stroke="#9a32cd" points="133.87,-133.16 123.95,-136.9 134.04,-140.15 133.87,-133.16"/>
<text text-anchor="middle" x="193.38" y="-152.96" font-family="Helvetica,sans-Serif" font-size="10.00"> dataA</text>
</g>
<!-- Node14 -->
<g id="node14" class="node">
<title>Node14</title>
<g id="a_node14"><a xlink:title=" ">
<polygon fill="white" stroke="#666666" points="83.88,-101.83 50.62,-101.83 50.62,-82.58 83.88,-82.58 83.88,-101.83"/>
<text text-anchor="middle" x="67.25" y="-88.33" font-family="Helvetica,sans-Serif" font-size="10.00">Vec</text>
</a>
</g>
</g>
<!-- Node14&#45;&gt;Node2 -->
<g id="edge13" class="edge">
<title>Node14&#45;&gt;Node2</title>
<path fill="none" stroke="#9a32cd" stroke-dasharray="5,2" d="M94.95,-84.31C131.13,-75.41 195.6,-66.16 234.25,-99.46 294.12,-151.05 308.78,-416.85 311.56,-484.52"/>
<polygon fill="#9a32cd" stroke="#9a32cd" points="94.51,-80.81 85.74,-86.75 96.3,-87.58 94.51,-80.81"/>
<text text-anchor="middle" x="193.38" y="-124.46" font-family="Helvetica,sans-Serif" font-size="10.00"> Chi</text>
<text text-anchor="middle" x="193.38" y="-113.21" font-family="Helvetica,sans-Serif" font-size="10.00">R</text>
<text text-anchor="middle" x="193.38" y="-101.96" font-family="Helvetica,sans-Serif" font-size="10.00">dChi</text>
</g>
<!-- Node15 -->
<g id="node15" class="node">
<title>Node15</title>
<g id="a_node15"><a xlink:title=" ">
<polygon fill="white" stroke="#666666" points="89.12,-920.83 45.38,-920.83 45.38,-901.58 89.12,-901.58 89.12,-920.83"/>
<text text-anchor="middle" x="67.25" y="-907.33" font-family="Helvetica,sans-Serif" font-size="10.00">SNES</text>
</a>
</g>
</g>
<!-- Node15&#45;&gt;Node2 -->
<g id="edge14" class="edge">
<title>Node15&#45;&gt;Node2</title>
<path fill="none" stroke="#9a32cd" stroke-dasharray="5,2" d="M100.69,-910.2C143.51,-908.16 215.64,-902.11 234.25,-884.21 288.79,-831.75 307.35,-580.4 311.28,-515.52"/>
<polygon fill="#9a32cd" stroke="#9a32cd" points="100.82,-906.69 90.97,-910.61 101.11,-913.68 100.82,-906.69"/>
<text text-anchor="middle" x="193.38" y="-906.96" font-family="Helvetica,sans-Serif" font-size="10.00"> sNes</text>
</g>
<!-- Node16 -->
<g id="node16" class="node">
<title>Node16</title>
<g id="a_node16"><a xlink:title=" ">
<polygon fill="white" stroke="#666666" points="85.38,-883.83 49.12,-883.83 49.12,-864.58 85.38,-864.58 85.38,-883.83"/>
<text text-anchor="middle" x="67.25" y="-870.33" font-family="Helvetica,sans-Serif" font-size="10.00">KSP</text>
</a>
</g>
</g>
<!-- Node16&#45;&gt;Node2 -->
<g id="edge15" class="edge">
<title>Node16&#45;&gt;Node2</title>
<path fill="none" stroke="#9a32cd" stroke-dasharray="5,2" d="M97.27,-873.67C139.49,-872.28 214.9,-867.25 234.25,-849.21 284.31,-802.54 305.91,-577.35 310.94,-515.79"/>
<polygon fill="#9a32cd" stroke="#9a32cd" points="97.24,-870.17 87.34,-873.95 97.44,-877.17 97.24,-870.17"/>
<text text-anchor="middle" x="193.38" y="-870.96" font-family="Helvetica,sans-Serif" font-size="10.00"> kSp</text>
</g>
<!-- Node17 -->
<g id="node17" class="node">
<title>Node17</title>
<g id="a_node17"><a xlink:title=" ">
<polygon fill="white" stroke="#666666" points="82.38,-846.83 52.12,-846.83 52.12,-827.58 82.38,-827.58 82.38,-846.83"/>
<text text-anchor="middle" x="67.25" y="-833.33" font-family="Helvetica,sans-Serif" font-size="10.00">PC</text>
</a>
</g>
</g>
<!-- Node17&#45;&gt;Node2 -->
<g id="edge16" class="edge">
<title>Node17&#45;&gt;Node2</title>
<path fill="none" stroke="#9a32cd" stroke-dasharray="5,2" d="M94.05,-837.39C135.43,-837.13 214.05,-834.19 234.25,-816.21 280.35,-775.16 304.49,-573.98 310.57,-515.92"/>
<polygon fill="#9a32cd" stroke="#9a32cd" points="94.25,-833.89 84.26,-837.4 94.26,-840.89 94.25,-833.89"/>
<text text-anchor="middle" x="193.38" y="-835.96" font-family="Helvetica,sans-Serif" font-size="10.00"> pC</text>
</g>
<!-- Node18 -->
<g id="node18" class="node">
<title>Node18</title>
<g id="a_node18"><a xlink:title=" ">
<polygon fill="white" stroke="#666666" points="113.5,-668.83 21,-668.83 21,-649.58 113.5,-649.58 113.5,-668.83"/>
<text text-anchor="middle" x="67.25" y="-655.33" font-family="Helvetica,sans-Serif" font-size="10.00">SNESLineSearch</text>
</a>
</g>
</g>
<!-- Node18&#45;&gt;Node2 -->
<g id="edge17" class="edge">
<title>Node18&#45;&gt;Node2</title>
<path fill="none" stroke="#9a32cd" stroke-dasharray="5,2" d="M125.06,-655.88C165.92,-652.52 216.79,-646.08 234.25,-634.21 276.98,-605.17 299.42,-544.32 307.97,-515.7"/>
<polygon fill="#9a32cd" stroke="#9a32cd" points="125.04,-652.37 115.34,-656.63 125.58,-659.35 125.04,-652.37"/>
<text text-anchor="middle" x="193.38" y="-653.96" font-family="Helvetica,sans-Serif" font-size="10.00"> lineSearch</text>
</g>
</g>
</svg>
        <g id="navigator" transform="translate(0 0)" fill="#404254">
                <rect fill="#f2f5e9" fill-opacity="0.5" stroke="#606060" stroke-width=".5" x="0" y="0" width="60" height="60"/>
                <use id="zoomplus" xlink:href="#zoomPlus" x="17" y="9" onmousedown="handleZoom(evt,'in')"/>
                <use id="zoomminus" xlink:href="#zoomMin" x="42" y="9" onmousedown="handleZoom(evt,'out')"/>
                <use id="reset" xlink:href="#resetDef" x="30" y="36" onmousedown="handleReset()"/>
                <g id="arrowUp" xlink:href="#dirArrow" transform="translate(30 24)" onmousedown="handlePan(0,-1)">
                  <use xlink:href="#rim" fill="#404040">
                        <set attributeName="fill" to="#808080" begin="arrowUp.mouseover" end="arrowUp.mouseout"/>
                  </use>
                  <path fill="none" stroke="white" stroke-width="1.5" d="M0,-3.0v7 M-2.5,-0.5L0,-3.0L2.5,-0.5"/>
                </g>
                <g id="arrowRight" xlink:href="#dirArrow" transform="rotate(90) translate(36 -43)" onmousedown="handlePan(1,0)">
                  <use xlink:href="#rim" fill="#404040">
                        <set attributeName="fill" to="#808080" begin="arrowRight.mouseover" end="arrowRight.mouseout"/>
                  </use>
                  <path fill="none" stroke="white" stroke-width="1.5" d="M0,-3.0v7 M-2.5,-0.5L0,-3.0L2.5,-0.5"/>
                </g>
                <g id="arrowDown" xlink:href="#dirArrow" transform="rotate(180) translate(-30 -48)" onmousedown="handlePan(0,1)">
                  <use xlink:href="#rim" fill="#404040">
                        <set attributeName="fill" to="#808080" begin="arrowDown.mouseover" end="arrowDown.mouseout"/>
                  </use>
                  <path fill="none" stroke="white" stroke-width="1.5" d="M0,-3.0v7 M-2.5,-0.5L0,-3.0L2.5,-0.5"/>
                </g>
                <g id="arrowLeft" xlink:href="#dirArrow" transform="rotate(270) translate(-36 17)" onmousedown="handlePan(-1,0)">
                  <use xlink:href="#rim" fill="#404040">
                        <set attributeName="fill" to="#808080" begin="arrowLeft.mouseover" end="arrowLeft.mouseout"/>
                  </use>
                  <path fill="none" stroke="white" stroke-width="1.5" d="M0,-3.0v7 M-2.5,-0.5L0,-3.0L2.5,-0.5"/>
                </g>
        </g>
        <svg viewBox="0 0 15 15" width="100%" height="30px" preserveAspectRatio="xMaxYMin meet">
         <g id="arrow_out" transform="scale(0.3 0.3)">
          <a xlink:href="struct_small_strain_paraboloidal_plasticity__coll__graph_org.svg" target="_base">
           <rect id="button" ry="5" rx="5" y="6" x="6" height="38" width="38"
                fill="#f2f5e9" fill-opacity="0.5" stroke="#606060" stroke-width="1.0"/>
           <path id="arrow"
             d="M 11.500037,31.436501 C 11.940474,20.09759 22.043105,11.32322 32.158766,21.979434 L 37.068811,17.246167 C 37.068811,17.246167 37.088388,32 37.088388,32 L 22.160133,31.978069 C 22.160133,31.978069 26.997745,27.140456 26.997745,27.140456 C 18.528582,18.264221 13.291696,25.230495 11.500037,31.436501 z"
             style="fill:#404040;"/>
          </a>
         </g>
        </svg>
</svg>
