<?xml version="1.0" encoding="UTF-8" standalone="no"?>
<!DOCTYPE svg PUBLIC "-//W3C//DTD SVG 1.1//EN"
 "http://www.w3.org/Graphics/SVG/1.1/DTD/svg11.dtd">
<!-- Generated by graphviz version 9.0.0 (20230911.1827)
 -->
<!-- Title: FractureMechanics::MWLSApprox::OpMWLSRhoAtGaussUsingPrecalulatedCoeffs Pages: 1 -->
<svg width="290pt" height="285pt"
 viewBox="0.00 0.00 290.12 285.00" xmlns="http://www.w3.org/2000/svg" xmlns:xlink="http://www.w3.org/1999/xlink">
<g id="graph0" class="graph" transform="scale(1 1) rotate(0) translate(4 281)">
<title>FractureMechanics::MWLSApprox::OpMWLSRhoAtGaussUsingPrecalulatedCoeffs</title>
<!-- Node1 -->
<g id="node1" class="node">
<title>Node1</title>
<g id="a_node1"><a xlink:title=" ">
<polygon fill="#999999" stroke="#666666" points="181.75,-41.75 0,-41.75 0,0 181.75,0 181.75,-41.75"/>
<text text-anchor="start" x="8" y="-28.25" font-family="Helvetica,sans-Serif" font-size="10.00">FractureMechanics::</text>
<text text-anchor="start" x="8" y="-17" font-family="Helvetica,sans-Serif" font-size="10.00">MWLSApprox::OpMWLSRhoAtGauss</text>
<text text-anchor="middle" x="90.88" y="-5.75" font-family="Helvetica,sans-Serif" font-size="10.00">UsingPrecalulatedCoeffs</text>
</a>
</g>
</g>
<!-- Node2 -->
<g id="node2" class="node">
<title>Node2</title>
<g id="a_node2"><a xlink:href="struct_fracture_mechanics_1_1_m_w_l_s_approx_1_1_op_m_w_l_s_base.html" target="_top" xlink:title=" ">
<polygon fill="white" stroke="#666666" points="179.5,-131.75 2.25,-131.75 2.25,-78.75 179.5,-78.75 179.5,-131.75"/>
<text text-anchor="start" x="10.25" y="-118.25" font-family="Helvetica,sans-Serif" font-size="10.00">FractureMechanics::</text>
<text text-anchor="start" x="10.25" y="-107" font-family="Helvetica,sans-Serif" font-size="10.00">MWLSApprox::OpMWLSBase</text>
<text text-anchor="start" x="10.25" y="-95.75" font-family="Helvetica,sans-Serif" font-size="10.00">&lt; VolumeElementForcesAndSources</text>
<text text-anchor="middle" x="90.88" y="-84.5" font-family="Helvetica,sans-Serif" font-size="10.00">Core &gt;</text>
</a>
</g>
</g>
<!-- Node2&#45;&gt;Node1 -->
<g id="edge1" class="edge">
<title>Node2&#45;&gt;Node1</title>
<path fill="none" stroke="#63b8ff" d="M90.88,-67.22C90.88,-58.63 90.88,-49.8 90.88,-42.24"/>
<polygon fill="#63b8ff" stroke="#63b8ff" points="87.38,-67.12 90.88,-77.12 94.38,-67.12 87.38,-67.12"/>
</g>
<!-- Node3 -->
<g id="node3" class="node">
<title>Node3</title>
<g id="a_node3"><a xlink:title=" ">
<polygon fill="white" stroke="#666666" points="139.88,-277 33.88,-277 33.88,-257.75 139.88,-257.75 139.88,-277"/>
<text text-anchor="middle" x="86.88" y="-263.5" font-family="Helvetica,sans-Serif" font-size="10.00">T::UserDataOperator</text>
</a>
</g>
</g>
<!-- Node3&#45;&gt;Node2 -->
<g id="edge2" class="edge">
<title>Node3&#45;&gt;Node2</title>
<path fill="none" stroke="#63b8ff" d="M87.39,-245.8C88.12,-216.73 89.44,-163.64 90.23,-131.99"/>
<polygon fill="#63b8ff" stroke="#63b8ff" points="83.89,-245.71 87.14,-255.79 90.89,-245.88 83.89,-245.71"/>
</g>
<!-- Node4 -->
<g id="node4" class="node">
<title>Node4</title>
<g id="a_node4"><a xlink:href="struct_fracture_mechanics_1_1_m_w_l_s_approx_1_1_op_m_w_l_s_base.html" target="_top" xlink:title=" ">
<polygon fill="white" stroke="#666666" points="274.88,-220.75 102.88,-220.75 102.88,-190.25 274.88,-190.25 274.88,-220.75"/>
<text text-anchor="start" x="110.88" y="-207.25" font-family="Helvetica,sans-Serif" font-size="10.00">FractureMechanics::</text>
<text text-anchor="middle" x="188.88" y="-196" font-family="Helvetica,sans-Serif" font-size="10.00">MWLSApprox::OpMWLSBase&lt; T &gt;</text>
</a>
</g>
</g>
<!-- Node3&#45;&gt;Node4 -->
<g id="edge4" class="edge">
<title>Node3&#45;&gt;Node4</title>
<path fill="none" stroke="#63b8ff" d="M112.04,-251.6C127.91,-242.29 148.3,-230.32 164.09,-221.05"/>
<polygon fill="#63b8ff" stroke="#63b8ff" points="110.52,-248.43 103.67,-256.52 114.07,-254.47 110.52,-248.43"/>
</g>
<!-- Node4&#45;&gt;Node2 -->
<g id="edge3" class="edge">
<title>Node4&#45;&gt;Node2</title>
<path fill="none" stroke="orange" stroke-dasharray="5,2" d="M166.67,-182.24C151.74,-167.27 132.02,-147.5 116.44,-131.88"/>
<polygon fill="orange" stroke="orange" points="163.81,-184.32 173.35,-188.93 168.76,-179.38 163.81,-184.32"/>
<text text-anchor="start" x="153.88" y="-162.75" font-family="Helvetica,sans-Serif" font-size="10.00"> &lt; VolumeElementForcesAnd</text>
<text text-anchor="middle" x="218" y="-151.5" font-family="Helvetica,sans-Serif" font-size="10.00">SourcesCore &gt;</text>
</g>
</g>
</svg>
