<?xml version="1.0" encoding="UTF-8" standalone="no"?>
<!DOCTYPE svg PUBLIC "-//W3C//DTD SVG 1.1//EN"
 "http://www.w3.org/Graphics/SVG/1.1/DTD/svg11.dtd">
<!-- Generated by graphviz version 2.43.0 (0)
 -->
<!-- Title: MoFEM::OpCalculateHVecTensorTrace&lt; Tensor_Dim, OpBase &gt; Pages: 1 -->
<svg width="694pt" height="663pt"
 viewBox="0.00 0.00 694.00 662.50" xmlns="http://www.w3.org/2000/svg" xmlns:xlink="http://www.w3.org/1999/xlink">
<g id="graph0" class="graph" transform="scale(1 1) rotate(0) translate(4 658.5)">
<title>MoFEM::OpCalculateHVecTensorTrace&lt; Tensor_Dim, OpBase &gt;</title>
<polygon fill="white" stroke="transparent" points="-4,4 -4,-658.5 690,-658.5 690,4 -4,4"/>
<!-- Node1 -->
<g id="node1" class="node">
<title>Node1</title>
<g id="a_node1"><a xlink:title="Calculate trace of vector (Hdiv/Hcurl) space.">
<polygon fill="#bfbfbf" stroke="black" points="512,-120.5 512,-150.5 686,-150.5 686,-120.5 512,-120.5"/>
<text text-anchor="start" x="520" y="-138.5" font-family="Helvetica,sans-Serif" font-size="10.00">MoFEM::OpCalculateHVecTensor</text>
<text text-anchor="middle" x="599" y="-127.5" font-family="Helvetica,sans-Serif" font-size="10.00">Trace&lt; Tensor_Dim, OpBase &gt;</text>
</a>
</g>
</g>
<!-- Node2 -->
<g id="node2" class="node">
<title>Node2</title>
<g id="a_node2"><a xlink:href="structMoFEM_1_1OpBaseImpl.html" target="_top" xlink:title=" ">
<polygon fill="white" stroke="black" points="332,-429 332,-448 386,-448 386,-429 332,-429"/>
<text text-anchor="middle" x="359" y="-436" font-family="Helvetica,sans-Serif" font-size="10.00">OpBase</text>
</a>
</g>
</g>
<!-- Node2&#45;&gt;Node1 -->
<g id="edge1" class="edge">
<title>Node2&#45;&gt;Node1</title>
<path fill="none" stroke="midnightblue" d="M373.97,-420.71C416.83,-366.15 545.91,-201.81 585.99,-150.78"/>
<polygon fill="midnightblue" stroke="midnightblue" points="371.07,-418.74 367.65,-428.76 376.58,-423.06 371.07,-418.74"/>
</g>
<!-- Node3 -->
<g id="node3" class="node">
<title>Node3</title>
<g id="a_node3"><a xlink:href="classEleOp.html" target="_top" xlink:title=" ">
<polygon fill="white" stroke="black" points="52,-501 52,-520 97,-520 97,-501 52,-501"/>
<text text-anchor="middle" x="74.5" y="-508" font-family="Helvetica,sans-Serif" font-size="10.00">EleOp</text>
</a>
</g>
</g>
<!-- Node3&#45;&gt;Node2 -->
<g id="edge2" class="edge">
<title>Node3&#45;&gt;Node2</title>
<path fill="none" stroke="midnightblue" d="M106.99,-507.38C146.07,-502.96 214.49,-493.49 271,-476.5 295.47,-469.15 322.2,-456.77 339.48,-448.14"/>
<polygon fill="midnightblue" stroke="midnightblue" points="106.57,-503.9 97.01,-508.46 107.33,-510.86 106.57,-503.9"/>
</g>
<!-- Node4 -->
<g id="node4" class="node">
<title>Node4</title>
<g id="a_node4"><a xlink:href="classUBlasVector_3_01double_01_4.html" target="_top" xlink:title=" ">
<polygon fill="white" stroke="black" points="9,-463 9,-482 140,-482 140,-463 9,-463"/>
<text text-anchor="middle" x="74.5" y="-470" font-family="Helvetica,sans-Serif" font-size="10.00">UBlasVector&lt; double &gt;</text>
</a>
</g>
</g>
<!-- Node4&#45;&gt;Node2 -->
<g id="edge3" class="edge">
<title>Node4&#45;&gt;Node2</title>
<path fill="none" stroke="#9a32cd" stroke-dasharray="5,2" d="M150.32,-464.52C186.76,-460.53 231.19,-455.48 271,-450.5 291.42,-447.94 314.5,-444.75 331.75,-442.29"/>
<polygon fill="#9a32cd" stroke="#9a32cd" points="149.83,-461.06 140.27,-465.62 150.59,-468.01 149.83,-461.06"/>
<text text-anchor="middle" x="219" y="-464.5" font-family="Helvetica,sans-Serif" font-size="10.00"> locF</text>
</g>
<!-- Node5 -->
<g id="node5" class="node">
<title>Node5</title>
<g id="a_node5"><a xlink:title=" ">
<polygon fill="white" stroke="#bfbfbf" points="5,-425 5,-444 144,-444 144,-425 5,-425"/>
<text text-anchor="middle" x="74.5" y="-432" font-family="Helvetica,sans-Serif" font-size="10.00">static MatSetValuesHook</text>
</a>
</g>
</g>
<!-- Node5&#45;&gt;Node2 -->
<g id="edge4" class="edge">
<title>Node5&#45;&gt;Node2</title>
<path fill="none" stroke="#9a32cd" stroke-dasharray="5,2" d="M154.37,-435.62C213.81,-436.46 291.71,-437.56 331.74,-438.13"/>
<polygon fill="#9a32cd" stroke="#9a32cd" points="154.29,-432.12 144.25,-435.47 154.2,-439.11 154.29,-432.12"/>
<text text-anchor="middle" x="219" y="-439.5" font-family="Helvetica,sans-Serif" font-size="10.00"> matSetValuesHook</text>
</g>
<!-- Node6 -->
<g id="node6" class="node">
<title>Node6</title>
<g id="a_node6"><a xlink:title=" ">
<polygon fill="white" stroke="#bfbfbf" points="40.5,-387 40.5,-406 108.5,-406 108.5,-387 40.5,-387"/>
<text text-anchor="middle" x="74.5" y="-394" font-family="Helvetica,sans-Serif" font-size="10.00">EntityType</text>
</a>
</g>
</g>
<!-- Node6&#45;&gt;Node2 -->
<g id="edge5" class="edge">
<title>Node6&#45;&gt;Node2</title>
<path fill="none" stroke="#9a32cd" stroke-dasharray="5,2" d="M118.87,-396.23C158.76,-396.72 219.37,-399.35 271,-409.5 293.18,-413.86 317.53,-422.31 334.81,-428.96"/>
<polygon fill="#9a32cd" stroke="#9a32cd" points="118.72,-392.73 108.69,-396.14 118.66,-399.73 118.72,-392.73"/>
<text text-anchor="middle" x="219" y="-423.5" font-family="Helvetica,sans-Serif" font-size="10.00"> rowType</text>
<text text-anchor="middle" x="219" y="-412.5" font-family="Helvetica,sans-Serif" font-size="10.00">colType</text>
</g>
<!-- Node7 -->
<g id="node7" class="node">
<title>Node7</title>
<g id="a_node7"><a xlink:title=" ">
<polygon fill="white" stroke="#bfbfbf" points="13.5,-349 13.5,-368 135.5,-368 135.5,-349 13.5,-349"/>
<text text-anchor="middle" x="74.5" y="-356" font-family="Helvetica,sans-Serif" font-size="10.00">shared_ptr&lt; Range &gt;</text>
</a>
</g>
</g>
<!-- Node7&#45;&gt;Node2 -->
<g id="edge6" class="edge">
<title>Node7&#45;&gt;Node2</title>
<path fill="none" stroke="#9a32cd" stroke-dasharray="5,2" d="M146.16,-359.57C184.12,-362.01 231.17,-368.1 271,-382.5 300.9,-393.31 331.04,-415.94 346.8,-428.88"/>
<polygon fill="#9a32cd" stroke="#9a32cd" points="145.89,-356.05 135.71,-358.97 145.49,-363.04 145.89,-356.05"/>
<text text-anchor="middle" x="219" y="-385.5" font-family="Helvetica,sans-Serif" font-size="10.00"> entsPtr</text>
</g>
<!-- Node8 -->
<g id="node8" class="node">
<title>Node8</title>
<g id="a_node8"><a xlink:title=" ">
<polygon fill="white" stroke="#bfbfbf" points="9,-299.5 9,-329.5 140,-329.5 140,-299.5 9,-299.5"/>
<text text-anchor="start" x="17" y="-317.5" font-family="Helvetica,sans-Serif" font-size="10.00">function&lt; double(const</text>
<text text-anchor="middle" x="74.5" y="-306.5" font-family="Helvetica,sans-Serif" font-size="10.00"> FEMethod *fe_ptr)&gt;</text>
</a>
</g>
</g>
<!-- Node8&#45;&gt;Node2 -->
<g id="edge7" class="edge">
<title>Node8&#45;&gt;Node2</title>
<path fill="none" stroke="#9a32cd" stroke-dasharray="5,2" d="M150.43,-315.53C188.42,-318.76 234.19,-326.97 271,-346.5 308.87,-366.59 339.52,-409.45 351.99,-428.74"/>
<polygon fill="#9a32cd" stroke="#9a32cd" points="150.68,-312.03 140.44,-314.77 150.15,-319.02 150.68,-312.03"/>
<text text-anchor="middle" x="219" y="-349.5" font-family="Helvetica,sans-Serif" font-size="10.00"> feScalingFun</text>
</g>
<!-- Node9 -->
<g id="node9" class="node">
<title>Node9</title>
<g id="a_node9"><a xlink:title=" ">
<polygon fill="white" stroke="#bfbfbf" points="60,-210 60,-229 89,-229 89,-210 60,-210"/>
<text text-anchor="middle" x="74.5" y="-217" font-family="Helvetica,sans-Serif" font-size="10.00">int</text>
</a>
</g>
</g>
<!-- Node9&#45;&gt;Node1 -->
<g id="edge13" class="edge">
<title>Node9&#45;&gt;Node1</title>
<path fill="none" stroke="#9a32cd" stroke-dasharray="5,2" d="M99.33,-217.94C163.7,-213.38 346.22,-198.13 494,-163.5 510.57,-159.62 528.5,-154.96 544.73,-150.56"/>
<polygon fill="#9a32cd" stroke="#9a32cd" points="98.78,-214.47 89.04,-218.65 99.26,-221.45 98.78,-214.47"/>
<text text-anchor="middle" x="359" y="-201.5" font-family="Helvetica,sans-Serif" font-size="10.00"> zeroSide</text>
</g>
<!-- Node9&#45;&gt;Node2 -->
<g id="edge8" class="edge">
<title>Node9&#45;&gt;Node2</title>
<path fill="none" stroke="#9a32cd" stroke-dasharray="5,2" d="M99.33,-219.98C145.35,-221.34 244.3,-226.57 271,-246.5 334.05,-293.57 352.56,-397 356.87,-428.93"/>
<polygon fill="#9a32cd" stroke="#9a32cd" points="99.18,-216.47 89.09,-219.71 99,-223.47 99.18,-216.47"/>
<text text-anchor="middle" x="219" y="-304.5" font-family="Helvetica,sans-Serif" font-size="10.00"> nbIntegrationPts</text>
<text text-anchor="middle" x="219" y="-293.5" font-family="Helvetica,sans-Serif" font-size="10.00">colSide</text>
<text text-anchor="middle" x="219" y="-282.5" font-family="Helvetica,sans-Serif" font-size="10.00">nbCols</text>
<text text-anchor="middle" x="219" y="-271.5" font-family="Helvetica,sans-Serif" font-size="10.00">nbRowBaseFunctions</text>
<text text-anchor="middle" x="219" y="-260.5" font-family="Helvetica,sans-Serif" font-size="10.00">rowSide</text>
<text text-anchor="middle" x="219" y="-249.5" font-family="Helvetica,sans-Serif" font-size="10.00">nbRows</text>
</g>
<!-- Node10 -->
<g id="node10" class="node">
<title>Node10</title>
<g id="a_node10"><a xlink:href="classbool.html" target="_top" xlink:title=" ">
<polygon fill="white" stroke="black" points="55.5,-616 55.5,-635 93.5,-635 93.5,-616 55.5,-616"/>
<text text-anchor="middle" x="74.5" y="-623" font-family="Helvetica,sans-Serif" font-size="10.00">bool</text>
</a>
</g>
</g>
<!-- Node10&#45;&gt;Node2 -->
<g id="edge9" class="edge">
<title>Node10&#45;&gt;Node2</title>
<path fill="none" stroke="#9a32cd" stroke-dasharray="5,2" d="M103.59,-630C144.26,-634.95 220.24,-638.14 271,-603.5 327.71,-564.8 350.16,-477.04 356.2,-448.02"/>
<polygon fill="#9a32cd" stroke="#9a32cd" points="103.95,-626.52 93.57,-628.66 103.02,-633.46 103.95,-626.52"/>
<text text-anchor="middle" x="219" y="-646.5" font-family="Helvetica,sans-Serif" font-size="10.00"> assembleTranspose</text>
<text text-anchor="middle" x="219" y="-635.5" font-family="Helvetica,sans-Serif" font-size="10.00">onlyTranspose</text>
</g>
<!-- Node11 -->
<g id="node11" class="node">
<title>Node11</title>
<g id="a_node11"><a xlink:title=" ">
<polygon fill="white" stroke="#bfbfbf" points="0,-578 0,-597 149,-597 149,-578 0,-578"/>
<text text-anchor="middle" x="74.5" y="-585" font-family="Helvetica,sans-Serif" font-size="10.00">function&lt; double(double)&gt;</text>
</a>
</g>
</g>
<!-- Node11&#45;&gt;Node2 -->
<g id="edge10" class="edge">
<title>Node11&#45;&gt;Node2</title>
<path fill="none" stroke="#9a32cd" stroke-dasharray="5,2" d="M159.45,-589.84C195.98,-587.37 237.9,-579.56 271,-559.5 316.14,-532.14 344.58,-471.55 354.28,-448.06"/>
<polygon fill="#9a32cd" stroke="#9a32cd" points="159.09,-586.35 149.3,-590.4 159.48,-593.34 159.09,-586.35"/>
<text text-anchor="middle" x="219" y="-591.5" font-family="Helvetica,sans-Serif" font-size="10.00"> timeScalingFun</text>
</g>
<!-- Node12 -->
<g id="node12" class="node">
<title>Node12</title>
<g id="a_node12"><a xlink:href="classUBlasMatrix_3_01double_01_4.html" target="_top" xlink:title=" ">
<polygon fill="white" stroke="black" points="8.5,-539 8.5,-558 140.5,-558 140.5,-539 8.5,-539"/>
<text text-anchor="middle" x="74.5" y="-546" font-family="Helvetica,sans-Serif" font-size="10.00">UBlasMatrix&lt; double &gt;</text>
</a>
</g>
</g>
<!-- Node12&#45;&gt;Node2 -->
<g id="edge11" class="edge">
<title>Node12&#45;&gt;Node2</title>
<path fill="none" stroke="#9a32cd" stroke-dasharray="5,2" d="M150.85,-537.5C188.15,-530.3 233.17,-518.91 271,-501.5 301.49,-487.47 332.12,-462.02 347.61,-448.15"/>
<polygon fill="#9a32cd" stroke="#9a32cd" points="149.74,-534.15 140.55,-539.42 151.02,-541.03 149.74,-534.15"/>
<text text-anchor="middle" x="219" y="-547.5" font-family="Helvetica,sans-Serif" font-size="10.00"> locMat</text>
<text text-anchor="middle" x="219" y="-536.5" font-family="Helvetica,sans-Serif" font-size="10.00">locMatTranspose</text>
</g>
<!-- Node13 -->
<g id="node13" class="node">
<title>Node13</title>
<g id="a_node13"><a xlink:href="classEntityHandle.html" target="_top" xlink:title=" ">
<polygon fill="white" stroke="black" points="319,-148 319,-167 399,-167 399,-148 319,-148"/>
<text text-anchor="middle" x="359" y="-155" font-family="Helvetica,sans-Serif" font-size="10.00">EntityHandle</text>
</a>
</g>
</g>
<!-- Node13&#45;&gt;Node1 -->
<g id="edge12" class="edge">
<title>Node13&#45;&gt;Node1</title>
<path fill="none" stroke="#9a32cd" stroke-dasharray="5,2" d="M409.11,-152.96C438.7,-150.22 477.23,-146.66 511.77,-143.47"/>
<polygon fill="#9a32cd" stroke="#9a32cd" points="408.67,-149.49 399.03,-153.89 409.31,-156.46 408.67,-149.49"/>
<text text-anchor="middle" x="470.5" y="-151.5" font-family="Helvetica,sans-Serif" font-size="10.00"> zeroType</text>
</g>
<!-- Node14 -->
<g id="node14" class="node">
<title>Node14</title>
<g id="a_node14"><a xlink:title=" ">
<polygon fill="white" stroke="#bfbfbf" points="289,-98.5 289,-128.5 429,-128.5 429,-98.5 289,-98.5"/>
<text text-anchor="start" x="297" y="-116.5" font-family="Helvetica,sans-Serif" font-size="10.00">shared_ptr&lt; UBlasMatrix</text>
<text text-anchor="middle" x="359" y="-105.5" font-family="Helvetica,sans-Serif" font-size="10.00">&lt; double &gt; &gt;</text>
</a>
</g>
</g>
<!-- Node14&#45;&gt;Node1 -->
<g id="edge14" class="edge">
<title>Node14&#45;&gt;Node1</title>
<path fill="none" stroke="#9a32cd" stroke-dasharray="5,2" d="M439.31,-120.83C462.56,-122.98 488.08,-125.34 511.73,-127.53"/>
<polygon fill="#9a32cd" stroke="#9a32cd" points="439.44,-117.33 429.16,-119.89 438.79,-124.3 439.44,-117.33"/>
<text text-anchor="middle" x="470.5" y="-128.5" font-family="Helvetica,sans-Serif" font-size="10.00"> dataPtr</text>
</g>
<!-- Node15 -->
<g id="node15" class="node">
<title>Node15</title>
<g id="a_node15"><a xlink:href="classFTensor_1_1Index.html" target="_top" xlink:title=" ">
<polygon fill="white" stroke="black" points="304,-0.5 304,-30.5 414,-30.5 414,-0.5 304,-0.5"/>
<text text-anchor="start" x="312" y="-18.5" font-family="Helvetica,sans-Serif" font-size="10.00">FTensor::Index&lt; &#39;j&#39;,</text>
<text text-anchor="middle" x="359" y="-7.5" font-family="Helvetica,sans-Serif" font-size="10.00"> Tensor_Dim &gt;</text>
</a>
</g>
</g>
<!-- Node15&#45;&gt;Node1 -->
<g id="edge15" class="edge">
<title>Node15&#45;&gt;Node1</title>
<path fill="none" stroke="#9a32cd" stroke-dasharray="5,2" d="M416.35,-34.14C420.67,-35.86 424.93,-37.65 429,-39.5 483.09,-64.02 542.68,-100.2 574.65,-120.42"/>
<polygon fill="#9a32cd" stroke="#9a32cd" points="417.44,-30.81 406.85,-30.5 414.93,-37.35 417.44,-30.81"/>
<text text-anchor="middle" x="470.5" y="-74.5" font-family="Helvetica,sans-Serif" font-size="10.00"> j</text>
</g>
<!-- Node16 -->
<g id="node16" class="node">
<title>Node16</title>
<g id="a_node16"><a xlink:href="classFTensor_1_1Index.html" target="_top" xlink:title=" ">
<polygon fill="white" stroke="black" points="22.5,-23.5 22.5,-53.5 126.5,-53.5 126.5,-23.5 22.5,-23.5"/>
<text text-anchor="start" x="30.5" y="-41.5" font-family="Helvetica,sans-Serif" font-size="10.00">FTensor::Index&lt; i,</text>
<text text-anchor="middle" x="74.5" y="-30.5" font-family="Helvetica,sans-Serif" font-size="10.00"> Dim &gt;</text>
</a>
</g>
</g>
<!-- Node16&#45;&gt;Node15 -->
<g id="edge16" class="edge">
<title>Node16&#45;&gt;Node15</title>
<path fill="none" stroke="orange" stroke-dasharray="5,2" d="M136.66,-28.24C146.78,-26.8 157.17,-25.48 167,-24.5 213.08,-19.9 265.66,-17.64 303.96,-16.54"/>
<polygon fill="orange" stroke="orange" points="136.06,-24.79 126.68,-29.7 137.08,-31.71 136.06,-24.79"/>
<text text-anchor="middle" x="219" y="-27.5" font-family="Helvetica,sans-Serif" font-size="10.00"> &lt; &#39;j&#39;, Tensor_Dim &gt;</text>
</g>
<!-- Node17 -->
<g id="node17" class="node">
<title>Node17</title>
<g id="a_node17"><a xlink:href="classFTensor_1_1Index.html" target="_top" xlink:title=" ">
<polygon fill="white" stroke="black" points="304,-49.5 304,-79.5 414,-79.5 414,-49.5 304,-49.5"/>
<text text-anchor="start" x="312" y="-67.5" font-family="Helvetica,sans-Serif" font-size="10.00">FTensor::Index&lt; &#39;i&#39;,</text>
<text text-anchor="middle" x="359" y="-56.5" font-family="Helvetica,sans-Serif" font-size="10.00"> Tensor_Dim &gt;</text>
</a>
</g>
</g>
<!-- Node16&#45;&gt;Node17 -->
<g id="edge18" class="edge">
<title>Node16&#45;&gt;Node17</title>
<path fill="none" stroke="orange" stroke-dasharray="5,2" d="M136.65,-44.13C186.44,-48.71 256.06,-55.12 303.85,-59.52"/>
<polygon fill="orange" stroke="orange" points="136.94,-40.64 126.66,-43.21 136.3,-47.61 136.94,-40.64"/>
<text text-anchor="middle" x="219" y="-59.5" font-family="Helvetica,sans-Serif" font-size="10.00"> &lt; &#39;i&#39;, Tensor_Dim &gt;</text>
</g>
<!-- Node17&#45;&gt;Node1 -->
<g id="edge17" class="edge">
<title>Node17&#45;&gt;Node1</title>
<path fill="none" stroke="#9a32cd" stroke-dasharray="5,2" d="M420.22,-82.46C459.57,-94.2 510.38,-109.36 547.6,-120.46"/>
<polygon fill="#9a32cd" stroke="#9a32cd" points="421.06,-79.06 410.47,-79.56 419.06,-85.77 421.06,-79.06"/>
<text text-anchor="middle" x="470.5" y="-107.5" font-family="Helvetica,sans-Serif" font-size="10.00"> i</text>
</g>
</g>
</svg>
