<?xml version="1.0" encoding="UTF-8" standalone="no"?>
<!DOCTYPE svg PUBLIC "-//W3C//DTD SVG 1.1//EN"
 "http://www.w3.org/Graphics/SVG/1.1/DTD/svg11.dtd">
<!-- Generated by graphviz version 9.0.0 (20230911.1827)
 -->
<!-- Title: OpCalculatePiola&lt; DIM_0, DIM_1 &gt; Pages: 1 -->
<svg width="346pt" height="150pt"
 viewBox="0.00 0.00 345.88 150.00" xmlns="http://www.w3.org/2000/svg" xmlns:xlink="http://www.w3.org/1999/xlink">
<g id="graph0" class="graph" transform="scale(1 1) rotate(0) translate(4 146)">
<title>OpCalculatePiola&lt; DIM_0, DIM_1 &gt;</title>
<!-- Node1 -->
<g id="node1" class="node">
<title>Node1</title>
<g id="a_node1"><a xlink:title=" ">
<polygon fill="#999999" stroke="#666666" points="219.88,-30.5 100.38,-30.5 100.38,0 219.88,0 219.88,-30.5"/>
<text text-anchor="start" x="108.38" y="-17" font-family="Helvetica,sans-Serif" font-size="10.00">OpCalculatePiola&lt; DIM</text>
<text text-anchor="middle" x="160.12" y="-5.75" font-family="Helvetica,sans-Serif" font-size="10.00">_0, DIM_1 &gt;</text>
</a>
</g>
</g>
<!-- Node2 -->
<g id="node2" class="node">
<title>Node2</title>
<g id="a_node2"><a xlink:title=" ">
<polygon fill="white" stroke="#666666" points="120.25,-142 0,-142 0,-111.5 120.25,-111.5 120.25,-142"/>
<text text-anchor="start" x="8" y="-128.5" font-family="Helvetica,sans-Serif" font-size="10.00">ForcesAndSourcesCore</text>
<text text-anchor="middle" x="60.12" y="-117.25" font-family="Helvetica,sans-Serif" font-size="10.00">::UserDataOperator</text>
</a>
</g>
</g>
<!-- Node2&#45;&gt;Node1 -->
<g id="edge1" class="edge">
<title>Node2&#45;&gt;Node1</title>
<path fill="none" stroke="#63b8ff" d="M80.78,-103.14C100.56,-81.48 129.82,-49.43 146.73,-30.92"/>
<polygon fill="#63b8ff" stroke="#63b8ff" points="78.38,-100.57 74.22,-110.32 83.55,-105.29 78.38,-100.57"/>
</g>
<!-- Node3 -->
<g id="node3" class="node">
<title>Node3</title>
<g id="a_node3"><a xlink:href="classdouble.html" target="_top" xlink:title=" ">
<polygon fill="white" stroke="#666666" points="182.38,-136.38 137.88,-136.38 137.88,-117.12 182.38,-117.12 182.38,-136.38"/>
<text text-anchor="middle" x="160.12" y="-122.88" font-family="Helvetica,sans-Serif" font-size="10.00">double</text>
</a>
</g>
</g>
<!-- Node3&#45;&gt;Node1 -->
<g id="edge2" class="edge">
<title>Node3&#45;&gt;Node1</title>
<path fill="none" stroke="#9a32cd" stroke-dasharray="5,2" d="M160.12,-105.35C160.12,-83.67 160.12,-49.94 160.12,-30.8"/>
<polygon fill="#9a32cd" stroke="#9a32cd" points="156.63,-105.28 160.13,-115.28 163.63,-105.28 156.63,-105.28"/>
<text text-anchor="middle" x="192" y="-84" font-family="Helvetica,sans-Serif" font-size="10.00"> bulkModulus</text>
<text text-anchor="middle" x="192" y="-72.75" font-family="Helvetica,sans-Serif" font-size="10.00">lammeLambda</text>
<text text-anchor="middle" x="192" y="-61.5" font-family="Helvetica,sans-Serif" font-size="10.00">mU</text>
<text text-anchor="middle" x="192" y="-50.25" font-family="Helvetica,sans-Serif" font-size="10.00">shearModulus</text>
</g>
<!-- Node4 -->
<g id="node4" class="node">
<title>Node4</title>
<g id="a_node4"><a xlink:title=" ">
<polygon fill="white" stroke="#666666" points="337.88,-136.38 200.38,-136.38 200.38,-117.12 337.88,-117.12 337.88,-136.38"/>
<text text-anchor="middle" x="269.12" y="-122.88" font-family="Helvetica,sans-Serif" font-size="10.00">shared_ptr&lt; MatrixDouble &gt;</text>
</a>
</g>
</g>
<!-- Node4&#45;&gt;Node1 -->
<g id="edge3" class="edge">
<title>Node4&#45;&gt;Node1</title>
<path fill="none" stroke="#9a32cd" stroke-dasharray="5,2" d="M262.88,-106.55C256.49,-89.45 245.07,-64.7 228.12,-48.5 220.66,-41.37 211.33,-35.57 201.99,-30.95"/>
<polygon fill="#9a32cd" stroke="#9a32cd" points="259.42,-107.25 266.01,-115.54 266.03,-104.94 259.42,-107.25"/>
<text text-anchor="middle" x="282.62" y="-72.75" font-family="Helvetica,sans-Serif" font-size="10.00"> defGradPtr</text>
<text text-anchor="middle" x="282.62" y="-61.5" font-family="Helvetica,sans-Serif" font-size="10.00">firstPiolaPtr</text>
</g>
</g>
</svg>
