<?xml version="1.0" encoding="UTF-8" standalone="no"?>
<!DOCTYPE svg PUBLIC "-//W3C//DTD SVG 1.1//EN"
 "http://www.w3.org/Graphics/SVG/1.1/DTD/svg11.dtd">
<!-- Generated by graphviz version 9.0.0 (20230911.1827)
 -->
<!-- Title: MoFEM::AccelerationCubitBcData Pages: 1 -->
<svg width="218pt" height="172pt"
 viewBox="0.00 0.00 217.88 171.50" xmlns="http://www.w3.org/2000/svg" xmlns:xlink="http://www.w3.org/1999/xlink">
<g id="graph0" class="graph" transform="scale(1 1) rotate(0) translate(4 167.5)">
<title>MoFEM::AccelerationCubitBcData</title>
<!-- Node1 -->
<g id="node1" class="node">
<title>Node1</title>
<g id="a_node1"><a xlink:title="Definition of the acceleration bc data structure.">
<polygon fill="#999999" stroke="#666666" points="197.12,-30.5 63.38,-30.5 63.38,0 197.12,0 197.12,-30.5"/>
<text text-anchor="start" x="71.38" y="-17" font-family="Helvetica,sans-Serif" font-size="10.00">MoFEM::AccelerationCubit</text>
<text text-anchor="middle" x="130.25" y="-5.75" font-family="Helvetica,sans-Serif" font-size="10.00">BcData</text>
</a>
</g>
</g>
<!-- Node2 -->
<g id="node2" class="node">
<title>Node2</title>
<g id="a_node2"><a xlink:href="struct_mo_f_e_m_1_1_generic_cubit_bc_data.html" target="_top" xlink:title="Generic bc data structure.">
<polygon fill="white" stroke="#666666" points="146.5,-97 0,-97 0,-77.75 146.5,-77.75 146.5,-97"/>
<text text-anchor="middle" x="73.25" y="-83.5" font-family="Helvetica,sans-Serif" font-size="10.00">MoFEM::GenericCubitBcData</text>
</a>
</g>
</g>
<!-- Node2&#45;&gt;Node1 -->
<g id="edge1" class="edge">
<title>Node2&#45;&gt;Node1</title>
<path fill="none" stroke="#63b8ff" d="M87.64,-68.67C97.13,-57 109.39,-41.91 118.33,-30.92"/>
<polygon fill="#63b8ff" stroke="#63b8ff" points="85.02,-66.35 81.42,-76.32 90.45,-70.77 85.02,-66.35"/>
</g>
<!-- Node3 -->
<g id="node3" class="node">
<title>Node3</title>
<g id="a_node3"><a xlink:title=" ">
<polygon fill="white" stroke="#666666" points="124,-163.5 22.5,-163.5 22.5,-144.25 124,-144.25 124,-163.5"/>
<text text-anchor="middle" x="73.25" y="-150" font-family="Helvetica,sans-Serif" font-size="10.00">const CubitBCType</text>
</a>
</g>
</g>
<!-- Node3&#45;&gt;Node2 -->
<g id="edge2" class="edge">
<title>Node3&#45;&gt;Node2</title>
<path fill="none" stroke="#9a32cd" stroke-dasharray="5,2" d="M73.25,-132.4C73.25,-120.57 73.25,-106.29 73.25,-97.27"/>
<polygon fill="#9a32cd" stroke="#9a32cd" points="69.75,-132.39 73.25,-142.39 76.75,-132.39 69.75,-132.39"/>
<text text-anchor="middle" x="84.5" y="-116.75" font-family="Helvetica,sans-Serif" font-size="10.00"> tYpe</text>
</g>
<!-- Node4 -->
<g id="node4" class="node">
<title>Node4</title>
<g id="a_node4"><a xlink:title=" ">
<polygon fill="white" stroke="#666666" points="209.88,-97 164.62,-97 164.62,-77.75 209.88,-77.75 209.88,-97"/>
<text text-anchor="middle" x="187.25" y="-83.5" font-family="Helvetica,sans-Serif" font-size="10.00">_data_</text>
</a>
</g>
</g>
<!-- Node4&#45;&gt;Node1 -->
<g id="edge3" class="edge">
<title>Node4&#45;&gt;Node1</title>
<path fill="none" stroke="#9a32cd" stroke-dasharray="5,2" d="M172.86,-68.67C163.37,-57 151.11,-41.91 142.17,-30.92"/>
<polygon fill="#9a32cd" stroke="#9a32cd" points="170.05,-70.77 179.08,-76.32 175.48,-66.35 170.05,-70.77"/>
<text text-anchor="middle" x="176.12" y="-50.25" font-family="Helvetica,sans-Serif" font-size="10.00"> data</text>
</g>
</g>
</svg>
