<?xml version="1.0" encoding="UTF-8" standalone="no"?>
<!DOCTYPE svg PUBLIC "-//W3C//DTD SVG 1.1//EN"
 "http://www.w3.org/Graphics/SVG/1.1/DTD/svg11.dtd">
<!-- Generated by graphviz version 9.0.0 (20230911.1827)
 -->
<!-- Title: ContactPlasticity::ProblemData Pages: 1 -->
<!--zoomable 557 -->
<svg id="main" version="1.1" xmlns="http://www.w3.org/2000/svg" xmlns:xlink="http://www.w3.org/1999/xlink" xml:space="preserve" onload="init(evt)">
<style type="text/css"><![CDATA[
.edge:hover path { stroke: red; }
.edge:hover polygon { stroke: red; fill: red; }
]]></style>
<script type="text/javascript"><![CDATA[
var edges = document.getElementsByTagName('g');
if (edges && edges.length) {
  for (var i=0;i<edges.length;i++) {
    if (edges[i].id.substr(0,4)=='edge') {
      edges[i].setAttribute('class','edge');
    }
  }
}
]]></script>
        <defs>
                <circle id="rim" cx="0" cy="0" r="7"/>
                <circle id="rim2" cx="0" cy="0" r="3.5"/>
                <g id="zoomPlus">
                        <use xlink:href="#rim" fill="#404040">
                                <set attributeName="fill" to="#808080" begin="zoomplus.mouseover" end="zoomplus.mouseout"/>
                        </use>
                        <path d="M-4,0h8M0,-4v8" fill="none" stroke="white" stroke-width="1.5" pointer-events="none"/>
                </g>
                <g id="zoomMin">
                        <use xlink:href="#rim" fill="#404040">
                                <set attributeName="fill" to="#808080" begin="zoomminus.mouseover" end="zoomminus.mouseout"/>
                        </use>
                        <path d="M-4,0h8" fill="none" stroke="white" stroke-width="1.5" pointer-events="none"/>
                </g>
                <g id="dirArrow">
                        <path fill="none" stroke="white" stroke-width="1.5" d="M0,-3.0v7 M-2.5,-0.5L0,-3.0L2.5,-0.5"/>
                </g>
               <g id="resetDef">
                       <use xlink:href="#rim2" fill="#404040">
                               <set attributeName="fill" to="#808080" begin="reset.mouseover" end="reset.mouseout"/>
                       </use>
               </g>
        </defs>

<script type="text/javascript">
var viewWidth = 374;
var viewHeight = 557;
var sectionId = 'dynsection-0';
</script>
<script xlink:href="svgpan.js"/>
<svg id="graph" class="graph">
<g id="viewport">
<title>ContactPlasticity::ProblemData</title>
<!-- Node1 -->
<g id="node1" class="node">
<title>Node1</title>
<g id="a_node1"><a xlink:title=" ">
<polygon fill="#999999" stroke="#666666" points="365.75,-181.5 268.75,-181.5 268.75,-151 365.75,-151 365.75,-181.5"/>
<text text-anchor="start" x="276.75" y="-168" font-family="Helvetica,sans-Serif" font-size="10.00">ContactPlasticity::</text>
<text text-anchor="middle" x="317.25" y="-156.75" font-family="Helvetica,sans-Serif" font-size="10.00">ProblemData</text>
</a>
</g>
</g>
<!-- Node2 -->
<g id="node2" class="node">
<title>Node2</title>
<g id="a_node2"><a xlink:title=" ">
<polygon fill="white" stroke="#666666" points="82.03,-492.88 53.23,-492.88 53.23,-473.62 82.03,-473.62 82.03,-492.88"/>
<text text-anchor="middle" x="67.62" y="-479.38" font-family="Helvetica,sans-Serif" font-size="10.00">int</text>
</a>
</g>
</g>
<!-- Node2&#45;&gt;Node1 -->
<g id="edge1" class="edge">
<title>Node2&#45;&gt;Node1</title>
<path fill="none" stroke="#9a32cd" stroke-dasharray="5,2" d="M93.67,-488.39C132.54,-494.77 207.42,-500.52 250.75,-461.25 293.03,-422.94 310.75,-236.78 315.12,-181.66"/>
<polygon fill="#9a32cd" stroke="#9a32cd" points="94.36,-484.95 83.89,-486.61 93.11,-491.84 94.36,-484.95"/>
<text text-anchor="middle" x="202" y="-539" font-family="Helvetica,sans-Serif" font-size="10.00"> atom_test_nb</text>
<text text-anchor="middle" x="202" y="-527.75" font-family="Helvetica,sans-Serif" font-size="10.00">order</text>
<text text-anchor="middle" x="202" y="-516.5" font-family="Helvetica,sans-Serif" font-size="10.00">output_freq</text>
<text text-anchor="middle" x="202" y="-505.25" font-family="Helvetica,sans-Serif" font-size="10.00">reaction_id</text>
<text text-anchor="middle" x="202" y="-494" font-family="Helvetica,sans-Serif" font-size="10.00">restart_step</text>
</g>
<!-- Node3 -->
<g id="node3" class="node">
<title>Node3</title>
<g id="a_node3"><a xlink:title=" ">
<polygon fill="white" stroke="#666666" points="98.12,-334.88 37.12,-334.88 37.12,-315.62 98.12,-315.62 98.12,-334.88"/>
<text text-anchor="middle" x="67.62" y="-321.38" font-family="Helvetica,sans-Serif" font-size="10.00">PetscBool</text>
</a>
</g>
</g>
<!-- Node3&#45;&gt;Node1 -->
<g id="edge2" class="edge">
<title>Node3&#45;&gt;Node1</title>
<path fill="none" stroke="#9a32cd" stroke-dasharray="5,2" d="M109.72,-324.8C156.38,-323.51 228.86,-318.96 250.75,-303.25 292.09,-273.58 308.32,-210.78 313.81,-181.67"/>
<polygon fill="#9a32cd" stroke="#9a32cd" points="109.89,-321.29 99.97,-325.02 110.05,-328.29 109.89,-321.29"/>
<text text-anchor="middle" x="202" y="-447.75" font-family="Helvetica,sans-Serif" font-size="10.00"> calculate_reactions</text>
<text text-anchor="middle" x="202" y="-436.5" font-family="Helvetica,sans-Serif" font-size="10.00">debug_info</text>
<text text-anchor="middle" x="202" y="-425.25" font-family="Helvetica,sans-Serif" font-size="10.00">is_alm</text>
<text text-anchor="start" x="153.25" y="-414" font-family="Helvetica,sans-Serif" font-size="10.00">is_fieldsplit_bc</text>
<text text-anchor="middle" x="202" y="-402.75" font-family="Helvetica,sans-Serif" font-size="10.00">_only</text>
<text text-anchor="middle" x="202" y="-391.5" font-family="Helvetica,sans-Serif" font-size="10.00">is_ho_geometry</text>
<text text-anchor="middle" x="202" y="-380.25" font-family="Helvetica,sans-Serif" font-size="10.00">is_large_strain</text>
<text text-anchor="middle" x="202" y="-369" font-family="Helvetica,sans-Serif" font-size="10.00">is_neohooke</text>
<text text-anchor="middle" x="202" y="-357.75" font-family="Helvetica,sans-Serif" font-size="10.00">is_reduced_integration</text>
<text text-anchor="middle" x="202" y="-346.5" font-family="Helvetica,sans-Serif" font-size="10.00">is_restart</text>
<text text-anchor="middle" x="202" y="-335.25" font-family="Helvetica,sans-Serif" font-size="10.00">is_rotating</text>
<text text-anchor="middle" x="202" y="-324" font-family="Helvetica,sans-Serif" font-size="10.00">...</text>
</g>
<!-- Node4 -->
<g id="node4" class="node">
<title>Node4</title>
<g id="a_node4"><a xlink:title=" ">
<polygon fill="white" stroke="#666666" points="87.62,-257.88 47.62,-257.88 47.62,-238.62 87.62,-238.62 87.62,-257.88"/>
<text text-anchor="middle" x="67.62" y="-244.38" font-family="Helvetica,sans-Serif" font-size="10.00">string</text>
</a>
</g>
</g>
<!-- Node4&#45;&gt;Node1 -->
<g id="edge3" class="edge">
<title>Node4&#45;&gt;Node1</title>
<path fill="none" stroke="#9a32cd" stroke-dasharray="5,2" d="M99.02,-248.43C136.34,-247.59 200.82,-242.61 250.75,-220.25 270.79,-211.28 289.69,-194.46 301.99,-181.96"/>
<polygon fill="#9a32cd" stroke="#9a32cd" points="99.37,-244.93 89.42,-248.56 99.47,-251.93 99.37,-244.93"/>
<text text-anchor="middle" x="202" y="-291" font-family="Helvetica,sans-Serif" font-size="10.00"> contact_history</text>
<text text-anchor="middle" x="202" y="-279.75" font-family="Helvetica,sans-Serif" font-size="10.00">dirichlet_history</text>
<text text-anchor="middle" x="202" y="-268.5" font-family="Helvetica,sans-Serif" font-size="10.00">mesh_file_str</text>
<text text-anchor="middle" x="202" y="-257.25" font-family="Helvetica,sans-Serif" font-size="10.00">move_history</text>
<text text-anchor="middle" x="202" y="-246" font-family="Helvetica,sans-Serif" font-size="10.00">restart_file_str</text>
</g>
<!-- Node5 -->
<g id="node5" class="node">
<title>Node5</title>
<g id="a_node5"><a xlink:title=" ">
<polygon fill="white" stroke="#666666" points="135.25,-220.88 0,-220.88 0,-201.62 135.25,-201.62 135.25,-220.88"/>
<text text-anchor="middle" x="67.62" y="-207.38" font-family="Helvetica,sans-Serif" font-size="10.00">shared_ptr&lt; BoundaryEle &gt;</text>
</a>
</g>
</g>
<!-- Node5&#45;&gt;Node1 -->
<g id="edge4" class="edge">
<title>Node5&#45;&gt;Node1</title>
<path fill="none" stroke="#9a32cd" stroke-dasharray="5,2" d="M146.71,-206.33C179.19,-203.23 217.09,-198.24 250.75,-190.25 259.82,-188.1 269.36,-185.07 278.27,-181.88"/>
<polygon fill="#9a32cd" stroke="#9a32cd" points="146.61,-202.82 136.97,-207.21 147.24,-209.79 146.61,-202.82"/>
<text text-anchor="middle" x="202" y="-207" font-family="Helvetica,sans-Serif" font-size="10.00"> update_roller</text>
</g>
<!-- Node6 -->
<g id="node6" class="node">
<title>Node6</title>
<g id="a_node6"><a xlink:title=" ">
<polygon fill="white" stroke="#666666" points="131.5,-178.88 3.75,-178.88 3.75,-159.62 131.5,-159.62 131.5,-178.88"/>
<text text-anchor="middle" x="67.62" y="-165.38" font-family="Helvetica,sans-Serif" font-size="10.00">shared_ptr&lt; DomainEle &gt;</text>
</a>
</g>
</g>
<!-- Node6&#45;&gt;Node1 -->
<g id="edge5" class="edge">
<title>Node6&#45;&gt;Node1</title>
<path fill="none" stroke="#9a32cd" stroke-dasharray="5,2" d="M143.37,-167.89C146.71,-167.84 150.01,-167.79 153.25,-167.75 192.02,-167.23 235.97,-166.84 268.46,-166.58"/>
<polygon fill="#9a32cd" stroke="#9a32cd" points="143.39,-164.39 133.45,-168.05 143.5,-171.39 143.39,-164.39"/>
<text text-anchor="middle" x="202" y="-180.25" font-family="Helvetica,sans-Serif" font-size="10.00"> calc_reactions</text>
<text text-anchor="middle" x="202" y="-169" font-family="Helvetica,sans-Serif" font-size="10.00">contact_pipeline</text>
</g>
<!-- Node7 -->
<g id="node7" class="node">
<title>Node7</title>
<g id="a_node7"><a xlink:title=" ">
<polygon fill="white" stroke="#666666" points="86.12,-141.88 49.12,-141.88 49.12,-122.62 86.12,-122.62 86.12,-141.88"/>
<text text-anchor="middle" x="67.62" y="-128.38" font-family="Helvetica,sans-Serif" font-size="10.00">Core</text>
</a>
</g>
</g>
<!-- Node7&#45;&gt;Node1 -->
<g id="edge6" class="edge">
<title>Node7&#45;&gt;Node1</title>
<path fill="none" stroke="#9a32cd" stroke-dasharray="5,2" d="M97.7,-134.11C133.78,-136.67 197.09,-142.03 250.75,-151 256.51,-151.96 262.52,-153.13 268.45,-154.39"/>
<polygon fill="#9a32cd" stroke="#9a32cd" points="98.29,-130.64 88.07,-133.45 97.81,-137.62 98.29,-130.64"/>
<text text-anchor="middle" x="202" y="-152" font-family="Helvetica,sans-Serif" font-size="10.00"> mb_post_debug</text>
</g>
<!-- Node8 -->
<g id="node8" class="node">
<title>Node8</title>
<g id="a_node8"><a xlink:title=" ">
<polygon fill="white" stroke="#666666" points="98.12,-104.88 37.12,-104.88 37.12,-85.62 98.12,-85.62 98.12,-104.88"/>
<text text-anchor="middle" x="67.62" y="-91.38" font-family="Helvetica,sans-Serif" font-size="10.00">Interface *</text>
</a>
</g>
</g>
<!-- Node8&#45;&gt;Node1 -->
<g id="edge7" class="edge">
<title>Node8&#45;&gt;Node1</title>
<path fill="none" stroke="#9a32cd" stroke-dasharray="5,2" d="M109.39,-96.47C147.17,-98.74 204.36,-105.14 250.75,-123 267.79,-129.56 284.94,-141.1 297.41,-150.61"/>
<polygon fill="#9a32cd" stroke="#9a32cd" points="110,-92.99 99.83,-95.96 109.64,-99.98 110,-92.99"/>
<text text-anchor="middle" x="202" y="-124" font-family="Helvetica,sans-Serif" font-size="10.00"> moab_debug</text>
</g>
<!-- Node9 -->
<g id="node9" class="node">
<title>Node9</title>
<g id="a_node9"><a xlink:href="class_range.html" target="_top" xlink:title=" ">
<polygon fill="white" stroke="#666666" points="89.88,-67.88 45.38,-67.88 45.38,-48.62 89.88,-48.62 89.88,-67.88"/>
<text text-anchor="middle" x="67.62" y="-54.38" font-family="Helvetica,sans-Serif" font-size="10.00">Range</text>
</a>
</g>
</g>
<!-- Node9&#45;&gt;Node1 -->
<g id="edge8" class="edge">
<title>Node9&#45;&gt;Node1</title>
<path fill="none" stroke="#9a32cd" stroke-dasharray="5,2" d="M101.17,-56.14C139.49,-55.13 203.85,-58.2 250.75,-85 277.81,-100.46 298.08,-131.82 308.46,-150.74"/>
<polygon fill="#9a32cd" stroke="#9a32cd" points="101.54,-52.62 91.68,-56.5 101.8,-59.61 101.54,-52.62"/>
<text text-anchor="middle" x="202" y="-86" font-family="Helvetica,sans-Serif" font-size="10.00"> skinEnts</text>
</g>
<!-- Node10 -->
<g id="node10" class="node">
<title>Node10</title>
<g id="a_node10"><a xlink:title=" ">
<polygon fill="white" stroke="#666666" points="119.12,-30.5 16.12,-30.5 16.12,0 119.12,0 119.12,-30.5"/>
<text text-anchor="start" x="24.12" y="-17" font-family="Helvetica,sans-Serif" font-size="10.00">map&lt; EntityHandle,</text>
<text text-anchor="middle" x="67.62" y="-5.75" font-family="Helvetica,sans-Serif" font-size="10.00"> int &gt;</text>
</a>
</g>
</g>
<!-- Node10&#45;&gt;Node1 -->
<g id="edge9" class="edge">
<title>Node10&#45;&gt;Node1</title>
<path fill="none" stroke="#9a32cd" stroke-dasharray="5,2" d="M130.91,-10.85C168.74,-11.25 216.23,-17.58 250.75,-42 288.37,-68.62 306.14,-123.66 312.87,-150.64"/>
<polygon fill="#9a32cd" stroke="#9a32cd" points="131.01,-7.35 121.02,-10.89 131.04,-14.35 131.01,-7.35"/>
<text text-anchor="middle" x="202" y="-44" font-family="Helvetica,sans-Serif" font-size="10.00"> mapBlockTets</text>
</g>
</g>
</svg>
        <g id="navigator" transform="translate(0 0)" fill="#404254">
                <rect fill="#f2f5e9" fill-opacity="0.5" stroke="#606060" stroke-width=".5" x="0" y="0" width="60" height="60"/>
                <use id="zoomplus" xlink:href="#zoomPlus" x="17" y="9" onmousedown="handleZoom(evt,'in')"/>
                <use id="zoomminus" xlink:href="#zoomMin" x="42" y="9" onmousedown="handleZoom(evt,'out')"/>
                <use id="reset" xlink:href="#resetDef" x="30" y="36" onmousedown="handleReset()"/>
                <g id="arrowUp" xlink:href="#dirArrow" transform="translate(30 24)" onmousedown="handlePan(0,-1)">
                  <use xlink:href="#rim" fill="#404040">
                        <set attributeName="fill" to="#808080" begin="arrowUp.mouseover" end="arrowUp.mouseout"/>
                  </use>
                  <path fill="none" stroke="white" stroke-width="1.5" d="M0,-3.0v7 M-2.5,-0.5L0,-3.0L2.5,-0.5"/>
                </g>
                <g id="arrowRight" xlink:href="#dirArrow" transform="rotate(90) translate(36 -43)" onmousedown="handlePan(1,0)">
                  <use xlink:href="#rim" fill="#404040">
                        <set attributeName="fill" to="#808080" begin="arrowRight.mouseover" end="arrowRight.mouseout"/>
                  </use>
                  <path fill="none" stroke="white" stroke-width="1.5" d="M0,-3.0v7 M-2.5,-0.5L0,-3.0L2.5,-0.5"/>
                </g>
                <g id="arrowDown" xlink:href="#dirArrow" transform="rotate(180) translate(-30 -48)" onmousedown="handlePan(0,1)">
                  <use xlink:href="#rim" fill="#404040">
                        <set attributeName="fill" to="#808080" begin="arrowDown.mouseover" end="arrowDown.mouseout"/>
                  </use>
                  <path fill="none" stroke="white" stroke-width="1.5" d="M0,-3.0v7 M-2.5,-0.5L0,-3.0L2.5,-0.5"/>
                </g>
                <g id="arrowLeft" xlink:href="#dirArrow" transform="rotate(270) translate(-36 17)" onmousedown="handlePan(-1,0)">
                  <use xlink:href="#rim" fill="#404040">
                        <set attributeName="fill" to="#808080" begin="arrowLeft.mouseover" end="arrowLeft.mouseout"/>
                  </use>
                  <path fill="none" stroke="white" stroke-width="1.5" d="M0,-3.0v7 M-2.5,-0.5L0,-3.0L2.5,-0.5"/>
                </g>
        </g>
        <svg viewBox="0 0 15 15" width="100%" height="30px" preserveAspectRatio="xMaxYMin meet">
         <g id="arrow_out" transform="scale(0.3 0.3)">
          <a xlink:href="struct_contact_plasticity_1_1_problem_data__coll__graph_org.svg" target="_base">
           <rect id="button" ry="5" rx="5" y="6" x="6" height="38" width="38"
                fill="#f2f5e9" fill-opacity="0.5" stroke="#606060" stroke-width="1.0"/>
           <path id="arrow"
             d="M 11.500037,31.436501 C 11.940474,20.09759 22.043105,11.32322 32.158766,21.979434 L 37.068811,17.246167 C 37.068811,17.246167 37.088388,32 37.088388,32 L 22.160133,31.978069 C 22.160133,31.978069 26.997745,27.140456 26.997745,27.140456 C 18.528582,18.264221 13.291696,25.230495 11.500037,31.436501 z"
             style="fill:#404040;"/>
          </a>
         </g>
        </svg>
</svg>
