<?xml version="1.0" encoding="UTF-8" standalone="no"?>
<!DOCTYPE svg PUBLIC "-//W3C//DTD SVG 1.1//EN"
 "http://www.w3.org/Graphics/SVG/1.1/DTD/svg11.dtd">
<!-- Generated by graphviz version 9.0.0 (20230911.1827)
 -->
<!-- Title: MixTransport::MaterialWithAutomaticDifferentiation Pages: 1 -->
<svg width="376pt" height="456pt"
 viewBox="0.00 0.00 375.88 456.00" xmlns="http://www.w3.org/2000/svg" xmlns:xlink="http://www.w3.org/1999/xlink">
<g id="graph0" class="graph" transform="scale(1 1) rotate(0) translate(4 452)">
<title>MixTransport::MaterialWithAutomaticDifferentiation</title>
<!-- Node1 -->
<g id="node1" class="node">
<title>Node1</title>
<g id="a_node1"><a xlink:title=" ">
<polygon fill="#999999" stroke="#666666" points="133.75,-30.5 0,-30.5 0,0 133.75,0 133.75,-30.5"/>
<text text-anchor="start" x="8" y="-17" font-family="Helvetica,sans-Serif" font-size="10.00">MixTransport::MaterialWith</text>
<text text-anchor="middle" x="66.88" y="-5.75" font-family="Helvetica,sans-Serif" font-size="10.00">AutomaticDifferentiation</text>
</a>
</g>
</g>
<!-- Node2 -->
<g id="node2" class="node">
<title>Node2</title>
<g id="a_node2"><a xlink:href="struct_mix_transport_1_1_common_material_data.html" target="_top" xlink:title=" ">
<polygon fill="white" stroke="#666666" points="274,-86.75 99.75,-86.75 99.75,-67.5 274,-67.5 274,-86.75"/>
<text text-anchor="middle" x="186.88" y="-73.25" font-family="Helvetica,sans-Serif" font-size="10.00">MixTransport::CommonMaterialData</text>
</a>
</g>
</g>
<!-- Node2&#45;&gt;Node1 -->
<g id="edge1" class="edge">
<title>Node2&#45;&gt;Node1</title>
<path fill="none" stroke="#63b8ff" d="M158.59,-62.01C139.75,-52.61 115.05,-40.29 96.03,-30.8"/>
<polygon fill="#63b8ff" stroke="#63b8ff" points="156.78,-65.02 167.3,-66.36 159.91,-58.76 156.78,-65.02"/>
</g>
<!-- Node3 -->
<g id="node3" class="node">
<title>Node3</title>
<g id="a_node3"><a xlink:href="struct_mix_transport_1_1_generic_material.html" target="_top" xlink:title="Generic material model for unsaturated water transport.">
<polygon fill="white" stroke="#666666" points="260.5,-216.75 113.25,-216.75 113.25,-197.5 260.5,-197.5 260.5,-216.75"/>
<text text-anchor="middle" x="186.88" y="-203.25" font-family="Helvetica,sans-Serif" font-size="10.00">MixTransport::GenericMaterial</text>
</a>
</g>
</g>
<!-- Node3&#45;&gt;Node2 -->
<g id="edge2" class="edge">
<title>Node3&#45;&gt;Node2</title>
<path fill="none" stroke="#63b8ff" d="M186.88,-186.07C186.88,-157.78 186.88,-107.32 186.88,-86.98"/>
<polygon fill="#63b8ff" stroke="#63b8ff" points="183.38,-185.81 186.88,-195.81 190.38,-185.81 183.38,-185.81"/>
</g>
<!-- Node4 -->
<g id="node4" class="node">
<title>Node4</title>
<g id="a_node4"><a xlink:href="classdouble.html" target="_top" xlink:title=" ">
<polygon fill="white" stroke="#666666" points="87.12,-448 42.62,-448 42.62,-428.75 87.12,-428.75 87.12,-448"/>
<text text-anchor="middle" x="64.88" y="-434.5" font-family="Helvetica,sans-Serif" font-size="10.00">double</text>
</a>
</g>
</g>
<!-- Node4&#45;&gt;Node1 -->
<g id="edge8" class="edge">
<title>Node4&#45;&gt;Node1</title>
<path fill="none" stroke="#9a32cd" stroke-dasharray="5,2" d="M44.59,-420.18C42.26,-417.28 40.24,-414.11 38.88,-410.75 -5.63,-301.47 26.29,-262.58 38.88,-145.25 43.4,-103.09 56.01,-54.5 62.65,-30.79"/>
<polygon fill="#9a32cd" stroke="#9a32cd" points="42.06,-422.6 51.53,-427.34 47.08,-417.72 42.06,-422.6"/>
<text text-anchor="middle" x="57.5" y="-117.75" font-family="Helvetica,sans-Serif" font-size="10.00"> Kr</text>
<text text-anchor="middle" x="57.5" y="-106.5" font-family="Helvetica,sans-Serif" font-size="10.00">diffKr</text>
</g>
<!-- Node4&#45;&gt;Node2 -->
<g id="edge7" class="edge">
<title>Node4&#45;&gt;Node2</title>
<path fill="none" stroke="#9a32cd" stroke-dasharray="5,2" d="M59.37,-417.31C46.86,-367.26 21.24,-234.51 73.88,-145.25 91.72,-114.98 128.99,-96.84 155.85,-87.19"/>
<polygon fill="#9a32cd" stroke="#9a32cd" points="55.98,-418.17 61.9,-426.96 62.75,-416.4 55.98,-418.17"/>
<text text-anchor="middle" x="88.88" y="-259.5" font-family="Helvetica,sans-Serif" font-size="10.00"> Ah</text>
<text text-anchor="middle" x="88.88" y="-248.25" font-family="Helvetica,sans-Serif" font-size="10.00">AhZ</text>
<text text-anchor="middle" x="88.88" y="-237" font-family="Helvetica,sans-Serif" font-size="10.00">AhZZ</text>
<text text-anchor="middle" x="88.88" y="-225.75" font-family="Helvetica,sans-Serif" font-size="10.00">Ks</text>
<text text-anchor="middle" x="88.88" y="-214.5" font-family="Helvetica,sans-Serif" font-size="10.00">alpha</text>
<text text-anchor="middle" x="88.88" y="-203.25" font-family="Helvetica,sans-Serif" font-size="10.00">hS</text>
<text text-anchor="middle" x="88.88" y="-192" font-family="Helvetica,sans-Serif" font-size="10.00">n</text>
<text text-anchor="middle" x="88.88" y="-180.75" font-family="Helvetica,sans-Serif" font-size="10.00">thetaM</text>
<text text-anchor="middle" x="88.88" y="-169.5" font-family="Helvetica,sans-Serif" font-size="10.00">thetaR</text>
<text text-anchor="middle" x="88.88" y="-158.25" font-family="Helvetica,sans-Serif" font-size="10.00">thetaS</text>
<text text-anchor="middle" x="88.88" y="-147" font-family="Helvetica,sans-Serif" font-size="10.00">...</text>
</g>
<!-- Node4&#45;&gt;Node3 -->
<g id="edge3" class="edge">
<title>Node4&#45;&gt;Node3</title>
<path fill="none" stroke="#9a32cd" stroke-dasharray="5,2" d="M75.02,-418.31C100.14,-371.1 164.47,-250.23 182.26,-216.8"/>
<polygon fill="#9a32cd" stroke="#9a32cd" points="71.98,-416.58 70.37,-427.05 78.16,-419.87 71.98,-416.58"/>
<text text-anchor="middle" x="163.62" y="-401.25" font-family="Helvetica,sans-Serif" font-size="10.00"> C</text>
<text text-anchor="middle" x="163.62" y="-390" font-family="Helvetica,sans-Serif" font-size="10.00">K</text>
<text text-anchor="middle" x="163.62" y="-378.75" font-family="Helvetica,sans-Serif" font-size="10.00">Se</text>
<text text-anchor="middle" x="163.62" y="-367.5" font-family="Helvetica,sans-Serif" font-size="10.00">diffC</text>
<text text-anchor="middle" x="163.62" y="-356.25" font-family="Helvetica,sans-Serif" font-size="10.00">diffK</text>
<text text-anchor="middle" x="163.62" y="-345" font-family="Helvetica,sans-Serif" font-size="10.00">ePsilon0</text>
<text text-anchor="middle" x="163.62" y="-333.75" font-family="Helvetica,sans-Serif" font-size="10.00">ePsilon1</text>
<text text-anchor="middle" x="163.62" y="-322.5" font-family="Helvetica,sans-Serif" font-size="10.00">h</text>
<text text-anchor="middle" x="163.62" y="-311.25" font-family="Helvetica,sans-Serif" font-size="10.00">h_t</text>
<text text-anchor="middle" x="163.62" y="-300" font-family="Helvetica,sans-Serif" font-size="10.00">sCale</text>
<text text-anchor="middle" x="163.62" y="-288.75" font-family="Helvetica,sans-Serif" font-size="10.00">...</text>
</g>
<!-- Node5 -->
<g id="node5" class="node">
<title>Node5</title>
<g id="a_node5"><a xlink:href="class_range.html" target="_top" xlink:title=" ">
<polygon fill="white" stroke="#666666" points="209.12,-448 164.62,-448 164.62,-428.75 209.12,-428.75 209.12,-448"/>
<text text-anchor="middle" x="186.88" y="-434.5" font-family="Helvetica,sans-Serif" font-size="10.00">Range</text>
</a>
</g>
</g>
<!-- Node5&#45;&gt;Node3 -->
<g id="edge4" class="edge">
<title>Node5&#45;&gt;Node3</title>
<path fill="none" stroke="#9a32cd" stroke-dasharray="5,2" d="M186.88,-417.09C186.88,-369.07 186.88,-249.95 186.88,-216.8"/>
<polygon fill="#9a32cd" stroke="#9a32cd" points="183.38,-416.87 186.88,-426.87 190.38,-416.87 183.38,-416.87"/>
<text text-anchor="middle" x="197.38" y="-345" font-family="Helvetica,sans-Serif" font-size="10.00"> tEts</text>
</g>
<!-- Node6 -->
<g id="node6" class="node">
<title>Node6</title>
<g id="a_node6"><a xlink:title=" ">
<polygon fill="white" stroke="#666666" points="307.27,-216.75 278.48,-216.75 278.48,-197.5 307.27,-197.5 307.27,-216.75"/>
<text text-anchor="middle" x="292.88" y="-203.25" font-family="Helvetica,sans-Serif" font-size="10.00">int</text>
</a>
</g>
</g>
<!-- Node6&#45;&gt;Node2 -->
<g id="edge5" class="edge">
<title>Node6&#45;&gt;Node2</title>
<path fill="none" stroke="#9a32cd" stroke-dasharray="5,2" d="M288.19,-186.04C284.59,-173.5 278.71,-157.47 269.88,-145.25 251.42,-119.72 220.87,-98.5 202.43,-87.12"/>
<polygon fill="#9a32cd" stroke="#9a32cd" points="284.79,-186.88 290.67,-195.69 291.57,-185.13 284.79,-186.88"/>
<text text-anchor="middle" x="270.12" y="-112.12" font-family="Helvetica,sans-Serif" font-size="10.00"> blockId</text>
</g>
<!-- Node7 -->
<g id="node7" class="node">
<title>Node7</title>
<g id="a_node7"><a xlink:title=" ">
<polygon fill="white" stroke="#666666" points="367.88,-216.75 327.88,-216.75 327.88,-197.5 367.88,-197.5 367.88,-216.75"/>
<text text-anchor="middle" x="347.88" y="-203.25" font-family="Helvetica,sans-Serif" font-size="10.00">string</text>
</a>
</g>
</g>
<!-- Node7&#45;&gt;Node2 -->
<g id="edge6" class="edge">
<title>Node7&#45;&gt;Node2</title>
<path fill="none" stroke="#9a32cd" stroke-dasharray="5,2" d="M342.2,-186.18C334.5,-162.91 318.45,-125.03 290.88,-104.75 279.99,-96.74 266.93,-91.14 253.8,-87.21"/>
<polygon fill="#9a32cd" stroke="#9a32cd" points="338.83,-187.15 345.11,-195.68 345.52,-185.1 338.83,-187.15"/>
<text text-anchor="middle" x="334.75" y="-112.12" font-family="Helvetica,sans-Serif" font-size="10.00"> matName</text>
</g>
</g>
</svg>
