<?xml version="1.0" encoding="UTF-8" standalone="no"?>
<!DOCTYPE svg PUBLIC "-//W3C//DTD SVG 1.1//EN"
 "http://www.w3.org/Graphics/SVG/1.1/DTD/svg11.dtd">
<!-- Generated by graphviz version 9.0.0 (20230911.1827)
 -->
<!-- Title: MoFEM::KeyFromKey&lt; KeyExtractor1, KeyExtractor2 &gt; Pages: 1 -->
<svg width="182pt" height="105pt"
 viewBox="0.00 0.00 182.25 105.00" xmlns="http://www.w3.org/2000/svg" xmlns:xlink="http://www.w3.org/1999/xlink">
<g id="graph0" class="graph" transform="scale(1 1) rotate(0) translate(4 101)">
<title>MoFEM::KeyFromKey&lt; KeyExtractor1, KeyExtractor2 &gt;</title>
<!-- Node1 -->
<g id="node1" class="node">
<title>Node1</title>
<g id="a_node1"><a xlink:title=" ">
<polygon fill="#999999" stroke="#666666" points="166.38,-30.5 7.88,-30.5 7.88,0 166.38,0 166.38,-30.5"/>
<text text-anchor="start" x="15.88" y="-17" font-family="Helvetica,sans-Serif" font-size="10.00">MoFEM::KeyFromKey&lt;</text>
<text text-anchor="middle" x="87.12" y="-5.75" font-family="Helvetica,sans-Serif" font-size="10.00"> KeyExtractor1, KeyExtractor2 &gt;</text>
</a>
</g>
</g>
<!-- Node2 -->
<g id="node2" class="node">
<title>Node2</title>
<g id="a_node2"><a xlink:title=" ">
<polygon fill="white" stroke="#666666" points="78.25,-97 0,-97 0,-77.75 78.25,-77.75 78.25,-97"/>
<text text-anchor="middle" x="39.12" y="-83.5" font-family="Helvetica,sans-Serif" font-size="10.00">KeyExtractor1</text>
</a>
</g>
</g>
<!-- Node2&#45;&gt;Node1 -->
<g id="edge1" class="edge">
<title>Node2&#45;&gt;Node1</title>
<path fill="none" stroke="#9a32cd" stroke-dasharray="5,2" d="M51.49,-68.32C59.44,-56.7 69.64,-41.8 77.09,-30.92"/>
<polygon fill="#9a32cd" stroke="#9a32cd" points="48.82,-66.02 46.06,-76.24 54.6,-69.97 48.82,-66.02"/>
<text text-anchor="middle" x="77.12" y="-50.25" font-family="Helvetica,sans-Serif" font-size="10.00"> key1</text>
</g>
<!-- Node3 -->
<g id="node3" class="node">
<title>Node3</title>
<g id="a_node3"><a xlink:title=" ">
<polygon fill="white" stroke="#666666" points="174.25,-97 96,-97 96,-77.75 174.25,-77.75 174.25,-97"/>
<text text-anchor="middle" x="135.12" y="-83.5" font-family="Helvetica,sans-Serif" font-size="10.00">KeyExtractor2</text>
</a>
</g>
</g>
<!-- Node3&#45;&gt;Node1 -->
<g id="edge2" class="edge">
<title>Node3&#45;&gt;Node1</title>
<path fill="none" stroke="#9a32cd" stroke-dasharray="5,2" d="M122.76,-68.32C114.81,-56.7 104.61,-41.8 97.16,-30.92"/>
<polygon fill="#9a32cd" stroke="#9a32cd" points="119.65,-69.97 128.19,-76.24 125.43,-66.02 119.65,-69.97"/>
<text text-anchor="middle" x="128.12" y="-50.25" font-family="Helvetica,sans-Serif" font-size="10.00"> key2</text>
</g>
</g>
</svg>
