<?xml version="1.0" encoding="UTF-8" standalone="no"?>
<!DOCTYPE svg PUBLIC "-//W3C//DTD SVG 1.1//EN"
 "http://www.w3.org/Graphics/SVG/1.1/DTD/svg11.dtd">
<!-- Generated by graphviz version 9.0.0 (20230911.1827)
 -->
<!-- Title: NonlinearElasticElement::OpRhsEshelbyStress Pages: 1 -->
<svg width="184pt" height="293pt"
 viewBox="0.00 0.00 183.75 293.25" xmlns="http://www.w3.org/2000/svg" xmlns:xlink="http://www.w3.org/1999/xlink">
<g id="graph0" class="graph" transform="scale(1 1) rotate(0) translate(4 289.25)">
<title>NonlinearElasticElement::OpRhsEshelbyStress</title>
<!-- Node1 -->
<g id="node1" class="node">
<title>Node1</title>
<g id="a_node1"><a xlink:title=" ">
<polygon fill="#999999" stroke="#666666" points="149.5,-30.5 26.25,-30.5 26.25,0 149.5,0 149.5,-30.5"/>
<text text-anchor="start" x="34.25" y="-17" font-family="Helvetica,sans-Serif" font-size="10.00">NonlinearElasticElement</text>
<text text-anchor="middle" x="87.88" y="-5.75" font-family="Helvetica,sans-Serif" font-size="10.00">::OpRhsEshelbyStress</text>
</a>
</g>
</g>
<!-- Node2 -->
<g id="node2" class="node">
<title>Node2</title>
<g id="a_node2"><a xlink:href="struct_nonlinear_elastic_element_1_1_op_rhs_piola_kirchhoff.html" target="_top" xlink:title=" ">
<polygon fill="white" stroke="#666666" points="149.5,-97 26.25,-97 26.25,-66.5 149.5,-66.5 149.5,-97"/>
<text text-anchor="start" x="34.25" y="-83.5" font-family="Helvetica,sans-Serif" font-size="10.00">NonlinearElasticElement</text>
<text text-anchor="middle" x="87.88" y="-72.25" font-family="Helvetica,sans-Serif" font-size="10.00">::OpRhsPiolaKirchhoff</text>
</a>
</g>
</g>
<!-- Node2&#45;&gt;Node1 -->
<g id="edge1" class="edge">
<title>Node2&#45;&gt;Node1</title>
<path fill="none" stroke="#63b8ff" d="M87.88,-54.81C87.88,-46.64 87.88,-37.91 87.88,-30.83"/>
<polygon fill="#63b8ff" stroke="#63b8ff" points="84.38,-54.6 87.88,-64.6 91.38,-54.6 84.38,-54.6"/>
</g>
<!-- Node3 -->
<g id="node3" class="node">
<title>Node3</title>
<g id="a_node3"><a xlink:href="struct_mo_f_e_m_1_1_volume_element_forces_and_sources_core_1_1_user_data_operator.html" target="_top" xlink:title=" ">
<polygon fill="white" stroke="#666666" points="175.75,-163.5 0,-163.5 0,-133 175.75,-133 175.75,-163.5"/>
<text text-anchor="start" x="8" y="-150" font-family="Helvetica,sans-Serif" font-size="10.00">MoFEM::VolumeElementForces</text>
<text text-anchor="middle" x="87.88" y="-138.75" font-family="Helvetica,sans-Serif" font-size="10.00">AndSourcesCore::UserDataOperator</text>
</a>
</g>
</g>
<!-- Node3&#45;&gt;Node2 -->
<g id="edge2" class="edge">
<title>Node3&#45;&gt;Node2</title>
<path fill="none" stroke="#63b8ff" d="M87.88,-121.31C87.88,-113.14 87.88,-104.41 87.88,-97.33"/>
<polygon fill="#63b8ff" stroke="#63b8ff" points="84.38,-121.1 87.88,-131.1 91.38,-121.1 84.38,-121.1"/>
</g>
<!-- Node4 -->
<g id="node4" class="node">
<title>Node4</title>
<g id="a_node4"><a xlink:href="struct_mo_f_e_m_1_1_forces_and_sources_core_1_1_user_data_operator.html" target="_top" xlink:title=" ">
<polygon fill="white" stroke="#666666" points="168.25,-230 7.5,-230 7.5,-199.5 168.25,-199.5 168.25,-230"/>
<text text-anchor="start" x="15.5" y="-216.5" font-family="Helvetica,sans-Serif" font-size="10.00">MoFEM::ForcesAndSourcesCore</text>
<text text-anchor="middle" x="87.88" y="-205.25" font-family="Helvetica,sans-Serif" font-size="10.00">::UserDataOperator</text>
</a>
</g>
</g>
<!-- Node4&#45;&gt;Node3 -->
<g id="edge3" class="edge">
<title>Node4&#45;&gt;Node3</title>
<path fill="none" stroke="#63b8ff" d="M87.88,-187.81C87.88,-179.64 87.88,-170.91 87.88,-163.83"/>
<polygon fill="#63b8ff" stroke="#63b8ff" points="84.38,-187.6 87.88,-197.6 91.38,-187.6 84.38,-187.6"/>
</g>
<!-- Node5 -->
<g id="node5" class="node">
<title>Node5</title>
<g id="a_node5"><a xlink:href="struct_mo_f_e_m_1_1_data_operator.html" target="_top" xlink:title="base operator to do operations at Gauss Pt. level">
<polygon fill="white" stroke="#666666" points="145.38,-285.25 30.38,-285.25 30.38,-266 145.38,-266 145.38,-285.25"/>
<text text-anchor="middle" x="87.88" y="-271.75" font-family="Helvetica,sans-Serif" font-size="10.00">MoFEM::DataOperator</text>
</a>
</g>
</g>
<!-- Node5&#45;&gt;Node4 -->
<g id="edge4" class="edge">
<title>Node5&#45;&gt;Node4</title>
<path fill="none" stroke="#63b8ff" d="M87.88,-254.42C87.88,-246.49 87.88,-237.56 87.88,-230.28"/>
<polygon fill="#63b8ff" stroke="#63b8ff" points="84.38,-254.17 87.88,-264.17 91.38,-254.17 84.38,-254.17"/>
</g>
</g>
</svg>
