<?xml version="1.0" encoding="UTF-8" standalone="no"?>
<!DOCTYPE svg PUBLIC "-//W3C//DTD SVG 1.1//EN"
 "http://www.w3.org/Graphics/SVG/1.1/DTD/svg11.dtd">
<!-- Generated by graphviz version 2.43.0 (0)
 -->
<!-- Title: ConvectiveMassElement::OpEshelbyDynamicMaterialMomentumJacobian Pages: 1 -->
<svg width="736pt" height="649pt"
 viewBox="0.00 0.00 736.00 648.50" xmlns="http://www.w3.org/2000/svg" xmlns:xlink="http://www.w3.org/1999/xlink">
<g id="graph0" class="graph" transform="scale(1 1) rotate(0) translate(4 644.5)">
<title>ConvectiveMassElement::OpEshelbyDynamicMaterialMomentumJacobian</title>
<polygon fill="white" stroke="transparent" points="-4,4 -4,-644.5 732,-644.5 732,4 -4,4"/>
<!-- Node1 -->
<g id="node1" class="node">
<title>Node1</title>
<g id="a_node1"><a xlink:title=" ">
<polygon fill="#bfbfbf" stroke="black" points="513,-278 513,-319 728,-319 728,-278 513,-278"/>
<text text-anchor="start" x="521" y="-307" font-family="Helvetica,sans-Serif" font-size="10.00">ConvectiveMassElement</text>
<text text-anchor="start" x="521" y="-296" font-family="Helvetica,sans-Serif" font-size="10.00">::OpEshelbyDynamicMaterialMomentum</text>
<text text-anchor="middle" x="620.5" y="-285" font-family="Helvetica,sans-Serif" font-size="10.00">Jacobian</text>
</a>
</g>
</g>
<!-- Node2 -->
<g id="node2" class="node">
<title>Node2</title>
<g id="a_node2"><a xlink:title=" ">
<polygon fill="white" stroke="#bfbfbf" points="286,-621 286,-640 391,-640 391,-621 286,-621"/>
<text text-anchor="middle" x="338.5" y="-628" font-family="Helvetica,sans-Serif" font-size="10.00">UserDataOperator</text>
</a>
</g>
</g>
<!-- Node2&#45;&gt;Node1 -->
<g id="edge1" class="edge">
<title>Node2&#45;&gt;Node1</title>
<path fill="none" stroke="midnightblue" d="M401.12,-621.64C432.63,-614.27 469.59,-600.86 495,-576.5 572.89,-501.86 605.7,-369.64 615.82,-319.01"/>
<polygon fill="midnightblue" stroke="midnightblue" points="400.13,-618.28 391.11,-623.83 401.62,-625.12 400.13,-618.28"/>
</g>
<!-- Node3 -->
<g id="node3" class="node">
<title>Node3</title>
<g id="a_node3"><a xlink:href="structConvectiveMassElement_1_1CommonFunctions.html" target="_top" xlink:title=" ">
<polygon fill="white" stroke="black" points="270,-571.5 270,-601.5 407,-601.5 407,-571.5 270,-571.5"/>
<text text-anchor="start" x="278" y="-589.5" font-family="Helvetica,sans-Serif" font-size="10.00">ConvectiveMassElement</text>
<text text-anchor="middle" x="338.5" y="-578.5" font-family="Helvetica,sans-Serif" font-size="10.00">::CommonFunctions</text>
</a>
</g>
</g>
<!-- Node3&#45;&gt;Node1 -->
<g id="edge2" class="edge">
<title>Node3&#45;&gt;Node1</title>
<path fill="none" stroke="midnightblue" d="M417.31,-580.29C444.2,-574.9 473.06,-565.11 495,-547.5 570.94,-486.53 604.47,-367.28 615.3,-319.26"/>
<polygon fill="midnightblue" stroke="midnightblue" points="416.33,-576.91 407.12,-582.15 417.58,-583.8 416.33,-576.91"/>
</g>
<!-- Node4 -->
<g id="node4" class="node">
<title>Node4</title>
<g id="a_node4"><a xlink:href="structConvectiveMassElement_1_1BlockData.html" target="_top" xlink:title="data for calculation inertia forces">
<polygon fill="white" stroke="black" points="270,-522.5 270,-552.5 407,-552.5 407,-522.5 270,-522.5"/>
<text text-anchor="start" x="278" y="-540.5" font-family="Helvetica,sans-Serif" font-size="10.00">ConvectiveMassElement</text>
<text text-anchor="middle" x="338.5" y="-529.5" font-family="Helvetica,sans-Serif" font-size="10.00">::BlockData</text>
</a>
</g>
</g>
<!-- Node4&#45;&gt;Node1 -->
<g id="edge3" class="edge">
<title>Node4&#45;&gt;Node1</title>
<path fill="none" stroke="#9a32cd" stroke-dasharray="5,2" d="M417.13,-534.69C443.74,-530.6 472.46,-522.39 495,-506.5 562.59,-458.85 599.77,-361.8 613.4,-319.26"/>
<polygon fill="#9a32cd" stroke="#9a32cd" points="416.49,-531.25 407.06,-536.07 417.44,-538.18 416.49,-531.25"/>
<text text-anchor="middle" x="460" y="-535.5" font-family="Helvetica,sans-Serif" font-size="10.00"> dAta</text>
</g>
<!-- Node5 -->
<g id="node5" class="node">
<title>Node5</title>
<g id="a_node5"><a xlink:href="classdouble.html" target="_top" xlink:title=" ">
<polygon fill="white" stroke="black" points="51.5,-588 51.5,-607 101.5,-607 101.5,-588 51.5,-588"/>
<text text-anchor="middle" x="76.5" y="-595" font-family="Helvetica,sans-Serif" font-size="10.00">double</text>
</a>
</g>
</g>
<!-- Node5&#45;&gt;Node4 -->
<g id="edge4" class="edge">
<title>Node5&#45;&gt;Node4</title>
<path fill="none" stroke="#9a32cd" stroke-dasharray="5,2" d="M111.99,-592.58C147.41,-587.21 203.98,-577.71 252,-565.5 266.23,-561.88 281.54,-557.15 295.21,-552.6"/>
<polygon fill="#9a32cd" stroke="#9a32cd" points="111.09,-589.18 101.71,-594.12 112.12,-596.1 111.09,-589.18"/>
<text text-anchor="middle" x="211.5" y="-585.5" font-family="Helvetica,sans-Serif" font-size="10.00"> rho0</text>
</g>
<!-- Node6 -->
<g id="node6" class="node">
<title>Node6</title>
<g id="a_node6"><a xlink:href="classRange.html" target="_top" xlink:title=" ">
<polygon fill="white" stroke="black" points="53,-550 53,-569 100,-569 100,-550 53,-550"/>
<text text-anchor="middle" x="76.5" y="-557" font-family="Helvetica,sans-Serif" font-size="10.00">Range</text>
</a>
</g>
</g>
<!-- Node6&#45;&gt;Node4 -->
<g id="edge5" class="edge">
<title>Node6&#45;&gt;Node4</title>
<path fill="none" stroke="#9a32cd" stroke-dasharray="5,2" d="M110.34,-556.72C150.22,-553.35 218.52,-547.57 269.84,-543.22"/>
<polygon fill="#9a32cd" stroke="#9a32cd" points="109.79,-553.26 100.12,-557.59 110.38,-560.23 109.79,-553.26"/>
<text text-anchor="middle" x="211.5" y="-553.5" font-family="Helvetica,sans-Serif" font-size="10.00"> tEts</text>
</g>
<!-- Node7 -->
<g id="node7" class="node">
<title>Node7</title>
<g id="a_node7"><a xlink:title=" ">
<polygon fill="white" stroke="#bfbfbf" points="35.5,-497 35.5,-516 117.5,-516 117.5,-497 35.5,-497"/>
<text text-anchor="middle" x="76.5" y="-504" font-family="Helvetica,sans-Serif" font-size="10.00">VectorDouble</text>
</a>
</g>
</g>
<!-- Node7&#45;&gt;Node1 -->
<g id="edge17" class="edge">
<title>Node7&#45;&gt;Node1</title>
<path fill="none" stroke="#9a32cd" stroke-dasharray="5,2" d="M127.86,-502.4C163.22,-498.57 211.27,-491.42 252,-478.5 381.68,-437.35 522.99,-357.04 585.96,-319.18"/>
<polygon fill="#9a32cd" stroke="#9a32cd" points="127.37,-498.94 117.78,-503.45 128.09,-505.9 127.37,-498.94"/>
<text text-anchor="middle" x="338.5" y="-473.5" font-family="Helvetica,sans-Serif" font-size="10.00"> active</text>
</g>
<!-- Node7&#45;&gt;Node4 -->
<g id="edge6" class="edge">
<title>Node7&#45;&gt;Node4</title>
<path fill="none" stroke="#9a32cd" stroke-dasharray="5,2" d="M127.71,-512.49C168.14,-517.31 225.35,-524.13 269.82,-529.43"/>
<polygon fill="#9a32cd" stroke="#9a32cd" points="127.9,-508.98 117.56,-511.28 127.07,-515.94 127.9,-508.98"/>
<text text-anchor="middle" x="211.5" y="-529.5" font-family="Helvetica,sans-Serif" font-size="10.00"> a0</text>
</g>
<!-- Node8 -->
<g id="node8" class="node">
<title>Node8</title>
<g id="a_node8"><a xlink:href="structConvectiveMassElement_1_1CommonData.html" target="_top" xlink:title="common data used by volume elements">
<polygon fill="white" stroke="black" points="270,-283.5 270,-313.5 407,-313.5 407,-283.5 270,-283.5"/>
<text text-anchor="start" x="278" y="-301.5" font-family="Helvetica,sans-Serif" font-size="10.00">ConvectiveMassElement</text>
<text text-anchor="middle" x="338.5" y="-290.5" font-family="Helvetica,sans-Serif" font-size="10.00">::CommonData</text>
</a>
</g>
</g>
<!-- Node8&#45;&gt;Node1 -->
<g id="edge7" class="edge">
<title>Node8&#45;&gt;Node1</title>
<path fill="none" stroke="#9a32cd" stroke-dasharray="5,2" d="M417.51,-298.5C446.99,-298.5 481.08,-298.5 512.75,-298.5"/>
<polygon fill="#9a32cd" stroke="#9a32cd" points="417.28,-295 407.28,-298.5 417.28,-302 417.28,-295"/>
<text text-anchor="middle" x="460" y="-301.5" font-family="Helvetica,sans-Serif" font-size="10.00"> commonData</text>
</g>
<!-- Node9 -->
<g id="node9" class="node">
<title>Node9</title>
<g id="a_node9"><a xlink:title=" ">
<polygon fill="white" stroke="#bfbfbf" points="21.5,-233.5 21.5,-263.5 131.5,-263.5 131.5,-233.5 21.5,-233.5"/>
<text text-anchor="start" x="29.5" y="-251.5" font-family="Helvetica,sans-Serif" font-size="10.00">vector&lt; std::vector</text>
<text text-anchor="middle" x="76.5" y="-240.5" font-family="Helvetica,sans-Serif" font-size="10.00">&lt; double * &gt; &gt;</text>
</a>
</g>
</g>
<!-- Node9&#45;&gt;Node8 -->
<g id="edge8" class="edge">
<title>Node9&#45;&gt;Node8</title>
<path fill="none" stroke="#9a32cd" stroke-dasharray="5,2" d="M141.76,-248.19C175.08,-249.3 216.18,-252.68 252,-261.5 271.79,-266.37 292.81,-275.41 309.06,-283.34"/>
<polygon fill="#9a32cd" stroke="#9a32cd" points="141.78,-244.69 131.69,-247.91 141.59,-251.69 141.78,-244.69"/>
<text text-anchor="middle" x="211.5" y="-286.5" font-family="Helvetica,sans-Serif" font-size="10.00"> jacVelRowPtr</text>
<text text-anchor="middle" x="211.5" y="-275.5" font-family="Helvetica,sans-Serif" font-size="10.00">jacMassRowPtr</text>
<text text-anchor="middle" x="211.5" y="-264.5" font-family="Helvetica,sans-Serif" font-size="10.00">jacTRowPtr</text>
</g>
<!-- Node10 -->
<g id="node10" class="node">
<title>Node10</title>
<g id="a_node10"><a xlink:title=" ">
<polygon fill="white" stroke="#bfbfbf" points="0.5,-184.5 0.5,-214.5 152.5,-214.5 152.5,-184.5 0.5,-184.5"/>
<text text-anchor="start" x="8.5" y="-202.5" font-family="Helvetica,sans-Serif" font-size="10.00">map&lt; std::string, std</text>
<text text-anchor="middle" x="76.5" y="-191.5" font-family="Helvetica,sans-Serif" font-size="10.00">::vector&lt; VectorDouble &gt; &gt;</text>
</a>
</g>
</g>
<!-- Node10&#45;&gt;Node8 -->
<g id="edge9" class="edge">
<title>Node10&#45;&gt;Node8</title>
<path fill="none" stroke="#9a32cd" stroke-dasharray="5,2" d="M162.92,-208.86C192.04,-214.06 224.24,-222.1 252,-234.5 279.09,-246.6 305.71,-268.58 321.87,-283.36"/>
<polygon fill="#9a32cd" stroke="#9a32cd" points="163.2,-205.36 152.75,-207.14 162.03,-212.26 163.2,-205.36"/>
<text text-anchor="middle" x="211.5" y="-237.5" font-family="Helvetica,sans-Serif" font-size="10.00"> dataAtGaussPts</text>
</g>
<!-- Node11 -->
<g id="node11" class="node">
<title>Node11</title>
<g id="a_node11"><a xlink:title=" ">
<polygon fill="white" stroke="#bfbfbf" points="8.5,-435 8.5,-454 144.5,-454 144.5,-435 8.5,-435"/>
<text text-anchor="middle" x="76.5" y="-442" font-family="Helvetica,sans-Serif" font-size="10.00">vector&lt; MatrixDouble &gt;</text>
</a>
</g>
</g>
<!-- Node11&#45;&gt;Node8 -->
<g id="edge10" class="edge">
<title>Node11&#45;&gt;Node8</title>
<path fill="none" stroke="#9a32cd" stroke-dasharray="5,2" d="M154.93,-445.96C186.96,-443.39 223.25,-436.12 252,-418.5 293.22,-393.24 320.18,-339.87 331.47,-313.67"/>
<polygon fill="#9a32cd" stroke="#9a32cd" points="154.44,-442.49 144.69,-446.64 154.9,-449.47 154.44,-442.49"/>
<text text-anchor="middle" x="211.5" y="-468.5" font-family="Helvetica,sans-Serif" font-size="10.00"> jacVel</text>
<text text-anchor="middle" x="211.5" y="-457.5" font-family="Helvetica,sans-Serif" font-size="10.00">jacT</text>
<text text-anchor="middle" x="211.5" y="-446.5" font-family="Helvetica,sans-Serif" font-size="10.00">jacMass</text>
</g>
<!-- Node12 -->
<g id="node12" class="node">
<title>Node12</title>
<g id="a_node12"><a xlink:title=" ">
<polygon fill="white" stroke="#bfbfbf" points="54.5,-384 54.5,-403 98.5,-403 98.5,-384 54.5,-384"/>
<text text-anchor="middle" x="76.5" y="-391" font-family="Helvetica,sans-Serif" font-size="10.00">string</text>
</a>
</g>
</g>
<!-- Node12&#45;&gt;Node8 -->
<g id="edge11" class="edge">
<title>Node12&#45;&gt;Node8</title>
<path fill="none" stroke="#9a32cd" stroke-dasharray="5,2" d="M109.1,-391.4C145,-388.1 204.72,-379.83 252,-359.5 278.3,-348.19 304.5,-327.81 320.83,-313.74"/>
<polygon fill="#9a32cd" stroke="#9a32cd" points="108.44,-387.94 98.76,-392.27 109.02,-394.92 108.44,-387.94"/>
<text text-anchor="middle" x="211.5" y="-406.5" font-family="Helvetica,sans-Serif" font-size="10.00"> meshPositions</text>
<text text-anchor="middle" x="211.5" y="-395.5" font-family="Helvetica,sans-Serif" font-size="10.00">spatialVelocities</text>
<text text-anchor="middle" x="211.5" y="-384.5" font-family="Helvetica,sans-Serif" font-size="10.00">spatialPositions</text>
</g>
<!-- Node13 -->
<g id="node13" class="node">
<title>Node13</title>
<g id="a_node13"><a xlink:title=" ">
<polygon fill="white" stroke="#bfbfbf" points="0,-334.5 0,-364.5 153,-364.5 153,-334.5 0,-334.5"/>
<text text-anchor="start" x="8" y="-352.5" font-family="Helvetica,sans-Serif" font-size="10.00">map&lt; std::string, std</text>
<text text-anchor="middle" x="76.5" y="-341.5" font-family="Helvetica,sans-Serif" font-size="10.00">::vector&lt; MatrixDouble &gt; &gt;</text>
</a>
</g>
</g>
<!-- Node13&#45;&gt;Node8 -->
<g id="edge12" class="edge">
<title>Node13&#45;&gt;Node8</title>
<path fill="none" stroke="#9a32cd" stroke-dasharray="5,2" d="M163.74,-345.93C192.13,-343.47 223.68,-339.37 252,-332.5 270.32,-328.06 289.92,-320.49 305.72,-313.62"/>
<polygon fill="#9a32cd" stroke="#9a32cd" points="163.12,-342.46 153.43,-346.76 163.68,-349.44 163.12,-342.46"/>
<text text-anchor="middle" x="211.5" y="-347.5" font-family="Helvetica,sans-Serif" font-size="10.00"> gradAtGaussPts</text>
</g>
<!-- Node14 -->
<g id="node14" class="node">
<title>Node14</title>
<g id="a_node14"><a xlink:href="classbool.html" target="_top" xlink:title=" ">
<polygon fill="white" stroke="black" points="57.5,-137 57.5,-156 95.5,-156 95.5,-137 57.5,-137"/>
<text text-anchor="middle" x="76.5" y="-144" font-family="Helvetica,sans-Serif" font-size="10.00">bool</text>
</a>
</g>
</g>
<!-- Node14&#45;&gt;Node1 -->
<g id="edge16" class="edge">
<title>Node14&#45;&gt;Node1</title>
<path fill="none" stroke="#9a32cd" stroke-dasharray="5,2" d="M105.52,-142.33C140.55,-138.13 202,-134.12 252,-148.5 261.01,-151.09 261.61,-155.31 270,-159.5 368.13,-208.55 487.98,-253.08 558.78,-277.91"/>
<polygon fill="#9a32cd" stroke="#9a32cd" points="105.01,-138.87 95.54,-143.62 105.9,-145.81 105.01,-138.87"/>
<text text-anchor="middle" x="338.5" y="-233.5" font-family="Helvetica,sans-Serif" font-size="10.00"> jAcobian</text>
<text text-anchor="middle" x="338.5" y="-222.5" font-family="Helvetica,sans-Serif" font-size="10.00">fieldDisp</text>
</g>
<!-- Node14&#45;&gt;Node8 -->
<g id="edge13" class="edge">
<title>Node14&#45;&gt;Node8</title>
<path fill="none" stroke="#9a32cd" stroke-dasharray="5,2" d="M105.63,-146.22C142.44,-147.18 207.5,-153.6 252,-184.5 264.15,-192.94 261.42,-200.45 270,-212.5 288.16,-238.02 310.95,-266.37 324.86,-283.3"/>
<polygon fill="#9a32cd" stroke="#9a32cd" points="105.65,-142.72 95.6,-146.07 105.55,-149.71 105.65,-142.72"/>
<text text-anchor="middle" x="211.5" y="-198.5" font-family="Helvetica,sans-Serif" font-size="10.00"> lInear</text>
<text text-anchor="middle" x="211.5" y="-187.5" font-family="Helvetica,sans-Serif" font-size="10.00">staticOnly</text>
</g>
<!-- Node15 -->
<g id="node15" class="node">
<title>Node15</title>
<g id="a_node15"><a xlink:title=" ">
<polygon fill="white" stroke="#bfbfbf" points="9,-289 9,-308 144,-308 144,-289 9,-289"/>
<text text-anchor="middle" x="76.5" y="-296" font-family="Helvetica,sans-Serif" font-size="10.00">vector&lt; VectorDouble &gt;</text>
</a>
</g>
</g>
<!-- Node15&#45;&gt;Node8 -->
<g id="edge14" class="edge">
<title>Node15&#45;&gt;Node8</title>
<path fill="none" stroke="#9a32cd" stroke-dasharray="5,2" d="M154.25,-298.5C190.87,-298.5 234.31,-298.5 269.7,-298.5"/>
<polygon fill="#9a32cd" stroke="#9a32cd" points="154.12,-295 144.12,-298.5 154.12,-302 154.12,-295"/>
<text text-anchor="middle" x="211.5" y="-323.5" font-family="Helvetica,sans-Serif" font-size="10.00"> valMass</text>
<text text-anchor="middle" x="211.5" y="-312.5" font-family="Helvetica,sans-Serif" font-size="10.00">valT</text>
<text text-anchor="middle" x="211.5" y="-301.5" font-family="Helvetica,sans-Serif" font-size="10.00">valVel</text>
</g>
<!-- Node16 -->
<g id="node16" class="node">
<title>Node16</title>
<g id="a_node16"><a xlink:title=" ">
<polygon fill="white" stroke="#bfbfbf" points="324,-131 324,-150 353,-150 353,-131 324,-131"/>
<text text-anchor="middle" x="338.5" y="-138" font-family="Helvetica,sans-Serif" font-size="10.00">int</text>
</a>
</g>
</g>
<!-- Node16&#45;&gt;Node1 -->
<g id="edge15" class="edge">
<title>Node16&#45;&gt;Node1</title>
<path fill="none" stroke="#9a32cd" stroke-dasharray="5,2" d="M363.5,-138.82C395.41,-137.65 452.72,-139.29 495,-161.5 546.92,-188.78 588.09,-246.79 607.45,-277.85"/>
<polygon fill="#9a32cd" stroke="#9a32cd" points="363.15,-135.34 353.33,-139.33 363.49,-142.33 363.15,-135.34"/>
<text text-anchor="middle" x="460" y="-164.5" font-family="Helvetica,sans-Serif" font-size="10.00"> tAg</text>
</g>
<!-- Node17 -->
<g id="node17" class="node">
<title>Node17</title>
<g id="a_node17"><a xlink:href="classMatrixBoundedArray_3_01adouble_00_019_01_4.html" target="_top" xlink:title=" ">
<polygon fill="white" stroke="black" points="280,-56.5 280,-86.5 397,-86.5 397,-56.5 280,-56.5"/>
<text text-anchor="start" x="288" y="-74.5" font-family="Helvetica,sans-Serif" font-size="10.00">MatrixBoundedArray</text>
<text text-anchor="middle" x="338.5" y="-63.5" font-family="Helvetica,sans-Serif" font-size="10.00">&lt; adouble, 9 &gt;</text>
</a>
</g>
</g>
<!-- Node17&#45;&gt;Node1 -->
<g id="edge18" class="edge">
<title>Node17&#45;&gt;Node1</title>
<path fill="none" stroke="#9a32cd" stroke-dasharray="5,2" d="M407.21,-56.25C436.09,-53.34 469.04,-55.1 495,-70.5 572.96,-116.76 605.25,-230.93 615.52,-277.86"/>
<polygon fill="#9a32cd" stroke="#9a32cd" points="406.69,-52.78 397.18,-57.46 407.53,-59.73 406.69,-52.78"/>
<text text-anchor="middle" x="460" y="-128.5" font-family="Helvetica,sans-Serif" font-size="10.00"> g</text>
<text text-anchor="middle" x="460" y="-117.5" font-family="Helvetica,sans-Serif" font-size="10.00">F</text>
<text text-anchor="middle" x="460" y="-106.5" font-family="Helvetica,sans-Serif" font-size="10.00">h</text>
<text text-anchor="middle" x="460" y="-95.5" font-family="Helvetica,sans-Serif" font-size="10.00">G</text>
<text text-anchor="middle" x="460" y="-84.5" font-family="Helvetica,sans-Serif" font-size="10.00">H</text>
<text text-anchor="middle" x="460" y="-73.5" font-family="Helvetica,sans-Serif" font-size="10.00">invH</text>
</g>
<!-- Node18 -->
<g id="node18" class="node">
<title>Node18</title>
<g id="a_node18"><a xlink:title=" ">
<polygon fill="white" stroke="#bfbfbf" points="280.5,-0.5 280.5,-30.5 396.5,-30.5 396.5,-0.5 280.5,-0.5"/>
<text text-anchor="start" x="288.5" y="-18.5" font-family="Helvetica,sans-Serif" font-size="10.00">VectorBoundedArray</text>
<text text-anchor="middle" x="338.5" y="-7.5" font-family="Helvetica,sans-Serif" font-size="10.00">&lt; adouble, 3 &gt;</text>
</a>
</g>
</g>
<!-- Node18&#45;&gt;Node1 -->
<g id="edge19" class="edge">
<title>Node18&#45;&gt;Node1</title>
<path fill="none" stroke="#9a32cd" stroke-dasharray="5,2" d="M406.93,-1.48C436.21,0.94 469.54,-1.61 495,-18.5 586.54,-79.24 611.41,-224.18 617.6,-277.96"/>
<polygon fill="#9a32cd" stroke="#9a32cd" points="406.36,1.98 396.77,-2.53 407.07,-4.98 406.36,1.98"/>
<text text-anchor="middle" x="460" y="-43.5" font-family="Helvetica,sans-Serif" font-size="10.00"> a_T</text>
<text text-anchor="middle" x="460" y="-32.5" font-family="Helvetica,sans-Serif" font-size="10.00">a</text>
<text text-anchor="middle" x="460" y="-21.5" font-family="Helvetica,sans-Serif" font-size="10.00">v</text>
</g>
</g>
</svg>
