<?xml version="1.0" encoding="UTF-8" standalone="no"?>
<!DOCTYPE svg PUBLIC "-//W3C//DTD SVG 1.1//EN"
 "http://www.w3.org/Graphics/SVG/1.1/DTD/svg11.dtd">
<!-- Generated by graphviz version 9.0.0 (20230911.1827)
 -->
<!-- Title: FluidPressure::FluidData Pages: 1 -->
<svg width="214pt" height="105pt"
 viewBox="0.00 0.00 213.50 105.00" xmlns="http://www.w3.org/2000/svg" xmlns:xlink="http://www.w3.org/1999/xlink">
<g id="graph0" class="graph" transform="scale(1 1) rotate(0) translate(4 101)">
<title>FluidPressure::FluidData</title>
<!-- Node1 -->
<g id="node1" class="node">
<title>Node1</title>
<g id="a_node1"><a xlink:title=" ">
<polygon fill="#999999" stroke="#666666" points="162.25,-19.25 38.25,-19.25 38.25,0 162.25,0 162.25,-19.25"/>
<text text-anchor="middle" x="100.25" y="-5.75" font-family="Helvetica,sans-Serif" font-size="10.00">FluidPressure::FluidData</text>
</a>
</g>
</g>
<!-- Node2 -->
<g id="node2" class="node">
<title>Node2</title>
<g id="a_node2"><a xlink:href="classdouble.html" target="_top" xlink:title=" ">
<polygon fill="white" stroke="#666666" points="44.5,-97 0,-97 0,-77.75 44.5,-77.75 44.5,-97"/>
<text text-anchor="middle" x="22.25" y="-83.5" font-family="Helvetica,sans-Serif" font-size="10.00">double</text>
</a>
</g>
</g>
<!-- Node2&#45;&gt;Node1 -->
<g id="edge1" class="edge">
<title>Node2&#45;&gt;Node1</title>
<path fill="none" stroke="#9a32cd" stroke-dasharray="5,2" d="M34.22,-68.09C41.14,-58.3 50.41,-46.41 60.25,-37.25 67.45,-30.54 76.51,-24.36 84.19,-19.65"/>
<polygon fill="#9a32cd" stroke="#9a32cd" points="31.52,-65.84 28.79,-76.08 37.31,-69.78 31.52,-65.84"/>
<text text-anchor="middle" x="78.25" y="-44.62" font-family="Helvetica,sans-Serif" font-size="10.00"> dEnsity</text>
</g>
<!-- Node3 -->
<g id="node3" class="node">
<title>Node3</title>
<g id="a_node3"><a xlink:title=" ">
<polygon fill="white" stroke="#666666" points="137.88,-97 62.62,-97 62.62,-77.75 137.88,-77.75 137.88,-97"/>
<text text-anchor="middle" x="100.25" y="-83.5" font-family="Helvetica,sans-Serif" font-size="10.00">VectorDouble</text>
</a>
</g>
</g>
<!-- Node3&#45;&gt;Node1 -->
<g id="edge2" class="edge">
<title>Node3&#45;&gt;Node1</title>
<path fill="none" stroke="#9a32cd" stroke-dasharray="5,2" d="M100.25,-66.1C100.25,-50.95 100.25,-30.98 100.25,-19.6"/>
<polygon fill="#9a32cd" stroke="#9a32cd" points="96.75,-65.87 100.25,-75.87 103.75,-65.87 96.75,-65.87"/>
<text text-anchor="middle" x="130.25" y="-50.25" font-family="Helvetica,sans-Serif" font-size="10.00"> aCCeleration</text>
<text text-anchor="middle" x="130.25" y="-39" font-family="Helvetica,sans-Serif" font-size="10.00">zEroPressure</text>
</g>
<!-- Node4 -->
<g id="node4" class="node">
<title>Node4</title>
<g id="a_node4"><a xlink:href="class_range.html" target="_top" xlink:title=" ">
<polygon fill="white" stroke="#666666" points="205.5,-97 161,-97 161,-77.75 205.5,-77.75 205.5,-97"/>
<text text-anchor="middle" x="183.25" y="-83.5" font-family="Helvetica,sans-Serif" font-size="10.00">Range</text>
</a>
</g>
</g>
<!-- Node4&#45;&gt;Node1 -->
<g id="edge3" class="edge">
<title>Node4&#45;&gt;Node1</title>
<path fill="none" stroke="#9a32cd" stroke-dasharray="5,2" d="M178.04,-66.4C174.63,-56.59 169.27,-45.2 161.25,-37.25 153.37,-29.44 142.82,-23.75 132.71,-19.68"/>
<polygon fill="#9a32cd" stroke="#9a32cd" points="174.63,-67.23 180.86,-75.8 181.34,-65.22 174.63,-67.23"/>
<text text-anchor="middle" x="185.75" y="-44.62" font-family="Helvetica,sans-Serif" font-size="10.00"> tRis</text>
</g>
</g>
</svg>
