<?xml version="1.0" encoding="UTF-8" standalone="no"?>
<!DOCTYPE svg PUBLIC "-//W3C//DTD SVG 1.1//EN"
 "http://www.w3.org/Graphics/SVG/1.1/DTD/svg11.dtd">
<!-- Generated by graphviz version 9.0.0 (20230911.1827)
 -->
<!-- Title: FractureMechanics::AnalyticalOptions Pages: 1 -->
<svg width="153pt" height="105pt"
 viewBox="0.00 0.00 153.38 105.00" xmlns="http://www.w3.org/2000/svg" xmlns:xlink="http://www.w3.org/1999/xlink">
<g id="graph0" class="graph" transform="scale(1 1) rotate(0) translate(4 101)">
<title>FractureMechanics::AnalyticalOptions</title>
<!-- Node1 -->
<g id="node1" class="node">
<title>Node1</title>
<g id="a_node1"><a xlink:title=" ">
<polygon fill="#999999" stroke="#666666" points="105.25,-30.5 0,-30.5 0,0 105.25,0 105.25,-30.5"/>
<text text-anchor="start" x="8" y="-17" font-family="Helvetica,sans-Serif" font-size="10.00">FractureMechanics::</text>
<text text-anchor="middle" x="52.62" y="-5.75" font-family="Helvetica,sans-Serif" font-size="10.00">AnalyticalOptions</text>
</a>
</g>
</g>
<!-- Node2 -->
<g id="node2" class="node">
<title>Node2</title>
<g id="a_node2"><a xlink:href="classdouble.html" target="_top" xlink:title=" ">
<polygon fill="white" stroke="#666666" points="46.88,-97 2.38,-97 2.38,-77.75 46.88,-77.75 46.88,-97"/>
<text text-anchor="middle" x="24.62" y="-83.5" font-family="Helvetica,sans-Serif" font-size="10.00">double</text>
</a>
</g>
</g>
<!-- Node2&#45;&gt;Node1 -->
<g id="edge1" class="edge">
<title>Node2&#45;&gt;Node1</title>
<path fill="none" stroke="#9a32cd" stroke-dasharray="5,2" d="M25.95,-66.32C26.8,-60.43 28.16,-54.08 30.38,-48.5 32.83,-42.3 36.67,-36.12 40.47,-30.86"/>
<polygon fill="#9a32cd" stroke="#9a32cd" points="22.51,-65.55 25.01,-75.85 29.48,-66.24 22.51,-65.55"/>
<text text-anchor="middle" x="44.25" y="-50.25" font-family="Helvetica,sans-Serif" font-size="10.00"> aLpha</text>
</g>
<!-- Node3 -->
<g id="node3" class="node">
<title>Node3</title>
<g id="a_node3"><a xlink:href="classbool.html" target="_top" xlink:title=" ">
<polygon fill="white" stroke="#666666" points="98.62,-97 64.62,-97 64.62,-77.75 98.62,-77.75 98.62,-97"/>
<text text-anchor="middle" x="81.62" y="-83.5" font-family="Helvetica,sans-Serif" font-size="10.00">bool</text>
</a>
</g>
</g>
<!-- Node3&#45;&gt;Node1 -->
<g id="edge2" class="edge">
<title>Node3&#45;&gt;Node1</title>
<path fill="none" stroke="#9a32cd" stroke-dasharray="5,2" d="M73.57,-66.89C68.86,-55.5 63.01,-41.36 58.69,-30.92"/>
<polygon fill="#9a32cd" stroke="#9a32cd" points="70.32,-68.19 77.37,-76.09 76.79,-65.52 70.32,-68.19"/>
<text text-anchor="middle" x="107.5" y="-50.25" font-family="Helvetica,sans-Serif" font-size="10.00"> optionsInitialised</text>
</g>
</g>
</svg>
