<?xml version="1.0" encoding="UTF-8" standalone="no"?>
<!DOCTYPE svg PUBLIC "-//W3C//DTD SVG 1.1//EN"
 "http://www.w3.org/Graphics/SVG/1.1/DTD/svg11.dtd">
<!-- Generated by graphviz version 2.43.0 (0)
 -->
<!-- Title: PeriodicNitscheConstrains::MyNitscheVolume Pages: 1 -->
<svg width="383pt" height="498pt"
 viewBox="0.00 0.00 383.00 498.00" xmlns="http://www.w3.org/2000/svg" xmlns:xlink="http://www.w3.org/1999/xlink">
<g id="graph0" class="graph" transform="scale(1 1) rotate(0) translate(4 494)">
<title>PeriodicNitscheConstrains::MyNitscheVolume</title>
<polygon fill="white" stroke="transparent" points="-4,4 -4,-494 379,-494 379,4 -4,4"/>
<!-- Node1 -->
<g id="node1" class="node">
<title>Node1</title>
<g id="a_node1"><a xlink:title=" ">
<polygon fill="#bfbfbf" stroke="black" points="118.5,-0.5 118.5,-30.5 262.5,-30.5 262.5,-0.5 118.5,-0.5"/>
<text text-anchor="start" x="126.5" y="-18.5" font-family="Helvetica,sans-Serif" font-size="10.00">PeriodicNitscheConstrains</text>
<text text-anchor="middle" x="190.5" y="-7.5" font-family="Helvetica,sans-Serif" font-size="10.00">::MyNitscheVolume</text>
</a>
</g>
</g>
<!-- Node2 -->
<g id="node2" class="node">
<title>Node2</title>
<g id="a_node2"><a xlink:href="structNitscheMethod_1_1MyVolumeFE.html" target="_top" xlink:title="Definition of volume element.">
<polygon fill="white" stroke="black" points="110.5,-67.5 110.5,-86.5 270.5,-86.5 270.5,-67.5 110.5,-67.5"/>
<text text-anchor="middle" x="190.5" y="-74.5" font-family="Helvetica,sans-Serif" font-size="10.00">NitscheMethod::MyVolumeFE</text>
</a>
</g>
</g>
<!-- Node2&#45;&gt;Node1 -->
<g id="edge1" class="edge">
<title>Node2&#45;&gt;Node1</title>
<path fill="none" stroke="midnightblue" d="M190.5,-57.23C190.5,-48.59 190.5,-38.5 190.5,-30.52"/>
<polygon fill="midnightblue" stroke="midnightblue" points="187,-57.48 190.5,-67.48 194,-57.48 187,-57.48"/>
</g>
<!-- Node3 -->
<g id="node3" class="node">
<title>Node3</title>
<g id="a_node3"><a xlink:href="structMoFEM_1_1VolumeElementForcesAndSourcesCore.html" target="_top" xlink:title="Volume finite element base.">
<polygon fill="white" stroke="black" points="107,-123.5 107,-153.5 274,-153.5 274,-123.5 107,-123.5"/>
<text text-anchor="start" x="115" y="-141.5" font-family="Helvetica,sans-Serif" font-size="10.00">MoFEM::VolumeElementForces</text>
<text text-anchor="middle" x="190.5" y="-130.5" font-family="Helvetica,sans-Serif" font-size="10.00">AndSourcesCore</text>
</a>
</g>
</g>
<!-- Node3&#45;&gt;Node2 -->
<g id="edge2" class="edge">
<title>Node3&#45;&gt;Node2</title>
<path fill="none" stroke="midnightblue" d="M190.5,-113.29C190.5,-103.86 190.5,-93.65 190.5,-86.66"/>
<polygon fill="midnightblue" stroke="midnightblue" points="187,-113.4 190.5,-123.4 194,-113.4 187,-113.4"/>
</g>
<!-- Node4 -->
<g id="node4" class="node">
<title>Node4</title>
<g id="a_node4"><a xlink:href="structMoFEM_1_1ForcesAndSourcesCore.html" target="_top" xlink:title="structure to get information form mofem into EntitiesFieldData">
<polygon fill="white" stroke="black" points="105.5,-190.5 105.5,-209.5 275.5,-209.5 275.5,-190.5 105.5,-190.5"/>
<text text-anchor="middle" x="190.5" y="-197.5" font-family="Helvetica,sans-Serif" font-size="10.00">MoFEM::ForcesAndSourcesCore</text>
</a>
</g>
</g>
<!-- Node4&#45;&gt;Node3 -->
<g id="edge3" class="edge">
<title>Node4&#45;&gt;Node3</title>
<path fill="none" stroke="midnightblue" d="M190.5,-180.23C190.5,-171.59 190.5,-161.5 190.5,-153.52"/>
<polygon fill="midnightblue" stroke="midnightblue" points="187,-180.48 190.5,-190.48 194,-180.48 187,-180.48"/>
</g>
<!-- Node5 -->
<g id="node5" class="node">
<title>Node5</title>
<g id="a_node5"><a xlink:href="structMoFEM_1_1FEMethod.html" target="_top" xlink:title="structure for User Loop Methods on finite elements">
<polygon fill="white" stroke="black" points="137,-246.5 137,-265.5 244,-265.5 244,-246.5 137,-246.5"/>
<text text-anchor="middle" x="190.5" y="-253.5" font-family="Helvetica,sans-Serif" font-size="10.00">MoFEM::FEMethod</text>
</a>
</g>
</g>
<!-- Node5&#45;&gt;Node4 -->
<g id="edge4" class="edge">
<title>Node5&#45;&gt;Node4</title>
<path fill="none" stroke="midnightblue" d="M190.5,-235.8C190.5,-226.91 190.5,-216.78 190.5,-209.75"/>
<polygon fill="midnightblue" stroke="midnightblue" points="187,-236.08 190.5,-246.08 194,-236.08 187,-236.08"/>
</g>
<!-- Node6 -->
<g id="node6" class="node">
<title>Node6</title>
<g id="a_node6"><a xlink:href="structMoFEM_1_1BasicMethod.html" target="_top" xlink:title="Data structure to exchange data between mofem and User Loop Methods.">
<polygon fill="white" stroke="black" points="129.5,-302.5 129.5,-321.5 251.5,-321.5 251.5,-302.5 129.5,-302.5"/>
<text text-anchor="middle" x="190.5" y="-309.5" font-family="Helvetica,sans-Serif" font-size="10.00">MoFEM::BasicMethod</text>
</a>
</g>
</g>
<!-- Node6&#45;&gt;Node5 -->
<g id="edge5" class="edge">
<title>Node6&#45;&gt;Node5</title>
<path fill="none" stroke="midnightblue" d="M190.5,-291.8C190.5,-282.91 190.5,-272.78 190.5,-265.75"/>
<polygon fill="midnightblue" stroke="midnightblue" points="187,-292.08 190.5,-302.08 194,-292.08 187,-292.08"/>
</g>
<!-- Node7 -->
<g id="node7" class="node">
<title>Node7</title>
<g id="a_node7"><a xlink:href="structMoFEM_1_1KspMethod.html" target="_top" xlink:title="data structure for ksp (linear solver) context">
<polygon fill="white" stroke="black" points="0,-358.5 0,-377.5 113,-377.5 113,-358.5 0,-358.5"/>
<text text-anchor="middle" x="56.5" y="-365.5" font-family="Helvetica,sans-Serif" font-size="10.00">MoFEM::KspMethod</text>
</a>
</g>
</g>
<!-- Node7&#45;&gt;Node6 -->
<g id="edge6" class="edge">
<title>Node7&#45;&gt;Node6</title>
<path fill="none" stroke="midnightblue" d="M87.18,-354.64C112.32,-344.5 147.25,-330.43 169.37,-321.52"/>
<polygon fill="midnightblue" stroke="midnightblue" points="85.7,-351.46 77.73,-358.44 88.32,-357.95 85.7,-351.46"/>
</g>
<!-- Node8 -->
<g id="node8" class="node">
<title>Node8</title>
<g id="a_node8"><a xlink:href="structMoFEM_1_1PetscData.html" target="_top" xlink:title=" ">
<polygon fill="white" stroke="black" points="136.5,-414.5 136.5,-433.5 244.5,-433.5 244.5,-414.5 136.5,-414.5"/>
<text text-anchor="middle" x="190.5" y="-421.5" font-family="Helvetica,sans-Serif" font-size="10.00">MoFEM::PetscData</text>
</a>
</g>
</g>
<!-- Node8&#45;&gt;Node7 -->
<g id="edge7" class="edge">
<title>Node8&#45;&gt;Node7</title>
<path fill="none" stroke="midnightblue" d="M159.82,-410.64C134.68,-400.5 99.75,-386.43 77.63,-377.52"/>
<polygon fill="midnightblue" stroke="midnightblue" points="158.68,-413.95 169.27,-414.44 161.3,-407.46 158.68,-413.95"/>
</g>
<!-- Node10 -->
<g id="node10" class="node">
<title>Node10</title>
<g id="a_node10"><a xlink:href="structMoFEM_1_1SnesMethod.html" target="_top" xlink:title="data structure for snes (nonlinear solver) context">
<polygon fill="white" stroke="black" points="131,-358.5 131,-377.5 250,-377.5 250,-358.5 131,-358.5"/>
<text text-anchor="middle" x="190.5" y="-365.5" font-family="Helvetica,sans-Serif" font-size="10.00">MoFEM::SnesMethod</text>
</a>
</g>
</g>
<!-- Node8&#45;&gt;Node10 -->
<g id="edge10" class="edge">
<title>Node8&#45;&gt;Node10</title>
<path fill="none" stroke="darkgreen" d="M190.5,-403.8C190.5,-394.91 190.5,-384.78 190.5,-377.75"/>
<polygon fill="darkgreen" stroke="darkgreen" points="187,-404.08 190.5,-414.08 194,-404.08 187,-404.08"/>
</g>
<!-- Node11 -->
<g id="node11" class="node">
<title>Node11</title>
<g id="a_node11"><a xlink:href="structMoFEM_1_1TSMethod.html" target="_top" xlink:title="data structure for TS (time stepping) context">
<polygon fill="white" stroke="black" points="268,-358.5 268,-377.5 375,-377.5 375,-358.5 268,-358.5"/>
<text text-anchor="middle" x="321.5" y="-365.5" font-family="Helvetica,sans-Serif" font-size="10.00">MoFEM::TSMethod</text>
</a>
</g>
</g>
<!-- Node8&#45;&gt;Node11 -->
<g id="edge12" class="edge">
<title>Node8&#45;&gt;Node11</title>
<path fill="none" stroke="darkgreen" d="M220.82,-410.5C245.38,-400.38 279.32,-386.39 300.84,-377.52"/>
<polygon fill="darkgreen" stroke="darkgreen" points="219.17,-407.4 211.26,-414.44 221.84,-413.87 219.17,-407.4"/>
</g>
<!-- Node9 -->
<g id="node9" class="node">
<title>Node9</title>
<g id="a_node9"><a xlink:href="structMoFEM_1_1UnknownInterface.html" target="_top" xlink:title="base class for all interface classes">
<polygon fill="white" stroke="black" points="116.5,-470.5 116.5,-489.5 264.5,-489.5 264.5,-470.5 116.5,-470.5"/>
<text text-anchor="middle" x="190.5" y="-477.5" font-family="Helvetica,sans-Serif" font-size="10.00">MoFEM::UnknownInterface</text>
</a>
</g>
</g>
<!-- Node9&#45;&gt;Node8 -->
<g id="edge8" class="edge">
<title>Node9&#45;&gt;Node8</title>
<path fill="none" stroke="midnightblue" d="M190.5,-459.8C190.5,-450.91 190.5,-440.78 190.5,-433.75"/>
<polygon fill="midnightblue" stroke="midnightblue" points="187,-460.08 190.5,-470.08 194,-460.08 187,-460.08"/>
</g>
<!-- Node10&#45;&gt;Node6 -->
<g id="edge9" class="edge">
<title>Node10&#45;&gt;Node6</title>
<path fill="none" stroke="midnightblue" d="M190.5,-347.8C190.5,-338.91 190.5,-328.78 190.5,-321.75"/>
<polygon fill="midnightblue" stroke="midnightblue" points="187,-348.08 190.5,-358.08 194,-348.08 187,-348.08"/>
</g>
<!-- Node11&#45;&gt;Node6 -->
<g id="edge11" class="edge">
<title>Node11&#45;&gt;Node6</title>
<path fill="none" stroke="midnightblue" d="M291.18,-354.5C266.62,-344.38 232.68,-330.39 211.16,-321.52"/>
<polygon fill="midnightblue" stroke="midnightblue" points="290.16,-357.87 300.74,-358.44 292.83,-351.4 290.16,-357.87"/>
</g>
</g>
</svg>
