<?xml version="1.0" encoding="UTF-8" standalone="no"?>
<!DOCTYPE svg PUBLIC "-//W3C//DTD SVG 1.1//EN"
 "http://www.w3.org/Graphics/SVG/1.1/DTD/svg11.dtd">
<!-- Generated by graphviz version 2.43.0 (0)
 -->
<!-- Title: MixedPoisson::OpError Pages: 1 -->
<svg width="1516pt" height="138pt"
 viewBox="0.00 0.00 1516.00 138.00" xmlns="http://www.w3.org/2000/svg" xmlns:xlink="http://www.w3.org/1999/xlink">
<g id="graph0" class="graph" transform="scale(1 1) rotate(0) translate(4 134)">
<title>MixedPoisson::OpError</title>
<polygon fill="white" stroke="transparent" points="-4,4 -4,-134 1512,-134 1512,4 -4,4"/>
<!-- Node1 -->
<g id="node1" class="node">
<title>Node1</title>
<g id="a_node1"><a xlink:title=" ">
<polygon fill="#bfbfbf" stroke="black" points="1382,-66.5 1382,-85.5 1508,-85.5 1508,-66.5 1382,-66.5"/>
<text text-anchor="middle" x="1445" y="-73.5" font-family="Helvetica,sans-Serif" font-size="10.00">MixedPoisson::OpError</text>
</a>
</g>
</g>
<!-- Node2 -->
<g id="node2" class="node">
<title>Node2</title>
<g id="a_node2"><a xlink:href="classDomainEleOp.html" target="_top" xlink:title=" ">
<polygon fill="white" stroke="black" points="1131,-110.5 1131,-129.5 1214,-129.5 1214,-110.5 1131,-110.5"/>
<text text-anchor="middle" x="1172.5" y="-117.5" font-family="Helvetica,sans-Serif" font-size="10.00">DomainEleOp</text>
</a>
</g>
</g>
<!-- Node2&#45;&gt;Node1 -->
<g id="edge1" class="edge">
<title>Node2&#45;&gt;Node1</title>
<path fill="none" stroke="midnightblue" d="M1223.98,-112.8C1262.42,-107.19 1316.62,-99.05 1364,-91 1373.89,-89.32 1384.45,-87.42 1394.54,-85.55"/>
<polygon fill="midnightblue" stroke="midnightblue" points="1223.46,-109.33 1214.07,-114.24 1224.47,-116.26 1223.46,-109.33"/>
</g>
<!-- Node3 -->
<g id="node3" class="node">
<title>Node3</title>
<g id="a_node3"><a xlink:title=" ">
<polygon fill="white" stroke="#bfbfbf" points="1099.5,-61 1099.5,-91 1245.5,-91 1245.5,-61 1099.5,-61"/>
<text text-anchor="start" x="1107.5" y="-79" font-family="Helvetica,sans-Serif" font-size="10.00">shared_ptr&lt; MixedPoisson</text>
<text text-anchor="middle" x="1172.5" y="-68" font-family="Helvetica,sans-Serif" font-size="10.00">::CommonData &gt;</text>
</a>
</g>
</g>
<!-- Node3&#45;&gt;Node1 -->
<g id="edge2" class="edge">
<title>Node3&#45;&gt;Node1</title>
<path fill="none" stroke="#9a32cd" stroke-dasharray="5,2" d="M1255.76,-76C1296.27,-76 1344.31,-76 1381.72,-76"/>
<polygon fill="#9a32cd" stroke="#9a32cd" points="1255.63,-72.5 1245.63,-76 1255.63,-79.5 1255.63,-72.5"/>
<text text-anchor="middle" x="1322.5" y="-79" font-family="Helvetica,sans-Serif" font-size="10.00"> commonDataPtr</text>
</g>
<!-- Node4 -->
<g id="node4" class="node">
<title>Node4</title>
<g id="a_node4"><a xlink:href="structMoFEM_1_1DeprecatedCoreInterface.html" target="_top" xlink:title="Deprecated interface functions.">
<polygon fill="white" stroke="black" points="1082,-22.5 1082,-41.5 1263,-41.5 1263,-22.5 1082,-22.5"/>
<text text-anchor="middle" x="1172.5" y="-29.5" font-family="Helvetica,sans-Serif" font-size="10.00">MoFEM::DeprecatedCoreInterface</text>
</a>
</g>
</g>
<!-- Node4&#45;&gt;Node1 -->
<g id="edge3" class="edge">
<title>Node4&#45;&gt;Node1</title>
<path fill="none" stroke="#9a32cd" stroke-dasharray="5,2" d="M1249.82,-43.01C1284.68,-48.19 1326.48,-54.63 1364,-61 1373.89,-62.68 1384.45,-64.58 1394.54,-66.45"/>
<polygon fill="#9a32cd" stroke="#9a32cd" points="1250.12,-39.51 1239.71,-41.51 1249.09,-46.44 1250.12,-39.51"/>
<text text-anchor="middle" x="1322.5" y="-64" font-family="Helvetica,sans-Serif" font-size="10.00"> mField</text>
</g>
<!-- Node5 -->
<g id="node5" class="node">
<title>Node5</title>
<g id="a_node5"><a xlink:href="structMoFEM_1_1CoreInterface.html" target="_top" xlink:title="Interface.">
<polygon fill="white" stroke="black" points="920,-22.5 920,-41.5 1045,-41.5 1045,-22.5 920,-22.5"/>
<text text-anchor="middle" x="982.5" y="-29.5" font-family="Helvetica,sans-Serif" font-size="10.00">MoFEM::CoreInterface</text>
</a>
</g>
</g>
<!-- Node5&#45;&gt;Node4 -->
<g id="edge4" class="edge">
<title>Node5&#45;&gt;Node4</title>
<path fill="none" stroke="midnightblue" d="M1055.16,-32C1063.89,-32 1072.89,-32 1081.84,-32"/>
<polygon fill="midnightblue" stroke="midnightblue" points="1055.06,-28.5 1045.06,-32 1055.06,-35.5 1055.06,-28.5"/>
</g>
<!-- Node6 -->
<g id="node6" class="node">
<title>Node6</title>
<g id="a_node6"><a xlink:href="structMoFEM_1_1UnknownInterface.html" target="_top" xlink:title="base class for all interface classes">
<polygon fill="white" stroke="black" points="735,-22.5 735,-41.5 883,-41.5 883,-22.5 735,-22.5"/>
<text text-anchor="middle" x="809" y="-29.5" font-family="Helvetica,sans-Serif" font-size="10.00">MoFEM::UnknownInterface</text>
</a>
</g>
</g>
<!-- Node6&#45;&gt;Node5 -->
<g id="edge5" class="edge">
<title>Node6&#45;&gt;Node5</title>
<path fill="none" stroke="midnightblue" d="M893.29,-32C902.24,-32 911.22,-32 919.85,-32"/>
<polygon fill="midnightblue" stroke="midnightblue" points="893.23,-28.5 883.23,-32 893.23,-35.5 893.23,-28.5"/>
</g>
<!-- Node7 -->
<g id="node7" class="node">
<title>Node7</title>
<g id="a_node7"><a xlink:title=" ">
<polygon fill="white" stroke="#bfbfbf" points="386,-0.5 386,-63.5 627,-63.5 627,-0.5 386,-0.5"/>
<text text-anchor="start" x="394" y="-51.5" font-family="Helvetica,sans-Serif" font-size="10.00">multi_index_container</text>
<text text-anchor="start" x="394" y="-40.5" font-family="Helvetica,sans-Serif" font-size="10.00">&lt; UIdTypeMap, indexed</text>
<text text-anchor="start" x="394" y="-29.5" font-family="Helvetica,sans-Serif" font-size="10.00">_by&lt; hashed_unique&lt; member</text>
<text text-anchor="start" x="394" y="-18.5" font-family="Helvetica,sans-Serif" font-size="10.00">&lt; UIdTypeMap, boost::typeindex</text>
<text text-anchor="middle" x="506.5" y="-7.5" font-family="Helvetica,sans-Serif" font-size="10.00">::type_index, &amp;UIdTypeMap::classIdx &gt; &gt; &gt; &gt;</text>
</a>
</g>
</g>
<!-- Node7&#45;&gt;Node6 -->
<g id="edge6" class="edge">
<title>Node7&#45;&gt;Node6</title>
<path fill="none" stroke="#9a32cd" stroke-dasharray="5,2" d="M637.41,-32C670.69,-32 705.33,-32 734.62,-32"/>
<polygon fill="#9a32cd" stroke="#9a32cd" points="637.13,-28.5 627.13,-32 637.13,-35.5 637.13,-28.5"/>
<text text-anchor="middle" x="681" y="-35" font-family="Helvetica,sans-Serif" font-size="10.00"> iFaceTypeMap</text>
</g>
<!-- Node8 -->
<g id="node8" class="node">
<title>Node8</title>
<g id="a_node8"><a xlink:title=" ">
<polygon fill="white" stroke="#bfbfbf" points="0,-22.5 0,-41.5 125,-41.5 125,-22.5 0,-22.5"/>
<text text-anchor="middle" x="62.5" y="-29.5" font-family="Helvetica,sans-Serif" font-size="10.00">multi_index_container</text>
</a>
</g>
</g>
<!-- Node8&#45;&gt;Node7 -->
<g id="edge7" class="edge">
<title>Node8&#45;&gt;Node7</title>
<path fill="none" stroke="orange" stroke-dasharray="5,2" d="M135.56,-32C203.25,-32 305.79,-32 385.77,-32"/>
<polygon fill="orange" stroke="orange" points="135.42,-28.5 125.42,-32 135.42,-35.5 135.42,-28.5"/>
<text text-anchor="start" x="143" y="-68" font-family="Helvetica,sans-Serif" font-size="10.00"> &lt; UIdTypeMap, indexed</text>
<text text-anchor="start" x="143" y="-57" font-family="Helvetica,sans-Serif" font-size="10.00">_by&lt; hashed_unique&lt; member</text>
<text text-anchor="start" x="143" y="-46" font-family="Helvetica,sans-Serif" font-size="10.00">&lt; UIdTypeMap, boost::typeindex</text>
<text text-anchor="middle" x="255.5" y="-35" font-family="Helvetica,sans-Serif" font-size="10.00">::type_index, &amp;UIdTypeMap::classIdx &gt; &gt; &gt; &gt;</text>
</g>
</g>
</svg>
