<?xml version="1.0" encoding="UTF-8" standalone="no"?>
<!DOCTYPE svg PUBLIC "-//W3C//DTD SVG 1.1//EN"
 "http://www.w3.org/Graphics/SVG/1.1/DTD/svg11.dtd">
<!-- Generated by graphviz version 9.0.0 (20230911.1827)
 -->
<!-- Title: FractureMechanics::MWLSApprox::OpMWLSBase&lt; T &gt; Pages: 1 -->
<svg width="465pt" height="162pt"
 viewBox="0.00 0.00 465.25 161.88" xmlns="http://www.w3.org/2000/svg" xmlns:xlink="http://www.w3.org/1999/xlink">
<g id="graph0" class="graph" transform="scale(1 1) rotate(0) translate(4 157.88)">
<title>FractureMechanics::MWLSApprox::OpMWLSBase&lt; T &gt;</title>
<!-- Node1 -->
<g id="node1" class="node">
<title>Node1</title>
<g id="a_node1"><a xlink:title=" ">
<polygon fill="#999999" stroke="#666666" points="457.25,-100.5 285.25,-100.5 285.25,-70 457.25,-70 457.25,-100.5"/>
<text text-anchor="start" x="293.25" y="-87" font-family="Helvetica,sans-Serif" font-size="10.00">FractureMechanics::</text>
<text text-anchor="middle" x="371.25" y="-75.75" font-family="Helvetica,sans-Serif" font-size="10.00">MWLSApprox::OpMWLSBase&lt; T &gt;</text>
</a>
</g>
</g>
<!-- Node2 -->
<g id="node2" class="node">
<title>Node2</title>
<g id="a_node2"><a xlink:title=" ">
<polygon fill="white" stroke="#666666" points="130,-153.88 24,-153.88 24,-134.62 130,-134.62 130,-153.88"/>
<text text-anchor="middle" x="77" y="-140.38" font-family="Helvetica,sans-Serif" font-size="10.00">T::UserDataOperator</text>
</a>
</g>
</g>
<!-- Node2&#45;&gt;Node1 -->
<g id="edge1" class="edge">
<title>Node2&#45;&gt;Node1</title>
<path fill="none" stroke="#63b8ff" d="M141.62,-142.69C178.7,-140.68 226.11,-136.18 267.25,-126.25 291.76,-120.33 318.16,-109.74 338.09,-100.8"/>
<polygon fill="#63b8ff" stroke="#63b8ff" points="141.79,-139.18 131.98,-143.17 142.14,-146.17 141.79,-139.18"/>
</g>
<!-- Node3 -->
<g id="node3" class="node">
<title>Node3</title>
<g id="a_node3"><a xlink:title=" ">
<polygon fill="white" stroke="#666666" points="145.75,-116.88 8.25,-116.88 8.25,-97.62 145.75,-97.62 145.75,-116.88"/>
<text text-anchor="middle" x="77" y="-103.38" font-family="Helvetica,sans-Serif" font-size="10.00">shared_ptr&lt; MatrixDouble &gt;</text>
</a>
</g>
</g>
<!-- Node3&#45;&gt;Node1 -->
<g id="edge2" class="edge">
<title>Node3&#45;&gt;Node1</title>
<path fill="none" stroke="#9a32cd" stroke-dasharray="5,2" d="M157.58,-101.26C197.05,-98.29 244.75,-94.7 284.97,-91.67"/>
<polygon fill="#9a32cd" stroke="#9a32cd" points="157.37,-97.77 147.66,-102.01 157.89,-104.75 157.37,-97.77"/>
<text text-anchor="middle" x="219.62" y="-112.25" font-family="Helvetica,sans-Serif" font-size="10.00"> matGradPosAtPtsPtr</text>
<text text-anchor="middle" x="219.62" y="-101" font-family="Helvetica,sans-Serif" font-size="10.00">matPosAtPtsPtr</text>
</g>
<!-- Node4 -->
<g id="node4" class="node">
<title>Node4</title>
<g id="a_node4"><a xlink:title=" ">
<polygon fill="white" stroke="#666666" points="151,-79.5 3,-79.5 3,-49 151,-49 151,-79.5"/>
<text text-anchor="start" x="11" y="-66" font-family="Helvetica,sans-Serif" font-size="10.00">weak_ptr&lt; FractureMechanics</text>
<text text-anchor="middle" x="77" y="-54.75" font-family="Helvetica,sans-Serif" font-size="10.00">::CrackFrontSingularBase &gt;</text>
</a>
</g>
</g>
<!-- Node4&#45;&gt;Node1 -->
<g id="edge3" class="edge">
<title>Node4&#45;&gt;Node1</title>
<path fill="none" stroke="#9a32cd" stroke-dasharray="5,2" d="M162.67,-66.86C195.38,-68.21 233.09,-70.18 267.25,-73 272.99,-73.47 278.91,-74.02 284.87,-74.61"/>
<polygon fill="#9a32cd" stroke="#9a32cd" points="162.97,-63.37 152.84,-66.47 162.69,-70.36 162.97,-63.37"/>
<text text-anchor="middle" x="219.62" y="-74" font-family="Helvetica,sans-Serif" font-size="10.00"> feSingularPtr</text>
</g>
<!-- Node5 -->
<g id="node5" class="node">
<title>Node5</title>
<g id="a_node5"><a xlink:title=" ">
<polygon fill="white" stroke="#666666" points="154,-30.5 0,-30.5 0,0 154,0 154,-30.5"/>
<text text-anchor="start" x="8" y="-17" font-family="Helvetica,sans-Serif" font-size="10.00">shared_ptr&lt; FractureMechanics</text>
<text text-anchor="middle" x="77" y="-5.75" font-family="Helvetica,sans-Serif" font-size="10.00">::MWLSApprox &gt;</text>
</a>
</g>
</g>
<!-- Node5&#45;&gt;Node1 -->
<g id="edge4" class="edge">
<title>Node5&#45;&gt;Node1</title>
<path fill="none" stroke="#9a32cd" stroke-dasharray="5,2" d="M165.61,-29.99C197.77,-35.99 234.34,-43.53 267.25,-52 286.63,-56.99 307.71,-63.58 325.72,-69.58"/>
<polygon fill="#9a32cd" stroke="#9a32cd" points="166.4,-26.57 155.93,-28.2 165.13,-33.46 166.4,-26.57"/>
<text text-anchor="middle" x="219.62" y="-53" font-family="Helvetica,sans-Serif" font-size="10.00"> mwlsApprox</text>
</g>
</g>
</svg>
