<?xml version="1.0" encoding="UTF-8" standalone="no"?>
<!DOCTYPE svg PUBLIC "-//W3C//DTD SVG 1.1//EN"
 "http://www.w3.org/Graphics/SVG/1.1/DTD/svg11.dtd">
<!-- Generated by graphviz version 2.43.0 (0)
 -->
<!-- Title: PlasticOps::OpCalculateConstraintsRhsImpl&lt; GAUSS, AssemblyDomainEleOp &gt; Pages: 1 -->
<svg width="241pt" height="151pt"
 viewBox="0.00 0.00 241.00 151.00" xmlns="http://www.w3.org/2000/svg" xmlns:xlink="http://www.w3.org/1999/xlink">
<g id="graph0" class="graph" transform="scale(1 1) rotate(0) translate(4 147)">
<title>PlasticOps::OpCalculateConstraintsRhsImpl&lt; GAUSS, AssemblyDomainEleOp &gt;</title>
<polygon fill="white" stroke="transparent" points="-4,4 -4,-147 237,-147 237,4 -4,4"/>
<!-- Node1 -->
<g id="node1" class="node">
<title>Node1</title>
<g id="a_node1"><a xlink:title=" ">
<polygon fill="#bfbfbf" stroke="black" points="0,-0.5 0,-30.5 233,-30.5 233,-0.5 0,-0.5"/>
<text text-anchor="start" x="8" y="-18.5" font-family="Helvetica,sans-Serif" font-size="10.00">PlasticOps::OpCalculateConstraints</text>
<text text-anchor="middle" x="116.5" y="-7.5" font-family="Helvetica,sans-Serif" font-size="10.00">RhsImpl&lt; GAUSS, AssemblyDomainEleOp &gt;</text>
</a>
</g>
</g>
<!-- Node2 -->
<g id="node2" class="node">
<title>Node2</title>
<g id="a_node2"><a xlink:href="structMoFEM_1_1OpBaseImpl.html" target="_top" xlink:title=" ">
<polygon fill="white" stroke="black" points="51,-67.5 51,-86.5 182,-86.5 182,-67.5 51,-67.5"/>
<text text-anchor="middle" x="116.5" y="-74.5" font-family="Helvetica,sans-Serif" font-size="10.00">AssemblyDomainEleOp</text>
</a>
</g>
</g>
<!-- Node2&#45;&gt;Node1 -->
<g id="edge1" class="edge">
<title>Node2&#45;&gt;Node1</title>
<path fill="none" stroke="midnightblue" d="M116.5,-57.23C116.5,-48.59 116.5,-38.5 116.5,-30.52"/>
<polygon fill="midnightblue" stroke="midnightblue" points="113,-57.48 116.5,-67.48 120,-57.48 113,-57.48"/>
</g>
<!-- Node3 -->
<g id="node3" class="node">
<title>Node3</title>
<g id="a_node3"><a xlink:href="classEleOp.html" target="_top" xlink:title=" ">
<polygon fill="white" stroke="black" points="94,-123.5 94,-142.5 139,-142.5 139,-123.5 94,-123.5"/>
<text text-anchor="middle" x="116.5" y="-130.5" font-family="Helvetica,sans-Serif" font-size="10.00">EleOp</text>
</a>
</g>
</g>
<!-- Node3&#45;&gt;Node2 -->
<g id="edge2" class="edge">
<title>Node3&#45;&gt;Node2</title>
<path fill="none" stroke="midnightblue" d="M116.5,-112.8C116.5,-103.91 116.5,-93.78 116.5,-86.75"/>
<polygon fill="midnightblue" stroke="midnightblue" points="113,-113.08 116.5,-123.08 120,-113.08 113,-113.08"/>
</g>
</g>
</svg>
