<?xml version="1.0" encoding="UTF-8" standalone="no"?>
<!DOCTYPE svg PUBLIC "-//W3C//DTD SVG 1.1//EN"
 "http://www.w3.org/Graphics/SVG/1.1/DTD/svg11.dtd">
<!-- Generated by graphviz version 9.0.0 (20230911.1827)
 -->
<!-- Title: MoFEM::VecManager Pages: 1 -->
<!--zoomable 119 -->
<svg id="main" version="1.1" xmlns="http://www.w3.org/2000/svg" xmlns:xlink="http://www.w3.org/1999/xlink" xml:space="preserve" onload="init(evt)">
<style type="text/css"><![CDATA[
.edge:hover path { stroke: red; }
.edge:hover polygon { stroke: red; fill: red; }
]]></style>
<script type="text/javascript"><![CDATA[
var edges = document.getElementsByTagName('g');
if (edges && edges.length) {
  for (var i=0;i<edges.length;i++) {
    if (edges[i].id.substr(0,4)=='edge') {
      edges[i].setAttribute('class','edge');
    }
  }
}
]]></script>
        <defs>
                <circle id="rim" cx="0" cy="0" r="7"/>
                <circle id="rim2" cx="0" cy="0" r="3.5"/>
                <g id="zoomPlus">
                        <use xlink:href="#rim" fill="#404040">
                                <set attributeName="fill" to="#808080" begin="zoomplus.mouseover" end="zoomplus.mouseout"/>
                        </use>
                        <path d="M-4,0h8M0,-4v8" fill="none" stroke="white" stroke-width="1.5" pointer-events="none"/>
                </g>
                <g id="zoomMin">
                        <use xlink:href="#rim" fill="#404040">
                                <set attributeName="fill" to="#808080" begin="zoomminus.mouseover" end="zoomminus.mouseout"/>
                        </use>
                        <path d="M-4,0h8" fill="none" stroke="white" stroke-width="1.5" pointer-events="none"/>
                </g>
                <g id="dirArrow">
                        <path fill="none" stroke="white" stroke-width="1.5" d="M0,-3.0v7 M-2.5,-0.5L0,-3.0L2.5,-0.5"/>
                </g>
               <g id="resetDef">
                       <use xlink:href="#rim2" fill="#404040">
                               <set attributeName="fill" to="#808080" begin="reset.mouseover" end="reset.mouseout"/>
                       </use>
               </g>
        </defs>

<script type="text/javascript">
var viewWidth = 1344;
var viewHeight = 119;
var sectionId = 'dynsection-1';
</script>
<script xlink:href="svgpan.js"/>
<svg id="graph" class="graph">
<g id="viewport">
<title>MoFEM::VecManager</title>
<!-- Node1 -->
<g id="node1" class="node">
<title>Node1</title>
<g id="a_node1"><a xlink:title="Vector manager is used to create vectors \mofem_vectors.">
<polygon fill="#999999" stroke="#666666" points="1335.5,-56.25 1224.25,-56.25 1224.25,-37 1335.5,-37 1335.5,-56.25"/>
<text text-anchor="middle" x="1279.88" y="-42.75" font-family="Helvetica,sans-Serif" font-size="10.00">MoFEM::VecManager</text>
</a>
</g>
</g>
<!-- Node2 -->
<g id="node2" class="node">
<title>Node2</title>
<g id="a_node2"><a xlink:href="struct_mo_f_e_m_1_1_unknown_interface.html" target="_top" xlink:title="base class for all interface classes">
<polygon fill="white" stroke="#666666" points="801.75,-75.25 665.75,-75.25 665.75,-56 801.75,-56 801.75,-75.25"/>
<text text-anchor="middle" x="733.75" y="-61.75" font-family="Helvetica,sans-Serif" font-size="10.00">MoFEM::UnknownInterface</text>
</a>
</g>
</g>
<!-- Node2&#45;&gt;Node1 -->
<g id="edge1" class="edge">
<title>Node2&#45;&gt;Node1</title>
<path fill="none" stroke="#63b8ff" d="M813.18,-68.62C815.73,-68.63 818.26,-68.64 820.75,-68.62 970.42,-67.96 1007.98,-72.42 1157.5,-65.62 1179.22,-64.64 1184.73,-64.72 1206.25,-61.62 1215.43,-60.31 1225.18,-58.54 1234.47,-56.69"/>
<polygon fill="#63b8ff" stroke="#63b8ff" points="813.43,-65.12 803.39,-68.5 813.35,-72.12 813.43,-65.12"/>
</g>
<!-- Node6 -->
<g id="node6" class="node">
<title>Node6</title>
<g id="a_node6"><a xlink:href="struct_mo_f_e_m_1_1_core_interface.html" target="_top" xlink:title="Interface.">
<polygon fill="white" stroke="#666666" points="954.5,-56.25 838.75,-56.25 838.75,-37 954.5,-37 954.5,-56.25"/>
<text text-anchor="middle" x="896.62" y="-42.75" font-family="Helvetica,sans-Serif" font-size="10.00">MoFEM::CoreInterface</text>
</a>
</g>
</g>
<!-- Node2&#45;&gt;Node6 -->
<g id="edge6" class="edge">
<title>Node2&#45;&gt;Node6</title>
<path fill="none" stroke="#63b8ff" d="M813.43,-56.33C821.81,-55.34 830.23,-54.35 838.3,-53.4"/>
<polygon fill="#63b8ff" stroke="#63b8ff" points="813.07,-52.85 803.55,-57.5 813.89,-59.8 813.07,-52.85"/>
</g>
<!-- Node3 -->
<g id="node3" class="node">
<title>Node3</title>
<g id="a_node3"><a xlink:title=" ">
<polygon fill="white" stroke="#666666" points="563,-97.75 346.75,-97.75 346.75,-33.5 563,-33.5 563,-97.75"/>
<text text-anchor="start" x="354.75" y="-84.25" font-family="Helvetica,sans-Serif" font-size="10.00">multi_index_container</text>
<text text-anchor="start" x="354.75" y="-73" font-family="Helvetica,sans-Serif" font-size="10.00">&lt; UIdTypeMap, indexed</text>
<text text-anchor="start" x="354.75" y="-61.75" font-family="Helvetica,sans-Serif" font-size="10.00">_by&lt; hashed_unique&lt; member</text>
<text text-anchor="start" x="354.75" y="-50.5" font-family="Helvetica,sans-Serif" font-size="10.00">&lt; UIdTypeMap, boost::typeindex</text>
<text text-anchor="middle" x="454.88" y="-39.25" font-family="Helvetica,sans-Serif" font-size="10.00">::type_index, &amp;UIdTypeMap::classIdx &gt; &gt; &gt; &gt;</text>
</a>
</g>
</g>
<!-- Node3&#45;&gt;Node2 -->
<g id="edge2" class="edge">
<title>Node3&#45;&gt;Node2</title>
<path fill="none" stroke="#9a32cd" stroke-dasharray="5,2" d="M574.68,-65.62C605.7,-65.62 638.06,-65.62 665.37,-65.62"/>
<polygon fill="#9a32cd" stroke="#9a32cd" points="574.83,-62.13 564.83,-65.63 574.83,-69.13 574.83,-62.13"/>
<text text-anchor="middle" x="614.38" y="-67.38" font-family="Helvetica,sans-Serif" font-size="10.00"> iFaceTypeMap</text>
</g>
<!-- Node4 -->
<g id="node4" class="node">
<title>Node4</title>
<g id="a_node4"><a xlink:title=" ">
<polygon fill="white" stroke="#666666" points="110.5,-75.25 0,-75.25 0,-56 110.5,-56 110.5,-75.25"/>
<text text-anchor="middle" x="55.25" y="-61.75" font-family="Helvetica,sans-Serif" font-size="10.00">multi_index_container</text>
</a>
</g>
</g>
<!-- Node4&#45;&gt;Node3 -->
<g id="edge3" class="edge">
<title>Node4&#45;&gt;Node3</title>
<path fill="none" stroke="orange" stroke-dasharray="5,2" d="M122.09,-65.62C183.01,-65.62 274.7,-65.62 346.26,-65.62"/>
<polygon fill="orange" stroke="orange" points="122.22,-62.13 112.22,-65.63 122.22,-69.13 122.22,-62.13"/>
<text text-anchor="start" x="128.5" y="-101.12" font-family="Helvetica,sans-Serif" font-size="10.00"> &lt; UIdTypeMap, indexed</text>
<text text-anchor="start" x="128.5" y="-89.88" font-family="Helvetica,sans-Serif" font-size="10.00">_by&lt; hashed_unique&lt; member</text>
<text text-anchor="start" x="128.5" y="-78.62" font-family="Helvetica,sans-Serif" font-size="10.00">&lt; UIdTypeMap, boost::typeindex</text>
<text text-anchor="middle" x="228.62" y="-67.38" font-family="Helvetica,sans-Serif" font-size="10.00">::type_index, &amp;UIdTypeMap::classIdx &gt; &gt; &gt; &gt;</text>
</g>
<!-- Node5 -->
<g id="node5" class="node">
<title>Node5</title>
<g id="a_node5"><a xlink:href="struct_mo_f_e_m_1_1_deprecated_core_interface.html" target="_top" xlink:title="Deprecated interface functions.">
<polygon fill="white" stroke="#666666" points="1157.5,-56.25 991.5,-56.25 991.5,-37 1157.5,-37 1157.5,-56.25"/>
<text text-anchor="middle" x="1074.5" y="-42.75" font-family="Helvetica,sans-Serif" font-size="10.00">MoFEM::DeprecatedCoreInterface</text>
</a>
</g>
</g>
<!-- Node5&#45;&gt;Node1 -->
<g id="edge4" class="edge">
<title>Node5&#45;&gt;Node1</title>
<path fill="none" stroke="#9a32cd" stroke-dasharray="5,2" d="M1169.22,-46.62C1187.98,-46.62 1207.1,-46.62 1224.01,-46.62"/>
<polygon fill="#9a32cd" stroke="#9a32cd" points="1169.44,-43.13 1159.44,-46.63 1169.44,-50.13 1169.44,-43.13"/>
<text text-anchor="middle" x="1190.88" y="-48.38" font-family="Helvetica,sans-Serif" font-size="10.00"> cOre</text>
</g>
<!-- Node6&#45;&gt;Node5 -->
<g id="edge5" class="edge">
<title>Node6&#45;&gt;Node5</title>
<path fill="none" stroke="#63b8ff" d="M966.13,-46.62C974.33,-46.62 982.77,-46.62 991.13,-46.62"/>
<polygon fill="#63b8ff" stroke="#63b8ff" points="966.24,-43.13 956.24,-46.63 966.24,-50.13 966.24,-43.13"/>
</g>
<!-- Node7 -->
<g id="node7" class="node">
<title>Node7</title>
<g id="a_node7"><a xlink:href="classbool.html" target="_top" xlink:title=" ">
<polygon fill="white" stroke="#666666" points="1091.5,-19.25 1057.5,-19.25 1057.5,0 1091.5,0 1091.5,-19.25"/>
<text text-anchor="middle" x="1074.5" y="-5.75" font-family="Helvetica,sans-Serif" font-size="10.00">bool</text>
</a>
</g>
</g>
<!-- Node7&#45;&gt;Node1 -->
<g id="edge7" class="edge">
<title>Node7&#45;&gt;Node1</title>
<path fill="none" stroke="#9a32cd" stroke-dasharray="5,2" d="M1102.69,-13.81C1129.18,-17.96 1170.56,-24.66 1206.25,-31.38 1214.73,-32.97 1223.75,-34.78 1232.44,-36.57"/>
<polygon fill="#9a32cd" stroke="#9a32cd" points="1103.56,-10.4 1093.14,-12.32 1102.48,-17.32 1103.56,-10.4"/>
<text text-anchor="middle" x="1190.88" y="-33.38" font-family="Helvetica,sans-Serif" font-size="10.00"> dEbug</text>
</g>
</g>
</svg>
        <g id="navigator" transform="translate(0 0)" fill="#404254">
                <rect fill="#f2f5e9" fill-opacity="0.5" stroke="#606060" stroke-width=".5" x="0" y="0" width="60" height="60"/>
                <use id="zoomplus" xlink:href="#zoomPlus" x="17" y="9" onmousedown="handleZoom(evt,'in')"/>
                <use id="zoomminus" xlink:href="#zoomMin" x="42" y="9" onmousedown="handleZoom(evt,'out')"/>
                <use id="reset" xlink:href="#resetDef" x="30" y="36" onmousedown="handleReset()"/>
                <g id="arrowUp" xlink:href="#dirArrow" transform="translate(30 24)" onmousedown="handlePan(0,-1)">
                  <use xlink:href="#rim" fill="#404040">
                        <set attributeName="fill" to="#808080" begin="arrowUp.mouseover" end="arrowUp.mouseout"/>
                  </use>
                  <path fill="none" stroke="white" stroke-width="1.5" d="M0,-3.0v7 M-2.5,-0.5L0,-3.0L2.5,-0.5"/>
                </g>
                <g id="arrowRight" xlink:href="#dirArrow" transform="rotate(90) translate(36 -43)" onmousedown="handlePan(1,0)">
                  <use xlink:href="#rim" fill="#404040">
                        <set attributeName="fill" to="#808080" begin="arrowRight.mouseover" end="arrowRight.mouseout"/>
                  </use>
                  <path fill="none" stroke="white" stroke-width="1.5" d="M0,-3.0v7 M-2.5,-0.5L0,-3.0L2.5,-0.5"/>
                </g>
                <g id="arrowDown" xlink:href="#dirArrow" transform="rotate(180) translate(-30 -48)" onmousedown="handlePan(0,1)">
                  <use xlink:href="#rim" fill="#404040">
                        <set attributeName="fill" to="#808080" begin="arrowDown.mouseover" end="arrowDown.mouseout"/>
                  </use>
                  <path fill="none" stroke="white" stroke-width="1.5" d="M0,-3.0v7 M-2.5,-0.5L0,-3.0L2.5,-0.5"/>
                </g>
                <g id="arrowLeft" xlink:href="#dirArrow" transform="rotate(270) translate(-36 17)" onmousedown="handlePan(-1,0)">
                  <use xlink:href="#rim" fill="#404040">
                        <set attributeName="fill" to="#808080" begin="arrowLeft.mouseover" end="arrowLeft.mouseout"/>
                  </use>
                  <path fill="none" stroke="white" stroke-width="1.5" d="M0,-3.0v7 M-2.5,-0.5L0,-3.0L2.5,-0.5"/>
                </g>
        </g>
        <svg viewBox="0 0 15 15" width="100%" height="30px" preserveAspectRatio="xMaxYMin meet">
         <g id="arrow_out" transform="scale(0.3 0.3)">
          <a xlink:href="struct_mo_f_e_m_1_1_vec_manager__coll__graph_org.svg" target="_base">
           <rect id="button" ry="5" rx="5" y="6" x="6" height="38" width="38"
                fill="#f2f5e9" fill-opacity="0.5" stroke="#606060" stroke-width="1.0"/>
           <path id="arrow"
             d="M 11.500037,31.436501 C 11.940474,20.09759 22.043105,11.32322 32.158766,21.979434 L 37.068811,17.246167 C 37.068811,17.246167 37.088388,32 37.088388,32 L 22.160133,31.978069 C 22.160133,31.978069 26.997745,27.140456 26.997745,27.140456 C 18.528582,18.264221 13.291696,25.230495 11.500037,31.436501 z"
             style="fill:#404040;"/>
          </a>
         </g>
        </svg>
</svg>
