<?xml version="1.0" encoding="UTF-8" standalone="no"?>
<!DOCTYPE svg PUBLIC "-//W3C//DTD SVG 1.1//EN"
 "http://www.w3.org/Graphics/SVG/1.1/DTD/svg11.dtd">
<!-- Generated by graphviz version 9.0.0 (20230911.1827)
 -->
<!-- Title: PostProcTemplateVolumeOnRefinedMesh&lt; VOLUME_ELEMENT &gt; Pages: 1 -->
<svg width="277pt" height="397pt"
 viewBox="0.00 0.00 276.75 396.50" xmlns="http://www.w3.org/2000/svg" xmlns:xlink="http://www.w3.org/1999/xlink">
<g id="graph0" class="graph" transform="scale(1 1) rotate(0) translate(4 392.5)">
<title>PostProcTemplateVolumeOnRefinedMesh&lt; VOLUME_ELEMENT &gt;</title>
<!-- Node1 -->
<g id="node1" class="node">
<title>Node1</title>
<g id="a_node1"><a xlink:title=" ">
<polygon fill="#999999" stroke="#666666" points="191.38,-187 5.12,-187 5.12,-156.5 191.38,-156.5 191.38,-187"/>
<text text-anchor="start" x="13.12" y="-173.5" font-family="Helvetica,sans-Serif" font-size="10.00">PostProcTemplateVolumeOn</text>
<text text-anchor="middle" x="98.25" y="-162.25" font-family="Helvetica,sans-Serif" font-size="10.00">RefinedMesh&lt; VOLUME_ELEMENT &gt;</text>
</a>
</g>
</g>
<!-- Node6 -->
<g id="node6" class="node">
<title>Node6</title>
<g id="a_node6"><a xlink:href="struct_post_proc_template_volume_on_refined_mesh.html" target="_top" xlink:title=" ">
<polygon fill="white" stroke="#666666" points="194.38,-98 2.12,-98 2.12,-56.25 194.38,-56.25 194.38,-98"/>
<text text-anchor="start" x="10.12" y="-84.5" font-family="Helvetica,sans-Serif" font-size="10.00">PostProcTemplateVolumeOn</text>
<text text-anchor="start" x="10.12" y="-73.25" font-family="Helvetica,sans-Serif" font-size="10.00">RefinedMesh&lt; MoFEM::VolumeElement</text>
<text text-anchor="middle" x="98.25" y="-62" font-family="Helvetica,sans-Serif" font-size="10.00">ForcesAndSourcesCore &gt;</text>
</a>
</g>
</g>
<!-- Node1&#45;&gt;Node6 -->
<g id="edge5" class="edge">
<title>Node1&#45;&gt;Node6</title>
<path fill="none" stroke="orange" stroke-dasharray="5,2" d="M98.25,-144.9C98.25,-130.18 98.25,-112.01 98.25,-98.34"/>
<polygon fill="orange" stroke="orange" points="94.75,-144.76 98.25,-154.76 101.75,-144.76 94.75,-144.76"/>
<text text-anchor="start" x="98.25" y="-129" font-family="Helvetica,sans-Serif" font-size="10.00"> &lt; MoFEM::VolumeElementForces</text>
<text text-anchor="middle" x="174" y="-117.75" font-family="Helvetica,sans-Serif" font-size="10.00">AndSourcesCore &gt;</text>
</g>
<!-- Node2 -->
<g id="node2" class="node">
<title>Node2</title>
<g id="a_node2"><a xlink:href="struct_post_proc_template_on_refine_mesh.html" target="_top" xlink:title=" ">
<polygon fill="white" stroke="#666666" points="174.5,-254.5 22,-254.5 22,-224 174.5,-224 174.5,-254.5"/>
<text text-anchor="start" x="30" y="-241" font-family="Helvetica,sans-Serif" font-size="10.00">PostProcTemplateOnRefine</text>
<text text-anchor="middle" x="98.25" y="-229.75" font-family="Helvetica,sans-Serif" font-size="10.00">Mesh&lt; VOLUME_ELEMENT &gt;</text>
</a>
</g>
</g>
<!-- Node2&#45;&gt;Node1 -->
<g id="edge1" class="edge">
<title>Node2&#45;&gt;Node1</title>
<path fill="none" stroke="#63b8ff" d="M98.25,-212.34C98.25,-203.8 98.25,-194.62 98.25,-187.25"/>
<polygon fill="#63b8ff" stroke="#63b8ff" points="94.75,-212.2 98.25,-222.2 101.75,-212.2 94.75,-212.2"/>
</g>
<!-- Node3 -->
<g id="node3" class="node">
<title>Node3</title>
<g id="a_node3"><a xlink:title=" ">
<polygon fill="white" stroke="#666666" points="110.5,-326.62 0,-326.62 0,-307.38 110.5,-307.38 110.5,-326.62"/>
<text text-anchor="middle" x="55.25" y="-313.12" font-family="Helvetica,sans-Serif" font-size="10.00">VOLUME_ELEMENT</text>
</a>
</g>
</g>
<!-- Node3&#45;&gt;Node2 -->
<g id="edge2" class="edge">
<title>Node3&#45;&gt;Node2</title>
<path fill="none" stroke="#63b8ff" d="M65.92,-297.21C73.33,-284.15 83.07,-267 89.91,-254.94"/>
<polygon fill="#63b8ff" stroke="#63b8ff" points="62.99,-295.27 61.1,-305.7 69.08,-298.73 62.99,-295.27"/>
</g>
<!-- Node4 -->
<g id="node4" class="node">
<title>Node4</title>
<g id="a_node4"><a xlink:href="struct_post_proc_template_on_refine_mesh.html" target="_top" xlink:title="Generic post&#45;processing class.">
<polygon fill="white" stroke="#666666" points="266,-332.25 128.5,-332.25 128.5,-301.75 266,-301.75 266,-332.25"/>
<text text-anchor="start" x="136.5" y="-318.75" font-family="Helvetica,sans-Serif" font-size="10.00">PostProcTemplateOnRefine</text>
<text text-anchor="middle" x="197.25" y="-307.5" font-family="Helvetica,sans-Serif" font-size="10.00">Mesh&lt; ELEMENT &gt;</text>
</a>
</g>
</g>
<!-- Node4&#45;&gt;Node2 -->
<g id="edge3" class="edge">
<title>Node4&#45;&gt;Node2</title>
<path fill="none" stroke="orange" stroke-dasharray="5,2" d="M169.4,-294.69C152.76,-281.96 132.06,-266.12 117.28,-254.81"/>
<polygon fill="orange" stroke="orange" points="166.89,-297.18 176.96,-300.47 171.14,-291.62 166.89,-297.18"/>
<text text-anchor="middle" x="211" y="-274.25" font-family="Helvetica,sans-Serif" font-size="10.00"> &lt; VOLUME_ELEMENT &gt;</text>
</g>
<!-- Node5 -->
<g id="node5" class="node">
<title>Node5</title>
<g id="a_node5"><a xlink:href="class_e_l_e_m_e_n_t.html" target="_top" xlink:title=" ">
<polygon fill="white" stroke="#666666" points="228.88,-388.5 165.62,-388.5 165.62,-369.25 228.88,-369.25 228.88,-388.5"/>
<text text-anchor="middle" x="197.25" y="-375" font-family="Helvetica,sans-Serif" font-size="10.00">ELEMENT</text>
</a>
</g>
</g>
<!-- Node5&#45;&gt;Node4 -->
<g id="edge4" class="edge">
<title>Node5&#45;&gt;Node4</title>
<path fill="none" stroke="#63b8ff" d="M197.25,-357.44C197.25,-349.18 197.25,-339.84 197.25,-332.32"/>
<polygon fill="#63b8ff" stroke="#63b8ff" points="193.75,-357.27 197.25,-367.27 200.75,-357.27 193.75,-357.27"/>
</g>
<!-- Node7 -->
<g id="node7" class="node">
<title>Node7</title>
<g id="a_node7"><a xlink:href="struct_post_proc_volume_on_refined_mesh.html" target="_top" xlink:title="Post processing.">
<polygon fill="white" stroke="#666666" points="178.25,-19.25 18.25,-19.25 18.25,0 178.25,0 178.25,-19.25"/>
<text text-anchor="middle" x="98.25" y="-5.75" font-family="Helvetica,sans-Serif" font-size="10.00">PostProcVolumeOnRefinedMesh</text>
</a>
</g>
</g>
<!-- Node6&#45;&gt;Node7 -->
<g id="edge6" class="edge">
<title>Node6&#45;&gt;Node7</title>
<path fill="none" stroke="#63b8ff" d="M98.25,-44.43C98.25,-35.27 98.25,-26 98.25,-19.49"/>
<polygon fill="#63b8ff" stroke="#63b8ff" points="94.75,-44.25 98.25,-54.25 101.75,-44.25 94.75,-44.25"/>
</g>
</g>
</svg>
