<?xml version="1.0" encoding="UTF-8" standalone="no"?>
<!DOCTYPE svg PUBLIC "-//W3C//DTD SVG 1.1//EN"
 "http://www.w3.org/Graphics/SVG/1.1/DTD/svg11.dtd">
<!-- Generated by graphviz version 2.43.0 (0)
 -->
<!-- Title: FractureMechanics::GriffithForceElement::OpRhs Pages: 1 -->
<svg width="833pt" height="329pt"
 viewBox="0.00 0.00 833.00 329.00" xmlns="http://www.w3.org/2000/svg" xmlns:xlink="http://www.w3.org/1999/xlink">
<g id="graph0" class="graph" transform="scale(1 1) rotate(0) translate(4 325)">
<title>FractureMechanics::GriffithForceElement::OpRhs</title>
<polygon fill="white" stroke="transparent" points="-4,4 -4,-325 829,-325 829,4 -4,4"/>
<!-- Node1 -->
<g id="node1" class="node">
<title>Node1</title>
<g id="a_node1"><a xlink:title=" ">
<polygon fill="#bfbfbf" stroke="black" points="708,-172.5 708,-213.5 825,-213.5 825,-172.5 708,-172.5"/>
<text text-anchor="start" x="716" y="-201.5" font-family="Helvetica,sans-Serif" font-size="10.00">FractureMechanics::</text>
<text text-anchor="start" x="716" y="-190.5" font-family="Helvetica,sans-Serif" font-size="10.00">GriffithForceElement</text>
<text text-anchor="middle" x="766.5" y="-179.5" font-family="Helvetica,sans-Serif" font-size="10.00">::OpRhs</text>
</a>
</g>
</g>
<!-- Node2 -->
<g id="node2" class="node">
<title>Node2</title>
<g id="a_node2"><a xlink:title=" ">
<polygon fill="white" stroke="#bfbfbf" points="560,-208.5 560,-227.5 665,-227.5 665,-208.5 560,-208.5"/>
<text text-anchor="middle" x="612.5" y="-215.5" font-family="Helvetica,sans-Serif" font-size="10.00">UserDataOperator</text>
</a>
</g>
</g>
<!-- Node2&#45;&gt;Node1 -->
<g id="edge1" class="edge">
<title>Node2&#45;&gt;Node1</title>
<path fill="none" stroke="midnightblue" d="M675.5,-207.8C686.19,-206.04 697.28,-204.22 707.85,-202.48"/>
<polygon fill="midnightblue" stroke="midnightblue" points="674.68,-204.39 665.38,-209.47 675.82,-211.3 674.68,-204.39"/>
</g>
<!-- Node3 -->
<g id="node3" class="node">
<title>Node3</title>
<g id="a_node3"><a xlink:href="structFractureMechanics_1_1GriffithForceElement_1_1AuxOp.html" target="_top" xlink:title=" ">
<polygon fill="white" stroke="black" points="554,-148.5 554,-189.5 671,-189.5 671,-148.5 554,-148.5"/>
<text text-anchor="start" x="562" y="-177.5" font-family="Helvetica,sans-Serif" font-size="10.00">FractureMechanics::</text>
<text text-anchor="start" x="562" y="-166.5" font-family="Helvetica,sans-Serif" font-size="10.00">GriffithForceElement</text>
<text text-anchor="middle" x="612.5" y="-155.5" font-family="Helvetica,sans-Serif" font-size="10.00">::AuxOp</text>
</a>
</g>
</g>
<!-- Node3&#45;&gt;Node1 -->
<g id="edge2" class="edge">
<title>Node3&#45;&gt;Node1</title>
<path fill="none" stroke="midnightblue" d="M681.29,-179.7C690.12,-181.1 699.11,-182.52 707.76,-183.88"/>
<polygon fill="midnightblue" stroke="midnightblue" points="681.82,-176.24 671.4,-178.14 680.73,-183.16 681.82,-176.24"/>
</g>
<!-- Node4 -->
<g id="node4" class="node">
<title>Node4</title>
<g id="a_node4"><a xlink:title=" ">
<polygon fill="white" stroke="#bfbfbf" points="297.5,-295.5 297.5,-314.5 385.5,-314.5 385.5,-295.5 297.5,-295.5"/>
<text text-anchor="middle" x="341.5" y="-302.5" font-family="Helvetica,sans-Serif" font-size="10.00">VectorDouble3</text>
</a>
</g>
</g>
<!-- Node4&#45;&gt;Node3 -->
<g id="edge3" class="edge">
<title>Node4&#45;&gt;Node3</title>
<path fill="none" stroke="#9a32cd" stroke-dasharray="5,2" d="M395.72,-310.63C438.95,-312.12 498.68,-306.69 536,-272 560.47,-249.25 533.36,-225.28 554,-199 556.71,-195.55 559.93,-192.45 563.44,-189.68"/>
<polygon fill="#9a32cd" stroke="#9a32cd" points="395.81,-307.13 385.66,-310.15 395.48,-314.12 395.81,-307.13"/>
<text text-anchor="middle" x="477" y="-313" font-family="Helvetica,sans-Serif" font-size="10.00"> lambdaAtNodes</text>
</g>
<!-- Node5 -->
<g id="node5" class="node">
<title>Node5</title>
<g id="a_node5"><a xlink:href="structFractureMechanics_1_1GriffithForceElement_1_1BlockData.html" target="_top" xlink:title=" ">
<polygon fill="white" stroke="black" points="283,-235.5 283,-276.5 400,-276.5 400,-235.5 283,-235.5"/>
<text text-anchor="start" x="291" y="-264.5" font-family="Helvetica,sans-Serif" font-size="10.00">FractureMechanics::</text>
<text text-anchor="start" x="291" y="-253.5" font-family="Helvetica,sans-Serif" font-size="10.00">GriffithForceElement</text>
<text text-anchor="middle" x="341.5" y="-242.5" font-family="Helvetica,sans-Serif" font-size="10.00">::BlockData</text>
</a>
</g>
</g>
<!-- Node5&#45;&gt;Node3 -->
<g id="edge4" class="edge">
<title>Node5&#45;&gt;Node3</title>
<path fill="none" stroke="#9a32cd" stroke-dasharray="5,2" d="M410.47,-257.96C449.83,-256.11 498.79,-248.43 536,-225 547.89,-217.51 543.46,-208.3 554,-199 557.88,-195.57 562.23,-192.41 566.74,-189.52"/>
<polygon fill="#9a32cd" stroke="#9a32cd" points="410.29,-254.47 400.42,-258.32 410.54,-261.46 410.29,-254.47"/>
<text text-anchor="middle" x="477" y="-260" font-family="Helvetica,sans-Serif" font-size="10.00"> blockData</text>
</g>
<!-- Node6 -->
<g id="node6" class="node">
<title>Node6</title>
<g id="a_node6"><a xlink:href="classdouble.html" target="_top" xlink:title=" ">
<polygon fill="white" stroke="black" points="30.5,-265.5 30.5,-284.5 80.5,-284.5 80.5,-265.5 30.5,-265.5"/>
<text text-anchor="middle" x="55.5" y="-272.5" font-family="Helvetica,sans-Serif" font-size="10.00">double</text>
</a>
</g>
</g>
<!-- Node6&#45;&gt;Node5 -->
<g id="edge5" class="edge">
<title>Node6&#45;&gt;Node5</title>
<path fill="none" stroke="#9a32cd" stroke-dasharray="5,2" d="M90.83,-272.7C138.48,-269.52 225.33,-263.7 282.98,-259.85"/>
<polygon fill="#9a32cd" stroke="#9a32cd" points="90.46,-269.22 80.71,-273.38 90.93,-276.2 90.46,-269.22"/>
<text text-anchor="middle" x="197" y="-294" font-family="Helvetica,sans-Serif" font-size="10.00"> E</text>
<text text-anchor="middle" x="197" y="-283" font-family="Helvetica,sans-Serif" font-size="10.00">r</text>
<text text-anchor="middle" x="197" y="-272" font-family="Helvetica,sans-Serif" font-size="10.00">gc</text>
</g>
<!-- Node7 -->
<g id="node7" class="node">
<title>Node7</title>
<g id="a_node7"><a xlink:href="classRange.html" target="_top" xlink:title=" ">
<polygon fill="white" stroke="black" points="32,-227.5 32,-246.5 79,-246.5 79,-227.5 32,-227.5"/>
<text text-anchor="middle" x="55.5" y="-234.5" font-family="Helvetica,sans-Serif" font-size="10.00">Range</text>
</a>
</g>
</g>
<!-- Node7&#45;&gt;Node5 -->
<g id="edge6" class="edge">
<title>Node7&#45;&gt;Node5</title>
<path fill="none" stroke="#9a32cd" stroke-dasharray="5,2" d="M89.31,-237.52C130.43,-238.38 203.04,-240.57 265,-246 270.8,-246.51 276.83,-247.14 282.85,-247.83"/>
<polygon fill="#9a32cd" stroke="#9a32cd" points="89.13,-234.01 79.07,-237.32 89,-241.01 89.13,-234.01"/>
<text text-anchor="middle" x="197" y="-249" font-family="Helvetica,sans-Serif" font-size="10.00"> frontNodes</text>
</g>
<!-- Node8 -->
<g id="node8" class="node">
<title>Node8</title>
<g id="a_node8"><a xlink:title=" ">
<polygon fill="white" stroke="#bfbfbf" points="308.5,-197.5 308.5,-216.5 374.5,-216.5 374.5,-197.5 308.5,-197.5"/>
<text text-anchor="middle" x="341.5" y="-204.5" font-family="Helvetica,sans-Serif" font-size="10.00">VectorInt3</text>
</a>
</g>
</g>
<!-- Node8&#45;&gt;Node3 -->
<g id="edge7" class="edge">
<title>Node8&#45;&gt;Node3</title>
<path fill="none" stroke="#9a32cd" stroke-dasharray="5,2" d="M384.8,-202.93C424.09,-198.92 484.16,-192.22 536,-184 541.81,-183.08 547.85,-182.03 553.87,-180.93"/>
<polygon fill="#9a32cd" stroke="#9a32cd" points="384.39,-199.45 374.79,-203.94 385.09,-206.42 384.39,-199.45"/>
<text text-anchor="middle" x="477" y="-213" font-family="Helvetica,sans-Serif" font-size="10.00"> rowLambdaIndices</text>
<text text-anchor="middle" x="477" y="-202" font-family="Helvetica,sans-Serif" font-size="10.00">rowLambdaIndicesLocal</text>
</g>
<!-- Node9 -->
<g id="node9" class="node">
<title>Node9</title>
<g id="a_node9"><a xlink:title=" ">
<polygon fill="white" stroke="#bfbfbf" points="327,-159.5 327,-178.5 356,-178.5 356,-159.5 327,-159.5"/>
<text text-anchor="middle" x="341.5" y="-166.5" font-family="Helvetica,sans-Serif" font-size="10.00">int</text>
</a>
</g>
</g>
<!-- Node9&#45;&gt;Node3 -->
<g id="edge8" class="edge">
<title>Node9&#45;&gt;Node3</title>
<path fill="none" stroke="#9a32cd" stroke-dasharray="5,2" d="M366.24,-169C407.96,-169 495.52,-169 553.92,-169"/>
<polygon fill="#9a32cd" stroke="#9a32cd" points="366.21,-165.5 356.21,-169 366.21,-172.5 366.21,-165.5"/>
<text text-anchor="middle" x="477" y="-172" font-family="Helvetica,sans-Serif" font-size="10.00"> tAg</text>
</g>
<!-- Node10 -->
<g id="node10" class="node">
<title>Node10</title>
<g id="a_node10"><a xlink:title=" ">
<polygon fill="white" stroke="#bfbfbf" points="14.5,-102.5 14.5,-121.5 96.5,-121.5 96.5,-102.5 14.5,-102.5"/>
<text text-anchor="middle" x="55.5" y="-109.5" font-family="Helvetica,sans-Serif" font-size="10.00">VectorDouble</text>
</a>
</g>
</g>
<!-- Node10&#45;&gt;Node3 -->
<g id="edge9" class="edge">
<title>Node10&#45;&gt;Node3</title>
<path fill="none" stroke="#9a32cd" stroke-dasharray="5,2" d="M106.78,-114.96C173.78,-119.14 296.01,-127.55 400,-139 452.16,-144.74 511.28,-153.3 553.72,-159.81"/>
<polygon fill="#9a32cd" stroke="#9a32cd" points="106.7,-111.45 96.51,-114.33 106.27,-118.44 106.7,-111.45"/>
<text text-anchor="middle" x="341.5" y="-142" font-family="Helvetica,sans-Serif" font-size="10.00"> activeVariables</text>
</g>
<!-- Node12 -->
<g id="node12" class="node">
<title>Node12</title>
<g id="a_node12"><a xlink:href="structFractureMechanics_1_1GriffithForceElement_1_1CommonData.html" target="_top" xlink:title=" ">
<polygon fill="white" stroke="black" points="283,-52.5 283,-93.5 400,-93.5 400,-52.5 283,-52.5"/>
<text text-anchor="start" x="291" y="-81.5" font-family="Helvetica,sans-Serif" font-size="10.00">FractureMechanics::</text>
<text text-anchor="start" x="291" y="-70.5" font-family="Helvetica,sans-Serif" font-size="10.00">GriffithForceElement</text>
<text text-anchor="middle" x="341.5" y="-59.5" font-family="Helvetica,sans-Serif" font-size="10.00">::CommonData</text>
</a>
</g>
</g>
<!-- Node10&#45;&gt;Node12 -->
<g id="edge13" class="edge">
<title>Node10&#45;&gt;Node12</title>
<path fill="none" stroke="#9a32cd" stroke-dasharray="5,2" d="M100.49,-100C109.85,-97.75 119.71,-95.61 129,-94 180.63,-85.08 240.06,-79.59 282.75,-76.47"/>
<polygon fill="#9a32cd" stroke="#9a32cd" points="99.44,-96.65 90.58,-102.46 101.13,-103.45 99.44,-96.65"/>
<text text-anchor="middle" x="197" y="-108" font-family="Helvetica,sans-Serif" font-size="10.00"> griffithForce</text>
<text text-anchor="middle" x="197" y="-97" font-family="Helvetica,sans-Serif" font-size="10.00">densityRho</text>
</g>
<!-- Node11 -->
<g id="node11" class="node">
<title>Node11</title>
<g id="a_node11"><a xlink:title=" ">
<polygon fill="white" stroke="#bfbfbf" points="300,-14.5 300,-33.5 383,-33.5 383,-14.5 300,-14.5"/>
<text text-anchor="middle" x="341.5" y="-21.5" font-family="Helvetica,sans-Serif" font-size="10.00">vector&lt; int &gt;</text>
</a>
</g>
</g>
<!-- Node11&#45;&gt;Node3 -->
<g id="edge10" class="edge">
<title>Node11&#45;&gt;Node3</title>
<path fill="none" stroke="#9a32cd" stroke-dasharray="5,2" d="M393.46,-19.55C434.99,-18.43 493.5,-22.79 536,-50 572.27,-73.22 594.35,-120.76 604.61,-148.2"/>
<polygon fill="#9a32cd" stroke="#9a32cd" points="393.15,-16.06 383.29,-19.95 393.42,-23.06 393.15,-16.06"/>
<text text-anchor="middle" x="477" y="-64" font-family="Helvetica,sans-Serif" font-size="10.00"> rowIndices</text>
<text text-anchor="middle" x="477" y="-53" font-family="Helvetica,sans-Serif" font-size="10.00">rowIndicesLocal</text>
</g>
<!-- Node12&#45;&gt;Node3 -->
<g id="edge11" class="edge">
<title>Node12&#45;&gt;Node3</title>
<path fill="none" stroke="#9a32cd" stroke-dasharray="5,2" d="M410.36,-75.34C448.72,-78.8 496.71,-86.81 536,-105 558.14,-115.25 578.95,-133.82 593.09,-148.33"/>
<polygon fill="#9a32cd" stroke="#9a32cd" points="410.58,-71.84 400.32,-74.52 410.01,-78.82 410.58,-71.84"/>
<text text-anchor="middle" x="477" y="-108" font-family="Helvetica,sans-Serif" font-size="10.00"> commonData</text>
</g>
<!-- Node13 -->
<g id="node13" class="node">
<title>Node13</title>
<g id="a_node13"><a xlink:title=" ">
<polygon fill="white" stroke="#bfbfbf" points="14,-38.5 14,-57.5 97,-57.5 97,-38.5 14,-38.5"/>
<text text-anchor="middle" x="55.5" y="-45.5" font-family="Helvetica,sans-Serif" font-size="10.00">MatrixDouble</text>
</a>
</g>
</g>
<!-- Node13&#45;&gt;Node12 -->
<g id="edge12" class="edge">
<title>Node13&#45;&gt;Node12</title>
<path fill="none" stroke="#9a32cd" stroke-dasharray="5,2" d="M107.23,-43.99C149.67,-41.65 211.65,-40.59 265,-49 270.84,-49.92 276.85,-51.21 282.81,-52.72"/>
<polygon fill="#9a32cd" stroke="#9a32cd" points="106.93,-40.5 97.15,-44.59 107.34,-47.49 106.93,-40.5"/>
<text text-anchor="middle" x="197" y="-63" font-family="Helvetica,sans-Serif" font-size="10.00"> tangentGriffithForce</text>
<text text-anchor="middle" x="197" y="-52" font-family="Helvetica,sans-Serif" font-size="10.00">diffRho</text>
</g>
<!-- Node14 -->
<g id="node14" class="node">
<title>Node14</title>
<g id="a_node14"><a xlink:title=" ">
<polygon fill="white" stroke="#bfbfbf" points="0,-0.5 0,-19.5 111,-19.5 111,-0.5 0,-0.5"/>
<text text-anchor="middle" x="55.5" y="-7.5" font-family="Helvetica,sans-Serif" font-size="10.00">vector&lt; double * &gt;</text>
</a>
</g>
</g>
<!-- Node14&#45;&gt;Node12 -->
<g id="edge14" class="edge">
<title>Node14&#45;&gt;Node12</title>
<path fill="none" stroke="#9a32cd" stroke-dasharray="5,2" d="M121.24,-4.9C163.74,-4.01 219.65,-7.61 265,-27 274.84,-31.21 274.19,-36.92 283,-43 287.73,-46.26 292.85,-49.41 298.03,-52.37"/>
<polygon fill="#9a32cd" stroke="#9a32cd" points="120.9,-1.41 111.01,-5.21 121.11,-8.41 120.9,-1.41"/>
<text text-anchor="middle" x="197" y="-30" font-family="Helvetica,sans-Serif" font-size="10.00"> tangentGriffithForceRowPtr</text>
</g>
</g>
</svg>
