<?xml version="1.0" encoding="UTF-8" standalone="no"?>
<!DOCTYPE svg PUBLIC "-//W3C//DTD SVG 1.1//EN"
 "http://www.w3.org/Graphics/SVG/1.1/DTD/svg11.dtd">
<!-- Generated by graphviz version 9.0.0 (20230911.1827)
 -->
<!-- Title: PoissonExample::OpBaseRhs&lt; OPBASE &gt; Pages: 1 -->
<svg width="967pt" height="161pt"
 viewBox="0.00 0.00 967.00 161.25" xmlns="http://www.w3.org/2000/svg" xmlns:xlink="http://www.w3.org/1999/xlink">
<g id="graph0" class="graph" transform="scale(1 1) rotate(0) translate(4 157.25)">
<title>PoissonExample::OpBaseRhs&lt; OPBASE &gt;</title>
<!-- Node1 -->
<g id="node1" class="node">
<title>Node1</title>
<g id="a_node1"><a xlink:title="template class for integration oh the right hand side">
<polygon fill="#999999" stroke="#666666" points="243,-94.88 94.25,-94.88 94.25,-64.38 243,-64.38 243,-94.88"/>
<text text-anchor="start" x="102.25" y="-81.38" font-family="Helvetica,sans-Serif" font-size="10.00">PoissonExample::OpBaseRhs</text>
<text text-anchor="middle" x="168.62" y="-70.12" font-family="Helvetica,sans-Serif" font-size="10.00">&lt; OPBASE &gt;</text>
</a>
</g>
</g>
<!-- Node3 -->
<g id="node3" class="node">
<title>Node3</title>
<g id="a_node3"><a xlink:href="struct_poisson_example_1_1_op_base_rhs.html" target="_top" xlink:title=" ">
<polygon fill="white" stroke="#666666" points="614.12,-130.5 436.88,-130.5 436.88,-88.75 614.12,-88.75 614.12,-130.5"/>
<text text-anchor="start" x="444.88" y="-117" font-family="Helvetica,sans-Serif" font-size="10.00">PoissonExample::OpBaseRhs</text>
<text text-anchor="start" x="444.88" y="-105.75" font-family="Helvetica,sans-Serif" font-size="10.00">&lt; VolumeElementForcesAndSources</text>
<text text-anchor="middle" x="525.5" y="-94.5" font-family="Helvetica,sans-Serif" font-size="10.00">Core::UserDataOperator &gt;</text>
</a>
</g>
</g>
<!-- Node1&#45;&gt;Node3 -->
<g id="edge2" class="edge">
<title>Node1&#45;&gt;Node3</title>
<path fill="none" stroke="orange" stroke-dasharray="5,2" d="M254.29,-86.78C309.34,-91.44 380.96,-97.49 436.64,-102.2"/>
<polygon fill="orange" stroke="orange" points="254.92,-83.32 244.66,-85.97 254.33,-90.3 254.92,-83.32"/>
<text text-anchor="start" x="261.75" y="-113.62" font-family="Helvetica,sans-Serif" font-size="10.00"> &lt; VolumeElementForcesAnd</text>
<text text-anchor="middle" x="337.5" y="-102.38" font-family="Helvetica,sans-Serif" font-size="10.00">SourcesCore::UserDataOperator &gt;</text>
</g>
<!-- Node7 -->
<g id="node7" class="node">
<title>Node7</title>
<g id="a_node7"><a xlink:href="struct_poisson_example_1_1_op_base_rhs.html" target="_top" xlink:title=" ">
<polygon fill="white" stroke="#666666" points="619,-70.5 432,-70.5 432,-28.75 619,-28.75 619,-70.5"/>
<text text-anchor="start" x="440" y="-57" font-family="Helvetica,sans-Serif" font-size="10.00">PoissonExample::OpBaseRhs</text>
<text text-anchor="start" x="440" y="-45.75" font-family="Helvetica,sans-Serif" font-size="10.00">&lt; FaceElementForcesAndSourcesCore</text>
<text text-anchor="middle" x="525.5" y="-34.5" font-family="Helvetica,sans-Serif" font-size="10.00">::UserDataOperator &gt;</text>
</a>
</g>
</g>
<!-- Node1&#45;&gt;Node7 -->
<g id="edge6" class="edge">
<title>Node1&#45;&gt;Node7</title>
<path fill="none" stroke="orange" stroke-dasharray="5,2" d="M254.44,-62.96C256.64,-62.66 258.83,-62.38 261,-62.12 317.39,-55.42 380.98,-52.28 431.56,-50.82"/>
<polygon fill="orange" stroke="orange" points="254.18,-59.46 244.79,-64.37 255.19,-66.39 254.18,-59.46"/>
<text text-anchor="start" x="261" y="-75.62" font-family="Helvetica,sans-Serif" font-size="10.00"> &lt; FaceElementForcesAndSources</text>
<text text-anchor="middle" x="337.5" y="-64.38" font-family="Helvetica,sans-Serif" font-size="10.00">Core::UserDataOperator &gt;</text>
</g>
<!-- Node2 -->
<g id="node2" class="node">
<title>Node2</title>
<g id="a_node2"><a xlink:href="class_o_p_b_a_s_e.html" target="_top" xlink:title=" ">
<polygon fill="white" stroke="#666666" points="57.25,-89.25 0,-89.25 0,-70 57.25,-70 57.25,-89.25"/>
<text text-anchor="middle" x="28.62" y="-75.75" font-family="Helvetica,sans-Serif" font-size="10.00">OPBASE</text>
</a>
</g>
</g>
<!-- Node2&#45;&gt;Node1 -->
<g id="edge1" class="edge">
<title>Node2&#45;&gt;Node1</title>
<path fill="none" stroke="#63b8ff" d="M68.89,-79.62C76.73,-79.62 85.2,-79.62 93.77,-79.62"/>
<polygon fill="#63b8ff" stroke="#63b8ff" points="69.06,-76.13 59.06,-79.63 69.06,-83.13 69.06,-76.13"/>
</g>
<!-- Node4 -->
<g id="node4" class="node">
<title>Node4</title>
<g id="a_node4"><a xlink:href="struct_poisson_example_1_1_op_error.html" target="_top" xlink:title="Evaluate error.">
<polygon fill="white" stroke="#666666" points="785.25,-153.25 656,-153.25 656,-134 785.25,-134 785.25,-153.25"/>
<text text-anchor="middle" x="720.62" y="-139.75" font-family="Helvetica,sans-Serif" font-size="10.00">PoissonExample::OpError</text>
</a>
</g>
</g>
<!-- Node3&#45;&gt;Node4 -->
<g id="edge3" class="edge">
<title>Node3&#45;&gt;Node4</title>
<path fill="none" stroke="#63b8ff" d="M625.63,-127.08C638.22,-129.29 650.74,-131.5 662.35,-133.54"/>
<polygon fill="#63b8ff" stroke="#63b8ff" points="626.53,-123.68 616.08,-125.4 625.32,-130.58 626.53,-123.68"/>
</g>
<!-- Node5 -->
<g id="node5" class="node">
<title>Node5</title>
<g id="a_node5"><a xlink:href="struct_poisson_example_1_1_op_f.html" target="_top" xlink:title="Operator calculate source term,.">
<polygon fill="white" stroke="#666666" points="777.75,-116.25 663.5,-116.25 663.5,-97 777.75,-97 777.75,-116.25"/>
<text text-anchor="middle" x="720.62" y="-102.75" font-family="Helvetica,sans-Serif" font-size="10.00">PoissonExample::OpF</text>
</a>
</g>
</g>
<!-- Node3&#45;&gt;Node5 -->
<g id="edge4" class="edge">
<title>Node3&#45;&gt;Node5</title>
<path fill="none" stroke="#63b8ff" d="M625.84,-108.08C638.65,-107.88 651.4,-107.68 663.18,-107.5"/>
<polygon fill="#63b8ff" stroke="#63b8ff" points="626.04,-104.58 616.1,-108.23 626.15,-111.58 626.04,-104.58"/>
</g>
<!-- Node6 -->
<g id="node6" class="node">
<title>Node6</title>
<g id="a_node6"><a xlink:href="struct_poisson_example_1_1_op_res_f___domain.html" target="_top" xlink:title=" ">
<polygon fill="white" stroke="#666666" points="956.75,-121.88 824.5,-121.88 824.5,-91.38 956.75,-91.38 956.75,-121.88"/>
<text text-anchor="start" x="832.5" y="-108.38" font-family="Helvetica,sans-Serif" font-size="10.00">PoissonExample::OpResF</text>
<text text-anchor="middle" x="890.62" y="-97.12" font-family="Helvetica,sans-Serif" font-size="10.00">_Domain</text>
</a>
</g>
</g>
<!-- Node5&#45;&gt;Node6 -->
<g id="edge5" class="edge">
<title>Node5&#45;&gt;Node6</title>
<path fill="none" stroke="#63b8ff" d="M789.32,-106.62C800.78,-106.62 812.67,-106.62 824.07,-106.62"/>
<polygon fill="#63b8ff" stroke="#63b8ff" points="789.55,-103.13 779.55,-106.63 789.55,-110.13 789.55,-103.13"/>
</g>
<!-- Node8 -->
<g id="node8" class="node">
<title>Node8</title>
<g id="a_node8"><a xlink:href="struct_poisson_example_1_1_op__g.html" target="_top" xlink:title="Assemble constrains vector.">
<polygon fill="white" stroke="#666666" points="780,-59.25 661.25,-59.25 661.25,-40 780,-40 780,-59.25"/>
<text text-anchor="middle" x="720.62" y="-45.75" font-family="Helvetica,sans-Serif" font-size="10.00">PoissonExample::Op_g</text>
</a>
</g>
</g>
<!-- Node7&#45;&gt;Node8 -->
<g id="edge7" class="edge">
<title>Node7&#45;&gt;Node8</title>
<path fill="none" stroke="#63b8ff" d="M630.63,-49.62C640.97,-49.62 651.19,-49.62 660.82,-49.62"/>
<polygon fill="#63b8ff" stroke="#63b8ff" points="630.9,-46.13 620.9,-49.63 630.9,-53.13 630.9,-46.13"/>
</g>
<!-- Node9 -->
<g id="node9" class="node">
<title>Node9</title>
<g id="a_node9"><a xlink:href="struct_poisson_example_1_1_op_res_f___boundary.html" target="_top" xlink:title=" ">
<polygon fill="white" stroke="#666666" points="956.75,-67.88 824.5,-67.88 824.5,-37.38 956.75,-37.38 956.75,-67.88"/>
<text text-anchor="start" x="832.5" y="-54.38" font-family="Helvetica,sans-Serif" font-size="10.00">PoissonExample::OpResF</text>
<text text-anchor="middle" x="890.62" y="-43.12" font-family="Helvetica,sans-Serif" font-size="10.00">_Boundary</text>
</a>
</g>
</g>
<!-- Node8&#45;&gt;Node9 -->
<g id="edge8" class="edge">
<title>Node8&#45;&gt;Node9</title>
<path fill="none" stroke="#63b8ff" d="M791.81,-50.88C802.47,-51.07 813.45,-51.26 824.01,-51.45"/>
<polygon fill="#63b8ff" stroke="#63b8ff" points="791.96,-47.38 781.9,-50.7 791.83,-54.38 791.96,-47.38"/>
</g>
<!-- Node10 -->
<g id="node10" class="node">
<title>Node10</title>
<g id="a_node10"><a xlink:href="struct_poisson_example_1_1_op_res__g.html" target="_top" xlink:title=" ">
<polygon fill="white" stroke="#666666" points="959,-19.25 822.25,-19.25 822.25,0 959,0 959,-19.25"/>
<text text-anchor="middle" x="890.62" y="-5.75" font-family="Helvetica,sans-Serif" font-size="10.00">PoissonExample::OpRes_g</text>
</a>
</g>
</g>
<!-- Node8&#45;&gt;Node10 -->
<g id="edge9" class="edge">
<title>Node8&#45;&gt;Node10</title>
<path fill="none" stroke="#63b8ff" d="M775.13,-36.89C798.43,-31.34 825.36,-24.93 847.25,-19.72"/>
<polygon fill="#63b8ff" stroke="#63b8ff" points="774.41,-33.46 765.49,-39.18 776.03,-40.27 774.41,-33.46"/>
</g>
</g>
</svg>
