<?xml version="1.0" encoding="UTF-8" standalone="no"?>
<!DOCTYPE svg PUBLIC "-//W3C//DTD SVG 1.1//EN"
 "http://www.w3.org/Graphics/SVG/1.1/DTD/svg11.dtd">
<!-- Generated by graphviz version 2.43.0 (0)
 -->
<!-- Title: BcEntMethodSpatial Pages: 1 -->
<svg width="383pt" height="308pt"
 viewBox="0.00 0.00 383.00 308.00" xmlns="http://www.w3.org/2000/svg" xmlns:xlink="http://www.w3.org/1999/xlink">
<g id="graph0" class="graph" transform="scale(1 1) rotate(0) translate(4 304)">
<title>BcEntMethodSpatial</title>
<polygon fill="white" stroke="transparent" points="-4,4 -4,-304 379,-304 379,4 -4,4"/>
<!-- Node1 -->
<g id="node1" class="node">
<title>Node1</title>
<g id="a_node1"><a xlink:title=" ">
<polygon fill="#bfbfbf" stroke="black" points="133,-0.5 133,-19.5 248,-19.5 248,-0.5 133,-0.5"/>
<text text-anchor="middle" x="190.5" y="-7.5" font-family="Helvetica,sans-Serif" font-size="10.00">BcEntMethodSpatial</text>
</a>
</g>
</g>
<!-- Node2 -->
<g id="node2" class="node">
<title>Node2</title>
<g id="a_node2"><a xlink:href="structMoFEM_1_1EntityMethod.html" target="_top" xlink:title="Data structure to exchange data between mofem and User Loop Methods on entities.">
<polygon fill="white" stroke="black" points="128.5,-56.5 128.5,-75.5 252.5,-75.5 252.5,-56.5 128.5,-56.5"/>
<text text-anchor="middle" x="190.5" y="-63.5" font-family="Helvetica,sans-Serif" font-size="10.00">MoFEM::EntityMethod</text>
</a>
</g>
</g>
<!-- Node2&#45;&gt;Node1 -->
<g id="edge1" class="edge">
<title>Node2&#45;&gt;Node1</title>
<path fill="none" stroke="midnightblue" d="M190.5,-45.8C190.5,-36.91 190.5,-26.78 190.5,-19.75"/>
<polygon fill="midnightblue" stroke="midnightblue" points="187,-46.08 190.5,-56.08 194,-46.08 187,-46.08"/>
</g>
<!-- Node3 -->
<g id="node3" class="node">
<title>Node3</title>
<g id="a_node3"><a xlink:href="structMoFEM_1_1BasicMethod.html" target="_top" xlink:title="Data structure to exchange data between mofem and User Loop Methods.">
<polygon fill="white" stroke="black" points="129.5,-112.5 129.5,-131.5 251.5,-131.5 251.5,-112.5 129.5,-112.5"/>
<text text-anchor="middle" x="190.5" y="-119.5" font-family="Helvetica,sans-Serif" font-size="10.00">MoFEM::BasicMethod</text>
</a>
</g>
</g>
<!-- Node3&#45;&gt;Node2 -->
<g id="edge2" class="edge">
<title>Node3&#45;&gt;Node2</title>
<path fill="none" stroke="midnightblue" d="M190.5,-101.8C190.5,-92.91 190.5,-82.78 190.5,-75.75"/>
<polygon fill="midnightblue" stroke="midnightblue" points="187,-102.08 190.5,-112.08 194,-102.08 187,-102.08"/>
</g>
<!-- Node4 -->
<g id="node4" class="node">
<title>Node4</title>
<g id="a_node4"><a xlink:href="structMoFEM_1_1KspMethod.html" target="_top" xlink:title="data structure for ksp (linear solver) context">
<polygon fill="white" stroke="black" points="0,-168.5 0,-187.5 113,-187.5 113,-168.5 0,-168.5"/>
<text text-anchor="middle" x="56.5" y="-175.5" font-family="Helvetica,sans-Serif" font-size="10.00">MoFEM::KspMethod</text>
</a>
</g>
</g>
<!-- Node4&#45;&gt;Node3 -->
<g id="edge3" class="edge">
<title>Node4&#45;&gt;Node3</title>
<path fill="none" stroke="midnightblue" d="M87.18,-164.64C112.32,-154.5 147.25,-140.43 169.37,-131.52"/>
<polygon fill="midnightblue" stroke="midnightblue" points="85.7,-161.46 77.73,-168.44 88.32,-167.95 85.7,-161.46"/>
</g>
<!-- Node5 -->
<g id="node5" class="node">
<title>Node5</title>
<g id="a_node5"><a xlink:href="structMoFEM_1_1PetscData.html" target="_top" xlink:title=" ">
<polygon fill="white" stroke="black" points="136.5,-224.5 136.5,-243.5 244.5,-243.5 244.5,-224.5 136.5,-224.5"/>
<text text-anchor="middle" x="190.5" y="-231.5" font-family="Helvetica,sans-Serif" font-size="10.00">MoFEM::PetscData</text>
</a>
</g>
</g>
<!-- Node5&#45;&gt;Node4 -->
<g id="edge4" class="edge">
<title>Node5&#45;&gt;Node4</title>
<path fill="none" stroke="midnightblue" d="M159.82,-220.64C134.68,-210.5 99.75,-196.43 77.63,-187.52"/>
<polygon fill="midnightblue" stroke="midnightblue" points="158.68,-223.95 169.27,-224.44 161.3,-217.46 158.68,-223.95"/>
</g>
<!-- Node7 -->
<g id="node7" class="node">
<title>Node7</title>
<g id="a_node7"><a xlink:href="structMoFEM_1_1SnesMethod.html" target="_top" xlink:title="data structure for snes (nonlinear solver) context">
<polygon fill="white" stroke="black" points="131,-168.5 131,-187.5 250,-187.5 250,-168.5 131,-168.5"/>
<text text-anchor="middle" x="190.5" y="-175.5" font-family="Helvetica,sans-Serif" font-size="10.00">MoFEM::SnesMethod</text>
</a>
</g>
</g>
<!-- Node5&#45;&gt;Node7 -->
<g id="edge7" class="edge">
<title>Node5&#45;&gt;Node7</title>
<path fill="none" stroke="darkgreen" d="M190.5,-213.8C190.5,-204.91 190.5,-194.78 190.5,-187.75"/>
<polygon fill="darkgreen" stroke="darkgreen" points="187,-214.08 190.5,-224.08 194,-214.08 187,-214.08"/>
</g>
<!-- Node8 -->
<g id="node8" class="node">
<title>Node8</title>
<g id="a_node8"><a xlink:href="structMoFEM_1_1TSMethod.html" target="_top" xlink:title="data structure for TS (time stepping) context">
<polygon fill="white" stroke="black" points="268,-168.5 268,-187.5 375,-187.5 375,-168.5 268,-168.5"/>
<text text-anchor="middle" x="321.5" y="-175.5" font-family="Helvetica,sans-Serif" font-size="10.00">MoFEM::TSMethod</text>
</a>
</g>
</g>
<!-- Node5&#45;&gt;Node8 -->
<g id="edge9" class="edge">
<title>Node5&#45;&gt;Node8</title>
<path fill="none" stroke="darkgreen" d="M220.82,-220.5C245.38,-210.38 279.32,-196.39 300.84,-187.52"/>
<polygon fill="darkgreen" stroke="darkgreen" points="219.17,-217.4 211.26,-224.44 221.84,-223.87 219.17,-217.4"/>
</g>
<!-- Node6 -->
<g id="node6" class="node">
<title>Node6</title>
<g id="a_node6"><a xlink:href="structMoFEM_1_1UnknownInterface.html" target="_top" xlink:title="base class for all interface classes">
<polygon fill="white" stroke="black" points="116.5,-280.5 116.5,-299.5 264.5,-299.5 264.5,-280.5 116.5,-280.5"/>
<text text-anchor="middle" x="190.5" y="-287.5" font-family="Helvetica,sans-Serif" font-size="10.00">MoFEM::UnknownInterface</text>
</a>
</g>
</g>
<!-- Node6&#45;&gt;Node5 -->
<g id="edge5" class="edge">
<title>Node6&#45;&gt;Node5</title>
<path fill="none" stroke="midnightblue" d="M190.5,-269.8C190.5,-260.91 190.5,-250.78 190.5,-243.75"/>
<polygon fill="midnightblue" stroke="midnightblue" points="187,-270.08 190.5,-280.08 194,-270.08 187,-270.08"/>
</g>
<!-- Node7&#45;&gt;Node3 -->
<g id="edge6" class="edge">
<title>Node7&#45;&gt;Node3</title>
<path fill="none" stroke="midnightblue" d="M190.5,-157.8C190.5,-148.91 190.5,-138.78 190.5,-131.75"/>
<polygon fill="midnightblue" stroke="midnightblue" points="187,-158.08 190.5,-168.08 194,-158.08 187,-158.08"/>
</g>
<!-- Node8&#45;&gt;Node3 -->
<g id="edge8" class="edge">
<title>Node8&#45;&gt;Node3</title>
<path fill="none" stroke="midnightblue" d="M291.18,-164.5C266.62,-154.38 232.68,-140.39 211.16,-131.52"/>
<polygon fill="midnightblue" stroke="midnightblue" points="290.16,-167.87 300.74,-168.44 292.83,-161.4 290.16,-167.87"/>
</g>
</g>
</svg>
