<?xml version="1.0" encoding="UTF-8" standalone="no"?>
<!DOCTYPE svg PUBLIC "-//W3C//DTD SVG 1.1//EN"
 "http://www.w3.org/Graphics/SVG/1.1/DTD/svg11.dtd">
<!-- Generated by graphviz version 2.43.0 (0)
 -->
<!-- Title: QUAD_ Pages: 1 -->
<svg width="180pt" height="117pt"
 viewBox="0.00 0.00 180.00 117.00" xmlns="http://www.w3.org/2000/svg" xmlns:xlink="http://www.w3.org/1999/xlink">
<g id="graph0" class="graph" transform="scale(1 1) rotate(0) translate(4 113)">
<title>QUAD_</title>
<polygon fill="white" stroke="transparent" points="-4,4 -4,-113 176,-113 176,4 -4,4"/>
<!-- Node1 -->
<g id="node1" class="node">
<title>Node1</title>
<g id="a_node1"><a xlink:title=" ">
<polygon fill="#bfbfbf" stroke="black" points="61.5,-0.5 61.5,-19.5 112.5,-19.5 112.5,-0.5 61.5,-0.5"/>
<text text-anchor="middle" x="87" y="-7.5" font-family="Helvetica,sans-Serif" font-size="10.00">QUAD_</text>
</a>
</g>
</g>
<!-- Node2 -->
<g id="node2" class="node">
<title>Node2</title>
<g id="a_node2"><a xlink:href="classdouble.html" target="_top" xlink:title=" ">
<polygon fill="white" stroke="black" points="0,-89.5 0,-108.5 50,-108.5 50,-89.5 0,-89.5"/>
<text text-anchor="middle" x="25" y="-96.5" font-family="Helvetica,sans-Serif" font-size="10.00">double</text>
</a>
</g>
</g>
<!-- Node2&#45;&gt;Node1 -->
<g id="edge1" class="edge">
<title>Node2&#45;&gt;Node1</title>
<path fill="none" stroke="#9a32cd" stroke-dasharray="5,2" d="M27.44,-79.45C29.89,-66.72 34.69,-50.03 44,-38 50.04,-30.19 59.03,-24.05 67.22,-19.61"/>
<polygon fill="#9a32cd" stroke="#9a32cd" points="23.98,-78.96 25.85,-89.39 30.89,-80.07 23.98,-78.96"/>
<text text-anchor="middle" x="63.5" y="-57.5" font-family="Helvetica,sans-Serif" font-size="10.00"> points</text>
<text text-anchor="middle" x="63.5" y="-46.5" font-family="Helvetica,sans-Serif" font-size="10.00">weights</text>
</g>
<!-- Node3 -->
<g id="node3" class="node">
<title>Node3</title>
<g id="a_node3"><a xlink:title=" ">
<polygon fill="white" stroke="#bfbfbf" points="68,-89.5 68,-108.5 106,-108.5 106,-89.5 68,-89.5"/>
<text text-anchor="middle" x="87" y="-96.5" font-family="Helvetica,sans-Serif" font-size="10.00">char</text>
</a>
</g>
</g>
<!-- Node3&#45;&gt;Node1 -->
<g id="edge2" class="edge">
<title>Node3&#45;&gt;Node1</title>
<path fill="none" stroke="#9a32cd" stroke-dasharray="5,2" d="M87,-79.19C87,-60.74 87,-33.41 87,-19.62"/>
<polygon fill="#9a32cd" stroke="#9a32cd" points="83.5,-79.34 87,-89.34 90.5,-79.34 83.5,-79.34"/>
<text text-anchor="middle" x="101" y="-57.5" font-family="Helvetica,sans-Serif" font-size="10.00"> id</text>
<text text-anchor="middle" x="101" y="-46.5" font-family="Helvetica,sans-Serif" font-size="10.00">name</text>
</g>
<!-- Node4 -->
<g id="node4" class="node">
<title>Node4</title>
<g id="a_node4"><a xlink:title=" ">
<polygon fill="white" stroke="#bfbfbf" points="124.5,-89.5 124.5,-108.5 153.5,-108.5 153.5,-89.5 124.5,-89.5"/>
<text text-anchor="middle" x="139" y="-96.5" font-family="Helvetica,sans-Serif" font-size="10.00">int</text>
</a>
</g>
</g>
<!-- Node4&#45;&gt;Node1 -->
<g id="edge3" class="edge">
<title>Node4&#45;&gt;Node1</title>
<path fill="none" stroke="#9a32cd" stroke-dasharray="5,2" d="M134.73,-79.5C131.27,-67.05 125.56,-50.65 117,-38 112.21,-30.92 105.17,-24.46 99.12,-19.63"/>
<polygon fill="#9a32cd" stroke="#9a32cd" points="131.35,-80.41 137.2,-89.24 138.13,-78.69 131.35,-80.41"/>
<text text-anchor="middle" x="152" y="-63" font-family="Helvetica,sans-Serif" font-size="10.00"> npoints</text>
<text text-anchor="middle" x="152" y="-52" font-family="Helvetica,sans-Serif" font-size="10.00">dim</text>
<text text-anchor="middle" x="152" y="-41" font-family="Helvetica,sans-Serif" font-size="10.00">order</text>
</g>
</g>
</svg>
