<?xml version="1.0" encoding="UTF-8" standalone="no"?>
<!DOCTYPE svg PUBLIC "-//W3C//DTD SVG 1.1//EN"
 "http://www.w3.org/Graphics/SVG/1.1/DTD/svg11.dtd">
<!-- Generated by graphviz version 2.43.0 (0)
 -->
<!-- Title: NeumannForcesSurface::OpNeumannPressureMaterialVolOnSideLhs Pages: 1 -->
<!--zoomable 110 -->
<svg id="main" version="1.1" xmlns="http://www.w3.org/2000/svg" xmlns:xlink="http://www.w3.org/1999/xlink" xml:space="preserve" onload="init(evt)">
<style type="text/css"><![CDATA[
.edge:hover path { stroke: red; }
.edge:hover polygon { stroke: red; fill: red; }
]]></style>
<script type="text/javascript"><![CDATA[
var edges = document.getElementsByTagName('g');
if (edges && edges.length) {
  for (var i=0;i<edges.length;i++) {
    if (edges[i].id.substr(0,4)=='edge') {
      edges[i].setAttribute('class','edge');
    }
  }
}
]]></script>
        <defs>
                <circle id="rim" cx="0" cy="0" r="7"/>
                <circle id="rim2" cx="0" cy="0" r="3.5"/>
                <g id="zoomPlus">
                        <use xlink:href="#rim" fill="#404040">
                                <set attributeName="fill" to="#808080" begin="zoomplus.mouseover" end="zoomplus.mouseout"/>
                        </use>
                        <path d="M-4,0h8M0,-4v8" fill="none" stroke="white" stroke-width="1.5" pointer-events="none"/>
                </g>
                <g id="zoomMin">
                        <use xlink:href="#rim" fill="#404040">
                                <set attributeName="fill" to="#808080" begin="zoomminus.mouseover" end="zoomminus.mouseout"/>
                        </use>
                        <path d="M-4,0h8" fill="none" stroke="white" stroke-width="1.5" pointer-events="none"/>
                </g>
                <g id="dirArrow">
                        <path fill="none" stroke="white" stroke-width="1.5" d="M0,-3.0v7 M-2.5,-0.5L0,-3.0L2.5,-0.5"/>
                </g>
               <g id="resetDef">
                       <use xlink:href="#rim2" fill="#404040">
                               <set attributeName="fill" to="#808080" begin="reset.mouseover" end="reset.mouseout"/>
                       </use>
               </g>
        </defs>

<script type="text/javascript">
var viewWidth = 1161;
var viewHeight = 110;
var sectionId = 'dynsection-0';
</script>
<script xlink:href="svgpan.js"/>
<svg id="graph" class="graph">
<g id="viewport">
<title>NeumannForcesSurface::OpNeumannPressureMaterialVolOnSideLhs</title>
<polygon fill="white" stroke="transparent" points="-4,4 -4,-106 1157,-106 1157,4 -4,4"/>
<!-- Node1 -->
<g id="node1" class="node">
<title>Node1</title>
<g id="a_node1"><a xlink:title="Base class for LHS&#45;operators (material) on side volumes.">
<polygon fill="#bfbfbf" stroke="black" points="785,-30.5 785,-71.5 951,-71.5 951,-30.5 785,-30.5"/>
<text text-anchor="start" x="793" y="-59.5" font-family="Helvetica,sans-Serif" font-size="10.00">NeumannForcesSurface</text>
<text text-anchor="start" x="793" y="-48.5" font-family="Helvetica,sans-Serif" font-size="10.00">::OpNeumannPressureMaterial</text>
<text text-anchor="middle" x="868" y="-37.5" font-family="Helvetica,sans-Serif" font-size="10.00">VolOnSideLhs</text>
</a>
</g>
</g>
<!-- Node6 -->
<g id="node6" class="node">
<title>Node6</title>
<g id="a_node6"><a xlink:href="structNeumannForcesSurface_1_1OpNeumannPressureMaterialVolOnSideLhs__dX__dx.html" target="_top" xlink:title="LHS&#45;operator (material configuration) on the side volume.">
<polygon fill="white" stroke="black" points="987,-60.5 987,-101.5 1153,-101.5 1153,-60.5 987,-60.5"/>
<text text-anchor="start" x="995" y="-89.5" font-family="Helvetica,sans-Serif" font-size="10.00">NeumannForcesSurface</text>
<text text-anchor="start" x="995" y="-78.5" font-family="Helvetica,sans-Serif" font-size="10.00">::OpNeumannPressureMaterial</text>
<text text-anchor="middle" x="1070" y="-67.5" font-family="Helvetica,sans-Serif" font-size="10.00">VolOnSideLhs_dX_dx</text>
</a>
</g>
</g>
<!-- Node1&#45;&gt;Node6 -->
<g id="edge5" class="edge">
<title>Node1&#45;&gt;Node6</title>
<path fill="none" stroke="midnightblue" d="M961.19,-64.83C969.73,-66.11 978.34,-67.4 986.78,-68.67"/>
<polygon fill="midnightblue" stroke="midnightblue" points="961.62,-61.35 951.21,-63.33 960.58,-68.28 961.62,-61.35"/>
</g>
<!-- Node7 -->
<g id="node7" class="node">
<title>Node7</title>
<g id="a_node7"><a xlink:href="structNeumannForcesSurface_1_1OpNeumannPressureMaterialVolOnSideLhs__dX__dX.html" target="_top" xlink:title="LHS&#45;operator (material configuration) on the side volume.">
<polygon fill="white" stroke="black" points="987,-0.5 987,-41.5 1153,-41.5 1153,-0.5 987,-0.5"/>
<text text-anchor="start" x="995" y="-29.5" font-family="Helvetica,sans-Serif" font-size="10.00">NeumannForcesSurface</text>
<text text-anchor="start" x="995" y="-18.5" font-family="Helvetica,sans-Serif" font-size="10.00">::OpNeumannPressureMaterial</text>
<text text-anchor="middle" x="1070" y="-7.5" font-family="Helvetica,sans-Serif" font-size="10.00">VolOnSideLhs_dX_dX</text>
</a>
</g>
</g>
<!-- Node1&#45;&gt;Node7 -->
<g id="edge6" class="edge">
<title>Node1&#45;&gt;Node7</title>
<path fill="none" stroke="midnightblue" d="M961.19,-37.17C969.73,-35.89 978.34,-34.6 986.78,-33.33"/>
<polygon fill="midnightblue" stroke="midnightblue" points="960.58,-33.72 951.21,-38.67 961.62,-40.65 960.58,-33.72"/>
</g>
<!-- Node2 -->
<g id="node2" class="node">
<title>Node2</title>
<g id="a_node2"><a xlink:href="structMoFEM_1_1VolumeElementForcesAndSourcesCoreOnSide_1_1UserDataOperator.html" target="_top" xlink:title="default operator for TET element">
<polygon fill="white" stroke="black" points="594,-41.5 594,-60.5 749,-60.5 749,-41.5 594,-41.5"/>
<text text-anchor="middle" x="671.5" y="-48.5" font-family="Helvetica,sans-Serif" font-size="10.00">VolOnSideUserDataOperator</text>
</a>
</g>
</g>
<!-- Node2&#45;&gt;Node1 -->
<g id="edge1" class="edge">
<title>Node2&#45;&gt;Node1</title>
<path fill="none" stroke="midnightblue" d="M759.32,-51C767.76,-51 776.31,-51 784.71,-51"/>
<polygon fill="midnightblue" stroke="midnightblue" points="759.09,-47.5 749.09,-51 759.09,-54.5 759.09,-47.5"/>
</g>
<!-- Node3 -->
<g id="node3" class="node">
<title>Node3</title>
<g id="a_node3"><a xlink:href="structMoFEM_1_1VolumeElementForcesAndSourcesCore_1_1UserDataOperator.html" target="_top" xlink:title=" ">
<polygon fill="white" stroke="black" points="367,-36 367,-66 558,-66 558,-36 367,-36"/>
<text text-anchor="start" x="375" y="-54" font-family="Helvetica,sans-Serif" font-size="10.00">MoFEM::VolumeElementForces</text>
<text text-anchor="middle" x="462.5" y="-43" font-family="Helvetica,sans-Serif" font-size="10.00">AndSourcesCore::UserDataOperator</text>
</a>
</g>
</g>
<!-- Node3&#45;&gt;Node2 -->
<g id="edge2" class="edge">
<title>Node3&#45;&gt;Node2</title>
<path fill="none" stroke="midnightblue" d="M568.3,-51C576.9,-51 585.48,-51 593.82,-51"/>
<polygon fill="midnightblue" stroke="midnightblue" points="568.22,-47.5 558.22,-51 568.22,-54.5 568.22,-47.5"/>
</g>
<!-- Node4 -->
<g id="node4" class="node">
<title>Node4</title>
<g id="a_node4"><a xlink:href="structMoFEM_1_1ForcesAndSourcesCore_1_1UserDataOperator.html" target="_top" xlink:title=" ">
<polygon fill="white" stroke="black" points="161,-36 161,-66 331,-66 331,-36 161,-36"/>
<text text-anchor="start" x="169" y="-54" font-family="Helvetica,sans-Serif" font-size="10.00">MoFEM::ForcesAndSourcesCore</text>
<text text-anchor="middle" x="246" y="-43" font-family="Helvetica,sans-Serif" font-size="10.00">::UserDataOperator</text>
</a>
</g>
</g>
<!-- Node4&#45;&gt;Node3 -->
<g id="edge3" class="edge">
<title>Node4&#45;&gt;Node3</title>
<path fill="none" stroke="midnightblue" d="M341.42,-51C349.89,-51 358.47,-51 366.93,-51"/>
<polygon fill="midnightblue" stroke="midnightblue" points="341.16,-47.5 331.16,-51 341.16,-54.5 341.16,-47.5"/>
</g>
<!-- Node5 -->
<g id="node5" class="node">
<title>Node5</title>
<g id="a_node5"><a xlink:href="structMoFEM_1_1DataOperator.html" target="_top" xlink:title="base operator to do operations at Gauss Pt. level">
<polygon fill="white" stroke="black" points="0,-41.5 0,-60.5 125,-60.5 125,-41.5 0,-41.5"/>
<text text-anchor="middle" x="62.5" y="-48.5" font-family="Helvetica,sans-Serif" font-size="10.00">MoFEM::DataOperator</text>
</a>
</g>
</g>
<!-- Node5&#45;&gt;Node4 -->
<g id="edge4" class="edge">
<title>Node5&#45;&gt;Node4</title>
<path fill="none" stroke="midnightblue" d="M135.34,-51C143.75,-51 152.4,-51 160.97,-51"/>
<polygon fill="midnightblue" stroke="midnightblue" points="135.2,-47.5 125.2,-51 135.2,-54.5 135.2,-47.5"/>
</g>
</g>
</svg>
        <g id="navigator" transform="translate(0 0)" fill="#404254">
                <rect fill="#f2f5e9" fill-opacity="0.5" stroke="#606060" stroke-width=".5" x="0" y="0" width="60" height="60"/>
                <use id="zoomplus" xlink:href="#zoomPlus" x="17" y="9" onmousedown="handleZoom(evt,'in')"/>
                <use id="zoomminus" xlink:href="#zoomMin" x="42" y="9" onmousedown="handleZoom(evt,'out')"/>
                <use id="reset" xlink:href="#resetDef" x="30" y="36" onmousedown="handleReset()"/>
                <g id="arrowUp" xlink:href="#dirArrow" transform="translate(30 24)" onmousedown="handlePan(0,-1)">
                  <use xlink:href="#rim" fill="#404040">
                        <set attributeName="fill" to="#808080" begin="arrowUp.mouseover" end="arrowUp.mouseout"/>
                  </use>
                  <path fill="none" stroke="white" stroke-width="1.5" d="M0,-3.0v7 M-2.5,-0.5L0,-3.0L2.5,-0.5"/>
                </g>
                <g id="arrowRight" xlink:href="#dirArrow" transform="rotate(90) translate(36 -43)" onmousedown="handlePan(1,0)">
                  <use xlink:href="#rim" fill="#404040">
                        <set attributeName="fill" to="#808080" begin="arrowRight.mouseover" end="arrowRight.mouseout"/>
                  </use>
                  <path fill="none" stroke="white" stroke-width="1.5" d="M0,-3.0v7 M-2.5,-0.5L0,-3.0L2.5,-0.5"/>
                </g>
                <g id="arrowDown" xlink:href="#dirArrow" transform="rotate(180) translate(-30 -48)" onmousedown="handlePan(0,1)">
                  <use xlink:href="#rim" fill="#404040">
                        <set attributeName="fill" to="#808080" begin="arrowDown.mouseover" end="arrowDown.mouseout"/>
                  </use>
                  <path fill="none" stroke="white" stroke-width="1.5" d="M0,-3.0v7 M-2.5,-0.5L0,-3.0L2.5,-0.5"/>
                </g>
                <g id="arrowLeft" xlink:href="#dirArrow" transform="rotate(270) translate(-36 17)" onmousedown="handlePan(-1,0)">
                  <use xlink:href="#rim" fill="#404040">
                        <set attributeName="fill" to="#808080" begin="arrowLeft.mouseover" end="arrowLeft.mouseout"/>
                  </use>
                  <path fill="none" stroke="white" stroke-width="1.5" d="M0,-3.0v7 M-2.5,-0.5L0,-3.0L2.5,-0.5"/>
                </g>
        </g>
        <svg viewBox="0 0 15 15" width="100%" height="30px" preserveAspectRatio="xMaxYMin meet">
         <g id="arrow_out" transform="scale(0.3 0.3)">
          <a xlink:href="structNeumannForcesSurface_1_1OpNeumannPressureMaterialVolOnSideLhs__inherit__graph_org.svg" target="_base">
           <rect id="button" ry="5" rx="5" y="6" x="6" height="38" width="38"
                fill="#f2f5e9" fill-opacity="0.5" stroke="#606060" stroke-width="1.0"/>
           <path id="arrow"
             d="M 11.500037,31.436501 C 11.940474,20.09759 22.043105,11.32322 32.158766,21.979434 L 37.068811,17.246167 C 37.068811,17.246167 37.088388,32 37.088388,32 L 22.160133,31.978069 C 22.160133,31.978069 26.997745,27.140456 26.997745,27.140456 C 18.528582,18.264221 13.291696,25.230495 11.500037,31.436501 z"
             style="fill:#404040;"/>
          </a>
         </g>
        </svg>
</svg>
