<?xml version="1.0" encoding="UTF-8" standalone="no"?>
<!DOCTYPE svg PUBLIC "-//W3C//DTD SVG 1.1//EN"
 "http://www.w3.org/Graphics/SVG/1.1/DTD/svg11.dtd">
<!-- Generated by graphviz version 2.43.0 (0)
 -->
<!-- Title: MoFEM::TimeScale Pages: 1 -->
<svg width="478pt" height="203pt"
 viewBox="0.00 0.00 478.00 203.00" xmlns="http://www.w3.org/2000/svg" xmlns:xlink="http://www.w3.org/1999/xlink">
<g id="graph0" class="graph" transform="scale(1 1) rotate(0) translate(4 199)">
<title>MoFEM::TimeScale</title>
<polygon fill="white" stroke="transparent" points="-4,4 -4,-199 474,-199 474,4 -4,4"/>
<!-- Node1 -->
<g id="node1" class="node">
<title>Node1</title>
<g id="a_node1"><a xlink:title="Force scale operator for reading two columns.">
<polygon fill="#bfbfbf" stroke="black" points="167,-82.5 167,-101.5 277,-101.5 277,-82.5 167,-82.5"/>
<text text-anchor="middle" x="222" y="-89.5" font-family="Helvetica,sans-Serif" font-size="10.00">MoFEM::TimeScale</text>
</a>
</g>
</g>
<!-- Node3 -->
<g id="node3" class="node">
<title>Node3</title>
<g id="a_node3"><a xlink:href="structContact_1_1ScaledTimeScale.html" target="_top" xlink:title=" ">
<polygon fill="white" stroke="black" points="320,-175.5 320,-194.5 463,-194.5 463,-175.5 320,-175.5"/>
<text text-anchor="middle" x="391.5" y="-182.5" font-family="Helvetica,sans-Serif" font-size="10.00">Contact::ScaledTimeScale</text>
</a>
</g>
</g>
<!-- Node1&#45;&gt;Node3 -->
<g id="edge2" class="edge">
<title>Node1&#45;&gt;Node3</title>
<path fill="none" stroke="midnightblue" d="M239.05,-109.08C255.89,-126 283.93,-151.44 313,-166 320.68,-169.85 329.19,-172.94 337.67,-175.43"/>
<polygon fill="midnightblue" stroke="midnightblue" points="241.2,-106.27 231.72,-101.54 236.18,-111.15 241.2,-106.27"/>
</g>
<!-- Node4 -->
<g id="node4" class="node">
<title>Node4</title>
<g id="a_node4"><a xlink:href="structExample_1_1DynamicFirstOrderConsConstantTimeScale.html" target="_top" xlink:title=" ">
<polygon fill="white" stroke="black" points="313,-126 313,-156 470,-156 470,-126 313,-126"/>
<text text-anchor="start" x="321" y="-144" font-family="Helvetica,sans-Serif" font-size="10.00">Example::DynamicFirstOrder</text>
<text text-anchor="middle" x="391.5" y="-133" font-family="Helvetica,sans-Serif" font-size="10.00">ConsConstantTimeScale</text>
</a>
</g>
</g>
<!-- Node1&#45;&gt;Node4 -->
<g id="edge3" class="edge">
<title>Node1&#45;&gt;Node4</title>
<path fill="none" stroke="midnightblue" d="M265.57,-104.45C287.95,-111 315.54,-119.07 339.1,-125.96"/>
<polygon fill="midnightblue" stroke="midnightblue" points="266.27,-101.01 255.69,-101.56 264.31,-107.73 266.27,-101.01"/>
</g>
<!-- Node5 -->
<g id="node5" class="node">
<title>Node5</title>
<g id="a_node5"><a xlink:href="structExample_1_1DynamicFirstOrderConsSinusTimeScale.html" target="_top" xlink:title=" ">
<polygon fill="white" stroke="black" points="313,-77 313,-107 470,-107 470,-77 313,-77"/>
<text text-anchor="start" x="321" y="-95" font-family="Helvetica,sans-Serif" font-size="10.00">Example::DynamicFirstOrder</text>
<text text-anchor="middle" x="391.5" y="-84" font-family="Helvetica,sans-Serif" font-size="10.00">ConsSinusTimeScale</text>
</a>
</g>
</g>
<!-- Node1&#45;&gt;Node5 -->
<g id="edge4" class="edge">
<title>Node1&#45;&gt;Node5</title>
<path fill="none" stroke="midnightblue" d="M287.42,-92C295.79,-92 304.42,-92 312.97,-92"/>
<polygon fill="midnightblue" stroke="midnightblue" points="287.38,-88.5 277.38,-92 287.38,-95.5 287.38,-88.5"/>
</g>
<!-- Node6 -->
<g id="node6" class="node">
<title>Node6</title>
<g id="a_node6"><a xlink:href="structExample_1_1ScaledTimeScale.html" target="_top" xlink:title=" ">
<polygon fill="white" stroke="black" points="317,-38.5 317,-57.5 466,-57.5 466,-38.5 317,-38.5"/>
<text text-anchor="middle" x="391.5" y="-45.5" font-family="Helvetica,sans-Serif" font-size="10.00">Example::ScaledTimeScale</text>
</a>
</g>
</g>
<!-- Node1&#45;&gt;Node6 -->
<g id="edge5" class="edge">
<title>Node1&#45;&gt;Node6</title>
<path fill="none" stroke="midnightblue" d="M266.19,-79.72C281,-75.58 297.7,-71 313,-67 325.2,-63.81 338.52,-60.49 350.62,-57.53"/>
<polygon fill="midnightblue" stroke="midnightblue" points="264.96,-76.43 256.27,-82.5 266.85,-83.17 264.96,-76.43"/>
</g>
<!-- Node7 -->
<g id="node7" class="node">
<title>Node7</title>
<g id="a_node7"><a xlink:href="structLinMomTimeScale.html" target="_top" xlink:title=" ">
<polygon fill="white" stroke="black" points="338,-0.5 338,-19.5 445,-19.5 445,-0.5 338,-0.5"/>
<text text-anchor="middle" x="391.5" y="-7.5" font-family="Helvetica,sans-Serif" font-size="10.00">LinMomTimeScale</text>
</a>
</g>
</g>
<!-- Node1&#45;&gt;Node7 -->
<g id="edge6" class="edge">
<title>Node1&#45;&gt;Node7</title>
<path fill="none" stroke="midnightblue" d="M241.5,-75.93C258.87,-61.64 286.13,-41.18 313,-29 321.45,-25.17 330.79,-22.04 339.97,-19.51"/>
<polygon fill="midnightblue" stroke="midnightblue" points="239.23,-73.28 233.82,-82.39 243.73,-78.64 239.23,-73.28"/>
</g>
<!-- Node2 -->
<g id="node2" class="node">
<title>Node2</title>
<g id="a_node2"><a xlink:href="structMoFEM_1_1ScalingMethod.html" target="_top" xlink:title=" ">
<polygon fill="white" stroke="black" points="0,-82.5 0,-101.5 131,-101.5 131,-82.5 0,-82.5"/>
<text text-anchor="middle" x="65.5" y="-89.5" font-family="Helvetica,sans-Serif" font-size="10.00">MoFEM::ScalingMethod</text>
</a>
</g>
</g>
<!-- Node2&#45;&gt;Node1 -->
<g id="edge1" class="edge">
<title>Node2&#45;&gt;Node1</title>
<path fill="none" stroke="midnightblue" d="M141.24,-92C149.9,-92 158.6,-92 166.91,-92"/>
<polygon fill="midnightblue" stroke="midnightblue" points="141.13,-88.5 131.13,-92 141.13,-95.5 141.13,-88.5"/>
</g>
</g>
</svg>
