<?xml version="1.0" encoding="UTF-8" standalone="no"?>
<!DOCTYPE svg PUBLIC "-//W3C//DTD SVG 1.1//EN"
 "http://www.w3.org/Graphics/SVG/1.1/DTD/svg11.dtd">
<!-- Generated by graphviz version 2.43.0 (0)
 -->
<!-- Title: EshelbianPlasticity::HMHNeohookean::OpJacobian Pages: 1 -->
<svg width="584pt" height="206pt"
 viewBox="0.00 0.00 584.00 206.00" xmlns="http://www.w3.org/2000/svg" xmlns:xlink="http://www.w3.org/1999/xlink">
<g id="graph0" class="graph" transform="scale(1 1) rotate(0) translate(4 202)">
<title>EshelbianPlasticity::HMHNeohookean::OpJacobian</title>
<polygon fill="white" stroke="transparent" points="-4,4 -4,-202 580,-202 580,4 -4,4"/>
<!-- Node1 -->
<g id="node1" class="node">
<title>Node1</title>
<g id="a_node1"><a xlink:title=" ">
<polygon fill="#bfbfbf" stroke="black" points="408,-80 408,-110 576,-110 576,-80 408,-80"/>
<text text-anchor="start" x="416" y="-98" font-family="Helvetica,sans-Serif" font-size="10.00">EshelbianPlasticity</text>
<text text-anchor="middle" x="492" y="-87" font-family="Helvetica,sans-Serif" font-size="10.00">::HMHNeohookean::OpJacobian</text>
</a>
</g>
</g>
<!-- Node2 -->
<g id="node2" class="node">
<title>Node2</title>
<g id="a_node2"><a xlink:href="structEshelbianPlasticity_1_1OpJacobian.html" target="_top" xlink:title=" ">
<polygon fill="white" stroke="black" points="262,-80 262,-110 371,-110 371,-80 262,-80"/>
<text text-anchor="start" x="270" y="-98" font-family="Helvetica,sans-Serif" font-size="10.00">EshelbianPlasticity</text>
<text text-anchor="middle" x="316.5" y="-87" font-family="Helvetica,sans-Serif" font-size="10.00">::OpJacobian</text>
</a>
</g>
</g>
<!-- Node2&#45;&gt;Node1 -->
<g id="edge1" class="edge">
<title>Node2&#45;&gt;Node1</title>
<path fill="none" stroke="midnightblue" d="M381.66,-95C390.17,-95 399,-95 407.78,-95"/>
<polygon fill="midnightblue" stroke="midnightblue" points="381.45,-91.5 371.45,-95 381.45,-98.5 381.45,-91.5"/>
</g>
<!-- Node3 -->
<g id="node3" class="node">
<title>Node3</title>
<g id="a_node3"><a xlink:href="classUserDataOperator.html" target="_top" xlink:title=" ">
<polygon fill="white" stroke="black" points="33.5,-178.5 33.5,-197.5 138.5,-197.5 138.5,-178.5 33.5,-178.5"/>
<text text-anchor="middle" x="86" y="-185.5" font-family="Helvetica,sans-Serif" font-size="10.00">UserDataOperator</text>
</a>
</g>
</g>
<!-- Node3&#45;&gt;Node2 -->
<g id="edge2" class="edge">
<title>Node3&#45;&gt;Node2</title>
<path fill="none" stroke="midnightblue" d="M148.13,-176.05C156.24,-173.97 164.37,-171.62 172,-169 216.28,-153.81 263.85,-126.95 291.58,-110.1"/>
<polygon fill="midnightblue" stroke="midnightblue" points="147.18,-172.68 138.3,-178.46 148.85,-179.48 147.18,-172.68"/>
</g>
<!-- Node4 -->
<g id="node4" class="node">
<title>Node4</title>
<g id="a_node4"><a xlink:title=" ">
<polygon fill="white" stroke="#bfbfbf" points="0,-129 0,-159 172,-159 172,-129 0,-129"/>
<text text-anchor="start" x="8" y="-147" font-family="Helvetica,sans-Serif" font-size="10.00">shared_ptr&lt; EshelbianPlasticity</text>
<text text-anchor="middle" x="86" y="-136" font-family="Helvetica,sans-Serif" font-size="10.00">::PhysicalEquations &gt;</text>
</a>
</g>
</g>
<!-- Node4&#45;&gt;Node2 -->
<g id="edge3" class="edge">
<title>Node4&#45;&gt;Node2</title>
<path fill="none" stroke="#9a32cd" stroke-dasharray="5,2" d="M167.15,-126.81C198.51,-120.09 233.65,-112.55 261.86,-106.5"/>
<polygon fill="#9a32cd" stroke="#9a32cd" points="166.15,-123.45 157.11,-128.97 167.62,-130.29 166.15,-123.45"/>
<text text-anchor="middle" x="217" y="-123" font-family="Helvetica,sans-Serif" font-size="10.00"> physicsPtr</text>
</g>
<!-- Node5 -->
<g id="node5" class="node">
<title>Node5</title>
<g id="a_node5"><a xlink:title=" ">
<polygon fill="white" stroke="#bfbfbf" points="0,-80 0,-110 172,-110 172,-80 0,-80"/>
<text text-anchor="start" x="8" y="-98" font-family="Helvetica,sans-Serif" font-size="10.00">shared_ptr&lt; EshelbianPlasticity</text>
<text text-anchor="middle" x="86" y="-87" font-family="Helvetica,sans-Serif" font-size="10.00">::DataAtIntegrationPts &gt;</text>
</a>
</g>
</g>
<!-- Node5&#45;&gt;Node2 -->
<g id="edge4" class="edge">
<title>Node5&#45;&gt;Node2</title>
<path fill="none" stroke="#9a32cd" stroke-dasharray="5,2" d="M182.4,-95C209.54,-95 238.15,-95 261.85,-95"/>
<polygon fill="#9a32cd" stroke="#9a32cd" points="182.09,-91.5 172.08,-95 182.08,-98.5 182.09,-91.5"/>
<text text-anchor="middle" x="217" y="-98" font-family="Helvetica,sans-Serif" font-size="10.00"> dataAtPts</text>
</g>
<!-- Node6 -->
<g id="node6" class="node">
<title>Node6</title>
<g id="a_node6"><a xlink:title=" ">
<polygon fill="white" stroke="#bfbfbf" points="71.5,-41.5 71.5,-60.5 100.5,-60.5 100.5,-41.5 71.5,-41.5"/>
<text text-anchor="middle" x="86" y="-48.5" font-family="Helvetica,sans-Serif" font-size="10.00">int</text>
</a>
</g>
</g>
<!-- Node6&#45;&gt;Node2 -->
<g id="edge5" class="edge">
<title>Node6&#45;&gt;Node2</title>
<path fill="none" stroke="#9a32cd" stroke-dasharray="5,2" d="M111.09,-55.26C141.93,-60.76 197.01,-70.73 244,-80 249.72,-81.13 255.7,-82.34 261.65,-83.56"/>
<polygon fill="#9a32cd" stroke="#9a32cd" points="111.34,-51.75 100.88,-53.45 110.12,-58.65 111.34,-51.75"/>
<text text-anchor="middle" x="217" y="-83" font-family="Helvetica,sans-Serif" font-size="10.00"> tAg</text>
</g>
<!-- Node7 -->
<g id="node7" class="node">
<title>Node7</title>
<g id="a_node7"><a xlink:href="classbool.html" target="_top" xlink:title=" ">
<polygon fill="white" stroke="black" points="67,-0.5 67,-19.5 105,-19.5 105,-0.5 67,-0.5"/>
<text text-anchor="middle" x="86" y="-7.5" font-family="Helvetica,sans-Serif" font-size="10.00">bool</text>
</a>
</g>
</g>
<!-- Node7&#45;&gt;Node2 -->
<g id="edge6" class="edge">
<title>Node7&#45;&gt;Node2</title>
<path fill="none" stroke="#9a32cd" stroke-dasharray="5,2" d="M115.23,-12.63C147.5,-16.42 201.38,-25.15 244,-44 264.36,-53 284.75,-68.33 298.52,-79.83"/>
<polygon fill="#9a32cd" stroke="#9a32cd" points="115.48,-9.14 105.16,-11.53 114.71,-16.1 115.48,-9.14"/>
<text text-anchor="middle" x="217" y="-58" font-family="Helvetica,sans-Serif" font-size="10.00"> evalLhs</text>
<text text-anchor="middle" x="217" y="-47" font-family="Helvetica,sans-Serif" font-size="10.00">evalRhs</text>
</g>
</g>
</svg>
