<?xml version="1.0" encoding="UTF-8" standalone="no"?>
<!DOCTYPE svg PUBLIC "-//W3C//DTD SVG 1.1//EN"
 "http://www.w3.org/Graphics/SVG/1.1/DTD/svg11.dtd">
<!-- Generated by graphviz version 2.43.0 (0)
 -->
<!-- Title: MoFEM::OpFluxRhsImpl&lt; NaturalMeshsetType&lt; HEATFLUXSET &gt;, 1, 1, A, I, OpBase &gt; Pages: 1 -->
<svg width="535pt" height="61pt"
 viewBox="0.00 0.00 535.00 61.00" xmlns="http://www.w3.org/2000/svg" xmlns:xlink="http://www.w3.org/1999/xlink">
<g id="graph0" class="graph" transform="scale(1 1) rotate(0) translate(4 57)">
<title>MoFEM::OpFluxRhsImpl&lt; NaturalMeshsetType&lt; HEATFLUXSET &gt;, 1, 1, A, I, OpBase &gt;</title>
<polygon fill="white" stroke="transparent" points="-4,4 -4,-57 531,-57 531,4 -4,4"/>
<!-- Node1 -->
<g id="node1" class="node">
<title>Node1</title>
<g id="a_node1"><a xlink:title=" ">
<polygon fill="#bfbfbf" stroke="black" points="392,-0.5 392,-52.5 527,-52.5 527,-0.5 392,-0.5"/>
<text text-anchor="start" x="400" y="-40.5" font-family="Helvetica,sans-Serif" font-size="10.00">MoFEM::OpFluxRhsImpl</text>
<text text-anchor="start" x="400" y="-29.5" font-family="Helvetica,sans-Serif" font-size="10.00">&lt; NaturalMeshsetType</text>
<text text-anchor="start" x="400" y="-18.5" font-family="Helvetica,sans-Serif" font-size="10.00">&lt; HEATFLUXSET &gt;, 1, 1,</text>
<text text-anchor="middle" x="459.5" y="-7.5" font-family="Helvetica,sans-Serif" font-size="10.00"> A, I, OpBase &gt;</text>
</a>
</g>
</g>
<!-- Node2 -->
<g id="node2" class="node">
<title>Node2</title>
<g id="a_node2"><a xlink:href="structMoFEM_1_1OpFluxRhsImpl_3_01NaturalMeshsetType_3_01UNKNOWNSET_01_4_00_011_00_011_00_01A_00_01I_00_01OpBase_01_4.html" target="_top" xlink:title=" ">
<polygon fill="white" stroke="black" points="218,-0.5 218,-52.5 356,-52.5 356,-0.5 218,-0.5"/>
<text text-anchor="start" x="226" y="-40.5" font-family="Helvetica,sans-Serif" font-size="10.00">MoFEM::OpFluxRhsImpl</text>
<text text-anchor="start" x="226" y="-29.5" font-family="Helvetica,sans-Serif" font-size="10.00">&lt; NaturalMeshsetType</text>
<text text-anchor="start" x="226" y="-18.5" font-family="Helvetica,sans-Serif" font-size="10.00">&lt; UNKNOWNSET &gt;, 1, 1,</text>
<text text-anchor="middle" x="287" y="-7.5" font-family="Helvetica,sans-Serif" font-size="10.00"> A, I, OpBase &gt;</text>
</a>
</g>
</g>
<!-- Node2&#45;&gt;Node1 -->
<g id="edge1" class="edge">
<title>Node2&#45;&gt;Node1</title>
<path fill="none" stroke="midnightblue" d="M366.58,-26.5C375,-26.5 383.51,-26.5 391.78,-26.5"/>
<polygon fill="midnightblue" stroke="midnightblue" points="366.37,-23 356.37,-26.5 366.37,-30 366.37,-23"/>
</g>
<!-- Node3 -->
<g id="node3" class="node">
<title>Node3</title>
<g id="a_node3"><a xlink:title=" ">
<polygon fill="white" stroke="#bfbfbf" points="0,-0.5 0,-52.5 182,-52.5 182,-0.5 0,-0.5"/>
<text text-anchor="start" x="8" y="-40.5" font-family="Helvetica,sans-Serif" font-size="10.00">FormsIntegrators&lt; OpBase</text>
<text text-anchor="start" x="8" y="-29.5" font-family="Helvetica,sans-Serif" font-size="10.00"> &gt;::template Assembly&lt;</text>
<text text-anchor="start" x="8" y="-18.5" font-family="Helvetica,sans-Serif" font-size="10.00"> A &gt;::template LinearForm</text>
<text text-anchor="middle" x="91" y="-7.5" font-family="Helvetica,sans-Serif" font-size="10.00">&lt; I &gt;::template OpSource&lt; 1, 1 &gt;</text>
</a>
</g>
</g>
<!-- Node3&#45;&gt;Node2 -->
<g id="edge2" class="edge">
<title>Node3&#45;&gt;Node2</title>
<path fill="none" stroke="midnightblue" d="M192.3,-26.5C200.92,-26.5 209.51,-26.5 217.79,-26.5"/>
<polygon fill="midnightblue" stroke="midnightblue" points="192.18,-23 182.18,-26.5 192.18,-30 192.18,-23"/>
</g>
</g>
</svg>
