<?xml version="1.0" encoding="UTF-8" standalone="no"?>
<!DOCTYPE svg PUBLIC "-//W3C//DTD SVG 1.1//EN"
 "http://www.w3.org/Graphics/SVG/1.1/DTD/svg11.dtd">
<!-- Generated by graphviz version 9.0.0 (20230911.1827)
 -->
<!-- Title: MoFEM::BcManager::BCs Pages: 1 -->
<svg width="382pt" height="346pt"
 viewBox="0.00 0.00 382.00 345.50" xmlns="http://www.w3.org/2000/svg" xmlns:xlink="http://www.w3.org/1999/xlink">
<g id="graph0" class="graph" transform="scale(1 1) rotate(0) translate(4 341.5)">
<title>MoFEM::BcManager::BCs</title>
<!-- Node1 -->
<g id="node1" class="node">
<title>Node1</title>
<g id="a_node1"><a xlink:title="Data structure storing bc markers and atributes.">
<polygon fill="#999999" stroke="#666666" points="374,-192.88 242.5,-192.88 242.5,-173.62 374,-173.62 374,-192.88"/>
<text text-anchor="middle" x="308.25" y="-179.38" font-family="Helvetica,sans-Serif" font-size="10.00">MoFEM::BcManager::BCs</text>
</a>
</g>
</g>
<!-- Node2 -->
<g id="node2" class="node">
<title>Node2</title>
<g id="a_node2"><a xlink:title=" ">
<polygon fill="white" stroke="#666666" points="125.12,-337.5 16.12,-337.5 16.12,-307 125.12,-307 125.12,-337.5"/>
<text text-anchor="start" x="24.12" y="-324" font-family="Helvetica,sans-Serif" font-size="10.00">boost::enable_shared</text>
<text text-anchor="middle" x="70.62" y="-312.75" font-family="Helvetica,sans-Serif" font-size="10.00">_from_this&lt; BCs &gt;</text>
</a>
</g>
</g>
<!-- Node2&#45;&gt;Node1 -->
<g id="edge1" class="edge">
<title>Node2&#45;&gt;Node1</title>
<path fill="none" stroke="#63b8ff" d="M136.39,-311.08C164.96,-304.12 197.99,-293.16 224.5,-276.25 259.66,-253.81 288.84,-212.35 301.07,-193.3"/>
<polygon fill="#63b8ff" stroke="#63b8ff" points="135.7,-307.64 126.75,-313.3 137.28,-314.46 135.7,-307.64"/>
</g>
<!-- Node3 -->
<g id="node3" class="node">
<title>Node3</title>
<g id="a_node3"><a xlink:href="class_range.html" target="_top" xlink:title=" ">
<polygon fill="white" stroke="#666666" points="92.88,-288.88 48.38,-288.88 48.38,-269.62 92.88,-269.62 92.88,-288.88"/>
<text text-anchor="middle" x="70.62" y="-275.38" font-family="Helvetica,sans-Serif" font-size="10.00">Range</text>
</a>
</g>
</g>
<!-- Node3&#45;&gt;Node1 -->
<g id="edge2" class="edge">
<title>Node3&#45;&gt;Node1</title>
<path fill="none" stroke="#9a32cd" stroke-dasharray="5,2" d="M104.46,-274.33C136.2,-268.79 185.14,-258.13 224.5,-240.25 252.13,-227.69 280.43,-205.87 295.72,-193.18"/>
<polygon fill="#9a32cd" stroke="#9a32cd" points="103.97,-270.87 94.68,-275.96 105.12,-277.77 103.97,-270.87"/>
<text text-anchor="middle" x="191.88" y="-263" font-family="Helvetica,sans-Serif" font-size="10.00"> bcEnts</text>
</g>
<!-- Node4 -->
<g id="node4" class="node">
<title>Node4</title>
<g id="a_node4"><a xlink:title=" ">
<polygon fill="white" stroke="#666666" points="115.38,-251.88 25.88,-251.88 25.88,-232.62 115.38,-232.62 115.38,-251.88"/>
<text text-anchor="middle" x="70.62" y="-238.38" font-family="Helvetica,sans-Serif" font-size="10.00">vector&lt; double &gt;</text>
</a>
</g>
</g>
<!-- Node4&#45;&gt;Node1 -->
<g id="edge3" class="edge">
<title>Node4&#45;&gt;Node1</title>
<path fill="none" stroke="#9a32cd" stroke-dasharray="5,2" d="M127.02,-232.76C156.22,-227.32 192.53,-219.86 224.5,-211.25 243.39,-206.16 264.26,-199.09 280.31,-193.33"/>
<polygon fill="#9a32cd" stroke="#9a32cd" points="126.48,-229.3 117.28,-234.55 127.75,-236.19 126.48,-229.3"/>
<text text-anchor="middle" x="191.88" y="-227" font-family="Helvetica,sans-Serif" font-size="10.00"> bcAttributes</text>
</g>
<!-- Node5 -->
<g id="node5" class="node">
<title>Node5</title>
<g id="a_node5"><a xlink:title=" ">
<polygon fill="white" stroke="#666666" points="131.5,-214.88 9.75,-214.88 9.75,-195.62 131.5,-195.62 131.5,-214.88"/>
<text text-anchor="middle" x="70.62" y="-201.38" font-family="Helvetica,sans-Serif" font-size="10.00">vector&lt; unsigned char &gt;</text>
</a>
</g>
</g>
<!-- Node5&#45;&gt;Node1 -->
<g id="edge4" class="edge">
<title>Node5&#45;&gt;Node1</title>
<path fill="none" stroke="#9a32cd" stroke-dasharray="5,2" d="M143.33,-198.56C174.77,-195.62 211.41,-192.2 242.07,-189.34"/>
<polygon fill="#9a32cd" stroke="#9a32cd" points="143.14,-195.06 133.51,-199.47 143.79,-202.03 143.14,-195.06"/>
<text text-anchor="middle" x="191.88" y="-198" font-family="Helvetica,sans-Serif" font-size="10.00"> bcMarkers</text>
</g>
<!-- Node6 -->
<g id="node6" class="node">
<title>Node6</title>
<g id="a_node6"><a xlink:title=" ">
<polygon fill="white" stroke="#666666" points="141.25,-177.5 0,-177.5 0,-147 141.25,-147 141.25,-177.5"/>
<text text-anchor="start" x="8" y="-164" font-family="Helvetica,sans-Serif" font-size="10.00">shared_ptr&lt; MoFEM::</text>
<text text-anchor="middle" x="70.62" y="-152.75" font-family="Helvetica,sans-Serif" font-size="10.00">DisplacementCubitBcData &gt;</text>
</a>
</g>
</g>
<!-- Node6&#45;&gt;Node1 -->
<g id="edge5" class="edge">
<title>Node6&#45;&gt;Node1</title>
<path fill="none" stroke="#9a32cd" stroke-dasharray="5,2" d="M152.91,-166.35C176.07,-167.81 201.3,-169.69 224.5,-172 230.27,-172.58 236.26,-173.25 242.25,-173.97"/>
<polygon fill="#9a32cd" stroke="#9a32cd" points="153.43,-162.88 143.24,-165.76 153.01,-169.86 153.43,-162.88"/>
<text text-anchor="middle" x="191.88" y="-173" font-family="Helvetica,sans-Serif" font-size="10.00"> dispBcPtr</text>
</g>
<!-- Node7 -->
<g id="node7" class="node">
<title>Node7</title>
<g id="a_node7"><a xlink:title=" ">
<polygon fill="white" stroke="#666666" points="138.25,-128.5 3,-128.5 3,-98 138.25,-98 138.25,-128.5"/>
<text text-anchor="start" x="11" y="-115" font-family="Helvetica,sans-Serif" font-size="10.00">shared_ptr&lt; MoFEM::</text>
<text text-anchor="middle" x="70.62" y="-103.75" font-family="Helvetica,sans-Serif" font-size="10.00">TemperatureCubitBcData &gt;</text>
</a>
</g>
</g>
<!-- Node7&#45;&gt;Node1 -->
<g id="edge6" class="edge">
<title>Node7&#45;&gt;Node1</title>
<path fill="none" stroke="#9a32cd" stroke-dasharray="5,2" d="M149.66,-130.46C173.83,-136.34 200.43,-143.37 224.5,-151 244.93,-157.47 267.57,-166.43 284,-173.26"/>
<polygon fill="#9a32cd" stroke="#9a32cd" points="150.76,-127.12 140.22,-128.19 149.12,-133.93 150.76,-127.12"/>
<text text-anchor="middle" x="191.88" y="-152" font-family="Helvetica,sans-Serif" font-size="10.00"> tempBcPtr</text>
</g>
<!-- Node8 -->
<g id="node8" class="node">
<title>Node8</title>
<g id="a_node8"><a xlink:title=" ">
<polygon fill="white" stroke="#666666" points="131.12,-79.5 10.12,-79.5 10.12,-49 131.12,-49 131.12,-79.5"/>
<text text-anchor="start" x="18.12" y="-66" font-family="Helvetica,sans-Serif" font-size="10.00">shared_ptr&lt; MoFEM::</text>
<text text-anchor="middle" x="70.62" y="-54.75" font-family="Helvetica,sans-Serif" font-size="10.00">HeatFluxCubitBcData &gt;</text>
</a>
</g>
</g>
<!-- Node8&#45;&gt;Node1 -->
<g id="edge7" class="edge">
<title>Node8&#45;&gt;Node1</title>
<path fill="none" stroke="#9a32cd" stroke-dasharray="5,2" d="M141.41,-83.42C168.23,-92.16 198.61,-103.76 224.5,-118 253.03,-133.7 281.89,-159.11 296.83,-173.14"/>
<polygon fill="#9a32cd" stroke="#9a32cd" points="142.57,-80.12 131.98,-80.44 140.46,-86.79 142.57,-80.12"/>
<text text-anchor="middle" x="191.88" y="-119" font-family="Helvetica,sans-Serif" font-size="10.00"> heatFluxBcPtr</text>
</g>
<!-- Node9 -->
<g id="node9" class="node">
<title>Node9</title>
<g id="a_node9"><a xlink:title=" ">
<polygon fill="white" stroke="#666666" points="126.25,-30.5 15,-30.5 15,0 126.25,0 126.25,-30.5"/>
<text text-anchor="start" x="23" y="-17" font-family="Helvetica,sans-Serif" font-size="10.00">shared_ptr&lt; MoFEM::</text>
<text text-anchor="middle" x="70.62" y="-5.75" font-family="Helvetica,sans-Serif" font-size="10.00">ForceCubitBcData &gt;</text>
</a>
</g>
</g>
<!-- Node9&#45;&gt;Node1 -->
<g id="edge8" class="edge">
<title>Node9&#45;&gt;Node1</title>
<path fill="none" stroke="#9a32cd" stroke-dasharray="5,2" d="M137.18,-31.35C165.93,-40.6 198.88,-54.37 224.5,-74 261.89,-102.66 290.95,-152.34 302.19,-173.38"/>
<polygon fill="#9a32cd" stroke="#9a32cd" points="138.43,-28.07 127.84,-28.47 136.37,-34.76 138.43,-28.07"/>
<text text-anchor="middle" x="191.88" y="-75" font-family="Helvetica,sans-Serif" font-size="10.00"> forceBcPtr</text>
</g>
</g>
</svg>
