<?xml version="1.0" encoding="UTF-8" standalone="no"?>
<!DOCTYPE svg PUBLIC "-//W3C//DTD SVG 1.1//EN"
 "http://www.w3.org/Graphics/SVG/1.1/DTD/svg11.dtd">
<!-- Generated by graphviz version 2.43.0 (0)
 -->
<!-- Title: MoFEM::SchurElemMatsPreconditionedBlock Pages: 1 -->
<svg width="680pt" height="334pt"
 viewBox="0.00 0.00 680.00 334.00" xmlns="http://www.w3.org/2000/svg" xmlns:xlink="http://www.w3.org/1999/xlink">
<g id="graph0" class="graph" transform="scale(1 1) rotate(0) translate(4 330)">
<title>MoFEM::SchurElemMatsPreconditionedBlock</title>
<polygon fill="white" stroke="transparent" points="-4,4 -4,-330 676,-330 676,4 -4,4"/>
<!-- Node1 -->
<g id="node1" class="node">
<title>Node1</title>
<g id="a_node1"><a xlink:title=" ">
<polygon fill="#bfbfbf" stroke="black" points="465,-149.5 465,-179.5 672,-179.5 672,-149.5 465,-149.5"/>
<text text-anchor="start" x="473" y="-167.5" font-family="Helvetica,sans-Serif" font-size="10.00">MoFEM::SchurElemMatsPreconditioned</text>
<text text-anchor="middle" x="568.5" y="-156.5" font-family="Helvetica,sans-Serif" font-size="10.00">Block</text>
</a>
</g>
</g>
<!-- Node2 -->
<g id="node2" class="node">
<title>Node2</title>
<g id="a_node2"><a xlink:href="structMoFEM_1_1SchurElemMats.html" target="_top" xlink:title="Schur complement data storage.">
<polygon fill="white" stroke="black" points="294,-155 294,-174 428,-174 428,-155 294,-155"/>
<text text-anchor="middle" x="361" y="-162" font-family="Helvetica,sans-Serif" font-size="10.00">MoFEM::SchurElemMats</text>
</a>
</g>
</g>
<!-- Node2&#45;&gt;Node1 -->
<g id="edge1" class="edge">
<title>Node2&#45;&gt;Node1</title>
<path fill="none" stroke="midnightblue" d="M438.21,-164.5C446.9,-164.5 455.86,-164.5 464.82,-164.5"/>
<polygon fill="midnightblue" stroke="midnightblue" points="438.15,-161 428.15,-164.5 438.15,-168 438.15,-161"/>
</g>
<!-- Node3 -->
<g id="node3" class="node">
<title>Node3</title>
<g id="a_node3"><a xlink:title=" ">
<polygon fill="white" stroke="#bfbfbf" points="0,-295.5 0,-325.5 167,-325.5 167,-295.5 0,-295.5"/>
<text text-anchor="start" x="8" y="-313.5" font-family="Helvetica,sans-Serif" font-size="10.00">boost::enable_shared</text>
<text text-anchor="middle" x="83.5" y="-302.5" font-family="Helvetica,sans-Serif" font-size="10.00">_from_this&lt; SchurElemMats &gt;</text>
</a>
</g>
</g>
<!-- Node3&#45;&gt;Node2 -->
<g id="edge2" class="edge">
<title>Node3&#45;&gt;Node2</title>
<path fill="none" stroke="midnightblue" d="M177.18,-306.74C210.29,-301.98 246.64,-292.59 276,-274.5 317.12,-249.16 345.45,-195.8 355.73,-174.04"/>
<polygon fill="midnightblue" stroke="midnightblue" points="176.48,-303.3 167.01,-308.07 177.38,-310.24 176.48,-303.3"/>
</g>
<!-- Node4 -->
<g id="node4" class="node">
<title>Node4</title>
<g id="a_node4"><a xlink:title=" ">
<polygon fill="white" stroke="#bfbfbf" points="21,-257 21,-276 146,-276 146,-257 21,-257"/>
<text text-anchor="middle" x="83.5" y="-264" font-family="Helvetica,sans-Serif" font-size="10.00">multi_index_container</text>
</a>
</g>
</g>
<!-- Node4&#45;&gt;Node2 -->
<g id="edge3" class="edge">
<title>Node4&#45;&gt;Node2</title>
<path fill="none" stroke="#9a32cd" stroke-dasharray="5,2" d="M156.27,-264.03C193.41,-260.52 238.66,-252.67 276,-235.5 308.27,-220.66 337.99,-189.9 351.83,-174.19"/>
<polygon fill="#9a32cd" stroke="#9a32cd" points="155.69,-260.56 146.02,-264.9 156.29,-267.54 155.69,-260.56"/>
<text text-anchor="middle" x="230.5" y="-262.5" font-family="Helvetica,sans-Serif" font-size="10.00"> schurL2Storage</text>
</g>
<!-- Node5 -->
<g id="node5" class="node">
<title>Node5</title>
<g id="a_node5"><a xlink:title=" ">
<polygon fill="white" stroke="#bfbfbf" points="52.5,-215 52.5,-234 114.5,-234 114.5,-215 52.5,-215"/>
<text text-anchor="middle" x="83.5" y="-222" font-family="Helvetica,sans-Serif" font-size="10.00">uint128_t</text>
</a>
</g>
</g>
<!-- Node5&#45;&gt;Node2 -->
<g id="edge4" class="edge">
<title>Node5&#45;&gt;Node2</title>
<path fill="none" stroke="#9a32cd" stroke-dasharray="5,2" d="M125.06,-219.59C164.08,-214.44 224.57,-205.29 276,-192.5 295.99,-187.53 318.07,-180.09 334.57,-174.13"/>
<polygon fill="#9a32cd" stroke="#9a32cd" points="124.12,-216.19 114.65,-220.94 125.02,-223.13 124.12,-216.19"/>
<text text-anchor="middle" x="230.5" y="-223.5" font-family="Helvetica,sans-Serif" font-size="10.00"> uidCol</text>
<text text-anchor="middle" x="230.5" y="-212.5" font-family="Helvetica,sans-Serif" font-size="10.00">uidRow</text>
</g>
<!-- Node6 -->
<g id="node6" class="node">
<title>Node6</title>
<g id="a_node6"><a xlink:title=" ">
<polygon fill="white" stroke="#bfbfbf" points="46.5,-177 46.5,-196 120.5,-196 120.5,-177 46.5,-177"/>
<text text-anchor="middle" x="83.5" y="-184" font-family="Helvetica,sans-Serif" font-size="10.00">const size_t</text>
</a>
</g>
</g>
<!-- Node6&#45;&gt;Node2 -->
<g id="edge5" class="edge">
<title>Node6&#45;&gt;Node2</title>
<path fill="none" stroke="#9a32cd" stroke-dasharray="5,2" d="M130.5,-182.83C175.16,-179.26 243.4,-173.81 293.87,-169.78"/>
<polygon fill="#9a32cd" stroke="#9a32cd" points="130.21,-179.34 120.52,-183.62 130.76,-186.32 130.21,-179.34"/>
<text text-anchor="middle" x="230.5" y="-180.5" font-family="Helvetica,sans-Serif" font-size="10.00"> iDX</text>
</g>
<!-- Node7 -->
<g id="node7" class="node">
<title>Node7</title>
<g id="a_node7"><a xlink:title=" ">
<polygon fill="white" stroke="#bfbfbf" points="17.5,-137 17.5,-156 149.5,-156 149.5,-137 17.5,-137"/>
<text text-anchor="middle" x="83.5" y="-144" font-family="Helvetica,sans-Serif" font-size="10.00">ptr_vector&lt; VectorInt &gt;</text>
</a>
</g>
</g>
<!-- Node7&#45;&gt;Node2 -->
<g id="edge6" class="edge">
<title>Node7&#45;&gt;Node2</title>
<path fill="none" stroke="#9a32cd" stroke-dasharray="5,2" d="M160.12,-140.53C195.45,-138.96 238,-138.82 276,-143.5 294.05,-145.72 313.81,-150.54 329.62,-154.99"/>
<polygon fill="#9a32cd" stroke="#9a32cd" points="159.7,-137.04 149.88,-141.03 160.04,-144.03 159.7,-137.04"/>
<text text-anchor="middle" x="230.5" y="-157.5" font-family="Helvetica,sans-Serif" font-size="10.00"> rowIndices</text>
<text text-anchor="middle" x="230.5" y="-146.5" font-family="Helvetica,sans-Serif" font-size="10.00">colIndices</text>
</g>
<!-- Node8 -->
<g id="node8" class="node">
<title>Node8</title>
<g id="a_node8"><a xlink:title=" ">
<polygon fill="white" stroke="#bfbfbf" points="46,-99 46,-118 121,-118 121,-99 46,-99"/>
<text text-anchor="middle" x="83.5" y="-106" font-family="Helvetica,sans-Serif" font-size="10.00">static size_t</text>
</a>
</g>
</g>
<!-- Node8&#45;&gt;Node2 -->
<g id="edge7" class="edge">
<title>Node8&#45;&gt;Node2</title>
<path fill="none" stroke="#9a32cd" stroke-dasharray="5,2" d="M131.25,-107.75C170.53,-108.21 227.81,-111.48 276,-124.5 301.11,-131.28 327.86,-145.36 344.25,-154.87"/>
<polygon fill="#9a32cd" stroke="#9a32cd" points="131.19,-104.25 121.17,-107.68 131.15,-111.25 131.19,-104.25"/>
<text text-anchor="middle" x="230.5" y="-127.5" font-family="Helvetica,sans-Serif" font-size="10.00"> maxIndexCounter</text>
</g>
<!-- Node9 -->
<g id="node9" class="node">
<title>Node9</title>
<g id="a_node9"><a xlink:title=" ">
<polygon fill="white" stroke="#bfbfbf" points="24,-49.5 24,-79.5 143,-79.5 143,-49.5 24,-49.5"/>
<text text-anchor="start" x="32" y="-67.5" font-family="Helvetica,sans-Serif" font-size="10.00">ptr_vector&lt; MoFEM::</text>
<text text-anchor="middle" x="83.5" y="-56.5" font-family="Helvetica,sans-Serif" font-size="10.00">SchurElemMats &gt;</text>
</a>
</g>
</g>
<!-- Node9&#45;&gt;Node2 -->
<g id="edge8" class="edge">
<title>Node9&#45;&gt;Node2</title>
<path fill="none" stroke="#9a32cd" stroke-dasharray="5,2" d="M153.72,-66.42C191.29,-69.62 237.75,-77.19 276,-94.5 308.17,-109.06 337.93,-139.42 351.81,-154.93"/>
<polygon fill="#9a32cd" stroke="#9a32cd" points="153.61,-62.9 143.37,-65.63 153.07,-69.88 153.61,-62.9"/>
<text text-anchor="middle" x="230.5" y="-97.5" font-family="Helvetica,sans-Serif" font-size="10.00"> schurElemMats</text>
</g>
<!-- Node10 -->
<g id="node10" class="node">
<title>Node10</title>
<g id="a_node10"><a xlink:title=" ">
<polygon fill="white" stroke="#bfbfbf" points="15,-0.5 15,-30.5 152,-30.5 152,-0.5 15,-0.5"/>
<text text-anchor="start" x="23" y="-18.5" font-family="Helvetica,sans-Serif" font-size="10.00">ptr_vector&lt; UBlasMatrix</text>
<text text-anchor="middle" x="83.5" y="-7.5" font-family="Helvetica,sans-Serif" font-size="10.00">&lt; double &gt; &gt;</text>
</a>
</g>
</g>
<!-- Node10&#45;&gt;Node2 -->
<g id="edge9" class="edge">
<title>Node10&#45;&gt;Node2</title>
<path fill="none" stroke="#9a32cd" stroke-dasharray="5,2" d="M162.36,-19.34C199.1,-24.14 242.2,-34.31 276,-55.5 316.48,-80.88 344.98,-133.13 355.51,-154.78"/>
<polygon fill="#9a32cd" stroke="#9a32cd" points="162.52,-15.84 152.17,-18.13 161.69,-22.79 162.52,-15.84"/>
<text text-anchor="middle" x="230.5" y="-58.5" font-family="Helvetica,sans-Serif" font-size="10.00"> locMats</text>
</g>
</g>
</svg>
