<?xml version="1.0" encoding="UTF-8" standalone="no"?>
<!DOCTYPE svg PUBLIC "-//W3C//DTD SVG 1.1//EN"
 "http://www.w3.org/Graphics/SVG/1.1/DTD/svg11.dtd">
<!-- Generated by graphviz version 9.0.0 (20230911.1827)
 -->
<!-- Title: MoFEM::BaseFunction Pages: 1 -->
<svg width="908pt" height="409pt"
 viewBox="0.00 0.00 907.75 408.88" xmlns="http://www.w3.org/2000/svg" xmlns:xlink="http://www.w3.org/1999/xlink">
<g id="graph0" class="graph" transform="scale(1 1) rotate(0) translate(4 404.88)">
<title>MoFEM::BaseFunction</title>
<!-- Node1 -->
<g id="node1" class="node">
<title>Node1</title>
<g id="a_node1"><a xlink:title="Base class if inherited used to calculate base functions.">
<polygon fill="#999999" stroke="#666666" points="482.25,-204.25 365.75,-204.25 365.75,-185 482.25,-185 482.25,-204.25"/>
<text text-anchor="middle" x="424" y="-190.75" font-family="Helvetica,sans-Serif" font-size="10.00">MoFEM::BaseFunction</text>
</a>
</g>
</g>
<!-- Node4 -->
<g id="node4" class="node">
<title>Node4</title>
<g id="a_node4"><a xlink:href="struct_eshelbian_plasticity_1_1_c_g_g_user_polynomial_base.html" target="_top" xlink:title=" ">
<polygon fill="white" stroke="#666666" points="670.75,-400.88 534.75,-400.88 534.75,-370.38 670.75,-370.38 670.75,-400.88"/>
<text text-anchor="start" x="542.75" y="-387.38" font-family="Helvetica,sans-Serif" font-size="10.00">EshelbianPlasticity</text>
<text text-anchor="middle" x="602.75" y="-376.12" font-family="Helvetica,sans-Serif" font-size="10.00">::CGGUserPolynomialBase</text>
</a>
</g>
</g>
<!-- Node1&#45;&gt;Node4 -->
<g id="edge3" class="edge">
<title>Node1&#45;&gt;Node4</title>
<path fill="none" stroke="#63b8ff" d="M430.92,-215.58C442.02,-251.06 469.38,-322.85 518.25,-361.62 523.21,-365.56 528.79,-368.85 534.66,-371.61"/>
<polygon fill="#63b8ff" stroke="#63b8ff" points="434.31,-214.7 428.09,-206.12 427.6,-216.7 434.31,-214.7"/>
</g>
<!-- Node5 -->
<g id="node5" class="node">
<title>Node5</title>
<g id="a_node5"><a xlink:href="struct_mo_f_e_m_1_1_edge_polynomial_base.html" target="_top" xlink:title="Calculate base functions on tetrahedral.">
<polygon fill="white" stroke="#666666" points="677.5,-352.25 528,-352.25 528,-333 677.5,-333 677.5,-352.25"/>
<text text-anchor="middle" x="602.75" y="-338.75" font-family="Helvetica,sans-Serif" font-size="10.00">MoFEM::EdgePolynomialBase</text>
</a>
</g>
</g>
<!-- Node1&#45;&gt;Node5 -->
<g id="edge4" class="edge">
<title>Node1&#45;&gt;Node5</title>
<path fill="none" stroke="#63b8ff" d="M433.7,-214.9C447.3,-244.02 476.42,-297.19 518.25,-324.62 523.09,-327.8 528.39,-330.42 533.9,-332.59"/>
<polygon fill="#63b8ff" stroke="#63b8ff" points="437.03,-213.76 429.73,-206.07 430.64,-216.63 437.03,-213.76"/>
</g>
<!-- Node6 -->
<g id="node6" class="node">
<title>Node6</title>
<g id="a_node6"><a xlink:href="struct_mo_f_e_m_1_1_fat_prism_polynomial_base.html" target="_top" xlink:title="Calculate base functions on tetrahedralFIXME: Need moab and mofem finite element structure to work (t...">
<polygon fill="white" stroke="#666666" points="686.12,-315.25 519.38,-315.25 519.38,-296 686.12,-296 686.12,-315.25"/>
<text text-anchor="middle" x="602.75" y="-301.75" font-family="Helvetica,sans-Serif" font-size="10.00">MoFEM::FatPrismPolynomialBase</text>
</a>
</g>
</g>
<!-- Node1&#45;&gt;Node6 -->
<g id="edge5" class="edge">
<title>Node1&#45;&gt;Node6</title>
<path fill="none" stroke="#63b8ff" d="M438.67,-213.73C455.08,-235.17 484.61,-269.33 518.25,-287.62 524.11,-290.81 530.49,-293.44 537.03,-295.6"/>
<polygon fill="#63b8ff" stroke="#63b8ff" points="441.58,-211.77 432.81,-205.83 435.96,-215.95 441.58,-211.77"/>
</g>
<!-- Node7 -->
<g id="node7" class="node">
<title>Node7</title>
<g id="a_node7"><a xlink:href="struct_mo_f_e_m_1_1_flat_prism_polynomial_base.html" target="_top" xlink:title="Calculate base functions on tetrahedralFIXME: Need moab and mofem finite element structure to work (t...">
<polygon fill="white" stroke="#666666" points="687.25,-278.25 518.25,-278.25 518.25,-259 687.25,-259 687.25,-278.25"/>
<text text-anchor="middle" x="602.75" y="-264.75" font-family="Helvetica,sans-Serif" font-size="10.00">MoFEM::FlatPrismPolynomialBase</text>
</a>
</g>
</g>
<!-- Node1&#45;&gt;Node7 -->
<g id="edge6" class="edge">
<title>Node1&#45;&gt;Node7</title>
<path fill="none" stroke="#63b8ff" d="M447.67,-211.15C465.9,-223.7 492.62,-240.49 518.25,-250.62 526.11,-253.73 534.61,-256.35 543.07,-258.54"/>
<polygon fill="#63b8ff" stroke="#63b8ff" points="449.9,-208.44 439.71,-205.55 445.87,-214.17 449.9,-208.44"/>
</g>
<!-- Node8 -->
<g id="node8" class="node">
<title>Node8</title>
<g id="a_node8"><a xlink:href="struct_mo_f_e_m_1_1_hex_polynomial_base.html" target="_top" xlink:title="Calculate base functions on tetrahedral.">
<polygon fill="white" stroke="#666666" points="675.25,-241.25 530.25,-241.25 530.25,-222 675.25,-222 675.25,-241.25"/>
<text text-anchor="middle" x="602.75" y="-227.75" font-family="Helvetica,sans-Serif" font-size="10.00">MoFEM::HexPolynomialBase</text>
</a>
</g>
</g>
<!-- Node1&#45;&gt;Node8 -->
<g id="edge7" class="edge">
<title>Node1&#45;&gt;Node8</title>
<path fill="none" stroke="#63b8ff" d="M484.42,-207.06C506.9,-211.77 532.18,-217.06 553.51,-221.53"/>
<polygon fill="#63b8ff" stroke="#63b8ff" points="485.28,-203.67 474.78,-205.05 483.85,-210.52 485.28,-203.67"/>
</g>
<!-- Node9 -->
<g id="node9" class="node">
<title>Node9</title>
<g id="a_node9"><a xlink:href="struct_mo_f_e_m_1_1_jacobi_polynomial.html" target="_top" xlink:title="Calculating Legendre base functions.">
<polygon fill="white" stroke="#666666" points="669.25,-204.25 536.25,-204.25 536.25,-185 669.25,-185 669.25,-204.25"/>
<text text-anchor="middle" x="602.75" y="-190.75" font-family="Helvetica,sans-Serif" font-size="10.00">MoFEM::JacobiPolynomial</text>
</a>
</g>
</g>
<!-- Node1&#45;&gt;Node9 -->
<g id="edge8" class="edge">
<title>Node1&#45;&gt;Node9</title>
<path fill="none" stroke="#63b8ff" d="M493.79,-194.62C507.58,-194.62 522.05,-194.62 535.75,-194.62"/>
<polygon fill="#63b8ff" stroke="#63b8ff" points="493.9,-191.13 483.9,-194.63 493.9,-198.13 493.9,-191.13"/>
</g>
<!-- Node11 -->
<g id="node11" class="node">
<title>Node11</title>
<g id="a_node11"><a xlink:href="struct_mo_f_e_m_1_1_legendre_polynomial.html" target="_top" xlink:title="Calculating Legendre base functions.">
<polygon fill="white" stroke="#666666" points="674.88,-167.25 530.62,-167.25 530.62,-148 674.88,-148 674.88,-167.25"/>
<text text-anchor="middle" x="602.75" y="-153.75" font-family="Helvetica,sans-Serif" font-size="10.00">MoFEM::LegendrePolynomial</text>
</a>
</g>
</g>
<!-- Node1&#45;&gt;Node11 -->
<g id="edge10" class="edge">
<title>Node1&#45;&gt;Node11</title>
<path fill="none" stroke="#63b8ff" d="M484.42,-182.19C506.9,-177.48 532.18,-172.19 553.51,-167.72"/>
<polygon fill="#63b8ff" stroke="#63b8ff" points="483.85,-178.73 474.78,-184.2 485.28,-185.58 483.85,-178.73"/>
</g>
<!-- Node14 -->
<g id="node14" class="node">
<title>Node14</title>
<g id="a_node14"><a xlink:href="struct_mo_f_e_m_1_1_quad_polynomial_base.html" target="_top" xlink:title="Calculate base functions on triangle.">
<polygon fill="white" stroke="#666666" points="677.88,-130.25 527.62,-130.25 527.62,-111 677.88,-111 677.88,-130.25"/>
<text text-anchor="middle" x="602.75" y="-116.75" font-family="Helvetica,sans-Serif" font-size="10.00">MoFEM::QuadPolynomialBase</text>
</a>
</g>
</g>
<!-- Node1&#45;&gt;Node14 -->
<g id="edge13" class="edge">
<title>Node1&#45;&gt;Node14</title>
<path fill="none" stroke="#63b8ff" d="M447.67,-178.1C465.9,-165.55 492.62,-148.76 518.25,-138.62 526.11,-135.52 534.61,-132.9 543.07,-130.71"/>
<polygon fill="#63b8ff" stroke="#63b8ff" points="445.87,-175.08 439.71,-183.7 449.9,-180.81 445.87,-175.08"/>
</g>
<!-- Node15 -->
<g id="node15" class="node">
<title>Node15</title>
<g id="a_node15"><a xlink:href="struct_mo_f_e_m_1_1_tet_polynomial_base.html" target="_top" xlink:title="Calculate base functions on tetrahedral.">
<polygon fill="white" stroke="#666666" points="673,-93.25 532.5,-93.25 532.5,-74 673,-74 673,-93.25"/>
<text text-anchor="middle" x="602.75" y="-79.75" font-family="Helvetica,sans-Serif" font-size="10.00">MoFEM::TetPolynomialBase</text>
</a>
</g>
</g>
<!-- Node1&#45;&gt;Node15 -->
<g id="edge14" class="edge">
<title>Node1&#45;&gt;Node15</title>
<path fill="none" stroke="#63b8ff" d="M438.67,-175.52C455.08,-154.08 484.61,-119.92 518.25,-101.62 524.11,-98.44 530.49,-95.81 537.03,-93.65"/>
<polygon fill="#63b8ff" stroke="#63b8ff" points="435.96,-173.3 432.81,-183.42 441.58,-177.48 435.96,-173.3"/>
</g>
<!-- Node16 -->
<g id="node16" class="node">
<title>Node16</title>
<g id="a_node16"><a xlink:href="struct_mo_f_e_m_1_1_tri_polynomial_base.html" target="_top" xlink:title="Calculate base functions on triangle.">
<polygon fill="white" stroke="#666666" points="671.88,-56.25 533.62,-56.25 533.62,-37 671.88,-37 671.88,-56.25"/>
<text text-anchor="middle" x="602.75" y="-42.75" font-family="Helvetica,sans-Serif" font-size="10.00">MoFEM::TriPolynomialBase</text>
</a>
</g>
</g>
<!-- Node1&#45;&gt;Node16 -->
<g id="edge15" class="edge">
<title>Node1&#45;&gt;Node16</title>
<path fill="none" stroke="#63b8ff" d="M433.7,-174.35C447.3,-145.23 476.42,-92.06 518.25,-64.62 523.09,-61.45 528.39,-58.83 533.9,-56.66"/>
<polygon fill="#63b8ff" stroke="#63b8ff" points="430.64,-172.62 429.73,-183.18 437.03,-175.49 430.64,-172.62"/>
</g>
<!-- Node17 -->
<g id="node17" class="node">
<title>Node17</title>
<g id="a_node17"><a xlink:href="struct_some_user_polynomial_base.html" target="_top" xlink:title="Class used to calculate base functions at integration points.">
<polygon fill="white" stroke="#666666" points="669.25,-19.25 536.25,-19.25 536.25,0 669.25,0 669.25,-19.25"/>
<text text-anchor="middle" x="602.75" y="-5.75" font-family="Helvetica,sans-Serif" font-size="10.00">SomeUserPolynomialBase</text>
</a>
</g>
</g>
<!-- Node1&#45;&gt;Node17 -->
<g id="edge16" class="edge">
<title>Node1&#45;&gt;Node17</title>
<path fill="none" stroke="#63b8ff" d="M430.49,-173.82C441.09,-137.99 467.86,-64.9 518.25,-27.62 523.61,-23.66 529.67,-20.53 536.02,-18.06"/>
<polygon fill="#63b8ff" stroke="#63b8ff" points="427.15,-172.79 427.82,-183.36 433.89,-174.68 427.15,-172.79"/>
</g>
<!-- Node2 -->
<g id="node2" class="node">
<title>Node2</title>
<g id="a_node2"><a xlink:href="struct_mo_f_e_m_1_1_base_function_unknown_interface.html" target="_top" xlink:title=" ">
<polygon fill="white" stroke="#666666" points="329.75,-209.88 172,-209.88 172,-179.38 329.75,-179.38 329.75,-209.88"/>
<text text-anchor="start" x="180" y="-196.38" font-family="Helvetica,sans-Serif" font-size="10.00">MoFEM::BaseFunctionUnknown</text>
<text text-anchor="middle" x="250.88" y="-185.12" font-family="Helvetica,sans-Serif" font-size="10.00">Interface</text>
</a>
</g>
</g>
<!-- Node2&#45;&gt;Node1 -->
<g id="edge1" class="edge">
<title>Node2&#45;&gt;Node1</title>
<path fill="none" stroke="#63b8ff" d="M341.39,-194.62C349.5,-194.62 357.56,-194.62 365.28,-194.62"/>
<polygon fill="#63b8ff" stroke="#63b8ff" points="341.44,-191.13 331.44,-194.63 341.44,-198.13 341.44,-191.13"/>
</g>
<!-- Node3 -->
<g id="node3" class="node">
<title>Node3</title>
<g id="a_node3"><a xlink:href="struct_mo_f_e_m_1_1_unknown_interface.html" target="_top" xlink:title="base class for all interface classes">
<polygon fill="white" stroke="#666666" points="136,-204.25 0,-204.25 0,-185 136,-185 136,-204.25"/>
<text text-anchor="middle" x="68" y="-190.75" font-family="Helvetica,sans-Serif" font-size="10.00">MoFEM::UnknownInterface</text>
</a>
</g>
</g>
<!-- Node3&#45;&gt;Node2 -->
<g id="edge2" class="edge">
<title>Node3&#45;&gt;Node2</title>
<path fill="none" stroke="#63b8ff" d="M147.59,-194.62C155.62,-194.62 163.77,-194.62 171.79,-194.62"/>
<polygon fill="#63b8ff" stroke="#63b8ff" points="147.86,-191.13 137.86,-194.63 147.86,-198.13 147.86,-191.13"/>
</g>
<!-- Node10 -->
<g id="node10" class="node">
<title>Node10</title>
<g id="a_node10"><a xlink:href="struct_mo_f_e_m_1_1_integrated_jacobi_polynomial.html" target="_top" xlink:title=" ">
<polygon fill="white" stroke="#666666" points="899.75,-204.25 723.25,-204.25 723.25,-185 899.75,-185 899.75,-204.25"/>
<text text-anchor="middle" x="811.5" y="-190.75" font-family="Helvetica,sans-Serif" font-size="10.00">MoFEM::IntegratedJacobiPolynomial</text>
</a>
</g>
</g>
<!-- Node9&#45;&gt;Node10 -->
<g id="edge9" class="edge">
<title>Node9&#45;&gt;Node10</title>
<path fill="none" stroke="#63b8ff" d="M681.02,-194.62C694.67,-194.62 708.97,-194.62 722.88,-194.62"/>
<polygon fill="#63b8ff" stroke="#63b8ff" points="681.25,-191.13 671.25,-194.63 681.25,-198.13 681.25,-191.13"/>
</g>
<!-- Node12 -->
<g id="node12" class="node">
<title>Node12</title>
<g id="a_node12"><a xlink:href="struct_mo_f_e_m_1_1_kernel_lobatto_polynomial.html" target="_top" xlink:title="Calculating Lobatto base functions.">
<polygon fill="white" stroke="#666666" points="893.75,-167.25 729.25,-167.25 729.25,-148 893.75,-148 893.75,-167.25"/>
<text text-anchor="middle" x="811.5" y="-153.75" font-family="Helvetica,sans-Serif" font-size="10.00">MoFEM::KernelLobattoPolynomial</text>
</a>
</g>
</g>
<!-- Node11&#45;&gt;Node12 -->
<g id="edge11" class="edge">
<title>Node11&#45;&gt;Node12</title>
<path fill="none" stroke="#63b8ff" d="M686.69,-157.62C700.56,-157.62 714.93,-157.62 728.77,-157.62"/>
<polygon fill="#63b8ff" stroke="#63b8ff" points="686.7,-154.13 676.7,-157.63 686.7,-161.13 686.7,-154.13"/>
</g>
<!-- Node13 -->
<g id="node13" class="node">
<title>Node13</title>
<g id="a_node13"><a xlink:href="struct_mo_f_e_m_1_1_lobatto_polynomial.html" target="_top" xlink:title="Calculating Lobatto base functions.">
<polygon fill="white" stroke="#666666" points="879.88,-130.25 743.12,-130.25 743.12,-111 879.88,-111 879.88,-130.25"/>
<text text-anchor="middle" x="811.5" y="-116.75" font-family="Helvetica,sans-Serif" font-size="10.00">MoFEM::LobattoPolynomial</text>
</a>
</g>
</g>
<!-- Node11&#45;&gt;Node13 -->
<g id="edge12" class="edge">
<title>Node11&#45;&gt;Node13</title>
<path fill="none" stroke="#63b8ff" d="M671.46,-145.51C698.19,-140.72 728.56,-135.29 754.07,-130.72"/>
<polygon fill="#63b8ff" stroke="#63b8ff" points="670.96,-142.04 661.74,-147.25 672.2,-148.93 670.96,-142.04"/>
</g>
</g>
</svg>
