<?xml version="1.0" encoding="UTF-8" standalone="no"?>
<!DOCTYPE svg PUBLIC "-//W3C//DTD SVG 1.1//EN"
 "http://www.w3.org/Graphics/SVG/1.1/DTD/svg11.dtd">
<!-- Generated by graphviz version 9.0.0 (20230911.1827)
 -->
<!-- Title: MoFEM::OpGradGradSymTensorGradGradImpl&lt; 1, 1, SPACE_DIM, S, GAUSS, OpBase &gt; Pages: 1 -->
<svg width="169pt" height="160pt"
 viewBox="0.00 0.00 168.75 160.25" xmlns="http://www.w3.org/2000/svg" xmlns:xlink="http://www.w3.org/1999/xlink">
<g id="graph0" class="graph" transform="scale(1 1) rotate(0) translate(4 156.25)">
<title>MoFEM::OpGradGradSymTensorGradGradImpl&lt; 1, 1, SPACE_DIM, S, GAUSS, OpBase &gt;</title>
<!-- Node1 -->
<g id="node1" class="node">
<title>Node1</title>
<g id="a_node1"><a xlink:title=" ">
<polygon fill="#999999" stroke="#666666" points="160.75,-41.75 0,-41.75 0,0 160.75,0 160.75,-41.75"/>
<text text-anchor="start" x="8" y="-28.25" font-family="Helvetica,sans-Serif" font-size="10.00">MoFEM::OpGradGradSymTensor</text>
<text text-anchor="start" x="8" y="-17" font-family="Helvetica,sans-Serif" font-size="10.00">GradGradImpl&lt; 1, 1, SPACE</text>
<text text-anchor="middle" x="80.38" y="-5.75" font-family="Helvetica,sans-Serif" font-size="10.00">_DIM, S, GAUSS, OpBase &gt;</text>
</a>
</g>
</g>
<!-- Node2 -->
<g id="node2" class="node">
<title>Node2</title>
<g id="a_node2"><a xlink:href="struct_mo_f_e_m_1_1_op_base_impl.html" target="_top" xlink:title=" ">
<polygon fill="white" stroke="#666666" points="106,-97 54.75,-97 54.75,-77.75 106,-77.75 106,-97"/>
<text text-anchor="middle" x="80.38" y="-83.5" font-family="Helvetica,sans-Serif" font-size="10.00">OpBase</text>
</a>
</g>
</g>
<!-- Node2&#45;&gt;Node1 -->
<g id="edge1" class="edge">
<title>Node2&#45;&gt;Node1</title>
<path fill="none" stroke="#63b8ff" d="M80.38,-65.95C80.38,-58.36 80.38,-49.76 80.38,-42.18"/>
<polygon fill="#63b8ff" stroke="#63b8ff" points="76.88,-65.89 80.38,-75.89 83.88,-65.89 76.88,-65.89"/>
</g>
<!-- Node3 -->
<g id="node3" class="node">
<title>Node3</title>
<g id="a_node3"><a xlink:title=" ">
<polygon fill="white" stroke="#666666" points="101.88,-152.25 58.88,-152.25 58.88,-133 101.88,-133 101.88,-152.25"/>
<text text-anchor="middle" x="80.38" y="-138.75" font-family="Helvetica,sans-Serif" font-size="10.00">EleOp</text>
</a>
</g>
</g>
<!-- Node3&#45;&gt;Node2 -->
<g id="edge2" class="edge">
<title>Node3&#45;&gt;Node2</title>
<path fill="none" stroke="#63b8ff" d="M80.38,-121.38C80.38,-113.09 80.38,-103.92 80.38,-97.36"/>
<polygon fill="#63b8ff" stroke="#63b8ff" points="76.88,-121.32 80.38,-131.32 83.88,-121.32 76.88,-121.32"/>
</g>
</g>
</svg>
