<?xml version="1.0" encoding="UTF-8" standalone="no"?>
<!DOCTYPE svg PUBLIC "-//W3C//DTD SVG 1.1//EN"
 "http://www.w3.org/Graphics/SVG/1.1/DTD/svg11.dtd">
<!-- Generated by graphviz version 2.43.0 (0)
 -->
<!-- Title: SphericalArcLengthControl Pages: 1 -->
<svg width="1821pt" height="286pt"
 viewBox="0.00 0.00 1821.00 286.00" xmlns="http://www.w3.org/2000/svg" xmlns:xlink="http://www.w3.org/1999/xlink">
<g id="graph0" class="graph" transform="scale(1 1) rotate(0) translate(4 282)">
<title>SphericalArcLengthControl</title>
<polygon fill="white" stroke="transparent" points="-4,4 -4,-282 1817,-282 1817,4 -4,4"/>
<!-- Node1 -->
<g id="node1" class="node">
<title>Node1</title>
<g id="a_node1"><a xlink:title="Implementation of spherical arc&#45;length method.">
<polygon fill="#bfbfbf" stroke="black" points="1667,-57.5 1667,-76.5 1813,-76.5 1813,-57.5 1667,-57.5"/>
<text text-anchor="middle" x="1740" y="-64.5" font-family="Helvetica,sans-Serif" font-size="10.00">SphericalArcLengthControl</text>
</a>
</g>
</g>
<!-- Node2 -->
<g id="node2" class="node">
<title>Node2</title>
<g id="a_node2"><a xlink:href="classFEMethod.html" target="_top" xlink:title=" ">
<polygon fill="white" stroke="black" points="1467.5,-95.5 1467.5,-114.5 1532.5,-114.5 1532.5,-95.5 1467.5,-95.5"/>
<text text-anchor="middle" x="1500" y="-102.5" font-family="Helvetica,sans-Serif" font-size="10.00">FEMethod</text>
</a>
</g>
</g>
<!-- Node2&#45;&gt;Node1 -->
<g id="edge1" class="edge">
<title>Node2&#45;&gt;Node1</title>
<path fill="none" stroke="midnightblue" d="M1542.77,-98.63C1572.43,-94.08 1613.18,-87.77 1649,-82 1659.79,-80.26 1671.3,-78.37 1682.36,-76.54"/>
<polygon fill="midnightblue" stroke="midnightblue" points="1542.13,-95.19 1532.77,-100.17 1543.19,-102.11 1542.13,-95.19"/>
</g>
<!-- Node3 -->
<g id="node3" class="node">
<title>Node3</title>
<g id="a_node3"><a xlink:href="structArcLengthCtx.html" target="_top" xlink:title="Store variables for ArcLength analysis.">
<polygon fill="white" stroke="black" points="1459,-57.5 1459,-76.5 1541,-76.5 1541,-57.5 1459,-57.5"/>
<text text-anchor="middle" x="1500" y="-64.5" font-family="Helvetica,sans-Serif" font-size="10.00">ArcLengthCtx</text>
</a>
</g>
</g>
<!-- Node3&#45;&gt;Node1 -->
<g id="edge2" class="edge">
<title>Node3&#45;&gt;Node1</title>
<path fill="none" stroke="#9a32cd" stroke-dasharray="5,2" d="M1551.15,-67C1584.76,-67 1629.52,-67 1666.93,-67"/>
<polygon fill="#9a32cd" stroke="#9a32cd" points="1551.1,-63.5 1541.1,-67 1551.1,-70.5 1551.1,-63.5"/>
<text text-anchor="middle" x="1622.5" y="-70" font-family="Helvetica,sans-Serif" font-size="10.00"> arcPtrRaw</text>
</g>
<!-- Node4 -->
<g id="node4" class="node">
<title>Node4</title>
<g id="a_node4"><a xlink:href="structMoFEM_1_1SmartPetscObj.html" target="_top" xlink:title=" ">
<polygon fill="white" stroke="black" points="1155,-181 1155,-211 1286,-211 1286,-181 1155,-181"/>
<text text-anchor="start" x="1163" y="-199" font-family="Helvetica,sans-Serif" font-size="10.00">MoFEM::SmartPetscObj</text>
<text text-anchor="middle" x="1220.5" y="-188" font-family="Helvetica,sans-Serif" font-size="10.00">&lt; Vec &gt;</text>
</a>
</g>
</g>
<!-- Node4&#45;&gt;Node3 -->
<g id="edge3" class="edge">
<title>Node4&#45;&gt;Node3</title>
<path fill="none" stroke="#9a32cd" stroke-dasharray="5,2" d="M1296.5,-203.97C1333.28,-203.68 1375.66,-196.44 1404,-170 1431.92,-143.96 1395.42,-113.41 1422,-86 1431.58,-76.11 1445.43,-71.05 1458.75,-68.56"/>
<polygon fill="#9a32cd" stroke="#9a32cd" points="1296.32,-200.47 1286.29,-203.88 1296.26,-207.47 1296.32,-200.47"/>
<text text-anchor="middle" x="1366.5" y="-270" font-family="Helvetica,sans-Serif" font-size="10.00"> dx</text>
<text text-anchor="middle" x="1366.5" y="-259" font-family="Helvetica,sans-Serif" font-size="10.00">ghosTdLambda</text>
<text text-anchor="middle" x="1366.5" y="-248" font-family="Helvetica,sans-Serif" font-size="10.00">ghostDiag</text>
<text text-anchor="middle" x="1366.5" y="-237" font-family="Helvetica,sans-Serif" font-size="10.00">xLambda</text>
<text text-anchor="middle" x="1366.5" y="-226" font-family="Helvetica,sans-Serif" font-size="10.00">x0</text>
<text text-anchor="middle" x="1366.5" y="-215" font-family="Helvetica,sans-Serif" font-size="10.00">db</text>
<text text-anchor="middle" x="1366.5" y="-204" font-family="Helvetica,sans-Serif" font-size="10.00">F_lambda</text>
</g>
<!-- Node5 -->
<g id="node5" class="node">
<title>Node5</title>
<g id="a_node5"><a xlink:title=" ">
<polygon fill="white" stroke="#bfbfbf" points="922.5,-202.5 922.5,-243.5 1048.5,-243.5 1048.5,-202.5 922.5,-202.5"/>
<text text-anchor="start" x="930.5" y="-231.5" font-family="Helvetica,sans-Serif" font-size="10.00">boost::intrusive_ptr</text>
<text text-anchor="start" x="930.5" y="-220.5" font-family="Helvetica,sans-Serif" font-size="10.00">&lt; std::remove_pointer</text>
<text text-anchor="middle" x="985.5" y="-209.5" font-family="Helvetica,sans-Serif" font-size="10.00">&lt; Vec &gt;::type &gt;</text>
</a>
</g>
</g>
<!-- Node5&#45;&gt;Node4 -->
<g id="edge4" class="edge">
<title>Node5&#45;&gt;Node4</title>
<path fill="none" stroke="midnightblue" d="M1058.83,-214.62C1089.48,-211.07 1124.91,-206.96 1154.69,-203.51"/>
<polygon fill="midnightblue" stroke="midnightblue" points="1058.16,-211.17 1048.63,-215.8 1058.97,-218.13 1058.16,-211.17"/>
</g>
<!-- Node6 -->
<g id="node6" class="node">
<title>Node6</title>
<g id="a_node6"><a xlink:href="structMoFEM_1_1SmartPetscObj.html" target="_top" xlink:title="intrusive_ptr for managing petsc objects">
<polygon fill="white" stroke="black" points="920,-153 920,-183 1051,-183 1051,-153 920,-153"/>
<text text-anchor="start" x="928" y="-171" font-family="Helvetica,sans-Serif" font-size="10.00">MoFEM::SmartPetscObj</text>
<text text-anchor="middle" x="985.5" y="-160" font-family="Helvetica,sans-Serif" font-size="10.00">&lt; OBJ &gt;</text>
</a>
</g>
</g>
<!-- Node6&#45;&gt;Node4 -->
<g id="edge5" class="edge">
<title>Node6&#45;&gt;Node4</title>
<path fill="none" stroke="orange" stroke-dasharray="5,2" d="M1061.14,-176.97C1091.27,-180.59 1125.72,-184.73 1154.78,-188.22"/>
<polygon fill="orange" stroke="orange" points="1061.44,-173.48 1051.09,-175.76 1060.61,-180.43 1061.44,-173.48"/>
<text text-anchor="middle" x="1090.5" y="-185" font-family="Helvetica,sans-Serif" font-size="10.00"> &lt; Vec &gt;</text>
</g>
<!-- Node7 -->
<g id="node7" class="node">
<title>Node7</title>
<g id="a_node7"><a xlink:title=" ">
<polygon fill="white" stroke="#bfbfbf" points="746,-147.5 746,-188.5 872,-188.5 872,-147.5 746,-147.5"/>
<text text-anchor="start" x="754" y="-176.5" font-family="Helvetica,sans-Serif" font-size="10.00">boost::intrusive_ptr</text>
<text text-anchor="start" x="754" y="-165.5" font-family="Helvetica,sans-Serif" font-size="10.00">&lt; std::remove_pointer</text>
<text text-anchor="middle" x="809" y="-154.5" font-family="Helvetica,sans-Serif" font-size="10.00">&lt; OBJ &gt;::type &gt;</text>
</a>
</g>
</g>
<!-- Node7&#45;&gt;Node6 -->
<g id="edge6" class="edge">
<title>Node7&#45;&gt;Node6</title>
<path fill="none" stroke="midnightblue" d="M882.31,-168C894.72,-168 907.54,-168 919.74,-168"/>
<polygon fill="midnightblue" stroke="midnightblue" points="882.01,-164.5 872.01,-168 882.01,-171.5 882.01,-164.5"/>
</g>
<!-- Node8 -->
<g id="node8" class="node">
<title>Node8</title>
<g id="a_node8"><a xlink:href="classdouble.html" target="_top" xlink:title=" ">
<polygon fill="white" stroke="black" points="1195.5,-76.5 1195.5,-95.5 1245.5,-95.5 1245.5,-76.5 1195.5,-76.5"/>
<text text-anchor="middle" x="1220.5" y="-83.5" font-family="Helvetica,sans-Serif" font-size="10.00">double</text>
</a>
</g>
</g>
<!-- Node8&#45;&gt;Node3 -->
<g id="edge7" class="edge">
<title>Node8&#45;&gt;Node3</title>
<path fill="none" stroke="#9a32cd" stroke-dasharray="5,2" d="M1255.9,-83.64C1307.36,-80.12 1404.15,-73.49 1458.8,-69.75"/>
<polygon fill="#9a32cd" stroke="#9a32cd" points="1255.38,-80.17 1245.64,-84.35 1255.86,-87.16 1255.38,-80.17"/>
<text text-anchor="middle" x="1366.5" y="-158" font-family="Helvetica,sans-Serif" font-size="10.00"> beta</text>
<text text-anchor="middle" x="1366.5" y="-147" font-family="Helvetica,sans-Serif" font-size="10.00">F_lambda2</text>
<text text-anchor="middle" x="1366.5" y="-136" font-family="Helvetica,sans-Serif" font-size="10.00">dLambda</text>
<text text-anchor="middle" x="1366.5" y="-125" font-family="Helvetica,sans-Serif" font-size="10.00">alpha</text>
<text text-anchor="middle" x="1366.5" y="-114" font-family="Helvetica,sans-Serif" font-size="10.00">res_lambda</text>
<text text-anchor="middle" x="1366.5" y="-103" font-family="Helvetica,sans-Serif" font-size="10.00">dx2</text>
<text text-anchor="middle" x="1366.5" y="-92" font-family="Helvetica,sans-Serif" font-size="10.00">dIag</text>
<text text-anchor="middle" x="1366.5" y="-81" font-family="Helvetica,sans-Serif" font-size="10.00">s</text>
</g>
<!-- Node9 -->
<g id="node9" class="node">
<title>Node9</title>
<g id="a_node9"><a xlink:href="structMoFEM_1_1DeprecatedCoreInterface.html" target="_top" xlink:title="Deprecated interface functions.">
<polygon fill="white" stroke="black" points="1130,-38.5 1130,-57.5 1311,-57.5 1311,-38.5 1130,-38.5"/>
<text text-anchor="middle" x="1220.5" y="-45.5" font-family="Helvetica,sans-Serif" font-size="10.00">MoFEM::DeprecatedCoreInterface</text>
</a>
</g>
</g>
<!-- Node9&#45;&gt;Node3 -->
<g id="edge8" class="edge">
<title>Node9&#45;&gt;Node3</title>
<path fill="none" stroke="#9a32cd" stroke-dasharray="5,2" d="M1321.3,-52.75C1348.17,-54.23 1377.2,-56 1404,-58 1422.01,-59.35 1441.9,-61.18 1458.81,-62.84"/>
<polygon fill="#9a32cd" stroke="#9a32cd" points="1321.3,-49.25 1311.12,-52.2 1320.92,-56.24 1321.3,-49.25"/>
<text text-anchor="middle" x="1366.5" y="-61" font-family="Helvetica,sans-Serif" font-size="10.00"> mField</text>
</g>
<!-- Node10 -->
<g id="node10" class="node">
<title>Node10</title>
<g id="a_node10"><a xlink:href="structMoFEM_1_1CoreInterface.html" target="_top" xlink:title="Interface.">
<polygon fill="white" stroke="black" points="923,-38.5 923,-57.5 1048,-57.5 1048,-38.5 923,-38.5"/>
<text text-anchor="middle" x="985.5" y="-45.5" font-family="Helvetica,sans-Serif" font-size="10.00">MoFEM::CoreInterface</text>
</a>
</g>
</g>
<!-- Node10&#45;&gt;Node9 -->
<g id="edge9" class="edge">
<title>Node10&#45;&gt;Node9</title>
<path fill="none" stroke="midnightblue" d="M1058.23,-48C1080.9,-48 1106.22,-48 1129.97,-48"/>
<polygon fill="midnightblue" stroke="midnightblue" points="1058.02,-44.5 1048.02,-48 1058.02,-51.5 1058.02,-44.5"/>
</g>
<!-- Node11 -->
<g id="node11" class="node">
<title>Node11</title>
<g id="a_node11"><a xlink:href="structMoFEM_1_1UnknownInterface.html" target="_top" xlink:title="base class for all interface classes">
<polygon fill="white" stroke="black" points="735,-38.5 735,-57.5 883,-57.5 883,-38.5 735,-38.5"/>
<text text-anchor="middle" x="809" y="-45.5" font-family="Helvetica,sans-Serif" font-size="10.00">MoFEM::UnknownInterface</text>
</a>
</g>
</g>
<!-- Node11&#45;&gt;Node10 -->
<g id="edge10" class="edge">
<title>Node11&#45;&gt;Node10</title>
<path fill="none" stroke="midnightblue" d="M893.48,-48C903.35,-48 913.28,-48 922.77,-48"/>
<polygon fill="midnightblue" stroke="midnightblue" points="893.25,-44.5 883.25,-48 893.25,-51.5 893.25,-44.5"/>
</g>
<!-- Node12 -->
<g id="node12" class="node">
<title>Node12</title>
<g id="a_node12"><a xlink:title=" ">
<polygon fill="white" stroke="#bfbfbf" points="386,-16.5 386,-79.5 627,-79.5 627,-16.5 386,-16.5"/>
<text text-anchor="start" x="394" y="-67.5" font-family="Helvetica,sans-Serif" font-size="10.00">multi_index_container</text>
<text text-anchor="start" x="394" y="-56.5" font-family="Helvetica,sans-Serif" font-size="10.00">&lt; UIdTypeMap, indexed</text>
<text text-anchor="start" x="394" y="-45.5" font-family="Helvetica,sans-Serif" font-size="10.00">_by&lt; hashed_unique&lt; member</text>
<text text-anchor="start" x="394" y="-34.5" font-family="Helvetica,sans-Serif" font-size="10.00">&lt; UIdTypeMap, boost::typeindex</text>
<text text-anchor="middle" x="506.5" y="-23.5" font-family="Helvetica,sans-Serif" font-size="10.00">::type_index, &amp;UIdTypeMap::classIdx &gt; &gt; &gt; &gt;</text>
</a>
</g>
</g>
<!-- Node12&#45;&gt;Node11 -->
<g id="edge11" class="edge">
<title>Node12&#45;&gt;Node11</title>
<path fill="none" stroke="#9a32cd" stroke-dasharray="5,2" d="M637.41,-48C670.69,-48 705.33,-48 734.62,-48"/>
<polygon fill="#9a32cd" stroke="#9a32cd" points="637.13,-44.5 627.13,-48 637.13,-51.5 637.13,-44.5"/>
<text text-anchor="middle" x="681" y="-51" font-family="Helvetica,sans-Serif" font-size="10.00"> iFaceTypeMap</text>
</g>
<!-- Node13 -->
<g id="node13" class="node">
<title>Node13</title>
<g id="a_node13"><a xlink:title=" ">
<polygon fill="white" stroke="#bfbfbf" points="0,-38.5 0,-57.5 125,-57.5 125,-38.5 0,-38.5"/>
<text text-anchor="middle" x="62.5" y="-45.5" font-family="Helvetica,sans-Serif" font-size="10.00">multi_index_container</text>
</a>
</g>
</g>
<!-- Node13&#45;&gt;Node12 -->
<g id="edge12" class="edge">
<title>Node13&#45;&gt;Node12</title>
<path fill="none" stroke="orange" stroke-dasharray="5,2" d="M135.56,-48C203.25,-48 305.79,-48 385.77,-48"/>
<polygon fill="orange" stroke="orange" points="135.42,-44.5 125.42,-48 135.42,-51.5 135.42,-44.5"/>
<text text-anchor="start" x="143" y="-84" font-family="Helvetica,sans-Serif" font-size="10.00"> &lt; UIdTypeMap, indexed</text>
<text text-anchor="start" x="143" y="-73" font-family="Helvetica,sans-Serif" font-size="10.00">_by&lt; hashed_unique&lt; member</text>
<text text-anchor="start" x="143" y="-62" font-family="Helvetica,sans-Serif" font-size="10.00">&lt; UIdTypeMap, boost::typeindex</text>
<text text-anchor="middle" x="255.5" y="-51" font-family="Helvetica,sans-Serif" font-size="10.00">::type_index, &amp;UIdTypeMap::classIdx &gt; &gt; &gt; &gt;</text>
</g>
<!-- Node14 -->
<g id="node14" class="node">
<title>Node14</title>
<g id="a_node14"><a xlink:title=" ">
<polygon fill="white" stroke="#bfbfbf" points="1162.5,-0.5 1162.5,-19.5 1278.5,-19.5 1278.5,-0.5 1162.5,-0.5"/>
<text text-anchor="middle" x="1220.5" y="-7.5" font-family="Helvetica,sans-Serif" font-size="10.00">NumeredDofEntity *</text>
</a>
</g>
</g>
<!-- Node14&#45;&gt;Node3 -->
<g id="edge13" class="edge">
<title>Node14&#45;&gt;Node3</title>
<path fill="none" stroke="#9a32cd" stroke-dasharray="5,2" d="M1288.96,-15.74C1323.89,-19.95 1366.88,-27.09 1404,-39 1412.52,-41.73 1413.61,-44.91 1422,-48 1433.76,-52.33 1446.89,-55.98 1458.93,-58.89"/>
<polygon fill="#9a32cd" stroke="#9a32cd" points="1289.19,-12.24 1278.86,-14.57 1288.39,-19.2 1289.19,-12.24"/>
<text text-anchor="middle" x="1366.5" y="-42" font-family="Helvetica,sans-Serif" font-size="10.00"> arcDofRawPtr</text>
</g>
<!-- Node15 -->
<g id="node15" class="node">
<title>Node15</title>
<g id="a_node15"><a xlink:title=" ">
<polygon fill="white" stroke="#bfbfbf" points="1422,-19.5 1422,-38.5 1578,-38.5 1578,-19.5 1422,-19.5"/>
<text text-anchor="middle" x="1500" y="-26.5" font-family="Helvetica,sans-Serif" font-size="10.00">shared_ptr&lt; ArcLengthCtx &gt;</text>
</a>
</g>
</g>
<!-- Node15&#45;&gt;Node1 -->
<g id="edge14" class="edge">
<title>Node15&#45;&gt;Node1</title>
<path fill="none" stroke="#9a32cd" stroke-dasharray="5,2" d="M1573.43,-40.09C1597.49,-43.82 1624.4,-48.04 1649,-52 1659.79,-53.74 1671.3,-55.63 1682.36,-57.46"/>
<polygon fill="#9a32cd" stroke="#9a32cd" points="1573.73,-36.6 1563.31,-38.53 1572.66,-43.52 1573.73,-36.6"/>
<text text-anchor="middle" x="1622.5" y="-55" font-family="Helvetica,sans-Serif" font-size="10.00"> arcPtr</text>
</g>
</g>
</svg>
