<?xml version="1.0" encoding="UTF-8" standalone="no"?>
<!DOCTYPE svg PUBLIC "-//W3C//DTD SVG 1.1//EN"
 "http://www.w3.org/Graphics/SVG/1.1/DTD/svg11.dtd">
<!-- Generated by graphviz version 2.43.0 (0)
 -->
<!-- Title: SimpleContactProblem::OpGetPositionAtGaussPtsMaster Pages: 1 -->
<svg width="308pt" height="117pt"
 viewBox="0.00 0.00 307.50 117.00" xmlns="http://www.w3.org/2000/svg" xmlns:xlink="http://www.w3.org/1999/xlink">
<g id="graph0" class="graph" transform="scale(1 1) rotate(0) translate(4 113)">
<title>SimpleContactProblem::OpGetPositionAtGaussPtsMaster</title>
<polygon fill="white" stroke="transparent" points="-4,4 -4,-113 303.5,-113 303.5,4 -4,4"/>
<!-- Node1 -->
<g id="node1" class="node">
<title>Node1</title>
<g id="a_node1"><a xlink:title="Operator for the simple contact element.">
<polygon fill="#bfbfbf" stroke="black" points="22,-0.5 22,-30.5 204,-30.5 204,-0.5 22,-0.5"/>
<text text-anchor="start" x="30" y="-18.5" font-family="Helvetica,sans-Serif" font-size="10.00">SimpleContactProblem</text>
<text text-anchor="middle" x="113" y="-7.5" font-family="Helvetica,sans-Serif" font-size="10.00">::OpGetPositionAtGaussPtsMaster</text>
</a>
</g>
</g>
<!-- Node2 -->
<g id="node2" class="node">
<title>Node2</title>
<g id="a_node2"><a xlink:href="classContactOp.html" target="_top" xlink:title=" ">
<polygon fill="white" stroke="black" points="0,-84 0,-103 68,-103 68,-84 0,-84"/>
<text text-anchor="middle" x="34" y="-91" font-family="Helvetica,sans-Serif" font-size="10.00">ContactOp</text>
</a>
</g>
</g>
<!-- Node2&#45;&gt;Node1 -->
<g id="edge1" class="edge">
<title>Node2&#45;&gt;Node1</title>
<path fill="none" stroke="midnightblue" d="M50.61,-76.52C64.76,-62.91 84.89,-43.54 98.43,-30.52"/>
<polygon fill="midnightblue" stroke="midnightblue" points="47.84,-74.33 43.06,-83.78 52.7,-79.37 47.84,-74.33"/>
</g>
<!-- Node3 -->
<g id="node3" class="node">
<title>Node3</title>
<g id="a_node3"><a xlink:title=" ">
<polygon fill="white" stroke="#bfbfbf" points="86.5,-78.5 86.5,-108.5 299.5,-108.5 299.5,-78.5 86.5,-78.5"/>
<text text-anchor="start" x="94.5" y="-96.5" font-family="Helvetica,sans-Serif" font-size="10.00">shared_ptr&lt; SimpleContact</text>
<text text-anchor="middle" x="193" y="-85.5" font-family="Helvetica,sans-Serif" font-size="10.00">Problem::CommonDataSimpleContact &gt;</text>
</a>
</g>
</g>
<!-- Node3&#45;&gt;Node1 -->
<g id="edge2" class="edge">
<title>Node3&#45;&gt;Node1</title>
<path fill="none" stroke="#9a32cd" stroke-dasharray="5,2" d="M170.4,-71.03C156.82,-58.13 139.92,-42.07 127.98,-30.73"/>
<polygon fill="#9a32cd" stroke="#9a32cd" points="168.29,-73.85 177.95,-78.2 173.11,-68.78 168.29,-73.85"/>
<text text-anchor="middle" x="228.5" y="-52" font-family="Helvetica,sans-Serif" font-size="10.00"> commonDataSimpleContact</text>
</g>
</g>
</svg>
