<?xml version="1.0" encoding="UTF-8" standalone="no"?>
<!DOCTYPE svg PUBLIC "-//W3C//DTD SVG 1.1//EN"
 "http://www.w3.org/Graphics/SVG/1.1/DTD/svg11.dtd">
<!-- Generated by graphviz version 2.43.0 (0)
 -->
<!-- Title: MoFEM::VolumeElementForcesAndSourcesCoreOnSideSwitch&lt; SWITCH &gt; Pages: 1 -->
<svg width="383pt" height="520pt"
 viewBox="0.00 0.00 383.00 520.00" xmlns="http://www.w3.org/2000/svg" xmlns:xlink="http://www.w3.org/1999/xlink">
<g id="graph0" class="graph" transform="scale(1 1) rotate(0) translate(4 516)">
<title>MoFEM::VolumeElementForcesAndSourcesCoreOnSideSwitch&lt; SWITCH &gt;</title>
<polygon fill="white" stroke="transparent" points="-4,4 -4,-516 379,-516 379,4 -4,4"/>
<!-- Node1 -->
<g id="node1" class="node">
<title>Node1</title>
<g id="a_node1"><a xlink:title=" ">
<polygon fill="#bfbfbf" stroke="black" points="107,-0.5 107,-41.5 274,-41.5 274,-0.5 107,-0.5"/>
<text text-anchor="start" x="115" y="-29.5" font-family="Helvetica,sans-Serif" font-size="10.00">MoFEM::VolumeElementForces</text>
<text text-anchor="start" x="115" y="-18.5" font-family="Helvetica,sans-Serif" font-size="10.00">AndSourcesCoreOnSideSwitch</text>
<text text-anchor="middle" x="190.5" y="-7.5" font-family="Helvetica,sans-Serif" font-size="10.00">&lt; SWITCH &gt;</text>
</a>
</g>
</g>
<!-- Node2 -->
<g id="node2" class="node">
<title>Node2</title>
<g id="a_node2"><a xlink:href="structMoFEM_1_1VolumeElementForcesAndSourcesCoreOnSide.html" target="_top" xlink:title="Base volume element used to integrate on skeleton.">
<polygon fill="white" stroke="black" points="107,-78.5 107,-108.5 274,-108.5 274,-78.5 107,-78.5"/>
<text text-anchor="start" x="115" y="-96.5" font-family="Helvetica,sans-Serif" font-size="10.00">MoFEM::VolumeElementForces</text>
<text text-anchor="middle" x="190.5" y="-85.5" font-family="Helvetica,sans-Serif" font-size="10.00">AndSourcesCoreOnSide</text>
</a>
</g>
</g>
<!-- Node2&#45;&gt;Node1 -->
<g id="edge1" class="edge">
<title>Node2&#45;&gt;Node1</title>
<path fill="none" stroke="midnightblue" d="M190.5,-67.98C190.5,-59.35 190.5,-49.76 190.5,-41.59"/>
<polygon fill="midnightblue" stroke="midnightblue" points="187,-68.23 190.5,-78.23 194,-68.23 187,-68.23"/>
</g>
<!-- Node3 -->
<g id="node3" class="node">
<title>Node3</title>
<g id="a_node3"><a xlink:href="structMoFEM_1_1VolumeElementForcesAndSourcesCore.html" target="_top" xlink:title="Volume finite element base.">
<polygon fill="white" stroke="black" points="107,-145.5 107,-175.5 274,-175.5 274,-145.5 107,-145.5"/>
<text text-anchor="start" x="115" y="-163.5" font-family="Helvetica,sans-Serif" font-size="10.00">MoFEM::VolumeElementForces</text>
<text text-anchor="middle" x="190.5" y="-152.5" font-family="Helvetica,sans-Serif" font-size="10.00">AndSourcesCore</text>
</a>
</g>
</g>
<!-- Node3&#45;&gt;Node2 -->
<g id="edge2" class="edge">
<title>Node3&#45;&gt;Node2</title>
<path fill="none" stroke="midnightblue" d="M190.5,-135.11C190.5,-126.15 190.5,-116.32 190.5,-108.58"/>
<polygon fill="midnightblue" stroke="midnightblue" points="187,-135.4 190.5,-145.4 194,-135.4 187,-135.4"/>
</g>
<!-- Node4 -->
<g id="node4" class="node">
<title>Node4</title>
<g id="a_node4"><a xlink:href="structMoFEM_1_1ForcesAndSourcesCore.html" target="_top" xlink:title="structure to get information form mofem into EntitiesFieldData">
<polygon fill="white" stroke="black" points="105.5,-212.5 105.5,-231.5 275.5,-231.5 275.5,-212.5 105.5,-212.5"/>
<text text-anchor="middle" x="190.5" y="-219.5" font-family="Helvetica,sans-Serif" font-size="10.00">MoFEM::ForcesAndSourcesCore</text>
</a>
</g>
</g>
<!-- Node4&#45;&gt;Node3 -->
<g id="edge3" class="edge">
<title>Node4&#45;&gt;Node3</title>
<path fill="none" stroke="midnightblue" d="M190.5,-202.23C190.5,-193.59 190.5,-183.5 190.5,-175.52"/>
<polygon fill="midnightblue" stroke="midnightblue" points="187,-202.48 190.5,-212.48 194,-202.48 187,-202.48"/>
</g>
<!-- Node5 -->
<g id="node5" class="node">
<title>Node5</title>
<g id="a_node5"><a xlink:href="structMoFEM_1_1FEMethod.html" target="_top" xlink:title="structure for User Loop Methods on finite elements">
<polygon fill="white" stroke="black" points="137,-268.5 137,-287.5 244,-287.5 244,-268.5 137,-268.5"/>
<text text-anchor="middle" x="190.5" y="-275.5" font-family="Helvetica,sans-Serif" font-size="10.00">MoFEM::FEMethod</text>
</a>
</g>
</g>
<!-- Node5&#45;&gt;Node4 -->
<g id="edge4" class="edge">
<title>Node5&#45;&gt;Node4</title>
<path fill="none" stroke="midnightblue" d="M190.5,-257.8C190.5,-248.91 190.5,-238.78 190.5,-231.75"/>
<polygon fill="midnightblue" stroke="midnightblue" points="187,-258.08 190.5,-268.08 194,-258.08 187,-258.08"/>
</g>
<!-- Node6 -->
<g id="node6" class="node">
<title>Node6</title>
<g id="a_node6"><a xlink:href="structMoFEM_1_1BasicMethod.html" target="_top" xlink:title="Data structure to exchange data between mofem and User Loop Methods.">
<polygon fill="white" stroke="black" points="129.5,-324.5 129.5,-343.5 251.5,-343.5 251.5,-324.5 129.5,-324.5"/>
<text text-anchor="middle" x="190.5" y="-331.5" font-family="Helvetica,sans-Serif" font-size="10.00">MoFEM::BasicMethod</text>
</a>
</g>
</g>
<!-- Node6&#45;&gt;Node5 -->
<g id="edge5" class="edge">
<title>Node6&#45;&gt;Node5</title>
<path fill="none" stroke="midnightblue" d="M190.5,-313.8C190.5,-304.91 190.5,-294.78 190.5,-287.75"/>
<polygon fill="midnightblue" stroke="midnightblue" points="187,-314.08 190.5,-324.08 194,-314.08 187,-314.08"/>
</g>
<!-- Node7 -->
<g id="node7" class="node">
<title>Node7</title>
<g id="a_node7"><a xlink:href="structMoFEM_1_1KspMethod.html" target="_top" xlink:title="data structure for ksp (linear solver) context">
<polygon fill="white" stroke="black" points="0,-380.5 0,-399.5 113,-399.5 113,-380.5 0,-380.5"/>
<text text-anchor="middle" x="56.5" y="-387.5" font-family="Helvetica,sans-Serif" font-size="10.00">MoFEM::KspMethod</text>
</a>
</g>
</g>
<!-- Node7&#45;&gt;Node6 -->
<g id="edge6" class="edge">
<title>Node7&#45;&gt;Node6</title>
<path fill="none" stroke="midnightblue" d="M87.18,-376.64C112.32,-366.5 147.25,-352.43 169.37,-343.52"/>
<polygon fill="midnightblue" stroke="midnightblue" points="85.7,-373.46 77.73,-380.44 88.32,-379.95 85.7,-373.46"/>
</g>
<!-- Node8 -->
<g id="node8" class="node">
<title>Node8</title>
<g id="a_node8"><a xlink:href="structMoFEM_1_1PetscData.html" target="_top" xlink:title=" ">
<polygon fill="white" stroke="black" points="136.5,-436.5 136.5,-455.5 244.5,-455.5 244.5,-436.5 136.5,-436.5"/>
<text text-anchor="middle" x="190.5" y="-443.5" font-family="Helvetica,sans-Serif" font-size="10.00">MoFEM::PetscData</text>
</a>
</g>
</g>
<!-- Node8&#45;&gt;Node7 -->
<g id="edge7" class="edge">
<title>Node8&#45;&gt;Node7</title>
<path fill="none" stroke="midnightblue" d="M159.82,-432.64C134.68,-422.5 99.75,-408.43 77.63,-399.52"/>
<polygon fill="midnightblue" stroke="midnightblue" points="158.68,-435.95 169.27,-436.44 161.3,-429.46 158.68,-435.95"/>
</g>
<!-- Node10 -->
<g id="node10" class="node">
<title>Node10</title>
<g id="a_node10"><a xlink:href="structMoFEM_1_1SnesMethod.html" target="_top" xlink:title="data structure for snes (nonlinear solver) context">
<polygon fill="white" stroke="black" points="131,-380.5 131,-399.5 250,-399.5 250,-380.5 131,-380.5"/>
<text text-anchor="middle" x="190.5" y="-387.5" font-family="Helvetica,sans-Serif" font-size="10.00">MoFEM::SnesMethod</text>
</a>
</g>
</g>
<!-- Node8&#45;&gt;Node10 -->
<g id="edge10" class="edge">
<title>Node8&#45;&gt;Node10</title>
<path fill="none" stroke="darkgreen" d="M190.5,-425.8C190.5,-416.91 190.5,-406.78 190.5,-399.75"/>
<polygon fill="darkgreen" stroke="darkgreen" points="187,-426.08 190.5,-436.08 194,-426.08 187,-426.08"/>
</g>
<!-- Node11 -->
<g id="node11" class="node">
<title>Node11</title>
<g id="a_node11"><a xlink:href="structMoFEM_1_1TSMethod.html" target="_top" xlink:title="data structure for TS (time stepping) context">
<polygon fill="white" stroke="black" points="268,-380.5 268,-399.5 375,-399.5 375,-380.5 268,-380.5"/>
<text text-anchor="middle" x="321.5" y="-387.5" font-family="Helvetica,sans-Serif" font-size="10.00">MoFEM::TSMethod</text>
</a>
</g>
</g>
<!-- Node8&#45;&gt;Node11 -->
<g id="edge12" class="edge">
<title>Node8&#45;&gt;Node11</title>
<path fill="none" stroke="darkgreen" d="M220.82,-432.5C245.38,-422.38 279.32,-408.39 300.84,-399.52"/>
<polygon fill="darkgreen" stroke="darkgreen" points="219.17,-429.4 211.26,-436.44 221.84,-435.87 219.17,-429.4"/>
</g>
<!-- Node9 -->
<g id="node9" class="node">
<title>Node9</title>
<g id="a_node9"><a xlink:href="structMoFEM_1_1UnknownInterface.html" target="_top" xlink:title="base class for all interface classes">
<polygon fill="white" stroke="black" points="116.5,-492.5 116.5,-511.5 264.5,-511.5 264.5,-492.5 116.5,-492.5"/>
<text text-anchor="middle" x="190.5" y="-499.5" font-family="Helvetica,sans-Serif" font-size="10.00">MoFEM::UnknownInterface</text>
</a>
</g>
</g>
<!-- Node9&#45;&gt;Node8 -->
<g id="edge8" class="edge">
<title>Node9&#45;&gt;Node8</title>
<path fill="none" stroke="midnightblue" d="M190.5,-481.8C190.5,-472.91 190.5,-462.78 190.5,-455.75"/>
<polygon fill="midnightblue" stroke="midnightblue" points="187,-482.08 190.5,-492.08 194,-482.08 187,-482.08"/>
</g>
<!-- Node10&#45;&gt;Node6 -->
<g id="edge9" class="edge">
<title>Node10&#45;&gt;Node6</title>
<path fill="none" stroke="midnightblue" d="M190.5,-369.8C190.5,-360.91 190.5,-350.78 190.5,-343.75"/>
<polygon fill="midnightblue" stroke="midnightblue" points="187,-370.08 190.5,-380.08 194,-370.08 187,-370.08"/>
</g>
<!-- Node11&#45;&gt;Node6 -->
<g id="edge11" class="edge">
<title>Node11&#45;&gt;Node6</title>
<path fill="none" stroke="midnightblue" d="M291.18,-376.5C266.62,-366.38 232.68,-352.39 211.16,-343.52"/>
<polygon fill="midnightblue" stroke="midnightblue" points="290.16,-379.87 300.74,-380.44 292.83,-373.4 290.16,-379.87"/>
</g>
</g>
</svg>
