<?xml version="1.0" encoding="UTF-8" standalone="no"?>
<!DOCTYPE svg PUBLIC "-//W3C//DTD SVG 1.1//EN"
 "http://www.w3.org/Graphics/SVG/1.1/DTD/svg11.dtd">
<!-- Generated by graphviz version 9.0.0 (20230911.1827)
 -->
<!-- Title: OpFluxRhsImpl&lt; ElasticExample::SpringBcType&lt; BLOCKSET &gt;, 1, FIELD_DIM, A, GAUSS, EleOp &gt; Pages: 1 -->
<svg width="353pt" height="150pt"
 viewBox="0.00 0.00 353.25 150.00" xmlns="http://www.w3.org/2000/svg" xmlns:xlink="http://www.w3.org/1999/xlink">
<g id="graph0" class="graph" transform="scale(1 1) rotate(0) translate(4 146)">
<title>OpFluxRhsImpl&lt; ElasticExample::SpringBcType&lt; BLOCKSET &gt;, 1, FIELD_DIM, A, GAUSS, EleOp &gt;</title>
<!-- Node1 -->
<g id="node1" class="node">
<title>Node1</title>
<g id="a_node1"><a xlink:title=" ">
<polygon fill="#999999" stroke="#666666" points="248.25,-53 86.75,-53 86.75,0 248.25,0 248.25,-53"/>
<text text-anchor="start" x="94.75" y="-39.5" font-family="Helvetica,sans-Serif" font-size="10.00">OpFluxRhsImpl&lt; ElasticExample</text>
<text text-anchor="start" x="94.75" y="-28.25" font-family="Helvetica,sans-Serif" font-size="10.00">::SpringBcType&lt; BLOCKSET</text>
<text text-anchor="start" x="94.75" y="-17" font-family="Helvetica,sans-Serif" font-size="10.00"> &gt;, 1, FIELD_DIM, A, GAUSS,</text>
<text text-anchor="middle" x="167.5" y="-5.75" font-family="Helvetica,sans-Serif" font-size="10.00"> EleOp &gt;</text>
</a>
</g>
</g>
<!-- Node2 -->
<g id="node2" class="node">
<title>Node2</title>
<g id="a_node2"><a xlink:href="class_op_base_impl.html" target="_top" xlink:title=" ">
<polygon fill="white" stroke="#666666" points="127,-142 0,-142 0,-122.75 127,-122.75 127,-142"/>
<text text-anchor="middle" x="63.5" y="-128.5" font-family="Helvetica,sans-Serif" font-size="10.00">OpBaseImpl&lt; A, EleOp &gt;</text>
</a>
</g>
</g>
<!-- Node2&#45;&gt;Node1 -->
<g id="edge1" class="edge">
<title>Node2&#45;&gt;Node1</title>
<path fill="none" stroke="#63b8ff" d="M80.15,-114.74C96.8,-98.12 122.61,-72.33 141.87,-53.1"/>
<polygon fill="#63b8ff" stroke="#63b8ff" points="78.04,-111.91 73.44,-121.45 82.99,-116.86 78.04,-111.91"/>
</g>
<!-- Node3 -->
<g id="node3" class="node">
<title>Node3</title>
<g id="a_node3"><a xlink:href="classdouble.html" target="_top" xlink:title=" ">
<polygon fill="white" stroke="#666666" points="189.75,-142 145.25,-142 145.25,-122.75 189.75,-122.75 189.75,-142"/>
<text text-anchor="middle" x="167.5" y="-128.5" font-family="Helvetica,sans-Serif" font-size="10.00">double</text>
</a>
</g>
</g>
<!-- Node3&#45;&gt;Node1 -->
<g id="edge2" class="edge">
<title>Node3&#45;&gt;Node1</title>
<path fill="none" stroke="#9a32cd" stroke-dasharray="5,2" d="M167.5,-111.43C167.5,-94.83 167.5,-71.1 167.5,-53.1"/>
<polygon fill="#9a32cd" stroke="#9a32cd" points="164,-111.01 167.5,-121.01 171,-111.01 164,-111.01"/>
<text text-anchor="middle" x="203.12" y="-95.25" font-family="Helvetica,sans-Serif" font-size="10.00"> normalStiffness</text>
<text text-anchor="middle" x="203.12" y="-84" font-family="Helvetica,sans-Serif" font-size="10.00">rhsScale</text>
<text text-anchor="middle" x="203.12" y="-72.75" font-family="Helvetica,sans-Serif" font-size="10.00">tangentStiffness</text>
</g>
<!-- Node4 -->
<g id="node4" class="node">
<title>Node4</title>
<g id="a_node4"><a xlink:title=" ">
<polygon fill="white" stroke="#666666" points="345.25,-142 207.75,-142 207.75,-122.75 345.25,-122.75 345.25,-142"/>
<text text-anchor="middle" x="276.5" y="-128.5" font-family="Helvetica,sans-Serif" font-size="10.00">shared_ptr&lt; MatrixDouble &gt;</text>
</a>
</g>
</g>
<!-- Node4&#45;&gt;Node1 -->
<g id="edge3" class="edge">
<title>Node4&#45;&gt;Node1</title>
<path fill="none" stroke="#9a32cd" stroke-dasharray="5,2" d="M268.9,-112.2C263.11,-99.39 254.15,-82.8 242.5,-71 236.05,-64.47 228.41,-58.58 220.52,-53.39"/>
<polygon fill="#9a32cd" stroke="#9a32cd" points="265.61,-113.4 272.72,-121.25 272.06,-110.68 265.61,-113.4"/>
<text text-anchor="middle" x="275" y="-84" font-family="Helvetica,sans-Serif" font-size="10.00"> uPtr</text>
</g>
</g>
</svg>
