<?xml version="1.0" encoding="UTF-8" standalone="no"?>
<!DOCTYPE svg PUBLIC "-//W3C//DTD SVG 1.1//EN"
 "http://www.w3.org/Graphics/SVG/1.1/DTD/svg11.dtd">
<!-- Generated by graphviz version 2.43.0 (0)
 -->
<!-- Title: ConvectiveMassElement::CommonFunctions Pages: 1 -->
<svg width="916pt" height="394pt"
 viewBox="0.00 0.00 916.00 394.00" xmlns="http://www.w3.org/2000/svg" xmlns:xlink="http://www.w3.org/1999/xlink">
<g id="graph0" class="graph" transform="scale(1 1) rotate(0) translate(4 390)">
<title>ConvectiveMassElement::CommonFunctions</title>
<polygon fill="white" stroke="transparent" points="-4,4 -4,-390 912,-390 912,4 -4,4"/>
<!-- Node1 -->
<g id="node1" class="node">
<title>Node1</title>
<g id="a_node1"><a xlink:title=" ">
<polygon fill="#bfbfbf" stroke="black" points="0,-171.5 0,-201.5 137,-201.5 137,-171.5 0,-171.5"/>
<text text-anchor="start" x="8" y="-189.5" font-family="Helvetica,sans-Serif" font-size="10.00">ConvectiveMassElement</text>
<text text-anchor="middle" x="68.5" y="-178.5" font-family="Helvetica,sans-Serif" font-size="10.00">::CommonFunctions</text>
</a>
</g>
</g>
<!-- Node2 -->
<g id="node2" class="node">
<title>Node2</title>
<g id="a_node2"><a xlink:href="structConvectiveMassElement_1_1OpEnergy.html" target="_top" xlink:title=" ">
<polygon fill="white" stroke="black" points="221,-355.5 221,-385.5 358,-385.5 358,-355.5 221,-355.5"/>
<text text-anchor="start" x="229" y="-373.5" font-family="Helvetica,sans-Serif" font-size="10.00">ConvectiveMassElement</text>
<text text-anchor="middle" x="289.5" y="-362.5" font-family="Helvetica,sans-Serif" font-size="10.00">::OpEnergy</text>
</a>
</g>
</g>
<!-- Node1&#45;&gt;Node2 -->
<g id="edge1" class="edge">
<title>Node1&#45;&gt;Node2</title>
<path fill="none" stroke="midnightblue" d="M78.49,-211.2C92.77,-246.76 124.13,-311.82 173,-345.5 187.02,-355.16 204.09,-361.19 220.76,-364.92"/>
<polygon fill="midnightblue" stroke="midnightblue" points="81.64,-209.64 74.76,-201.59 75.12,-212.18 81.64,-209.64"/>
</g>
<!-- Node3 -->
<g id="node3" class="node">
<title>Node3</title>
<g id="a_node3"><a xlink:href="structConvectiveMassElement_1_1OpEshelbyDynamicMaterialMomentumJacobian.html" target="_top" xlink:title=" ">
<polygon fill="white" stroke="black" points="182,-295 182,-336 397,-336 397,-295 182,-295"/>
<text text-anchor="start" x="190" y="-324" font-family="Helvetica,sans-Serif" font-size="10.00">ConvectiveMassElement</text>
<text text-anchor="start" x="190" y="-313" font-family="Helvetica,sans-Serif" font-size="10.00">::OpEshelbyDynamicMaterialMomentum</text>
<text text-anchor="middle" x="289.5" y="-302" font-family="Helvetica,sans-Serif" font-size="10.00">Jacobian</text>
</a>
</g>
</g>
<!-- Node1&#45;&gt;Node3 -->
<g id="edge2" class="edge">
<title>Node1&#45;&gt;Node3</title>
<path fill="none" stroke="midnightblue" d="M87.48,-209.52C106.39,-232.16 138.18,-266.09 173,-285.5 179.33,-289.03 186.09,-292.16 193.05,-294.92"/>
<polygon fill="midnightblue" stroke="midnightblue" points="90.15,-207.26 81.11,-201.73 84.73,-211.69 90.15,-207.26"/>
</g>
<!-- Node4 -->
<g id="node4" class="node">
<title>Node4</title>
<g id="a_node4"><a xlink:href="structConvectiveMassElement_1_1OpEshelbyDynamicMaterialMomentumRhs.html" target="_top" xlink:title=" ">
<polygon fill="white" stroke="black" points="173,-245.5 173,-275.5 406,-275.5 406,-245.5 173,-245.5"/>
<text text-anchor="start" x="181" y="-263.5" font-family="Helvetica,sans-Serif" font-size="10.00">ConvectiveMassElement</text>
<text text-anchor="middle" x="289.5" y="-252.5" font-family="Helvetica,sans-Serif" font-size="10.00">::OpEshelbyDynamicMaterialMomentumRhs</text>
</a>
</g>
</g>
<!-- Node1&#45;&gt;Node4 -->
<g id="edge3" class="edge">
<title>Node1&#45;&gt;Node4</title>
<path fill="none" stroke="midnightblue" d="M104.84,-206.25C124.43,-216.5 149.51,-228.52 173,-236.5 182.89,-239.86 193.42,-242.83 203.95,-245.44"/>
<polygon fill="midnightblue" stroke="midnightblue" points="106.45,-203.14 95.97,-201.53 103.16,-209.32 106.45,-203.14"/>
</g>
<!-- Node5 -->
<g id="node5" class="node">
<title>Node5</title>
<g id="a_node5"><a xlink:href="structConvectiveMassElement_1_1OpMassJacobian.html" target="_top" xlink:title=" ">
<polygon fill="white" stroke="black" points="221,-196.5 221,-226.5 358,-226.5 358,-196.5 221,-196.5"/>
<text text-anchor="start" x="229" y="-214.5" font-family="Helvetica,sans-Serif" font-size="10.00">ConvectiveMassElement</text>
<text text-anchor="middle" x="289.5" y="-203.5" font-family="Helvetica,sans-Serif" font-size="10.00">::OpMassJacobian</text>
</a>
</g>
</g>
<!-- Node1&#45;&gt;Node5 -->
<g id="edge4" class="edge">
<title>Node1&#45;&gt;Node5</title>
<path fill="none" stroke="midnightblue" d="M147.4,-195.39C171.32,-198.12 197.45,-201.11 220.65,-203.75"/>
<polygon fill="midnightblue" stroke="midnightblue" points="147.63,-191.9 137.29,-194.24 146.83,-198.85 147.63,-191.9"/>
</g>
<!-- Node6 -->
<g id="node6" class="node">
<title>Node6</title>
<g id="a_node6"><a xlink:href="structConvectiveMassElement_1_1OpMassLhs__dM__dv.html" target="_top" xlink:title=" ">
<polygon fill="white" stroke="black" points="221,-147.5 221,-177.5 358,-177.5 358,-147.5 221,-147.5"/>
<text text-anchor="start" x="229" y="-165.5" font-family="Helvetica,sans-Serif" font-size="10.00">ConvectiveMassElement</text>
<text text-anchor="middle" x="289.5" y="-154.5" font-family="Helvetica,sans-Serif" font-size="10.00">::OpMassLhs_dM_dv</text>
</a>
</g>
</g>
<!-- Node1&#45;&gt;Node6 -->
<g id="edge5" class="edge">
<title>Node1&#45;&gt;Node6</title>
<path fill="none" stroke="midnightblue" d="M147.4,-177.96C171.32,-175.34 197.45,-172.48 220.65,-169.94"/>
<polygon fill="midnightblue" stroke="midnightblue" points="146.85,-174.5 137.29,-179.07 147.61,-181.46 146.85,-174.5"/>
</g>
<!-- Node15 -->
<g id="node15" class="node">
<title>Node15</title>
<g id="a_node15"><a xlink:href="structConvectiveMassElement_1_1OpMassRhs.html" target="_top" xlink:title=" ">
<polygon fill="white" stroke="black" points="221,-98.5 221,-128.5 358,-128.5 358,-98.5 221,-98.5"/>
<text text-anchor="start" x="229" y="-116.5" font-family="Helvetica,sans-Serif" font-size="10.00">ConvectiveMassElement</text>
<text text-anchor="middle" x="289.5" y="-105.5" font-family="Helvetica,sans-Serif" font-size="10.00">::OpMassRhs</text>
</a>
</g>
</g>
<!-- Node1&#45;&gt;Node15 -->
<g id="edge14" class="edge">
<title>Node1&#45;&gt;Node15</title>
<path fill="none" stroke="midnightblue" d="M105.97,-166.62C125.41,-156.71 150,-145.21 173,-137.5 188.24,-132.39 205,-128.16 220.9,-124.74"/>
<polygon fill="midnightblue" stroke="midnightblue" points="104.14,-163.63 96.87,-171.34 107.36,-169.85 104.14,-163.63"/>
</g>
<!-- Node16 -->
<g id="node16" class="node">
<title>Node16</title>
<g id="a_node16"><a xlink:href="structConvectiveMassElement_1_1OpVelocityJacobian.html" target="_top" xlink:title=" ">
<polygon fill="white" stroke="black" points="221,-49.5 221,-79.5 358,-79.5 358,-49.5 221,-49.5"/>
<text text-anchor="start" x="229" y="-67.5" font-family="Helvetica,sans-Serif" font-size="10.00">ConvectiveMassElement</text>
<text text-anchor="middle" x="289.5" y="-56.5" font-family="Helvetica,sans-Serif" font-size="10.00">::OpVelocityJacobian</text>
</a>
</g>
</g>
<!-- Node1&#45;&gt;Node16 -->
<g id="edge15" class="edge">
<title>Node1&#45;&gt;Node16</title>
<path fill="none" stroke="midnightblue" d="M87.33,-163.36C106.13,-140.66 137.84,-106.87 173,-88.5 187.7,-80.82 204.66,-75.59 220.98,-72.04"/>
<polygon fill="midnightblue" stroke="midnightblue" points="84.58,-161.2 81.01,-171.17 90.02,-165.6 84.58,-161.2"/>
</g>
<!-- Node17 -->
<g id="node17" class="node">
<title>Node17</title>
<g id="a_node17"><a xlink:href="structConvectiveMassElement_1_1OpVelocityRhs.html" target="_top" xlink:title=" ">
<polygon fill="white" stroke="black" points="221,-0.5 221,-30.5 358,-30.5 358,-0.5 221,-0.5"/>
<text text-anchor="start" x="229" y="-18.5" font-family="Helvetica,sans-Serif" font-size="10.00">ConvectiveMassElement</text>
<text text-anchor="middle" x="289.5" y="-7.5" font-family="Helvetica,sans-Serif" font-size="10.00">::OpVelocityRhs</text>
</a>
</g>
</g>
<!-- Node1&#45;&gt;Node17 -->
<g id="edge16" class="edge">
<title>Node1&#45;&gt;Node17</title>
<path fill="none" stroke="midnightblue" d="M79.87,-161.65C95.12,-128.3 126.9,-69.78 173,-39.5 187.12,-30.22 204.14,-24.44 220.72,-20.85"/>
<polygon fill="midnightblue" stroke="midnightblue" points="76.52,-160.57 75.66,-171.13 82.92,-163.41 76.52,-160.57"/>
</g>
<!-- Node7 -->
<g id="node7" class="node">
<title>Node7</title>
<g id="a_node7"><a xlink:href="structConvectiveMassElement_1_1OpEshelbyDynamicMaterialMomentumLhs__dv.html" target="_top" xlink:title=" ">
<polygon fill="white" stroke="black" points="442,-222 442,-263 657,-263 657,-222 442,-222"/>
<text text-anchor="start" x="450" y="-251" font-family="Helvetica,sans-Serif" font-size="10.00">ConvectiveMassElement</text>
<text text-anchor="start" x="450" y="-240" font-family="Helvetica,sans-Serif" font-size="10.00">::OpEshelbyDynamicMaterialMomentum</text>
<text text-anchor="middle" x="549.5" y="-229" font-family="Helvetica,sans-Serif" font-size="10.00">Lhs_dv</text>
</a>
</g>
</g>
<!-- Node6&#45;&gt;Node7 -->
<g id="edge6" class="edge">
<title>Node6&#45;&gt;Node7</title>
<path fill="none" stroke="midnightblue" d="M368.03,-174.86C380.99,-178.17 394.08,-182.32 406,-187.5 423.86,-195.27 424.38,-204.19 442,-212.5 449.38,-215.98 457.25,-219.14 465.24,-221.97"/>
<polygon fill="midnightblue" stroke="midnightblue" points="368.71,-171.43 358.17,-172.49 367.08,-178.23 368.71,-171.43"/>
</g>
<!-- Node10 -->
<g id="node10" class="node">
<title>Node10</title>
<g id="a_node10"><a xlink:href="structConvectiveMassElement_1_1OpMassLhs__dM__dX.html" target="_top" xlink:title=" ">
<polygon fill="white" stroke="black" points="481,-172.5 481,-202.5 618,-202.5 618,-172.5 481,-172.5"/>
<text text-anchor="start" x="489" y="-190.5" font-family="Helvetica,sans-Serif" font-size="10.00">ConvectiveMassElement</text>
<text text-anchor="middle" x="549.5" y="-179.5" font-family="Helvetica,sans-Serif" font-size="10.00">::OpMassLhs_dM_dX</text>
</a>
</g>
</g>
<!-- Node6&#45;&gt;Node10 -->
<g id="edge9" class="edge">
<title>Node6&#45;&gt;Node10</title>
<path fill="none" stroke="midnightblue" d="M368.67,-170.08C404.41,-173.54 446.34,-177.6 480.72,-180.93"/>
<polygon fill="midnightblue" stroke="midnightblue" points="368.58,-166.55 358.29,-169.07 367.9,-173.52 368.58,-166.55"/>
</g>
<!-- Node11 -->
<g id="node11" class="node">
<title>Node11</title>
<g id="a_node11"><a xlink:href="structConvectiveMassElement_1_1OpMassLhs__dM__dx.html" target="_top" xlink:title=" ">
<polygon fill="white" stroke="black" points="481,-123.5 481,-153.5 618,-153.5 618,-123.5 481,-123.5"/>
<text text-anchor="start" x="489" y="-141.5" font-family="Helvetica,sans-Serif" font-size="10.00">ConvectiveMassElement</text>
<text text-anchor="middle" x="549.5" y="-130.5" font-family="Helvetica,sans-Serif" font-size="10.00">::OpMassLhs_dM_dx</text>
</a>
</g>
</g>
<!-- Node6&#45;&gt;Node11 -->
<g id="edge10" class="edge">
<title>Node6&#45;&gt;Node11</title>
<path fill="none" stroke="midnightblue" d="M368.67,-155.23C404.41,-151.9 446.34,-148 480.72,-144.81"/>
<polygon fill="midnightblue" stroke="midnightblue" points="367.92,-151.78 358.29,-156.19 368.57,-158.75 367.92,-151.78"/>
</g>
<!-- Node12 -->
<g id="node12" class="node">
<title>Node12</title>
<g id="a_node12"><a xlink:href="structConvectiveMassElement_1_1OpVelocityLhs__dV__dv.html" target="_top" xlink:title=" ">
<polygon fill="white" stroke="black" points="481,-74.5 481,-104.5 618,-104.5 618,-74.5 481,-74.5"/>
<text text-anchor="start" x="489" y="-92.5" font-family="Helvetica,sans-Serif" font-size="10.00">ConvectiveMassElement</text>
<text text-anchor="middle" x="549.5" y="-81.5" font-family="Helvetica,sans-Serif" font-size="10.00">::OpVelocityLhs_dV_dv</text>
</a>
</g>
</g>
<!-- Node6&#45;&gt;Node12 -->
<g id="edge11" class="edge">
<title>Node6&#45;&gt;Node12</title>
<path fill="none" stroke="midnightblue" d="M367.95,-149.95C380.91,-146.66 394.03,-142.57 406,-137.5 423.71,-130 424.32,-121.07 442,-113.5 454.19,-108.27 467.68,-104.11 480.85,-100.82"/>
<polygon fill="midnightblue" stroke="midnightblue" points="367,-146.58 358.08,-152.31 368.62,-153.38 367,-146.58"/>
</g>
<!-- Node8 -->
<g id="node8" class="node">
<title>Node8</title>
<g id="a_node8"><a xlink:href="structConvectiveMassElement_1_1OpEshelbyDynamicMaterialMomentumLhs__dX.html" target="_top" xlink:title=" ">
<polygon fill="white" stroke="black" points="693,-255 693,-296 908,-296 908,-255 693,-255"/>
<text text-anchor="start" x="701" y="-284" font-family="Helvetica,sans-Serif" font-size="10.00">ConvectiveMassElement</text>
<text text-anchor="start" x="701" y="-273" font-family="Helvetica,sans-Serif" font-size="10.00">::OpEshelbyDynamicMaterialMomentum</text>
<text text-anchor="middle" x="800.5" y="-262" font-family="Helvetica,sans-Serif" font-size="10.00">Lhs_dX</text>
</a>
</g>
</g>
<!-- Node7&#45;&gt;Node8 -->
<g id="edge7" class="edge">
<title>Node7&#45;&gt;Node8</title>
<path fill="none" stroke="midnightblue" d="M667.14,-257.96C675.64,-259.09 684.2,-260.22 692.64,-261.34"/>
<polygon fill="midnightblue" stroke="midnightblue" points="667.56,-254.48 657.18,-256.64 666.64,-261.42 667.56,-254.48"/>
</g>
<!-- Node9 -->
<g id="node9" class="node">
<title>Node9</title>
<g id="a_node9"><a xlink:href="structConvectiveMassElement_1_1OpEshelbyDynamicMaterialMomentumLhs__dx.html" target="_top" xlink:title=" ">
<polygon fill="white" stroke="black" points="693,-195 693,-236 908,-236 908,-195 693,-195"/>
<text text-anchor="start" x="701" y="-224" font-family="Helvetica,sans-Serif" font-size="10.00">ConvectiveMassElement</text>
<text text-anchor="start" x="701" y="-213" font-family="Helvetica,sans-Serif" font-size="10.00">::OpEshelbyDynamicMaterialMomentum</text>
<text text-anchor="middle" x="800.5" y="-202" font-family="Helvetica,sans-Serif" font-size="10.00">Lhs_dx</text>
</a>
</g>
</g>
<!-- Node7&#45;&gt;Node9 -->
<g id="edge8" class="edge">
<title>Node7&#45;&gt;Node9</title>
<path fill="none" stroke="midnightblue" d="M667.14,-229.85C675.64,-228.93 684.2,-228 692.64,-227.09"/>
<polygon fill="midnightblue" stroke="midnightblue" points="666.75,-226.37 657.18,-230.93 667.5,-233.33 666.75,-226.37"/>
</g>
<!-- Node13 -->
<g id="node13" class="node">
<title>Node13</title>
<g id="a_node13"><a xlink:href="structConvectiveMassElement_1_1OpVelocityLhs__dV__dx.html" target="_top" xlink:title=" ">
<polygon fill="white" stroke="black" points="732,-118.5 732,-148.5 869,-148.5 869,-118.5 732,-118.5"/>
<text text-anchor="start" x="740" y="-136.5" font-family="Helvetica,sans-Serif" font-size="10.00">ConvectiveMassElement</text>
<text text-anchor="middle" x="800.5" y="-125.5" font-family="Helvetica,sans-Serif" font-size="10.00">::OpVelocityLhs_dV_dx</text>
</a>
</g>
</g>
<!-- Node12&#45;&gt;Node13 -->
<g id="edge12" class="edge">
<title>Node12&#45;&gt;Node13</title>
<path fill="none" stroke="midnightblue" d="M628.33,-103.25C661.49,-109.11 699.83,-115.89 731.8,-121.54"/>
<polygon fill="midnightblue" stroke="midnightblue" points="628.67,-99.76 618.21,-101.47 627.45,-106.65 628.67,-99.76"/>
</g>
<!-- Node14 -->
<g id="node14" class="node">
<title>Node14</title>
<g id="a_node14"><a xlink:href="structConvectiveMassElement_1_1OpVelocityLhs__dV__dX.html" target="_top" xlink:title=" ">
<polygon fill="white" stroke="black" points="732,-69.5 732,-99.5 869,-99.5 869,-69.5 732,-69.5"/>
<text text-anchor="start" x="740" y="-87.5" font-family="Helvetica,sans-Serif" font-size="10.00">ConvectiveMassElement</text>
<text text-anchor="middle" x="800.5" y="-76.5" font-family="Helvetica,sans-Serif" font-size="10.00">::OpVelocityLhs_dV_dX</text>
</a>
</g>
</g>
<!-- Node12&#45;&gt;Node14 -->
<g id="edge13" class="edge">
<title>Node12&#45;&gt;Node14</title>
<path fill="none" stroke="midnightblue" d="M628.33,-87.94C661.49,-87.27 699.83,-86.5 731.8,-85.86"/>
<polygon fill="midnightblue" stroke="midnightblue" points="628.14,-84.44 618.21,-88.14 628.28,-91.44 628.14,-84.44"/>
</g>
</g>
</svg>
