<?xml version="1.0" encoding="UTF-8" standalone="no"?>
<!DOCTYPE svg PUBLIC "-//W3C//DTD SVG 1.1//EN"
 "http://www.w3.org/Graphics/SVG/1.1/DTD/svg11.dtd">
<!-- Generated by graphviz version 2.43.0 (0)
 -->
<!-- Title: FractureMechanics::GriffithForceElement::MyTriangleFEConstrains Pages: 1 -->
<svg width="855pt" height="300pt"
 viewBox="0.00 0.00 855.00 300.00" xmlns="http://www.w3.org/2000/svg" xmlns:xlink="http://www.w3.org/1999/xlink">
<g id="graph0" class="graph" transform="scale(1 1) rotate(0) translate(4 296)">
<title>FractureMechanics::GriffithForceElement::MyTriangleFEConstrains</title>
<polygon fill="white" stroke="transparent" points="-4,4 -4,-296 851,-296 851,4 -4,4"/>
<!-- Node1 -->
<g id="node1" class="node">
<title>Node1</title>
<g id="a_node1"><a xlink:title=" ">
<polygon fill="#bfbfbf" stroke="black" points="707,-60.5 707,-101.5 847,-101.5 847,-60.5 707,-60.5"/>
<text text-anchor="start" x="715" y="-89.5" font-family="Helvetica,sans-Serif" font-size="10.00">FractureMechanics::</text>
<text text-anchor="start" x="715" y="-78.5" font-family="Helvetica,sans-Serif" font-size="10.00">GriffithForceElement</text>
<text text-anchor="middle" x="777" y="-67.5" font-family="Helvetica,sans-Serif" font-size="10.00">::MyTriangleFEConstrains</text>
</a>
</g>
</g>
<!-- Node2 -->
<g id="node2" class="node">
<title>Node2</title>
<g id="a_node2"><a xlink:href="structFractureMechanics_1_1GriffithForceElement_1_1MyTriangleFE.html" target="_top" xlink:title=" ">
<polygon fill="white" stroke="black" points="454,-204.5 454,-245.5 571,-245.5 571,-204.5 454,-204.5"/>
<text text-anchor="start" x="462" y="-233.5" font-family="Helvetica,sans-Serif" font-size="10.00">FractureMechanics::</text>
<text text-anchor="start" x="462" y="-222.5" font-family="Helvetica,sans-Serif" font-size="10.00">GriffithForceElement</text>
<text text-anchor="middle" x="512.5" y="-211.5" font-family="Helvetica,sans-Serif" font-size="10.00">::MyTriangleFE</text>
</a>
</g>
</g>
<!-- Node2&#45;&gt;Node1 -->
<g id="edge1" class="edge">
<title>Node2&#45;&gt;Node1</title>
<path fill="none" stroke="midnightblue" d="M559.94,-199.53C610.81,-171.62 691.42,-127.4 738.46,-101.59"/>
<polygon fill="midnightblue" stroke="midnightblue" points="558.19,-196.49 551.11,-204.37 561.56,-202.63 558.19,-196.49"/>
</g>
<!-- Node3 -->
<g id="node3" class="node">
<title>Node3</title>
<g id="a_node3"><a xlink:href="classFaceElementForcesAndSourcesCore.html" target="_top" xlink:title=" ">
<polygon fill="white" stroke="black" points="163,-272.5 163,-291.5 353,-291.5 353,-272.5 163,-272.5"/>
<text text-anchor="middle" x="258" y="-279.5" font-family="Helvetica,sans-Serif" font-size="10.00">FaceElementForcesAndSourcesCore</text>
</a>
</g>
</g>
<!-- Node3&#45;&gt;Node2 -->
<g id="edge2" class="edge">
<title>Node3&#45;&gt;Node2</title>
<path fill="none" stroke="midnightblue" d="M328.59,-270.65C359.51,-265.16 396.24,-258.02 429,-250 437,-248.04 445.36,-245.77 453.57,-243.41"/>
<polygon fill="midnightblue" stroke="midnightblue" points="327.59,-267.28 318.34,-272.45 328.8,-274.17 327.59,-267.28"/>
</g>
<!-- Node4 -->
<g id="node4" class="node">
<title>Node4</title>
<g id="a_node4"><a xlink:title=" ">
<polygon fill="white" stroke="#bfbfbf" points="240.5,-234.5 240.5,-253.5 275.5,-253.5 275.5,-234.5 240.5,-234.5"/>
<text text-anchor="middle" x="258" y="-241.5" font-family="Helvetica,sans-Serif" font-size="10.00">Mat</text>
</a>
</g>
</g>
<!-- Node4&#45;&gt;Node2 -->
<g id="edge3" class="edge">
<title>Node4&#45;&gt;Node2</title>
<path fill="none" stroke="#9a32cd" stroke-dasharray="5,2" d="M285.78,-241.98C325.53,-238.99 401.11,-233.31 453.81,-229.34"/>
<polygon fill="#9a32cd" stroke="#9a32cd" points="285.28,-238.51 275.57,-242.75 285.8,-245.49 285.28,-238.51"/>
<text text-anchor="middle" x="400" y="-238" font-family="Helvetica,sans-Serif" font-size="10.00"> B</text>
</g>
<!-- Node5 -->
<g id="node5" class="node">
<title>Node5</title>
<g id="a_node5"><a xlink:title=" ">
<polygon fill="white" stroke="#bfbfbf" points="241,-196.5 241,-215.5 275,-215.5 275,-196.5 241,-196.5"/>
<text text-anchor="middle" x="258" y="-203.5" font-family="Helvetica,sans-Serif" font-size="10.00">Vec</text>
</a>
</g>
</g>
<!-- Node5&#45;&gt;Node2 -->
<g id="edge4" class="edge">
<title>Node5&#45;&gt;Node2</title>
<path fill="none" stroke="#9a32cd" stroke-dasharray="5,2" d="M285.76,-207.16C319.28,-208.71 378.44,-211.76 429,-216 437.04,-216.67 445.51,-217.48 453.84,-218.34"/>
<polygon fill="#9a32cd" stroke="#9a32cd" points="285.58,-203.65 275.43,-206.69 285.26,-210.64 285.58,-203.65"/>
<text text-anchor="middle" x="400" y="-219" font-family="Helvetica,sans-Serif" font-size="10.00"> F</text>
</g>
<!-- Node6 -->
<g id="node6" class="node">
<title>Node6</title>
<g id="a_node6"><a xlink:href="structMoFEM_1_1SmartPetscObj.html" target="_top" xlink:title=" ">
<polygon fill="white" stroke="black" points="447,-99 447,-129 578,-129 578,-99 447,-99"/>
<text text-anchor="start" x="455" y="-117" font-family="Helvetica,sans-Serif" font-size="10.00">MoFEM::SmartPetscObj</text>
<text text-anchor="middle" x="512.5" y="-106" font-family="Helvetica,sans-Serif" font-size="10.00">&lt; Vec &gt;</text>
</a>
</g>
</g>
<!-- Node6&#45;&gt;Node1 -->
<g id="edge5" class="edge">
<title>Node6&#45;&gt;Node1</title>
<path fill="none" stroke="#9a32cd" stroke-dasharray="5,2" d="M588.33,-104.59C625.54,-99.92 670.21,-94.3 706.64,-89.72"/>
<polygon fill="#9a32cd" stroke="#9a32cd" points="587.54,-101.16 578.05,-105.89 588.41,-108.11 587.54,-101.16"/>
<text text-anchor="middle" x="642.5" y="-106" font-family="Helvetica,sans-Serif" font-size="10.00"> deltaVec</text>
</g>
<!-- Node7 -->
<g id="node7" class="node">
<title>Node7</title>
<g id="a_node7"><a xlink:title=" ">
<polygon fill="white" stroke="#bfbfbf" points="195,-136.5 195,-177.5 321,-177.5 321,-136.5 195,-136.5"/>
<text text-anchor="start" x="203" y="-165.5" font-family="Helvetica,sans-Serif" font-size="10.00">boost::intrusive_ptr</text>
<text text-anchor="start" x="203" y="-154.5" font-family="Helvetica,sans-Serif" font-size="10.00">&lt; std::remove_pointer</text>
<text text-anchor="middle" x="258" y="-143.5" font-family="Helvetica,sans-Serif" font-size="10.00">&lt; Vec &gt;::type &gt;</text>
</a>
</g>
</g>
<!-- Node7&#45;&gt;Node6 -->
<g id="edge6" class="edge">
<title>Node7&#45;&gt;Node6</title>
<path fill="none" stroke="midnightblue" d="M331.14,-144.71C367.51,-138.52 411.26,-131.07 446.56,-125.06"/>
<polygon fill="midnightblue" stroke="midnightblue" points="330.36,-141.3 321.09,-146.43 331.54,-148.2 330.36,-141.3"/>
</g>
<!-- Node8 -->
<g id="node8" class="node">
<title>Node8</title>
<g id="a_node8"><a xlink:href="structMoFEM_1_1SmartPetscObj.html" target="_top" xlink:title="intrusive_ptr for managing petsc objects">
<polygon fill="white" stroke="black" points="192.5,-87 192.5,-117 323.5,-117 323.5,-87 192.5,-87"/>
<text text-anchor="start" x="200.5" y="-105" font-family="Helvetica,sans-Serif" font-size="10.00">MoFEM::SmartPetscObj</text>
<text text-anchor="middle" x="258" y="-94" font-family="Helvetica,sans-Serif" font-size="10.00">&lt; OBJ &gt;</text>
</a>
</g>
</g>
<!-- Node8&#45;&gt;Node6 -->
<g id="edge7" class="edge">
<title>Node8&#45;&gt;Node6</title>
<path fill="none" stroke="orange" stroke-dasharray="5,2" d="M334.12,-105.57C370.02,-107.28 412.55,-109.3 446.97,-110.93"/>
<polygon fill="orange" stroke="orange" points="333.85,-102.05 323.7,-105.07 333.52,-109.05 333.85,-102.05"/>
<text text-anchor="middle" x="400" y="-112" font-family="Helvetica,sans-Serif" font-size="10.00"> &lt; Vec &gt;</text>
</g>
<!-- Node9 -->
<g id="node9" class="node">
<title>Node9</title>
<g id="a_node9"><a xlink:title=" ">
<polygon fill="white" stroke="#bfbfbf" points="0,-81.5 0,-122.5 126,-122.5 126,-81.5 0,-81.5"/>
<text text-anchor="start" x="8" y="-110.5" font-family="Helvetica,sans-Serif" font-size="10.00">boost::intrusive_ptr</text>
<text text-anchor="start" x="8" y="-99.5" font-family="Helvetica,sans-Serif" font-size="10.00">&lt; std::remove_pointer</text>
<text text-anchor="middle" x="63" y="-88.5" font-family="Helvetica,sans-Serif" font-size="10.00">&lt; OBJ &gt;::type &gt;</text>
</a>
</g>
</g>
<!-- Node9&#45;&gt;Node8 -->
<g id="edge8" class="edge">
<title>Node9&#45;&gt;Node8</title>
<path fill="none" stroke="midnightblue" d="M136.21,-102C154.63,-102 174.32,-102 192.33,-102"/>
<polygon fill="midnightblue" stroke="midnightblue" points="136.13,-98.5 126.13,-102 136.13,-105.5 136.13,-98.5"/>
</g>
<!-- Node10 -->
<g id="node10" class="node">
<title>Node10</title>
<g id="a_node10"><a xlink:href="structFractureMechanics_1_1GriffithForceElement_1_1BlockData.html" target="_top" xlink:title=" ">
<polygon fill="white" stroke="black" points="454,-38.5 454,-79.5 571,-79.5 571,-38.5 454,-38.5"/>
<text text-anchor="start" x="462" y="-67.5" font-family="Helvetica,sans-Serif" font-size="10.00">FractureMechanics::</text>
<text text-anchor="start" x="462" y="-56.5" font-family="Helvetica,sans-Serif" font-size="10.00">GriffithForceElement</text>
<text text-anchor="middle" x="512.5" y="-45.5" font-family="Helvetica,sans-Serif" font-size="10.00">::BlockData</text>
</a>
</g>
</g>
<!-- Node10&#45;&gt;Node1 -->
<g id="edge9" class="edge">
<title>Node10&#45;&gt;Node1</title>
<path fill="none" stroke="#9a32cd" stroke-dasharray="5,2" d="M581.21,-64.67C619.8,-67.91 668.05,-71.95 706.88,-75.21"/>
<polygon fill="#9a32cd" stroke="#9a32cd" points="581.36,-61.18 571.11,-63.83 580.78,-68.15 581.36,-61.18"/>
<text text-anchor="middle" x="642.5" y="-76" font-family="Helvetica,sans-Serif" font-size="10.00"> blockData</text>
</g>
<!-- Node11 -->
<g id="node11" class="node">
<title>Node11</title>
<g id="a_node11"><a xlink:href="classdouble.html" target="_top" xlink:title=" ">
<polygon fill="white" stroke="black" points="233,-48.5 233,-67.5 283,-67.5 283,-48.5 233,-48.5"/>
<text text-anchor="middle" x="258" y="-55.5" font-family="Helvetica,sans-Serif" font-size="10.00">double</text>
</a>
</g>
</g>
<!-- Node11&#45;&gt;Node10 -->
<g id="edge10" class="edge">
<title>Node11&#45;&gt;Node10</title>
<path fill="none" stroke="#9a32cd" stroke-dasharray="5,2" d="M293.3,-58.14C334.53,-58.3 404.35,-58.58 453.9,-58.77"/>
<polygon fill="#9a32cd" stroke="#9a32cd" points="293.22,-54.64 283.21,-58.1 293.2,-61.64 293.22,-54.64"/>
<text text-anchor="middle" x="400" y="-83" font-family="Helvetica,sans-Serif" font-size="10.00"> E</text>
<text text-anchor="middle" x="400" y="-72" font-family="Helvetica,sans-Serif" font-size="10.00">r</text>
<text text-anchor="middle" x="400" y="-61" font-family="Helvetica,sans-Serif" font-size="10.00">gc</text>
</g>
<!-- Node12 -->
<g id="node12" class="node">
<title>Node12</title>
<g id="a_node12"><a xlink:href="classRange.html" target="_top" xlink:title=" ">
<polygon fill="white" stroke="black" points="234.5,-10.5 234.5,-29.5 281.5,-29.5 281.5,-10.5 234.5,-10.5"/>
<text text-anchor="middle" x="258" y="-17.5" font-family="Helvetica,sans-Serif" font-size="10.00">Range</text>
</a>
</g>
</g>
<!-- Node12&#45;&gt;Node10 -->
<g id="edge11" class="edge">
<title>Node12&#45;&gt;Node10</title>
<path fill="none" stroke="#9a32cd" stroke-dasharray="5,2" d="M291.98,-23.9C326.29,-28.08 381.53,-35.19 429,-43 437.06,-44.33 445.54,-45.84 453.88,-47.39"/>
<polygon fill="#9a32cd" stroke="#9a32cd" points="291.96,-20.37 281.61,-22.64 291.12,-27.32 291.96,-20.37"/>
<text text-anchor="middle" x="400" y="-46" font-family="Helvetica,sans-Serif" font-size="10.00"> frontNodes</text>
</g>
<!-- Node13 -->
<g id="node13" class="node">
<title>Node13</title>
<g id="a_node13"><a xlink:title=" ">
<polygon fill="white" stroke="#bfbfbf" points="490.5,-0.5 490.5,-19.5 534.5,-19.5 534.5,-0.5 490.5,-0.5"/>
<text text-anchor="middle" x="512.5" y="-7.5" font-family="Helvetica,sans-Serif" font-size="10.00">string</text>
</a>
</g>
</g>
<!-- Node13&#45;&gt;Node1 -->
<g id="edge12" class="edge">
<title>Node13&#45;&gt;Node1</title>
<path fill="none" stroke="#9a32cd" stroke-dasharray="5,2" d="M544.92,-16.32C580.23,-23.67 639.14,-36.62 689,-51 698.82,-53.83 709.17,-57.13 719.17,-60.47"/>
<polygon fill="#9a32cd" stroke="#9a32cd" points="545.25,-12.82 534.75,-14.23 543.84,-19.68 545.25,-12.82"/>
<text text-anchor="middle" x="642.5" y="-54" font-family="Helvetica,sans-Serif" font-size="10.00"> lambdaFieldName</text>
</g>
</g>
</svg>
