<?xml version="1.0" encoding="UTF-8" standalone="no"?>
<!DOCTYPE svg PUBLIC "-//W3C//DTD SVG 1.1//EN"
 "http://www.w3.org/Graphics/SVG/1.1/DTD/svg11.dtd">
<!-- Generated by graphviz version 2.43.0 (0)
 -->
<!-- Title: MoFEM::BaseFunctionUnknownInterface Pages: 1 -->
<svg width="1003pt" height="526pt"
 viewBox="0.00 0.00 1003.00 526.00" xmlns="http://www.w3.org/2000/svg" xmlns:xlink="http://www.w3.org/1999/xlink">
<g id="graph0" class="graph" transform="scale(1 1) rotate(0) translate(4 522)">
<title>MoFEM::BaseFunctionUnknownInterface</title>
<polygon fill="white" stroke="transparent" points="-4,4 -4,-522 999,-522 999,4 -4,4"/>
<!-- Node1 -->
<g id="node1" class="node">
<title>Node1</title>
<g id="a_node1"><a xlink:title=" ">
<polygon fill="#bfbfbf" stroke="black" points="184,-189 184,-219 354,-219 354,-189 184,-189"/>
<text text-anchor="start" x="192" y="-207" font-family="Helvetica,sans-Serif" font-size="10.00">MoFEM::BaseFunctionUnknown</text>
<text text-anchor="middle" x="269" y="-196" font-family="Helvetica,sans-Serif" font-size="10.00">Interface</text>
</a>
</g>
</g>
<!-- Node3 -->
<g id="node3" class="node">
<title>Node3</title>
<g id="a_node3"><a xlink:href="structMoFEM_1_1BaseFunction.html" target="_top" xlink:title="Base class if inherited used to calculate base functions.">
<polygon fill="white" stroke="black" points="398,-308.5 398,-327.5 522,-327.5 522,-308.5 398,-308.5"/>
<text text-anchor="middle" x="460" y="-315.5" font-family="Helvetica,sans-Serif" font-size="10.00">MoFEM::BaseFunction</text>
</a>
</g>
</g>
<!-- Node1&#45;&gt;Node3 -->
<g id="edge2" class="edge">
<title>Node1&#45;&gt;Node3</title>
<path fill="none" stroke="midnightblue" d="M303.69,-224.32C344.81,-249.13 412.64,-290.03 443.2,-308.47"/>
<polygon fill="midnightblue" stroke="midnightblue" points="305.47,-221.31 295.1,-219.14 301.85,-227.3 305.47,-221.31"/>
</g>
<!-- Node17 -->
<g id="node17" class="node">
<title>Node17</title>
<g id="a_node17"><a xlink:href="structMoFEM_1_1BaseFunctionCtx.html" target="_top" xlink:title="Base class used to exchange data between element data structures and class calculating base functions...">
<polygon fill="white" stroke="black" points="390,-99.5 390,-118.5 530,-118.5 530,-99.5 390,-99.5"/>
<text text-anchor="middle" x="460" y="-106.5" font-family="Helvetica,sans-Serif" font-size="10.00">MoFEM::BaseFunctionCtx</text>
</a>
</g>
</g>
<!-- Node1&#45;&gt;Node17 -->
<g id="edge16" class="edge">
<title>Node1&#45;&gt;Node17</title>
<path fill="none" stroke="midnightblue" d="M309.13,-184.33C349.04,-164.27 409.32,-133.97 439.84,-118.63"/>
<polygon fill="midnightblue" stroke="midnightblue" points="307.31,-181.33 299.95,-188.95 310.45,-187.58 307.31,-181.33"/>
</g>
<!-- Node2 -->
<g id="node2" class="node">
<title>Node2</title>
<g id="a_node2"><a xlink:href="structMoFEM_1_1UnknownInterface.html" target="_top" xlink:title="base class for all interface classes">
<polygon fill="white" stroke="black" points="0,-194.5 0,-213.5 148,-213.5 148,-194.5 0,-194.5"/>
<text text-anchor="middle" x="74" y="-201.5" font-family="Helvetica,sans-Serif" font-size="10.00">MoFEM::UnknownInterface</text>
</a>
</g>
</g>
<!-- Node2&#45;&gt;Node1 -->
<g id="edge1" class="edge">
<title>Node2&#45;&gt;Node1</title>
<path fill="none" stroke="midnightblue" d="M158.42,-204C166.84,-204 175.39,-204 183.82,-204"/>
<polygon fill="midnightblue" stroke="midnightblue" points="158.24,-200.5 148.24,-204 158.24,-207.5 158.24,-200.5"/>
</g>
<!-- Node4 -->
<g id="node4" class="node">
<title>Node4</title>
<g id="a_node4"><a xlink:href="structMoFEM_1_1EdgePolynomialBase.html" target="_top" xlink:title="Calculate base functions on tetrahedral.">
<polygon fill="white" stroke="black" points="577.5,-498.5 577.5,-517.5 738.5,-517.5 738.5,-498.5 577.5,-498.5"/>
<text text-anchor="middle" x="658" y="-505.5" font-family="Helvetica,sans-Serif" font-size="10.00">MoFEM::EdgePolynomialBase</text>
</a>
</g>
</g>
<!-- Node3&#45;&gt;Node4 -->
<g id="edge3" class="edge">
<title>Node3&#45;&gt;Node4</title>
<path fill="none" stroke="midnightblue" d="M467.12,-337.43C479.54,-373.47 511.25,-450.49 566,-489 571.41,-492.81 577.43,-495.88 583.71,-498.36"/>
<polygon fill="midnightblue" stroke="midnightblue" points="470.35,-336.05 463.89,-327.65 463.71,-338.25 470.35,-336.05"/>
</g>
<!-- Node5 -->
<g id="node5" class="node">
<title>Node5</title>
<g id="a_node5"><a xlink:href="structMoFEM_1_1FatPrismPolynomialBase.html" target="_top" xlink:title="Calculate base functions on tetrahedral.">
<polygon fill="white" stroke="black" points="568.5,-460.5 568.5,-479.5 747.5,-479.5 747.5,-460.5 568.5,-460.5"/>
<text text-anchor="middle" x="658" y="-467.5" font-family="Helvetica,sans-Serif" font-size="10.00">MoFEM::FatPrismPolynomialBase</text>
</a>
</g>
</g>
<!-- Node3&#45;&gt;Node5 -->
<g id="edge4" class="edge">
<title>Node3&#45;&gt;Node5</title>
<path fill="none" stroke="midnightblue" d="M470.25,-336.75C485.76,-366.1 519.9,-422.47 566,-451 572.18,-454.82 578.99,-457.89 586.03,-460.34"/>
<polygon fill="midnightblue" stroke="midnightblue" points="473.23,-334.89 465.55,-327.59 467,-338.08 473.23,-334.89"/>
</g>
<!-- Node6 -->
<g id="node6" class="node">
<title>Node6</title>
<g id="a_node6"><a xlink:href="structMoFEM_1_1FlatPrismPolynomialBase.html" target="_top" xlink:title="Calculate base functions on tetrahedral.">
<polygon fill="white" stroke="black" points="566,-422.5 566,-441.5 750,-441.5 750,-422.5 566,-422.5"/>
<text text-anchor="middle" x="658" y="-429.5" font-family="Helvetica,sans-Serif" font-size="10.00">MoFEM::FlatPrismPolynomialBase</text>
</a>
</g>
</g>
<!-- Node3&#45;&gt;Node6 -->
<g id="edge5" class="edge">
<title>Node3&#45;&gt;Node6</title>
<path fill="none" stroke="midnightblue" d="M474.99,-335.39C493.46,-357.1 528.09,-393.71 566,-413 573.62,-416.88 581.99,-419.97 590.47,-422.42"/>
<polygon fill="midnightblue" stroke="midnightblue" points="477.61,-333.06 468.52,-327.61 472.22,-337.54 477.61,-333.06"/>
</g>
<!-- Node7 -->
<g id="node7" class="node">
<title>Node7</title>
<g id="a_node7"><a xlink:href="structMoFEM_1_1HexPolynomialBase.html" target="_top" xlink:title="Calculate base functions on tetrahedral.">
<polygon fill="white" stroke="black" points="579.5,-384.5 579.5,-403.5 736.5,-403.5 736.5,-384.5 579.5,-384.5"/>
<text text-anchor="middle" x="658" y="-391.5" font-family="Helvetica,sans-Serif" font-size="10.00">MoFEM::HexPolynomialBase</text>
</a>
</g>
</g>
<!-- Node3&#45;&gt;Node7 -->
<g id="edge6" class="edge">
<title>Node3&#45;&gt;Node7</title>
<path fill="none" stroke="midnightblue" d="M484,-333.04C504.68,-345.93 536.28,-364.1 566,-375 576.3,-378.78 587.55,-381.89 598.52,-384.42"/>
<polygon fill="midnightblue" stroke="midnightblue" points="485.63,-329.94 475.31,-327.54 481.88,-335.85 485.63,-329.94"/>
</g>
<!-- Node8 -->
<g id="node8" class="node">
<title>Node8</title>
<g id="a_node8"><a xlink:href="structMoFEM_1_1JacobiPolynomial.html" target="_top" xlink:title="Calculating Legendre base functions.">
<polygon fill="white" stroke="black" points="586.5,-346.5 586.5,-365.5 729.5,-365.5 729.5,-346.5 586.5,-346.5"/>
<text text-anchor="middle" x="658" y="-353.5" font-family="Helvetica,sans-Serif" font-size="10.00">MoFEM::JacobiPolynomial</text>
</a>
</g>
</g>
<!-- Node3&#45;&gt;Node8 -->
<g id="edge7" class="edge">
<title>Node3&#45;&gt;Node8</title>
<path fill="none" stroke="midnightblue" d="M520.26,-329.49C548.23,-334.91 581.21,-341.31 607.77,-346.46"/>
<polygon fill="midnightblue" stroke="midnightblue" points="520.69,-326.01 510.21,-327.54 519.36,-332.88 520.69,-326.01"/>
</g>
<!-- Node10 -->
<g id="node10" class="node">
<title>Node10</title>
<g id="a_node10"><a xlink:href="structMoFEM_1_1LegendrePolynomial.html" target="_top" xlink:title="Calculating Legendre base functions.">
<polygon fill="white" stroke="black" points="579,-308.5 579,-327.5 737,-327.5 737,-308.5 579,-308.5"/>
<text text-anchor="middle" x="658" y="-315.5" font-family="Helvetica,sans-Serif" font-size="10.00">MoFEM::LegendrePolynomial</text>
</a>
</g>
</g>
<!-- Node3&#45;&gt;Node10 -->
<g id="edge9" class="edge">
<title>Node3&#45;&gt;Node10</title>
<path fill="none" stroke="midnightblue" d="M532.5,-318C547.61,-318 563.62,-318 578.95,-318"/>
<polygon fill="midnightblue" stroke="midnightblue" points="532.21,-314.5 522.21,-318 532.21,-321.5 532.21,-314.5"/>
</g>
<!-- Node13 -->
<g id="node13" class="node">
<title>Node13</title>
<g id="a_node13"><a xlink:href="structMoFEM_1_1QuadPolynomialBase.html" target="_top" xlink:title="Calculate base functions on triangle.">
<polygon fill="white" stroke="black" points="576.5,-270.5 576.5,-289.5 739.5,-289.5 739.5,-270.5 576.5,-270.5"/>
<text text-anchor="middle" x="658" y="-277.5" font-family="Helvetica,sans-Serif" font-size="10.00">MoFEM::QuadPolynomialBase</text>
</a>
</g>
</g>
<!-- Node3&#45;&gt;Node13 -->
<g id="edge12" class="edge">
<title>Node3&#45;&gt;Node13</title>
<path fill="none" stroke="midnightblue" d="M520.26,-306.51C548.23,-301.09 581.21,-294.69 607.77,-289.54"/>
<polygon fill="midnightblue" stroke="midnightblue" points="519.36,-303.12 510.21,-308.46 520.69,-309.99 519.36,-303.12"/>
</g>
<!-- Node14 -->
<g id="node14" class="node">
<title>Node14</title>
<g id="a_node14"><a xlink:href="structMoFEM_1_1TetPolynomialBase.html" target="_top" xlink:title="Calculate base functions on tetrahedral.">
<polygon fill="white" stroke="black" points="582,-232.5 582,-251.5 734,-251.5 734,-232.5 582,-232.5"/>
<text text-anchor="middle" x="658" y="-239.5" font-family="Helvetica,sans-Serif" font-size="10.00">MoFEM::TetPolynomialBase</text>
</a>
</g>
</g>
<!-- Node3&#45;&gt;Node14 -->
<g id="edge13" class="edge">
<title>Node3&#45;&gt;Node14</title>
<path fill="none" stroke="midnightblue" d="M484,-302.96C504.68,-290.07 536.28,-271.9 566,-261 576.3,-257.22 587.55,-254.11 598.52,-251.58"/>
<polygon fill="midnightblue" stroke="midnightblue" points="481.88,-300.15 475.31,-308.46 485.63,-306.06 481.88,-300.15"/>
</g>
<!-- Node15 -->
<g id="node15" class="node">
<title>Node15</title>
<g id="a_node15"><a xlink:href="structMoFEM_1_1TriPolynomialBase.html" target="_top" xlink:title="Calculate base functions on triangle.">
<polygon fill="white" stroke="black" points="583.5,-194.5 583.5,-213.5 732.5,-213.5 732.5,-194.5 583.5,-194.5"/>
<text text-anchor="middle" x="658" y="-201.5" font-family="Helvetica,sans-Serif" font-size="10.00">MoFEM::TriPolynomialBase</text>
</a>
</g>
</g>
<!-- Node3&#45;&gt;Node15 -->
<g id="edge14" class="edge">
<title>Node3&#45;&gt;Node15</title>
<path fill="none" stroke="midnightblue" d="M474.99,-300.61C493.46,-278.9 528.09,-242.29 566,-223 573.62,-219.12 581.99,-216.03 590.47,-213.58"/>
<polygon fill="midnightblue" stroke="midnightblue" points="472.22,-298.46 468.52,-308.39 477.61,-302.94 472.22,-298.46"/>
</g>
<!-- Node16 -->
<g id="node16" class="node">
<title>Node16</title>
<g id="a_node16"><a xlink:href="structSomeUserPolynomialBase.html" target="_top" xlink:title="Class used to calculate base functions at integration points.">
<polygon fill="white" stroke="black" points="585,-156.5 585,-175.5 731,-175.5 731,-156.5 585,-156.5"/>
<text text-anchor="middle" x="658" y="-163.5" font-family="Helvetica,sans-Serif" font-size="10.00">SomeUserPolynomialBase</text>
</a>
</g>
</g>
<!-- Node3&#45;&gt;Node16 -->
<g id="edge15" class="edge">
<title>Node3&#45;&gt;Node16</title>
<path fill="none" stroke="midnightblue" d="M470.25,-299.25C485.76,-269.9 519.9,-213.53 566,-185 572.18,-181.18 578.99,-178.11 586.03,-175.66"/>
<polygon fill="midnightblue" stroke="midnightblue" points="467,-297.92 465.55,-308.41 473.23,-301.11 467,-297.92"/>
</g>
<!-- Node9 -->
<g id="node9" class="node">
<title>Node9</title>
<g id="a_node9"><a xlink:href="structMoFEM_1_1IntegratedJacobiPolynomial.html" target="_top" xlink:title=" ">
<polygon fill="white" stroke="black" points="794,-346.5 794,-365.5 987,-365.5 987,-346.5 794,-346.5"/>
<text text-anchor="middle" x="890.5" y="-353.5" font-family="Helvetica,sans-Serif" font-size="10.00">MoFEM::IntegratedJacobiPolynomial</text>
</a>
</g>
</g>
<!-- Node8&#45;&gt;Node9 -->
<g id="edge8" class="edge">
<title>Node8&#45;&gt;Node9</title>
<path fill="none" stroke="midnightblue" d="M739.85,-356C757.3,-356 775.91,-356 793.86,-356"/>
<polygon fill="midnightblue" stroke="midnightblue" points="739.72,-352.5 729.72,-356 739.72,-359.5 739.72,-352.5"/>
</g>
<!-- Node11 -->
<g id="node11" class="node">
<title>Node11</title>
<g id="a_node11"><a xlink:href="structMoFEM_1_1KernelLobattoPolynomial.html" target="_top" xlink:title="Calculating Lobatto base functions.">
<polygon fill="white" stroke="black" points="800,-308.5 800,-327.5 981,-327.5 981,-308.5 800,-308.5"/>
<text text-anchor="middle" x="890.5" y="-315.5" font-family="Helvetica,sans-Serif" font-size="10.00">MoFEM::KernelLobattoPolynomial</text>
</a>
</g>
</g>
<!-- Node10&#45;&gt;Node11 -->
<g id="edge10" class="edge">
<title>Node10&#45;&gt;Node11</title>
<path fill="none" stroke="midnightblue" d="M747.06,-318C764.27,-318 782.35,-318 799.62,-318"/>
<polygon fill="midnightblue" stroke="midnightblue" points="747.04,-314.5 737.04,-318 747.04,-321.5 747.04,-314.5"/>
</g>
<!-- Node12 -->
<g id="node12" class="node">
<title>Node12</title>
<g id="a_node12"><a xlink:href="structMoFEM_1_1LobattoPolynomial.html" target="_top" xlink:title="Calculating Lobatto base functions.">
<polygon fill="white" stroke="black" points="815.5,-270.5 815.5,-289.5 965.5,-289.5 965.5,-270.5 815.5,-270.5"/>
<text text-anchor="middle" x="890.5" y="-277.5" font-family="Helvetica,sans-Serif" font-size="10.00">MoFEM::LobattoPolynomial</text>
</a>
</g>
</g>
<!-- Node10&#45;&gt;Node12 -->
<g id="edge11" class="edge">
<title>Node10&#45;&gt;Node12</title>
<path fill="none" stroke="midnightblue" d="M726.97,-306.8C760.22,-301.31 799.82,-294.78 831.61,-289.54"/>
<polygon fill="midnightblue" stroke="midnightblue" points="726.16,-303.38 716.87,-308.46 727.3,-310.29 726.16,-303.38"/>
</g>
<!-- Node18 -->
<g id="node18" class="node">
<title>Node18</title>
<g id="a_node18"><a xlink:href="structMoFEM_1_1EntPolynomialBaseCtx.html" target="_top" xlink:title="Class used to pass element data to calculate base functions on tet,triangle,edge.">
<polygon fill="white" stroke="black" points="573,-118.5 573,-137.5 743,-137.5 743,-118.5 573,-118.5"/>
<text text-anchor="middle" x="658" y="-125.5" font-family="Helvetica,sans-Serif" font-size="10.00">MoFEM::EntPolynomialBaseCtx</text>
</a>
</g>
</g>
<!-- Node17&#45;&gt;Node18 -->
<g id="edge17" class="edge">
<title>Node17&#45;&gt;Node18</title>
<path fill="none" stroke="midnightblue" d="M540.24,-116.68C550.93,-117.72 561.94,-118.78 572.71,-119.83"/>
<polygon fill="midnightblue" stroke="midnightblue" points="540.39,-113.18 530.1,-115.7 539.72,-120.15 540.39,-113.18"/>
</g>
<!-- Node21 -->
<g id="node21" class="node">
<title>Node21</title>
<g id="a_node21"><a xlink:href="structMoFEM_1_1JacobiPolynomialCtx.html" target="_top" xlink:title="Class used to give arguments to Legendre base functions.">
<polygon fill="white" stroke="black" points="578.5,-77.5 578.5,-96.5 737.5,-96.5 737.5,-77.5 578.5,-77.5"/>
<text text-anchor="middle" x="658" y="-84.5" font-family="Helvetica,sans-Serif" font-size="10.00">MoFEM::JacobiPolynomialCtx</text>
</a>
</g>
</g>
<!-- Node17&#45;&gt;Node21 -->
<g id="edge20" class="edge">
<title>Node17&#45;&gt;Node21</title>
<path fill="none" stroke="midnightblue" d="M540.13,-100.12C552.78,-98.7 565.86,-97.23 578.49,-95.81"/>
<polygon fill="midnightblue" stroke="midnightblue" points="539.65,-96.65 530.1,-101.24 540.43,-103.61 539.65,-96.65"/>
</g>
<!-- Node23 -->
<g id="node23" class="node">
<title>Node23</title>
<g id="a_node23"><a xlink:href="structMoFEM_1_1LegendrePolynomialCtx.html" target="_top" xlink:title="Class used to give arguments to Legendre base functions.">
<polygon fill="white" stroke="black" points="570.5,-38.5 570.5,-57.5 745.5,-57.5 745.5,-38.5 570.5,-38.5"/>
<text text-anchor="middle" x="658" y="-45.5" font-family="Helvetica,sans-Serif" font-size="10.00">MoFEM::LegendrePolynomialCtx</text>
</a>
</g>
</g>
<!-- Node17&#45;&gt;Node23 -->
<g id="edge22" class="edge">
<title>Node17&#45;&gt;Node23</title>
<path fill="none" stroke="midnightblue" d="M492.01,-95.42C512.68,-86.73 540.62,-75.69 566,-68 579.16,-64.01 593.61,-60.47 607.05,-57.51"/>
<polygon fill="midnightblue" stroke="midnightblue" points="490.6,-92.21 482.77,-99.35 493.34,-98.65 490.6,-92.21"/>
</g>
<!-- Node19 -->
<g id="node19" class="node">
<title>Node19</title>
<g id="a_node19"><a xlink:href="structMoFEM_1_1FatPrismPolynomialBaseCtx.html" target="_top" xlink:title="Class used to pass element data to calculate base functions on fat prism.">
<polygon fill="white" stroke="black" points="813,-164 813,-194 968,-194 968,-164 813,-164"/>
<text text-anchor="start" x="821" y="-182" font-family="Helvetica,sans-Serif" font-size="10.00">MoFEM::FatPrismPolynomial</text>
<text text-anchor="middle" x="890.5" y="-171" font-family="Helvetica,sans-Serif" font-size="10.00">BaseCtx</text>
</a>
</g>
</g>
<!-- Node18&#45;&gt;Node19 -->
<g id="edge18" class="edge">
<title>Node18&#45;&gt;Node19</title>
<path fill="none" stroke="midnightblue" d="M715.65,-139.65C727.03,-142.04 738.9,-144.57 750,-147 774.64,-152.4 801.67,-158.54 825.32,-164"/>
<polygon fill="midnightblue" stroke="midnightblue" points="716.3,-136.21 705.8,-137.59 714.87,-143.06 716.3,-136.21"/>
</g>
<!-- Node20 -->
<g id="node20" class="node">
<title>Node20</title>
<g id="a_node20"><a xlink:href="structMoFEM_1_1FlatPrismPolynomialBaseCtx.html" target="_top" xlink:title="Class used to pass element data to calculate base functions on flat prism.">
<polygon fill="white" stroke="black" points="810.5,-115 810.5,-145 970.5,-145 970.5,-115 810.5,-115"/>
<text text-anchor="start" x="818.5" y="-133" font-family="Helvetica,sans-Serif" font-size="10.00">MoFEM::FlatPrismPolynomial</text>
<text text-anchor="middle" x="890.5" y="-122" font-family="Helvetica,sans-Serif" font-size="10.00">BaseCtx</text>
</a>
</g>
</g>
<!-- Node18&#45;&gt;Node20 -->
<g id="edge19" class="edge">
<title>Node18&#45;&gt;Node20</title>
<path fill="none" stroke="midnightblue" d="M753.29,-128.82C772.17,-128.98 791.82,-129.15 810.14,-129.31"/>
<polygon fill="midnightblue" stroke="midnightblue" points="753.22,-125.32 743.19,-128.73 753.16,-132.32 753.22,-125.32"/>
</g>
<!-- Node22 -->
<g id="node22" class="node">
<title>Node22</title>
<g id="a_node22"><a xlink:href="structMoFEM_1_1IntegratedJacobiPolynomialCtx.html" target="_top" xlink:title=" ">
<polygon fill="white" stroke="black" points="786,-76.5 786,-95.5 995,-95.5 995,-76.5 786,-76.5"/>
<text text-anchor="middle" x="890.5" y="-83.5" font-family="Helvetica,sans-Serif" font-size="10.00">MoFEM::IntegratedJacobiPolynomialCtx</text>
</a>
</g>
</g>
<!-- Node21&#45;&gt;Node22 -->
<g id="edge21" class="edge">
<title>Node21&#45;&gt;Node22</title>
<path fill="none" stroke="midnightblue" d="M747.99,-86.61C760.41,-86.56 773.25,-86.5 785.9,-86.45"/>
<polygon fill="midnightblue" stroke="midnightblue" points="747.67,-83.12 737.68,-86.66 747.7,-90.12 747.67,-83.12"/>
</g>
<!-- Node24 -->
<g id="node24" class="node">
<title>Node24</title>
<g id="a_node24"><a xlink:href="structMoFEM_1_1KernelLobattoPolynomialCtx.html" target="_top" xlink:title="Class used to give arguments to Kernel Lobatto base functions.">
<polygon fill="white" stroke="black" points="792,-38.5 792,-57.5 989,-57.5 989,-38.5 792,-38.5"/>
<text text-anchor="middle" x="890.5" y="-45.5" font-family="Helvetica,sans-Serif" font-size="10.00">MoFEM::KernelLobattoPolynomialCtx</text>
</a>
</g>
</g>
<!-- Node23&#45;&gt;Node24 -->
<g id="edge23" class="edge">
<title>Node23&#45;&gt;Node24</title>
<path fill="none" stroke="midnightblue" d="M756.14,-48C767.99,-48 780.09,-48 791.94,-48"/>
<polygon fill="midnightblue" stroke="midnightblue" points="755.81,-44.5 745.81,-48 755.81,-51.5 755.81,-44.5"/>
</g>
<!-- Node25 -->
<g id="node25" class="node">
<title>Node25</title>
<g id="a_node25"><a xlink:href="structMoFEM_1_1LobattoPolynomialCtx.html" target="_top" xlink:title="Class used to give arguments to Lobatto base functions.">
<polygon fill="white" stroke="black" points="807,-0.5 807,-19.5 974,-19.5 974,-0.5 807,-0.5"/>
<text text-anchor="middle" x="890.5" y="-7.5" font-family="Helvetica,sans-Serif" font-size="10.00">MoFEM::LobattoPolynomialCtx</text>
</a>
</g>
</g>
<!-- Node23&#45;&gt;Node25 -->
<g id="edge24" class="edge">
<title>Node23&#45;&gt;Node25</title>
<path fill="none" stroke="midnightblue" d="M726.97,-36.8C760.22,-31.31 799.82,-24.78 831.61,-19.54"/>
<polygon fill="midnightblue" stroke="midnightblue" points="726.16,-33.38 716.87,-38.46 727.3,-40.29 726.16,-33.38"/>
</g>
</g>
</svg>
