<?xml version="1.0" encoding="UTF-8" standalone="no"?>
<!DOCTYPE svg PUBLIC "-//W3C//DTD SVG 1.1//EN"
 "http://www.w3.org/Graphics/SVG/1.1/DTD/svg11.dtd">
<!-- Generated by graphviz version 9.0.0 (20230911.1827)
 -->
<!-- Title: FractureMechanics::GriffithForceElement::AuxFunctions&lt; TYPE &gt; Pages: 1 -->
<!--zoomable 474 -->
<svg id="main" version="1.1" xmlns="http://www.w3.org/2000/svg" xmlns:xlink="http://www.w3.org/1999/xlink" xml:space="preserve" onload="init(evt)">
<style type="text/css"><![CDATA[
.edge:hover path { stroke: red; }
.edge:hover polygon { stroke: red; fill: red; }
]]></style>
<script type="text/javascript"><![CDATA[
var edges = document.getElementsByTagName('g');
if (edges && edges.length) {
  for (var i=0;i<edges.length;i++) {
    if (edges[i].id.substr(0,4)=='edge') {
      edges[i].setAttribute('class','edge');
    }
  }
}
]]></script>
        <defs>
                <circle id="rim" cx="0" cy="0" r="7"/>
                <circle id="rim2" cx="0" cy="0" r="3.5"/>
                <g id="zoomPlus">
                        <use xlink:href="#rim" fill="#404040">
                                <set attributeName="fill" to="#808080" begin="zoomplus.mouseover" end="zoomplus.mouseout"/>
                        </use>
                        <path d="M-4,0h8M0,-4v8" fill="none" stroke="white" stroke-width="1.5" pointer-events="none"/>
                </g>
                <g id="zoomMin">
                        <use xlink:href="#rim" fill="#404040">
                                <set attributeName="fill" to="#808080" begin="zoomminus.mouseover" end="zoomminus.mouseout"/>
                        </use>
                        <path d="M-4,0h8" fill="none" stroke="white" stroke-width="1.5" pointer-events="none"/>
                </g>
                <g id="dirArrow">
                        <path fill="none" stroke="white" stroke-width="1.5" d="M0,-3.0v7 M-2.5,-0.5L0,-3.0L2.5,-0.5"/>
                </g>
               <g id="resetDef">
                       <use xlink:href="#rim2" fill="#404040">
                               <set attributeName="fill" to="#808080" begin="reset.mouseover" end="reset.mouseout"/>
                       </use>
               </g>
        </defs>

<script type="text/javascript">
var viewWidth = 730;
var viewHeight = 474;
var sectionId = 'dynsection-1';
</script>
<script xlink:href="svgpan.js"/>
<svg id="graph" class="graph">
<g id="viewport">
<title>FractureMechanics::GriffithForceElement::AuxFunctions&lt; TYPE &gt;</title>
<!-- Node1 -->
<g id="node1" class="node">
<title>Node1</title>
<g id="a_node1"><a xlink:title=" ">
<polygon fill="#999999" stroke="#666666" points="721.8,-265.38 595.55,-265.38 595.55,-223.62 721.8,-223.62 721.8,-265.38"/>
<text text-anchor="start" x="603.55" y="-251.88" font-family="Helvetica,sans-Serif" font-size="10.00">FractureMechanics::</text>
<text text-anchor="start" x="603.55" y="-240.62" font-family="Helvetica,sans-Serif" font-size="10.00">GriffithForceElement</text>
<text text-anchor="middle" x="658.67" y="-229.38" font-family="Helvetica,sans-Serif" font-size="10.00">::AuxFunctions&lt; TYPE &gt;</text>
</a>
</g>
</g>
<!-- Node2 -->
<g id="node2" class="node">
<title>Node2</title>
<g id="a_node2"><a xlink:title=" ">
<polygon fill="white" stroke="#666666" points="415.55,-436.12 328.3,-436.12 328.3,-416.88 415.55,-416.88 415.55,-436.12"/>
<text text-anchor="middle" x="371.92" y="-422.62" font-family="Helvetica,sans-Serif" font-size="10.00">vector&lt; TYPE &gt;</text>
</a>
</g>
</g>
<!-- Node2&#45;&gt;Node1 -->
<g id="edge1" class="edge">
<title>Node2&#45;&gt;Node1</title>
<path fill="none" stroke="#9a32cd" stroke-dasharray="5,2" d="M427.23,-433.06C471.56,-435.52 533.8,-432.09 577.55,-401.5 624.32,-368.79 645.47,-300.42 653.51,-265.7"/>
<polygon fill="#9a32cd" stroke="#9a32cd" points="427.53,-429.57 417.31,-432.37 427.05,-436.55 427.53,-429.57"/>
<text text-anchor="middle" x="520.55" y="-456.75" font-family="Helvetica,sans-Serif" font-size="10.00"> currentCoords</text>
<text text-anchor="middle" x="520.55" y="-445.5" font-family="Helvetica,sans-Serif" font-size="10.00">griffithForce</text>
<text text-anchor="middle" x="520.55" y="-434.25" font-family="Helvetica,sans-Serif" font-size="10.00">referenceCoords</text>
</g>
<!-- Node3 -->
<g id="node3" class="node">
<title>Node3</title>
<g id="a_node3"><a xlink:href="class_f_tensor_1_1_tensor1.html" target="_top" xlink:title=" ">
<polygon fill="white" stroke="#666666" points="445.55,-346.12 298.3,-346.12 298.3,-326.88 445.55,-326.88 445.55,-346.12"/>
<text text-anchor="middle" x="371.92" y="-332.62" font-family="Helvetica,sans-Serif" font-size="10.00">FTensor::Tensor1&lt; TYPE, 3 &gt;</text>
</a>
</g>
</g>
<!-- Node3&#45;&gt;Node1 -->
<g id="edge2" class="edge">
<title>Node3&#45;&gt;Node1</title>
<path fill="none" stroke="#9a32cd" stroke-dasharray="5,2" d="M456.87,-332.61C494.89,-328.54 539.7,-320.45 577.55,-304.5 599.33,-295.32 620.58,-278.96 635.72,-265.64"/>
<polygon fill="#9a32cd" stroke="#9a32cd" points="456.93,-329.08 447.32,-333.55 457.62,-336.05 456.93,-329.08"/>
<text text-anchor="middle" x="520.55" y="-355.75" font-family="Helvetica,sans-Serif" font-size="10.00"> t_Normal</text>
<text text-anchor="middle" x="520.55" y="-344.5" font-family="Helvetica,sans-Serif" font-size="10.00">t_Tangent1_ksi</text>
<text text-anchor="middle" x="520.55" y="-333.25" font-family="Helvetica,sans-Serif" font-size="10.00">t_Tangent2_eta</text>
</g>
<!-- Node4 -->
<g id="node4" class="node">
<title>Node4</title>
<g id="a_node4"><a xlink:title=" ">
<polygon fill="white" stroke="#666666" points="166.3,-388.12 124.05,-388.12 124.05,-368.88 166.3,-368.88 166.3,-388.12"/>
<text text-anchor="middle" x="145.17" y="-374.62" font-family="Helvetica,sans-Serif" font-size="10.00">TYPE</text>
</a>
</g>
</g>
<!-- Node4&#45;&gt;Node1 -->
<g id="edge6" class="edge">
<title>Node4&#45;&gt;Node1</title>
<path fill="none" stroke="#9a32cd" stroke-dasharray="5,2" d="M177.95,-381.61C265.69,-389.61 509.37,-407.71 577.55,-369.5 617.8,-346.94 640.94,-294.82 651.21,-265.5"/>
<polygon fill="#9a32cd" stroke="#9a32cd" points="178.43,-378.14 168.14,-380.69 177.78,-385.11 178.43,-378.14"/>
<text text-anchor="middle" x="371.92" y="-394.25" font-family="Helvetica,sans-Serif" font-size="10.00"> currentArea</text>
</g>
<!-- Node4&#45;&gt;Node3 -->
<g id="edge3" class="edge">
<title>Node4&#45;&gt;Node3</title>
<path fill="none" stroke="#9a32cd" stroke-dasharray="5,2" d="M177.82,-371.4C191.35,-368.44 207.32,-365.05 221.8,-362.25 250.43,-356.7 282.27,-351.13 309.15,-346.59"/>
<polygon fill="#9a32cd" stroke="#9a32cd" points="177.16,-367.96 168.15,-373.53 178.67,-374.8 177.16,-367.96"/>
<text text-anchor="middle" x="251.05" y="-363.25" font-family="Helvetica,sans-Serif" font-size="10.00"> data</text>
</g>
<!-- Node5 -->
<g id="node5" class="node">
<title>Node5</title>
<g id="a_node5"><a xlink:href="class_f_tensor_1_1_tensor1.html" target="_top" xlink:title=" ">
<polygon fill="white" stroke="#666666" points="199.3,-342.75 91.05,-342.75 91.05,-312.25 199.3,-312.25 199.3,-342.75"/>
<text text-anchor="start" x="99.05" y="-329.25" font-family="Helvetica,sans-Serif" font-size="10.00">FTensor::Tensor1&lt; T,</text>
<text text-anchor="middle" x="145.17" y="-318" font-family="Helvetica,sans-Serif" font-size="10.00"> Tensor_Dim &gt;</text>
</a>
</g>
</g>
<!-- Node5&#45;&gt;Node3 -->
<g id="edge4" class="edge">
<title>Node5&#45;&gt;Node3</title>
<path fill="none" stroke="orange" stroke-dasharray="5,2" d="M210.96,-326.75C232.98,-326.79 257.72,-327.16 280.3,-328.25 286.14,-328.53 292.18,-328.9 298.25,-329.34"/>
<polygon fill="orange" stroke="orange" points="211.23,-323.25 201.24,-326.76 211.24,-330.25 211.23,-323.25"/>
<text text-anchor="middle" x="251.05" y="-329.25" font-family="Helvetica,sans-Serif" font-size="10.00"> &lt; TYPE, 3 &gt;</text>
</g>
<!-- Node6 -->
<g id="node6" class="node">
<title>Node6</title>
<g id="a_node6"><a xlink:title=" ">
<polygon fill="white" stroke="#666666" points="28.8,-337.12 0,-337.12 0,-317.88 28.8,-317.88 28.8,-337.12"/>
<text text-anchor="middle" x="14.4" y="-323.62" font-family="Helvetica,sans-Serif" font-size="10.00">T</text>
</a>
</g>
</g>
<!-- Node6&#45;&gt;Node5 -->
<g id="edge5" class="edge">
<title>Node6&#45;&gt;Node5</title>
<path fill="none" stroke="#9a32cd" stroke-dasharray="5,2" d="M40.53,-327.5C54.82,-327.5 73.27,-327.5 90.64,-327.5"/>
<polygon fill="#9a32cd" stroke="#9a32cd" points="40.69,-324 30.69,-327.5 40.69,-331 40.69,-324"/>
<text text-anchor="middle" x="57.67" y="-329.25" font-family="Helvetica,sans-Serif" font-size="10.00"> data</text>
</g>
<!-- Node7 -->
<g id="node7" class="node">
<title>Node7</title>
<g id="a_node7"><a xlink:href="class_f_tensor_1_1_index.html" target="_top" xlink:title=" ">
<polygon fill="white" stroke="#666666" points="430.55,-309.12 313.3,-309.12 313.3,-289.88 430.55,-289.88 430.55,-309.12"/>
<text text-anchor="middle" x="371.92" y="-295.62" font-family="Helvetica,sans-Serif" font-size="10.00">FTensor::Index&lt; &#39;i&#39;, 3 &gt;</text>
</a>
</g>
</g>
<!-- Node7&#45;&gt;Node1 -->
<g id="edge7" class="edge">
<title>Node7&#45;&gt;Node1</title>
<path fill="none" stroke="#9a32cd" stroke-dasharray="5,2" d="M442.01,-293.33C481.96,-288.95 532.97,-281.96 577.55,-271.5 584.41,-269.89 591.51,-267.93 598.53,-265.82"/>
<polygon fill="#9a32cd" stroke="#9a32cd" points="441.87,-289.83 432.29,-294.37 442.61,-296.79 441.87,-289.83"/>
<text text-anchor="middle" x="520.55" y="-291.25" font-family="Helvetica,sans-Serif" font-size="10.00"> i</text>
</g>
<!-- Node8 -->
<g id="node8" class="node">
<title>Node8</title>
<g id="a_node8"><a xlink:href="class_f_tensor_1_1_index.html" target="_top" xlink:title=" ">
<polygon fill="white" stroke="#666666" points="192.92,-274.75 97.42,-274.75 97.42,-244.25 192.92,-244.25 192.92,-274.75"/>
<text text-anchor="start" x="105.42" y="-261.25" font-family="Helvetica,sans-Serif" font-size="10.00">FTensor::Index&lt; i,</text>
<text text-anchor="middle" x="145.17" y="-250" font-family="Helvetica,sans-Serif" font-size="10.00"> Dim &gt;</text>
</a>
</g>
</g>
<!-- Node8&#45;&gt;Node7 -->
<g id="edge8" class="edge">
<title>Node8&#45;&gt;Node7</title>
<path fill="none" stroke="orange" stroke-dasharray="5,2" d="M204.42,-269.87C238.28,-275.89 280.75,-283.45 314.32,-289.43"/>
<polygon fill="orange" stroke="orange" points="205.24,-266.46 194.78,-268.15 204.01,-273.35 205.24,-266.46"/>
<text text-anchor="middle" x="251.05" y="-284.25" font-family="Helvetica,sans-Serif" font-size="10.00"> &lt; &#39;i&#39;, 3 &gt;</text>
</g>
<!-- Node9 -->
<g id="node9" class="node">
<title>Node9</title>
<g id="a_node9"><a xlink:href="class_f_tensor_1_1_index.html" target="_top" xlink:title=" ">
<polygon fill="white" stroke="#666666" points="430.55,-272.12 313.3,-272.12 313.3,-252.88 430.55,-252.88 430.55,-272.12"/>
<text text-anchor="middle" x="371.92" y="-258.62" font-family="Helvetica,sans-Serif" font-size="10.00">FTensor::Index&lt; &#39;j&#39;, 3 &gt;</text>
</a>
</g>
</g>
<!-- Node8&#45;&gt;Node9 -->
<g id="edge10" class="edge">
<title>Node8&#45;&gt;Node9</title>
<path fill="none" stroke="orange" stroke-dasharray="5,2" d="M204.56,-259.58C228.09,-259.68 255.49,-259.87 280.3,-260.25 290.84,-260.41 302.08,-260.64 312.91,-260.89"/>
<polygon fill="orange" stroke="orange" points="204.88,-256.08 194.87,-259.55 204.85,-263.08 204.88,-256.08"/>
<text text-anchor="middle" x="251.05" y="-261.25" font-family="Helvetica,sans-Serif" font-size="10.00"> &lt; &#39;j&#39;, 3 &gt;</text>
</g>
<!-- Node10 -->
<g id="node10" class="node">
<title>Node10</title>
<g id="a_node10"><a xlink:href="class_f_tensor_1_1_index.html" target="_top" xlink:title=" ">
<polygon fill="white" stroke="#666666" points="432.05,-235.12 311.8,-235.12 311.8,-215.88 432.05,-215.88 432.05,-235.12"/>
<text text-anchor="middle" x="371.92" y="-221.62" font-family="Helvetica,sans-Serif" font-size="10.00">FTensor::Index&lt; &#39;k&#39;, 3 &gt;</text>
</a>
</g>
</g>
<!-- Node8&#45;&gt;Node10 -->
<g id="edge12" class="edge">
<title>Node8&#45;&gt;Node10</title>
<path fill="none" stroke="orange" stroke-dasharray="5,2" d="M204.45,-247.3C210.3,-246.21 216.16,-245.17 221.8,-244.25 251.29,-239.43 284.23,-235.17 311.64,-231.94"/>
<polygon fill="orange" stroke="orange" points="203.92,-243.84 194.76,-249.16 205.24,-250.71 203.92,-243.84"/>
<text text-anchor="middle" x="251.05" y="-245.25" font-family="Helvetica,sans-Serif" font-size="10.00"> &lt; &#39;k&#39;, 3 &gt;</text>
</g>
<!-- Node9&#45;&gt;Node1 -->
<g id="edge9" class="edge">
<title>Node9&#45;&gt;Node1</title>
<path fill="none" stroke="#9a32cd" stroke-dasharray="5,2" d="M442.13,-258.13C488.8,-255.18 549.88,-251.31 595.1,-248.46"/>
<polygon fill="#9a32cd" stroke="#9a32cd" points="442.16,-254.62 432.4,-258.74 442.6,-261.6 442.16,-254.62"/>
<text text-anchor="middle" x="520.55" y="-258.25" font-family="Helvetica,sans-Serif" font-size="10.00"> j</text>
</g>
<!-- Node10&#45;&gt;Node1 -->
<g id="edge11" class="edge">
<title>Node10&#45;&gt;Node1</title>
<path fill="none" stroke="#9a32cd" stroke-dasharray="5,2" d="M443.48,-227.05C482.96,-228.28 533.05,-230.46 577.55,-234.25 583.28,-234.74 589.23,-235.33 595.18,-235.99"/>
<polygon fill="#9a32cd" stroke="#9a32cd" points="443.72,-223.55 433.62,-226.75 443.51,-230.55 443.72,-223.55"/>
<text text-anchor="middle" x="520.55" y="-235.25" font-family="Helvetica,sans-Serif" font-size="10.00"> k</text>
</g>
<!-- Node11 -->
<g id="node11" class="node">
<title>Node11</title>
<g id="a_node11"><a xlink:href="class_f_tensor_1_1_number.html" target="_top" xlink:title=" ">
<polygon fill="white" stroke="#666666" points="429.42,-198.12 314.42,-198.12 314.42,-178.88 429.42,-178.88 429.42,-198.12"/>
<text text-anchor="middle" x="371.92" y="-184.62" font-family="Helvetica,sans-Serif" font-size="10.00">FTensor::Number&lt; 0 &gt;</text>
</a>
</g>
</g>
<!-- Node11&#45;&gt;Node1 -->
<g id="edge13" class="edge">
<title>Node11&#45;&gt;Node1</title>
<path fill="none" stroke="#9a32cd" stroke-dasharray="5,2" d="M440.97,-191.83C481.18,-194.93 532.82,-200.87 577.55,-212.25 588.59,-215.06 600.14,-219.04 610.92,-223.26"/>
<polygon fill="#9a32cd" stroke="#9a32cd" points="441.41,-188.36 431.19,-191.13 440.91,-195.34 441.41,-188.36"/>
<text text-anchor="middle" x="520.55" y="-213.25" font-family="Helvetica,sans-Serif" font-size="10.00"> N0</text>
</g>
<!-- Node12 -->
<g id="node12" class="node">
<title>Node12</title>
<g id="a_node12"><a xlink:href="class_f_tensor_1_1_number.html" target="_top" xlink:title=" ">
<polygon fill="white" stroke="#666666" points="203.8,-180.12 86.55,-180.12 86.55,-160.88 203.8,-160.88 203.8,-180.12"/>
<text text-anchor="middle" x="145.17" y="-166.62" font-family="Helvetica,sans-Serif" font-size="10.00">FTensor::Number&lt; N &gt;</text>
</a>
</g>
</g>
<!-- Node12&#45;&gt;Node11 -->
<g id="edge14" class="edge">
<title>Node12&#45;&gt;Node11</title>
<path fill="none" stroke="orange" stroke-dasharray="5,2" d="M215.44,-176.05C247.06,-178.58 284.05,-181.54 314.02,-183.94"/>
<polygon fill="orange" stroke="orange" points="215.81,-172.57 205.56,-175.26 215.25,-179.54 215.81,-172.57"/>
<text text-anchor="middle" x="251.05" y="-182.25" font-family="Helvetica,sans-Serif" font-size="10.00"> &lt; 0 &gt;</text>
</g>
<!-- Node13 -->
<g id="node13" class="node">
<title>Node13</title>
<g id="a_node13"><a xlink:href="class_f_tensor_1_1_number.html" target="_top" xlink:title=" ">
<polygon fill="white" stroke="#666666" points="429.42,-161.12 314.42,-161.12 314.42,-141.88 429.42,-141.88 429.42,-161.12"/>
<text text-anchor="middle" x="371.92" y="-147.62" font-family="Helvetica,sans-Serif" font-size="10.00">FTensor::Number&lt; 1 &gt;</text>
</a>
</g>
</g>
<!-- Node12&#45;&gt;Node13 -->
<g id="edge16" class="edge">
<title>Node12&#45;&gt;Node13</title>
<path fill="none" stroke="orange" stroke-dasharray="5,2" d="M215.19,-161.9C217.42,-161.67 219.63,-161.45 221.8,-161.25 252.28,-158.39 286.35,-156.1 314.22,-154.45"/>
<polygon fill="orange" stroke="orange" points="215.02,-158.39 205.45,-162.93 215.76,-165.35 215.02,-158.39"/>
<text text-anchor="middle" x="251.05" y="-163.25" font-family="Helvetica,sans-Serif" font-size="10.00"> &lt; 1 &gt;</text>
</g>
<!-- Node13&#45;&gt;Node1 -->
<g id="edge15" class="edge">
<title>Node13&#45;&gt;Node1</title>
<path fill="none" stroke="#9a32cd" stroke-dasharray="5,2" d="M441.13,-151.02C482.17,-152.99 534.61,-159.56 577.55,-178.25 601.22,-188.55 623.45,-208.01 638.46,-223.19"/>
<polygon fill="#9a32cd" stroke="#9a32cd" points="441.52,-147.54 431.39,-150.64 441.24,-154.53 441.52,-147.54"/>
<text text-anchor="middle" x="520.55" y="-179.25" font-family="Helvetica,sans-Serif" font-size="10.00"> N1</text>
</g>
<!-- Node14 -->
<g id="node14" class="node">
<title>Node14</title>
<g id="a_node14"><a xlink:title=" ">
<polygon fill="white" stroke="#666666" points="428.3,-124 315.55,-124 315.55,-71 428.3,-71 428.3,-124"/>
<text text-anchor="start" x="323.55" y="-110.5" font-family="Helvetica,sans-Serif" font-size="10.00">function&lt; FTensor::</text>
<text text-anchor="start" x="323.55" y="-99.25" font-family="Helvetica,sans-Serif" font-size="10.00">Tensor1&lt; TYPE *, 3 &gt;</text>
<text text-anchor="start" x="323.55" y="-88" font-family="Helvetica,sans-Serif" font-size="10.00">(ublas::vector&lt; TYPE</text>
<text text-anchor="middle" x="371.92" y="-76.75" font-family="Helvetica,sans-Serif" font-size="10.00"> &gt; &amp;v)&gt;</text>
</a>
</g>
</g>
<!-- Node14&#45;&gt;Node1 -->
<g id="edge17" class="edge">
<title>Node14&#45;&gt;Node1</title>
<path fill="none" stroke="#9a32cd" stroke-dasharray="5,2" d="M439.85,-98.84C482.15,-102.46 536.38,-112.4 577.55,-138.25 610.62,-159.01 634.94,-198.67 647.66,-223.22"/>
<polygon fill="#9a32cd" stroke="#9a32cd" points="440.28,-95.37 430.05,-98.11 439.76,-102.35 440.28,-95.37"/>
<text text-anchor="middle" x="520.55" y="-140.25" font-family="Helvetica,sans-Serif" font-size="10.00"> get_ftensor_from_vec</text>
</g>
<!-- Node15 -->
<g id="node15" class="node">
<title>Node15</title>
<g id="a_node15"><a xlink:title=" ">
<polygon fill="white" stroke="#666666" points="441.8,-53 302.05,-53 302.05,0 441.8,0 441.8,-53"/>
<text text-anchor="start" x="310.05" y="-39.5" font-family="Helvetica,sans-Serif" font-size="10.00">function&lt; FTensor::</text>
<text text-anchor="start" x="310.05" y="-28.25" font-family="Helvetica,sans-Serif" font-size="10.00">Tensor1&lt; FTensor::PackPtr</text>
<text text-anchor="start" x="310.05" y="-17" font-family="Helvetica,sans-Serif" font-size="10.00">&lt; const double *, 2 &gt;, 2</text>
<text text-anchor="middle" x="371.92" y="-5.75" font-family="Helvetica,sans-Serif" font-size="10.00"> &gt;(const MatrixDouble &amp;m)&gt;</text>
</a>
</g>
</g>
<!-- Node15&#45;&gt;Node1 -->
<g id="edge18" class="edge">
<title>Node15&#45;&gt;Node1</title>
<path fill="none" stroke="#9a32cd" stroke-dasharray="5,2" d="M453.11,-35.09C494.11,-42.99 542.59,-58.15 577.55,-87.25 621.12,-123.51 643.56,-189.48 652.66,-223.29"/>
<polygon fill="#9a32cd" stroke="#9a32cd" points="453.99,-31.7 443.53,-33.37 452.75,-38.58 453.99,-31.7"/>
<text text-anchor="middle" x="520.55" y="-89.25" font-family="Helvetica,sans-Serif" font-size="10.00"> get_ftensor_from_mat_2d</text>
</g>
</g>
</svg>
        <g id="navigator" transform="translate(0 0)" fill="#404254">
                <rect fill="#f2f5e9" fill-opacity="0.5" stroke="#606060" stroke-width=".5" x="0" y="0" width="60" height="60"/>
                <use id="zoomplus" xlink:href="#zoomPlus" x="17" y="9" onmousedown="handleZoom(evt,'in')"/>
                <use id="zoomminus" xlink:href="#zoomMin" x="42" y="9" onmousedown="handleZoom(evt,'out')"/>
                <use id="reset" xlink:href="#resetDef" x="30" y="36" onmousedown="handleReset()"/>
                <g id="arrowUp" xlink:href="#dirArrow" transform="translate(30 24)" onmousedown="handlePan(0,-1)">
                  <use xlink:href="#rim" fill="#404040">
                        <set attributeName="fill" to="#808080" begin="arrowUp.mouseover" end="arrowUp.mouseout"/>
                  </use>
                  <path fill="none" stroke="white" stroke-width="1.5" d="M0,-3.0v7 M-2.5,-0.5L0,-3.0L2.5,-0.5"/>
                </g>
                <g id="arrowRight" xlink:href="#dirArrow" transform="rotate(90) translate(36 -43)" onmousedown="handlePan(1,0)">
                  <use xlink:href="#rim" fill="#404040">
                        <set attributeName="fill" to="#808080" begin="arrowRight.mouseover" end="arrowRight.mouseout"/>
                  </use>
                  <path fill="none" stroke="white" stroke-width="1.5" d="M0,-3.0v7 M-2.5,-0.5L0,-3.0L2.5,-0.5"/>
                </g>
                <g id="arrowDown" xlink:href="#dirArrow" transform="rotate(180) translate(-30 -48)" onmousedown="handlePan(0,1)">
                  <use xlink:href="#rim" fill="#404040">
                        <set attributeName="fill" to="#808080" begin="arrowDown.mouseover" end="arrowDown.mouseout"/>
                  </use>
                  <path fill="none" stroke="white" stroke-width="1.5" d="M0,-3.0v7 M-2.5,-0.5L0,-3.0L2.5,-0.5"/>
                </g>
                <g id="arrowLeft" xlink:href="#dirArrow" transform="rotate(270) translate(-36 17)" onmousedown="handlePan(-1,0)">
                  <use xlink:href="#rim" fill="#404040">
                        <set attributeName="fill" to="#808080" begin="arrowLeft.mouseover" end="arrowLeft.mouseout"/>
                  </use>
                  <path fill="none" stroke="white" stroke-width="1.5" d="M0,-3.0v7 M-2.5,-0.5L0,-3.0L2.5,-0.5"/>
                </g>
        </g>
        <svg viewBox="0 0 15 15" width="100%" height="30px" preserveAspectRatio="xMaxYMin meet">
         <g id="arrow_out" transform="scale(0.3 0.3)">
          <a xlink:href="struct_fracture_mechanics_1_1_griffith_force_element_1_1_aux_functions__coll__graph_org.svg" target="_base">
           <rect id="button" ry="5" rx="5" y="6" x="6" height="38" width="38"
                fill="#f2f5e9" fill-opacity="0.5" stroke="#606060" stroke-width="1.0"/>
           <path id="arrow"
             d="M 11.500037,31.436501 C 11.940474,20.09759 22.043105,11.32322 32.158766,21.979434 L 37.068811,17.246167 C 37.068811,17.246167 37.088388,32 37.088388,32 L 22.160133,31.978069 C 22.160133,31.978069 26.997745,27.140456 26.997745,27.140456 C 18.528582,18.264221 13.291696,25.230495 11.500037,31.436501 z"
             style="fill:#404040;"/>
          </a>
         </g>
        </svg>
</svg>
