<?xml version="1.0" encoding="UTF-8" standalone="no"?>
<!DOCTYPE svg PUBLIC "-//W3C//DTD SVG 1.1//EN"
 "http://www.w3.org/Graphics/SVG/1.1/DTD/svg11.dtd">
<!-- Generated by graphviz version 2.43.0 (0)
 -->
<!-- Title: PeriodicNitscheConstrains::PeriodicFace Pages: 1 -->
<svg width="1346pt" height="602pt"
 viewBox="0.00 0.00 1346.00 602.22" xmlns="http://www.w3.org/2000/svg" xmlns:xlink="http://www.w3.org/1999/xlink">
<g id="graph0" class="graph" transform="scale(1 1) rotate(0) translate(4 598.22)">
<title>PeriodicNitscheConstrains::PeriodicFace</title>
<polygon fill="white" stroke="transparent" points="-4,4 -4,-598.22 1342,-598.22 1342,4 -4,4"/>
<!-- Node1 -->
<g id="node1" class="node">
<title>Node1</title>
<g id="a_node1"><a xlink:title=" ">
<polygon fill="#bfbfbf" stroke="black" points="1194,-206.22 1194,-236.22 1338,-236.22 1338,-206.22 1194,-206.22"/>
<text text-anchor="start" x="1202" y="-224.22" font-family="Helvetica,sans-Serif" font-size="10.00">PeriodicNitscheConstrains</text>
<text text-anchor="middle" x="1266" y="-213.22" font-family="Helvetica,sans-Serif" font-size="10.00">::PeriodicFace</text>
</a>
</g>
</g>
<!-- Node2 -->
<g id="node2" class="node">
<title>Node2</title>
<g id="a_node2"><a xlink:href="classFaceElementForcesAndSourcesCore.html" target="_top" xlink:title=" ">
<polygon fill="white" stroke="black" points="898,-233.72 898,-252.72 1088,-252.72 1088,-233.72 898,-233.72"/>
<text text-anchor="middle" x="993" y="-240.72" font-family="Helvetica,sans-Serif" font-size="10.00">FaceElementForcesAndSourcesCore</text>
</a>
</g>
</g>
<!-- Node2&#45;&gt;Node1 -->
<g id="edge1" class="edge">
<title>Node2&#45;&gt;Node1</title>
<path fill="none" stroke="midnightblue" d="M1098.29,-234.76C1130.23,-232.17 1164.6,-229.37 1193.8,-227.01"/>
<polygon fill="midnightblue" stroke="midnightblue" points="1097.71,-231.29 1088.02,-235.59 1098.27,-238.27 1097.71,-231.29"/>
</g>
<!-- Node3 -->
<g id="node3" class="node">
<title>Node3</title>
<g id="a_node3"><a xlink:href="structPeriodicNitscheConstrains_1_1CommonData.html" target="_top" xlink:title=" ">
<polygon fill="white" stroke="black" points="921,-184.22 921,-214.22 1065,-214.22 1065,-184.22 921,-184.22"/>
<text text-anchor="start" x="929" y="-202.22" font-family="Helvetica,sans-Serif" font-size="10.00">PeriodicNitscheConstrains</text>
<text text-anchor="middle" x="993" y="-191.22" font-family="Helvetica,sans-Serif" font-size="10.00">::CommonData</text>
</a>
</g>
</g>
<!-- Node3&#45;&gt;Node1 -->
<g id="edge2" class="edge">
<title>Node3&#45;&gt;Node1</title>
<path fill="none" stroke="#9a32cd" stroke-dasharray="5,2" d="M1075.36,-205.26C1106.81,-207.65 1143.09,-210.48 1176,-213.22 1181.72,-213.7 1187.65,-214.21 1193.6,-214.73"/>
<polygon fill="#9a32cd" stroke="#9a32cd" points="1075.56,-201.76 1065.33,-204.5 1075.03,-208.74 1075.56,-201.76"/>
<text text-anchor="middle" x="1141" y="-216.22" font-family="Helvetica,sans-Serif" font-size="10.00"> commonData</text>
</g>
<!-- Node4 -->
<g id="node4" class="node">
<title>Node4</title>
<g id="a_node4"><a xlink:title=" ">
<polygon fill="white" stroke="#bfbfbf" points="437,-353.72 437,-526.72 729,-526.72 729,-353.72 437,-353.72"/>
<text text-anchor="start" x="445" y="-514.72" font-family="Helvetica,sans-Serif" font-size="10.00">multi_index_container</text>
<text text-anchor="start" x="445" y="-503.72" font-family="Helvetica,sans-Serif" font-size="10.00">&lt; MultiIndexData, indexed</text>
<text text-anchor="start" x="445" y="-492.72" font-family="Helvetica,sans-Serif" font-size="10.00">_by&lt; ordered_non_unique</text>
<text text-anchor="start" x="445" y="-481.72" font-family="Helvetica,sans-Serif" font-size="10.00">&lt; BOOST_MULTI_INDEX_MEMBER</text>
<text text-anchor="start" x="445" y="-470.72" font-family="Helvetica,sans-Serif" font-size="10.00">(MultiIndexData, int, MultiIndexData</text>
<text text-anchor="start" x="445" y="-459.72" font-family="Helvetica,sans-Serif" font-size="10.00">::gG) &gt;, ordered_non_unique&lt; BOOST</text>
<text text-anchor="start" x="445" y="-448.72" font-family="Helvetica,sans-Serif" font-size="10.00">_MULTI_INDEX_MEMBER(MultiIndexData,</text>
<text text-anchor="start" x="445" y="-437.72" font-family="Helvetica,sans-Serif" font-size="10.00"> int, MultiIndexData::sIde) &gt;, ordered</text>
<text text-anchor="start" x="445" y="-426.72" font-family="Helvetica,sans-Serif" font-size="10.00">_non_unique&lt; BOOST_MULTI_INDEX_MEMBER</text>
<text text-anchor="start" x="445" y="-415.72" font-family="Helvetica,sans-Serif" font-size="10.00">(MultiIndexData, EntityType, MultiIndexData</text>
<text text-anchor="start" x="445" y="-404.72" font-family="Helvetica,sans-Serif" font-size="10.00">::tYpe) &gt;, ordered_unique&lt; composite_key&lt;</text>
<text text-anchor="start" x="445" y="-393.72" font-family="Helvetica,sans-Serif" font-size="10.00"> MultiIndexData, member&lt; MultiIndexData, int,</text>
<text text-anchor="start" x="445" y="-382.72" font-family="Helvetica,sans-Serif" font-size="10.00">&amp;MultiIndexData::gG &gt;, member&lt; MultiIndexData,</text>
<text text-anchor="start" x="445" y="-371.72" font-family="Helvetica,sans-Serif" font-size="10.00"> int,&amp;MultiIndexData::sIde &gt;, member&lt; MultiIndexData,</text>
<text text-anchor="middle" x="583" y="-360.72" font-family="Helvetica,sans-Serif" font-size="10.00"> EntityType,&amp;MultiIndexData::tYpe &gt; &gt; &gt; &gt; &gt;</text>
</a>
</g>
</g>
<!-- Node4&#45;&gt;Node3 -->
<g id="edge3" class="edge">
<title>Node4&#45;&gt;Node3</title>
<path fill="none" stroke="#9a32cd" stroke-dasharray="5,2" d="M739.35,-422.46C791.22,-408.81 844.73,-384.92 880,-343.22 914.55,-302.39 862.31,-264.07 898,-224.22 904.2,-217.31 912.07,-212.21 920.61,-208.46"/>
<polygon fill="#9a32cd" stroke="#9a32cd" points="738.2,-419.15 729.35,-424.98 739.9,-425.93 738.2,-419.15"/>
<text text-anchor="middle" x="813.5" y="-432.22" font-family="Helvetica,sans-Serif" font-size="10.00"> volumesContainer</text>
<text text-anchor="middle" x="813.5" y="-421.22" font-family="Helvetica,sans-Serif" font-size="10.00">facesContainer</text>
</g>
<!-- Node5 -->
<g id="node5" class="node">
<title>Node5</title>
<g id="a_node5"><a xlink:title=" ">
<polygon fill="white" stroke="#bfbfbf" points="0,-430.72 0,-449.72 125,-449.72 125,-430.72 0,-430.72"/>
<text text-anchor="middle" x="62.5" y="-437.72" font-family="Helvetica,sans-Serif" font-size="10.00">multi_index_container</text>
</a>
</g>
</g>
<!-- Node5&#45;&gt;Node4 -->
<g id="edge4" class="edge">
<title>Node5&#45;&gt;Node4</title>
<path fill="none" stroke="orange" stroke-dasharray="5,2" d="M135.17,-440.22C212.75,-440.22 338.59,-440.22 436.98,-440.22"/>
<polygon fill="orange" stroke="orange" points="135.01,-436.72 125.01,-440.22 135.01,-443.72 135.01,-436.72"/>
<text text-anchor="start" x="143" y="-586.22" font-family="Helvetica,sans-Serif" font-size="10.00"> &lt; MultiIndexData, indexed</text>
<text text-anchor="start" x="143" y="-575.22" font-family="Helvetica,sans-Serif" font-size="10.00">_by&lt; ordered_non_unique</text>
<text text-anchor="start" x="143" y="-564.22" font-family="Helvetica,sans-Serif" font-size="10.00">&lt; BOOST_MULTI_INDEX_MEMBER</text>
<text text-anchor="start" x="143" y="-553.22" font-family="Helvetica,sans-Serif" font-size="10.00">(MultiIndexData, int, MultiIndexData</text>
<text text-anchor="start" x="143" y="-542.22" font-family="Helvetica,sans-Serif" font-size="10.00">::gG) &gt;, ordered_non_unique&lt; BOOST</text>
<text text-anchor="start" x="143" y="-531.22" font-family="Helvetica,sans-Serif" font-size="10.00">_MULTI_INDEX_MEMBER(MultiIndexData,</text>
<text text-anchor="start" x="143" y="-520.22" font-family="Helvetica,sans-Serif" font-size="10.00"> int, MultiIndexData::sIde) &gt;, ordered</text>
<text text-anchor="start" x="143" y="-509.22" font-family="Helvetica,sans-Serif" font-size="10.00">_non_unique&lt; BOOST_MULTI_INDEX_MEMBER</text>
<text text-anchor="start" x="143" y="-498.22" font-family="Helvetica,sans-Serif" font-size="10.00">(MultiIndexData, EntityType, MultiIndexData</text>
<text text-anchor="start" x="143" y="-487.22" font-family="Helvetica,sans-Serif" font-size="10.00">::tYpe) &gt;, ordered_unique&lt; composite_key&lt;</text>
<text text-anchor="start" x="143" y="-476.22" font-family="Helvetica,sans-Serif" font-size="10.00"> MultiIndexData, member&lt; MultiIndexData, int,</text>
<text text-anchor="start" x="143" y="-465.22" font-family="Helvetica,sans-Serif" font-size="10.00">&amp;MultiIndexData::gG &gt;, member&lt; MultiIndexData,</text>
<text text-anchor="start" x="143" y="-454.22" font-family="Helvetica,sans-Serif" font-size="10.00"> int,&amp;MultiIndexData::sIde &gt;, member&lt; MultiIndexData,</text>
<text text-anchor="middle" x="281" y="-443.22" font-family="Helvetica,sans-Serif" font-size="10.00"> EntityType,&amp;MultiIndexData::tYpe &gt; &gt; &gt; &gt; &gt;</text>
</g>
<!-- Node6 -->
<g id="node6" class="node">
<title>Node6</title>
<g id="a_node6"><a xlink:href="classdouble.html" target="_top" xlink:title=" ">
<polygon fill="white" stroke="black" points="558,-315.72 558,-334.72 608,-334.72 608,-315.72 558,-315.72"/>
<text text-anchor="middle" x="583" y="-322.72" font-family="Helvetica,sans-Serif" font-size="10.00">double</text>
</a>
</g>
</g>
<!-- Node6&#45;&gt;Node3 -->
<g id="edge5" class="edge">
<title>Node6&#45;&gt;Node3</title>
<path fill="none" stroke="#9a32cd" stroke-dasharray="5,2" d="M618.4,-327.3C687.89,-330.73 841.64,-334.27 880,-301.22 906.63,-278.29 873.53,-249.45 898,-224.22 904.35,-217.68 912.2,-212.78 920.64,-209.13"/>
<polygon fill="#9a32cd" stroke="#9a32cd" points="618.57,-323.8 608.4,-326.78 618.2,-330.79 618.57,-323.8"/>
<text text-anchor="middle" x="813.5" y="-331.22" font-family="Helvetica,sans-Serif" font-size="10.00"> eps</text>
</g>
<!-- Node7 -->
<g id="node7" class="node">
<title>Node7</title>
<g id="a_node7"><a xlink:title=" ">
<polygon fill="white" stroke="#bfbfbf" points="508.5,-266.22 508.5,-296.22 657.5,-296.22 657.5,-266.22 508.5,-266.22"/>
<text text-anchor="start" x="516.5" y="-284.22" font-family="Helvetica,sans-Serif" font-size="10.00">map&lt; EntityHandle,</text>
<text text-anchor="middle" x="583" y="-273.22" font-family="Helvetica,sans-Serif" font-size="10.00"> vector&lt; VectorDouble &gt; &gt;</text>
</a>
</g>
</g>
<!-- Node7&#45;&gt;Node3 -->
<g id="edge6" class="edge">
<title>Node7&#45;&gt;Node3</title>
<path fill="none" stroke="#9a32cd" stroke-dasharray="5,2" d="M667.91,-289.04C730.36,-290.95 815.57,-285.04 880,-248.22 891.58,-241.61 886.95,-231.68 898,-224.22 905,-219.5 912.85,-215.67 920.95,-212.56"/>
<polygon fill="#9a32cd" stroke="#9a32cd" points="667.83,-285.53 657.7,-288.65 667.56,-292.52 667.83,-285.53"/>
<text text-anchor="middle" x="813.5" y="-289.22" font-family="Helvetica,sans-Serif" font-size="10.00"> localCoordsMap</text>
</g>
<!-- Node8 -->
<g id="node8" class="node">
<title>Node8</title>
<g id="a_node8"><a xlink:href="classRange.html" target="_top" xlink:title=" ">
<polygon fill="white" stroke="black" points="559.5,-227.72 559.5,-246.72 606.5,-246.72 606.5,-227.72 559.5,-227.72"/>
<text text-anchor="middle" x="583" y="-234.72" font-family="Helvetica,sans-Serif" font-size="10.00">Range</text>
</a>
</g>
</g>
<!-- Node8&#45;&gt;Node3 -->
<g id="edge7" class="edge">
<title>Node8&#45;&gt;Node3</title>
<path fill="none" stroke="#9a32cd" stroke-dasharray="5,2" d="M616.91,-237.18C671.71,-236.75 785.01,-234.31 880,-222.22 895.46,-220.26 911.97,-217.33 927.43,-214.23"/>
<polygon fill="#9a32cd" stroke="#9a32cd" points="616.73,-233.69 606.76,-237.25 616.78,-240.69 616.73,-233.69"/>
<text text-anchor="middle" x="813.5" y="-236.22" font-family="Helvetica,sans-Serif" font-size="10.00"> skinFaces</text>
</g>
<!-- Node9 -->
<g id="node9" class="node">
<title>Node9</title>
<g id="a_node9"><a xlink:title=" ">
<polygon fill="white" stroke="#bfbfbf" points="515,-189.72 515,-208.72 651,-208.72 651,-189.72 515,-189.72"/>
<text text-anchor="middle" x="583" y="-196.72" font-family="Helvetica,sans-Serif" font-size="10.00">vector&lt; MatrixDouble &gt;</text>
</a>
</g>
</g>
<!-- Node9&#45;&gt;Node3 -->
<g id="edge8" class="edge">
<title>Node9&#45;&gt;Node3</title>
<path fill="none" stroke="#9a32cd" stroke-dasharray="5,2" d="M661.66,-199.22C736.34,-199.22 848.3,-199.22 920.75,-199.22"/>
<polygon fill="#9a32cd" stroke="#9a32cd" points="661.37,-195.72 651.37,-199.22 661.37,-202.72 661.37,-195.72"/>
<text text-anchor="middle" x="813.5" y="-213.22" font-family="Helvetica,sans-Serif" font-size="10.00"> sTress</text>
<text text-anchor="middle" x="813.5" y="-202.22" font-family="Helvetica,sans-Serif" font-size="10.00">stressJacobian</text>
</g>
<!-- Node10 -->
<g id="node10" class="node">
<title>Node10</title>
<g id="a_node10"><a xlink:title=" ">
<polygon fill="white" stroke="#bfbfbf" points="525,-140.22 525,-170.22 641,-170.22 641,-140.22 525,-140.22"/>
<text text-anchor="start" x="533" y="-158.22" font-family="Helvetica,sans-Serif" font-size="10.00">map&lt; EntityHandle,</text>
<text text-anchor="middle" x="583" y="-147.22" font-family="Helvetica,sans-Serif" font-size="10.00"> vector&lt; int &gt; &gt;</text>
</a>
</g>
</g>
<!-- Node10&#45;&gt;Node3 -->
<g id="edge9" class="edge">
<title>Node10&#45;&gt;Node3</title>
<path fill="none" stroke="#9a32cd" stroke-dasharray="5,2" d="M651.17,-156.11C711.38,-157.67 801.98,-161.88 880,-173.22 898.27,-175.88 917.96,-180.01 935.66,-184.21"/>
<polygon fill="#9a32cd" stroke="#9a32cd" points="651.12,-152.61 641.03,-155.87 650.95,-159.61 651.12,-152.61"/>
<text text-anchor="middle" x="813.5" y="-187.22" font-family="Helvetica,sans-Serif" font-size="10.00"> inTetFaceGaussPtsNumber</text>
<text text-anchor="middle" x="813.5" y="-176.22" font-family="Helvetica,sans-Serif" font-size="10.00">inTetTetGaussPtsNumber</text>
</g>
<!-- Node11 -->
<g id="node11" class="node">
<title>Node11</title>
<g id="a_node11"><a xlink:title=" ">
<polygon fill="white" stroke="#bfbfbf" points="561,-101.72 561,-120.72 605,-120.72 605,-101.72 561,-101.72"/>
<text text-anchor="middle" x="583" y="-108.72" font-family="Helvetica,sans-Serif" font-size="10.00">string</text>
</a>
</g>
</g>
<!-- Node11&#45;&gt;Node3 -->
<g id="edge10" class="edge">
<title>Node11&#45;&gt;Node3</title>
<path fill="none" stroke="#9a32cd" stroke-dasharray="5,2" d="M615.4,-111.42C670.2,-112.49 786.37,-118.12 880,-145.22 911.31,-154.29 944.65,-171.45 966.73,-184"/>
<polygon fill="#9a32cd" stroke="#9a32cd" points="615.34,-107.91 605.29,-111.25 615.23,-114.91 615.34,-107.91"/>
<text text-anchor="middle" x="813.5" y="-148.22" font-family="Helvetica,sans-Serif" font-size="10.00"> volumeElemName</text>
</g>
<!-- Node12 -->
<g id="node12" class="node">
<title>Node12</title>
<g id="a_node12"><a xlink:title=" ">
<polygon fill="white" stroke="#bfbfbf" points="525,-52.22 525,-82.22 641,-82.22 641,-52.22 525,-52.22"/>
<text text-anchor="start" x="533" y="-70.22" font-family="Helvetica,sans-Serif" font-size="10.00">map&lt; EntityHandle,</text>
<text text-anchor="middle" x="583" y="-59.22" font-family="Helvetica,sans-Serif" font-size="10.00"> double &gt;</text>
</a>
</g>
</g>
<!-- Node12&#45;&gt;Node3 -->
<g id="edge11" class="edge">
<title>Node12&#45;&gt;Node3</title>
<path fill="none" stroke="#9a32cd" stroke-dasharray="5,2" d="M651.1,-65.25C713.03,-65.83 806.28,-72.92 880,-105.22 921.85,-123.56 960.22,-162.58 979.31,-184.14"/>
<polygon fill="#9a32cd" stroke="#9a32cd" points="651.07,-61.75 641.05,-65.21 651.04,-68.75 651.07,-61.75"/>
<text text-anchor="middle" x="813.5" y="-108.22" font-family="Helvetica,sans-Serif" font-size="10.00"> dIstance</text>
</g>
<!-- Node13 -->
<g id="node13" class="node">
<title>Node13</title>
<g id="a_node13"><a xlink:title=" ">
<polygon fill="white" stroke="#bfbfbf" points="515.5,-6.72 515.5,-25.72 650.5,-25.72 650.5,-6.72 515.5,-6.72"/>
<text text-anchor="middle" x="583" y="-13.72" font-family="Helvetica,sans-Serif" font-size="10.00">vector&lt; VectorDouble &gt;</text>
</a>
</g>
</g>
<!-- Node13&#45;&gt;Node3 -->
<g id="edge12" class="edge">
<title>Node13&#45;&gt;Node3</title>
<path fill="none" stroke="#9a32cd" stroke-dasharray="5,2" d="M645.12,-5.32C708.26,2.71 807.52,6.07 880,-35.22 939.92,-69.36 974.57,-150.26 986.87,-184.02"/>
<polygon fill="#9a32cd" stroke="#9a32cd" points="644.36,-1.89 634.92,-6.7 645.3,-8.83 644.36,-1.89"/>
<text text-anchor="middle" x="813.5" y="-60.22" font-family="Helvetica,sans-Serif" font-size="10.00"> dIsplacements</text>
<text text-anchor="middle" x="813.5" y="-49.22" font-family="Helvetica,sans-Serif" font-size="10.00">coordsAtGaussPts</text>
<text text-anchor="middle" x="813.5" y="-38.22" font-family="Helvetica,sans-Serif" font-size="10.00">hoCoordsAtGaussPts</text>
</g>
</g>
</svg>
