<?xml version="1.0" encoding="UTF-8" standalone="no"?>
<!DOCTYPE svg PUBLIC "-//W3C//DTD SVG 1.1//EN"
 "http://www.w3.org/Graphics/SVG/1.1/DTD/svg11.dtd">
<!-- Generated by graphviz version 2.43.0 (0)
 -->
<!-- Title: MoFEM::BasicMethodPtr Pages: 1 -->
<svg width="2057pt" height="1390pt"
 viewBox="0.00 0.00 2057.00 1389.86" xmlns="http://www.w3.org/2000/svg" xmlns:xlink="http://www.w3.org/1999/xlink">
<g id="graph0" class="graph" transform="scale(1 1) rotate(0) translate(4 1385.86)">
<title>MoFEM::BasicMethodPtr</title>
<polygon fill="white" stroke="transparent" points="-4,4 -4,-1385.86 2053,-1385.86 2053,4 -4,4"/>
<!-- Node1 -->
<g id="node1" class="node">
<title>Node1</title>
<g id="a_node1"><a xlink:title=" ">
<polygon fill="#bfbfbf" stroke="black" points="1914,-652.36 1914,-671.36 2049,-671.36 2049,-652.36 1914,-652.36"/>
<text text-anchor="middle" x="1981.5" y="-659.36" font-family="Helvetica,sans-Serif" font-size="10.00">MoFEM::BasicMethodPtr</text>
</a>
</g>
</g>
<!-- Node2 -->
<g id="node2" class="node">
<title>Node2</title>
<g id="a_node2"><a xlink:href="structMoFEM_1_1BasicMethod.html" target="_top" xlink:title="Data structure to exchange data between mofem and User Loop Methods.">
<polygon fill="white" stroke="black" points="1721,-679.36 1721,-698.36 1843,-698.36 1843,-679.36 1721,-679.36"/>
<text text-anchor="middle" x="1782" y="-686.36" font-family="Helvetica,sans-Serif" font-size="10.00">MoFEM::BasicMethod</text>
</a>
</g>
</g>
<!-- Node2&#45;&gt;Node1 -->
<g id="edge1" class="edge">
<title>Node2&#45;&gt;Node1</title>
<path fill="none" stroke="#9a32cd" stroke-dasharray="5,2" d="M1853.21,-679.26C1872.93,-676.56 1894.32,-673.64 1913.83,-670.97"/>
<polygon fill="#9a32cd" stroke="#9a32cd" points="1852.49,-675.82 1843.06,-680.64 1853.44,-682.76 1852.49,-675.82"/>
<text text-anchor="middle" x="1878.5" y="-680.86" font-family="Helvetica,sans-Serif" font-size="10.00"> rawPtr</text>
</g>
<!-- Node3 -->
<g id="node3" class="node">
<title>Node3</title>
<g id="a_node3"><a xlink:href="structMoFEM_1_1KspMethod.html" target="_top" xlink:title="data structure for ksp (linear solver) context">
<polygon fill="white" stroke="black" points="1442,-734.36 1442,-753.36 1555,-753.36 1555,-734.36 1442,-734.36"/>
<text text-anchor="middle" x="1498.5" y="-741.36" font-family="Helvetica,sans-Serif" font-size="10.00">MoFEM::KspMethod</text>
</a>
</g>
</g>
<!-- Node3&#45;&gt;Node2 -->
<g id="edge2" class="edge">
<title>Node3&#45;&gt;Node2</title>
<path fill="none" stroke="midnightblue" d="M1565.47,-737.5C1605.57,-732.89 1657.63,-725.56 1703,-714.86 1721.06,-710.59 1740.89,-703.96 1756.04,-698.45"/>
<polygon fill="midnightblue" stroke="midnightblue" points="1564.83,-734.05 1555.28,-738.65 1565.61,-741.01 1564.83,-734.05"/>
</g>
<!-- Node4 -->
<g id="node4" class="node">
<title>Node4</title>
<g id="a_node4"><a xlink:href="structMoFEM_1_1PetscData.html" target="_top" xlink:title=" ">
<polygon fill="white" stroke="black" points="1087.5,-775.36 1087.5,-794.36 1195.5,-794.36 1195.5,-775.36 1087.5,-775.36"/>
<text text-anchor="middle" x="1141.5" y="-782.36" font-family="Helvetica,sans-Serif" font-size="10.00">MoFEM::PetscData</text>
</a>
</g>
</g>
<!-- Node4&#45;&gt;Node3 -->
<g id="edge3" class="edge">
<title>Node4&#45;&gt;Node3</title>
<path fill="none" stroke="midnightblue" d="M1191.88,-772.98C1222.76,-765.59 1257.37,-757.38 1261,-756.86 1322.45,-747.98 1393.69,-745.05 1441.79,-744.14"/>
<polygon fill="midnightblue" stroke="midnightblue" points="1190.94,-769.61 1182.03,-775.34 1192.57,-776.41 1190.94,-769.61"/>
</g>
<!-- Node14 -->
<g id="node14" class="node">
<title>Node14</title>
<g id="a_node14"><a xlink:href="structMoFEM_1_1SnesMethod.html" target="_top" xlink:title="data structure for snes (nonlinear solver) context">
<polygon fill="white" stroke="black" points="1439,-825.36 1439,-844.36 1558,-844.36 1558,-825.36 1439,-825.36"/>
<text text-anchor="middle" x="1498.5" y="-832.36" font-family="Helvetica,sans-Serif" font-size="10.00">MoFEM::SnesMethod</text>
</a>
</g>
</g>
<!-- Node4&#45;&gt;Node14 -->
<g id="edge16" class="edge">
<title>Node4&#45;&gt;Node14</title>
<path fill="none" stroke="darkgreen" d="M1205.58,-795.31C1223.48,-798.19 1242.99,-801.23 1261,-803.86 1321.44,-812.66 1390.75,-821.61 1438.63,-827.61"/>
<polygon fill="darkgreen" stroke="darkgreen" points="1205.97,-791.83 1195.54,-793.69 1204.85,-798.74 1205.97,-791.83"/>
</g>
<!-- Node17 -->
<g id="node17" class="node">
<title>Node17</title>
<g id="a_node17"><a xlink:href="structMoFEM_1_1TSMethod.html" target="_top" xlink:title="data structure for TS (time stepping) context">
<polygon fill="white" stroke="black" points="1445,-1071.36 1445,-1090.36 1552,-1090.36 1552,-1071.36 1445,-1071.36"/>
<text text-anchor="middle" x="1498.5" y="-1078.36" font-family="Helvetica,sans-Serif" font-size="10.00">MoFEM::TSMethod</text>
</a>
</g>
</g>
<!-- Node4&#45;&gt;Node17 -->
<g id="edge22" class="edge">
<title>Node4&#45;&gt;Node17</title>
<path fill="none" stroke="darkgreen" d="M1205.49,-789.75C1219.17,-793.41 1232.62,-799.35 1243,-808.86 1261.65,-825.95 1242.08,-846.06 1261,-862.86 1307.15,-903.83 1347.64,-853.82 1397,-890.86 1460.88,-938.78 1488.19,-1039.35 1495.43,-1071.06"/>
<polygon fill="darkgreen" stroke="darkgreen" points="1206.07,-786.3 1195.54,-787.48 1204.51,-793.12 1206.07,-786.3"/>
</g>
<!-- Node5 -->
<g id="node5" class="node">
<title>Node5</title>
<g id="a_node5"><a xlink:href="structMoFEM_1_1UnknownInterface.html" target="_top" xlink:title="base class for all interface classes">
<polygon fill="white" stroke="black" points="735,-962.36 735,-981.36 883,-981.36 883,-962.36 735,-962.36"/>
<text text-anchor="middle" x="809" y="-969.36" font-family="Helvetica,sans-Serif" font-size="10.00">MoFEM::UnknownInterface</text>
</a>
</g>
</g>
<!-- Node5&#45;&gt;Node4 -->
<g id="edge4" class="edge">
<title>Node5&#45;&gt;Node4</title>
<path fill="none" stroke="midnightblue" d="M864.52,-959.88C920.09,-946.58 1001.02,-923.8 1022,-899.86 1049.16,-868.84 1011.42,-838.57 1040,-808.86 1052.31,-796.05 1070.13,-789.56 1087.35,-786.42"/>
<polygon fill="midnightblue" stroke="midnightblue" points="863.39,-956.56 854.46,-962.26 865,-963.37 863.39,-956.56"/>
</g>
<!-- Node6 -->
<g id="node6" class="node">
<title>Node6</title>
<g id="a_node6"><a xlink:title=" ">
<polygon fill="white" stroke="#bfbfbf" points="386,-1144.36 386,-1207.36 627,-1207.36 627,-1144.36 386,-1144.36"/>
<text text-anchor="start" x="394" y="-1195.36" font-family="Helvetica,sans-Serif" font-size="10.00">multi_index_container</text>
<text text-anchor="start" x="394" y="-1184.36" font-family="Helvetica,sans-Serif" font-size="10.00">&lt; UIdTypeMap, indexed</text>
<text text-anchor="start" x="394" y="-1173.36" font-family="Helvetica,sans-Serif" font-size="10.00">_by&lt; hashed_unique&lt; member</text>
<text text-anchor="start" x="394" y="-1162.36" font-family="Helvetica,sans-Serif" font-size="10.00">&lt; UIdTypeMap, boost::typeindex</text>
<text text-anchor="middle" x="506.5" y="-1151.36" font-family="Helvetica,sans-Serif" font-size="10.00">::type_index, &amp;UIdTypeMap::classIdx &gt; &gt; &gt; &gt;</text>
</a>
</g>
</g>
<!-- Node6&#45;&gt;Node5 -->
<g id="edge5" class="edge">
<title>Node6&#45;&gt;Node5</title>
<path fill="none" stroke="#9a32cd" stroke-dasharray="5,2" d="M562.55,-1138.48C633.71,-1090.18 753.31,-1008.99 793.97,-981.38"/>
<polygon fill="#9a32cd" stroke="#9a32cd" points="560.43,-1135.69 554.12,-1144.2 564.36,-1141.48 560.43,-1135.69"/>
<text text-anchor="middle" x="681" y="-1082.86" font-family="Helvetica,sans-Serif" font-size="10.00"> iFaceTypeMap</text>
</g>
<!-- Node7 -->
<g id="node7" class="node">
<title>Node7</title>
<g id="a_node7"><a xlink:title=" ">
<polygon fill="white" stroke="#bfbfbf" points="0,-1225.36 0,-1244.36 125,-1244.36 125,-1225.36 0,-1225.36"/>
<text text-anchor="middle" x="62.5" y="-1232.36" font-family="Helvetica,sans-Serif" font-size="10.00">multi_index_container</text>
</a>
</g>
</g>
<!-- Node7&#45;&gt;Node2 -->
<g id="edge29" class="edge">
<title>Node7&#45;&gt;Node2</title>
<path fill="none" stroke="#9a32cd" stroke-dasharray="5,2" d="M89.15,-1249.34C104.32,-1257.17 124.19,-1266.17 143,-1270.86 299.64,-1309.9 344.06,-1293.86 505.5,-1293.86 505.5,-1293.86 505.5,-1293.86 1499.5,-1293.86 1774.06,-1293.86 1781.52,-775.33 1781.12,-698.36"/>
<polygon fill="#9a32cd" stroke="#9a32cd" points="90.39,-1246.04 79.92,-1244.43 87.1,-1252.22 90.39,-1246.04"/>
<text text-anchor="middle" x="961.5" y="-1373.86" font-family="Helvetica,sans-Serif" font-size="10.00"> adjacenciesPtr</text>
<text text-anchor="middle" x="961.5" y="-1362.86" font-family="Helvetica,sans-Serif" font-size="10.00">refinedEntitiesPtr</text>
<text text-anchor="middle" x="961.5" y="-1351.86" font-family="Helvetica,sans-Serif" font-size="10.00">finiteElementsEntitiesPtr</text>
<text text-anchor="middle" x="961.5" y="-1340.86" font-family="Helvetica,sans-Serif" font-size="10.00">dofsPtr</text>
<text text-anchor="middle" x="961.5" y="-1329.86" font-family="Helvetica,sans-Serif" font-size="10.00">entitiesPtr</text>
<text text-anchor="middle" x="961.5" y="-1318.86" font-family="Helvetica,sans-Serif" font-size="10.00">finiteElementsPtr</text>
<text text-anchor="middle" x="961.5" y="-1307.86" font-family="Helvetica,sans-Serif" font-size="10.00">refinedFiniteElementsPtr</text>
<text text-anchor="middle" x="961.5" y="-1296.86" font-family="Helvetica,sans-Serif" font-size="10.00">fieldsPtr</text>
</g>
<!-- Node7&#45;&gt;Node6 -->
<g id="edge6" class="edge">
<title>Node7&#45;&gt;Node6</title>
<path fill="none" stroke="orange" stroke-dasharray="5,2" d="M135.56,-1225.24C203.25,-1216.2 305.79,-1202.51 385.77,-1191.84"/>
<polygon fill="orange" stroke="orange" points="134.87,-1221.8 125.42,-1226.59 135.8,-1228.74 134.87,-1221.8"/>
<text text-anchor="start" x="143" y="-1258.86" font-family="Helvetica,sans-Serif" font-size="10.00"> &lt; UIdTypeMap, indexed</text>
<text text-anchor="start" x="143" y="-1247.86" font-family="Helvetica,sans-Serif" font-size="10.00">_by&lt; hashed_unique&lt; member</text>
<text text-anchor="start" x="143" y="-1236.86" font-family="Helvetica,sans-Serif" font-size="10.00">&lt; UIdTypeMap, boost::typeindex</text>
<text text-anchor="middle" x="255.5" y="-1225.86" font-family="Helvetica,sans-Serif" font-size="10.00">::type_index, &amp;UIdTypeMap::classIdx &gt; &gt; &gt; &gt;</text>
</g>
<!-- Node8 -->
<g id="node8" class="node">
<title>Node8</title>
<g id="a_node8"><a xlink:title=" ">
<polygon fill="white" stroke="#bfbfbf" points="738.5,-809.36 738.5,-828.36 879.5,-828.36 879.5,-809.36 738.5,-809.36"/>
<text text-anchor="middle" x="809" y="-816.36" font-family="Helvetica,sans-Serif" font-size="10.00">static constexpr Switches</text>
</a>
</g>
</g>
<!-- Node8&#45;&gt;Node4 -->
<g id="edge7" class="edge">
<title>Node8&#45;&gt;Node4</title>
<path fill="none" stroke="#9a32cd" stroke-dasharray="5,2" d="M889.72,-810.65C951.05,-804.35 1034.07,-795.8 1087.47,-790.31"/>
<polygon fill="#9a32cd" stroke="#9a32cd" points="889.28,-807.18 879.69,-811.69 889.99,-814.14 889.28,-807.18"/>
<text text-anchor="middle" x="961.5" y="-887.86" font-family="Helvetica,sans-Serif" font-size="10.00"> CtxSetX_TT</text>
<text text-anchor="middle" x="961.5" y="-876.86" font-family="Helvetica,sans-Serif" font-size="10.00">CtxSetX_T</text>
<text text-anchor="middle" x="961.5" y="-865.86" font-family="Helvetica,sans-Serif" font-size="10.00">CtxSetA</text>
<text text-anchor="middle" x="961.5" y="-854.86" font-family="Helvetica,sans-Serif" font-size="10.00">CtxSetB</text>
<text text-anchor="middle" x="961.5" y="-843.86" font-family="Helvetica,sans-Serif" font-size="10.00">CtxSetTime</text>
<text text-anchor="middle" x="961.5" y="-832.86" font-family="Helvetica,sans-Serif" font-size="10.00">CtxSetNone</text>
<text text-anchor="middle" x="961.5" y="-821.86" font-family="Helvetica,sans-Serif" font-size="10.00">CtxSetF</text>
<text text-anchor="middle" x="961.5" y="-810.86" font-family="Helvetica,sans-Serif" font-size="10.00">CtxSetX</text>
</g>
<!-- Node9 -->
<g id="node9" class="node">
<title>Node9</title>
<g id="a_node9"><a xlink:title=" ">
<polygon fill="white" stroke="#bfbfbf" points="791.5,-712.36 791.5,-731.36 826.5,-731.36 826.5,-712.36 791.5,-712.36"/>
<text text-anchor="middle" x="809" y="-719.36" font-family="Helvetica,sans-Serif" font-size="10.00">Mat</text>
</a>
</g>
</g>
<!-- Node9&#45;&gt;Node3 -->
<g id="edge13" class="edge">
<title>Node9&#45;&gt;Node3</title>
<path fill="none" stroke="#9a32cd" stroke-dasharray="5,2" d="M836.13,-710.39C854,-703.19 878.46,-694.59 901,-690.86 1050.96,-666.01 1091.8,-675.28 1243,-690.86 1263.74,-692.99 1387.09,-719.65 1454.15,-734.32"/>
<polygon fill="#9a32cd" stroke="#9a32cd" points="834.57,-707.25 826.68,-714.31 837.25,-713.71 834.57,-707.25"/>
<text text-anchor="middle" x="1141.5" y="-704.86" font-family="Helvetica,sans-Serif" font-size="10.00"> ksp_A</text>
<text text-anchor="middle" x="1141.5" y="-693.86" font-family="Helvetica,sans-Serif" font-size="10.00">ksp_B</text>
</g>
<!-- Node9&#45;&gt;Node4 -->
<g id="edge8" class="edge">
<title>Node9&#45;&gt;Node4</title>
<path fill="none" stroke="#9a32cd" stroke-dasharray="5,2" d="M836.71,-725.16C877.08,-730.38 955.95,-741.43 1022,-755.86 1030.11,-757.63 1031.96,-758.78 1040,-760.86 1059.28,-765.83 1080.73,-771.01 1098.85,-775.27"/>
<polygon fill="#9a32cd" stroke="#9a32cd" points="836.97,-721.67 826.61,-723.88 836.09,-728.61 836.97,-721.67"/>
<text text-anchor="middle" x="961.5" y="-769.86" font-family="Helvetica,sans-Serif" font-size="10.00"> A</text>
<text text-anchor="middle" x="961.5" y="-758.86" font-family="Helvetica,sans-Serif" font-size="10.00">B</text>
</g>
<!-- Node9&#45;&gt;Node14 -->
<g id="edge18" class="edge">
<title>Node9&#45;&gt;Node14</title>
<path fill="none" stroke="#9a32cd" stroke-dasharray="5,2" d="M836.84,-722.65C877.09,-723.89 955.45,-726.49 1022,-729.86 1120.29,-734.82 1146.61,-723.98 1243,-743.86 1333.08,-762.43 1434.41,-805.9 1476.96,-825.26"/>
<polygon fill="#9a32cd" stroke="#9a32cd" points="836.87,-719.15 826.77,-722.34 836.66,-726.14 836.87,-719.15"/>
<text text-anchor="middle" x="1141.5" y="-757.86" font-family="Helvetica,sans-Serif" font-size="10.00"> snes_A</text>
<text text-anchor="middle" x="1141.5" y="-746.86" font-family="Helvetica,sans-Serif" font-size="10.00">snes_B</text>
</g>
<!-- Node9&#45;&gt;Node17 -->
<g id="edge23" class="edge">
<title>Node9&#45;&gt;Node17</title>
<path fill="none" stroke="#9a32cd" stroke-dasharray="5,2" d="M836.14,-729.42C852.3,-735.51 871.99,-745.75 883,-761.86 917.91,-812.92 864.89,-849.64 901,-899.86 935.93,-948.43 978.19,-918.11 1022,-958.86 1033.67,-969.71 1026.83,-980.88 1040,-989.86 1115.42,-1041.25 1153.4,-1003.48 1243,-1020.86 1321.21,-1036.02 1411.8,-1058.59 1461.03,-1071.29"/>
<polygon fill="#9a32cd" stroke="#9a32cd" points="837.23,-726.1 826.64,-726.16 834.96,-732.72 837.23,-726.1"/>
<text text-anchor="middle" x="1141.5" y="-1034.86" font-family="Helvetica,sans-Serif" font-size="10.00"> ts_A</text>
<text text-anchor="middle" x="1141.5" y="-1023.86" font-family="Helvetica,sans-Serif" font-size="10.00">ts_B</text>
</g>
<!-- Node10 -->
<g id="node10" class="node">
<title>Node10</title>
<g id="a_node10"><a xlink:title=" ">
<polygon fill="white" stroke="#bfbfbf" points="772.5,-771.36 772.5,-790.36 845.5,-790.36 845.5,-771.36 772.5,-771.36"/>
<text text-anchor="middle" x="809" y="-778.36" font-family="Helvetica,sans-Serif" font-size="10.00">bitset&lt; 8 &gt;</text>
</a>
</g>
</g>
<!-- Node10&#45;&gt;Node4 -->
<g id="edge9" class="edge">
<title>Node10&#45;&gt;Node4</title>
<path fill="none" stroke="#9a32cd" stroke-dasharray="5,2" d="M855.72,-781.41C916.35,-782.14 1023.14,-783.43 1087.3,-784.21"/>
<polygon fill="#9a32cd" stroke="#9a32cd" points="855.72,-777.91 845.68,-781.29 855.64,-784.91 855.72,-777.91"/>
<text text-anchor="middle" x="961.5" y="-785.86" font-family="Helvetica,sans-Serif" font-size="10.00"> data_ctx</text>
</g>
<!-- Node11 -->
<g id="node11" class="node">
<title>Node11</title>
<g id="a_node11"><a xlink:title=" ">
<polygon fill="white" stroke="#bfbfbf" points="792,-1039.36 792,-1058.36 826,-1058.36 826,-1039.36 792,-1039.36"/>
<text text-anchor="middle" x="809" y="-1046.36" font-family="Helvetica,sans-Serif" font-size="10.00">Vec</text>
</a>
</g>
</g>
<!-- Node11&#45;&gt;Node3 -->
<g id="edge14" class="edge">
<title>Node11&#45;&gt;Node3</title>
<path fill="none" stroke="#9a32cd" stroke-dasharray="5,2" d="M836.3,-1049.54C887.28,-1050.26 996.78,-1048.69 1022,-1022.86 1050.55,-993.62 1012.25,-869.85 1040,-839.86 1071.12,-806.23 1198.13,-813.12 1243,-803.86 1320.58,-787.84 1410.65,-765.78 1460.13,-753.36"/>
<polygon fill="#9a32cd" stroke="#9a32cd" points="836.14,-1046.04 826.08,-1049.35 836.01,-1053.04 836.14,-1046.04"/>
<text text-anchor="middle" x="1141.5" y="-842.86" font-family="Helvetica,sans-Serif" font-size="10.00"> ksp_f</text>
</g>
<!-- Node11&#45;&gt;Node4 -->
<g id="edge10" class="edge">
<title>Node11&#45;&gt;Node4</title>
<path fill="none" stroke="#9a32cd" stroke-dasharray="5,2" d="M829.86,-1033.01C854.26,-1013.63 893.36,-982.91 901,-978.86 951.04,-952.32 985.75,-982.37 1022,-938.86 1059.33,-894.04 1000.8,-852.05 1040,-808.86 1052.06,-795.57 1070.03,-789 1087.45,-785.93"/>
<polygon fill="#9a32cd" stroke="#9a32cd" points="827.57,-1030.36 821.92,-1039.32 831.93,-1035.84 827.57,-1030.36"/>
<text text-anchor="middle" x="961.5" y="-1014.86" font-family="Helvetica,sans-Serif" font-size="10.00"> f</text>
<text text-anchor="middle" x="961.5" y="-1003.86" font-family="Helvetica,sans-Serif" font-size="10.00">x</text>
<text text-anchor="middle" x="961.5" y="-992.86" font-family="Helvetica,sans-Serif" font-size="10.00">x_t</text>
<text text-anchor="middle" x="961.5" y="-981.86" font-family="Helvetica,sans-Serif" font-size="10.00">x_tt</text>
</g>
<!-- Node11&#45;&gt;Node14 -->
<g id="edge19" class="edge">
<title>Node11&#45;&gt;Node14</title>
<path fill="none" stroke="#9a32cd" stroke-dasharray="5,2" d="M835.56,-1057.87C879.08,-1071.44 968.09,-1091.19 1022,-1047.86 1050.4,-1025.02 1013.47,-992.84 1040,-967.86 1098.52,-912.76 1323.01,-941.23 1397,-909.86 1434.68,-893.88 1471.22,-860.92 1487.97,-844.54"/>
<polygon fill="#9a32cd" stroke="#9a32cd" points="836.6,-1054.53 826.01,-1054.76 834.44,-1061.19 836.6,-1054.53"/>
<text text-anchor="middle" x="1141.5" y="-981.86" font-family="Helvetica,sans-Serif" font-size="10.00"> snes_x</text>
<text text-anchor="middle" x="1141.5" y="-970.86" font-family="Helvetica,sans-Serif" font-size="10.00">snes_f</text>
</g>
<!-- Node11&#45;&gt;Node17 -->
<g id="edge27" class="edge">
<title>Node11&#45;&gt;Node17</title>
<path fill="none" stroke="#9a32cd" stroke-dasharray="5,2" d="M833.02,-1063.9C873.08,-1089.09 959.11,-1138.81 1040,-1156.86 1195,-1191.43 1246.32,-1192.01 1397,-1141.86 1432.05,-1130.19 1467.78,-1104.53 1485.7,-1090.49"/>
<polygon fill="#9a32cd" stroke="#9a32cd" points="834.83,-1060.9 824.51,-1058.49 831.07,-1066.81 834.83,-1060.9"/>
<text text-anchor="middle" x="1141.5" y="-1216.86" font-family="Helvetica,sans-Serif" font-size="10.00"> ts_u</text>
<text text-anchor="middle" x="1141.5" y="-1205.86" font-family="Helvetica,sans-Serif" font-size="10.00">ts_F</text>
<text text-anchor="middle" x="1141.5" y="-1194.86" font-family="Helvetica,sans-Serif" font-size="10.00">ts_u_t</text>
<text text-anchor="middle" x="1141.5" y="-1183.86" font-family="Helvetica,sans-Serif" font-size="10.00">ts_u_tt</text>
</g>
<!-- Node12 -->
<g id="node12" class="node">
<title>Node12</title>
<g id="a_node12"><a xlink:title=" ">
<polygon fill="white" stroke="#bfbfbf" points="1124,-583.36 1124,-602.36 1159,-602.36 1159,-583.36 1124,-583.36"/>
<text text-anchor="middle" x="1141.5" y="-590.36" font-family="Helvetica,sans-Serif" font-size="10.00">KSP</text>
</a>
</g>
</g>
<!-- Node12&#45;&gt;Node3 -->
<g id="edge11" class="edge">
<title>Node12&#45;&gt;Node3</title>
<path fill="none" stroke="#9a32cd" stroke-dasharray="5,2" d="M1169.28,-589.22C1227.69,-581.94 1363.98,-568.61 1397,-597.86 1439.68,-635.65 1376.45,-682.86 1415,-724.86 1422.16,-732.65 1431.81,-737.57 1442,-740.6"/>
<polygon fill="#9a32cd" stroke="#9a32cd" points="1168.48,-585.8 1159,-590.54 1169.37,-592.74 1168.48,-585.8"/>
<text text-anchor="middle" x="1329" y="-600.86" font-family="Helvetica,sans-Serif" font-size="10.00"> ksp</text>
</g>
<!-- Node13 -->
<g id="node13" class="node">
<title>Node13</title>
<g id="a_node13"><a xlink:title=" ">
<polygon fill="white" stroke="#bfbfbf" points="1104.5,-621.36 1104.5,-640.36 1178.5,-640.36 1178.5,-621.36 1104.5,-621.36"/>
<text text-anchor="middle" x="1141.5" y="-628.36" font-family="Helvetica,sans-Serif" font-size="10.00">KSPContext</text>
</a>
</g>
</g>
<!-- Node13&#45;&gt;Node3 -->
<g id="edge12" class="edge">
<title>Node13&#45;&gt;Node3</title>
<path fill="none" stroke="#9a32cd" stroke-dasharray="5,2" d="M1188.62,-620.06C1244.76,-609.86 1339.18,-602.59 1397,-651.86 1422.44,-673.53 1391.19,-701.41 1415,-724.86 1422.33,-732.07 1431.82,-736.77 1441.74,-739.77"/>
<polygon fill="#9a32cd" stroke="#9a32cd" points="1187.77,-616.66 1178.61,-621.99 1189.09,-623.54 1187.77,-616.66"/>
<text text-anchor="middle" x="1329" y="-654.86" font-family="Helvetica,sans-Serif" font-size="10.00"> ksp_ctx</text>
</g>
<!-- Node14&#45;&gt;Node2 -->
<g id="edge15" class="edge">
<title>Node14&#45;&gt;Node2</title>
<path fill="none" stroke="midnightblue" d="M1530.94,-821.24C1571.41,-803.39 1643.6,-770.53 1703,-737.86 1725.98,-725.22 1751.53,-708.66 1766.92,-698.39"/>
<polygon fill="midnightblue" stroke="midnightblue" points="1529.35,-818.11 1521.6,-825.33 1532.17,-824.52 1529.35,-818.11"/>
</g>
<!-- Node15 -->
<g id="node15" class="node">
<title>Node15</title>
<g id="a_node15"><a xlink:title=" ">
<polygon fill="white" stroke="#bfbfbf" points="1120.5,-898.36 1120.5,-917.36 1162.5,-917.36 1162.5,-898.36 1120.5,-898.36"/>
<text text-anchor="middle" x="1141.5" y="-905.36" font-family="Helvetica,sans-Serif" font-size="10.00">SNES</text>
</a>
</g>
</g>
<!-- Node15&#45;&gt;Node14 -->
<g id="edge17" class="edge">
<title>Node15&#45;&gt;Node14</title>
<path fill="none" stroke="#9a32cd" stroke-dasharray="5,2" d="M1172.61,-905.68C1220.65,-901.74 1317.34,-891.91 1397,-871.86 1424.77,-864.86 1455.5,-852.9 1475.57,-844.47"/>
<polygon fill="#9a32cd" stroke="#9a32cd" points="1172.27,-902.19 1162.58,-906.47 1172.82,-909.17 1172.27,-902.19"/>
<text text-anchor="middle" x="1329" y="-897.86" font-family="Helvetica,sans-Serif" font-size="10.00"> snes</text>
</g>
<!-- Node16 -->
<g id="node16" class="node">
<title>Node16</title>
<g id="a_node16"><a xlink:title=" ">
<polygon fill="white" stroke="#bfbfbf" points="1101.5,-860.36 1101.5,-879.36 1181.5,-879.36 1181.5,-860.36 1101.5,-860.36"/>
<text text-anchor="middle" x="1141.5" y="-867.36" font-family="Helvetica,sans-Serif" font-size="10.00">SNESContext</text>
</a>
</g>
</g>
<!-- Node16&#45;&gt;Node14 -->
<g id="edge20" class="edge">
<title>Node16&#45;&gt;Node14</title>
<path fill="none" stroke="#9a32cd" stroke-dasharray="5,2" d="M1191.84,-864.99C1256.48,-858.62 1369.71,-847.45 1438.73,-840.65"/>
<polygon fill="#9a32cd" stroke="#9a32cd" points="1191.12,-861.55 1181.51,-866.01 1191.8,-868.51 1191.12,-861.55"/>
<text text-anchor="middle" x="1329" y="-859.86" font-family="Helvetica,sans-Serif" font-size="10.00"> snes_ctx</text>
</g>
<!-- Node17&#45;&gt;Node2 -->
<g id="edge21" class="edge">
<title>Node17&#45;&gt;Node2</title>
<path fill="none" stroke="midnightblue" d="M1512.58,-1062.64C1562.07,-993.72 1736.9,-750.27 1774.03,-698.56"/>
<polygon fill="midnightblue" stroke="midnightblue" points="1509.45,-1061 1506.46,-1071.17 1515.13,-1065.08 1509.45,-1061"/>
</g>
<!-- Node18 -->
<g id="node18" class="node">
<title>Node18</title>
<g id="a_node18"><a xlink:title=" ">
<polygon fill="white" stroke="#bfbfbf" points="1109,-1246.36 1109,-1265.36 1174,-1265.36 1174,-1246.36 1109,-1246.36"/>
<text text-anchor="middle" x="1141.5" y="-1253.36" font-family="Helvetica,sans-Serif" font-size="10.00">PetscReal</text>
</a>
</g>
</g>
<!-- Node18&#45;&gt;Node17 -->
<g id="edge24" class="edge">
<title>Node18&#45;&gt;Node17</title>
<path fill="none" stroke="#9a32cd" stroke-dasharray="5,2" d="M1184.15,-1247.85C1251.55,-1234.67 1378.87,-1208.79 1397,-1197.86 1443.32,-1169.93 1479.12,-1113.23 1492.15,-1090.55"/>
<polygon fill="#9a32cd" stroke="#9a32cd" points="1183.41,-1244.43 1174.26,-1249.78 1184.75,-1251.3 1183.41,-1244.43"/>
<text text-anchor="middle" x="1329" y="-1266.86" font-family="Helvetica,sans-Serif" font-size="10.00"> ts_a</text>
<text text-anchor="middle" x="1329" y="-1255.86" font-family="Helvetica,sans-Serif" font-size="10.00">ts_t</text>
<text text-anchor="middle" x="1329" y="-1244.86" font-family="Helvetica,sans-Serif" font-size="10.00">ts_dt</text>
<text text-anchor="middle" x="1329" y="-1233.86" font-family="Helvetica,sans-Serif" font-size="10.00">ts_aa</text>
</g>
<!-- Node19 -->
<g id="node19" class="node">
<title>Node19</title>
<g id="a_node19"><a xlink:title=" ">
<polygon fill="white" stroke="#bfbfbf" points="1108,-1128.36 1108,-1147.36 1175,-1147.36 1175,-1128.36 1108,-1128.36"/>
<text text-anchor="middle" x="1141.5" y="-1135.36" font-family="Helvetica,sans-Serif" font-size="10.00">TSContext</text>
</a>
</g>
</g>
<!-- Node19&#45;&gt;Node17 -->
<g id="edge25" class="edge">
<title>Node19&#45;&gt;Node17</title>
<path fill="none" stroke="#9a32cd" stroke-dasharray="5,2" d="M1185.56,-1134.7C1236.4,-1130.53 1323.38,-1122.01 1397,-1107.86 1420.6,-1103.32 1446.8,-1096.21 1466.53,-1090.42"/>
<polygon fill="#9a32cd" stroke="#9a32cd" points="1184.96,-1131.23 1175.27,-1135.52 1185.52,-1138.21 1184.96,-1131.23"/>
<text text-anchor="middle" x="1329" y="-1129.86" font-family="Helvetica,sans-Serif" font-size="10.00"> ts_ctx</text>
</g>
<!-- Node20 -->
<g id="node20" class="node">
<title>Node20</title>
<g id="a_node20"><a xlink:title=" ">
<polygon fill="white" stroke="#bfbfbf" points="1113.5,-1090.36 1113.5,-1109.36 1169.5,-1109.36 1169.5,-1090.36 1113.5,-1090.36"/>
<text text-anchor="middle" x="1141.5" y="-1097.36" font-family="Helvetica,sans-Serif" font-size="10.00">PetscInt</text>
</a>
</g>
</g>
<!-- Node20&#45;&gt;Node17 -->
<g id="edge26" class="edge">
<title>Node20&#45;&gt;Node17</title>
<path fill="none" stroke="#9a32cd" stroke-dasharray="5,2" d="M1180.11,-1097.84C1243.61,-1094.44 1372.23,-1087.56 1444.73,-1083.68"/>
<polygon fill="#9a32cd" stroke="#9a32cd" points="1179.57,-1094.37 1169.77,-1098.4 1179.94,-1101.36 1179.57,-1094.37"/>
<text text-anchor="middle" x="1329" y="-1095.86" font-family="Helvetica,sans-Serif" font-size="10.00"> ts_step</text>
</g>
<!-- Node21 -->
<g id="node21" class="node">
<title>Node21</title>
<g id="a_node21"><a xlink:title=" ">
<polygon fill="white" stroke="#bfbfbf" points="1127,-1052.36 1127,-1071.36 1156,-1071.36 1156,-1052.36 1127,-1052.36"/>
<text text-anchor="middle" x="1141.5" y="-1059.36" font-family="Helvetica,sans-Serif" font-size="10.00">TS</text>
</a>
</g>
</g>
<!-- Node21&#45;&gt;Node17 -->
<g id="edge28" class="edge">
<title>Node21&#45;&gt;Node17</title>
<path fill="none" stroke="#9a32cd" stroke-dasharray="5,2" d="M1166.24,-1062.19C1211.28,-1062.94 1312.21,-1065.14 1397,-1070.86 1412.57,-1071.9 1429.46,-1073.43 1444.87,-1074.98"/>
<polygon fill="#9a32cd" stroke="#9a32cd" points="1166.09,-1058.69 1156.03,-1062.03 1165.98,-1065.69 1166.09,-1058.69"/>
<text text-anchor="middle" x="1329" y="-1073.86" font-family="Helvetica,sans-Serif" font-size="10.00"> ts</text>
</g>
<!-- Node22 -->
<g id="node22" class="node">
<title>Node22</title>
<g id="a_node22"><a xlink:title=" ">
<polygon fill="white" stroke="#bfbfbf" points="1454,-696.36 1454,-715.36 1543,-715.36 1543,-696.36 1454,-696.36"/>
<text text-anchor="middle" x="1498.5" y="-703.36" font-family="Helvetica,sans-Serif" font-size="10.00">pair&lt; int, int &gt;</text>
</a>
</g>
</g>
<!-- Node22&#45;&gt;Node2 -->
<g id="edge30" class="edge">
<title>Node22&#45;&gt;Node2</title>
<path fill="none" stroke="#9a32cd" stroke-dasharray="5,2" d="M1553.35,-702.6C1601.28,-699.71 1671.29,-695.48 1720.99,-692.48"/>
<polygon fill="#9a32cd" stroke="#9a32cd" points="1552.95,-699.12 1543.18,-703.22 1553.37,-706.11 1552.95,-699.12"/>
<text text-anchor="middle" x="1651.5" y="-702.86" font-family="Helvetica,sans-Serif" font-size="10.00"> loHiFERank</text>
</g>
<!-- Node23 -->
<g id="node23" class="node">
<title>Node23</title>
<g id="a_node23"><a xlink:title=" ">
<polygon fill="white" stroke="#bfbfbf" points="1428.5,-658.36 1428.5,-677.36 1568.5,-677.36 1568.5,-658.36 1428.5,-658.36"/>
<text text-anchor="middle" x="1498.5" y="-665.36" font-family="Helvetica,sans-Serif" font-size="10.00">weak_ptr&lt; CacheTuple &gt;</text>
</a>
</g>
</g>
<!-- Node23&#45;&gt;Node2 -->
<g id="edge31" class="edge">
<title>Node23&#45;&gt;Node2</title>
<path fill="none" stroke="#9a32cd" stroke-dasharray="5,2" d="M1579.18,-671.52C1616.78,-673.51 1662.23,-676.3 1703,-679.86 1708.84,-680.36 1714.92,-680.96 1720.99,-681.59"/>
<polygon fill="#9a32cd" stroke="#9a32cd" points="1578.97,-668 1568.8,-670.98 1578.6,-674.99 1578.97,-668"/>
<text text-anchor="middle" x="1651.5" y="-682.86" font-family="Helvetica,sans-Serif" font-size="10.00"> cacheWeakPtr</text>
</g>
<!-- Node24 -->
<g id="node24" class="node">
<title>Node24</title>
<g id="a_node24"><a xlink:title=" ">
<polygon fill="white" stroke="#bfbfbf" points="1442.5,-620.36 1442.5,-639.36 1554.5,-639.36 1554.5,-620.36 1442.5,-620.36"/>
<text text-anchor="middle" x="1498.5" y="-627.36" font-family="Helvetica,sans-Serif" font-size="10.00">unique_ptr&lt; bool &gt;</text>
</a>
</g>
</g>
<!-- Node24&#45;&gt;Node2 -->
<g id="edge32" class="edge">
<title>Node24&#45;&gt;Node2</title>
<path fill="none" stroke="#9a32cd" stroke-dasharray="5,2" d="M1564.63,-622.72C1606.46,-621.07 1660.68,-624.6 1703,-646.86 1714.18,-652.74 1710.6,-661.69 1721,-668.86 1727.24,-673.15 1734.47,-676.59 1741.71,-679.31"/>
<polygon fill="#9a32cd" stroke="#9a32cd" points="1564.37,-619.23 1554.55,-623.23 1564.72,-626.22 1564.37,-619.23"/>
<text text-anchor="middle" x="1651.5" y="-660.86" font-family="Helvetica,sans-Serif" font-size="10.00"> matAssembleSwitch</text>
<text text-anchor="middle" x="1651.5" y="-649.86" font-family="Helvetica,sans-Serif" font-size="10.00">vecAssembleSwitch</text>
</g>
<!-- Node25 -->
<g id="node25" class="node">
<title>Node25</title>
<g id="a_node25"><a xlink:title=" ">
<polygon fill="white" stroke="#bfbfbf" points="1127,-511.36 1127,-530.36 1156,-530.36 1156,-511.36 1127,-511.36"/>
<text text-anchor="middle" x="1141.5" y="-518.36" font-family="Helvetica,sans-Serif" font-size="10.00">int</text>
</a>
</g>
</g>
<!-- Node25&#45;&gt;Node2 -->
<g id="edge33" class="edge">
<title>Node25&#45;&gt;Node2</title>
<path fill="none" stroke="#9a32cd" stroke-dasharray="5,2" d="M1166.17,-526.32C1189.99,-531.61 1227.85,-539.47 1261,-543.86 1402.8,-562.63 1443.02,-533.04 1582,-566.86 1638.87,-580.7 1662.88,-576.24 1703,-618.86 1719.19,-636.05 1704.1,-652.35 1721,-668.86 1725.48,-673.23 1730.94,-676.64 1736.72,-679.31"/>
<polygon fill="#9a32cd" stroke="#9a32cd" points="1166.8,-522.88 1156.28,-524.09 1165.26,-529.7 1166.8,-522.88"/>
<text text-anchor="middle" x="1498.5" y="-602.86" font-family="Helvetica,sans-Serif" font-size="10.00"> sIze</text>
<text text-anchor="middle" x="1498.5" y="-591.86" font-family="Helvetica,sans-Serif" font-size="10.00">loopSize</text>
<text text-anchor="middle" x="1498.5" y="-580.86" font-family="Helvetica,sans-Serif" font-size="10.00">nInTheLoop</text>
<text text-anchor="middle" x="1498.5" y="-569.86" font-family="Helvetica,sans-Serif" font-size="10.00">rAnk</text>
</g>
<!-- Node27 -->
<g id="node27" class="node">
<title>Node27</title>
<g id="a_node27"><a xlink:href="structMoFEM_1_1Problem.html" target="_top" xlink:title="keeps basic data about problem">
<polygon fill="white" stroke="black" points="1449,-287.36 1449,-306.36 1548,-306.36 1548,-287.36 1449,-287.36"/>
<text text-anchor="middle" x="1498.5" y="-294.36" font-family="Helvetica,sans-Serif" font-size="10.00">MoFEM::Problem</text>
</a>
</g>
</g>
<!-- Node25&#45;&gt;Node27 -->
<g id="edge45" class="edge">
<title>Node25&#45;&gt;Node27</title>
<path fill="none" stroke="#9a32cd" stroke-dasharray="5,2" d="M1165.35,-508.27C1188.71,-495.93 1226.39,-477.47 1261,-466.86 1319.61,-448.88 1345.37,-476.9 1397,-443.86 1451.42,-409.03 1483.97,-333.09 1494.08,-306.38"/>
<polygon fill="#9a32cd" stroke="#9a32cd" points="1163.42,-505.33 1156.26,-513.15 1166.73,-511.5 1163.42,-505.33"/>
<text text-anchor="middle" x="1329" y="-535.86" font-family="Helvetica,sans-Serif" font-size="10.00"> tagNameSize</text>
<text text-anchor="middle" x="1329" y="-524.86" font-family="Helvetica,sans-Serif" font-size="10.00">nbDofsRow</text>
<text text-anchor="middle" x="1329" y="-513.86" font-family="Helvetica,sans-Serif" font-size="10.00">nbLocDofsCol</text>
<text text-anchor="middle" x="1329" y="-502.86" font-family="Helvetica,sans-Serif" font-size="10.00">nbDofsCol</text>
<text text-anchor="middle" x="1329" y="-491.86" font-family="Helvetica,sans-Serif" font-size="10.00">nbGhostDofsRow</text>
<text text-anchor="middle" x="1329" y="-480.86" font-family="Helvetica,sans-Serif" font-size="10.00">nbGhostDofsCol</text>
<text text-anchor="middle" x="1329" y="-469.86" font-family="Helvetica,sans-Serif" font-size="10.00">nbLocDofsRow</text>
</g>
<!-- Node26 -->
<g id="node26" class="node">
<title>Node26</title>
<g id="a_node26"><a xlink:title=" ">
<polygon fill="white" stroke="#bfbfbf" points="1415,-249.36 1415,-268.36 1582,-268.36 1582,-249.36 1415,-249.36"/>
<text text-anchor="middle" x="1498.5" y="-256.36" font-family="Helvetica,sans-Serif" font-size="10.00">function&lt; MoFEMErrorCode()&gt;</text>
</a>
</g>
</g>
<!-- Node26&#45;&gt;Node2 -->
<g id="edge34" class="edge">
<title>Node26&#45;&gt;Node2</title>
<path fill="none" stroke="#9a32cd" stroke-dasharray="5,2" d="M1571.21,-270.77C1618.04,-282.77 1675.43,-306.48 1703,-352.86 1738.95,-413.31 1678.27,-612.99 1721,-668.86 1724.34,-673.22 1728.66,-676.64 1733.45,-679.32"/>
<polygon fill="#9a32cd" stroke="#9a32cd" points="1571.93,-267.34 1561.39,-268.38 1570.28,-274.15 1571.93,-267.34"/>
<text text-anchor="middle" x="1651.5" y="-377.86" font-family="Helvetica,sans-Serif" font-size="10.00"> preProcessHook</text>
<text text-anchor="middle" x="1651.5" y="-366.86" font-family="Helvetica,sans-Serif" font-size="10.00">operatorHook</text>
<text text-anchor="middle" x="1651.5" y="-355.86" font-family="Helvetica,sans-Serif" font-size="10.00">postProcessHook</text>
</g>
<!-- Node27&#45;&gt;Node2 -->
<g id="edge35" class="edge">
<title>Node27&#45;&gt;Node2</title>
<path fill="none" stroke="#9a32cd" stroke-dasharray="5,2" d="M1519.74,-312.97C1561.99,-347.92 1659.3,-435.41 1703,-532.86 1727.95,-588.49 1682.17,-621.84 1721,-668.86 1724.57,-673.17 1729.09,-676.56 1734.05,-679.23"/>
<polygon fill="#9a32cd" stroke="#9a32cd" points="1521.78,-310.13 1511.82,-306.51 1517.36,-315.55 1521.78,-310.13"/>
<text text-anchor="middle" x="1651.5" y="-535.86" font-family="Helvetica,sans-Serif" font-size="10.00"> problemPtr</text>
</g>
<!-- Node28 -->
<g id="node28" class="node">
<title>Node28</title>
<g id="a_node28"><a xlink:title=" ">
<polygon fill="white" stroke="#bfbfbf" points="1058,-8.86 1058,-38.86 1225,-38.86 1225,-8.86 1058,-8.86"/>
<text text-anchor="start" x="1066" y="-26.86" font-family="Helvetica,sans-Serif" font-size="10.00">shared_ptr&lt; NumeredEntFinite</text>
<text text-anchor="middle" x="1141.5" y="-15.86" font-family="Helvetica,sans-Serif" font-size="10.00">Element_multiIndex &gt;</text>
</a>
</g>
</g>
<!-- Node28&#45;&gt;Node27 -->
<g id="edge36" class="edge">
<title>Node28&#45;&gt;Node27</title>
<path fill="none" stroke="#9a32cd" stroke-dasharray="5,2" d="M1208.7,-6.89C1266.55,3.56 1348.63,7.07 1397,-40.86 1434.52,-78.03 1380.57,-237.8 1415,-277.86 1423.53,-287.77 1436.1,-293.09 1448.87,-295.81"/>
<polygon fill="#9a32cd" stroke="#9a32cd" points="1207.72,-3.52 1198.56,-8.84 1209.04,-10.39 1207.72,-3.52"/>
<text text-anchor="middle" x="1329" y="-43.86" font-family="Helvetica,sans-Serif" font-size="10.00"> numeredFiniteElementsPtr</text>
</g>
<!-- Node29 -->
<g id="node29" class="node">
<title>Node29</title>
<g id="a_node29"><a xlink:title=" ">
<polygon fill="white" stroke="#bfbfbf" points="1112,-436.36 1112,-455.36 1171,-455.36 1171,-436.36 1112,-436.36"/>
<text text-anchor="middle" x="1141.5" y="-443.36" font-family="Helvetica,sans-Serif" font-size="10.00">BitFEId *</text>
</a>
</g>
</g>
<!-- Node29&#45;&gt;Node27 -->
<g id="edge37" class="edge">
<title>Node29&#45;&gt;Node27</title>
<path fill="none" stroke="#9a32cd" stroke-dasharray="5,2" d="M1181.46,-441.84C1248.05,-434.75 1378.38,-419.84 1397,-409.86 1443.74,-384.79 1479.29,-328.93 1492.21,-306.47"/>
<polygon fill="#9a32cd" stroke="#9a32cd" points="1180.93,-438.37 1171.35,-442.91 1181.66,-445.34 1180.93,-438.37"/>
<text text-anchor="middle" x="1329" y="-435.86" font-family="Helvetica,sans-Serif" font-size="10.00"> tagBitFEId</text>
</g>
<!-- Node30 -->
<g id="node30" class="node">
<title>Node30</title>
<g id="a_node30"><a xlink:href="classEntityHandle.html" target="_top" xlink:title=" ">
<polygon fill="white" stroke="black" points="1101.5,-398.36 1101.5,-417.36 1181.5,-417.36 1181.5,-398.36 1101.5,-398.36"/>
<text text-anchor="middle" x="1141.5" y="-405.36" font-family="Helvetica,sans-Serif" font-size="10.00">EntityHandle</text>
</a>
</g>
</g>
<!-- Node30&#45;&gt;Node27 -->
<g id="edge38" class="edge">
<title>Node30&#45;&gt;Node27</title>
<path fill="none" stroke="#9a32cd" stroke-dasharray="5,2" d="M1191.73,-404.31C1254.98,-399.23 1360.92,-388.82 1397,-373.86 1435.57,-357.85 1472.25,-323.19 1488.6,-306.38"/>
<polygon fill="#9a32cd" stroke="#9a32cd" points="1191.28,-400.83 1181.58,-405.11 1191.82,-407.81 1191.28,-400.83"/>
<text text-anchor="middle" x="1329" y="-400.86" font-family="Helvetica,sans-Serif" font-size="10.00"> meshset</text>
</g>
<!-- Node31 -->
<g id="node31" class="node">
<title>Node31</title>
<g id="a_node31"><a xlink:title=" ">
<polygon fill="white" stroke="#bfbfbf" points="1067,-348.86 1067,-378.86 1216,-378.86 1216,-348.86 1067,-348.86"/>
<text text-anchor="start" x="1075" y="-366.86" font-family="Helvetica,sans-Serif" font-size="10.00">shared_ptr&lt; MoFEM::</text>
<text text-anchor="middle" x="1141.5" y="-355.86" font-family="Helvetica,sans-Serif" font-size="10.00">ComposedProblemsData &gt;</text>
</a>
</g>
</g>
<!-- Node31&#45;&gt;Node27 -->
<g id="edge39" class="edge">
<title>Node31&#45;&gt;Node27</title>
<path fill="none" stroke="#9a32cd" stroke-dasharray="5,2" d="M1226.28,-361.31C1276.42,-358.3 1341.06,-351.82 1397,-337.86 1426.62,-330.46 1459,-316.01 1478.78,-306.39"/>
<polygon fill="#9a32cd" stroke="#9a32cd" points="1225.92,-357.82 1216.13,-361.88 1226.31,-364.81 1225.92,-357.82"/>
<text text-anchor="middle" x="1329" y="-361.86" font-family="Helvetica,sans-Serif" font-size="10.00"> composedProblemsData</text>
</g>
<!-- Node32 -->
<g id="node32" class="node">
<title>Node32</title>
<g id="a_node32"><a xlink:title=" ">
<polygon fill="white" stroke="#bfbfbf" points="1101,-310.36 1101,-329.36 1182,-329.36 1182,-310.36 1101,-310.36"/>
<text text-anchor="middle" x="1141.5" y="-317.36" font-family="Helvetica,sans-Serif" font-size="10.00">BitRefLevel *</text>
</a>
</g>
</g>
<!-- Node32&#45;&gt;Node27 -->
<g id="edge40" class="edge">
<title>Node32&#45;&gt;Node27</title>
<path fill="none" stroke="#9a32cd" stroke-dasharray="5,2" d="M1192.22,-316.63C1260.17,-312.23 1381.29,-304.38 1448.74,-300.01"/>
<polygon fill="#9a32cd" stroke="#9a32cd" points="1191.94,-313.14 1182.19,-317.28 1192.4,-320.13 1191.94,-313.14"/>
<text text-anchor="middle" x="1329" y="-325.86" font-family="Helvetica,sans-Serif" font-size="10.00"> tagBitRefLevelMask</text>
<text text-anchor="middle" x="1329" y="-314.86" font-family="Helvetica,sans-Serif" font-size="10.00">tagBitRefLevel</text>
</g>
<!-- Node33 -->
<g id="node33" class="node">
<title>Node33</title>
<g id="a_node33"><a xlink:title=" ">
<polygon fill="white" stroke="#bfbfbf" points="1056.5,-260.86 1056.5,-290.86 1226.5,-290.86 1226.5,-260.86 1056.5,-260.86"/>
<text text-anchor="start" x="1064.5" y="-278.86" font-family="Helvetica,sans-Serif" font-size="10.00">shared_ptr&lt; NumeredDofEntity</text>
<text text-anchor="middle" x="1141.5" y="-267.86" font-family="Helvetica,sans-Serif" font-size="10.00">_multiIndex &gt;</text>
</a>
</g>
</g>
<!-- Node33&#45;&gt;Node27 -->
<g id="edge41" class="edge">
<title>Node33&#45;&gt;Node27</title>
<path fill="none" stroke="#9a32cd" stroke-dasharray="5,2" d="M1236.79,-270.49C1284.87,-269.02 1344.2,-269.14 1397,-274.86 1408.76,-276.13 1435.27,-281.98 1458.11,-287.32"/>
<polygon fill="#9a32cd" stroke="#9a32cd" points="1236.59,-266.99 1226.71,-270.82 1236.82,-273.99 1236.59,-266.99"/>
<text text-anchor="middle" x="1329" y="-288.86" font-family="Helvetica,sans-Serif" font-size="10.00"> numeredRowDofsPtr</text>
<text text-anchor="middle" x="1329" y="-277.86" font-family="Helvetica,sans-Serif" font-size="10.00">numeredColDofsPtr</text>
</g>
<!-- Node34 -->
<g id="node34" class="node">
<title>Node34</title>
<g id="a_node34"><a xlink:title=" ">
<polygon fill="white" stroke="#bfbfbf" points="1122.5,-222.36 1122.5,-241.36 1160.5,-241.36 1160.5,-222.36 1122.5,-222.36"/>
<text text-anchor="middle" x="1141.5" y="-229.36" font-family="Helvetica,sans-Serif" font-size="10.00">char</text>
</a>
</g>
</g>
<!-- Node34&#45;&gt;Node27 -->
<g id="edge42" class="edge">
<title>Node34&#45;&gt;Node27</title>
<path fill="none" stroke="#9a32cd" stroke-dasharray="5,2" d="M1170.75,-227.49C1220.03,-221.32 1323.46,-214.83 1397,-254.86 1408.4,-261.06 1404.05,-270.89 1415,-277.86 1425.05,-284.25 1436.99,-288.49 1448.63,-291.32"/>
<polygon fill="#9a32cd" stroke="#9a32cd" points="1169.98,-224.07 1160.54,-228.87 1170.91,-231 1169.98,-224.07"/>
<text text-anchor="middle" x="1329" y="-257.86" font-family="Helvetica,sans-Serif" font-size="10.00"> tagName</text>
</g>
<!-- Node35 -->
<g id="node35" class="node">
<title>Node35</title>
<g id="a_node35"><a xlink:title=" ">
<polygon fill="white" stroke="#bfbfbf" points="1072.5,-184.36 1072.5,-203.36 1210.5,-203.36 1210.5,-184.36 1072.5,-184.36"/>
<text text-anchor="middle" x="1141.5" y="-191.36" font-family="Helvetica,sans-Serif" font-size="10.00">vector&lt; BlockFieldPair &gt;</text>
</a>
</g>
</g>
<!-- Node35&#45;&gt;Node27 -->
<g id="edge43" class="edge">
<title>Node35&#45;&gt;Node27</title>
<path fill="none" stroke="#9a32cd" stroke-dasharray="5,2" d="M1220.76,-188.73C1285.5,-186.22 1370.9,-187.43 1397,-208.86 1421.5,-228.96 1392.27,-255.77 1415,-277.86 1424.07,-286.66 1436.35,-291.7 1448.67,-294.5"/>
<polygon fill="#9a32cd" stroke="#9a32cd" points="1220.4,-185.25 1210.56,-189.17 1220.7,-192.24 1220.4,-185.25"/>
<text text-anchor="middle" x="1329" y="-211.86" font-family="Helvetica,sans-Serif" font-size="10.00"> emptyFieldBlocks</text>
</g>
<!-- Node36 -->
<g id="node36" class="node">
<title>Node36</title>
<g id="a_node36"><a xlink:title=" ">
<polygon fill="white" stroke="#bfbfbf" points="1063.5,-134.86 1063.5,-164.86 1219.5,-164.86 1219.5,-134.86 1063.5,-134.86"/>
<text text-anchor="start" x="1071.5" y="-152.86" font-family="Helvetica,sans-Serif" font-size="10.00">shared_ptr&lt; MoFEM::</text>
<text text-anchor="middle" x="1141.5" y="-141.86" font-family="Helvetica,sans-Serif" font-size="10.00">Problem::SubProblemData &gt;</text>
</a>
</g>
</g>
<!-- Node36&#45;&gt;Node27 -->
<g id="edge44" class="edge">
<title>Node36&#45;&gt;Node27</title>
<path fill="none" stroke="#9a32cd" stroke-dasharray="5,2" d="M1225.17,-133.64C1280.7,-127.84 1351.74,-131.06 1397,-172.86 1431.79,-204.98 1382.48,-243.44 1415,-277.86 1423.78,-287.15 1436.12,-292.32 1448.59,-295.1"/>
<polygon fill="#9a32cd" stroke="#9a32cd" points="1224.52,-130.2 1214.99,-134.83 1225.33,-137.15 1224.52,-130.2"/>
<text text-anchor="middle" x="1329" y="-175.86" font-family="Helvetica,sans-Serif" font-size="10.00"> subProblemData</text>
</g>
<!-- Node37 -->
<g id="node37" class="node">
<title>Node37</title>
<g id="a_node37"><a xlink:title=" ">
<polygon fill="white" stroke="#bfbfbf" points="1040,-96.36 1040,-115.36 1243,-115.36 1243,-96.36 1040,-96.36"/>
<text text-anchor="middle" x="1141.5" y="-103.36" font-family="Helvetica,sans-Serif" font-size="10.00">shared_ptr&lt; SequenceDofContainer &gt;</text>
</a>
</g>
</g>
<!-- Node37&#45;&gt;Node27 -->
<g id="edge46" class="edge">
<title>Node37&#45;&gt;Node27</title>
<path fill="none" stroke="#9a32cd" stroke-dasharray="5,2" d="M1218.25,-95.15C1283.67,-87.77 1371.56,-82.94 1397,-105.86 1425.55,-131.58 1389.53,-249.07 1415,-277.86 1423.57,-287.54 1436,-292.81 1448.62,-295.56"/>
<polygon fill="#9a32cd" stroke="#9a32cd" points="1217.49,-91.71 1207.96,-96.35 1218.3,-98.67 1217.49,-91.71"/>
<text text-anchor="middle" x="1329" y="-119.86" font-family="Helvetica,sans-Serif" font-size="10.00"> sequenceRowDofContainer</text>
<text text-anchor="middle" x="1329" y="-108.86" font-family="Helvetica,sans-Serif" font-size="10.00">sequenceColDofContainer</text>
</g>
<!-- Node38 -->
<g id="node38" class="node">
<title>Node38</title>
<g id="a_node38"><a xlink:title=" ">
<polygon fill="white" stroke="#bfbfbf" points="1097.5,-58.36 1097.5,-77.36 1185.5,-77.36 1185.5,-58.36 1097.5,-58.36"/>
<text text-anchor="middle" x="1141.5" y="-65.36" font-family="Helvetica,sans-Serif" font-size="10.00">BitProblemId *</text>
</a>
</g>
</g>
<!-- Node38&#45;&gt;Node27 -->
<g id="edge47" class="edge">
<title>Node38&#45;&gt;Node27</title>
<path fill="none" stroke="#9a32cd" stroke-dasharray="5,2" d="M1195.82,-61.41C1261.85,-54.72 1369.04,-48.55 1397,-74.86 1429.98,-105.89 1385.26,-243.7 1415,-277.86 1423.59,-287.72 1436.18,-293.02 1448.95,-295.74"/>
<polygon fill="#9a32cd" stroke="#9a32cd" points="1195.18,-57.95 1185.6,-62.48 1195.91,-64.92 1195.18,-57.95"/>
<text text-anchor="middle" x="1329" y="-77.86" font-family="Helvetica,sans-Serif" font-size="10.00"> tagId</text>
</g>
<!-- Node39 -->
<g id="node39" class="node">
<title>Node39</title>
<g id="a_node39"><a xlink:title=" ">
<polygon fill="white" stroke="#bfbfbf" points="1721,-629.86 1721,-659.86 1843,-659.86 1843,-629.86 1721,-629.86"/>
<text text-anchor="start" x="1729" y="-647.86" font-family="Helvetica,sans-Serif" font-size="10.00">shared_ptr&lt; MoFEM::</text>
<text text-anchor="middle" x="1782" y="-636.86" font-family="Helvetica,sans-Serif" font-size="10.00">BasicMethod &gt;</text>
</a>
</g>
</g>
<!-- Node39&#45;&gt;Node1 -->
<g id="edge48" class="edge">
<title>Node39&#45;&gt;Node1</title>
<path fill="none" stroke="#9a32cd" stroke-dasharray="5,2" d="M1853.34,-647.76C1867.48,-648.57 1882.22,-649.59 1896,-650.86 1901.75,-651.38 1907.7,-652 1913.67,-652.68"/>
<polygon fill="#9a32cd" stroke="#9a32cd" points="1853.35,-644.25 1843.17,-647.2 1852.96,-651.24 1853.35,-644.25"/>
<text text-anchor="middle" x="1878.5" y="-653.86" font-family="Helvetica,sans-Serif" font-size="10.00"> bmPtr</text>
</g>
</g>
</svg>
