<?xml version="1.0" encoding="UTF-8" standalone="no"?>
<!DOCTYPE svg PUBLIC "-//W3C//DTD SVG 1.1//EN"
 "http://www.w3.org/Graphics/SVG/1.1/DTD/svg11.dtd">
<!-- Generated by graphviz version 9.0.0 (20230911.1827)
 -->
<!-- Title: MortarContactInterface Pages: 1 -->
<svg width="1564pt" height="932pt"
 viewBox="0.00 0.00 1563.75 931.92" xmlns="http://www.w3.org/2000/svg" xmlns:xlink="http://www.w3.org/1999/xlink">
<g id="graph0" class="graph" transform="scale(1 1) rotate(0) translate(4 927.92)">
<title>MortarContactInterface</title>
<!-- Node1 -->
<g id="node1" class="node">
<title>Node1</title>
<g id="a_node1"><a xlink:title=" ">
<polygon fill="#999999" stroke="#666666" points="1555.75,-412.29 1439.25,-412.29 1439.25,-393.04 1555.75,-393.04 1555.75,-412.29"/>
<text text-anchor="middle" x="1497.5" y="-398.79" font-family="Helvetica,sans-Serif" font-size="10.00">MortarContactInterface</text>
</a>
</g>
</g>
<!-- Node2 -->
<g id="node2" class="node">
<title>Node2</title>
<g id="a_node2"><a xlink:href="struct_generic_element_interface.html" target="_top" xlink:title="Set of functions declaring elements and setting operators for generic element interface.">
<polygon fill="white" stroke="#666666" points="1231.5,-872.29 1107.5,-872.29 1107.5,-853.04 1231.5,-853.04 1231.5,-872.29"/>
<text text-anchor="middle" x="1169.5" y="-858.79" font-family="Helvetica,sans-Serif" font-size="10.00">GenericElementInterface</text>
</a>
</g>
</g>
<!-- Node2&#45;&gt;Node1 -->
<g id="edge1" class="edge">
<title>Node2&#45;&gt;Node1</title>
<path fill="none" stroke="#63b8ff" d="M1220.83,-874.94C1277.12,-885.39 1367.42,-891.87 1421.25,-842.67 1487.32,-782.28 1495.42,-472.62 1496.38,-412.71"/>
<polygon fill="#63b8ff" stroke="#63b8ff" points="1221.68,-871.54 1211.19,-873.03 1220.32,-878.41 1221.68,-871.54"/>
</g>
<!-- Node3 -->
<g id="node3" class="node">
<title>Node3</title>
<g id="a_node3"><a xlink:title=" ">
<polygon fill="white" stroke="#666666" points="956,-923.92 838.75,-923.92 838.75,-893.42 956,-893.42 956,-923.92"/>
<text text-anchor="start" x="846.75" y="-910.42" font-family="Helvetica,sans-Serif" font-size="10.00">shared_ptr&lt; std::vector</text>
<text text-anchor="middle" x="897.38" y="-899.17" font-family="Helvetica,sans-Serif" font-size="10.00">&lt; char unsigned &gt; &gt;</text>
</a>
</g>
</g>
<!-- Node3&#45;&gt;Node2 -->
<g id="edge2" class="edge">
<title>Node3&#45;&gt;Node2</title>
<path fill="none" stroke="#9a32cd" stroke-dasharray="5,2" d="M967.55,-900.16C995.27,-896.45 1027.47,-891.79 1056.5,-886.67 1079.22,-882.66 1104.34,-877.36 1125.03,-872.75"/>
<polygon fill="#9a32cd" stroke="#9a32cd" points="967.32,-896.66 957.86,-901.43 968.24,-903.6 967.32,-896.66"/>
<text text-anchor="middle" x="1015.25" y="-900.42" font-family="Helvetica,sans-Serif" font-size="10.00"> mBoundaryMarker</text>
</g>
<!-- Node4 -->
<g id="node4" class="node">
<title>Node4</title>
<g id="a_node4"><a xlink:title=" ">
<polygon fill="white" stroke="#666666" points="911.77,-872.29 882.98,-872.29 882.98,-853.04 911.77,-853.04 911.77,-872.29"/>
<text text-anchor="middle" x="897.38" y="-858.79" font-family="Helvetica,sans-Serif" font-size="10.00">int</text>
</a>
</g>
</g>
<!-- Node4&#45;&gt;Node2 -->
<g id="edge3" class="edge">
<title>Node4&#45;&gt;Node2</title>
<path fill="none" stroke="#9a32cd" stroke-dasharray="5,2" d="M923.61,-862.67C965.19,-862.67 1049.27,-862.67 1107.22,-862.67"/>
<polygon fill="#9a32cd" stroke="#9a32cd" points="923.66,-859.17 913.66,-862.67 923.66,-866.17 923.66,-859.17"/>
<text text-anchor="middle" x="1015.25" y="-875.67" font-family="Helvetica,sans-Serif" font-size="10.00"> atomTest</text>
<text text-anchor="middle" x="1015.25" y="-864.42" font-family="Helvetica,sans-Serif" font-size="10.00">restartRunStep</text>
</g>
<!-- Node5 -->
<g id="node5" class="node">
<title>Node5</title>
<g id="a_node5"><a xlink:href="struct_mo_f_e_m_1_1_deprecated_core_interface.html" target="_top" xlink:title="Deprecated interface functions.">
<polygon fill="white" stroke="#666666" points="1252.5,-835.29 1086.5,-835.29 1086.5,-816.04 1252.5,-816.04 1252.5,-835.29"/>
<text text-anchor="middle" x="1169.5" y="-821.79" font-family="Helvetica,sans-Serif" font-size="10.00">MoFEM::DeprecatedCoreInterface</text>
</a>
</g>
</g>
<!-- Node5&#45;&gt;Node1 -->
<g id="edge4" class="edge">
<title>Node5&#45;&gt;Node1</title>
<path fill="none" stroke="#9a32cd" stroke-dasharray="5,2" d="M1264.31,-828.47C1325.71,-828.21 1398.61,-823.27 1421.25,-802.67 1481.36,-747.99 1494.2,-468.69 1496.19,-412.52"/>
<polygon fill="#9a32cd" stroke="#9a32cd" points="1264.51,-824.97 1254.51,-828.46 1264.5,-831.97 1264.51,-824.97"/>
<text text-anchor="middle" x="1351.88" y="-829.42" font-family="Helvetica,sans-Serif" font-size="10.00"> mField</text>
</g>
<!-- Node6 -->
<g id="node6" class="node">
<title>Node6</title>
<g id="a_node6"><a xlink:href="struct_mo_f_e_m_1_1_core_interface.html" target="_top" xlink:title="Interface.">
<polygon fill="white" stroke="#666666" points="955.25,-835.29 839.5,-835.29 839.5,-816.04 955.25,-816.04 955.25,-835.29"/>
<text text-anchor="middle" x="897.38" y="-821.79" font-family="Helvetica,sans-Serif" font-size="10.00">MoFEM::CoreInterface</text>
</a>
</g>
</g>
<!-- Node6&#45;&gt;Node5 -->
<g id="edge5" class="edge">
<title>Node6&#45;&gt;Node5</title>
<path fill="none" stroke="#63b8ff" d="M967.11,-825.67C1003.36,-825.67 1048.09,-825.67 1086.18,-825.67"/>
<polygon fill="#63b8ff" stroke="#63b8ff" points="967.18,-822.17 957.18,-825.67 967.18,-829.17 967.18,-822.17"/>
</g>
<!-- Node7 -->
<g id="node7" class="node">
<title>Node7</title>
<g id="a_node7"><a xlink:href="struct_mo_f_e_m_1_1_unknown_interface.html" target="_top" xlink:title="base class for all interface classes">
<polygon fill="white" stroke="#666666" points="801.75,-835.29 665.75,-835.29 665.75,-816.04 801.75,-816.04 801.75,-835.29"/>
<text text-anchor="middle" x="733.75" y="-821.79" font-family="Helvetica,sans-Serif" font-size="10.00">MoFEM::UnknownInterface</text>
</a>
</g>
</g>
<!-- Node7&#45;&gt;Node6 -->
<g id="edge6" class="edge">
<title>Node7&#45;&gt;Node6</title>
<path fill="none" stroke="#63b8ff" d="M813.32,-825.67C822.05,-825.67 830.82,-825.67 839.21,-825.67"/>
<polygon fill="#63b8ff" stroke="#63b8ff" points="813.4,-822.17 803.4,-825.67 813.4,-829.17 813.4,-822.17"/>
</g>
<!-- Node8 -->
<g id="node8" class="node">
<title>Node8</title>
<g id="a_node8"><a xlink:title=" ">
<polygon fill="white" stroke="#666666" points="563,-857.79 346.75,-857.79 346.75,-793.54 563,-793.54 563,-857.79"/>
<text text-anchor="start" x="354.75" y="-844.29" font-family="Helvetica,sans-Serif" font-size="10.00">multi_index_container</text>
<text text-anchor="start" x="354.75" y="-833.04" font-family="Helvetica,sans-Serif" font-size="10.00">&lt; UIdTypeMap, indexed</text>
<text text-anchor="start" x="354.75" y="-821.79" font-family="Helvetica,sans-Serif" font-size="10.00">_by&lt; hashed_unique&lt; member</text>
<text text-anchor="start" x="354.75" y="-810.54" font-family="Helvetica,sans-Serif" font-size="10.00">&lt; UIdTypeMap, boost::typeindex</text>
<text text-anchor="middle" x="454.88" y="-799.29" font-family="Helvetica,sans-Serif" font-size="10.00">::type_index, &amp;UIdTypeMap::classIdx &gt; &gt; &gt; &gt;</text>
</a>
</g>
</g>
<!-- Node8&#45;&gt;Node7 -->
<g id="edge7" class="edge">
<title>Node8&#45;&gt;Node7</title>
<path fill="none" stroke="#9a32cd" stroke-dasharray="5,2" d="M574.68,-825.67C605.7,-825.67 638.06,-825.67 665.37,-825.67"/>
<polygon fill="#9a32cd" stroke="#9a32cd" points="574.83,-822.17 564.83,-825.67 574.83,-829.17 574.83,-822.17"/>
<text text-anchor="middle" x="614.38" y="-827.42" font-family="Helvetica,sans-Serif" font-size="10.00"> iFaceTypeMap</text>
</g>
<!-- Node9 -->
<g id="node9" class="node">
<title>Node9</title>
<g id="a_node9"><a xlink:title=" ">
<polygon fill="white" stroke="#666666" points="110.5,-835.29 0,-835.29 0,-816.04 110.5,-816.04 110.5,-835.29"/>
<text text-anchor="middle" x="55.25" y="-821.79" font-family="Helvetica,sans-Serif" font-size="10.00">multi_index_container</text>
</a>
</g>
</g>
<!-- Node9&#45;&gt;Node8 -->
<g id="edge8" class="edge">
<title>Node9&#45;&gt;Node8</title>
<path fill="none" stroke="orange" stroke-dasharray="5,2" d="M122.09,-825.67C183.01,-825.67 274.7,-825.67 346.26,-825.67"/>
<polygon fill="orange" stroke="orange" points="122.22,-822.17 112.22,-825.67 122.22,-829.17 122.22,-822.17"/>
<text text-anchor="start" x="128.5" y="-861.17" font-family="Helvetica,sans-Serif" font-size="10.00"> &lt; UIdTypeMap, indexed</text>
<text text-anchor="start" x="128.5" y="-849.92" font-family="Helvetica,sans-Serif" font-size="10.00">_by&lt; hashed_unique&lt; member</text>
<text text-anchor="start" x="128.5" y="-838.67" font-family="Helvetica,sans-Serif" font-size="10.00">&lt; UIdTypeMap, boost::typeindex</text>
<text text-anchor="middle" x="228.62" y="-827.42" font-family="Helvetica,sans-Serif" font-size="10.00">::type_index, &amp;UIdTypeMap::classIdx &gt; &gt; &gt; &gt;</text>
</g>
<!-- Node10 -->
<g id="node10" class="node">
<title>Node10</title>
<g id="a_node10"><a xlink:title=" ">
<polygon fill="white" stroke="#666666" points="1227.75,-798.29 1111.25,-798.29 1111.25,-779.04 1227.75,-779.04 1227.75,-798.29"/>
<text text-anchor="middle" x="1169.5" y="-784.79" font-family="Helvetica,sans-Serif" font-size="10.00">SmartPetscObj&lt; DM &gt;</text>
</a>
</g>
</g>
<!-- Node10&#45;&gt;Node1 -->
<g id="edge9" class="edge">
<title>Node10&#45;&gt;Node1</title>
<path fill="none" stroke="#9a32cd" stroke-dasharray="5,2" d="M1239.54,-790.93C1304.41,-791.53 1395.29,-787.93 1421.25,-764.67 1475.87,-715.73 1492.94,-465.75 1495.97,-412.61"/>
<polygon fill="#9a32cd" stroke="#9a32cd" points="1239.72,-787.43 1229.67,-790.8 1239.63,-794.43 1239.72,-787.43"/>
<text text-anchor="middle" x="1351.88" y="-791.42" font-family="Helvetica,sans-Serif" font-size="10.00"> dM</text>
</g>
<!-- Node11 -->
<g id="node11" class="node">
<title>Node11</title>
<g id="a_node11"><a xlink:href="classdouble.html" target="_top" xlink:title=" ">
<polygon fill="white" stroke="#666666" points="1191.75,-753.29 1147.25,-753.29 1147.25,-734.04 1191.75,-734.04 1191.75,-753.29"/>
<text text-anchor="middle" x="1169.5" y="-739.79" font-family="Helvetica,sans-Serif" font-size="10.00">double</text>
</a>
</g>
</g>
<!-- Node11&#45;&gt;Node1 -->
<g id="edge10" class="edge">
<title>Node11&#45;&gt;Node1</title>
<path fill="none" stroke="#9a32cd" stroke-dasharray="5,2" d="M1203.75,-742.61C1268.19,-740.26 1405.18,-733.67 1421.25,-719.67 1469.55,-677.59 1491.29,-461.82 1495.66,-412.65"/>
<polygon fill="#9a32cd" stroke="#9a32cd" points="1203.63,-739.12 1193.76,-742.96 1203.88,-746.11 1203.63,-739.12"/>
<text text-anchor="middle" x="1351.88" y="-750.67" font-family="Helvetica,sans-Serif" font-size="10.00"> cnValue</text>
<text text-anchor="middle" x="1351.88" y="-739.42" font-family="Helvetica,sans-Serif" font-size="10.00">postProcGapTol</text>
</g>
<!-- Node12 -->
<g id="node12" class="node">
<title>Node12</title>
<g id="a_node12"><a xlink:title=" ">
<polygon fill="white" stroke="#666666" points="1195.88,-685.29 1143.12,-685.29 1143.12,-666.04 1195.88,-666.04 1195.88,-685.29"/>
<text text-anchor="middle" x="1169.5" y="-671.79" font-family="Helvetica,sans-Serif" font-size="10.00">PetscInt</text>
</a>
</g>
</g>
<!-- Node12&#45;&gt;Node1 -->
<g id="edge11" class="edge">
<title>Node12&#45;&gt;Node1</title>
<path fill="none" stroke="#9a32cd" stroke-dasharray="5,2" d="M1207.55,-674.69C1273.31,-672.61 1405.06,-666.85 1421.25,-653.67 1498.67,-590.61 1498.65,-451.16 1497.07,-412.68"/>
<polygon fill="#9a32cd" stroke="#9a32cd" points="1207.48,-671.19 1197.59,-674.99 1207.7,-678.18 1207.48,-671.19"/>
<text text-anchor="middle" x="1351.88" y="-706.17" font-family="Helvetica,sans-Serif" font-size="10.00"> nbHoLevels</text>
<text text-anchor="middle" x="1351.88" y="-694.92" font-family="Helvetica,sans-Serif" font-size="10.00">oRder</text>
<text text-anchor="middle" x="1351.88" y="-683.67" font-family="Helvetica,sans-Serif" font-size="10.00">orderContact</text>
<text text-anchor="middle" x="1351.88" y="-672.42" font-family="Helvetica,sans-Serif" font-size="10.00">orderLambda</text>
</g>
<!-- Node13 -->
<g id="node13" class="node">
<title>Node13</title>
<g id="a_node13"><a xlink:title=" ">
<polygon fill="white" stroke="#666666" points="1200,-599.29 1139,-599.29 1139,-580.04 1200,-580.04 1200,-599.29"/>
<text text-anchor="middle" x="1169.5" y="-585.79" font-family="Helvetica,sans-Serif" font-size="10.00">PetscBool</text>
</a>
</g>
</g>
<!-- Node13&#45;&gt;Node1 -->
<g id="edge12" class="edge">
<title>Node13&#45;&gt;Node1</title>
<path fill="none" stroke="#9a32cd" stroke-dasharray="5,2" d="M1211.42,-587.45C1278.12,-583.5 1404.56,-574.57 1421.25,-562.67 1473.74,-525.25 1490.75,-441.56 1495.17,-412.69"/>
<polygon fill="#9a32cd" stroke="#9a32cd" points="1211.38,-583.94 1201.6,-588.02 1211.79,-590.93 1211.38,-583.94"/>
<text text-anchor="middle" x="1351.88" y="-639.67" font-family="Helvetica,sans-Serif" font-size="10.00"> almFlag</text>
<text text-anchor="middle" x="1351.88" y="-628.42" font-family="Helvetica,sans-Serif" font-size="10.00">convectPts</text>
<text text-anchor="middle" x="1351.88" y="-617.17" font-family="Helvetica,sans-Serif" font-size="10.00">dEbug</text>
<text text-anchor="middle" x="1351.88" y="-605.92" font-family="Helvetica,sans-Serif" font-size="10.00">isNewtonCotes</text>
<text text-anchor="middle" x="1351.88" y="-594.67" font-family="Helvetica,sans-Serif" font-size="10.00">isPartitioned</text>
<text text-anchor="middle" x="1351.88" y="-583.42" font-family="Helvetica,sans-Serif" font-size="10.00">printContactState</text>
</g>
<!-- Node14 -->
<g id="node14" class="node">
<title>Node14</title>
<g id="a_node14"><a xlink:title=" ">
<polygon fill="white" stroke="#666666" points="1236,-561.92 1103,-561.92 1103,-531.42 1236,-531.42 1236,-561.92"/>
<text text-anchor="start" x="1111" y="-548.42" font-family="Helvetica,sans-Serif" font-size="10.00">shared_ptr&lt; MortarContact</text>
<text text-anchor="middle" x="1169.5" y="-537.17" font-family="Helvetica,sans-Serif" font-size="10.00">Problem &gt;</text>
</a>
</g>
</g>
<!-- Node14&#45;&gt;Node1 -->
<g id="edge13" class="edge">
<title>Node14&#45;&gt;Node1</title>
<path fill="none" stroke="#9a32cd" stroke-dasharray="5,2" d="M1247.87,-548.79C1310.63,-549.12 1393.13,-545.99 1421.25,-528.67 1465.51,-501.41 1487.01,-437.58 1493.92,-412.78"/>
<polygon fill="#9a32cd" stroke="#9a32cd" points="1247.95,-545.29 1237.92,-548.7 1247.89,-552.29 1247.95,-545.29"/>
<text text-anchor="middle" x="1351.88" y="-549.42" font-family="Helvetica,sans-Serif" font-size="10.00"> contactProblemPtr</text>
</g>
<!-- Node15 -->
<g id="node15" class="node">
<title>Node15</title>
<g id="a_node15"><a xlink:href="class_range.html" target="_top" xlink:title=" ">
<polygon fill="white" stroke="#666666" points="1191.75,-500.29 1147.25,-500.29 1147.25,-481.04 1191.75,-481.04 1191.75,-500.29"/>
<text text-anchor="middle" x="1169.5" y="-486.79" font-family="Helvetica,sans-Serif" font-size="10.00">Range</text>
</a>
</g>
</g>
<!-- Node15&#45;&gt;Node1 -->
<g id="edge14" class="edge">
<title>Node15&#45;&gt;Node1</title>
<path fill="none" stroke="#9a32cd" stroke-dasharray="5,2" d="M1203.4,-488.37C1262.09,-483.94 1382.35,-473.25 1421.25,-457.67 1447.39,-447.2 1472.76,-425.55 1486.33,-412.76"/>
<polygon fill="#9a32cd" stroke="#9a32cd" points="1203.41,-484.86 1193.7,-489.09 1203.93,-491.84 1203.41,-484.86"/>
<text text-anchor="middle" x="1351.88" y="-516.17" font-family="Helvetica,sans-Serif" font-size="10.00"> contactPrisms</text>
<text text-anchor="middle" x="1351.88" y="-504.92" font-family="Helvetica,sans-Serif" font-size="10.00">masterTris</text>
<text text-anchor="middle" x="1351.88" y="-493.67" font-family="Helvetica,sans-Serif" font-size="10.00">postProcSurface</text>
<text text-anchor="middle" x="1351.88" y="-482.42" font-family="Helvetica,sans-Serif" font-size="10.00">slaveTris</text>
</g>
<!-- Node16 -->
<g id="node16" class="node">
<title>Node16</title>
<g id="a_node16"><a xlink:title=" ">
<polygon fill="white" stroke="#666666" points="1219.5,-462.92 1119.5,-462.92 1119.5,-432.42 1219.5,-432.42 1219.5,-462.92"/>
<text text-anchor="start" x="1127.5" y="-449.42" font-family="Helvetica,sans-Serif" font-size="10.00">vector&lt; std::pair&lt;</text>
<text text-anchor="middle" x="1169.5" y="-438.17" font-family="Helvetica,sans-Serif" font-size="10.00"> Range, Range &gt; &gt;</text>
</a>
</g>
</g>
<!-- Node16&#45;&gt;Node1 -->
<g id="edge15" class="edge">
<title>Node16&#45;&gt;Node1</title>
<path fill="none" stroke="#9a32cd" stroke-dasharray="5,2" d="M1231.46,-446.39C1282.57,-444.41 1357.25,-439.39 1421.25,-426.67 1437.79,-423.38 1455.81,-417.71 1470.07,-412.71"/>
<polygon fill="#9a32cd" stroke="#9a32cd" points="1231.35,-442.89 1221.48,-446.75 1231.6,-449.89 1231.35,-442.89"/>
<text text-anchor="middle" x="1351.88" y="-444.42" font-family="Helvetica,sans-Serif" font-size="10.00"> contactSurfacePairs</text>
</g>
<!-- Node17 -->
<g id="node17" class="node">
<title>Node17</title>
<g id="a_node17"><a xlink:title=" ">
<polygon fill="white" stroke="#666666" points="1189.5,-412.29 1149.5,-412.29 1149.5,-393.04 1189.5,-393.04 1189.5,-412.29"/>
<text text-anchor="middle" x="1169.5" y="-398.79" font-family="Helvetica,sans-Serif" font-size="10.00">string</text>
</a>
</g>
</g>
<!-- Node17&#45;&gt;Node1 -->
<g id="edge16" class="edge">
<title>Node17&#45;&gt;Node1</title>
<path fill="none" stroke="#9a32cd" stroke-dasharray="5,2" d="M1201.18,-402.67C1255.53,-402.67 1369.51,-402.67 1438.89,-402.67"/>
<polygon fill="#9a32cd" stroke="#9a32cd" points="1201.43,-399.17 1191.43,-402.67 1201.43,-406.17 1201.43,-399.17"/>
<text text-anchor="middle" x="1351.88" y="-415.67" font-family="Helvetica,sans-Serif" font-size="10.00"> meshNodeField</text>
<text text-anchor="middle" x="1351.88" y="-404.42" font-family="Helvetica,sans-Serif" font-size="10.00">positionField</text>
</g>
<!-- Node18 -->
<g id="node18" class="node">
<title>Node18</title>
<g id="a_node18"><a xlink:href="classbool.html" target="_top" xlink:title=" ">
<polygon fill="white" stroke="#666666" points="1186.5,-374.29 1152.5,-374.29 1152.5,-355.04 1186.5,-355.04 1186.5,-374.29"/>
<text text-anchor="middle" x="1169.5" y="-360.79" font-family="Helvetica,sans-Serif" font-size="10.00">bool</text>
</a>
</g>
</g>
<!-- Node18&#45;&gt;Node1 -->
<g id="edge17" class="edge">
<title>Node18&#45;&gt;Node1</title>
<path fill="none" stroke="#9a32cd" stroke-dasharray="5,2" d="M1198.04,-363.33C1244.53,-361.64 1341.34,-360.62 1421.25,-376.17 1439.33,-379.69 1458.94,-386.7 1473.6,-392.63"/>
<polygon fill="#9a32cd" stroke="#9a32cd" points="1198.19,-359.82 1188.34,-363.72 1198.48,-366.81 1198.19,-359.82"/>
<text text-anchor="middle" x="1351.88" y="-388.67" font-family="Helvetica,sans-Serif" font-size="10.00"> isDisplacementField</text>
<text text-anchor="middle" x="1351.88" y="-377.42" font-family="Helvetica,sans-Serif" font-size="10.00">isQuasiStatic</text>
</g>
<!-- Node19 -->
<g id="node19" class="node">
<title>Node19</title>
<g id="a_node19"><a xlink:title=" ">
<polygon fill="white" stroke="#666666" points="1225.5,-337.29 1113.5,-337.29 1113.5,-318.04 1225.5,-318.04 1225.5,-337.29"/>
<text text-anchor="middle" x="1169.5" y="-323.79" font-family="Helvetica,sans-Serif" font-size="10.00">vector&lt; BitRefLevel &gt;</text>
</a>
</g>
</g>
<!-- Node19&#45;&gt;Node1 -->
<g id="edge18" class="edge">
<title>Node19&#45;&gt;Node1</title>
<path fill="none" stroke="#9a32cd" stroke-dasharray="5,2" d="M1237.04,-323.16C1288.84,-321.92 1361.7,-325.28 1421.25,-347.42 1447.99,-357.36 1473.53,-379.75 1486.88,-392.77"/>
<polygon fill="#9a32cd" stroke="#9a32cd" points="1237.06,-319.65 1227.18,-323.46 1237.28,-326.65 1237.06,-319.65"/>
<text text-anchor="middle" x="1351.88" y="-348.42" font-family="Helvetica,sans-Serif" font-size="10.00"> bitLevels</text>
</g>
<!-- Node20 -->
<g id="node20" class="node">
<title>Node20</title>
<g id="a_node20"><a xlink:title=" ">
<polygon fill="white" stroke="#666666" points="1241.62,-300.29 1097.38,-300.29 1097.38,-281.04 1241.62,-281.04 1241.62,-300.29"/>
<text text-anchor="middle" x="1169.5" y="-286.79" font-family="Helvetica,sans-Serif" font-size="10.00">shared_ptr&lt; contactMIndex &gt;</text>
</a>
</g>
</g>
<!-- Node20&#45;&gt;Node1 -->
<g id="edge19" class="edge">
<title>Node20&#45;&gt;Node1</title>
<path fill="none" stroke="#9a32cd" stroke-dasharray="5,2" d="M1253.3,-279.82C1304.51,-276.94 1370.01,-280.45 1421.25,-307.42 1457.8,-326.66 1482.49,-372.27 1492.06,-392.59"/>
<polygon fill="#9a32cd" stroke="#9a32cd" points="1253.2,-276.32 1243.45,-280.47 1253.66,-283.3 1253.2,-276.32"/>
<text text-anchor="middle" x="1351.88" y="-308.42" font-family="Helvetica,sans-Serif" font-size="10.00"> contactCommondataMultiIndex</text>
</g>
<!-- Node21 -->
<g id="node21" class="node">
<title>Node21</title>
<g id="a_node21"><a xlink:title=" ">
<polygon fill="white" stroke="#666666" points="1236,-262.92 1103,-262.92 1103,-232.42 1236,-232.42 1236,-262.92"/>
<text text-anchor="start" x="1111" y="-249.42" font-family="Helvetica,sans-Serif" font-size="10.00">shared_ptr&lt; PostProcFace</text>
<text text-anchor="middle" x="1169.5" y="-238.17" font-family="Helvetica,sans-Serif" font-size="10.00">OnRefinedMesh &gt;</text>
</a>
</g>
</g>
<!-- Node21&#45;&gt;Node1 -->
<g id="edge20" class="edge">
<title>Node21&#45;&gt;Node1</title>
<path fill="none" stroke="#9a32cd" stroke-dasharray="5,2" d="M1247.69,-234.07C1300.59,-228.91 1370.16,-230.74 1421.25,-263.42 1469.17,-294.07 1488.79,-366.2 1494.55,-392.69"/>
<polygon fill="#9a32cd" stroke="#9a32cd" points="1247.4,-230.58 1237.84,-235.14 1248.16,-237.54 1247.4,-230.58"/>
<text text-anchor="middle" x="1351.88" y="-264.42" font-family="Helvetica,sans-Serif" font-size="10.00"> postProcContactPtr</text>
</g>
<!-- Node22 -->
<g id="node22" class="node">
<title>Node22</title>
<g id="a_node22"><a xlink:title=" ">
<polygon fill="white" stroke="#666666" points="1252.12,-213.92 1086.88,-213.92 1086.88,-183.42 1252.12,-183.42 1252.12,-213.92"/>
<text text-anchor="start" x="1094.88" y="-200.42" font-family="Helvetica,sans-Serif" font-size="10.00">shared_ptr&lt; MortarContact</text>
<text text-anchor="middle" x="1169.5" y="-189.17" font-family="Helvetica,sans-Serif" font-size="10.00">Problem::MortarContactElement &gt;</text>
</a>
</g>
</g>
<!-- Node22&#45;&gt;Node1 -->
<g id="edge21" class="edge">
<title>Node22&#45;&gt;Node1</title>
<path fill="none" stroke="#9a32cd" stroke-dasharray="5,2" d="M1263.88,-182.77C1314.91,-179.24 1376.62,-183.97 1421.25,-216.42 1481.61,-260.31 1493.64,-360.97 1495.96,-392.82"/>
<polygon fill="#9a32cd" stroke="#9a32cd" points="1263.68,-179.27 1254,-183.58 1264.26,-186.25 1263.68,-179.27"/>
<text text-anchor="middle" x="1351.88" y="-217.42" font-family="Helvetica,sans-Serif" font-size="10.00"> fePostProcSimpleContact</text>
</g>
<!-- Node23 -->
<g id="node23" class="node">
<title>Node23</title>
<g id="a_node23"><a xlink:title=" ">
<polygon fill="white" stroke="#666666" points="1264.5,-164.92 1074.5,-164.92 1074.5,-134.42 1264.5,-134.42 1264.5,-164.92"/>
<text text-anchor="start" x="1082.5" y="-151.42" font-family="Helvetica,sans-Serif" font-size="10.00">shared_ptr&lt; MortarContact</text>
<text text-anchor="middle" x="1169.5" y="-140.17" font-family="Helvetica,sans-Serif" font-size="10.00">Problem::CommonDataMortarContact &gt;</text>
</a>
</g>
</g>
<!-- Node23&#45;&gt;Node1 -->
<g id="edge22" class="edge">
<title>Node23&#45;&gt;Node1</title>
<path fill="none" stroke="#9a32cd" stroke-dasharray="5,2" d="M1257.74,-132.69C1310.38,-127.54 1375.81,-130.82 1421.25,-166.42 1495.29,-224.42 1497.76,-355.52 1496.9,-392.68"/>
<polygon fill="#9a32cd" stroke="#9a32cd" points="1257.43,-129.2 1247.88,-133.78 1258.2,-136.16 1257.43,-129.2"/>
<text text-anchor="middle" x="1351.88" y="-167.42" font-family="Helvetica,sans-Serif" font-size="10.00"> commonDataPostProc</text>
</g>
<!-- Node24 -->
<g id="node24" class="node">
<title>Node24</title>
<g id="a_node24"><a xlink:title=" ">
<polygon fill="white" stroke="#666666" points="1188,-116.29 1151,-116.29 1151,-97.04 1188,-97.04 1188,-116.29"/>
<text text-anchor="middle" x="1169.5" y="-102.79" font-family="Helvetica,sans-Serif" font-size="10.00">Core</text>
</a>
</g>
</g>
<!-- Node24&#45;&gt;Node1 -->
<g id="edge23" class="edge">
<title>Node24&#45;&gt;Node1</title>
<path fill="none" stroke="#9a32cd" stroke-dasharray="5,2" d="M1199.82,-103.5C1258.57,-97.79 1387.91,-88.74 1421.25,-115.42 1466.54,-151.65 1490.35,-346.09 1495.45,-392.65"/>
<polygon fill="#9a32cd" stroke="#9a32cd" points="1199.52,-100.01 1189.93,-104.5 1200.23,-106.97 1199.52,-100.01"/>
<text text-anchor="middle" x="1351.88" y="-116.42" font-family="Helvetica,sans-Serif" font-size="10.00"> mb_post</text>
</g>
<!-- Node25 -->
<g id="node25" class="node">
<title>Node25</title>
<g id="a_node25"><a xlink:title=" ">
<polygon fill="white" stroke="#666666" points="1201.5,-79.29 1137.5,-79.29 1137.5,-60.04 1201.5,-60.04 1201.5,-79.29"/>
<text text-anchor="middle" x="1169.5" y="-65.79" font-family="Helvetica,sans-Serif" font-size="10.00">Interface &amp;</text>
</a>
</g>
</g>
<!-- Node25&#45;&gt;Node1 -->
<g id="edge24" class="edge">
<title>Node25&#45;&gt;Node1</title>
<path fill="none" stroke="#9a32cd" stroke-dasharray="5,2" d="M1212.94,-65.74C1276.09,-60.85 1390.65,-55.97 1421.25,-81.42 1471.24,-122.99 1491.74,-343.43 1495.75,-392.84"/>
<polygon fill="#9a32cd" stroke="#9a32cd" points="1212.97,-62.23 1203.29,-66.52 1213.54,-69.2 1212.97,-62.23"/>
<text text-anchor="middle" x="1351.88" y="-82.42" font-family="Helvetica,sans-Serif" font-size="10.00"> moabPostProcMesh</text>
</g>
<!-- Node26 -->
<g id="node26" class="node">
<title>Node26</title>
<g id="a_node26"><a xlink:title=" ">
<polygon fill="white" stroke="#666666" points="1217.25,-35.29 1121.75,-35.29 1121.75,-16.04 1217.25,-16.04 1217.25,-35.29"/>
<text text-anchor="middle" x="1169.5" y="-21.79" font-family="Helvetica,sans-Serif" font-size="10.00">array&lt; double, 2 &gt;</text>
</a>
</g>
</g>
<!-- Node26&#45;&gt;Node1 -->
<g id="edge25" class="edge">
<title>Node26&#45;&gt;Node1</title>
<path fill="none" stroke="#9a32cd" stroke-dasharray="5,2" d="M1213.74,-12.8C1268.76,0.68 1363.55,13.76 1421.25,-35.17 1478.12,-83.4 1493.46,-339.41 1496.06,-392.88"/>
<polygon fill="#9a32cd" stroke="#9a32cd" points="1212.91,-9.4 1204.1,-15.28 1214.65,-16.18 1212.91,-9.4"/>
<text text-anchor="middle" x="1351.88" y="-48.67" font-family="Helvetica,sans-Serif" font-size="10.00"> contactArea</text>
<text text-anchor="middle" x="1351.88" y="-37.42" font-family="Helvetica,sans-Serif" font-size="10.00">nbGaussPts</text>
</g>
</g>
</svg>
