<?xml version="1.0" encoding="UTF-8" standalone="no"?>
<!DOCTYPE svg PUBLIC "-//W3C//DTD SVG 1.1//EN"
 "http://www.w3.org/Graphics/SVG/1.1/DTD/svg11.dtd">
<!-- Generated by graphviz version 9.0.0 (20230911.1827)
 -->
<!-- Title: MoFEM::interface_FieldEntity&lt; T &gt; Pages: 1 -->
<svg width="417pt" height="449pt"
 viewBox="0.00 0.00 417.38 448.50" xmlns="http://www.w3.org/2000/svg" xmlns:xlink="http://www.w3.org/1999/xlink">
<g id="graph0" class="graph" transform="scale(1 1) rotate(0) translate(4 444.5)">
<title>MoFEM::interface_FieldEntity&lt; T &gt;</title>
<!-- Node1 -->
<g id="node1" class="node">
<title>Node1</title>
<g id="a_node1"><a xlink:title="Interface to FieldEntity.">
<polygon fill="#999999" stroke="#666666" points="185.12,-19.25 15.38,-19.25 15.38,0 185.12,0 185.12,-19.25"/>
<text text-anchor="middle" x="100.25" y="-5.75" font-family="Helvetica,sans-Serif" font-size="10.00">MoFEM::interface_FieldEntity&lt; T &gt;</text>
</a>
</g>
</g>
<!-- Node2 -->
<g id="node2" class="node">
<title>Node2</title>
<g id="a_node2"><a xlink:href="struct_mo_f_e_m_1_1interface___field_3_01_t_00_01_t_01_4.html" target="_top" xlink:title=" ">
<polygon fill="white" stroke="#666666" points="160.38,-86.75 40.12,-86.75 40.12,-56.25 160.38,-56.25 160.38,-86.75"/>
<text text-anchor="start" x="48.12" y="-73.25" font-family="Helvetica,sans-Serif" font-size="10.00">MoFEM::interface_Field</text>
<text text-anchor="middle" x="100.25" y="-62" font-family="Helvetica,sans-Serif" font-size="10.00">&lt; T, T &gt;</text>
</a>
</g>
</g>
<!-- Node2&#45;&gt;Node1 -->
<g id="edge1" class="edge">
<title>Node2&#45;&gt;Node1</title>
<path fill="none" stroke="#63b8ff" d="M100.25,-44.77C100.25,-35.79 100.25,-26.29 100.25,-19.6"/>
<polygon fill="#63b8ff" stroke="#63b8ff" points="96.75,-44.49 100.25,-54.49 103.75,-44.49 96.75,-44.49"/>
</g>
<!-- Node3 -->
<g id="node3" class="node">
<title>Node3</title>
<g id="a_node3"><a xlink:href="struct_mo_f_e_m_1_1interface___field_impl.html" target="_top" xlink:title=" ">
<polygon fill="white" stroke="#666666" points="169.75,-154.25 30.75,-154.25 30.75,-123.75 169.75,-123.75 169.75,-154.25"/>
<text text-anchor="start" x="38.75" y="-140.75" font-family="Helvetica,sans-Serif" font-size="10.00">MoFEM::interface_FieldImpl</text>
<text text-anchor="middle" x="100.25" y="-129.5" font-family="Helvetica,sans-Serif" font-size="10.00">&lt; T, T &gt;</text>
</a>
</g>
</g>
<!-- Node3&#45;&gt;Node2 -->
<g id="edge2" class="edge">
<title>Node3&#45;&gt;Node2</title>
<path fill="none" stroke="#63b8ff" d="M100.25,-112.09C100.25,-103.55 100.25,-94.37 100.25,-87"/>
<polygon fill="#63b8ff" stroke="#63b8ff" points="96.75,-111.95 100.25,-121.95 103.75,-111.95 96.75,-111.95"/>
</g>
<!-- Node4 -->
<g id="node4" class="node">
<title>Node4</title>
<g id="a_node4"><a xlink:href="struct_mo_f_e_m_1_1interface___ref_entity.html" target="_top" xlink:title="interface to RefEntity">
<polygon fill="white" stroke="#666666" points="164.5,-336.75 0,-336.75 0,-317.5 164.5,-317.5 164.5,-336.75"/>
<text text-anchor="middle" x="82.25" y="-323.25" font-family="Helvetica,sans-Serif" font-size="10.00">MoFEM::interface_RefEntity&lt; T &gt;</text>
</a>
</g>
</g>
<!-- Node4&#45;&gt;Node3 -->
<g id="edge3" class="edge">
<title>Node4&#45;&gt;Node3</title>
<path fill="none" stroke="#63b8ff" d="M84.18,-306.17C87.82,-268.55 95.61,-187.94 98.82,-154.75"/>
<polygon fill="#63b8ff" stroke="#63b8ff" points="80.74,-305.35 83.26,-315.64 87.71,-306.02 80.74,-305.35"/>
</g>
<!-- Node5 -->
<g id="node5" class="node">
<title>Node5</title>
<g id="a_node5"><a xlink:title=" ">
<polygon fill="white" stroke="#666666" points="144.12,-440.5 58.38,-440.5 58.38,-421.25 144.12,-421.25 144.12,-440.5"/>
<text text-anchor="middle" x="101.25" y="-427" font-family="Helvetica,sans-Serif" font-size="10.00">shared_ptr&lt; T &gt;</text>
</a>
</g>
</g>
<!-- Node5&#45;&gt;Node4 -->
<g id="edge4" class="edge">
<title>Node5&#45;&gt;Node4</title>
<path fill="none" stroke="#9a32cd" stroke-dasharray="5,2" d="M97.49,-409.76C93.37,-387.65 86.92,-353.12 83.91,-336.99"/>
<polygon fill="#9a32cd" stroke="#9a32cd" points="94.01,-410.17 99.29,-419.36 100.89,-408.88 94.01,-410.17"/>
<text text-anchor="middle" x="106.75" y="-393.75" font-family="Helvetica,sans-Serif" font-size="10.00"> sPtr</text>
</g>
<!-- Node9 -->
<g id="node9" class="node">
<title>Node9</title>
<g id="a_node9"><a xlink:href="struct_mo_f_e_m_1_1interface___ref_entity.html" target="_top" xlink:title="interface to RefEntity">
<polygon fill="white" stroke="#666666" points="271.5,-374 107,-374 107,-354.75 271.5,-354.75 271.5,-374"/>
<text text-anchor="middle" x="189.25" y="-360.5" font-family="Helvetica,sans-Serif" font-size="10.00">MoFEM::interface_RefEntity&lt; T &gt;</text>
</a>
</g>
</g>
<!-- Node5&#45;&gt;Node9 -->
<g id="edge9" class="edge">
<title>Node5&#45;&gt;Node9</title>
<path fill="none" stroke="#9a32cd" stroke-dasharray="5,2" d="M122.66,-414.18C139.64,-401.74 162.78,-384.78 176.83,-374.48"/>
<polygon fill="#9a32cd" stroke="#9a32cd" points="120.7,-411.28 114.71,-420.01 124.84,-416.92 120.7,-411.28"/>
<text text-anchor="middle" x="161.75" y="-393.75" font-family="Helvetica,sans-Serif" font-size="10.00"> sPtr</text>
</g>
<!-- Node6 -->
<g id="node6" class="node">
<title>Node6</title>
<g id="a_node6"><a xlink:href="struct_mo_f_e_m_1_1interface___field_impl.html" target="_top" xlink:title="Pointer interface for MoFEM::Field.">
<polygon fill="white" stroke="#666666" points="253.75,-232 114.75,-232 114.75,-201.5 253.75,-201.5 253.75,-232"/>
<text text-anchor="start" x="122.75" y="-218.5" font-family="Helvetica,sans-Serif" font-size="10.00">MoFEM::interface_FieldImpl</text>
<text text-anchor="middle" x="184.25" y="-207.25" font-family="Helvetica,sans-Serif" font-size="10.00">&lt; FIELD, REFENT &gt;</text>
</a>
</g>
</g>
<!-- Node6&#45;&gt;Node3 -->
<g id="edge5" class="edge">
<title>Node6&#45;&gt;Node3</title>
<path fill="none" stroke="orange" stroke-dasharray="5,2" d="M159.83,-193.73C145.85,-181.12 128.7,-165.66 116.4,-154.56"/>
<polygon fill="orange" stroke="orange" points="157.16,-196.03 166.93,-200.13 161.85,-190.83 157.16,-196.03"/>
<text text-anchor="middle" x="167" y="-174" font-family="Helvetica,sans-Serif" font-size="10.00"> &lt; T, T &gt;</text>
</g>
<!-- Node7 -->
<g id="node7" class="node">
<title>Node7</title>
<g id="a_node7"><a xlink:href="struct_mo_f_e_m_1_1interface___ref_entity.html" target="_top" xlink:title=" ">
<polygon fill="white" stroke="#666666" points="259.5,-299.5 119,-299.5 119,-269 259.5,-269 259.5,-299.5"/>
<text text-anchor="start" x="127" y="-286" font-family="Helvetica,sans-Serif" font-size="10.00">MoFEM::interface_RefEntity</text>
<text text-anchor="middle" x="189.25" y="-274.75" font-family="Helvetica,sans-Serif" font-size="10.00">&lt; REFENT &gt;</text>
</a>
</g>
</g>
<!-- Node7&#45;&gt;Node6 -->
<g id="edge6" class="edge">
<title>Node7&#45;&gt;Node6</title>
<path fill="none" stroke="#63b8ff" d="M187.27,-257.34C186.62,-248.8 185.92,-239.62 185.36,-232.25"/>
<polygon fill="#63b8ff" stroke="#63b8ff" points="183.77,-257.5 188.03,-267.2 190.75,-256.97 183.77,-257.5"/>
</g>
<!-- Node8 -->
<g id="node8" class="node">
<title>Node8</title>
<g id="a_node8"><a xlink:href="classboost_1_1shared__ptr_3_01_r_e_f_e_n_t_01_4.html" target="_top" xlink:title=" ">
<polygon fill="white" stroke="#666666" points="409.38,-374 289.12,-374 289.12,-354.75 409.38,-354.75 409.38,-374"/>
<text text-anchor="middle" x="349.25" y="-360.5" font-family="Helvetica,sans-Serif" font-size="10.00">shared_ptr&lt; REFENT &gt;</text>
</a>
</g>
</g>
<!-- Node8&#45;&gt;Node7 -->
<g id="edge7" class="edge">
<title>Node8&#45;&gt;Node7</title>
<path fill="none" stroke="#9a32cd" stroke-dasharray="5,2" d="M320.42,-349.3C291.83,-335.34 248.21,-314.04 219.22,-299.89"/>
<polygon fill="#9a32cd" stroke="#9a32cd" points="318.7,-352.35 329.22,-353.6 321.77,-346.06 318.7,-352.35"/>
<text text-anchor="middle" x="302.75" y="-323.25" font-family="Helvetica,sans-Serif" font-size="10.00"> sPtr</text>
</g>
<!-- Node9&#45;&gt;Node7 -->
<g id="edge8" class="edge">
<title>Node9&#45;&gt;Node7</title>
<path fill="none" stroke="orange" stroke-dasharray="5,2" d="M189.25,-342.96C189.25,-329.47 189.25,-312.09 189.25,-299.95"/>
<polygon fill="orange" stroke="orange" points="185.75,-342.9 189.25,-352.9 192.75,-342.9 185.75,-342.9"/>
<text text-anchor="middle" x="220" y="-323.25" font-family="Helvetica,sans-Serif" font-size="10.00"> &lt; REFENT &gt;</text>
</g>
</g>
</svg>
