<?xml version="1.0" encoding="UTF-8" standalone="no"?>
<!DOCTYPE svg PUBLIC "-//W3C//DTD SVG 1.1//EN"
 "http://www.w3.org/Graphics/SVG/1.1/DTD/svg11.dtd">
<!-- Generated by graphviz version 2.43.0 (0)
 -->
<!-- Title: CoordsAndHandle Pages: 1 -->
<svg width="136pt" height="117pt"
 viewBox="0.00 0.00 136.00 117.00" xmlns="http://www.w3.org/2000/svg" xmlns:xlink="http://www.w3.org/1999/xlink">
<g id="graph0" class="graph" transform="scale(1 1) rotate(0) translate(4 113)">
<title>CoordsAndHandle</title>
<polygon fill="white" stroke="transparent" points="-4,4 -4,-113 132,-113 132,4 -4,4"/>
<!-- Node1 -->
<g id="node1" class="node">
<title>Node1</title>
<g id="a_node1"><a xlink:title=" ">
<polygon fill="#bfbfbf" stroke="black" points="24,-0.5 24,-19.5 128,-19.5 128,-0.5 24,-0.5"/>
<text text-anchor="middle" x="76" y="-7.5" font-family="Helvetica,sans-Serif" font-size="10.00">CoordsAndHandle</text>
</a>
</g>
</g>
<!-- Node2 -->
<g id="node2" class="node">
<title>Node2</title>
<g id="a_node2"><a xlink:href="classEntityHandle.html" target="_top" xlink:title=" ">
<polygon fill="white" stroke="black" points="0,-89.5 0,-108.5 80,-108.5 80,-89.5 0,-89.5"/>
<text text-anchor="middle" x="40" y="-96.5" font-family="Helvetica,sans-Serif" font-size="10.00">EntityHandle</text>
</a>
</g>
</g>
<!-- Node2&#45;&gt;Node1 -->
<g id="edge1" class="edge">
<title>Node2&#45;&gt;Node1</title>
<path fill="none" stroke="#9a32cd" stroke-dasharray="5,2" d="M46.58,-79.66C50.99,-67.7 57.04,-51.8 63,-38 65.64,-31.89 68.89,-25.14 71.48,-19.91"/>
<polygon fill="#9a32cd" stroke="#9a32cd" points="43.18,-78.77 43.06,-89.37 49.76,-81.16 43.18,-78.77"/>
<text text-anchor="middle" x="77" y="-52" font-family="Helvetica,sans-Serif" font-size="10.00"> node</text>
</g>
<!-- Node3 -->
<g id="node3" class="node">
<title>Node3</title>
<g id="a_node3"><a xlink:title=" ">
<polygon fill="white" stroke="#bfbfbf" points="98.5,-89.5 98.5,-108.5 127.5,-108.5 127.5,-89.5 98.5,-89.5"/>
<text text-anchor="middle" x="113" y="-96.5" font-family="Helvetica,sans-Serif" font-size="10.00">int</text>
</a>
</g>
</g>
<!-- Node3&#45;&gt;Node1 -->
<g id="edge2" class="edge">
<title>Node3&#45;&gt;Node1</title>
<path fill="none" stroke="#9a32cd" stroke-dasharray="5,2" d="M107.06,-79.52C102.99,-67.5 97.22,-51.59 91,-38 88.14,-31.76 84.39,-25.01 81.36,-19.82"/>
<polygon fill="#9a32cd" stroke="#9a32cd" points="103.82,-80.89 110.28,-89.29 110.47,-78.69 103.82,-80.89"/>
<text text-anchor="middle" x="108" y="-63" font-family="Helvetica,sans-Serif" font-size="10.00"> x</text>
<text text-anchor="middle" x="108" y="-52" font-family="Helvetica,sans-Serif" font-size="10.00">y</text>
<text text-anchor="middle" x="108" y="-41" font-family="Helvetica,sans-Serif" font-size="10.00">z</text>
</g>
</g>
</svg>
