<?xml version="1.0" encoding="UTF-8" standalone="no"?>
<!DOCTYPE svg PUBLIC "-//W3C//DTD SVG 1.1//EN"
 "http://www.w3.org/Graphics/SVG/1.1/DTD/svg11.dtd">
<!-- Generated by graphviz version 9.0.0 (20230911.1827)
 -->
<!-- Title: PlasticOps::CommonData Pages: 1 -->
<svg width="397pt" height="391pt"
 viewBox="0.00 0.00 397.00 390.85" xmlns="http://www.w3.org/2000/svg" xmlns:xlink="http://www.w3.org/1999/xlink">
<g id="graph0" class="graph" transform="scale(1 1) rotate(0) translate(4 386.85)">
<title>PlasticOps::CommonData</title>
<!-- Node1 -->
<g id="node1" class="node">
<title>Node1</title>
<g id="a_node1"><a xlink:title="[Common data]">
<polygon fill="#999999" stroke="#666666" points="389,-220.23 258.25,-220.23 258.25,-200.98 389,-200.98 389,-220.23"/>
<text text-anchor="middle" x="323.62" y="-206.73" font-family="Helvetica,sans-Serif" font-size="10.00">PlasticOps::CommonData</text>
</a>
</g>
</g>
<!-- Node2 -->
<g id="node2" class="node">
<title>Node2</title>
<g id="a_node2"><a xlink:title=" ">
<polygon fill="white" stroke="#666666" points="140.5,-382.85 0,-382.85 0,-352.35 140.5,-352.35 140.5,-382.85"/>
<text text-anchor="start" x="8" y="-369.35" font-family="Helvetica,sans-Serif" font-size="10.00">boost::enable_shared</text>
<text text-anchor="middle" x="70.25" y="-358.1" font-family="Helvetica,sans-Serif" font-size="10.00">_from_this&lt; CommonData &gt;</text>
</a>
</g>
</g>
<!-- Node2&#45;&gt;Node1 -->
<g id="edge1" class="edge">
<title>Node2&#45;&gt;Node1</title>
<path fill="none" stroke="#63b8ff" d="M151.99,-360.59C181.68,-355.02 214.34,-345.13 240.25,-327.6 281.6,-299.62 308.8,-243.45 318.58,-220.61"/>
<polygon fill="#63b8ff" stroke="#63b8ff" points="151.53,-357.11 142.27,-362.26 152.72,-364.01 151.53,-357.11"/>
</g>
<!-- Node3 -->
<g id="node3" class="node">
<title>Node3</title>
<g id="a_node3"><a xlink:title=" ">
<polygon fill="white" stroke="#666666" points="123.25,-333.85 17.25,-333.85 17.25,-303.35 123.25,-303.35 123.25,-333.85"/>
<text text-anchor="start" x="25.25" y="-320.35" font-family="Helvetica,sans-Serif" font-size="10.00">array&lt; double, LAST</text>
<text text-anchor="middle" x="70.25" y="-309.1" font-family="Helvetica,sans-Serif" font-size="10.00">_PARAM &gt;</text>
</a>
</g>
</g>
<!-- Node3&#45;&gt;Node1 -->
<g id="edge2" class="edge">
<title>Node3&#45;&gt;Node1</title>
<path fill="none" stroke="#9a32cd" stroke-dasharray="5,2" d="M134.92,-316.01C167.82,-312.56 207.76,-304.98 240.25,-288.6 273.31,-271.94 302.24,-237.68 315.27,-220.66"/>
<polygon fill="#9a32cd" stroke="#9a32cd" points="134.74,-312.51 125.11,-316.92 135.39,-319.48 134.74,-312.51"/>
<text text-anchor="middle" x="199.38" y="-314.35" font-family="Helvetica,sans-Serif" font-size="10.00"> blockParams</text>
</g>
<!-- Node4 -->
<g id="node4" class="node">
<title>Node4</title>
<g id="a_node4"><a xlink:title=" ">
<polygon fill="white" stroke="#666666" points="139,-260.23 1.5,-260.23 1.5,-240.98 139,-240.98 139,-260.23"/>
<text text-anchor="middle" x="70.25" y="-246.73" font-family="Helvetica,sans-Serif" font-size="10.00">shared_ptr&lt; MatrixDouble &gt;</text>
</a>
</g>
</g>
<!-- Node4&#45;&gt;Node1 -->
<g id="edge3" class="edge">
<title>Node4&#45;&gt;Node1</title>
<path fill="none" stroke="#9a32cd" stroke-dasharray="5,2" d="M150.39,-241.72C178.81,-238.16 211.04,-233.68 240.25,-228.6 253.23,-226.34 267.26,-223.45 280.01,-220.64"/>
<polygon fill="#9a32cd" stroke="#9a32cd" points="150.29,-238.21 140.8,-242.91 151.15,-245.16 150.29,-238.21"/>
<text text-anchor="middle" x="199.38" y="-275.1" font-family="Helvetica,sans-Serif" font-size="10.00"> mDPtr</text>
<text text-anchor="middle" x="199.38" y="-263.85" font-family="Helvetica,sans-Serif" font-size="10.00">mGradPtr</text>
<text text-anchor="middle" x="199.38" y="-252.6" font-family="Helvetica,sans-Serif" font-size="10.00">mStrainPtr</text>
<text text-anchor="middle" x="199.38" y="-241.35" font-family="Helvetica,sans-Serif" font-size="10.00">mStressPtr</text>
</g>
<!-- Node5 -->
<g id="node5" class="node">
<title>Node5</title>
<g id="a_node5"><a xlink:title=" ">
<polygon fill="white" stroke="#666666" points="107.88,-181.23 32.62,-181.23 32.62,-161.98 107.88,-161.98 107.88,-181.23"/>
<text text-anchor="middle" x="70.25" y="-167.73" font-family="Helvetica,sans-Serif" font-size="10.00">VectorDouble</text>
</a>
</g>
</g>
<!-- Node5&#45;&gt;Node1 -->
<g id="edge4" class="edge">
<title>Node5&#45;&gt;Node1</title>
<path fill="none" stroke="#9a32cd" stroke-dasharray="5,2" d="M119.42,-166.4C153.57,-164.02 200.24,-163.42 240.25,-172.35 264.72,-177.81 290.57,-191.25 306.65,-200.64"/>
<polygon fill="#9a32cd" stroke="#9a32cd" points="119.56,-162.88 109.86,-167.15 120.1,-169.86 119.56,-162.88"/>
<text text-anchor="middle" x="199.38" y="-218.35" font-family="Helvetica,sans-Serif" font-size="10.00"> plasticSurface</text>
<text text-anchor="middle" x="199.38" y="-207.1" font-family="Helvetica,sans-Serif" font-size="10.00">plasticTau</text>
<text text-anchor="middle" x="199.38" y="-195.85" font-family="Helvetica,sans-Serif" font-size="10.00">plasticTauDot</text>
<text text-anchor="middle" x="199.38" y="-184.6" font-family="Helvetica,sans-Serif" font-size="10.00">resC</text>
<text text-anchor="middle" x="199.38" y="-173.35" font-family="Helvetica,sans-Serif" font-size="10.00">resCdTau</text>
</g>
<!-- Node6 -->
<g id="node6" class="node">
<title>Node6</title>
<g id="a_node6"><a xlink:title=" ">
<polygon fill="white" stroke="#666666" points="107.12,-57.23 33.38,-57.23 33.38,-37.98 107.12,-37.98 107.12,-57.23"/>
<text text-anchor="middle" x="70.25" y="-43.73" font-family="Helvetica,sans-Serif" font-size="10.00">MatrixDouble</text>
</a>
</g>
</g>
<!-- Node6&#45;&gt;Node1 -->
<g id="edge5" class="edge">
<title>Node6&#45;&gt;Node1</title>
<path fill="none" stroke="#9a32cd" stroke-dasharray="5,2" d="M118.57,-39.34C154.72,-35.6 204.29,-36.27 240.25,-59.35 292.84,-93.11 314.46,-172.56 320.63,-200.59"/>
<polygon fill="#9a32cd" stroke="#9a32cd" points="118.35,-35.84 108.84,-40.51 119.18,-42.79 118.35,-35.84"/>
<text text-anchor="middle" x="199.38" y="-150.35" font-family="Helvetica,sans-Serif" font-size="10.00"> plasticFlow</text>
<text text-anchor="middle" x="199.38" y="-139.1" font-family="Helvetica,sans-Serif" font-size="10.00">plasticStrain</text>
<text text-anchor="middle" x="199.38" y="-127.85" font-family="Helvetica,sans-Serif" font-size="10.00">plasticStrainDot</text>
<text text-anchor="middle" x="199.38" y="-116.6" font-family="Helvetica,sans-Serif" font-size="10.00">resCdPlasticStrain</text>
<text text-anchor="middle" x="199.38" y="-105.35" font-family="Helvetica,sans-Serif" font-size="10.00">resCdStrain</text>
<text text-anchor="middle" x="199.38" y="-94.1" font-family="Helvetica,sans-Serif" font-size="10.00">resFlow</text>
<text text-anchor="middle" x="199.38" y="-82.85" font-family="Helvetica,sans-Serif" font-size="10.00">resFlowDstrain</text>
<text text-anchor="middle" x="199.38" y="-71.6" font-family="Helvetica,sans-Serif" font-size="10.00">resFlowDstrainDot</text>
<text text-anchor="middle" x="199.38" y="-60.35" font-family="Helvetica,sans-Serif" font-size="10.00">resFlowDtau</text>
</g>
<!-- Node7 -->
<g id="node7" class="node">
<title>Node7</title>
<g id="a_node7"><a xlink:title=" ">
<polygon fill="white" stroke="#666666" points="109,-20.23 31.5,-20.23 31.5,-0.98 109,-0.98 109,-20.23"/>
<text text-anchor="middle" x="70.25" y="-6.73" font-family="Helvetica,sans-Serif" font-size="10.00">array&lt; int, 5 &gt;</text>
</a>
</g>
</g>
<!-- Node7&#45;&gt;Node1 -->
<g id="edge6" class="edge">
<title>Node7&#45;&gt;Node1</title>
<path fill="none" stroke="#9a32cd" stroke-dasharray="5,2" d="M120.53,-1.69C156.87,2.09 205.79,1.03 240.25,-23.35 302.29,-67.25 318.17,-168.61 321.71,-200.68"/>
<polygon fill="#9a32cd" stroke="#9a32cd" points="120.21,1.8 110.71,-2.88 121.06,-5.15 120.21,1.8"/>
<text text-anchor="middle" x="199.38" y="-25.35" font-family="Helvetica,sans-Serif" font-size="10.00"> activityData</text>
</g>
</g>
</svg>
