<?xml version="1.0" encoding="UTF-8" standalone="no"?>
<!DOCTYPE svg PUBLIC "-//W3C//DTD SVG 1.1//EN"
 "http://www.w3.org/Graphics/SVG/1.1/DTD/svg11.dtd">
<!-- Generated by graphviz version 9.0.0 (20230911.1827)
 -->
<!-- Title: NeumannForcesSurface::OpNeumannSurfaceForceMaterialRhs_dX Pages: 1 -->
<svg width="178pt" height="227pt"
 viewBox="0.00 0.00 177.75 226.75" xmlns="http://www.w3.org/2000/svg" xmlns:xlink="http://www.w3.org/1999/xlink">
<g id="graph0" class="graph" transform="scale(1 1) rotate(0) translate(4 222.75)">
<title>NeumannForcesSurface::OpNeumannSurfaceForceMaterialRhs_dX</title>
<!-- Node1 -->
<g id="node1" class="node">
<title>Node1</title>
<g id="a_node1"><a xlink:title="RHS&#45;operator for the surface force element (material configuration)">
<polygon fill="#999999" stroke="#666666" points="169.75,-41.75 0,-41.75 0,0 169.75,0 169.75,-41.75"/>
<text text-anchor="start" x="8" y="-28.25" font-family="Helvetica,sans-Serif" font-size="10.00">NeumannForcesSurface</text>
<text text-anchor="start" x="8" y="-17" font-family="Helvetica,sans-Serif" font-size="10.00">::OpNeumannSurfaceForceMaterial</text>
<text text-anchor="middle" x="84.88" y="-5.75" font-family="Helvetica,sans-Serif" font-size="10.00">Rhs_dX</text>
</a>
</g>
</g>
<!-- Node2 -->
<g id="node2" class="node">
<title>Node2</title>
<g id="a_node2"><a xlink:href="struct_mo_f_e_m_1_1_face_element_forces_and_sources_core_1_1_user_data_operator.html" target="_top" xlink:title="default operator for TRI element">
<polygon fill="white" stroke="#666666" points="132.62,-97 37.12,-97 37.12,-77.75 132.62,-77.75 132.62,-97"/>
<text text-anchor="middle" x="84.88" y="-83.5" font-family="Helvetica,sans-Serif" font-size="10.00">UserDataOperator</text>
</a>
</g>
</g>
<!-- Node2&#45;&gt;Node1 -->
<g id="edge1" class="edge">
<title>Node2&#45;&gt;Node1</title>
<path fill="none" stroke="#63b8ff" d="M84.88,-65.95C84.88,-58.36 84.88,-49.76 84.88,-42.18"/>
<polygon fill="#63b8ff" stroke="#63b8ff" points="81.38,-65.89 84.88,-75.89 88.38,-65.89 81.38,-65.89"/>
</g>
<!-- Node3 -->
<g id="node3" class="node">
<title>Node3</title>
<g id="a_node3"><a xlink:href="struct_mo_f_e_m_1_1_forces_and_sources_core_1_1_user_data_operator.html" target="_top" xlink:title=" ">
<polygon fill="white" stroke="#666666" points="165.25,-163.5 4.5,-163.5 4.5,-133 165.25,-133 165.25,-163.5"/>
<text text-anchor="start" x="12.5" y="-150" font-family="Helvetica,sans-Serif" font-size="10.00">MoFEM::ForcesAndSourcesCore</text>
<text text-anchor="middle" x="84.88" y="-138.75" font-family="Helvetica,sans-Serif" font-size="10.00">::UserDataOperator</text>
</a>
</g>
</g>
<!-- Node3&#45;&gt;Node2 -->
<g id="edge2" class="edge">
<title>Node3&#45;&gt;Node2</title>
<path fill="none" stroke="#63b8ff" d="M84.88,-121.23C84.88,-112.73 84.88,-103.84 84.88,-97.45"/>
<polygon fill="#63b8ff" stroke="#63b8ff" points="81.38,-121.18 84.88,-131.18 88.38,-121.18 81.38,-121.18"/>
</g>
<!-- Node4 -->
<g id="node4" class="node">
<title>Node4</title>
<g id="a_node4"><a xlink:href="struct_mo_f_e_m_1_1_data_operator.html" target="_top" xlink:title="base operator to do operations at Gauss Pt. level">
<polygon fill="white" stroke="#666666" points="142.38,-218.75 27.38,-218.75 27.38,-199.5 142.38,-199.5 142.38,-218.75"/>
<text text-anchor="middle" x="84.88" y="-205.25" font-family="Helvetica,sans-Serif" font-size="10.00">MoFEM::DataOperator</text>
</a>
</g>
</g>
<!-- Node4&#45;&gt;Node3 -->
<g id="edge3" class="edge">
<title>Node4&#45;&gt;Node3</title>
<path fill="none" stroke="#63b8ff" d="M84.88,-187.92C84.88,-179.99 84.88,-171.06 84.88,-163.78"/>
<polygon fill="#63b8ff" stroke="#63b8ff" points="81.38,-187.67 84.88,-197.67 88.38,-187.67 81.38,-187.67"/>
</g>
</g>
</svg>
