<?xml version="1.0" encoding="UTF-8" standalone="no"?>
<!DOCTYPE svg PUBLIC "-//W3C//DTD SVG 1.1//EN"
 "http://www.w3.org/Graphics/SVG/1.1/DTD/svg11.dtd">
<!-- Generated by graphviz version 2.43.0 (0)
 -->
<!-- Title: MoFEM::interface_FieldEntity&lt; T &gt; Pages: 1 -->
<svg width="2196pt" height="127pt"
 viewBox="0.00 0.00 2196.00 127.00" xmlns="http://www.w3.org/2000/svg" xmlns:xlink="http://www.w3.org/1999/xlink">
<g id="graph0" class="graph" transform="scale(1 1) rotate(0) translate(4 123)">
<title>MoFEM::interface_FieldEntity&lt; T &gt;</title>
<polygon fill="white" stroke="transparent" points="-4,4 -4,-123 2192,-123 2192,4 -4,4"/>
<!-- Node1 -->
<g id="node1" class="node">
<title>Node1</title>
<g id="a_node1"><a xlink:title="Interface to FieldEntity.">
<polygon fill="#bfbfbf" stroke="black" points="1059,-50 1059,-69 1247,-69 1247,-50 1059,-50"/>
<text text-anchor="middle" x="1153" y="-57" font-family="Helvetica,sans-Serif" font-size="10.00">MoFEM::interface_FieldEntity&lt; T &gt;</text>
</a>
</g>
</g>
<!-- Node7 -->
<g id="node7" class="node">
<title>Node7</title>
<g id="a_node7"><a xlink:href="structMoFEM_1_1interface__DofEntity.html" target="_top" xlink:title="Interface to DofEntity.">
<polygon fill="white" stroke="black" points="1361,-50 1361,-69 1543,-69 1543,-50 1361,-50"/>
<text text-anchor="middle" x="1452" y="-57" font-family="Helvetica,sans-Serif" font-size="10.00">MoFEM::interface_DofEntity&lt; T &gt;</text>
</a>
</g>
</g>
<!-- Node1&#45;&gt;Node7 -->
<g id="edge7" class="edge">
<title>Node1&#45;&gt;Node7</title>
<path fill="none" stroke="midnightblue" d="M1257.5,-59.5C1291.21,-59.5 1328.33,-59.5 1360.97,-59.5"/>
<polygon fill="midnightblue" stroke="midnightblue" points="1257.16,-56 1247.16,-59.5 1257.16,-63 1257.16,-56"/>
</g>
<!-- Node11 -->
<g id="node11" class="node">
<title>Node11</title>
<g id="a_node11"><a xlink:href="structMoFEM_1_1interface__FieldEntity.html" target="_top" xlink:title=" ">
<polygon fill="white" stroke="black" points="1372.5,-0.5 1372.5,-30.5 1531.5,-30.5 1531.5,-0.5 1372.5,-0.5"/>
<text text-anchor="start" x="1380.5" y="-18.5" font-family="Helvetica,sans-Serif" font-size="10.00">MoFEM::interface_FieldEntity</text>
<text text-anchor="middle" x="1452" y="-7.5" font-family="Helvetica,sans-Serif" font-size="10.00">&lt; FieldEntity &gt;</text>
</a>
</g>
</g>
<!-- Node1&#45;&gt;Node11 -->
<g id="edge11" class="edge">
<title>Node1&#45;&gt;Node11</title>
<path fill="none" stroke="orange" stroke-dasharray="5,2" d="M1228.48,-48.47C1272.36,-41.96 1327.84,-33.75 1372.42,-27.14"/>
<polygon fill="orange" stroke="orange" points="1227.82,-45.02 1218.44,-49.95 1228.85,-51.95 1227.82,-45.02"/>
<text text-anchor="middle" x="1304" y="-46.5" font-family="Helvetica,sans-Serif" font-size="10.00"> &lt; FieldEntity &gt;</text>
</g>
<!-- Node14 -->
<g id="node14" class="node">
<title>Node14</title>
<g id="a_node14"><a xlink:href="structMoFEM_1_1interface__FieldEntity.html" target="_top" xlink:title=" ">
<polygon fill="white" stroke="black" points="1372.5,-88.5 1372.5,-118.5 1531.5,-118.5 1531.5,-88.5 1372.5,-88.5"/>
<text text-anchor="start" x="1380.5" y="-106.5" font-family="Helvetica,sans-Serif" font-size="10.00">MoFEM::interface_FieldEntity</text>
<text text-anchor="middle" x="1452" y="-95.5" font-family="Helvetica,sans-Serif" font-size="10.00">&lt; DofEntity &gt;</text>
</a>
</g>
</g>
<!-- Node1&#45;&gt;Node14 -->
<g id="edge14" class="edge">
<title>Node1&#45;&gt;Node14</title>
<path fill="none" stroke="orange" stroke-dasharray="5,2" d="M1228.48,-70.53C1272.36,-77.04 1327.84,-85.25 1372.42,-91.86"/>
<polygon fill="orange" stroke="orange" points="1228.85,-67.05 1218.44,-69.05 1227.82,-73.98 1228.85,-67.05"/>
<text text-anchor="middle" x="1304" y="-89.5" font-family="Helvetica,sans-Serif" font-size="10.00"> &lt; DofEntity &gt;</text>
</g>
<!-- Node2 -->
<g id="node2" class="node">
<title>Node2</title>
<g id="a_node2"><a xlink:href="structMoFEM_1_1interface__Field_3_01T_00_01T_01_4.html" target="_top" xlink:title=" ">
<polygon fill="white" stroke="black" points="891,-44.5 891,-74.5 1022,-74.5 1022,-44.5 891,-44.5"/>
<text text-anchor="start" x="899" y="-62.5" font-family="Helvetica,sans-Serif" font-size="10.00">MoFEM::interface_Field</text>
<text text-anchor="middle" x="956.5" y="-51.5" font-family="Helvetica,sans-Serif" font-size="10.00">&lt; T, T &gt;</text>
</a>
</g>
</g>
<!-- Node2&#45;&gt;Node1 -->
<g id="edge1" class="edge">
<title>Node2&#45;&gt;Node1</title>
<path fill="none" stroke="midnightblue" d="M1032.3,-59.5C1040.96,-59.5 1049.87,-59.5 1058.74,-59.5"/>
<polygon fill="midnightblue" stroke="midnightblue" points="1032.27,-56 1022.27,-59.5 1032.27,-63 1032.27,-56"/>
</g>
<!-- Node3 -->
<g id="node3" class="node">
<title>Node3</title>
<g id="a_node3"><a xlink:href="structMoFEM_1_1interface__FieldImpl.html" target="_top" xlink:title=" ">
<polygon fill="white" stroke="black" points="702,-44.5 702,-74.5 854,-74.5 854,-44.5 702,-44.5"/>
<text text-anchor="start" x="710" y="-62.5" font-family="Helvetica,sans-Serif" font-size="10.00">MoFEM::interface_FieldImpl</text>
<text text-anchor="middle" x="778" y="-51.5" font-family="Helvetica,sans-Serif" font-size="10.00">&lt; T, T &gt;</text>
</a>
</g>
</g>
<!-- Node3&#45;&gt;Node2 -->
<g id="edge2" class="edge">
<title>Node3&#45;&gt;Node2</title>
<path fill="none" stroke="midnightblue" d="M864.17,-59.5C873.12,-59.5 882.11,-59.5 890.77,-59.5"/>
<polygon fill="midnightblue" stroke="midnightblue" points="864.11,-56 854.11,-59.5 864.11,-63 864.11,-56"/>
</g>
<!-- Node4 -->
<g id="node4" class="node">
<title>Node4</title>
<g id="a_node4"><a xlink:href="structMoFEM_1_1interface__RefEntity.html" target="_top" xlink:title="interface to RefEntity">
<polygon fill="white" stroke="black" points="0,-46 0,-65 181,-65 181,-46 0,-46"/>
<text text-anchor="middle" x="90.5" y="-53" font-family="Helvetica,sans-Serif" font-size="10.00">MoFEM::interface_RefEntity&lt; T &gt;</text>
</a>
</g>
</g>
<!-- Node4&#45;&gt;Node3 -->
<g id="edge3" class="edge">
<title>Node4&#45;&gt;Node3</title>
<path fill="none" stroke="midnightblue" d="M191.31,-61.25C193.9,-61.34 196.47,-61.42 199,-61.5 394.91,-67.41 444,-63.06 640,-63.5 659.56,-63.54 664.45,-63.92 684,-63.5 689.82,-63.37 695.84,-63.21 701.89,-63.01"/>
<polygon fill="midnightblue" stroke="midnightblue" points="191.36,-57.75 181.23,-60.85 191.09,-64.74 191.36,-57.75"/>
</g>
<!-- Node6 -->
<g id="node6" class="node">
<title>Node6</title>
<g id="a_node6"><a xlink:href="structMoFEM_1_1interface__RefEntity.html" target="_top" xlink:title=" ">
<polygon fill="white" stroke="black" points="281,-18.5 281,-48.5 433,-48.5 433,-18.5 281,-18.5"/>
<text text-anchor="start" x="289" y="-36.5" font-family="Helvetica,sans-Serif" font-size="10.00">MoFEM::interface_RefEntity</text>
<text text-anchor="middle" x="357" y="-25.5" font-family="Helvetica,sans-Serif" font-size="10.00">&lt; REFENT &gt;</text>
</a>
</g>
</g>
<!-- Node4&#45;&gt;Node6 -->
<g id="edge6" class="edge">
<title>Node4&#45;&gt;Node6</title>
<path fill="none" stroke="orange" stroke-dasharray="5,2" d="M191.02,-47.22C220.72,-44.75 252.77,-42.09 280.65,-39.77"/>
<polygon fill="orange" stroke="orange" points="190.72,-43.73 181.05,-48.05 191.3,-50.71 190.72,-43.73"/>
<text text-anchor="middle" x="231" y="-49.5" font-family="Helvetica,sans-Serif" font-size="10.00"> &lt; REFENT &gt;</text>
</g>
<!-- Node5 -->
<g id="node5" class="node">
<title>Node5</title>
<g id="a_node5"><a xlink:href="structMoFEM_1_1interface__FieldImpl.html" target="_top" xlink:title="Pointer interface for MoFEM::Field.">
<polygon fill="white" stroke="black" points="470,-18.5 470,-48.5 622,-48.5 622,-18.5 470,-18.5"/>
<text text-anchor="start" x="478" y="-36.5" font-family="Helvetica,sans-Serif" font-size="10.00">MoFEM::interface_FieldImpl</text>
<text text-anchor="middle" x="546" y="-25.5" font-family="Helvetica,sans-Serif" font-size="10.00">&lt; FIELD, REFENT &gt;</text>
</a>
</g>
</g>
<!-- Node5&#45;&gt;Node3 -->
<g id="edge4" class="edge">
<title>Node5&#45;&gt;Node3</title>
<path fill="none" stroke="orange" stroke-dasharray="5,2" d="M632.33,-43.15C655.16,-45.73 679.67,-48.5 701.91,-51.01"/>
<polygon fill="orange" stroke="orange" points="632.64,-39.66 622.31,-42.01 631.85,-46.61 632.64,-39.66"/>
<text text-anchor="middle" x="662" y="-52.5" font-family="Helvetica,sans-Serif" font-size="10.00"> &lt; T, T &gt;</text>
</g>
<!-- Node6&#45;&gt;Node5 -->
<g id="edge5" class="edge">
<title>Node6&#45;&gt;Node5</title>
<path fill="none" stroke="midnightblue" d="M443.52,-33.5C452.33,-33.5 461.22,-33.5 469.9,-33.5"/>
<polygon fill="midnightblue" stroke="midnightblue" points="443.25,-30 433.25,-33.5 443.25,-37 443.25,-30"/>
</g>
<!-- Node8 -->
<g id="node8" class="node">
<title>Node8</title>
<g id="a_node8"><a xlink:href="structMoFEM_1_1interface__DofEntity.html" target="_top" xlink:title=" ">
<polygon fill="white" stroke="black" points="1651,-57.5 1651,-87.5 1804,-87.5 1804,-57.5 1651,-57.5"/>
<text text-anchor="start" x="1659" y="-75.5" font-family="Helvetica,sans-Serif" font-size="10.00">MoFEM::interface_DofEntity</text>
<text text-anchor="middle" x="1727.5" y="-64.5" font-family="Helvetica,sans-Serif" font-size="10.00">&lt; DofEntity &gt;</text>
</a>
</g>
</g>
<!-- Node7&#45;&gt;Node8 -->
<g id="edge8" class="edge">
<title>Node7&#45;&gt;Node8</title>
<path fill="none" stroke="orange" stroke-dasharray="5,2" d="M1553.64,-64.28C1585.81,-65.81 1620.84,-67.48 1650.9,-68.91"/>
<polygon fill="orange" stroke="orange" points="1553.47,-60.77 1543.31,-63.79 1553.13,-67.76 1553.47,-60.77"/>
<text text-anchor="middle" x="1597" y="-70.5" font-family="Helvetica,sans-Serif" font-size="10.00"> &lt; DofEntity &gt;</text>
</g>
<!-- Node9 -->
<g id="node9" class="node">
<title>Node9</title>
<g id="a_node9"><a xlink:href="structMoFEM_1_1NumeredDofEntity.html" target="_top" xlink:title="keeps information about indexed dofs for the problem">
<polygon fill="white" stroke="black" points="1841,-63 1841,-82 1990,-82 1990,-63 1841,-63"/>
<text text-anchor="middle" x="1915.5" y="-70" font-family="Helvetica,sans-Serif" font-size="10.00">MoFEM::NumeredDofEntity</text>
</a>
</g>
</g>
<!-- Node8&#45;&gt;Node9 -->
<g id="edge9" class="edge">
<title>Node8&#45;&gt;Node9</title>
<path fill="none" stroke="midnightblue" d="M1814.41,-72.5C1823.2,-72.5 1832.08,-72.5 1840.72,-72.5"/>
<polygon fill="midnightblue" stroke="midnightblue" points="1814.15,-69 1804.15,-72.5 1814.15,-76 1814.15,-69"/>
</g>
<!-- Node10 -->
<g id="node10" class="node">
<title>Node10</title>
<g id="a_node10"><a xlink:href="structMoFEM_1_1FENumeredDofEntity.html" target="_top" xlink:title="keeps information about indexed dofs for the finite element">
<polygon fill="white" stroke="black" points="2027,-63 2027,-82 2188,-82 2188,-63 2027,-63"/>
<text text-anchor="middle" x="2107.5" y="-70" font-family="Helvetica,sans-Serif" font-size="10.00">MoFEM::FENumeredDofEntity</text>
</a>
</g>
</g>
<!-- Node9&#45;&gt;Node10 -->
<g id="edge10" class="edge">
<title>Node9&#45;&gt;Node10</title>
<path fill="none" stroke="midnightblue" d="M2000.45,-72.5C2009.22,-72.5 2018.11,-72.5 2026.83,-72.5"/>
<polygon fill="midnightblue" stroke="midnightblue" points="2000.23,-69 1990.23,-72.5 2000.23,-76 2000.23,-69"/>
</g>
<!-- Node12 -->
<g id="node12" class="node">
<title>Node12</title>
<g id="a_node12"><a xlink:href="structMoFEM_1_1DofEntity.html" target="_top" xlink:title="keeps information about DOF on the entity">
<polygon fill="white" stroke="black" points="1675.5,-6 1675.5,-25 1779.5,-25 1779.5,-6 1675.5,-6"/>
<text text-anchor="middle" x="1727.5" y="-13" font-family="Helvetica,sans-Serif" font-size="10.00">MoFEM::DofEntity</text>
</a>
</g>
</g>
<!-- Node11&#45;&gt;Node12 -->
<g id="edge12" class="edge">
<title>Node11&#45;&gt;Node12</title>
<path fill="none" stroke="midnightblue" d="M1541.92,-15.5C1586.14,-15.5 1638,-15.5 1675.46,-15.5"/>
<polygon fill="midnightblue" stroke="midnightblue" points="1541.74,-12 1531.74,-15.5 1541.74,-19 1541.74,-12"/>
</g>
<!-- Node13 -->
<g id="node13" class="node">
<title>Node13</title>
<g id="a_node13"><a xlink:href="structMoFEM_1_1FEDofEntity.html" target="_top" xlink:title="keeps information about indexed dofs for the finite element">
<polygon fill="white" stroke="black" points="1857.5,-6 1857.5,-25 1973.5,-25 1973.5,-6 1857.5,-6"/>
<text text-anchor="middle" x="1915.5" y="-13" font-family="Helvetica,sans-Serif" font-size="10.00">MoFEM::FEDofEntity</text>
</a>
</g>
</g>
<!-- Node12&#45;&gt;Node13 -->
<g id="edge13" class="edge">
<title>Node12&#45;&gt;Node13</title>
<path fill="none" stroke="midnightblue" d="M1789.94,-15.5C1811.7,-15.5 1836.08,-15.5 1857.46,-15.5"/>
<polygon fill="midnightblue" stroke="midnightblue" points="1789.82,-12 1779.82,-15.5 1789.82,-19 1789.82,-12"/>
</g>
<!-- Node14&#45;&gt;Node8 -->
<g id="edge15" class="edge">
<title>Node14&#45;&gt;Node8</title>
<path fill="none" stroke="midnightblue" d="M1541.98,-93.41C1577.08,-89.44 1616.97,-84.91 1650.67,-81.1"/>
<polygon fill="midnightblue" stroke="midnightblue" points="1541.28,-89.97 1531.74,-94.58 1542.07,-96.93 1541.28,-89.97"/>
</g>
</g>
</svg>
