<?xml version="1.0" encoding="UTF-8" standalone="no"?>
<!DOCTYPE svg PUBLIC "-//W3C//DTD SVG 1.1//EN"
 "http://www.w3.org/Graphics/SVG/1.1/DTD/svg11.dtd">
<!-- Generated by graphviz version 2.43.0 (0)
 -->
<!-- Title: AtomTest::OpError&lt; 1 &gt; Pages: 1 -->
<svg width="234pt" height="106pt"
 viewBox="0.00 0.00 234.00 106.00" xmlns="http://www.w3.org/2000/svg" xmlns:xlink="http://www.w3.org/1999/xlink">
<g id="graph0" class="graph" transform="scale(1 1) rotate(0) translate(4 102)">
<title>AtomTest::OpError&lt; 1 &gt;</title>
<polygon fill="white" stroke="transparent" points="-4,4 -4,-102 230,-102 230,4 -4,4"/>
<!-- Node1 -->
<g id="node1" class="node">
<title>Node1</title>
<g id="a_node1"><a xlink:title=" ">
<polygon fill="#bfbfbf" stroke="black" points="35.5,-0.5 35.5,-19.5 169.5,-19.5 169.5,-0.5 35.5,-0.5"/>
<text text-anchor="middle" x="102.5" y="-7.5" font-family="Helvetica,sans-Serif" font-size="10.00">AtomTest::OpError&lt; 1 &gt;</text>
</a>
</g>
</g>
<!-- Node2 -->
<g id="node2" class="node">
<title>Node2</title>
<g id="a_node2"><a xlink:href="classDomainEleOp.html" target="_top" xlink:title=" ">
<polygon fill="white" stroke="black" points="0,-73 0,-92 83,-92 83,-73 0,-73"/>
<text text-anchor="middle" x="41.5" y="-80" font-family="Helvetica,sans-Serif" font-size="10.00">DomainEleOp</text>
</a>
</g>
</g>
<!-- Node2&#45;&gt;Node1 -->
<g id="edge1" class="edge">
<title>Node2&#45;&gt;Node1</title>
<path fill="none" stroke="midnightblue" d="M55.87,-64.9C68.11,-50.74 85.23,-30.96 94.96,-19.72"/>
<polygon fill="midnightblue" stroke="midnightblue" points="52.88,-63 48.98,-72.86 58.17,-67.58 52.88,-63"/>
</g>
<!-- Node3 -->
<g id="node3" class="node">
<title>Node3</title>
<g id="a_node3"><a xlink:title=" ">
<polygon fill="white" stroke="#bfbfbf" points="101,-67.5 101,-97.5 226,-97.5 226,-67.5 101,-67.5"/>
<text text-anchor="start" x="109" y="-85.5" font-family="Helvetica,sans-Serif" font-size="10.00">shared_ptr&lt; AtomTest</text>
<text text-anchor="middle" x="163.5" y="-74.5" font-family="Helvetica,sans-Serif" font-size="10.00">::CommonData &gt;</text>
</a>
</g>
</g>
<!-- Node3&#45;&gt;Node1 -->
<g id="edge2" class="edge">
<title>Node3&#45;&gt;Node1</title>
<path fill="none" stroke="#9a32cd" stroke-dasharray="5,2" d="M144.36,-59.38C132.81,-46.04 118.73,-29.76 110.19,-19.89"/>
<polygon fill="#9a32cd" stroke="#9a32cd" points="141.97,-61.96 151.16,-67.23 147.26,-57.38 141.97,-61.96"/>
<text text-anchor="middle" x="176" y="-41" font-family="Helvetica,sans-Serif" font-size="10.00"> commonDataPtr</text>
</g>
</g>
</svg>
