<?xml version="1.0" encoding="UTF-8" standalone="no"?>
<!DOCTYPE svg PUBLIC "-//W3C//DTD SVG 1.1//EN"
 "http://www.w3.org/Graphics/SVG/1.1/DTD/svg11.dtd">
<!-- Generated by graphviz version 2.43.0 (0)
 -->
<!-- Title: EshelbianPlasticity::OpAssembleFace Pages: 1 -->
<svg width="941pt" height="399pt"
 viewBox="0.00 0.00 941.00 399.00" xmlns="http://www.w3.org/2000/svg" xmlns:xlink="http://www.w3.org/1999/xlink">
<g id="graph0" class="graph" transform="scale(1 1) rotate(0) translate(4 395)">
<title>EshelbianPlasticity::OpAssembleFace</title>
<polygon fill="white" stroke="transparent" points="-4,4 -4,-395 937,-395 937,4 -4,4"/>
<!-- Node1 -->
<g id="node1" class="node">
<title>Node1</title>
<g id="a_node1"><a xlink:title=" ">
<polygon fill="#bfbfbf" stroke="black" points="824,-231 824,-261 933,-261 933,-231 824,-231"/>
<text text-anchor="start" x="832" y="-249" font-family="Helvetica,sans-Serif" font-size="10.00">EshelbianPlasticity</text>
<text text-anchor="middle" x="878.5" y="-238" font-family="Helvetica,sans-Serif" font-size="10.00">::OpAssembleFace</text>
</a>
</g>
</g>
<!-- Node2 -->
<g id="node2" class="node">
<title>Node2</title>
<g id="a_node2"><a xlink:href="structEshelbianPlasticity_1_1OpAssembleBasic.html" target="_top" xlink:title=" ">
<polygon fill="white" stroke="black" points="621,-225.5 621,-266.5 787,-266.5 787,-225.5 621,-225.5"/>
<text text-anchor="start" x="629" y="-254.5" font-family="Helvetica,sans-Serif" font-size="10.00">EshelbianPlasticity</text>
<text text-anchor="start" x="629" y="-243.5" font-family="Helvetica,sans-Serif" font-size="10.00">::OpAssembleBasic&lt; FaceUser</text>
<text text-anchor="middle" x="704" y="-232.5" font-family="Helvetica,sans-Serif" font-size="10.00">DataOperator &gt;</text>
</a>
</g>
</g>
<!-- Node2&#45;&gt;Node1 -->
<g id="edge1" class="edge">
<title>Node2&#45;&gt;Node1</title>
<path fill="none" stroke="midnightblue" d="M797.46,-246C806.53,-246 815.5,-246 823.98,-246"/>
<polygon fill="midnightblue" stroke="midnightblue" points="797.21,-242.5 787.21,-246 797.21,-249.5 797.21,-242.5"/>
</g>
<!-- Node3 -->
<g id="node3" class="node">
<title>Node3</title>
<g id="a_node3"><a xlink:title=" ">
<polygon fill="white" stroke="#bfbfbf" points="316,-371.5 316,-390.5 443,-390.5 443,-371.5 316,-371.5"/>
<text text-anchor="middle" x="379.5" y="-378.5" font-family="Helvetica,sans-Serif" font-size="10.00">FaceUserDataOperator</text>
</a>
</g>
</g>
<!-- Node3&#45;&gt;Node2 -->
<g id="edge2" class="edge">
<title>Node3&#45;&gt;Node2</title>
<path fill="none" stroke="midnightblue" d="M453.31,-383.2C498.62,-381.74 556.84,-374.56 603,-351 641.34,-331.43 673.08,-291.16 689.93,-266.57"/>
<polygon fill="midnightblue" stroke="midnightblue" points="453.18,-379.7 443.26,-383.44 453.34,-386.7 453.18,-379.7"/>
</g>
<!-- Node4 -->
<g id="node4" class="node">
<title>Node4</title>
<g id="a_node4"><a xlink:href="classconst_01bool.html" target="_top" xlink:title=" ">
<polygon fill="white" stroke="black" points="346,-333.5 346,-352.5 413,-352.5 413,-333.5 346,-333.5"/>
<text text-anchor="middle" x="379.5" y="-340.5" font-family="Helvetica,sans-Serif" font-size="10.00">const bool</text>
</a>
</g>
</g>
<!-- Node4&#45;&gt;Node2 -->
<g id="edge3" class="edge">
<title>Node4&#45;&gt;Node2</title>
<path fill="none" stroke="#9a32cd" stroke-dasharray="5,2" d="M423.33,-340.97C469.07,-337.69 543.07,-329.15 603,-307 629.32,-297.27 656.33,-280.3 675.63,-266.73"/>
<polygon fill="#9a32cd" stroke="#9a32cd" points="422.93,-337.49 413.18,-341.65 423.39,-344.48 422.93,-337.49"/>
<text text-anchor="middle" x="535" y="-339" font-family="Helvetica,sans-Serif" font-size="10.00"> assembleSymmetry</text>
</g>
<!-- Node5 -->
<g id="node5" class="node">
<title>Node5</title>
<g id="a_node5"><a xlink:title=" ">
<polygon fill="white" stroke="#bfbfbf" points="44.5,-249.5 44.5,-268.5 127.5,-268.5 127.5,-249.5 44.5,-249.5"/>
<text text-anchor="middle" x="86" y="-256.5" font-family="Helvetica,sans-Serif" font-size="10.00">MatrixDouble</text>
</a>
</g>
</g>
<!-- Node5&#45;&gt;Node2 -->
<g id="edge4" class="edge">
<title>Node5&#45;&gt;Node2</title>
<path fill="none" stroke="#9a32cd" stroke-dasharray="5,2" d="M137.59,-266.08C154.25,-268.09 172.88,-270.01 190,-271 300.9,-277.44 564.42,-263.37 603,-260 608.85,-259.49 614.88,-258.87 620.95,-258.18"/>
<polygon fill="#9a32cd" stroke="#9a32cd" points="137.87,-262.58 127.51,-264.82 137,-269.53 137.87,-262.58"/>
<text text-anchor="middle" x="379.5" y="-286" font-family="Helvetica,sans-Serif" font-size="10.00"> K</text>
<text text-anchor="middle" x="379.5" y="-275" font-family="Helvetica,sans-Serif" font-size="10.00">transposeK</text>
</g>
<!-- Node9 -->
<g id="node9" class="node">
<title>Node9</title>
<g id="a_node9"><a xlink:href="structEshelbianPlasticity_1_1OpAssembleBasic.html" target="_top" xlink:title=" ">
<polygon fill="white" stroke="black" points="310,-86 310,-116 449,-116 449,-86 310,-86"/>
<text text-anchor="start" x="318" y="-104" font-family="Helvetica,sans-Serif" font-size="10.00">EshelbianPlasticity</text>
<text text-anchor="middle" x="379.5" y="-93" font-family="Helvetica,sans-Serif" font-size="10.00">::OpAssembleBasic&lt; T &gt;</text>
</a>
</g>
</g>
<!-- Node5&#45;&gt;Node9 -->
<g id="edge10" class="edge">
<title>Node5&#45;&gt;Node9</title>
<path fill="none" stroke="#9a32cd" stroke-dasharray="5,2" d="M137.93,-254.52C184.16,-247.8 251.18,-230.99 292,-189 310.81,-169.65 292.01,-151.12 310,-131 315.45,-124.9 322.37,-119.99 329.7,-116.05"/>
<polygon fill="#9a32cd" stroke="#9a32cd" points="137.26,-251.08 127.82,-255.88 138.19,-258.02 137.26,-251.08"/>
<text text-anchor="middle" x="241" y="-257" font-family="Helvetica,sans-Serif" font-size="10.00"> K</text>
<text text-anchor="middle" x="241" y="-246" font-family="Helvetica,sans-Serif" font-size="10.00">transposeK</text>
</g>
<!-- Node6 -->
<g id="node6" class="node">
<title>Node6</title>
<g id="a_node6"><a xlink:title=" ">
<polygon fill="white" stroke="#bfbfbf" points="0,-131 0,-161 172,-161 172,-131 0,-131"/>
<text text-anchor="start" x="8" y="-149" font-family="Helvetica,sans-Serif" font-size="10.00">shared_ptr&lt; EshelbianPlasticity</text>
<text text-anchor="middle" x="86" y="-138" font-family="Helvetica,sans-Serif" font-size="10.00">::DataAtIntegrationPts &gt;</text>
</a>
</g>
</g>
<!-- Node6&#45;&gt;Node2 -->
<g id="edge5" class="edge">
<title>Node6&#45;&gt;Node2</title>
<path fill="none" stroke="#9a32cd" stroke-dasharray="5,2" d="M182.57,-154.03C217.13,-157.4 256.4,-161.77 292,-167 406.66,-183.86 537.99,-210.38 620.7,-227.97"/>
<polygon fill="#9a32cd" stroke="#9a32cd" points="182.77,-150.54 172.49,-153.07 182.11,-157.51 182.77,-150.54"/>
<text text-anchor="middle" x="379.5" y="-195" font-family="Helvetica,sans-Serif" font-size="10.00"> dataAtPts</text>
</g>
<!-- Node6&#45;&gt;Node9 -->
<g id="edge11" class="edge">
<title>Node6&#45;&gt;Node9</title>
<path fill="none" stroke="#9a32cd" stroke-dasharray="5,2" d="M181.86,-129.31C184.6,-128.86 187.32,-128.43 190,-128 229.67,-121.69 274.14,-115.29 309.93,-110.31"/>
<polygon fill="#9a32cd" stroke="#9a32cd" points="181.14,-125.88 171.84,-130.96 182.27,-132.79 181.14,-125.88"/>
<text text-anchor="middle" x="241" y="-131" font-family="Helvetica,sans-Serif" font-size="10.00"> dataAtPts</text>
</g>
<!-- Node7 -->
<g id="node7" class="node">
<title>Node7</title>
<g id="a_node7"><a xlink:title=" ">
<polygon fill="white" stroke="#bfbfbf" points="28,-182.5 28,-201.5 144,-201.5 144,-182.5 28,-182.5"/>
<text text-anchor="middle" x="86" y="-189.5" font-family="Helvetica,sans-Serif" font-size="10.00">function&lt; double()&gt;</text>
</a>
</g>
</g>
<!-- Node7&#45;&gt;Node2 -->
<g id="edge6" class="edge">
<title>Node7&#45;&gt;Node2</title>
<path fill="none" stroke="#9a32cd" stroke-dasharray="5,2" d="M109.67,-207.01C129.81,-219.39 160.54,-236.01 190,-243 230.6,-252.63 486.59,-249.77 620.92,-247.54"/>
<polygon fill="#9a32cd" stroke="#9a32cd" points="111.53,-204.04 101.2,-201.67 107.8,-209.96 111.53,-204.04"/>
<text text-anchor="middle" x="379.5" y="-252" font-family="Helvetica,sans-Serif" font-size="10.00"> scaleOff</text>
</g>
<!-- Node7&#45;&gt;Node9 -->
<g id="edge13" class="edge">
<title>Node7&#45;&gt;Node9</title>
<path fill="none" stroke="#9a32cd" stroke-dasharray="5,2" d="M154.3,-182.1C195.26,-174.58 248,-162.19 292,-143 300.81,-139.16 301.56,-135.61 310,-131 319.8,-125.64 330.74,-120.5 340.96,-116.03"/>
<polygon fill="#9a32cd" stroke="#9a32cd" points="153.65,-178.66 144.42,-183.86 154.88,-185.55 153.65,-178.66"/>
<text text-anchor="middle" x="241" y="-177" font-family="Helvetica,sans-Serif" font-size="10.00"> scaleOff</text>
</g>
<!-- Node8 -->
<g id="node8" class="node">
<title>Node8</title>
<g id="a_node8"><a xlink:title=" ">
<polygon fill="white" stroke="#bfbfbf" points="45,-0.5 45,-19.5 127,-19.5 127,-0.5 45,-0.5"/>
<text text-anchor="middle" x="86" y="-7.5" font-family="Helvetica,sans-Serif" font-size="10.00">VectorDouble</text>
</a>
</g>
</g>
<!-- Node8&#45;&gt;Node2 -->
<g id="edge7" class="edge">
<title>Node8&#45;&gt;Node2</title>
<path fill="none" stroke="#9a32cd" stroke-dasharray="5,2" d="M137.04,-4.75C235.55,2.94 457.65,6.88 603,-93 651.65,-126.43 682.39,-192.05 695.57,-225.44"/>
<polygon fill="#9a32cd" stroke="#9a32cd" points="136.74,-1.26 127.06,-5.58 137.31,-8.24 136.74,-1.26"/>
<text text-anchor="middle" x="379.5" y="-29" font-family="Helvetica,sans-Serif" font-size="10.00"> nF</text>
</g>
<!-- Node8&#45;&gt;Node9 -->
<g id="edge14" class="edge">
<title>Node8&#45;&gt;Node9</title>
<path fill="none" stroke="#9a32cd" stroke-dasharray="5,2" d="M137.09,-18.37C179.18,-26.2 240.53,-39.46 292,-58 312.99,-65.56 335.51,-76.87 352.32,-85.99"/>
<polygon fill="#9a32cd" stroke="#9a32cd" points="137.55,-14.9 127.09,-16.55 136.3,-21.78 137.55,-14.9"/>
<text text-anchor="middle" x="241" y="-61" font-family="Helvetica,sans-Serif" font-size="10.00"> nF</text>
</g>
<!-- Node9&#45;&gt;Node2 -->
<g id="edge8" class="edge">
<title>Node9&#45;&gt;Node2</title>
<path fill="none" stroke="orange" stroke-dasharray="5,2" d="M459.32,-96.79C503.91,-97.67 559.3,-104.45 603,-128 644.61,-150.42 676.27,-197.79 692,-225.2"/>
<polygon fill="orange" stroke="orange" points="459.15,-93.29 449.11,-96.68 459.08,-100.29 459.15,-93.29"/>
<text text-anchor="middle" x="535" y="-131" font-family="Helvetica,sans-Serif" font-size="10.00"> &lt; FaceUserDataOperator &gt;</text>
</g>
<!-- Node10 -->
<g id="node10" class="node">
<title>Node10</title>
<g id="a_node10"><a xlink:href="classT.html" target="_top" xlink:title=" ">
<polygon fill="white" stroke="black" points="71.5,-46.5 71.5,-65.5 100.5,-65.5 100.5,-46.5 71.5,-46.5"/>
<text text-anchor="middle" x="86" y="-53.5" font-family="Helvetica,sans-Serif" font-size="10.00">T</text>
</a>
</g>
</g>
<!-- Node10&#45;&gt;Node9 -->
<g id="edge9" class="edge">
<title>Node10&#45;&gt;Node9</title>
<path fill="none" stroke="midnightblue" d="M110.72,-59.66C153.68,-66.29 245.86,-80.52 309.99,-90.42"/>
<polygon fill="midnightblue" stroke="midnightblue" points="111.09,-56.18 100.67,-58.11 110.02,-63.09 111.09,-56.18"/>
</g>
<!-- Node11 -->
<g id="node11" class="node">
<title>Node11</title>
<g id="a_node11"><a xlink:href="classbool.html" target="_top" xlink:title=" ">
<polygon fill="white" stroke="black" points="67,-84.5 67,-103.5 105,-103.5 105,-84.5 67,-84.5"/>
<text text-anchor="middle" x="86" y="-91.5" font-family="Helvetica,sans-Serif" font-size="10.00">bool</text>
</a>
</g>
</g>
<!-- Node11&#45;&gt;Node9 -->
<g id="edge12" class="edge">
<title>Node11&#45;&gt;Node9</title>
<path fill="none" stroke="#9a32cd" stroke-dasharray="5,2" d="M115.32,-93.28C154.88,-92.43 228.94,-91.45 292,-94 297.72,-94.23 303.65,-94.55 309.6,-94.92"/>
<polygon fill="#9a32cd" stroke="#9a32cd" points="115.03,-89.78 105.11,-93.51 115.19,-96.78 115.03,-89.78"/>
<text text-anchor="middle" x="241" y="-97" font-family="Helvetica,sans-Serif" font-size="10.00"> assembleSymmetry</text>
</g>
</g>
</svg>
