<?xml version="1.0" encoding="UTF-8" standalone="no"?>
<!DOCTYPE svg PUBLIC "-//W3C//DTD SVG 1.1//EN"
 "http://www.w3.org/Graphics/SVG/1.1/DTD/svg11.dtd">
<!-- Generated by graphviz version 9.0.0 (20230911.1827)
 -->
<!-- Title: MoFEM::DerivedEntitiesFieldData Pages: 1 -->
<!--zoomable 308 -->
<svg id="main" version="1.1" xmlns="http://www.w3.org/2000/svg" xmlns:xlink="http://www.w3.org/1999/xlink" xml:space="preserve" onload="init(evt)">
<style type="text/css"><![CDATA[
.edge:hover path { stroke: red; }
.edge:hover polygon { stroke: red; fill: red; }
]]></style>
<script type="text/javascript"><![CDATA[
var edges = document.getElementsByTagName('g');
if (edges && edges.length) {
  for (var i=0;i<edges.length;i++) {
    if (edges[i].id.substr(0,4)=='edge') {
      edges[i].setAttribute('class','edge');
    }
  }
}
]]></script>
        <defs>
                <circle id="rim" cx="0" cy="0" r="7"/>
                <circle id="rim2" cx="0" cy="0" r="3.5"/>
                <g id="zoomPlus">
                        <use xlink:href="#rim" fill="#404040">
                                <set attributeName="fill" to="#808080" begin="zoomplus.mouseover" end="zoomplus.mouseout"/>
                        </use>
                        <path d="M-4,0h8M0,-4v8" fill="none" stroke="white" stroke-width="1.5" pointer-events="none"/>
                </g>
                <g id="zoomMin">
                        <use xlink:href="#rim" fill="#404040">
                                <set attributeName="fill" to="#808080" begin="zoomminus.mouseover" end="zoomminus.mouseout"/>
                        </use>
                        <path d="M-4,0h8" fill="none" stroke="white" stroke-width="1.5" pointer-events="none"/>
                </g>
                <g id="dirArrow">
                        <path fill="none" stroke="white" stroke-width="1.5" d="M0,-3.0v7 M-2.5,-0.5L0,-3.0L2.5,-0.5"/>
                </g>
               <g id="resetDef">
                       <use xlink:href="#rim2" fill="#404040">
                               <set attributeName="fill" to="#808080" begin="reset.mouseover" end="reset.mouseout"/>
                       </use>
               </g>
        </defs>

<script type="text/javascript">
var viewWidth = 661;
var viewHeight = 308;
var sectionId = 'dynsection-1';
</script>
<script xlink:href="svgpan.js"/>
<svg id="graph" class="graph">
<g id="viewport">
<title>MoFEM::DerivedEntitiesFieldData</title>
<!-- Node1 -->
<g id="node1" class="node">
<title>Node1</title>
<g id="a_node1"><a xlink:title="this class derive data form other data structure">
<polygon fill="#999999" stroke="#666666" points="653.25,-152.5 488,-152.5 488,-133.25 653.25,-133.25 653.25,-152.5"/>
<text text-anchor="middle" x="570.62" y="-139" font-family="Helvetica,sans-Serif" font-size="10.00">MoFEM::DerivedEntitiesFieldData</text>
</a>
</g>
</g>
<!-- Node2 -->
<g id="node2" class="node">
<title>Node2</title>
<g id="a_node2"><a xlink:href="struct_mo_f_e_m_1_1_entities_field_data.html" target="_top" xlink:title="data structure for finite element entity">
<polygon fill="white" stroke="#666666" points="417.5,-182.5 286,-182.5 286,-163.25 417.5,-163.25 417.5,-182.5"/>
<text text-anchor="middle" x="351.75" y="-169" font-family="Helvetica,sans-Serif" font-size="10.00">MoFEM::EntitiesFieldData</text>
</a>
</g>
</g>
<!-- Node2&#45;&gt;Node1 -->
<g id="edge1" class="edge">
<title>Node2&#45;&gt;Node1</title>
<path fill="none" stroke="#63b8ff" d="M429.09,-162.31C451.03,-159.28 474.9,-155.98 496.63,-152.97"/>
<polygon fill="#63b8ff" stroke="#63b8ff" points="428.74,-158.83 419.32,-163.67 429.7,-165.76 428.74,-158.83"/>
</g>
<!-- Node3 -->
<g id="node3" class="node">
<title>Node3</title>
<g id="a_node3"><a xlink:title=" ">
<polygon fill="white" stroke="#666666" points="142.75,-299.5 27,-299.5 27,-280.25 142.75,-280.25 142.75,-299.5"/>
<text text-anchor="middle" x="84.88" y="-286" font-family="Helvetica,sans-Serif" font-size="10.00">bitset&lt; LASTSPACE &gt;</text>
</a>
</g>
</g>
<!-- Node3&#45;&gt;Node2 -->
<g id="edge2" class="edge">
<title>Node3&#45;&gt;Node2</title>
<path fill="none" stroke="#9a32cd" stroke-dasharray="5,2" d="M154.28,-288.38C189.92,-285.16 233.21,-277.28 268,-258.88 303.16,-240.27 332.13,-201.2 344.41,-182.82"/>
<polygon fill="#9a32cd" stroke="#9a32cd" points="154.2,-284.88 144.5,-289.15 154.75,-291.86 154.2,-284.88"/>
<text text-anchor="middle" x="227.88" y="-284.62" font-family="Helvetica,sans-Serif" font-size="10.00"> sPace</text>
</g>
<!-- Node4 -->
<g id="node4" class="node">
<title>Node4</title>
<g id="a_node4"><a xlink:title=" ">
<polygon fill="white" stroke="#666666" points="139.75,-262.5 30,-262.5 30,-243.25 139.75,-243.25 139.75,-262.5"/>
<text text-anchor="middle" x="84.88" y="-249" font-family="Helvetica,sans-Serif" font-size="10.00">bitset&lt; LASTBASE &gt;</text>
</a>
</g>
</g>
<!-- Node4&#45;&gt;Node2 -->
<g id="edge3" class="edge">
<title>Node4&#45;&gt;Node2</title>
<path fill="none" stroke="#9a32cd" stroke-dasharray="5,2" d="M151.11,-249.31C186.57,-245.79 230.67,-238.79 268,-224.88 295.19,-214.74 322.98,-194.94 338.43,-182.91"/>
<polygon fill="#9a32cd" stroke="#9a32cd" points="151.07,-245.8 141.43,-250.2 151.71,-252.77 151.07,-245.8"/>
<text text-anchor="middle" x="227.88" y="-245.62" font-family="Helvetica,sans-Serif" font-size="10.00"> bAse</text>
</g>
<!-- Node5 -->
<g id="node5" class="node">
<title>Node5</title>
<g id="a_node5"><a xlink:title=" ">
<polygon fill="white" stroke="#666666" points="134.12,-225.5 35.62,-225.5 35.62,-206.25 134.12,-206.25 134.12,-225.5"/>
<text text-anchor="middle" x="84.88" y="-212" font-family="Helvetica,sans-Serif" font-size="10.00">UBlasMatrix&lt; int &gt;</text>
</a>
</g>
</g>
<!-- Node5&#45;&gt;Node2 -->
<g id="edge4" class="edge">
<title>Node5&#45;&gt;Node2</title>
<path fill="none" stroke="#9a32cd" stroke-dasharray="5,2" d="M145.78,-206.15C188.34,-199.24 245.36,-189.98 288.45,-182.99"/>
<polygon fill="#9a32cd" stroke="#9a32cd" points="145.26,-202.69 135.95,-207.75 146.38,-209.6 145.26,-202.69"/>
<text text-anchor="middle" x="227.88" y="-210.88" font-family="Helvetica,sans-Serif" font-size="10.00"> facesNodes</text>
<text text-anchor="middle" x="227.88" y="-199.62" font-family="Helvetica,sans-Serif" font-size="10.00">facesNodesOrder</text>
</g>
<!-- Node6 -->
<g id="node6" class="node">
<title>Node6</title>
<g id="a_node6"><a xlink:title=" ">
<polygon fill="white" stroke="#666666" points="169.75,-188.12 0,-188.12 0,-157.62 169.75,-157.62 169.75,-188.12"/>
<text text-anchor="start" x="8" y="-174.62" font-family="Helvetica,sans-Serif" font-size="10.00">array&lt; std::bitset</text>
<text text-anchor="middle" x="84.88" y="-163.38" font-family="Helvetica,sans-Serif" font-size="10.00">&lt; LASTSPACE &gt;, MBMAXTYPE &gt;</text>
</a>
</g>
</g>
<!-- Node6&#45;&gt;Node2 -->
<g id="edge5" class="edge">
<title>Node6&#45;&gt;Node2</title>
<path fill="none" stroke="#9a32cd" stroke-dasharray="5,2" d="M181.17,-172.88C215.85,-172.88 254.24,-172.88 285.71,-172.88"/>
<polygon fill="#9a32cd" stroke="#9a32cd" points="181.56,-169.38 171.56,-172.88 181.56,-176.38 181.56,-169.38"/>
<text text-anchor="middle" x="227.88" y="-174.62" font-family="Helvetica,sans-Serif" font-size="10.00"> spacesOnEntities</text>
</g>
<!-- Node7 -->
<g id="node7" class="node">
<title>Node7</title>
<g id="a_node7"><a xlink:title=" ">
<polygon fill="white" stroke="#666666" points="166.75,-139.12 3,-139.12 3,-108.62 166.75,-108.62 166.75,-139.12"/>
<text text-anchor="start" x="11" y="-125.62" font-family="Helvetica,sans-Serif" font-size="10.00">array&lt; std::bitset</text>
<text text-anchor="middle" x="84.88" y="-114.38" font-family="Helvetica,sans-Serif" font-size="10.00">&lt; LASTBASE &gt;, MBMAXTYPE &gt;</text>
</a>
</g>
</g>
<!-- Node7&#45;&gt;Node2 -->
<g id="edge6" class="edge">
<title>Node7&#45;&gt;Node2</title>
<path fill="none" stroke="#9a32cd" stroke-dasharray="5,2" d="M178.35,-140.98C217.63,-148.25 262.1,-156.48 296.03,-162.75"/>
<polygon fill="#9a32cd" stroke="#9a32cd" points="179.1,-137.56 168.63,-139.18 177.83,-144.45 179.1,-137.56"/>
<text text-anchor="middle" x="227.88" y="-158.62" font-family="Helvetica,sans-Serif" font-size="10.00"> basesOnEntities</text>
</g>
<!-- Node8 -->
<g id="node8" class="node">
<title>Node8</title>
<g id="a_node8"><a xlink:title=" ">
<polygon fill="white" stroke="#666666" points="164.12,-90.12 5.62,-90.12 5.62,-59.62 164.12,-59.62 164.12,-90.12"/>
<text text-anchor="start" x="13.62" y="-76.62" font-family="Helvetica,sans-Serif" font-size="10.00">array&lt; std::bitset</text>
<text text-anchor="middle" x="84.88" y="-65.38" font-family="Helvetica,sans-Serif" font-size="10.00">&lt; LASTBASE &gt;, LASTSPACE &gt;</text>
</a>
</g>
</g>
<!-- Node8&#45;&gt;Node2 -->
<g id="edge7" class="edge">
<title>Node8&#45;&gt;Node2</title>
<path fill="none" stroke="#9a32cd" stroke-dasharray="5,2" d="M175.43,-88.85C206.76,-96.84 240.86,-109.28 268,-128.62 279.22,-136.62 274.77,-145.88 286,-153.88 291.06,-157.47 296.8,-160.4 302.72,-162.77"/>
<polygon fill="#9a32cd" stroke="#9a32cd" points="176.49,-85.51 165.95,-86.57 174.85,-92.31 176.49,-85.51"/>
<text text-anchor="middle" x="227.88" y="-130.62" font-family="Helvetica,sans-Serif" font-size="10.00"> basesOnSpaces</text>
</g>
<!-- Node9 -->
<g id="node9" class="node">
<title>Node9</title>
<g id="a_node9"><a xlink:title=" ">
<polygon fill="white" stroke="#666666" points="157.38,-41.75 12.38,-41.75 12.38,0 157.38,0 157.38,-41.75"/>
<text text-anchor="start" x="20.38" y="-28.25" font-family="Helvetica,sans-Serif" font-size="10.00">array&lt; boost::ptr_vector</text>
<text text-anchor="start" x="20.38" y="-17" font-family="Helvetica,sans-Serif" font-size="10.00">&lt; MoFEM::EntitiesFieldData</text>
<text text-anchor="middle" x="84.88" y="-5.75" font-family="Helvetica,sans-Serif" font-size="10.00">::EntData &gt;, MBMAXTYPE &gt;</text>
</a>
</g>
</g>
<!-- Node9&#45;&gt;Node2 -->
<g id="edge8" class="edge">
<title>Node9&#45;&gt;Node2</title>
<path fill="none" stroke="#9a32cd" stroke-dasharray="5,2" d="M168.76,-28.54C203.84,-35.92 242.43,-50.19 268,-77.62 291.74,-103.1 262.05,-128.6 286,-153.88 289.47,-157.53 293.59,-160.5 298.06,-162.9"/>
<polygon fill="#9a32cd" stroke="#9a32cd" points="169.48,-25.12 159,-26.66 168.16,-31.99 169.48,-25.12"/>
<text text-anchor="middle" x="227.88" y="-79.62" font-family="Helvetica,sans-Serif" font-size="10.00"> dataOnEntities</text>
</g>
<!-- Node10 -->
<g id="node10" class="node">
<title>Node10</title>
<g id="a_node10"><a xlink:title=" ">
<polygon fill="white" stroke="#666666" points="407.38,-145.12 296.12,-145.12 296.12,-114.62 407.38,-114.62 407.38,-145.12"/>
<text text-anchor="start" x="304.12" y="-131.62" font-family="Helvetica,sans-Serif" font-size="10.00">shared_ptr&lt; MoFEM::</text>
<text text-anchor="middle" x="351.75" y="-120.38" font-family="Helvetica,sans-Serif" font-size="10.00">EntitiesFieldData &gt;</text>
</a>
</g>
</g>
<!-- Node10&#45;&gt;Node1 -->
<g id="edge9" class="edge">
<title>Node10&#45;&gt;Node1</title>
<path fill="none" stroke="#9a32cd" stroke-dasharray="5,2" d="M419.13,-133.85C440.75,-135.15 465,-136.6 487.62,-137.96"/>
<polygon fill="#9a32cd" stroke="#9a32cd" points="419.46,-130.37 409.27,-133.26 419.04,-137.35 419.46,-130.37"/>
<text text-anchor="middle" x="452.75" y="-138.62" font-family="Helvetica,sans-Serif" font-size="10.00"> dataPtr</text>
</g>
</g>
</svg>
        <g id="navigator" transform="translate(0 0)" fill="#404254">
                <rect fill="#f2f5e9" fill-opacity="0.5" stroke="#606060" stroke-width=".5" x="0" y="0" width="60" height="60"/>
                <use id="zoomplus" xlink:href="#zoomPlus" x="17" y="9" onmousedown="handleZoom(evt,'in')"/>
                <use id="zoomminus" xlink:href="#zoomMin" x="42" y="9" onmousedown="handleZoom(evt,'out')"/>
                <use id="reset" xlink:href="#resetDef" x="30" y="36" onmousedown="handleReset()"/>
                <g id="arrowUp" xlink:href="#dirArrow" transform="translate(30 24)" onmousedown="handlePan(0,-1)">
                  <use xlink:href="#rim" fill="#404040">
                        <set attributeName="fill" to="#808080" begin="arrowUp.mouseover" end="arrowUp.mouseout"/>
                  </use>
                  <path fill="none" stroke="white" stroke-width="1.5" d="M0,-3.0v7 M-2.5,-0.5L0,-3.0L2.5,-0.5"/>
                </g>
                <g id="arrowRight" xlink:href="#dirArrow" transform="rotate(90) translate(36 -43)" onmousedown="handlePan(1,0)">
                  <use xlink:href="#rim" fill="#404040">
                        <set attributeName="fill" to="#808080" begin="arrowRight.mouseover" end="arrowRight.mouseout"/>
                  </use>
                  <path fill="none" stroke="white" stroke-width="1.5" d="M0,-3.0v7 M-2.5,-0.5L0,-3.0L2.5,-0.5"/>
                </g>
                <g id="arrowDown" xlink:href="#dirArrow" transform="rotate(180) translate(-30 -48)" onmousedown="handlePan(0,1)">
                  <use xlink:href="#rim" fill="#404040">
                        <set attributeName="fill" to="#808080" begin="arrowDown.mouseover" end="arrowDown.mouseout"/>
                  </use>
                  <path fill="none" stroke="white" stroke-width="1.5" d="M0,-3.0v7 M-2.5,-0.5L0,-3.0L2.5,-0.5"/>
                </g>
                <g id="arrowLeft" xlink:href="#dirArrow" transform="rotate(270) translate(-36 17)" onmousedown="handlePan(-1,0)">
                  <use xlink:href="#rim" fill="#404040">
                        <set attributeName="fill" to="#808080" begin="arrowLeft.mouseover" end="arrowLeft.mouseout"/>
                  </use>
                  <path fill="none" stroke="white" stroke-width="1.5" d="M0,-3.0v7 M-2.5,-0.5L0,-3.0L2.5,-0.5"/>
                </g>
        </g>
        <svg viewBox="0 0 15 15" width="100%" height="30px" preserveAspectRatio="xMaxYMin meet">
         <g id="arrow_out" transform="scale(0.3 0.3)">
          <a xlink:href="struct_mo_f_e_m_1_1_derived_entities_field_data__coll__graph_org.svg" target="_base">
           <rect id="button" ry="5" rx="5" y="6" x="6" height="38" width="38"
                fill="#f2f5e9" fill-opacity="0.5" stroke="#606060" stroke-width="1.0"/>
           <path id="arrow"
             d="M 11.500037,31.436501 C 11.940474,20.09759 22.043105,11.32322 32.158766,21.979434 L 37.068811,17.246167 C 37.068811,17.246167 37.088388,32 37.088388,32 L 22.160133,31.978069 C 22.160133,31.978069 26.997745,27.140456 26.997745,27.140456 C 18.528582,18.264221 13.291696,25.230495 11.500037,31.436501 z"
             style="fill:#404040;"/>
          </a>
         </g>
        </svg>
</svg>
