<?xml version="1.0" encoding="UTF-8" standalone="no"?>
<!DOCTYPE svg PUBLIC "-//W3C//DTD SVG 1.1//EN"
 "http://www.w3.org/Graphics/SVG/1.1/DTD/svg11.dtd">
<!-- Generated by graphviz version 2.43.0 (0)
 -->
<!-- Title: MoFEM::EdgeElementForcesAndSourcesCore::UserDataOperator Pages: 1 -->
<svg width="1015pt" height="700pt"
 viewBox="0.00 0.00 1015.00 700.00" xmlns="http://www.w3.org/2000/svg" xmlns:xlink="http://www.w3.org/1999/xlink">
<g id="graph0" class="graph" transform="scale(1 1) rotate(0) translate(4 696)">
<title>MoFEM::EdgeElementForcesAndSourcesCore::UserDataOperator</title>
<polygon fill="white" stroke="transparent" points="-4,4 -4,-696 1011,-696 1011,4 -4,4"/>
<!-- Node1 -->
<g id="node1" class="node">
<title>Node1</title>
<g id="a_node1"><a xlink:title="default operator for EDGE element">
<polygon fill="#bfbfbf" stroke="black" points="367,-325 367,-355 558,-355 558,-325 367,-325"/>
<text text-anchor="start" x="375" y="-343" font-family="Helvetica,sans-Serif" font-size="10.00">MoFEM::EdgeElementForces</text>
<text text-anchor="middle" x="462.5" y="-332" font-family="Helvetica,sans-Serif" font-size="10.00">AndSourcesCore::UserDataOperator</text>
</a>
</g>
</g>
<!-- Node4 -->
<g id="node4" class="node">
<title>Node4</title>
<g id="a_node4"><a xlink:href="structEdgeForce_1_1OpEdgeForce.html" target="_top" xlink:title=" ">
<polygon fill="white" stroke="black" points="627.5,-672.5 627.5,-691.5 764.5,-691.5 764.5,-672.5 627.5,-672.5"/>
<text text-anchor="middle" x="696" y="-679.5" font-family="Helvetica,sans-Serif" font-size="10.00">EdgeForce::OpEdgeForce</text>
</a>
</g>
</g>
<!-- Node1&#45;&gt;Node4 -->
<g id="edge3" class="edge">
<title>Node1&#45;&gt;Node4</title>
<path fill="none" stroke="midnightblue" d="M465.79,-365.35C472.77,-426.7 499.45,-583.87 594,-662 603.51,-669.86 615.23,-674.93 627.28,-678.15"/>
<polygon fill="midnightblue" stroke="midnightblue" points="469.24,-364.63 464.71,-355.05 462.27,-365.36 469.24,-364.63"/>
</g>
<!-- Node5 -->
<g id="node5" class="node">
<title>Node5</title>
<g id="a_node5"><a xlink:href="structEdgeSlidingConstrains_1_1OpJacobian.html" target="_top" xlink:title=" ">
<polygon fill="white" stroke="black" points="633.5,-623 633.5,-653 758.5,-653 758.5,-623 633.5,-623"/>
<text text-anchor="start" x="641.5" y="-641" font-family="Helvetica,sans-Serif" font-size="10.00">EdgeSlidingConstrains</text>
<text text-anchor="middle" x="696" y="-630" font-family="Helvetica,sans-Serif" font-size="10.00">::OpJacobian</text>
</a>
</g>
</g>
<!-- Node1&#45;&gt;Node5 -->
<g id="edge4" class="edge">
<title>Node1&#45;&gt;Node5</title>
<path fill="none" stroke="midnightblue" d="M468.09,-365.3C479.28,-419.48 513.23,-547.18 594,-613 605.2,-622.13 619.27,-627.99 633.31,-631.74"/>
<polygon fill="midnightblue" stroke="midnightblue" points="471.46,-364.32 466.09,-355.19 464.59,-365.68 471.46,-364.32"/>
</g>
<!-- Node6 -->
<g id="node6" class="node">
<title>Node6</title>
<g id="a_node6"><a xlink:href="structExample_1_1BoundaryOp.html" target="_top" xlink:title=" ">
<polygon fill="white" stroke="black" points="633.5,-584.5 633.5,-603.5 758.5,-603.5 758.5,-584.5 633.5,-584.5"/>
<text text-anchor="middle" x="696" y="-591.5" font-family="Helvetica,sans-Serif" font-size="10.00">Example::BoundaryOp</text>
</a>
</g>
</g>
<!-- Node1&#45;&gt;Node6 -->
<g id="edge5" class="edge">
<title>Node1&#45;&gt;Node6</title>
<path fill="none" stroke="midnightblue" d="M469.86,-365C483.61,-413.64 520.93,-520.86 594,-574 605.42,-582.31 619.41,-587.39 633.3,-590.45"/>
<polygon fill="midnightblue" stroke="midnightblue" points="473.22,-364.01 467.21,-355.29 466.47,-365.86 473.22,-364.01"/>
</g>
<!-- Node7 -->
<g id="node7" class="node">
<title>Node7</title>
<g id="a_node7"><a xlink:href="structExample_1_1OpCalcSurfaceAverageTemperature.html" target="_top" xlink:title=" ">
<polygon fill="white" stroke="black" points="608,-535 608,-565 784,-565 784,-535 608,-535"/>
<text text-anchor="start" x="616" y="-553" font-family="Helvetica,sans-Serif" font-size="10.00">Example::OpCalcSurfaceAverage</text>
<text text-anchor="middle" x="696" y="-542" font-family="Helvetica,sans-Serif" font-size="10.00">Temperature</text>
</a>
</g>
</g>
<!-- Node1&#45;&gt;Node7 -->
<g id="edge6" class="edge">
<title>Node1&#45;&gt;Node7</title>
<path fill="none" stroke="midnightblue" d="M473.83,-364.54C492,-404.59 533.57,-483.7 594,-525 599.67,-528.87 605.88,-532.15 612.34,-534.92"/>
<polygon fill="midnightblue" stroke="midnightblue" points="476.97,-362.97 469.72,-355.24 470.57,-365.8 476.97,-362.97"/>
</g>
<!-- Node8 -->
<g id="node8" class="node">
<title>Node8</title>
<g id="a_node8"><a xlink:href="structMoFEM_1_1OpGetHOTangentsOnEdge.html" target="_top" xlink:title="Calculate tangent vector on edge form HO geometry approximation.">
<polygon fill="white" stroke="black" points="615.5,-486 615.5,-516 776.5,-516 776.5,-486 615.5,-486"/>
<text text-anchor="start" x="623.5" y="-504" font-family="Helvetica,sans-Serif" font-size="10.00">MoFEM::OpGetHOTangentsOn</text>
<text text-anchor="middle" x="696" y="-493" font-family="Helvetica,sans-Serif" font-size="10.00">Edge&lt; FIELD_DIM &gt;</text>
</a>
</g>
</g>
<!-- Node1&#45;&gt;Node8 -->
<g id="edge7" class="edge">
<title>Node1&#45;&gt;Node8</title>
<path fill="none" stroke="midnightblue" d="M479.63,-363.75C501.77,-394.46 544.5,-447.37 594,-476 600.72,-479.89 608.04,-483.18 615.56,-485.96"/>
<polygon fill="midnightblue" stroke="midnightblue" points="482.32,-361.5 473.69,-355.35 476.61,-365.54 482.32,-361.5"/>
</g>
<!-- Node9 -->
<g id="node9" class="node">
<title>Node9</title>
<g id="a_node9"><a xlink:href="structMoFEM_1_1OpHOSetContravariantPiolaTransformOnEdge3D.html" target="_top" xlink:title="transform Hcurl base fluxes from reference element to physical edge">
<polygon fill="white" stroke="black" points="611,-437 611,-467 781,-467 781,-437 611,-437"/>
<text text-anchor="start" x="619" y="-455" font-family="Helvetica,sans-Serif" font-size="10.00">MoFEM::OpHOSetContravariant</text>
<text text-anchor="middle" x="696" y="-444" font-family="Helvetica,sans-Serif" font-size="10.00">PiolaTransformOnEdge3D</text>
</a>
</g>
</g>
<!-- Node1&#45;&gt;Node9 -->
<g id="edge8" class="edge">
<title>Node1&#45;&gt;Node9</title>
<path fill="none" stroke="midnightblue" d="M489.73,-361.48C515.01,-381.18 555.05,-409.82 594,-427 602.68,-430.83 612.04,-434.13 621.45,-436.98"/>
<polygon fill="midnightblue" stroke="midnightblue" points="491.76,-358.63 481.75,-355.18 487.42,-364.12 491.76,-358.63"/>
</g>
<!-- Node10 -->
<g id="node10" class="node">
<title>Node10</title>
<g id="a_node10"><a xlink:href="structMoFEM_1_1OpSetContravariantPiolaTransformOnEdge2D.html" target="_top" xlink:title=" ">
<polygon fill="white" stroke="black" points="618.5,-388 618.5,-418 773.5,-418 773.5,-388 618.5,-388"/>
<text text-anchor="start" x="626.5" y="-406" font-family="Helvetica,sans-Serif" font-size="10.00">MoFEM::OpSetContravariant</text>
<text text-anchor="middle" x="696" y="-395" font-family="Helvetica,sans-Serif" font-size="10.00">PiolaTransformOnEdge2D</text>
</a>
</g>
</g>
<!-- Node1&#45;&gt;Node10 -->
<g id="edge9" class="edge">
<title>Node1&#45;&gt;Node10</title>
<path fill="none" stroke="midnightblue" d="M522.9,-357.85C545.14,-364.39 570.68,-371.72 594,-378 606.47,-381.36 619.86,-384.79 632.67,-387.99"/>
<polygon fill="midnightblue" stroke="midnightblue" points="523.83,-354.48 513.25,-355 521.85,-361.19 523.83,-354.48"/>
</g>
<!-- Node11 -->
<g id="node11" class="node">
<title>Node11</title>
<g id="a_node11"><a xlink:href="structMoFEM_1_1OpSetHOWeightsOnEdge.html" target="_top" xlink:title="Modify integration weights on face to take in account higher&#45;order geometry.">
<polygon fill="white" stroke="black" points="606.5,-349.5 606.5,-368.5 785.5,-368.5 785.5,-349.5 606.5,-349.5"/>
<text text-anchor="middle" x="696" y="-356.5" font-family="Helvetica,sans-Serif" font-size="10.00">MoFEM::OpSetHOWeightsOnEdge</text>
</a>
</g>
</g>
<!-- Node1&#45;&gt;Node11 -->
<g id="edge10" class="edge">
<title>Node1&#45;&gt;Node11</title>
<path fill="none" stroke="midnightblue" d="M568.42,-348.61C581.07,-349.65 593.9,-350.7 606.28,-351.72"/>
<polygon fill="midnightblue" stroke="midnightblue" points="568.58,-345.11 558.33,-347.78 568.01,-352.09 568.58,-345.11"/>
</g>
<!-- Node13 -->
<g id="node13" class="node">
<title>Node13</title>
<g id="a_node13"><a xlink:href="structOpFlux.html" target="_top" xlink:title=" ">
<polygon fill="white" stroke="black" points="670.5,-311.5 670.5,-330.5 721.5,-330.5 721.5,-311.5 670.5,-311.5"/>
<text text-anchor="middle" x="696" y="-318.5" font-family="Helvetica,sans-Serif" font-size="10.00">OpFlux</text>
</a>
</g>
</g>
<!-- Node1&#45;&gt;Node13 -->
<g id="edge12" class="edge">
<title>Node1&#45;&gt;Node13</title>
<path fill="none" stroke="midnightblue" d="M568.41,-331.39C606.18,-328.29 645.51,-325.06 670.11,-323.04"/>
<polygon fill="midnightblue" stroke="midnightblue" points="568.01,-327.91 558.33,-332.22 568.58,-334.89 568.01,-327.91"/>
</g>
<!-- Node14 -->
<g id="node14" class="node">
<title>Node14</title>
<g id="a_node14"><a xlink:href="structOpSimpleRodK.html" target="_top" xlink:title="Assemble contribution of SimpleRod element to LHS *.">
<polygon fill="white" stroke="black" points="651.5,-273.5 651.5,-292.5 740.5,-292.5 740.5,-273.5 651.5,-273.5"/>
<text text-anchor="middle" x="696" y="-280.5" font-family="Helvetica,sans-Serif" font-size="10.00">OpSimpleRodK</text>
</a>
</g>
</g>
<!-- Node1&#45;&gt;Node14 -->
<g id="edge13" class="edge">
<title>Node1&#45;&gt;Node14</title>
<path fill="none" stroke="midnightblue" d="M520.74,-322.02C543.42,-315.25 569.81,-307.78 594,-302 612.57,-297.56 633.26,-293.51 651.05,-290.31"/>
<polygon fill="midnightblue" stroke="midnightblue" points="519.49,-318.74 510.93,-324.98 521.51,-325.45 519.49,-318.74"/>
</g>
<!-- Node15 -->
<g id="node15" class="node">
<title>Node15</title>
<g id="a_node15"><a xlink:href="structOpSimpleRodPreStress.html" target="_top" xlink:title="Add ROD pre&#45;stress to the RHS *.">
<polygon fill="white" stroke="black" points="632,-235.5 632,-254.5 760,-254.5 760,-235.5 632,-235.5"/>
<text text-anchor="middle" x="696" y="-242.5" font-family="Helvetica,sans-Serif" font-size="10.00">OpSimpleRodPreStress</text>
</a>
</g>
</g>
<!-- Node1&#45;&gt;Node15 -->
<g id="edge14" class="edge">
<title>Node1&#45;&gt;Node15</title>
<path fill="none" stroke="midnightblue" d="M492.54,-319.17C518.07,-301.84 556.86,-277.84 594,-264 605.95,-259.55 619.11,-256.1 631.86,-253.44"/>
<polygon fill="midnightblue" stroke="midnightblue" points="490.33,-316.44 484.09,-324.99 494.31,-322.2 490.33,-316.44"/>
</g>
<!-- Node16 -->
<g id="node16" class="node">
<title>Node16</title>
<g id="a_node16"><a xlink:href="structPoisson2DLagrangeMultiplierOperators_1_1OpBoundaryLhsC.html" target="_top" xlink:title=" ">
<polygon fill="white" stroke="black" points="616.5,-186 616.5,-216 775.5,-216 775.5,-186 616.5,-186"/>
<text text-anchor="start" x="624.5" y="-204" font-family="Helvetica,sans-Serif" font-size="10.00">Poisson2DLagrangeMultiplier</text>
<text text-anchor="middle" x="696" y="-193" font-family="Helvetica,sans-Serif" font-size="10.00">Operators::OpBoundaryLhsC</text>
</a>
</g>
</g>
<!-- Node1&#45;&gt;Node16 -->
<g id="edge15" class="edge">
<title>Node1&#45;&gt;Node16</title>
<path fill="none" stroke="midnightblue" d="M483.03,-317.39C506.7,-291.43 549.03,-249.43 594,-226 601.45,-222.12 609.52,-218.82 617.75,-216.03"/>
<polygon fill="midnightblue" stroke="midnightblue" points="480.38,-315.11 476.3,-324.89 485.59,-319.78 480.38,-315.11"/>
</g>
<!-- Node17 -->
<g id="node17" class="node">
<title>Node17</title>
<g id="a_node17"><a xlink:href="structPoisson2DLagrangeMultiplierOperators_1_1OpBoundaryRhsG.html" target="_top" xlink:title=" ">
<polygon fill="white" stroke="black" points="616.5,-137 616.5,-167 775.5,-167 775.5,-137 616.5,-137"/>
<text text-anchor="start" x="624.5" y="-155" font-family="Helvetica,sans-Serif" font-size="10.00">Poisson2DLagrangeMultiplier</text>
<text text-anchor="middle" x="696" y="-144" font-family="Helvetica,sans-Serif" font-size="10.00">Operators::OpBoundaryRhsG</text>
</a>
</g>
</g>
<!-- Node1&#45;&gt;Node17 -->
<g id="edge16" class="edge">
<title>Node1&#45;&gt;Node17</title>
<path fill="none" stroke="midnightblue" d="M475.98,-315.57C495.84,-279.24 538.18,-211.46 594,-176 600.92,-171.6 608.57,-168.01 616.48,-165.08"/>
<polygon fill="midnightblue" stroke="midnightblue" points="472.82,-314.04 471.2,-324.51 479,-317.34 472.82,-314.04"/>
</g>
<!-- Node18 -->
<g id="node18" class="node">
<title>Node18</title>
<g id="a_node18"><a xlink:href="structPoisson2DNonhomogeneousOperators_1_1OpBoundaryLhs.html" target="_top" xlink:title="[OpDomainRhs]">
<polygon fill="white" stroke="black" points="594,-88 594,-118 798,-118 798,-88 594,-88"/>
<text text-anchor="start" x="602" y="-106" font-family="Helvetica,sans-Serif" font-size="10.00">Poisson2DNonhomogeneousOperators</text>
<text text-anchor="middle" x="696" y="-95" font-family="Helvetica,sans-Serif" font-size="10.00">::OpBoundaryLhs</text>
</a>
</g>
</g>
<!-- Node1&#45;&gt;Node18 -->
<g id="edge17" class="edge">
<title>Node1&#45;&gt;Node18</title>
<path fill="none" stroke="midnightblue" d="M471.47,-315.26C487.25,-270.37 526.89,-175.64 594,-127 598.74,-123.56 603.91,-120.61 609.31,-118.08"/>
<polygon fill="midnightblue" stroke="midnightblue" points="468.13,-314.2 468.21,-324.8 474.75,-316.47 468.13,-314.2"/>
</g>
<!-- Node19 -->
<g id="node19" class="node">
<title>Node19</title>
<g id="a_node19"><a xlink:href="structPoisson2DNonhomogeneousOperators_1_1OpBoundaryRhs.html" target="_top" xlink:title="[OpBoundaryLhs]">
<polygon fill="white" stroke="black" points="594,-39 594,-69 798,-69 798,-39 594,-39"/>
<text text-anchor="start" x="602" y="-57" font-family="Helvetica,sans-Serif" font-size="10.00">Poisson2DNonhomogeneousOperators</text>
<text text-anchor="middle" x="696" y="-46" font-family="Helvetica,sans-Serif" font-size="10.00">::OpBoundaryRhs</text>
</a>
</g>
</g>
<!-- Node1&#45;&gt;Node19 -->
<g id="edge18" class="edge">
<title>Node1&#45;&gt;Node19</title>
<path fill="none" stroke="midnightblue" d="M468.53,-314.9C480.44,-262.34 515.44,-140.37 594,-78 598.23,-74.64 602.86,-71.73 607.74,-69.23"/>
<polygon fill="midnightblue" stroke="midnightblue" points="465.1,-314.22 466.39,-324.74 471.94,-315.71 465.1,-314.22"/>
</g>
<!-- Node20 -->
<g id="node20" class="node">
<title>Node20</title>
<g id="a_node20"><a xlink:href="structSkeletonFE.html" target="_top" xlink:title=" ">
<polygon fill="white" stroke="black" points="660.5,-0.5 660.5,-19.5 731.5,-19.5 731.5,-0.5 660.5,-0.5"/>
<text text-anchor="middle" x="696" y="-7.5" font-family="Helvetica,sans-Serif" font-size="10.00">SkeletonFE</text>
</a>
</g>
</g>
<!-- Node1&#45;&gt;Node20 -->
<g id="edge19" class="edge">
<title>Node1&#45;&gt;Node20</title>
<path fill="none" stroke="midnightblue" d="M466.14,-314.61C473.83,-254.6 501.83,-103.5 594,-29 612.46,-14.08 639,-9.54 660.24,-8.61"/>
<polygon fill="midnightblue" stroke="midnightblue" points="462.65,-314.37 464.94,-324.71 469.6,-315.2 462.65,-314.37"/>
</g>
<!-- Node2 -->
<g id="node2" class="node">
<title>Node2</title>
<g id="a_node2"><a xlink:href="structMoFEM_1_1ForcesAndSourcesCore_1_1UserDataOperator.html" target="_top" xlink:title=" ">
<polygon fill="white" stroke="black" points="161,-325 161,-355 331,-355 331,-325 161,-325"/>
<text text-anchor="start" x="169" y="-343" font-family="Helvetica,sans-Serif" font-size="10.00">MoFEM::ForcesAndSourcesCore</text>
<text text-anchor="middle" x="246" y="-332" font-family="Helvetica,sans-Serif" font-size="10.00">::UserDataOperator</text>
</a>
</g>
</g>
<!-- Node2&#45;&gt;Node1 -->
<g id="edge1" class="edge">
<title>Node2&#45;&gt;Node1</title>
<path fill="none" stroke="midnightblue" d="M341.42,-340C349.89,-340 358.47,-340 366.93,-340"/>
<polygon fill="midnightblue" stroke="midnightblue" points="341.16,-336.5 331.16,-340 341.16,-343.5 341.16,-336.5"/>
</g>
<!-- Node3 -->
<g id="node3" class="node">
<title>Node3</title>
<g id="a_node3"><a xlink:href="structMoFEM_1_1DataOperator.html" target="_top" xlink:title="base operator to do operations at Gauss Pt. level">
<polygon fill="white" stroke="black" points="0,-330.5 0,-349.5 125,-349.5 125,-330.5 0,-330.5"/>
<text text-anchor="middle" x="62.5" y="-337.5" font-family="Helvetica,sans-Serif" font-size="10.00">MoFEM::DataOperator</text>
</a>
</g>
</g>
<!-- Node3&#45;&gt;Node2 -->
<g id="edge2" class="edge">
<title>Node3&#45;&gt;Node2</title>
<path fill="none" stroke="midnightblue" d="M135.34,-340C143.75,-340 152.4,-340 160.97,-340"/>
<polygon fill="midnightblue" stroke="midnightblue" points="135.2,-336.5 125.2,-340 135.2,-343.5 135.2,-336.5"/>
</g>
<!-- Node12 -->
<g id="node12" class="node">
<title>Node12</title>
<g id="a_node12"><a xlink:href="structMoFEM_1_1OpSetHOWeightsOnSubDim_3_012_01_4.html" target="_top" xlink:title=" ">
<polygon fill="white" stroke="black" points="834,-344 834,-374 1007,-374 1007,-344 834,-344"/>
<text text-anchor="start" x="842" y="-362" font-family="Helvetica,sans-Serif" font-size="10.00">MoFEM::OpSetHOWeightsOnSub</text>
<text text-anchor="middle" x="920.5" y="-351" font-family="Helvetica,sans-Serif" font-size="10.00">Dim&lt; 2 &gt;</text>
</a>
</g>
</g>
<!-- Node11&#45;&gt;Node12 -->
<g id="edge11" class="edge">
<title>Node11&#45;&gt;Node12</title>
<path fill="none" stroke="midnightblue" d="M795.7,-359C808.39,-359 821.3,-359 833.77,-359"/>
<polygon fill="midnightblue" stroke="midnightblue" points="795.58,-355.5 785.58,-359 795.58,-362.5 795.58,-355.5"/>
</g>
</g>
</svg>
