<?xml version="1.0" encoding="UTF-8" standalone="no"?>
<!DOCTYPE svg PUBLIC "-//W3C//DTD SVG 1.1//EN"
 "http://www.w3.org/Graphics/SVG/1.1/DTD/svg11.dtd">
<!-- Generated by graphviz version 2.43.0 (0)
 -->
<!-- Title: MoFEM::interface_FiniteElement&lt; T, T &gt; Pages: 1 -->
<svg width="372pt" height="465pt"
 viewBox="0.00 0.00 371.50 465.00" xmlns="http://www.w3.org/2000/svg" xmlns:xlink="http://www.w3.org/1999/xlink">
<g id="graph0" class="graph" transform="scale(1 1) rotate(0) translate(4 461)">
<title>MoFEM::interface_FiniteElement&lt; T, T &gt;</title>
<polygon fill="white" stroke="transparent" points="-4,4 -4,-461 367.5,-461 367.5,4 -4,4"/>
<!-- Node1 -->
<g id="node1" class="node">
<title>Node1</title>
<g id="a_node1"><a xlink:title=" ">
<polygon fill="#bfbfbf" stroke="black" points="25,-0.5 25,-30.5 200,-30.5 200,-0.5 25,-0.5"/>
<text text-anchor="start" x="33" y="-18.5" font-family="Helvetica,sans-Serif" font-size="10.00">MoFEM::interface_FiniteElement</text>
<text text-anchor="middle" x="112.5" y="-7.5" font-family="Helvetica,sans-Serif" font-size="10.00">&lt; T, T &gt;</text>
</a>
</g>
</g>
<!-- Node2 -->
<g id="node2" class="node">
<title>Node2</title>
<g id="a_node2"><a xlink:href="structMoFEM_1_1interface__FiniteElementImpl.html" target="_top" xlink:title=" ">
<polygon fill="white" stroke="black" points="25,-68.5 25,-98.5 200,-98.5 200,-68.5 25,-68.5"/>
<text text-anchor="start" x="33" y="-86.5" font-family="Helvetica,sans-Serif" font-size="10.00">MoFEM::interface_FiniteElement</text>
<text text-anchor="middle" x="112.5" y="-75.5" font-family="Helvetica,sans-Serif" font-size="10.00">Impl&lt; T, T &gt;</text>
</a>
</g>
</g>
<!-- Node2&#45;&gt;Node1 -->
<g id="edge1" class="edge">
<title>Node2&#45;&gt;Node1</title>
<path fill="none" stroke="midnightblue" d="M112.5,-58.03C112.5,-48.86 112.5,-38.74 112.5,-30.79"/>
<polygon fill="midnightblue" stroke="midnightblue" points="109,-58.18 112.5,-68.18 116,-58.18 109,-58.18"/>
</g>
<!-- Node3 -->
<g id="node3" class="node">
<title>Node3</title>
<g id="a_node3"><a xlink:href="structMoFEM_1_1interface__RefElement.html" target="_top" xlink:title="intrface to RefElement">
<polygon fill="white" stroke="black" points="0,-298 0,-317 193,-317 193,-298 0,-298"/>
<text text-anchor="middle" x="96.5" y="-305" font-family="Helvetica,sans-Serif" font-size="10.00">MoFEM::interface_RefElement&lt; T &gt;</text>
</a>
</g>
</g>
<!-- Node3&#45;&gt;Node2 -->
<g id="edge2" class="edge">
<title>Node3&#45;&gt;Node2</title>
<path fill="none" stroke="midnightblue" d="M97.85,-287.74C100.99,-244.18 108.72,-136.98 111.49,-98.52"/>
<polygon fill="midnightblue" stroke="midnightblue" points="94.36,-287.57 97.13,-297.8 101.34,-288.07 94.36,-287.57"/>
</g>
<!-- Node7 -->
<g id="node7" class="node">
<title>Node7</title>
<g id="a_node7"><a xlink:href="structMoFEM_1_1interface__RefElement.html" target="_top" xlink:title=" ">
<polygon fill="white" stroke="black" points="130.5,-214.5 130.5,-244.5 294.5,-244.5 294.5,-214.5 130.5,-214.5"/>
<text text-anchor="start" x="138.5" y="-232.5" font-family="Helvetica,sans-Serif" font-size="10.00">MoFEM::interface_RefElement</text>
<text text-anchor="middle" x="212.5" y="-221.5" font-family="Helvetica,sans-Serif" font-size="10.00">&lt; REFENT &gt;</text>
</a>
</g>
</g>
<!-- Node3&#45;&gt;Node7 -->
<g id="edge10" class="edge">
<title>Node3&#45;&gt;Node7</title>
<path fill="none" stroke="orange" stroke-dasharray="5,2" d="M118.31,-292.21C139.16,-278.55 170.39,-258.09 191.1,-244.52"/>
<polygon fill="orange" stroke="orange" points="116.25,-289.37 109.81,-297.78 120.09,-295.23 116.25,-289.37"/>
<text text-anchor="middle" x="193.5" y="-266" font-family="Helvetica,sans-Serif" font-size="10.00"> &lt; REFENT &gt;</text>
</g>
<!-- Node4 -->
<g id="node4" class="node">
<title>Node4</title>
<g id="a_node4"><a xlink:href="structMoFEM_1_1interface__RefEntity.html" target="_top" xlink:title="interface to RefEntity">
<polygon fill="white" stroke="black" points="20,-370.5 20,-389.5 201,-389.5 201,-370.5 20,-370.5"/>
<text text-anchor="middle" x="110.5" y="-377.5" font-family="Helvetica,sans-Serif" font-size="10.00">MoFEM::interface_RefEntity&lt; T &gt;</text>
</a>
</g>
</g>
<!-- Node4&#45;&gt;Node3 -->
<g id="edge3" class="edge">
<title>Node4&#45;&gt;Node3</title>
<path fill="none" stroke="midnightblue" d="M106.8,-360.36C104.03,-346.4 100.36,-327.93 98.23,-317.22"/>
<polygon fill="midnightblue" stroke="midnightblue" points="103.4,-361.23 108.78,-370.36 110.27,-359.87 103.4,-361.23"/>
</g>
<!-- Node8 -->
<g id="node8" class="node">
<title>Node8</title>
<g id="a_node8"><a xlink:href="structMoFEM_1_1interface__RefEntity.html" target="_top" xlink:title=" ">
<polygon fill="white" stroke="black" points="211.5,-292.5 211.5,-322.5 363.5,-322.5 363.5,-292.5 211.5,-292.5"/>
<text text-anchor="start" x="219.5" y="-310.5" font-family="Helvetica,sans-Serif" font-size="10.00">MoFEM::interface_RefEntity</text>
<text text-anchor="middle" x="287.5" y="-299.5" font-family="Helvetica,sans-Serif" font-size="10.00">&lt; REFENT &gt;</text>
</a>
</g>
</g>
<!-- Node4&#45;&gt;Node8 -->
<g id="edge9" class="edge">
<title>Node4&#45;&gt;Node8</title>
<path fill="none" stroke="orange" stroke-dasharray="5,2" d="M141.27,-366.74C172.23,-354.41 219.9,-335.42 252.34,-322.51"/>
<polygon fill="orange" stroke="orange" points="139.85,-363.54 131.85,-370.5 142.44,-370.05 139.85,-363.54"/>
<text text-anchor="middle" x="236.5" y="-344" font-family="Helvetica,sans-Serif" font-size="10.00"> &lt; REFENT &gt;</text>
</g>
<!-- Node5 -->
<g id="node5" class="node">
<title>Node5</title>
<g id="a_node5"><a xlink:title=" ">
<polygon fill="white" stroke="#bfbfbf" points="62,-437.5 62,-456.5 159,-456.5 159,-437.5 62,-437.5"/>
<text text-anchor="middle" x="110.5" y="-444.5" font-family="Helvetica,sans-Serif" font-size="10.00">shared_ptr&lt; T &gt;</text>
</a>
</g>
</g>
<!-- Node5&#45;&gt;Node4 -->
<g id="edge4" class="edge">
<title>Node5&#45;&gt;Node4</title>
<path fill="none" stroke="#9a32cd" stroke-dasharray="5,2" d="M110.5,-427.04C110.5,-414.67 110.5,-399.12 110.5,-389.63"/>
<polygon fill="#9a32cd" stroke="#9a32cd" points="107,-427.23 110.5,-437.23 114,-427.23 107,-427.23"/>
<text text-anchor="middle" x="121.5" y="-411" font-family="Helvetica,sans-Serif" font-size="10.00"> sPtr</text>
</g>
<!-- Node6 -->
<g id="node6" class="node">
<title>Node6</title>
<g id="a_node6"><a xlink:href="structMoFEM_1_1interface__FiniteElementImpl.html" target="_top" xlink:title="Inetface for FE.">
<polygon fill="white" stroke="black" points="125,-146.5 125,-176.5 300,-176.5 300,-146.5 125,-146.5"/>
<text text-anchor="start" x="133" y="-164.5" font-family="Helvetica,sans-Serif" font-size="10.00">MoFEM::interface_FiniteElement</text>
<text text-anchor="middle" x="212.5" y="-153.5" font-family="Helvetica,sans-Serif" font-size="10.00">Impl&lt; FE, REFENT &gt;</text>
</a>
</g>
</g>
<!-- Node6&#45;&gt;Node2 -->
<g id="edge5" class="edge">
<title>Node6&#45;&gt;Node2</title>
<path fill="none" stroke="orange" stroke-dasharray="5,2" d="M185.67,-140.11C168.47,-127.04 146.57,-110.39 131.22,-98.73"/>
<polygon fill="orange" stroke="orange" points="183.61,-142.94 193.69,-146.2 187.85,-137.37 183.61,-142.94"/>
<text text-anchor="middle" x="190.5" y="-120" font-family="Helvetica,sans-Serif" font-size="10.00"> &lt; T, T &gt;</text>
</g>
<!-- Node7&#45;&gt;Node6 -->
<g id="edge6" class="edge">
<title>Node7&#45;&gt;Node6</title>
<path fill="none" stroke="midnightblue" d="M212.5,-204.03C212.5,-194.86 212.5,-184.74 212.5,-176.79"/>
<polygon fill="midnightblue" stroke="midnightblue" points="209,-204.18 212.5,-214.18 216,-204.18 209,-204.18"/>
</g>
<!-- Node8&#45;&gt;Node7 -->
<g id="edge7" class="edge">
<title>Node8&#45;&gt;Node7</title>
<path fill="none" stroke="midnightblue" d="M266.32,-285.03C253.58,-272.13 237.74,-256.07 226.54,-244.73"/>
<polygon fill="midnightblue" stroke="midnightblue" points="263.88,-287.55 273.39,-292.2 268.86,-282.63 263.88,-287.55"/>
</g>
<!-- Node9 -->
<g id="node9" class="node">
<title>Node9</title>
<g id="a_node9"><a xlink:href="classboost_1_1shared__ptr_3_01REFENT_01_4.html" target="_top" xlink:title=" ">
<polygon fill="white" stroke="black" points="223,-370.5 223,-389.5 352,-389.5 352,-370.5 223,-370.5"/>
<text text-anchor="middle" x="287.5" y="-377.5" font-family="Helvetica,sans-Serif" font-size="10.00">shared_ptr&lt; REFENT &gt;</text>
</a>
</g>
</g>
<!-- Node9&#45;&gt;Node8 -->
<g id="edge8" class="edge">
<title>Node9&#45;&gt;Node8</title>
<path fill="none" stroke="#9a32cd" stroke-dasharray="5,2" d="M287.5,-360.24C287.5,-348.41 287.5,-333.38 287.5,-322.58"/>
<polygon fill="#9a32cd" stroke="#9a32cd" points="284,-360.36 287.5,-370.36 291,-360.36 284,-360.36"/>
<text text-anchor="middle" x="298.5" y="-344" font-family="Helvetica,sans-Serif" font-size="10.00"> sPtr</text>
</g>
</g>
</svg>
