<?xml version="1.0" encoding="UTF-8" standalone="no"?>
<!DOCTYPE svg PUBLIC "-//W3C//DTD SVG 1.1//EN"
 "http://www.w3.org/Graphics/SVG/1.1/DTD/svg11.dtd">
<!-- Generated by graphviz version 2.43.0 (0)
 -->
<!-- Title: MoFEM::CubitMeshSets_change_attributes_data_structure Pages: 1 -->
<svg width="1593pt" height="138pt"
 viewBox="0.00 0.00 1593.00 138.00" xmlns="http://www.w3.org/2000/svg" xmlns:xlink="http://www.w3.org/1999/xlink">
<g id="graph0" class="graph" transform="scale(1 1) rotate(0) translate(4 134)">
<title>MoFEM::CubitMeshSets_change_attributes_data_structure</title>
<polygon fill="white" stroke="transparent" points="-4,4 -4,-134 1589,-134 1589,4 -4,4"/>
<!-- Node1 -->
<g id="node1" class="node">
<title>Node1</title>
<g id="a_node1"><a xlink:title=" ">
<polygon fill="#bfbfbf" stroke="black" points="1448,-46.5 1448,-87.5 1585,-87.5 1585,-46.5 1448,-46.5"/>
<text text-anchor="start" x="1456" y="-75.5" font-family="Helvetica,sans-Serif" font-size="10.00">MoFEM::CubitMeshSets</text>
<text text-anchor="start" x="1456" y="-64.5" font-family="Helvetica,sans-Serif" font-size="10.00">_change_attributes_data</text>
<text text-anchor="middle" x="1516.5" y="-53.5" font-family="Helvetica,sans-Serif" font-size="10.00">_structure</text>
</a>
</g>
</g>
<!-- Node2 -->
<g id="node2" class="node">
<title>Node2</title>
<g id="a_node2"><a xlink:href="structMoFEM_1_1DeprecatedCoreInterface.html" target="_top" xlink:title="Deprecated interface functions.">
<polygon fill="white" stroke="black" points="1198,-76.5 1198,-95.5 1379,-95.5 1379,-76.5 1198,-76.5"/>
<text text-anchor="middle" x="1288.5" y="-83.5" font-family="Helvetica,sans-Serif" font-size="10.00">MoFEM::DeprecatedCoreInterface</text>
</a>
</g>
</g>
<!-- Node2&#45;&gt;Node1 -->
<g id="edge1" class="edge">
<title>Node2&#45;&gt;Node1</title>
<path fill="none" stroke="#9a32cd" stroke-dasharray="5,2" d="M1389.16,-77.62C1409.03,-75.95 1429.45,-74.23 1447.94,-72.68"/>
<polygon fill="#9a32cd" stroke="#9a32cd" points="1388.82,-74.14 1379.15,-78.46 1389.4,-81.11 1388.82,-74.14"/>
<text text-anchor="middle" x="1413.5" y="-80" font-family="Helvetica,sans-Serif" font-size="10.00"> mOab</text>
</g>
<!-- Node3 -->
<g id="node3" class="node">
<title>Node3</title>
<g id="a_node3"><a xlink:href="structMoFEM_1_1CoreInterface.html" target="_top" xlink:title="Interface.">
<polygon fill="white" stroke="black" points="920,-76.5 920,-95.5 1045,-95.5 1045,-76.5 920,-76.5"/>
<text text-anchor="middle" x="982.5" y="-83.5" font-family="Helvetica,sans-Serif" font-size="10.00">MoFEM::CoreInterface</text>
</a>
</g>
</g>
<!-- Node3&#45;&gt;Node2 -->
<g id="edge2" class="edge">
<title>Node3&#45;&gt;Node2</title>
<path fill="none" stroke="midnightblue" d="M1055.04,-86C1097.72,-86 1152.29,-86 1197.83,-86"/>
<polygon fill="midnightblue" stroke="midnightblue" points="1055.02,-82.5 1045.02,-86 1055.02,-89.5 1055.02,-82.5"/>
</g>
<!-- Node4 -->
<g id="node4" class="node">
<title>Node4</title>
<g id="a_node4"><a xlink:href="structMoFEM_1_1UnknownInterface.html" target="_top" xlink:title="base class for all interface classes">
<polygon fill="white" stroke="black" points="735,-76.5 735,-95.5 883,-95.5 883,-76.5 735,-76.5"/>
<text text-anchor="middle" x="809" y="-83.5" font-family="Helvetica,sans-Serif" font-size="10.00">MoFEM::UnknownInterface</text>
</a>
</g>
</g>
<!-- Node4&#45;&gt;Node3 -->
<g id="edge3" class="edge">
<title>Node4&#45;&gt;Node3</title>
<path fill="none" stroke="midnightblue" d="M893.29,-86C902.24,-86 911.22,-86 919.85,-86"/>
<polygon fill="midnightblue" stroke="midnightblue" points="893.23,-82.5 883.23,-86 893.23,-89.5 893.23,-82.5"/>
</g>
<!-- Node5 -->
<g id="node5" class="node">
<title>Node5</title>
<g id="a_node5"><a xlink:title=" ">
<polygon fill="white" stroke="#bfbfbf" points="386,-54.5 386,-117.5 627,-117.5 627,-54.5 386,-54.5"/>
<text text-anchor="start" x="394" y="-105.5" font-family="Helvetica,sans-Serif" font-size="10.00">multi_index_container</text>
<text text-anchor="start" x="394" y="-94.5" font-family="Helvetica,sans-Serif" font-size="10.00">&lt; UIdTypeMap, indexed</text>
<text text-anchor="start" x="394" y="-83.5" font-family="Helvetica,sans-Serif" font-size="10.00">_by&lt; hashed_unique&lt; member</text>
<text text-anchor="start" x="394" y="-72.5" font-family="Helvetica,sans-Serif" font-size="10.00">&lt; UIdTypeMap, boost::typeindex</text>
<text text-anchor="middle" x="506.5" y="-61.5" font-family="Helvetica,sans-Serif" font-size="10.00">::type_index, &amp;UIdTypeMap::classIdx &gt; &gt; &gt; &gt;</text>
</a>
</g>
</g>
<!-- Node5&#45;&gt;Node4 -->
<g id="edge4" class="edge">
<title>Node5&#45;&gt;Node4</title>
<path fill="none" stroke="#9a32cd" stroke-dasharray="5,2" d="M637.41,-86C670.69,-86 705.33,-86 734.62,-86"/>
<polygon fill="#9a32cd" stroke="#9a32cd" points="637.13,-82.5 627.13,-86 637.13,-89.5 637.13,-82.5"/>
<text text-anchor="middle" x="681" y="-89" font-family="Helvetica,sans-Serif" font-size="10.00"> iFaceTypeMap</text>
</g>
<!-- Node6 -->
<g id="node6" class="node">
<title>Node6</title>
<g id="a_node6"><a xlink:title=" ">
<polygon fill="white" stroke="#bfbfbf" points="0,-76.5 0,-95.5 125,-95.5 125,-76.5 0,-76.5"/>
<text text-anchor="middle" x="62.5" y="-83.5" font-family="Helvetica,sans-Serif" font-size="10.00">multi_index_container</text>
</a>
</g>
</g>
<!-- Node6&#45;&gt;Node5 -->
<g id="edge5" class="edge">
<title>Node6&#45;&gt;Node5</title>
<path fill="none" stroke="orange" stroke-dasharray="5,2" d="M135.56,-86C203.25,-86 305.79,-86 385.77,-86"/>
<polygon fill="orange" stroke="orange" points="135.42,-82.5 125.42,-86 135.42,-89.5 135.42,-82.5"/>
<text text-anchor="start" x="143" y="-122" font-family="Helvetica,sans-Serif" font-size="10.00"> &lt; UIdTypeMap, indexed</text>
<text text-anchor="start" x="143" y="-111" font-family="Helvetica,sans-Serif" font-size="10.00">_by&lt; hashed_unique&lt; member</text>
<text text-anchor="start" x="143" y="-100" font-family="Helvetica,sans-Serif" font-size="10.00">&lt; UIdTypeMap, boost::typeindex</text>
<text text-anchor="middle" x="255.5" y="-89" font-family="Helvetica,sans-Serif" font-size="10.00">::type_index, &amp;UIdTypeMap::classIdx &gt; &gt; &gt; &gt;</text>
</g>
<!-- Node7 -->
<g id="node7" class="node">
<title>Node7</title>
<g id="a_node7"><a xlink:href="structMoFEM_1_1GenericAttributeData.html" target="_top" xlink:title="Generic attribute data structure.">
<polygon fill="white" stroke="black" points="1207.5,-38.5 1207.5,-57.5 1369.5,-57.5 1369.5,-38.5 1207.5,-38.5"/>
<text text-anchor="middle" x="1288.5" y="-45.5" font-family="Helvetica,sans-Serif" font-size="10.00">MoFEM::GenericAttributeData</text>
</a>
</g>
</g>
<!-- Node7&#45;&gt;Node1 -->
<g id="edge6" class="edge">
<title>Node7&#45;&gt;Node1</title>
<path fill="none" stroke="#9a32cd" stroke-dasharray="5,2" d="M1379.79,-55.59C1402.46,-57.5 1426.41,-59.51 1447.77,-61.31"/>
<polygon fill="#9a32cd" stroke="#9a32cd" points="1380.07,-52.1 1369.82,-54.75 1379.49,-59.08 1380.07,-52.1"/>
<text text-anchor="middle" x="1413.5" y="-63" font-family="Helvetica,sans-Serif" font-size="10.00"> aTtr</text>
</g>
<!-- Node8 -->
<g id="node8" class="node">
<title>Node8</title>
<g id="a_node8"><a xlink:title=" ">
<polygon fill="white" stroke="#bfbfbf" points="929,-38.5 929,-57.5 1036,-57.5 1036,-38.5 929,-38.5"/>
<text text-anchor="middle" x="982.5" y="-45.5" font-family="Helvetica,sans-Serif" font-size="10.00">const CubitBCType</text>
</a>
</g>
</g>
<!-- Node8&#45;&gt;Node7 -->
<g id="edge7" class="edge">
<title>Node8&#45;&gt;Node7</title>
<path fill="none" stroke="#9a32cd" stroke-dasharray="5,2" d="M1046.38,-48C1093.01,-48 1156.96,-48 1207.28,-48"/>
<polygon fill="#9a32cd" stroke="#9a32cd" points="1046.11,-44.5 1036.11,-48 1046.11,-51.5 1046.11,-44.5"/>
<text text-anchor="middle" x="1121.5" y="-51" font-family="Helvetica,sans-Serif" font-size="10.00"> tYpe</text>
</g>
<!-- Node9 -->
<g id="node9" class="node">
<title>Node9</title>
<g id="a_node9"><a xlink:title=" ">
<polygon fill="white" stroke="#bfbfbf" points="952,-0.5 952,-19.5 1013,-19.5 1013,-0.5 952,-0.5"/>
<text text-anchor="middle" x="982.5" y="-7.5" font-family="Helvetica,sans-Serif" font-size="10.00">unsigned</text>
</a>
</g>
</g>
<!-- Node9&#45;&gt;Node7 -->
<g id="edge8" class="edge">
<title>Node9&#45;&gt;Node7</title>
<path fill="none" stroke="#9a32cd" stroke-dasharray="5,2" d="M1023.22,-14.39C1062.94,-18.84 1125.74,-26.04 1180,-33 1193.27,-34.7 1207.45,-36.61 1221.01,-38.49"/>
<polygon fill="#9a32cd" stroke="#9a32cd" points="1023.48,-10.9 1013.15,-13.26 1022.7,-17.85 1023.48,-10.9"/>
<text text-anchor="middle" x="1121.5" y="-36" font-family="Helvetica,sans-Serif" font-size="10.00"> minNumberOfAtributes</text>
</g>
</g>
</svg>
