<?xml version="1.0" encoding="UTF-8" standalone="no"?>
<!DOCTYPE svg PUBLIC "-//W3C//DTD SVG 1.1//EN"
 "http://www.w3.org/Graphics/SVG/1.1/DTD/svg11.dtd">
<!-- Generated by graphviz version 9.0.0 (20230911.1827)
 -->
<!-- Title: MixedPoisson::CommonData Pages: 1 -->
<svg width="753pt" height="159pt"
 viewBox="0.00 0.00 753.25 158.50" xmlns="http://www.w3.org/2000/svg" xmlns:xlink="http://www.w3.org/1999/xlink">
<g id="graph0" class="graph" transform="scale(1 1) rotate(0) translate(4 154.5)">
<title>MixedPoisson::CommonData</title>
<!-- Node1 -->
<g id="node1" class="node">
<title>Node1</title>
<g id="a_node1"><a xlink:title=" ">
<polygon fill="#999999" stroke="#666666" points="745.25,-83.5 601,-83.5 601,-64.25 745.25,-64.25 745.25,-83.5"/>
<text text-anchor="middle" x="673.12" y="-70" font-family="Helvetica,sans-Serif" font-size="10.00">MixedPoisson::CommonData</text>
</a>
</g>
</g>
<!-- Node2 -->
<g id="node2" class="node">
<title>Node2</title>
<g id="a_node2"><a xlink:title=" ">
<polygon fill="white" stroke="#666666" points="484.75,-150.5 345.75,-150.5 345.75,-131.25 484.75,-131.25 484.75,-150.5"/>
<text text-anchor="middle" x="415.25" y="-137" font-family="Helvetica,sans-Serif" font-size="10.00">shared_ptr&lt; VectorDouble &gt;</text>
</a>
</g>
</g>
<!-- Node2&#45;&gt;Node1 -->
<g id="edge1" class="edge">
<title>Node2&#45;&gt;Node1</title>
<path fill="none" stroke="#9a32cd" stroke-dasharray="5,2" d="M496.29,-133.68C524.12,-129.92 555.3,-124.28 583,-115.88 609.03,-107.98 637.1,-93.69 654.64,-83.99"/>
<polygon fill="#9a32cd" stroke="#9a32cd" points="495.96,-130.19 486.49,-134.94 496.85,-137.14 495.96,-130.19"/>
<text text-anchor="middle" x="542.88" y="-133.62" font-family="Helvetica,sans-Serif" font-size="10.00"> approxVals</text>
</g>
<!-- Node3 -->
<g id="node3" class="node">
<title>Node3</title>
<g id="a_node3"><a xlink:title=" ">
<polygon fill="white" stroke="#666666" points="484,-107.5 346.5,-107.5 346.5,-88.25 484,-88.25 484,-107.5"/>
<text text-anchor="middle" x="415.25" y="-94" font-family="Helvetica,sans-Serif" font-size="10.00">shared_ptr&lt; MatrixDouble &gt;</text>
</a>
</g>
</g>
<!-- Node3&#45;&gt;Node1 -->
<g id="edge2" class="edge">
<title>Node3&#45;&gt;Node1</title>
<path fill="none" stroke="#9a32cd" stroke-dasharray="5,2" d="M495.63,-90.43C529.15,-87.29 567.88,-83.65 600.51,-80.59"/>
<polygon fill="#9a32cd" stroke="#9a32cd" points="495.62,-86.91 485.99,-91.33 496.27,-93.88 495.62,-86.91"/>
<text text-anchor="middle" x="542.88" y="-101.88" font-family="Helvetica,sans-Serif" font-size="10.00"> approxFlux</text>
<text text-anchor="middle" x="542.88" y="-90.62" font-family="Helvetica,sans-Serif" font-size="10.00">approxValsGrad</text>
</g>
<!-- Node4 -->
<g id="node4" class="node">
<title>Node4</title>
<g id="a_node4"><a xlink:href="struct_mo_f_e_m_1_1_smart_petsc_obj.html" target="_top" xlink:title=" ">
<polygon fill="white" stroke="#666666" points="476.88,-70.12 353.62,-70.12 353.62,-39.62 476.88,-39.62 476.88,-70.12"/>
<text text-anchor="start" x="361.62" y="-56.62" font-family="Helvetica,sans-Serif" font-size="10.00">MoFEM::SmartPetscObj</text>
<text text-anchor="middle" x="415.25" y="-45.38" font-family="Helvetica,sans-Serif" font-size="10.00">&lt; Vec &gt;</text>
</a>
</g>
</g>
<!-- Node4&#45;&gt;Node1 -->
<g id="edge3" class="edge">
<title>Node4&#45;&gt;Node1</title>
<path fill="none" stroke="#9a32cd" stroke-dasharray="5,2" d="M488.72,-56.29C518.04,-57.26 552.17,-58.89 583,-61.62 589.69,-62.22 596.65,-62.96 603.59,-63.78"/>
<polygon fill="#9a32cd" stroke="#9a32cd" points="488.94,-52.8 478.84,-55.99 488.72,-59.79 488.94,-52.8"/>
<text text-anchor="middle" x="542.88" y="-62.62" font-family="Helvetica,sans-Serif" font-size="10.00"> petscVec</text>
</g>
<!-- Node5 -->
<g id="node5" class="node">
<title>Node5</title>
<g id="a_node5"><a xlink:title=" ">
<polygon fill="white" stroke="#666666" points="265.5,-95.75 154.25,-95.75 154.25,-54 265.5,-54 265.5,-95.75"/>
<text text-anchor="start" x="162.25" y="-82.25" font-family="Helvetica,sans-Serif" font-size="10.00">boost::intrusive_ptr</text>
<text text-anchor="start" x="162.25" y="-71" font-family="Helvetica,sans-Serif" font-size="10.00">&lt; std::remove_pointer</text>
<text text-anchor="middle" x="209.88" y="-59.75" font-family="Helvetica,sans-Serif" font-size="10.00">&lt; Vec &#160;&gt;::type &gt;</text>
</a>
</g>
</g>
<!-- Node5&#45;&gt;Node4 -->
<g id="edge4" class="edge">
<title>Node5&#45;&gt;Node4</title>
<path fill="none" stroke="#63b8ff" d="M277.3,-68.34C301.81,-65.93 329.45,-63.21 353.44,-60.85"/>
<polygon fill="#63b8ff" stroke="#63b8ff" points="277.03,-64.85 267.42,-69.31 277.71,-71.82 277.03,-64.85"/>
</g>
<!-- Node6 -->
<g id="node6" class="node">
<title>Node6</title>
<g id="a_node6"><a xlink:href="struct_mo_f_e_m_1_1_smart_petsc_obj.html" target="_top" xlink:title="intrusive_ptr for managing petsc objects">
<polygon fill="white" stroke="#666666" points="271.5,-36.12 148.25,-36.12 148.25,-5.62 271.5,-5.62 271.5,-36.12"/>
<text text-anchor="start" x="156.25" y="-22.62" font-family="Helvetica,sans-Serif" font-size="10.00">MoFEM::SmartPetscObj</text>
<text text-anchor="middle" x="209.88" y="-11.38" font-family="Helvetica,sans-Serif" font-size="10.00">&lt; OBJ &gt;</text>
</a>
</g>
</g>
<!-- Node6&#45;&gt;Node4 -->
<g id="edge5" class="edge">
<title>Node6&#45;&gt;Node4</title>
<path fill="none" stroke="orange" stroke-dasharray="5,2" d="M282.98,-32.93C305.96,-36.77 331.16,-40.98 353.27,-44.68"/>
<polygon fill="orange" stroke="orange" points="283.83,-29.52 273.39,-31.33 282.67,-36.43 283.83,-29.52"/>
<text text-anchor="middle" x="308.62" y="-41.62" font-family="Helvetica,sans-Serif" font-size="10.00"> &lt; Vec &gt;</text>
</g>
<!-- Node7 -->
<g id="node7" class="node">
<title>Node7</title>
<g id="a_node7"><a xlink:title=" ">
<polygon fill="white" stroke="#666666" points="111.25,-41.75 0,-41.75 0,0 111.25,0 111.25,-41.75"/>
<text text-anchor="start" x="8" y="-28.25" font-family="Helvetica,sans-Serif" font-size="10.00">boost::intrusive_ptr</text>
<text text-anchor="start" x="8" y="-17" font-family="Helvetica,sans-Serif" font-size="10.00">&lt; std::remove_pointer</text>
<text text-anchor="middle" x="55.62" y="-5.75" font-family="Helvetica,sans-Serif" font-size="10.00">&lt; OBJ &gt;::type &gt;</text>
</a>
</g>
</g>
<!-- Node7&#45;&gt;Node6 -->
<g id="edge6" class="edge">
<title>Node7&#45;&gt;Node6</title>
<path fill="none" stroke="#63b8ff" d="M123.07,-20.88C131.29,-20.88 139.66,-20.88 147.8,-20.88"/>
<polygon fill="#63b8ff" stroke="#63b8ff" points="123.1,-17.38 113.1,-20.88 123.1,-24.38 123.1,-17.38"/>
</g>
<!-- Node8 -->
<g id="node8" class="node">
<title>Node8</title>
<g id="a_node8"><a xlink:href="classdouble.html" target="_top" xlink:title=" ">
<polygon fill="white" stroke="#666666" points="437.5,-21.5 393,-21.5 393,-2.25 437.5,-2.25 437.5,-21.5"/>
<text text-anchor="middle" x="415.25" y="-8" font-family="Helvetica,sans-Serif" font-size="10.00">double</text>
</a>
</g>
</g>
<!-- Node8&#45;&gt;Node1 -->
<g id="edge7" class="edge">
<title>Node8&#45;&gt;Node1</title>
<path fill="none" stroke="#9a32cd" stroke-dasharray="5,2" d="M448.91,-16.02C482.79,-20.71 537.14,-29.33 583,-41.62 605.41,-47.63 630.17,-56.8 647.9,-63.83"/>
<polygon fill="#9a32cd" stroke="#9a32cd" points="449.71,-12.6 439.33,-14.73 448.77,-19.53 449.71,-12.6"/>
<text text-anchor="middle" x="542.88" y="-42.62" font-family="Helvetica,sans-Serif" font-size="10.00"> maxErrorIndicator</text>
</g>
</g>
</svg>
