<?xml version="1.0" encoding="UTF-8" standalone="no"?>
<!DOCTYPE svg PUBLIC "-//W3C//DTD SVG 1.1//EN"
 "http://www.w3.org/Graphics/SVG/1.1/DTD/svg11.dtd">
<!-- Generated by graphviz version 9.0.0 (20230911.1827)
 -->
<!-- Title: FractureMechanics::OpAnalyticalMaterialTraction Pages: 1 -->
<svg width="1183pt" height="768pt"
 viewBox="0.00 0.00 1182.75 767.88" xmlns="http://www.w3.org/2000/svg" xmlns:xlink="http://www.w3.org/1999/xlink">
<g id="graph0" class="graph" transform="scale(1 1) rotate(0) translate(4 763.88)">
<title>FractureMechanics::OpAnalyticalMaterialTraction</title>
<!-- Node1 -->
<g id="node1" class="node">
<title>Node1</title>
<g id="a_node1"><a xlink:title=" ">
<polygon fill="#999999" stroke="#666666" points="1174.75,-196.88 1033.5,-196.88 1033.5,-166.38 1174.75,-166.38 1174.75,-196.88"/>
<text text-anchor="start" x="1041.5" y="-183.38" font-family="Helvetica,sans-Serif" font-size="10.00">FractureMechanics::</text>
<text text-anchor="middle" x="1104.12" y="-172.12" font-family="Helvetica,sans-Serif" font-size="10.00">OpAnalyticalMaterialTraction</text>
</a>
</g>
</g>
<!-- Node2 -->
<g id="node2" class="node">
<title>Node2</title>
<g id="a_node2"><a xlink:title=" ">
<polygon fill="white" stroke="#666666" points="876,-759.88 719,-759.88 719,-729.38 876,-729.38 876,-759.88"/>
<text text-anchor="start" x="727" y="-746.38" font-family="Helvetica,sans-Serif" font-size="10.00">FaceElementForcesAndSources</text>
<text text-anchor="middle" x="797.5" y="-735.12" font-family="Helvetica,sans-Serif" font-size="10.00">Core::UserDataOperator</text>
</a>
</g>
</g>
<!-- Node2&#45;&gt;Node1 -->
<g id="edge1" class="edge">
<title>Node2&#45;&gt;Node1</title>
<path fill="none" stroke="#63b8ff" d="M887.64,-755.66C931.67,-755.98 982.32,-747.83 1015.5,-715.62 1092.18,-641.19 1101.77,-277.33 1102.96,-197.24"/>
<polygon fill="#63b8ff" stroke="#63b8ff" points="887.91,-752.16 877.83,-755.43 887.74,-759.16 887.91,-752.16"/>
</g>
<!-- Node3 -->
<g id="node3" class="node">
<title>Node3</title>
<g id="a_node3"><a xlink:href="class_range.html" target="_top" xlink:title=" ">
<polygon fill="white" stroke="#666666" points="106.38,-649.25 61.88,-649.25 61.88,-630 106.38,-630 106.38,-649.25"/>
<text text-anchor="middle" x="84.12" y="-635.75" font-family="Helvetica,sans-Serif" font-size="10.00">Range</text>
</a>
</g>
</g>
<!-- Node3&#45;&gt;Node1 -->
<g id="edge2" class="edge">
<title>Node3&#45;&gt;Node1</title>
<path fill="none" stroke="#9a32cd" stroke-dasharray="5,2" d="M117.85,-648.98C209.02,-673.19 471.66,-730.2 661.25,-643.62 850.5,-557.2 895.41,-507.52 1015.5,-337.62 1049.75,-289.18 1081.67,-226.18 1095.67,-197.32"/>
<polygon fill="#9a32cd" stroke="#9a32cd" points="118.9,-645.64 108.33,-646.4 117.06,-652.39 118.9,-645.64"/>
<text text-anchor="middle" x="583.62" y="-696.62" font-family="Helvetica,sans-Serif" font-size="10.00"> forcesOnlyOnEntitiesRow</text>
<text text-anchor="middle" x="583.62" y="-685.38" font-family="Helvetica,sans-Serif" font-size="10.00">tRis</text>
</g>
<!-- Node6 -->
<g id="node6" class="node">
<title>Node6</title>
<g id="a_node6"><a xlink:href="struct_fracture_mechanics_1_1_crack_front_singular_base.html" target="_top" xlink:title=" ">
<polygon fill="white" stroke="#666666" points="915.75,-370.12 679.25,-370.12 679.25,-317.12 915.75,-317.12 915.75,-370.12"/>
<text text-anchor="start" x="687.25" y="-356.62" font-family="Helvetica,sans-Serif" font-size="10.00">FractureMechanics::</text>
<text text-anchor="start" x="687.25" y="-345.38" font-family="Helvetica,sans-Serif" font-size="10.00">CrackFrontSingularBase</text>
<text text-anchor="start" x="687.25" y="-334.12" font-family="Helvetica,sans-Serif" font-size="10.00">&lt; FractureMechanics::FirendVolume</text>
<text text-anchor="middle" x="797.5" y="-322.88" font-family="Helvetica,sans-Serif" font-size="10.00">OnSide, VolumeElementForcesAndSourcesCore &gt;</text>
</a>
</g>
</g>
<!-- Node3&#45;&gt;Node6 -->
<g id="edge8" class="edge">
<title>Node3&#45;&gt;Node6</title>
<path fill="none" stroke="#9a32cd" stroke-dasharray="5,2" d="M117.88,-640.49C233.17,-643.27 615.67,-650.15 661.25,-620.62 750.41,-562.87 782.62,-428.14 792.59,-370.53"/>
<polygon fill="#9a32cd" stroke="#9a32cd" points="118.27,-637 108.19,-640.25 118.1,-644 118.27,-637"/>
<text text-anchor="middle" x="405.38" y="-666.88" font-family="Helvetica,sans-Serif" font-size="10.00"> crackFrontElements</text>
<text text-anchor="middle" x="405.38" y="-655.62" font-family="Helvetica,sans-Serif" font-size="10.00">crackFrontNodes</text>
<text text-anchor="middle" x="405.38" y="-644.38" font-family="Helvetica,sans-Serif" font-size="10.00">crackFrontNodesEdges</text>
</g>
<!-- Node14 -->
<g id="node14" class="node">
<title>Node14</title>
<g id="a_node14"><a xlink:href="struct_fracture_mechanics_1_1_crack_front_singular_base.html" target="_top" xlink:title=" ">
<polygon fill="white" stroke="#666666" points="488,-304.5 322.75,-304.5 322.75,-262.75 488,-262.75 488,-304.5"/>
<text text-anchor="start" x="330.75" y="-291" font-family="Helvetica,sans-Serif" font-size="10.00">FractureMechanics::</text>
<text text-anchor="start" x="330.75" y="-279.75" font-family="Helvetica,sans-Serif" font-size="10.00">CrackFrontSingularBase</text>
<text text-anchor="middle" x="405.38" y="-268.5" font-family="Helvetica,sans-Serif" font-size="10.00">&lt; ELEMENT, BASE_ELEMENT &gt;</text>
</a>
</g>
</g>
<!-- Node3&#45;&gt;Node14 -->
<g id="edge16" class="edge">
<title>Node3&#45;&gt;Node14</title>
<path fill="none" stroke="#9a32cd" stroke-dasharray="5,2" d="M115.56,-624.71C173.12,-596.23 293.2,-535.34 304.75,-517.62 352.52,-444.34 272.4,-393.16 322.75,-321.62 327.43,-314.98 333.57,-309.46 340.4,-304.9"/>
<polygon fill="#9a32cd" stroke="#9a32cd" points="114.36,-621.4 106.94,-628.96 117.46,-627.68 114.36,-621.4"/>
<text text-anchor="middle" x="245.5" y="-610.88" font-family="Helvetica,sans-Serif" font-size="10.00"> crackFrontElements</text>
<text text-anchor="middle" x="245.5" y="-599.62" font-family="Helvetica,sans-Serif" font-size="10.00">crackFrontNodes</text>
<text text-anchor="middle" x="245.5" y="-588.38" font-family="Helvetica,sans-Serif" font-size="10.00">crackFrontNodesEdges</text>
</g>
<!-- Node4 -->
<g id="node4" class="node">
<title>Node4</title>
<g id="a_node4"><a xlink:title=" ">
<polygon fill="white" stroke="#666666" points="867.38,-153.88 727.62,-153.88 727.62,-123.38 867.38,-123.38 867.38,-153.88"/>
<text text-anchor="start" x="735.62" y="-140.38" font-family="Helvetica,sans-Serif" font-size="10.00">ptr_vector&lt; MethodForForce</text>
<text text-anchor="middle" x="797.5" y="-129.12" font-family="Helvetica,sans-Serif" font-size="10.00">Scaling &gt; &amp;</text>
</a>
</g>
</g>
<!-- Node4&#45;&gt;Node1 -->
<g id="edge3" class="edge">
<title>Node4&#45;&gt;Node1</title>
<path fill="none" stroke="#9a32cd" stroke-dasharray="5,2" d="M879.18,-141.4C920.25,-143.78 970.81,-148.19 1015.5,-156.38 1028.58,-158.77 1042.51,-162.31 1055.33,-165.99"/>
<polygon fill="#9a32cd" stroke="#9a32cd" points="879.55,-137.92 869.37,-140.87 879.16,-144.91 879.55,-137.92"/>
<text text-anchor="middle" x="974.62" y="-157.38" font-family="Helvetica,sans-Serif" font-size="10.00"> methodsOp</text>
</g>
<!-- Node5 -->
<g id="node5" class="node">
<title>Node5</title>
<g id="a_node5"><a xlink:title=" ">
<polygon fill="white" stroke="#666666" points="891.75,-104.88 703.25,-104.88 703.25,-74.38 891.75,-74.38 891.75,-104.88"/>
<text text-anchor="start" x="711.25" y="-91.38" font-family="Helvetica,sans-Serif" font-size="10.00">ptr_vector&lt; NeumannForces</text>
<text text-anchor="middle" x="797.5" y="-80.12" font-family="Helvetica,sans-Serif" font-size="10.00">Surface::MethodForAnalyticalForce &gt; &amp;</text>
</a>
</g>
</g>
<!-- Node5&#45;&gt;Node1 -->
<g id="edge4" class="edge">
<title>Node5&#45;&gt;Node1</title>
<path fill="none" stroke="#9a32cd" stroke-dasharray="5,2" d="M903.12,-101.82C939.44,-107.99 979.95,-117.1 1015.5,-130.38 1039.27,-139.25 1064.03,-154.36 1081.14,-165.88"/>
<polygon fill="#9a32cd" stroke="#9a32cd" points="903.92,-98.41 893.49,-100.25 902.79,-105.32 903.92,-98.41"/>
<text text-anchor="middle" x="974.62" y="-131.38" font-family="Helvetica,sans-Serif" font-size="10.00"> analyticalForceOp</text>
</g>
<!-- Node6&#45;&gt;Node1 -->
<g id="edge5" class="edge">
<title>Node6&#45;&gt;Node1</title>
<path fill="none" stroke="#9a32cd" stroke-dasharray="5,2" d="M859.24,-311.32C924.12,-276.82 1024.26,-223.56 1073.59,-197.33"/>
<polygon fill="#9a32cd" stroke="#9a32cd" points="857.67,-308.2 850.48,-315.98 860.95,-314.38 857.67,-308.2"/>
<text text-anchor="middle" x="974.62" y="-268.38" font-family="Helvetica,sans-Serif" font-size="10.00"> volSideFe</text>
</g>
<!-- Node7 -->
<g id="node7" class="node">
<title>Node7</title>
<g id="a_node7"><a xlink:href="struct_fracture_mechanics_1_1_firend_volume_on_side.html" target="_top" xlink:title=" ">
<polygon fill="white" stroke="#666666" points="459.5,-518.88 351.25,-518.88 351.25,-488.38 459.5,-488.38 459.5,-518.88"/>
<text text-anchor="start" x="359.25" y="-505.38" font-family="Helvetica,sans-Serif" font-size="10.00">FractureMechanics::</text>
<text text-anchor="middle" x="405.38" y="-494.12" font-family="Helvetica,sans-Serif" font-size="10.00">FirendVolumeOnSide</text>
</a>
</g>
</g>
<!-- Node7&#45;&gt;Node6 -->
<g id="edge6" class="edge">
<title>Node7&#45;&gt;Node6</title>
<path fill="none" stroke="#63b8ff" d="M470.36,-485.02C522.59,-469.07 597.85,-444.33 661.25,-416.62 692.06,-403.16 725.3,-385.27 751.12,-370.57"/>
<polygon fill="#63b8ff" stroke="#63b8ff" points="469.58,-481.6 461.02,-487.85 471.61,-488.3 469.58,-481.6"/>
</g>
<!-- Node8 -->
<g id="node8" class="node">
<title>Node8</title>
<g id="a_node8"><a xlink:title=" ">
<polygon fill="white" stroke="#666666" points="168.25,-514.88 0,-514.88 0,-484.38 168.25,-484.38 168.25,-514.88"/>
<text text-anchor="start" x="8" y="-501.38" font-family="Helvetica,sans-Serif" font-size="10.00">VolumeElementForcesAndSources</text>
<text text-anchor="middle" x="84.12" y="-490.12" font-family="Helvetica,sans-Serif" font-size="10.00">CoreOnSide</text>
</a>
</g>
</g>
<!-- Node8&#45;&gt;Node7 -->
<g id="edge7" class="edge">
<title>Node8&#45;&gt;Node7</title>
<path fill="none" stroke="#63b8ff" d="M179.94,-500.81C235.79,-501.51 304.38,-502.37 350.93,-502.96"/>
<polygon fill="#63b8ff" stroke="#63b8ff" points="180.14,-497.32 170.1,-500.69 180.06,-504.31 180.14,-497.32"/>
</g>
<!-- Node9 -->
<g id="node9" class="node">
<title>Node9</title>
<g id="a_node9"><a xlink:title=" ">
<polygon fill="white" stroke="#666666" points="121,-434.25 47.25,-434.25 47.25,-415 121,-415 121,-434.25"/>
<text text-anchor="middle" x="84.12" y="-420.75" font-family="Helvetica,sans-Serif" font-size="10.00">MatrixDouble</text>
</a>
</g>
</g>
<!-- Node9&#45;&gt;Node6 -->
<g id="edge9" class="edge">
<title>Node9&#45;&gt;Node6</title>
<path fill="none" stroke="#9a32cd" stroke-dasharray="5,2" d="M112.96,-439.92C157.49,-462.1 245.72,-496.42 304.75,-456.62 322.44,-444.7 305.96,-425.29 322.75,-412.12 336.72,-401.17 543.11,-374.32 678.82,-357.68"/>
<polygon fill="#9a32cd" stroke="#9a32cd" points="114.72,-436.89 104.23,-435.43 111.52,-443.12 114.72,-436.89"/>
<text text-anchor="middle" x="405.38" y="-469.62" font-family="Helvetica,sans-Serif" font-size="10.00"> invSJac</text>
<text text-anchor="middle" x="405.38" y="-458.38" font-family="Helvetica,sans-Serif" font-size="10.00">refCoords</text>
<text text-anchor="middle" x="405.38" y="-447.12" font-family="Helvetica,sans-Serif" font-size="10.00">refGaussCoords</text>
<text text-anchor="middle" x="405.38" y="-435.88" font-family="Helvetica,sans-Serif" font-size="10.00">sJac</text>
<text text-anchor="middle" x="405.38" y="-424.62" font-family="Helvetica,sans-Serif" font-size="10.00">singularDisp</text>
<text text-anchor="middle" x="405.38" y="-413.38" font-family="Helvetica,sans-Serif" font-size="10.00">singularRefCoords</text>
</g>
<!-- Node9&#45;&gt;Node14 -->
<g id="edge17" class="edge">
<title>Node9&#45;&gt;Node14</title>
<path fill="none" stroke="#9a32cd" stroke-dasharray="5,2" d="M102.24,-406.62C125.75,-382.27 167.27,-340.79 186.25,-331.12 234.1,-306.76 252.31,-319.14 304.75,-307.62 310.48,-306.37 316.4,-305.03 322.34,-303.67"/>
<polygon fill="#9a32cd" stroke="#9a32cd" points="99.91,-403.99 95.51,-413.63 104.96,-408.83 99.91,-403.99"/>
<text text-anchor="middle" x="245.5" y="-388.62" font-family="Helvetica,sans-Serif" font-size="10.00"> invSJac</text>
<text text-anchor="middle" x="245.5" y="-377.38" font-family="Helvetica,sans-Serif" font-size="10.00">refCoords</text>
<text text-anchor="middle" x="245.5" y="-366.12" font-family="Helvetica,sans-Serif" font-size="10.00">refGaussCoords</text>
<text text-anchor="middle" x="245.5" y="-354.88" font-family="Helvetica,sans-Serif" font-size="10.00">sJac</text>
<text text-anchor="middle" x="245.5" y="-343.62" font-family="Helvetica,sans-Serif" font-size="10.00">singularDisp</text>
<text text-anchor="middle" x="245.5" y="-332.38" font-family="Helvetica,sans-Serif" font-size="10.00">singularRefCoords</text>
</g>
<!-- Node10 -->
<g id="node10" class="node">
<title>Node10</title>
<g id="a_node10"><a xlink:title=" ">
<polygon fill="white" stroke="#666666" points="121.75,-552.25 46.5,-552.25 46.5,-533 121.75,-533 121.75,-552.25"/>
<text text-anchor="middle" x="84.12" y="-538.75" font-family="Helvetica,sans-Serif" font-size="10.00">VectorDouble</text>
</a>
</g>
</g>
<!-- Node10&#45;&gt;Node1 -->
<g id="edge23" class="edge">
<title>Node10&#45;&gt;Node1</title>
<path fill="none" stroke="#9a32cd" stroke-dasharray="5,2" d="M107.93,-559.04C127.6,-572.11 157.31,-589.38 186.25,-596.62 394.93,-648.85 460.06,-579.77 661.25,-503.62 778.93,-459.09 812.98,-452.22 915.75,-379.62 966.51,-343.77 972.82,-326.81 1015.5,-281.62 1042.92,-252.59 1073.3,-217.13 1090.11,-197.19"/>
<polygon fill="#9a32cd" stroke="#9a32cd" points="110.1,-556.28 99.87,-553.51 106.14,-562.05 110.1,-556.28"/>
<text text-anchor="middle" x="583.62" y="-580.62" font-family="Helvetica,sans-Serif" font-size="10.00"> Nf</text>
<text text-anchor="middle" x="583.62" y="-569.38" font-family="Helvetica,sans-Serif" font-size="10.00">sNrm</text>
</g>
<!-- Node10&#45;&gt;Node6 -->
<g id="edge10" class="edge">
<title>Node10&#45;&gt;Node6</title>
<path fill="none" stroke="#9a32cd" stroke-dasharray="5,2" d="M133.43,-541.76C232.92,-539.85 454.22,-534.85 488,-527.62 569.21,-510.26 590.11,-500.48 661.25,-457.62 702.55,-432.75 744.06,-395.51 769.99,-370.42"/>
<polygon fill="#9a32cd" stroke="#9a32cd" points="133.65,-538.26 123.72,-541.95 133.78,-545.26 133.65,-538.26"/>
<text text-anchor="middle" x="405.38" y="-538.38" font-family="Helvetica,sans-Serif" font-size="10.00"> detS</text>
</g>
<!-- Node10&#45;&gt;Node14 -->
<g id="edge18" class="edge">
<title>Node10&#45;&gt;Node14</title>
<path fill="none" stroke="#9a32cd" stroke-dasharray="5,2" d="M133.39,-536.86C145.34,-534.04 157.73,-529.85 168.25,-523.62 178.61,-517.49 177.72,-511.88 186.25,-503.38 236.02,-453.74 268.71,-458.98 304.75,-398.62 322.77,-368.45 300.59,-348.9 322.75,-321.62 328.17,-314.95 335.03,-309.39 342.46,-304.78"/>
<polygon fill="#9a32cd" stroke="#9a32cd" points="132.72,-533.42 123.62,-538.85 134.12,-540.28 132.72,-533.42"/>
<text text-anchor="middle" x="245.5" y="-504.38" font-family="Helvetica,sans-Serif" font-size="10.00"> detS</text>
</g>
<!-- Node11 -->
<g id="node11" class="node">
<title>Node11</title>
<g id="a_node11"><a xlink:href="classbool.html" target="_top" xlink:title=" ">
<polygon fill="white" stroke="#666666" points="101.12,-97.25 67.12,-97.25 67.12,-78 101.12,-78 101.12,-97.25"/>
<text text-anchor="middle" x="84.12" y="-83.75" font-family="Helvetica,sans-Serif" font-size="10.00">bool</text>
</a>
</g>
</g>
<!-- Node11&#45;&gt;Node1 -->
<g id="edge24" class="edge">
<title>Node11&#45;&gt;Node1</title>
<path fill="none" stroke="#9a32cd" stroke-dasharray="5,2" d="M112.75,-86.85C154.39,-85.87 235.73,-84.62 304.75,-87.62 464.18,-94.57 530.22,-39.29 661.25,-130.38 674.73,-139.74 665.28,-154 679.25,-162.62 789.24,-230.56 947.64,-214.28 1036.37,-197.32"/>
<polygon fill="#9a32cd" stroke="#9a32cd" points="112.81,-83.35 102.9,-87.1 112.99,-90.35 112.81,-83.35"/>
<text text-anchor="middle" x="583.62" y="-131.38" font-family="Helvetica,sans-Serif" font-size="10.00"> setSingularCoordinates</text>
</g>
<!-- Node11&#45;&gt;Node6 -->
<g id="edge11" class="edge">
<title>Node11&#45;&gt;Node6</title>
<path fill="none" stroke="#9a32cd" stroke-dasharray="5,2" d="M112.88,-88.47C154.69,-90.03 236.24,-94.23 304.75,-104.62 470.18,-129.73 520.67,-134.88 661.25,-225.62 702.62,-252.33 744.44,-291.02 770.4,-316.73"/>
<polygon fill="#9a32cd" stroke="#9a32cd" points="113.1,-84.97 102.99,-88.12 112.86,-91.97 113.1,-84.97"/>
<text text-anchor="middle" x="405.38" y="-184.38" font-family="Helvetica,sans-Serif" font-size="10.00"> setSingularCoordinates</text>
<text text-anchor="middle" x="405.38" y="-173.12" font-family="Helvetica,sans-Serif" font-size="10.00">setSingularCoordinatesPriv</text>
<text text-anchor="middle" x="405.38" y="-161.88" font-family="Helvetica,sans-Serif" font-size="10.00">singularEdges</text>
<text text-anchor="middle" x="405.38" y="-150.62" font-family="Helvetica,sans-Serif" font-size="10.00">singularElement</text>
<text text-anchor="middle" x="405.38" y="-139.38" font-family="Helvetica,sans-Serif" font-size="10.00">singularNodes</text>
</g>
<!-- Node11&#45;&gt;Node14 -->
<g id="edge19" class="edge">
<title>Node11&#45;&gt;Node14</title>
<path fill="none" stroke="#9a32cd" stroke-dasharray="5,2" d="M112.73,-92.62C165.29,-102.65 276.99,-126.57 304.75,-153.38 322.72,-170.73 309.26,-185.6 322.75,-206.62 336.74,-228.44 358.22,-248.37 375.64,-262.48"/>
<polygon fill="#9a32cd" stroke="#9a32cd" points="113.55,-89.22 103.08,-90.82 112.26,-96.1 113.55,-89.22"/>
<text text-anchor="middle" x="245.5" y="-199.38" font-family="Helvetica,sans-Serif" font-size="10.00"> setSingularCoordinates</text>
<text text-anchor="middle" x="245.5" y="-188.12" font-family="Helvetica,sans-Serif" font-size="10.00">setSingularCoordinatesPriv</text>
<text text-anchor="middle" x="245.5" y="-176.88" font-family="Helvetica,sans-Serif" font-size="10.00">singularEdges</text>
<text text-anchor="middle" x="245.5" y="-165.62" font-family="Helvetica,sans-Serif" font-size="10.00">singularElement</text>
<text text-anchor="middle" x="245.5" y="-154.38" font-family="Helvetica,sans-Serif" font-size="10.00">singularNodes</text>
</g>
<!-- Node12 -->
<g id="node12" class="node">
<title>Node12</title>
<g id="a_node12"><a xlink:title=" ">
<polygon fill="white" stroke="#666666" points="114.62,-333.25 53.62,-333.25 53.62,-314 114.62,-314 114.62,-333.25"/>
<text text-anchor="middle" x="84.12" y="-319.75" font-family="Helvetica,sans-Serif" font-size="10.00">PetscBool</text>
</a>
</g>
</g>
<!-- Node12&#45;&gt;Node6 -->
<g id="edge12" class="edge">
<title>Node12&#45;&gt;Node6</title>
<path fill="none" stroke="#9a32cd" stroke-dasharray="5,2" d="M104.98,-341.06C122.57,-357 148.47,-381.66 168.25,-405.62 177.43,-416.75 173.53,-425.82 186.25,-432.62 232.68,-457.48 263.37,-465.2 304.75,-432.62 331.52,-411.56 296.31,-379.6 322.75,-358.12 349.74,-336.21 547.56,-336.91 678.89,-339.92"/>
<polygon fill="#9a32cd" stroke="#9a32cd" points="107.53,-338.64 97.74,-334.58 102.86,-343.86 107.53,-338.64"/>
<text text-anchor="middle" x="405.38" y="-370.62" font-family="Helvetica,sans-Serif" font-size="10.00"> addSingularity</text>
<text text-anchor="middle" x="405.38" y="-359.38" font-family="Helvetica,sans-Serif" font-size="10.00">refineIntegration</text>
</g>
<!-- Node12&#45;&gt;Node14 -->
<g id="edge20" class="edge">
<title>Node12&#45;&gt;Node14</title>
<path fill="none" stroke="#9a32cd" stroke-dasharray="5,2" d="M115.48,-308.8C135.15,-300.02 161.59,-289.75 186.25,-285.12 230.73,-276.79 281.21,-275.91 322.4,-277.34"/>
<polygon fill="#9a32cd" stroke="#9a32cd" points="114.03,-305.61 106.41,-312.97 116.96,-311.97 114.03,-305.61"/>
<text text-anchor="middle" x="245.5" y="-297.62" font-family="Helvetica,sans-Serif" font-size="10.00"> addSingularity</text>
<text text-anchor="middle" x="245.5" y="-286.38" font-family="Helvetica,sans-Serif" font-size="10.00">refineIntegration</text>
</g>
<!-- Node13 -->
<g id="node13" class="node">
<title>Node13</title>
<g id="a_node13"><a xlink:title=" ">
<polygon fill="white" stroke="#666666" points="98.53,-212.25 69.72,-212.25 69.72,-193 98.53,-193 98.53,-212.25"/>
<text text-anchor="middle" x="84.12" y="-198.75" font-family="Helvetica,sans-Serif" font-size="10.00">int</text>
</a>
</g>
</g>
<!-- Node13&#45;&gt;Node6 -->
<g id="edge13" class="edge">
<title>Node13&#45;&gt;Node6</title>
<path fill="none" stroke="#9a32cd" stroke-dasharray="5,2" d="M110.35,-201.74C192.36,-199.65 457.84,-199.11 661.25,-269.62 694.76,-281.24 729.81,-300.66 755.83,-316.69"/>
<polygon fill="#9a32cd" stroke="#9a32cd" points="110.41,-198.23 100.52,-202.03 110.62,-205.23 110.41,-198.23"/>
<text text-anchor="middle" x="405.38" y="-227.38" font-family="Helvetica,sans-Serif" font-size="10.00"> refinementLevels</text>
</g>
<!-- Node13&#45;&gt;Node14 -->
<g id="edge21" class="edge">
<title>Node13&#45;&gt;Node14</title>
<path fill="none" stroke="#9a32cd" stroke-dasharray="5,2" d="M110.41,-204.77C151.76,-208.73 236.13,-218.76 304.75,-239.38 324.32,-245.26 345.11,-254.05 362.61,-262.25"/>
<polygon fill="#9a32cd" stroke="#9a32cd" points="110.81,-201.29 100.53,-203.86 110.17,-208.26 110.81,-201.29"/>
<text text-anchor="middle" x="245.5" y="-240.38" font-family="Helvetica,sans-Serif" font-size="10.00"> refinementLevels</text>
</g>
<!-- Node14&#45;&gt;Node6 -->
<g id="edge14" class="edge">
<title>Node14&#45;&gt;Node6</title>
<path fill="none" stroke="orange" stroke-dasharray="5,2" d="M499.94,-274.99C548.55,-272.75 608.64,-273.54 661.25,-284.62 691.33,-290.96 722.93,-304.32 748.01,-316.73"/>
<polygon fill="orange" stroke="orange" points="499.79,-271.49 489.99,-275.5 500.15,-278.48 499.79,-271.49"/>
<text text-anchor="start" x="506" y="-320.12" font-family="Helvetica,sans-Serif" font-size="10.00"> &lt; FractureMechanics</text>
<text text-anchor="start" x="506" y="-308.88" font-family="Helvetica,sans-Serif" font-size="10.00">::FirendVolumeOnSide,</text>
<text text-anchor="start" x="506" y="-297.62" font-family="Helvetica,sans-Serif" font-size="10.00"> VolumeElementForcesAndSources</text>
<text text-anchor="middle" x="583.62" y="-286.38" font-family="Helvetica,sans-Serif" font-size="10.00">Core &gt;</text>
</g>
<!-- Node15 -->
<g id="node15" class="node">
<title>Node15</title>
<g id="a_node15"><a xlink:href="class_e_l_e_m_e_n_t.html" target="_top" xlink:title=" ">
<polygon fill="white" stroke="#666666" points="115.75,-260.25 52.5,-260.25 52.5,-241 115.75,-241 115.75,-260.25"/>
<text text-anchor="middle" x="84.12" y="-246.75" font-family="Helvetica,sans-Serif" font-size="10.00">ELEMENT</text>
</a>
</g>
</g>
<!-- Node15&#45;&gt;Node14 -->
<g id="edge15" class="edge">
<title>Node15&#45;&gt;Node14</title>
<path fill="none" stroke="#63b8ff" d="M127.64,-251.76C171.99,-253.32 243.47,-256.86 304.75,-264.62 310.51,-265.36 316.45,-266.21 322.41,-267.15"/>
<polygon fill="#63b8ff" stroke="#63b8ff" points="127.78,-248.27 117.67,-251.43 127.55,-255.26 127.78,-248.27"/>
</g>
<!-- Node16 -->
<g id="node16" class="node">
<title>Node16</title>
<g id="a_node16"><a xlink:title=" ">
<polygon fill="white" stroke="#666666" points="866.25,-56.25 728.75,-56.25 728.75,-37 866.25,-37 866.25,-56.25"/>
<text text-anchor="middle" x="797.5" y="-42.75" font-family="Helvetica,sans-Serif" font-size="10.00">shared_ptr&lt; MatrixDouble &gt;</text>
</a>
</g>
</g>
<!-- Node16&#45;&gt;Node1 -->
<g id="edge22" class="edge">
<title>Node16&#45;&gt;Node1</title>
<path fill="none" stroke="#9a32cd" stroke-dasharray="5,2" d="M877.73,-46.31C920.81,-49.22 973.68,-57.97 1015.5,-81.12 1052.15,-101.42 1080.78,-143.26 1094.41,-166.03"/>
<polygon fill="#9a32cd" stroke="#9a32cd" points="878.12,-42.83 867.94,-45.76 877.73,-49.82 878.12,-42.83"/>
<text text-anchor="middle" x="974.62" y="-93.62" font-family="Helvetica,sans-Serif" font-size="10.00"> HG</text>
<text text-anchor="middle" x="974.62" y="-82.38" font-family="Helvetica,sans-Serif" font-size="10.00">hG</text>
</g>
<!-- Node17 -->
<g id="node17" class="node">
<title>Node17</title>
<g id="a_node17"><a xlink:title=" ">
<polygon fill="white" stroke="#666666" points="825.38,-19.25 769.62,-19.25 769.62,0 825.38,0 825.38,-19.25"/>
<text text-anchor="middle" x="797.5" y="-5.75" font-family="Helvetica,sans-Serif" font-size="10.00">VectorInt</text>
</a>
</g>
</g>
<!-- Node17&#45;&gt;Node1 -->
<g id="edge25" class="edge">
<title>Node17&#45;&gt;Node1</title>
<path fill="none" stroke="#9a32cd" stroke-dasharray="5,2" d="M837.03,-5.26C883.25,-2.02 961.29,-3.11 1015.5,-38.38 1062.91,-69.22 1088.78,-135.58 1098.54,-165.92"/>
<polygon fill="#9a32cd" stroke="#9a32cd" points="836.91,-1.76 827.23,-6.06 837.48,-8.74 836.91,-1.76"/>
<text text-anchor="middle" x="974.62" y="-40.38" font-family="Helvetica,sans-Serif" font-size="10.00"> iNdices</text>
</g>
</g>
</svg>
