<?xml version="1.0" encoding="UTF-8" standalone="no"?>
<!DOCTYPE svg PUBLIC "-//W3C//DTD SVG 1.1//EN"
 "http://www.w3.org/Graphics/SVG/1.1/DTD/svg11.dtd">
<!-- Generated by graphviz version 9.0.0 (20230911.1827)
 -->
<!-- Title: MoFEM::EssentialPreProc&lt; TemperatureCubitBcData &gt; Pages: 1 -->
<svg width="1467pt" height="148pt"
 viewBox="0.00 0.00 1466.50 148.25" xmlns="http://www.w3.org/2000/svg" xmlns:xlink="http://www.w3.org/1999/xlink">
<g id="graph0" class="graph" transform="scale(1 1) rotate(0) translate(4 144.25)">
<title>MoFEM::EssentialPreProc&lt; TemperatureCubitBcData &gt;</title>
<!-- Node1 -->
<g id="node1" class="node">
<title>Node1</title>
<g id="a_node1"><a xlink:title="Specialization for TemperatureCubitBcData.">
<polygon fill="#999999" stroke="#666666" points="1458.5,-73.5 1314.25,-73.5 1314.25,-43 1458.5,-43 1458.5,-73.5"/>
<text text-anchor="start" x="1322.25" y="-60" font-family="Helvetica,sans-Serif" font-size="10.00">MoFEM::EssentialPreProc</text>
<text text-anchor="middle" x="1386.38" y="-48.75" font-family="Helvetica,sans-Serif" font-size="10.00">&lt; TemperatureCubitBcData &gt;</text>
</a>
</g>
</g>
<!-- Node2 -->
<g id="node2" class="node">
<title>Node2</title>
<g id="a_node2"><a xlink:href="struct_mo_f_e_m_1_1_deprecated_core_interface.html" target="_top" xlink:title="Deprecated interface functions.">
<polygon fill="white" stroke="#666666" points="1157.5,-104.88 991.5,-104.88 991.5,-85.62 1157.5,-85.62 1157.5,-104.88"/>
<text text-anchor="middle" x="1074.5" y="-91.38" font-family="Helvetica,sans-Serif" font-size="10.00">MoFEM::DeprecatedCoreInterface</text>
</a>
</g>
</g>
<!-- Node2&#45;&gt;Node1 -->
<g id="edge1" class="edge">
<title>Node2&#45;&gt;Node1</title>
<path fill="none" stroke="#9a32cd" stroke-dasharray="5,2" d="M1169.29,-85.82C1208.56,-81.67 1254.66,-76.54 1296.25,-71.25 1301.99,-70.52 1307.93,-69.73 1313.9,-68.91"/>
<polygon fill="#9a32cd" stroke="#9a32cd" points="1168.96,-82.33 1159.38,-86.86 1169.69,-89.29 1168.96,-82.33"/>
<text text-anchor="middle" x="1235.88" y="-86" font-family="Helvetica,sans-Serif" font-size="10.00"> mField</text>
</g>
<!-- Node3 -->
<g id="node3" class="node">
<title>Node3</title>
<g id="a_node3"><a xlink:href="struct_mo_f_e_m_1_1_core_interface.html" target="_top" xlink:title="Interface.">
<polygon fill="white" stroke="#666666" points="954.5,-104.88 838.75,-104.88 838.75,-85.62 954.5,-85.62 954.5,-104.88"/>
<text text-anchor="middle" x="896.62" y="-91.38" font-family="Helvetica,sans-Serif" font-size="10.00">MoFEM::CoreInterface</text>
</a>
</g>
</g>
<!-- Node3&#45;&gt;Node2 -->
<g id="edge2" class="edge">
<title>Node3&#45;&gt;Node2</title>
<path fill="none" stroke="#63b8ff" d="M966.13,-95.25C974.33,-95.25 982.77,-95.25 991.13,-95.25"/>
<polygon fill="#63b8ff" stroke="#63b8ff" points="966.24,-91.75 956.24,-95.25 966.24,-98.75 966.24,-91.75"/>
</g>
<!-- Node4 -->
<g id="node4" class="node">
<title>Node4</title>
<g id="a_node4"><a xlink:href="struct_mo_f_e_m_1_1_unknown_interface.html" target="_top" xlink:title="base class for all interface classes">
<polygon fill="white" stroke="#666666" points="801.75,-104.88 665.75,-104.88 665.75,-85.62 801.75,-85.62 801.75,-104.88"/>
<text text-anchor="middle" x="733.75" y="-91.38" font-family="Helvetica,sans-Serif" font-size="10.00">MoFEM::UnknownInterface</text>
</a>
</g>
</g>
<!-- Node4&#45;&gt;Node3 -->
<g id="edge3" class="edge">
<title>Node4&#45;&gt;Node3</title>
<path fill="none" stroke="#63b8ff" d="M813.43,-95.25C821.81,-95.25 830.23,-95.25 838.3,-95.25"/>
<polygon fill="#63b8ff" stroke="#63b8ff" points="813.56,-91.75 803.56,-95.25 813.56,-98.75 813.56,-91.75"/>
</g>
<!-- Node5 -->
<g id="node5" class="node">
<title>Node5</title>
<g id="a_node5"><a xlink:title=" ">
<polygon fill="white" stroke="#666666" points="563,-127.38 346.75,-127.38 346.75,-63.12 563,-63.12 563,-127.38"/>
<text text-anchor="start" x="354.75" y="-113.88" font-family="Helvetica,sans-Serif" font-size="10.00">multi_index_container</text>
<text text-anchor="start" x="354.75" y="-102.62" font-family="Helvetica,sans-Serif" font-size="10.00">&lt; UIdTypeMap, indexed</text>
<text text-anchor="start" x="354.75" y="-91.38" font-family="Helvetica,sans-Serif" font-size="10.00">_by&lt; hashed_unique&lt; member</text>
<text text-anchor="start" x="354.75" y="-80.12" font-family="Helvetica,sans-Serif" font-size="10.00">&lt; UIdTypeMap, boost::typeindex</text>
<text text-anchor="middle" x="454.88" y="-68.88" font-family="Helvetica,sans-Serif" font-size="10.00">::type_index, &amp;UIdTypeMap::classIdx &gt; &gt; &gt; &gt;</text>
</a>
</g>
</g>
<!-- Node5&#45;&gt;Node4 -->
<g id="edge4" class="edge">
<title>Node5&#45;&gt;Node4</title>
<path fill="none" stroke="#9a32cd" stroke-dasharray="5,2" d="M574.68,-95.25C605.7,-95.25 638.06,-95.25 665.37,-95.25"/>
<polygon fill="#9a32cd" stroke="#9a32cd" points="574.83,-91.75 564.83,-95.25 574.83,-98.75 574.83,-91.75"/>
<text text-anchor="middle" x="614.38" y="-97" font-family="Helvetica,sans-Serif" font-size="10.00"> iFaceTypeMap</text>
</g>
<!-- Node6 -->
<g id="node6" class="node">
<title>Node6</title>
<g id="a_node6"><a xlink:title=" ">
<polygon fill="white" stroke="#666666" points="110.5,-104.88 0,-104.88 0,-85.62 110.5,-85.62 110.5,-104.88"/>
<text text-anchor="middle" x="55.25" y="-91.38" font-family="Helvetica,sans-Serif" font-size="10.00">multi_index_container</text>
</a>
</g>
</g>
<!-- Node6&#45;&gt;Node5 -->
<g id="edge5" class="edge">
<title>Node6&#45;&gt;Node5</title>
<path fill="none" stroke="orange" stroke-dasharray="5,2" d="M122.09,-95.25C183.01,-95.25 274.7,-95.25 346.26,-95.25"/>
<polygon fill="orange" stroke="orange" points="122.22,-91.75 112.22,-95.25 122.22,-98.75 122.22,-91.75"/>
<text text-anchor="start" x="128.5" y="-130.75" font-family="Helvetica,sans-Serif" font-size="10.00"> &lt; UIdTypeMap, indexed</text>
<text text-anchor="start" x="128.5" y="-119.5" font-family="Helvetica,sans-Serif" font-size="10.00">_by&lt; hashed_unique&lt; member</text>
<text text-anchor="start" x="128.5" y="-108.25" font-family="Helvetica,sans-Serif" font-size="10.00">&lt; UIdTypeMap, boost::typeindex</text>
<text text-anchor="middle" x="228.62" y="-97" font-family="Helvetica,sans-Serif" font-size="10.00">::type_index, &amp;UIdTypeMap::classIdx &gt; &gt; &gt; &gt;</text>
</g>
<!-- Node7 -->
<g id="node7" class="node">
<title>Node7</title>
<g id="a_node7"><a xlink:title=" ">
<polygon fill="white" stroke="#666666" points="1154.12,-67.88 994.88,-67.88 994.88,-48.62 1154.12,-48.62 1154.12,-67.88"/>
<text text-anchor="middle" x="1074.5" y="-54.38" font-family="Helvetica,sans-Serif" font-size="10.00">weak_ptr&lt; MoFEM::FEMethod &gt;</text>
</a>
</g>
</g>
<!-- Node7&#45;&gt;Node1 -->
<g id="edge6" class="edge">
<title>Node7&#45;&gt;Node1</title>
<path fill="none" stroke="#9a32cd" stroke-dasharray="5,2" d="M1165.95,-58.25C1213.09,-58.25 1269.92,-58.25 1313.94,-58.25"/>
<polygon fill="#9a32cd" stroke="#9a32cd" points="1166.01,-54.75 1156.01,-58.25 1166.01,-61.75 1166.01,-54.75"/>
<text text-anchor="middle" x="1235.88" y="-60" font-family="Helvetica,sans-Serif" font-size="10.00"> fePtr</text>
</g>
<!-- Node8 -->
<g id="node8" class="node">
<title>Node8</title>
<g id="a_node8"><a xlink:title=" ">
<polygon fill="white" stroke="#666666" points="1136.5,-30.5 1012.5,-30.5 1012.5,0 1136.5,0 1136.5,-30.5"/>
<text text-anchor="start" x="1020.5" y="-17" font-family="Helvetica,sans-Serif" font-size="10.00">vector&lt; boost::shared</text>
<text text-anchor="middle" x="1074.5" y="-5.75" font-family="Helvetica,sans-Serif" font-size="10.00">_ptr&lt; ScalingMethod &gt; &gt;</text>
</a>
</g>
</g>
<!-- Node8&#45;&gt;Node1 -->
<g id="edge7" class="edge">
<title>Node8&#45;&gt;Node1</title>
<path fill="none" stroke="#9a32cd" stroke-dasharray="5,2" d="M1148.22,-23.57C1191.32,-28.7 1246.97,-35.69 1296.25,-43 1302,-43.85 1307.94,-44.78 1313.91,-45.73"/>
<polygon fill="#9a32cd" stroke="#9a32cd" points="1148.82,-20.11 1138.48,-22.41 1148,-27.07 1148.82,-20.11"/>
<text text-anchor="middle" x="1235.88" y="-45" font-family="Helvetica,sans-Serif" font-size="10.00"> vecOfTimeScalingMethods</text>
</g>
</g>
</svg>
