<?xml version="1.0" encoding="UTF-8" standalone="no"?>
<!DOCTYPE svg PUBLIC "-//W3C//DTD SVG 1.1//EN"
 "http://www.w3.org/Graphics/SVG/1.1/DTD/svg11.dtd">
<!-- Generated by graphviz version 2.43.0 (0)
 -->
<!-- Title: MoFEM::OpBaseTimesVectorImpl&lt; 1, FIELD_DIM, S, GAUSS, OpBase &gt; Pages: 1 -->
<svg width="683pt" height="478pt"
 viewBox="0.00 0.00 683.00 477.50" xmlns="http://www.w3.org/2000/svg" xmlns:xlink="http://www.w3.org/1999/xlink">
<g id="graph0" class="graph" transform="scale(1 1) rotate(0) translate(4 473.5)">
<title>MoFEM::OpBaseTimesVectorImpl&lt; 1, FIELD_DIM, S, GAUSS, OpBase &gt;</title>
<polygon fill="white" stroke="transparent" points="-4,4 -4,-473.5 679,-473.5 679,4 -4,4"/>
<!-- Node1 -->
<g id="node1" class="node">
<title>Node1</title>
<g id="a_node1"><a xlink:title=" ">
<polygon fill="#bfbfbf" stroke="black" points="518,-109 518,-150 675,-150 675,-109 518,-109"/>
<text text-anchor="start" x="526" y="-138" font-family="Helvetica,sans-Serif" font-size="10.00">MoFEM::OpBaseTimesVector</text>
<text text-anchor="start" x="526" y="-127" font-family="Helvetica,sans-Serif" font-size="10.00">Impl&lt; 1, FIELD_DIM, S,</text>
<text text-anchor="middle" x="596.5" y="-116" font-family="Helvetica,sans-Serif" font-size="10.00"> GAUSS, OpBase &gt;</text>
</a>
</g>
</g>
<!-- Node2 -->
<g id="node2" class="node">
<title>Node2</title>
<g id="a_node2"><a xlink:href="structMoFEM_1_1OpBaseImpl.html" target="_top" xlink:title=" ">
<polygon fill="white" stroke="black" points="332,-263 332,-282 386,-282 386,-263 332,-263"/>
<text text-anchor="middle" x="359" y="-270" font-family="Helvetica,sans-Serif" font-size="10.00">OpBase</text>
</a>
</g>
</g>
<!-- Node2&#45;&gt;Node1 -->
<g id="edge1" class="edge">
<title>Node2&#45;&gt;Node1</title>
<path fill="none" stroke="midnightblue" d="M384.37,-257.7C426.64,-232.03 513.65,-179.2 561.73,-150.01"/>
<polygon fill="midnightblue" stroke="midnightblue" points="382.55,-254.71 375.82,-262.9 386.18,-260.7 382.55,-254.71"/>
</g>
<!-- Node3 -->
<g id="node3" class="node">
<title>Node3</title>
<g id="a_node3"><a xlink:href="classEleOp.html" target="_top" xlink:title=" ">
<polygon fill="white" stroke="black" points="52,-450 52,-469 97,-469 97,-450 52,-450"/>
<text text-anchor="middle" x="74.5" y="-457" font-family="Helvetica,sans-Serif" font-size="10.00">EleOp</text>
</a>
</g>
</g>
<!-- Node3&#45;&gt;Node2 -->
<g id="edge2" class="edge">
<title>Node3&#45;&gt;Node2</title>
<path fill="none" stroke="midnightblue" d="M107.14,-465.06C148.55,-470.55 221.64,-473.9 271,-440.5 328.67,-401.47 350.49,-311.87 356.28,-282.22"/>
<polygon fill="midnightblue" stroke="midnightblue" points="107.48,-461.58 97.08,-463.6 106.48,-468.5 107.48,-461.58"/>
</g>
<!-- Node4 -->
<g id="node4" class="node">
<title>Node4</title>
<g id="a_node4"><a xlink:href="classUBlasVector_3_01double_01_4.html" target="_top" xlink:title=" ">
<polygon fill="white" stroke="black" points="9,-412 9,-431 140,-431 140,-412 9,-412"/>
<text text-anchor="middle" x="74.5" y="-419" font-family="Helvetica,sans-Serif" font-size="10.00">UBlasVector&lt; double &gt;</text>
</a>
</g>
</g>
<!-- Node4&#45;&gt;Node2 -->
<g id="edge3" class="edge">
<title>Node4&#45;&gt;Node2</title>
<path fill="none" stroke="#9a32cd" stroke-dasharray="5,2" d="M150.24,-426.87C188.79,-426.29 235.12,-420.1 271,-398.5 317.69,-370.4 345.39,-306.51 354.58,-282.16"/>
<polygon fill="#9a32cd" stroke="#9a32cd" points="150.09,-423.37 140.1,-426.9 150.11,-430.37 150.09,-423.37"/>
<text text-anchor="middle" x="219" y="-428.5" font-family="Helvetica,sans-Serif" font-size="10.00"> locF</text>
</g>
<!-- Node5 -->
<g id="node5" class="node">
<title>Node5</title>
<g id="a_node5"><a xlink:title=" ">
<polygon fill="white" stroke="#bfbfbf" points="5,-374 5,-393 144,-393 144,-374 5,-374"/>
<text text-anchor="middle" x="74.5" y="-381" font-family="Helvetica,sans-Serif" font-size="10.00">static MatSetValuesHook</text>
</a>
</g>
</g>
<!-- Node5&#45;&gt;Node2 -->
<g id="edge4" class="edge">
<title>Node5&#45;&gt;Node2</title>
<path fill="none" stroke="#9a32cd" stroke-dasharray="5,2" d="M154.42,-384.88C191.43,-382.71 235.15,-375.97 271,-358.5 308.04,-340.45 338.9,-300.37 351.68,-282.01"/>
<polygon fill="#9a32cd" stroke="#9a32cd" points="154,-381.39 144.18,-385.37 154.34,-388.39 154,-381.39"/>
<text text-anchor="middle" x="219" y="-386.5" font-family="Helvetica,sans-Serif" font-size="10.00"> matSetValuesHook</text>
</g>
<!-- Node6 -->
<g id="node6" class="node">
<title>Node6</title>
<g id="a_node6"><a xlink:title=" ">
<polygon fill="white" stroke="#bfbfbf" points="40.5,-335 40.5,-354 108.5,-354 108.5,-335 40.5,-335"/>
<text text-anchor="middle" x="74.5" y="-342" font-family="Helvetica,sans-Serif" font-size="10.00">EntityType</text>
</a>
</g>
</g>
<!-- Node6&#45;&gt;Node2 -->
<g id="edge5" class="edge">
<title>Node6&#45;&gt;Node2</title>
<path fill="none" stroke="#9a32cd" stroke-dasharray="5,2" d="M118.54,-340.02C158.61,-335.15 219.71,-325.92 271,-310.5 295.47,-303.15 322.2,-290.77 339.48,-282.14"/>
<polygon fill="#9a32cd" stroke="#9a32cd" points="118.09,-336.55 108.57,-341.2 118.91,-343.5 118.09,-336.55"/>
<text text-anchor="middle" x="219" y="-346.5" font-family="Helvetica,sans-Serif" font-size="10.00"> rowType</text>
<text text-anchor="middle" x="219" y="-335.5" font-family="Helvetica,sans-Serif" font-size="10.00">colType</text>
</g>
<!-- Node7 -->
<g id="node7" class="node">
<title>Node7</title>
<g id="a_node7"><a xlink:title=" ">
<polygon fill="white" stroke="#bfbfbf" points="13.5,-297 13.5,-316 135.5,-316 135.5,-297 13.5,-297"/>
<text text-anchor="middle" x="74.5" y="-304" font-family="Helvetica,sans-Serif" font-size="10.00">shared_ptr&lt; Range &gt;</text>
</a>
</g>
</g>
<!-- Node7&#45;&gt;Node2 -->
<g id="edge6" class="edge">
<title>Node7&#45;&gt;Node2</title>
<path fill="none" stroke="#9a32cd" stroke-dasharray="5,2" d="M146.07,-298.35C183.25,-294.01 229.6,-288.55 271,-283.5 291.4,-281.01 314.48,-278.09 331.74,-275.88"/>
<polygon fill="#9a32cd" stroke="#9a32cd" points="145.37,-294.9 135.84,-299.54 146.18,-301.86 145.37,-294.9"/>
<text text-anchor="middle" x="219" y="-298.5" font-family="Helvetica,sans-Serif" font-size="10.00"> entsPtr</text>
</g>
<!-- Node8 -->
<g id="node8" class="node">
<title>Node8</title>
<g id="a_node8"><a xlink:title=" ">
<polygon fill="white" stroke="#bfbfbf" points="9,-247.5 9,-277.5 140,-277.5 140,-247.5 9,-247.5"/>
<text text-anchor="start" x="17" y="-265.5" font-family="Helvetica,sans-Serif" font-size="10.00">function&lt; double(const</text>
<text text-anchor="middle" x="74.5" y="-254.5" font-family="Helvetica,sans-Serif" font-size="10.00"> FEMethod *fe_ptr)&gt;</text>
</a>
</g>
</g>
<!-- Node8&#45;&gt;Node2 -->
<g id="edge7" class="edge">
<title>Node8&#45;&gt;Node2</title>
<path fill="none" stroke="#9a32cd" stroke-dasharray="5,2" d="M150.48,-265.15C210.34,-267.27 290.73,-270.12 331.66,-271.57"/>
<polygon fill="#9a32cd" stroke="#9a32cd" points="150.43,-261.65 140.31,-264.79 150.18,-268.65 150.43,-261.65"/>
<text text-anchor="middle" x="219" y="-271.5" font-family="Helvetica,sans-Serif" font-size="10.00"> feScalingFun</text>
</g>
<!-- Node9 -->
<g id="node9" class="node">
<title>Node9</title>
<g id="a_node9"><a xlink:title=" ">
<polygon fill="white" stroke="#bfbfbf" points="60,-174 60,-193 89,-193 89,-174 60,-174"/>
<text text-anchor="middle" x="74.5" y="-181" font-family="Helvetica,sans-Serif" font-size="10.00">int</text>
</a>
</g>
</g>
<!-- Node9&#45;&gt;Node2 -->
<g id="edge8" class="edge">
<title>Node9&#45;&gt;Node2</title>
<path fill="none" stroke="#9a32cd" stroke-dasharray="5,2" d="M99.57,-180.12C137.61,-175.82 213.25,-171.56 271,-195.5 306.59,-210.25 337.5,-245.85 350.91,-262.98"/>
<polygon fill="#9a32cd" stroke="#9a32cd" points="98.95,-176.67 89.46,-181.37 99.81,-183.62 98.95,-176.67"/>
<text text-anchor="middle" x="219" y="-253.5" font-family="Helvetica,sans-Serif" font-size="10.00"> nbIntegrationPts</text>
<text text-anchor="middle" x="219" y="-242.5" font-family="Helvetica,sans-Serif" font-size="10.00">colSide</text>
<text text-anchor="middle" x="219" y="-231.5" font-family="Helvetica,sans-Serif" font-size="10.00">nbCols</text>
<text text-anchor="middle" x="219" y="-220.5" font-family="Helvetica,sans-Serif" font-size="10.00">nbRowBaseFunctions</text>
<text text-anchor="middle" x="219" y="-209.5" font-family="Helvetica,sans-Serif" font-size="10.00">rowSide</text>
<text text-anchor="middle" x="219" y="-198.5" font-family="Helvetica,sans-Serif" font-size="10.00">nbRows</text>
</g>
<!-- Node10 -->
<g id="node10" class="node">
<title>Node10</title>
<g id="a_node10"><a xlink:href="classbool.html" target="_top" xlink:title=" ">
<polygon fill="white" stroke="black" points="55.5,-131 55.5,-150 93.5,-150 93.5,-131 55.5,-131"/>
<text text-anchor="middle" x="74.5" y="-138" font-family="Helvetica,sans-Serif" font-size="10.00">bool</text>
</a>
</g>
</g>
<!-- Node10&#45;&gt;Node2 -->
<g id="edge9" class="edge">
<title>Node10&#45;&gt;Node2</title>
<path fill="none" stroke="#9a32cd" stroke-dasharray="5,2" d="M103.56,-134.51C143.6,-127.52 218.11,-120.43 271,-150.5 283.54,-157.63 280.76,-165.66 289,-177.5 311.01,-209.12 338.13,-245.83 350.82,-262.88"/>
<polygon fill="#9a32cd" stroke="#9a32cd" points="102.88,-131.08 93.7,-136.35 104.17,-137.96 102.88,-131.08"/>
<text text-anchor="middle" x="219" y="-164.5" font-family="Helvetica,sans-Serif" font-size="10.00"> assembleTranspose</text>
<text text-anchor="middle" x="219" y="-153.5" font-family="Helvetica,sans-Serif" font-size="10.00">onlyTranspose</text>
</g>
<!-- Node11 -->
<g id="node11" class="node">
<title>Node11</title>
<g id="a_node11"><a xlink:title=" ">
<polygon fill="white" stroke="#bfbfbf" points="0,-93 0,-112 149,-112 149,-93 0,-93"/>
<text text-anchor="middle" x="74.5" y="-100" font-family="Helvetica,sans-Serif" font-size="10.00">function&lt; double(double)&gt;</text>
</a>
</g>
</g>
<!-- Node11&#45;&gt;Node2 -->
<g id="edge10" class="edge">
<title>Node11&#45;&gt;Node2</title>
<path fill="none" stroke="#9a32cd" stroke-dasharray="5,2" d="M121.22,-90.98C164.58,-82.96 229.15,-78.94 271,-112.5 294.39,-131.25 275.98,-150.5 289,-177.5 305.55,-211.84 334.74,-246.7 349.27,-263"/>
<polygon fill="#9a32cd" stroke="#9a32cd" points="120.35,-87.59 111.23,-92.97 121.72,-94.45 120.35,-87.59"/>
<text text-anchor="middle" x="219" y="-115.5" font-family="Helvetica,sans-Serif" font-size="10.00"> timeScalingFun</text>
</g>
<!-- Node12 -->
<g id="node12" class="node">
<title>Node12</title>
<g id="a_node12"><a xlink:href="classUBlasMatrix_3_01double_01_4.html" target="_top" xlink:title=" ">
<polygon fill="white" stroke="black" points="8.5,-50 8.5,-69 140.5,-69 140.5,-50 8.5,-50"/>
<text text-anchor="middle" x="74.5" y="-57" font-family="Helvetica,sans-Serif" font-size="10.00">UBlasMatrix&lt; double &gt;</text>
</a>
</g>
</g>
<!-- Node12&#45;&gt;Node2 -->
<g id="edge11" class="edge">
<title>Node12&#45;&gt;Node2</title>
<path fill="none" stroke="#9a32cd" stroke-dasharray="5,2" d="M150.56,-49.32C197.87,-44.71 253.25,-43.24 271,-58.5 291.28,-75.94 278.85,-152.75 289,-177.5 303.38,-212.58 333.29,-246.83 348.57,-262.94"/>
<polygon fill="#9a32cd" stroke="#9a32cd" points="150.2,-45.84 140.61,-50.34 150.91,-52.8 150.2,-45.84"/>
<text text-anchor="middle" x="219" y="-72.5" font-family="Helvetica,sans-Serif" font-size="10.00"> locMat</text>
<text text-anchor="middle" x="219" y="-61.5" font-family="Helvetica,sans-Serif" font-size="10.00">locMatTranspose</text>
</g>
<!-- Node13 -->
<g id="node13" class="node">
<title>Node13</title>
<g id="a_node13"><a xlink:title=" ">
<polygon fill="white" stroke="#bfbfbf" points="293.5,-127 293.5,-168 424.5,-168 424.5,-127 293.5,-127"/>
<text text-anchor="start" x="301.5" y="-156" font-family="Helvetica,sans-Serif" font-size="10.00">function&lt; double(const</text>
<text text-anchor="start" x="301.5" y="-145" font-family="Helvetica,sans-Serif" font-size="10.00"> double, const double,</text>
<text text-anchor="middle" x="359" y="-134" font-family="Helvetica,sans-Serif" font-size="10.00"> const double)&gt;</text>
</a>
</g>
</g>
<!-- Node13&#45;&gt;Node1 -->
<g id="edge12" class="edge">
<title>Node13&#45;&gt;Node1</title>
<path fill="none" stroke="#9a32cd" stroke-dasharray="5,2" d="M434.97,-141.77C461.32,-139.76 490.99,-137.49 517.58,-135.46"/>
<polygon fill="#9a32cd" stroke="#9a32cd" points="434.37,-138.31 424.66,-142.56 434.9,-145.29 434.37,-138.31"/>
<text text-anchor="middle" x="473.5" y="-143.5" font-family="Helvetica,sans-Serif" font-size="10.00"> betaCoeff</text>
</g>
<!-- Node14 -->
<g id="node14" class="node">
<title>Node14</title>
<g id="a_node14"><a xlink:href="classFTensor_1_1Index.html" target="_top" xlink:title=" ">
<polygon fill="white" stroke="black" points="304,-77.5 304,-107.5 414,-107.5 414,-77.5 304,-77.5"/>
<text text-anchor="start" x="312" y="-95.5" font-family="Helvetica,sans-Serif" font-size="10.00">FTensor::Index&lt; &#39;i&#39;,</text>
<text text-anchor="middle" x="359" y="-84.5" font-family="Helvetica,sans-Serif" font-size="10.00"> FIELD_DIM &gt;</text>
</a>
</g>
</g>
<!-- Node14&#45;&gt;Node1 -->
<g id="edge13" class="edge">
<title>Node14&#45;&gt;Node1</title>
<path fill="none" stroke="#9a32cd" stroke-dasharray="5,2" d="M424,-102.56C452.88,-107.09 487.25,-112.49 517.62,-117.26"/>
<polygon fill="#9a32cd" stroke="#9a32cd" points="424.45,-99.08 414.03,-100.99 423.36,-106 424.45,-99.08"/>
<text text-anchor="middle" x="473.5" y="-116.5" font-family="Helvetica,sans-Serif" font-size="10.00"> i</text>
</g>
<!-- Node15 -->
<g id="node15" class="node">
<title>Node15</title>
<g id="a_node15"><a xlink:href="classFTensor_1_1Index.html" target="_top" xlink:title=" ">
<polygon fill="white" stroke="black" points="22.5,-0.5 22.5,-30.5 126.5,-30.5 126.5,-0.5 22.5,-0.5"/>
<text text-anchor="start" x="30.5" y="-18.5" font-family="Helvetica,sans-Serif" font-size="10.00">FTensor::Index&lt; i,</text>
<text text-anchor="middle" x="74.5" y="-7.5" font-family="Helvetica,sans-Serif" font-size="10.00"> Dim &gt;</text>
</a>
</g>
</g>
<!-- Node15&#45;&gt;Node14 -->
<g id="edge14" class="edge">
<title>Node15&#45;&gt;Node14</title>
<path fill="none" stroke="orange" stroke-dasharray="5,2" d="M136.81,-3.26C178.32,1.52 232.42,0.53 271,-26.5 287.63,-38.15 274.14,-54.65 289,-68.5 293.36,-72.56 298.45,-75.95 303.84,-78.76"/>
<polygon fill="orange" stroke="orange" points="136.29,0.2 126.82,-4.55 137.18,-6.74 136.29,0.2"/>
<text text-anchor="middle" x="219" y="-29.5" font-family="Helvetica,sans-Serif" font-size="10.00"> &lt; &#39;i&#39;, FIELD_DIM &gt;</text>
</g>
<!-- Node16 -->
<g id="node16" class="node">
<title>Node16</title>
<g id="a_node16"><a xlink:title=" ">
<polygon fill="white" stroke="#bfbfbf" points="289,-28.5 289,-58.5 429,-58.5 429,-28.5 289,-28.5"/>
<text text-anchor="start" x="297" y="-46.5" font-family="Helvetica,sans-Serif" font-size="10.00">shared_ptr&lt; UBlasMatrix</text>
<text text-anchor="middle" x="359" y="-35.5" font-family="Helvetica,sans-Serif" font-size="10.00">&lt; double &gt; &gt;</text>
</a>
</g>
</g>
<!-- Node16&#45;&gt;Node1 -->
<g id="edge15" class="edge">
<title>Node16&#45;&gt;Node1</title>
<path fill="none" stroke="#9a32cd" stroke-dasharray="5,2" d="M415.22,-61.75C441.07,-70.46 472.22,-81.22 500,-91.5 514.73,-96.95 530.61,-103.14 545.12,-108.93"/>
<polygon fill="#9a32cd" stroke="#9a32cd" points="416.19,-58.38 405.59,-58.51 413.96,-65.01 416.19,-58.38"/>
<text text-anchor="middle" x="473.5" y="-94.5" font-family="Helvetica,sans-Serif" font-size="10.00"> sourceVec</text>
</g>
</g>
</svg>
