<?xml version="1.0" encoding="UTF-8" standalone="no"?>
<!DOCTYPE svg PUBLIC "-//W3C//DTD SVG 1.1//EN"
 "http://www.w3.org/Graphics/SVG/1.1/DTD/svg11.dtd">
<!-- Generated by graphviz version 2.43.0 (0)
 -->
<!-- Title: MixTransport::MaterialVanGenuchten Pages: 1 -->
<!--zoomable 574 -->
<svg id="main" version="1.1" xmlns="http://www.w3.org/2000/svg" xmlns:xlink="http://www.w3.org/1999/xlink" xml:space="preserve" onload="init(evt)">
<style type="text/css"><![CDATA[
.edge:hover path { stroke: red; }
.edge:hover polygon { stroke: red; fill: red; }
]]></style>
<script type="text/javascript"><![CDATA[
var edges = document.getElementsByTagName('g');
if (edges && edges.length) {
  for (var i=0;i<edges.length;i++) {
    if (edges[i].id.substr(0,4)=='edge') {
      edges[i].setAttribute('class','edge');
    }
  }
}
]]></script>
        <defs>
                <circle id="rim" cx="0" cy="0" r="7"/>
                <circle id="rim2" cx="0" cy="0" r="3.5"/>
                <g id="zoomPlus">
                        <use xlink:href="#rim" fill="#404040">
                                <set attributeName="fill" to="#808080" begin="zoomplus.mouseover" end="zoomplus.mouseout"/>
                        </use>
                        <path d="M-4,0h8M0,-4v8" fill="none" stroke="white" stroke-width="1.5" pointer-events="none"/>
                </g>
                <g id="zoomMin">
                        <use xlink:href="#rim" fill="#404040">
                                <set attributeName="fill" to="#808080" begin="zoomminus.mouseover" end="zoomminus.mouseout"/>
                        </use>
                        <path d="M-4,0h8" fill="none" stroke="white" stroke-width="1.5" pointer-events="none"/>
                </g>
                <g id="dirArrow">
                        <path fill="none" stroke="white" stroke-width="1.5" d="M0,-3.0v7 M-2.5,-0.5L0,-3.0L2.5,-0.5"/>
                </g>
               <g id="resetDef">
                       <use xlink:href="#rim2" fill="#404040">
                               <set attributeName="fill" to="#808080" begin="reset.mouseover" end="reset.mouseout"/>
                       </use>
               </g>
        </defs>

<script type="text/javascript">
var viewWidth = 447;
var viewHeight = 574;
var sectionId = 'dynsection-1';
</script>
<script xlink:href="svgpan.js"/>
<svg id="graph" class="graph">
<g id="viewport">
<title>MixTransport::MaterialVanGenuchten</title>
<polygon fill="white" stroke="transparent" points="-4,4 -4,-570 442.5,-570 442.5,4 -4,4"/>
<!-- Node1 -->
<g id="node1" class="node">
<title>Node1</title>
<g id="a_node1"><a xlink:title=" ">
<polygon fill="#bfbfbf" stroke="black" points="62.5,-0.5 62.5,-30.5 206.5,-30.5 206.5,-0.5 62.5,-0.5"/>
<text text-anchor="start" x="70.5" y="-18.5" font-family="Helvetica,sans-Serif" font-size="10.00">MixTransport::MaterialVan</text>
<text text-anchor="middle" x="134.5" y="-7.5" font-family="Helvetica,sans-Serif" font-size="10.00">Genuchten</text>
</a>
</g>
</g>
<!-- Node2 -->
<g id="node2" class="node">
<title>Node2</title>
<g id="a_node2"><a xlink:href="structMixTransport_1_1MaterialWithAutomaticDifferentiation.html" target="_top" xlink:title=" ">
<polygon fill="white" stroke="black" points="0,-122.5 0,-152.5 149,-152.5 149,-122.5 0,-122.5"/>
<text text-anchor="start" x="8" y="-140.5" font-family="Helvetica,sans-Serif" font-size="10.00">MixTransport::MaterialWith</text>
<text text-anchor="middle" x="74.5" y="-129.5" font-family="Helvetica,sans-Serif" font-size="10.00">AutomaticDifferentiation</text>
</a>
</g>
</g>
<!-- Node2&#45;&gt;Node1 -->
<g id="edge1" class="edge">
<title>Node2&#45;&gt;Node1</title>
<path fill="none" stroke="midnightblue" d="M86.1,-113.3C98.33,-88.84 117.2,-51.1 127.39,-30.72"/>
<polygon fill="midnightblue" stroke="midnightblue" points="82.96,-111.75 81.62,-122.26 89.22,-114.88 82.96,-111.75"/>
</g>
<!-- Node3 -->
<g id="node3" class="node">
<title>Node3</title>
<g id="a_node3"><a xlink:href="structMixTransport_1_1CommonMaterialData.html" target="_top" xlink:title=" ">
<polygon fill="white" stroke="black" points="146.5,-190.5 146.5,-209.5 340.5,-209.5 340.5,-190.5 146.5,-190.5"/>
<text text-anchor="middle" x="243.5" y="-197.5" font-family="Helvetica,sans-Serif" font-size="10.00">MixTransport::CommonMaterialData</text>
</a>
</g>
</g>
<!-- Node3&#45;&gt;Node2 -->
<g id="edge2" class="edge">
<title>Node3&#45;&gt;Node2</title>
<path fill="none" stroke="midnightblue" d="M210.02,-187.01C182.35,-177.11 143.02,-163.03 113.85,-152.59"/>
<polygon fill="midnightblue" stroke="midnightblue" points="209.05,-190.38 219.64,-190.46 211.41,-183.79 209.05,-190.38"/>
</g>
<!-- Node4 -->
<g id="node4" class="node">
<title>Node4</title>
<g id="a_node4"><a xlink:href="structMixTransport_1_1GenericMaterial.html" target="_top" xlink:title="Generic material model for unsaturated water transport.">
<polygon fill="white" stroke="black" points="161.5,-319 161.5,-338 325.5,-338 325.5,-319 161.5,-319"/>
<text text-anchor="middle" x="243.5" y="-326" font-family="Helvetica,sans-Serif" font-size="10.00">MixTransport::GenericMaterial</text>
</a>
</g>
</g>
<!-- Node4&#45;&gt;Node3 -->
<g id="edge3" class="edge">
<title>Node4&#45;&gt;Node3</title>
<path fill="none" stroke="midnightblue" d="M243.5,-308.44C243.5,-280.62 243.5,-230.04 243.5,-209.76"/>
<polygon fill="midnightblue" stroke="midnightblue" points="240,-308.81 243.5,-318.81 247,-308.81 240,-308.81"/>
</g>
<!-- Node5 -->
<g id="node5" class="node">
<title>Node5</title>
<g id="a_node5"><a xlink:href="classdouble.html" target="_top" xlink:title=" ">
<polygon fill="white" stroke="black" points="83.5,-546.5 83.5,-565.5 133.5,-565.5 133.5,-546.5 83.5,-546.5"/>
<text text-anchor="middle" x="108.5" y="-553.5" font-family="Helvetica,sans-Serif" font-size="10.00">double</text>
</a>
</g>
</g>
<!-- Node5&#45;&gt;Node2 -->
<g id="edge9" class="edge">
<title>Node5&#45;&gt;Node2</title>
<path fill="none" stroke="#9a32cd" stroke-dasharray="5,2" d="M88.99,-539.34C85.95,-535.94 83.25,-532.12 81.5,-528 23.86,-392.3 59.31,-205.26 71.11,-152.73"/>
<polygon fill="#9a32cd" stroke="#9a32cd" points="86.73,-542.03 96.37,-546.44 91.58,-536.98 86.73,-542.03"/>
<text text-anchor="middle" x="71" y="-242" font-family="Helvetica,sans-Serif" font-size="10.00"> Kr</text>
<text text-anchor="middle" x="71" y="-231" font-family="Helvetica,sans-Serif" font-size="10.00">diffKr</text>
</g>
<!-- Node5&#45;&gt;Node3 -->
<g id="edge6" class="edge">
<title>Node5&#45;&gt;Node3</title>
<path fill="none" stroke="#9a32cd" stroke-dasharray="5,2" d="M103.18,-536.38C90.46,-487.84 63.25,-355.17 117.5,-268 137.27,-236.24 177.55,-218.64 207.27,-209.54"/>
<polygon fill="#9a32cd" stroke="#9a32cd" points="99.83,-537.4 105.84,-546.13 106.58,-535.56 99.83,-537.4"/>
<text text-anchor="middle" x="135" y="-381" font-family="Helvetica,sans-Serif" font-size="10.00"> AhZ</text>
<text text-anchor="middle" x="135" y="-370" font-family="Helvetica,sans-Serif" font-size="10.00">thetaM</text>
<text text-anchor="middle" x="135" y="-359" font-family="Helvetica,sans-Serif" font-size="10.00">AhZZ</text>
<text text-anchor="middle" x="135" y="-348" font-family="Helvetica,sans-Serif" font-size="10.00">Ah</text>
<text text-anchor="middle" x="135" y="-337" font-family="Helvetica,sans-Serif" font-size="10.00">thetaR</text>
<text text-anchor="middle" x="135" y="-326" font-family="Helvetica,sans-Serif" font-size="10.00">thetaS</text>
<text text-anchor="middle" x="135" y="-315" font-family="Helvetica,sans-Serif" font-size="10.00">Ks</text>
<text text-anchor="middle" x="135" y="-304" font-family="Helvetica,sans-Serif" font-size="10.00">n</text>
<text text-anchor="middle" x="135" y="-293" font-family="Helvetica,sans-Serif" font-size="10.00">alpha</text>
<text text-anchor="middle" x="135" y="-282" font-family="Helvetica,sans-Serif" font-size="10.00">hS</text>
<text text-anchor="middle" x="135" y="-271" font-family="Helvetica,sans-Serif" font-size="10.00">...</text>
</g>
<!-- Node5&#45;&gt;Node4 -->
<g id="edge4" class="edge">
<title>Node5&#45;&gt;Node4</title>
<path fill="none" stroke="#9a32cd" stroke-dasharray="5,2" d="M118.82,-537.76C145.93,-492.47 218.44,-371.37 238.37,-338.07"/>
<polygon fill="#9a32cd" stroke="#9a32cd" points="115.76,-536.06 113.63,-546.44 121.77,-539.65 115.76,-536.06"/>
<text text-anchor="middle" x="216.5" y="-520" font-family="Helvetica,sans-Serif" font-size="10.00"> x</text>
<text text-anchor="middle" x="216.5" y="-509" font-family="Helvetica,sans-Serif" font-size="10.00">Se</text>
<text text-anchor="middle" x="216.5" y="-498" font-family="Helvetica,sans-Serif" font-size="10.00">scaleZ</text>
<text text-anchor="middle" x="216.5" y="-487" font-family="Helvetica,sans-Serif" font-size="10.00">y</text>
<text text-anchor="middle" x="216.5" y="-476" font-family="Helvetica,sans-Serif" font-size="10.00">diffK</text>
<text text-anchor="middle" x="216.5" y="-465" font-family="Helvetica,sans-Serif" font-size="10.00">h</text>
<text text-anchor="middle" x="216.5" y="-454" font-family="Helvetica,sans-Serif" font-size="10.00">sCale</text>
<text text-anchor="middle" x="216.5" y="-443" font-family="Helvetica,sans-Serif" font-size="10.00">z</text>
<text text-anchor="middle" x="216.5" y="-432" font-family="Helvetica,sans-Serif" font-size="10.00">ePsilon0</text>
<text text-anchor="middle" x="216.5" y="-421" font-family="Helvetica,sans-Serif" font-size="10.00">ePsilon1</text>
<text text-anchor="middle" x="216.5" y="-410" font-family="Helvetica,sans-Serif" font-size="10.00">...</text>
</g>
<!-- Node6 -->
<g id="node6" class="node">
<title>Node6</title>
<g id="a_node6"><a xlink:href="classRange.html" target="_top" xlink:title=" ">
<polygon fill="white" stroke="black" points="220,-546.5 220,-565.5 267,-565.5 267,-546.5 220,-546.5"/>
<text text-anchor="middle" x="243.5" y="-553.5" font-family="Helvetica,sans-Serif" font-size="10.00">Range</text>
</a>
</g>
</g>
<!-- Node6&#45;&gt;Node4 -->
<g id="edge5" class="edge">
<title>Node6&#45;&gt;Node4</title>
<path fill="none" stroke="#9a32cd" stroke-dasharray="5,2" d="M243.5,-536.31C243.5,-489.94 243.5,-371.02 243.5,-338.07"/>
<polygon fill="#9a32cd" stroke="#9a32cd" points="240,-536.44 243.5,-546.44 247,-536.44 240,-536.44"/>
<text text-anchor="middle" x="254.5" y="-465" font-family="Helvetica,sans-Serif" font-size="10.00"> tEts</text>
</g>
<!-- Node7 -->
<g id="node7" class="node">
<title>Node7</title>
<g id="a_node7"><a xlink:title=" ">
<polygon fill="white" stroke="#bfbfbf" points="344,-319 344,-338 373,-338 373,-319 344,-319"/>
<text text-anchor="middle" x="358.5" y="-326" font-family="Helvetica,sans-Serif" font-size="10.00">int</text>
</a>
</g>
</g>
<!-- Node7&#45;&gt;Node3 -->
<g id="edge7" class="edge">
<title>Node7&#45;&gt;Node3</title>
<path fill="none" stroke="#9a32cd" stroke-dasharray="5,2" d="M353.88,-308.88C350.13,-296.41 343.9,-280.12 334.5,-268 314.06,-241.65 280.64,-220.75 260.49,-209.68"/>
<polygon fill="#9a32cd" stroke="#9a32cd" points="350.54,-309.94 356.56,-318.66 357.29,-308.09 350.54,-309.94"/>
<text text-anchor="middle" x="337" y="-236.5" font-family="Helvetica,sans-Serif" font-size="10.00"> blockId</text>
</g>
<!-- Node8 -->
<g id="node8" class="node">
<title>Node8</title>
<g id="a_node8"><a xlink:title=" ">
<polygon fill="white" stroke="#bfbfbf" points="394.5,-319 394.5,-338 438.5,-338 438.5,-319 394.5,-319"/>
<text text-anchor="middle" x="416.5" y="-326" font-family="Helvetica,sans-Serif" font-size="10.00">string</text>
</a>
</g>
</g>
<!-- Node8&#45;&gt;Node3 -->
<g id="edge8" class="edge">
<title>Node8&#45;&gt;Node3</title>
<path fill="none" stroke="#9a32cd" stroke-dasharray="5,2" d="M411.17,-308.94C403.67,-286.27 387.78,-248.41 360.5,-228 349.15,-219.51 335.58,-213.62 321.76,-209.55"/>
<polygon fill="#9a32cd" stroke="#9a32cd" points="407.89,-310.19 414.19,-318.71 414.58,-308.12 407.89,-310.19"/>
<text text-anchor="middle" x="405.5" y="-236.5" font-family="Helvetica,sans-Serif" font-size="10.00"> matName</text>
</g>
<!-- Node9 -->
<g id="node9" class="node">
<title>Node9</title>
<g id="a_node9"><a xlink:href="classadouble.html" target="_top" xlink:title=" ">
<polygon fill="white" stroke="black" points="166.5,-128 166.5,-147 222.5,-147 222.5,-128 166.5,-128"/>
<text text-anchor="middle" x="194.5" y="-135" font-family="Helvetica,sans-Serif" font-size="10.00">adouble</text>
</a>
</g>
</g>
<!-- Node9&#45;&gt;Node1 -->
<g id="edge10" class="edge">
<title>Node9&#45;&gt;Node1</title>
<path fill="none" stroke="#9a32cd" stroke-dasharray="5,2" d="M185.68,-118.87C173.75,-95 152.67,-52.85 141.66,-30.82"/>
<polygon fill="#9a32cd" stroke="#9a32cd" points="182.58,-120.49 190.18,-127.87 188.84,-117.36 182.58,-120.49"/>
<text text-anchor="middle" x="195.5" y="-96" font-family="Helvetica,sans-Serif" font-size="10.00"> aKr</text>
<text text-anchor="middle" x="195.5" y="-85" font-family="Helvetica,sans-Serif" font-size="10.00">ah</text>
<text text-anchor="middle" x="195.5" y="-74" font-family="Helvetica,sans-Serif" font-size="10.00">aSeStar</text>
<text text-anchor="middle" x="195.5" y="-63" font-family="Helvetica,sans-Serif" font-size="10.00">aSe</text>
<text text-anchor="middle" x="195.5" y="-52" font-family="Helvetica,sans-Serif" font-size="10.00">aTheta</text>
</g>
</g>
</svg>
        <g id="navigator" transform="translate(0 0)" fill="#404254">
                <rect fill="#f2f5e9" fill-opacity="0.5" stroke="#606060" stroke-width=".5" x="0" y="0" width="60" height="60"/>
                <use id="zoomplus" xlink:href="#zoomPlus" x="17" y="9" onmousedown="handleZoom(evt,'in')"/>
                <use id="zoomminus" xlink:href="#zoomMin" x="42" y="9" onmousedown="handleZoom(evt,'out')"/>
                <use id="reset" xlink:href="#resetDef" x="30" y="36" onmousedown="handleReset()"/>
                <g id="arrowUp" xlink:href="#dirArrow" transform="translate(30 24)" onmousedown="handlePan(0,-1)">
                  <use xlink:href="#rim" fill="#404040">
                        <set attributeName="fill" to="#808080" begin="arrowUp.mouseover" end="arrowUp.mouseout"/>
                  </use>
                  <path fill="none" stroke="white" stroke-width="1.5" d="M0,-3.0v7 M-2.5,-0.5L0,-3.0L2.5,-0.5"/>
                </g>
                <g id="arrowRight" xlink:href="#dirArrow" transform="rotate(90) translate(36 -43)" onmousedown="handlePan(1,0)">
                  <use xlink:href="#rim" fill="#404040">
                        <set attributeName="fill" to="#808080" begin="arrowRight.mouseover" end="arrowRight.mouseout"/>
                  </use>
                  <path fill="none" stroke="white" stroke-width="1.5" d="M0,-3.0v7 M-2.5,-0.5L0,-3.0L2.5,-0.5"/>
                </g>
                <g id="arrowDown" xlink:href="#dirArrow" transform="rotate(180) translate(-30 -48)" onmousedown="handlePan(0,1)">
                  <use xlink:href="#rim" fill="#404040">
                        <set attributeName="fill" to="#808080" begin="arrowDown.mouseover" end="arrowDown.mouseout"/>
                  </use>
                  <path fill="none" stroke="white" stroke-width="1.5" d="M0,-3.0v7 M-2.5,-0.5L0,-3.0L2.5,-0.5"/>
                </g>
                <g id="arrowLeft" xlink:href="#dirArrow" transform="rotate(270) translate(-36 17)" onmousedown="handlePan(-1,0)">
                  <use xlink:href="#rim" fill="#404040">
                        <set attributeName="fill" to="#808080" begin="arrowLeft.mouseover" end="arrowLeft.mouseout"/>
                  </use>
                  <path fill="none" stroke="white" stroke-width="1.5" d="M0,-3.0v7 M-2.5,-0.5L0,-3.0L2.5,-0.5"/>
                </g>
        </g>
        <svg viewBox="0 0 15 15" width="100%" height="30px" preserveAspectRatio="xMaxYMin meet">
         <g id="arrow_out" transform="scale(0.3 0.3)">
          <a xlink:href="structMixTransport_1_1MaterialVanGenuchten__coll__graph_org.svg" target="_base">
           <rect id="button" ry="5" rx="5" y="6" x="6" height="38" width="38"
                fill="#f2f5e9" fill-opacity="0.5" stroke="#606060" stroke-width="1.0"/>
           <path id="arrow"
             d="M 11.500037,31.436501 C 11.940474,20.09759 22.043105,11.32322 32.158766,21.979434 L 37.068811,17.246167 C 37.068811,17.246167 37.088388,32 37.088388,32 L 22.160133,31.978069 C 22.160133,31.978069 26.997745,27.140456 26.997745,27.140456 C 18.528582,18.264221 13.291696,25.230495 11.500037,31.436501 z"
             style="fill:#404040;"/>
          </a>
         </g>
        </svg>
</svg>
