<?xml version="1.0" encoding="UTF-8" standalone="no"?>
<!DOCTYPE svg PUBLIC "-//W3C//DTD SVG 1.1//EN"
 "http://www.w3.org/Graphics/SVG/1.1/DTD/svg11.dtd">
<!-- Generated by graphviz version 2.43.0 (0)
 -->
<!-- Title: PoissonExample::OpBaseRhs&lt; OPBASE &gt; Pages: 1 -->
<svg width="191pt" height="117pt"
 viewBox="0.00 0.00 191.00 117.00" xmlns="http://www.w3.org/2000/svg" xmlns:xlink="http://www.w3.org/1999/xlink">
<g id="graph0" class="graph" transform="scale(1 1) rotate(0) translate(4 113)">
<title>PoissonExample::OpBaseRhs&lt; OPBASE &gt;</title>
<polygon fill="white" stroke="transparent" points="-4,4 -4,-113 187,-113 187,4 -4,4"/>
<!-- Node1 -->
<g id="node1" class="node">
<title>Node1</title>
<g id="a_node1"><a xlink:title="template class for integration oh the right hand side">
<polygon fill="#bfbfbf" stroke="black" points="0,-0.5 0,-30.5 158,-30.5 158,-0.5 0,-0.5"/>
<text text-anchor="start" x="8" y="-18.5" font-family="Helvetica,sans-Serif" font-size="10.00">PoissonExample::OpBaseRhs</text>
<text text-anchor="middle" x="79" y="-7.5" font-family="Helvetica,sans-Serif" font-size="10.00">&lt; OPBASE &gt;</text>
</a>
</g>
</g>
<!-- Node2 -->
<g id="node2" class="node">
<title>Node2</title>
<g id="a_node2"><a xlink:href="classOPBASE.html" target="_top" xlink:title=" ">
<polygon fill="white" stroke="black" points="21,-89.5 21,-108.5 77,-108.5 77,-89.5 21,-89.5"/>
<text text-anchor="middle" x="49" y="-96.5" font-family="Helvetica,sans-Serif" font-size="10.00">OPBASE</text>
</a>
</g>
</g>
<!-- Node2&#45;&gt;Node1 -->
<g id="edge1" class="edge">
<title>Node2&#45;&gt;Node1</title>
<path fill="none" stroke="midnightblue" d="M55.75,-79.66C61.22,-64.81 68.81,-44.18 73.81,-30.6"/>
<polygon fill="midnightblue" stroke="midnightblue" points="52.38,-78.68 52.21,-89.28 58.95,-81.1 52.38,-78.68"/>
</g>
<!-- Node3 -->
<g id="node3" class="node">
<title>Node3</title>
<g id="a_node3"><a xlink:title=" ">
<polygon fill="white" stroke="#bfbfbf" points="95.5,-89.5 95.5,-108.5 124.5,-108.5 124.5,-89.5 95.5,-89.5"/>
<text text-anchor="middle" x="110" y="-96.5" font-family="Helvetica,sans-Serif" font-size="10.00">int</text>
</a>
</g>
</g>
<!-- Node3&#45;&gt;Node1 -->
<g id="edge2" class="edge">
<title>Node3&#45;&gt;Node1</title>
<path fill="none" stroke="#9a32cd" stroke-dasharray="5,2" d="M103.03,-79.66C97.37,-64.81 89.53,-44.18 84.36,-30.6"/>
<polygon fill="#9a32cd" stroke="#9a32cd" points="99.86,-81.18 106.68,-89.28 106.4,-78.69 99.86,-81.18"/>
<text text-anchor="middle" x="141" y="-63" font-family="Helvetica,sans-Serif" font-size="10.00"> nbIntegrationPts</text>
<text text-anchor="middle" x="141" y="-52" font-family="Helvetica,sans-Serif" font-size="10.00">nbRows</text>
</g>
</g>
</svg>
