<?xml version="1.0" encoding="UTF-8" standalone="no"?>
<!DOCTYPE svg PUBLIC "-//W3C//DTD SVG 1.1//EN"
 "http://www.w3.org/Graphics/SVG/1.1/DTD/svg11.dtd">
<!-- Generated by graphviz version 2.43.0 (0)
 -->
<!-- Title: SimpleContactProblem::OpCalMatForcesALEMaster Pages: 1 -->
<svg width="552pt" height="192pt"
 viewBox="0.00 0.00 552.00 192.00" xmlns="http://www.w3.org/2000/svg" xmlns:xlink="http://www.w3.org/1999/xlink">
<g id="graph0" class="graph" transform="scale(1 1) rotate(0) translate(4 188)">
<title>SimpleContactProblem::OpCalMatForcesALEMaster</title>
<polygon fill="white" stroke="transparent" points="-4,4 -4,-188 548,-188 548,4 -4,4"/>
<!-- Node1 -->
<g id="node1" class="node">
<title>Node1</title>
<g id="a_node1"><a xlink:title="RHS &#45; operator for the contact element (material configuration) Integrates virtual work of contact tr...">
<polygon fill="#bfbfbf" stroke="black" points="390,-70 390,-100 544,-100 544,-70 390,-70"/>
<text text-anchor="start" x="398" y="-88" font-family="Helvetica,sans-Serif" font-size="10.00">SimpleContactProblem</text>
<text text-anchor="middle" x="467" y="-77" font-family="Helvetica,sans-Serif" font-size="10.00">::OpCalMatForcesALEMaster</text>
</a>
</g>
</g>
<!-- Node2 -->
<g id="node2" class="node">
<title>Node2</title>
<g id="a_node2"><a xlink:href="classContactOp.html" target="_top" xlink:title=" ">
<polygon fill="white" stroke="black" points="72.5,-164.5 72.5,-183.5 140.5,-183.5 140.5,-164.5 72.5,-164.5"/>
<text text-anchor="middle" x="106.5" y="-171.5" font-family="Helvetica,sans-Serif" font-size="10.00">ContactOp</text>
</a>
</g>
</g>
<!-- Node2&#45;&gt;Node1 -->
<g id="edge1" class="edge">
<title>Node2&#45;&gt;Node1</title>
<path fill="none" stroke="midnightblue" d="M150.68,-173.09C204,-170.84 296.84,-163.27 372,-138 398.64,-129.04 426.33,-112.39 444.7,-100.13"/>
<polygon fill="midnightblue" stroke="midnightblue" points="150.43,-169.59 140.56,-173.47 150.69,-176.59 150.43,-169.59"/>
</g>
<!-- Node3 -->
<g id="node3" class="node">
<title>Node3</title>
<g id="a_node3"><a xlink:title=" ">
<polygon fill="white" stroke="#bfbfbf" points="0,-115 0,-145 213,-145 213,-115 0,-115"/>
<text text-anchor="start" x="8" y="-133" font-family="Helvetica,sans-Serif" font-size="10.00">shared_ptr&lt; SimpleContact</text>
<text text-anchor="middle" x="106.5" y="-122" font-family="Helvetica,sans-Serif" font-size="10.00">Problem::CommonDataSimpleContact &gt;</text>
</a>
</g>
</g>
<!-- Node3&#45;&gt;Node1 -->
<g id="edge2" class="edge">
<title>Node3&#45;&gt;Node1</title>
<path fill="none" stroke="#9a32cd" stroke-dasharray="5,2" d="M223.28,-124.32C269.71,-121.02 323.59,-115.89 372,-108 384.6,-105.95 398.01,-103.09 410.63,-100.08"/>
<polygon fill="#9a32cd" stroke="#9a32cd" points="222.92,-120.84 213.19,-125.02 223.4,-127.82 222.92,-120.84"/>
<text text-anchor="middle" x="301.5" y="-126" font-family="Helvetica,sans-Serif" font-size="10.00"> commonDataSimpleContact</text>
</g>
<!-- Node4 -->
<g id="node4" class="node">
<title>Node4</title>
<g id="a_node4"><a xlink:title=" ">
<polygon fill="white" stroke="#bfbfbf" points="92,-76.5 92,-95.5 121,-95.5 121,-76.5 92,-76.5"/>
<text text-anchor="middle" x="106.5" y="-83.5" font-family="Helvetica,sans-Serif" font-size="10.00">int</text>
</a>
</g>
</g>
<!-- Node4&#45;&gt;Node1 -->
<g id="edge3" class="edge">
<title>Node4&#45;&gt;Node1</title>
<path fill="none" stroke="#9a32cd" stroke-dasharray="5,2" d="M131.29,-85.93C183.1,-85.79 308.01,-85.44 389.72,-85.21"/>
<polygon fill="#9a32cd" stroke="#9a32cd" points="131.11,-82.43 121.12,-85.96 131.13,-89.43 131.11,-82.43"/>
<text text-anchor="middle" x="301.5" y="-99" font-family="Helvetica,sans-Serif" font-size="10.00"> nbIntegrationPts</text>
<text text-anchor="middle" x="301.5" y="-88" font-family="Helvetica,sans-Serif" font-size="10.00">nbRows</text>
</g>
<!-- Node5 -->
<g id="node5" class="node">
<title>Node5</title>
<g id="a_node5"><a xlink:title=" ">
<polygon fill="white" stroke="#bfbfbf" points="65.5,-38.5 65.5,-57.5 147.5,-57.5 147.5,-38.5 65.5,-38.5"/>
<text text-anchor="middle" x="106.5" y="-45.5" font-family="Helvetica,sans-Serif" font-size="10.00">VectorDouble</text>
</a>
</g>
</g>
<!-- Node5&#45;&gt;Node1 -->
<g id="edge4" class="edge">
<title>Node5&#45;&gt;Node1</title>
<path fill="none" stroke="#9a32cd" stroke-dasharray="5,2" d="M158.14,-51.08C211.46,-54.58 297.81,-61.01 372,-70 377.82,-70.71 383.84,-71.5 389.88,-72.36"/>
<polygon fill="#9a32cd" stroke="#9a32cd" points="158.13,-47.57 147.93,-50.41 157.68,-54.55 158.13,-47.57"/>
<text text-anchor="middle" x="301.5" y="-73" font-family="Helvetica,sans-Serif" font-size="10.00"> vecF</text>
</g>
<!-- Node6 -->
<g id="node6" class="node">
<title>Node6</title>
<g id="a_node6"><a xlink:title=" ">
<polygon fill="white" stroke="#bfbfbf" points="76.5,-0.5 76.5,-19.5 136.5,-19.5 136.5,-0.5 76.5,-0.5"/>
<text text-anchor="middle" x="106.5" y="-7.5" font-family="Helvetica,sans-Serif" font-size="10.00">VectorInt</text>
</a>
</g>
</g>
<!-- Node6&#45;&gt;Node1 -->
<g id="edge5" class="edge">
<title>Node6&#45;&gt;Node1</title>
<path fill="none" stroke="#9a32cd" stroke-dasharray="5,2" d="M146.86,-10.7C199.21,-12.5 294.2,-18.86 372,-41 395.92,-47.81 421.36,-60.06 439.74,-69.91"/>
<polygon fill="#9a32cd" stroke="#9a32cd" points="146.77,-7.19 136.66,-10.39 146.55,-14.19 146.77,-7.19"/>
<text text-anchor="middle" x="301.5" y="-44" font-family="Helvetica,sans-Serif" font-size="10.00"> rowIndices</text>
</g>
</g>
</svg>
