<?xml version="1.0" encoding="UTF-8" standalone="no"?>
<!DOCTYPE svg PUBLIC "-//W3C//DTD SVG 1.1//EN"
 "http://www.w3.org/Graphics/SVG/1.1/DTD/svg11.dtd">
<!-- Generated by graphviz version 9.0.0 (20230911.1827)
 -->
<!-- Title: MoFEM::OpMixScalarTimesDivImpl&lt; SPACE_DIM, GAUSS, OpBase, COORDINATE_SYSTEM &gt; Pages: 1 -->
<svg width="668pt" height="498pt"
 viewBox="0.00 0.00 668.00 498.00" xmlns="http://www.w3.org/2000/svg" xmlns:xlink="http://www.w3.org/1999/xlink">
<g id="graph0" class="graph" transform="scale(1 1) rotate(0) translate(4 494)">
<title>MoFEM::OpMixScalarTimesDivImpl&lt; SPACE_DIM, GAUSS, OpBase, COORDINATE_SYSTEM &gt;</title>
<!-- Node1 -->
<g id="node1" class="node">
<title>Node1</title>
<g id="a_node1"><a xlink:title=" ">
<polygon fill="#999999" stroke="#666666" points="660,-123.12 477.5,-123.12 477.5,-81.38 660,-81.38 660,-123.12"/>
<text text-anchor="start" x="485.5" y="-109.62" font-family="Helvetica,sans-Serif" font-size="10.00">MoFEM::OpMixScalarTimesDiv</text>
<text text-anchor="start" x="485.5" y="-98.38" font-family="Helvetica,sans-Serif" font-size="10.00">Impl&lt; SPACE_DIM, GAUSS,</text>
<text text-anchor="middle" x="568.75" y="-87.12" font-family="Helvetica,sans-Serif" font-size="10.00"> OpBase, COORDINATE_SYSTEM &gt;</text>
</a>
</g>
</g>
<!-- Node2 -->
<g id="node2" class="node">
<title>Node2</title>
<g id="a_node2"><a xlink:href="struct_mo_f_e_m_1_1_op_base_impl.html" target="_top" xlink:title=" ">
<polygon fill="white" stroke="#666666" points="343.62,-240.88 292.38,-240.88 292.38,-221.62 343.62,-221.62 343.62,-240.88"/>
<text text-anchor="middle" x="318" y="-227.38" font-family="Helvetica,sans-Serif" font-size="10.00">OpBase</text>
</a>
</g>
</g>
<!-- Node2&#45;&gt;Node1 -->
<g id="edge1" class="edge">
<title>Node2&#45;&gt;Node1</title>
<path fill="none" stroke="#63b8ff" d="M348.64,-215.88C392.99,-192.88 476.73,-149.45 526.86,-123.46"/>
<polygon fill="#63b8ff" stroke="#63b8ff" points="347.13,-212.72 339.86,-220.43 350.35,-218.93 347.13,-212.72"/>
</g>
<!-- Node3 -->
<g id="node3" class="node">
<title>Node3</title>
<g id="a_node3"><a xlink:title=" ">
<polygon fill="white" stroke="#666666" points="85.75,-488.88 42.75,-488.88 42.75,-469.62 85.75,-469.62 85.75,-488.88"/>
<text text-anchor="middle" x="64.25" y="-475.38" font-family="Helvetica,sans-Serif" font-size="10.00">EleOp</text>
</a>
</g>
</g>
<!-- Node3&#45;&gt;Node2 -->
<g id="edge2" class="edge">
<title>Node3&#45;&gt;Node2</title>
<path fill="none" stroke="#63b8ff" d="M97.39,-485.85C136.19,-491.84 201.34,-495.34 242.5,-462.25 314.09,-404.69 317.78,-277.65 317.29,-241.2"/>
<polygon fill="#63b8ff" stroke="#63b8ff" points="98.19,-482.43 87.74,-484.2 97.01,-489.33 98.19,-482.43"/>
</g>
<!-- Node4 -->
<g id="node4" class="node">
<title>Node4</title>
<g id="a_node4"><a xlink:title=" ">
<polygon fill="white" stroke="#666666" points="128.5,-451.88 0,-451.88 0,-432.62 128.5,-432.62 128.5,-451.88"/>
<text text-anchor="middle" x="64.25" y="-438.38" font-family="Helvetica,sans-Serif" font-size="10.00">function&lt; double(double)&gt;</text>
</a>
</g>
</g>
<!-- Node4&#45;&gt;Node2 -->
<g id="edge3" class="edge">
<title>Node4&#45;&gt;Node2</title>
<path fill="none" stroke="#9a32cd" stroke-dasharray="5,2" d="M140.14,-447.98C174.54,-446.81 213.94,-439.65 242.5,-417.25 300.81,-371.53 313.66,-273.13 316.34,-241.36"/>
<polygon fill="#9a32cd" stroke="#9a32cd" points="140.15,-444.48 130.21,-448.14 140.26,-451.48 140.15,-444.48"/>
<text text-anchor="middle" x="194.5" y="-449" font-family="Helvetica,sans-Serif" font-size="10.00"> timeScalingFun</text>
</g>
<!-- Node5 -->
<g id="node5" class="node">
<title>Node5</title>
<g id="a_node5"><a xlink:title=" ">
<polygon fill="white" stroke="#666666" points="121.75,-414.5 6.75,-414.5 6.75,-384 121.75,-384 121.75,-414.5"/>
<text text-anchor="start" x="14.75" y="-401" font-family="Helvetica,sans-Serif" font-size="10.00">function&lt; double(const</text>
<text text-anchor="middle" x="64.25" y="-389.75" font-family="Helvetica,sans-Serif" font-size="10.00"> FEMethod *fe_ptr)&gt;</text>
</a>
</g>
</g>
<!-- Node5&#45;&gt;Node2 -->
<g id="edge4" class="edge">
<title>Node5&#45;&gt;Node2</title>
<path fill="none" stroke="#9a32cd" stroke-dasharray="5,2" d="M133.25,-403.9C168.72,-403.01 211.13,-396.43 242.5,-374.25 289.82,-340.8 309.32,-267.95 315.06,-241.29"/>
<polygon fill="#9a32cd" stroke="#9a32cd" points="133.49,-400.4 123.52,-403.98 133.55,-407.4 133.49,-400.4"/>
<text text-anchor="middle" x="194.5" y="-404" font-family="Helvetica,sans-Serif" font-size="10.00"> feScalingFun</text>
</g>
<!-- Node6 -->
<g id="node6" class="node">
<title>Node6</title>
<g id="a_node6"><a xlink:title=" ">
<polygon fill="white" stroke="#666666" points="118.38,-365.88 10.12,-365.88 10.12,-346.62 118.38,-346.62 118.38,-365.88"/>
<text text-anchor="middle" x="64.25" y="-352.38" font-family="Helvetica,sans-Serif" font-size="10.00">shared_ptr&lt; Range &gt;</text>
</a>
</g>
</g>
<!-- Node6&#45;&gt;Node2 -->
<g id="edge5" class="edge">
<title>Node6&#45;&gt;Node2</title>
<path fill="none" stroke="#9a32cd" stroke-dasharray="5,2" d="M130.04,-360.38C165.49,-359.77 208.9,-354.12 242.5,-334.25 280.11,-312.01 304.11,-262.56 313.05,-241.29"/>
<polygon fill="#9a32cd" stroke="#9a32cd" points="130.33,-356.88 120.34,-360.4 130.35,-363.88 130.33,-356.88"/>
<text text-anchor="middle" x="194.5" y="-361" font-family="Helvetica,sans-Serif" font-size="10.00"> entsPtr</text>
</g>
<!-- Node7 -->
<g id="node7" class="node">
<title>Node7</title>
<g id="a_node7"><a xlink:title=" ">
<polygon fill="white" stroke="#666666" points="127.75,-328.88 0.75,-328.88 0.75,-309.62 127.75,-309.62 127.75,-328.88"/>
<text text-anchor="middle" x="64.25" y="-315.38" font-family="Helvetica,sans-Serif" font-size="10.00">static MatSetValuesHook</text>
</a>
</g>
</g>
<!-- Node7&#45;&gt;Node2 -->
<g id="edge6" class="edge">
<title>Node7&#45;&gt;Node2</title>
<path fill="none" stroke="#9a32cd" stroke-dasharray="5,2" d="M139.45,-321.65C172.29,-320.15 210.62,-314.75 242.5,-300.25 272.03,-286.82 297.6,-257.05 309.64,-241.37"/>
<polygon fill="#9a32cd" stroke="#9a32cd" points="139.47,-318.15 129.59,-321.98 139.7,-325.14 139.47,-318.15"/>
<text text-anchor="middle" x="194.5" y="-322" font-family="Helvetica,sans-Serif" font-size="10.00"> matSetValuesHook</text>
</g>
<!-- Node8 -->
<g id="node8" class="node">
<title>Node8</title>
<g id="a_node8"><a xlink:title=" ">
<polygon fill="white" stroke="#666666" points="78.65,-240.88 49.85,-240.88 49.85,-221.62 78.65,-221.62 78.65,-240.88"/>
<text text-anchor="middle" x="64.25" y="-227.38" font-family="Helvetica,sans-Serif" font-size="10.00">int</text>
</a>
</g>
</g>
<!-- Node8&#45;&gt;Node2 -->
<g id="edge7" class="edge">
<title>Node8&#45;&gt;Node2</title>
<path fill="none" stroke="#9a32cd" stroke-dasharray="5,2" d="M90.4,-231.25C138.74,-231.25 244.11,-231.25 292.19,-231.25"/>
<polygon fill="#9a32cd" stroke="#9a32cd" points="90.66,-227.75 80.66,-231.25 90.66,-234.75 90.66,-227.75"/>
<text text-anchor="middle" x="194.5" y="-289.25" font-family="Helvetica,sans-Serif" font-size="10.00"> colSide</text>
<text text-anchor="middle" x="194.5" y="-278" font-family="Helvetica,sans-Serif" font-size="10.00">nbCols</text>
<text text-anchor="middle" x="194.5" y="-266.75" font-family="Helvetica,sans-Serif" font-size="10.00">nbIntegrationPts</text>
<text text-anchor="middle" x="194.5" y="-255.5" font-family="Helvetica,sans-Serif" font-size="10.00">nbRowBaseFunctions</text>
<text text-anchor="middle" x="194.5" y="-244.25" font-family="Helvetica,sans-Serif" font-size="10.00">nbRows</text>
<text text-anchor="middle" x="194.5" y="-233" font-family="Helvetica,sans-Serif" font-size="10.00">rowSide</text>
</g>
<!-- Node9 -->
<g id="node9" class="node">
<title>Node9</title>
<g id="a_node9"><a xlink:href="class_entity_type.html" target="_top" xlink:title=" ">
<polygon fill="white" stroke="#666666" points="95.5,-194.88 33,-194.88 33,-175.62 95.5,-175.62 95.5,-194.88"/>
<text text-anchor="middle" x="64.25" y="-181.38" font-family="Helvetica,sans-Serif" font-size="10.00">EntityType</text>
</a>
</g>
</g>
<!-- Node9&#45;&gt;Node2 -->
<g id="edge8" class="edge">
<title>Node9&#45;&gt;Node2</title>
<path fill="none" stroke="#9a32cd" stroke-dasharray="5,2" d="M106.82,-187.09C143.04,-189.35 196.76,-194.25 242.5,-204.75 259.89,-208.74 278.83,-215.51 293.26,-221.21"/>
<polygon fill="#9a32cd" stroke="#9a32cd" points="107.41,-183.62 97.23,-186.54 107.01,-190.61 107.41,-183.62"/>
<text text-anchor="middle" x="194.5" y="-217.25" font-family="Helvetica,sans-Serif" font-size="10.00"> colType</text>
<text text-anchor="middle" x="194.5" y="-206" font-family="Helvetica,sans-Serif" font-size="10.00">rowType</text>
</g>
<!-- Node10 -->
<g id="node10" class="node">
<title>Node10</title>
<g id="a_node10"><a xlink:href="classbool.html" target="_top" xlink:title=" ">
<polygon fill="white" stroke="#666666" points="81.25,-148.88 47.25,-148.88 47.25,-129.62 81.25,-129.62 81.25,-148.88"/>
<text text-anchor="middle" x="64.25" y="-135.38" font-family="Helvetica,sans-Serif" font-size="10.00">bool</text>
</a>
</g>
</g>
<!-- Node10&#45;&gt;Node2 -->
<g id="edge9" class="edge">
<title>Node10&#45;&gt;Node2</title>
<path fill="none" stroke="#9a32cd" stroke-dasharray="5,2" d="M92.36,-137.91C128.39,-137.19 193.24,-139.7 242.5,-162.75 271.78,-176.45 297.46,-205.84 309.58,-221.29"/>
<polygon fill="#9a32cd" stroke="#9a32cd" points="92.71,-134.39 82.82,-138.2 92.92,-141.39 92.71,-134.39"/>
<text text-anchor="middle" x="194.5" y="-175.25" font-family="Helvetica,sans-Serif" font-size="10.00"> assembleTranspose</text>
<text text-anchor="middle" x="194.5" y="-164" font-family="Helvetica,sans-Serif" font-size="10.00">onlyTranspose</text>
</g>
<!-- Node11 -->
<g id="node11" class="node">
<title>Node11</title>
<g id="a_node11"><a xlink:href="class_u_blas_matrix_3_01double_01_4.html" target="_top" xlink:title=" ">
<polygon fill="white" stroke="#666666" points="122.5,-104.88 6,-104.88 6,-85.62 122.5,-85.62 122.5,-104.88"/>
<text text-anchor="middle" x="64.25" y="-91.38" font-family="Helvetica,sans-Serif" font-size="10.00">UBlasMatrix&lt; double &gt;</text>
</a>
</g>
</g>
<!-- Node11&#45;&gt;Node2 -->
<g id="edge10" class="edge">
<title>Node11&#45;&gt;Node2</title>
<path fill="none" stroke="#9a32cd" stroke-dasharray="5,2" d="M133.89,-88.3C168.78,-88.01 210.47,-92.93 242.5,-112.75 284.45,-138.7 306.72,-198.01 314.14,-221.45"/>
<polygon fill="#9a32cd" stroke="#9a32cd" points="134.25,-84.79 124.33,-88.53 134.41,-91.79 134.25,-84.79"/>
<text text-anchor="middle" x="194.5" y="-125.25" font-family="Helvetica,sans-Serif" font-size="10.00"> locMat</text>
<text text-anchor="middle" x="194.5" y="-114" font-family="Helvetica,sans-Serif" font-size="10.00">locMatTranspose</text>
</g>
<!-- Node12 -->
<g id="node12" class="node">
<title>Node12</title>
<g id="a_node12"><a xlink:href="class_u_blas_vector_3_01double_01_4.html" target="_top" xlink:title=" ">
<polygon fill="white" stroke="#666666" points="123.25,-67.88 5.25,-67.88 5.25,-48.62 123.25,-48.62 123.25,-67.88"/>
<text text-anchor="middle" x="64.25" y="-54.38" font-family="Helvetica,sans-Serif" font-size="10.00">UBlasVector&lt; double &gt;</text>
</a>
</g>
</g>
<!-- Node12&#45;&gt;Node2 -->
<g id="edge11" class="edge">
<title>Node12&#45;&gt;Node2</title>
<path fill="none" stroke="#9a32cd" stroke-dasharray="5,2" d="M132.35,-47.24C168.52,-45.08 211.89,-49.05 242.5,-73 262.18,-88.39 250.55,-103.34 260.5,-126.25 276.25,-162.51 299.95,-203.11 310.97,-221.39"/>
<polygon fill="#9a32cd" stroke="#9a32cd" points="132.09,-43.75 122.39,-48.02 132.64,-50.73 132.09,-43.75"/>
<text text-anchor="middle" x="194.5" y="-74" font-family="Helvetica,sans-Serif" font-size="10.00"> locF</text>
</g>
<!-- Node13 -->
<g id="node13" class="node">
<title>Node13</title>
<g id="a_node13"><a xlink:href="class_f_tensor_1_1_index.html" target="_top" xlink:title=" ">
<polygon fill="white" stroke="#666666" points="368,-117.5 268,-117.5 268,-87 368,-87 368,-117.5"/>
<text text-anchor="start" x="276" y="-104" font-family="Helvetica,sans-Serif" font-size="10.00">FTensor::Index&lt; &#39;i&#39;,</text>
<text text-anchor="middle" x="318" y="-92.75" font-family="Helvetica,sans-Serif" font-size="10.00"> SPACE_DIM &gt;</text>
</a>
</g>
</g>
<!-- Node13&#45;&gt;Node1 -->
<g id="edge12" class="edge">
<title>Node13&#45;&gt;Node1</title>
<path fill="none" stroke="#9a32cd" stroke-dasharray="5,2" d="M379.74,-102.25C409.01,-102.25 444.72,-102.25 477.13,-102.25"/>
<polygon fill="#9a32cd" stroke="#9a32cd" points="379.96,-98.75 369.96,-102.25 379.96,-105.75 379.96,-98.75"/>
<text text-anchor="middle" x="426.5" y="-104" font-family="Helvetica,sans-Serif" font-size="10.00"> i</text>
</g>
<!-- Node14 -->
<g id="node14" class="node">
<title>Node14</title>
<g id="a_node14"><a xlink:href="class_f_tensor_1_1_index.html" target="_top" xlink:title=" ">
<polygon fill="white" stroke="#666666" points="112,-30.5 16.5,-30.5 16.5,0 112,0 112,-30.5"/>
<text text-anchor="start" x="24.5" y="-17" font-family="Helvetica,sans-Serif" font-size="10.00">FTensor::Index&lt; i,</text>
<text text-anchor="middle" x="64.25" y="-5.75" font-family="Helvetica,sans-Serif" font-size="10.00"> Dim &gt;</text>
</a>
</g>
</g>
<!-- Node14&#45;&gt;Node13 -->
<g id="edge13" class="edge">
<title>Node14&#45;&gt;Node13</title>
<path fill="none" stroke="orange" stroke-dasharray="5,2" d="M123.63,-2.94C161.24,1.53 209.15,0.35 242.5,-25 262.39,-40.12 243.52,-59.93 260.5,-78.25 263.4,-81.38 266.77,-84.11 270.4,-86.5"/>
<polygon fill="orange" stroke="orange" points="123.25,0.54 113.82,-4.29 124.2,-6.4 123.25,0.54"/>
<text text-anchor="middle" x="194.5" y="-27" font-family="Helvetica,sans-Serif" font-size="10.00"> &lt; &#39;i&#39;, SPACE_DIM &gt;</text>
</g>
<!-- Node15 -->
<g id="node15" class="node">
<title>Node15</title>
<g id="a_node15"><a xlink:title=" ">
<polygon fill="white" stroke="#666666" points="375.5,-69.12 260.5,-69.12 260.5,-27.38 375.5,-27.38 375.5,-69.12"/>
<text text-anchor="start" x="268.5" y="-55.62" font-family="Helvetica,sans-Serif" font-size="10.00">function&lt; double(const</text>
<text text-anchor="start" x="268.5" y="-44.38" font-family="Helvetica,sans-Serif" font-size="10.00"> double, const double,</text>
<text text-anchor="middle" x="318" y="-33.12" font-family="Helvetica,sans-Serif" font-size="10.00"> const double)&gt;</text>
</a>
</g>
</g>
<!-- Node15&#45;&gt;Node1 -->
<g id="edge14" class="edge">
<title>Node15&#45;&gt;Node1</title>
<path fill="none" stroke="#9a32cd" stroke-dasharray="5,2" d="M386.95,-63C414.75,-69.04 447.32,-76.11 477.1,-82.57"/>
<polygon fill="#9a32cd" stroke="#9a32cd" points="387.75,-59.59 377.24,-60.89 386.27,-66.43 387.75,-59.59"/>
<text text-anchor="middle" x="426.5" y="-80" font-family="Helvetica,sans-Serif" font-size="10.00"> alphaConstant</text>
</g>
</g>
</svg>
