<?xml version="1.0" encoding="UTF-8" standalone="no"?>
<!DOCTYPE svg PUBLIC "-//W3C//DTD SVG 1.1//EN"
 "http://www.w3.org/Graphics/SVG/1.1/DTD/svg11.dtd">
<!-- Generated by graphviz version 9.0.0 (20230911.1827)
 -->
<!-- Title: OpURhs Pages: 1 -->
<!--zoomable 457 -->
<svg id="main" version="1.1" xmlns="http://www.w3.org/2000/svg" xmlns:xlink="http://www.w3.org/1999/xlink" xml:space="preserve" onload="init(evt)">
<style type="text/css"><![CDATA[
.edge:hover path { stroke: red; }
.edge:hover polygon { stroke: red; fill: red; }
]]></style>
<script type="text/javascript"><![CDATA[
var edges = document.getElementsByTagName('g');
if (edges && edges.length) {
  for (var i=0;i<edges.length;i++) {
    if (edges[i].id.substr(0,4)=='edge') {
      edges[i].setAttribute('class','edge');
    }
  }
}
]]></script>
        <defs>
                <circle id="rim" cx="0" cy="0" r="7"/>
                <circle id="rim2" cx="0" cy="0" r="3.5"/>
                <g id="zoomPlus">
                        <use xlink:href="#rim" fill="#404040">
                                <set attributeName="fill" to="#808080" begin="zoomplus.mouseover" end="zoomplus.mouseout"/>
                        </use>
                        <path d="M-4,0h8M0,-4v8" fill="none" stroke="white" stroke-width="1.5" pointer-events="none"/>
                </g>
                <g id="zoomMin">
                        <use xlink:href="#rim" fill="#404040">
                                <set attributeName="fill" to="#808080" begin="zoomminus.mouseover" end="zoomminus.mouseout"/>
                        </use>
                        <path d="M-4,0h8" fill="none" stroke="white" stroke-width="1.5" pointer-events="none"/>
                </g>
                <g id="dirArrow">
                        <path fill="none" stroke="white" stroke-width="1.5" d="M0,-3.0v7 M-2.5,-0.5L0,-3.0L2.5,-0.5"/>
                </g>
               <g id="resetDef">
                       <use xlink:href="#rim2" fill="#404040">
                               <set attributeName="fill" to="#808080" begin="reset.mouseover" end="reset.mouseout"/>
                       </use>
               </g>
        </defs>

<script type="text/javascript">
var viewWidth = 538;
var viewHeight = 457;
var sectionId = 'dynsection-1';
</script>
<script xlink:href="svgpan.js"/>
<svg id="graph" class="graph">
<g id="viewport">
<title>OpURhs</title>
<!-- Node1 -->
<g id="node1" class="node">
<title>Node1</title>
<g id="a_node1"><a xlink:title=" ">
<polygon fill="#999999" stroke="#666666" points="530.25,-215.92 476,-215.92 476,-196.67 530.25,-196.67 530.25,-215.92"/>
<text text-anchor="middle" x="503.12" y="-202.42" font-family="Helvetica,sans-Serif" font-size="10.00">OpURhs</text>
</a>
</g>
</g>
<!-- Node2 -->
<g id="node2" class="node">
<title>Node2</title>
<g id="a_node2"><a xlink:href="struct_mo_f_e_m_1_1_op_base_impl.html" target="_top" xlink:title=" ">
<polygon fill="white" stroke="#666666" points="389.38,-245.92 269.12,-245.92 269.12,-226.67 389.38,-226.67 389.38,-245.92"/>
<text text-anchor="middle" x="329.25" y="-232.42" font-family="Helvetica,sans-Serif" font-size="10.00">AssemblyDomainEleOp</text>
</a>
</g>
</g>
<!-- Node2&#45;&gt;Node1 -->
<g id="edge1" class="edge">
<title>Node2&#45;&gt;Node1</title>
<path fill="none" stroke="#63b8ff" d="M401.01,-231.58C419.69,-229.51 439.73,-226.54 458,-222.29 464.51,-220.78 471.37,-218.59 477.7,-216.32"/>
<polygon fill="#63b8ff" stroke="#63b8ff" points="400.67,-228.09 391.08,-232.6 401.39,-235.06 400.67,-228.09"/>
</g>
<!-- Node3 -->
<g id="node3" class="node">
<title>Node3</title>
<g id="a_node3"><a xlink:title=" ">
<polygon fill="white" stroke="#666666" points="85.75,-448.92 42.75,-448.92 42.75,-429.67 85.75,-429.67 85.75,-448.92"/>
<text text-anchor="middle" x="64.25" y="-435.42" font-family="Helvetica,sans-Serif" font-size="10.00">EleOp</text>
</a>
</g>
</g>
<!-- Node3&#45;&gt;Node2 -->
<g id="edge2" class="edge">
<title>Node3&#45;&gt;Node2</title>
<path fill="none" stroke="#63b8ff" d="M97.12,-443.25C135.39,-446.26 199.75,-445.53 242.5,-414.29 301.49,-371.19 321.68,-276.59 326.8,-246.02"/>
<polygon fill="#63b8ff" stroke="#63b8ff" points="97.93,-439.81 87.65,-442.37 97.28,-446.78 97.93,-439.81"/>
</g>
<!-- Node4 -->
<g id="node4" class="node">
<title>Node4</title>
<g id="a_node4"><a xlink:title=" ">
<polygon fill="white" stroke="#666666" points="128.5,-411.92 0,-411.92 0,-392.67 128.5,-392.67 128.5,-411.92"/>
<text text-anchor="middle" x="64.25" y="-398.42" font-family="Helvetica,sans-Serif" font-size="10.00">function&lt; double(double)&gt;</text>
</a>
</g>
</g>
<!-- Node4&#45;&gt;Node2 -->
<g id="edge3" class="edge">
<title>Node4&#45;&gt;Node2</title>
<path fill="none" stroke="#9a32cd" stroke-dasharray="5,2" d="M140.11,-400.48C173.78,-396.56 212.59,-387.45 242.5,-367.29 288.71,-336.15 315.9,-270.88 324.9,-246.11"/>
<polygon fill="#9a32cd" stroke="#9a32cd" points="140.01,-396.97 130.41,-401.47 140.71,-403.94 140.01,-396.97"/>
<text text-anchor="middle" x="194.5" y="-401.04" font-family="Helvetica,sans-Serif" font-size="10.00"> timeScalingFun</text>
</g>
<!-- Node5 -->
<g id="node5" class="node">
<title>Node5</title>
<g id="a_node5"><a xlink:title=" ">
<polygon fill="white" stroke="#666666" points="121.75,-374.54 6.75,-374.54 6.75,-344.04 121.75,-344.04 121.75,-374.54"/>
<text text-anchor="start" x="14.75" y="-361.04" font-family="Helvetica,sans-Serif" font-size="10.00">function&lt; double(const</text>
<text text-anchor="middle" x="64.25" y="-349.79" font-family="Helvetica,sans-Serif" font-size="10.00"> FEMethod *fe_ptr)&gt;</text>
</a>
</g>
</g>
<!-- Node5&#45;&gt;Node2 -->
<g id="edge4" class="edge">
<title>Node5&#45;&gt;Node2</title>
<path fill="none" stroke="#9a32cd" stroke-dasharray="5,2" d="M133.44,-355.43C167.82,-351.16 209.18,-342.35 242.5,-324.29 278.51,-304.78 308.74,-265.03 321.6,-246.38"/>
<polygon fill="#9a32cd" stroke="#9a32cd" points="133.12,-351.94 123.57,-356.54 133.9,-358.9 133.12,-351.94"/>
<text text-anchor="middle" x="194.5" y="-354.04" font-family="Helvetica,sans-Serif" font-size="10.00"> feScalingFun</text>
</g>
<!-- Node6 -->
<g id="node6" class="node">
<title>Node6</title>
<g id="a_node6"><a xlink:title=" ">
<polygon fill="white" stroke="#666666" points="118.38,-325.92 10.12,-325.92 10.12,-306.67 118.38,-306.67 118.38,-325.92"/>
<text text-anchor="middle" x="64.25" y="-312.42" font-family="Helvetica,sans-Serif" font-size="10.00">shared_ptr&lt; Range &gt;</text>
</a>
</g>
</g>
<!-- Node6&#45;&gt;Node2 -->
<g id="edge5" class="edge">
<title>Node6&#45;&gt;Node2</title>
<path fill="none" stroke="#9a32cd" stroke-dasharray="5,2" d="M129.81,-311.58C164.08,-307.64 206.44,-300.43 242.5,-287.29 270.17,-277.21 298.9,-258.03 315.09,-246.28"/>
<polygon fill="#9a32cd" stroke="#9a32cd" points="129.6,-308.08 120.03,-312.63 130.35,-315.04 129.6,-308.08"/>
<text text-anchor="middle" x="194.5" y="-311.04" font-family="Helvetica,sans-Serif" font-size="10.00"> entsPtr</text>
</g>
<!-- Node7 -->
<g id="node7" class="node">
<title>Node7</title>
<g id="a_node7"><a xlink:title=" ">
<polygon fill="white" stroke="#666666" points="127.75,-288.92 0.75,-288.92 0.75,-269.67 127.75,-269.67 127.75,-288.92"/>
<text text-anchor="middle" x="64.25" y="-275.42" font-family="Helvetica,sans-Serif" font-size="10.00">static MatSetValuesHook</text>
</a>
</g>
</g>
<!-- Node7&#45;&gt;Node2 -->
<g id="edge6" class="edge">
<title>Node7&#45;&gt;Node2</title>
<path fill="none" stroke="#9a32cd" stroke-dasharray="5,2" d="M139.03,-274.14C171.01,-271.2 208.79,-266.77 242.5,-260.29 260.87,-256.76 281.03,-251.21 297.19,-246.33"/>
<polygon fill="#9a32cd" stroke="#9a32cd" points="139.13,-270.62 129.48,-274.99 139.75,-277.59 139.13,-270.62"/>
<text text-anchor="middle" x="194.5" y="-274.04" font-family="Helvetica,sans-Serif" font-size="10.00"> matSetValuesHook</text>
</g>
<!-- Node8 -->
<g id="node8" class="node">
<title>Node8</title>
<g id="a_node8"><a xlink:title=" ">
<polygon fill="white" stroke="#666666" points="78.65,-200.92 49.85,-200.92 49.85,-181.67 78.65,-181.67 78.65,-200.92"/>
<text text-anchor="middle" x="64.25" y="-187.42" font-family="Helvetica,sans-Serif" font-size="10.00">int</text>
</a>
</g>
</g>
<!-- Node8&#45;&gt;Node2 -->
<g id="edge7" class="edge">
<title>Node8&#45;&gt;Node2</title>
<path fill="none" stroke="#9a32cd" stroke-dasharray="5,2" d="M89.81,-186.92C124.48,-181.65 189.46,-175.08 242.5,-188.79 257,-192.54 292.09,-213.58 312.61,-226.37"/>
<polygon fill="#9a32cd" stroke="#9a32cd" points="89.68,-183.39 80.37,-188.45 90.81,-190.3 89.68,-183.39"/>
<text text-anchor="middle" x="194.5" y="-246.29" font-family="Helvetica,sans-Serif" font-size="10.00"> colSide</text>
<text text-anchor="middle" x="194.5" y="-235.04" font-family="Helvetica,sans-Serif" font-size="10.00">nbCols</text>
<text text-anchor="middle" x="194.5" y="-223.79" font-family="Helvetica,sans-Serif" font-size="10.00">nbIntegrationPts</text>
<text text-anchor="middle" x="194.5" y="-212.54" font-family="Helvetica,sans-Serif" font-size="10.00">nbRowBaseFunctions</text>
<text text-anchor="middle" x="194.5" y="-201.29" font-family="Helvetica,sans-Serif" font-size="10.00">nbRows</text>
<text text-anchor="middle" x="194.5" y="-190.04" font-family="Helvetica,sans-Serif" font-size="10.00">rowSide</text>
</g>
<!-- Node9 -->
<g id="node9" class="node">
<title>Node9</title>
<g id="a_node9"><a xlink:href="class_entity_type.html" target="_top" xlink:title=" ">
<polygon fill="white" stroke="#666666" points="95.5,-154.92 33,-154.92 33,-135.67 95.5,-135.67 95.5,-154.92"/>
<text text-anchor="middle" x="64.25" y="-141.42" font-family="Helvetica,sans-Serif" font-size="10.00">EntityType</text>
</a>
</g>
</g>
<!-- Node9&#45;&gt;Node2 -->
<g id="edge8" class="edge">
<title>Node9&#45;&gt;Node2</title>
<path fill="none" stroke="#9a32cd" stroke-dasharray="5,2" d="M106.75,-135.73C145.39,-129.31 202.82,-126.37 242.5,-153.79 259.04,-165.22 247.27,-180.15 260.5,-195.29 272.35,-208.86 289.81,-219.27 304.04,-226.21"/>
<polygon fill="#9a32cd" stroke="#9a32cd" points="106.6,-132.2 97.39,-137.43 107.85,-139.09 106.6,-132.2"/>
<text text-anchor="middle" x="194.5" y="-167.29" font-family="Helvetica,sans-Serif" font-size="10.00"> colType</text>
<text text-anchor="middle" x="194.5" y="-156.04" font-family="Helvetica,sans-Serif" font-size="10.00">rowType</text>
</g>
<!-- Node10 -->
<g id="node10" class="node">
<title>Node10</title>
<g id="a_node10"><a xlink:href="classbool.html" target="_top" xlink:title=" ">
<polygon fill="white" stroke="#666666" points="81.25,-108.92 47.25,-108.92 47.25,-89.67 81.25,-89.67 81.25,-108.92"/>
<text text-anchor="middle" x="64.25" y="-95.42" font-family="Helvetica,sans-Serif" font-size="10.00">bool</text>
</a>
</g>
</g>
<!-- Node10&#45;&gt;Node2 -->
<g id="edge9" class="edge">
<title>Node10&#45;&gt;Node2</title>
<path fill="none" stroke="#9a32cd" stroke-dasharray="5,2" d="M92.57,-90.95C130.89,-81.09 200.6,-70.17 242.5,-105.79 273.42,-132.07 237.17,-162.09 260.5,-195.29 270.46,-209.46 287.03,-219.62 301.29,-226.28"/>
<polygon fill="#9a32cd" stroke="#9a32cd" points="91.7,-87.56 82.99,-93.58 93.56,-94.3 91.7,-87.56"/>
<text text-anchor="middle" x="194.5" y="-119.29" font-family="Helvetica,sans-Serif" font-size="10.00"> assembleTranspose</text>
<text text-anchor="middle" x="194.5" y="-108.04" font-family="Helvetica,sans-Serif" font-size="10.00">onlyTranspose</text>
</g>
<!-- Node11 -->
<g id="node11" class="node">
<title>Node11</title>
<g id="a_node11"><a xlink:href="class_u_blas_matrix_3_01double_01_4.html" target="_top" xlink:title=" ">
<polygon fill="white" stroke="#666666" points="122.5,-62.92 6,-62.92 6,-43.67 122.5,-43.67 122.5,-62.92"/>
<text text-anchor="middle" x="64.25" y="-49.42" font-family="Helvetica,sans-Serif" font-size="10.00">UBlasMatrix&lt; double &gt;</text>
</a>
</g>
</g>
<!-- Node11&#45;&gt;Node2 -->
<g id="edge10" class="edge">
<title>Node11&#45;&gt;Node2</title>
<path fill="none" stroke="#9a32cd" stroke-dasharray="5,2" d="M134.1,-44.91C176.91,-41.35 226.71,-40.77 242.5,-54.79 266.04,-75.69 243.33,-168.91 260.5,-195.29 269.8,-209.58 285.99,-219.64 300.21,-226.23"/>
<polygon fill="#9a32cd" stroke="#9a32cd" points="133.98,-41.41 124.33,-45.79 134.6,-48.38 133.98,-41.41"/>
<text text-anchor="middle" x="194.5" y="-68.29" font-family="Helvetica,sans-Serif" font-size="10.00"> locMat</text>
<text text-anchor="middle" x="194.5" y="-57.04" font-family="Helvetica,sans-Serif" font-size="10.00">locMatTranspose</text>
</g>
<!-- Node12 -->
<g id="node12" class="node">
<title>Node12</title>
<g id="a_node12"><a xlink:href="class_u_blas_vector_3_01double_01_4.html" target="_top" xlink:title=" ">
<polygon fill="white" stroke="#666666" points="123.25,-25.92 5.25,-25.92 5.25,-6.67 123.25,-6.67 123.25,-25.92"/>
<text text-anchor="middle" x="64.25" y="-12.42" font-family="Helvetica,sans-Serif" font-size="10.00">UBlasVector&lt; double &gt;</text>
</a>
</g>
</g>
<!-- Node12&#45;&gt;Node2 -->
<g id="edge11" class="edge">
<title>Node12&#45;&gt;Node2</title>
<path fill="none" stroke="#9a32cd" stroke-dasharray="5,2" d="M114.42,-4.13C154.31,2.53 209.22,3.9 242.5,-28.04 269.47,-53.93 240.43,-163.76 260.5,-195.29 269.66,-209.67 285.84,-219.74 300.09,-226.3"/>
<polygon fill="#9a32cd" stroke="#9a32cd" points="114.02,-0.65 104.82,-5.91 115.29,-7.53 114.02,-0.65"/>
<text text-anchor="middle" x="194.5" y="-30.04" font-family="Helvetica,sans-Serif" font-size="10.00"> locF</text>
</g>
<!-- Node13 -->
<g id="node13" class="node">
<title>Node13</title>
<g id="a_node13"><a xlink:title=" ">
<polygon fill="white" stroke="#666666" points="398,-185.92 260.5,-185.92 260.5,-166.67 398,-166.67 398,-185.92"/>
<text text-anchor="middle" x="329.25" y="-172.42" font-family="Helvetica,sans-Serif" font-size="10.00">shared_ptr&lt; MatrixDouble &gt;</text>
</a>
</g>
</g>
<!-- Node13&#45;&gt;Node1 -->
<g id="edge12" class="edge">
<title>Node13&#45;&gt;Node1</title>
<path fill="none" stroke="#9a32cd" stroke-dasharray="5,2" d="M409.67,-166.05C425.96,-166.27 442.78,-168.23 458,-173.29 471.62,-177.82 484.42,-188.37 492.7,-196.33"/>
<polygon fill="#9a32cd" stroke="#9a32cd" points="409.97,-162.55 400.01,-166.16 410.05,-169.55 409.97,-162.55"/>
<text text-anchor="middle" x="437" y="-208.79" font-family="Helvetica,sans-Serif" font-size="10.00"> hGradPtr</text>
<text text-anchor="middle" x="437" y="-197.54" font-family="Helvetica,sans-Serif" font-size="10.00">uDotPtr</text>
<text text-anchor="middle" x="437" y="-186.29" font-family="Helvetica,sans-Serif" font-size="10.00">uGradPtr</text>
<text text-anchor="middle" x="437" y="-175.04" font-family="Helvetica,sans-Serif" font-size="10.00">uPtr</text>
</g>
</g>
</svg>
        <g id="navigator" transform="translate(0 0)" fill="#404254">
                <rect fill="#f2f5e9" fill-opacity="0.5" stroke="#606060" stroke-width=".5" x="0" y="0" width="60" height="60"/>
                <use id="zoomplus" xlink:href="#zoomPlus" x="17" y="9" onmousedown="handleZoom(evt,'in')"/>
                <use id="zoomminus" xlink:href="#zoomMin" x="42" y="9" onmousedown="handleZoom(evt,'out')"/>
                <use id="reset" xlink:href="#resetDef" x="30" y="36" onmousedown="handleReset()"/>
                <g id="arrowUp" xlink:href="#dirArrow" transform="translate(30 24)" onmousedown="handlePan(0,-1)">
                  <use xlink:href="#rim" fill="#404040">
                        <set attributeName="fill" to="#808080" begin="arrowUp.mouseover" end="arrowUp.mouseout"/>
                  </use>
                  <path fill="none" stroke="white" stroke-width="1.5" d="M0,-3.0v7 M-2.5,-0.5L0,-3.0L2.5,-0.5"/>
                </g>
                <g id="arrowRight" xlink:href="#dirArrow" transform="rotate(90) translate(36 -43)" onmousedown="handlePan(1,0)">
                  <use xlink:href="#rim" fill="#404040">
                        <set attributeName="fill" to="#808080" begin="arrowRight.mouseover" end="arrowRight.mouseout"/>
                  </use>
                  <path fill="none" stroke="white" stroke-width="1.5" d="M0,-3.0v7 M-2.5,-0.5L0,-3.0L2.5,-0.5"/>
                </g>
                <g id="arrowDown" xlink:href="#dirArrow" transform="rotate(180) translate(-30 -48)" onmousedown="handlePan(0,1)">
                  <use xlink:href="#rim" fill="#404040">
                        <set attributeName="fill" to="#808080" begin="arrowDown.mouseover" end="arrowDown.mouseout"/>
                  </use>
                  <path fill="none" stroke="white" stroke-width="1.5" d="M0,-3.0v7 M-2.5,-0.5L0,-3.0L2.5,-0.5"/>
                </g>
                <g id="arrowLeft" xlink:href="#dirArrow" transform="rotate(270) translate(-36 17)" onmousedown="handlePan(-1,0)">
                  <use xlink:href="#rim" fill="#404040">
                        <set attributeName="fill" to="#808080" begin="arrowLeft.mouseover" end="arrowLeft.mouseout"/>
                  </use>
                  <path fill="none" stroke="white" stroke-width="1.5" d="M0,-3.0v7 M-2.5,-0.5L0,-3.0L2.5,-0.5"/>
                </g>
        </g>
        <svg viewBox="0 0 15 15" width="100%" height="30px" preserveAspectRatio="xMaxYMin meet">
         <g id="arrow_out" transform="scale(0.3 0.3)">
          <a xlink:href="struct_op_u_rhs__coll__graph_org.svg" target="_base">
           <rect id="button" ry="5" rx="5" y="6" x="6" height="38" width="38"
                fill="#f2f5e9" fill-opacity="0.5" stroke="#606060" stroke-width="1.0"/>
           <path id="arrow"
             d="M 11.500037,31.436501 C 11.940474,20.09759 22.043105,11.32322 32.158766,21.979434 L 37.068811,17.246167 C 37.068811,17.246167 37.088388,32 37.088388,32 L 22.160133,31.978069 C 22.160133,31.978069 26.997745,27.140456 26.997745,27.140456 C 18.528582,18.264221 13.291696,25.230495 11.500037,31.436501 z"
             style="fill:#404040;"/>
          </a>
         </g>
        </svg>
</svg>
