<?xml version="1.0" encoding="UTF-8" standalone="no"?>
<!DOCTYPE svg PUBLIC "-//W3C//DTD SVG 1.1//EN"
 "http://www.w3.org/Graphics/SVG/1.1/DTD/svg11.dtd">
<!-- Generated by graphviz version 9.0.0 (20230911.1827)
 -->
<!-- Title: ElasticMaterials::BlockOptionData Pages: 1 -->
<svg width="202pt" height="173pt"
 viewBox="0.00 0.00 202.25 172.50" xmlns="http://www.w3.org/2000/svg" xmlns:xlink="http://www.w3.org/1999/xlink">
<g id="graph0" class="graph" transform="scale(1 1) rotate(0) translate(4 168.5)">
<title>ElasticMaterials::BlockOptionData</title>
<!-- Node1 -->
<g id="node1" class="node">
<title>Node1</title>
<g id="a_node1"><a xlink:title=" ">
<polygon fill="#999999" stroke="#666666" points="166,-19.25 0,-19.25 0,0 166,0 166,-19.25"/>
<text text-anchor="middle" x="83" y="-5.75" font-family="Helvetica,sans-Serif" font-size="10.00">ElasticMaterials::BlockOptionData</text>
</a>
</g>
</g>
<!-- Node2 -->
<g id="node2" class="node">
<title>Node2</title>
<g id="a_node2"><a xlink:title=" ">
<polygon fill="white" stroke="#666666" points="41,-164.5 1,-164.5 1,-145.25 41,-145.25 41,-164.5"/>
<text text-anchor="middle" x="21" y="-151" font-family="Helvetica,sans-Serif" font-size="10.00">string</text>
</a>
</g>
</g>
<!-- Node2&#45;&gt;Node1 -->
<g id="edge1" class="edge">
<title>Node2&#45;&gt;Node1</title>
<path fill="none" stroke="#9a32cd" stroke-dasharray="5,2" d="M19.45,-133.56C18.58,-108.74 20.5,-66.45 40,-37.25 45.07,-29.66 53.12,-23.84 60.89,-19.61"/>
<polygon fill="#9a32cd" stroke="#9a32cd" points="15.94,-133.49 20,-143.28 22.93,-133.09 15.94,-133.49"/>
<text text-anchor="middle" x="59.5" y="-78.38" font-family="Helvetica,sans-Serif" font-size="10.00"> mAterial</text>
</g>
<!-- Node3 -->
<g id="node3" class="node">
<title>Node3</title>
<g id="a_node3"><a xlink:title=" ">
<polygon fill="white" stroke="#666666" points="97.4,-164.5 68.6,-164.5 68.6,-145.25 97.4,-145.25 97.4,-164.5"/>
<text text-anchor="middle" x="83" y="-151" font-family="Helvetica,sans-Serif" font-size="10.00">int</text>
</a>
</g>
</g>
<!-- Node3&#45;&gt;Node1 -->
<g id="edge2" class="edge">
<title>Node3&#45;&gt;Node1</title>
<path fill="none" stroke="#9a32cd" stroke-dasharray="5,2" d="M83,-133.62C83,-102 83,-42.19 83,-19.58"/>
<polygon fill="#9a32cd" stroke="#9a32cd" points="79.5,-133.4 83,-143.4 86.5,-133.4 79.5,-133.4"/>
<text text-anchor="middle" x="97.62" y="-78.38" font-family="Helvetica,sans-Serif" font-size="10.00"> oRder</text>
</g>
<!-- Node4 -->
<g id="node4" class="node">
<title>Node4</title>
<g id="a_node4"><a xlink:href="classdouble.html" target="_top" xlink:title=" ">
<polygon fill="white" stroke="#666666" points="160.25,-164.5 115.75,-164.5 115.75,-145.25 160.25,-145.25 160.25,-164.5"/>
<text text-anchor="middle" x="138" y="-151" font-family="Helvetica,sans-Serif" font-size="10.00">double</text>
</a>
</g>
</g>
<!-- Node4&#45;&gt;Node1 -->
<g id="edge3" class="edge">
<title>Node4&#45;&gt;Node1</title>
<path fill="none" stroke="#9a32cd" stroke-dasharray="5,2" d="M138.31,-133.57C137.8,-109.06 134.02,-67.38 116,-37.25 111.77,-30.17 104.92,-24.19 98.56,-19.7"/>
<polygon fill="#9a32cd" stroke="#9a32cd" points="134.81,-133.45 138.33,-143.45 141.81,-133.44 134.81,-133.45"/>
<text text-anchor="middle" x="166.12" y="-117.75" font-family="Helvetica,sans-Serif" font-size="10.00"> aX</text>
<text text-anchor="middle" x="166.12" y="-106.5" font-family="Helvetica,sans-Serif" font-size="10.00">aY</text>
<text text-anchor="middle" x="166.12" y="-95.25" font-family="Helvetica,sans-Serif" font-size="10.00">aZ</text>
<text text-anchor="middle" x="166.12" y="-84" font-family="Helvetica,sans-Serif" font-size="10.00">dEnsity</text>
<text text-anchor="middle" x="166.12" y="-72.75" font-family="Helvetica,sans-Serif" font-size="10.00">dashG</text>
<text text-anchor="middle" x="166.12" y="-61.5" font-family="Helvetica,sans-Serif" font-size="10.00">dashPoisson</text>
<text text-anchor="middle" x="166.12" y="-50.25" font-family="Helvetica,sans-Serif" font-size="10.00">pOisson</text>
<text text-anchor="middle" x="166.12" y="-39" font-family="Helvetica,sans-Serif" font-size="10.00">yOung</text>
</g>
</g>
</svg>
