<?xml version="1.0" encoding="UTF-8" standalone="no"?>
<!DOCTYPE svg PUBLIC "-//W3C//DTD SVG 1.1//EN"
 "http://www.w3.org/Graphics/SVG/1.1/DTD/svg11.dtd">
<!-- Generated by graphviz version 9.0.0 (20230911.1827)
 -->
<!-- Title: MagneticElement Pages: 1 -->
<svg width="1511pt" height="337pt"
 viewBox="0.00 0.00 1511.25 336.88" xmlns="http://www.w3.org/2000/svg" xmlns:xlink="http://www.w3.org/1999/xlink">
<g id="graph0" class="graph" transform="scale(1 1) rotate(0) translate(4 332.88)">
<title>MagneticElement</title>
<!-- Node1 -->
<g id="node1" class="node">
<title>Node1</title>
<g id="a_node1"><a xlink:title="Implementation of magneto&#45;static problem (basic Implementation)">
<polygon fill="#999999" stroke="#666666" points="1503.25,-180.5 1411.5,-180.5 1411.5,-161.25 1503.25,-161.25 1503.25,-180.5"/>
<text text-anchor="middle" x="1457.38" y="-167" font-family="Helvetica,sans-Serif" font-size="10.00">MagneticElement</text>
</a>
</g>
</g>
<!-- Node2 -->
<g id="node2" class="node">
<title>Node2</title>
<g id="a_node2"><a xlink:href="struct_mo_f_e_m_1_1_deprecated_core_interface.html" target="_top" xlink:title="Deprecated interface functions.">
<polygon fill="white" stroke="#666666" points="1328.25,-242.5 1162.25,-242.5 1162.25,-223.25 1328.25,-223.25 1328.25,-242.5"/>
<text text-anchor="middle" x="1245.25" y="-229" font-family="Helvetica,sans-Serif" font-size="10.00">MoFEM::DeprecatedCoreInterface</text>
</a>
</g>
</g>
<!-- Node2&#45;&gt;Node1 -->
<g id="edge1" class="edge">
<title>Node2&#45;&gt;Node1</title>
<path fill="none" stroke="#9a32cd" stroke-dasharray="5,2" d="M1291.31,-219.58C1330.53,-208.01 1386.53,-191.48 1422.16,-180.97"/>
<polygon fill="#9a32cd" stroke="#9a32cd" points="1290.53,-216.16 1281.93,-222.35 1292.51,-222.87 1290.53,-216.16"/>
<text text-anchor="middle" x="1369.88" y="-203.62" font-family="Helvetica,sans-Serif" font-size="10.00"> mField</text>
</g>
<!-- Node3 -->
<g id="node3" class="node">
<title>Node3</title>
<g id="a_node3"><a xlink:href="struct_mo_f_e_m_1_1_core_interface.html" target="_top" xlink:title="Interface.">
<polygon fill="white" stroke="#666666" points="983.75,-293.5 868,-293.5 868,-274.25 983.75,-274.25 983.75,-293.5"/>
<text text-anchor="middle" x="925.88" y="-280" font-family="Helvetica,sans-Serif" font-size="10.00">MoFEM::CoreInterface</text>
</a>
</g>
</g>
<!-- Node3&#45;&gt;Node2 -->
<g id="edge2" class="edge">
<title>Node3&#45;&gt;Node2</title>
<path fill="none" stroke="#63b8ff" d="M995.52,-280.13C1038.53,-276.99 1094.96,-271.43 1144.25,-261.88 1168.38,-257.19 1195.1,-249.3 1214.84,-242.93"/>
<polygon fill="#63b8ff" stroke="#63b8ff" points="995.28,-276.63 985.55,-280.82 995.77,-283.62 995.28,-276.63"/>
</g>
<!-- Node4 -->
<g id="node4" class="node">
<title>Node4</title>
<g id="a_node4"><a xlink:href="struct_mo_f_e_m_1_1_unknown_interface.html" target="_top" xlink:title="base class for all interface classes">
<polygon fill="white" stroke="#666666" points="801.75,-293.5 665.75,-293.5 665.75,-274.25 801.75,-274.25 801.75,-293.5"/>
<text text-anchor="middle" x="733.75" y="-280" font-family="Helvetica,sans-Serif" font-size="10.00">MoFEM::UnknownInterface</text>
</a>
</g>
</g>
<!-- Node4&#45;&gt;Node3 -->
<g id="edge3" class="edge">
<title>Node4&#45;&gt;Node3</title>
<path fill="none" stroke="#63b8ff" d="M813.54,-283.88C831.71,-283.88 850.7,-283.88 867.74,-283.88"/>
<polygon fill="#63b8ff" stroke="#63b8ff" points="813.56,-280.38 803.56,-283.88 813.56,-287.38 813.56,-280.38"/>
</g>
<!-- Node5 -->
<g id="node5" class="node">
<title>Node5</title>
<g id="a_node5"><a xlink:title=" ">
<polygon fill="white" stroke="#666666" points="563,-316 346.75,-316 346.75,-251.75 563,-251.75 563,-316"/>
<text text-anchor="start" x="354.75" y="-302.5" font-family="Helvetica,sans-Serif" font-size="10.00">multi_index_container</text>
<text text-anchor="start" x="354.75" y="-291.25" font-family="Helvetica,sans-Serif" font-size="10.00">&lt; UIdTypeMap, indexed</text>
<text text-anchor="start" x="354.75" y="-280" font-family="Helvetica,sans-Serif" font-size="10.00">_by&lt; hashed_unique&lt; member</text>
<text text-anchor="start" x="354.75" y="-268.75" font-family="Helvetica,sans-Serif" font-size="10.00">&lt; UIdTypeMap, boost::typeindex</text>
<text text-anchor="middle" x="454.88" y="-257.5" font-family="Helvetica,sans-Serif" font-size="10.00">::type_index, &amp;UIdTypeMap::classIdx &gt; &gt; &gt; &gt;</text>
</a>
</g>
</g>
<!-- Node5&#45;&gt;Node4 -->
<g id="edge4" class="edge">
<title>Node5&#45;&gt;Node4</title>
<path fill="none" stroke="#9a32cd" stroke-dasharray="5,2" d="M574.68,-283.88C605.7,-283.88 638.06,-283.88 665.37,-283.88"/>
<polygon fill="#9a32cd" stroke="#9a32cd" points="574.83,-280.38 564.83,-283.88 574.83,-287.38 574.83,-280.38"/>
<text text-anchor="middle" x="614.38" y="-285.62" font-family="Helvetica,sans-Serif" font-size="10.00"> iFaceTypeMap</text>
</g>
<!-- Node6 -->
<g id="node6" class="node">
<title>Node6</title>
<g id="a_node6"><a xlink:title=" ">
<polygon fill="white" stroke="#666666" points="110.5,-293.5 0,-293.5 0,-274.25 110.5,-274.25 110.5,-293.5"/>
<text text-anchor="middle" x="55.25" y="-280" font-family="Helvetica,sans-Serif" font-size="10.00">multi_index_container</text>
</a>
</g>
</g>
<!-- Node6&#45;&gt;Node5 -->
<g id="edge5" class="edge">
<title>Node6&#45;&gt;Node5</title>
<path fill="none" stroke="orange" stroke-dasharray="5,2" d="M122.09,-283.88C183.01,-283.88 274.7,-283.88 346.26,-283.88"/>
<polygon fill="orange" stroke="orange" points="122.22,-280.38 112.22,-283.88 122.22,-287.38 122.22,-280.38"/>
<text text-anchor="start" x="128.5" y="-319.38" font-family="Helvetica,sans-Serif" font-size="10.00"> &lt; UIdTypeMap, indexed</text>
<text text-anchor="start" x="128.5" y="-308.12" font-family="Helvetica,sans-Serif" font-size="10.00">_by&lt; hashed_unique&lt; member</text>
<text text-anchor="start" x="128.5" y="-296.88" font-family="Helvetica,sans-Serif" font-size="10.00">&lt; UIdTypeMap, boost::typeindex</text>
<text text-anchor="middle" x="228.62" y="-285.62" font-family="Helvetica,sans-Serif" font-size="10.00">::type_index, &amp;UIdTypeMap::classIdx &gt; &gt; &gt; &gt;</text>
</g>
<!-- Node7 -->
<g id="node7" class="node">
<title>Node7</title>
<g id="a_node7"><a xlink:href="struct_nonlinear_elastic_element_1_1_block_data.html" target="_top" xlink:title="data for calculation heat conductivity and heat capacity elements">
<polygon fill="white" stroke="#666666" points="1306.88,-165.12 1183.62,-165.12 1183.62,-134.62 1306.88,-134.62 1306.88,-165.12"/>
<text text-anchor="start" x="1191.62" y="-151.62" font-family="Helvetica,sans-Serif" font-size="10.00">NonlinearElasticElement</text>
<text text-anchor="middle" x="1245.25" y="-140.38" font-family="Helvetica,sans-Serif" font-size="10.00">::BlockData</text>
</a>
</g>
</g>
<!-- Node7&#45;&gt;Node1 -->
<g id="edge6" class="edge">
<title>Node7&#45;&gt;Node1</title>
<path fill="none" stroke="#9a32cd" stroke-dasharray="5,2" d="M1318.84,-150.65C1342.7,-151.59 1369.31,-153.36 1393.5,-156.62 1401.04,-157.64 1409.01,-159.13 1416.66,-160.76"/>
<polygon fill="#9a32cd" stroke="#9a32cd" points="1318.99,-147.15 1308.88,-150.31 1318.75,-154.15 1318.99,-147.15"/>
<text text-anchor="middle" x="1369.88" y="-157.62" font-family="Helvetica,sans-Serif" font-size="10.00"> blockData</text>
</g>
<!-- Node8 -->
<g id="node8" class="node">
<title>Node8</title>
<g id="a_node8"><a xlink:title=" ">
<polygon fill="white" stroke="#666666" points="940.27,-256.5 911.48,-256.5 911.48,-237.25 940.27,-237.25 940.27,-256.5"/>
<text text-anchor="middle" x="925.88" y="-243" font-family="Helvetica,sans-Serif" font-size="10.00">int</text>
</a>
</g>
</g>
<!-- Node8&#45;&gt;Node7 -->
<g id="edge7" class="edge">
<title>Node8&#45;&gt;Node7</title>
<path fill="none" stroke="#9a32cd" stroke-dasharray="5,2" d="M952.04,-247.03C993.48,-246.49 1078.1,-242.05 1144.25,-216.88 1175.89,-204.83 1207.53,-181.2 1226.5,-165.47"/>
<polygon fill="#9a32cd" stroke="#9a32cd" points="952.12,-243.52 942.14,-247.08 952.16,-250.52 952.12,-243.52"/>
<text text-anchor="middle" x="1087.62" y="-242.62" font-family="Helvetica,sans-Serif" font-size="10.00"> iD</text>
</g>
<!-- Node9 -->
<g id="node9" class="node">
<title>Node9</title>
<g id="a_node9"><a xlink:href="classdouble.html" target="_top" xlink:title=" ">
<polygon fill="white" stroke="#666666" points="948.12,-188.5 903.62,-188.5 903.62,-169.25 948.12,-169.25 948.12,-188.5"/>
<text text-anchor="middle" x="925.88" y="-175" font-family="Helvetica,sans-Serif" font-size="10.00">double</text>
</a>
</g>
</g>
<!-- Node9&#45;&gt;Node7 -->
<g id="edge8" class="edge">
<title>Node9&#45;&gt;Node7</title>
<path fill="none" stroke="#9a32cd" stroke-dasharray="5,2" d="M959.51,-175.89C1012.17,-171.08 1116.71,-161.53 1183.41,-155.43"/>
<polygon fill="#9a32cd" stroke="#9a32cd" points="959.34,-172.39 949.7,-176.79 959.98,-179.36 959.34,-172.39"/>
<text text-anchor="middle" x="1087.62" y="-203.38" font-family="Helvetica,sans-Serif" font-size="10.00"> E</text>
<text text-anchor="middle" x="1087.62" y="-192.12" font-family="Helvetica,sans-Serif" font-size="10.00">PoissonRatio</text>
<text text-anchor="middle" x="1087.62" y="-180.88" font-family="Helvetica,sans-Serif" font-size="10.00">k1</text>
<text text-anchor="middle" x="1087.62" y="-169.62" font-family="Helvetica,sans-Serif" font-size="10.00">k2</text>
</g>
<!-- Node10 -->
<g id="node10" class="node">
<title>Node10</title>
<g id="a_node10"><a xlink:href="class_range.html" target="_top" xlink:title=" ">
<polygon fill="white" stroke="#666666" points="948.12,-139.5 903.62,-139.5 903.62,-120.25 948.12,-120.25 948.12,-139.5"/>
<text text-anchor="middle" x="925.88" y="-126" font-family="Helvetica,sans-Serif" font-size="10.00">Range</text>
</a>
</g>
</g>
<!-- Node10&#45;&gt;Node7 -->
<g id="edge9" class="edge">
<title>Node10&#45;&gt;Node7</title>
<path fill="none" stroke="#9a32cd" stroke-dasharray="5,2" d="M959.96,-125.55C1002.72,-120.71 1079.37,-114.6 1144.25,-123.12 1161.27,-125.36 1179.5,-129.65 1195.68,-134.15"/>
<polygon fill="#9a32cd" stroke="#9a32cd" points="959.61,-122.06 950.09,-126.72 960.43,-129.02 959.61,-122.06"/>
<text text-anchor="middle" x="1087.62" y="-147.12" font-family="Helvetica,sans-Serif" font-size="10.00"> forcesOnlyOnEntitiesCol</text>
<text text-anchor="middle" x="1087.62" y="-135.88" font-family="Helvetica,sans-Serif" font-size="10.00">forcesOnlyOnEntitiesRow</text>
<text text-anchor="middle" x="1087.62" y="-124.62" font-family="Helvetica,sans-Serif" font-size="10.00">tEts</text>
</g>
<!-- Node11 -->
<g id="node11" class="node">
<title>Node11</title>
<g id="a_node11"><a xlink:title=" ">
<polygon fill="white" stroke="#666666" points="1013,-101.75 838.75,-101.75 838.75,-60 1013,-60 1013,-101.75"/>
<text text-anchor="start" x="846.75" y="-88.25" font-family="Helvetica,sans-Serif" font-size="10.00">shared_ptr&lt; NonlinearElastic</text>
<text text-anchor="start" x="846.75" y="-77" font-family="Helvetica,sans-Serif" font-size="10.00">Element::FunctionsToCalculatePiola</text>
<text text-anchor="middle" x="925.88" y="-65.75" font-family="Helvetica,sans-Serif" font-size="10.00">KirchhoffI&lt; adouble &gt; &gt;</text>
</a>
</g>
</g>
<!-- Node11&#45;&gt;Node7 -->
<g id="edge10" class="edge">
<title>Node11&#45;&gt;Node7</title>
<path fill="none" stroke="#9a32cd" stroke-dasharray="5,2" d="M1024.36,-83.53C1062.31,-86.4 1105.83,-91.97 1144.25,-102.62 1170.34,-109.86 1198.03,-123.46 1217.64,-134.22"/>
<polygon fill="#9a32cd" stroke="#9a32cd" points="1025.02,-80.07 1014.8,-82.86 1024.53,-87.05 1025.02,-80.07"/>
<text text-anchor="middle" x="1087.62" y="-103.62" font-family="Helvetica,sans-Serif" font-size="10.00"> materialAdoublePtr</text>
</g>
<!-- Node12 -->
<g id="node12" class="node">
<title>Node12</title>
<g id="a_node12"><a xlink:title=" ">
<polygon fill="white" stroke="#666666" points="1013,-41.75 838.75,-41.75 838.75,0 1013,0 1013,-41.75"/>
<text text-anchor="start" x="846.75" y="-28.25" font-family="Helvetica,sans-Serif" font-size="10.00">shared_ptr&lt; NonlinearElastic</text>
<text text-anchor="start" x="846.75" y="-17" font-family="Helvetica,sans-Serif" font-size="10.00">Element::FunctionsToCalculatePiola</text>
<text text-anchor="middle" x="925.88" y="-5.75" font-family="Helvetica,sans-Serif" font-size="10.00">KirchhoffI&lt; double &gt; &gt;</text>
</a>
</g>
</g>
<!-- Node12&#45;&gt;Node7 -->
<g id="edge11" class="edge">
<title>Node12&#45;&gt;Node7</title>
<path fill="none" stroke="#9a32cd" stroke-dasharray="5,2" d="M1024.53,-32.38C1063.16,-39.44 1107.11,-50.72 1144.25,-68.62 1178.71,-85.24 1211.75,-115.91 1229.89,-134.45"/>
<polygon fill="#9a32cd" stroke="#9a32cd" points="1025.2,-28.95 1014.75,-30.67 1024,-35.84 1025.2,-28.95"/>
<text text-anchor="middle" x="1087.62" y="-69.62" font-family="Helvetica,sans-Serif" font-size="10.00"> materialDoublePtr</text>
</g>
</g>
</svg>
