<?xml version="1.0" encoding="UTF-8" standalone="no"?>
<!DOCTYPE svg PUBLIC "-//W3C//DTD SVG 1.1//EN"
 "http://www.w3.org/Graphics/SVG/1.1/DTD/svg11.dtd">
<!-- Generated by graphviz version 2.43.0 (0)
 -->
<!-- Title: SimpleContactProblem::OpCalIntCompFunSlave Pages: 1 -->
<svg width="535pt" height="154pt"
 viewBox="0.00 0.00 535.00 154.00" xmlns="http://www.w3.org/2000/svg" xmlns:xlink="http://www.w3.org/1999/xlink">
<g id="graph0" class="graph" transform="scale(1 1) rotate(0) translate(4 150)">
<title>SimpleContactProblem::OpCalIntCompFunSlave</title>
<polygon fill="white" stroke="transparent" points="-4,4 -4,-150 531,-150 531,4 -4,4"/>
<!-- Node1 -->
<g id="node1" class="node">
<title>Node1</title>
<g id="a_node1"><a xlink:title="RHS&#45;operator for the simple contact element.">
<polygon fill="#bfbfbf" stroke="black" points="390,-55 390,-85 527,-85 527,-55 390,-55"/>
<text text-anchor="start" x="398" y="-73" font-family="Helvetica,sans-Serif" font-size="10.00">SimpleContactProblem</text>
<text text-anchor="middle" x="458.5" y="-62" font-family="Helvetica,sans-Serif" font-size="10.00">::OpCalIntCompFunSlave</text>
</a>
</g>
</g>
<!-- Node2 -->
<g id="node2" class="node">
<title>Node2</title>
<g id="a_node2"><a xlink:href="classContactOp.html" target="_top" xlink:title=" ">
<polygon fill="white" stroke="black" points="72.5,-126.5 72.5,-145.5 140.5,-145.5 140.5,-126.5 72.5,-126.5"/>
<text text-anchor="middle" x="106.5" y="-133.5" font-family="Helvetica,sans-Serif" font-size="10.00">ContactOp</text>
</a>
</g>
</g>
<!-- Node2&#45;&gt;Node1 -->
<g id="edge1" class="edge">
<title>Node2&#45;&gt;Node1</title>
<path fill="none" stroke="midnightblue" d="M150.85,-132.11C203.6,-126.84 295.13,-115.96 372,-98 386.6,-94.59 402.27,-89.8 416.16,-85.14"/>
<polygon fill="midnightblue" stroke="midnightblue" points="150.44,-128.63 140.83,-133.09 151.13,-135.6 150.44,-128.63"/>
</g>
<!-- Node3 -->
<g id="node3" class="node">
<title>Node3</title>
<g id="a_node3"><a xlink:title=" ">
<polygon fill="white" stroke="#bfbfbf" points="0,-77 0,-107 213,-107 213,-77 0,-77"/>
<text text-anchor="start" x="8" y="-95" font-family="Helvetica,sans-Serif" font-size="10.00">shared_ptr&lt; SimpleContact</text>
<text text-anchor="middle" x="106.5" y="-84" font-family="Helvetica,sans-Serif" font-size="10.00">Problem::CommonDataSimpleContact &gt;</text>
</a>
</g>
</g>
<!-- Node3&#45;&gt;Node1 -->
<g id="edge2" class="edge">
<title>Node3&#45;&gt;Node1</title>
<path fill="none" stroke="#9a32cd" stroke-dasharray="5,2" d="M223.66,-84.7C278.84,-81.23 342.85,-77.21 389.94,-74.25"/>
<polygon fill="#9a32cd" stroke="#9a32cd" points="223.22,-81.22 213.46,-85.34 223.66,-88.21 223.22,-81.22"/>
<text text-anchor="middle" x="301.5" y="-86" font-family="Helvetica,sans-Serif" font-size="10.00"> commonDataSimpleContact</text>
</g>
<!-- Node4 -->
<g id="node4" class="node">
<title>Node4</title>
<g id="a_node4"><a xlink:title=" ">
<polygon fill="white" stroke="#bfbfbf" points="44.5,-38.5 44.5,-57.5 168.5,-57.5 168.5,-38.5 44.5,-38.5"/>
<text text-anchor="middle" x="106.5" y="-45.5" font-family="Helvetica,sans-Serif" font-size="10.00">shared_ptr&lt; double &gt;</text>
</a>
</g>
</g>
<!-- Node4&#45;&gt;Node1 -->
<g id="edge3" class="edge">
<title>Node4&#45;&gt;Node1</title>
<path fill="none" stroke="#9a32cd" stroke-dasharray="5,2" d="M178.54,-49.85C231.84,-51.58 306.57,-54.7 372,-60 377.81,-60.47 383.83,-61.03 389.87,-61.64"/>
<polygon fill="#9a32cd" stroke="#9a32cd" points="178.61,-46.35 168.51,-49.54 178.39,-53.35 178.61,-46.35"/>
<text text-anchor="middle" x="301.5" y="-63" font-family="Helvetica,sans-Serif" font-size="10.00"> cNPtr</text>
</g>
<!-- Node5 -->
<g id="node5" class="node">
<title>Node5</title>
<g id="a_node5"><a xlink:title=" ">
<polygon fill="white" stroke="#bfbfbf" points="65.5,-0.5 65.5,-19.5 147.5,-19.5 147.5,-0.5 65.5,-0.5"/>
<text text-anchor="middle" x="106.5" y="-7.5" font-family="Helvetica,sans-Serif" font-size="10.00">VectorDouble</text>
</a>
</g>
</g>
<!-- Node5&#45;&gt;Node1 -->
<g id="edge4" class="edge">
<title>Node5&#45;&gt;Node1</title>
<path fill="none" stroke="#9a32cd" stroke-dasharray="5,2" d="M157.8,-10.77C211.53,-12.55 298.86,-18.24 372,-36 390.32,-40.45 409.91,-48.02 425.72,-54.89"/>
<polygon fill="#9a32cd" stroke="#9a32cd" points="157.61,-7.26 147.51,-10.46 157.4,-14.26 157.61,-7.26"/>
<text text-anchor="middle" x="301.5" y="-39" font-family="Helvetica,sans-Serif" font-size="10.00"> vecR</text>
</g>
</g>
</svg>
