<?xml version="1.0" encoding="UTF-8" standalone="no"?>
<!DOCTYPE svg PUBLIC "-//W3C//DTD SVG 1.1//EN"
 "http://www.w3.org/Graphics/SVG/1.1/DTD/svg11.dtd">
<!-- Generated by graphviz version 9.0.0 (20230911.1827)
 -->
<!-- Title: ThermalElement::OpGetFieldAtGaussPts&lt; OP &gt; Pages: 1 -->
<svg width="851pt" height="147pt"
 viewBox="0.00 0.00 851.00 147.12" xmlns="http://www.w3.org/2000/svg" xmlns:xlink="http://www.w3.org/1999/xlink">
<g id="graph0" class="graph" transform="scale(1 1) rotate(0) translate(4 143.12)">
<title>ThermalElement::OpGetFieldAtGaussPts&lt; OP &gt;</title>
<!-- Node1 -->
<g id="node1" class="node">
<title>Node1</title>
<g id="a_node1"><a xlink:title="operator to calculate temperature and rate of temperature at Gauss points">
<polygon fill="#999999" stroke="#666666" points="295.5,-66.12 152.75,-66.12 152.75,-35.62 295.5,-35.62 295.5,-66.12"/>
<text text-anchor="start" x="160.75" y="-52.62" font-family="Helvetica,sans-Serif" font-size="10.00">ThermalElement::OpGetField</text>
<text text-anchor="middle" x="224.12" y="-41.38" font-family="Helvetica,sans-Serif" font-size="10.00">AtGaussPts&lt; OP &gt;</text>
</a>
</g>
</g>
<!-- Node3 -->
<g id="node3" class="node">
<title>Node3</title>
<g id="a_node3"><a xlink:href="struct_thermal_element_1_1_op_get_field_at_gauss_pts.html" target="_top" xlink:title=" ">
<polygon fill="white" stroke="#666666" points="670.75,-101.75 483,-101.75 483,-60 670.75,-60 670.75,-101.75"/>
<text text-anchor="start" x="491" y="-88.25" font-family="Helvetica,sans-Serif" font-size="10.00">ThermalElement::OpGetField</text>
<text text-anchor="start" x="491" y="-77" font-family="Helvetica,sans-Serif" font-size="10.00">AtGaussPts&lt; MoFEM::VolumeElement</text>
<text text-anchor="middle" x="576.88" y="-65.75" font-family="Helvetica,sans-Serif" font-size="10.00">ForcesAndSourcesCore &gt;</text>
</a>
</g>
</g>
<!-- Node1&#45;&gt;Node3 -->
<g id="edge2" class="edge">
<title>Node1&#45;&gt;Node3</title>
<path fill="none" stroke="orange" stroke-dasharray="5,2" d="M307,-57.88C359.62,-62.38 428.12,-68.24 482.81,-72.91"/>
<polygon fill="orange" stroke="orange" points="307.45,-54.4 297.19,-57.04 306.86,-61.38 307.45,-54.4"/>
<text text-anchor="start" x="313.5" y="-84.88" font-family="Helvetica,sans-Serif" font-size="10.00"> &lt; MoFEM::VolumeElementForces</text>
<text text-anchor="middle" x="389.25" y="-73.62" font-family="Helvetica,sans-Serif" font-size="10.00">AndSourcesCore &gt;</text>
</g>
<!-- Node6 -->
<g id="node6" class="node">
<title>Node6</title>
<g id="a_node6"><a xlink:href="struct_thermal_element_1_1_op_get_field_at_gauss_pts.html" target="_top" xlink:title=" ">
<polygon fill="white" stroke="#666666" points="665.12,-41.75 488.62,-41.75 488.62,0 665.12,0 665.12,-41.75"/>
<text text-anchor="start" x="496.62" y="-28.25" font-family="Helvetica,sans-Serif" font-size="10.00">ThermalElement::OpGetField</text>
<text text-anchor="start" x="496.62" y="-17" font-family="Helvetica,sans-Serif" font-size="10.00">AtGaussPts&lt; MoFEM::FaceElement</text>
<text text-anchor="middle" x="576.88" y="-5.75" font-family="Helvetica,sans-Serif" font-size="10.00">ForcesAndSourcesCore &gt;</text>
</a>
</g>
</g>
<!-- Node1&#45;&gt;Node6 -->
<g id="edge5" class="edge">
<title>Node1&#45;&gt;Node6</title>
<path fill="none" stroke="orange" stroke-dasharray="5,2" d="M307.24,-34.19C309.35,-33.9 311.44,-33.63 313.5,-33.38 371.44,-26.3 437.03,-23.17 488.14,-21.82"/>
<polygon fill="orange" stroke="orange" points="306.75,-30.73 297.38,-35.68 307.79,-37.65 306.75,-30.73"/>
<text text-anchor="start" x="319.12" y="-46.88" font-family="Helvetica,sans-Serif" font-size="10.00"> &lt; MoFEM::FaceElementForces</text>
<text text-anchor="middle" x="389.25" y="-35.62" font-family="Helvetica,sans-Serif" font-size="10.00">AndSourcesCore &gt;</text>
</g>
<!-- Node2 -->
<g id="node2" class="node">
<title>Node2</title>
<g id="a_node2"><a xlink:title=" ">
<polygon fill="white" stroke="#666666" points="115.75,-60.5 0,-60.5 0,-41.25 115.75,-41.25 115.75,-60.5"/>
<text text-anchor="middle" x="57.88" y="-47" font-family="Helvetica,sans-Serif" font-size="10.00">OP::UserDataOperator</text>
</a>
</g>
</g>
<!-- Node2&#45;&gt;Node1 -->
<g id="edge1" class="edge">
<title>Node2&#45;&gt;Node1</title>
<path fill="none" stroke="#63b8ff" d="M127.37,-50.88C135.62,-50.88 144.06,-50.88 152.35,-50.88"/>
<polygon fill="#63b8ff" stroke="#63b8ff" points="127.37,-47.38 117.37,-50.88 127.37,-54.38 127.37,-47.38"/>
</g>
<!-- Node4 -->
<g id="node4" class="node">
<title>Node4</title>
<g id="a_node4"><a xlink:href="struct_thermal_element_1_1_op_get_tet_rate_at_gauss_pts.html" target="_top" xlink:title="operator to calculate temperature rate at Gauss pts">
<polygon fill="white" stroke="#666666" points="843,-139.12 707.75,-139.12 707.75,-108.62 843,-108.62 843,-139.12"/>
<text text-anchor="start" x="715.75" y="-125.62" font-family="Helvetica,sans-Serif" font-size="10.00">ThermalElement::OpGetTet</text>
<text text-anchor="middle" x="775.38" y="-114.38" font-family="Helvetica,sans-Serif" font-size="10.00">RateAtGaussPts</text>
</a>
</g>
</g>
<!-- Node3&#45;&gt;Node4 -->
<g id="edge3" class="edge">
<title>Node3&#45;&gt;Node4</title>
<path fill="none" stroke="#63b8ff" d="M682.37,-103.74C690.84,-105.59 699.24,-107.43 707.32,-109.2"/>
<polygon fill="#63b8ff" stroke="#63b8ff" points="683.23,-100.35 672.71,-101.63 681.73,-107.19 683.23,-100.35"/>
</g>
<!-- Node5 -->
<g id="node5" class="node">
<title>Node5</title>
<g id="a_node5"><a xlink:href="struct_thermal_element_1_1_op_get_tet_temperature_at_gauss_pts.html" target="_top" xlink:title="operator to calculate temperature at Gauss pts">
<polygon fill="white" stroke="#666666" points="843,-90.12 707.75,-90.12 707.75,-59.62 843,-59.62 843,-90.12"/>
<text text-anchor="start" x="715.75" y="-76.62" font-family="Helvetica,sans-Serif" font-size="10.00">ThermalElement::OpGetTet</text>
<text text-anchor="middle" x="775.38" y="-65.38" font-family="Helvetica,sans-Serif" font-size="10.00">TemperatureAtGaussPts</text>
</a>
</g>
</g>
<!-- Node3&#45;&gt;Node5 -->
<g id="edge4" class="edge">
<title>Node3&#45;&gt;Node5</title>
<path fill="none" stroke="#63b8ff" d="M682.66,-77.68C691.03,-77.42 699.33,-77.17 707.32,-76.92"/>
<polygon fill="#63b8ff" stroke="#63b8ff" points="682.63,-74.17 672.75,-77.98 682.85,-81.17 682.63,-74.17"/>
</g>
<!-- Node7 -->
<g id="node7" class="node">
<title>Node7</title>
<g id="a_node7"><a xlink:href="struct_thermal_element_1_1_op_get_tri_temperature_at_gauss_pts.html" target="_top" xlink:title="operator to calculate temperature at Gauss pts">
<polygon fill="white" stroke="#666666" points="841.88,-36.12 708.88,-36.12 708.88,-5.62 841.88,-5.62 841.88,-36.12"/>
<text text-anchor="start" x="716.88" y="-22.62" font-family="Helvetica,sans-Serif" font-size="10.00">ThermalElement::OpGetTri</text>
<text text-anchor="middle" x="775.38" y="-11.38" font-family="Helvetica,sans-Serif" font-size="10.00">TemperatureAtGaussPts</text>
</a>
</g>
</g>
<!-- Node6&#45;&gt;Node7 -->
<g id="edge6" class="edge">
<title>Node6&#45;&gt;Node7</title>
<path fill="none" stroke="#63b8ff" d="M676.69,-20.88C687.46,-20.88 698.22,-20.88 708.45,-20.88"/>
<polygon fill="#63b8ff" stroke="#63b8ff" points="677.01,-17.38 667.01,-20.88 677.01,-24.38 677.01,-17.38"/>
</g>
</g>
</svg>
