<?xml version="1.0" encoding="UTF-8" standalone="no"?>
<!DOCTYPE svg PUBLIC "-//W3C//DTD SVG 1.1//EN"
 "http://www.w3.org/Graphics/SVG/1.1/DTD/svg11.dtd">
<!-- Generated by graphviz version 2.43.0 (0)
 -->
<!-- Title: MoFEM::OpGradGradImpl&lt; 1, 1, SPACE_DIM, GAUSS, OpBase &gt; Pages: 1 -->
<svg width="158pt" height="162pt"
 viewBox="0.00 0.00 158.00 162.00" xmlns="http://www.w3.org/2000/svg" xmlns:xlink="http://www.w3.org/1999/xlink">
<g id="graph0" class="graph" transform="scale(1 1) rotate(0) translate(4 158)">
<title>MoFEM::OpGradGradImpl&lt; 1, 1, SPACE_DIM, GAUSS, OpBase &gt;</title>
<polygon fill="white" stroke="transparent" points="-4,4 -4,-158 154,-158 154,4 -4,4"/>
<!-- Node1 -->
<g id="node1" class="node">
<title>Node1</title>
<g id="a_node1"><a xlink:title=" ">
<polygon fill="#bfbfbf" stroke="black" points="0,-0.5 0,-41.5 150,-41.5 150,-0.5 0,-0.5"/>
<text text-anchor="start" x="8" y="-29.5" font-family="Helvetica,sans-Serif" font-size="10.00">MoFEM::OpGradGradImpl</text>
<text text-anchor="start" x="8" y="-18.5" font-family="Helvetica,sans-Serif" font-size="10.00">&lt; 1, 1, SPACE_DIM, GAUSS,</text>
<text text-anchor="middle" x="75" y="-7.5" font-family="Helvetica,sans-Serif" font-size="10.00"> OpBase &gt;</text>
</a>
</g>
</g>
<!-- Node2 -->
<g id="node2" class="node">
<title>Node2</title>
<g id="a_node2"><a xlink:href="structMoFEM_1_1OpBaseImpl.html" target="_top" xlink:title=" ">
<polygon fill="white" stroke="black" points="48,-78.5 48,-97.5 102,-97.5 102,-78.5 48,-78.5"/>
<text text-anchor="middle" x="75" y="-85.5" font-family="Helvetica,sans-Serif" font-size="10.00">OpBase</text>
</a>
</g>
</g>
<!-- Node2&#45;&gt;Node1 -->
<g id="edge1" class="edge">
<title>Node2&#45;&gt;Node1</title>
<path fill="none" stroke="midnightblue" d="M75,-68.04C75,-59.71 75,-49.94 75,-41.54"/>
<polygon fill="midnightblue" stroke="midnightblue" points="71.5,-68.23 75,-78.23 78.5,-68.23 71.5,-68.23"/>
</g>
<!-- Node3 -->
<g id="node3" class="node">
<title>Node3</title>
<g id="a_node3"><a xlink:href="classEleOp.html" target="_top" xlink:title=" ">
<polygon fill="white" stroke="black" points="52.5,-134.5 52.5,-153.5 97.5,-153.5 97.5,-134.5 52.5,-134.5"/>
<text text-anchor="middle" x="75" y="-141.5" font-family="Helvetica,sans-Serif" font-size="10.00">EleOp</text>
</a>
</g>
</g>
<!-- Node3&#45;&gt;Node2 -->
<g id="edge2" class="edge">
<title>Node3&#45;&gt;Node2</title>
<path fill="none" stroke="midnightblue" d="M75,-123.8C75,-114.91 75,-104.78 75,-97.75"/>
<polygon fill="midnightblue" stroke="midnightblue" points="71.5,-124.08 75,-134.08 78.5,-124.08 71.5,-124.08"/>
</g>
</g>
</svg>
