<?xml version="1.0" encoding="UTF-8" standalone="no"?>
<!DOCTYPE svg PUBLIC "-//W3C//DTD SVG 1.1//EN"
 "http://www.w3.org/Graphics/SVG/1.1/DTD/svg11.dtd">
<!-- Generated by graphviz version 2.43.0 (0)
 -->
<!-- Title: BoneRemodeling::DataFromMetaIO Pages: 1 -->
<svg width="354pt" height="183pt"
 viewBox="0.00 0.00 353.50 183.00" xmlns="http://www.w3.org/2000/svg" xmlns:xlink="http://www.w3.org/1999/xlink">
<g id="graph0" class="graph" transform="scale(1 1) rotate(0) translate(4 179)">
<title>BoneRemodeling::DataFromMetaIO</title>
<polygon fill="white" stroke="transparent" points="-4,4 -4,-179 349.5,-179 349.5,4 -4,4"/>
<!-- Node1 -->
<g id="node1" class="node">
<title>Node1</title>
<g id="a_node1"><a xlink:title="Load data from MetaImage file, translate grayscale values to densities.">
<polygon fill="#bfbfbf" stroke="black" points="75,-0.5 75,-30.5 229,-30.5 229,-0.5 75,-0.5"/>
<text text-anchor="start" x="83" y="-18.5" font-family="Helvetica,sans-Serif" font-size="10.00">BoneRemodeling::DataFrom</text>
<text text-anchor="middle" x="152" y="-7.5" font-family="Helvetica,sans-Serif" font-size="10.00">MetaIO</text>
</a>
</g>
</g>
<!-- Node2 -->
<g id="node2" class="node">
<title>Node2</title>
<g id="a_node2"><a xlink:href="classdouble.html" target="_top" xlink:title=" ">
<polygon fill="white" stroke="black" points="0,-155.5 0,-174.5 50,-174.5 50,-155.5 0,-155.5"/>
<text text-anchor="middle" x="25" y="-162.5" font-family="Helvetica,sans-Serif" font-size="10.00">double</text>
</a>
</g>
</g>
<!-- Node2&#45;&gt;Node1 -->
<g id="edge1" class="edge">
<title>Node2&#45;&gt;Node1</title>
<path fill="none" stroke="#9a32cd" stroke-dasharray="5,2" d="M20.32,-145.32C15.26,-120.4 10.66,-76.24 33,-49 39.14,-41.51 55.82,-35.25 74.81,-30.29"/>
<polygon fill="#9a32cd" stroke="#9a32cd" points="16.95,-146.31 22.57,-155.29 23.78,-144.77 16.95,-146.31"/>
<text text-anchor="middle" x="69.5" y="-129" font-family="Helvetica,sans-Serif" font-size="10.00"> paramDensity</text>
<text text-anchor="middle" x="69.5" y="-118" font-family="Helvetica,sans-Serif" font-size="10.00">tHreshold</text>
<text text-anchor="middle" x="69.5" y="-107" font-family="Helvetica,sans-Serif" font-size="10.00">sCale</text>
<text text-anchor="middle" x="69.5" y="-96" font-family="Helvetica,sans-Serif" font-size="10.00">dIst_tol</text>
<text text-anchor="middle" x="69.5" y="-85" font-family="Helvetica,sans-Serif" font-size="10.00">cUbe_size</text>
<text text-anchor="middle" x="69.5" y="-74" font-family="Helvetica,sans-Serif" font-size="10.00">lAmbda</text>
<text text-anchor="middle" x="69.5" y="-63" font-family="Helvetica,sans-Serif" font-size="10.00">sIgma</text>
<text text-anchor="middle" x="69.5" y="-52" font-family="Helvetica,sans-Serif" font-size="10.00">paramElastic</text>
</g>
<!-- Node3 -->
<g id="node3" class="node">
<title>Node3</title>
<g id="a_node3"><a xlink:title=" ">
<polygon fill="white" stroke="#bfbfbf" points="94.5,-155.5 94.5,-174.5 123.5,-174.5 123.5,-155.5 94.5,-155.5"/>
<text text-anchor="middle" x="109" y="-162.5" font-family="Helvetica,sans-Serif" font-size="10.00">int</text>
</a>
</g>
</g>
<!-- Node3&#45;&gt;Node1 -->
<g id="edge2" class="edge">
<title>Node3&#45;&gt;Node1</title>
<path fill="none" stroke="#9a32cd" stroke-dasharray="5,2" d="M109.44,-144.96C110.57,-121.52 114.52,-80.89 128,-49 130.73,-42.54 134.99,-36.17 139.17,-30.8"/>
<polygon fill="#9a32cd" stroke="#9a32cd" points="105.93,-145.13 109.07,-155.25 112.92,-145.38 105.93,-145.13"/>
<text text-anchor="middle" x="141.5" y="-90.5" font-family="Helvetica,sans-Serif" font-size="10.00"> fIlter</text>
</g>
<!-- Node4 -->
<g id="node4" class="node">
<title>Node4</title>
<g id="a_node4"><a xlink:title=" ">
<polygon fill="white" stroke="#bfbfbf" points="141.5,-155.5 141.5,-174.5 224.5,-174.5 224.5,-155.5 141.5,-155.5"/>
<text text-anchor="middle" x="183" y="-162.5" font-family="Helvetica,sans-Serif" font-size="10.00">MetaImage &amp;</text>
</a>
</g>
</g>
<!-- Node4&#45;&gt;Node1 -->
<g id="edge3" class="edge">
<title>Node4&#45;&gt;Node1</title>
<path fill="none" stroke="#9a32cd" stroke-dasharray="5,2" d="M179.06,-145.26C172.79,-115.4 160.65,-57.68 155.02,-30.85"/>
<polygon fill="#9a32cd" stroke="#9a32cd" points="175.67,-146.15 181.15,-155.21 182.52,-144.71 175.67,-146.15"/>
<text text-anchor="middle" x="200" y="-90.5" font-family="Helvetica,sans-Serif" font-size="10.00"> metaFile</text>
</g>
<!-- Node5 -->
<g id="node5" class="node">
<title>Node5</title>
<g id="a_node5"><a xlink:title=" ">
<polygon fill="white" stroke="#bfbfbf" points="242.5,-155.5 242.5,-174.5 345.5,-174.5 345.5,-155.5 242.5,-155.5"/>
<text text-anchor="middle" x="294" y="-162.5" font-family="Helvetica,sans-Serif" font-size="10.00">vector&lt; double &gt;</text>
</a>
</g>
</g>
<!-- Node5&#45;&gt;Node1 -->
<g id="edge4" class="edge">
<title>Node5&#45;&gt;Node1</title>
<path fill="none" stroke="#9a32cd" stroke-dasharray="5,2" d="M287.51,-145.59C277.87,-120.65 257.55,-76.13 227,-49 218.4,-41.37 207.74,-35.31 197.18,-30.6"/>
<polygon fill="#9a32cd" stroke="#9a32cd" points="284.33,-147.09 291.08,-155.26 290.9,-144.67 284.33,-147.09"/>
<text text-anchor="middle" x="300" y="-90.5" font-family="Helvetica,sans-Serif" font-size="10.00"> kErnel</text>
</g>
</g>
</svg>
