<?xml version="1.0" encoding="UTF-8" standalone="no"?>
<!DOCTYPE svg PUBLIC "-//W3C//DTD SVG 1.1//EN"
 "http://www.w3.org/Graphics/SVG/1.1/DTD/svg11.dtd">
<!-- Generated by graphviz version 9.0.0 (20230911.1827)
 -->
<!-- Title: MoFEM::TriPolynomialBase Pages: 1 -->
<svg width="1849pt" height="406pt"
 viewBox="0.00 0.00 1849.25 405.75" xmlns="http://www.w3.org/2000/svg" xmlns:xlink="http://www.w3.org/1999/xlink">
<g id="graph0" class="graph" transform="scale(1 1) rotate(0) translate(4 401.75)">
<title>MoFEM::TriPolynomialBase</title>
<!-- Node1 -->
<g id="node1" class="node">
<title>Node1</title>
<g id="a_node1"><a xlink:title="Calculate base functions on triangle.">
<polygon fill="#999999" stroke="#666666" points="1841.25,-94.88 1703,-94.88 1703,-75.62 1841.25,-75.62 1841.25,-94.88"/>
<text text-anchor="middle" x="1772.12" y="-81.38" font-family="Helvetica,sans-Serif" font-size="10.00">MoFEM::TriPolynomialBase</text>
</a>
</g>
</g>
<!-- Node2 -->
<g id="node2" class="node">
<title>Node2</title>
<g id="a_node2"><a xlink:href="struct_mo_f_e_m_1_1_base_function.html" target="_top" xlink:title="Base class if inherited used to calculate base functions.">
<polygon fill="white" stroke="#666666" points="1412.5,-59.88 1296,-59.88 1296,-40.62 1412.5,-40.62 1412.5,-59.88"/>
<text text-anchor="middle" x="1354.25" y="-46.38" font-family="Helvetica,sans-Serif" font-size="10.00">MoFEM::BaseFunction</text>
</a>
</g>
</g>
<!-- Node2&#45;&gt;Node1 -->
<g id="edge1" class="edge">
<title>Node2&#45;&gt;Node1</title>
<path fill="none" stroke="#63b8ff" d="M1379.81,-66.13C1394.02,-74.4 1412.58,-83.71 1430.5,-88.25 1524.52,-112.06 1637.87,-104.13 1707.2,-95.36"/>
<polygon fill="#63b8ff" stroke="#63b8ff" points="1381.97,-63.34 1371.61,-61.16 1378.35,-69.33 1381.97,-63.34"/>
</g>
<!-- Node3 -->
<g id="node3" class="node">
<title>Node3</title>
<g id="a_node3"><a xlink:href="struct_mo_f_e_m_1_1_base_function_unknown_interface.html" target="_top" xlink:title=" ">
<polygon fill="white" stroke="#666666" points="1002.5,-58.5 844.75,-58.5 844.75,-28 1002.5,-28 1002.5,-58.5"/>
<text text-anchor="start" x="852.75" y="-45" font-family="Helvetica,sans-Serif" font-size="10.00">MoFEM::BaseFunctionUnknown</text>
<text text-anchor="middle" x="923.62" y="-33.75" font-family="Helvetica,sans-Serif" font-size="10.00">Interface</text>
</a>
</g>
</g>
<!-- Node3&#45;&gt;Node2 -->
<g id="edge2" class="edge">
<title>Node3&#45;&gt;Node2</title>
<path fill="none" stroke="#63b8ff" d="M1014.16,-44.71C1098.81,-46.09 1223.34,-48.13 1295.57,-49.31"/>
<polygon fill="#63b8ff" stroke="#63b8ff" points="1014.31,-41.21 1004.26,-44.55 1014.2,-48.21 1014.31,-41.21"/>
</g>
<!-- Node8 -->
<g id="node8" class="node">
<title>Node8</title>
<g id="a_node8"><a xlink:href="struct_mo_f_e_m_1_1_base_function_ctx.html" target="_top" xlink:title="Base class used to exchange data between element data structures and class calculating base functions...">
<polygon fill="white" stroke="#666666" points="1267.5,-88.88 1135.25,-88.88 1135.25,-69.62 1267.5,-69.62 1267.5,-88.88"/>
<text text-anchor="middle" x="1201.38" y="-75.38" font-family="Helvetica,sans-Serif" font-size="10.00">MoFEM::BaseFunctionCtx</text>
</a>
</g>
</g>
<!-- Node3&#45;&gt;Node8 -->
<g id="edge8" class="edge">
<title>Node3&#45;&gt;Node8</title>
<path fill="none" stroke="#63b8ff" d="M1014.1,-54.93C1053.46,-60.07 1098.83,-65.99 1134.95,-70.71"/>
<polygon fill="#63b8ff" stroke="#63b8ff" points="1014.78,-51.49 1004.41,-53.67 1013.87,-58.43 1014.78,-51.49"/>
</g>
<!-- Node4 -->
<g id="node4" class="node">
<title>Node4</title>
<g id="a_node4"><a xlink:href="struct_mo_f_e_m_1_1_unknown_interface.html" target="_top" xlink:title="base class for all interface classes">
<polygon fill="white" stroke="#666666" points="801.75,-52.88 665.75,-52.88 665.75,-33.62 801.75,-33.62 801.75,-52.88"/>
<text text-anchor="middle" x="733.75" y="-39.38" font-family="Helvetica,sans-Serif" font-size="10.00">MoFEM::UnknownInterface</text>
</a>
</g>
</g>
<!-- Node4&#45;&gt;Node3 -->
<g id="edge3" class="edge">
<title>Node4&#45;&gt;Node3</title>
<path fill="none" stroke="#63b8ff" d="M813.43,-43.25C823.63,-43.25 834.08,-43.25 844.28,-43.25"/>
<polygon fill="#63b8ff" stroke="#63b8ff" points="813.56,-39.75 803.56,-43.25 813.56,-46.75 813.56,-39.75"/>
</g>
<!-- Node5 -->
<g id="node5" class="node">
<title>Node5</title>
<g id="a_node5"><a xlink:title=" ">
<polygon fill="white" stroke="#666666" points="563,-75.38 346.75,-75.38 346.75,-11.12 563,-11.12 563,-75.38"/>
<text text-anchor="start" x="354.75" y="-61.88" font-family="Helvetica,sans-Serif" font-size="10.00">multi_index_container</text>
<text text-anchor="start" x="354.75" y="-50.62" font-family="Helvetica,sans-Serif" font-size="10.00">&lt; UIdTypeMap, indexed</text>
<text text-anchor="start" x="354.75" y="-39.38" font-family="Helvetica,sans-Serif" font-size="10.00">_by&lt; hashed_unique&lt; member</text>
<text text-anchor="start" x="354.75" y="-28.12" font-family="Helvetica,sans-Serif" font-size="10.00">&lt; UIdTypeMap, boost::typeindex</text>
<text text-anchor="middle" x="454.88" y="-16.88" font-family="Helvetica,sans-Serif" font-size="10.00">::type_index, &amp;UIdTypeMap::classIdx &gt; &gt; &gt; &gt;</text>
</a>
</g>
</g>
<!-- Node5&#45;&gt;Node4 -->
<g id="edge4" class="edge">
<title>Node5&#45;&gt;Node4</title>
<path fill="none" stroke="#9a32cd" stroke-dasharray="5,2" d="M574.68,-43.25C605.7,-43.25 638.06,-43.25 665.37,-43.25"/>
<polygon fill="#9a32cd" stroke="#9a32cd" points="574.83,-39.75 564.83,-43.25 574.83,-46.75 574.83,-39.75"/>
<text text-anchor="middle" x="614.38" y="-45" font-family="Helvetica,sans-Serif" font-size="10.00"> iFaceTypeMap</text>
</g>
<!-- Node6 -->
<g id="node6" class="node">
<title>Node6</title>
<g id="a_node6"><a xlink:title=" ">
<polygon fill="white" stroke="#666666" points="110.5,-52.88 0,-52.88 0,-33.62 110.5,-33.62 110.5,-52.88"/>
<text text-anchor="middle" x="55.25" y="-39.38" font-family="Helvetica,sans-Serif" font-size="10.00">multi_index_container</text>
</a>
</g>
</g>
<!-- Node6&#45;&gt;Node5 -->
<g id="edge5" class="edge">
<title>Node6&#45;&gt;Node5</title>
<path fill="none" stroke="orange" stroke-dasharray="5,2" d="M122.09,-43.25C183.01,-43.25 274.7,-43.25 346.26,-43.25"/>
<polygon fill="orange" stroke="orange" points="122.22,-39.75 112.22,-43.25 122.22,-46.75 122.22,-39.75"/>
<text text-anchor="start" x="128.5" y="-78.75" font-family="Helvetica,sans-Serif" font-size="10.00"> &lt; UIdTypeMap, indexed</text>
<text text-anchor="start" x="128.5" y="-67.5" font-family="Helvetica,sans-Serif" font-size="10.00">_by&lt; hashed_unique&lt; member</text>
<text text-anchor="start" x="128.5" y="-56.25" font-family="Helvetica,sans-Serif" font-size="10.00">&lt; UIdTypeMap, boost::typeindex</text>
<text text-anchor="middle" x="228.62" y="-45" font-family="Helvetica,sans-Serif" font-size="10.00">::type_index, &amp;UIdTypeMap::classIdx &gt; &gt; &gt; &gt;</text>
</g>
<!-- Node7 -->
<g id="node7" class="node">
<title>Node7</title>
<g id="a_node7"><a xlink:href="struct_mo_f_e_m_1_1_ent_polynomial_base_ctx.html" target="_top" xlink:title="Class used to pass element data to calculate base functions on tet,triangle,edge.">
<polygon fill="white" stroke="#666666" points="1588.25,-184.88 1430.5,-184.88 1430.5,-165.62 1588.25,-165.62 1588.25,-184.88"/>
<text text-anchor="middle" x="1509.38" y="-171.38" font-family="Helvetica,sans-Serif" font-size="10.00">MoFEM::EntPolynomialBaseCtx</text>
</a>
</g>
</g>
<!-- Node7&#45;&gt;Node1 -->
<g id="edge6" class="edge">
<title>Node7&#45;&gt;Node1</title>
<path fill="none" stroke="#9a32cd" stroke-dasharray="5,2" d="M1557.46,-162.02C1592.84,-151.76 1642.33,-136.72 1685,-121.25 1706.94,-113.29 1731.45,-102.9 1748.69,-95.32"/>
<polygon fill="#9a32cd" stroke="#9a32cd" points="1556.59,-158.63 1547.95,-164.76 1558.53,-165.36 1556.59,-158.63"/>
<text text-anchor="middle" x="1645.62" y="-148" font-family="Helvetica,sans-Serif" font-size="10.00"> cTx</text>
</g>
<!-- Node8&#45;&gt;Node7 -->
<g id="edge7" class="edge">
<title>Node8&#45;&gt;Node7</title>
<path fill="none" stroke="#63b8ff" d="M1278.8,-84.55C1319.53,-89.2 1369.88,-97.92 1412.5,-114.25 1445.29,-126.81 1478.83,-151.4 1496.23,-165.21"/>
<polygon fill="#63b8ff" stroke="#63b8ff" points="1279.4,-81.1 1269.09,-83.51 1278.65,-88.06 1279.4,-81.1"/>
</g>
<!-- Node9 -->
<g id="node9" class="node">
<title>Node9</title>
<g id="a_node9"><a xlink:title=" ">
<polygon fill="white" stroke="#666666" points="1265.25,-397.75 1137.5,-397.75 1137.5,-344.75 1265.25,-344.75 1265.25,-397.75"/>
<text text-anchor="start" x="1145.5" y="-384.25" font-family="Helvetica,sans-Serif" font-size="10.00">PetscErrorCode(*)(int</text>
<text text-anchor="start" x="1145.5" y="-373" font-family="Helvetica,sans-Serif" font-size="10.00"> p, double s, double</text>
<text text-anchor="start" x="1145.5" y="-361.75" font-family="Helvetica,sans-Serif" font-size="10.00"> *diff_s, double *L, double</text>
<text text-anchor="middle" x="1201.38" y="-350.5" font-family="Helvetica,sans-Serif" font-size="10.00"> *diffL, const int dim)</text>
</a>
</g>
</g>
<!-- Node9&#45;&gt;Node7 -->
<g id="edge9" class="edge">
<title>Node9&#45;&gt;Node7</title>
<path fill="none" stroke="#9a32cd" stroke-dasharray="5,2" d="M1276.55,-352.25C1318.96,-339.05 1371.65,-318.52 1412.5,-289.25 1454.33,-259.27 1489.06,-207.01 1502.45,-185.23"/>
<polygon fill="#9a32cd" stroke="#9a32cd" points="1275.73,-348.84 1267.18,-355.09 1277.76,-355.54 1275.73,-348.84"/>
<text text-anchor="middle" x="1354.25" y="-346" font-family="Helvetica,sans-Serif" font-size="10.00"> basePolynomialsType0</text>
</g>
<!-- Node10 -->
<g id="node10" class="node">
<title>Node10</title>
<g id="a_node10"><a xlink:title=" ">
<polygon fill="white" stroke="#666666" points="1278,-326.38 1124.75,-326.38 1124.75,-262.12 1278,-262.12 1278,-326.38"/>
<text text-anchor="start" x="1132.75" y="-312.88" font-family="Helvetica,sans-Serif" font-size="10.00">PetscErrorCode(*)(int</text>
<text text-anchor="start" x="1132.75" y="-301.62" font-family="Helvetica,sans-Serif" font-size="10.00"> p, double alpha, double</text>
<text text-anchor="start" x="1132.75" y="-290.38" font-family="Helvetica,sans-Serif" font-size="10.00"> x, double t, double *diff</text>
<text text-anchor="start" x="1132.75" y="-279.12" font-family="Helvetica,sans-Serif" font-size="10.00">_x, double *diff_t, double</text>
<text text-anchor="middle" x="1201.38" y="-267.88" font-family="Helvetica,sans-Serif" font-size="10.00"> *L, double *diffL, const int dim)</text>
</a>
</g>
</g>
<!-- Node10&#45;&gt;Node7 -->
<g id="edge10" class="edge">
<title>Node10&#45;&gt;Node7</title>
<path fill="none" stroke="#9a32cd" stroke-dasharray="5,2" d="M1289.02,-277.75C1327.78,-268.71 1373.44,-255.73 1412.5,-238.25 1444.86,-223.76 1478.57,-198.97 1496.11,-185.2"/>
<polygon fill="#9a32cd" stroke="#9a32cd" points="1288.73,-274.23 1279.76,-279.86 1290.28,-281.05 1288.73,-274.23"/>
<text text-anchor="middle" x="1354.25" y="-276" font-family="Helvetica,sans-Serif" font-size="10.00"> basePolynomialsType1</text>
</g>
<!-- Node11 -->
<g id="node11" class="node">
<title>Node11</title>
<g id="a_node11"><a xlink:href="struct_mo_f_e_m_1_1_entities_field_data.html" target="_top" xlink:title="data structure for finite element entity">
<polygon fill="white" stroke="#666666" points="1267.12,-243.88 1135.62,-243.88 1135.62,-224.62 1267.12,-224.62 1267.12,-243.88"/>
<text text-anchor="middle" x="1201.38" y="-230.38" font-family="Helvetica,sans-Serif" font-size="10.00">MoFEM::EntitiesFieldData</text>
</a>
</g>
</g>
<!-- Node11&#45;&gt;Node7 -->
<g id="edge11" class="edge">
<title>Node11&#45;&gt;Node7</title>
<path fill="none" stroke="#9a32cd" stroke-dasharray="5,2" d="M1278.52,-226.21C1318.64,-221.26 1368.52,-213.98 1412.5,-204.25 1435.25,-199.22 1460.45,-191.51 1479.31,-185.3"/>
<polygon fill="#9a32cd" stroke="#9a32cd" points="1278.22,-222.72 1268.71,-227.39 1279.06,-229.67 1278.22,-222.72"/>
<text text-anchor="middle" x="1354.25" y="-225" font-family="Helvetica,sans-Serif" font-size="10.00"> dAta</text>
</g>
<!-- Node12 -->
<g id="node12" class="node">
<title>Node12</title>
<g id="a_node12"><a xlink:title=" ">
<polygon fill="white" stroke="#666666" points="981.5,-376.88 865.75,-376.88 865.75,-357.62 981.5,-357.62 981.5,-376.88"/>
<text text-anchor="middle" x="923.62" y="-363.38" font-family="Helvetica,sans-Serif" font-size="10.00">bitset&lt; LASTSPACE &gt;</text>
</a>
</g>
</g>
<!-- Node12&#45;&gt;Node11 -->
<g id="edge12" class="edge">
<title>Node12&#45;&gt;Node11</title>
<path fill="none" stroke="#9a32cd" stroke-dasharray="5,2" d="M993,-377.06C1031.12,-378.53 1076.81,-373.08 1106.75,-345.25 1137.27,-316.88 1096.08,-283.48 1124.75,-253.25 1128.2,-249.62 1132.23,-246.64 1136.6,-244.2"/>
<polygon fill="#9a32cd" stroke="#9a32cd" points="993.64,-373.59 983.46,-376.51 993.25,-380.57 993.64,-373.59"/>
<text text-anchor="middle" x="1066.62" y="-378" font-family="Helvetica,sans-Serif" font-size="10.00"> sPace</text>
</g>
<!-- Node13 -->
<g id="node13" class="node">
<title>Node13</title>
<g id="a_node13"><a xlink:title=" ">
<polygon fill="white" stroke="#666666" points="978.5,-339.88 868.75,-339.88 868.75,-320.62 978.5,-320.62 978.5,-339.88"/>
<text text-anchor="middle" x="923.62" y="-326.38" font-family="Helvetica,sans-Serif" font-size="10.00">bitset&lt; LASTBASE &gt;</text>
</a>
</g>
</g>
<!-- Node13&#45;&gt;Node11 -->
<g id="edge13" class="edge">
<title>Node13&#45;&gt;Node11</title>
<path fill="none" stroke="#9a32cd" stroke-dasharray="5,2" d="M990.09,-335.23C1028.02,-334.65 1074.5,-327.59 1106.75,-301.25 1124.39,-286.84 1107.76,-268.43 1124.75,-253.25 1128.79,-249.64 1133.41,-246.7 1138.34,-244.3"/>
<polygon fill="#9a32cd" stroke="#9a32cd" points="990.13,-331.73 980.13,-335.21 990.12,-338.73 990.13,-331.73"/>
<text text-anchor="middle" x="1066.62" y="-333" font-family="Helvetica,sans-Serif" font-size="10.00"> bAse</text>
</g>
<!-- Node14 -->
<g id="node14" class="node">
<title>Node14</title>
<g id="a_node14"><a xlink:title=" ">
<polygon fill="white" stroke="#666666" points="972.88,-302.88 874.38,-302.88 874.38,-283.62 972.88,-283.62 972.88,-302.88"/>
<text text-anchor="middle" x="923.62" y="-289.38" font-family="Helvetica,sans-Serif" font-size="10.00">UBlasMatrix&lt; int &gt;</text>
</a>
</g>
</g>
<!-- Node14&#45;&gt;Node11 -->
<g id="edge14" class="edge">
<title>Node14&#45;&gt;Node11</title>
<path fill="none" stroke="#9a32cd" stroke-dasharray="5,2" d="M984.36,-283.03C1020.04,-276.61 1066.16,-267.77 1106.75,-258.25 1114.83,-256.35 1116.72,-255.37 1124.75,-253.25 1136.01,-250.27 1148.23,-247.15 1159.51,-244.32"/>
<polygon fill="#9a32cd" stroke="#9a32cd" points="983.89,-279.56 974.66,-284.76 985.12,-286.45 983.89,-279.56"/>
<text text-anchor="middle" x="1066.62" y="-287.25" font-family="Helvetica,sans-Serif" font-size="10.00"> facesNodes</text>
<text text-anchor="middle" x="1066.62" y="-276" font-family="Helvetica,sans-Serif" font-size="10.00">facesNodesOrder</text>
</g>
<!-- Node15 -->
<g id="node15" class="node">
<title>Node15</title>
<g id="a_node15"><a xlink:title=" ">
<polygon fill="white" stroke="#666666" points="1008.5,-265.5 838.75,-265.5 838.75,-235 1008.5,-235 1008.5,-265.5"/>
<text text-anchor="start" x="846.75" y="-252" font-family="Helvetica,sans-Serif" font-size="10.00">array&lt; std::bitset</text>
<text text-anchor="middle" x="923.62" y="-240.75" font-family="Helvetica,sans-Serif" font-size="10.00">&lt; LASTSPACE &gt;, MBMAXTYPE &gt;</text>
</a>
</g>
</g>
<!-- Node15&#45;&gt;Node11 -->
<g id="edge15" class="edge">
<title>Node15&#45;&gt;Node11</title>
<path fill="none" stroke="#9a32cd" stroke-dasharray="5,2" d="M1019.99,-244.72C1058.12,-242.5 1101.05,-240.01 1135.47,-238.02"/>
<polygon fill="#9a32cd" stroke="#9a32cd" points="1020.15,-241.2 1010.37,-245.27 1020.55,-248.19 1020.15,-241.2"/>
<text text-anchor="middle" x="1066.62" y="-245" font-family="Helvetica,sans-Serif" font-size="10.00"> spacesOnEntities</text>
</g>
<!-- Node16 -->
<g id="node16" class="node">
<title>Node16</title>
<g id="a_node16"><a xlink:title=" ">
<polygon fill="white" stroke="#666666" points="1005.5,-216.5 841.75,-216.5 841.75,-186 1005.5,-186 1005.5,-216.5"/>
<text text-anchor="start" x="849.75" y="-203" font-family="Helvetica,sans-Serif" font-size="10.00">array&lt; std::bitset</text>
<text text-anchor="middle" x="923.62" y="-191.75" font-family="Helvetica,sans-Serif" font-size="10.00">&lt; LASTBASE &gt;, MBMAXTYPE &gt;</text>
</a>
</g>
</g>
<!-- Node16&#45;&gt;Node11 -->
<g id="edge16" class="edge">
<title>Node16&#45;&gt;Node11</title>
<path fill="none" stroke="#9a32cd" stroke-dasharray="5,2" d="M1017.19,-212.33C1055.98,-216.97 1100.17,-222.26 1135.42,-226.48"/>
<polygon fill="#9a32cd" stroke="#9a32cd" points="1017.72,-208.87 1007.37,-211.15 1016.88,-215.82 1017.72,-208.87"/>
<text text-anchor="middle" x="1066.62" y="-224" font-family="Helvetica,sans-Serif" font-size="10.00"> basesOnEntities</text>
</g>
<!-- Node17 -->
<g id="node17" class="node">
<title>Node17</title>
<g id="a_node17"><a xlink:title=" ">
<polygon fill="white" stroke="#666666" points="1002.88,-167.5 844.38,-167.5 844.38,-137 1002.88,-137 1002.88,-167.5"/>
<text text-anchor="start" x="852.38" y="-154" font-family="Helvetica,sans-Serif" font-size="10.00">array&lt; std::bitset</text>
<text text-anchor="middle" x="923.62" y="-142.75" font-family="Helvetica,sans-Serif" font-size="10.00">&lt; LASTBASE &gt;, LASTSPACE &gt;</text>
</a>
</g>
</g>
<!-- Node17&#45;&gt;Node11 -->
<g id="edge17" class="edge">
<title>Node17&#45;&gt;Node11</title>
<path fill="none" stroke="#9a32cd" stroke-dasharray="5,2" d="M1014.2,-164.63C1044.94,-171.45 1078.64,-181.94 1106.75,-198 1116.64,-203.65 1114.82,-210.66 1124.75,-216.25 1130.39,-219.43 1136.58,-222.05 1142.91,-224.21"/>
<polygon fill="#9a32cd" stroke="#9a32cd" points="1015.02,-161.23 1004.51,-162.6 1013.58,-168.08 1015.02,-161.23"/>
<text text-anchor="middle" x="1066.62" y="-199" font-family="Helvetica,sans-Serif" font-size="10.00"> basesOnSpaces</text>
</g>
<!-- Node18 -->
<g id="node18" class="node">
<title>Node18</title>
<g id="a_node18"><a xlink:title=" ">
<polygon fill="white" stroke="#666666" points="996.12,-119.12 851.12,-119.12 851.12,-77.38 996.12,-77.38 996.12,-119.12"/>
<text text-anchor="start" x="859.12" y="-105.62" font-family="Helvetica,sans-Serif" font-size="10.00">array&lt; boost::ptr_vector</text>
<text text-anchor="start" x="859.12" y="-94.38" font-family="Helvetica,sans-Serif" font-size="10.00">&lt; MoFEM::EntitiesFieldData</text>
<text text-anchor="middle" x="923.62" y="-83.12" font-family="Helvetica,sans-Serif" font-size="10.00">::EntData &gt;, MBMAXTYPE &gt;</text>
</a>
</g>
</g>
<!-- Node18&#45;&gt;Node11 -->
<g id="edge18" class="edge">
<title>Node18&#45;&gt;Node11</title>
<path fill="none" stroke="#9a32cd" stroke-dasharray="5,2" d="M1007.72,-105.66C1042.46,-112.8 1080.72,-126.58 1106.75,-153 1127.26,-173.82 1103.64,-196.04 1124.75,-216.25 1128.06,-219.42 1131.83,-222.07 1135.88,-224.28"/>
<polygon fill="#9a32cd" stroke="#9a32cd" points="1008.55,-102.26 998.07,-103.85 1007.25,-109.14 1008.55,-102.26"/>
<text text-anchor="middle" x="1066.62" y="-154" font-family="Helvetica,sans-Serif" font-size="10.00"> dataOnEntities</text>
</g>
<!-- Node19 -->
<g id="node19" class="node">
<title>Node19</title>
<g id="a_node19"><a xlink:title=" ">
<polygon fill="white" stroke="#666666" points="1247.25,-206.88 1155.5,-206.88 1155.5,-187.62 1247.25,-187.62 1247.25,-206.88"/>
<text text-anchor="middle" x="1201.38" y="-193.38" font-family="Helvetica,sans-Serif" font-size="10.00">const FieldSpace</text>
</a>
</g>
</g>
<!-- Node19&#45;&gt;Node7 -->
<g id="edge19" class="edge">
<title>Node19&#45;&gt;Node7</title>
<path fill="none" stroke="#9a32cd" stroke-dasharray="5,2" d="M1258.97,-193.18C1307.07,-189.72 1376.63,-184.72 1430.07,-180.88"/>
<polygon fill="#9a32cd" stroke="#9a32cd" points="1258.76,-189.69 1249.04,-193.9 1259.26,-196.67 1258.76,-189.69"/>
<text text-anchor="middle" x="1354.25" y="-191" font-family="Helvetica,sans-Serif" font-size="10.00"> sPace</text>
</g>
<!-- Node20 -->
<g id="node20" class="node">
<title>Node20</title>
<g id="a_node20"><a xlink:title=" ">
<polygon fill="white" stroke="#666666" points="1275.75,-162.88 1127,-162.88 1127,-143.62 1275.75,-143.62 1275.75,-162.88"/>
<text text-anchor="middle" x="1201.38" y="-149.38" font-family="Helvetica,sans-Serif" font-size="10.00">const FieldApproximationBase</text>
</a>
</g>
</g>
<!-- Node20&#45;&gt;Node7 -->
<g id="edge20" class="edge">
<title>Node20&#45;&gt;Node7</title>
<path fill="none" stroke="#9a32cd" stroke-dasharray="5,2" d="M1287.13,-150.63C1325.51,-150.37 1371.39,-151.36 1412.5,-155.75 1430.74,-157.7 1450.65,-161.47 1467.58,-165.18"/>
<polygon fill="#9a32cd" stroke="#9a32cd" points="1287.47,-147.12 1277.51,-150.72 1287.54,-154.12 1287.47,-147.12"/>
<text text-anchor="middle" x="1354.25" y="-168.25" font-family="Helvetica,sans-Serif" font-size="10.00"> bAse</text>
<text text-anchor="middle" x="1354.25" y="-157" font-family="Helvetica,sans-Serif" font-size="10.00">copyNodeBase</text>
</g>
<!-- Node21 -->
<g id="node21" class="node">
<title>Node21</title>
<g id="a_node21"><a xlink:title=" ">
<polygon fill="white" stroke="#666666" points="1221.38,-125.88 1181.38,-125.88 1181.38,-106.62 1221.38,-106.62 1221.38,-125.88"/>
<text text-anchor="middle" x="1201.38" y="-112.38" font-family="Helvetica,sans-Serif" font-size="10.00">string</text>
</a>
</g>
</g>
<!-- Node21&#45;&gt;Node7 -->
<g id="edge21" class="edge">
<title>Node21&#45;&gt;Node7</title>
<path fill="none" stroke="#9a32cd" stroke-dasharray="5,2" d="M1233.29,-116.06C1274.7,-116.46 1350.19,-119.54 1412.5,-135 1440.36,-141.91 1470.6,-155.77 1489.51,-165.27"/>
<polygon fill="#9a32cd" stroke="#9a32cd" points="1233.35,-112.56 1223.34,-116.01 1233.32,-119.56 1233.35,-112.56"/>
<text text-anchor="middle" x="1354.25" y="-136" font-family="Helvetica,sans-Serif" font-size="10.00"> fieldName</text>
</g>
<!-- Node22 -->
<g id="node22" class="node">
<title>Node22</title>
<g id="a_node22"><a xlink:title=" ">
<polygon fill="white" stroke="#666666" points="1562.38,-79.5 1456.38,-79.5 1456.38,-49 1562.38,-49 1562.38,-79.5"/>
<text text-anchor="start" x="1464.38" y="-66" font-family="Helvetica,sans-Serif" font-size="10.00">matrix&lt; UBlasMatrix</text>
<text text-anchor="middle" x="1509.38" y="-54.75" font-family="Helvetica,sans-Serif" font-size="10.00">&lt; double &gt; &gt;</text>
</a>
</g>
</g>
<!-- Node22&#45;&gt;Node1 -->
<g id="edge22" class="edge">
<title>Node22&#45;&gt;Node1</title>
<path fill="none" stroke="#9a32cd" stroke-dasharray="5,2" d="M1574.21,-64.64C1607.33,-65.35 1648.42,-67.01 1685,-70.75 1695.71,-71.85 1707.1,-73.45 1717.98,-75.19"/>
<polygon fill="#9a32cd" stroke="#9a32cd" points="1574.42,-61.15 1564.35,-64.46 1574.29,-68.15 1574.42,-61.15"/>
<text text-anchor="middle" x="1645.62" y="-83.25" font-family="Helvetica,sans-Serif" font-size="10.00"> N_face_edge</text>
<text text-anchor="middle" x="1645.62" y="-72" font-family="Helvetica,sans-Serif" font-size="10.00">diffN_face_edge</text>
</g>
<!-- Node23 -->
<g id="node23" class="node">
<title>Node23</title>
<g id="a_node23"><a xlink:title=" ">
<polygon fill="white" stroke="#666666" points="1562.38,-30.5 1456.38,-30.5 1456.38,0 1562.38,0 1562.38,-30.5"/>
<text text-anchor="start" x="1464.38" y="-17" font-family="Helvetica,sans-Serif" font-size="10.00">vector&lt; UBlasMatrix</text>
<text text-anchor="middle" x="1509.38" y="-5.75" font-family="Helvetica,sans-Serif" font-size="10.00">&lt; double &gt; &gt;</text>
</a>
</g>
</g>
<!-- Node23&#45;&gt;Node1 -->
<g id="edge23" class="edge">
<title>Node23&#45;&gt;Node1</title>
<path fill="none" stroke="#9a32cd" stroke-dasharray="5,2" d="M1573.76,-18.26C1607.45,-21.23 1649.19,-27.11 1685,-38.75 1711.82,-47.47 1740.07,-64.44 1756.62,-75.28"/>
<polygon fill="#9a32cd" stroke="#9a32cd" points="1574.42,-14.8 1564.17,-17.48 1573.85,-21.78 1574.42,-14.8"/>
<text text-anchor="middle" x="1645.62" y="-52.25" font-family="Helvetica,sans-Serif" font-size="10.00"> N_face_bubble</text>
<text text-anchor="middle" x="1645.62" y="-41" font-family="Helvetica,sans-Serif" font-size="10.00">diffN_face_bubble</text>
</g>
</g>
</svg>
