<?xml version="1.0" encoding="UTF-8" standalone="no"?>
<!DOCTYPE svg PUBLIC "-//W3C//DTD SVG 1.1//EN"
 "http://www.w3.org/Graphics/SVG/1.1/DTD/svg11.dtd">
<!-- Generated by graphviz version 2.43.0 (0)
 -->
<!-- Title: MoFEM::OpSchurAssembleEndImpl&lt; OP_SCHUR_ASSEMBLE_BASE &gt; Pages: 1 -->
<svg width="838pt" height="328pt"
 viewBox="0.00 0.00 838.00 328.00" xmlns="http://www.w3.org/2000/svg" xmlns:xlink="http://www.w3.org/1999/xlink">
<g id="graph0" class="graph" transform="scale(1 1) rotate(0) translate(4 324)">
<title>MoFEM::OpSchurAssembleEndImpl&lt; OP_SCHUR_ASSEMBLE_BASE &gt;</title>
<polygon fill="white" stroke="transparent" points="-4,4 -4,-324 834,-324 834,4 -4,4"/>
<!-- Node1 -->
<g id="node1" class="node">
<title>Node1</title>
<g id="a_node1"><a xlink:title="Assemble Schur complement (Implementation)">
<polygon fill="#bfbfbf" stroke="black" points="628,-153 628,-183 830,-183 830,-153 628,-153"/>
<text text-anchor="start" x="636" y="-171" font-family="Helvetica,sans-Serif" font-size="10.00">MoFEM::OpSchurAssembleEnd</text>
<text text-anchor="middle" x="729" y="-160" font-family="Helvetica,sans-Serif" font-size="10.00">Impl&lt; OP_SCHUR_ASSEMBLE_BASE &gt;</text>
</a>
</g>
</g>
<!-- Node2 -->
<g id="node2" class="node">
<title>Node2</title>
<g id="a_node2"><a xlink:href="classOP__SCHUR__ASSEMBLE__BASE.html" target="_top" xlink:title=" ">
<polygon fill="white" stroke="black" points="375,-300.5 375,-319.5 533,-319.5 533,-300.5 375,-300.5"/>
<text text-anchor="middle" x="454" y="-307.5" font-family="Helvetica,sans-Serif" font-size="10.00">OP_SCHUR_ASSEMBLE_BASE</text>
</a>
</g>
</g>
<!-- Node2&#45;&gt;Node1 -->
<g id="edge1" class="edge">
<title>Node2&#45;&gt;Node1</title>
<path fill="none" stroke="midnightblue" d="M512.73,-297.74C519.64,-295.75 526.54,-293.5 533,-291 603.74,-263.63 676.6,-209.38 709.68,-183.05"/>
<polygon fill="midnightblue" stroke="midnightblue" points="511.36,-294.49 502.63,-300.49 513.2,-301.24 511.36,-294.49"/>
</g>
<!-- Node3 -->
<g id="node3" class="node">
<title>Node3</title>
<g id="a_node3"><a xlink:title=" ">
<polygon fill="white" stroke="#bfbfbf" points="391.5,-251 391.5,-281 516.5,-281 516.5,-251 391.5,-251"/>
<text text-anchor="start" x="399.5" y="-269" font-family="Helvetica,sans-Serif" font-size="10.00">vector&lt; boost::shared</text>
<text text-anchor="middle" x="454" y="-258" font-family="Helvetica,sans-Serif" font-size="10.00">_ptr&lt; Range &gt; &gt;</text>
</a>
</g>
</g>
<!-- Node3&#45;&gt;Node1 -->
<g id="edge2" class="edge">
<title>Node3&#45;&gt;Node1</title>
<path fill="none" stroke="#9a32cd" stroke-dasharray="5,2" d="M515.01,-247.87C521.1,-245.93 527.18,-243.95 533,-242 588.61,-223.35 651.93,-198.67 690.93,-183.06"/>
<polygon fill="#9a32cd" stroke="#9a32cd" points="513.95,-244.53 505.47,-250.88 516.06,-251.21 513.95,-244.53"/>
<text text-anchor="middle" x="580.5" y="-237" font-family="Helvetica,sans-Serif" font-size="10.00"> fieldEnts</text>
</g>
<!-- Node4 -->
<g id="node4" class="node">
<title>Node4</title>
<g id="a_node4"><a xlink:href="structMoFEM_1_1SmartPetscObj.html" target="_top" xlink:title=" ">
<polygon fill="white" stroke="black" points="388.5,-202 388.5,-232 519.5,-232 519.5,-202 388.5,-202"/>
<text text-anchor="start" x="396.5" y="-220" font-family="Helvetica,sans-Serif" font-size="10.00">MoFEM::SmartPetscObj</text>
<text text-anchor="middle" x="454" y="-209" font-family="Helvetica,sans-Serif" font-size="10.00">&lt; AO &gt;</text>
</a>
</g>
</g>
<!-- Node4&#45;&gt;Node1 -->
<g id="edge3" class="edge">
<title>Node4&#45;&gt;Node1</title>
<path fill="none" stroke="#9a32cd" stroke-dasharray="5,2" d="M529.98,-203.54C565.43,-197.18 607.87,-189.56 644.36,-183.01"/>
<polygon fill="#9a32cd" stroke="#9a32cd" points="528.92,-200.18 519.7,-205.39 530.16,-207.07 528.92,-200.18"/>
<text text-anchor="middle" x="580.5" y="-202" font-family="Helvetica,sans-Serif" font-size="10.00"> schurAO</text>
</g>
<!-- Node5 -->
<g id="node5" class="node">
<title>Node5</title>
<g id="a_node5"><a xlink:title=" ">
<polygon fill="white" stroke="#bfbfbf" points="165.5,-223.5 165.5,-264.5 291.5,-264.5 291.5,-223.5 165.5,-223.5"/>
<text text-anchor="start" x="173.5" y="-252.5" font-family="Helvetica,sans-Serif" font-size="10.00">boost::intrusive_ptr</text>
<text text-anchor="start" x="173.5" y="-241.5" font-family="Helvetica,sans-Serif" font-size="10.00">&lt; std::remove_pointer</text>
<text text-anchor="middle" x="228.5" y="-230.5" font-family="Helvetica,sans-Serif" font-size="10.00">&lt; AO &gt;::type &gt;</text>
</a>
</g>
</g>
<!-- Node5&#45;&gt;Node4 -->
<g id="edge4" class="edge">
<title>Node5&#45;&gt;Node4</title>
<path fill="none" stroke="midnightblue" d="M301.83,-235.26C329.68,-231.9 361.27,-228.08 388.35,-224.81"/>
<polygon fill="midnightblue" stroke="midnightblue" points="301.27,-231.8 291.76,-236.48 302.1,-238.75 301.27,-231.8"/>
</g>
<!-- Node6 -->
<g id="node6" class="node">
<title>Node6</title>
<g id="a_node6"><a xlink:href="structMoFEM_1_1SmartPetscObj.html" target="_top" xlink:title="intrusive_ptr for managing petsc objects">
<polygon fill="white" stroke="black" points="163,-174 163,-204 294,-204 294,-174 163,-174"/>
<text text-anchor="start" x="171" y="-192" font-family="Helvetica,sans-Serif" font-size="10.00">MoFEM::SmartPetscObj</text>
<text text-anchor="middle" x="228.5" y="-181" font-family="Helvetica,sans-Serif" font-size="10.00">&lt; OBJ &gt;</text>
</a>
</g>
</g>
<!-- Node6&#45;&gt;Node4 -->
<g id="edge5" class="edge">
<title>Node6&#45;&gt;Node4</title>
<path fill="none" stroke="orange" stroke-dasharray="5,2" d="M304.42,-198.39C331.67,-201.8 362.22,-205.63 388.5,-208.92"/>
<polygon fill="orange" stroke="orange" points="304.5,-194.87 294.15,-197.1 303.63,-201.81 304.5,-194.87"/>
<text text-anchor="middle" x="334.5" y="-207" font-family="Helvetica,sans-Serif" font-size="10.00"> &lt; AO &gt;</text>
</g>
<!-- Node10 -->
<g id="node10" class="node">
<title>Node10</title>
<g id="a_node10"><a xlink:href="structMoFEM_1_1SmartPetscObj.html" target="_top" xlink:title=" ">
<polygon fill="white" stroke="black" points="388.5,-153 388.5,-183 519.5,-183 519.5,-153 388.5,-153"/>
<text text-anchor="start" x="396.5" y="-171" font-family="Helvetica,sans-Serif" font-size="10.00">MoFEM::SmartPetscObj</text>
<text text-anchor="middle" x="454" y="-160" font-family="Helvetica,sans-Serif" font-size="10.00">&lt; Mat &gt;</text>
</a>
</g>
</g>
<!-- Node6&#45;&gt;Node10 -->
<g id="edge11" class="edge">
<title>Node6&#45;&gt;Node10</title>
<path fill="none" stroke="orange" stroke-dasharray="5,2" d="M304.36,-180.75C306.94,-180.5 309.49,-180.24 312,-180 336.94,-177.58 364.39,-175.18 388.39,-173.17"/>
<polygon fill="orange" stroke="orange" points="303.93,-177.28 294.34,-181.78 304.64,-184.24 303.93,-177.28"/>
<text text-anchor="middle" x="334.5" y="-183" font-family="Helvetica,sans-Serif" font-size="10.00"> &lt; Mat &gt;</text>
</g>
<!-- Node7 -->
<g id="node7" class="node">
<title>Node7</title>
<g id="a_node7"><a xlink:title=" ">
<polygon fill="white" stroke="#bfbfbf" points="0,-168.5 0,-209.5 126,-209.5 126,-168.5 0,-168.5"/>
<text text-anchor="start" x="8" y="-197.5" font-family="Helvetica,sans-Serif" font-size="10.00">boost::intrusive_ptr</text>
<text text-anchor="start" x="8" y="-186.5" font-family="Helvetica,sans-Serif" font-size="10.00">&lt; std::remove_pointer</text>
<text text-anchor="middle" x="63" y="-175.5" font-family="Helvetica,sans-Serif" font-size="10.00">&lt; OBJ &gt;::type &gt;</text>
</a>
</g>
</g>
<!-- Node7&#45;&gt;Node6 -->
<g id="edge6" class="edge">
<title>Node7&#45;&gt;Node6</title>
<path fill="none" stroke="midnightblue" d="M136.52,-189C145.33,-189 154.27,-189 162.95,-189"/>
<polygon fill="midnightblue" stroke="midnightblue" points="136.28,-185.5 126.28,-189 136.28,-192.5 136.28,-185.5"/>
</g>
<!-- Node8 -->
<g id="node8" class="node">
<title>Node8</title>
<g id="a_node8"><a xlink:title=" ">
<polygon fill="white" stroke="#bfbfbf" points="394.5,-114.5 394.5,-133.5 513.5,-133.5 513.5,-114.5 394.5,-114.5"/>
<text text-anchor="middle" x="454" y="-121.5" font-family="Helvetica,sans-Serif" font-size="10.00">vector&lt; std::string &gt;</text>
</a>
</g>
</g>
<!-- Node8&#45;&gt;Node1 -->
<g id="edge7" class="edge">
<title>Node8&#45;&gt;Node1</title>
<path fill="none" stroke="#9a32cd" stroke-dasharray="5,2" d="M523.76,-135.08C557.43,-140.51 598.47,-147.12 634.9,-152.99"/>
<polygon fill="#9a32cd" stroke="#9a32cd" points="523.99,-131.57 513.57,-133.44 522.88,-138.49 523.99,-131.57"/>
<text text-anchor="middle" x="580.5" y="-151" font-family="Helvetica,sans-Serif" font-size="10.00"> fieldsName</text>
</g>
<!-- Node9 -->
<g id="node9" class="node">
<title>Node9</title>
<g id="a_node9"><a xlink:href="classbool.html" target="_top" xlink:title=" ">
<polygon fill="white" stroke="black" points="435,-76.5 435,-95.5 473,-95.5 473,-76.5 435,-76.5"/>
<text text-anchor="middle" x="454" y="-83.5" font-family="Helvetica,sans-Serif" font-size="10.00">bool</text>
</a>
</g>
</g>
<!-- Node9&#45;&gt;Node1 -->
<g id="edge8" class="edge">
<title>Node9&#45;&gt;Node1</title>
<path fill="none" stroke="#9a32cd" stroke-dasharray="5,2" d="M483.35,-92.88C498.15,-96.48 516.55,-100.97 533,-105 567.23,-113.39 576.32,-113.6 610,-124 637.47,-132.48 667.86,-143.86 690.91,-152.92"/>
<polygon fill="#9a32cd" stroke="#9a32cd" points="483.83,-89.4 473.29,-90.44 482.18,-96.2 483.83,-89.4"/>
<text text-anchor="middle" x="580.5" y="-127" font-family="Helvetica,sans-Serif" font-size="10.00"> symSchur</text>
</g>
<!-- Node10&#45;&gt;Node1 -->
<g id="edge9" class="edge">
<title>Node10&#45;&gt;Node1</title>
<path fill="none" stroke="#9a32cd" stroke-dasharray="5,2" d="M529.74,-168C559.97,-168 595.32,-168 627.74,-168"/>
<polygon fill="#9a32cd" stroke="#9a32cd" points="529.7,-164.5 519.7,-168 529.7,-171.5 529.7,-164.5"/>
<text text-anchor="middle" x="580.5" y="-171" font-family="Helvetica,sans-Serif" font-size="10.00"> schurMat</text>
</g>
<!-- Node11 -->
<g id="node11" class="node">
<title>Node11</title>
<g id="a_node11"><a xlink:title=" ">
<polygon fill="white" stroke="#bfbfbf" points="165.5,-113.5 165.5,-154.5 291.5,-154.5 291.5,-113.5 165.5,-113.5"/>
<text text-anchor="start" x="173.5" y="-142.5" font-family="Helvetica,sans-Serif" font-size="10.00">boost::intrusive_ptr</text>
<text text-anchor="start" x="173.5" y="-131.5" font-family="Helvetica,sans-Serif" font-size="10.00">&lt; std::remove_pointer</text>
<text text-anchor="middle" x="228.5" y="-120.5" font-family="Helvetica,sans-Serif" font-size="10.00">&lt; Mat &gt;::type &gt;</text>
</a>
</g>
</g>
<!-- Node11&#45;&gt;Node10 -->
<g id="edge10" class="edge">
<title>Node11&#45;&gt;Node10</title>
<path fill="none" stroke="midnightblue" d="M301.83,-145C329.68,-149.24 361.27,-154.05 388.35,-158.17"/>
<polygon fill="midnightblue" stroke="midnightblue" points="302.17,-141.51 291.76,-143.47 301.12,-148.44 302.17,-141.51"/>
</g>
<!-- Node12 -->
<g id="node12" class="node">
<title>Node12</title>
<g id="a_node12"><a xlink:href="classUBlasMatrix_3_01double_01_4.html" target="_top" xlink:title=" ">
<polygon fill="white" stroke="black" points="388,-0.5 388,-19.5 520,-19.5 520,-0.5 388,-0.5"/>
<text text-anchor="middle" x="454" y="-7.5" font-family="Helvetica,sans-Serif" font-size="10.00">UBlasMatrix&lt; double &gt;</text>
</a>
</g>
</g>
<!-- Node12&#45;&gt;Node1 -->
<g id="edge12" class="edge">
<title>Node12&#45;&gt;Node1</title>
<path fill="none" stroke="#9a32cd" stroke-dasharray="5,2" d="M530.13,-20.99C556.57,-26.98 585.71,-36.13 610,-50 657.04,-76.87 698.32,-127.45 717.16,-152.76"/>
<polygon fill="#9a32cd" stroke="#9a32cd" points="530.66,-17.52 520.15,-18.84 529.19,-24.36 530.66,-17.52"/>
<text text-anchor="middle" x="580.5" y="-97" font-family="Helvetica,sans-Serif" font-size="10.00"> invMat</text>
<text text-anchor="middle" x="580.5" y="-86" font-family="Helvetica,sans-Serif" font-size="10.00">abM</text>
<text text-anchor="middle" x="580.5" y="-75" font-family="Helvetica,sans-Serif" font-size="10.00">abcM</text>
<text text-anchor="middle" x="580.5" y="-64" font-family="Helvetica,sans-Serif" font-size="10.00">bM</text>
<text text-anchor="middle" x="580.5" y="-53" font-family="Helvetica,sans-Serif" font-size="10.00">blockMat</text>
</g>
</g>
</svg>
