<?xml version="1.0" encoding="UTF-8" standalone="no"?>
<!DOCTYPE svg PUBLIC "-//W3C//DTD SVG 1.1//EN"
 "http://www.w3.org/Graphics/SVG/1.1/DTD/svg11.dtd">
<!-- Generated by graphviz version 9.0.0 (20230911.1827)
 -->
<!-- Title: MoFEM::ContactPrismElementForcesAndSourcesCore Pages: 1 -->
<svg width="363pt" height="370pt"
 viewBox="0.00 0.00 362.75 370.00" xmlns="http://www.w3.org/2000/svg" xmlns:xlink="http://www.w3.org/1999/xlink">
<g id="graph0" class="graph" transform="scale(1 1) rotate(0) translate(4 366)">
<title>MoFEM::ContactPrismElementForcesAndSourcesCore</title>
<!-- Node1 -->
<g id="node1" class="node">
<title>Node1</title>
<g id="a_node1"><a xlink:title="ContactPrism finite element.">
<polygon fill="#999999" stroke="#666666" points="256.25,-30.5 103.75,-30.5 103.75,0 256.25,0 256.25,-30.5"/>
<text text-anchor="start" x="111.75" y="-17" font-family="Helvetica,sans-Serif" font-size="10.00">MoFEM::ContactPrismElement</text>
<text text-anchor="middle" x="180" y="-5.75" font-family="Helvetica,sans-Serif" font-size="10.00">ForcesAndSourcesCore</text>
</a>
</g>
</g>
<!-- Node2 -->
<g id="node2" class="node">
<title>Node2</title>
<g id="a_node2"><a xlink:href="struct_mo_f_e_m_1_1_forces_and_sources_core.html" target="_top" xlink:title="structure to get information form mofem into EntitiesFieldData">
<polygon fill="white" stroke="#666666" points="260.38,-85.75 99.62,-85.75 99.62,-66.5 260.38,-66.5 260.38,-85.75"/>
<text text-anchor="middle" x="180" y="-72.25" font-family="Helvetica,sans-Serif" font-size="10.00">MoFEM::ForcesAndSourcesCore</text>
</a>
</g>
</g>
<!-- Node2&#45;&gt;Node1 -->
<g id="edge1" class="edge">
<title>Node2&#45;&gt;Node1</title>
<path fill="none" stroke="#63b8ff" d="M180,-54.92C180,-46.99 180,-38.06 180,-30.78"/>
<polygon fill="#63b8ff" stroke="#63b8ff" points="176.5,-54.67 180,-64.67 183.5,-54.67 176.5,-54.67"/>
</g>
<!-- Node3 -->
<g id="node3" class="node">
<title>Node3</title>
<g id="a_node3"><a xlink:href="struct_mo_f_e_m_1_1_f_e_method.html" target="_top" xlink:title="structure for User Loop Methods on finite elements">
<polygon fill="white" stroke="#666666" points="230.75,-141 129.25,-141 129.25,-121.75 230.75,-121.75 230.75,-141"/>
<text text-anchor="middle" x="180" y="-127.5" font-family="Helvetica,sans-Serif" font-size="10.00">MoFEM::FEMethod</text>
</a>
</g>
</g>
<!-- Node3&#45;&gt;Node2 -->
<g id="edge2" class="edge">
<title>Node3&#45;&gt;Node2</title>
<path fill="none" stroke="#63b8ff" d="M180,-110.13C180,-101.84 180,-92.67 180,-86.11"/>
<polygon fill="#63b8ff" stroke="#63b8ff" points="176.5,-110.07 180,-120.07 183.5,-110.07 176.5,-110.07"/>
</g>
<!-- Node4 -->
<g id="node4" class="node">
<title>Node4</title>
<g id="a_node4"><a xlink:href="struct_mo_f_e_m_1_1_basic_method.html" target="_top" xlink:title="Data structure to exchange data between mofem and User Loop Methods.">
<polygon fill="white" stroke="#666666" points="236.75,-196.25 123.25,-196.25 123.25,-177 236.75,-177 236.75,-196.25"/>
<text text-anchor="middle" x="180" y="-182.75" font-family="Helvetica,sans-Serif" font-size="10.00">MoFEM::BasicMethod</text>
</a>
</g>
</g>
<!-- Node4&#45;&gt;Node3 -->
<g id="edge3" class="edge">
<title>Node4&#45;&gt;Node3</title>
<path fill="none" stroke="#63b8ff" d="M180,-165.38C180,-157.09 180,-147.92 180,-141.36"/>
<polygon fill="#63b8ff" stroke="#63b8ff" points="176.5,-165.32 180,-175.32 183.5,-165.32 176.5,-165.32"/>
</g>
<!-- Node5 -->
<g id="node5" class="node">
<title>Node5</title>
<g id="a_node5"><a xlink:href="struct_mo_f_e_m_1_1_ksp_method.html" target="_top" xlink:title="data structure for ksp (linear solver) context">
<polygon fill="white" stroke="#666666" points="106,-251.5 0,-251.5 0,-232.25 106,-232.25 106,-251.5"/>
<text text-anchor="middle" x="53" y="-238" font-family="Helvetica,sans-Serif" font-size="10.00">MoFEM::KspMethod</text>
</a>
</g>
</g>
<!-- Node5&#45;&gt;Node4 -->
<g id="edge4" class="edge">
<title>Node5&#45;&gt;Node4</title>
<path fill="none" stroke="#63b8ff" d="M85.13,-227.4C108.05,-217.79 138.25,-205.13 158.35,-196.7"/>
<polygon fill="#63b8ff" stroke="#63b8ff" points="83.81,-224.16 75.94,-231.26 86.52,-230.62 83.81,-224.16"/>
</g>
<!-- Node6 -->
<g id="node6" class="node">
<title>Node6</title>
<g id="a_node6"><a xlink:href="struct_mo_f_e_m_1_1_petsc_data.html" target="_top" xlink:title=" ">
<polygon fill="white" stroke="#666666" points="231.5,-306.75 128.5,-306.75 128.5,-287.5 231.5,-287.5 231.5,-306.75"/>
<text text-anchor="middle" x="180" y="-293.25" font-family="Helvetica,sans-Serif" font-size="10.00">MoFEM::PetscData</text>
</a>
</g>
</g>
<!-- Node6&#45;&gt;Node5 -->
<g id="edge5" class="edge">
<title>Node6&#45;&gt;Node5</title>
<path fill="none" stroke="#63b8ff" d="M147.87,-282.65C124.95,-273.04 94.75,-260.38 74.65,-251.95"/>
<polygon fill="#63b8ff" stroke="#63b8ff" points="146.48,-285.87 157.06,-286.51 149.19,-279.41 146.48,-285.87"/>
</g>
<!-- Node8 -->
<g id="node8" class="node">
<title>Node8</title>
<g id="a_node8"><a xlink:href="struct_mo_f_e_m_1_1_snes_method.html" target="_top" xlink:title="data structure for snes (nonlinear solver) context">
<polygon fill="white" stroke="#666666" points="235.62,-251.5 124.38,-251.5 124.38,-232.25 235.62,-232.25 235.62,-251.5"/>
<text text-anchor="middle" x="180" y="-238" font-family="Helvetica,sans-Serif" font-size="10.00">MoFEM::SnesMethod</text>
</a>
</g>
</g>
<!-- Node6&#45;&gt;Node8 -->
<g id="edge8" class="edge">
<title>Node6&#45;&gt;Node8</title>
<path fill="none" stroke="darkgreen" d="M180,-275.88C180,-267.59 180,-258.42 180,-251.86"/>
<polygon fill="darkgreen" stroke="darkgreen" points="176.5,-275.82 180,-285.82 183.5,-275.82 176.5,-275.82"/>
</g>
<!-- Node9 -->
<g id="node9" class="node">
<title>Node9</title>
<g id="a_node9"><a xlink:href="struct_mo_f_e_m_1_1_t_s_method.html" target="_top" xlink:title="data structure for TS (time stepping) context">
<polygon fill="white" stroke="#666666" points="354.75,-251.5 253.25,-251.5 253.25,-232.25 354.75,-232.25 354.75,-251.5"/>
<text text-anchor="middle" x="304" y="-238" font-family="Helvetica,sans-Serif" font-size="10.00">MoFEM::TSMethod</text>
</a>
</g>
</g>
<!-- Node6&#45;&gt;Node9 -->
<g id="edge10" class="edge">
<title>Node6&#45;&gt;Node9</title>
<path fill="none" stroke="darkgreen" d="M211.37,-282.65C233.75,-273.04 263.23,-260.38 282.86,-251.95"/>
<polygon fill="darkgreen" stroke="darkgreen" points="210.23,-279.33 202.43,-286.49 213,-285.76 210.23,-279.33"/>
</g>
<!-- Node7 -->
<g id="node7" class="node">
<title>Node7</title>
<g id="a_node7"><a xlink:href="struct_mo_f_e_m_1_1_unknown_interface.html" target="_top" xlink:title="base class for all interface classes">
<polygon fill="white" stroke="#666666" points="248,-362 112,-362 112,-342.75 248,-342.75 248,-362"/>
<text text-anchor="middle" x="180" y="-348.5" font-family="Helvetica,sans-Serif" font-size="10.00">MoFEM::UnknownInterface</text>
</a>
</g>
</g>
<!-- Node7&#45;&gt;Node6 -->
<g id="edge6" class="edge">
<title>Node7&#45;&gt;Node6</title>
<path fill="none" stroke="#63b8ff" d="M180,-331.13C180,-322.84 180,-313.67 180,-307.11"/>
<polygon fill="#63b8ff" stroke="#63b8ff" points="176.5,-331.07 180,-341.07 183.5,-331.07 176.5,-331.07"/>
</g>
<!-- Node8&#45;&gt;Node4 -->
<g id="edge7" class="edge">
<title>Node8&#45;&gt;Node4</title>
<path fill="none" stroke="#63b8ff" d="M180,-220.63C180,-212.34 180,-203.17 180,-196.61"/>
<polygon fill="#63b8ff" stroke="#63b8ff" points="176.5,-220.57 180,-230.57 183.5,-220.57 176.5,-220.57"/>
</g>
<!-- Node9&#45;&gt;Node4 -->
<g id="edge9" class="edge">
<title>Node9&#45;&gt;Node4</title>
<path fill="none" stroke="#63b8ff" d="M272.63,-227.4C250.25,-217.79 220.77,-205.13 201.14,-196.7"/>
<polygon fill="#63b8ff" stroke="#63b8ff" points="271,-230.51 281.57,-231.24 273.77,-224.08 271,-230.51"/>
</g>
</g>
</svg>
