<?xml version="1.0" encoding="UTF-8" standalone="no"?>
<!DOCTYPE svg PUBLIC "-//W3C//DTD SVG 1.1//EN"
 "http://www.w3.org/Graphics/SVG/1.1/DTD/svg11.dtd">
<!-- Generated by graphviz version 2.43.0 (0)
 -->
<!-- Title: PostProcVolumeOnRefinedMesh Pages: 1 -->
<!--zoomable 181 -->
<svg id="main" version="1.1" xmlns="http://www.w3.org/2000/svg" xmlns:xlink="http://www.w3.org/1999/xlink" xml:space="preserve" onload="init(evt)">
<style type="text/css"><![CDATA[
.edge:hover path { stroke: red; }
.edge:hover polygon { stroke: red; fill: red; }
]]></style>
<script type="text/javascript"><![CDATA[
var edges = document.getElementsByTagName('g');
if (edges && edges.length) {
  for (var i=0;i<edges.length;i++) {
    if (edges[i].id.substr(0,4)=='edge') {
      edges[i].setAttribute('class','edge');
    }
  }
}
]]></script>
        <defs>
                <circle id="rim" cx="0" cy="0" r="7"/>
                <circle id="rim2" cx="0" cy="0" r="3.5"/>
                <g id="zoomPlus">
                        <use xlink:href="#rim" fill="#404040">
                                <set attributeName="fill" to="#808080" begin="zoomplus.mouseover" end="zoomplus.mouseout"/>
                        </use>
                        <path d="M-4,0h8M0,-4v8" fill="none" stroke="white" stroke-width="1.5" pointer-events="none"/>
                </g>
                <g id="zoomMin">
                        <use xlink:href="#rim" fill="#404040">
                                <set attributeName="fill" to="#808080" begin="zoomminus.mouseover" end="zoomminus.mouseout"/>
                        </use>
                        <path d="M-4,0h8" fill="none" stroke="white" stroke-width="1.5" pointer-events="none"/>
                </g>
                <g id="dirArrow">
                        <path fill="none" stroke="white" stroke-width="1.5" d="M0,-3.0v7 M-2.5,-0.5L0,-3.0L2.5,-0.5"/>
                </g>
               <g id="resetDef">
                       <use xlink:href="#rim2" fill="#404040">
                               <set attributeName="fill" to="#808080" begin="reset.mouseover" end="reset.mouseout"/>
                       </use>
               </g>
        </defs>

<script type="text/javascript">
var viewWidth = 2152;
var viewHeight = 181;
var sectionId = 'dynsection-0';
</script>
<script xlink:href="svgpan.js"/>
<svg id="graph" class="graph">
<g id="viewport">
<title>PostProcVolumeOnRefinedMesh</title>
<polygon fill="white" stroke="transparent" points="-4,4 -4,-177 2148,-177 2148,4 -4,4"/>
<!-- Node1 -->
<g id="node1" class="node">
<title>Node1</title>
<g id="a_node1"><a xlink:title="Post processing.">
<polygon fill="#bfbfbf" stroke="black" points="1972,-33.5 1972,-52.5 2144,-52.5 2144,-33.5 1972,-33.5"/>
<text text-anchor="middle" x="2058" y="-40.5" font-family="Helvetica,sans-Serif" font-size="10.00">PostProcVolumeOnRefinedMesh</text>
</a>
</g>
</g>
<!-- Node2 -->
<g id="node2" class="node">
<title>Node2</title>
<g id="a_node2"><a xlink:href="structPostProcTemplateVolumeOnRefinedMesh.html" target="_top" xlink:title=" ">
<polygon fill="white" stroke="black" points="1725,-22.5 1725,-63.5 1935,-63.5 1935,-22.5 1725,-22.5"/>
<text text-anchor="start" x="1733" y="-51.5" font-family="Helvetica,sans-Serif" font-size="10.00">PostProcTemplateVolumeOn</text>
<text text-anchor="start" x="1733" y="-40.5" font-family="Helvetica,sans-Serif" font-size="10.00">RefinedMesh&lt; MoFEM::VolumeElement</text>
<text text-anchor="middle" x="1830" y="-29.5" font-family="Helvetica,sans-Serif" font-size="10.00">ForcesAndSourcesCore &gt;</text>
</a>
</g>
</g>
<!-- Node2&#45;&gt;Node1 -->
<g id="edge1" class="edge">
<title>Node2&#45;&gt;Node1</title>
<path fill="none" stroke="midnightblue" d="M1945.16,-43C1954.11,-43 1963.05,-43 1971.75,-43"/>
<polygon fill="midnightblue" stroke="midnightblue" points="1945.07,-39.5 1935.07,-43 1945.07,-46.5 1945.07,-39.5"/>
</g>
<!-- Node3 -->
<g id="node3" class="node">
<title>Node3</title>
<g id="a_node3"><a xlink:href="structPostProcTemplateOnRefineMesh.html" target="_top" xlink:title=" ">
<polygon fill="white" stroke="black" points="1318,-50.5 1318,-91.5 1523,-91.5 1523,-50.5 1318,-50.5"/>
<text text-anchor="start" x="1326" y="-79.5" font-family="Helvetica,sans-Serif" font-size="10.00">PostProcTemplateOnRefine</text>
<text text-anchor="start" x="1326" y="-68.5" font-family="Helvetica,sans-Serif" font-size="10.00">Mesh&lt; MoFEM::VolumeElementForces</text>
<text text-anchor="middle" x="1420.5" y="-57.5" font-family="Helvetica,sans-Serif" font-size="10.00">AndSourcesCore &gt;</text>
</a>
</g>
</g>
<!-- Node3&#45;&gt;Node2 -->
<g id="edge2" class="edge">
<title>Node3&#45;&gt;Node2</title>
<path fill="none" stroke="midnightblue" d="M1533.3,-63.75C1586,-60.28 1649.74,-56.02 1707,-52 1712.83,-51.59 1718.81,-51.17 1724.85,-50.73"/>
<polygon fill="midnightblue" stroke="midnightblue" points="1533,-60.26 1523.26,-64.41 1533.46,-67.24 1533,-60.26"/>
</g>
<!-- Node4 -->
<g id="node4" class="node">
<title>Node4</title>
<g id="a_node4"><a xlink:href="structMoFEM_1_1VolumeElementForcesAndSourcesCore.html" target="_top" xlink:title="Volume finite element base.">
<polygon fill="white" stroke="black" points="1114,-110 1114,-140 1281,-140 1281,-110 1114,-110"/>
<text text-anchor="start" x="1122" y="-128" font-family="Helvetica,sans-Serif" font-size="10.00">MoFEM::VolumeElementForces</text>
<text text-anchor="middle" x="1197.5" y="-117" font-family="Helvetica,sans-Serif" font-size="10.00">AndSourcesCore</text>
</a>
</g>
</g>
<!-- Node4&#45;&gt;Node3 -->
<g id="edge3" class="edge">
<title>Node4&#45;&gt;Node3</title>
<path fill="none" stroke="midnightblue" d="M1269.84,-107.57C1290.79,-102.45 1313.9,-96.8 1335.56,-91.51"/>
<polygon fill="midnightblue" stroke="midnightblue" points="1268.94,-104.18 1260.06,-109.96 1270.61,-110.98 1268.94,-104.18"/>
</g>
<!-- Node5 -->
<g id="node5" class="node">
<title>Node5</title>
<g id="a_node5"><a xlink:href="structMoFEM_1_1ForcesAndSourcesCore.html" target="_top" xlink:title="structure to get information form mofem into EntitiesFieldData">
<polygon fill="white" stroke="black" points="789,-115.5 789,-134.5 959,-134.5 959,-115.5 789,-115.5"/>
<text text-anchor="middle" x="874" y="-122.5" font-family="Helvetica,sans-Serif" font-size="10.00">MoFEM::ForcesAndSourcesCore</text>
</a>
</g>
</g>
<!-- Node5&#45;&gt;Node4 -->
<g id="edge4" class="edge">
<title>Node5&#45;&gt;Node4</title>
<path fill="none" stroke="midnightblue" d="M969.28,-125C1015.08,-125 1069.61,-125 1113.77,-125"/>
<polygon fill="midnightblue" stroke="midnightblue" points="969.05,-121.5 959.05,-125 969.05,-128.5 969.05,-121.5"/>
</g>
<!-- Node6 -->
<g id="node6" class="node">
<title>Node6</title>
<g id="a_node6"><a xlink:href="structMoFEM_1_1FEMethod.html" target="_top" xlink:title="structure for User Loop Methods on finite elements">
<polygon fill="white" stroke="black" points="645,-115.5 645,-134.5 752,-134.5 752,-115.5 645,-115.5"/>
<text text-anchor="middle" x="698.5" y="-122.5" font-family="Helvetica,sans-Serif" font-size="10.00">MoFEM::FEMethod</text>
</a>
</g>
</g>
<!-- Node6&#45;&gt;Node5 -->
<g id="edge5" class="edge">
<title>Node6&#45;&gt;Node5</title>
<path fill="none" stroke="midnightblue" d="M762.08,-125C770.81,-125 779.89,-125 788.93,-125"/>
<polygon fill="midnightblue" stroke="midnightblue" points="762.03,-121.5 752.03,-125 762.03,-128.5 762.03,-121.5"/>
</g>
<!-- Node7 -->
<g id="node7" class="node">
<title>Node7</title>
<g id="a_node7"><a xlink:href="structMoFEM_1_1BasicMethod.html" target="_top" xlink:title="Data structure to exchange data between mofem and User Loop Methods.">
<polygon fill="white" stroke="black" points="486,-115.5 486,-134.5 608,-134.5 608,-115.5 486,-115.5"/>
<text text-anchor="middle" x="547" y="-122.5" font-family="Helvetica,sans-Serif" font-size="10.00">MoFEM::BasicMethod</text>
</a>
</g>
</g>
<!-- Node7&#45;&gt;Node6 -->
<g id="edge6" class="edge">
<title>Node7&#45;&gt;Node6</title>
<path fill="none" stroke="midnightblue" d="M618.59,-125C627.34,-125 636.17,-125 644.6,-125"/>
<polygon fill="midnightblue" stroke="midnightblue" points="618.38,-121.5 608.38,-125 618.38,-128.5 618.38,-121.5"/>
</g>
<!-- Node8 -->
<g id="node8" class="node">
<title>Node8</title>
<g id="a_node8"><a xlink:href="structMoFEM_1_1KspMethod.html" target="_top" xlink:title="data structure for ksp (linear solver) context">
<polygon fill="white" stroke="black" points="333,-153.5 333,-172.5 446,-172.5 446,-153.5 333,-153.5"/>
<text text-anchor="middle" x="389.5" y="-160.5" font-family="Helvetica,sans-Serif" font-size="10.00">MoFEM::KspMethod</text>
</a>
</g>
</g>
<!-- Node8&#45;&gt;Node7 -->
<g id="edge7" class="edge">
<title>Node8&#45;&gt;Node7</title>
<path fill="none" stroke="midnightblue" d="M439.47,-151.03C461.27,-145.71 486.57,-139.52 507.04,-134.52"/>
<polygon fill="midnightblue" stroke="midnightblue" points="438.62,-147.64 429.74,-153.41 440.28,-154.44 438.62,-147.64"/>
</g>
<!-- Node9 -->
<g id="node9" class="node">
<title>Node9</title>
<g id="a_node9"><a xlink:href="structMoFEM_1_1PetscData.html" target="_top" xlink:title=" ">
<polygon fill="white" stroke="black" points="185,-115.5 185,-134.5 293,-134.5 293,-115.5 185,-115.5"/>
<text text-anchor="middle" x="239" y="-122.5" font-family="Helvetica,sans-Serif" font-size="10.00">MoFEM::PetscData</text>
</a>
</g>
</g>
<!-- Node9&#45;&gt;Node8 -->
<g id="edge8" class="edge">
<title>Node9&#45;&gt;Node8</title>
<path fill="none" stroke="midnightblue" d="M287.33,-137.11C308.01,-142.4 331.92,-148.52 351.3,-153.48"/>
<polygon fill="midnightblue" stroke="midnightblue" points="288.03,-133.68 277.47,-134.59 286.29,-140.46 288.03,-133.68"/>
</g>
<!-- Node11 -->
<g id="node11" class="node">
<title>Node11</title>
<g id="a_node11"><a xlink:href="structMoFEM_1_1SnesMethod.html" target="_top" xlink:title="data structure for snes (nonlinear solver) context">
<polygon fill="white" stroke="black" points="330,-115.5 330,-134.5 449,-134.5 449,-115.5 330,-115.5"/>
<text text-anchor="middle" x="389.5" y="-122.5" font-family="Helvetica,sans-Serif" font-size="10.00">MoFEM::SnesMethod</text>
</a>
</g>
</g>
<!-- Node9&#45;&gt;Node11 -->
<g id="edge11" class="edge">
<title>Node9&#45;&gt;Node11</title>
<path fill="none" stroke="darkgreen" d="M303.39,-125C312.18,-125 321.19,-125 329.89,-125"/>
<polygon fill="darkgreen" stroke="darkgreen" points="303.19,-121.5 293.19,-125 303.19,-128.5 303.19,-121.5"/>
</g>
<!-- Node12 -->
<g id="node12" class="node">
<title>Node12</title>
<g id="a_node12"><a xlink:href="structMoFEM_1_1TSMethod.html" target="_top" xlink:title="data structure for TS (time stepping) context">
<polygon fill="white" stroke="black" points="336,-77.5 336,-96.5 443,-96.5 443,-77.5 336,-77.5"/>
<text text-anchor="middle" x="389.5" y="-84.5" font-family="Helvetica,sans-Serif" font-size="10.00">MoFEM::TSMethod</text>
</a>
</g>
</g>
<!-- Node9&#45;&gt;Node12 -->
<g id="edge13" class="edge">
<title>Node9&#45;&gt;Node12</title>
<path fill="none" stroke="darkgreen" d="M287.33,-112.89C308.01,-107.6 331.92,-101.48 351.3,-96.52"/>
<polygon fill="darkgreen" stroke="darkgreen" points="286.29,-109.54 277.47,-115.41 288.03,-116.32 286.29,-109.54"/>
</g>
<!-- Node10 -->
<g id="node10" class="node">
<title>Node10</title>
<g id="a_node10"><a xlink:href="structMoFEM_1_1UnknownInterface.html" target="_top" xlink:title="base class for all interface classes">
<polygon fill="white" stroke="black" points="0,-115.5 0,-134.5 148,-134.5 148,-115.5 0,-115.5"/>
<text text-anchor="middle" x="74" y="-122.5" font-family="Helvetica,sans-Serif" font-size="10.00">MoFEM::UnknownInterface</text>
</a>
</g>
</g>
<!-- Node10&#45;&gt;Node9 -->
<g id="edge9" class="edge">
<title>Node10&#45;&gt;Node9</title>
<path fill="none" stroke="midnightblue" d="M158.41,-125C167.29,-125 176.13,-125 184.53,-125"/>
<polygon fill="midnightblue" stroke="midnightblue" points="158.39,-121.5 148.39,-125 158.39,-128.5 158.39,-121.5"/>
</g>
<!-- Node11&#45;&gt;Node7 -->
<g id="edge10" class="edge">
<title>Node11&#45;&gt;Node7</title>
<path fill="none" stroke="midnightblue" d="M459.5,-125C468.28,-125 477.21,-125 485.84,-125"/>
<polygon fill="midnightblue" stroke="midnightblue" points="459.29,-121.5 449.29,-125 459.29,-128.5 459.29,-121.5"/>
</g>
<!-- Node12&#45;&gt;Node7 -->
<g id="edge12" class="edge">
<title>Node12&#45;&gt;Node7</title>
<path fill="none" stroke="midnightblue" d="M439.47,-98.97C461.27,-104.29 486.57,-110.48 507.04,-115.48"/>
<polygon fill="midnightblue" stroke="midnightblue" points="440.28,-95.56 429.74,-96.59 438.62,-102.36 440.28,-95.56"/>
</g>
<!-- Node13 -->
<g id="node13" class="node">
<title>Node13</title>
<g id="a_node13"><a xlink:href="structPostProcTemplateOnRefineMesh.html" target="_top" xlink:title="Generic post&#45;processing class.">
<polygon fill="white" stroke="black" points="800,-47 800,-77 948,-77 948,-47 800,-47"/>
<text text-anchor="start" x="808" y="-65" font-family="Helvetica,sans-Serif" font-size="10.00">PostProcTemplateOnRefine</text>
<text text-anchor="middle" x="874" y="-54" font-family="Helvetica,sans-Serif" font-size="10.00">Mesh&lt; ELEMENT &gt;</text>
</a>
</g>
</g>
<!-- Node13&#45;&gt;Node3 -->
<g id="edge14" class="edge">
<title>Node13&#45;&gt;Node3</title>
<path fill="none" stroke="orange" stroke-dasharray="5,2" d="M958.17,-63.37C1054.78,-64.97 1214.15,-67.61 1317.98,-69.32"/>
<polygon fill="orange" stroke="orange" points="958.21,-59.87 948.15,-63.21 958.09,-66.87 958.21,-59.87"/>
<text text-anchor="start" x="1114.5" y="-82" font-family="Helvetica,sans-Serif" font-size="10.00"> &lt; MoFEM::VolumeElementForces</text>
<text text-anchor="middle" x="1197.5" y="-71" font-family="Helvetica,sans-Serif" font-size="10.00">AndSourcesCore &gt;</text>
</g>
<!-- Node16 -->
<g id="node16" class="node">
<title>Node16</title>
<g id="a_node16"><a xlink:href="structPostProcTemplateOnRefineMesh.html" target="_top" xlink:title=" ">
<polygon fill="white" stroke="black" points="1118.5,-1 1118.5,-31 1276.5,-31 1276.5,-1 1118.5,-1"/>
<text text-anchor="start" x="1126.5" y="-19" font-family="Helvetica,sans-Serif" font-size="10.00">PostProcTemplateOnRefine</text>
<text text-anchor="middle" x="1197.5" y="-8" font-family="Helvetica,sans-Serif" font-size="10.00">Mesh&lt; VOLUME_ELEMENT &gt;</text>
</a>
</g>
</g>
<!-- Node13&#45;&gt;Node16 -->
<g id="edge19" class="edge">
<title>Node13&#45;&gt;Node16</title>
<path fill="none" stroke="orange" stroke-dasharray="5,2" d="M958.19,-46.98C964.55,-45.94 970.87,-44.93 977,-44 1023.81,-36.89 1076.43,-30.13 1118.41,-25.04"/>
<polygon fill="orange" stroke="orange" points="957.48,-43.55 948.2,-48.65 958.64,-50.46 957.48,-43.55"/>
<text text-anchor="middle" x="1036.5" y="-47" font-family="Helvetica,sans-Serif" font-size="10.00"> &lt; VOLUME_ELEMENT &gt;</text>
</g>
<!-- Node14 -->
<g id="node14" class="node">
<title>Node14</title>
<g id="a_node14"><a xlink:href="classELEMENT.html" target="_top" xlink:title=" ">
<polygon fill="white" stroke="black" points="667.5,-52.5 667.5,-71.5 729.5,-71.5 729.5,-52.5 667.5,-52.5"/>
<text text-anchor="middle" x="698.5" y="-59.5" font-family="Helvetica,sans-Serif" font-size="10.00">ELEMENT</text>
</a>
</g>
</g>
<!-- Node14&#45;&gt;Node13 -->
<g id="edge15" class="edge">
<title>Node14&#45;&gt;Node13</title>
<path fill="none" stroke="midnightblue" d="M739.78,-62C757.67,-62 779.29,-62 799.86,-62"/>
<polygon fill="midnightblue" stroke="midnightblue" points="739.72,-58.5 729.72,-62 739.72,-65.5 739.72,-58.5"/>
</g>
<!-- Node15 -->
<g id="node15" class="node">
<title>Node15</title>
<g id="a_node15"><a xlink:href="structPostProcTemplateVolumeOnRefinedMesh.html" target="_top" xlink:title=" ">
<polygon fill="white" stroke="black" points="1323,-1 1323,-31 1518,-31 1518,-1 1323,-1"/>
<text text-anchor="start" x="1331" y="-19" font-family="Helvetica,sans-Serif" font-size="10.00">PostProcTemplateVolumeOn</text>
<text text-anchor="middle" x="1420.5" y="-8" font-family="Helvetica,sans-Serif" font-size="10.00">RefinedMesh&lt; VOLUME_ELEMENT &gt;</text>
</a>
</g>
</g>
<!-- Node15&#45;&gt;Node2 -->
<g id="edge16" class="edge">
<title>Node15&#45;&gt;Node2</title>
<path fill="none" stroke="orange" stroke-dasharray="5,2" d="M1528.28,-19.79C1581.95,-22.06 1647.97,-25.41 1707,-30 1712.84,-30.45 1718.83,-30.96 1724.88,-31.5"/>
<polygon fill="orange" stroke="orange" points="1528.19,-16.28 1518.06,-19.36 1527.9,-23.27 1528.19,-16.28"/>
<text text-anchor="start" x="1541" y="-44" font-family="Helvetica,sans-Serif" font-size="10.00"> &lt; MoFEM::VolumeElementForces</text>
<text text-anchor="middle" x="1624" y="-33" font-family="Helvetica,sans-Serif" font-size="10.00">AndSourcesCore &gt;</text>
</g>
<!-- Node16&#45;&gt;Node15 -->
<g id="edge17" class="edge">
<title>Node16&#45;&gt;Node15</title>
<path fill="none" stroke="midnightblue" d="M1286.97,-16C1298.75,-16 1310.87,-16 1322.78,-16"/>
<polygon fill="midnightblue" stroke="midnightblue" points="1286.73,-12.5 1276.73,-16 1286.73,-19.5 1286.73,-12.5"/>
</g>
<!-- Node17 -->
<g id="node17" class="node">
<title>Node17</title>
<g id="a_node17"><a xlink:title=" ">
<polygon fill="white" stroke="#bfbfbf" points="819,-0.5 819,-19.5 929,-19.5 929,-0.5 819,-0.5"/>
<text text-anchor="middle" x="874" y="-7.5" font-family="Helvetica,sans-Serif" font-size="10.00">VOLUME_ELEMENT</text>
</a>
</g>
</g>
<!-- Node17&#45;&gt;Node16 -->
<g id="edge18" class="edge">
<title>Node17&#45;&gt;Node16</title>
<path fill="none" stroke="midnightblue" d="M939.19,-11.2C990.74,-12.16 1063.33,-13.51 1118.28,-14.54"/>
<polygon fill="midnightblue" stroke="midnightblue" points="939.24,-7.7 929.17,-11.01 939.11,-14.7 939.24,-7.7"/>
</g>
</g>
</svg>
        <g id="navigator" transform="translate(0 0)" fill="#404254">
                <rect fill="#f2f5e9" fill-opacity="0.5" stroke="#606060" stroke-width=".5" x="0" y="0" width="60" height="60"/>
                <use id="zoomplus" xlink:href="#zoomPlus" x="17" y="9" onmousedown="handleZoom(evt,'in')"/>
                <use id="zoomminus" xlink:href="#zoomMin" x="42" y="9" onmousedown="handleZoom(evt,'out')"/>
                <use id="reset" xlink:href="#resetDef" x="30" y="36" onmousedown="handleReset()"/>
                <g id="arrowUp" xlink:href="#dirArrow" transform="translate(30 24)" onmousedown="handlePan(0,-1)">
                  <use xlink:href="#rim" fill="#404040">
                        <set attributeName="fill" to="#808080" begin="arrowUp.mouseover" end="arrowUp.mouseout"/>
                  </use>
                  <path fill="none" stroke="white" stroke-width="1.5" d="M0,-3.0v7 M-2.5,-0.5L0,-3.0L2.5,-0.5"/>
                </g>
                <g id="arrowRight" xlink:href="#dirArrow" transform="rotate(90) translate(36 -43)" onmousedown="handlePan(1,0)">
                  <use xlink:href="#rim" fill="#404040">
                        <set attributeName="fill" to="#808080" begin="arrowRight.mouseover" end="arrowRight.mouseout"/>
                  </use>
                  <path fill="none" stroke="white" stroke-width="1.5" d="M0,-3.0v7 M-2.5,-0.5L0,-3.0L2.5,-0.5"/>
                </g>
                <g id="arrowDown" xlink:href="#dirArrow" transform="rotate(180) translate(-30 -48)" onmousedown="handlePan(0,1)">
                  <use xlink:href="#rim" fill="#404040">
                        <set attributeName="fill" to="#808080" begin="arrowDown.mouseover" end="arrowDown.mouseout"/>
                  </use>
                  <path fill="none" stroke="white" stroke-width="1.5" d="M0,-3.0v7 M-2.5,-0.5L0,-3.0L2.5,-0.5"/>
                </g>
                <g id="arrowLeft" xlink:href="#dirArrow" transform="rotate(270) translate(-36 17)" onmousedown="handlePan(-1,0)">
                  <use xlink:href="#rim" fill="#404040">
                        <set attributeName="fill" to="#808080" begin="arrowLeft.mouseover" end="arrowLeft.mouseout"/>
                  </use>
                  <path fill="none" stroke="white" stroke-width="1.5" d="M0,-3.0v7 M-2.5,-0.5L0,-3.0L2.5,-0.5"/>
                </g>
        </g>
        <svg viewBox="0 0 15 15" width="100%" height="30px" preserveAspectRatio="xMaxYMin meet">
         <g id="arrow_out" transform="scale(0.3 0.3)">
          <a xlink:href="structPostProcVolumeOnRefinedMesh__inherit__graph_org.svg" target="_base">
           <rect id="button" ry="5" rx="5" y="6" x="6" height="38" width="38"
                fill="#f2f5e9" fill-opacity="0.5" stroke="#606060" stroke-width="1.0"/>
           <path id="arrow"
             d="M 11.500037,31.436501 C 11.940474,20.09759 22.043105,11.32322 32.158766,21.979434 L 37.068811,17.246167 C 37.068811,17.246167 37.088388,32 37.088388,32 L 22.160133,31.978069 C 22.160133,31.978069 26.997745,27.140456 26.997745,27.140456 C 18.528582,18.264221 13.291696,25.230495 11.500037,31.436501 z"
             style="fill:#404040;"/>
          </a>
         </g>
        </svg>
</svg>
