<?xml version="1.0" encoding="UTF-8" standalone="no"?>
<!DOCTYPE svg PUBLIC "-//W3C//DTD SVG 1.1//EN"
 "http://www.w3.org/Graphics/SVG/1.1/DTD/svg11.dtd">
<!-- Generated by graphviz version 2.43.0 (0)
 -->
<!-- Title: MoFEM::FieldEntity Pages: 1 -->
<!--zoomable 447 -->
<svg id="main" version="1.1" xmlns="http://www.w3.org/2000/svg" xmlns:xlink="http://www.w3.org/1999/xlink" xml:space="preserve" onload="init(evt)">
<style type="text/css"><![CDATA[
.edge:hover path { stroke: red; }
.edge:hover polygon { stroke: red; fill: red; }
]]></style>
<script type="text/javascript"><![CDATA[
var edges = document.getElementsByTagName('g');
if (edges && edges.length) {
  for (var i=0;i<edges.length;i++) {
    if (edges[i].id.substr(0,4)=='edge') {
      edges[i].setAttribute('class','edge');
    }
  }
}
]]></script>
        <defs>
                <circle id="rim" cx="0" cy="0" r="7"/>
                <circle id="rim2" cx="0" cy="0" r="3.5"/>
                <g id="zoomPlus">
                        <use xlink:href="#rim" fill="#404040">
                                <set attributeName="fill" to="#808080" begin="zoomplus.mouseover" end="zoomplus.mouseout"/>
                        </use>
                        <path d="M-4,0h8M0,-4v8" fill="none" stroke="white" stroke-width="1.5" pointer-events="none"/>
                </g>
                <g id="zoomMin">
                        <use xlink:href="#rim" fill="#404040">
                                <set attributeName="fill" to="#808080" begin="zoomminus.mouseover" end="zoomminus.mouseout"/>
                        </use>
                        <path d="M-4,0h8" fill="none" stroke="white" stroke-width="1.5" pointer-events="none"/>
                </g>
                <g id="dirArrow">
                        <path fill="none" stroke="white" stroke-width="1.5" d="M0,-3.0v7 M-2.5,-0.5L0,-3.0L2.5,-0.5"/>
                </g>
               <g id="resetDef">
                       <use xlink:href="#rim2" fill="#404040">
                               <set attributeName="fill" to="#808080" begin="reset.mouseover" end="reset.mouseout"/>
                       </use>
               </g>
        </defs>

<script type="text/javascript">
var viewWidth = 1662;
var viewHeight = 447;
var sectionId = 'dynsection-1';
</script>
<script xlink:href="svgpan.js"/>
<svg id="graph" class="graph">
<g id="viewport">
<title>MoFEM::FieldEntity</title>
<polygon fill="white" stroke="transparent" points="-4,4 -4,-442.5 1658,-442.5 1658,4 -4,4"/>
<!-- Node1 -->
<g id="node1" class="node">
<title>Node1</title>
<g id="a_node1"><a xlink:title="Struct keeps handle to entity in the field.">
<polygon fill="#bfbfbf" stroke="black" points="1544,-161 1544,-180 1654,-180 1654,-161 1544,-161"/>
<text text-anchor="middle" x="1599" y="-168" font-family="Helvetica,sans-Serif" font-size="10.00">MoFEM::FieldEntity</text>
</a>
</g>
</g>
<!-- Node2 -->
<g id="node2" class="node">
<title>Node2</title>
<g id="a_node2"><a xlink:href="structMoFEM_1_1interface__Field.html" target="_top" xlink:title=" ">
<polygon fill="white" stroke="black" points="1238.5,-316.5 1238.5,-346.5 1369.5,-346.5 1369.5,-316.5 1238.5,-316.5"/>
<text text-anchor="start" x="1246.5" y="-334.5" font-family="Helvetica,sans-Serif" font-size="10.00">MoFEM::interface_Field</text>
<text text-anchor="middle" x="1304" y="-323.5" font-family="Helvetica,sans-Serif" font-size="10.00">&lt; Field, RefEntity &gt;</text>
</a>
</g>
</g>
<!-- Node2&#45;&gt;Node1 -->
<g id="edge1" class="edge">
<title>Node2&#45;&gt;Node1</title>
<path fill="none" stroke="midnightblue" d="M1380.11,-334.9C1425.93,-333.4 1483.64,-324.78 1526,-295.5 1568.03,-266.45 1588.79,-204.32 1595.5,-180.28"/>
<polygon fill="midnightblue" stroke="midnightblue" points="1379.85,-331.4 1369.93,-335.12 1380.01,-338.4 1379.85,-331.4"/>
</g>
<!-- Node3 -->
<g id="node3" class="node">
<title>Node3</title>
<g id="a_node3"><a xlink:href="structMoFEM_1_1interface__FieldImpl.html" target="_top" xlink:title=" ">
<polygon fill="white" stroke="black" points="920,-365.5 920,-395.5 1072,-395.5 1072,-365.5 920,-365.5"/>
<text text-anchor="start" x="928" y="-383.5" font-family="Helvetica,sans-Serif" font-size="10.00">MoFEM::interface_FieldImpl</text>
<text text-anchor="middle" x="996" y="-372.5" font-family="Helvetica,sans-Serif" font-size="10.00">&lt; Field, RefEntity &gt;</text>
</a>
</g>
</g>
<!-- Node3&#45;&gt;Node2 -->
<g id="edge2" class="edge">
<title>Node3&#45;&gt;Node2</title>
<path fill="none" stroke="midnightblue" d="M1082.29,-366.84C1131.73,-358.93 1192.98,-349.12 1238.41,-341.84"/>
<polygon fill="midnightblue" stroke="midnightblue" points="1081.57,-363.41 1072.25,-368.45 1082.68,-370.33 1081.57,-363.41"/>
</g>
<!-- Node4 -->
<g id="node4" class="node">
<title>Node4</title>
<g id="a_node4"><a xlink:href="structMoFEM_1_1interface__RefEntity.html" target="_top" xlink:title=" ">
<polygon fill="white" stroke="black" points="443,-386.5 443,-416.5 595,-416.5 595,-386.5 443,-386.5"/>
<text text-anchor="start" x="451" y="-404.5" font-family="Helvetica,sans-Serif" font-size="10.00">MoFEM::interface_RefEntity</text>
<text text-anchor="middle" x="519" y="-393.5" font-family="Helvetica,sans-Serif" font-size="10.00">&lt; RefEntity &gt;</text>
</a>
</g>
</g>
<!-- Node4&#45;&gt;Node3 -->
<g id="edge3" class="edge">
<title>Node4&#45;&gt;Node3</title>
<path fill="none" stroke="midnightblue" d="M605.23,-398.77C682.66,-396.14 800.03,-391.79 902,-386.5 907.82,-386.2 913.84,-385.86 919.89,-385.51"/>
<polygon fill="midnightblue" stroke="midnightblue" points="604.92,-395.28 595.05,-399.11 605.16,-402.27 604.92,-395.28"/>
</g>
<!-- Node5 -->
<g id="node5" class="node">
<title>Node5</title>
<g id="a_node5"><a xlink:href="classboost_1_1shared__ptr_3_01RefEntity_01_4.html" target="_top" xlink:title=" ">
<polygon fill="white" stroke="black" points="177.5,-419 177.5,-438 313.5,-438 313.5,-419 177.5,-419"/>
<text text-anchor="middle" x="245.5" y="-426" font-family="Helvetica,sans-Serif" font-size="10.00">shared_ptr&lt; RefEntity &gt;</text>
</a>
</g>
</g>
<!-- Node5&#45;&gt;Node4 -->
<g id="edge4" class="edge">
<title>Node5&#45;&gt;Node4</title>
<path fill="none" stroke="#9a32cd" stroke-dasharray="5,2" d="M323.91,-420.8C361.14,-417.1 405.6,-412.68 442.57,-409"/>
<polygon fill="#9a32cd" stroke="#9a32cd" points="323.22,-417.35 313.61,-421.83 323.91,-424.32 323.22,-417.35"/>
<text text-anchor="middle" x="389.5" y="-419.5" font-family="Helvetica,sans-Serif" font-size="10.00"> sPtr</text>
</g>
<!-- Node6 -->
<g id="node6" class="node">
<title>Node6</title>
<g id="a_node6"><a xlink:href="structMoFEM_1_1interface__RefEntity.html" target="_top" xlink:title="interface to RefEntity">
<polygon fill="white" stroke="black" points="155,-368 155,-387 336,-387 336,-368 155,-368"/>
<text text-anchor="middle" x="245.5" y="-375" font-family="Helvetica,sans-Serif" font-size="10.00">MoFEM::interface_RefEntity&lt; T &gt;</text>
</a>
</g>
</g>
<!-- Node6&#45;&gt;Node4 -->
<g id="edge5" class="edge">
<title>Node6&#45;&gt;Node4</title>
<path fill="none" stroke="orange" stroke-dasharray="5,2" d="M346.41,-386.33C378.34,-389.15 413.11,-392.23 442.96,-394.87"/>
<polygon fill="orange" stroke="orange" points="346.42,-382.82 336.15,-385.43 345.8,-389.79 346.42,-382.82"/>
<text text-anchor="middle" x="389.5" y="-395.5" font-family="Helvetica,sans-Serif" font-size="10.00"> &lt; RefEntity &gt;</text>
</g>
<!-- Node9 -->
<g id="node9" class="node">
<title>Node9</title>
<g id="a_node9"><a xlink:href="structMoFEM_1_1interface__RefEntity.html" target="_top" xlink:title=" ">
<polygon fill="white" stroke="black" points="443,-337.5 443,-367.5 595,-367.5 595,-337.5 443,-337.5"/>
<text text-anchor="start" x="451" y="-355.5" font-family="Helvetica,sans-Serif" font-size="10.00">MoFEM::interface_RefEntity</text>
<text text-anchor="middle" x="519" y="-344.5" font-family="Helvetica,sans-Serif" font-size="10.00">&lt; REFENT &gt;</text>
</a>
</g>
</g>
<!-- Node6&#45;&gt;Node9 -->
<g id="edge10" class="edge">
<title>Node6&#45;&gt;Node9</title>
<path fill="none" stroke="orange" stroke-dasharray="5,2" d="M346.41,-368.3C378.34,-365.36 413.11,-362.16 442.96,-359.41"/>
<polygon fill="orange" stroke="orange" points="345.79,-364.84 336.15,-369.24 346.43,-371.81 345.79,-364.84"/>
<text text-anchor="middle" x="389.5" y="-369.5" font-family="Helvetica,sans-Serif" font-size="10.00"> &lt; REFENT &gt;</text>
</g>
<!-- Node7 -->
<g id="node7" class="node">
<title>Node7</title>
<g id="a_node7"><a xlink:title=" ">
<polygon fill="white" stroke="#bfbfbf" points="0,-368 0,-387 97,-387 97,-368 0,-368"/>
<text text-anchor="middle" x="48.5" y="-375" font-family="Helvetica,sans-Serif" font-size="10.00">shared_ptr&lt; T &gt;</text>
</a>
</g>
</g>
<!-- Node7&#45;&gt;Node6 -->
<g id="edge6" class="edge">
<title>Node7&#45;&gt;Node6</title>
<path fill="none" stroke="#9a32cd" stroke-dasharray="5,2" d="M107.25,-377.5C122.14,-377.5 138.53,-377.5 154.63,-377.5"/>
<polygon fill="#9a32cd" stroke="#9a32cd" points="107.2,-374 97.2,-377.5 107.2,-381 107.2,-374"/>
<text text-anchor="middle" x="126" y="-380.5" font-family="Helvetica,sans-Serif" font-size="10.00"> sPtr</text>
</g>
<!-- Node8 -->
<g id="node8" class="node">
<title>Node8</title>
<g id="a_node8"><a xlink:href="structMoFEM_1_1interface__FieldImpl.html" target="_top" xlink:title="Pointer interface for MoFEM::Field.">
<polygon fill="white" stroke="black" points="632,-340.5 632,-370.5 784,-370.5 784,-340.5 632,-340.5"/>
<text text-anchor="start" x="640" y="-358.5" font-family="Helvetica,sans-Serif" font-size="10.00">MoFEM::interface_FieldImpl</text>
<text text-anchor="middle" x="708" y="-347.5" font-family="Helvetica,sans-Serif" font-size="10.00">&lt; FIELD, REFENT &gt;</text>
</a>
</g>
</g>
<!-- Node8&#45;&gt;Node3 -->
<g id="edge7" class="edge">
<title>Node8&#45;&gt;Node3</title>
<path fill="none" stroke="orange" stroke-dasharray="5,2" d="M794.13,-362.94C834.07,-366.43 881.26,-370.56 919.86,-373.93"/>
<polygon fill="orange" stroke="orange" points="794.41,-359.45 784.14,-362.07 793.8,-366.43 794.41,-359.45"/>
<text text-anchor="middle" x="852" y="-374.5" font-family="Helvetica,sans-Serif" font-size="10.00"> &lt; Field, RefEntity &gt;</text>
</g>
<!-- Node12 -->
<g id="node12" class="node">
<title>Node12</title>
<g id="a_node12"><a xlink:href="structMoFEM_1_1interface__Field.html" target="_top" xlink:title=" ">
<polygon fill="white" stroke="black" points="930.5,-316.5 930.5,-346.5 1061.5,-346.5 1061.5,-316.5 930.5,-316.5"/>
<text text-anchor="start" x="938.5" y="-334.5" font-family="Helvetica,sans-Serif" font-size="10.00">MoFEM::interface_Field</text>
<text text-anchor="middle" x="996" y="-323.5" font-family="Helvetica,sans-Serif" font-size="10.00">&lt; FIELD, REFENT &gt;</text>
</a>
</g>
</g>
<!-- Node8&#45;&gt;Node12 -->
<g id="edge13" class="edge">
<title>Node8&#45;&gt;Node12</title>
<path fill="none" stroke="midnightblue" d="M794.15,-348.35C837.69,-344.7 889.82,-340.33 930.07,-336.95"/>
<polygon fill="midnightblue" stroke="midnightblue" points="793.82,-344.87 784.14,-349.19 794.4,-351.85 793.82,-344.87"/>
</g>
<!-- Node9&#45;&gt;Node8 -->
<g id="edge8" class="edge">
<title>Node9&#45;&gt;Node8</title>
<path fill="none" stroke="midnightblue" d="M605.52,-353.87C614.33,-354.01 623.22,-354.16 631.9,-354.3"/>
<polygon fill="midnightblue" stroke="midnightblue" points="605.31,-350.37 595.25,-353.71 605.19,-357.37 605.31,-350.37"/>
</g>
<!-- Node10 -->
<g id="node10" class="node">
<title>Node10</title>
<g id="a_node10"><a xlink:href="classboost_1_1shared__ptr_3_01REFENT_01_4.html" target="_top" xlink:title=" ">
<polygon fill="white" stroke="black" points="181,-317 181,-336 310,-336 310,-317 181,-317"/>
<text text-anchor="middle" x="245.5" y="-324" font-family="Helvetica,sans-Serif" font-size="10.00">shared_ptr&lt; REFENT &gt;</text>
</a>
</g>
</g>
<!-- Node10&#45;&gt;Node9 -->
<g id="edge9" class="edge">
<title>Node10&#45;&gt;Node9</title>
<path fill="none" stroke="#9a32cd" stroke-dasharray="5,2" d="M320.13,-333.55C358.15,-337.19 404.44,-341.63 442.69,-345.29"/>
<polygon fill="#9a32cd" stroke="#9a32cd" points="320.44,-330.07 310.15,-332.6 319.78,-337.03 320.44,-330.07"/>
<text text-anchor="middle" x="389.5" y="-345.5" font-family="Helvetica,sans-Serif" font-size="10.00"> sPtr</text>
</g>
<!-- Node11 -->
<g id="node11" class="node">
<title>Node11</title>
<g id="a_node11"><a xlink:href="classboost_1_1shared__ptr_3_01Field_01_4.html" target="_top" xlink:title=" ">
<polygon fill="white" stroke="black" points="939,-278 939,-297 1053,-297 1053,-278 939,-278"/>
<text text-anchor="middle" x="996" y="-285" font-family="Helvetica,sans-Serif" font-size="10.00">shared_ptr&lt; Field &gt;</text>
</a>
</g>
</g>
<!-- Node11&#45;&gt;Node2 -->
<g id="edge11" class="edge">
<title>Node11&#45;&gt;Node2</title>
<path fill="none" stroke="#9a32cd" stroke-dasharray="5,2" d="M1063.23,-297.02C1115.16,-304.49 1187.01,-314.82 1238.49,-322.22"/>
<polygon fill="#9a32cd" stroke="#9a32cd" points="1063.52,-293.53 1053.13,-295.57 1062.53,-300.46 1063.52,-293.53"/>
<text text-anchor="middle" x="1140" y="-317.5" font-family="Helvetica,sans-Serif" font-size="10.00"> sFieldPtr</text>
</g>
<!-- Node12&#45;&gt;Node2 -->
<g id="edge12" class="edge">
<title>Node12&#45;&gt;Node2</title>
<path fill="none" stroke="orange" stroke-dasharray="5,2" d="M1071.82,-331.5C1122.8,-331.5 1189.62,-331.5 1238.3,-331.5"/>
<polygon fill="orange" stroke="orange" points="1071.52,-328 1061.52,-331.5 1071.52,-335 1071.52,-328"/>
<text text-anchor="middle" x="1140" y="-334.5" font-family="Helvetica,sans-Serif" font-size="10.00"> &lt; Field, RefEntity &gt;</text>
</g>
<!-- Node13 -->
<g id="node13" class="node">
<title>Node13</title>
<g id="a_node13"><a xlink:title=" ">
<polygon fill="white" stroke="#bfbfbf" points="648.5,-302 648.5,-321 767.5,-321 767.5,-302 648.5,-302"/>
<text text-anchor="middle" x="708" y="-309" font-family="Helvetica,sans-Serif" font-size="10.00">shared_ptr&lt; FIELD &gt;</text>
</a>
</g>
</g>
<!-- Node13&#45;&gt;Node12 -->
<g id="edge14" class="edge">
<title>Node13&#45;&gt;Node12</title>
<path fill="none" stroke="#9a32cd" stroke-dasharray="5,2" d="M778,-309.2C814.88,-308.73 861.01,-309.36 902,-313.5 911.24,-314.43 920.94,-315.83 930.43,-317.45"/>
<polygon fill="#9a32cd" stroke="#9a32cd" points="777.8,-305.7 767.85,-309.36 777.91,-312.7 777.8,-305.7"/>
<text text-anchor="middle" x="852" y="-316.5" font-family="Helvetica,sans-Serif" font-size="10.00"> sFieldPtr</text>
</g>
<!-- Node14 -->
<g id="node14" class="node">
<title>Node14</title>
<g id="a_node14"><a xlink:title=" ">
<polygon fill="white" stroke="#bfbfbf" points="1273,-278 1273,-297 1335,-297 1335,-278 1273,-278"/>
<text text-anchor="middle" x="1304" y="-285" font-family="Helvetica,sans-Serif" font-size="10.00">uint128_t</text>
</a>
</g>
</g>
<!-- Node14&#45;&gt;Node1 -->
<g id="edge15" class="edge">
<title>Node14&#45;&gt;Node1</title>
<path fill="none" stroke="#9a32cd" stroke-dasharray="5,2" d="M1345.48,-287.96C1391.83,-286.83 1468.75,-279.78 1526,-248.5 1556.73,-231.71 1581.5,-196.88 1592.24,-180.03"/>
<polygon fill="#9a32cd" stroke="#9a32cd" points="1345.17,-284.46 1335.23,-288.12 1345.28,-291.46 1345.17,-284.46"/>
<text text-anchor="middle" x="1472" y="-283.5" font-family="Helvetica,sans-Serif" font-size="10.00"> localUId</text>
</g>
<!-- Node15 -->
<g id="node15" class="node">
<title>Node15</title>
<g id="a_node15"><a xlink:title=" ">
<polygon fill="white" stroke="#bfbfbf" points="1217.5,-228.5 1217.5,-258.5 1390.5,-258.5 1390.5,-228.5 1217.5,-228.5"/>
<text text-anchor="start" x="1225.5" y="-246.5" font-family="Helvetica,sans-Serif" font-size="10.00">weak_ptr&lt; MoFEM::EntityCache</text>
<text text-anchor="middle" x="1304" y="-235.5" font-family="Helvetica,sans-Serif" font-size="10.00">Dofs &gt;</text>
</a>
</g>
</g>
<!-- Node15&#45;&gt;Node1 -->
<g id="edge16" class="edge">
<title>Node15&#45;&gt;Node1</title>
<path fill="none" stroke="#9a32cd" stroke-dasharray="5,2" d="M1400.81,-236.76C1440.34,-232.05 1486.13,-224.05 1526,-210.5 1547.66,-203.14 1570.37,-189.35 1584.36,-180.05"/>
<polygon fill="#9a32cd" stroke="#9a32cd" points="1400.18,-233.31 1390.64,-237.91 1400.97,-240.26 1400.18,-233.31"/>
<text text-anchor="middle" x="1472" y="-236.5" font-family="Helvetica,sans-Serif" font-size="10.00"> entityCacheDataDofs</text>
</g>
<!-- Node16 -->
<g id="node16" class="node">
<title>Node16</title>
<g id="a_node16"><a xlink:title=" ">
<polygon fill="white" stroke="#bfbfbf" points="1217.5,-179.5 1217.5,-209.5 1390.5,-209.5 1390.5,-179.5 1217.5,-179.5"/>
<text text-anchor="start" x="1225.5" y="-197.5" font-family="Helvetica,sans-Serif" font-size="10.00">weak_ptr&lt; MoFEM::EntityCache</text>
<text text-anchor="middle" x="1304" y="-186.5" font-family="Helvetica,sans-Serif" font-size="10.00">NumeredDofs &gt;</text>
</a>
</g>
</g>
<!-- Node16&#45;&gt;Node1 -->
<g id="edge17" class="edge">
<title>Node16&#45;&gt;Node1</title>
<path fill="none" stroke="#9a32cd" stroke-dasharray="5,2" d="M1400.79,-186.74C1439.65,-183.58 1484.97,-179.88 1526,-176.5 1531.75,-176.03 1537.76,-175.53 1543.75,-175.03"/>
<polygon fill="#9a32cd" stroke="#9a32cd" points="1400.22,-183.27 1390.54,-187.57 1400.79,-190.25 1400.22,-183.27"/>
<text text-anchor="middle" x="1472" y="-198.5" font-family="Helvetica,sans-Serif" font-size="10.00"> entityCacheRowDofs</text>
<text text-anchor="middle" x="1472" y="-187.5" font-family="Helvetica,sans-Serif" font-size="10.00">entityCacheColDofs</text>
</g>
<!-- Node17 -->
<g id="node17" class="node">
<title>Node17</title>
<g id="a_node17"><a xlink:title=" ">
<polygon fill="white" stroke="#bfbfbf" points="1289.5,-137 1289.5,-156 1318.5,-156 1318.5,-137 1289.5,-137"/>
<text text-anchor="middle" x="1304" y="-144" font-family="Helvetica,sans-Serif" font-size="10.00">int</text>
</a>
</g>
</g>
<!-- Node17&#45;&gt;Node1 -->
<g id="edge18" class="edge">
<title>Node17&#45;&gt;Node1</title>
<path fill="none" stroke="#9a32cd" stroke-dasharray="5,2" d="M1328.68,-142.17C1369.46,-135.51 1455.4,-124.95 1526,-139.5 1545.86,-143.59 1566.99,-153.42 1581.19,-160.93"/>
<polygon fill="#9a32cd" stroke="#9a32cd" points="1327.91,-138.75 1318.64,-143.89 1329.09,-145.65 1327.91,-138.75"/>
<text text-anchor="middle" x="1472" y="-164.5" font-family="Helvetica,sans-Serif" font-size="10.00"> ent_shift</text>
<text text-anchor="middle" x="1472" y="-153.5" font-family="Helvetica,sans-Serif" font-size="10.00">dof_shift</text>
<text text-anchor="middle" x="1472" y="-142.5" font-family="Helvetica,sans-Serif" font-size="10.00">proc_shift</text>
</g>
<!-- Node18 -->
<g id="node18" class="node">
<title>Node18</title>
<g id="a_node18"><a xlink:title=" ">
<polygon fill="white" stroke="#bfbfbf" points="1208,-99 1208,-118 1400,-118 1400,-99 1208,-99"/>
<text text-anchor="middle" x="1304" y="-106" font-family="Helvetica,sans-Serif" font-size="10.00">weak_ptr&lt; MoFEM::EntityStorage &gt;</text>
</a>
</g>
</g>
<!-- Node18&#45;&gt;Node1 -->
<g id="edge19" class="edge">
<title>Node18&#45;&gt;Node1</title>
<path fill="none" stroke="#9a32cd" stroke-dasharray="5,2" d="M1410.5,-99.53C1447.9,-99.66 1489.69,-103.66 1526,-116.5 1551.93,-125.67 1576.24,-147.75 1588.9,-160.66"/>
<polygon fill="#9a32cd" stroke="#9a32cd" points="1410.05,-96.04 1400.08,-99.6 1410.1,-103.04 1410.05,-96.04"/>
<text text-anchor="middle" x="1472" y="-119.5" font-family="Helvetica,sans-Serif" font-size="10.00"> weakStoragePtr</text>
</g>
<!-- Node19 -->
<g id="node19" class="node">
<title>Node19</title>
<g id="a_node19"><a xlink:title=" ">
<polygon fill="white" stroke="#bfbfbf" points="1213.5,-49.5 1213.5,-79.5 1394.5,-79.5 1394.5,-49.5 1213.5,-49.5"/>
<text text-anchor="start" x="1221.5" y="-67.5" font-family="Helvetica,sans-Serif" font-size="10.00">shared_ptr&lt; const Approximation</text>
<text text-anchor="middle" x="1304" y="-56.5" font-family="Helvetica,sans-Serif" font-size="10.00">Order &gt;</text>
</a>
</g>
</g>
<!-- Node19&#45;&gt;Node1 -->
<g id="edge20" class="edge">
<title>Node19&#45;&gt;Node1</title>
<path fill="none" stroke="#9a32cd" stroke-dasharray="5,2" d="M1404.89,-57.51C1444.54,-58.71 1489.34,-65.32 1526,-84.5 1559.47,-102.01 1583.56,-142.37 1593.27,-160.89"/>
<polygon fill="#9a32cd" stroke="#9a32cd" points="1404.72,-54 1394.66,-57.31 1404.59,-61 1404.72,-54"/>
<text text-anchor="middle" x="1472" y="-87.5" font-family="Helvetica,sans-Serif" font-size="10.00"> tagMaxOrderPtr</text>
</g>
<!-- Node20 -->
<g id="node20" class="node">
<title>Node20</title>
<g id="a_node20"><a xlink:title=" ">
<polygon fill="white" stroke="#bfbfbf" points="1247.5,-0.5 1247.5,-30.5 1360.5,-30.5 1360.5,-0.5 1247.5,-0.5"/>
<text text-anchor="start" x="1255.5" y="-18.5" font-family="Helvetica,sans-Serif" font-size="10.00">shared_ptr&lt; double</text>
<text text-anchor="middle" x="1304" y="-7.5" font-family="Helvetica,sans-Serif" font-size="10.00"> *const &gt;</text>
</a>
</g>
</g>
<!-- Node20&#45;&gt;Node1 -->
<g id="edge21" class="edge">
<title>Node20&#45;&gt;Node1</title>
<path fill="none" stroke="#9a32cd" stroke-dasharray="5,2" d="M1370.7,-8.61C1417.73,-7.02 1480.52,-12.05 1526,-42.5 1569.43,-71.58 1589.47,-136.17 1595.74,-160.75"/>
<polygon fill="#9a32cd" stroke="#9a32cd" points="1370.45,-5.12 1360.61,-9.06 1370.76,-12.11 1370.45,-5.12"/>
<text text-anchor="middle" x="1472" y="-45.5" font-family="Helvetica,sans-Serif" font-size="10.00"> fieldDataAdaptorPtr</text>
</g>
</g>
</svg>
        <g id="navigator" transform="translate(0 0)" fill="#404254">
                <rect fill="#f2f5e9" fill-opacity="0.5" stroke="#606060" stroke-width=".5" x="0" y="0" width="60" height="60"/>
                <use id="zoomplus" xlink:href="#zoomPlus" x="17" y="9" onmousedown="handleZoom(evt,'in')"/>
                <use id="zoomminus" xlink:href="#zoomMin" x="42" y="9" onmousedown="handleZoom(evt,'out')"/>
                <use id="reset" xlink:href="#resetDef" x="30" y="36" onmousedown="handleReset()"/>
                <g id="arrowUp" xlink:href="#dirArrow" transform="translate(30 24)" onmousedown="handlePan(0,-1)">
                  <use xlink:href="#rim" fill="#404040">
                        <set attributeName="fill" to="#808080" begin="arrowUp.mouseover" end="arrowUp.mouseout"/>
                  </use>
                  <path fill="none" stroke="white" stroke-width="1.5" d="M0,-3.0v7 M-2.5,-0.5L0,-3.0L2.5,-0.5"/>
                </g>
                <g id="arrowRight" xlink:href="#dirArrow" transform="rotate(90) translate(36 -43)" onmousedown="handlePan(1,0)">
                  <use xlink:href="#rim" fill="#404040">
                        <set attributeName="fill" to="#808080" begin="arrowRight.mouseover" end="arrowRight.mouseout"/>
                  </use>
                  <path fill="none" stroke="white" stroke-width="1.5" d="M0,-3.0v7 M-2.5,-0.5L0,-3.0L2.5,-0.5"/>
                </g>
                <g id="arrowDown" xlink:href="#dirArrow" transform="rotate(180) translate(-30 -48)" onmousedown="handlePan(0,1)">
                  <use xlink:href="#rim" fill="#404040">
                        <set attributeName="fill" to="#808080" begin="arrowDown.mouseover" end="arrowDown.mouseout"/>
                  </use>
                  <path fill="none" stroke="white" stroke-width="1.5" d="M0,-3.0v7 M-2.5,-0.5L0,-3.0L2.5,-0.5"/>
                </g>
                <g id="arrowLeft" xlink:href="#dirArrow" transform="rotate(270) translate(-36 17)" onmousedown="handlePan(-1,0)">
                  <use xlink:href="#rim" fill="#404040">
                        <set attributeName="fill" to="#808080" begin="arrowLeft.mouseover" end="arrowLeft.mouseout"/>
                  </use>
                  <path fill="none" stroke="white" stroke-width="1.5" d="M0,-3.0v7 M-2.5,-0.5L0,-3.0L2.5,-0.5"/>
                </g>
        </g>
        <svg viewBox="0 0 15 15" width="100%" height="30px" preserveAspectRatio="xMaxYMin meet">
         <g id="arrow_out" transform="scale(0.3 0.3)">
          <a xlink:href="structMoFEM_1_1FieldEntity__coll__graph_org.svg" target="_base">
           <rect id="button" ry="5" rx="5" y="6" x="6" height="38" width="38"
                fill="#f2f5e9" fill-opacity="0.5" stroke="#606060" stroke-width="1.0"/>
           <path id="arrow"
             d="M 11.500037,31.436501 C 11.940474,20.09759 22.043105,11.32322 32.158766,21.979434 L 37.068811,17.246167 C 37.068811,17.246167 37.088388,32 37.088388,32 L 22.160133,31.978069 C 22.160133,31.978069 26.997745,27.140456 26.997745,27.140456 C 18.528582,18.264221 13.291696,25.230495 11.500037,31.436501 z"
             style="fill:#404040;"/>
          </a>
         </g>
        </svg>
</svg>
