<?xml version="1.0" encoding="UTF-8" standalone="no"?>
<!DOCTYPE svg PUBLIC "-//W3C//DTD SVG 1.1//EN"
 "http://www.w3.org/Graphics/SVG/1.1/DTD/svg11.dtd">
<!-- Generated by graphviz version 2.43.0 (0)
 -->
<!-- Title: FieldApproximationH1::OpApproxFace&lt; FUNEVAL &gt; Pages: 1 -->
<svg width="636pt" height="117pt"
 viewBox="0.00 0.00 636.00 117.00" xmlns="http://www.w3.org/2000/svg" xmlns:xlink="http://www.w3.org/1999/xlink">
<g id="graph0" class="graph" transform="scale(1 1) rotate(0) translate(4 113)">
<title>FieldApproximationH1::OpApproxFace&lt; FUNEVAL &gt;</title>
<polygon fill="white" stroke="transparent" points="-4,4 -4,-113 632,-113 632,4 -4,4"/>
<!-- Node1 -->
<g id="node1" class="node">
<title>Node1</title>
<g id="a_node1"><a xlink:title="Gauss point operators to calculate matrices and vectors.">
<polygon fill="#bfbfbf" stroke="black" points="232.5,-0.5 232.5,-30.5 392.5,-30.5 392.5,-0.5 232.5,-0.5"/>
<text text-anchor="start" x="240.5" y="-18.5" font-family="Helvetica,sans-Serif" font-size="10.00">FieldApproximationH1</text>
<text text-anchor="middle" x="312.5" y="-7.5" font-family="Helvetica,sans-Serif" font-size="10.00">::OpApproxFace&lt; FUNEVAL &gt;</text>
</a>
</g>
</g>
<!-- Node2 -->
<g id="node2" class="node">
<title>Node2</title>
<g id="a_node2"><a xlink:title=" ">
<polygon fill="white" stroke="#bfbfbf" points="0,-89.5 0,-108.5 105,-108.5 105,-89.5 0,-89.5"/>
<text text-anchor="middle" x="52.5" y="-96.5" font-family="Helvetica,sans-Serif" font-size="10.00">UserDataOperator</text>
</a>
</g>
</g>
<!-- Node2&#45;&gt;Node1 -->
<g id="edge1" class="edge">
<title>Node2&#45;&gt;Node1</title>
<path fill="none" stroke="midnightblue" d="M89.25,-86.44C120.86,-76.5 167.68,-61.79 208.5,-49 227.82,-42.95 249.15,-36.28 267.45,-30.56"/>
<polygon fill="midnightblue" stroke="midnightblue" points="88.04,-83.15 79.55,-89.49 90.14,-89.83 88.04,-83.15"/>
</g>
<!-- Node3 -->
<g id="node3" class="node">
<title>Node3</title>
<g id="a_node3"><a xlink:title=" ">
<polygon fill="white" stroke="#bfbfbf" points="123.5,-89.5 123.5,-108.5 221.5,-108.5 221.5,-89.5 123.5,-89.5"/>
<text text-anchor="middle" x="172.5" y="-96.5" font-family="Helvetica,sans-Serif" font-size="10.00">vector&lt; Vec &gt; &amp;</text>
</a>
</g>
</g>
<!-- Node3&#45;&gt;Node1 -->
<g id="edge2" class="edge">
<title>Node3&#45;&gt;Node1</title>
<path fill="none" stroke="#9a32cd" stroke-dasharray="5,2" d="M193.13,-83.6C207.97,-73.47 228.62,-59.84 247.5,-49 258.77,-42.53 271.49,-36 282.68,-30.52"/>
<polygon fill="#9a32cd" stroke="#9a32cd" points="190.95,-80.85 184.7,-89.4 194.92,-86.62 190.95,-80.85"/>
<text text-anchor="middle" x="261" y="-57.5" font-family="Helvetica,sans-Serif" font-size="10.00"> vecF</text>
</g>
<!-- Node4 -->
<g id="node4" class="node">
<title>Node4</title>
<g id="a_node4"><a xlink:title=" ">
<polygon fill="white" stroke="#bfbfbf" points="240,-89.5 240,-108.5 323,-108.5 323,-89.5 240,-89.5"/>
<text text-anchor="middle" x="281.5" y="-96.5" font-family="Helvetica,sans-Serif" font-size="10.00">MatrixDouble</text>
</a>
</g>
</g>
<!-- Node4&#45;&gt;Node1 -->
<g id="edge3" class="edge">
<title>Node4&#45;&gt;Node1</title>
<path fill="none" stroke="#9a32cd" stroke-dasharray="5,2" d="M278.81,-79.09C278.23,-69.72 278.7,-58.43 282.5,-49 285.25,-42.16 290.16,-35.88 295.22,-30.7"/>
<polygon fill="#9a32cd" stroke="#9a32cd" points="275.36,-79.73 279.88,-89.31 282.32,-79 275.36,-79.73"/>
<text text-anchor="middle" x="302.5" y="-63" font-family="Helvetica,sans-Serif" font-size="10.00"> NN</text>
<text text-anchor="middle" x="302.5" y="-52" font-family="Helvetica,sans-Serif" font-size="10.00">transNN</text>
</g>
<!-- Node5 -->
<g id="node5" class="node">
<title>Node5</title>
<g id="a_node5"><a xlink:title=" ">
<polygon fill="white" stroke="#bfbfbf" points="341.5,-89.5 341.5,-108.5 413.5,-108.5 413.5,-89.5 341.5,-89.5"/>
<text text-anchor="middle" x="377.5" y="-96.5" font-family="Helvetica,sans-Serif" font-size="10.00">FUNEVAL &amp;</text>
</a>
</g>
</g>
<!-- Node5&#45;&gt;Node1 -->
<g id="edge4" class="edge">
<title>Node5&#45;&gt;Node1</title>
<path fill="none" stroke="#9a32cd" stroke-dasharray="5,2" d="M357.54,-82.89C353.32,-79.24 349.07,-75.18 345.5,-71 334.86,-58.56 325.5,-42.28 319.49,-30.77"/>
<polygon fill="#9a32cd" stroke="#9a32cd" points="355.46,-85.72 365.42,-89.33 359.89,-80.3 355.46,-85.72"/>
<text text-anchor="middle" x="390.5" y="-57.5" font-family="Helvetica,sans-Serif" font-size="10.00"> functionEvaluator</text>
</g>
<!-- Node6 -->
<g id="node6" class="node">
<title>Node6</title>
<g id="a_node6"><a xlink:title=" ">
<polygon fill="white" stroke="#bfbfbf" points="440,-89.5 440,-108.5 475,-108.5 475,-89.5 440,-89.5"/>
<text text-anchor="middle" x="457.5" y="-96.5" font-family="Helvetica,sans-Serif" font-size="10.00">Mat</text>
</a>
</g>
</g>
<!-- Node6&#45;&gt;Node1 -->
<g id="edge5" class="edge">
<title>Node6&#45;&gt;Node1</title>
<path fill="none" stroke="#9a32cd" stroke-dasharray="5,2" d="M453.41,-79.57C450.2,-69.19 444.68,-56.79 435.5,-49 423.29,-38.64 408.13,-31.54 392.67,-26.69"/>
<polygon fill="#9a32cd" stroke="#9a32cd" points="450.06,-80.58 455.98,-89.37 456.83,-78.81 450.06,-80.58"/>
<text text-anchor="middle" x="454.5" y="-57.5" font-family="Helvetica,sans-Serif" font-size="10.00"> A</text>
</g>
<!-- Node7 -->
<g id="node7" class="node">
<title>Node7</title>
<g id="a_node7"><a xlink:title=" ">
<polygon fill="white" stroke="#bfbfbf" points="493,-89.5 493,-108.5 628,-108.5 628,-89.5 493,-89.5"/>
<text text-anchor="middle" x="560.5" y="-96.5" font-family="Helvetica,sans-Serif" font-size="10.00">vector&lt; VectorDouble &gt;</text>
</a>
</g>
</g>
<!-- Node7&#45;&gt;Node1 -->
<g id="edge6" class="edge">
<title>Node7&#45;&gt;Node1</title>
<path fill="none" stroke="#9a32cd" stroke-dasharray="5,2" d="M537.33,-84.16C518.13,-73.23 489.83,-58.31 463.5,-49 441,-41.04 415.89,-34.69 392.71,-29.79"/>
<polygon fill="#9a32cd" stroke="#9a32cd" points="535.82,-87.33 546.23,-89.32 539.33,-81.28 535.82,-87.33"/>
<text text-anchor="middle" x="519" y="-57.5" font-family="Helvetica,sans-Serif" font-size="10.00"> Nf</text>
</g>
</g>
</svg>
