<?xml version="1.0" encoding="UTF-8" standalone="no"?>
<!DOCTYPE svg PUBLIC "-//W3C//DTD SVG 1.1//EN"
 "http://www.w3.org/Graphics/SVG/1.1/DTD/svg11.dtd">
<!-- Generated by graphviz version 2.43.0 (0)
 -->
<!-- Title: MoFEM::MPCsType Pages: 1 -->
<svg width="165pt" height="151pt"
 viewBox="0.00 0.00 165.00 151.00" xmlns="http://www.w3.org/2000/svg" xmlns:xlink="http://www.w3.org/1999/xlink">
<g id="graph0" class="graph" transform="scale(1 1) rotate(0) translate(4 147)">
<title>MoFEM::MPCsType</title>
<polygon fill="white" stroke="transparent" points="-4,4 -4,-147 161,-147 161,4 -4,4"/>
<!-- Node1 -->
<g id="node1" class="node">
<title>Node1</title>
<g id="a_node1"><a xlink:title=" ">
<polygon fill="#bfbfbf" stroke="black" points="24.5,-0.5 24.5,-19.5 132.5,-19.5 132.5,-0.5 24.5,-0.5"/>
<text text-anchor="middle" x="78.5" y="-7.5" font-family="Helvetica,sans-Serif" font-size="10.00">MoFEM::MPCsType</text>
</a>
</g>
</g>
<!-- Node2 -->
<g id="node2" class="node">
<title>Node2</title>
<g id="a_node2"><a xlink:href="structMoFEM_1_1DisplacementCubitBcData.html" target="_top" xlink:title="Definition of the displacement bc data structure.">
<polygon fill="white" stroke="black" points="2.5,-56.5 2.5,-86.5 154.5,-86.5 154.5,-56.5 2.5,-56.5"/>
<text text-anchor="start" x="10.5" y="-74.5" font-family="Helvetica,sans-Serif" font-size="10.00">MoFEM::DisplacementCubit</text>
<text text-anchor="middle" x="78.5" y="-63.5" font-family="Helvetica,sans-Serif" font-size="10.00">BcData</text>
</a>
</g>
</g>
<!-- Node2&#45;&gt;Node1 -->
<g id="edge1" class="edge">
<title>Node2&#45;&gt;Node1</title>
<path fill="none" stroke="midnightblue" d="M78.5,-46.29C78.5,-36.86 78.5,-26.65 78.5,-19.66"/>
<polygon fill="midnightblue" stroke="midnightblue" points="75,-46.4 78.5,-56.4 82,-46.4 75,-46.4"/>
</g>
<!-- Node3 -->
<g id="node3" class="node">
<title>Node3</title>
<g id="a_node3"><a xlink:href="structMoFEM_1_1GenericCubitBcData.html" target="_top" xlink:title="Generic bc data structure.">
<polygon fill="white" stroke="black" points="0,-123.5 0,-142.5 157,-142.5 157,-123.5 0,-123.5"/>
<text text-anchor="middle" x="78.5" y="-130.5" font-family="Helvetica,sans-Serif" font-size="10.00">MoFEM::GenericCubitBcData</text>
</a>
</g>
</g>
<!-- Node3&#45;&gt;Node2 -->
<g id="edge2" class="edge">
<title>Node3&#45;&gt;Node2</title>
<path fill="none" stroke="midnightblue" d="M78.5,-113.23C78.5,-104.59 78.5,-94.5 78.5,-86.52"/>
<polygon fill="midnightblue" stroke="midnightblue" points="75,-113.48 78.5,-123.48 82,-113.48 75,-113.48"/>
</g>
</g>
</svg>
