<?xml version="1.0" encoding="UTF-8" standalone="no"?>
<!DOCTYPE svg PUBLIC "-//W3C//DTD SVG 1.1//EN"
 "http://www.w3.org/Graphics/SVG/1.1/DTD/svg11.dtd">
<!-- Generated by graphviz version 9.0.0 (20230911.1827)
 -->
<!-- Title: ContactOps::OpConstrainBoundaryLhs_dUImpl&lt; DIM, GAUSS, AssemblyBoundaryEleOp &gt; Pages: 1 -->
<!--zoomable 311 -->
<svg id="main" version="1.1" xmlns="http://www.w3.org/2000/svg" xmlns:xlink="http://www.w3.org/1999/xlink" xml:space="preserve" onload="init(evt)">
<style type="text/css"><![CDATA[
.edge:hover path { stroke: red; }
.edge:hover polygon { stroke: red; fill: red; }
]]></style>
<script type="text/javascript"><![CDATA[
var edges = document.getElementsByTagName('g');
if (edges && edges.length) {
  for (var i=0;i<edges.length;i++) {
    if (edges[i].id.substr(0,4)=='edge') {
      edges[i].setAttribute('class','edge');
    }
  }
}
]]></script>
        <defs>
                <circle id="rim" cx="0" cy="0" r="7"/>
                <circle id="rim2" cx="0" cy="0" r="3.5"/>
                <g id="zoomPlus">
                        <use xlink:href="#rim" fill="#404040">
                                <set attributeName="fill" to="#808080" begin="zoomplus.mouseover" end="zoomplus.mouseout"/>
                        </use>
                        <path d="M-4,0h8M0,-4v8" fill="none" stroke="white" stroke-width="1.5" pointer-events="none"/>
                </g>
                <g id="zoomMin">
                        <use xlink:href="#rim" fill="#404040">
                                <set attributeName="fill" to="#808080" begin="zoomminus.mouseover" end="zoomminus.mouseout"/>
                        </use>
                        <path d="M-4,0h8" fill="none" stroke="white" stroke-width="1.5" pointer-events="none"/>
                </g>
                <g id="dirArrow">
                        <path fill="none" stroke="white" stroke-width="1.5" d="M0,-3.0v7 M-2.5,-0.5L0,-3.0L2.5,-0.5"/>
                </g>
               <g id="resetDef">
                       <use xlink:href="#rim2" fill="#404040">
                               <set attributeName="fill" to="#808080" begin="reset.mouseover" end="reset.mouseout"/>
                       </use>
               </g>
        </defs>

<script type="text/javascript">
var viewWidth = 548;
var viewHeight = 311;
var sectionId = 'dynsection-1';
</script>
<script xlink:href="svgpan.js"/>
<svg id="graph" class="graph">
<g id="viewport">
<title>ContactOps::OpConstrainBoundaryLhs_dUImpl&lt; DIM, GAUSS, AssemblyBoundaryEleOp &gt;</title>
<!-- Node1 -->
<g id="node1" class="node">
<title>Node1</title>
<g id="a_node1"><a xlink:title=" ">
<polygon fill="#999999" stroke="#666666" points="539.75,-221.12 312.25,-221.12 312.25,-179.38 539.75,-179.38 539.75,-221.12"/>
<text text-anchor="start" x="320.25" y="-207.62" font-family="Helvetica,sans-Serif" font-size="10.00">ContactOps::OpConstrainBoundary</text>
<text text-anchor="start" x="320.25" y="-196.38" font-family="Helvetica,sans-Serif" font-size="10.00">Lhs_dUImpl&lt; DIM, GAUSS, AssemblyBoundary</text>
<text text-anchor="middle" x="426" y="-185.12" font-family="Helvetica,sans-Serif" font-size="10.00">EleOp &gt;</text>
</a>
</g>
</g>
<!-- Node2 -->
<g id="node2" class="node">
<title>Node2</title>
<g id="a_node2"><a xlink:href="class_assembly_boundary_ele_op.html" target="_top" xlink:title=" ">
<polygon fill="white" stroke="#666666" points="134.88,-302.88 7.12,-302.88 7.12,-283.62 134.88,-283.62 134.88,-302.88"/>
<text text-anchor="middle" x="71" y="-289.38" font-family="Helvetica,sans-Serif" font-size="10.00">AssemblyBoundaryEleOp</text>
</a>
</g>
</g>
<!-- Node2&#45;&gt;Node1 -->
<g id="edge1" class="edge">
<title>Node2&#45;&gt;Node1</title>
<path fill="none" stroke="#63b8ff" d="M106.81,-280.24C150.79,-268.73 228.64,-252.37 294.25,-234.25 308.19,-230.4 322.84,-225.97 337.09,-221.56"/>
<polygon fill="#63b8ff" stroke="#63b8ff" points="106.07,-276.81 97.33,-282.81 107.9,-283.57 106.07,-276.81"/>
</g>
<!-- Node2&#45;&gt;Node1 -->
<g id="edge2" class="edge">
<title>Node2&#45;&gt;Node1</title>
<path fill="none" stroke="#63b8ff" d="M146.47,-286.24C189.84,-278.24 245.43,-265.73 294.25,-252.25 325.69,-243.57 360.78,-231.92 386.68,-221.57"/>
<polygon fill="#63b8ff" stroke="#63b8ff" points="145.86,-282.8 136.64,-288.01 147.1,-289.69 145.86,-282.8"/>
</g>
<!-- Node3 -->
<g id="node3" class="node">
<title>Node3</title>
<g id="a_node3"><a xlink:title=" ">
<polygon fill="white" stroke="#666666" points="139,-265.75 3,-265.75 3,-212.75 139,-212.75 139,-265.75"/>
<text text-anchor="start" x="11" y="-252.25" font-family="Helvetica,sans-Serif" font-size="10.00">function&lt; double(double</text>
<text text-anchor="start" x="11" y="-241" font-family="Helvetica,sans-Serif" font-size="10.00"> t, double x, double y,</text>
<text text-anchor="start" x="11" y="-229.75" font-family="Helvetica,sans-Serif" font-size="10.00"> double z, double tx, double</text>
<text text-anchor="middle" x="71" y="-218.5" font-family="Helvetica,sans-Serif" font-size="10.00"> ty, double tz)&gt;</text>
</a>
</g>
</g>
<!-- Node3&#45;&gt;Node1 -->
<g id="edge3" class="edge">
<title>Node3&#45;&gt;Node1</title>
<path fill="none" stroke="#9a32cd" stroke-dasharray="5,2" d="M150.66,-230.56C198.09,-225.32 259.29,-218.56 311.84,-212.75"/>
<polygon fill="#9a32cd" stroke="#9a32cd" points="150.29,-227.08 140.73,-231.66 151.06,-234.04 150.29,-227.08"/>
<text text-anchor="middle" x="227.12" y="-230" font-family="Helvetica,sans-Serif" font-size="10.00"> surfaceDistanceFunction</text>
</g>
<!-- Node4 -->
<g id="node4" class="node">
<title>Node4</title>
<g id="a_node4"><a xlink:title=" ">
<polygon fill="white" stroke="#666666" points="136.75,-194.38 5.25,-194.38 5.25,-130.12 136.75,-130.12 136.75,-194.38"/>
<text text-anchor="start" x="13.25" y="-180.88" font-family="Helvetica,sans-Serif" font-size="10.00">function&lt; FTensor::</text>
<text text-anchor="start" x="13.25" y="-169.62" font-family="Helvetica,sans-Serif" font-size="10.00">Tensor1&lt; double, 3 &gt;</text>
<text text-anchor="start" x="13.25" y="-158.38" font-family="Helvetica,sans-Serif" font-size="10.00">(double t, double x,</text>
<text text-anchor="start" x="13.25" y="-147.12" font-family="Helvetica,sans-Serif" font-size="10.00"> double y, double z, double</text>
<text text-anchor="middle" x="71" y="-135.88" font-family="Helvetica,sans-Serif" font-size="10.00"> tx, double ty, double tz)&gt;</text>
</a>
</g>
</g>
<!-- Node4&#45;&gt;Node1 -->
<g id="edge4" class="edge">
<title>Node4&#45;&gt;Node1</title>
<path fill="none" stroke="#9a32cd" stroke-dasharray="5,2" d="M148.35,-170.47C196.13,-175.61 258.53,-182.33 311.98,-188.08"/>
<polygon fill="#9a32cd" stroke="#9a32cd" points="148.98,-167.02 138.66,-169.43 148.23,-173.98 148.98,-167.02"/>
<text text-anchor="middle" x="227.12" y="-187" font-family="Helvetica,sans-Serif" font-size="10.00"> gradSurfaceDistanceFunction</text>
</g>
<!-- Node5 -->
<g id="node5" class="node">
<title>Node5</title>
<g id="a_node5"><a xlink:title=" ">
<polygon fill="white" stroke="#666666" points="142,-112.38 0,-112.38 0,-48.12 142,-48.12 142,-112.38"/>
<text text-anchor="start" x="8" y="-98.88" font-family="Helvetica,sans-Serif" font-size="10.00">function&lt; FTensor::</text>
<text text-anchor="start" x="8" y="-87.62" font-family="Helvetica,sans-Serif" font-size="10.00">Tensor2_symmetric&lt; double,</text>
<text text-anchor="start" x="8" y="-76.38" font-family="Helvetica,sans-Serif" font-size="10.00"> 3 &gt;(double t, double x,</text>
<text text-anchor="start" x="8" y="-65.12" font-family="Helvetica,sans-Serif" font-size="10.00"> double y, double z, double</text>
<text text-anchor="middle" x="71" y="-53.88" font-family="Helvetica,sans-Serif" font-size="10.00"> tx, double ty, double tz)&gt;</text>
</a>
</g>
</g>
<!-- Node5&#45;&gt;Node1 -->
<g id="edge5" class="edge">
<title>Node5&#45;&gt;Node1</title>
<path fill="none" stroke="#9a32cd" stroke-dasharray="5,2" d="M152.96,-107.77C216.61,-129.41 303.98,-159.11 362.36,-178.96"/>
<polygon fill="#9a32cd" stroke="#9a32cd" points="154.19,-104.49 143.6,-104.59 151.94,-111.12 154.19,-104.49"/>
<text text-anchor="middle" x="227.12" y="-156" font-family="Helvetica,sans-Serif" font-size="10.00"> hessSurfaceDistanceFunction</text>
</g>
<!-- Node6 -->
<g id="node6" class="node">
<title>Node6</title>
<g id="a_node6"><a xlink:title=" ">
<polygon fill="white" stroke="#666666" points="132.62,-30.5 9.38,-30.5 9.38,0 132.62,0 132.62,-30.5"/>
<text text-anchor="start" x="17.38" y="-17" font-family="Helvetica,sans-Serif" font-size="10.00">shared_ptr&lt; ContactOps</text>
<text text-anchor="middle" x="71" y="-5.75" font-family="Helvetica,sans-Serif" font-size="10.00">::CommonData &gt;</text>
</a>
</g>
</g>
<!-- Node6&#45;&gt;Node1 -->
<g id="edge6" class="edge">
<title>Node6&#45;&gt;Node1</title>
<path fill="none" stroke="#9a32cd" stroke-dasharray="5,2" d="M129.18,-34.69C133.53,-36.21 137.84,-37.75 142,-39.25 210.07,-63.82 231.28,-61.32 294.25,-97 335.52,-120.38 377.57,-156.18 402.47,-178.89"/>
<polygon fill="#9a32cd" stroke="#9a32cd" points="130.41,-31.41 119.82,-31.42 128.11,-38.02 130.41,-31.41"/>
<text text-anchor="middle" x="227.12" y="-98" font-family="Helvetica,sans-Serif" font-size="10.00"> commonDataPtr</text>
</g>
</g>
</svg>
        <g id="navigator" transform="translate(0 0)" fill="#404254">
                <rect fill="#f2f5e9" fill-opacity="0.5" stroke="#606060" stroke-width=".5" x="0" y="0" width="60" height="60"/>
                <use id="zoomplus" xlink:href="#zoomPlus" x="17" y="9" onmousedown="handleZoom(evt,'in')"/>
                <use id="zoomminus" xlink:href="#zoomMin" x="42" y="9" onmousedown="handleZoom(evt,'out')"/>
                <use id="reset" xlink:href="#resetDef" x="30" y="36" onmousedown="handleReset()"/>
                <g id="arrowUp" xlink:href="#dirArrow" transform="translate(30 24)" onmousedown="handlePan(0,-1)">
                  <use xlink:href="#rim" fill="#404040">
                        <set attributeName="fill" to="#808080" begin="arrowUp.mouseover" end="arrowUp.mouseout"/>
                  </use>
                  <path fill="none" stroke="white" stroke-width="1.5" d="M0,-3.0v7 M-2.5,-0.5L0,-3.0L2.5,-0.5"/>
                </g>
                <g id="arrowRight" xlink:href="#dirArrow" transform="rotate(90) translate(36 -43)" onmousedown="handlePan(1,0)">
                  <use xlink:href="#rim" fill="#404040">
                        <set attributeName="fill" to="#808080" begin="arrowRight.mouseover" end="arrowRight.mouseout"/>
                  </use>
                  <path fill="none" stroke="white" stroke-width="1.5" d="M0,-3.0v7 M-2.5,-0.5L0,-3.0L2.5,-0.5"/>
                </g>
                <g id="arrowDown" xlink:href="#dirArrow" transform="rotate(180) translate(-30 -48)" onmousedown="handlePan(0,1)">
                  <use xlink:href="#rim" fill="#404040">
                        <set attributeName="fill" to="#808080" begin="arrowDown.mouseover" end="arrowDown.mouseout"/>
                  </use>
                  <path fill="none" stroke="white" stroke-width="1.5" d="M0,-3.0v7 M-2.5,-0.5L0,-3.0L2.5,-0.5"/>
                </g>
                <g id="arrowLeft" xlink:href="#dirArrow" transform="rotate(270) translate(-36 17)" onmousedown="handlePan(-1,0)">
                  <use xlink:href="#rim" fill="#404040">
                        <set attributeName="fill" to="#808080" begin="arrowLeft.mouseover" end="arrowLeft.mouseout"/>
                  </use>
                  <path fill="none" stroke="white" stroke-width="1.5" d="M0,-3.0v7 M-2.5,-0.5L0,-3.0L2.5,-0.5"/>
                </g>
        </g>
        <svg viewBox="0 0 15 15" width="100%" height="30px" preserveAspectRatio="xMaxYMin meet">
         <g id="arrow_out" transform="scale(0.3 0.3)">
          <a xlink:href="struct_contact_ops_1_1_op_constrain_boundary_lhs__d_u_impl_3_01_d_i_m_00_01_g_a_u_s_s_00_01_asse5625bd4f06fd4298c6a7c32c97cd5729_org.svg" target="_base">
           <rect id="button" ry="5" rx="5" y="6" x="6" height="38" width="38"
                fill="#f2f5e9" fill-opacity="0.5" stroke="#606060" stroke-width="1.0"/>
           <path id="arrow"
             d="M 11.500037,31.436501 C 11.940474,20.09759 22.043105,11.32322 32.158766,21.979434 L 37.068811,17.246167 C 37.068811,17.246167 37.088388,32 37.088388,32 L 22.160133,31.978069 C 22.160133,31.978069 26.997745,27.140456 26.997745,27.140456 C 18.528582,18.264221 13.291696,25.230495 11.500037,31.436501 z"
             style="fill:#404040;"/>
          </a>
         </g>
        </svg>
</svg>
