<?xml version="1.0" encoding="UTF-8" standalone="no"?>
<!DOCTYPE svg PUBLIC "-//W3C//DTD SVG 1.1//EN"
 "http://www.w3.org/Graphics/SVG/1.1/DTD/svg11.dtd">
<!-- Generated by graphviz version 2.43.0 (0)
 -->
<!-- Title: SimpleContactProblem::OpContactALELhs Pages: 1 -->
<svg width="476pt" height="186pt"
 viewBox="0.00 0.00 476.00 186.00" xmlns="http://www.w3.org/2000/svg" xmlns:xlink="http://www.w3.org/1999/xlink">
<g id="graph0" class="graph" transform="scale(1 1) rotate(0) translate(4 182)">
<title>SimpleContactProblem::OpContactALELhs</title>
<polygon fill="white" stroke="transparent" points="-4,4 -4,-182 472,-182 472,4 -4,4"/>
<!-- Node1 -->
<g id="node1" class="node">
<title>Node1</title>
<g id="a_node1"><a xlink:title="Operator used as base struct for OpContactTractionSlaveSlave_dX, OpContactTractionMasterSlave_dX,...">
<polygon fill="#bfbfbf" stroke="black" points="104,-73.5 104,-103.5 232,-103.5 232,-73.5 104,-73.5"/>
<text text-anchor="start" x="112" y="-91.5" font-family="Helvetica,sans-Serif" font-size="10.00">SimpleContactProblem</text>
<text text-anchor="middle" x="168" y="-80.5" font-family="Helvetica,sans-Serif" font-size="10.00">::OpContactALELhs</text>
</a>
</g>
</g>
<!-- Node3 -->
<g id="node3" class="node">
<title>Node3</title>
<g id="a_node3"><a xlink:href="structSimpleContactProblem_1_1OpCalDerIntCompFunSlaveSlave__dX.html" target="_top" xlink:title="LHS&#45;operator for the simple contact element.">
<polygon fill="white" stroke="black" points="268,-147.5 268,-177.5 468,-177.5 468,-147.5 268,-147.5"/>
<text text-anchor="start" x="276" y="-165.5" font-family="Helvetica,sans-Serif" font-size="10.00">SimpleContactProblem</text>
<text text-anchor="middle" x="368" y="-154.5" font-family="Helvetica,sans-Serif" font-size="10.00">::OpCalDerIntCompFunSlaveSlave_dX</text>
</a>
</g>
</g>
<!-- Node1&#45;&gt;Node3 -->
<g id="edge2" class="edge">
<title>Node1&#45;&gt;Node3</title>
<path fill="none" stroke="midnightblue" d="M203.71,-108.5C222.31,-118.58 245.9,-130.36 268,-138.5 277.05,-141.83 286.73,-144.83 296.36,-147.49"/>
<polygon fill="midnightblue" stroke="midnightblue" points="205.18,-105.32 194.74,-103.57 201.81,-111.45 205.18,-105.32"/>
</g>
<!-- Node4 -->
<g id="node4" class="node">
<title>Node4</title>
<g id="a_node4"><a xlink:href="structSimpleContactProblem_1_1OpContactTractionMasterMaster__dX.html" target="_top" xlink:title="LHS&#45;operator for the simple contact element.">
<polygon fill="white" stroke="black" points="269.5,-98.5 269.5,-128.5 466.5,-128.5 466.5,-98.5 269.5,-98.5"/>
<text text-anchor="start" x="277.5" y="-116.5" font-family="Helvetica,sans-Serif" font-size="10.00">SimpleContactProblem</text>
<text text-anchor="middle" x="368" y="-105.5" font-family="Helvetica,sans-Serif" font-size="10.00">::OpContactTractionMasterMaster_dX</text>
</a>
</g>
</g>
<!-- Node1&#45;&gt;Node4 -->
<g id="edge3" class="edge">
<title>Node1&#45;&gt;Node4</title>
<path fill="none" stroke="midnightblue" d="M242.39,-97.77C251.21,-98.88 260.31,-100.03 269.4,-101.18"/>
<polygon fill="midnightblue" stroke="midnightblue" points="242.55,-94.26 232.19,-96.48 241.68,-101.2 242.55,-94.26"/>
</g>
<!-- Node5 -->
<g id="node5" class="node">
<title>Node5</title>
<g id="a_node5"><a xlink:href="structSimpleContactProblem_1_1OpContactTractionMasterSlave__dX.html" target="_top" xlink:title="LHS&#45;operator for the simple contact element.">
<polygon fill="white" stroke="black" points="272.5,-49.5 272.5,-79.5 463.5,-79.5 463.5,-49.5 272.5,-49.5"/>
<text text-anchor="start" x="280.5" y="-67.5" font-family="Helvetica,sans-Serif" font-size="10.00">SimpleContactProblem</text>
<text text-anchor="middle" x="368" y="-56.5" font-family="Helvetica,sans-Serif" font-size="10.00">::OpContactTractionMasterSlave_dX</text>
</a>
</g>
</g>
<!-- Node1&#45;&gt;Node5 -->
<g id="edge4" class="edge">
<title>Node1&#45;&gt;Node5</title>
<path fill="none" stroke="midnightblue" d="M242.25,-79.62C252.04,-78.43 262.2,-77.2 272.29,-75.98"/>
<polygon fill="midnightblue" stroke="midnightblue" points="241.7,-76.16 232.19,-80.84 242.54,-83.11 241.7,-76.16"/>
</g>
<!-- Node6 -->
<g id="node6" class="node">
<title>Node6</title>
<g id="a_node6"><a xlink:href="structSimpleContactProblem_1_1OpContactTractionSlaveSlave__dX.html" target="_top" xlink:title="LHS&#45;operator for the simple contact element.">
<polygon fill="white" stroke="black" points="276,-0.5 276,-30.5 460,-30.5 460,-0.5 276,-0.5"/>
<text text-anchor="start" x="284" y="-18.5" font-family="Helvetica,sans-Serif" font-size="10.00">SimpleContactProblem</text>
<text text-anchor="middle" x="368" y="-7.5" font-family="Helvetica,sans-Serif" font-size="10.00">::OpContactTractionSlaveSlave_dX</text>
</a>
</g>
</g>
<!-- Node1&#45;&gt;Node6 -->
<g id="edge5" class="edge">
<title>Node1&#45;&gt;Node6</title>
<path fill="none" stroke="midnightblue" d="M204.54,-68.52C223.03,-58.74 246.26,-47.4 268,-39.5 277.14,-36.18 286.92,-33.17 296.65,-30.51"/>
<polygon fill="midnightblue" stroke="midnightblue" points="202.75,-65.5 195.6,-73.31 206.07,-71.67 202.75,-65.5"/>
</g>
<!-- Node2 -->
<g id="node2" class="node">
<title>Node2</title>
<g id="a_node2"><a xlink:href="classContactOp.html" target="_top" xlink:title=" ">
<polygon fill="white" stroke="black" points="0,-79 0,-98 68,-98 68,-79 0,-79"/>
<text text-anchor="middle" x="34" y="-86" font-family="Helvetica,sans-Serif" font-size="10.00">ContactOp</text>
</a>
</g>
</g>
<!-- Node2&#45;&gt;Node1 -->
<g id="edge1" class="edge">
<title>Node2&#45;&gt;Node1</title>
<path fill="none" stroke="midnightblue" d="M78.34,-88.5C86.52,-88.5 95.22,-88.5 103.86,-88.5"/>
<polygon fill="midnightblue" stroke="midnightblue" points="78.31,-85 68.31,-88.5 78.31,-92 78.31,-85"/>
</g>
</g>
</svg>
