<?xml version="1.0" encoding="UTF-8" standalone="no"?>
<!DOCTYPE svg PUBLIC "-//W3C//DTD SVG 1.1//EN"
 "http://www.w3.org/Graphics/SVG/1.1/DTD/svg11.dtd">
<!-- Generated by graphviz version 9.0.0 (20230911.1827)
 -->
<!-- Title: ConvectiveMassElement::OpGetDataAtGaussPts Pages: 1 -->
<svg width="429pt" height="150pt"
 viewBox="0.00 0.00 428.50 149.88" xmlns="http://www.w3.org/2000/svg" xmlns:xlink="http://www.w3.org/1999/xlink">
<g id="graph0" class="graph" transform="scale(1 1) rotate(0) translate(4 145.88)">
<title>ConvectiveMassElement::OpGetDataAtGaussPts</title>
<!-- Node1 -->
<g id="node1" class="node">
<title>Node1</title>
<g id="a_node1"><a xlink:title=" ">
<polygon fill="#999999" stroke="#666666" points="420.5,-79.88 295,-79.88 295,-49.38 420.5,-49.38 420.5,-79.88"/>
<text text-anchor="start" x="303" y="-66.38" font-family="Helvetica,sans-Serif" font-size="10.00">ConvectiveMassElement</text>
<text text-anchor="middle" x="357.75" y="-55.12" font-family="Helvetica,sans-Serif" font-size="10.00">::OpGetDataAtGaussPts</text>
</a>
</g>
</g>
<!-- Node2 -->
<g id="node2" class="node">
<title>Node2</title>
<g id="a_node2"><a xlink:title=" ">
<polygon fill="white" stroke="#666666" points="168.25,-141.88 0,-141.88 0,-111.38 168.25,-111.38 168.25,-141.88"/>
<text text-anchor="start" x="8" y="-128.38" font-family="Helvetica,sans-Serif" font-size="10.00">VolumeElementForcesAndSources</text>
<text text-anchor="middle" x="84.12" y="-117.12" font-family="Helvetica,sans-Serif" font-size="10.00">Core::UserDataOperator</text>
</a>
</g>
</g>
<!-- Node2&#45;&gt;Node1 -->
<g id="edge1" class="edge">
<title>Node2&#45;&gt;Node1</title>
<path fill="none" stroke="#63b8ff" d="M179.6,-111.41C210.8,-105.72 245.56,-98.66 277,-90.62 288.43,-87.7 300.61,-84.03 311.92,-80.37"/>
<polygon fill="#63b8ff" stroke="#63b8ff" points="178.99,-107.97 169.77,-113.18 180.23,-114.86 178.99,-107.97"/>
</g>
<!-- Node3 -->
<g id="node3" class="node">
<title>Node3</title>
<g id="a_node3"><a xlink:title=" ">
<polygon fill="white" stroke="#666666" points="149.12,-93.25 19.12,-93.25 19.12,-74 149.12,-74 149.12,-93.25"/>
<text text-anchor="middle" x="84.12" y="-79.75" font-family="Helvetica,sans-Serif" font-size="10.00">vector&lt; VectorDouble &gt; &amp;</text>
</a>
</g>
</g>
<!-- Node3&#45;&gt;Node1 -->
<g id="edge2" class="edge">
<title>Node3&#45;&gt;Node1</title>
<path fill="none" stroke="#9a32cd" stroke-dasharray="5,2" d="M160.84,-78.33C203.04,-75.38 254.94,-71.75 294.71,-68.96"/>
<polygon fill="#9a32cd" stroke="#9a32cd" points="160.74,-74.83 151.01,-79.02 161.23,-81.81 160.74,-74.83"/>
<text text-anchor="middle" x="231.62" y="-77.38" font-family="Helvetica,sans-Serif" font-size="10.00"> valuesAtGaussPts</text>
</g>
<!-- Node4 -->
<g id="node4" class="node">
<title>Node4</title>
<g id="a_node4"><a xlink:title=" ">
<polygon fill="white" stroke="#666666" points="148.38,-56.25 19.88,-56.25 19.88,-37 148.38,-37 148.38,-56.25"/>
<text text-anchor="middle" x="84.12" y="-42.75" font-family="Helvetica,sans-Serif" font-size="10.00">vector&lt; MatrixDouble &gt; &amp;</text>
</a>
</g>
</g>
<!-- Node4&#45;&gt;Node1 -->
<g id="edge3" class="edge">
<title>Node4&#45;&gt;Node1</title>
<path fill="none" stroke="#9a32cd" stroke-dasharray="5,2" d="M160.05,-45.36C195.57,-45.46 238.55,-46.59 277,-50.38 282.74,-50.94 288.68,-51.69 294.62,-52.55"/>
<polygon fill="#9a32cd" stroke="#9a32cd" points="160.31,-41.86 150.31,-45.37 160.31,-48.86 160.31,-41.86"/>
<text text-anchor="middle" x="231.62" y="-51.38" font-family="Helvetica,sans-Serif" font-size="10.00"> gradientAtGaussPts</text>
</g>
<!-- Node5 -->
<g id="node5" class="node">
<title>Node5</title>
<g id="a_node5"><a xlink:href="class_entity_type.html" target="_top" xlink:title=" ">
<polygon fill="white" stroke="#666666" points="115.38,-19.25 52.88,-19.25 52.88,0 115.38,0 115.38,-19.25"/>
<text text-anchor="middle" x="84.12" y="-5.75" font-family="Helvetica,sans-Serif" font-size="10.00">EntityType</text>
</a>
</g>
</g>
<!-- Node5&#45;&gt;Node1 -->
<g id="edge4" class="edge">
<title>Node5&#45;&gt;Node1</title>
<path fill="none" stroke="#9a32cd" stroke-dasharray="5,2" d="M127.13,-10.58C166.44,-12.32 226.52,-17.13 277,-30.38 293.76,-34.77 311.56,-42.13 326.07,-48.9"/>
<polygon fill="#9a32cd" stroke="#9a32cd" points="127.51,-7.1 117.39,-10.21 127.24,-14.09 127.51,-7.1"/>
<text text-anchor="middle" x="231.62" y="-32.38" font-family="Helvetica,sans-Serif" font-size="10.00"> zeroAtType</text>
</g>
</g>
</svg>
