<?xml version="1.0" encoding="UTF-8" standalone="no"?>
<!DOCTYPE svg PUBLIC "-//W3C//DTD SVG 1.1//EN"
 "http://www.w3.org/Graphics/SVG/1.1/DTD/svg11.dtd">
<!-- Generated by graphviz version 9.0.0 (20230911.1827)
 -->
<!-- Title: MoFEM::OpSchurAssembleEndImpl Pages: 1 -->
<svg width="338pt" height="216pt"
 viewBox="0.00 0.00 337.50 215.50" xmlns="http://www.w3.org/2000/svg" xmlns:xlink="http://www.w3.org/1999/xlink">
<g id="graph0" class="graph" transform="scale(1 1) rotate(0) translate(4 211.5)">
<title>MoFEM::OpSchurAssembleEndImpl</title>
<!-- Node1 -->
<g id="node1" class="node">
<title>Node1</title>
<g id="a_node1"><a xlink:title="Assemble Schur complement (Implementation)">
<polygon fill="#999999" stroke="#666666" points="251.88,-85.75 77.62,-85.75 77.62,-66.5 251.88,-66.5 251.88,-85.75"/>
<text text-anchor="middle" x="164.75" y="-72.25" font-family="Helvetica,sans-Serif" font-size="10.00">MoFEM::OpSchurAssembleEndImpl</text>
</a>
</g>
</g>
<!-- Node4 -->
<g id="node4" class="node">
<title>Node4</title>
<g id="a_node4"><a xlink:href="struct_mo_f_e_m_1_1_op_schur_assemble_end_3_01_s_c_h_u_r___d_g_e_s_v_01_4.html" target="_top" xlink:title=" ">
<polygon fill="white" stroke="#666666" points="155.5,-30.5 0,-30.5 0,0 155.5,0 155.5,-30.5"/>
<text text-anchor="start" x="8" y="-17" font-family="Helvetica,sans-Serif" font-size="10.00">MoFEM::OpSchurAssembleEnd</text>
<text text-anchor="middle" x="77.75" y="-5.75" font-family="Helvetica,sans-Serif" font-size="10.00">&lt; SCHUR_DGESV &gt;</text>
</a>
</g>
</g>
<!-- Node1&#45;&gt;Node4 -->
<g id="edge3" class="edge">
<title>Node1&#45;&gt;Node4</title>
<path fill="none" stroke="#63b8ff" d="M142.18,-59.85C128.93,-50.89 112.28,-39.62 99.22,-30.78"/>
<polygon fill="#63b8ff" stroke="#63b8ff" points="140.04,-62.63 150.28,-65.33 143.96,-56.83 140.04,-62.63"/>
</g>
<!-- Node5 -->
<g id="node5" class="node">
<title>Node5</title>
<g id="a_node5"><a xlink:href="struct_mo_f_e_m_1_1_op_schur_assemble_end_3_01_s_c_h_u_r___d_s_y_s_v_01_4.html" target="_top" xlink:title=" ">
<polygon fill="white" stroke="#666666" points="329.5,-30.5 174,-30.5 174,0 329.5,0 329.5,-30.5"/>
<text text-anchor="start" x="182" y="-17" font-family="Helvetica,sans-Serif" font-size="10.00">MoFEM::OpSchurAssembleEnd</text>
<text text-anchor="middle" x="251.75" y="-5.75" font-family="Helvetica,sans-Serif" font-size="10.00">&lt; SCHUR_DSYSV &gt;</text>
</a>
</g>
</g>
<!-- Node1&#45;&gt;Node5 -->
<g id="edge4" class="edge">
<title>Node1&#45;&gt;Node5</title>
<path fill="none" stroke="#63b8ff" d="M187.32,-59.85C200.57,-50.89 217.22,-39.62 230.28,-30.78"/>
<polygon fill="#63b8ff" stroke="#63b8ff" points="185.54,-56.83 179.22,-65.33 189.46,-62.63 185.54,-56.83"/>
</g>
<!-- Node2 -->
<g id="node2" class="node">
<title>Node2</title>
<g id="a_node2"><a xlink:href="struct_mo_f_e_m_1_1_forces_and_sources_core_1_1_user_data_operator.html" target="_top" xlink:title=" ">
<polygon fill="white" stroke="#666666" points="245.12,-152.25 84.38,-152.25 84.38,-121.75 245.12,-121.75 245.12,-152.25"/>
<text text-anchor="start" x="92.38" y="-138.75" font-family="Helvetica,sans-Serif" font-size="10.00">MoFEM::ForcesAndSourcesCore</text>
<text text-anchor="middle" x="164.75" y="-127.5" font-family="Helvetica,sans-Serif" font-size="10.00">::UserDataOperator</text>
</a>
</g>
</g>
<!-- Node2&#45;&gt;Node1 -->
<g id="edge1" class="edge">
<title>Node2&#45;&gt;Node1</title>
<path fill="none" stroke="#63b8ff" d="M164.75,-109.98C164.75,-101.48 164.75,-92.59 164.75,-86.2"/>
<polygon fill="#63b8ff" stroke="#63b8ff" points="161.25,-109.93 164.75,-119.93 168.25,-109.93 161.25,-109.93"/>
</g>
<!-- Node3 -->
<g id="node3" class="node">
<title>Node3</title>
<g id="a_node3"><a xlink:href="struct_mo_f_e_m_1_1_data_operator.html" target="_top" xlink:title="base operator to do operations at Gauss Pt. level">
<polygon fill="white" stroke="#666666" points="222.25,-207.5 107.25,-207.5 107.25,-188.25 222.25,-188.25 222.25,-207.5"/>
<text text-anchor="middle" x="164.75" y="-194" font-family="Helvetica,sans-Serif" font-size="10.00">MoFEM::DataOperator</text>
</a>
</g>
</g>
<!-- Node3&#45;&gt;Node2 -->
<g id="edge2" class="edge">
<title>Node3&#45;&gt;Node2</title>
<path fill="none" stroke="#63b8ff" d="M164.75,-176.67C164.75,-168.74 164.75,-159.81 164.75,-152.53"/>
<polygon fill="#63b8ff" stroke="#63b8ff" points="161.25,-176.42 164.75,-186.42 168.25,-176.42 161.25,-176.42"/>
</g>
</g>
</svg>
