<?xml version="1.0" encoding="UTF-8" standalone="no"?>
<!DOCTYPE svg PUBLIC "-//W3C//DTD SVG 1.1//EN"
 "http://www.w3.org/Graphics/SVG/1.1/DTD/svg11.dtd">
<!-- Generated by graphviz version 9.0.0 (20230911.1827)
 -->
<!-- Title: ElementsAndOps&lt; 3 &gt; Pages: 1 -->
<svg width="316pt" height="116pt"
 viewBox="0.00 0.00 315.62 116.25" xmlns="http://www.w3.org/2000/svg" xmlns:xlink="http://www.w3.org/1999/xlink">
<g id="graph0" class="graph" transform="scale(1 1) rotate(0) translate(4 112.25)">
<title>ElementsAndOps&lt; 3 &gt;</title>
<!-- Node1 -->
<g id="node1" class="node">
<title>Node1</title>
<g id="a_node1"><a xlink:title=" ">
<polygon fill="#999999" stroke="#666666" points="133.75,-19.25 18,-19.25 18,0 133.75,0 133.75,-19.25"/>
<text text-anchor="middle" x="75.88" y="-5.75" font-family="Helvetica,sans-Serif" font-size="10.00">ElementsAndOps&lt; 3 &gt;</text>
</a>
</g>
</g>
<!-- Node2 -->
<g id="node2" class="node">
<title>Node2</title>
<g id="a_node2"><a xlink:href="struct_mo_f_e_m_1_1_pipeline_manager_1_1_elements_and_ops_by_dim_3_013_01_4.html" target="_top" xlink:title=" ">
<polygon fill="white" stroke="#666666" points="151.75,-108.25 0,-108.25 0,-77.75 151.75,-77.75 151.75,-108.25"/>
<text text-anchor="start" x="8" y="-94.75" font-family="Helvetica,sans-Serif" font-size="10.00">MoFEM::PipelineManager</text>
<text text-anchor="middle" x="75.88" y="-83.5" font-family="Helvetica,sans-Serif" font-size="10.00">::ElementsAndOpsByDim&lt; 3 &gt;</text>
</a>
</g>
</g>
<!-- Node2&#45;&gt;Node1 -->
<g id="edge1" class="edge">
<title>Node2&#45;&gt;Node1</title>
<path fill="none" stroke="#63b8ff" d="M69.54,-66.12C68.61,-50.14 69.25,-30.63 71.47,-19.52"/>
<polygon fill="#63b8ff" stroke="#63b8ff" points="66.04,-66.3 70.42,-75.94 73.01,-65.67 66.04,-66.3"/>
</g>
<!-- Node2&#45;&gt;Node1 -->
<g id="edge2" class="edge">
<title>Node2&#45;&gt;Node1</title>
<path fill="none" stroke="#63b8ff" d="M82.21,-66.12C83.14,-50.14 82.5,-30.63 80.28,-19.52"/>
<polygon fill="#63b8ff" stroke="#63b8ff" points="78.74,-65.67 81.33,-75.94 85.71,-66.3 78.74,-65.67"/>
</g>
<!-- Node3 -->
<g id="node3" class="node">
<title>Node3</title>
<g id="a_node3"><a xlink:title=" ">
<polygon fill="white" stroke="#666666" points="307.62,-102.62 170.12,-102.62 170.12,-83.38 307.62,-83.38 307.62,-102.62"/>
<text text-anchor="middle" x="238.88" y="-89.12" font-family="Helvetica,sans-Serif" font-size="10.00">static constexpr FieldSpace</text>
</a>
</g>
</g>
<!-- Node3&#45;&gt;Node1 -->
<g id="edge3" class="edge">
<title>Node3&#45;&gt;Node1</title>
<path fill="none" stroke="#9a32cd" stroke-dasharray="5,2" d="M210.75,-77.96C177.28,-61.25 122.35,-33.82 94.02,-19.68"/>
<polygon fill="#9a32cd" stroke="#9a32cd" points="208.94,-80.97 219.45,-82.3 212.07,-74.71 208.94,-80.97"/>
<text text-anchor="middle" x="217.5" y="-50.25" font-family="Helvetica,sans-Serif" font-size="10.00"> CONTACT_SPACE</text>
<text text-anchor="middle" x="217.5" y="-39" font-family="Helvetica,sans-Serif" font-size="10.00">HDIV_SPACE</text>
</g>
</g>
</svg>
