<?xml version="1.0" encoding="UTF-8" standalone="no"?>
<!DOCTYPE svg PUBLIC "-//W3C//DTD SVG 1.1//EN"
 "http://www.w3.org/Graphics/SVG/1.1/DTD/svg11.dtd">
<!-- Generated by graphviz version 2.43.0 (0)
 -->
<!-- Title: MinimalSurfaceEqn Pages: 1 -->
<svg width="1501pt" height="150pt"
 viewBox="0.00 0.00 1501.00 149.50" xmlns="http://www.w3.org/2000/svg" xmlns:xlink="http://www.w3.org/1999/xlink">
<g id="graph0" class="graph" transform="scale(1 1) rotate(0) translate(4 145.5)">
<title>MinimalSurfaceEqn</title>
<polygon fill="white" stroke="transparent" points="-4,4 -4,-145.5 1497,-145.5 1497,4 -4,4"/>
<!-- Node1 -->
<g id="node1" class="node">
<title>Node1</title>
<g id="a_node1"><a xlink:title=" ">
<polygon fill="#bfbfbf" stroke="black" points="1382,-50 1382,-69 1493,-69 1493,-50 1382,-50"/>
<text text-anchor="middle" x="1437.5" y="-57" font-family="Helvetica,sans-Serif" font-size="10.00">MinimalSurfaceEqn</text>
</a>
</g>
</g>
<!-- Node2 -->
<g id="node2" class="node">
<title>Node2</title>
<g id="a_node2"><a xlink:href="structMoFEM_1_1DeprecatedCoreInterface.html" target="_top" xlink:title="Deprecated interface functions.">
<polygon fill="white" stroke="black" points="1082,-88 1082,-107 1263,-107 1263,-88 1082,-88"/>
<text text-anchor="middle" x="1172.5" y="-95" font-family="Helvetica,sans-Serif" font-size="10.00">MoFEM::DeprecatedCoreInterface</text>
</a>
</g>
</g>
<!-- Node2&#45;&gt;Node1 -->
<g id="edge1" class="edge">
<title>Node2&#45;&gt;Node1</title>
<path fill="none" stroke="#9a32cd" stroke-dasharray="5,2" d="M1268.74,-86.74C1299.23,-82.97 1333.09,-78.43 1364,-73.5 1372.23,-72.19 1380.95,-70.64 1389.39,-69.06"/>
<polygon fill="#9a32cd" stroke="#9a32cd" points="1268.04,-83.3 1258.54,-87.99 1268.89,-90.25 1268.04,-83.3"/>
<text text-anchor="middle" x="1322.5" y="-87.5" font-family="Helvetica,sans-Serif" font-size="10.00"> mField</text>
</g>
<!-- Node3 -->
<g id="node3" class="node">
<title>Node3</title>
<g id="a_node3"><a xlink:href="structMoFEM_1_1CoreInterface.html" target="_top" xlink:title="Interface.">
<polygon fill="white" stroke="black" points="920,-88 920,-107 1045,-107 1045,-88 920,-88"/>
<text text-anchor="middle" x="982.5" y="-95" font-family="Helvetica,sans-Serif" font-size="10.00">MoFEM::CoreInterface</text>
</a>
</g>
</g>
<!-- Node3&#45;&gt;Node2 -->
<g id="edge2" class="edge">
<title>Node3&#45;&gt;Node2</title>
<path fill="none" stroke="midnightblue" d="M1055.16,-97.5C1063.89,-97.5 1072.89,-97.5 1081.84,-97.5"/>
<polygon fill="midnightblue" stroke="midnightblue" points="1055.06,-94 1045.06,-97.5 1055.06,-101 1055.06,-94"/>
</g>
<!-- Node4 -->
<g id="node4" class="node">
<title>Node4</title>
<g id="a_node4"><a xlink:href="structMoFEM_1_1UnknownInterface.html" target="_top" xlink:title="base class for all interface classes">
<polygon fill="white" stroke="black" points="735,-88 735,-107 883,-107 883,-88 735,-88"/>
<text text-anchor="middle" x="809" y="-95" font-family="Helvetica,sans-Serif" font-size="10.00">MoFEM::UnknownInterface</text>
</a>
</g>
</g>
<!-- Node4&#45;&gt;Node3 -->
<g id="edge3" class="edge">
<title>Node4&#45;&gt;Node3</title>
<path fill="none" stroke="midnightblue" d="M893.29,-97.5C902.24,-97.5 911.22,-97.5 919.85,-97.5"/>
<polygon fill="midnightblue" stroke="midnightblue" points="893.23,-94 883.23,-97.5 893.23,-101 893.23,-94"/>
</g>
<!-- Node5 -->
<g id="node5" class="node">
<title>Node5</title>
<g id="a_node5"><a xlink:title=" ">
<polygon fill="white" stroke="#bfbfbf" points="386,-66 386,-129 627,-129 627,-66 386,-66"/>
<text text-anchor="start" x="394" y="-117" font-family="Helvetica,sans-Serif" font-size="10.00">multi_index_container</text>
<text text-anchor="start" x="394" y="-106" font-family="Helvetica,sans-Serif" font-size="10.00">&lt; UIdTypeMap, indexed</text>
<text text-anchor="start" x="394" y="-95" font-family="Helvetica,sans-Serif" font-size="10.00">_by&lt; hashed_unique&lt; member</text>
<text text-anchor="start" x="394" y="-84" font-family="Helvetica,sans-Serif" font-size="10.00">&lt; UIdTypeMap, boost::typeindex</text>
<text text-anchor="middle" x="506.5" y="-73" font-family="Helvetica,sans-Serif" font-size="10.00">::type_index, &amp;UIdTypeMap::classIdx &gt; &gt; &gt; &gt;</text>
</a>
</g>
</g>
<!-- Node5&#45;&gt;Node4 -->
<g id="edge4" class="edge">
<title>Node5&#45;&gt;Node4</title>
<path fill="none" stroke="#9a32cd" stroke-dasharray="5,2" d="M637.41,-97.5C670.69,-97.5 705.33,-97.5 734.62,-97.5"/>
<polygon fill="#9a32cd" stroke="#9a32cd" points="637.13,-94 627.13,-97.5 637.13,-101 637.13,-94"/>
<text text-anchor="middle" x="681" y="-100.5" font-family="Helvetica,sans-Serif" font-size="10.00"> iFaceTypeMap</text>
</g>
<!-- Node6 -->
<g id="node6" class="node">
<title>Node6</title>
<g id="a_node6"><a xlink:title=" ">
<polygon fill="white" stroke="#bfbfbf" points="0,-88 0,-107 125,-107 125,-88 0,-88"/>
<text text-anchor="middle" x="62.5" y="-95" font-family="Helvetica,sans-Serif" font-size="10.00">multi_index_container</text>
</a>
</g>
</g>
<!-- Node6&#45;&gt;Node5 -->
<g id="edge5" class="edge">
<title>Node6&#45;&gt;Node5</title>
<path fill="none" stroke="orange" stroke-dasharray="5,2" d="M135.56,-97.5C203.25,-97.5 305.79,-97.5 385.77,-97.5"/>
<polygon fill="orange" stroke="orange" points="135.42,-94 125.42,-97.5 135.42,-101 135.42,-94"/>
<text text-anchor="start" x="143" y="-133.5" font-family="Helvetica,sans-Serif" font-size="10.00"> &lt; UIdTypeMap, indexed</text>
<text text-anchor="start" x="143" y="-122.5" font-family="Helvetica,sans-Serif" font-size="10.00">_by&lt; hashed_unique&lt; member</text>
<text text-anchor="start" x="143" y="-111.5" font-family="Helvetica,sans-Serif" font-size="10.00">&lt; UIdTypeMap, boost::typeindex</text>
<text text-anchor="middle" x="255.5" y="-100.5" font-family="Helvetica,sans-Serif" font-size="10.00">::type_index, &amp;UIdTypeMap::classIdx &gt; &gt; &gt; &gt;</text>
</g>
<!-- Node7 -->
<g id="node7" class="node">
<title>Node7</title>
<g id="a_node7"><a xlink:href="classRange.html" target="_top" xlink:title=" ">
<polygon fill="white" stroke="black" points="1149,-50 1149,-69 1196,-69 1196,-50 1149,-50"/>
<text text-anchor="middle" x="1172.5" y="-57" font-family="Helvetica,sans-Serif" font-size="10.00">Range</text>
</a>
</g>
</g>
<!-- Node7&#45;&gt;Node1 -->
<g id="edge6" class="edge">
<title>Node7&#45;&gt;Node1</title>
<path fill="none" stroke="#9a32cd" stroke-dasharray="5,2" d="M1206.53,-59.5C1250.55,-59.5 1329.01,-59.5 1381.9,-59.5"/>
<polygon fill="#9a32cd" stroke="#9a32cd" points="1206.38,-56 1196.38,-59.5 1206.38,-63 1206.38,-56"/>
<text text-anchor="middle" x="1322.5" y="-62.5" font-family="Helvetica,sans-Serif" font-size="10.00"> boundaryEnts</text>
</g>
<!-- Node8 -->
<g id="node8" class="node">
<title>Node8</title>
<g id="a_node8"><a xlink:title=" ">
<polygon fill="white" stroke="#bfbfbf" points="1107,-0.5 1107,-30.5 1238,-30.5 1238,-0.5 1107,-0.5"/>
<text text-anchor="start" x="1115" y="-18.5" font-family="Helvetica,sans-Serif" font-size="10.00">shared_ptr&lt; std::vector</text>
<text text-anchor="middle" x="1172.5" y="-7.5" font-family="Helvetica,sans-Serif" font-size="10.00">&lt; unsigned char &gt; &gt;</text>
</a>
</g>
</g>
<!-- Node8&#45;&gt;Node1 -->
<g id="edge7" class="edge">
<title>Node8&#45;&gt;Node1</title>
<path fill="none" stroke="#9a32cd" stroke-dasharray="5,2" d="M1248.21,-25.94C1283.41,-31.1 1325.94,-37.67 1364,-44.5 1373.11,-46.13 1382.83,-48.04 1392.1,-49.93"/>
<polygon fill="#9a32cd" stroke="#9a32cd" points="1248.41,-22.43 1238.01,-24.45 1247.4,-29.36 1248.41,-22.43"/>
<text text-anchor="middle" x="1322.5" y="-47.5" font-family="Helvetica,sans-Serif" font-size="10.00"> boundaryMarker</text>
</g>
</g>
</svg>
