<?xml version="1.0" encoding="UTF-8" standalone="no"?>
<!DOCTYPE svg PUBLIC "-//W3C//DTD SVG 1.1//EN"
 "http://www.w3.org/Graphics/SVG/1.1/DTD/svg11.dtd">
<!-- Generated by graphviz version 2.43.0 (0)
 -->
<!-- Title: ConvectiveMassElement::ShellResidualElement Pages: 1 -->
<!--zoomable 302 -->
<svg id="main" version="1.1" xmlns="http://www.w3.org/2000/svg" xmlns:xlink="http://www.w3.org/1999/xlink" xml:space="preserve" onload="init(evt)">
<style type="text/css"><![CDATA[
.edge:hover path { stroke: red; }
.edge:hover polygon { stroke: red; fill: red; }
]]></style>
<script type="text/javascript"><![CDATA[
var edges = document.getElementsByTagName('g');
if (edges && edges.length) {
  for (var i=0;i<edges.length;i++) {
    if (edges[i].id.substr(0,4)=='edge') {
      edges[i].setAttribute('class','edge');
    }
  }
}
]]></script>
        <defs>
                <circle id="rim" cx="0" cy="0" r="7"/>
                <circle id="rim2" cx="0" cy="0" r="3.5"/>
                <g id="zoomPlus">
                        <use xlink:href="#rim" fill="#404040">
                                <set attributeName="fill" to="#808080" begin="zoomplus.mouseover" end="zoomplus.mouseout"/>
                        </use>
                        <path d="M-4,0h8M0,-4v8" fill="none" stroke="white" stroke-width="1.5" pointer-events="none"/>
                </g>
                <g id="zoomMin">
                        <use xlink:href="#rim" fill="#404040">
                                <set attributeName="fill" to="#808080" begin="zoomminus.mouseover" end="zoomminus.mouseout"/>
                        </use>
                        <path d="M-4,0h8" fill="none" stroke="white" stroke-width="1.5" pointer-events="none"/>
                </g>
                <g id="dirArrow">
                        <path fill="none" stroke="white" stroke-width="1.5" d="M0,-3.0v7 M-2.5,-0.5L0,-3.0L2.5,-0.5"/>
                </g>
               <g id="resetDef">
                       <use xlink:href="#rim2" fill="#404040">
                               <set attributeName="fill" to="#808080" begin="reset.mouseover" end="reset.mouseout"/>
                       </use>
               </g>
        </defs>

<script type="text/javascript">
var viewWidth = 1558;
var viewHeight = 302;
var sectionId = 'dynsection-1';
</script>
<script xlink:href="svgpan.js"/>
<svg id="graph" class="graph">
<g id="viewport">
<title>ConvectiveMassElement::ShellResidualElement</title>
<polygon fill="white" stroke="transparent" points="-4,4 -4,-298 1554,-298 1554,4 -4,4"/>
<!-- Node1 -->
<g id="node1" class="node">
<title>Node1</title>
<g id="a_node1"><a xlink:title=" ">
<polygon fill="#bfbfbf" stroke="black" points="1413,-207 1413,-237 1550,-237 1550,-207 1413,-207"/>
<text text-anchor="start" x="1421" y="-225" font-family="Helvetica,sans-Serif" font-size="10.00">ConvectiveMassElement</text>
<text text-anchor="middle" x="1481.5" y="-214" font-family="Helvetica,sans-Serif" font-size="10.00">::ShellResidualElement</text>
</a>
</g>
</g>
<!-- Node2 -->
<g id="node2" class="node">
<title>Node2</title>
<g id="a_node2"><a xlink:href="classFEMethod.html" target="_top" xlink:title=" ">
<polygon fill="white" stroke="black" points="1192,-250.5 1192,-269.5 1257,-269.5 1257,-250.5 1192,-250.5"/>
<text text-anchor="middle" x="1224.5" y="-257.5" font-family="Helvetica,sans-Serif" font-size="10.00">FEMethod</text>
</a>
</g>
</g>
<!-- Node2&#45;&gt;Node1 -->
<g id="edge1" class="edge">
<title>Node2&#45;&gt;Node1</title>
<path fill="none" stroke="midnightblue" d="M1267.24,-254.79C1301.59,-250.4 1351.52,-243.76 1395,-237 1400.81,-236.1 1406.83,-235.12 1412.87,-234.11"/>
<polygon fill="midnightblue" stroke="midnightblue" points="1266.58,-251.35 1257.11,-256.08 1267.47,-258.29 1266.58,-251.35"/>
</g>
<!-- Node3 -->
<g id="node3" class="node">
<title>Node3</title>
<g id="a_node3"><a xlink:href="structMoFEM_1_1DeprecatedCoreInterface.html" target="_top" xlink:title="Deprecated interface functions.">
<polygon fill="white" stroke="black" points="1134,-212.5 1134,-231.5 1315,-231.5 1315,-212.5 1134,-212.5"/>
<text text-anchor="middle" x="1224.5" y="-219.5" font-family="Helvetica,sans-Serif" font-size="10.00">MoFEM::DeprecatedCoreInterface</text>
</a>
</g>
</g>
<!-- Node3&#45;&gt;Node1 -->
<g id="edge2" class="edge">
<title>Node3&#45;&gt;Node1</title>
<path fill="none" stroke="#9a32cd" stroke-dasharray="5,2" d="M1325.32,-222C1354.65,-222 1386.04,-222 1412.86,-222"/>
<polygon fill="#9a32cd" stroke="#9a32cd" points="1325.04,-218.5 1315.04,-222 1325.04,-225.5 1325.04,-218.5"/>
<text text-anchor="middle" x="1364" y="-225" font-family="Helvetica,sans-Serif" font-size="10.00"> mField</text>
</g>
<!-- Node4 -->
<g id="node4" class="node">
<title>Node4</title>
<g id="a_node4"><a xlink:href="structMoFEM_1_1CoreInterface.html" target="_top" xlink:title="Interface.">
<polygon fill="white" stroke="black" points="920,-240.5 920,-259.5 1045,-259.5 1045,-240.5 920,-240.5"/>
<text text-anchor="middle" x="982.5" y="-247.5" font-family="Helvetica,sans-Serif" font-size="10.00">MoFEM::CoreInterface</text>
</a>
</g>
</g>
<!-- Node4&#45;&gt;Node3 -->
<g id="edge3" class="edge">
<title>Node4&#45;&gt;Node3</title>
<path fill="none" stroke="midnightblue" d="M1055.54,-241.6C1082.77,-238.42 1113.94,-234.78 1141.99,-231.51"/>
<polygon fill="midnightblue" stroke="midnightblue" points="1054.83,-238.15 1045.31,-242.79 1055.64,-245.11 1054.83,-238.15"/>
</g>
<!-- Node5 -->
<g id="node5" class="node">
<title>Node5</title>
<g id="a_node5"><a xlink:href="structMoFEM_1_1UnknownInterface.html" target="_top" xlink:title="base class for all interface classes">
<polygon fill="white" stroke="black" points="735,-240.5 735,-259.5 883,-259.5 883,-240.5 735,-240.5"/>
<text text-anchor="middle" x="809" y="-247.5" font-family="Helvetica,sans-Serif" font-size="10.00">MoFEM::UnknownInterface</text>
</a>
</g>
</g>
<!-- Node5&#45;&gt;Node4 -->
<g id="edge4" class="edge">
<title>Node5&#45;&gt;Node4</title>
<path fill="none" stroke="midnightblue" d="M893.29,-250C902.24,-250 911.22,-250 919.85,-250"/>
<polygon fill="midnightblue" stroke="midnightblue" points="893.23,-246.5 883.23,-250 893.23,-253.5 893.23,-246.5"/>
</g>
<!-- Node6 -->
<g id="node6" class="node">
<title>Node6</title>
<g id="a_node6"><a xlink:title=" ">
<polygon fill="white" stroke="#bfbfbf" points="386,-218.5 386,-281.5 627,-281.5 627,-218.5 386,-218.5"/>
<text text-anchor="start" x="394" y="-269.5" font-family="Helvetica,sans-Serif" font-size="10.00">multi_index_container</text>
<text text-anchor="start" x="394" y="-258.5" font-family="Helvetica,sans-Serif" font-size="10.00">&lt; UIdTypeMap, indexed</text>
<text text-anchor="start" x="394" y="-247.5" font-family="Helvetica,sans-Serif" font-size="10.00">_by&lt; hashed_unique&lt; member</text>
<text text-anchor="start" x="394" y="-236.5" font-family="Helvetica,sans-Serif" font-size="10.00">&lt; UIdTypeMap, boost::typeindex</text>
<text text-anchor="middle" x="506.5" y="-225.5" font-family="Helvetica,sans-Serif" font-size="10.00">::type_index, &amp;UIdTypeMap::classIdx &gt; &gt; &gt; &gt;</text>
</a>
</g>
</g>
<!-- Node6&#45;&gt;Node5 -->
<g id="edge5" class="edge">
<title>Node6&#45;&gt;Node5</title>
<path fill="none" stroke="#9a32cd" stroke-dasharray="5,2" d="M637.41,-250C670.69,-250 705.33,-250 734.62,-250"/>
<polygon fill="#9a32cd" stroke="#9a32cd" points="637.13,-246.5 627.13,-250 637.13,-253.5 637.13,-246.5"/>
<text text-anchor="middle" x="681" y="-253" font-family="Helvetica,sans-Serif" font-size="10.00"> iFaceTypeMap</text>
</g>
<!-- Node7 -->
<g id="node7" class="node">
<title>Node7</title>
<g id="a_node7"><a xlink:title=" ">
<polygon fill="white" stroke="#bfbfbf" points="0,-240.5 0,-259.5 125,-259.5 125,-240.5 0,-240.5"/>
<text text-anchor="middle" x="62.5" y="-247.5" font-family="Helvetica,sans-Serif" font-size="10.00">multi_index_container</text>
</a>
</g>
</g>
<!-- Node7&#45;&gt;Node6 -->
<g id="edge6" class="edge">
<title>Node7&#45;&gt;Node6</title>
<path fill="none" stroke="orange" stroke-dasharray="5,2" d="M135.56,-250C203.25,-250 305.79,-250 385.77,-250"/>
<polygon fill="orange" stroke="orange" points="135.42,-246.5 125.42,-250 135.42,-253.5 135.42,-246.5"/>
<text text-anchor="start" x="143" y="-286" font-family="Helvetica,sans-Serif" font-size="10.00"> &lt; UIdTypeMap, indexed</text>
<text text-anchor="start" x="143" y="-275" font-family="Helvetica,sans-Serif" font-size="10.00">_by&lt; hashed_unique&lt; member</text>
<text text-anchor="start" x="143" y="-264" font-family="Helvetica,sans-Serif" font-size="10.00">&lt; UIdTypeMap, boost::typeindex</text>
<text text-anchor="middle" x="255.5" y="-253" font-family="Helvetica,sans-Serif" font-size="10.00">::type_index, &amp;UIdTypeMap::classIdx &gt; &gt; &gt; &gt;</text>
</g>
<!-- Node8 -->
<g id="node8" class="node">
<title>Node8</title>
<g id="a_node8"><a xlink:href="structConvectiveMassElement_1_1MatShellCtx.html" target="_top" xlink:title=" ">
<polygon fill="white" stroke="black" points="1156,-135 1156,-165 1293,-165 1293,-135 1156,-135"/>
<text text-anchor="start" x="1164" y="-153" font-family="Helvetica,sans-Serif" font-size="10.00">ConvectiveMassElement</text>
<text text-anchor="middle" x="1224.5" y="-142" font-family="Helvetica,sans-Serif" font-size="10.00">::MatShellCtx</text>
</a>
</g>
</g>
<!-- Node8&#45;&gt;Node1 -->
<g id="edge7" class="edge">
<title>Node8&#45;&gt;Node1</title>
<path fill="none" stroke="#9a32cd" stroke-dasharray="5,2" d="M1288.34,-167.74C1330.9,-179.76 1386.54,-195.47 1426.98,-206.89"/>
<polygon fill="#9a32cd" stroke="#9a32cd" points="1289.22,-164.35 1278.65,-165.01 1287.32,-171.09 1289.22,-164.35"/>
<text text-anchor="middle" x="1364" y="-199" font-family="Helvetica,sans-Serif" font-size="10.00"> shellMatCtx</text>
</g>
<!-- Node9 -->
<g id="node9" class="node">
<title>Node9</title>
<g id="a_node9"><a xlink:href="classdouble.html" target="_top" xlink:title=" ">
<polygon fill="white" stroke="black" points="957.5,-202.5 957.5,-221.5 1007.5,-221.5 1007.5,-202.5 957.5,-202.5"/>
<text text-anchor="middle" x="982.5" y="-209.5" font-family="Helvetica,sans-Serif" font-size="10.00">double</text>
</a>
</g>
</g>
<!-- Node9&#45;&gt;Node8 -->
<g id="edge8" class="edge">
<title>Node9&#45;&gt;Node8</title>
<path fill="none" stroke="#9a32cd" stroke-dasharray="5,2" d="M1017.78,-207.34C1044.73,-203.3 1083.09,-196.74 1116,-188 1139.53,-181.75 1165.27,-172.74 1185.66,-165.05"/>
<polygon fill="#9a32cd" stroke="#9a32cd" points="1017.08,-203.9 1007.69,-208.81 1018.09,-210.83 1017.08,-203.9"/>
<text text-anchor="middle" x="1089.5" y="-202" font-family="Helvetica,sans-Serif" font-size="10.00"> ts_a</text>
</g>
<!-- Node10 -->
<g id="node10" class="node">
<title>Node10</title>
<g id="a_node10"><a xlink:title=" ">
<polygon fill="white" stroke="#bfbfbf" points="948.5,-159.5 948.5,-178.5 1016.5,-178.5 1016.5,-159.5 948.5,-159.5"/>
<text text-anchor="middle" x="982.5" y="-166.5" font-family="Helvetica,sans-Serif" font-size="10.00">VecScatter</text>
</a>
</g>
</g>
<!-- Node10&#45;&gt;Node8 -->
<g id="edge9" class="edge">
<title>Node10&#45;&gt;Node8</title>
<path fill="none" stroke="#9a32cd" stroke-dasharray="5,2" d="M1026.77,-165.57C1062.67,-162.73 1114.37,-158.64 1155.76,-155.36"/>
<polygon fill="#9a32cd" stroke="#9a32cd" points="1026.31,-162.1 1016.62,-166.38 1026.86,-169.08 1026.31,-162.1"/>
<text text-anchor="middle" x="1089.5" y="-176" font-family="Helvetica,sans-Serif" font-size="10.00"> scatterU</text>
<text text-anchor="middle" x="1089.5" y="-165" font-family="Helvetica,sans-Serif" font-size="10.00">scatterV</text>
</g>
<!-- Node11 -->
<g id="node11" class="node">
<title>Node11</title>
<g id="a_node11"><a xlink:href="classbool.html" target="_top" xlink:title=" ">
<polygon fill="white" stroke="black" points="963.5,-121.5 963.5,-140.5 1001.5,-140.5 1001.5,-121.5 963.5,-121.5"/>
<text text-anchor="middle" x="982.5" y="-128.5" font-family="Helvetica,sans-Serif" font-size="10.00">bool</text>
</a>
</g>
</g>
<!-- Node11&#45;&gt;Node8 -->
<g id="edge10" class="edge">
<title>Node11&#45;&gt;Node8</title>
<path fill="none" stroke="#9a32cd" stroke-dasharray="5,2" d="M1011.56,-133.22C1046.71,-136 1108.12,-140.87 1155.81,-144.64"/>
<polygon fill="#9a32cd" stroke="#9a32cd" points="1011.78,-129.73 1001.54,-132.43 1011.23,-136.71 1011.78,-129.73"/>
<text text-anchor="middle" x="1089.5" y="-144" font-family="Helvetica,sans-Serif" font-size="10.00"> iNitialized</text>
</g>
<!-- Node12 -->
<g id="node12" class="node">
<title>Node12</title>
<g id="a_node12"><a xlink:title=" ">
<polygon fill="white" stroke="#bfbfbf" points="965,-67.5 965,-86.5 1000,-86.5 1000,-67.5 965,-67.5"/>
<text text-anchor="middle" x="982.5" y="-74.5" font-family="Helvetica,sans-Serif" font-size="10.00">Mat</text>
</a>
</g>
</g>
<!-- Node12&#45;&gt;Node8 -->
<g id="edge11" class="edge">
<title>Node12&#45;&gt;Node8</title>
<path fill="none" stroke="#9a32cd" stroke-dasharray="5,2" d="M1010.4,-79.57C1037.53,-82.64 1080.36,-88.83 1116,-100 1144.48,-108.92 1175.19,-123.78 1196.46,-134.98"/>
<polygon fill="#9a32cd" stroke="#9a32cd" points="1010.46,-76.05 1000.15,-78.47 1009.72,-83.01 1010.46,-76.05"/>
<text text-anchor="middle" x="1089.5" y="-125" font-family="Helvetica,sans-Serif" font-size="10.00"> K</text>
<text text-anchor="middle" x="1089.5" y="-114" font-family="Helvetica,sans-Serif" font-size="10.00">M</text>
<text text-anchor="middle" x="1089.5" y="-103" font-family="Helvetica,sans-Serif" font-size="10.00">barK</text>
</g>
<!-- Node13 -->
<g id="node13" class="node">
<title>Node13</title>
<g id="a_node13"><a xlink:title=" ">
<polygon fill="white" stroke="#bfbfbf" points="965.5,-0.5 965.5,-19.5 999.5,-19.5 999.5,-0.5 965.5,-0.5"/>
<text text-anchor="middle" x="982.5" y="-7.5" font-family="Helvetica,sans-Serif" font-size="10.00">Vec</text>
</a>
</g>
</g>
<!-- Node13&#45;&gt;Node8 -->
<g id="edge12" class="edge">
<title>Node13&#45;&gt;Node8</title>
<path fill="none" stroke="#9a32cd" stroke-dasharray="5,2" d="M1009.82,-11.29C1037.75,-13.64 1082.41,-20.28 1116,-39 1159.35,-63.16 1196.19,-110.37 1213.28,-134.7"/>
<polygon fill="#9a32cd" stroke="#9a32cd" points="1009.87,-7.78 999.64,-10.56 1009.37,-14.77 1009.87,-7.78"/>
<text text-anchor="middle" x="1089.5" y="-75" font-family="Helvetica,sans-Serif" font-size="10.00"> Mv</text>
<text text-anchor="middle" x="1089.5" y="-64" font-family="Helvetica,sans-Serif" font-size="10.00">Ku</text>
<text text-anchor="middle" x="1089.5" y="-53" font-family="Helvetica,sans-Serif" font-size="10.00">u</text>
<text text-anchor="middle" x="1089.5" y="-42" font-family="Helvetica,sans-Serif" font-size="10.00">v</text>
</g>
</g>
</svg>
        <g id="navigator" transform="translate(0 0)" fill="#404254">
                <rect fill="#f2f5e9" fill-opacity="0.5" stroke="#606060" stroke-width=".5" x="0" y="0" width="60" height="60"/>
                <use id="zoomplus" xlink:href="#zoomPlus" x="17" y="9" onmousedown="handleZoom(evt,'in')"/>
                <use id="zoomminus" xlink:href="#zoomMin" x="42" y="9" onmousedown="handleZoom(evt,'out')"/>
                <use id="reset" xlink:href="#resetDef" x="30" y="36" onmousedown="handleReset()"/>
                <g id="arrowUp" xlink:href="#dirArrow" transform="translate(30 24)" onmousedown="handlePan(0,-1)">
                  <use xlink:href="#rim" fill="#404040">
                        <set attributeName="fill" to="#808080" begin="arrowUp.mouseover" end="arrowUp.mouseout"/>
                  </use>
                  <path fill="none" stroke="white" stroke-width="1.5" d="M0,-3.0v7 M-2.5,-0.5L0,-3.0L2.5,-0.5"/>
                </g>
                <g id="arrowRight" xlink:href="#dirArrow" transform="rotate(90) translate(36 -43)" onmousedown="handlePan(1,0)">
                  <use xlink:href="#rim" fill="#404040">
                        <set attributeName="fill" to="#808080" begin="arrowRight.mouseover" end="arrowRight.mouseout"/>
                  </use>
                  <path fill="none" stroke="white" stroke-width="1.5" d="M0,-3.0v7 M-2.5,-0.5L0,-3.0L2.5,-0.5"/>
                </g>
                <g id="arrowDown" xlink:href="#dirArrow" transform="rotate(180) translate(-30 -48)" onmousedown="handlePan(0,1)">
                  <use xlink:href="#rim" fill="#404040">
                        <set attributeName="fill" to="#808080" begin="arrowDown.mouseover" end="arrowDown.mouseout"/>
                  </use>
                  <path fill="none" stroke="white" stroke-width="1.5" d="M0,-3.0v7 M-2.5,-0.5L0,-3.0L2.5,-0.5"/>
                </g>
                <g id="arrowLeft" xlink:href="#dirArrow" transform="rotate(270) translate(-36 17)" onmousedown="handlePan(-1,0)">
                  <use xlink:href="#rim" fill="#404040">
                        <set attributeName="fill" to="#808080" begin="arrowLeft.mouseover" end="arrowLeft.mouseout"/>
                  </use>
                  <path fill="none" stroke="white" stroke-width="1.5" d="M0,-3.0v7 M-2.5,-0.5L0,-3.0L2.5,-0.5"/>
                </g>
        </g>
        <svg viewBox="0 0 15 15" width="100%" height="30px" preserveAspectRatio="xMaxYMin meet">
         <g id="arrow_out" transform="scale(0.3 0.3)">
          <a xlink:href="structConvectiveMassElement_1_1ShellResidualElement__coll__graph_org.svg" target="_base">
           <rect id="button" ry="5" rx="5" y="6" x="6" height="38" width="38"
                fill="#f2f5e9" fill-opacity="0.5" stroke="#606060" stroke-width="1.0"/>
           <path id="arrow"
             d="M 11.500037,31.436501 C 11.940474,20.09759 22.043105,11.32322 32.158766,21.979434 L 37.068811,17.246167 C 37.068811,17.246167 37.088388,32 37.088388,32 L 22.160133,31.978069 C 22.160133,31.978069 26.997745,27.140456 26.997745,27.140456 C 18.528582,18.264221 13.291696,25.230495 11.500037,31.436501 z"
             style="fill:#404040;"/>
          </a>
         </g>
        </svg>
</svg>
