<?xml version="1.0" encoding="UTF-8" standalone="no"?>
<!DOCTYPE svg PUBLIC "-//W3C//DTD SVG 1.1//EN"
 "http://www.w3.org/Graphics/SVG/1.1/DTD/svg11.dtd">
<!-- Generated by graphviz version 9.0.0 (20230911.1827)
 -->
<!-- Title: ContactOps::OpAssembleTotalContactTractionImpl&lt; DIM, GAUSS, BoundaryEleOp &gt; Pages: 1 -->
<svg width="169pt" height="227pt"
 viewBox="0.00 0.00 168.75 226.75" xmlns="http://www.w3.org/2000/svg" xmlns:xlink="http://www.w3.org/1999/xlink">
<g id="graph0" class="graph" transform="scale(1 1) rotate(0) translate(4 222.75)">
<title>ContactOps::OpAssembleTotalContactTractionImpl&lt; DIM, GAUSS, BoundaryEleOp &gt;</title>
<!-- Node1 -->
<g id="node1" class="node">
<title>Node1</title>
<g id="a_node1"><a xlink:title=" ">
<polygon fill="#999999" stroke="#666666" points="156.25,-41.75 4.5,-41.75 4.5,0 156.25,0 156.25,-41.75"/>
<text text-anchor="start" x="12.5" y="-28.25" font-family="Helvetica,sans-Serif" font-size="10.00">ContactOps::OpAssembleTotal</text>
<text text-anchor="start" x="12.5" y="-17" font-family="Helvetica,sans-Serif" font-size="10.00">ContactTractionImpl&lt; DIM,</text>
<text text-anchor="middle" x="80.38" y="-5.75" font-family="Helvetica,sans-Serif" font-size="10.00"> GAUSS, BoundaryEleOp &gt;</text>
</a>
</g>
</g>
<!-- Node2 -->
<g id="node2" class="node">
<title>Node2</title>
<g id="a_node2"><a xlink:href="struct_mo_f_e_m_1_1_face_element_forces_and_sources_core_1_1_user_data_operator.html" target="_top" xlink:title="default operator for TRI element">
<polygon fill="white" stroke="#666666" points="122.5,-97 38.25,-97 38.25,-77.75 122.5,-77.75 122.5,-97"/>
<text text-anchor="middle" x="80.38" y="-83.5" font-family="Helvetica,sans-Serif" font-size="10.00">BoundaryEleOp</text>
</a>
</g>
</g>
<!-- Node2&#45;&gt;Node1 -->
<g id="edge1" class="edge">
<title>Node2&#45;&gt;Node1</title>
<path fill="none" stroke="#63b8ff" d="M74.07,-66.23C73.48,-58.57 73.48,-49.85 74.05,-42.18"/>
<polygon fill="#63b8ff" stroke="#63b8ff" points="70.56,-66.44 75.33,-75.91 77.51,-65.54 70.56,-66.44"/>
</g>
<!-- Node2&#45;&gt;Node1 -->
<g id="edge4" class="edge">
<title>Node2&#45;&gt;Node1</title>
<path fill="none" stroke="#63b8ff" d="M86.68,-66.23C87.27,-58.57 87.27,-49.85 86.7,-42.18"/>
<polygon fill="#63b8ff" stroke="#63b8ff" points="83.24,-65.54 85.42,-75.91 90.19,-66.44 83.24,-65.54"/>
</g>
<!-- Node3 -->
<g id="node3" class="node">
<title>Node3</title>
<g id="a_node3"><a xlink:href="struct_mo_f_e_m_1_1_forces_and_sources_core_1_1_user_data_operator.html" target="_top" xlink:title=" ">
<polygon fill="white" stroke="#666666" points="160.75,-163.5 0,-163.5 0,-133 160.75,-133 160.75,-163.5"/>
<text text-anchor="start" x="8" y="-150" font-family="Helvetica,sans-Serif" font-size="10.00">MoFEM::ForcesAndSourcesCore</text>
<text text-anchor="middle" x="80.38" y="-138.75" font-family="Helvetica,sans-Serif" font-size="10.00">::UserDataOperator</text>
</a>
</g>
</g>
<!-- Node3&#45;&gt;Node2 -->
<g id="edge2" class="edge">
<title>Node3&#45;&gt;Node2</title>
<path fill="none" stroke="#63b8ff" d="M80.38,-121.23C80.38,-112.73 80.38,-103.84 80.38,-97.45"/>
<polygon fill="#63b8ff" stroke="#63b8ff" points="76.88,-121.18 80.38,-131.18 83.88,-121.18 76.88,-121.18"/>
</g>
<!-- Node4 -->
<g id="node4" class="node">
<title>Node4</title>
<g id="a_node4"><a xlink:href="struct_mo_f_e_m_1_1_data_operator.html" target="_top" xlink:title="base operator to do operations at Gauss Pt. level">
<polygon fill="white" stroke="#666666" points="137.88,-218.75 22.88,-218.75 22.88,-199.5 137.88,-199.5 137.88,-218.75"/>
<text text-anchor="middle" x="80.38" y="-205.25" font-family="Helvetica,sans-Serif" font-size="10.00">MoFEM::DataOperator</text>
</a>
</g>
</g>
<!-- Node4&#45;&gt;Node3 -->
<g id="edge3" class="edge">
<title>Node4&#45;&gt;Node3</title>
<path fill="none" stroke="#63b8ff" d="M80.38,-187.92C80.38,-179.99 80.38,-171.06 80.38,-163.78"/>
<polygon fill="#63b8ff" stroke="#63b8ff" points="76.88,-187.67 80.38,-197.67 83.88,-187.67 76.88,-187.67"/>
</g>
</g>
</svg>
