<?xml version="1.0" encoding="UTF-8" standalone="no"?>
<!DOCTYPE svg PUBLIC "-//W3C//DTD SVG 1.1//EN"
 "http://www.w3.org/Graphics/SVG/1.1/DTD/svg11.dtd">
<!-- Generated by graphviz version 2.43.0 (0)
 -->
<!-- Title: EshelbianPlasticity::HMHHencky Pages: 1 -->
<svg width="1646pt" height="205pt"
 viewBox="0.00 0.00 1646.00 205.00" xmlns="http://www.w3.org/2000/svg" xmlns:xlink="http://www.w3.org/1999/xlink">
<g id="graph0" class="graph" transform="scale(1 1) rotate(0) translate(4 201)">
<title>EshelbianPlasticity::HMHHencky</title>
<polygon fill="white" stroke="transparent" points="-4,4 -4,-201 1642,-201 1642,4 -4,4"/>
<!-- Node1 -->
<g id="node1" class="node">
<title>Node1</title>
<g id="a_node1"><a xlink:title=" ">
<polygon fill="#bfbfbf" stroke="black" points="1529,-83 1529,-113 1638,-113 1638,-83 1529,-83"/>
<text text-anchor="start" x="1537" y="-101" font-family="Helvetica,sans-Serif" font-size="10.00">EshelbianPlasticity</text>
<text text-anchor="middle" x="1583.5" y="-90" font-family="Helvetica,sans-Serif" font-size="10.00">::HMHHencky</text>
</a>
</g>
</g>
<!-- Node2 -->
<g id="node2" class="node">
<title>Node2</title>
<g id="a_node2"><a xlink:href="structEshelbianPlasticity_1_1PhysicalEquations.html" target="_top" xlink:title=" ">
<polygon fill="white" stroke="black" points="1294,-149 1294,-179 1405,-179 1405,-149 1294,-149"/>
<text text-anchor="start" x="1302" y="-167" font-family="Helvetica,sans-Serif" font-size="10.00">EshelbianPlasticity</text>
<text text-anchor="middle" x="1349.5" y="-156" font-family="Helvetica,sans-Serif" font-size="10.00">::PhysicalEquations</text>
</a>
</g>
</g>
<!-- Node2&#45;&gt;Node1 -->
<g id="edge1" class="edge">
<title>Node2&#45;&gt;Node1</title>
<path fill="none" stroke="midnightblue" d="M1415.27,-156.79C1444.96,-152.35 1480.31,-145.45 1511,-135 1527.27,-129.46 1544.42,-120.7 1557.83,-113.1"/>
<polygon fill="midnightblue" stroke="midnightblue" points="1414.42,-153.38 1405.02,-158.26 1415.41,-160.31 1414.42,-153.38"/>
</g>
<!-- Node3 -->
<g id="node3" class="node">
<title>Node3</title>
<g id="a_node3"><a xlink:title=" ">
<polygon fill="white" stroke="#bfbfbf" points="931,-154.5 931,-173.5 1034,-173.5 1034,-154.5 931,-154.5"/>
<text text-anchor="middle" x="982.5" y="-161.5" font-family="Helvetica,sans-Serif" font-size="10.00">vector&lt; double &gt;</text>
</a>
</g>
</g>
<!-- Node3&#45;&gt;Node2 -->
<g id="edge2" class="edge">
<title>Node3&#45;&gt;Node2</title>
<path fill="none" stroke="#9a32cd" stroke-dasharray="5,2" d="M1044.62,-164C1114.21,-164 1226.87,-164 1293.71,-164"/>
<polygon fill="#9a32cd" stroke="#9a32cd" points="1044.25,-160.5 1034.25,-164 1044.25,-167.5 1044.25,-160.5"/>
<text text-anchor="middle" x="1152" y="-189" font-family="Helvetica,sans-Serif" font-size="10.00"> activeVariables</text>
<text text-anchor="middle" x="1152" y="-178" font-family="Helvetica,sans-Serif" font-size="10.00">dependentVariablesPiola</text>
<text text-anchor="middle" x="1152" y="-167" font-family="Helvetica,sans-Serif" font-size="10.00">dependentVariablesPiolaDirevatives</text>
</g>
<!-- Node4 -->
<g id="node4" class="node">
<title>Node4</title>
<g id="a_node4"><a xlink:href="classdouble.html" target="_top" xlink:title=" ">
<polygon fill="white" stroke="black" points="1324.5,-110.5 1324.5,-129.5 1374.5,-129.5 1374.5,-110.5 1324.5,-110.5"/>
<text text-anchor="middle" x="1349.5" y="-117.5" font-family="Helvetica,sans-Serif" font-size="10.00">double</text>
</a>
</g>
</g>
<!-- Node4&#45;&gt;Node1 -->
<g id="edge3" class="edge">
<title>Node4&#45;&gt;Node1</title>
<path fill="none" stroke="#9a32cd" stroke-dasharray="5,2" d="M1384.94,-116.73C1422.92,-113.13 1484.51,-107.29 1528.83,-103.09"/>
<polygon fill="#9a32cd" stroke="#9a32cd" points="1384.51,-113.26 1374.89,-117.69 1385.18,-120.23 1384.51,-113.26"/>
<text text-anchor="middle" x="1484.5" y="-123" font-family="Helvetica,sans-Serif" font-size="10.00"> E</text>
<text text-anchor="middle" x="1484.5" y="-112" font-family="Helvetica,sans-Serif" font-size="10.00">nu</text>
</g>
<!-- Node5 -->
<g id="node5" class="node">
<title>Node5</title>
<g id="a_node5"><a xlink:title=" ">
<polygon fill="white" stroke="#bfbfbf" points="1274,-61 1274,-91 1425,-91 1425,-61 1274,-61"/>
<text text-anchor="start" x="1282" y="-79" font-family="Helvetica,sans-Serif" font-size="10.00">vector&lt; EshelbianPlasticity</text>
<text text-anchor="middle" x="1349.5" y="-68" font-family="Helvetica,sans-Serif" font-size="10.00">::HMHHencky::BlockData &gt;</text>
</a>
</g>
</g>
<!-- Node5&#45;&gt;Node1 -->
<g id="edge4" class="edge">
<title>Node5&#45;&gt;Node1</title>
<path fill="none" stroke="#9a32cd" stroke-dasharray="5,2" d="M1435.22,-83C1459.69,-85.13 1486.42,-87.55 1511,-90 1516.72,-90.57 1522.69,-91.19 1528.64,-91.83"/>
<polygon fill="#9a32cd" stroke="#9a32cd" points="1435.52,-79.51 1425.25,-82.14 1434.91,-86.49 1435.52,-79.51"/>
<text text-anchor="middle" x="1484.5" y="-93" font-family="Helvetica,sans-Serif" font-size="10.00"> blockData</text>
</g>
<!-- Node6 -->
<g id="node6" class="node">
<title>Node6</title>
<g id="a_node6"><a xlink:href="structMoFEM_1_1DeprecatedCoreInterface.html" target="_top" xlink:title="Deprecated interface functions.">
<polygon fill="white" stroke="black" points="1259,-22.5 1259,-41.5 1440,-41.5 1440,-22.5 1259,-22.5"/>
<text text-anchor="middle" x="1349.5" y="-29.5" font-family="Helvetica,sans-Serif" font-size="10.00">MoFEM::DeprecatedCoreInterface</text>
</a>
</g>
</g>
<!-- Node6&#45;&gt;Node1 -->
<g id="edge5" class="edge">
<title>Node6&#45;&gt;Node1</title>
<path fill="none" stroke="#9a32cd" stroke-dasharray="5,2" d="M1409.59,-43.67C1440.17,-50.29 1477.93,-59.38 1511,-70 1522.68,-73.75 1535.2,-78.42 1546.44,-82.87"/>
<polygon fill="#9a32cd" stroke="#9a32cd" points="1410.02,-40.18 1399.51,-41.52 1408.56,-47.03 1410.02,-40.18"/>
<text text-anchor="middle" x="1484.5" y="-73" font-family="Helvetica,sans-Serif" font-size="10.00"> mField</text>
</g>
<!-- Node7 -->
<g id="node7" class="node">
<title>Node7</title>
<g id="a_node7"><a xlink:href="structMoFEM_1_1CoreInterface.html" target="_top" xlink:title="Interface.">
<polygon fill="white" stroke="black" points="920,-22.5 920,-41.5 1045,-41.5 1045,-22.5 920,-22.5"/>
<text text-anchor="middle" x="982.5" y="-29.5" font-family="Helvetica,sans-Serif" font-size="10.00">MoFEM::CoreInterface</text>
</a>
</g>
</g>
<!-- Node7&#45;&gt;Node6 -->
<g id="edge6" class="edge">
<title>Node7&#45;&gt;Node6</title>
<path fill="none" stroke="midnightblue" d="M1055.23,-32C1113.5,-32 1195.99,-32 1258.66,-32"/>
<polygon fill="midnightblue" stroke="midnightblue" points="1055,-28.5 1045,-32 1055,-35.5 1055,-28.5"/>
</g>
<!-- Node8 -->
<g id="node8" class="node">
<title>Node8</title>
<g id="a_node8"><a xlink:href="structMoFEM_1_1UnknownInterface.html" target="_top" xlink:title="base class for all interface classes">
<polygon fill="white" stroke="black" points="735,-22.5 735,-41.5 883,-41.5 883,-22.5 735,-22.5"/>
<text text-anchor="middle" x="809" y="-29.5" font-family="Helvetica,sans-Serif" font-size="10.00">MoFEM::UnknownInterface</text>
</a>
</g>
</g>
<!-- Node8&#45;&gt;Node7 -->
<g id="edge7" class="edge">
<title>Node8&#45;&gt;Node7</title>
<path fill="none" stroke="midnightblue" d="M893.29,-32C902.24,-32 911.22,-32 919.85,-32"/>
<polygon fill="midnightblue" stroke="midnightblue" points="893.23,-28.5 883.23,-32 893.23,-35.5 893.23,-28.5"/>
</g>
<!-- Node9 -->
<g id="node9" class="node">
<title>Node9</title>
<g id="a_node9"><a xlink:title=" ">
<polygon fill="white" stroke="#bfbfbf" points="386,-0.5 386,-63.5 627,-63.5 627,-0.5 386,-0.5"/>
<text text-anchor="start" x="394" y="-51.5" font-family="Helvetica,sans-Serif" font-size="10.00">multi_index_container</text>
<text text-anchor="start" x="394" y="-40.5" font-family="Helvetica,sans-Serif" font-size="10.00">&lt; UIdTypeMap, indexed</text>
<text text-anchor="start" x="394" y="-29.5" font-family="Helvetica,sans-Serif" font-size="10.00">_by&lt; hashed_unique&lt; member</text>
<text text-anchor="start" x="394" y="-18.5" font-family="Helvetica,sans-Serif" font-size="10.00">&lt; UIdTypeMap, boost::typeindex</text>
<text text-anchor="middle" x="506.5" y="-7.5" font-family="Helvetica,sans-Serif" font-size="10.00">::type_index, &amp;UIdTypeMap::classIdx &gt; &gt; &gt; &gt;</text>
</a>
</g>
</g>
<!-- Node9&#45;&gt;Node8 -->
<g id="edge8" class="edge">
<title>Node9&#45;&gt;Node8</title>
<path fill="none" stroke="#9a32cd" stroke-dasharray="5,2" d="M637.41,-32C670.69,-32 705.33,-32 734.62,-32"/>
<polygon fill="#9a32cd" stroke="#9a32cd" points="637.13,-28.5 627.13,-32 637.13,-35.5 637.13,-28.5"/>
<text text-anchor="middle" x="681" y="-35" font-family="Helvetica,sans-Serif" font-size="10.00"> iFaceTypeMap</text>
</g>
<!-- Node10 -->
<g id="node10" class="node">
<title>Node10</title>
<g id="a_node10"><a xlink:title=" ">
<polygon fill="white" stroke="#bfbfbf" points="0,-22.5 0,-41.5 125,-41.5 125,-22.5 0,-22.5"/>
<text text-anchor="middle" x="62.5" y="-29.5" font-family="Helvetica,sans-Serif" font-size="10.00">multi_index_container</text>
</a>
</g>
</g>
<!-- Node10&#45;&gt;Node9 -->
<g id="edge9" class="edge">
<title>Node10&#45;&gt;Node9</title>
<path fill="none" stroke="orange" stroke-dasharray="5,2" d="M135.56,-32C203.25,-32 305.79,-32 385.77,-32"/>
<polygon fill="orange" stroke="orange" points="135.42,-28.5 125.42,-32 135.42,-35.5 135.42,-28.5"/>
<text text-anchor="start" x="143" y="-68" font-family="Helvetica,sans-Serif" font-size="10.00"> &lt; UIdTypeMap, indexed</text>
<text text-anchor="start" x="143" y="-57" font-family="Helvetica,sans-Serif" font-size="10.00">_by&lt; hashed_unique&lt; member</text>
<text text-anchor="start" x="143" y="-46" font-family="Helvetica,sans-Serif" font-size="10.00">&lt; UIdTypeMap, boost::typeindex</text>
<text text-anchor="middle" x="255.5" y="-35" font-family="Helvetica,sans-Serif" font-size="10.00">::type_index, &amp;UIdTypeMap::classIdx &gt; &gt; &gt; &gt;</text>
</g>
</g>
</svg>
