<?xml version="1.0" encoding="UTF-8" standalone="no"?>
<!DOCTYPE svg PUBLIC "-//W3C//DTD SVG 1.1//EN"
 "http://www.w3.org/Graphics/SVG/1.1/DTD/svg11.dtd">
<!-- Generated by graphviz version 2.43.0 (0)
 -->
<!-- Title: MoFEM::OpCalculateHVecTensorDivergence&lt; Tensor_Dim0, Tensor_Dim1, CoordSys &gt; Pages: 1 -->
<svg width="182pt" height="173pt"
 viewBox="0.00 0.00 182.00 173.00" xmlns="http://www.w3.org/2000/svg" xmlns:xlink="http://www.w3.org/1999/xlink">
<g id="graph0" class="graph" transform="scale(1 1) rotate(0) translate(4 169)">
<title>MoFEM::OpCalculateHVecTensorDivergence&lt; Tensor_Dim0, Tensor_Dim1, CoordSys &gt;</title>
<polygon fill="white" stroke="transparent" points="-4,4 -4,-169 178,-169 178,4 -4,4"/>
<!-- Node1 -->
<g id="node1" class="node">
<title>Node1</title>
<g id="a_node1"><a xlink:title="Calculate divergence of tonsorial field using vectorial base.">
<polygon fill="#bfbfbf" stroke="black" points="0,-0.5 0,-41.5 174,-41.5 174,-0.5 0,-0.5"/>
<text text-anchor="start" x="8" y="-29.5" font-family="Helvetica,sans-Serif" font-size="10.00">MoFEM::OpCalculateHVecTensor</text>
<text text-anchor="start" x="8" y="-18.5" font-family="Helvetica,sans-Serif" font-size="10.00">Divergence&lt; Tensor_Dim0,</text>
<text text-anchor="middle" x="87" y="-7.5" font-family="Helvetica,sans-Serif" font-size="10.00"> Tensor_Dim1, CoordSys &gt;</text>
</a>
</g>
</g>
<!-- Node2 -->
<g id="node2" class="node">
<title>Node2</title>
<g id="a_node2"><a xlink:href="structMoFEM_1_1ForcesAndSourcesCore_1_1UserDataOperator.html" target="_top" xlink:title=" ">
<polygon fill="white" stroke="black" points="2,-78.5 2,-108.5 172,-108.5 172,-78.5 2,-78.5"/>
<text text-anchor="start" x="10" y="-96.5" font-family="Helvetica,sans-Serif" font-size="10.00">MoFEM::ForcesAndSourcesCore</text>
<text text-anchor="middle" x="87" y="-85.5" font-family="Helvetica,sans-Serif" font-size="10.00">::UserDataOperator</text>
</a>
</g>
</g>
<!-- Node2&#45;&gt;Node1 -->
<g id="edge1" class="edge">
<title>Node2&#45;&gt;Node1</title>
<path fill="none" stroke="midnightblue" d="M87,-67.98C87,-59.35 87,-49.76 87,-41.59"/>
<polygon fill="midnightblue" stroke="midnightblue" points="83.5,-68.23 87,-78.23 90.5,-68.23 83.5,-68.23"/>
</g>
<!-- Node3 -->
<g id="node3" class="node">
<title>Node3</title>
<g id="a_node3"><a xlink:href="structMoFEM_1_1DataOperator.html" target="_top" xlink:title="base operator to do operations at Gauss Pt. level">
<polygon fill="white" stroke="black" points="24.5,-145.5 24.5,-164.5 149.5,-164.5 149.5,-145.5 24.5,-145.5"/>
<text text-anchor="middle" x="87" y="-152.5" font-family="Helvetica,sans-Serif" font-size="10.00">MoFEM::DataOperator</text>
</a>
</g>
</g>
<!-- Node3&#45;&gt;Node2 -->
<g id="edge2" class="edge">
<title>Node3&#45;&gt;Node2</title>
<path fill="none" stroke="midnightblue" d="M87,-135.23C87,-126.59 87,-116.5 87,-108.52"/>
<polygon fill="midnightblue" stroke="midnightblue" points="83.5,-135.48 87,-145.48 90.5,-135.48 83.5,-135.48"/>
</g>
</g>
</svg>
