<?xml version="1.0" encoding="UTF-8" standalone="no"?>
<!DOCTYPE svg PUBLIC "-//W3C//DTD SVG 1.1//EN"
 "http://www.w3.org/Graphics/SVG/1.1/DTD/svg11.dtd">
<!-- Generated by graphviz version 2.43.0 (0)
 -->
<!-- Title: MoFEM::OpSchurAssembleEndImpl&lt; OP_SCHUR_ASSEMBLE_BASE &gt; Pages: 1 -->
<svg width="356pt" height="242pt"
 viewBox="0.00 0.00 356.00 242.00" xmlns="http://www.w3.org/2000/svg" xmlns:xlink="http://www.w3.org/1999/xlink">
<g id="graph0" class="graph" transform="scale(1 1) rotate(0) translate(4 238)">
<title>MoFEM::OpSchurAssembleEndImpl&lt; OP_SCHUR_ASSEMBLE_BASE &gt;</title>
<polygon fill="white" stroke="transparent" points="-4,4 -4,-238 352,-238 352,4 -4,4"/>
<!-- Node1 -->
<g id="node1" class="node">
<title>Node1</title>
<g id="a_node1"><a xlink:title="Assemble Schur complement (Implementation)">
<polygon fill="#bfbfbf" stroke="black" points="72.5,-146.5 72.5,-176.5 274.5,-176.5 274.5,-146.5 72.5,-146.5"/>
<text text-anchor="start" x="80.5" y="-164.5" font-family="Helvetica,sans-Serif" font-size="10.00">MoFEM::OpSchurAssembleEnd</text>
<text text-anchor="middle" x="173.5" y="-153.5" font-family="Helvetica,sans-Serif" font-size="10.00">Impl&lt; OP_SCHUR_ASSEMBLE_BASE &gt;</text>
</a>
</g>
</g>
<!-- Node3 -->
<g id="node3" class="node">
<title>Node3</title>
<g id="a_node3"><a xlink:href="structMoFEM_1_1OpSchurAssembleEndImpl.html" target="_top" xlink:title=" ">
<polygon fill="white" stroke="black" points="76,-68.5 76,-98.5 271,-98.5 271,-68.5 76,-68.5"/>
<text text-anchor="start" x="84" y="-86.5" font-family="Helvetica,sans-Serif" font-size="10.00">MoFEM::OpSchurAssembleEnd</text>
<text text-anchor="middle" x="173.5" y="-75.5" font-family="Helvetica,sans-Serif" font-size="10.00">Impl&lt; OpSchurAssembleBaseImpl &gt;</text>
</a>
</g>
</g>
<!-- Node1&#45;&gt;Node3 -->
<g id="edge2" class="edge">
<title>Node1&#45;&gt;Node3</title>
<path fill="none" stroke="orange" stroke-dasharray="5,2" d="M173.5,-136.09C173.5,-123.76 173.5,-109.22 173.5,-98.73"/>
<polygon fill="orange" stroke="orange" points="170,-136.2 173.5,-146.2 177,-136.21 170,-136.2"/>
<text text-anchor="middle" x="253.5" y="-120" font-family="Helvetica,sans-Serif" font-size="10.00"> &lt; OpSchurAssembleBaseImpl &gt;</text>
</g>
<!-- Node2 -->
<g id="node2" class="node">
<title>Node2</title>
<g id="a_node2"><a xlink:href="classOP__SCHUR__ASSEMBLE__BASE.html" target="_top" xlink:title=" ">
<polygon fill="white" stroke="black" points="94.5,-214.5 94.5,-233.5 252.5,-233.5 252.5,-214.5 94.5,-214.5"/>
<text text-anchor="middle" x="173.5" y="-221.5" font-family="Helvetica,sans-Serif" font-size="10.00">OP_SCHUR_ASSEMBLE_BASE</text>
</a>
</g>
</g>
<!-- Node2&#45;&gt;Node1 -->
<g id="edge1" class="edge">
<title>Node2&#45;&gt;Node1</title>
<path fill="none" stroke="midnightblue" d="M173.5,-204.22C173.5,-195.36 173.5,-184.96 173.5,-176.76"/>
<polygon fill="midnightblue" stroke="midnightblue" points="170,-204.33 173.5,-214.33 177,-204.33 170,-204.33"/>
</g>
<!-- Node4 -->
<g id="node4" class="node">
<title>Node4</title>
<g id="a_node4"><a xlink:href="structMoFEM_1_1OpSchurAssembleEnd_3_01SchurDGESV_01_4.html" target="_top" xlink:title=" ">
<polygon fill="white" stroke="black" points="0,-0.5 0,-30.5 165,-30.5 165,-0.5 0,-0.5"/>
<text text-anchor="start" x="8" y="-18.5" font-family="Helvetica,sans-Serif" font-size="10.00">MoFEM::OpSchurAssembleEnd</text>
<text text-anchor="middle" x="82.5" y="-7.5" font-family="Helvetica,sans-Serif" font-size="10.00">&lt; SchurDGESV &gt;</text>
</a>
</g>
</g>
<!-- Node3&#45;&gt;Node4 -->
<g id="edge3" class="edge">
<title>Node3&#45;&gt;Node4</title>
<path fill="none" stroke="midnightblue" d="M145.37,-62.1C131.27,-51.87 114.55,-39.74 101.89,-30.57"/>
<polygon fill="midnightblue" stroke="midnightblue" points="143.6,-65.14 153.75,-68.18 147.71,-59.47 143.6,-65.14"/>
</g>
<!-- Node5 -->
<g id="node5" class="node">
<title>Node5</title>
<g id="a_node5"><a xlink:href="structMoFEM_1_1OpSchurAssembleEnd_3_01SchurDSYSV_01_4.html" target="_top" xlink:title=" ">
<polygon fill="white" stroke="black" points="183,-0.5 183,-30.5 348,-30.5 348,-0.5 183,-0.5"/>
<text text-anchor="start" x="191" y="-18.5" font-family="Helvetica,sans-Serif" font-size="10.00">MoFEM::OpSchurAssembleEnd</text>
<text text-anchor="middle" x="265.5" y="-7.5" font-family="Helvetica,sans-Serif" font-size="10.00">&lt; SchurDSYSV &gt;</text>
</a>
</g>
</g>
<!-- Node3&#45;&gt;Node5 -->
<g id="edge4" class="edge">
<title>Node3&#45;&gt;Node5</title>
<path fill="none" stroke="midnightblue" d="M201.94,-62.1C216.19,-51.87 233.1,-39.74 245.89,-30.57"/>
<polygon fill="midnightblue" stroke="midnightblue" points="199.55,-59.51 193.46,-68.18 203.63,-65.19 199.55,-59.51"/>
</g>
</g>
</svg>
