<?xml version="1.0" encoding="UTF-8" standalone="no"?>
<!DOCTYPE svg PUBLIC "-//W3C//DTD SVG 1.1//EN"
 "http://www.w3.org/Graphics/SVG/1.1/DTD/svg11.dtd">
<!-- Generated by graphviz version 9.0.0 (20230911.1827)
 -->
<!-- Title: MoFEM::OpBaseImpl&lt; USER_ASSEMBLE, EleOp &gt; Pages: 1 -->
<svg width="890pt" height="746pt"
 viewBox="0.00 0.00 889.75 745.94" xmlns="http://www.w3.org/2000/svg" xmlns:xlink="http://www.w3.org/1999/xlink">
<g id="graph0" class="graph" transform="scale(1 1) rotate(0) translate(4 741.94)">
<title>MoFEM::OpBaseImpl&lt; USER_ASSEMBLE, EleOp &gt;</title>
<!-- Node1 -->
<g id="node1" class="node">
<title>Node1</title>
<g id="a_node1"><a xlink:title=" ">
<polygon fill="#999999" stroke="#666666" points="881.75,-452.94 733,-452.94 733,-422.44 881.75,-422.44 881.75,-452.94"/>
<text text-anchor="start" x="741" y="-439.44" font-family="Helvetica,sans-Serif" font-size="10.00">MoFEM::OpBaseImpl&lt;</text>
<text text-anchor="middle" x="807.38" y="-428.19" font-family="Helvetica,sans-Serif" font-size="10.00"> USER_ASSEMBLE, EleOp &gt;</text>
</a>
</g>
</g>
<!-- Node2 -->
<g id="node2" class="node">
<title>Node2</title>
<g id="a_node2"><a xlink:href="struct_mo_f_e_m_1_1_op_base_impl.html" target="_top" xlink:title=" ">
<polygon fill="white" stroke="#666666" points="696,-452.94 551,-452.94 551,-422.44 696,-422.44 696,-452.94"/>
<text text-anchor="start" x="559" y="-439.44" font-family="Helvetica,sans-Serif" font-size="10.00">MoFEM::OpBaseImpl&lt;</text>
<text text-anchor="middle" x="623.5" y="-428.19" font-family="Helvetica,sans-Serif" font-size="10.00"> LAST_ASSEMBLE, EleOp &gt;</text>
</a>
</g>
</g>
<!-- Node2&#45;&gt;Node1 -->
<g id="edge1" class="edge">
<title>Node2&#45;&gt;Node1</title>
<path fill="none" stroke="#63b8ff" d="M707.66,-437.69C715.99,-437.69 724.41,-437.69 732.63,-437.69"/>
<polygon fill="#63b8ff" stroke="#63b8ff" points="707.9,-434.19 697.9,-437.69 707.9,-441.19 707.9,-434.19"/>
</g>
<!-- Node3 -->
<g id="node3" class="node">
<title>Node3</title>
<g id="a_node3"><a xlink:title=" ">
<polygon fill="white" stroke="#666666" points="85.75,-610.32 42.75,-610.32 42.75,-591.07 85.75,-591.07 85.75,-610.32"/>
<text text-anchor="middle" x="64.25" y="-596.82" font-family="Helvetica,sans-Serif" font-size="10.00">EleOp</text>
</a>
</g>
</g>
<!-- Node3&#45;&gt;Node2 -->
<g id="edge2" class="edge">
<title>Node3&#45;&gt;Node2</title>
<path fill="none" stroke="#63b8ff" d="M97.04,-606.89C178.16,-620.84 396.09,-646.39 533,-549.69 570.21,-523.42 599.95,-477.47 613.89,-453.41"/>
<polygon fill="#63b8ff" stroke="#63b8ff" points="97.82,-603.48 87.36,-605.16 96.59,-610.37 97.82,-603.48"/>
</g>
<!-- Node13 -->
<g id="node13" class="node">
<title>Node13</title>
<g id="a_node13"><a xlink:href="struct_mo_f_e_m_1_1_op_base_impl.html" target="_top" xlink:title=" ">
<polygon fill="white" stroke="#666666" points="377,-452.94 260.5,-452.94 260.5,-422.44 377,-422.44 377,-452.94"/>
<text text-anchor="start" x="268.5" y="-439.44" font-family="Helvetica,sans-Serif" font-size="10.00">MoFEM::OpBaseImpl&lt;</text>
<text text-anchor="middle" x="318.75" y="-428.19" font-family="Helvetica,sans-Serif" font-size="10.00"> A, EleOp &gt;</text>
</a>
</g>
</g>
<!-- Node3&#45;&gt;Node13 -->
<g id="edge13" class="edge">
<title>Node3&#45;&gt;Node13</title>
<path fill="none" stroke="#63b8ff" d="M80.45,-581.85C95.49,-564.38 120.05,-538.88 146.5,-523.69 185.04,-501.56 202.88,-515.83 242.5,-495.69 264.7,-484.41 286.89,-466.26 301.36,-453.27"/>
<polygon fill="#63b8ff" stroke="#63b8ff" points="77.83,-579.53 74.09,-589.45 83.19,-584.02 77.83,-579.53"/>
</g>
<!-- Node4 -->
<g id="node4" class="node">
<title>Node4</title>
<g id="a_node4"><a xlink:title=" ">
<polygon fill="white" stroke="#666666" points="128.5,-468.32 0,-468.32 0,-449.07 128.5,-449.07 128.5,-468.32"/>
<text text-anchor="middle" x="64.25" y="-454.82" font-family="Helvetica,sans-Serif" font-size="10.00">function&lt; double(double)&gt;</text>
</a>
</g>
</g>
<!-- Node4&#45;&gt;Node2 -->
<g id="edge3" class="edge">
<title>Node4&#45;&gt;Node2</title>
<path fill="none" stroke="#9a32cd" stroke-dasharray="5,2" d="M99.73,-474C110.2,-480.08 120.93,-487.98 128.5,-497.69 144.83,-518.65 125.07,-538.99 146.5,-554.69 180.91,-579.91 200.31,-561.04 242.5,-554.69 371.85,-535.23 517.92,-480.47 585.08,-453.34"/>
<polygon fill="#9a32cd" stroke="#9a32cd" points="101.69,-471.08 91.22,-469.45 98.38,-477.25 101.69,-471.08"/>
<text text-anchor="middle" x="318.75" y="-552.44" font-family="Helvetica,sans-Serif" font-size="10.00"> timeScalingFun</text>
</g>
<!-- Node4&#45;&gt;Node13 -->
<g id="edge14" class="edge">
<title>Node4&#45;&gt;Node13</title>
<path fill="none" stroke="#9a32cd" stroke-dasharray="5,2" d="M139.9,-451.04C142.12,-450.83 144.33,-450.63 146.5,-450.44 184.37,-447.11 226.99,-443.94 260.24,-441.59"/>
<polygon fill="#9a32cd" stroke="#9a32cd" points="139.8,-447.53 130.17,-451.95 140.45,-454.5 139.8,-447.53"/>
<text text-anchor="middle" x="194.5" y="-451.44" font-family="Helvetica,sans-Serif" font-size="10.00"> timeScalingFun</text>
</g>
<!-- Node5 -->
<g id="node5" class="node">
<title>Node5</title>
<g id="a_node5"><a xlink:title=" ">
<polygon fill="white" stroke="#666666" points="121.75,-730.94 6.75,-730.94 6.75,-700.44 121.75,-700.44 121.75,-730.94"/>
<text text-anchor="start" x="14.75" y="-717.44" font-family="Helvetica,sans-Serif" font-size="10.00">function&lt; double(const</text>
<text text-anchor="middle" x="64.25" y="-706.19" font-family="Helvetica,sans-Serif" font-size="10.00"> FEMethod *fe_ptr)&gt;</text>
</a>
</g>
</g>
<!-- Node5&#45;&gt;Node2 -->
<g id="edge4" class="edge">
<title>Node5&#45;&gt;Node2</title>
<path fill="none" stroke="#9a32cd" stroke-dasharray="5,2" d="M133.14,-724.71C233.58,-734.02 421.83,-735.4 533,-635.69 589.87,-584.69 612.77,-490.48 619.86,-453.34"/>
<polygon fill="#9a32cd" stroke="#9a32cd" points="133.73,-721.26 123.44,-723.76 133.05,-728.22 133.73,-721.26"/>
<text text-anchor="middle" x="318.75" y="-728.44" font-family="Helvetica,sans-Serif" font-size="10.00"> feScalingFun</text>
</g>
<!-- Node5&#45;&gt;Node13 -->
<g id="edge15" class="edge">
<title>Node5&#45;&gt;Node13</title>
<path fill="none" stroke="#9a32cd" stroke-dasharray="5,2" d="M130.63,-695.96C169.14,-680.94 215.46,-656.32 242.5,-618.69 269.11,-581.67 242.8,-559.71 260.5,-517.69 270.91,-492.98 290.08,-468.49 303.36,-453.25"/>
<polygon fill="#9a32cd" stroke="#9a32cd" points="129.55,-692.62 121.41,-699.41 132.01,-699.18 129.55,-692.62"/>
<text text-anchor="middle" x="194.5" y="-689.44" font-family="Helvetica,sans-Serif" font-size="10.00"> feScalingFun</text>
</g>
<!-- Node6 -->
<g id="node6" class="node">
<title>Node6</title>
<g id="a_node6"><a xlink:title=" ">
<polygon fill="white" stroke="#666666" points="118.38,-670.32 10.12,-670.32 10.12,-651.07 118.38,-651.07 118.38,-670.32"/>
<text text-anchor="middle" x="64.25" y="-656.82" font-family="Helvetica,sans-Serif" font-size="10.00">shared_ptr&lt; Range &gt;</text>
</a>
</g>
</g>
<!-- Node6&#45;&gt;Node2 -->
<g id="edge5" class="edge">
<title>Node6&#45;&gt;Node2</title>
<path fill="none" stroke="#9a32cd" stroke-dasharray="5,2" d="M130.13,-669.16C227.68,-678.26 413.41,-681.04 533,-591.69 581.56,-555.42 608.22,-484.42 618.06,-453.13"/>
<polygon fill="#9a32cd" stroke="#9a32cd" points="130.49,-665.68 120.19,-668.18 129.8,-672.65 130.49,-665.68"/>
<text text-anchor="middle" x="318.75" y="-673.44" font-family="Helvetica,sans-Serif" font-size="10.00"> entsPtr</text>
</g>
<!-- Node6&#45;&gt;Node13 -->
<g id="edge16" class="edge">
<title>Node6&#45;&gt;Node13</title>
<path fill="none" stroke="#9a32cd" stroke-dasharray="5,2" d="M91.61,-644.76C103.18,-637.48 116.77,-628.52 128.5,-619.69 182.12,-579.34 194.55,-567.63 242.5,-520.69 265.43,-498.24 290.07,-470.25 304.68,-453.19"/>
<polygon fill="#9a32cd" stroke="#9a32cd" points="90,-641.64 83.35,-649.89 93.69,-647.59 90,-641.64"/>
<text text-anchor="middle" x="194.5" y="-605.44" font-family="Helvetica,sans-Serif" font-size="10.00"> entsPtr</text>
</g>
<!-- Node7 -->
<g id="node7" class="node">
<title>Node7</title>
<g id="a_node7"><a xlink:title=" ">
<polygon fill="white" stroke="#666666" points="127.75,-526.32 0.75,-526.32 0.75,-507.07 127.75,-507.07 127.75,-526.32"/>
<text text-anchor="middle" x="64.25" y="-512.82" font-family="Helvetica,sans-Serif" font-size="10.00">static MatSetValuesHook</text>
</a>
</g>
</g>
<!-- Node7&#45;&gt;Node2 -->
<g id="edge6" class="edge">
<title>Node7&#45;&gt;Node2</title>
<path fill="none" stroke="#9a32cd" stroke-dasharray="5,2" d="M82.63,-534.08C97.95,-548.1 121.66,-566.74 146.5,-574.69 244.15,-605.97 276.58,-585.44 377,-564.69 448.85,-549.85 468.92,-546.43 533,-510.69 561.54,-494.77 590.02,-469.53 606.95,-453.29"/>
<polygon fill="#9a32cd" stroke="#9a32cd" points="85.38,-531.87 75.72,-527.52 80.56,-536.95 85.38,-531.87"/>
<text text-anchor="middle" x="318.75" y="-590.44" font-family="Helvetica,sans-Serif" font-size="10.00"> matSetValuesHook</text>
</g>
<!-- Node7&#45;&gt;Node13 -->
<g id="edge17" class="edge">
<title>Node7&#45;&gt;Node13</title>
<path fill="none" stroke="#9a32cd" stroke-dasharray="5,2" d="M98.55,-502.21C113.1,-496.21 130.47,-489.5 146.5,-484.44 188.32,-471.26 200.25,-473.42 242.5,-461.69 251.62,-459.16 261.29,-456.25 270.55,-453.35"/>
<polygon fill="#9a32cd" stroke="#9a32cd" points="97.31,-498.93 89.44,-506.03 100.01,-505.39 97.31,-498.93"/>
<text text-anchor="middle" x="194.5" y="-485.44" font-family="Helvetica,sans-Serif" font-size="10.00"> matSetValuesHook</text>
</g>
<!-- Node8 -->
<g id="node8" class="node">
<title>Node8</title>
<g id="a_node8"><a xlink:title=" ">
<polygon fill="white" stroke="#666666" points="78.65,-270.32 49.85,-270.32 49.85,-251.07 78.65,-251.07 78.65,-270.32"/>
<text text-anchor="middle" x="64.25" y="-256.82" font-family="Helvetica,sans-Serif" font-size="10.00">int</text>
</a>
</g>
</g>
<!-- Node8&#45;&gt;Node2 -->
<g id="edge7" class="edge">
<title>Node8&#45;&gt;Node2</title>
<path fill="none" stroke="#9a32cd" stroke-dasharray="5,2" d="M90.05,-254.34C103.38,-249.67 119,-241.95 128.5,-229.69 152.7,-198.49 115.88,-167.63 146.5,-142.69 179.59,-115.75 202.14,-128.86 242.5,-142.69 412.77,-201.03 565.65,-370.19 609.76,-422.26"/>
<polygon fill="#9a32cd" stroke="#9a32cd" points="89.1,-250.97 80.57,-257.26 91.16,-257.66 89.1,-250.97"/>
<text text-anchor="middle" x="318.75" y="-265.69" font-family="Helvetica,sans-Serif" font-size="10.00"> colSide</text>
<text text-anchor="middle" x="318.75" y="-254.44" font-family="Helvetica,sans-Serif" font-size="10.00">nbCols</text>
<text text-anchor="middle" x="318.75" y="-243.19" font-family="Helvetica,sans-Serif" font-size="10.00">nbIntegrationPts</text>
<text text-anchor="middle" x="318.75" y="-231.94" font-family="Helvetica,sans-Serif" font-size="10.00">nbRowBaseFunctions</text>
<text text-anchor="middle" x="318.75" y="-220.69" font-family="Helvetica,sans-Serif" font-size="10.00">nbRows</text>
<text text-anchor="middle" x="318.75" y="-209.44" font-family="Helvetica,sans-Serif" font-size="10.00">rowSide</text>
</g>
<!-- Node8&#45;&gt;Node13 -->
<g id="edge18" class="edge">
<title>Node8&#45;&gt;Node13</title>
<path fill="none" stroke="#9a32cd" stroke-dasharray="5,2" d="M90.05,-262.85C128.48,-267.56 202.2,-282.24 242.5,-327.19 264.09,-351.27 242.09,-371.1 260.5,-397.69 267.26,-407.46 277.24,-415.61 286.97,-421.96"/>
<polygon fill="#9a32cd" stroke="#9a32cd" points="90.5,-259.38 80.18,-261.79 89.75,-266.34 90.5,-259.38"/>
<text text-anchor="middle" x="194.5" y="-384.69" font-family="Helvetica,sans-Serif" font-size="10.00"> colSide</text>
<text text-anchor="middle" x="194.5" y="-373.44" font-family="Helvetica,sans-Serif" font-size="10.00">nbCols</text>
<text text-anchor="middle" x="194.5" y="-362.19" font-family="Helvetica,sans-Serif" font-size="10.00">nbIntegrationPts</text>
<text text-anchor="middle" x="194.5" y="-350.94" font-family="Helvetica,sans-Serif" font-size="10.00">nbRowBaseFunctions</text>
<text text-anchor="middle" x="194.5" y="-339.69" font-family="Helvetica,sans-Serif" font-size="10.00">nbRows</text>
<text text-anchor="middle" x="194.5" y="-328.44" font-family="Helvetica,sans-Serif" font-size="10.00">rowSide</text>
</g>
<!-- Node9 -->
<g id="node9" class="node">
<title>Node9</title>
<g id="a_node9"><a xlink:href="class_entity_type.html" target="_top" xlink:title=" ">
<polygon fill="white" stroke="#666666" points="95.5,-169.32 33,-169.32 33,-150.07 95.5,-150.07 95.5,-169.32"/>
<text text-anchor="middle" x="64.25" y="-155.82" font-family="Helvetica,sans-Serif" font-size="10.00">EntityType</text>
</a>
</g>
</g>
<!-- Node9&#45;&gt;Node2 -->
<g id="edge8" class="edge">
<title>Node9&#45;&gt;Node2</title>
<path fill="none" stroke="#9a32cd" stroke-dasharray="5,2" d="M89.21,-143.53C104.87,-133.71 126.13,-121.75 146.5,-114.69 309.11,-58.39 409.51,-17.85 533,-137.69 616.08,-218.32 622.87,-372.46 622.8,-421.97"/>
<polygon fill="#9a32cd" stroke="#9a32cd" points="87.58,-140.42 81.07,-148.78 91.37,-146.3 87.58,-140.42"/>
<text text-anchor="middle" x="318.75" y="-89.69" font-family="Helvetica,sans-Serif" font-size="10.00"> colType</text>
<text text-anchor="middle" x="318.75" y="-78.44" font-family="Helvetica,sans-Serif" font-size="10.00">rowType</text>
</g>
<!-- Node9&#45;&gt;Node13 -->
<g id="edge19" class="edge">
<title>Node9&#45;&gt;Node13</title>
<path fill="none" stroke="#9a32cd" stroke-dasharray="5,2" d="M104.63,-173.25C117.85,-177.54 132.73,-182.1 146.5,-185.69 188.63,-196.68 213.41,-172.8 242.5,-205.19 271.21,-237.16 238.89,-360.56 260.5,-397.69 266.36,-407.75 275.87,-415.89 285.48,-422.14"/>
<polygon fill="#9a32cd" stroke="#9a32cd" points="106.01,-170.02 95.42,-170.21 103.82,-176.67 106.01,-170.02"/>
<text text-anchor="middle" x="194.5" y="-217.69" font-family="Helvetica,sans-Serif" font-size="10.00"> colType</text>
<text text-anchor="middle" x="194.5" y="-206.44" font-family="Helvetica,sans-Serif" font-size="10.00">rowType</text>
</g>
<!-- Node10 -->
<g id="node10" class="node">
<title>Node10</title>
<g id="a_node10"><a xlink:href="classbool.html" target="_top" xlink:title=" ">
<polygon fill="white" stroke="#666666" points="81.25,-83.32 47.25,-83.32 47.25,-64.07 81.25,-64.07 81.25,-83.32"/>
<text text-anchor="middle" x="64.25" y="-69.82" font-family="Helvetica,sans-Serif" font-size="10.00">bool</text>
</a>
</g>
</g>
<!-- Node10&#45;&gt;Node2 -->
<g id="edge9" class="edge">
<title>Node10&#45;&gt;Node2</title>
<path fill="none" stroke="#9a32cd" stroke-dasharray="5,2" d="M91.82,-61.75C170.99,-28.18 407.55,57.22 533,-59.69 587.76,-110.73 614.85,-357.51 621.08,-422.16"/>
<polygon fill="#9a32cd" stroke="#9a32cd" points="90.9,-58.33 83.11,-65.51 93.68,-64.76 90.9,-58.33"/>
<text text-anchor="middle" x="318.75" y="-22.69" font-family="Helvetica,sans-Serif" font-size="10.00"> assembleTranspose</text>
<text text-anchor="middle" x="318.75" y="-11.44" font-family="Helvetica,sans-Serif" font-size="10.00">onlyTranspose</text>
</g>
<!-- Node10&#45;&gt;Node13 -->
<g id="edge20" class="edge">
<title>Node10&#45;&gt;Node13</title>
<path fill="none" stroke="#9a32cd" stroke-dasharray="5,2" d="M92.88,-78.23C133.33,-86.47 207.63,-108.04 242.5,-159.19 272.44,-203.11 234.18,-351.52 260.5,-397.69 266.2,-407.7 275.56,-415.79 285.07,-422"/>
<polygon fill="#9a32cd" stroke="#9a32cd" points="93.69,-74.82 83.22,-76.4 92.39,-81.7 93.69,-74.82"/>
<text text-anchor="middle" x="194.5" y="-171.69" font-family="Helvetica,sans-Serif" font-size="10.00"> assembleTranspose</text>
<text text-anchor="middle" x="194.5" y="-160.44" font-family="Helvetica,sans-Serif" font-size="10.00">onlyTranspose</text>
</g>
<!-- Node11 -->
<g id="node11" class="node">
<title>Node11</title>
<g id="a_node11"><a xlink:href="class_u_blas_matrix_3_01double_01_4.html" target="_top" xlink:title=" ">
<polygon fill="white" stroke="#666666" points="122.5,-396.32 6,-396.32 6,-377.07 122.5,-377.07 122.5,-396.32"/>
<text text-anchor="middle" x="64.25" y="-382.82" font-family="Helvetica,sans-Serif" font-size="10.00">UBlasMatrix&lt; double &gt;</text>
</a>
</g>
</g>
<!-- Node11&#45;&gt;Node2 -->
<g id="edge10" class="edge">
<title>Node11&#45;&gt;Node2</title>
<path fill="none" stroke="#9a32cd" stroke-dasharray="5,2" d="M134.31,-384.28C197.61,-382.88 293.85,-382.78 377,-391.19 438.39,-397.4 507.36,-411.07 556.53,-421.99"/>
<polygon fill="#9a32cd" stroke="#9a32cd" points="134.31,-380.78 124.39,-384.52 134.47,-387.78 134.31,-380.78"/>
<text text-anchor="middle" x="318.75" y="-403.69" font-family="Helvetica,sans-Serif" font-size="10.00"> locMat</text>
<text text-anchor="middle" x="318.75" y="-392.44" font-family="Helvetica,sans-Serif" font-size="10.00">locMatTranspose</text>
</g>
<!-- Node11&#45;&gt;Node13 -->
<g id="edge21" class="edge">
<title>Node11&#45;&gt;Node13</title>
<path fill="none" stroke="#9a32cd" stroke-dasharray="5,2" d="M134,-396.28C166.99,-401.35 206.97,-408.19 242.5,-416.19 250.06,-417.9 257.98,-419.91 265.73,-422"/>
<polygon fill="#9a32cd" stroke="#9a32cd" points="134.55,-392.82 124.14,-394.79 133.5,-399.74 134.55,-392.82"/>
<text text-anchor="middle" x="194.5" y="-428.69" font-family="Helvetica,sans-Serif" font-size="10.00"> locMat</text>
<text text-anchor="middle" x="194.5" y="-417.44" font-family="Helvetica,sans-Serif" font-size="10.00">locMatTranspose</text>
</g>
<!-- Node12 -->
<g id="node12" class="node">
<title>Node12</title>
<g id="a_node12"><a xlink:href="class_u_blas_vector_3_01double_01_4.html" target="_top" xlink:title=" ">
<polygon fill="white" stroke="#666666" points="123.25,-220.32 5.25,-220.32 5.25,-201.07 123.25,-201.07 123.25,-220.32"/>
<text text-anchor="middle" x="64.25" y="-206.82" font-family="Helvetica,sans-Serif" font-size="10.00">UBlasVector&lt; double &gt;</text>
</a>
</g>
</g>
<!-- Node12&#45;&gt;Node2 -->
<g id="edge11" class="edge">
<title>Node12&#45;&gt;Node2</title>
<path fill="none" stroke="#9a32cd" stroke-dasharray="5,2" d="M106.76,-195.62C114.82,-191.17 122.58,-185.59 128.5,-178.69 145.25,-159.18 125.68,-138.79 146.5,-123.69 168.8,-107.53 365.8,-132.09 377,-135.44 452.48,-158.06 480.3,-161.11 533,-219.69 588.82,-281.74 612.51,-383.33 619.83,-422.04"/>
<polygon fill="#9a32cd" stroke="#9a32cd" points="105.3,-192.43 97.88,-199.99 108.4,-198.71 105.3,-192.43"/>
<text text-anchor="middle" x="318.75" y="-137.44" font-family="Helvetica,sans-Serif" font-size="10.00"> locF</text>
</g>
<!-- Node12&#45;&gt;Node13 -->
<g id="edge22" class="edge">
<title>Node12&#45;&gt;Node13</title>
<path fill="none" stroke="#9a32cd" stroke-dasharray="5,2" d="M114.89,-223.71C166.94,-237.42 241.41,-257.2 242.5,-258.44 283.56,-305.44 228.16,-344.32 260.5,-397.69 266.53,-407.65 276.09,-415.76 285.68,-422.02"/>
<polygon fill="#9a32cd" stroke="#9a32cd" points="115.85,-220.35 105.29,-221.19 114.07,-227.12 115.85,-220.35"/>
<text text-anchor="middle" x="194.5" y="-259.44" font-family="Helvetica,sans-Serif" font-size="10.00"> locF</text>
</g>
<!-- Node13&#45;&gt;Node2 -->
<g id="edge12" class="edge">
<title>Node13&#45;&gt;Node2</title>
<path fill="none" stroke="orange" stroke-dasharray="5,2" d="M388.71,-437.69C437.09,-437.69 501.62,-437.69 550.63,-437.69"/>
<polygon fill="orange" stroke="orange" points="388.92,-434.19 378.92,-437.69 388.92,-441.19 388.92,-434.19"/>
<text text-anchor="middle" x="464" y="-439.44" font-family="Helvetica,sans-Serif" font-size="10.00"> &lt; LAST_ASSEMBLE, EleOp &gt;</text>
</g>
</g>
</svg>
