<?xml version="1.0" encoding="UTF-8" standalone="no"?>
<!DOCTYPE svg PUBLIC "-//W3C//DTD SVG 1.1//EN"
 "http://www.w3.org/Graphics/SVG/1.1/DTD/svg11.dtd">
<!-- Generated by graphviz version 9.0.0 (20230911.1827)
 -->
<!-- Title: ConvectiveMassElement::OpEshelbyDynamicMaterialMomentumJacobian Pages: 1 -->
<svg width="405pt" height="88pt"
 viewBox="0.00 0.00 404.50 87.50" xmlns="http://www.w3.org/2000/svg" xmlns:xlink="http://www.w3.org/1999/xlink">
<g id="graph0" class="graph" transform="scale(1 1) rotate(0) translate(4 83.5)">
<title>ConvectiveMassElement::OpEshelbyDynamicMaterialMomentumJacobian</title>
<!-- Node1 -->
<g id="node1" class="node">
<title>Node1</title>
<g id="a_node1"><a xlink:title=" ">
<polygon fill="#999999" stroke="#666666" points="396.5,-60.12 204.25,-60.12 204.25,-18.38 396.5,-18.38 396.5,-60.12"/>
<text text-anchor="start" x="212.25" y="-46.62" font-family="Helvetica,sans-Serif" font-size="10.00">ConvectiveMassElement</text>
<text text-anchor="start" x="212.25" y="-35.38" font-family="Helvetica,sans-Serif" font-size="10.00">::OpEshelbyDynamicMaterialMomentum</text>
<text text-anchor="middle" x="300.38" y="-24.12" font-family="Helvetica,sans-Serif" font-size="10.00">Jacobian</text>
</a>
</g>
</g>
<!-- Node2 -->
<g id="node2" class="node">
<title>Node2</title>
<g id="a_node2"><a xlink:title=" ">
<polygon fill="white" stroke="#666666" points="168.25,-79.5 0,-79.5 0,-49 168.25,-49 168.25,-79.5"/>
<text text-anchor="start" x="8" y="-66" font-family="Helvetica,sans-Serif" font-size="10.00">VolumeElementForcesAndSources</text>
<text text-anchor="middle" x="84.12" y="-54.75" font-family="Helvetica,sans-Serif" font-size="10.00">Core::UserDataOperator</text>
</a>
</g>
</g>
<!-- Node2&#45;&gt;Node1 -->
<g id="edge1" class="edge">
<title>Node2&#45;&gt;Node1</title>
<path fill="none" stroke="#63b8ff" d="M179.85,-53.2C187.89,-52.26 196.02,-51.31 204.06,-50.37"/>
<polygon fill="#63b8ff" stroke="#63b8ff" points="179.6,-49.7 170.08,-54.34 180.41,-56.65 179.6,-49.7"/>
</g>
<!-- Node3 -->
<g id="node3" class="node">
<title>Node3</title>
<g id="a_node3"><a xlink:href="struct_convective_mass_element_1_1_common_functions.html" target="_top" xlink:title=" ">
<polygon fill="white" stroke="#666666" points="146.88,-30.5 21.38,-30.5 21.38,0 146.88,0 146.88,-30.5"/>
<text text-anchor="start" x="29.38" y="-17" font-family="Helvetica,sans-Serif" font-size="10.00">ConvectiveMassElement</text>
<text text-anchor="middle" x="84.12" y="-5.75" font-family="Helvetica,sans-Serif" font-size="10.00">::CommonFunctions</text>
</a>
</g>
</g>
<!-- Node3&#45;&gt;Node1 -->
<g id="edge2" class="edge">
<title>Node3&#45;&gt;Node1</title>
<path fill="none" stroke="#63b8ff" d="M158.17,-23.43C172.93,-25.09 188.65,-26.85 204.04,-28.57"/>
<polygon fill="#63b8ff" stroke="#63b8ff" points="158.93,-20 148.6,-22.36 158.15,-26.95 158.93,-20"/>
</g>
</g>
</svg>
