<?xml version="1.0" encoding="UTF-8" standalone="no"?>
<!DOCTYPE svg PUBLIC "-//W3C//DTD SVG 1.1//EN"
 "http://www.w3.org/Graphics/SVG/1.1/DTD/svg11.dtd">
<!-- Generated by graphviz version 2.43.0 (0)
 -->
<!-- Title: MoFEM::NumeredDofEntity_part_and_indices_change Pages: 1 -->
<svg width="177pt" height="128pt"
 viewBox="0.00 0.00 176.50 128.00" xmlns="http://www.w3.org/2000/svg" xmlns:xlink="http://www.w3.org/1999/xlink">
<g id="graph0" class="graph" transform="scale(1 1) rotate(0) translate(4 124)">
<title>MoFEM::NumeredDofEntity_part_and_indices_change</title>
<polygon fill="white" stroke="transparent" points="-4,4 -4,-124 172.5,-124 172.5,4 -4,4"/>
<!-- Node1 -->
<g id="node1" class="node">
<title>Node1</title>
<g id="a_node1"><a xlink:title=" ">
<polygon fill="#bfbfbf" stroke="black" points="0,-0.5 0,-30.5 149,-30.5 149,-0.5 0,-0.5"/>
<text text-anchor="start" x="8" y="-18.5" font-family="Helvetica,sans-Serif" font-size="10.00">MoFEM::NumeredDofEntity</text>
<text text-anchor="middle" x="74.5" y="-7.5" font-family="Helvetica,sans-Serif" font-size="10.00">_part_and_indices_change</text>
</a>
</g>
</g>
<!-- Node2 -->
<g id="node2" class="node">
<title>Node2</title>
<g id="a_node2"><a xlink:title=" ">
<polygon fill="white" stroke="#bfbfbf" points="60,-100.5 60,-119.5 89,-119.5 89,-100.5 60,-100.5"/>
<text text-anchor="middle" x="74.5" y="-107.5" font-family="Helvetica,sans-Serif" font-size="10.00">int</text>
</a>
</g>
</g>
<!-- Node2&#45;&gt;Node1 -->
<g id="edge1" class="edge">
<title>Node2&#45;&gt;Node1</title>
<path fill="none" stroke="#9a32cd" stroke-dasharray="5,2" d="M74.5,-90.29C74.5,-72.67 74.5,-46.67 74.5,-30.7"/>
<polygon fill="#9a32cd" stroke="#9a32cd" points="71,-90.46 74.5,-100.46 78,-90.46 71,-90.46"/>
<text text-anchor="middle" x="121.5" y="-74" font-family="Helvetica,sans-Serif" font-size="10.00"> petscGloablDofIdx</text>
<text text-anchor="middle" x="121.5" y="-63" font-family="Helvetica,sans-Serif" font-size="10.00">pArt</text>
<text text-anchor="middle" x="121.5" y="-52" font-family="Helvetica,sans-Serif" font-size="10.00">petscLocalDofIdx</text>
</g>
</g>
</svg>
