<?xml version="1.0" encoding="UTF-8" standalone="no"?>
<!DOCTYPE svg PUBLIC "-//W3C//DTD SVG 1.1//EN"
 "http://www.w3.org/Graphics/SVG/1.1/DTD/svg11.dtd">
<!-- Generated by graphviz version 2.43.0 (0)
 -->
<!-- Title: MoFEM::FiniteElement Pages: 1 -->
<svg width="463pt" height="293pt"
 viewBox="0.00 0.00 463.00 293.09" xmlns="http://www.w3.org/2000/svg" xmlns:xlink="http://www.w3.org/1999/xlink">
<g id="graph0" class="graph" transform="scale(1 1) rotate(0) translate(4 289.09)">
<title>MoFEM::FiniteElement</title>
<polygon fill="white" stroke="transparent" points="-4,4 -4,-289.09 459,-289.09 459,4 -4,4"/>
<!-- Node1 -->
<g id="node1" class="node">
<title>Node1</title>
<g id="a_node1"><a xlink:title="Finite element definition.">
<polygon fill="#bfbfbf" stroke="black" points="329,-155.59 329,-174.59 455,-174.59 455,-155.59 329,-155.59"/>
<text text-anchor="middle" x="392" y="-162.59" font-family="Helvetica,sans-Serif" font-size="10.00">MoFEM::FiniteElement</text>
</a>
</g>
</g>
<!-- Node2 -->
<g id="node2" class="node">
<title>Node2</title>
<g id="a_node2"><a xlink:title=" ">
<polygon fill="white" stroke="#bfbfbf" points="55.5,-265.59 55.5,-284.59 117.5,-284.59 117.5,-265.59 55.5,-265.59"/>
<text text-anchor="middle" x="86.5" y="-272.59" font-family="Helvetica,sans-Serif" font-size="10.00">uint128_t</text>
</a>
</g>
</g>
<!-- Node2&#45;&gt;Node1 -->
<g id="edge1" class="edge">
<title>Node2&#45;&gt;Node1</title>
<path fill="none" stroke="#9a32cd" stroke-dasharray="5,2" d="M128.06,-276.37C174.59,-276.24 252.04,-271.04 311,-242.09 343.7,-226.03 371.72,-191.72 384.15,-174.85"/>
<polygon fill="#9a32cd" stroke="#9a32cd" points="127.79,-272.87 117.77,-276.32 127.75,-279.87 127.79,-272.87"/>
<text text-anchor="middle" x="251" y="-275.09" font-family="Helvetica,sans-Serif" font-size="10.00"> feUId</text>
</g>
<!-- Node3 -->
<g id="node3" class="node">
<title>Node3</title>
<g id="a_node3"><a xlink:title=" ">
<polygon fill="white" stroke="#bfbfbf" points="57,-227.59 57,-246.59 116,-246.59 116,-227.59 57,-227.59"/>
<text text-anchor="middle" x="86.5" y="-234.59" font-family="Helvetica,sans-Serif" font-size="10.00">BitFEId *</text>
</a>
</g>
</g>
<!-- Node3&#45;&gt;Node1 -->
<g id="edge2" class="edge">
<title>Node3&#45;&gt;Node1</title>
<path fill="none" stroke="#9a32cd" stroke-dasharray="5,2" d="M126.61,-234.95C171.86,-231.65 248.21,-223.52 311,-204.09 334.32,-196.87 359.33,-183.71 375.06,-174.69"/>
<polygon fill="#9a32cd" stroke="#9a32cd" points="126.08,-231.48 116.35,-235.66 126.56,-238.46 126.08,-231.48"/>
<text text-anchor="middle" x="251" y="-230.09" font-family="Helvetica,sans-Serif" font-size="10.00"> tagId</text>
</g>
<!-- Node4 -->
<g id="node4" class="node">
<title>Node4</title>
<g id="a_node4"><a xlink:href="classEntityHandle.html" target="_top" xlink:title=" ">
<polygon fill="white" stroke="black" points="46.5,-189.59 46.5,-208.59 126.5,-208.59 126.5,-189.59 46.5,-189.59"/>
<text text-anchor="middle" x="86.5" y="-196.59" font-family="Helvetica,sans-Serif" font-size="10.00">EntityHandle</text>
</a>
</g>
</g>
<!-- Node4&#45;&gt;Node1 -->
<g id="edge3" class="edge">
<title>Node4&#45;&gt;Node1</title>
<path fill="none" stroke="#9a32cd" stroke-dasharray="5,2" d="M136.88,-194.95C182.22,-190.99 251.23,-184.51 311,-177.09 316.99,-176.35 323.23,-175.51 329.46,-174.64"/>
<polygon fill="#9a32cd" stroke="#9a32cd" points="136.39,-191.48 126.73,-195.84 136.99,-198.46 136.39,-191.48"/>
<text text-anchor="middle" x="251" y="-192.09" font-family="Helvetica,sans-Serif" font-size="10.00"> meshset</text>
</g>
<!-- Node5 -->
<g id="node5" class="node">
<title>Node5</title>
<g id="a_node5"><a xlink:title=" ">
<polygon fill="white" stroke="#bfbfbf" points="0,-140.09 0,-170.09 173,-170.09 173,-140.09 0,-140.09"/>
<text text-anchor="start" x="8" y="-158.09" font-family="Helvetica,sans-Serif" font-size="10.00">array&lt; ElementAdjacencyFunct,</text>
<text text-anchor="middle" x="86.5" y="-147.09" font-family="Helvetica,sans-Serif" font-size="10.00"> MBMAXTYPE &gt;</text>
</a>
</g>
</g>
<!-- Node5&#45;&gt;Node1 -->
<g id="edge4" class="edge">
<title>Node5&#45;&gt;Node1</title>
<path fill="none" stroke="#9a32cd" stroke-dasharray="5,2" d="M183.55,-158.26C230.95,-159.82 286.79,-161.66 328.58,-163.03"/>
<polygon fill="#9a32cd" stroke="#9a32cd" points="183.36,-154.75 173.25,-157.92 183.13,-161.74 183.36,-154.75"/>
<text text-anchor="middle" x="251" y="-165.09" font-family="Helvetica,sans-Serif" font-size="10.00"> elementAdjacencyTable</text>
</g>
<!-- Node6 -->
<g id="node6" class="node">
<title>Node6</title>
<g id="a_node6"><a xlink:title=" ">
<polygon fill="white" stroke="#bfbfbf" points="51,-88.59 51,-107.59 122,-107.59 122,-88.59 51,-88.59"/>
<text text-anchor="middle" x="86.5" y="-95.59" font-family="Helvetica,sans-Serif" font-size="10.00">BitFieldId *</text>
</a>
</g>
</g>
<!-- Node6&#45;&gt;Node1 -->
<g id="edge5" class="edge">
<title>Node6&#45;&gt;Node1</title>
<path fill="none" stroke="#9a32cd" stroke-dasharray="5,2" d="M132.26,-93.51C178.37,-90.39 251.66,-89.9 311,-110.09 339.4,-119.75 366.98,-142.57 381.16,-155.58"/>
<polygon fill="#9a32cd" stroke="#9a32cd" points="132,-90.02 122.29,-94.26 132.52,-97 132,-90.02"/>
<text text-anchor="start" x="192" y="-146.09" font-family="Helvetica,sans-Serif" font-size="10.00"> tag_BitFieldId_col</text>
<text text-anchor="middle" x="251" y="-135.09" font-family="Helvetica,sans-Serif" font-size="10.00">_data</text>
<text text-anchor="middle" x="251" y="-124.09" font-family="Helvetica,sans-Serif" font-size="10.00">tag_BitFieldId_data</text>
<text text-anchor="middle" x="251" y="-113.09" font-family="Helvetica,sans-Serif" font-size="10.00">tag_BitFieldId_row_data</text>
</g>
<!-- Node7 -->
<g id="node7" class="node">
<title>Node7</title>
<g id="a_node7"><a xlink:title=" ">
<polygon fill="white" stroke="#bfbfbf" points="72,-43.59 72,-62.59 101,-62.59 101,-43.59 72,-43.59"/>
<text text-anchor="middle" x="86.5" y="-50.59" font-family="Helvetica,sans-Serif" font-size="10.00">int</text>
</a>
</g>
</g>
<!-- Node7&#45;&gt;Node1 -->
<g id="edge6" class="edge">
<title>Node7&#45;&gt;Node1</title>
<path fill="none" stroke="#9a32cd" stroke-dasharray="5,2" d="M111.03,-48.39C153.62,-41.12 245.19,-31.26 311,-65.09 350.35,-85.32 376.86,-134.52 386.72,-155.43"/>
<polygon fill="#9a32cd" stroke="#9a32cd" points="110.28,-44.97 101.07,-50.2 111.53,-51.86 110.28,-44.97"/>
<text text-anchor="middle" x="251" y="-79.09" font-family="Helvetica,sans-Serif" font-size="10.00"> tagNameSize</text>
<text text-anchor="middle" x="251" y="-68.09" font-family="Helvetica,sans-Serif" font-size="10.00">ent_shift</text>
</g>
<!-- Node8 -->
<g id="node8" class="node">
<title>Node8</title>
<g id="a_node8"><a xlink:title=" ">
<polygon fill="white" stroke="#bfbfbf" points="63.5,-5.59 63.5,-24.59 109.5,-24.59 109.5,-5.59 63.5,-5.59"/>
<text text-anchor="middle" x="86.5" y="-12.59" font-family="Helvetica,sans-Serif" font-size="10.00">void *</text>
</a>
</g>
</g>
<!-- Node8&#45;&gt;Node1 -->
<g id="edge7" class="edge">
<title>Node8&#45;&gt;Node1</title>
<path fill="none" stroke="#9a32cd" stroke-dasharray="5,2" d="M119.86,-7.84C166,0.62 251.67,9.25 311,-27.09 360.12,-57.18 382.23,-129.47 388.8,-155.53"/>
<polygon fill="#9a32cd" stroke="#9a32cd" points="118.97,-4.45 109.83,-9.8 120.31,-11.32 118.97,-4.45"/>
<text text-anchor="middle" x="251" y="-30.09" font-family="Helvetica,sans-Serif" font-size="10.00"> tagName</text>
</g>
</g>
</svg>
