<?xml version="1.0" encoding="UTF-8" standalone="no"?>
<!DOCTYPE svg PUBLIC "-//W3C//DTD SVG 1.1//EN"
 "http://www.w3.org/Graphics/SVG/1.1/DTD/svg11.dtd">
<!-- Generated by graphviz version 2.43.0 (0)
 -->
<!-- Title: SimpleContactProblem::OpCalculateDeformation Pages: 1 -->
<svg width="453pt" height="117pt"
 viewBox="0.00 0.00 452.50 117.00" xmlns="http://www.w3.org/2000/svg" xmlns:xlink="http://www.w3.org/1999/xlink">
<g id="graph0" class="graph" transform="scale(1 1) rotate(0) translate(4 113)">
<title>SimpleContactProblem::OpCalculateDeformation</title>
<polygon fill="white" stroke="transparent" points="-4,4 -4,-113 448.5,-113 448.5,4 -4,4"/>
<!-- Node1 -->
<g id="node1" class="node">
<title>Node1</title>
<g id="a_node1"><a xlink:title="Operator for computing deformation gradients in side volumes.">
<polygon fill="#bfbfbf" stroke="black" points="158,-0.5 158,-30.5 301,-30.5 301,-0.5 158,-0.5"/>
<text text-anchor="start" x="166" y="-18.5" font-family="Helvetica,sans-Serif" font-size="10.00">SimpleContactProblem</text>
<text text-anchor="middle" x="229.5" y="-7.5" font-family="Helvetica,sans-Serif" font-size="10.00">::OpCalculateDeformation</text>
</a>
</g>
</g>
<!-- Node2 -->
<g id="node2" class="node">
<title>Node2</title>
<g id="a_node2"><a xlink:title=" ">
<polygon fill="white" stroke="#bfbfbf" points="0,-84 0,-103 105,-103 105,-84 0,-84"/>
<text text-anchor="middle" x="52.5" y="-91" font-family="Helvetica,sans-Serif" font-size="10.00">UserDataOperator</text>
</a>
</g>
</g>
<!-- Node2&#45;&gt;Node1 -->
<g id="edge1" class="edge">
<title>Node2&#45;&gt;Node1</title>
<path fill="none" stroke="midnightblue" d="M82.05,-79.81C113.71,-66.22 163.84,-44.69 196.7,-30.58"/>
<polygon fill="midnightblue" stroke="midnightblue" points="80.27,-76.77 72.46,-83.93 83.03,-83.2 80.27,-76.77"/>
</g>
<!-- Node3 -->
<g id="node3" class="node">
<title>Node3</title>
<g id="a_node3"><a xlink:title=" ">
<polygon fill="white" stroke="#bfbfbf" points="123,-78.5 123,-108.5 336,-108.5 336,-78.5 123,-78.5"/>
<text text-anchor="start" x="131" y="-96.5" font-family="Helvetica,sans-Serif" font-size="10.00">shared_ptr&lt; SimpleContact</text>
<text text-anchor="middle" x="229.5" y="-85.5" font-family="Helvetica,sans-Serif" font-size="10.00">Problem::CommonDataSimpleContact &gt;</text>
</a>
</g>
</g>
<!-- Node3&#45;&gt;Node1 -->
<g id="edge2" class="edge">
<title>Node3&#45;&gt;Node1</title>
<path fill="none" stroke="#9a32cd" stroke-dasharray="5,2" d="M229.5,-68.09C229.5,-55.76 229.5,-41.22 229.5,-30.73"/>
<polygon fill="#9a32cd" stroke="#9a32cd" points="226,-68.2 229.5,-78.2 233,-68.21 226,-68.2"/>
<text text-anchor="middle" x="300" y="-52" font-family="Helvetica,sans-Serif" font-size="10.00"> commonDataSimpleContact</text>
</g>
<!-- Node4 -->
<g id="node4" class="node">
<title>Node4</title>
<g id="a_node4"><a xlink:href="classbool.html" target="_top" xlink:title=" ">
<polygon fill="white" stroke="black" points="374.5,-84 374.5,-103 412.5,-103 412.5,-84 374.5,-84"/>
<text text-anchor="middle" x="393.5" y="-91" font-family="Helvetica,sans-Serif" font-size="10.00">bool</text>
</a>
</g>
</g>
<!-- Node4&#45;&gt;Node1 -->
<g id="edge3" class="edge">
<title>Node4&#45;&gt;Node1</title>
<path fill="none" stroke="#9a32cd" stroke-dasharray="5,2" d="M388.31,-74.18C384.9,-65.33 379.55,-55.3 371.5,-49 351.58,-33.42 325.55,-25.05 301.23,-20.64"/>
<polygon fill="#9a32cd" stroke="#9a32cd" points="385,-75.32 391.46,-83.72 391.65,-73.13 385,-75.32"/>
<text text-anchor="middle" x="412.5" y="-52" font-family="Helvetica,sans-Serif" font-size="10.00"> hoGeometry</text>
</g>
</g>
</svg>
