<?xml version="1.0" encoding="UTF-8" standalone="no"?>
<!DOCTYPE svg PUBLIC "-//W3C//DTD SVG 1.1//EN"
 "http://www.w3.org/Graphics/SVG/1.1/DTD/svg11.dtd">
<!-- Generated by graphviz version 9.0.0 (20230911.1827)
 -->
<!-- Title: ZeroFLmabda Pages: 1 -->
<svg width="226pt" height="94pt"
 viewBox="0.00 0.00 226.00 93.75" xmlns="http://www.w3.org/2000/svg" xmlns:xlink="http://www.w3.org/1999/xlink">
<g id="graph0" class="graph" transform="scale(1 1) rotate(0) translate(4 89.75)">
<title>ZeroFLmabda</title>
<!-- Node1 -->
<g id="node1" class="node">
<title>Node1</title>
<g id="a_node1"><a xlink:title="Zero F_lambda.">
<polygon fill="#999999" stroke="#666666" points="127.5,-19.25 51.5,-19.25 51.5,0 127.5,0 127.5,-19.25"/>
<text text-anchor="middle" x="89.5" y="-5.75" font-family="Helvetica,sans-Serif" font-size="10.00">ZeroFLmabda</text>
</a>
</g>
</g>
<!-- Node2 -->
<g id="node2" class="node">
<title>Node2</title>
<g id="a_node2"><a xlink:href="class_f_e_method.html" target="_top" xlink:title=" ">
<polygon fill="white" stroke="#666666" points="61,-85.75 0,-85.75 0,-66.5 61,-66.5 61,-85.75"/>
<text text-anchor="middle" x="30.5" y="-72.25" font-family="Helvetica,sans-Serif" font-size="10.00">FEMethod</text>
</a>
</g>
</g>
<!-- Node2&#45;&gt;Node1 -->
<g id="edge1" class="edge">
<title>Node2&#45;&gt;Node1</title>
<path fill="none" stroke="#63b8ff" d="M46.19,-57.97C57.51,-45.6 72.33,-29.4 81.37,-19.52"/>
<polygon fill="#63b8ff" stroke="#63b8ff" points="43.89,-55.3 39.73,-65.04 49.06,-60.02 43.89,-55.3"/>
</g>
<!-- Node3 -->
<g id="node3" class="node">
<title>Node3</title>
<g id="a_node3"><a xlink:title=" ">
<polygon fill="white" stroke="#666666" points="218,-85.75 79,-85.75 79,-66.5 218,-66.5 218,-85.75"/>
<text text-anchor="middle" x="148.5" y="-72.25" font-family="Helvetica,sans-Serif" font-size="10.00">shared_ptr&lt; ArcLengthCtx &gt;</text>
</a>
</g>
</g>
<!-- Node3&#45;&gt;Node1 -->
<g id="edge2" class="edge">
<title>Node3&#45;&gt;Node1</title>
<path fill="none" stroke="#9a32cd" stroke-dasharray="5,2" d="M132.81,-57.97C121.49,-45.6 106.67,-29.4 97.63,-19.52"/>
<polygon fill="#9a32cd" stroke="#9a32cd" points="129.94,-60.02 139.27,-65.04 135.11,-55.3 129.94,-60.02"/>
<text text-anchor="middle" x="137.12" y="-39" font-family="Helvetica,sans-Serif" font-size="10.00"> arcPtr</text>
</g>
</g>
</svg>
