<?xml version="1.0" encoding="UTF-8" standalone="no"?>
<!DOCTYPE svg PUBLIC "-//W3C//DTD SVG 1.1//EN"
 "http://www.w3.org/Graphics/SVG/1.1/DTD/svg11.dtd">
<!-- Generated by graphviz version 2.43.0 (0)
 -->
<!-- Title: CohesiveElement::CohesiveInterfaceElement::OpLhs Pages: 1 -->
<svg width="1860pt" height="552pt"
 viewBox="0.00 0.00 1860.00 551.50" xmlns="http://www.w3.org/2000/svg" xmlns:xlink="http://www.w3.org/1999/xlink">
<g id="graph0" class="graph" transform="scale(1 1) rotate(0) translate(4 547.5)">
<title>CohesiveElement::CohesiveInterfaceElement::OpLhs</title>
<polygon fill="white" stroke="transparent" points="-4,4 -4,-547.5 1856,-547.5 1856,4 -4,4"/>
<!-- Node1 -->
<g id="node1" class="node">
<title>Node1</title>
<g id="a_node1"><a xlink:title="Operator calculate element stiffens matrix.">
<polygon fill="#bfbfbf" stroke="black" points="1699,-433 1699,-463 1852,-463 1852,-433 1699,-433"/>
<text text-anchor="start" x="1707" y="-451" font-family="Helvetica,sans-Serif" font-size="10.00">CohesiveElement::Cohesive</text>
<text text-anchor="middle" x="1775.5" y="-440" font-family="Helvetica,sans-Serif" font-size="10.00">InterfaceElement::OpLhs</text>
</a>
</g>
</g>
<!-- Node2 -->
<g id="node2" class="node">
<title>Node2</title>
<g id="a_node2"><a xlink:title=" ">
<polygon fill="white" stroke="#bfbfbf" points="1396,-513 1396,-543 1568,-543 1568,-513 1396,-513"/>
<text text-anchor="start" x="1404" y="-531" font-family="Helvetica,sans-Serif" font-size="10.00">FlatPrismElementForcesAnd</text>
<text text-anchor="middle" x="1482" y="-520" font-family="Helvetica,sans-Serif" font-size="10.00">SourcesCore::UserDataOperator</text>
</a>
</g>
</g>
<!-- Node2&#45;&gt;Node1 -->
<g id="edge1" class="edge">
<title>Node2&#45;&gt;Node1</title>
<path fill="none" stroke="midnightblue" d="M1550.28,-510.34C1588.64,-500.18 1637.57,-487.08 1681,-475 1694.67,-471.2 1709.44,-466.98 1723.11,-463.04"/>
<polygon fill="midnightblue" stroke="midnightblue" points="1549.04,-507.05 1540.27,-512.99 1550.83,-513.82 1549.04,-507.05"/>
</g>
<!-- Node3 -->
<g id="node3" class="node">
<title>Node3</title>
<g id="a_node3"><a xlink:title=" ">
<polygon fill="white" stroke="#bfbfbf" points="1131,-414.5 1131,-433.5 1214,-433.5 1214,-414.5 1131,-414.5"/>
<text text-anchor="middle" x="1172.5" y="-421.5" font-family="Helvetica,sans-Serif" font-size="10.00">MatrixDouble</text>
</a>
</g>
</g>
<!-- Node3&#45;&gt;Node1 -->
<g id="edge2" class="edge">
<title>Node3&#45;&gt;Node1</title>
<path fill="none" stroke="#9a32cd" stroke-dasharray="5,2" d="M1224.04,-435.28C1241.94,-438.78 1262.28,-442.18 1281,-444 1428.32,-458.3 1601.54,-455.12 1698.62,-451.54"/>
<polygon fill="#9a32cd" stroke="#9a32cd" points="1224.59,-431.82 1214.1,-433.28 1223.21,-438.68 1224.59,-431.82"/>
<text text-anchor="middle" x="1482" y="-479" font-family="Helvetica,sans-Serif" font-size="10.00"> D</text>
<text text-anchor="middle" x="1482" y="-468" font-family="Helvetica,sans-Serif" font-size="10.00">ND</text>
<text text-anchor="middle" x="1482" y="-457" font-family="Helvetica,sans-Serif" font-size="10.00">K</text>
</g>
<!-- Node4 -->
<g id="node4" class="node">
<title>Node4</title>
<g id="a_node4"><a xlink:href="structCohesiveElement_1_1CohesiveInterfaceElement_1_1CommonData.html" target="_top" xlink:title=" ">
<polygon fill="white" stroke="black" points="1395,-394 1395,-424 1569,-424 1569,-394 1395,-394"/>
<text text-anchor="start" x="1403" y="-412" font-family="Helvetica,sans-Serif" font-size="10.00">CohesiveElement::Cohesive</text>
<text text-anchor="middle" x="1482" y="-401" font-family="Helvetica,sans-Serif" font-size="10.00">InterfaceElement::CommonData</text>
</a>
</g>
</g>
<!-- Node3&#45;&gt;Node4 -->
<g id="edge4" class="edge">
<title>Node3&#45;&gt;Node4</title>
<path fill="none" stroke="#9a32cd" stroke-dasharray="5,2" d="M1224.11,-421.53C1270.44,-419.27 1339.95,-415.88 1394.99,-413.2"/>
<polygon fill="#9a32cd" stroke="#9a32cd" points="1223.83,-418.04 1214.02,-422.02 1224.18,-425.03 1223.83,-418.04"/>
<text text-anchor="middle" x="1325" y="-432" font-family="Helvetica,sans-Serif" font-size="10.00"> gapLoc</text>
<text text-anchor="middle" x="1325" y="-421" font-family="Helvetica,sans-Serif" font-size="10.00">gapGlob</text>
</g>
<!-- Node6 -->
<g id="node6" class="node">
<title>Node6</title>
<g id="a_node6"><a xlink:href="structCohesiveElement_1_1CohesiveInterfaceElement_1_1PhysicalEquation.html" target="_top" xlink:title="Constitutive (physical) equation for interface.">
<polygon fill="white" stroke="black" points="1387,-239 1387,-269 1577,-269 1577,-239 1387,-239"/>
<text text-anchor="start" x="1395" y="-257" font-family="Helvetica,sans-Serif" font-size="10.00">CohesiveElement::Cohesive</text>
<text text-anchor="middle" x="1482" y="-246" font-family="Helvetica,sans-Serif" font-size="10.00">InterfaceElement::PhysicalEquation</text>
</a>
</g>
</g>
<!-- Node3&#45;&gt;Node6 -->
<g id="edge7" class="edge">
<title>Node3&#45;&gt;Node6</title>
<path fill="none" stroke="#9a32cd" stroke-dasharray="5,2" d="M1211.69,-411.13C1267.58,-392.27 1365.48,-359.09 1369,-357 1410.09,-332.55 1449.06,-291.18 1468.37,-269.04"/>
<polygon fill="#9a32cd" stroke="#9a32cd" points="1210.46,-407.85 1202.1,-414.37 1212.7,-414.49 1210.46,-407.85"/>
<text text-anchor="middle" x="1325" y="-399" font-family="Helvetica,sans-Serif" font-size="10.00"> Dglob</text>
<text text-anchor="middle" x="1325" y="-388" font-family="Helvetica,sans-Serif" font-size="10.00">Dloc</text>
</g>
<!-- Node4&#45;&gt;Node1 -->
<g id="edge3" class="edge">
<title>Node4&#45;&gt;Node1</title>
<path fill="none" stroke="#9a32cd" stroke-dasharray="5,2" d="M1579.54,-421.92C1618.35,-427.11 1662.42,-433 1698.84,-437.88"/>
<polygon fill="#9a32cd" stroke="#9a32cd" points="1579.65,-418.4 1569.28,-420.54 1578.72,-425.34 1579.65,-418.4"/>
<text text-anchor="middle" x="1638" y="-438" font-family="Helvetica,sans-Serif" font-size="10.00"> commonData</text>
</g>
<!-- Node5 -->
<g id="node5" class="node">
<title>Node5</title>
<g id="a_node5"><a xlink:title=" ">
<polygon fill="white" stroke="#bfbfbf" points="1104.5,-337.5 1104.5,-356.5 1240.5,-356.5 1240.5,-337.5 1104.5,-337.5"/>
<text text-anchor="middle" x="1172.5" y="-344.5" font-family="Helvetica,sans-Serif" font-size="10.00">vector&lt; MatrixDouble &gt;</text>
</a>
</g>
</g>
<!-- Node5&#45;&gt;Node4 -->
<g id="edge5" class="edge">
<title>Node5&#45;&gt;Node4</title>
<path fill="none" stroke="#9a32cd" stroke-dasharray="5,2" d="M1250.7,-337.48C1287.14,-335.29 1330.88,-336.02 1369,-346 1404.18,-355.21 1439.96,-378.24 1461.32,-393.75"/>
<polygon fill="#9a32cd" stroke="#9a32cd" points="1250.37,-334 1240.63,-338.17 1250.85,-340.98 1250.37,-334"/>
<text text-anchor="middle" x="1325" y="-349" font-family="Helvetica,sans-Serif" font-size="10.00"> R</text>
</g>
<!-- Node6&#45;&gt;Node1 -->
<g id="edge6" class="edge">
<title>Node6&#45;&gt;Node1</title>
<path fill="none" stroke="#9a32cd" stroke-dasharray="5,2" d="M1514.43,-274.92C1573.55,-314.26 1700,-398.42 1751.73,-432.85"/>
<polygon fill="#9a32cd" stroke="#9a32cd" points="1516.14,-271.85 1505.87,-269.22 1512.26,-277.68 1516.14,-271.85"/>
<text text-anchor="middle" x="1638" y="-388" font-family="Helvetica,sans-Serif" font-size="10.00"> physicalEqations</text>
</g>
<!-- Node7 -->
<g id="node7" class="node">
<title>Node7</title>
<g id="a_node7"><a xlink:href="classdouble.html" target="_top" xlink:title=" ">
<polygon fill="white" stroke="black" points="1147.5,-105.5 1147.5,-124.5 1197.5,-124.5 1197.5,-105.5 1147.5,-105.5"/>
<text text-anchor="middle" x="1172.5" y="-112.5" font-family="Helvetica,sans-Serif" font-size="10.00">double</text>
</a>
</g>
</g>
<!-- Node7&#45;&gt;Node6 -->
<g id="edge8" class="edge">
<title>Node7&#45;&gt;Node6</title>
<path fill="none" stroke="#9a32cd" stroke-dasharray="5,2" d="M1207.71,-111.78C1248.35,-109.46 1317.18,-110.37 1369,-136 1416.85,-159.66 1455.09,-212.7 1471.83,-238.85"/>
<polygon fill="#9a32cd" stroke="#9a32cd" points="1207.26,-108.3 1197.52,-112.47 1207.73,-115.29 1207.26,-108.3"/>
<text text-anchor="middle" x="1325" y="-227" font-family="Helvetica,sans-Serif" font-size="10.00"> beta</text>
<text text-anchor="middle" x="1325" y="-216" font-family="Helvetica,sans-Serif" font-size="10.00">h</text>
<text text-anchor="middle" x="1325" y="-205" font-family="Helvetica,sans-Serif" font-size="10.00">youngModulus</text>
<text text-anchor="middle" x="1325" y="-194" font-family="Helvetica,sans-Serif" font-size="10.00">kappaPtr</text>
<text text-anchor="middle" x="1325" y="-183" font-family="Helvetica,sans-Serif" font-size="10.00">kappa1</text>
<text text-anchor="middle" x="1325" y="-172" font-family="Helvetica,sans-Serif" font-size="10.00">g0</text>
<text text-anchor="middle" x="1325" y="-161" font-family="Helvetica,sans-Serif" font-size="10.00">E0</text>
<text text-anchor="middle" x="1325" y="-150" font-family="Helvetica,sans-Serif" font-size="10.00">Gf</text>
<text text-anchor="middle" x="1325" y="-139" font-family="Helvetica,sans-Serif" font-size="10.00">ft</text>
</g>
<!-- Node8 -->
<g id="node8" class="node">
<title>Node8</title>
<g id="a_node8"><a xlink:title=" ">
<polygon fill="white" stroke="#bfbfbf" points="1156,-60.5 1156,-79.5 1189,-79.5 1189,-60.5 1156,-60.5"/>
<text text-anchor="middle" x="1172.5" y="-67.5" font-family="Helvetica,sans-Serif" font-size="10.00">Tag</text>
</a>
</g>
</g>
<!-- Node8&#45;&gt;Node6 -->
<g id="edge9" class="edge">
<title>Node8&#45;&gt;Node6</title>
<path fill="none" stroke="#9a32cd" stroke-dasharray="5,2" d="M1199.15,-65.79C1238.65,-60.67 1315.38,-56.26 1369,-88 1428.83,-123.42 1463.54,-204.82 1475.86,-238.73"/>
<polygon fill="#9a32cd" stroke="#9a32cd" points="1198.46,-62.35 1189.05,-67.22 1199.44,-69.28 1198.46,-62.35"/>
<text text-anchor="middle" x="1325" y="-102" font-family="Helvetica,sans-Serif" font-size="10.00"> thDamagedPrism</text>
<text text-anchor="middle" x="1325" y="-91" font-family="Helvetica,sans-Serif" font-size="10.00">thKappa</text>
</g>
<!-- Node9 -->
<g id="node9" class="node">
<title>Node9</title>
<g id="a_node9"><a xlink:href="structMoFEM_1_1DeprecatedCoreInterface.html" target="_top" xlink:title="Deprecated interface functions.">
<polygon fill="white" stroke="black" points="1082,-22.5 1082,-41.5 1263,-41.5 1263,-22.5 1082,-22.5"/>
<text text-anchor="middle" x="1172.5" y="-29.5" font-family="Helvetica,sans-Serif" font-size="10.00">MoFEM::DeprecatedCoreInterface</text>
</a>
</g>
</g>
<!-- Node9&#45;&gt;Node6 -->
<g id="edge10" class="edge">
<title>Node9&#45;&gt;Node6</title>
<path fill="none" stroke="#9a32cd" stroke-dasharray="5,2" d="M1256.96,-22.28C1293.97,-22.04 1336.41,-27.71 1369,-49 1438.94,-94.7 1468.84,-199.59 1477.86,-238.82"/>
<polygon fill="#9a32cd" stroke="#9a32cd" points="1256.6,-18.79 1246.68,-22.5 1256.75,-25.79 1256.6,-18.79"/>
<text text-anchor="middle" x="1325" y="-52" font-family="Helvetica,sans-Serif" font-size="10.00"> mField</text>
</g>
<!-- Node10 -->
<g id="node10" class="node">
<title>Node10</title>
<g id="a_node10"><a xlink:href="structMoFEM_1_1CoreInterface.html" target="_top" xlink:title="Interface.">
<polygon fill="white" stroke="black" points="920,-22.5 920,-41.5 1045,-41.5 1045,-22.5 920,-22.5"/>
<text text-anchor="middle" x="982.5" y="-29.5" font-family="Helvetica,sans-Serif" font-size="10.00">MoFEM::CoreInterface</text>
</a>
</g>
</g>
<!-- Node10&#45;&gt;Node9 -->
<g id="edge11" class="edge">
<title>Node10&#45;&gt;Node9</title>
<path fill="none" stroke="midnightblue" d="M1055.16,-32C1063.89,-32 1072.89,-32 1081.84,-32"/>
<polygon fill="midnightblue" stroke="midnightblue" points="1055.06,-28.5 1045.06,-32 1055.06,-35.5 1055.06,-28.5"/>
</g>
<!-- Node11 -->
<g id="node11" class="node">
<title>Node11</title>
<g id="a_node11"><a xlink:href="structMoFEM_1_1UnknownInterface.html" target="_top" xlink:title="base class for all interface classes">
<polygon fill="white" stroke="black" points="735,-22.5 735,-41.5 883,-41.5 883,-22.5 735,-22.5"/>
<text text-anchor="middle" x="809" y="-29.5" font-family="Helvetica,sans-Serif" font-size="10.00">MoFEM::UnknownInterface</text>
</a>
</g>
</g>
<!-- Node11&#45;&gt;Node10 -->
<g id="edge12" class="edge">
<title>Node11&#45;&gt;Node10</title>
<path fill="none" stroke="midnightblue" d="M893.29,-32C902.24,-32 911.22,-32 919.85,-32"/>
<polygon fill="midnightblue" stroke="midnightblue" points="893.23,-28.5 883.23,-32 893.23,-35.5 893.23,-28.5"/>
</g>
<!-- Node12 -->
<g id="node12" class="node">
<title>Node12</title>
<g id="a_node12"><a xlink:title=" ">
<polygon fill="white" stroke="#bfbfbf" points="386,-0.5 386,-63.5 627,-63.5 627,-0.5 386,-0.5"/>
<text text-anchor="start" x="394" y="-51.5" font-family="Helvetica,sans-Serif" font-size="10.00">multi_index_container</text>
<text text-anchor="start" x="394" y="-40.5" font-family="Helvetica,sans-Serif" font-size="10.00">&lt; UIdTypeMap, indexed</text>
<text text-anchor="start" x="394" y="-29.5" font-family="Helvetica,sans-Serif" font-size="10.00">_by&lt; hashed_unique&lt; member</text>
<text text-anchor="start" x="394" y="-18.5" font-family="Helvetica,sans-Serif" font-size="10.00">&lt; UIdTypeMap, boost::typeindex</text>
<text text-anchor="middle" x="506.5" y="-7.5" font-family="Helvetica,sans-Serif" font-size="10.00">::type_index, &amp;UIdTypeMap::classIdx &gt; &gt; &gt; &gt;</text>
</a>
</g>
</g>
<!-- Node12&#45;&gt;Node11 -->
<g id="edge13" class="edge">
<title>Node12&#45;&gt;Node11</title>
<path fill="none" stroke="#9a32cd" stroke-dasharray="5,2" d="M637.41,-32C670.69,-32 705.33,-32 734.62,-32"/>
<polygon fill="#9a32cd" stroke="#9a32cd" points="637.13,-28.5 627.13,-32 637.13,-35.5 637.13,-28.5"/>
<text text-anchor="middle" x="681" y="-35" font-family="Helvetica,sans-Serif" font-size="10.00"> iFaceTypeMap</text>
</g>
<!-- Node13 -->
<g id="node13" class="node">
<title>Node13</title>
<g id="a_node13"><a xlink:title=" ">
<polygon fill="white" stroke="#bfbfbf" points="0,-22.5 0,-41.5 125,-41.5 125,-22.5 0,-22.5"/>
<text text-anchor="middle" x="62.5" y="-29.5" font-family="Helvetica,sans-Serif" font-size="10.00">multi_index_container</text>
</a>
</g>
</g>
<!-- Node13&#45;&gt;Node12 -->
<g id="edge14" class="edge">
<title>Node13&#45;&gt;Node12</title>
<path fill="none" stroke="orange" stroke-dasharray="5,2" d="M135.56,-32C203.25,-32 305.79,-32 385.77,-32"/>
<polygon fill="orange" stroke="orange" points="135.42,-28.5 125.42,-32 135.42,-35.5 135.42,-28.5"/>
<text text-anchor="start" x="143" y="-68" font-family="Helvetica,sans-Serif" font-size="10.00"> &lt; UIdTypeMap, indexed</text>
<text text-anchor="start" x="143" y="-57" font-family="Helvetica,sans-Serif" font-size="10.00">_by&lt; hashed_unique&lt; member</text>
<text text-anchor="start" x="143" y="-46" font-family="Helvetica,sans-Serif" font-size="10.00">&lt; UIdTypeMap, boost::typeindex</text>
<text text-anchor="middle" x="255.5" y="-35" font-family="Helvetica,sans-Serif" font-size="10.00">::type_index, &amp;UIdTypeMap::classIdx &gt; &gt; &gt; &gt;</text>
</g>
<!-- Node14 -->
<g id="node14" class="node">
<title>Node14</title>
<g id="a_node14"><a xlink:href="classRange.html" target="_top" xlink:title=" ">
<polygon fill="white" stroke="black" points="1149,-299.5 1149,-318.5 1196,-318.5 1196,-299.5 1149,-299.5"/>
<text text-anchor="middle" x="1172.5" y="-306.5" font-family="Helvetica,sans-Serif" font-size="10.00">Range</text>
</a>
</g>
</g>
<!-- Node14&#45;&gt;Node6 -->
<g id="edge15" class="edge">
<title>Node14&#45;&gt;Node6</title>
<path fill="none" stroke="#9a32cd" stroke-dasharray="5,2" d="M1206.4,-304.95C1245.36,-299.95 1312.15,-290.8 1369,-280 1385.67,-276.83 1403.62,-272.9 1420.16,-269.07"/>
<polygon fill="#9a32cd" stroke="#9a32cd" points="1205.66,-301.51 1196.18,-306.24 1206.54,-308.46 1205.66,-301.51"/>
<text text-anchor="middle" x="1325" y="-297" font-family="Helvetica,sans-Serif" font-size="10.00"> pRisms</text>
</g>
<!-- Node15 -->
<g id="node15" class="node">
<title>Node15</title>
<g id="a_node15"><a xlink:title=" ">
<polygon fill="white" stroke="#bfbfbf" points="1158,-261.5 1158,-280.5 1187,-280.5 1187,-261.5 1158,-261.5"/>
<text text-anchor="middle" x="1172.5" y="-268.5" font-family="Helvetica,sans-Serif" font-size="10.00">int</text>
</a>
</g>
</g>
<!-- Node15&#45;&gt;Node6 -->
<g id="edge16" class="edge">
<title>Node15&#45;&gt;Node6</title>
<path fill="none" stroke="#9a32cd" stroke-dasharray="5,2" d="M1197.24,-269.69C1237.42,-267.47 1320.89,-262.85 1386.95,-259.2"/>
<polygon fill="#9a32cd" stroke="#9a32cd" points="1196.9,-266.2 1187.11,-270.25 1197.29,-273.19 1196.9,-266.2"/>
<text text-anchor="middle" x="1325" y="-268" font-family="Helvetica,sans-Serif" font-size="10.00"> kappaSize</text>
</g>
<!-- Node16 -->
<g id="node16" class="node">
<title>Node16</title>
<g id="a_node16"><a xlink:href="classbool.html" target="_top" xlink:title=" ">
<polygon fill="white" stroke="black" points="1153.5,-223.5 1153.5,-242.5 1191.5,-242.5 1191.5,-223.5 1153.5,-223.5"/>
<text text-anchor="middle" x="1172.5" y="-230.5" font-family="Helvetica,sans-Serif" font-size="10.00">bool</text>
</a>
</g>
</g>
<!-- Node16&#45;&gt;Node6 -->
<g id="edge17" class="edge">
<title>Node16&#45;&gt;Node6</title>
<path fill="none" stroke="#9a32cd" stroke-dasharray="5,2" d="M1201.87,-234.57C1239.92,-236.72 1309.57,-240.79 1369,-245 1374.84,-245.41 1380.84,-245.85 1386.9,-246.31"/>
<polygon fill="#9a32cd" stroke="#9a32cd" points="1201.75,-231.06 1191.57,-233.99 1201.35,-238.05 1201.75,-231.06"/>
<text text-anchor="middle" x="1325" y="-248" font-family="Helvetica,sans-Serif" font-size="10.00"> isInitialised</text>
</g>
</g>
</svg>
