<?xml version="1.0" encoding="UTF-8" standalone="no"?>
<!DOCTYPE svg PUBLIC "-//W3C//DTD SVG 1.1//EN"
 "http://www.w3.org/Graphics/SVG/1.1/DTD/svg11.dtd">
<!-- Generated by graphviz version 9.0.0 (20230911.1827)
 -->
<!-- Title: FractureMechanics::ConstantArea::CommonData Pages: 1 -->
<svg width="1470pt" height="331pt"
 viewBox="0.00 0.00 1469.50 330.62" xmlns="http://www.w3.org/2000/svg" xmlns:xlink="http://www.w3.org/1999/xlink">
<g id="graph0" class="graph" transform="scale(1 1) rotate(0) translate(4 326.62)">
<title>FractureMechanics::ConstantArea::CommonData</title>
<!-- Node1 -->
<g id="node1" class="node">
<title>Node1</title>
<g id="a_node1"><a xlink:title=" ">
<polygon fill="#999999" stroke="#666666" points="1461.5,-132.88 1318.75,-132.88 1318.75,-102.38 1461.5,-102.38 1461.5,-132.88"/>
<text text-anchor="start" x="1326.75" y="-119.38" font-family="Helvetica,sans-Serif" font-size="10.00">FractureMechanics::</text>
<text text-anchor="middle" x="1390.12" y="-108.12" font-family="Helvetica,sans-Serif" font-size="10.00">ConstantArea::CommonData</text>
</a>
</g>
</g>
<!-- Node2 -->
<g id="node2" class="node">
<title>Node2</title>
<g id="a_node2"><a xlink:href="struct_mo_f_e_m_1_1_deprecated_core_interface.html" target="_top" xlink:title="Deprecated interface functions.">
<polygon fill="white" stroke="#666666" points="1157.5,-287.25 991.5,-287.25 991.5,-268 1157.5,-268 1157.5,-287.25"/>
<text text-anchor="middle" x="1074.5" y="-273.75" font-family="Helvetica,sans-Serif" font-size="10.00">MoFEM::DeprecatedCoreInterface</text>
</a>
</g>
</g>
<!-- Node2&#45;&gt;Node1 -->
<g id="edge1" class="edge">
<title>Node2&#45;&gt;Node1</title>
<path fill="none" stroke="#9a32cd" stroke-dasharray="5,2" d="M1169.15,-285.89C1212.07,-285.4 1261.91,-278.43 1300.75,-254.62 1347.33,-226.08 1373.9,-162.71 1384.16,-133.25"/>
<polygon fill="#9a32cd" stroke="#9a32cd" points="1169.34,-282.39 1159.34,-285.88 1169.33,-289.39 1169.34,-282.39"/>
<text text-anchor="middle" x="1238.12" y="-287.38" font-family="Helvetica,sans-Serif" font-size="10.00"> mField</text>
</g>
<!-- Node3 -->
<g id="node3" class="node">
<title>Node3</title>
<g id="a_node3"><a xlink:href="struct_mo_f_e_m_1_1_core_interface.html" target="_top" xlink:title="Interface.">
<polygon fill="white" stroke="#666666" points="954.5,-287.25 838.75,-287.25 838.75,-268 954.5,-268 954.5,-287.25"/>
<text text-anchor="middle" x="896.62" y="-273.75" font-family="Helvetica,sans-Serif" font-size="10.00">MoFEM::CoreInterface</text>
</a>
</g>
</g>
<!-- Node3&#45;&gt;Node2 -->
<g id="edge2" class="edge">
<title>Node3&#45;&gt;Node2</title>
<path fill="none" stroke="#63b8ff" d="M966.13,-277.62C974.33,-277.62 982.77,-277.62 991.13,-277.62"/>
<polygon fill="#63b8ff" stroke="#63b8ff" points="966.24,-274.13 956.24,-277.63 966.24,-281.13 966.24,-274.13"/>
</g>
<!-- Node4 -->
<g id="node4" class="node">
<title>Node4</title>
<g id="a_node4"><a xlink:href="struct_mo_f_e_m_1_1_unknown_interface.html" target="_top" xlink:title="base class for all interface classes">
<polygon fill="white" stroke="#666666" points="801.75,-287.25 665.75,-287.25 665.75,-268 801.75,-268 801.75,-287.25"/>
<text text-anchor="middle" x="733.75" y="-273.75" font-family="Helvetica,sans-Serif" font-size="10.00">MoFEM::UnknownInterface</text>
</a>
</g>
</g>
<!-- Node4&#45;&gt;Node3 -->
<g id="edge3" class="edge">
<title>Node4&#45;&gt;Node3</title>
<path fill="none" stroke="#63b8ff" d="M813.43,-277.62C821.81,-277.62 830.23,-277.62 838.3,-277.62"/>
<polygon fill="#63b8ff" stroke="#63b8ff" points="813.56,-274.13 803.56,-277.63 813.56,-281.13 813.56,-274.13"/>
</g>
<!-- Node5 -->
<g id="node5" class="node">
<title>Node5</title>
<g id="a_node5"><a xlink:title=" ">
<polygon fill="white" stroke="#666666" points="563,-309.75 346.75,-309.75 346.75,-245.5 563,-245.5 563,-309.75"/>
<text text-anchor="start" x="354.75" y="-296.25" font-family="Helvetica,sans-Serif" font-size="10.00">multi_index_container</text>
<text text-anchor="start" x="354.75" y="-285" font-family="Helvetica,sans-Serif" font-size="10.00">&lt; UIdTypeMap, indexed</text>
<text text-anchor="start" x="354.75" y="-273.75" font-family="Helvetica,sans-Serif" font-size="10.00">_by&lt; hashed_unique&lt; member</text>
<text text-anchor="start" x="354.75" y="-262.5" font-family="Helvetica,sans-Serif" font-size="10.00">&lt; UIdTypeMap, boost::typeindex</text>
<text text-anchor="middle" x="454.88" y="-251.25" font-family="Helvetica,sans-Serif" font-size="10.00">::type_index, &amp;UIdTypeMap::classIdx &gt; &gt; &gt; &gt;</text>
</a>
</g>
</g>
<!-- Node5&#45;&gt;Node4 -->
<g id="edge4" class="edge">
<title>Node5&#45;&gt;Node4</title>
<path fill="none" stroke="#9a32cd" stroke-dasharray="5,2" d="M574.68,-277.62C605.7,-277.62 638.06,-277.62 665.37,-277.62"/>
<polygon fill="#9a32cd" stroke="#9a32cd" points="574.83,-274.13 564.83,-277.63 574.83,-281.13 574.83,-274.13"/>
<text text-anchor="middle" x="614.38" y="-279.38" font-family="Helvetica,sans-Serif" font-size="10.00"> iFaceTypeMap</text>
</g>
<!-- Node6 -->
<g id="node6" class="node">
<title>Node6</title>
<g id="a_node6"><a xlink:title=" ">
<polygon fill="white" stroke="#666666" points="110.5,-287.25 0,-287.25 0,-268 110.5,-268 110.5,-287.25"/>
<text text-anchor="middle" x="55.25" y="-273.75" font-family="Helvetica,sans-Serif" font-size="10.00">multi_index_container</text>
</a>
</g>
</g>
<!-- Node6&#45;&gt;Node5 -->
<g id="edge5" class="edge">
<title>Node6&#45;&gt;Node5</title>
<path fill="none" stroke="orange" stroke-dasharray="5,2" d="M122.09,-277.62C183.01,-277.62 274.7,-277.62 346.26,-277.62"/>
<polygon fill="orange" stroke="orange" points="122.22,-274.13 112.22,-277.63 122.22,-281.13 122.22,-274.13"/>
<text text-anchor="start" x="128.5" y="-313.12" font-family="Helvetica,sans-Serif" font-size="10.00"> &lt; UIdTypeMap, indexed</text>
<text text-anchor="start" x="128.5" y="-301.88" font-family="Helvetica,sans-Serif" font-size="10.00">_by&lt; hashed_unique&lt; member</text>
<text text-anchor="start" x="128.5" y="-290.62" font-family="Helvetica,sans-Serif" font-size="10.00">&lt; UIdTypeMap, boost::typeindex</text>
<text text-anchor="middle" x="228.62" y="-279.38" font-family="Helvetica,sans-Serif" font-size="10.00">::type_index, &amp;UIdTypeMap::classIdx &gt; &gt; &gt; &gt;</text>
</g>
<!-- Node7 -->
<g id="node7" class="node">
<title>Node7</title>
<g id="a_node7"><a xlink:title=" ">
<polygon fill="white" stroke="#666666" points="1112.12,-241.25 1036.88,-241.25 1036.88,-222 1112.12,-222 1112.12,-241.25"/>
<text text-anchor="middle" x="1074.5" y="-227.75" font-family="Helvetica,sans-Serif" font-size="10.00">VectorDouble</text>
</a>
</g>
</g>
<!-- Node7&#45;&gt;Node1 -->
<g id="edge6" class="edge">
<title>Node7&#45;&gt;Node1</title>
<path fill="none" stroke="#9a32cd" stroke-dasharray="5,2" d="M1123.77,-230.8C1180.45,-229.16 1270.57,-224.26 1300.75,-209.62 1336.22,-192.43 1365.09,-154.67 1379.39,-133.25"/>
<polygon fill="#9a32cd" stroke="#9a32cd" points="1123.98,-227.29 1114.08,-231.05 1124.16,-234.29 1123.98,-227.29"/>
<text text-anchor="middle" x="1238.12" y="-240.62" font-family="Helvetica,sans-Serif" font-size="10.00"> crackAreaIncrement</text>
<text text-anchor="middle" x="1238.12" y="-229.38" font-family="Helvetica,sans-Serif" font-size="10.00">crackFrontTangent</text>
</g>
<!-- Node8 -->
<g id="node8" class="node">
<title>Node8</title>
<g id="a_node8"><a xlink:title=" ">
<polygon fill="white" stroke="#666666" points="1111.38,-195.25 1037.62,-195.25 1037.62,-176 1111.38,-176 1111.38,-195.25"/>
<text text-anchor="middle" x="1074.5" y="-181.75" font-family="Helvetica,sans-Serif" font-size="10.00">MatrixDouble</text>
</a>
</g>
</g>
<!-- Node8&#45;&gt;Node1 -->
<g id="edge7" class="edge">
<title>Node8&#45;&gt;Node1</title>
<path fill="none" stroke="#9a32cd" stroke-dasharray="5,2" d="M1123.3,-186.19C1169.6,-185.52 1241.32,-181.27 1300.75,-163.62 1323.96,-156.73 1348.22,-143.62 1365.43,-133.15"/>
<polygon fill="#9a32cd" stroke="#9a32cd" points="1123.29,-182.69 1113.32,-186.27 1123.35,-189.69 1123.29,-182.69"/>
<text text-anchor="middle" x="1238.12" y="-196.62" font-family="Helvetica,sans-Serif" font-size="10.00"> tangentCrackAreaIncrement</text>
<text text-anchor="middle" x="1238.12" y="-185.38" font-family="Helvetica,sans-Serif" font-size="10.00">tangentCrackFrontTangent</text>
</g>
<!-- Node9 -->
<g id="node9" class="node">
<title>Node9</title>
<g id="a_node9"><a xlink:title=" ">
<polygon fill="white" stroke="#666666" points="1122.62,-130.25 1026.38,-130.25 1026.38,-111 1122.62,-111 1122.62,-130.25"/>
<text text-anchor="middle" x="1074.5" y="-116.75" font-family="Helvetica,sans-Serif" font-size="10.00">vector&lt; double * &gt;</text>
</a>
</g>
</g>
<!-- Node9&#45;&gt;Node1 -->
<g id="edge8" class="edge">
<title>Node9&#45;&gt;Node1</title>
<path fill="none" stroke="#9a32cd" stroke-dasharray="5,2" d="M1134.22,-119.3C1147.77,-119.04 1162.14,-118.79 1175.5,-118.62 1223.15,-118.04 1276.79,-117.79 1318.4,-117.68"/>
<polygon fill="#9a32cd" stroke="#9a32cd" points="1134.5,-115.79 1124.57,-119.49 1134.64,-122.79 1134.5,-115.79"/>
<text text-anchor="start" x="1175.5" y="-154.12" font-family="Helvetica,sans-Serif" font-size="10.00"> tangentCrackAreaIncrement</text>
<text text-anchor="middle" x="1238.12" y="-142.88" font-family="Helvetica,sans-Serif" font-size="10.00">RowPtr</text>
<text text-anchor="start" x="1175.5" y="-131.62" font-family="Helvetica,sans-Serif" font-size="10.00">tangentCrackFrontTangent</text>
<text text-anchor="middle" x="1238.12" y="-120.38" font-family="Helvetica,sans-Serif" font-size="10.00">RowPtr</text>
</g>
<!-- Node10 -->
<g id="node10" class="node">
<title>Node10</title>
<g id="a_node10"><a xlink:title=" ">
<polygon fill="white" stroke="#666666" points="1117.75,-93.25 1031.25,-93.25 1031.25,-74 1117.75,-74 1117.75,-93.25"/>
<text text-anchor="middle" x="1074.5" y="-79.75" font-family="Helvetica,sans-Serif" font-size="10.00">map&lt; int, Vec &gt;</text>
</a>
</g>
</g>
<!-- Node10&#45;&gt;Node1 -->
<g id="edge9" class="edge">
<title>Node10&#45;&gt;Node1</title>
<path fill="none" stroke="#9a32cd" stroke-dasharray="5,2" d="M1129.39,-86.78C1175.11,-89.77 1242.38,-94.92 1300.75,-102.38 1306.46,-103.1 1312.37,-103.94 1318.3,-104.84"/>
<polygon fill="#9a32cd" stroke="#9a32cd" points="1129.68,-83.29 1119.47,-86.14 1129.23,-90.27 1129.68,-83.29"/>
<text text-anchor="middle" x="1238.12" y="-103.38" font-family="Helvetica,sans-Serif" font-size="10.00"> mapV</text>
</g>
<!-- Node11 -->
<g id="node11" class="node">
<title>Node11</title>
<g id="a_node11"><a xlink:href="classbool.html" target="_top" xlink:title=" ">
<polygon fill="white" stroke="#666666" points="1091.5,-56.25 1057.5,-56.25 1057.5,-37 1091.5,-37 1091.5,-56.25"/>
<text text-anchor="middle" x="1074.5" y="-42.75" font-family="Helvetica,sans-Serif" font-size="10.00">bool</text>
</a>
</g>
</g>
<!-- Node11&#45;&gt;Node1 -->
<g id="edge10" class="edge">
<title>Node11&#45;&gt;Node1</title>
<path fill="none" stroke="#9a32cd" stroke-dasharray="5,2" d="M1103.23,-47.1C1146.34,-48.49 1231.68,-53.85 1300.75,-74.38 1322.69,-80.9 1345.88,-92.44 1362.99,-101.96"/>
<polygon fill="#9a32cd" stroke="#9a32cd" points="1103.6,-43.61 1093.51,-46.84 1103.41,-50.61 1103.6,-43.61"/>
<text text-anchor="middle" x="1238.12" y="-75.38" font-family="Helvetica,sans-Serif" font-size="10.00"> setMapV</text>
</g>
<!-- Node12 -->
<g id="node12" class="node">
<title>Node12</title>
<g id="a_node12"><a xlink:title=" ">
<polygon fill="white" stroke="#666666" points="1090.38,-19.25 1058.62,-19.25 1058.62,0 1090.38,0 1090.38,-19.25"/>
<text text-anchor="middle" x="1074.5" y="-5.75" font-family="Helvetica,sans-Serif" font-size="10.00">Tag</text>
</a>
</g>
</g>
<!-- Node12&#45;&gt;Node1 -->
<g id="edge11" class="edge">
<title>Node12&#45;&gt;Node1</title>
<path fill="none" stroke="#9a32cd" stroke-dasharray="5,2" d="M1102.16,-7.66C1145.81,-5.53 1234.33,-5.85 1300.75,-36.38 1333.32,-51.35 1362.02,-82.88 1377.35,-101.96"/>
<polygon fill="#9a32cd" stroke="#9a32cd" points="1102.14,-4.15 1092.36,-8.23 1102.54,-11.14 1102.14,-4.15"/>
<text text-anchor="middle" x="1238.12" y="-38.38" font-family="Helvetica,sans-Serif" font-size="10.00"> thInterfaceSide</text>
</g>
</g>
</svg>
