<?xml version="1.0" encoding="UTF-8" standalone="no"?>
<!DOCTYPE svg PUBLIC "-//W3C//DTD SVG 1.1//EN"
 "http://www.w3.org/Graphics/SVG/1.1/DTD/svg11.dtd">
<!-- Generated by graphviz version 9.0.0 (20230911.1827)
 -->
<!-- Title: OpFaceSide Pages: 1 -->
<svg width="329pt" height="88pt"
 viewBox="0.00 0.00 328.75 87.50" xmlns="http://www.w3.org/2000/svg" xmlns:xlink="http://www.w3.org/1999/xlink">
<g id="graph0" class="graph" transform="scale(1 1) rotate(0) translate(4 83.5)">
<title>OpFaceSide</title>
<!-- Node1 -->
<g id="node1" class="node">
<title>Node1</title>
<g id="a_node1"><a xlink:title=" ">
<polygon fill="#999999" stroke="#666666" points="320.75,-48.88 250.75,-48.88 250.75,-29.62 320.75,-29.62 320.75,-48.88"/>
<text text-anchor="middle" x="285.75" y="-35.38" font-family="Helvetica,sans-Serif" font-size="10.00">OpFaceSide</text>
</a>
</g>
</g>
<!-- Node2 -->
<g id="node2" class="node">
<title>Node2</title>
<g id="a_node2"><a xlink:title=" ">
<polygon fill="white" stroke="#666666" points="164.12,-79.5 7.12,-79.5 7.12,-49 164.12,-49 164.12,-79.5"/>
<text text-anchor="start" x="15.12" y="-66" font-family="Helvetica,sans-Serif" font-size="10.00">FaceElementForcesAndSources</text>
<text text-anchor="middle" x="85.62" y="-54.75" font-family="Helvetica,sans-Serif" font-size="10.00">Core::UserDataOperator</text>
</a>
</g>
</g>
<!-- Node2&#45;&gt;Node1 -->
<g id="edge1" class="edge">
<title>Node2&#45;&gt;Node1</title>
<path fill="none" stroke="#63b8ff" d="M175.75,-55.39C194.6,-53.26 214.35,-50.85 232.75,-48.25 238.47,-47.44 244.52,-46.49 250.39,-45.51"/>
<polygon fill="#63b8ff" stroke="#63b8ff" points="175.53,-51.89 165.97,-56.47 176.3,-58.85 175.53,-51.89"/>
</g>
<!-- Node3 -->
<g id="node3" class="node">
<title>Node3</title>
<g id="a_node3"><a xlink:title=" ">
<polygon fill="white" stroke="#666666" points="171.25,-30.5 0,-30.5 0,0 171.25,0 171.25,-30.5"/>
<text text-anchor="start" x="8" y="-17" font-family="Helvetica,sans-Serif" font-size="10.00">shared_ptr&lt; VolumeElement</text>
<text text-anchor="middle" x="85.62" y="-5.75" font-family="Helvetica,sans-Serif" font-size="10.00">ForcesAndSourcesCoreOnSide &gt; &amp;</text>
</a>
</g>
</g>
<!-- Node3&#45;&gt;Node1 -->
<g id="edge2" class="edge">
<title>Node3&#45;&gt;Node1</title>
<path fill="none" stroke="#9a32cd" stroke-dasharray="5,2" d="M182.62,-26.88C206.87,-29.82 231.38,-32.78 250.3,-35.08"/>
<polygon fill="#9a32cd" stroke="#9a32cd" points="183.36,-23.44 173.01,-25.71 182.52,-30.39 183.36,-23.44"/>
<text text-anchor="middle" x="211" y="-35" font-family="Helvetica,sans-Serif" font-size="10.00"> feSidePtr</text>
</g>
</g>
</svg>
