<?xml version="1.0" encoding="UTF-8" standalone="no"?>
<!DOCTYPE svg PUBLIC "-//W3C//DTD SVG 1.1//EN"
 "http://www.w3.org/Graphics/SVG/1.1/DTD/svg11.dtd">
<!-- Generated by graphviz version 9.0.0 (20230911.1827)
 -->
<!-- Title: MoFEM::OpGetCoordsAndNormalsOnPrism Pages: 1 -->
<!--zoomable 319 -->
<svg id="main" version="1.1" xmlns="http://www.w3.org/2000/svg" xmlns:xlink="http://www.w3.org/1999/xlink" xml:space="preserve" onload="init(evt)">
<style type="text/css"><![CDATA[
.edge:hover path { stroke: red; }
.edge:hover polygon { stroke: red; fill: red; }
]]></style>
<script type="text/javascript"><![CDATA[
var edges = document.getElementsByTagName('g');
if (edges && edges.length) {
  for (var i=0;i<edges.length;i++) {
    if (edges[i].id.substr(0,4)=='edge') {
      edges[i].setAttribute('class','edge');
    }
  }
}
]]></script>
        <defs>
                <circle id="rim" cx="0" cy="0" r="7"/>
                <circle id="rim2" cx="0" cy="0" r="3.5"/>
                <g id="zoomPlus">
                        <use xlink:href="#rim" fill="#404040">
                                <set attributeName="fill" to="#808080" begin="zoomplus.mouseover" end="zoomplus.mouseout"/>
                        </use>
                        <path d="M-4,0h8M0,-4v8" fill="none" stroke="white" stroke-width="1.5" pointer-events="none"/>
                </g>
                <g id="zoomMin">
                        <use xlink:href="#rim" fill="#404040">
                                <set attributeName="fill" to="#808080" begin="zoomminus.mouseover" end="zoomminus.mouseout"/>
                        </use>
                        <path d="M-4,0h8" fill="none" stroke="white" stroke-width="1.5" pointer-events="none"/>
                </g>
                <g id="dirArrow">
                        <path fill="none" stroke="white" stroke-width="1.5" d="M0,-3.0v7 M-2.5,-0.5L0,-3.0L2.5,-0.5"/>
                </g>
               <g id="resetDef">
                       <use xlink:href="#rim2" fill="#404040">
                               <set attributeName="fill" to="#808080" begin="reset.mouseover" end="reset.mouseout"/>
                       </use>
               </g>
        </defs>

<script type="text/javascript">
var viewWidth = 740;
var viewHeight = 319;
var sectionId = 'dynsection-1';
</script>
<script xlink:href="svgpan.js"/>
<svg id="graph" class="graph">
<g id="viewport">
<title>MoFEM::OpGetCoordsAndNormalsOnPrism</title>
<!-- Node1 -->
<g id="node1" class="node">
<title>Node1</title>
<g id="a_node1"><a xlink:title="calculate normals at Gauss points of triangle element">
<polygon fill="#999999" stroke="#666666" points="732,-85.84 561.5,-85.84 561.5,-55.34 732,-55.34 732,-85.84"/>
<text text-anchor="start" x="569.5" y="-72.34" font-family="Helvetica,sans-Serif" font-size="10.00">MoFEM::OpGetCoordsAndNormals</text>
<text text-anchor="middle" x="646.75" y="-61.09" font-family="Helvetica,sans-Serif" font-size="10.00">OnPrism</text>
</a>
</g>
</g>
<!-- Node2 -->
<g id="node2" class="node">
<title>Node2</title>
<g id="a_node2"><a xlink:href="struct_mo_f_e_m_1_1_data_operator.html" target="_top" xlink:title="base operator to do operations at Gauss Pt. level">
<polygon fill="white" stroke="#666666" points="417.5,-138.22 302.5,-138.22 302.5,-118.97 417.5,-118.97 417.5,-138.22"/>
<text text-anchor="middle" x="360" y="-124.72" font-family="Helvetica,sans-Serif" font-size="10.00">MoFEM::DataOperator</text>
</a>
</g>
</g>
<!-- Node2&#45;&gt;Node1 -->
<g id="edge1" class="edge">
<title>Node2&#45;&gt;Node1</title>
<path fill="none" stroke="#63b8ff" d="M429.11,-128.67C463.78,-127.38 506.35,-123.74 543.5,-114.59 569.21,-108.26 596.68,-96.1 616.67,-86.17"/>
<polygon fill="#63b8ff" stroke="#63b8ff" points="429.07,-125.17 419.18,-128.97 429.28,-132.16 429.07,-125.17"/>
</g>
<!-- Node3 -->
<g id="node3" class="node">
<title>Node3</title>
<g id="a_node3"><a xlink:title=" ">
<polygon fill="white" stroke="#666666" points="188.5,-310.97 0,-310.97 0,-224.22 188.5,-224.22 188.5,-310.97"/>
<text text-anchor="start" x="8" y="-297.47" font-family="Helvetica,sans-Serif" font-size="10.00">function&lt; MoFEMErrorCode</text>
<text text-anchor="start" x="8" y="-286.22" font-family="Helvetica,sans-Serif" font-size="10.00">(DataOperator *op_ptr,</text>
<text text-anchor="start" x="8" y="-274.97" font-family="Helvetica,sans-Serif" font-size="10.00"> int row_side, int col_side,</text>
<text text-anchor="start" x="8" y="-263.72" font-family="Helvetica,sans-Serif" font-size="10.00"> EntityType row_type, EntityType</text>
<text text-anchor="start" x="8" y="-252.47" font-family="Helvetica,sans-Serif" font-size="10.00"> col_type, EntitiesFieldData::EntData</text>
<text text-anchor="start" x="8" y="-241.22" font-family="Helvetica,sans-Serif" font-size="10.00"> &amp;row_data, EntitiesFieldData::EntData</text>
<text text-anchor="middle" x="94.25" y="-229.97" font-family="Helvetica,sans-Serif" font-size="10.00"> &amp;col_data)&gt;</text>
</a>
</g>
</g>
<!-- Node3&#45;&gt;Node2 -->
<g id="edge2" class="edge">
<title>Node3&#45;&gt;Node2</title>
<path fill="none" stroke="#9a32cd" stroke-dasharray="5,2" d="M199.23,-227.61C227.33,-215.41 257.27,-201.08 283.75,-185.59 308.08,-171.36 333.69,-150.52 347.87,-138.38"/>
<polygon fill="#9a32cd" stroke="#9a32cd" points="198.17,-224.26 190.36,-231.42 200.93,-230.69 198.17,-224.26"/>
<text text-anchor="middle" x="245.12" y="-225.34" font-family="Helvetica,sans-Serif" font-size="10.00"> doWorkLhsHook</text>
</g>
<!-- Node4 -->
<g id="node4" class="node">
<title>Node4</title>
<g id="a_node4"><a xlink:title=" ">
<polygon fill="white" stroke="#666666" points="181,-206.09 7.5,-206.09 7.5,-153.09 181,-153.09 181,-206.09"/>
<text text-anchor="start" x="15.5" y="-192.59" font-family="Helvetica,sans-Serif" font-size="10.00">function&lt; MoFEMErrorCode</text>
<text text-anchor="start" x="15.5" y="-181.34" font-family="Helvetica,sans-Serif" font-size="10.00">(DataOperator *op_ptr,</text>
<text text-anchor="start" x="15.5" y="-170.09" font-family="Helvetica,sans-Serif" font-size="10.00"> int side, EntityType type,</text>
<text text-anchor="middle" x="94.25" y="-158.84" font-family="Helvetica,sans-Serif" font-size="10.00"> EntitiesFieldData::EntData &amp;data)&gt;</text>
</a>
</g>
</g>
<!-- Node4&#45;&gt;Node2 -->
<g id="edge3" class="edge">
<title>Node4&#45;&gt;Node2</title>
<path fill="none" stroke="#9a32cd" stroke-dasharray="5,2" d="M192.63,-172.94C222.17,-169.67 254.54,-164.8 283.75,-157.59 302.37,-152.99 322.61,-145.01 337.41,-138.58"/>
<polygon fill="#9a32cd" stroke="#9a32cd" points="192.54,-169.43 182.96,-173.96 193.27,-176.4 192.54,-169.43"/>
<text text-anchor="middle" x="245.12" y="-172.34" font-family="Helvetica,sans-Serif" font-size="10.00"> doWorkRhsHook</text>
</g>
<!-- Node5 -->
<g id="node5" class="node">
<title>Node5</title>
<g id="a_node5"><a xlink:href="classbool.html" target="_top" xlink:title=" ">
<polygon fill="white" stroke="#666666" points="111.25,-87.22 77.25,-87.22 77.25,-67.97 111.25,-67.97 111.25,-87.22"/>
<text text-anchor="middle" x="94.25" y="-73.72" font-family="Helvetica,sans-Serif" font-size="10.00">bool</text>
</a>
</g>
</g>
<!-- Node5&#45;&gt;Node2 -->
<g id="edge4" class="edge">
<title>Node5&#45;&gt;Node2</title>
<path fill="none" stroke="#9a32cd" stroke-dasharray="5,2" d="M122.64,-71.85C160.05,-65.19 228.77,-57.22 283.75,-74.84 310.66,-83.46 336.14,-105.64 349.43,-118.65"/>
<polygon fill="#9a32cd" stroke="#9a32cd" points="122.31,-68.35 113.14,-73.65 123.61,-75.23 122.31,-68.35"/>
<text text-anchor="middle" x="245.12" y="-143.84" font-family="Helvetica,sans-Serif" font-size="10.00"> doEdges</text>
<text text-anchor="middle" x="245.12" y="-132.59" font-family="Helvetica,sans-Serif" font-size="10.00">doPrisms</text>
<text text-anchor="middle" x="245.12" y="-121.34" font-family="Helvetica,sans-Serif" font-size="10.00">doQuads</text>
<text text-anchor="middle" x="245.12" y="-110.09" font-family="Helvetica,sans-Serif" font-size="10.00">doTets</text>
<text text-anchor="middle" x="245.12" y="-98.84" font-family="Helvetica,sans-Serif" font-size="10.00">doTris</text>
<text text-anchor="middle" x="245.12" y="-87.59" font-family="Helvetica,sans-Serif" font-size="10.00">doVertices</text>
<text text-anchor="middle" x="245.12" y="-76.34" font-family="Helvetica,sans-Serif" font-size="10.00">sYmm</text>
</g>
<!-- Node6 -->
<g id="node6" class="node">
<title>Node6</title>
<g id="a_node6"><a xlink:title=" ">
<polygon fill="white" stroke="#666666" points="165.62,-50.22 22.88,-50.22 22.88,-30.97 165.62,-30.97 165.62,-50.22"/>
<text text-anchor="middle" x="94.25" y="-36.72" font-family="Helvetica,sans-Serif" font-size="10.00">array&lt; bool, MBMAXTYPE &gt;</text>
</a>
</g>
</g>
<!-- Node6&#45;&gt;Node2 -->
<g id="edge5" class="edge">
<title>Node6&#45;&gt;Node2</title>
<path fill="none" stroke="#9a32cd" stroke-dasharray="5,2" d="M177.23,-30.65C211.54,-29.8 250.97,-33.34 283.75,-48.34 316.92,-63.52 342.48,-100.72 353.32,-118.63"/>
<polygon fill="#9a32cd" stroke="#9a32cd" points="177.18,-27.14 167.32,-31.03 177.45,-34.14 177.18,-27.14"/>
<text text-anchor="middle" x="245.12" y="-49.34" font-family="Helvetica,sans-Serif" font-size="10.00"> doEntities</text>
</g>
<!-- Node7 -->
<g id="node7" class="node">
<title>Node7</title>
<g id="a_node7"><a xlink:href="class_u_blas_matrix_3_01double_01_4.html" target="_top" xlink:title=" ">
<polygon fill="white" stroke="#666666" points="418.25,-22.22 301.75,-22.22 301.75,-2.97 418.25,-2.97 418.25,-22.22"/>
<text text-anchor="middle" x="360" y="-8.72" font-family="Helvetica,sans-Serif" font-size="10.00">UBlasMatrix&lt; double &gt;</text>
</a>
</g>
</g>
<!-- Node7&#45;&gt;Node1 -->
<g id="edge6" class="edge">
<title>Node7&#45;&gt;Node1</title>
<path fill="none" stroke="#9a32cd" stroke-dasharray="5,2" d="M429.81,-2.23C464.5,0.72 506.87,0.79 543.5,-9.34 575.41,-18.17 607.37,-39.89 626.86,-54.93"/>
<polygon fill="#9a32cd" stroke="#9a32cd" points="429.49,1.26 419.87,-3.18 430.16,-5.71 429.49,1.26"/>
<text text-anchor="middle" x="489.88" y="-101.34" font-family="Helvetica,sans-Serif" font-size="10.00"> cOords_at_GaussPtF3</text>
<text text-anchor="middle" x="489.88" y="-90.09" font-family="Helvetica,sans-Serif" font-size="10.00">cOords_at_GaussPtF4</text>
<text text-anchor="middle" x="489.88" y="-78.84" font-family="Helvetica,sans-Serif" font-size="10.00">nOrmals_at_GaussPtF3</text>
<text text-anchor="middle" x="489.88" y="-67.59" font-family="Helvetica,sans-Serif" font-size="10.00">nOrmals_at_GaussPtF4</text>
<text text-anchor="middle" x="489.88" y="-56.34" font-family="Helvetica,sans-Serif" font-size="10.00">sPin</text>
<text text-anchor="middle" x="489.88" y="-45.09" font-family="Helvetica,sans-Serif" font-size="10.00">tAngent1_at_GaussPtF3</text>
<text text-anchor="middle" x="489.88" y="-33.84" font-family="Helvetica,sans-Serif" font-size="10.00">tAngent1_at_GaussPtF4</text>
<text text-anchor="middle" x="489.88" y="-22.59" font-family="Helvetica,sans-Serif" font-size="10.00">tAngent2_at_GaussPtF3</text>
<text text-anchor="middle" x="489.88" y="-11.34" font-family="Helvetica,sans-Serif" font-size="10.00">tAngent2_at_GaussPtF4</text>
</g>
</g>
</svg>
        <g id="navigator" transform="translate(0 0)" fill="#404254">
                <rect fill="#f2f5e9" fill-opacity="0.5" stroke="#606060" stroke-width=".5" x="0" y="0" width="60" height="60"/>
                <use id="zoomplus" xlink:href="#zoomPlus" x="17" y="9" onmousedown="handleZoom(evt,'in')"/>
                <use id="zoomminus" xlink:href="#zoomMin" x="42" y="9" onmousedown="handleZoom(evt,'out')"/>
                <use id="reset" xlink:href="#resetDef" x="30" y="36" onmousedown="handleReset()"/>
                <g id="arrowUp" xlink:href="#dirArrow" transform="translate(30 24)" onmousedown="handlePan(0,-1)">
                  <use xlink:href="#rim" fill="#404040">
                        <set attributeName="fill" to="#808080" begin="arrowUp.mouseover" end="arrowUp.mouseout"/>
                  </use>
                  <path fill="none" stroke="white" stroke-width="1.5" d="M0,-3.0v7 M-2.5,-0.5L0,-3.0L2.5,-0.5"/>
                </g>
                <g id="arrowRight" xlink:href="#dirArrow" transform="rotate(90) translate(36 -43)" onmousedown="handlePan(1,0)">
                  <use xlink:href="#rim" fill="#404040">
                        <set attributeName="fill" to="#808080" begin="arrowRight.mouseover" end="arrowRight.mouseout"/>
                  </use>
                  <path fill="none" stroke="white" stroke-width="1.5" d="M0,-3.0v7 M-2.5,-0.5L0,-3.0L2.5,-0.5"/>
                </g>
                <g id="arrowDown" xlink:href="#dirArrow" transform="rotate(180) translate(-30 -48)" onmousedown="handlePan(0,1)">
                  <use xlink:href="#rim" fill="#404040">
                        <set attributeName="fill" to="#808080" begin="arrowDown.mouseover" end="arrowDown.mouseout"/>
                  </use>
                  <path fill="none" stroke="white" stroke-width="1.5" d="M0,-3.0v7 M-2.5,-0.5L0,-3.0L2.5,-0.5"/>
                </g>
                <g id="arrowLeft" xlink:href="#dirArrow" transform="rotate(270) translate(-36 17)" onmousedown="handlePan(-1,0)">
                  <use xlink:href="#rim" fill="#404040">
                        <set attributeName="fill" to="#808080" begin="arrowLeft.mouseover" end="arrowLeft.mouseout"/>
                  </use>
                  <path fill="none" stroke="white" stroke-width="1.5" d="M0,-3.0v7 M-2.5,-0.5L0,-3.0L2.5,-0.5"/>
                </g>
        </g>
        <svg viewBox="0 0 15 15" width="100%" height="30px" preserveAspectRatio="xMaxYMin meet">
         <g id="arrow_out" transform="scale(0.3 0.3)">
          <a xlink:href="struct_mo_f_e_m_1_1_op_get_coords_and_normals_on_prism__coll__graph_org.svg" target="_base">
           <rect id="button" ry="5" rx="5" y="6" x="6" height="38" width="38"
                fill="#f2f5e9" fill-opacity="0.5" stroke="#606060" stroke-width="1.0"/>
           <path id="arrow"
             d="M 11.500037,31.436501 C 11.940474,20.09759 22.043105,11.32322 32.158766,21.979434 L 37.068811,17.246167 C 37.068811,17.246167 37.088388,32 37.088388,32 L 22.160133,31.978069 C 22.160133,31.978069 26.997745,27.140456 26.997745,27.140456 C 18.528582,18.264221 13.291696,25.230495 11.500037,31.436501 z"
             style="fill:#404040;"/>
          </a>
         </g>
        </svg>
</svg>
