<?xml version="1.0" encoding="UTF-8" standalone="no"?>
<!DOCTYPE svg PUBLIC "-//W3C//DTD SVG 1.1//EN"
 "http://www.w3.org/Graphics/SVG/1.1/DTD/svg11.dtd">
<!-- Generated by graphviz version 9.0.0 (20230911.1827)
 -->
<!-- Title: SimpleContactProblem::OpContactTractionMasterSlave_dX Pages: 1 -->
<svg width="692pt" height="259pt"
 viewBox="0.00 0.00 692.25 259.26" xmlns="http://www.w3.org/2000/svg" xmlns:xlink="http://www.w3.org/1999/xlink">
<g id="graph0" class="graph" transform="scale(1 1) rotate(0) translate(4 255.26)">
<title>SimpleContactProblem::OpContactTractionMasterSlave_dX</title>
<!-- Node1 -->
<g id="node1" class="node">
<title>Node1</title>
<g id="a_node1"><a xlink:title="LHS&#45;operator for the simple contact element.">
<polygon fill="#999999" stroke="#666666" points="684.25,-175.88 507.75,-175.88 507.75,-145.38 684.25,-145.38 684.25,-175.88"/>
<text text-anchor="start" x="515.75" y="-162.38" font-family="Helvetica,sans-Serif" font-size="10.00">SimpleContactProblem</text>
<text text-anchor="middle" x="596" y="-151.13" font-family="Helvetica,sans-Serif" font-size="10.00">::OpContactTractionMasterSlave_dX</text>
</a>
</g>
</g>
<!-- Node2 -->
<g id="node2" class="node">
<title>Node2</title>
<g id="a_node2"><a xlink:href="struct_simple_contact_problem_1_1_op_contact_a_l_e_lhs.html" target="_top" xlink:title="Operator used as base struct for OpContactTractionSlaveSlave_dX, OpContactTractionMasterSlave_dX,...">
<polygon fill="white" stroke="#666666" points="470.75,-175.88 354.25,-175.88 354.25,-145.38 470.75,-145.38 470.75,-175.88"/>
<text text-anchor="start" x="362.25" y="-162.38" font-family="Helvetica,sans-Serif" font-size="10.00">SimpleContactProblem</text>
<text text-anchor="middle" x="412.5" y="-151.13" font-family="Helvetica,sans-Serif" font-size="10.00">::OpContactALELhs</text>
</a>
</g>
</g>
<!-- Node2&#45;&gt;Node1 -->
<g id="edge1" class="edge">
<title>Node2&#45;&gt;Node1</title>
<path fill="none" stroke="#63b8ff" d="M482.47,-160.63C490.6,-160.63 498.98,-160.63 507.32,-160.63"/>
<polygon fill="#63b8ff" stroke="#63b8ff" points="482.69,-157.13 472.69,-160.63 482.69,-164.13 482.69,-157.13"/>
</g>
<!-- Node3 -->
<g id="node3" class="node">
<title>Node3</title>
<g id="a_node3"><a xlink:href="class_contact_op.html" target="_top" xlink:title=" ">
<polygon fill="white" stroke="#666666" points="127.75,-251.26 64.5,-251.26 64.5,-232.01 127.75,-232.01 127.75,-251.26"/>
<text text-anchor="middle" x="96.12" y="-237.76" font-family="Helvetica,sans-Serif" font-size="10.00">ContactOp</text>
</a>
</g>
</g>
<!-- Node3&#45;&gt;Node2 -->
<g id="edge2" class="edge">
<title>Node3&#45;&gt;Node2</title>
<path fill="none" stroke="#63b8ff" d="M139.5,-239.17C188.16,-235.33 269.83,-225.78 336.25,-202.63 354.76,-196.18 374.03,-185.34 388.44,-176.28"/>
<polygon fill="#63b8ff" stroke="#63b8ff" points="139.38,-235.67 129.67,-239.89 139.9,-242.65 139.38,-235.67"/>
</g>
<!-- Node4 -->
<g id="node4" class="node">
<title>Node4</title>
<g id="a_node4"><a xlink:title=" ">
<polygon fill="white" stroke="#666666" points="192.25,-213.88 0,-213.88 0,-183.38 192.25,-183.38 192.25,-213.88"/>
<text text-anchor="start" x="8" y="-200.38" font-family="Helvetica,sans-Serif" font-size="10.00">shared_ptr&lt; SimpleContact</text>
<text text-anchor="middle" x="96.12" y="-189.13" font-family="Helvetica,sans-Serif" font-size="10.00">Problem::CommonDataSimpleContact &gt;</text>
</a>
</g>
</g>
<!-- Node4&#45;&gt;Node2 -->
<g id="edge3" class="edge">
<title>Node4&#45;&gt;Node2</title>
<path fill="none" stroke="#9a32cd" stroke-dasharray="5,2" d="M203.94,-189.01C245.33,-184.88 293.07,-179.61 336.25,-173.63 342.03,-172.83 348.04,-171.93 354.04,-170.97"/>
<polygon fill="#9a32cd" stroke="#9a32cd" points="203.83,-185.5 194.22,-189.97 204.52,-192.47 203.83,-185.5"/>
<text text-anchor="middle" x="273.25" y="-189.38" font-family="Helvetica,sans-Serif" font-size="10.00"> commonDataSimpleContact</text>
</g>
<!-- Node5 -->
<g id="node5" class="node">
<title>Node5</title>
<g id="a_node5"><a xlink:title=" ">
<polygon fill="white" stroke="#666666" points="133,-165.26 59.25,-165.26 59.25,-146.01 133,-146.01 133,-165.26"/>
<text text-anchor="middle" x="96.12" y="-151.76" font-family="Helvetica,sans-Serif" font-size="10.00">MatrixDouble</text>
</a>
</g>
</g>
<!-- Node5&#45;&gt;Node2 -->
<g id="edge4" class="edge">
<title>Node5&#45;&gt;Node2</title>
<path fill="none" stroke="#9a32cd" stroke-dasharray="5,2" d="M144.88,-156.39C200.95,-157.29 293.91,-158.76 353.92,-159.72"/>
<polygon fill="#9a32cd" stroke="#9a32cd" points="145.06,-152.9 135.01,-156.24 144.95,-159.9 145.06,-152.9"/>
<text text-anchor="middle" x="273.25" y="-160.38" font-family="Helvetica,sans-Serif" font-size="10.00"> matLhs</text>
</g>
<!-- Node6 -->
<g id="node6" class="node">
<title>Node6</title>
<g id="a_node6"><a xlink:title=" ">
<polygon fill="white" stroke="#666666" points="124,-124.26 68.25,-124.26 68.25,-105.01 124,-105.01 124,-124.26"/>
<text text-anchor="middle" x="96.12" y="-110.76" font-family="Helvetica,sans-Serif" font-size="10.00">VectorInt</text>
</a>
</g>
</g>
<!-- Node6&#45;&gt;Node2 -->
<g id="edge5" class="edge">
<title>Node6&#45;&gt;Node2</title>
<path fill="none" stroke="#9a32cd" stroke-dasharray="5,2" d="M135.76,-113.38C183.5,-112.68 266.9,-114.27 336.25,-130.13 350.82,-133.47 366.22,-139.27 379.27,-144.92"/>
<polygon fill="#9a32cd" stroke="#9a32cd" points="135.87,-109.88 125.94,-113.57 136.01,-116.88 135.87,-109.88"/>
<text text-anchor="middle" x="273.25" y="-142.63" font-family="Helvetica,sans-Serif" font-size="10.00"> colIndices</text>
<text text-anchor="middle" x="273.25" y="-131.38" font-family="Helvetica,sans-Serif" font-size="10.00">rowIndices</text>
</g>
<!-- Node7 -->
<g id="node7" class="node">
<title>Node7</title>
<g id="a_node7"><a xlink:title=" ">
<polygon fill="white" stroke="#666666" points="110.53,-22.26 81.72,-22.26 81.72,-3.01 110.53,-3.01 110.53,-22.26"/>
<text text-anchor="middle" x="96.12" y="-8.76" font-family="Helvetica,sans-Serif" font-size="10.00">int</text>
</a>
</g>
</g>
<!-- Node7&#45;&gt;Node2 -->
<g id="edge6" class="edge">
<title>Node7&#45;&gt;Node2</title>
<path fill="none" stroke="#9a32cd" stroke-dasharray="5,2" d="M122.19,-7.6C168.47,0.28 268.74,10.54 336.25,-31.88 378.12,-58.2 399.4,-116.92 407.51,-145.04"/>
<polygon fill="#9a32cd" stroke="#9a32cd" points="121.59,-4.15 112.38,-9.39 122.85,-11.03 121.59,-4.15"/>
<text text-anchor="middle" x="273.25" y="-101.88" font-family="Helvetica,sans-Serif" font-size="10.00"> col_nb_dofs</text>
<text text-anchor="middle" x="273.25" y="-90.63" font-family="Helvetica,sans-Serif" font-size="10.00">nb_base_fun_col</text>
<text text-anchor="middle" x="273.25" y="-79.38" font-family="Helvetica,sans-Serif" font-size="10.00">nb_base_fun_row</text>
<text text-anchor="middle" x="273.25" y="-68.13" font-family="Helvetica,sans-Serif" font-size="10.00">nb_gauss_pts</text>
<text text-anchor="middle" x="273.25" y="-56.88" font-family="Helvetica,sans-Serif" font-size="10.00">rankCol</text>
<text text-anchor="middle" x="273.25" y="-45.63" font-family="Helvetica,sans-Serif" font-size="10.00">rankRow</text>
<text text-anchor="middle" x="273.25" y="-34.38" font-family="Helvetica,sans-Serif" font-size="10.00">row_nb_dofs</text>
</g>
</g>
</svg>
