<?xml version="1.0" encoding="UTF-8" standalone="no"?>
<!DOCTYPE svg PUBLIC "-//W3C//DTD SVG 1.1//EN"
 "http://www.w3.org/Graphics/SVG/1.1/DTD/svg11.dtd">
<!-- Generated by graphviz version 9.0.0 (20230911.1827)
 -->
<!-- Title: NonlinearElasticElement::OpLhsPiolaKirchhoff_dx Pages: 1 -->
<!--zoomable 125 -->
<svg id="main" version="1.1" xmlns="http://www.w3.org/2000/svg" xmlns:xlink="http://www.w3.org/1999/xlink" xml:space="preserve" onload="init(evt)">
<style type="text/css"><![CDATA[
.edge:hover path { stroke: red; }
.edge:hover polygon { stroke: red; fill: red; }
]]></style>
<script type="text/javascript"><![CDATA[
var edges = document.getElementsByTagName('g');
if (edges && edges.length) {
  for (var i=0;i<edges.length;i++) {
    if (edges[i].id.substr(0,4)=='edge') {
      edges[i].setAttribute('class','edge');
    }
  }
}
]]></script>
        <defs>
                <circle id="rim" cx="0" cy="0" r="7"/>
                <circle id="rim2" cx="0" cy="0" r="3.5"/>
                <g id="zoomPlus">
                        <use xlink:href="#rim" fill="#404040">
                                <set attributeName="fill" to="#808080" begin="zoomplus.mouseover" end="zoomplus.mouseout"/>
                        </use>
                        <path d="M-4,0h8M0,-4v8" fill="none" stroke="white" stroke-width="1.5" pointer-events="none"/>
                </g>
                <g id="zoomMin">
                        <use xlink:href="#rim" fill="#404040">
                                <set attributeName="fill" to="#808080" begin="zoomminus.mouseover" end="zoomminus.mouseout"/>
                        </use>
                        <path d="M-4,0h8" fill="none" stroke="white" stroke-width="1.5" pointer-events="none"/>
                </g>
                <g id="dirArrow">
                        <path fill="none" stroke="white" stroke-width="1.5" d="M0,-3.0v7 M-2.5,-0.5L0,-3.0L2.5,-0.5"/>
                </g>
               <g id="resetDef">
                       <use xlink:href="#rim2" fill="#404040">
                               <set attributeName="fill" to="#808080" begin="reset.mouseover" end="reset.mouseout"/>
                       </use>
               </g>
        </defs>

<script type="text/javascript">
var viewWidth = 1024;
var viewHeight = 125;
var sectionId = 'dynsection-0';
</script>
<script xlink:href="svgpan.js"/>
<svg id="graph" class="graph">
<g id="viewport">
<title>NonlinearElasticElement::OpLhsPiolaKirchhoff_dx</title>
<!-- Node1 -->
<g id="node1" class="node">
<title>Node1</title>
<g id="a_node1"><a xlink:title=" ">
<polygon fill="#999999" stroke="#666666" points="686.5,-67.88 559.5,-67.88 559.5,-37.38 686.5,-37.38 686.5,-67.88"/>
<text text-anchor="start" x="567.5" y="-54.38" font-family="Helvetica,sans-Serif" font-size="10.00">NonlinearElasticElement</text>
<text text-anchor="middle" x="623" y="-43.12" font-family="Helvetica,sans-Serif" font-size="10.00">::OpLhsPiolaKirchhoff_dx</text>
</a>
</g>
</g>
<!-- Node5 -->
<g id="node5" class="node">
<title>Node5</title>
<g id="a_node5"><a xlink:href="struct_nonlinear_elastic_element_1_1_op_lhs_eshelby__d_x.html" target="_top" xlink:title=" ">
<polygon fill="white" stroke="#666666" points="851.38,-116.88 728.12,-116.88 728.12,-86.38 851.38,-86.38 851.38,-116.88"/>
<text text-anchor="start" x="736.12" y="-103.38" font-family="Helvetica,sans-Serif" font-size="10.00">NonlinearElasticElement</text>
<text text-anchor="middle" x="789.75" y="-92.12" font-family="Helvetica,sans-Serif" font-size="10.00">::OpLhsEshelby_dX</text>
</a>
</g>
</g>
<!-- Node1&#45;&gt;Node5 -->
<g id="edge4" class="edge">
<title>Node1&#45;&gt;Node5</title>
<path fill="none" stroke="#63b8ff" d="M687.45,-71.5C703.43,-76.25 720.42,-81.3 735.82,-85.88"/>
<polygon fill="#63b8ff" stroke="#63b8ff" points="688.61,-68.19 678.03,-68.7 686.62,-74.9 688.61,-68.19"/>
</g>
<!-- Node6 -->
<g id="node6" class="node">
<title>Node6</title>
<g id="a_node6"><a xlink:href="struct_nonlinear_elastic_element_1_1_op_lhs_piola_kirchhoff__d_x.html" target="_top" xlink:title=" ">
<polygon fill="white" stroke="#666666" points="854,-67.88 725.5,-67.88 725.5,-37.38 854,-37.38 854,-67.88"/>
<text text-anchor="start" x="733.5" y="-54.38" font-family="Helvetica,sans-Serif" font-size="10.00">NonlinearElasticElement</text>
<text text-anchor="middle" x="789.75" y="-43.12" font-family="Helvetica,sans-Serif" font-size="10.00">::OpLhsPiolaKirchhoff_dX</text>
</a>
</g>
</g>
<!-- Node1&#45;&gt;Node6 -->
<g id="edge5" class="edge">
<title>Node1&#45;&gt;Node6</title>
<path fill="none" stroke="#63b8ff" d="M698.07,-52.62C707.08,-52.62 716.23,-52.62 725.08,-52.62"/>
<polygon fill="#63b8ff" stroke="#63b8ff" points="698.27,-49.13 688.27,-52.63 698.27,-56.13 698.27,-49.13"/>
</g>
<!-- Node8 -->
<g id="node8" class="node">
<title>Node8</title>
<g id="a_node8"><a xlink:href="struct_smoother_1_1_op_lhs_smoother.html" target="_top" xlink:title=" ">
<polygon fill="white" stroke="#666666" points="857,-19.25 722.5,-19.25 722.5,0 857,0 857,-19.25"/>
<text text-anchor="middle" x="789.75" y="-5.75" font-family="Helvetica,sans-Serif" font-size="10.00">Smoother::OpLhsSmoother</text>
</a>
</g>
</g>
<!-- Node1&#45;&gt;Node8 -->
<g id="edge7" class="edge">
<title>Node1&#45;&gt;Node8</title>
<path fill="none" stroke="#63b8ff" d="M694.97,-34.1C713.91,-29.16 733.67,-24 750.14,-19.7"/>
<polygon fill="#63b8ff" stroke="#63b8ff" points="694.2,-30.69 685.41,-36.6 695.97,-37.46 694.2,-30.69"/>
</g>
<!-- Node2 -->
<g id="node2" class="node">
<title>Node2</title>
<g id="a_node2"><a xlink:href="struct_mo_f_e_m_1_1_volume_element_forces_and_sources_core_1_1_user_data_operator.html" target="_top" xlink:title=" ">
<polygon fill="white" stroke="#666666" points="523.5,-67.88 347.75,-67.88 347.75,-37.38 523.5,-37.38 523.5,-67.88"/>
<text text-anchor="start" x="355.75" y="-54.38" font-family="Helvetica,sans-Serif" font-size="10.00">MoFEM::VolumeElementForces</text>
<text text-anchor="middle" x="435.62" y="-43.12" font-family="Helvetica,sans-Serif" font-size="10.00">AndSourcesCore::UserDataOperator</text>
</a>
</g>
</g>
<!-- Node2&#45;&gt;Node1 -->
<g id="edge1" class="edge">
<title>Node2&#45;&gt;Node1</title>
<path fill="none" stroke="#63b8ff" d="M535.36,-52.62C543.46,-52.62 551.5,-52.62 559.23,-52.62"/>
<polygon fill="#63b8ff" stroke="#63b8ff" points="535.4,-49.13 525.4,-52.63 535.4,-56.13 535.4,-49.13"/>
</g>
<!-- Node3 -->
<g id="node3" class="node">
<title>Node3</title>
<g id="a_node3"><a xlink:href="struct_mo_f_e_m_1_1_forces_and_sources_core_1_1_user_data_operator.html" target="_top" xlink:title=" ">
<polygon fill="white" stroke="#666666" points="311.75,-67.88 151,-67.88 151,-37.38 311.75,-37.38 311.75,-67.88"/>
<text text-anchor="start" x="159" y="-54.38" font-family="Helvetica,sans-Serif" font-size="10.00">MoFEM::ForcesAndSourcesCore</text>
<text text-anchor="middle" x="231.38" y="-43.12" font-family="Helvetica,sans-Serif" font-size="10.00">::UserDataOperator</text>
</a>
</g>
</g>
<!-- Node3&#45;&gt;Node2 -->
<g id="edge2" class="edge">
<title>Node3&#45;&gt;Node2</title>
<path fill="none" stroke="#63b8ff" d="M323.27,-52.62C331.29,-52.62 339.39,-52.62 347.38,-52.62"/>
<polygon fill="#63b8ff" stroke="#63b8ff" points="323.53,-49.13 313.53,-52.63 323.53,-56.13 323.53,-49.13"/>
</g>
<!-- Node4 -->
<g id="node4" class="node">
<title>Node4</title>
<g id="a_node4"><a xlink:href="struct_mo_f_e_m_1_1_data_operator.html" target="_top" xlink:title="base operator to do operations at Gauss Pt. level">
<polygon fill="white" stroke="#666666" points="115,-62.25 0,-62.25 0,-43 115,-43 115,-62.25"/>
<text text-anchor="middle" x="57.5" y="-48.75" font-family="Helvetica,sans-Serif" font-size="10.00">MoFEM::DataOperator</text>
</a>
</g>
</g>
<!-- Node4&#45;&gt;Node3 -->
<g id="edge3" class="edge">
<title>Node4&#45;&gt;Node3</title>
<path fill="none" stroke="#63b8ff" d="M126.64,-52.62C134.53,-52.62 142.63,-52.62 150.66,-52.62"/>
<polygon fill="#63b8ff" stroke="#63b8ff" points="126.77,-49.13 116.77,-52.63 126.77,-56.13 126.77,-49.13"/>
</g>
<!-- Node7 -->
<g id="node7" class="node">
<title>Node7</title>
<g id="a_node7"><a xlink:href="struct_nonlinear_elastic_element_1_1_op_lhs_eshelby__dx.html" target="_top" xlink:title=" ">
<polygon fill="white" stroke="#666666" points="1016.25,-67.88 893,-67.88 893,-37.38 1016.25,-37.38 1016.25,-67.88"/>
<text text-anchor="start" x="901" y="-54.38" font-family="Helvetica,sans-Serif" font-size="10.00">NonlinearElasticElement</text>
<text text-anchor="middle" x="954.62" y="-43.12" font-family="Helvetica,sans-Serif" font-size="10.00">::OpLhsEshelby_dx</text>
</a>
</g>
</g>
<!-- Node6&#45;&gt;Node7 -->
<g id="edge6" class="edge">
<title>Node6&#45;&gt;Node7</title>
<path fill="none" stroke="#63b8ff" d="M865.61,-52.62C874.7,-52.62 883.91,-52.62 892.76,-52.62"/>
<polygon fill="#63b8ff" stroke="#63b8ff" points="865.7,-49.13 855.7,-52.63 865.7,-56.13 865.7,-49.13"/>
</g>
</g>
</svg>
        <g id="navigator" transform="translate(0 0)" fill="#404254">
                <rect fill="#f2f5e9" fill-opacity="0.5" stroke="#606060" stroke-width=".5" x="0" y="0" width="60" height="60"/>
                <use id="zoomplus" xlink:href="#zoomPlus" x="17" y="9" onmousedown="handleZoom(evt,'in')"/>
                <use id="zoomminus" xlink:href="#zoomMin" x="42" y="9" onmousedown="handleZoom(evt,'out')"/>
                <use id="reset" xlink:href="#resetDef" x="30" y="36" onmousedown="handleReset()"/>
                <g id="arrowUp" xlink:href="#dirArrow" transform="translate(30 24)" onmousedown="handlePan(0,-1)">
                  <use xlink:href="#rim" fill="#404040">
                        <set attributeName="fill" to="#808080" begin="arrowUp.mouseover" end="arrowUp.mouseout"/>
                  </use>
                  <path fill="none" stroke="white" stroke-width="1.5" d="M0,-3.0v7 M-2.5,-0.5L0,-3.0L2.5,-0.5"/>
                </g>
                <g id="arrowRight" xlink:href="#dirArrow" transform="rotate(90) translate(36 -43)" onmousedown="handlePan(1,0)">
                  <use xlink:href="#rim" fill="#404040">
                        <set attributeName="fill" to="#808080" begin="arrowRight.mouseover" end="arrowRight.mouseout"/>
                  </use>
                  <path fill="none" stroke="white" stroke-width="1.5" d="M0,-3.0v7 M-2.5,-0.5L0,-3.0L2.5,-0.5"/>
                </g>
                <g id="arrowDown" xlink:href="#dirArrow" transform="rotate(180) translate(-30 -48)" onmousedown="handlePan(0,1)">
                  <use xlink:href="#rim" fill="#404040">
                        <set attributeName="fill" to="#808080" begin="arrowDown.mouseover" end="arrowDown.mouseout"/>
                  </use>
                  <path fill="none" stroke="white" stroke-width="1.5" d="M0,-3.0v7 M-2.5,-0.5L0,-3.0L2.5,-0.5"/>
                </g>
                <g id="arrowLeft" xlink:href="#dirArrow" transform="rotate(270) translate(-36 17)" onmousedown="handlePan(-1,0)">
                  <use xlink:href="#rim" fill="#404040">
                        <set attributeName="fill" to="#808080" begin="arrowLeft.mouseover" end="arrowLeft.mouseout"/>
                  </use>
                  <path fill="none" stroke="white" stroke-width="1.5" d="M0,-3.0v7 M-2.5,-0.5L0,-3.0L2.5,-0.5"/>
                </g>
        </g>
        <svg viewBox="0 0 15 15" width="100%" height="30px" preserveAspectRatio="xMaxYMin meet">
         <g id="arrow_out" transform="scale(0.3 0.3)">
          <a xlink:href="struct_nonlinear_elastic_element_1_1_op_lhs_piola_kirchhoff__dx__inherit__graph_org.svg" target="_base">
           <rect id="button" ry="5" rx="5" y="6" x="6" height="38" width="38"
                fill="#f2f5e9" fill-opacity="0.5" stroke="#606060" stroke-width="1.0"/>
           <path id="arrow"
             d="M 11.500037,31.436501 C 11.940474,20.09759 22.043105,11.32322 32.158766,21.979434 L 37.068811,17.246167 C 37.068811,17.246167 37.088388,32 37.088388,32 L 22.160133,31.978069 C 22.160133,31.978069 26.997745,27.140456 26.997745,27.140456 C 18.528582,18.264221 13.291696,25.230495 11.500037,31.436501 z"
             style="fill:#404040;"/>
          </a>
         </g>
        </svg>
</svg>
