<?xml version="1.0" encoding="UTF-8" standalone="no"?>
<!DOCTYPE svg PUBLIC "-//W3C//DTD SVG 1.1//EN"
 "http://www.w3.org/Graphics/SVG/1.1/DTD/svg11.dtd">
<!-- Generated by graphviz version 2.43.0 (0)
 -->
<!-- Title: BCs_RVELagrange_Periodic Pages: 1 -->
<!--zoomable 603 -->
<svg id="main" version="1.1" xmlns="http://www.w3.org/2000/svg" xmlns:xlink="http://www.w3.org/1999/xlink" xml:space="preserve" onload="init(evt)">
<style type="text/css"><![CDATA[
.edge:hover path { stroke: red; }
.edge:hover polygon { stroke: red; fill: red; }
]]></style>
<script type="text/javascript"><![CDATA[
var edges = document.getElementsByTagName('g');
if (edges && edges.length) {
  for (var i=0;i<edges.length;i++) {
    if (edges[i].id.substr(0,4)=='edge') {
      edges[i].setAttribute('class','edge');
    }
  }
}
]]></script>
        <defs>
                <circle id="rim" cx="0" cy="0" r="7"/>
                <circle id="rim2" cx="0" cy="0" r="3.5"/>
                <g id="zoomPlus">
                        <use xlink:href="#rim" fill="#404040">
                                <set attributeName="fill" to="#808080" begin="zoomplus.mouseover" end="zoomplus.mouseout"/>
                        </use>
                        <path d="M-4,0h8M0,-4v8" fill="none" stroke="white" stroke-width="1.5" pointer-events="none"/>
                </g>
                <g id="zoomMin">
                        <use xlink:href="#rim" fill="#404040">
                                <set attributeName="fill" to="#808080" begin="zoomminus.mouseover" end="zoomminus.mouseout"/>
                        </use>
                        <path d="M-4,0h8" fill="none" stroke="white" stroke-width="1.5" pointer-events="none"/>
                </g>
                <g id="dirArrow">
                        <path fill="none" stroke="white" stroke-width="1.5" d="M0,-3.0v7 M-2.5,-0.5L0,-3.0L2.5,-0.5"/>
                </g>
               <g id="resetDef">
                       <use xlink:href="#rim2" fill="#404040">
                               <set attributeName="fill" to="#808080" begin="reset.mouseover" end="reset.mouseout"/>
                       </use>
               </g>
        </defs>

<script type="text/javascript">
var viewWidth = 1976;
var viewHeight = 603;
var sectionId = 'dynsection-1';
</script>
<script xlink:href="svgpan.js"/>
<svg id="graph" class="graph">
<g id="viewport">
<title>BCs_RVELagrange_Periodic</title>
<polygon fill="white" stroke="transparent" points="-4,4 -4,-599.07 1972,-599.07 1972,4 -4,4"/>
<!-- Node1 -->
<g id="node1" class="node">
<title>Node1</title>
<g id="a_node1"><a xlink:title=" ">
<polygon fill="#bfbfbf" stroke="black" points="1819,-246.07 1819,-265.07 1968,-265.07 1968,-246.07 1819,-246.07"/>
<text text-anchor="middle" x="1893.5" y="-253.07" font-family="Helvetica,sans-Serif" font-size="10.00">BCs_RVELagrange_Periodic</text>
</a>
</g>
</g>
<!-- Node2 -->
<g id="node2" class="node">
<title>Node2</title>
<g id="a_node2"><a xlink:href="structBCs__RVELagrange__Disp.html" target="_top" xlink:title=" ">
<polygon fill="white" stroke="black" points="1493,-428.07 1493,-447.07 1625,-447.07 1625,-428.07 1493,-428.07"/>
<text text-anchor="middle" x="1559" y="-435.07" font-family="Helvetica,sans-Serif" font-size="10.00">BCs_RVELagrange_Disp</text>
</a>
</g>
</g>
<!-- Node2&#45;&gt;Node1 -->
<g id="edge1" class="edge">
<title>Node2&#45;&gt;Node1</title>
<path fill="none" stroke="midnightblue" d="M1602.26,-424.86C1652.07,-408.83 1736.27,-378.33 1801,-337.57 1834.93,-316.2 1868.37,-281.99 1883.74,-265.33"/>
<polygon fill="midnightblue" stroke="midnightblue" points="1600.94,-421.61 1592.47,-427.97 1603.06,-428.28 1600.94,-421.61"/>
</g>
<!-- Node3 -->
<g id="node3" class="node">
<title>Node3</title>
<g id="a_node3"><a xlink:href="structBCs__RVELagrange__Disp_1_1CommonFunctions.html" target="_top" xlink:title=" ">
<polygon fill="white" stroke="black" points="1171.5,-449.57 1171.5,-479.57 1303.5,-479.57 1303.5,-449.57 1171.5,-449.57"/>
<text text-anchor="start" x="1179.5" y="-467.57" font-family="Helvetica,sans-Serif" font-size="10.00">BCs_RVELagrange_Disp</text>
<text text-anchor="middle" x="1237.5" y="-456.57" font-family="Helvetica,sans-Serif" font-size="10.00">::CommonFunctions</text>
</a>
</g>
</g>
<!-- Node3&#45;&gt;Node2 -->
<g id="edge2" class="edge">
<title>Node3&#45;&gt;Node2</title>
<path fill="none" stroke="#9a32cd" stroke-dasharray="5,2" d="M1313.82,-458.2C1368.19,-453.61 1440.88,-447.46 1492.78,-443.08"/>
<polygon fill="#9a32cd" stroke="#9a32cd" points="1313.21,-454.74 1303.54,-459.07 1313.8,-461.71 1313.21,-454.74"/>
<text text-anchor="middle" x="1397.5" y="-457.57" font-family="Helvetica,sans-Serif" font-size="10.00"> common_functions</text>
</g>
<!-- Node4 -->
<g id="node4" class="node">
<title>Node4</title>
<g id="a_node4"><a xlink:href="structMoFEM_1_1DeprecatedCoreInterface.html" target="_top" xlink:title="Deprecated interface functions.">
<polygon fill="white" stroke="black" points="1147,-411.07 1147,-430.07 1328,-430.07 1328,-411.07 1147,-411.07"/>
<text text-anchor="middle" x="1237.5" y="-418.07" font-family="Helvetica,sans-Serif" font-size="10.00">MoFEM::DeprecatedCoreInterface</text>
</a>
</g>
</g>
<!-- Node4&#45;&gt;Node2 -->
<g id="edge3" class="edge">
<title>Node4&#45;&gt;Node2</title>
<path fill="none" stroke="#9a32cd" stroke-dasharray="5,2" d="M1338.46,-418.16C1373.47,-418.08 1413.01,-418.85 1449,-421.57 1466.83,-422.91 1486.18,-425.41 1503.56,-428.03"/>
<polygon fill="#9a32cd" stroke="#9a32cd" points="1338.22,-414.66 1328.24,-418.21 1338.25,-421.66 1338.22,-414.66"/>
<text text-anchor="middle" x="1397.5" y="-424.57" font-family="Helvetica,sans-Serif" font-size="10.00"> mField</text>
</g>
<!-- Node5 -->
<g id="node5" class="node">
<title>Node5</title>
<g id="a_node5"><a xlink:href="structMoFEM_1_1CoreInterface.html" target="_top" xlink:title="Interface.">
<polygon fill="white" stroke="black" points="952.5,-411.07 952.5,-430.07 1077.5,-430.07 1077.5,-411.07 952.5,-411.07"/>
<text text-anchor="middle" x="1015" y="-418.07" font-family="Helvetica,sans-Serif" font-size="10.00">MoFEM::CoreInterface</text>
</a>
</g>
</g>
<!-- Node5&#45;&gt;Node4 -->
<g id="edge4" class="edge">
<title>Node5&#45;&gt;Node4</title>
<path fill="none" stroke="midnightblue" d="M1087.95,-420.57C1106.73,-420.57 1127.2,-420.57 1146.77,-420.57"/>
<polygon fill="midnightblue" stroke="midnightblue" points="1087.71,-417.07 1077.71,-420.57 1087.71,-424.07 1087.71,-417.07"/>
</g>
<!-- Node6 -->
<g id="node6" class="node">
<title>Node6</title>
<g id="a_node6"><a xlink:href="structMoFEM_1_1UnknownInterface.html" target="_top" xlink:title="base class for all interface classes">
<polygon fill="white" stroke="black" points="735,-411.07 735,-430.07 883,-430.07 883,-411.07 735,-411.07"/>
<text text-anchor="middle" x="809" y="-418.07" font-family="Helvetica,sans-Serif" font-size="10.00">MoFEM::UnknownInterface</text>
</a>
</g>
</g>
<!-- Node6&#45;&gt;Node5 -->
<g id="edge5" class="edge">
<title>Node6&#45;&gt;Node5</title>
<path fill="none" stroke="midnightblue" d="M893.27,-420.57C912.98,-420.57 933.65,-420.57 952.21,-420.57"/>
<polygon fill="midnightblue" stroke="midnightblue" points="893.07,-417.07 883.07,-420.57 893.07,-424.07 893.07,-417.07"/>
</g>
<!-- Node7 -->
<g id="node7" class="node">
<title>Node7</title>
<g id="a_node7"><a xlink:title=" ">
<polygon fill="white" stroke="#bfbfbf" points="386,-389.07 386,-452.07 627,-452.07 627,-389.07 386,-389.07"/>
<text text-anchor="start" x="394" y="-440.07" font-family="Helvetica,sans-Serif" font-size="10.00">multi_index_container</text>
<text text-anchor="start" x="394" y="-429.07" font-family="Helvetica,sans-Serif" font-size="10.00">&lt; UIdTypeMap, indexed</text>
<text text-anchor="start" x="394" y="-418.07" font-family="Helvetica,sans-Serif" font-size="10.00">_by&lt; hashed_unique&lt; member</text>
<text text-anchor="start" x="394" y="-407.07" font-family="Helvetica,sans-Serif" font-size="10.00">&lt; UIdTypeMap, boost::typeindex</text>
<text text-anchor="middle" x="506.5" y="-396.07" font-family="Helvetica,sans-Serif" font-size="10.00">::type_index, &amp;UIdTypeMap::classIdx &gt; &gt; &gt; &gt;</text>
</a>
</g>
</g>
<!-- Node7&#45;&gt;Node6 -->
<g id="edge6" class="edge">
<title>Node7&#45;&gt;Node6</title>
<path fill="none" stroke="#9a32cd" stroke-dasharray="5,2" d="M637.41,-420.57C670.69,-420.57 705.33,-420.57 734.62,-420.57"/>
<polygon fill="#9a32cd" stroke="#9a32cd" points="637.13,-417.07 627.13,-420.57 637.13,-424.07 637.13,-417.07"/>
<text text-anchor="middle" x="681" y="-423.57" font-family="Helvetica,sans-Serif" font-size="10.00"> iFaceTypeMap</text>
</g>
<!-- Node8 -->
<g id="node8" class="node">
<title>Node8</title>
<g id="a_node8"><a xlink:title=" ">
<polygon fill="white" stroke="#bfbfbf" points="0,-411.07 0,-430.07 125,-430.07 125,-411.07 0,-411.07"/>
<text text-anchor="middle" x="62.5" y="-418.07" font-family="Helvetica,sans-Serif" font-size="10.00">multi_index_container</text>
</a>
</g>
</g>
<!-- Node8&#45;&gt;Node7 -->
<g id="edge7" class="edge">
<title>Node8&#45;&gt;Node7</title>
<path fill="none" stroke="orange" stroke-dasharray="5,2" d="M135.56,-420.57C203.25,-420.57 305.79,-420.57 385.77,-420.57"/>
<polygon fill="orange" stroke="orange" points="135.42,-417.07 125.42,-420.57 135.42,-424.07 135.42,-417.07"/>
<text text-anchor="start" x="143" y="-456.57" font-family="Helvetica,sans-Serif" font-size="10.00"> &lt; UIdTypeMap, indexed</text>
<text text-anchor="start" x="143" y="-445.57" font-family="Helvetica,sans-Serif" font-size="10.00">_by&lt; hashed_unique&lt; member</text>
<text text-anchor="start" x="143" y="-434.57" font-family="Helvetica,sans-Serif" font-size="10.00">&lt; UIdTypeMap, boost::typeindex</text>
<text text-anchor="middle" x="255.5" y="-423.57" font-family="Helvetica,sans-Serif" font-size="10.00">::type_index, &amp;UIdTypeMap::classIdx &gt; &gt; &gt; &gt;</text>
</g>
<!-- Node9 -->
<g id="node9" class="node">
<title>Node9</title>
<g id="a_node9"><a xlink:title=" ">
<polygon fill="white" stroke="#bfbfbf" points="1160,-564.57 1160,-594.57 1315,-594.57 1315,-564.57 1160,-564.57"/>
<text text-anchor="start" x="1168" y="-582.57" font-family="Helvetica,sans-Serif" font-size="10.00">ptr_vector&lt; MethodForForce</text>
<text text-anchor="middle" x="1237.5" y="-571.57" font-family="Helvetica,sans-Serif" font-size="10.00">Scaling &gt;</text>
</a>
</g>
</g>
<!-- Node9&#45;&gt;Node1 -->
<g id="edge23" class="edge">
<title>Node9&#45;&gt;Node1</title>
<path fill="none" stroke="#9a32cd" stroke-dasharray="5,2" d="M1325.35,-588.85C1363.82,-590.49 1409.26,-589.03 1449,-578.57 1622.37,-532.91 1666.98,-500.65 1801,-381.57 1841.82,-345.29 1875.19,-287.81 1887.45,-265.18"/>
<polygon fill="#9a32cd" stroke="#9a32cd" points="1325.37,-585.34 1315.21,-588.33 1325.02,-592.33 1325.37,-585.34"/>
<text text-anchor="middle" x="1559" y="-574.57" font-family="Helvetica,sans-Serif" font-size="10.00"> methodsOp</text>
</g>
<!-- Node9&#45;&gt;Node2 -->
<g id="edge8" class="edge">
<title>Node9&#45;&gt;Node2</title>
<path fill="none" stroke="#9a32cd" stroke-dasharray="5,2" d="M1325.15,-567.66C1378.06,-559.96 1437.68,-550.32 1449,-544.57 1496.27,-520.52 1536.21,-468.74 1551.42,-447.23"/>
<polygon fill="#9a32cd" stroke="#9a32cd" points="1324.42,-564.23 1315.02,-569.13 1325.42,-571.16 1324.42,-564.23"/>
<text text-anchor="middle" x="1397.5" y="-566.57" font-family="Helvetica,sans-Serif" font-size="10.00"> methodsOp</text>
</g>
<!-- Node10 -->
<g id="node10" class="node">
<title>Node10</title>
<g id="a_node10"><a xlink:href="structBCs__RVELagrange__Disp_1_1MyTriFE.html" target="_top" xlink:title=" ">
<polygon fill="white" stroke="black" points="1171.5,-498.57 1171.5,-528.57 1303.5,-528.57 1303.5,-498.57 1171.5,-498.57"/>
<text text-anchor="start" x="1179.5" y="-516.57" font-family="Helvetica,sans-Serif" font-size="10.00">BCs_RVELagrange_Disp</text>
<text text-anchor="middle" x="1237.5" y="-505.57" font-family="Helvetica,sans-Serif" font-size="10.00">::MyTriFE</text>
</a>
</g>
</g>
<!-- Node10&#45;&gt;Node2 -->
<g id="edge9" class="edge">
<title>Node10&#45;&gt;Node2</title>
<path fill="none" stroke="#9a32cd" stroke-dasharray="5,2" d="M1313.68,-496.78C1373.94,-483.33 1448.57,-466.67 1449,-466.57 1473.92,-460.47 1501.88,-453.02 1523.24,-447.2"/>
<polygon fill="#9a32cd" stroke="#9a32cd" points="1312.76,-493.4 1303.76,-499 1314.28,-500.24 1312.76,-493.4"/>
<text text-anchor="middle" x="1397.5" y="-535.57" font-family="Helvetica,sans-Serif" font-size="10.00"> feRVEBCRhsHomoC</text>
<text text-anchor="middle" x="1397.5" y="-524.57" font-family="Helvetica,sans-Serif" font-size="10.00">feRVEBCRhsResidual</text>
<text text-anchor="middle" x="1397.5" y="-513.57" font-family="Helvetica,sans-Serif" font-size="10.00">feRVEBCLhs</text>
<text text-anchor="middle" x="1397.5" y="-502.57" font-family="Helvetica,sans-Serif" font-size="10.00">feRVEBCRhs</text>
<text text-anchor="middle" x="1397.5" y="-491.57" font-family="Helvetica,sans-Serif" font-size="10.00">feRVEBCStress</text>
</g>
<!-- Node11 -->
<g id="node11" class="node">
<title>Node11</title>
<g id="a_node11"><a xlink:href="classFaceElementForcesAndSourcesCore.html" target="_top" xlink:title=" ">
<polygon fill="white" stroke="black" points="920,-504.07 920,-523.07 1110,-523.07 1110,-504.07 920,-504.07"/>
<text text-anchor="middle" x="1015" y="-511.07" font-family="Helvetica,sans-Serif" font-size="10.00">FaceElementForcesAndSourcesCore</text>
</a>
</g>
</g>
<!-- Node11&#45;&gt;Node10 -->
<g id="edge10" class="edge">
<title>Node11&#45;&gt;Node10</title>
<path fill="none" stroke="midnightblue" d="M1120.34,-513.57C1137.71,-513.57 1155.27,-513.57 1171.29,-513.57"/>
<polygon fill="midnightblue" stroke="midnightblue" points="1120.15,-510.07 1110.15,-513.57 1120.15,-517.07 1120.15,-510.07"/>
</g>
<!-- Node12 -->
<g id="node12" class="node">
<title>Node12</title>
<g id="a_node12"><a xlink:title=" ">
<polygon fill="white" stroke="#bfbfbf" points="1159,-361.57 1159,-391.57 1316,-391.57 1316,-361.57 1159,-361.57"/>
<text text-anchor="start" x="1167" y="-379.57" font-family="Helvetica,sans-Serif" font-size="10.00">map&lt; int, BCs_RVELagrange</text>
<text text-anchor="middle" x="1237.5" y="-368.57" font-family="Helvetica,sans-Serif" font-size="10.00">_Disp::RVEBC_Data &gt;</text>
</a>
</g>
</g>
<!-- Node12&#45;&gt;Node2 -->
<g id="edge11" class="edge">
<title>Node12&#45;&gt;Node2</title>
<path fill="none" stroke="#9a32cd" stroke-dasharray="5,2" d="M1326.1,-383.67C1364.15,-387.71 1409.06,-393.77 1449,-402.57 1478.31,-409.02 1510.97,-420.04 1532.82,-427.99"/>
<polygon fill="#9a32cd" stroke="#9a32cd" points="1326.38,-380.18 1316.07,-382.63 1325.66,-387.14 1326.38,-380.18"/>
<text text-anchor="middle" x="1397.5" y="-405.57" font-family="Helvetica,sans-Serif" font-size="10.00"> setOfRVEBC</text>
</g>
<!-- Node13 -->
<g id="node13" class="node">
<title>Node13</title>
<g id="a_node13"><a xlink:href="structBCs__RVELagrange__Periodic_1_1MyPrismFE.html" target="_top" xlink:title=" ">
<polygon fill="white" stroke="black" points="1484.5,-293.57 1484.5,-323.57 1633.5,-323.57 1633.5,-293.57 1484.5,-293.57"/>
<text text-anchor="start" x="1492.5" y="-311.57" font-family="Helvetica,sans-Serif" font-size="10.00">BCs_RVELagrange_Periodic</text>
<text text-anchor="middle" x="1559" y="-300.57" font-family="Helvetica,sans-Serif" font-size="10.00">::MyPrismFE</text>
</a>
</g>
</g>
<!-- Node13&#45;&gt;Node1 -->
<g id="edge12" class="edge">
<title>Node13&#45;&gt;Node1</title>
<path fill="none" stroke="#9a32cd" stroke-dasharray="5,2" d="M1643.82,-295.2C1702.71,-285.82 1780.08,-273.49 1832.77,-265.09"/>
<polygon fill="#9a32cd" stroke="#9a32cd" points="1643.12,-291.77 1633.79,-296.8 1644.22,-298.68 1643.12,-291.77"/>
<text text-anchor="middle" x="1735" y="-325.57" font-family="Helvetica,sans-Serif" font-size="10.00"> feRVEBCRhsResidual</text>
<text text-anchor="middle" x="1735" y="-314.57" font-family="Helvetica,sans-Serif" font-size="10.00">feRVEBCLhs</text>
<text text-anchor="middle" x="1735" y="-303.57" font-family="Helvetica,sans-Serif" font-size="10.00">feRVEBCRhs</text>
<text text-anchor="middle" x="1735" y="-292.57" font-family="Helvetica,sans-Serif" font-size="10.00">feRVEBCStress</text>
</g>
<!-- Node14 -->
<g id="node14" class="node">
<title>Node14</title>
<g id="a_node14"><a xlink:href="classFlatPrismElementForcesAndSurcesCore.html" target="_top" xlink:title=" ">
<polygon fill="white" stroke="black" points="1160.5,-312.57 1160.5,-342.57 1314.5,-342.57 1314.5,-312.57 1160.5,-312.57"/>
<text text-anchor="start" x="1168.5" y="-330.57" font-family="Helvetica,sans-Serif" font-size="10.00">FlatPrismElementForcesAnd</text>
<text text-anchor="middle" x="1237.5" y="-319.57" font-family="Helvetica,sans-Serif" font-size="10.00">SurcesCore</text>
</a>
</g>
</g>
<!-- Node14&#45;&gt;Node13 -->
<g id="edge13" class="edge">
<title>Node14&#45;&gt;Node13</title>
<path fill="none" stroke="midnightblue" d="M1324.75,-322.44C1374.66,-319.47 1436.8,-315.77 1484.39,-312.94"/>
<polygon fill="midnightblue" stroke="midnightblue" points="1324.4,-318.95 1314.62,-323.04 1324.81,-325.94 1324.4,-318.95"/>
</g>
<!-- Node15 -->
<g id="node15" class="node">
<title>Node15</title>
<g id="a_node15"><a xlink:href="structBCs__RVELagrange__Periodic_1_1CommonDataPeriodic.html" target="_top" xlink:title=" ">
<polygon fill="white" stroke="black" points="1484.5,-191.57 1484.5,-221.57 1633.5,-221.57 1633.5,-191.57 1484.5,-191.57"/>
<text text-anchor="start" x="1492.5" y="-209.57" font-family="Helvetica,sans-Serif" font-size="10.00">BCs_RVELagrange_Periodic</text>
<text text-anchor="middle" x="1559" y="-198.57" font-family="Helvetica,sans-Serif" font-size="10.00">::CommonDataPeriodic</text>
</a>
</g>
</g>
<!-- Node15&#45;&gt;Node1 -->
<g id="edge14" class="edge">
<title>Node15&#45;&gt;Node1</title>
<path fill="none" stroke="#9a32cd" stroke-dasharray="5,2" d="M1643.72,-212.72C1690.26,-216.86 1749.09,-223.29 1801,-232.57 1820.51,-236.05 1842.02,-241.38 1859.28,-246.03"/>
<polygon fill="#9a32cd" stroke="#9a32cd" points="1643.94,-209.23 1633.68,-211.85 1643.33,-216.2 1643.94,-209.23"/>
<text text-anchor="middle" x="1735" y="-235.57" font-family="Helvetica,sans-Serif" font-size="10.00"> commonDataPeriodic</text>
</g>
<!-- Node16 -->
<g id="node16" class="node">
<title>Node16</title>
<g id="a_node16"><a xlink:title=" ">
<polygon fill="white" stroke="#bfbfbf" points="1158.5,-180.57 1158.5,-232.57 1316.5,-232.57 1316.5,-180.57 1158.5,-180.57"/>
<text text-anchor="start" x="1166.5" y="-220.57" font-family="Helvetica,sans-Serif" font-size="10.00">vector&lt; map&lt; EntityType,</text>
<text text-anchor="start" x="1166.5" y="-209.57" font-family="Helvetica,sans-Serif" font-size="10.00"> map&lt; int, map&lt; EntityType,</text>
<text text-anchor="start" x="1166.5" y="-198.57" font-family="Helvetica,sans-Serif" font-size="10.00"> map&lt; int, MatrixDouble &gt;</text>
<text text-anchor="middle" x="1237.5" y="-187.57" font-family="Helvetica,sans-Serif" font-size="10.00"> &gt; &gt; &gt; &gt;</text>
</a>
</g>
</g>
<!-- Node16&#45;&gt;Node15 -->
<g id="edge15" class="edge">
<title>Node16&#45;&gt;Node15</title>
<path fill="none" stroke="#9a32cd" stroke-dasharray="5,2" d="M1326.74,-206.57C1376.33,-206.57 1437.51,-206.57 1484.49,-206.57"/>
<polygon fill="#9a32cd" stroke="#9a32cd" points="1326.66,-203.07 1316.66,-206.57 1326.66,-210.07 1326.66,-203.07"/>
<text text-anchor="middle" x="1397.5" y="-209.57" font-family="Helvetica,sans-Serif" font-size="10.00"> Cmat</text>
</g>
<!-- Node17 -->
<g id="node17" class="node">
<title>Node17</title>
<g id="a_node17"><a xlink:title=" ">
<polygon fill="white" stroke="#bfbfbf" points="1169.5,-142.07 1169.5,-161.07 1305.5,-161.07 1305.5,-142.07 1169.5,-142.07"/>
<text text-anchor="middle" x="1237.5" y="-149.07" font-family="Helvetica,sans-Serif" font-size="10.00">vector&lt; MatrixDouble &gt;</text>
</a>
</g>
</g>
<!-- Node17&#45;&gt;Node15 -->
<g id="edge16" class="edge">
<title>Node17&#45;&gt;Node15</title>
<path fill="none" stroke="#9a32cd" stroke-dasharray="5,2" d="M1303.64,-162.78C1356.05,-171.8 1429.68,-184.48 1484.24,-193.87"/>
<polygon fill="#9a32cd" stroke="#9a32cd" points="1304.24,-159.33 1293.79,-161.08 1303.05,-166.23 1304.24,-159.33"/>
<text text-anchor="middle" x="1397.5" y="-189.57" font-family="Helvetica,sans-Serif" font-size="10.00"> D_mat</text>
</g>
<!-- Node18 -->
<g id="node18" class="node">
<title>Node18</title>
<g id="a_node18"><a xlink:title=" ">
<polygon fill="white" stroke="#bfbfbf" points="1176.5,-92.57 1176.5,-122.57 1298.5,-122.57 1298.5,-92.57 1176.5,-92.57"/>
<text text-anchor="start" x="1184.5" y="-110.57" font-family="Helvetica,sans-Serif" font-size="10.00">vector&lt; ublas::vector</text>
<text text-anchor="middle" x="1237.5" y="-99.57" font-family="Helvetica,sans-Serif" font-size="10.00">&lt; VectorDouble &gt; &gt;</text>
</a>
</g>
</g>
<!-- Node18&#45;&gt;Node15 -->
<g id="edge17" class="edge">
<title>Node18&#45;&gt;Node15</title>
<path fill="none" stroke="#9a32cd" stroke-dasharray="5,2" d="M1308.58,-110.5C1352.25,-115.32 1407.77,-127.15 1449,-155.57 1460.87,-163.75 1455.26,-174.18 1467,-182.57 1472.32,-186.36 1478.2,-189.56 1484.33,-192.25"/>
<polygon fill="#9a32cd" stroke="#9a32cd" points="1308.9,-107.02 1298.6,-109.5 1308.2,-113.98 1308.9,-107.02"/>
<text text-anchor="middle" x="1397.5" y="-158.57" font-family="Helvetica,sans-Serif" font-size="10.00"> DispAtGaussPts</text>
</g>
<!-- Node19 -->
<g id="node19" class="node">
<title>Node19</title>
<g id="a_node19"><a xlink:title=" ">
<polygon fill="white" stroke="#bfbfbf" points="1152,-43.57 1152,-73.57 1323,-73.57 1323,-43.57 1152,-43.57"/>
<text text-anchor="start" x="1160" y="-61.57" font-family="Helvetica,sans-Serif" font-size="10.00">vector&lt; map&lt; EntityType,</text>
<text text-anchor="middle" x="1237.5" y="-50.57" font-family="Helvetica,sans-Serif" font-size="10.00"> map&lt; int, MatrixDouble &gt; &gt; &gt;</text>
</a>
</g>
</g>
<!-- Node19&#45;&gt;Node15 -->
<g id="edge18" class="edge">
<title>Node19&#45;&gt;Node15</title>
<path fill="none" stroke="#9a32cd" stroke-dasharray="5,2" d="M1333.27,-50.28C1373.81,-51.93 1418.68,-61.5 1449,-90.57 1479.08,-119.4 1438.51,-152.17 1467,-182.57 1471.92,-187.81 1477.83,-191.96 1484.26,-195.24"/>
<polygon fill="#9a32cd" stroke="#9a32cd" points="1333.16,-46.78 1323.07,-50.02 1332.98,-53.77 1333.16,-46.78"/>
<text text-anchor="middle" x="1397.5" y="-104.57" font-family="Helvetica,sans-Serif" font-size="10.00"> RowN</text>
<text text-anchor="middle" x="1397.5" y="-93.57" font-family="Helvetica,sans-Serif" font-size="10.00">ColN</text>
</g>
<!-- Node20 -->
<g id="node20" class="node">
<title>Node20</title>
<g id="a_node20"><a xlink:title=" ">
<polygon fill="white" stroke="#bfbfbf" points="1170,-5.07 1170,-24.07 1305,-24.07 1305,-5.07 1170,-5.07"/>
<text text-anchor="middle" x="1237.5" y="-12.07" font-family="Helvetica,sans-Serif" font-size="10.00">vector&lt; VectorDouble &gt;</text>
</a>
</g>
</g>
<!-- Node20&#45;&gt;Node15 -->
<g id="edge19" class="edge">
<title>Node20&#45;&gt;Node15</title>
<path fill="none" stroke="#9a32cd" stroke-dasharray="5,2" d="M1291.85,-3.52C1339.66,2.98 1408.33,3.36 1449,-36.57 1495.66,-82.37 1424,-133.32 1467,-182.57 1471.84,-188.1 1477.78,-192.44 1484.3,-195.82"/>
<polygon fill="#9a32cd" stroke="#9a32cd" points="1291.06,-0.1 1281.69,-5.04 1292.09,-7.02 1291.06,-0.1"/>
<text text-anchor="middle" x="1397.5" y="-39.57" font-family="Helvetica,sans-Serif" font-size="10.00"> LagMulAtGaussPts</text>
</g>
<!-- Node21 -->
<g id="node21" class="node">
<title>Node21</title>
<g id="a_node21"><a xlink:title=" ">
<polygon fill="white" stroke="#bfbfbf" points="1164.5,-252.07 1164.5,-293.07 1310.5,-293.07 1310.5,-252.07 1164.5,-252.07"/>
<text text-anchor="start" x="1172.5" y="-281.07" font-family="Helvetica,sans-Serif" font-size="10.00">vector&lt; map&lt; EntityType,</text>
<text text-anchor="start" x="1172.5" y="-270.07" font-family="Helvetica,sans-Serif" font-size="10.00"> map&lt; int, ublas::vector</text>
<text text-anchor="middle" x="1237.5" y="-259.07" font-family="Helvetica,sans-Serif" font-size="10.00">&lt; int &gt; &gt; &gt; &gt;</text>
</a>
</g>
</g>
<!-- Node21&#45;&gt;Node15 -->
<g id="edge20" class="edge">
<title>Node21&#45;&gt;Node15</title>
<path fill="none" stroke="#9a32cd" stroke-dasharray="5,2" d="M1320.59,-255.61C1371.49,-245.09 1436.29,-231.71 1485.33,-221.58"/>
<polygon fill="#9a32cd" stroke="#9a32cd" points="1319.69,-252.22 1310.6,-257.67 1321.1,-259.08 1319.69,-252.22"/>
<text text-anchor="middle" x="1397.5" y="-262.57" font-family="Helvetica,sans-Serif" font-size="10.00"> RowInd</text>
<text text-anchor="middle" x="1397.5" y="-251.57" font-family="Helvetica,sans-Serif" font-size="10.00">ColInd</text>
</g>
<!-- Node22 -->
<g id="node22" class="node">
<title>Node22</title>
<g id="a_node22"><a xlink:href="structBCs__RVELagrange__Periodic_1_1CommonFunctionsPeriodic.html" target="_top" xlink:title=" ">
<polygon fill="white" stroke="black" points="1483,-142.57 1483,-172.57 1635,-172.57 1635,-142.57 1483,-142.57"/>
<text text-anchor="start" x="1491" y="-160.57" font-family="Helvetica,sans-Serif" font-size="10.00">BCs_RVELagrange_Periodic</text>
<text text-anchor="middle" x="1559" y="-149.57" font-family="Helvetica,sans-Serif" font-size="10.00">::CommonFunctionsPeriodic</text>
</a>
</g>
</g>
<!-- Node22&#45;&gt;Node1 -->
<g id="edge21" class="edge">
<title>Node22&#45;&gt;Node1</title>
<path fill="none" stroke="#9a32cd" stroke-dasharray="5,2" d="M1645.37,-164.54C1692.42,-170.32 1751.21,-180.77 1801,-199.57 1831.67,-211.14 1863.42,-233.27 1880.26,-245.97"/>
<polygon fill="#9a32cd" stroke="#9a32cd" points="1645.56,-161.03 1635.21,-163.34 1644.73,-167.98 1645.56,-161.03"/>
<text text-anchor="middle" x="1735" y="-202.57" font-family="Helvetica,sans-Serif" font-size="10.00"> commonFunctionsPeriodic</text>
</g>
<!-- Node23 -->
<g id="node23" class="node">
<title>Node23</title>
<g id="a_node23"><a xlink:title=" ">
<polygon fill="white" stroke="#bfbfbf" points="1467,-93.57 1467,-123.57 1651,-123.57 1651,-93.57 1467,-93.57"/>
<text text-anchor="start" x="1475" y="-111.57" font-family="Helvetica,sans-Serif" font-size="10.00">map&lt; int, BCs_RVELagrange</text>
<text text-anchor="middle" x="1559" y="-100.57" font-family="Helvetica,sans-Serif" font-size="10.00">_Periodic::RVEBC_Data_Periodic &gt;</text>
</a>
</g>
</g>
<!-- Node23&#45;&gt;Node1 -->
<g id="edge22" class="edge">
<title>Node23&#45;&gt;Node1</title>
<path fill="none" stroke="#9a32cd" stroke-dasharray="5,2" d="M1661.32,-112.23C1706.43,-117.49 1758.79,-128.81 1801,-152.57 1842.48,-175.91 1874.76,-225.2 1887.08,-245.99"/>
<polygon fill="#9a32cd" stroke="#9a32cd" points="1661.53,-108.73 1651.22,-111.14 1660.78,-115.69 1661.53,-108.73"/>
<text text-anchor="middle" x="1735" y="-155.57" font-family="Helvetica,sans-Serif" font-size="10.00"> setOfRVEBCPrisms</text>
</g>
</g>
</svg>
        <g id="navigator" transform="translate(0 0)" fill="#404254">
                <rect fill="#f2f5e9" fill-opacity="0.5" stroke="#606060" stroke-width=".5" x="0" y="0" width="60" height="60"/>
                <use id="zoomplus" xlink:href="#zoomPlus" x="17" y="9" onmousedown="handleZoom(evt,'in')"/>
                <use id="zoomminus" xlink:href="#zoomMin" x="42" y="9" onmousedown="handleZoom(evt,'out')"/>
                <use id="reset" xlink:href="#resetDef" x="30" y="36" onmousedown="handleReset()"/>
                <g id="arrowUp" xlink:href="#dirArrow" transform="translate(30 24)" onmousedown="handlePan(0,-1)">
                  <use xlink:href="#rim" fill="#404040">
                        <set attributeName="fill" to="#808080" begin="arrowUp.mouseover" end="arrowUp.mouseout"/>
                  </use>
                  <path fill="none" stroke="white" stroke-width="1.5" d="M0,-3.0v7 M-2.5,-0.5L0,-3.0L2.5,-0.5"/>
                </g>
                <g id="arrowRight" xlink:href="#dirArrow" transform="rotate(90) translate(36 -43)" onmousedown="handlePan(1,0)">
                  <use xlink:href="#rim" fill="#404040">
                        <set attributeName="fill" to="#808080" begin="arrowRight.mouseover" end="arrowRight.mouseout"/>
                  </use>
                  <path fill="none" stroke="white" stroke-width="1.5" d="M0,-3.0v7 M-2.5,-0.5L0,-3.0L2.5,-0.5"/>
                </g>
                <g id="arrowDown" xlink:href="#dirArrow" transform="rotate(180) translate(-30 -48)" onmousedown="handlePan(0,1)">
                  <use xlink:href="#rim" fill="#404040">
                        <set attributeName="fill" to="#808080" begin="arrowDown.mouseover" end="arrowDown.mouseout"/>
                  </use>
                  <path fill="none" stroke="white" stroke-width="1.5" d="M0,-3.0v7 M-2.5,-0.5L0,-3.0L2.5,-0.5"/>
                </g>
                <g id="arrowLeft" xlink:href="#dirArrow" transform="rotate(270) translate(-36 17)" onmousedown="handlePan(-1,0)">
                  <use xlink:href="#rim" fill="#404040">
                        <set attributeName="fill" to="#808080" begin="arrowLeft.mouseover" end="arrowLeft.mouseout"/>
                  </use>
                  <path fill="none" stroke="white" stroke-width="1.5" d="M0,-3.0v7 M-2.5,-0.5L0,-3.0L2.5,-0.5"/>
                </g>
        </g>
        <svg viewBox="0 0 15 15" width="100%" height="30px" preserveAspectRatio="xMaxYMin meet">
         <g id="arrow_out" transform="scale(0.3 0.3)">
          <a xlink:href="structBCs__RVELagrange__Periodic__coll__graph_org.svg" target="_base">
           <rect id="button" ry="5" rx="5" y="6" x="6" height="38" width="38"
                fill="#f2f5e9" fill-opacity="0.5" stroke="#606060" stroke-width="1.0"/>
           <path id="arrow"
             d="M 11.500037,31.436501 C 11.940474,20.09759 22.043105,11.32322 32.158766,21.979434 L 37.068811,17.246167 C 37.068811,17.246167 37.088388,32 37.088388,32 L 22.160133,31.978069 C 22.160133,31.978069 26.997745,27.140456 26.997745,27.140456 C 18.528582,18.264221 13.291696,25.230495 11.500037,31.436501 z"
             style="fill:#404040;"/>
          </a>
         </g>
        </svg>
</svg>
