<?xml version="1.0" encoding="UTF-8" standalone="no"?>
<!DOCTYPE svg PUBLIC "-//W3C//DTD SVG 1.1//EN"
 "http://www.w3.org/Graphics/SVG/1.1/DTD/svg11.dtd">
<!-- Generated by graphviz version 2.43.0 (0)
 -->
<!-- Title: MoFEM::OpMixDivTimesVecImpl&lt; SPACE_DIM, GAUSS, OpBase, CoordSys &gt; Pages: 1 -->
<!--zoomable 176 -->
<svg id="main" version="1.1" xmlns="http://www.w3.org/2000/svg" xmlns:xlink="http://www.w3.org/1999/xlink" xml:space="preserve" onload="init(evt)">
<style type="text/css"><![CDATA[
.edge:hover path { stroke: red; }
.edge:hover polygon { stroke: red; fill: red; }
]]></style>
<script type="text/javascript"><![CDATA[
var edges = document.getElementsByTagName('g');
if (edges && edges.length) {
  for (var i=0;i<edges.length;i++) {
    if (edges[i].id.substr(0,4)=='edge') {
      edges[i].setAttribute('class','edge');
    }
  }
}
]]></script>
        <defs>
                <circle id="rim" cx="0" cy="0" r="7"/>
                <circle id="rim2" cx="0" cy="0" r="3.5"/>
                <g id="zoomPlus">
                        <use xlink:href="#rim" fill="#404040">
                                <set attributeName="fill" to="#808080" begin="zoomplus.mouseover" end="zoomplus.mouseout"/>
                        </use>
                        <path d="M-4,0h8M0,-4v8" fill="none" stroke="white" stroke-width="1.5" pointer-events="none"/>
                </g>
                <g id="zoomMin">
                        <use xlink:href="#rim" fill="#404040">
                                <set attributeName="fill" to="#808080" begin="zoomminus.mouseover" end="zoomminus.mouseout"/>
                        </use>
                        <path d="M-4,0h8" fill="none" stroke="white" stroke-width="1.5" pointer-events="none"/>
                </g>
                <g id="dirArrow">
                        <path fill="none" stroke="white" stroke-width="1.5" d="M0,-3.0v7 M-2.5,-0.5L0,-3.0L2.5,-0.5"/>
                </g>
               <g id="resetDef">
                       <use xlink:href="#rim2" fill="#404040">
                               <set attributeName="fill" to="#808080" begin="reset.mouseover" end="reset.mouseout"/>
                       </use>
               </g>
        </defs>

<script type="text/javascript">
var viewWidth = 662;
var viewHeight = 176;
var sectionId = 'dynsection-1';
</script>
<script xlink:href="svgpan.js"/>
<svg id="graph" class="graph">
<g id="viewport">
<title>MoFEM::OpMixDivTimesVecImpl&lt; SPACE_DIM, GAUSS, OpBase, CoordSys &gt;</title>
<polygon fill="white" stroke="transparent" points="-4,4 -4,-171.5 658,-171.5 658,4 -4,4"/>
<!-- Node1 -->
<g id="node1" class="node">
<title>Node1</title>
<g id="a_node1"><a xlink:title=" ">
<polygon fill="#bfbfbf" stroke="black" points="478,-63 478,-104 654,-104 654,-63 478,-63"/>
<text text-anchor="start" x="486" y="-92" font-family="Helvetica,sans-Serif" font-size="10.00">MoFEM::OpMixDivTimesVecImpl</text>
<text text-anchor="start" x="486" y="-81" font-family="Helvetica,sans-Serif" font-size="10.00">&lt; SPACE_DIM, GAUSS, OpBase,</text>
<text text-anchor="middle" x="566" y="-70" font-family="Helvetica,sans-Serif" font-size="10.00"> CoordSys &gt;</text>
</a>
</g>
</g>
<!-- Node2 -->
<g id="node2" class="node">
<title>Node2</title>
<g id="a_node2"><a xlink:href="classOpBase.html" target="_top" xlink:title=" ">
<polygon fill="white" stroke="black" points="275.5,-148 275.5,-167 329.5,-167 329.5,-148 275.5,-148"/>
<text text-anchor="middle" x="302.5" y="-155" font-family="Helvetica,sans-Serif" font-size="10.00">OpBase</text>
</a>
</g>
</g>
<!-- Node2&#45;&gt;Node1 -->
<g id="edge1" class="edge">
<title>Node2&#45;&gt;Node1</title>
<path fill="none" stroke="midnightblue" d="M339.3,-147.87C371.05,-139.28 418.68,-126.28 460,-114.5 471.7,-111.17 484.11,-107.56 496.15,-104.03"/>
<polygon fill="midnightblue" stroke="midnightblue" points="338.31,-144.51 329.57,-150.5 340.14,-151.27 338.31,-144.51"/>
</g>
<!-- Node3 -->
<g id="node3" class="node">
<title>Node3</title>
<g id="a_node3"><a xlink:title=" ">
<polygon fill="white" stroke="#bfbfbf" points="237,-88 237,-129 368,-129 368,-88 237,-88"/>
<text text-anchor="start" x="245" y="-117" font-family="Helvetica,sans-Serif" font-size="10.00">function&lt; double(const</text>
<text text-anchor="start" x="245" y="-106" font-family="Helvetica,sans-Serif" font-size="10.00"> double, const double,</text>
<text text-anchor="middle" x="302.5" y="-95" font-family="Helvetica,sans-Serif" font-size="10.00"> const double)&gt;</text>
</a>
</g>
</g>
<!-- Node3&#45;&gt;Node1 -->
<g id="edge2" class="edge">
<title>Node3&#45;&gt;Node1</title>
<path fill="none" stroke="#9a32cd" stroke-dasharray="5,2" d="M378.46,-101.33C409.5,-98.37 445.71,-94.9 477.92,-91.82"/>
<polygon fill="#9a32cd" stroke="#9a32cd" points="377.76,-97.88 368.14,-102.32 378.43,-104.85 377.76,-97.88"/>
<text text-anchor="middle" x="423" y="-102.5" font-family="Helvetica,sans-Serif" font-size="10.00"> betaCoeff</text>
</g>
<!-- Node4 -->
<g id="node4" class="node">
<title>Node4</title>
<g id="a_node4"><a xlink:title=" ">
<polygon fill="white" stroke="#bfbfbf" points="244.5,-50 244.5,-69 360.5,-69 360.5,-50 244.5,-50"/>
<text text-anchor="middle" x="302.5" y="-57" font-family="Helvetica,sans-Serif" font-size="10.00">function&lt; double()&gt;</text>
</a>
</g>
</g>
<!-- Node4&#45;&gt;Node1 -->
<g id="edge3" class="edge">
<title>Node4&#45;&gt;Node1</title>
<path fill="none" stroke="#9a32cd" stroke-dasharray="5,2" d="M370.9,-65.69C403.52,-68.68 443.08,-72.31 477.96,-75.51"/>
<polygon fill="#9a32cd" stroke="#9a32cd" points="370.84,-62.17 360.56,-64.74 370.2,-69.14 370.84,-62.17"/>
<text text-anchor="middle" x="423" y="-76.5" font-family="Helvetica,sans-Serif" font-size="10.00"> alphaConstant</text>
</g>
<!-- Node5 -->
<g id="node5" class="node">
<title>Node5</title>
<g id="a_node5"><a xlink:href="classFTensor_1_1Index.html" target="_top" xlink:title=" ">
<polygon fill="white" stroke="black" points="247.5,-0.5 247.5,-30.5 357.5,-30.5 357.5,-0.5 247.5,-0.5"/>
<text text-anchor="start" x="255.5" y="-18.5" font-family="Helvetica,sans-Serif" font-size="10.00">FTensor::Index&lt; &#39;i&#39;,</text>
<text text-anchor="middle" x="302.5" y="-7.5" font-family="Helvetica,sans-Serif" font-size="10.00"> SPACE_DIM &gt;</text>
</a>
</g>
</g>
<!-- Node5&#45;&gt;Node1 -->
<g id="edge4" class="edge">
<title>Node5&#45;&gt;Node1</title>
<path fill="none" stroke="#9a32cd" stroke-dasharray="5,2" d="M367.51,-29.17C395.95,-35.51 429.76,-43.42 460,-51.5 473.07,-54.99 486.97,-59.01 500.23,-62.99"/>
<polygon fill="#9a32cd" stroke="#9a32cd" points="368.21,-25.74 357.69,-26.99 366.69,-32.57 368.21,-25.74"/>
<text text-anchor="middle" x="423" y="-54.5" font-family="Helvetica,sans-Serif" font-size="10.00"> i</text>
</g>
<!-- Node6 -->
<g id="node6" class="node">
<title>Node6</title>
<g id="a_node6"><a xlink:href="classFTensor_1_1Index.html" target="_top" xlink:title=" ">
<polygon fill="white" stroke="black" points="0,-0.5 0,-30.5 104,-30.5 104,-0.5 0,-0.5"/>
<text text-anchor="start" x="8" y="-18.5" font-family="Helvetica,sans-Serif" font-size="10.00">FTensor::Index&lt; i,</text>
<text text-anchor="middle" x="52" y="-7.5" font-family="Helvetica,sans-Serif" font-size="10.00"> Dim &gt;</text>
</a>
</g>
</g>
<!-- Node6&#45;&gt;Node5 -->
<g id="edge5" class="edge">
<title>Node6&#45;&gt;Node5</title>
<path fill="none" stroke="orange" stroke-dasharray="5,2" d="M114.28,-15.5C155.06,-15.5 208.14,-15.5 247.37,-15.5"/>
<polygon fill="orange" stroke="orange" points="114.19,-12 104.19,-15.5 114.19,-19 114.19,-12"/>
<text text-anchor="middle" x="170.5" y="-18.5" font-family="Helvetica,sans-Serif" font-size="10.00"> &lt; &#39;i&#39;, SPACE_DIM &gt;</text>
</g>
</g>
</svg>
        <g id="navigator" transform="translate(0 0)" fill="#404254">
                <rect fill="#f2f5e9" fill-opacity="0.5" stroke="#606060" stroke-width=".5" x="0" y="0" width="60" height="60"/>
                <use id="zoomplus" xlink:href="#zoomPlus" x="17" y="9" onmousedown="handleZoom(evt,'in')"/>
                <use id="zoomminus" xlink:href="#zoomMin" x="42" y="9" onmousedown="handleZoom(evt,'out')"/>
                <use id="reset" xlink:href="#resetDef" x="30" y="36" onmousedown="handleReset()"/>
                <g id="arrowUp" xlink:href="#dirArrow" transform="translate(30 24)" onmousedown="handlePan(0,-1)">
                  <use xlink:href="#rim" fill="#404040">
                        <set attributeName="fill" to="#808080" begin="arrowUp.mouseover" end="arrowUp.mouseout"/>
                  </use>
                  <path fill="none" stroke="white" stroke-width="1.5" d="M0,-3.0v7 M-2.5,-0.5L0,-3.0L2.5,-0.5"/>
                </g>
                <g id="arrowRight" xlink:href="#dirArrow" transform="rotate(90) translate(36 -43)" onmousedown="handlePan(1,0)">
                  <use xlink:href="#rim" fill="#404040">
                        <set attributeName="fill" to="#808080" begin="arrowRight.mouseover" end="arrowRight.mouseout"/>
                  </use>
                  <path fill="none" stroke="white" stroke-width="1.5" d="M0,-3.0v7 M-2.5,-0.5L0,-3.0L2.5,-0.5"/>
                </g>
                <g id="arrowDown" xlink:href="#dirArrow" transform="rotate(180) translate(-30 -48)" onmousedown="handlePan(0,1)">
                  <use xlink:href="#rim" fill="#404040">
                        <set attributeName="fill" to="#808080" begin="arrowDown.mouseover" end="arrowDown.mouseout"/>
                  </use>
                  <path fill="none" stroke="white" stroke-width="1.5" d="M0,-3.0v7 M-2.5,-0.5L0,-3.0L2.5,-0.5"/>
                </g>
                <g id="arrowLeft" xlink:href="#dirArrow" transform="rotate(270) translate(-36 17)" onmousedown="handlePan(-1,0)">
                  <use xlink:href="#rim" fill="#404040">
                        <set attributeName="fill" to="#808080" begin="arrowLeft.mouseover" end="arrowLeft.mouseout"/>
                  </use>
                  <path fill="none" stroke="white" stroke-width="1.5" d="M0,-3.0v7 M-2.5,-0.5L0,-3.0L2.5,-0.5"/>
                </g>
        </g>
        <svg viewBox="0 0 15 15" width="100%" height="30px" preserveAspectRatio="xMaxYMin meet">
         <g id="arrow_out" transform="scale(0.3 0.3)">
          <a xlink:href="structMoFEM_1_1OpMixDivTimesVecImpl_3_01SPACE__DIM_00_01GAUSS_00_01OpBase_00_01CoordSys_01_4__coll__graph_org.svg" target="_base">
           <rect id="button" ry="5" rx="5" y="6" x="6" height="38" width="38"
                fill="#f2f5e9" fill-opacity="0.5" stroke="#606060" stroke-width="1.0"/>
           <path id="arrow"
             d="M 11.500037,31.436501 C 11.940474,20.09759 22.043105,11.32322 32.158766,21.979434 L 37.068811,17.246167 C 37.068811,17.246167 37.088388,32 37.088388,32 L 22.160133,31.978069 C 22.160133,31.978069 26.997745,27.140456 26.997745,27.140456 C 18.528582,18.264221 13.291696,25.230495 11.500037,31.436501 z"
             style="fill:#404040;"/>
          </a>
         </g>
        </svg>
</svg>
