<?xml version="1.0" encoding="UTF-8" standalone="no"?>
<!DOCTYPE svg PUBLIC "-//W3C//DTD SVG 1.1//EN"
 "http://www.w3.org/Graphics/SVG/1.1/DTD/svg11.dtd">
<!-- Generated by graphviz version 9.0.0 (20230911.1827)
 -->
<!-- Title: MeasureTime Pages: 1 -->
<svg width="116pt" height="105pt"
 viewBox="0.00 0.00 115.90 105.00" xmlns="http://www.w3.org/2000/svg" xmlns:xlink="http://www.w3.org/1999/xlink">
<g id="graph0" class="graph" transform="scale(1 1) rotate(0) translate(4 101)">
<title>MeasureTime</title>
<!-- Node1 -->
<g id="node1" class="node">
<title>Node1</title>
<g id="a_node1"><a xlink:title=" ">
<polygon fill="#999999" stroke="#666666" points="83.03,-19.25 7.77,-19.25 7.77,0 83.03,0 83.03,-19.25"/>
<text text-anchor="middle" x="45.4" y="-5.75" font-family="Helvetica,sans-Serif" font-size="10.00">MeasureTime</text>
</a>
</g>
</g>
<!-- Node2 -->
<g id="node2" class="node">
<title>Node2</title>
<g id="a_node2"><a xlink:title=" ">
<polygon fill="white" stroke="#666666" points="28.8,-97 0,-97 0,-77.75 28.8,-77.75 28.8,-97"/>
<text text-anchor="middle" x="14.4" y="-83.5" font-family="Helvetica,sans-Serif" font-size="10.00">int</text>
</a>
</g>
</g>
<!-- Node2&#45;&gt;Node1 -->
<g id="edge1" class="edge">
<title>Node2&#45;&gt;Node1</title>
<path fill="none" stroke="#9a32cd" stroke-dasharray="5,2" d="M21.89,-66.7C25.38,-57.69 29.64,-46.89 33.65,-37.25 36.14,-31.28 39.07,-24.62 41.39,-19.46"/>
<polygon fill="#9a32cd" stroke="#9a32cd" points="18.69,-65.27 18.38,-75.86 25.23,-67.78 18.69,-65.27"/>
<text text-anchor="middle" x="44.27" y="-44.62" font-family="Helvetica,sans-Serif" font-size="10.00"> time</text>
</g>
<!-- Node3 -->
<g id="node3" class="node">
<title>Node3</title>
<g id="a_node3"><a xlink:title=" ">
<polygon fill="white" stroke="#666666" points="107.9,-97 46.9,-97 46.9,-77.75 107.9,-77.75 107.9,-97"/>
<text text-anchor="middle" x="77.4" y="-83.5" font-family="Helvetica,sans-Serif" font-size="10.00">time_point</text>
</a>
</g>
</g>
<!-- Node3&#45;&gt;Node1 -->
<g id="edge2" class="edge">
<title>Node3&#45;&gt;Node1</title>
<path fill="none" stroke="#9a32cd" stroke-dasharray="5,2" d="M69.22,-67C62.78,-51.76 54.1,-31.21 49.19,-19.6"/>
<polygon fill="#9a32cd" stroke="#9a32cd" points="65.9,-68.14 73.01,-75.99 72.35,-65.42 65.9,-68.14"/>
<text text-anchor="middle" x="76.65" y="-50.25" font-family="Helvetica,sans-Serif" font-size="10.00"> start</text>
<text text-anchor="middle" x="76.65" y="-39" font-family="Helvetica,sans-Serif" font-size="10.00">stop</text>
</g>
</g>
</svg>
