<?xml version="1.0" encoding="UTF-8" standalone="no"?>
<!DOCTYPE svg PUBLIC "-//W3C//DTD SVG 1.1//EN"
 "http://www.w3.org/Graphics/SVG/1.1/DTD/svg11.dtd">
<!-- Generated by graphviz version 9.0.0 (20230911.1827)
 -->
<!-- Title: PostProcVolumeOnRefinedMesh Pages: 1 -->
<!--zoomable 722 -->
<svg id="main" version="1.1" xmlns="http://www.w3.org/2000/svg" xmlns:xlink="http://www.w3.org/1999/xlink" xml:space="preserve" onload="init(evt)">
<style type="text/css"><![CDATA[
.edge:hover path { stroke: red; }
.edge:hover polygon { stroke: red; fill: red; }
]]></style>
<script type="text/javascript"><![CDATA[
var edges = document.getElementsByTagName('g');
if (edges && edges.length) {
  for (var i=0;i<edges.length;i++) {
    if (edges[i].id.substr(0,4)=='edge') {
      edges[i].setAttribute('class','edge');
    }
  }
}
]]></script>
        <defs>
                <circle id="rim" cx="0" cy="0" r="7"/>
                <circle id="rim2" cx="0" cy="0" r="3.5"/>
                <g id="zoomPlus">
                        <use xlink:href="#rim" fill="#404040">
                                <set attributeName="fill" to="#808080" begin="zoomplus.mouseover" end="zoomplus.mouseout"/>
                        </use>
                        <path d="M-4,0h8M0,-4v8" fill="none" stroke="white" stroke-width="1.5" pointer-events="none"/>
                </g>
                <g id="zoomMin">
                        <use xlink:href="#rim" fill="#404040">
                                <set attributeName="fill" to="#808080" begin="zoomminus.mouseover" end="zoomminus.mouseout"/>
                        </use>
                        <path d="M-4,0h8" fill="none" stroke="white" stroke-width="1.5" pointer-events="none"/>
                </g>
                <g id="dirArrow">
                        <path fill="none" stroke="white" stroke-width="1.5" d="M0,-3.0v7 M-2.5,-0.5L0,-3.0L2.5,-0.5"/>
                </g>
               <g id="resetDef">
                       <use xlink:href="#rim2" fill="#404040">
                               <set attributeName="fill" to="#808080" begin="reset.mouseover" end="reset.mouseout"/>
                       </use>
               </g>
        </defs>

<script type="text/javascript">
var viewWidth = 1686;
var viewHeight = 722;
var sectionId = 'dynsection-1';
</script>
<script xlink:href="svgpan.js"/>
<svg id="graph" class="graph">
<g id="viewport">
<title>PostProcVolumeOnRefinedMesh</title>
<!-- Node1 -->
<g id="node1" class="node">
<title>Node1</title>
<g id="a_node1"><a xlink:title="Post processing.">
<polygon fill="#999999" stroke="#666666" points="1678,-357.25 1518,-357.25 1518,-338 1678,-338 1678,-357.25"/>
<text text-anchor="middle" x="1598" y="-343.75" font-family="Helvetica,sans-Serif" font-size="10.00">PostProcVolumeOnRefinedMesh</text>
</a>
</g>
</g>
<!-- Node2 -->
<g id="node2" class="node">
<title>Node2</title>
<g id="a_node2"><a xlink:href="struct_post_proc_template_volume_on_refined_mesh.html" target="_top" xlink:title=" ">
<polygon fill="white" stroke="#666666" points="1481,-368.5 1288.75,-368.5 1288.75,-326.75 1481,-326.75 1481,-368.5"/>
<text text-anchor="start" x="1296.75" y="-355" font-family="Helvetica,sans-Serif" font-size="10.00">PostProcTemplateVolumeOn</text>
<text text-anchor="start" x="1296.75" y="-343.75" font-family="Helvetica,sans-Serif" font-size="10.00">RefinedMesh&lt; MoFEM::VolumeElement</text>
<text text-anchor="middle" x="1384.88" y="-332.5" font-family="Helvetica,sans-Serif" font-size="10.00">ForcesAndSourcesCore &gt;</text>
</a>
</g>
</g>
<!-- Node2&#45;&gt;Node1 -->
<g id="edge1" class="edge">
<title>Node2&#45;&gt;Node1</title>
<path fill="none" stroke="#63b8ff" d="M1492.65,-347.62C1501.02,-347.62 1509.39,-347.62 1517.53,-347.62"/>
<polygon fill="#63b8ff" stroke="#63b8ff" points="1492.76,-344.13 1482.76,-347.63 1492.76,-351.13 1492.76,-344.13"/>
</g>
<!-- Node3 -->
<g id="node3" class="node">
<title>Node3</title>
<g id="a_node3"><a xlink:href="struct_post_proc_template_on_refine_mesh.html" target="_top" xlink:title="Generic post&#45;processing class.">
<polygon fill="white" stroke="#666666" points="421.62,-498.88 284.12,-498.88 284.12,-468.38 421.62,-468.38 421.62,-498.88"/>
<text text-anchor="start" x="292.12" y="-485.38" font-family="Helvetica,sans-Serif" font-size="10.00">PostProcTemplateOnRefine</text>
<text text-anchor="middle" x="352.88" y="-474.12" font-family="Helvetica,sans-Serif" font-size="10.00">Mesh&lt; ELEMENT &gt;</text>
</a>
</g>
</g>
<!-- Node3&#45;&gt;Node2 -->
<g id="edge2" class="edge">
<title>Node3&#45;&gt;Node2</title>
<path fill="none" stroke="#63b8ff" d="M416.29,-502.32C546.41,-538.25 855.04,-607.57 1101.25,-538.62 1213.31,-507.25 1319.86,-411.51 1363.33,-368.7"/>
<polygon fill="#63b8ff" stroke="#63b8ff" points="417.4,-498.99 406.83,-499.67 415.52,-505.74 417.4,-498.99"/>
</g>
<!-- Node4 -->
<g id="node4" class="node">
<title>Node4</title>
<g id="a_node4"><a xlink:href="class_e_l_e_m_e_n_t.html" target="_top" xlink:title=" ">
<polygon fill="white" stroke="#666666" points="106.38,-497.25 43.12,-497.25 43.12,-478 106.38,-478 106.38,-497.25"/>
<text text-anchor="middle" x="74.75" y="-483.75" font-family="Helvetica,sans-Serif" font-size="10.00">ELEMENT</text>
</a>
</g>
</g>
<!-- Node4&#45;&gt;Node3 -->
<g id="edge3" class="edge">
<title>Node4&#45;&gt;Node3</title>
<path fill="none" stroke="#63b8ff" d="M118.28,-487.3C155.73,-486.98 211.74,-486.42 260.5,-485.62 268.12,-485.5 276.09,-485.35 284.01,-485.19"/>
<polygon fill="#63b8ff" stroke="#63b8ff" points="118.29,-483.8 108.32,-487.38 118.35,-490.8 118.29,-483.8"/>
</g>
<!-- Node23 -->
<g id="node23" class="node">
<title>Node23</title>
<g id="a_node23"><a xlink:href="struct_post_proc_template_on_refine_mesh.html" target="_top" xlink:title="Generic post&#45;processing class.">
<polygon fill="white" stroke="#666666" points="421.62,-385.88 284.12,-385.88 284.12,-355.38 421.62,-355.38 421.62,-385.88"/>
<text text-anchor="start" x="292.12" y="-372.38" font-family="Helvetica,sans-Serif" font-size="10.00">PostProcTemplateOnRefine</text>
<text text-anchor="middle" x="352.88" y="-361.12" font-family="Helvetica,sans-Serif" font-size="10.00">Mesh&lt; ELEMENT &gt;</text>
</a>
</g>
</g>
<!-- Node4&#45;&gt;Node23 -->
<g id="edge27" class="edge">
<title>Node4&#45;&gt;Node23</title>
<path fill="none" stroke="#63b8ff" d="M118.04,-486.61C165.87,-484.59 239.8,-478.58 260.5,-460.62 281.85,-442.1 259.43,-420.49 278.5,-399.62 283.4,-394.27 289.41,-389.88 295.87,-386.3"/>
<polygon fill="#63b8ff" stroke="#63b8ff" points="118.16,-483.1 108.3,-486.97 118.42,-490.1 118.16,-483.1"/>
</g>
<!-- Node5 -->
<g id="node5" class="node">
<title>Node5</title>
<g id="a_node5"><a xlink:title=" ">
<polygon fill="white" stroke="#666666" points="93.25,-425.25 56.25,-425.25 56.25,-406 93.25,-406 93.25,-425.25"/>
<text text-anchor="middle" x="74.75" y="-411.75" font-family="Helvetica,sans-Serif" font-size="10.00">Core</text>
</a>
</g>
</g>
<!-- Node5&#45;&gt;Node3 -->
<g id="edge4" class="edge">
<title>Node5&#45;&gt;Node3</title>
<path fill="none" stroke="#9a32cd" stroke-dasharray="5,2" d="M104.51,-422.71C147.62,-433.32 230.12,-453.64 287.95,-467.88"/>
<polygon fill="#9a32cd" stroke="#9a32cd" points="105.46,-419.34 94.91,-420.34 103.79,-426.13 105.46,-419.34"/>
<text text-anchor="middle" x="214" y="-461.38" font-family="Helvetica,sans-Serif" font-size="10.00"> coreMesh</text>
</g>
<!-- Node21 -->
<g id="node21" class="node">
<title>Node21</title>
<g id="a_node21"><a xlink:href="struct_post_proc_template_on_refine_mesh.html" target="_top" xlink:title=" ">
<polygon fill="white" stroke="#666666" points="731.25,-369.88 578.75,-369.88 578.75,-339.38 731.25,-339.38 731.25,-369.88"/>
<text text-anchor="start" x="586.75" y="-356.38" font-family="Helvetica,sans-Serif" font-size="10.00">PostProcTemplateOnRefine</text>
<text text-anchor="middle" x="655" y="-345.12" font-family="Helvetica,sans-Serif" font-size="10.00">Mesh&lt; VOLUME_ELEMENT &gt;</text>
</a>
</g>
</g>
<!-- Node5&#45;&gt;Node21 -->
<g id="edge22" class="edge">
<title>Node5&#45;&gt;Node21</title>
<path fill="none" stroke="#9a32cd" stroke-dasharray="5,2" d="M104.96,-415.74C180.85,-415.55 390.22,-411.88 560.75,-379.62 573.93,-377.13 587.97,-373.76 601.06,-370.29"/>
<polygon fill="#9a32cd" stroke="#9a32cd" points="105.07,-412.24 95.07,-415.74 105.07,-419.24 105.07,-412.24"/>
<text text-anchor="middle" x="352.88" y="-411.38" font-family="Helvetica,sans-Serif" font-size="10.00"> coreMesh</text>
</g>
<!-- Node5&#45;&gt;Node23 -->
<g id="edge28" class="edge">
<title>Node5&#45;&gt;Node23</title>
<path fill="none" stroke="#9a32cd" stroke-dasharray="5,2" d="M104.37,-406.46C122.33,-401.04 146.06,-394.45 167.5,-390.38 205.61,-383.14 248.69,-378.34 283.63,-375.29"/>
<polygon fill="#9a32cd" stroke="#9a32cd" points="103.45,-403.08 94.93,-409.38 105.52,-409.77 103.45,-403.08"/>
<text text-anchor="middle" x="214" y="-391.38" font-family="Helvetica,sans-Serif" font-size="10.00"> coreMesh</text>
</g>
<!-- Node6 -->
<g id="node6" class="node">
<title>Node6</title>
<g id="a_node6"><a xlink:title=" ">
<polygon fill="white" stroke="#666666" points="106.75,-238.25 42.75,-238.25 42.75,-219 106.75,-219 106.75,-238.25"/>
<text text-anchor="middle" x="74.75" y="-224.75" font-family="Helvetica,sans-Serif" font-size="10.00">Interface &amp;</text>
</a>
</g>
</g>
<!-- Node6&#45;&gt;Node3 -->
<g id="edge5" class="edge">
<title>Node6&#45;&gt;Node3</title>
<path fill="none" stroke="#9a32cd" stroke-dasharray="5,2" d="M118.24,-237.58C166.92,-248.73 242.33,-269.06 260.5,-291.38 301.57,-341.82 243.83,-381.59 278.5,-436.62 286.97,-450.06 300.83,-460.39 314.24,-467.89"/>
<polygon fill="#9a32cd" stroke="#9a32cd" points="119.09,-234.18 108.57,-235.41 117.56,-241.01 119.09,-234.18"/>
<text text-anchor="middle" x="214" y="-293.38" font-family="Helvetica,sans-Serif" font-size="10.00"> postProcMesh</text>
</g>
<!-- Node6&#45;&gt;Node21 -->
<g id="edge23" class="edge">
<title>Node6&#45;&gt;Node21</title>
<path fill="none" stroke="#9a32cd" stroke-dasharray="5,2" d="M118.27,-219.99C155.8,-213.59 211.95,-207.04 260.5,-213.62 397.69,-232.24 433.94,-241.05 560.75,-296.62 586.94,-308.1 614.46,-326.04 632.75,-338.93"/>
<polygon fill="#9a32cd" stroke="#9a32cd" points="117.96,-216.48 108.73,-221.68 119.19,-223.38 117.96,-216.48"/>
<text text-anchor="middle" x="352.88" y="-246.38" font-family="Helvetica,sans-Serif" font-size="10.00"> postProcMesh</text>
</g>
<!-- Node6&#45;&gt;Node23 -->
<g id="edge29" class="edge">
<title>Node6&#45;&gt;Node23</title>
<path fill="none" stroke="#9a32cd" stroke-dasharray="5,2" d="M118.49,-222.66C166.38,-217 240.02,-211.72 260.5,-229.38 300.44,-263.79 244.39,-306.42 278.5,-346.62 281.19,-349.79 284.3,-352.55 287.7,-354.94"/>
<polygon fill="#9a32cd" stroke="#9a32cd" points="118.21,-219.16 108.71,-223.86 119.07,-226.11 118.21,-219.16"/>
<text text-anchor="middle" x="214" y="-231.38" font-family="Helvetica,sans-Serif" font-size="10.00"> postProcMesh</text>
</g>
<!-- Node7 -->
<g id="node7" class="node">
<title>Node7</title>
<g id="a_node7"><a xlink:title=" ">
<polygon fill="white" stroke="#666666" points="149.5,-331.25 0,-331.25 0,-312 149.5,-312 149.5,-331.25"/>
<text text-anchor="middle" x="74.75" y="-317.75" font-family="Helvetica,sans-Serif" font-size="10.00">shared_ptr&lt; WrapMPIComm &gt;</text>
</a>
</g>
</g>
<!-- Node7&#45;&gt;Node3 -->
<g id="edge6" class="edge">
<title>Node7&#45;&gt;Node3</title>
<path fill="none" stroke="#9a32cd" stroke-dasharray="5,2" d="M147.19,-333.66C195.55,-342.43 252.12,-354.17 260.5,-362.38 284.76,-386.14 258.79,-408.98 278.5,-436.62 287.99,-449.93 302.53,-460.37 316.17,-468"/>
<polygon fill="#9a32cd" stroke="#9a32cd" points="148.01,-330.25 137.55,-331.93 146.78,-337.14 148.01,-330.25"/>
<text text-anchor="middle" x="214" y="-363.38" font-family="Helvetica,sans-Serif" font-size="10.00"> wrapRefMeshComm</text>
</g>
<!-- Node7&#45;&gt;Node21 -->
<g id="edge24" class="edge">
<title>Node7&#45;&gt;Node21</title>
<path fill="none" stroke="#9a32cd" stroke-dasharray="5,2" d="M128.45,-309.24C141.17,-306.66 154.77,-304.23 167.5,-302.62 282.06,-288.15 312.66,-283.13 427.25,-297.38 490.31,-305.21 561.01,-324.86 606.44,-338.95"/>
<polygon fill="#9a32cd" stroke="#9a32cd" points="128.09,-305.74 119.02,-311.22 129.53,-312.59 128.09,-305.74"/>
<text text-anchor="middle" x="352.88" y="-299.38" font-family="Helvetica,sans-Serif" font-size="10.00"> wrapRefMeshComm</text>
</g>
<!-- Node7&#45;&gt;Node23 -->
<g id="edge30" class="edge">
<title>Node7&#45;&gt;Node23</title>
<path fill="none" stroke="#9a32cd" stroke-dasharray="5,2" d="M128.86,-309.71C167.47,-303.84 219.86,-301.82 260.5,-322.38 272.48,-328.43 267.61,-338.78 278.5,-346.62 282.85,-349.76 287.63,-352.5 292.61,-354.89"/>
<polygon fill="#9a32cd" stroke="#9a32cd" points="128.64,-306.2 119.35,-311.29 129.79,-313.1 128.64,-306.2"/>
<text text-anchor="middle" x="214" y="-324.38" font-family="Helvetica,sans-Serif" font-size="10.00"> wrapRefMeshComm</text>
</g>
<!-- Node8 -->
<g id="node8" class="node">
<title>Node8</title>
<g id="a_node8"><a xlink:title=" ">
<polygon fill="white" stroke="#666666" points="133.38,-576.25 16.12,-576.25 16.12,-557 133.38,-557 133.38,-576.25"/>
<text text-anchor="middle" x="74.75" y="-562.75" font-family="Helvetica,sans-Serif" font-size="10.00">vector&lt; EntityHandle &gt;</text>
</a>
</g>
</g>
<!-- Node8&#45;&gt;Node3 -->
<g id="edge7" class="edge">
<title>Node8&#45;&gt;Node3</title>
<path fill="none" stroke="#9a32cd" stroke-dasharray="5,2" d="M144.78,-566.03C180.29,-563.85 223.72,-558.2 260.5,-544.62 288.59,-534.26 316.6,-513.66 334.05,-499.29"/>
<polygon fill="#9a32cd" stroke="#9a32cd" points="144.86,-562.52 135.06,-566.55 145.23,-569.51 144.86,-562.52"/>
<text text-anchor="middle" x="214" y="-565.38" font-family="Helvetica,sans-Serif" font-size="10.00"> mapGaussPts</text>
</g>
<!-- Node8&#45;&gt;Node21 -->
<g id="edge25" class="edge">
<title>Node8&#45;&gt;Node21</title>
<path fill="none" stroke="#9a32cd" stroke-dasharray="5,2" d="M135.03,-578.39C171.54,-583.68 219.12,-587.07 260.5,-578.62 412.28,-547.66 443.68,-503.06 560.75,-401.62 569.07,-394.42 569.47,-390.55 578.75,-384.62 587.4,-379.1 597.24,-374.29 606.88,-370.23"/>
<polygon fill="#9a32cd" stroke="#9a32cd" points="135.99,-574.99 125.57,-576.92 134.92,-581.91 135.99,-574.99"/>
<text text-anchor="middle" x="352.88" y="-575.38" font-family="Helvetica,sans-Serif" font-size="10.00"> mapGaussPts</text>
</g>
<!-- Node8&#45;&gt;Node23 -->
<g id="edge31" class="edge">
<title>Node8&#45;&gt;Node23</title>
<path fill="none" stroke="#9a32cd" stroke-dasharray="5,2" d="M112.87,-552.46C163.9,-532.68 250.6,-497.82 260.5,-485.62 285.11,-455.31 253.33,-429.48 278.5,-399.62 283,-394.28 288.62,-389.92 294.74,-386.36"/>
<polygon fill="#9a32cd" stroke="#9a32cd" points="111.73,-549.15 103.66,-556.02 114.25,-555.68 111.73,-549.15"/>
<text text-anchor="middle" x="214" y="-531.38" font-family="Helvetica,sans-Serif" font-size="10.00"> mapGaussPts</text>
</g>
<!-- Node9 -->
<g id="node9" class="node">
<title>Node9</title>
<g id="a_node9"><a xlink:href="classbool.html" target="_top" xlink:title=" ">
<polygon fill="white" stroke="#666666" points="672,-413.25 638,-413.25 638,-394 672,-394 672,-413.25"/>
<text text-anchor="middle" x="655" y="-399.75" font-family="Helvetica,sans-Serif" font-size="10.00">bool</text>
</a>
</g>
</g>
<!-- Node9&#45;&gt;Node2 -->
<g id="edge8" class="edge">
<title>Node9&#45;&gt;Node2</title>
<path fill="none" stroke="#9a32cd" stroke-dasharray="5,2" d="M683.72,-404.35C770.76,-406.18 1046.22,-408.68 1270.75,-374.62 1280.73,-373.11 1291.13,-371.16 1301.4,-369"/>
<polygon fill="#9a32cd" stroke="#9a32cd" points="683.86,-400.85 673.78,-404.12 683.7,-407.85 683.86,-400.85"/>
<text text-anchor="middle" x="1008.12" y="-404.38" font-family="Helvetica,sans-Serif" font-size="10.00"> tenNodesPostProcTets</text>
</g>
<!-- Node20 -->
<g id="node20" class="node">
<title>Node20</title>
<g id="a_node20"><a xlink:href="struct_post_proc_template_volume_on_refined_mesh.html" target="_top" xlink:title=" ">
<polygon fill="white" stroke="#666666" points="1101.25,-362.88 915,-362.88 915,-332.38 1101.25,-332.38 1101.25,-362.88"/>
<text text-anchor="start" x="923" y="-349.38" font-family="Helvetica,sans-Serif" font-size="10.00">PostProcTemplateVolumeOn</text>
<text text-anchor="middle" x="1008.12" y="-338.12" font-family="Helvetica,sans-Serif" font-size="10.00">RefinedMesh&lt; VOLUME_ELEMENT &gt;</text>
</a>
</g>
</g>
<!-- Node9&#45;&gt;Node20 -->
<g id="edge32" class="edge">
<title>Node9&#45;&gt;Node20</title>
<path fill="none" stroke="#9a32cd" stroke-dasharray="5,2" d="M683.34,-399.11C701.92,-396.06 727.06,-391.94 749.25,-388.38 804.07,-379.56 865.47,-369.85 914.61,-362.12"/>
<polygon fill="#9a32cd" stroke="#9a32cd" points="682.96,-395.63 673.66,-400.71 684.1,-402.54 682.96,-395.63"/>
<text text-anchor="middle" x="823.12" y="-389.38" font-family="Helvetica,sans-Serif" font-size="10.00"> tenNodesPostProcTets</text>
</g>
<!-- Node10 -->
<g id="node10" class="node">
<title>Node10</title>
<g id="a_node10"><a xlink:title=" ">
<polygon fill="white" stroke="#666666" points="669.4,-276.25 640.6,-276.25 640.6,-257 669.4,-257 669.4,-276.25"/>
<text text-anchor="middle" x="655" y="-262.75" font-family="Helvetica,sans-Serif" font-size="10.00">int</text>
</a>
</g>
</g>
<!-- Node10&#45;&gt;Node2 -->
<g id="edge9" class="edge">
<title>Node10&#45;&gt;Node2</title>
<path fill="none" stroke="#9a32cd" stroke-dasharray="5,2" d="M680.98,-265.94C699.76,-265.47 726.12,-264.87 749.25,-264.62 814.91,-263.92 831.33,-264.18 897,-264.62 987.78,-265.24 1011.42,-254.25 1101.25,-267.38 1180.74,-278.99 1269.4,-306.69 1325.85,-326.28"/>
<polygon fill="#9a32cd" stroke="#9a32cd" points="681.01,-262.44 671.1,-266.2 681.19,-269.44 681.01,-262.44"/>
<text text-anchor="middle" x="1008.12" y="-314.38" font-family="Helvetica,sans-Serif" font-size="10.00"> countHex</text>
<text text-anchor="middle" x="1008.12" y="-303.12" font-family="Helvetica,sans-Serif" font-size="10.00">countTet</text>
<text text-anchor="middle" x="1008.12" y="-291.88" font-family="Helvetica,sans-Serif" font-size="10.00">countVertHex</text>
<text text-anchor="middle" x="1008.12" y="-280.62" font-family="Helvetica,sans-Serif" font-size="10.00">countVertTet</text>
<text text-anchor="middle" x="1008.12" y="-269.38" font-family="Helvetica,sans-Serif" font-size="10.00">nbOfRefLevels</text>
</g>
<!-- Node10&#45;&gt;Node20 -->
<g id="edge33" class="edge">
<title>Node10&#45;&gt;Node20</title>
<path fill="none" stroke="#9a32cd" stroke-dasharray="5,2" d="M681.01,-266.63C734.87,-267.01 859.93,-270.03 897,-289.38 907.97,-295.1 904.96,-303.38 915,-310.62 927.16,-319.4 941.7,-326.48 955.59,-332.01"/>
<polygon fill="#9a32cd" stroke="#9a32cd" points="681.32,-263.13 671.31,-266.59 681.29,-270.13 681.32,-263.13"/>
<text text-anchor="middle" x="823.12" y="-336.38" font-family="Helvetica,sans-Serif" font-size="10.00"> countHex</text>
<text text-anchor="middle" x="823.12" y="-325.12" font-family="Helvetica,sans-Serif" font-size="10.00">countTet</text>
<text text-anchor="middle" x="823.12" y="-313.88" font-family="Helvetica,sans-Serif" font-size="10.00">countVertHex</text>
<text text-anchor="middle" x="823.12" y="-302.62" font-family="Helvetica,sans-Serif" font-size="10.00">countVertTet</text>
<text text-anchor="middle" x="823.12" y="-291.38" font-family="Helvetica,sans-Serif" font-size="10.00">nbOfRefLevels</text>
</g>
<!-- Node11 -->
<g id="node11" class="node">
<title>Node11</title>
<g id="a_node11"><a xlink:href="struct_post_proc_common_on_ref_mesh_1_1_common_data_for_volume.html" target="_top" xlink:title=" ">
<polygon fill="white" stroke="#666666" points="729.38,-645.88 580.62,-645.88 580.62,-615.38 729.38,-615.38 729.38,-645.88"/>
<text text-anchor="start" x="588.62" y="-632.38" font-family="Helvetica,sans-Serif" font-size="10.00">PostProcCommonOnRefMesh</text>
<text text-anchor="middle" x="655" y="-621.12" font-family="Helvetica,sans-Serif" font-size="10.00">::CommonDataForVolume</text>
</a>
</g>
</g>
<!-- Node11&#45;&gt;Node2 -->
<g id="edge10" class="edge">
<title>Node11&#45;&gt;Node2</title>
<path fill="none" stroke="#9a32cd" stroke-dasharray="5,2" d="M739.22,-648.34C866.1,-670.4 1110.11,-692.85 1270.75,-581.62 1344.95,-530.25 1372.26,-416.33 1380.65,-368.94"/>
<polygon fill="#9a32cd" stroke="#9a32cd" points="740,-644.92 729.54,-646.61 738.77,-651.81 740,-644.92"/>
<text text-anchor="middle" x="1008.12" y="-667.38" font-family="Helvetica,sans-Serif" font-size="10.00"> commonData</text>
</g>
<!-- Node11&#45;&gt;Node20 -->
<g id="edge34" class="edge">
<title>Node11&#45;&gt;Node20</title>
<path fill="none" stroke="#9a32cd" stroke-dasharray="5,2" d="M723.34,-611.23C778.93,-591.6 855.22,-555.58 897,-496.62 924.38,-458 886.44,-429.39 915,-391.62 924.52,-379.04 938.55,-369.89 952.81,-363.31"/>
<polygon fill="#9a32cd" stroke="#9a32cd" points="722.28,-607.9 713.95,-614.45 724.55,-614.52 722.28,-607.9"/>
<text text-anchor="middle" x="823.12" y="-602.38" font-family="Helvetica,sans-Serif" font-size="10.00"> commonData</text>
</g>
<!-- Node12 -->
<g id="node12" class="node">
<title>Node12</title>
<g id="a_node12"><a xlink:href="struct_post_proc_common_on_ref_mesh_1_1_common_data.html" target="_top" xlink:title=" ">
<polygon fill="white" stroke="#666666" points="427.25,-689.88 278.5,-689.88 278.5,-659.38 427.25,-659.38 427.25,-689.88"/>
<text text-anchor="start" x="286.5" y="-676.38" font-family="Helvetica,sans-Serif" font-size="10.00">PostProcCommonOnRefMesh</text>
<text text-anchor="middle" x="352.88" y="-665.12" font-family="Helvetica,sans-Serif" font-size="10.00">::CommonData</text>
</a>
</g>
</g>
<!-- Node12&#45;&gt;Node11 -->
<g id="edge11" class="edge">
<title>Node12&#45;&gt;Node11</title>
<path fill="none" stroke="#63b8ff" d="M439.01,-663.08C476.39,-657.92 520.77,-651.64 560.75,-645.62 567.07,-644.67 573.63,-643.66 580.21,-642.64"/>
<polygon fill="#63b8ff" stroke="#63b8ff" points="438.58,-659.61 429.15,-664.44 439.54,-666.55 438.58,-659.61"/>
</g>
<!-- Node13 -->
<g id="node13" class="node">
<title>Node13</title>
<g id="a_node13"><a xlink:title=" ">
<polygon fill="white" stroke="#666666" points="142.38,-713.88 7.12,-713.88 7.12,-683.38 142.38,-683.38 142.38,-713.88"/>
<text text-anchor="start" x="15.12" y="-700.38" font-family="Helvetica,sans-Serif" font-size="10.00">map&lt; std::string, std</text>
<text text-anchor="middle" x="74.75" y="-689.12" font-family="Helvetica,sans-Serif" font-size="10.00">::vector&lt; VectorDouble &gt; &gt;</text>
</a>
</g>
</g>
<!-- Node13&#45;&gt;Node12 -->
<g id="edge12" class="edge">
<title>Node13&#45;&gt;Node12</title>
<path fill="none" stroke="#9a32cd" stroke-dasharray="5,2" d="M153.91,-691.83C192.97,-688.44 239.97,-684.35 278.37,-681.01"/>
<polygon fill="#9a32cd" stroke="#9a32cd" points="153.76,-688.33 144.1,-692.68 154.37,-695.31 153.76,-688.33"/>
<text text-anchor="middle" x="214" y="-691.38" font-family="Helvetica,sans-Serif" font-size="10.00"> fieldMap</text>
</g>
<!-- Node14 -->
<g id="node14" class="node">
<title>Node14</title>
<g id="a_node14"><a xlink:title=" ">
<polygon fill="white" stroke="#666666" points="141.62,-664.88 7.88,-664.88 7.88,-634.38 141.62,-634.38 141.62,-664.88"/>
<text text-anchor="start" x="15.88" y="-651.38" font-family="Helvetica,sans-Serif" font-size="10.00">map&lt; std::string, std</text>
<text text-anchor="middle" x="74.75" y="-640.12" font-family="Helvetica,sans-Serif" font-size="10.00">::vector&lt; MatrixDouble &gt; &gt;</text>
</a>
</g>
</g>
<!-- Node14&#45;&gt;Node12 -->
<g id="edge13" class="edge">
<title>Node14&#45;&gt;Node12</title>
<path fill="none" stroke="#9a32cd" stroke-dasharray="5,2" d="M153.21,-656.64C192.29,-660.18 239.45,-664.45 278.01,-667.94"/>
<polygon fill="#9a32cd" stroke="#9a32cd" points="153.67,-653.17 143.4,-655.75 153.04,-660.14 153.67,-653.17"/>
<text text-anchor="middle" x="214" y="-667.38" font-family="Helvetica,sans-Serif" font-size="10.00"> gradMap</text>
</g>
<!-- Node15 -->
<g id="node15" class="node">
<title>Node15</title>
<g id="a_node15"><a xlink:href="class_range.html" target="_top" xlink:title=" ">
<polygon fill="white" stroke="#666666" points="375.12,-641.25 330.62,-641.25 330.62,-622 375.12,-622 375.12,-641.25"/>
<text text-anchor="middle" x="352.88" y="-627.75" font-family="Helvetica,sans-Serif" font-size="10.00">Range</text>
</a>
</g>
</g>
<!-- Node15&#45;&gt;Node11 -->
<g id="edge14" class="edge">
<title>Node15&#45;&gt;Node11</title>
<path fill="none" stroke="#9a32cd" stroke-dasharray="5,2" d="M386.87,-631.52C433.09,-631.36 518.39,-631.08 580.18,-630.87"/>
<polygon fill="#9a32cd" stroke="#9a32cd" points="386.96,-628.01 376.97,-631.55 386.98,-635.01 386.96,-628.01"/>
<text text-anchor="middle" x="503" y="-632.38" font-family="Helvetica,sans-Serif" font-size="10.00"> tEts</text>
</g>
<!-- Node16 -->
<g id="node16" class="node">
<title>Node16</title>
<g id="a_node16"><a xlink:title=" ">
<polygon fill="white" stroke="#666666" points="714.38,-486.25 595.62,-486.25 595.62,-467 714.38,-467 714.38,-486.25"/>
<text text-anchor="middle" x="655" y="-472.75" font-family="Helvetica,sans-Serif" font-size="10.00">vector&lt; MatrixDouble &gt;</text>
</a>
</g>
</g>
<!-- Node16&#45;&gt;Node2 -->
<g id="edge15" class="edge">
<title>Node16&#45;&gt;Node2</title>
<path fill="none" stroke="#9a32cd" stroke-dasharray="5,2" d="M716.35,-488.52C727.26,-490.23 738.56,-491.71 749.25,-492.62 814.68,-498.2 831.85,-500.86 897,-492.62 1067.15,-471.12 1108.51,-452.21 1270.75,-396.62 1293.73,-388.75 1318.57,-378.23 1339.1,-368.95"/>
<polygon fill="#9a32cd" stroke="#9a32cd" points="717.09,-485.09 706.65,-486.91 715.95,-492 717.09,-485.09"/>
<text text-anchor="middle" x="1008.12" y="-525.12" font-family="Helvetica,sans-Serif" font-size="10.00"> levelGaussPtsOnRefMeshHexes</text>
<text text-anchor="middle" x="1008.12" y="-513.88" font-family="Helvetica,sans-Serif" font-size="10.00">levelGaussPtsOnRefMeshTets</text>
<text text-anchor="middle" x="1008.12" y="-502.62" font-family="Helvetica,sans-Serif" font-size="10.00">levelShapeFunctionsHexes</text>
<text text-anchor="middle" x="1008.12" y="-491.38" font-family="Helvetica,sans-Serif" font-size="10.00">levelShapeFunctionsTets</text>
</g>
<!-- Node16&#45;&gt;Node20 -->
<g id="edge35" class="edge">
<title>Node16&#45;&gt;Node20</title>
<path fill="none" stroke="#9a32cd" stroke-dasharray="5,2" d="M698.9,-463.23C714.72,-458.3 732.79,-452.69 749.25,-447.62 814.86,-427.43 834.38,-430.75 897,-402.62 905.55,-398.78 906.76,-396.1 915,-391.62 933.54,-381.57 954.75,-371.35 972.14,-363.3"/>
<polygon fill="#9a32cd" stroke="#9a32cd" points="698.3,-459.75 689.8,-466.06 700.39,-466.43 698.3,-459.75"/>
<text text-anchor="middle" x="823.12" y="-483.12" font-family="Helvetica,sans-Serif" font-size="10.00"> levelGaussPtsOnRefMeshHexes</text>
<text text-anchor="middle" x="823.12" y="-471.88" font-family="Helvetica,sans-Serif" font-size="10.00">levelGaussPtsOnRefMeshTets</text>
<text text-anchor="middle" x="823.12" y="-460.62" font-family="Helvetica,sans-Serif" font-size="10.00">levelShapeFunctionsHexes</text>
<text text-anchor="middle" x="823.12" y="-449.38" font-family="Helvetica,sans-Serif" font-size="10.00">levelShapeFunctionsTets</text>
</g>
<!-- Node17 -->
<g id="node17" class="node">
<title>Node17</title>
<g id="a_node17"><a xlink:title=" ">
<polygon fill="white" stroke="#666666" points="709.12,-140.88 600.88,-140.88 600.88,-110.38 709.12,-110.38 709.12,-140.88"/>
<text text-anchor="start" x="608.88" y="-127.38" font-family="Helvetica,sans-Serif" font-size="10.00">vector&lt; ublas::matrix</text>
<text text-anchor="middle" x="655" y="-116.12" font-family="Helvetica,sans-Serif" font-size="10.00">&lt; int &gt; &gt;</text>
</a>
</g>
</g>
<!-- Node17&#45;&gt;Node2 -->
<g id="edge16" class="edge">
<title>Node17&#45;&gt;Node2</title>
<path fill="none" stroke="#9a32cd" stroke-dasharray="5,2" d="M720.95,-119.06C840.05,-110.34 1097.08,-107.25 1270.75,-218.62 1315.13,-247.09 1352.22,-297.86 1370.88,-326.48"/>
<polygon fill="#9a32cd" stroke="#9a32cd" points="720.73,-115.57 711.03,-119.83 721.27,-122.55 720.73,-115.57"/>
<text text-anchor="middle" x="1008.12" y="-160.62" font-family="Helvetica,sans-Serif" font-size="10.00"> levelRefHexes</text>
<text text-anchor="middle" x="1008.12" y="-149.38" font-family="Helvetica,sans-Serif" font-size="10.00">levelRefTets</text>
</g>
<!-- Node17&#45;&gt;Node20 -->
<g id="edge36" class="edge">
<title>Node17&#45;&gt;Node20</title>
<path fill="none" stroke="#9a32cd" stroke-dasharray="5,2" d="M720.92,-128.01C783.9,-131.78 873.34,-141.43 897,-166.12 941.78,-212.85 875.5,-259.36 915,-310.62 922.15,-319.91 932.01,-326.87 942.62,-332.09"/>
<polygon fill="#9a32cd" stroke="#9a32cd" points="721.18,-124.52 711,-127.46 720.79,-131.51 721.18,-124.52"/>
<text text-anchor="middle" x="823.12" y="-179.62" font-family="Helvetica,sans-Serif" font-size="10.00"> levelRefHexes</text>
<text text-anchor="middle" x="823.12" y="-168.38" font-family="Helvetica,sans-Serif" font-size="10.00">levelRefTets</text>
</g>
<!-- Node18 -->
<g id="node18" class="node">
<title>Node18</title>
<g id="a_node18"><a xlink:href="class_entity_handle.html" target="_top" xlink:title=" ">
<polygon fill="white" stroke="#666666" points="691.12,-19.25 618.88,-19.25 618.88,0 691.12,0 691.12,-19.25"/>
<text text-anchor="middle" x="655" y="-5.75" font-family="Helvetica,sans-Serif" font-size="10.00">EntityHandle</text>
</a>
</g>
</g>
<!-- Node18&#45;&gt;Node2 -->
<g id="edge17" class="edge">
<title>Node18&#45;&gt;Node2</title>
<path fill="none" stroke="#9a32cd" stroke-dasharray="5,2" d="M702.77,-5.54C785.88,0 963.51,3.99 1101.25,-47.12 1184,-77.84 1209.18,-87.38 1270.75,-150.62 1323.29,-204.6 1360.4,-287.7 1375.86,-326.41"/>
<polygon fill="#9a32cd" stroke="#9a32cd" points="702.68,-2.03 692.96,-6.23 703.18,-9.02 702.68,-2.03"/>
<text text-anchor="middle" x="1008.12" y="-105.62" font-family="Helvetica,sans-Serif" font-size="10.00"> hexConn</text>
<text text-anchor="middle" x="1008.12" y="-94.38" font-family="Helvetica,sans-Serif" font-size="10.00">startingEleHexHandle</text>
<text text-anchor="middle" x="1008.12" y="-83.12" font-family="Helvetica,sans-Serif" font-size="10.00">startingEleTetHandle</text>
<text text-anchor="middle" x="1008.12" y="-71.88" font-family="Helvetica,sans-Serif" font-size="10.00">startingVertHexHandle</text>
<text text-anchor="middle" x="1008.12" y="-60.62" font-family="Helvetica,sans-Serif" font-size="10.00">startingVertTetHandle</text>
<text text-anchor="middle" x="1008.12" y="-49.38" font-family="Helvetica,sans-Serif" font-size="10.00">tetConn</text>
</g>
<!-- Node18&#45;&gt;Node20 -->
<g id="edge37" class="edge">
<title>Node18&#45;&gt;Node20</title>
<path fill="none" stroke="#9a32cd" stroke-dasharray="5,2" d="M702.58,-12.66C765.3,-17.79 871.95,-30.55 897,-59.12 933.94,-101.26 881.98,-265.36 915,-310.62 921.7,-319.82 931.07,-326.73 941.29,-331.92"/>
<polygon fill="#9a32cd" stroke="#9a32cd" points="703.16,-9.19 692.92,-11.9 702.62,-16.17 703.16,-9.19"/>
<text text-anchor="middle" x="823.12" y="-117.62" font-family="Helvetica,sans-Serif" font-size="10.00"> hexConn</text>
<text text-anchor="middle" x="823.12" y="-106.38" font-family="Helvetica,sans-Serif" font-size="10.00">startingEleHexHandle</text>
<text text-anchor="middle" x="823.12" y="-95.12" font-family="Helvetica,sans-Serif" font-size="10.00">startingEleTetHandle</text>
<text text-anchor="middle" x="823.12" y="-83.88" font-family="Helvetica,sans-Serif" font-size="10.00">startingVertHexHandle</text>
<text text-anchor="middle" x="823.12" y="-72.62" font-family="Helvetica,sans-Serif" font-size="10.00">startingVertTetHandle</text>
<text text-anchor="middle" x="823.12" y="-61.38" font-family="Helvetica,sans-Serif" font-size="10.00">tetConn</text>
</g>
<!-- Node19 -->
<g id="node19" class="node">
<title>Node19</title>
<g id="a_node19"><a xlink:title=" ">
<polygon fill="white" stroke="#666666" points="703.12,-206.25 606.88,-206.25 606.88,-187 703.12,-187 703.12,-206.25"/>
<text text-anchor="middle" x="655" y="-192.75" font-family="Helvetica,sans-Serif" font-size="10.00">vector&lt; double * &gt;</text>
</a>
</g>
</g>
<!-- Node19&#45;&gt;Node2 -->
<g id="edge18" class="edge">
<title>Node19&#45;&gt;Node2</title>
<path fill="none" stroke="#9a32cd" stroke-dasharray="5,2" d="M714.88,-192.54C827.76,-187.01 1080.29,-185.86 1270.75,-267.62 1304.79,-282.24 1338.81,-308.22 1360.52,-326.6"/>
<polygon fill="#9a32cd" stroke="#9a32cd" points="714.75,-189.04 704.95,-193.06 715.12,-196.03 714.75,-189.04"/>
<text text-anchor="middle" x="1008.12" y="-230.62" font-family="Helvetica,sans-Serif" font-size="10.00"> verticesOnHexArrays</text>
<text text-anchor="middle" x="1008.12" y="-219.38" font-family="Helvetica,sans-Serif" font-size="10.00">verticesOnTetArrays</text>
</g>
<!-- Node19&#45;&gt;Node20 -->
<g id="edge38" class="edge">
<title>Node19&#45;&gt;Node20</title>
<path fill="none" stroke="#9a32cd" stroke-dasharray="5,2" d="M714.47,-191.32C768.69,-189.77 848.15,-196.59 897,-242.12 920.03,-263.59 894.17,-287.02 915,-310.62 923.1,-319.8 933.79,-326.73 945.01,-331.96"/>
<polygon fill="#9a32cd" stroke="#9a32cd" points="714.67,-187.81 704.82,-191.71 714.95,-194.81 714.67,-187.81"/>
<text text-anchor="middle" x="823.12" y="-255.62" font-family="Helvetica,sans-Serif" font-size="10.00"> verticesOnHexArrays</text>
<text text-anchor="middle" x="823.12" y="-244.38" font-family="Helvetica,sans-Serif" font-size="10.00">verticesOnTetArrays</text>
</g>
<!-- Node20&#45;&gt;Node2 -->
<g id="edge19" class="edge">
<title>Node20&#45;&gt;Node2</title>
<path fill="none" stroke="orange" stroke-dasharray="5,2" d="M1112.47,-347.62C1167.49,-347.62 1234.71,-347.62 1288.48,-347.62"/>
<polygon fill="orange" stroke="orange" points="1112.79,-344.13 1102.79,-347.63 1112.79,-351.13 1112.79,-344.13"/>
<text text-anchor="start" x="1119.25" y="-360.62" font-family="Helvetica,sans-Serif" font-size="10.00"> &lt; MoFEM::VolumeElementForces</text>
<text text-anchor="middle" x="1195" y="-349.38" font-family="Helvetica,sans-Serif" font-size="10.00">AndSourcesCore &gt;</text>
</g>
<!-- Node21&#45;&gt;Node20 -->
<g id="edge20" class="edge">
<title>Node21&#45;&gt;Node20</title>
<path fill="none" stroke="#63b8ff" d="M742.59,-352.9C794.87,-351.86 861.46,-350.53 914.74,-349.47"/>
<polygon fill="#63b8ff" stroke="#63b8ff" points="742.77,-349.39 732.84,-353.09 742.91,-356.39 742.77,-349.39"/>
</g>
<!-- Node22 -->
<g id="node22" class="node">
<title>Node22</title>
<g id="a_node22"><a xlink:title=" ">
<polygon fill="white" stroke="#666666" points="408.12,-337.25 297.62,-337.25 297.62,-318 408.12,-318 408.12,-337.25"/>
<text text-anchor="middle" x="352.88" y="-323.75" font-family="Helvetica,sans-Serif" font-size="10.00">VOLUME_ELEMENT</text>
</a>
</g>
</g>
<!-- Node22&#45;&gt;Node21 -->
<g id="edge21" class="edge">
<title>Node22&#45;&gt;Node21</title>
<path fill="none" stroke="#63b8ff" d="M419.81,-333.56C466.65,-337.77 529.64,-343.44 578.5,-347.83"/>
<polygon fill="#63b8ff" stroke="#63b8ff" points="420.35,-330.09 410.08,-332.68 419.73,-337.06 420.35,-330.09"/>
</g>
<!-- Node23&#45;&gt;Node21 -->
<g id="edge26" class="edge">
<title>Node23&#45;&gt;Node21</title>
<path fill="none" stroke="orange" stroke-dasharray="5,2" d="M433.43,-366.38C478.29,-363.99 534.03,-361.02 578.26,-358.66"/>
<polygon fill="orange" stroke="orange" points="433.29,-362.89 423.49,-366.91 433.66,-369.88 433.29,-362.89"/>
<text text-anchor="middle" x="503" y="-366.38" font-family="Helvetica,sans-Serif" font-size="10.00"> &lt; VOLUME_ELEMENT &gt;</text>
</g>
</g>
</svg>
        <g id="navigator" transform="translate(0 0)" fill="#404254">
                <rect fill="#f2f5e9" fill-opacity="0.5" stroke="#606060" stroke-width=".5" x="0" y="0" width="60" height="60"/>
                <use id="zoomplus" xlink:href="#zoomPlus" x="17" y="9" onmousedown="handleZoom(evt,'in')"/>
                <use id="zoomminus" xlink:href="#zoomMin" x="42" y="9" onmousedown="handleZoom(evt,'out')"/>
                <use id="reset" xlink:href="#resetDef" x="30" y="36" onmousedown="handleReset()"/>
                <g id="arrowUp" xlink:href="#dirArrow" transform="translate(30 24)" onmousedown="handlePan(0,-1)">
                  <use xlink:href="#rim" fill="#404040">
                        <set attributeName="fill" to="#808080" begin="arrowUp.mouseover" end="arrowUp.mouseout"/>
                  </use>
                  <path fill="none" stroke="white" stroke-width="1.5" d="M0,-3.0v7 M-2.5,-0.5L0,-3.0L2.5,-0.5"/>
                </g>
                <g id="arrowRight" xlink:href="#dirArrow" transform="rotate(90) translate(36 -43)" onmousedown="handlePan(1,0)">
                  <use xlink:href="#rim" fill="#404040">
                        <set attributeName="fill" to="#808080" begin="arrowRight.mouseover" end="arrowRight.mouseout"/>
                  </use>
                  <path fill="none" stroke="white" stroke-width="1.5" d="M0,-3.0v7 M-2.5,-0.5L0,-3.0L2.5,-0.5"/>
                </g>
                <g id="arrowDown" xlink:href="#dirArrow" transform="rotate(180) translate(-30 -48)" onmousedown="handlePan(0,1)">
                  <use xlink:href="#rim" fill="#404040">
                        <set attributeName="fill" to="#808080" begin="arrowDown.mouseover" end="arrowDown.mouseout"/>
                  </use>
                  <path fill="none" stroke="white" stroke-width="1.5" d="M0,-3.0v7 M-2.5,-0.5L0,-3.0L2.5,-0.5"/>
                </g>
                <g id="arrowLeft" xlink:href="#dirArrow" transform="rotate(270) translate(-36 17)" onmousedown="handlePan(-1,0)">
                  <use xlink:href="#rim" fill="#404040">
                        <set attributeName="fill" to="#808080" begin="arrowLeft.mouseover" end="arrowLeft.mouseout"/>
                  </use>
                  <path fill="none" stroke="white" stroke-width="1.5" d="M0,-3.0v7 M-2.5,-0.5L0,-3.0L2.5,-0.5"/>
                </g>
        </g>
        <svg viewBox="0 0 15 15" width="100%" height="30px" preserveAspectRatio="xMaxYMin meet">
         <g id="arrow_out" transform="scale(0.3 0.3)">
          <a xlink:href="struct_post_proc_volume_on_refined_mesh__coll__graph_org.svg" target="_base">
           <rect id="button" ry="5" rx="5" y="6" x="6" height="38" width="38"
                fill="#f2f5e9" fill-opacity="0.5" stroke="#606060" stroke-width="1.0"/>
           <path id="arrow"
             d="M 11.500037,31.436501 C 11.940474,20.09759 22.043105,11.32322 32.158766,21.979434 L 37.068811,17.246167 C 37.068811,17.246167 37.088388,32 37.088388,32 L 22.160133,31.978069 C 22.160133,31.978069 26.997745,27.140456 26.997745,27.140456 C 18.528582,18.264221 13.291696,25.230495 11.500037,31.436501 z"
             style="fill:#404040;"/>
          </a>
         </g>
        </svg>
</svg>
