<?xml version="1.0" encoding="UTF-8" standalone="no"?>
<!DOCTYPE svg PUBLIC "-//W3C//DTD SVG 1.1//EN"
 "http://www.w3.org/Graphics/SVG/1.1/DTD/svg11.dtd">
<!-- Generated by graphviz version 2.43.0 (0)
 -->
<!-- Title: EshelbianPlasticity::CGGUserPolynomialBase Pages: 1 -->
<svg width="374pt" height="106pt"
 viewBox="0.00 0.00 373.50 106.00" xmlns="http://www.w3.org/2000/svg" xmlns:xlink="http://www.w3.org/1999/xlink">
<g id="graph0" class="graph" transform="scale(1 1) rotate(0) translate(4 102)">
<title>EshelbianPlasticity::CGGUserPolynomialBase</title>
<polygon fill="white" stroke="transparent" points="-4,4 -4,-102 369.5,-102 369.5,4 -4,4"/>
<!-- Node1 -->
<g id="node1" class="node">
<title>Node1</title>
<g id="a_node1"><a xlink:title=" ">
<polygon fill="#bfbfbf" stroke="black" points="123,-0.5 123,-30.5 269,-30.5 269,-0.5 123,-0.5"/>
<text text-anchor="start" x="131" y="-18.5" font-family="Helvetica,sans-Serif" font-size="10.00">EshelbianPlasticity</text>
<text text-anchor="middle" x="196" y="-7.5" font-family="Helvetica,sans-Serif" font-size="10.00">::CGGUserPolynomialBase</text>
</a>
</g>
</g>
<!-- Node2 -->
<g id="node2" class="node">
<title>Node2</title>
<g id="a_node2"><a xlink:href="classTetPolynomialBase.html" target="_top" xlink:title=" ">
<polygon fill="white" stroke="black" points="0,-78.5 0,-97.5 110,-97.5 110,-78.5 0,-78.5"/>
<text text-anchor="middle" x="55" y="-85.5" font-family="Helvetica,sans-Serif" font-size="10.00">TetPolynomialBase</text>
</a>
</g>
</g>
<!-- Node2&#45;&gt;Node1 -->
<g id="edge1" class="edge">
<title>Node2&#45;&gt;Node1</title>
<path fill="none" stroke="midnightblue" d="M81.13,-73.93C105.81,-61.59 142.71,-43.14 167.99,-30.51"/>
<polygon fill="midnightblue" stroke="midnightblue" points="79.39,-70.89 72.01,-78.5 82.52,-77.15 79.39,-70.89"/>
</g>
<!-- Node3 -->
<g id="node3" class="node">
<title>Node3</title>
<g id="a_node3"><a xlink:title=" ">
<polygon fill="white" stroke="#bfbfbf" points="128,-78.5 128,-97.5 264,-97.5 264,-78.5 128,-78.5"/>
<text text-anchor="middle" x="196" y="-85.5" font-family="Helvetica,sans-Serif" font-size="10.00">shared_ptr&lt; CachePhi &gt;</text>
</a>
</g>
</g>
<!-- Node3&#45;&gt;Node1 -->
<g id="edge2" class="edge">
<title>Node3&#45;&gt;Node1</title>
<path fill="none" stroke="#9a32cd" stroke-dasharray="5,2" d="M196,-68.24C196,-56.41 196,-41.38 196,-30.58"/>
<polygon fill="#9a32cd" stroke="#9a32cd" points="192.5,-68.36 196,-78.36 199.5,-68.36 192.5,-68.36"/>
<text text-anchor="middle" x="226.5" y="-52" font-family="Helvetica,sans-Serif" font-size="10.00"> cachePhiPtr</text>
</g>
<!-- Node4 -->
<g id="node4" class="node">
<title>Node4</title>
<g id="a_node4"><a xlink:title=" ">
<polygon fill="white" stroke="#bfbfbf" points="282.5,-78.5 282.5,-97.5 365.5,-97.5 365.5,-78.5 282.5,-78.5"/>
<text text-anchor="middle" x="324" y="-85.5" font-family="Helvetica,sans-Serif" font-size="10.00">MatrixDouble</text>
</a>
</g>
</g>
<!-- Node4&#45;&gt;Node1 -->
<g id="edge3" class="edge">
<title>Node4&#45;&gt;Node1</title>
<path fill="none" stroke="#9a32cd" stroke-dasharray="5,2" d="M301.37,-72.75C289.48,-65.43 274.6,-56.48 261,-49 249.51,-42.67 236.62,-36.12 225.38,-30.57"/>
<polygon fill="#9a32cd" stroke="#9a32cd" points="299.83,-75.92 310.17,-78.23 303.53,-69.98 299.83,-75.92"/>
<text text-anchor="middle" x="303" y="-52" font-family="Helvetica,sans-Serif" font-size="10.00"> shapeFun</text>
</g>
</g>
</svg>
