<?xml version="1.0" encoding="UTF-8" standalone="no"?>
<!DOCTYPE svg PUBLIC "-//W3C//DTD SVG 1.1//EN"
 "http://www.w3.org/Graphics/SVG/1.1/DTD/svg11.dtd">
<!-- Generated by graphviz version 9.0.0 (20230911.1827)
 -->
<!-- Title: BCs_RVELagrange_Trac_Rigid_Rot::OpRVEBCsLhs Pages: 1 -->
<svg width="1407pt" height="194pt"
 viewBox="0.00 0.00 1406.50 193.88" xmlns="http://www.w3.org/2000/svg" xmlns:xlink="http://www.w3.org/1999/xlink">
<g id="graph0" class="graph" transform="scale(1 1) rotate(0) translate(4 189.88)">
<title>BCs_RVELagrange_Trac_Rigid_Rot::OpRVEBCsLhs</title>
<!-- Node1 -->
<g id="node1" class="node">
<title>Node1</title>
<g id="a_node1"><a xlink:title="\biref operator to calculate the LHS for the RVE boundary conditions">
<polygon fill="#999999" stroke="#666666" points="1398.5,-105.88 1258.75,-105.88 1258.75,-75.38 1398.5,-75.38 1398.5,-105.88"/>
<text text-anchor="start" x="1266.75" y="-92.38" font-family="Helvetica,sans-Serif" font-size="10.00">BCs_RVELagrange_Trac</text>
<text text-anchor="middle" x="1328.62" y="-81.12" font-family="Helvetica,sans-Serif" font-size="10.00">_Rigid_Rot::OpRVEBCsLhs</text>
</a>
</g>
</g>
<!-- Node2 -->
<g id="node2" class="node">
<title>Node2</title>
<g id="a_node2"><a xlink:title=" ">
<polygon fill="white" stroke="#666666" points="1153,-185.88 996,-185.88 996,-155.38 1153,-155.38 1153,-185.88"/>
<text text-anchor="start" x="1004" y="-172.38" font-family="Helvetica,sans-Serif" font-size="10.00">FaceElementForcesAndSources</text>
<text text-anchor="middle" x="1074.5" y="-161.12" font-family="Helvetica,sans-Serif" font-size="10.00">Core::UserDataOperator</text>
</a>
</g>
</g>
<!-- Node2&#45;&gt;Node1 -->
<g id="edge1" class="edge">
<title>Node2&#45;&gt;Node1</title>
<path fill="none" stroke="#63b8ff" d="M1161.64,-152.34C1187.37,-146.05 1215.45,-138.36 1240.75,-129.62 1259.66,-123.09 1280.1,-114.02 1296.4,-106.27"/>
<polygon fill="#63b8ff" stroke="#63b8ff" points="1161.15,-148.85 1152.24,-154.59 1162.79,-155.66 1161.15,-148.85"/>
</g>
<!-- Node3 -->
<g id="node3" class="node">
<title>Node3</title>
<g id="a_node3"><a xlink:href="struct_mo_f_e_m_1_1_deprecated_core_interface.html" target="_top" xlink:title="Deprecated interface functions.">
<polygon fill="white" stroke="#666666" points="1157.5,-137.25 991.5,-137.25 991.5,-118 1157.5,-118 1157.5,-137.25"/>
<text text-anchor="middle" x="1074.5" y="-123.75" font-family="Helvetica,sans-Serif" font-size="10.00">MoFEM::DeprecatedCoreInterface</text>
</a>
</g>
</g>
<!-- Node3&#45;&gt;Node1 -->
<g id="edge2" class="edge">
<title>Node3&#45;&gt;Node1</title>
<path fill="none" stroke="#9a32cd" stroke-dasharray="5,2" d="M1161.55,-116C1187.07,-112.46 1215.05,-108.48 1240.75,-104.62 1246.49,-103.76 1252.44,-102.85 1258.41,-101.92"/>
<polygon fill="#9a32cd" stroke="#9a32cd" points="1161.33,-112.5 1151.91,-117.34 1162.29,-119.44 1161.33,-112.5"/>
<text text-anchor="middle" x="1208.12" y="-116.38" font-family="Helvetica,sans-Serif" font-size="10.00"> mField</text>
</g>
<!-- Node4 -->
<g id="node4" class="node">
<title>Node4</title>
<g id="a_node4"><a xlink:href="struct_mo_f_e_m_1_1_core_interface.html" target="_top" xlink:title="Interface.">
<polygon fill="white" stroke="#666666" points="954.5,-137.25 838.75,-137.25 838.75,-118 954.5,-118 954.5,-137.25"/>
<text text-anchor="middle" x="896.62" y="-123.75" font-family="Helvetica,sans-Serif" font-size="10.00">MoFEM::CoreInterface</text>
</a>
</g>
</g>
<!-- Node4&#45;&gt;Node3 -->
<g id="edge3" class="edge">
<title>Node4&#45;&gt;Node3</title>
<path fill="none" stroke="#63b8ff" d="M966.13,-127.62C974.33,-127.62 982.77,-127.62 991.13,-127.62"/>
<polygon fill="#63b8ff" stroke="#63b8ff" points="966.24,-124.13 956.24,-127.63 966.24,-131.13 966.24,-124.13"/>
</g>
<!-- Node5 -->
<g id="node5" class="node">
<title>Node5</title>
<g id="a_node5"><a xlink:href="struct_mo_f_e_m_1_1_unknown_interface.html" target="_top" xlink:title="base class for all interface classes">
<polygon fill="white" stroke="#666666" points="801.75,-137.25 665.75,-137.25 665.75,-118 801.75,-118 801.75,-137.25"/>
<text text-anchor="middle" x="733.75" y="-123.75" font-family="Helvetica,sans-Serif" font-size="10.00">MoFEM::UnknownInterface</text>
</a>
</g>
</g>
<!-- Node5&#45;&gt;Node4 -->
<g id="edge4" class="edge">
<title>Node5&#45;&gt;Node4</title>
<path fill="none" stroke="#63b8ff" d="M813.43,-127.62C821.81,-127.62 830.23,-127.62 838.3,-127.62"/>
<polygon fill="#63b8ff" stroke="#63b8ff" points="813.56,-124.13 803.56,-127.63 813.56,-131.13 813.56,-124.13"/>
</g>
<!-- Node6 -->
<g id="node6" class="node">
<title>Node6</title>
<g id="a_node6"><a xlink:title=" ">
<polygon fill="white" stroke="#666666" points="563,-159.75 346.75,-159.75 346.75,-95.5 563,-95.5 563,-159.75"/>
<text text-anchor="start" x="354.75" y="-146.25" font-family="Helvetica,sans-Serif" font-size="10.00">multi_index_container</text>
<text text-anchor="start" x="354.75" y="-135" font-family="Helvetica,sans-Serif" font-size="10.00">&lt; UIdTypeMap, indexed</text>
<text text-anchor="start" x="354.75" y="-123.75" font-family="Helvetica,sans-Serif" font-size="10.00">_by&lt; hashed_unique&lt; member</text>
<text text-anchor="start" x="354.75" y="-112.5" font-family="Helvetica,sans-Serif" font-size="10.00">&lt; UIdTypeMap, boost::typeindex</text>
<text text-anchor="middle" x="454.88" y="-101.25" font-family="Helvetica,sans-Serif" font-size="10.00">::type_index, &amp;UIdTypeMap::classIdx &gt; &gt; &gt; &gt;</text>
</a>
</g>
</g>
<!-- Node6&#45;&gt;Node5 -->
<g id="edge5" class="edge">
<title>Node6&#45;&gt;Node5</title>
<path fill="none" stroke="#9a32cd" stroke-dasharray="5,2" d="M574.68,-127.62C605.7,-127.62 638.06,-127.62 665.37,-127.62"/>
<polygon fill="#9a32cd" stroke="#9a32cd" points="574.83,-124.13 564.83,-127.63 574.83,-131.13 574.83,-124.13"/>
<text text-anchor="middle" x="614.38" y="-129.38" font-family="Helvetica,sans-Serif" font-size="10.00"> iFaceTypeMap</text>
</g>
<!-- Node7 -->
<g id="node7" class="node">
<title>Node7</title>
<g id="a_node7"><a xlink:title=" ">
<polygon fill="white" stroke="#666666" points="110.5,-137.25 0,-137.25 0,-118 110.5,-118 110.5,-137.25"/>
<text text-anchor="middle" x="55.25" y="-123.75" font-family="Helvetica,sans-Serif" font-size="10.00">multi_index_container</text>
</a>
</g>
</g>
<!-- Node7&#45;&gt;Node6 -->
<g id="edge6" class="edge">
<title>Node7&#45;&gt;Node6</title>
<path fill="none" stroke="orange" stroke-dasharray="5,2" d="M122.09,-127.62C183.01,-127.62 274.7,-127.62 346.26,-127.62"/>
<polygon fill="orange" stroke="orange" points="122.22,-124.13 112.22,-127.63 122.22,-131.13 122.22,-124.13"/>
<text text-anchor="start" x="128.5" y="-163.12" font-family="Helvetica,sans-Serif" font-size="10.00"> &lt; UIdTypeMap, indexed</text>
<text text-anchor="start" x="128.5" y="-151.88" font-family="Helvetica,sans-Serif" font-size="10.00">_by&lt; hashed_unique&lt; member</text>
<text text-anchor="start" x="128.5" y="-140.62" font-family="Helvetica,sans-Serif" font-size="10.00">&lt; UIdTypeMap, boost::typeindex</text>
<text text-anchor="middle" x="228.62" y="-129.38" font-family="Helvetica,sans-Serif" font-size="10.00">::type_index, &amp;UIdTypeMap::classIdx &gt; &gt; &gt; &gt;</text>
</g>
<!-- Node8 -->
<g id="node8" class="node">
<title>Node8</title>
<g id="a_node8"><a xlink:title=" ">
<polygon fill="white" stroke="#666666" points="1090.75,-100.25 1058.25,-100.25 1058.25,-81 1090.75,-81 1090.75,-100.25"/>
<text text-anchor="middle" x="1074.5" y="-86.75" font-family="Helvetica,sans-Serif" font-size="10.00">Mat</text>
</a>
</g>
</g>
<!-- Node8&#45;&gt;Node1 -->
<g id="edge7" class="edge">
<title>Node8&#45;&gt;Node1</title>
<path fill="none" stroke="#9a32cd" stroke-dasharray="5,2" d="M1102.12,-90.62C1138.9,-90.62 1206.6,-90.62 1258.25,-90.62"/>
<polygon fill="#9a32cd" stroke="#9a32cd" points="1102.41,-87.13 1092.41,-90.63 1102.41,-94.13 1102.41,-87.13"/>
<text text-anchor="middle" x="1208.12" y="-92.38" font-family="Helvetica,sans-Serif" font-size="10.00"> Aij</text>
</g>
<!-- Node9 -->
<g id="node9" class="node">
<title>Node9</title>
<g id="a_node9"><a xlink:title=" ">
<polygon fill="white" stroke="#666666" points="1118.12,-63.25 1030.88,-63.25 1030.88,-44 1118.12,-44 1118.12,-63.25"/>
<text text-anchor="middle" x="1074.5" y="-49.75" font-family="Helvetica,sans-Serif" font-size="10.00">RVEBC_Data &amp;</text>
</a>
</g>
</g>
<!-- Node9&#45;&gt;Node1 -->
<g id="edge8" class="edge">
<title>Node9&#45;&gt;Node1</title>
<path fill="none" stroke="#9a32cd" stroke-dasharray="5,2" d="M1129.39,-60.12C1161.72,-64.17 1203.65,-69.68 1240.75,-75.38 1246.5,-76.26 1252.46,-77.21 1258.44,-78.2"/>
<polygon fill="#9a32cd" stroke="#9a32cd" points="1130.23,-56.7 1119.87,-58.94 1129.36,-63.65 1130.23,-56.7"/>
<text text-anchor="middle" x="1208.12" y="-77.38" font-family="Helvetica,sans-Serif" font-size="10.00"> dAta</text>
</g>
<!-- Node10 -->
<g id="node10" class="node">
<title>Node10</title>
<g id="a_node10"><a xlink:title=" ">
<polygon fill="white" stroke="#666666" points="1111.38,-19.25 1037.62,-19.25 1037.62,0 1111.38,0 1111.38,-19.25"/>
<text text-anchor="middle" x="1074.5" y="-5.75" font-family="Helvetica,sans-Serif" font-size="10.00">MatrixDouble</text>
</a>
</g>
</g>
<!-- Node10&#45;&gt;Node1 -->
<g id="edge9" class="edge">
<title>Node10&#45;&gt;Node1</title>
<path fill="none" stroke="#9a32cd" stroke-dasharray="5,2" d="M1122.95,-14C1156.62,-18.15 1202.45,-25.95 1240.75,-40.12 1264.31,-48.85 1288.85,-63.73 1305.82,-75.09"/>
<polygon fill="#9a32cd" stroke="#9a32cd" points="1123.42,-10.53 1113.08,-12.86 1122.61,-17.49 1123.42,-10.53"/>
<text text-anchor="middle" x="1208.12" y="-53.62" font-family="Helvetica,sans-Serif" font-size="10.00"> Mat_face</text>
<text text-anchor="middle" x="1208.12" y="-42.38" font-family="Helvetica,sans-Serif" font-size="10.00">Mat_face_Tran</text>
</g>
</g>
</svg>
