<?xml version="1.0" encoding="UTF-8" standalone="no"?>
<!DOCTYPE svg PUBLIC "-//W3C//DTD SVG 1.1//EN"
 "http://www.w3.org/Graphics/SVG/1.1/DTD/svg11.dtd">
<!-- Generated by graphviz version 9.0.0 (20230911.1827)
 -->
<!-- Title: LevelSet::WrapperClassErrorProjection Pages: 1 -->
<svg width="256pt" height="105pt"
 viewBox="0.00 0.00 256.00 105.00" xmlns="http://www.w3.org/2000/svg" xmlns:xlink="http://www.w3.org/1999/xlink">
<g id="graph0" class="graph" transform="scale(1 1) rotate(0) translate(4 101)">
<title>LevelSet::WrapperClassErrorProjection</title>
<!-- Node1 -->
<g id="node1" class="node">
<title>Node1</title>
<g id="a_node1"><a xlink:title="Use peculated errors on all levels while mesh projection.">
<polygon fill="#999999" stroke="#666666" points="198.25,-30.5 55.5,-30.5 55.5,0 198.25,0 198.25,-30.5"/>
<text text-anchor="start" x="63.5" y="-17" font-family="Helvetica,sans-Serif" font-size="10.00">LevelSet::WrapperClassError</text>
<text text-anchor="middle" x="126.88" y="-5.75" font-family="Helvetica,sans-Serif" font-size="10.00">Projection</text>
</a>
</g>
</g>
<!-- Node2 -->
<g id="node2" class="node">
<title>Node2</title>
<g id="a_node2"><a xlink:href="struct_level_set_1_1_wrapper_class.html" target="_top" xlink:title="Wrapper executing stages while mesh refinement.">
<polygon fill="white" stroke="#666666" points="121.75,-97 0,-97 0,-77.75 121.75,-77.75 121.75,-97"/>
<text text-anchor="middle" x="60.88" y="-83.5" font-family="Helvetica,sans-Serif" font-size="10.00">LevelSet::WrapperClass</text>
</a>
</g>
</g>
<!-- Node2&#45;&gt;Node1 -->
<g id="edge1" class="edge">
<title>Node2&#45;&gt;Node1</title>
<path fill="none" stroke="#63b8ff" d="M76.89,-69.36C87.95,-57.61 102.52,-42.13 113.07,-30.92"/>
<polygon fill="#63b8ff" stroke="#63b8ff" points="74.58,-66.71 70.27,-76.39 79.67,-71.51 74.58,-66.71"/>
</g>
<!-- Node3 -->
<g id="node3" class="node">
<title>Node3</title>
<g id="a_node3"><a xlink:title=" ">
<polygon fill="white" stroke="#666666" points="248,-97 139.75,-97 139.75,-77.75 248,-77.75 248,-97"/>
<text text-anchor="middle" x="193.88" y="-83.5" font-family="Helvetica,sans-Serif" font-size="10.00">shared_ptr&lt; double &gt;</text>
</a>
</g>
</g>
<!-- Node3&#45;&gt;Node1 -->
<g id="edge2" class="edge">
<title>Node3&#45;&gt;Node1</title>
<path fill="none" stroke="#9a32cd" stroke-dasharray="5,2" d="M177.62,-69.36C166.39,-57.61 151.6,-42.13 140.89,-30.92"/>
<polygon fill="#9a32cd" stroke="#9a32cd" points="174.91,-71.59 184.34,-76.4 179.97,-66.75 174.91,-71.59"/>
<text text-anchor="middle" x="185.12" y="-50.25" font-family="Helvetica,sans-Serif" font-size="10.00"> maxPtr</text>
</g>
</g>
</svg>
