<?xml version="1.0" encoding="UTF-8" standalone="no"?>
<!DOCTYPE svg PUBLIC "-//W3C//DTD SVG 1.1//EN"
 "http://www.w3.org/Graphics/SVG/1.1/DTD/svg11.dtd">
<!-- Generated by graphviz version 2.43.0 (0)
 -->
<!-- Title: MortarContactInterface Pages: 1 -->
<svg width="1733pt" height="931pt"
 viewBox="0.00 0.00 1733.00 931.00" xmlns="http://www.w3.org/2000/svg" xmlns:xlink="http://www.w3.org/1999/xlink">
<g id="graph0" class="graph" transform="scale(1 1) rotate(0) translate(4 927)">
<title>MortarContactInterface</title>
<polygon fill="white" stroke="transparent" points="-4,4 -4,-927 1729,-927 1729,4 -4,4"/>
<!-- Node1 -->
<g id="node1" class="node">
<title>Node1</title>
<g id="a_node1"><a xlink:title=" ">
<polygon fill="#bfbfbf" stroke="black" points="1595,-428 1595,-447 1725,-447 1725,-428 1595,-428"/>
<text text-anchor="middle" x="1660" y="-435" font-family="Helvetica,sans-Serif" font-size="10.00">MortarContactInterface</text>
</a>
</g>
</g>
<!-- Node2 -->
<g id="node2" class="node">
<title>Node2</title>
<g id="a_node2"><a xlink:href="structGenericElementInterface.html" target="_top" xlink:title="Set of functions declaring elements and setting operators for generic element interface.">
<polygon fill="white" stroke="black" points="1227,-832 1227,-851 1365,-851 1365,-832 1227,-832"/>
<text text-anchor="middle" x="1296" y="-839" font-family="Helvetica,sans-Serif" font-size="10.00">GenericElementInterface</text>
</a>
</g>
</g>
<!-- Node2&#45;&gt;Node1 -->
<g id="edge1" class="edge">
<title>Node2&#45;&gt;Node1</title>
<path fill="none" stroke="midnightblue" d="M1340.16,-853.52C1400.75,-867.54 1511.02,-882.19 1577,-825.5 1637.05,-773.9 1655.39,-501.83 1658.49,-447.09"/>
<polygon fill="midnightblue" stroke="midnightblue" points="1340.7,-850.05 1330.15,-851.11 1339.05,-856.85 1340.7,-850.05"/>
</g>
<!-- Node3 -->
<g id="node3" class="node">
<title>Node3</title>
<g id="a_node3"><a xlink:title=" ">
<polygon fill="white" stroke="#bfbfbf" points="929,-892.5 929,-922.5 1051,-922.5 1051,-892.5 929,-892.5"/>
<text text-anchor="start" x="937" y="-910.5" font-family="Helvetica,sans-Serif" font-size="10.00">shared_ptr&lt; MoFEM::</text>
<text text-anchor="middle" x="990" y="-899.5" font-family="Helvetica,sans-Serif" font-size="10.00">FEMethod &gt;</text>
</a>
</g>
</g>
<!-- Node3&#45;&gt;Node2 -->
<g id="edge2" class="edge">
<title>Node3&#45;&gt;Node2</title>
<path fill="none" stroke="#9a32cd" stroke-dasharray="5,2" d="M1061.25,-900.85C1095.01,-896.88 1135.89,-890.93 1172,-882.5 1207.07,-874.3 1246.35,-860.34 1270.88,-851.01"/>
<polygon fill="#9a32cd" stroke="#9a32cd" points="1060.56,-897.4 1051.02,-902.02 1061.35,-904.36 1060.56,-897.4"/>
<text text-anchor="middle" x="1125" y="-901.5" font-family="Helvetica,sans-Serif" font-size="10.00"> monitorPtr</text>
</g>
<!-- Node4 -->
<g id="node4" class="node">
<title>Node4</title>
<g id="a_node4"><a xlink:title=" ">
<polygon fill="white" stroke="#bfbfbf" points="975.5,-854 975.5,-873 1004.5,-873 1004.5,-854 975.5,-854"/>
<text text-anchor="middle" x="990" y="-861" font-family="Helvetica,sans-Serif" font-size="10.00">int</text>
</a>
</g>
</g>
<!-- Node4&#45;&gt;Node2 -->
<g id="edge3" class="edge">
<title>Node4&#45;&gt;Node2</title>
<path fill="none" stroke="#9a32cd" stroke-dasharray="5,2" d="M1014.87,-861.77C1060.04,-858.5 1159.52,-851.3 1226.93,-846.42"/>
<polygon fill="#9a32cd" stroke="#9a32cd" points="1014.57,-858.28 1004.85,-862.49 1015.08,-865.26 1014.57,-858.28"/>
<text text-anchor="middle" x="1125" y="-870.5" font-family="Helvetica,sans-Serif" font-size="10.00"> restartRunStep</text>
<text text-anchor="middle" x="1125" y="-859.5" font-family="Helvetica,sans-Serif" font-size="10.00">atomTest</text>
</g>
<!-- Node5 -->
<g id="node5" class="node">
<title>Node5</title>
<g id="a_node5"><a xlink:title=" ">
<polygon fill="white" stroke="#bfbfbf" points="924.5,-804.5 924.5,-834.5 1055.5,-834.5 1055.5,-804.5 924.5,-804.5"/>
<text text-anchor="start" x="932.5" y="-822.5" font-family="Helvetica,sans-Serif" font-size="10.00">shared_ptr&lt; std::vector</text>
<text text-anchor="middle" x="990" y="-811.5" font-family="Helvetica,sans-Serif" font-size="10.00">&lt; char unsigned &gt; &gt;</text>
</a>
</g>
</g>
<!-- Node5&#45;&gt;Node2 -->
<g id="edge4" class="edge">
<title>Node5&#45;&gt;Node2</title>
<path fill="none" stroke="#9a32cd" stroke-dasharray="5,2" d="M1066.11,-824.93C1115.31,-828.49 1179.09,-833.11 1226.83,-836.56"/>
<polygon fill="#9a32cd" stroke="#9a32cd" points="1066.07,-821.42 1055.84,-824.19 1065.56,-828.4 1066.07,-821.42"/>
<text text-anchor="middle" x="1125" y="-834.5" font-family="Helvetica,sans-Serif" font-size="10.00"> mBoundaryMarker</text>
</g>
<!-- Node6 -->
<g id="node6" class="node">
<title>Node6</title>
<g id="a_node6"><a xlink:title=" ">
<polygon fill="white" stroke="#bfbfbf" points="920,-766 920,-785 1060,-785 1060,-766 920,-766"/>
<text text-anchor="middle" x="990" y="-773" font-family="Helvetica,sans-Serif" font-size="10.00">shared_ptr&lt; FEMethod &gt;</text>
</a>
</g>
</g>
<!-- Node6&#45;&gt;Node2 -->
<g id="edge5" class="edge">
<title>Node6&#45;&gt;Node2</title>
<path fill="none" stroke="#9a32cd" stroke-dasharray="5,2" d="M1070.21,-783.86C1102.61,-789.04 1139.94,-797.33 1172,-810.5 1180.89,-814.15 1181.08,-818.9 1190,-822.5 1201.6,-827.18 1214.38,-830.71 1226.91,-833.37"/>
<polygon fill="#9a32cd" stroke="#9a32cd" points="1070.74,-780.4 1060.32,-782.35 1069.68,-787.32 1070.74,-780.4"/>
<text text-anchor="middle" x="1125" y="-813.5" font-family="Helvetica,sans-Serif" font-size="10.00"> monitorPtr</text>
</g>
<!-- Node7 -->
<g id="node7" class="node">
<title>Node7</title>
<g id="a_node7"><a xlink:title=" ">
<polygon fill="white" stroke="#bfbfbf" points="1241,-794 1241,-813 1351,-813 1351,-794 1241,-794"/>
<text text-anchor="middle" x="1296" y="-801" font-family="Helvetica,sans-Serif" font-size="10.00">array&lt; double, 2 &gt;</text>
</a>
</g>
</g>
<!-- Node7&#45;&gt;Node1 -->
<g id="edge6" class="edge">
<title>Node7&#45;&gt;Node1</title>
<path fill="none" stroke="#9a32cd" stroke-dasharray="5,2" d="M1361.19,-802.14C1438.77,-799.91 1560.99,-794.23 1577,-780.5 1629.98,-735.05 1653.63,-498.48 1658.17,-447.28"/>
<polygon fill="#9a32cd" stroke="#9a32cd" points="1360.92,-798.65 1351.02,-802.42 1361.11,-805.65 1360.92,-798.65"/>
<text text-anchor="middle" x="1498.5" y="-813.5" font-family="Helvetica,sans-Serif" font-size="10.00"> nbGaussPts</text>
<text text-anchor="middle" x="1498.5" y="-802.5" font-family="Helvetica,sans-Serif" font-size="10.00">contactArea</text>
</g>
<!-- Node8 -->
<g id="node8" class="node">
<title>Node8</title>
<g id="a_node8"><a xlink:title=" ">
<polygon fill="white" stroke="#bfbfbf" points="1274,-749 1274,-768 1318,-768 1318,-749 1274,-749"/>
<text text-anchor="middle" x="1296" y="-756" font-family="Helvetica,sans-Serif" font-size="10.00">string</text>
</a>
</g>
</g>
<!-- Node8&#45;&gt;Node1 -->
<g id="edge7" class="edge">
<title>Node8&#45;&gt;Node1</title>
<path fill="none" stroke="#9a32cd" stroke-dasharray="5,2" d="M1328.34,-758.03C1397.42,-756.73 1558.18,-752.05 1577,-736.5 1623.88,-697.74 1651.89,-494.39 1657.82,-447.26"/>
<polygon fill="#9a32cd" stroke="#9a32cd" points="1328.01,-754.54 1318.08,-758.22 1328.14,-761.54 1328.01,-754.54"/>
<text text-anchor="middle" x="1498.5" y="-768.5" font-family="Helvetica,sans-Serif" font-size="10.00"> positionField</text>
<text text-anchor="middle" x="1498.5" y="-757.5" font-family="Helvetica,sans-Serif" font-size="10.00">meshNodeField</text>
</g>
<!-- Node9 -->
<g id="node9" class="node">
<title>Node9</title>
<g id="a_node9"><a xlink:title=" ">
<polygon fill="white" stroke="#bfbfbf" points="1263.5,-671 1263.5,-690 1328.5,-690 1328.5,-671 1263.5,-671"/>
<text text-anchor="middle" x="1296" y="-678" font-family="Helvetica,sans-Serif" font-size="10.00">PetscBool</text>
</a>
</g>
</g>
<!-- Node9&#45;&gt;Node1 -->
<g id="edge8" class="edge">
<title>Node9&#45;&gt;Node1</title>
<path fill="none" stroke="#9a32cd" stroke-dasharray="5,2" d="M1338.76,-676.71C1414.52,-669.68 1567.69,-654.69 1577,-647.5 1644.2,-595.56 1656.39,-480.78 1658.55,-447.02"/>
<polygon fill="#9a32cd" stroke="#9a32cd" points="1338.24,-673.24 1328.61,-677.65 1338.89,-680.21 1338.24,-673.24"/>
<text text-anchor="middle" x="1498.5" y="-725.5" font-family="Helvetica,sans-Serif" font-size="10.00"> convectPts</text>
<text text-anchor="middle" x="1498.5" y="-714.5" font-family="Helvetica,sans-Serif" font-size="10.00">almFlag</text>
<text text-anchor="middle" x="1498.5" y="-703.5" font-family="Helvetica,sans-Serif" font-size="10.00">isNewtonCotes</text>
<text text-anchor="middle" x="1498.5" y="-692.5" font-family="Helvetica,sans-Serif" font-size="10.00">isPartitioned</text>
<text text-anchor="middle" x="1498.5" y="-681.5" font-family="Helvetica,sans-Serif" font-size="10.00">dEbug</text>
<text text-anchor="middle" x="1498.5" y="-670.5" font-family="Helvetica,sans-Serif" font-size="10.00">printContactState</text>
</g>
<!-- Node10 -->
<g id="node10" class="node">
<title>Node10</title>
<g id="a_node10"><a xlink:href="classdouble.html" target="_top" xlink:title=" ">
<polygon fill="white" stroke="black" points="1271,-633 1271,-652 1321,-652 1321,-633 1271,-633"/>
<text text-anchor="middle" x="1296" y="-640" font-family="Helvetica,sans-Serif" font-size="10.00">double</text>
</a>
</g>
</g>
<!-- Node10&#45;&gt;Node1 -->
<g id="edge9" class="edge">
<title>Node10&#45;&gt;Node1</title>
<path fill="none" stroke="#9a32cd" stroke-dasharray="5,2" d="M1331.51,-637.67C1406.1,-627.23 1575.76,-603.39 1577,-602.5 1631.71,-562.96 1651.94,-476.51 1657.36,-447.33"/>
<polygon fill="#9a32cd" stroke="#9a32cd" points="1330.65,-634.26 1321.23,-639.11 1331.62,-641.19 1330.65,-634.26"/>
<text text-anchor="middle" x="1498.5" y="-637.5" font-family="Helvetica,sans-Serif" font-size="10.00"> cnValue</text>
<text text-anchor="middle" x="1498.5" y="-626.5" font-family="Helvetica,sans-Serif" font-size="10.00">postProcGapTol</text>
</g>
<!-- Node11 -->
<g id="node11" class="node">
<title>Node11</title>
<g id="a_node11"><a xlink:title=" ">
<polygon fill="white" stroke="#bfbfbf" points="1241,-583.5 1241,-613.5 1351,-613.5 1351,-583.5 1241,-583.5"/>
<text text-anchor="start" x="1249" y="-601.5" font-family="Helvetica,sans-Serif" font-size="10.00">vector&lt; std::pair&lt;</text>
<text text-anchor="middle" x="1296" y="-590.5" font-family="Helvetica,sans-Serif" font-size="10.00"> Range, Range &gt; &gt;</text>
</a>
</g>
</g>
<!-- Node11&#45;&gt;Node1 -->
<g id="edge10" class="edge">
<title>Node11&#45;&gt;Node1</title>
<path fill="none" stroke="#9a32cd" stroke-dasharray="5,2" d="M1361.21,-593.58C1438.18,-587.24 1559.1,-575.7 1577,-564.5 1622.61,-535.96 1647.75,-471.69 1655.96,-447.21"/>
<polygon fill="#9a32cd" stroke="#9a32cd" points="1360.81,-590.1 1351.13,-594.4 1361.38,-597.08 1360.81,-590.1"/>
<text text-anchor="middle" x="1498.5" y="-590.5" font-family="Helvetica,sans-Serif" font-size="10.00"> contactSurfacePairs</text>
</g>
<!-- Node12 -->
<g id="node12" class="node">
<title>Node12</title>
<g id="a_node12"><a xlink:title=" ">
<polygon fill="white" stroke="#bfbfbf" points="1224.5,-534.5 1224.5,-564.5 1367.5,-564.5 1367.5,-534.5 1224.5,-534.5"/>
<text text-anchor="start" x="1232.5" y="-552.5" font-family="Helvetica,sans-Serif" font-size="10.00">shared_ptr&lt; PostProcFace</text>
<text text-anchor="middle" x="1296" y="-541.5" font-family="Helvetica,sans-Serif" font-size="10.00">OnRefinedMesh &gt;</text>
</a>
</g>
</g>
<!-- Node12&#45;&gt;Node1 -->
<g id="edge11" class="edge">
<title>Node12&#45;&gt;Node1</title>
<path fill="none" stroke="#9a32cd" stroke-dasharray="5,2" d="M1377.86,-552.43C1435.85,-551.5 1514.47,-543.87 1577,-514.5 1610.58,-498.72 1639.49,-463.95 1652.16,-447.07"/>
<polygon fill="#9a32cd" stroke="#9a32cd" points="1377.61,-548.94 1367.64,-552.53 1377.67,-555.94 1377.61,-548.94"/>
<text text-anchor="middle" x="1498.5" y="-552.5" font-family="Helvetica,sans-Serif" font-size="10.00"> postProcContactPtr</text>
</g>
<!-- Node13 -->
<g id="node13" class="node">
<title>Node13</title>
<g id="a_node13"><a xlink:title=" ">
<polygon fill="white" stroke="#bfbfbf" points="1260.5,-496 1260.5,-515 1331.5,-515 1331.5,-496 1260.5,-496"/>
<text text-anchor="middle" x="1296" y="-503" font-family="Helvetica,sans-Serif" font-size="10.00">Interface &amp;</text>
</a>
</g>
</g>
<!-- Node13&#45;&gt;Node1 -->
<g id="edge12" class="edge">
<title>Node13&#45;&gt;Node1</title>
<path fill="none" stroke="#9a32cd" stroke-dasharray="5,2" d="M1342.02,-505.17C1398.05,-503.74 1496.22,-497.88 1577,-475.5 1600.89,-468.88 1626.53,-455.95 1642.65,-447.03"/>
<polygon fill="#9a32cd" stroke="#9a32cd" points="1341.65,-501.67 1331.73,-505.39 1341.8,-508.67 1341.65,-501.67"/>
<text text-anchor="middle" x="1498.5" y="-502.5" font-family="Helvetica,sans-Serif" font-size="10.00"> moabPostProcMesh</text>
</g>
<!-- Node14 -->
<g id="node14" class="node">
<title>Node14</title>
<g id="a_node14"><a xlink:title=" ">
<polygon fill="white" stroke="#bfbfbf" points="1214.5,-458 1214.5,-477 1377.5,-477 1377.5,-458 1214.5,-458"/>
<text text-anchor="middle" x="1296" y="-465" font-family="Helvetica,sans-Serif" font-size="10.00">shared_ptr&lt; contactMIndex &gt;</text>
</a>
</g>
</g>
<!-- Node14&#45;&gt;Node1 -->
<g id="edge13" class="edge">
<title>Node14&#45;&gt;Node1</title>
<path fill="none" stroke="#9a32cd" stroke-dasharray="5,2" d="M1387.76,-463.53C1442.64,-460.67 1513.95,-456.13 1577,-449.5 1583.73,-448.79 1590.74,-447.94 1597.72,-447.02"/>
<polygon fill="#9a32cd" stroke="#9a32cd" points="1387.52,-460.04 1377.71,-464.04 1387.88,-467.03 1387.52,-460.04"/>
<text text-anchor="middle" x="1498.5" y="-463.5" font-family="Helvetica,sans-Serif" font-size="10.00"> contactCommondataMultiIndex</text>
</g>
<!-- Node15 -->
<g id="node15" class="node">
<title>Node15</title>
<g id="a_node15"><a xlink:href="structMoFEM_1_1DeprecatedCoreInterface.html" target="_top" xlink:title="Deprecated interface functions.">
<polygon fill="white" stroke="black" points="1205.5,-420 1205.5,-439 1386.5,-439 1386.5,-420 1205.5,-420"/>
<text text-anchor="middle" x="1296" y="-427" font-family="Helvetica,sans-Serif" font-size="10.00">MoFEM::DeprecatedCoreInterface</text>
</a>
</g>
</g>
<!-- Node15&#45;&gt;Node1 -->
<g id="edge14" class="edge">
<title>Node15&#45;&gt;Node1</title>
<path fill="none" stroke="#9a32cd" stroke-dasharray="5,2" d="M1397.34,-431.71C1460.49,-433.11 1540.12,-434.87 1594.85,-436.08"/>
<polygon fill="#9a32cd" stroke="#9a32cd" points="1397.02,-428.21 1386.95,-431.48 1396.87,-435.2 1397.02,-428.21"/>
<text text-anchor="middle" x="1498.5" y="-438.5" font-family="Helvetica,sans-Serif" font-size="10.00"> mField</text>
</g>
<!-- Node16 -->
<g id="node16" class="node">
<title>Node16</title>
<g id="a_node16"><a xlink:href="structMoFEM_1_1CoreInterface.html" target="_top" xlink:title="Interface.">
<polygon fill="white" stroke="black" points="927.5,-420 927.5,-439 1052.5,-439 1052.5,-420 927.5,-420"/>
<text text-anchor="middle" x="990" y="-427" font-family="Helvetica,sans-Serif" font-size="10.00">MoFEM::CoreInterface</text>
</a>
</g>
</g>
<!-- Node16&#45;&gt;Node15 -->
<g id="edge15" class="edge">
<title>Node16&#45;&gt;Node15</title>
<path fill="none" stroke="midnightblue" d="M1062.54,-429.5C1105.22,-429.5 1159.79,-429.5 1205.33,-429.5"/>
<polygon fill="midnightblue" stroke="midnightblue" points="1062.52,-426 1052.52,-429.5 1062.52,-433 1062.52,-426"/>
</g>
<!-- Node17 -->
<g id="node17" class="node">
<title>Node17</title>
<g id="a_node17"><a xlink:href="structMoFEM_1_1UnknownInterface.html" target="_top" xlink:title="base class for all interface classes">
<polygon fill="white" stroke="black" points="735,-420 735,-439 883,-439 883,-420 735,-420"/>
<text text-anchor="middle" x="809" y="-427" font-family="Helvetica,sans-Serif" font-size="10.00">MoFEM::UnknownInterface</text>
</a>
</g>
</g>
<!-- Node17&#45;&gt;Node16 -->
<g id="edge16" class="edge">
<title>Node17&#45;&gt;Node16</title>
<path fill="none" stroke="midnightblue" d="M893.13,-429.5C904.64,-429.5 916.3,-429.5 927.32,-429.5"/>
<polygon fill="midnightblue" stroke="midnightblue" points="893.06,-426 883.06,-429.5 893.06,-433 893.06,-426"/>
</g>
<!-- Node18 -->
<g id="node18" class="node">
<title>Node18</title>
<g id="a_node18"><a xlink:title=" ">
<polygon fill="white" stroke="#bfbfbf" points="386,-398 386,-461 627,-461 627,-398 386,-398"/>
<text text-anchor="start" x="394" y="-449" font-family="Helvetica,sans-Serif" font-size="10.00">multi_index_container</text>
<text text-anchor="start" x="394" y="-438" font-family="Helvetica,sans-Serif" font-size="10.00">&lt; UIdTypeMap, indexed</text>
<text text-anchor="start" x="394" y="-427" font-family="Helvetica,sans-Serif" font-size="10.00">_by&lt; hashed_unique&lt; member</text>
<text text-anchor="start" x="394" y="-416" font-family="Helvetica,sans-Serif" font-size="10.00">&lt; UIdTypeMap, boost::typeindex</text>
<text text-anchor="middle" x="506.5" y="-405" font-family="Helvetica,sans-Serif" font-size="10.00">::type_index, &amp;UIdTypeMap::classIdx &gt; &gt; &gt; &gt;</text>
</a>
</g>
</g>
<!-- Node18&#45;&gt;Node17 -->
<g id="edge17" class="edge">
<title>Node18&#45;&gt;Node17</title>
<path fill="none" stroke="#9a32cd" stroke-dasharray="5,2" d="M637.41,-429.5C670.69,-429.5 705.33,-429.5 734.62,-429.5"/>
<polygon fill="#9a32cd" stroke="#9a32cd" points="637.13,-426 627.13,-429.5 637.13,-433 637.13,-426"/>
<text text-anchor="middle" x="681" y="-432.5" font-family="Helvetica,sans-Serif" font-size="10.00"> iFaceTypeMap</text>
</g>
<!-- Node19 -->
<g id="node19" class="node">
<title>Node19</title>
<g id="a_node19"><a xlink:title=" ">
<polygon fill="white" stroke="#bfbfbf" points="0,-420 0,-439 125,-439 125,-420 0,-420"/>
<text text-anchor="middle" x="62.5" y="-427" font-family="Helvetica,sans-Serif" font-size="10.00">multi_index_container</text>
</a>
</g>
</g>
<!-- Node19&#45;&gt;Node18 -->
<g id="edge18" class="edge">
<title>Node19&#45;&gt;Node18</title>
<path fill="none" stroke="orange" stroke-dasharray="5,2" d="M135.56,-429.5C203.25,-429.5 305.79,-429.5 385.77,-429.5"/>
<polygon fill="orange" stroke="orange" points="135.42,-426 125.42,-429.5 135.42,-433 135.42,-426"/>
<text text-anchor="start" x="143" y="-465.5" font-family="Helvetica,sans-Serif" font-size="10.00"> &lt; UIdTypeMap, indexed</text>
<text text-anchor="start" x="143" y="-454.5" font-family="Helvetica,sans-Serif" font-size="10.00">_by&lt; hashed_unique&lt; member</text>
<text text-anchor="start" x="143" y="-443.5" font-family="Helvetica,sans-Serif" font-size="10.00">&lt; UIdTypeMap, boost::typeindex</text>
<text text-anchor="middle" x="255.5" y="-432.5" font-family="Helvetica,sans-Serif" font-size="10.00">::type_index, &amp;UIdTypeMap::classIdx &gt; &gt; &gt; &gt;</text>
</g>
<!-- Node20 -->
<g id="node20" class="node">
<title>Node20</title>
<g id="a_node20"><a xlink:title=" ">
<polygon fill="white" stroke="#bfbfbf" points="1203.5,-370.5 1203.5,-400.5 1388.5,-400.5 1388.5,-370.5 1203.5,-370.5"/>
<text text-anchor="start" x="1211.5" y="-388.5" font-family="Helvetica,sans-Serif" font-size="10.00">shared_ptr&lt; MortarContact</text>
<text text-anchor="middle" x="1296" y="-377.5" font-family="Helvetica,sans-Serif" font-size="10.00">Problem::MortarContactElement &gt;</text>
</a>
</g>
</g>
<!-- Node20&#45;&gt;Node1 -->
<g id="edge19" class="edge">
<title>Node20&#45;&gt;Node1</title>
<path fill="none" stroke="#9a32cd" stroke-dasharray="5,2" d="M1398.73,-393.29C1452.07,-398.26 1518.35,-405.79 1577,-416.5 1593.34,-419.48 1611.23,-423.92 1626.12,-427.95"/>
<polygon fill="#9a32cd" stroke="#9a32cd" points="1398.86,-389.79 1388.58,-392.37 1398.22,-396.76 1398.86,-389.79"/>
<text text-anchor="middle" x="1498.5" y="-419.5" font-family="Helvetica,sans-Serif" font-size="10.00"> fePostProcSimpleContact</text>
</g>
<!-- Node21 -->
<g id="node21" class="node">
<title>Node21</title>
<g id="a_node21"><a xlink:href="classRange.html" target="_top" xlink:title=" ">
<polygon fill="white" stroke="black" points="1272.5,-330 1272.5,-349 1319.5,-349 1319.5,-330 1272.5,-330"/>
<text text-anchor="middle" x="1296" y="-337" font-family="Helvetica,sans-Serif" font-size="10.00">Range</text>
</a>
</g>
</g>
<!-- Node21&#45;&gt;Node1 -->
<g id="edge20" class="edge">
<title>Node21&#45;&gt;Node1</title>
<path fill="none" stroke="#9a32cd" stroke-dasharray="5,2" d="M1329.83,-332.52C1384.12,-322.66 1494.75,-309.75 1577,-347.5 1614.65,-364.78 1642.72,-408.35 1653.8,-427.83"/>
<polygon fill="#9a32cd" stroke="#9a32cd" points="1328.92,-329.13 1319.75,-334.43 1330.23,-336 1328.92,-329.13"/>
<text text-anchor="middle" x="1498.5" y="-383.5" font-family="Helvetica,sans-Serif" font-size="10.00"> masterTris</text>
<text text-anchor="middle" x="1498.5" y="-372.5" font-family="Helvetica,sans-Serif" font-size="10.00">postProcSurface</text>
<text text-anchor="middle" x="1498.5" y="-361.5" font-family="Helvetica,sans-Serif" font-size="10.00">slaveTris</text>
<text text-anchor="middle" x="1498.5" y="-350.5" font-family="Helvetica,sans-Serif" font-size="10.00">contactPrisms</text>
</g>
<!-- Node22 -->
<g id="node22" class="node">
<title>Node22</title>
<g id="a_node22"><a xlink:title=" ">
<polygon fill="white" stroke="#bfbfbf" points="1233,-292 1233,-311 1359,-311 1359,-292 1233,-292"/>
<text text-anchor="middle" x="1296" y="-299" font-family="Helvetica,sans-Serif" font-size="10.00">vector&lt; BitRefLevel &gt;</text>
</a>
</g>
</g>
<!-- Node22&#45;&gt;Node1 -->
<g id="edge21" class="edge">
<title>Node22&#45;&gt;Node1</title>
<path fill="none" stroke="#9a32cd" stroke-dasharray="5,2" d="M1369.25,-295.14C1440.27,-290.24 1542.81,-287.16 1577,-306.5 1625.35,-333.84 1649.12,-402.61 1656.45,-427.94"/>
<polygon fill="#9a32cd" stroke="#9a32cd" points="1368.74,-291.67 1359.02,-295.88 1369.24,-298.65 1368.74,-291.67"/>
<text text-anchor="middle" x="1498.5" y="-309.5" font-family="Helvetica,sans-Serif" font-size="10.00"> bitLevels</text>
</g>
<!-- Node23 -->
<g id="node23" class="node">
<title>Node23</title>
<g id="a_node23"><a xlink:href="classbool.html" target="_top" xlink:title=" ">
<polygon fill="white" stroke="black" points="1277,-253 1277,-272 1315,-272 1315,-253 1277,-253"/>
<text text-anchor="middle" x="1296" y="-260" font-family="Helvetica,sans-Serif" font-size="10.00">bool</text>
</a>
</g>
</g>
<!-- Node23&#45;&gt;Node1 -->
<g id="edge22" class="edge">
<title>Node23&#45;&gt;Node1</title>
<path fill="none" stroke="#9a32cd" stroke-dasharray="5,2" d="M1325.07,-259.03C1387.57,-251.9 1535.93,-238.31 1577,-264.5 1636.69,-302.56 1653.82,-397.05 1657.89,-427.72"/>
<polygon fill="#9a32cd" stroke="#9a32cd" points="1324.65,-255.56 1315.12,-260.2 1325.46,-262.51 1324.65,-255.56"/>
<text text-anchor="middle" x="1498.5" y="-278.5" font-family="Helvetica,sans-Serif" font-size="10.00"> isDisplacementField</text>
<text text-anchor="middle" x="1498.5" y="-267.5" font-family="Helvetica,sans-Serif" font-size="10.00">isQuasiStatic</text>
</g>
<!-- Node24 -->
<g id="node24" class="node">
<title>Node24</title>
<g id="a_node24"><a xlink:title=" ">
<polygon fill="white" stroke="#bfbfbf" points="1232,-215 1232,-234 1360,-234 1360,-215 1232,-215"/>
<text text-anchor="middle" x="1296" y="-222" font-family="Helvetica,sans-Serif" font-size="10.00">SmartPetscObj&lt; DM &gt;</text>
</a>
</g>
</g>
<!-- Node24&#45;&gt;Node1 -->
<g id="edge23" class="edge">
<title>Node24&#45;&gt;Node1</title>
<path fill="none" stroke="#9a32cd" stroke-dasharray="5,2" d="M1370.38,-218.05C1442.04,-213.29 1544.85,-211.01 1577,-233.5 1644.56,-280.75 1656.49,-393.49 1658.57,-427.57"/>
<polygon fill="#9a32cd" stroke="#9a32cd" points="1369.78,-214.58 1360.05,-218.77 1370.27,-221.57 1369.78,-214.58"/>
<text text-anchor="middle" x="1498.5" y="-236.5" font-family="Helvetica,sans-Serif" font-size="10.00"> dM</text>
</g>
<!-- Node25 -->
<g id="node25" class="node">
<title>Node25</title>
<g id="a_node25"><a xlink:title=" ">
<polygon fill="white" stroke="#bfbfbf" points="1190,-165.5 1190,-195.5 1402,-195.5 1402,-165.5 1190,-165.5"/>
<text text-anchor="start" x="1198" y="-183.5" font-family="Helvetica,sans-Serif" font-size="10.00">shared_ptr&lt; MortarContact</text>
<text text-anchor="middle" x="1296" y="-172.5" font-family="Helvetica,sans-Serif" font-size="10.00">Problem::CommonDataMortarContact &gt;</text>
</a>
</g>
</g>
<!-- Node25&#45;&gt;Node1 -->
<g id="edge24" class="edge">
<title>Node25&#45;&gt;Node1</title>
<path fill="none" stroke="#9a32cd" stroke-dasharray="5,2" d="M1376.23,-164.07C1437.26,-156.16 1520.47,-156.22 1577,-199.5 1653.17,-257.81 1659,-391.1 1659.12,-427.92"/>
<polygon fill="#9a32cd" stroke="#9a32cd" points="1375.68,-160.62 1366.26,-165.46 1376.64,-167.55 1375.68,-160.62"/>
<text text-anchor="middle" x="1498.5" y="-202.5" font-family="Helvetica,sans-Serif" font-size="10.00"> commonDataPostProc</text>
</g>
<!-- Node26 -->
<g id="node26" class="node">
<title>Node26</title>
<g id="a_node26"><a xlink:title=" ">
<polygon fill="white" stroke="#bfbfbf" points="1276.5,-127 1276.5,-146 1315.5,-146 1315.5,-127 1276.5,-127"/>
<text text-anchor="middle" x="1296" y="-134" font-family="Helvetica,sans-Serif" font-size="10.00">Core</text>
</a>
</g>
</g>
<!-- Node26&#45;&gt;Node1 -->
<g id="edge25" class="edge">
<title>Node26&#45;&gt;Node1</title>
<path fill="none" stroke="#9a32cd" stroke-dasharray="5,2" d="M1325.9,-133.17C1389.44,-126.51 1538.69,-114.57 1577,-144.5 1624.04,-181.25 1651.93,-381.46 1657.82,-427.88"/>
<polygon fill="#9a32cd" stroke="#9a32cd" points="1325.33,-129.71 1315.77,-134.27 1326.08,-136.67 1325.33,-129.71"/>
<text text-anchor="middle" x="1498.5" y="-147.5" font-family="Helvetica,sans-Serif" font-size="10.00"> mb_post</text>
</g>
<!-- Node27 -->
<g id="node27" class="node">
<title>Node27</title>
<g id="a_node27"><a xlink:title=" ">
<polygon fill="white" stroke="#bfbfbf" points="1221.5,-77.5 1221.5,-107.5 1370.5,-107.5 1370.5,-77.5 1221.5,-77.5"/>
<text text-anchor="start" x="1229.5" y="-95.5" font-family="Helvetica,sans-Serif" font-size="10.00">shared_ptr&lt; MortarContact</text>
<text text-anchor="middle" x="1296" y="-84.5" font-family="Helvetica,sans-Serif" font-size="10.00">Problem &gt;</text>
</a>
</g>
</g>
<!-- Node27&#45;&gt;Node1 -->
<g id="edge26" class="edge">
<title>Node27&#45;&gt;Node1</title>
<path fill="none" stroke="#9a32cd" stroke-dasharray="5,2" d="M1380.96,-87.04C1452.48,-84.25 1548.12,-85.51 1577,-109.5 1628.36,-152.16 1653.19,-378.03 1658.09,-427.79"/>
<polygon fill="#9a32cd" stroke="#9a32cd" points="1380.44,-83.56 1370.59,-87.48 1380.73,-90.55 1380.44,-83.56"/>
<text text-anchor="middle" x="1498.5" y="-112.5" font-family="Helvetica,sans-Serif" font-size="10.00"> contactProblemPtr</text>
</g>
<!-- Node28 -->
<g id="node28" class="node">
<title>Node28</title>
<g id="a_node28"><a xlink:title=" ">
<polygon fill="white" stroke="#bfbfbf" points="1268,-21 1268,-40 1324,-40 1324,-21 1268,-21"/>
<text text-anchor="middle" x="1296" y="-28" font-family="Helvetica,sans-Serif" font-size="10.00">PetscInt</text>
</a>
</g>
</g>
<!-- Node28&#45;&gt;Node1 -->
<g id="edge27" class="edge">
<title>Node28&#45;&gt;Node1</title>
<path fill="none" stroke="#9a32cd" stroke-dasharray="5,2" d="M1333.93,-18.44C1392.75,-1.77 1508.08,20.18 1577,-37.5 1639.66,-89.93 1655.96,-372.22 1658.59,-427.94"/>
<polygon fill="#9a32cd" stroke="#9a32cd" points="1332.92,-15.09 1324.31,-21.26 1334.89,-21.8 1332.92,-15.09"/>
<text text-anchor="middle" x="1498.5" y="-73.5" font-family="Helvetica,sans-Serif" font-size="10.00"> oRder</text>
<text text-anchor="middle" x="1498.5" y="-62.5" font-family="Helvetica,sans-Serif" font-size="10.00">orderLambda</text>
<text text-anchor="middle" x="1498.5" y="-51.5" font-family="Helvetica,sans-Serif" font-size="10.00">nbHoLevels</text>
<text text-anchor="middle" x="1498.5" y="-40.5" font-family="Helvetica,sans-Serif" font-size="10.00">orderContact</text>
</g>
</g>
</svg>
