<?xml version="1.0" encoding="UTF-8" standalone="no"?>
<!DOCTYPE svg PUBLIC "-//W3C//DTD SVG 1.1//EN"
 "http://www.w3.org/Graphics/SVG/1.1/DTD/svg11.dtd">
<!-- Generated by graphviz version 2.43.0 (0)
 -->
<!-- Title: ThermalElement::OpGetTriTemperatureAtGaussPts Pages: 1 -->
<svg width="922pt" height="88pt"
 viewBox="0.00 0.00 922.00 88.00" xmlns="http://www.w3.org/2000/svg" xmlns:xlink="http://www.w3.org/1999/xlink">
<g id="graph0" class="graph" transform="scale(1 1) rotate(0) translate(4 84)">
<title>ThermalElement::OpGetTriTemperatureAtGaussPts</title>
<polygon fill="white" stroke="transparent" points="-4,4 -4,-84 918,-84 918,4 -4,4"/>
<!-- Node1 -->
<g id="node1" class="node">
<title>Node1</title>
<g id="a_node1"><a xlink:title="operator to calculate temperature at Gauss pts">
<polygon fill="#bfbfbf" stroke="black" points="768,-24.5 768,-54.5 914,-54.5 914,-24.5 768,-24.5"/>
<text text-anchor="start" x="776" y="-42.5" font-family="Helvetica,sans-Serif" font-size="10.00">ThermalElement::OpGetTri</text>
<text text-anchor="middle" x="841" y="-31.5" font-family="Helvetica,sans-Serif" font-size="10.00">TemperatureAtGaussPts</text>
</a>
</g>
</g>
<!-- Node2 -->
<g id="node2" class="node">
<title>Node2</title>
<g id="a_node2"><a xlink:href="structThermalElement_1_1OpGetFieldAtGaussPts.html" target="_top" xlink:title=" ">
<polygon fill="white" stroke="black" points="543,-19 543,-60 731,-60 731,-19 543,-19"/>
<text text-anchor="start" x="551" y="-48" font-family="Helvetica,sans-Serif" font-size="10.00">ThermalElement::OpGetField</text>
<text text-anchor="start" x="551" y="-37" font-family="Helvetica,sans-Serif" font-size="10.00">AtGaussPts&lt; MoFEM::FaceElement</text>
<text text-anchor="middle" x="637" y="-26" font-family="Helvetica,sans-Serif" font-size="10.00">ForcesAndSourcesCore &gt;</text>
</a>
</g>
</g>
<!-- Node2&#45;&gt;Node1 -->
<g id="edge1" class="edge">
<title>Node2&#45;&gt;Node1</title>
<path fill="none" stroke="midnightblue" d="M741.15,-39.5C750.12,-39.5 759.08,-39.5 767.72,-39.5"/>
<polygon fill="midnightblue" stroke="midnightblue" points="741.02,-36 731.02,-39.5 741.02,-43 741.02,-36"/>
</g>
<!-- Node3 -->
<g id="node3" class="node">
<title>Node3</title>
<g id="a_node3"><a xlink:title=" ">
<polygon fill="white" stroke="#bfbfbf" points="162,-49.5 162,-79.5 356,-79.5 356,-49.5 162,-49.5"/>
<text text-anchor="start" x="170" y="-67.5" font-family="Helvetica,sans-Serif" font-size="10.00">MoFEM::FaceElementForces</text>
<text text-anchor="middle" x="259" y="-56.5" font-family="Helvetica,sans-Serif" font-size="10.00">AndSourcesCore ::UserDataOperator</text>
</a>
</g>
</g>
<!-- Node3&#45;&gt;Node2 -->
<g id="edge2" class="edge">
<title>Node3&#45;&gt;Node2</title>
<path fill="none" stroke="midnightblue" d="M366.24,-60.01C414.69,-57.67 472.78,-54.46 525,-50.5 530.79,-50.06 536.75,-49.57 542.76,-49.05"/>
<polygon fill="midnightblue" stroke="midnightblue" points="365.87,-56.52 356.05,-60.49 366.21,-63.51 365.87,-56.52"/>
</g>
<!-- Node4 -->
<g id="node4" class="node">
<title>Node4</title>
<g id="a_node4"><a xlink:href="structThermalElement_1_1OpGetFieldAtGaussPts.html" target="_top" xlink:title="operator to calculate temperature and rate of temperature at Gauss points">
<polygon fill="white" stroke="black" points="180,-0.5 180,-30.5 338,-30.5 338,-0.5 180,-0.5"/>
<text text-anchor="start" x="188" y="-18.5" font-family="Helvetica,sans-Serif" font-size="10.00">ThermalElement::OpGetField</text>
<text text-anchor="middle" x="259" y="-7.5" font-family="Helvetica,sans-Serif" font-size="10.00">AtGaussPts&lt; OP &gt;</text>
</a>
</g>
</g>
<!-- Node4&#45;&gt;Node2 -->
<g id="edge3" class="edge">
<title>Node4&#45;&gt;Node2</title>
<path fill="none" stroke="orange" stroke-dasharray="5,2" d="M348.16,-18.72C399.74,-20.89 466.11,-24.14 525,-28.5 530.79,-28.93 536.75,-29.41 542.76,-29.92"/>
<polygon fill="orange" stroke="orange" points="348.18,-15.22 338.04,-18.31 347.89,-22.22 348.18,-15.22"/>
<text text-anchor="start" x="374" y="-42.5" font-family="Helvetica,sans-Serif" font-size="10.00"> &lt; MoFEM::FaceElementForces</text>
<text text-anchor="middle" x="449.5" y="-31.5" font-family="Helvetica,sans-Serif" font-size="10.00">AndSourcesCore &gt;</text>
</g>
<!-- Node5 -->
<g id="node5" class="node">
<title>Node5</title>
<g id="a_node5"><a xlink:title=" ">
<polygon fill="white" stroke="#bfbfbf" points="0,-6 0,-25 125,-25 125,-6 0,-6"/>
<text text-anchor="middle" x="62.5" y="-13" font-family="Helvetica,sans-Serif" font-size="10.00">OP::UserDataOperator</text>
</a>
</g>
</g>
<!-- Node5&#45;&gt;Node4 -->
<g id="edge4" class="edge">
<title>Node5&#45;&gt;Node4</title>
<path fill="none" stroke="midnightblue" d="M135.4,-15.5C149.84,-15.5 165.08,-15.5 179.73,-15.5"/>
<polygon fill="midnightblue" stroke="midnightblue" points="135.04,-12 125.04,-15.5 135.04,-19 135.04,-12"/>
</g>
</g>
</svg>
