<?xml version="1.0" encoding="UTF-8" standalone="no"?>
<!DOCTYPE svg PUBLIC "-//W3C//DTD SVG 1.1//EN"
 "http://www.w3.org/Graphics/SVG/1.1/DTD/svg11.dtd">
<!-- Generated by graphviz version 9.0.0 (20230911.1827)
 -->
<!-- Title: BCs_RVELagrange_Trac::OpRVEBCsRhs_Assemble Pages: 1 -->
<!--zoomable 203 -->
<svg id="main" version="1.1" xmlns="http://www.w3.org/2000/svg" xmlns:xlink="http://www.w3.org/1999/xlink" xml:space="preserve" onload="init(evt)">
<style type="text/css"><![CDATA[
.edge:hover path { stroke: red; }
.edge:hover polygon { stroke: red; fill: red; }
]]></style>
<script type="text/javascript"><![CDATA[
var edges = document.getElementsByTagName('g');
if (edges && edges.length) {
  for (var i=0;i<edges.length;i++) {
    if (edges[i].id.substr(0,4)=='edge') {
      edges[i].setAttribute('class','edge');
    }
  }
}
]]></script>
        <defs>
                <circle id="rim" cx="0" cy="0" r="7"/>
                <circle id="rim2" cx="0" cy="0" r="3.5"/>
                <g id="zoomPlus">
                        <use xlink:href="#rim" fill="#404040">
                                <set attributeName="fill" to="#808080" begin="zoomplus.mouseover" end="zoomplus.mouseout"/>
                        </use>
                        <path d="M-4,0h8M0,-4v8" fill="none" stroke="white" stroke-width="1.5" pointer-events="none"/>
                </g>
                <g id="zoomMin">
                        <use xlink:href="#rim" fill="#404040">
                                <set attributeName="fill" to="#808080" begin="zoomminus.mouseover" end="zoomminus.mouseout"/>
                        </use>
                        <path d="M-4,0h8" fill="none" stroke="white" stroke-width="1.5" pointer-events="none"/>
                </g>
                <g id="dirArrow">
                        <path fill="none" stroke="white" stroke-width="1.5" d="M0,-3.0v7 M-2.5,-0.5L0,-3.0L2.5,-0.5"/>
                </g>
               <g id="resetDef">
                       <use xlink:href="#rim2" fill="#404040">
                               <set attributeName="fill" to="#808080" begin="reset.mouseover" end="reset.mouseout"/>
                       </use>
               </g>
        </defs>

<script type="text/javascript">
var viewWidth = 548;
var viewHeight = 203;
var sectionId = 'dynsection-1';
</script>
<script xlink:href="svgpan.js"/>
<svg id="graph" class="graph">
<g id="viewport">
<title>BCs_RVELagrange_Trac::OpRVEBCsRhs_Assemble</title>
<!-- Node1 -->
<g id="node1" class="node">
<title>Node1</title>
<g id="a_node1"><a xlink:title="\biref operator to calculate the RHS of the constrain for the RVE boundary conditions">
<polygon fill="#999999" stroke="#666666" points="540,-108.88 398,-108.88 398,-78.38 540,-78.38 540,-108.88"/>
<text text-anchor="start" x="406" y="-95.38" font-family="Helvetica,sans-Serif" font-size="10.00">BCs_RVELagrange_Trac</text>
<text text-anchor="middle" x="469" y="-84.12" font-family="Helvetica,sans-Serif" font-size="10.00">::OpRVEBCsRhs_Assemble</text>
</a>
</g>
</g>
<!-- Node2 -->
<g id="node2" class="node">
<title>Node2</title>
<g id="a_node2"><a xlink:title=" ">
<polygon fill="white" stroke="#666666" points="299,-194.88 142,-194.88 142,-164.38 299,-164.38 299,-194.88"/>
<text text-anchor="start" x="150" y="-181.38" font-family="Helvetica,sans-Serif" font-size="10.00">FaceElementForcesAndSources</text>
<text text-anchor="middle" x="220.5" y="-170.12" font-family="Helvetica,sans-Serif" font-size="10.00">Core::UserDataOperator</text>
</a>
</g>
</g>
<!-- Node2&#45;&gt;Node1 -->
<g id="edge1" class="edge">
<title>Node2&#45;&gt;Node1</title>
<path fill="none" stroke="#63b8ff" d="M294.15,-160.91C321.36,-153.29 352.37,-143.85 380,-133.62 399.2,-126.52 420.09,-117.1 436.69,-109.19"/>
<polygon fill="#63b8ff" stroke="#63b8ff" points="293.3,-157.52 284.59,-163.56 295.16,-164.26 293.3,-157.52"/>
</g>
<!-- Node3 -->
<g id="node3" class="node">
<title>Node3</title>
<g id="a_node3"><a xlink:title=" ">
<polygon fill="white" stroke="#666666" points="264.12,-146.25 176.88,-146.25 176.88,-127 264.12,-127 264.12,-146.25"/>
<text text-anchor="middle" x="220.5" y="-132.75" font-family="Helvetica,sans-Serif" font-size="10.00">RVEBC_Data &amp;</text>
</a>
</g>
</g>
<!-- Node3&#45;&gt;Node1 -->
<g id="edge2" class="edge">
<title>Node3&#45;&gt;Node1</title>
<path fill="none" stroke="#9a32cd" stroke-dasharray="5,2" d="M275.64,-127.18C311.48,-120.93 358.83,-112.67 397.59,-105.91"/>
<polygon fill="#9a32cd" stroke="#9a32cd" points="275.18,-123.71 265.93,-128.87 276.38,-130.6 275.18,-123.71"/>
<text text-anchor="middle" x="348.5" y="-120.38" font-family="Helvetica,sans-Serif" font-size="10.00"> dAta</text>
</g>
<!-- Node4 -->
<g id="node4" class="node">
<title>Node4</title>
<g id="a_node4"><a xlink:href="struct_b_cs___r_v_e_lagrange___trac_1_1_common_data.html" target="_top" xlink:title=" ">
<polygon fill="white" stroke="#666666" points="283.62,-108.88 157.38,-108.88 157.38,-78.38 283.62,-78.38 283.62,-108.88"/>
<text text-anchor="start" x="165.38" y="-95.38" font-family="Helvetica,sans-Serif" font-size="10.00">BCs_RVELagrange_Trac</text>
<text text-anchor="middle" x="220.5" y="-84.12" font-family="Helvetica,sans-Serif" font-size="10.00">::CommonData</text>
</a>
</g>
</g>
<!-- Node4&#45;&gt;Node1 -->
<g id="edge3" class="edge">
<title>Node4&#45;&gt;Node1</title>
<path fill="none" stroke="#9a32cd" stroke-dasharray="5,2" d="M295.25,-93.62C327.71,-93.62 365.66,-93.62 397.71,-93.62"/>
<polygon fill="#9a32cd" stroke="#9a32cd" points="295.53,-90.13 285.53,-93.63 295.53,-97.13 295.53,-90.13"/>
<text text-anchor="middle" x="348.5" y="-95.38" font-family="Helvetica,sans-Serif" font-size="10.00"> commonData</text>
</g>
<!-- Node5 -->
<g id="node5" class="node">
<title>Node5</title>
<g id="a_node5"><a xlink:title=" ">
<polygon fill="white" stroke="#666666" points="73.75,-103.25 0,-103.25 0,-84 73.75,-84 73.75,-103.25"/>
<text text-anchor="middle" x="36.88" y="-89.75" font-family="Helvetica,sans-Serif" font-size="10.00">MatrixDouble</text>
</a>
</g>
</g>
<!-- Node5&#45;&gt;Node4 -->
<g id="edge4" class="edge">
<title>Node5&#45;&gt;Node4</title>
<path fill="none" stroke="#9a32cd" stroke-dasharray="5,2" d="M85.53,-93.62C107.43,-93.62 133.68,-93.62 157.12,-93.62"/>
<polygon fill="#9a32cd" stroke="#9a32cd" points="85.71,-90.13 75.71,-93.63 85.71,-97.13 85.71,-90.13"/>
<text text-anchor="middle" x="107.88" y="-95.38" font-family="Helvetica,sans-Serif" font-size="10.00"> D_mat</text>
</g>
<!-- Node6 -->
<g id="node6" class="node">
<title>Node6</title>
<g id="a_node6"><a xlink:title=" ">
<polygon fill="white" stroke="#666666" points="264.5,-60.25 176.5,-60.25 176.5,-41 264.5,-41 264.5,-60.25"/>
<text text-anchor="middle" x="220.5" y="-46.75" font-family="Helvetica,sans-Serif" font-size="10.00">vector&lt; Vec &gt; &amp;</text>
</a>
</g>
</g>
<!-- Node6&#45;&gt;Node1 -->
<g id="edge5" class="edge">
<title>Node6&#45;&gt;Node1</title>
<path fill="none" stroke="#9a32cd" stroke-dasharray="5,2" d="M275.93,-60.12C311.78,-66.37 359.07,-74.62 397.75,-81.37"/>
<polygon fill="#9a32cd" stroke="#9a32cd" points="276.66,-56.69 266.21,-58.42 275.46,-63.59 276.66,-56.69"/>
<text text-anchor="middle" x="348.5" y="-78.38" font-family="Helvetica,sans-Serif" font-size="10.00"> F</text>
</g>
<!-- Node7 -->
<g id="node7" class="node">
<title>Node7</title>
<g id="a_node7"><a xlink:title=" ">
<polygon fill="white" stroke="#666666" points="258.12,-19.25 182.88,-19.25 182.88,0 258.12,0 258.12,-19.25"/>
<text text-anchor="middle" x="220.5" y="-5.75" font-family="Helvetica,sans-Serif" font-size="10.00">VectorDouble</text>
</a>
</g>
</g>
<!-- Node7&#45;&gt;Node1 -->
<g id="edge6" class="edge">
<title>Node7&#45;&gt;Node1</title>
<path fill="none" stroke="#9a32cd" stroke-dasharray="5,2" d="M269.67,-14.85C301.71,-19.37 344.32,-27.41 380,-41.12 404.24,-50.45 429.46,-66.21 446.65,-78.04"/>
<polygon fill="#9a32cd" stroke="#9a32cd" points="270.25,-11.39 259.87,-13.54 269.32,-18.33 270.25,-11.39"/>
<text text-anchor="middle" x="348.5" y="-54.62" font-family="Helvetica,sans-Serif" font-size="10.00"> applied_strain</text>
<text text-anchor="middle" x="348.5" y="-43.38" font-family="Helvetica,sans-Serif" font-size="10.00">f</text>
</g>
</g>
</svg>
        <g id="navigator" transform="translate(0 0)" fill="#404254">
                <rect fill="#f2f5e9" fill-opacity="0.5" stroke="#606060" stroke-width=".5" x="0" y="0" width="60" height="60"/>
                <use id="zoomplus" xlink:href="#zoomPlus" x="17" y="9" onmousedown="handleZoom(evt,'in')"/>
                <use id="zoomminus" xlink:href="#zoomMin" x="42" y="9" onmousedown="handleZoom(evt,'out')"/>
                <use id="reset" xlink:href="#resetDef" x="30" y="36" onmousedown="handleReset()"/>
                <g id="arrowUp" xlink:href="#dirArrow" transform="translate(30 24)" onmousedown="handlePan(0,-1)">
                  <use xlink:href="#rim" fill="#404040">
                        <set attributeName="fill" to="#808080" begin="arrowUp.mouseover" end="arrowUp.mouseout"/>
                  </use>
                  <path fill="none" stroke="white" stroke-width="1.5" d="M0,-3.0v7 M-2.5,-0.5L0,-3.0L2.5,-0.5"/>
                </g>
                <g id="arrowRight" xlink:href="#dirArrow" transform="rotate(90) translate(36 -43)" onmousedown="handlePan(1,0)">
                  <use xlink:href="#rim" fill="#404040">
                        <set attributeName="fill" to="#808080" begin="arrowRight.mouseover" end="arrowRight.mouseout"/>
                  </use>
                  <path fill="none" stroke="white" stroke-width="1.5" d="M0,-3.0v7 M-2.5,-0.5L0,-3.0L2.5,-0.5"/>
                </g>
                <g id="arrowDown" xlink:href="#dirArrow" transform="rotate(180) translate(-30 -48)" onmousedown="handlePan(0,1)">
                  <use xlink:href="#rim" fill="#404040">
                        <set attributeName="fill" to="#808080" begin="arrowDown.mouseover" end="arrowDown.mouseout"/>
                  </use>
                  <path fill="none" stroke="white" stroke-width="1.5" d="M0,-3.0v7 M-2.5,-0.5L0,-3.0L2.5,-0.5"/>
                </g>
                <g id="arrowLeft" xlink:href="#dirArrow" transform="rotate(270) translate(-36 17)" onmousedown="handlePan(-1,0)">
                  <use xlink:href="#rim" fill="#404040">
                        <set attributeName="fill" to="#808080" begin="arrowLeft.mouseover" end="arrowLeft.mouseout"/>
                  </use>
                  <path fill="none" stroke="white" stroke-width="1.5" d="M0,-3.0v7 M-2.5,-0.5L0,-3.0L2.5,-0.5"/>
                </g>
        </g>
        <svg viewBox="0 0 15 15" width="100%" height="30px" preserveAspectRatio="xMaxYMin meet">
         <g id="arrow_out" transform="scale(0.3 0.3)">
          <a xlink:href="struct_b_cs___r_v_e_lagrange___trac_1_1_op_r_v_e_b_cs_rhs___assemble__coll__graph_org.svg" target="_base">
           <rect id="button" ry="5" rx="5" y="6" x="6" height="38" width="38"
                fill="#f2f5e9" fill-opacity="0.5" stroke="#606060" stroke-width="1.0"/>
           <path id="arrow"
             d="M 11.500037,31.436501 C 11.940474,20.09759 22.043105,11.32322 32.158766,21.979434 L 37.068811,17.246167 C 37.068811,17.246167 37.088388,32 37.088388,32 L 22.160133,31.978069 C 22.160133,31.978069 26.997745,27.140456 26.997745,27.140456 C 18.528582,18.264221 13.291696,25.230495 11.500037,31.436501 z"
             style="fill:#404040;"/>
          </a>
         </g>
        </svg>
</svg>
