<?xml version="1.0" encoding="UTF-8" standalone="no"?>
<!DOCTYPE svg PUBLIC "-//W3C//DTD SVG 1.1//EN"
 "http://www.w3.org/Graphics/SVG/1.1/DTD/svg11.dtd">
<!-- Generated by graphviz version 9.0.0 (20230911.1827)
 -->
<!-- Title: MoFEM::OpMixVecTimesDivLambdaImpl&lt; SPACE_DIM, GAUSS, OpBase &gt; Pages: 1 -->
<!--zoomable 498 -->
<svg id="main" version="1.1" xmlns="http://www.w3.org/2000/svg" xmlns:xlink="http://www.w3.org/1999/xlink" xml:space="preserve" onload="init(evt)">
<style type="text/css"><![CDATA[
.edge:hover path { stroke: red; }
.edge:hover polygon { stroke: red; fill: red; }
]]></style>
<script type="text/javascript"><![CDATA[
var edges = document.getElementsByTagName('g');
if (edges && edges.length) {
  for (var i=0;i<edges.length;i++) {
    if (edges[i].id.substr(0,4)=='edge') {
      edges[i].setAttribute('class','edge');
    }
  }
}
]]></script>
        <defs>
                <circle id="rim" cx="0" cy="0" r="7"/>
                <circle id="rim2" cx="0" cy="0" r="3.5"/>
                <g id="zoomPlus">
                        <use xlink:href="#rim" fill="#404040">
                                <set attributeName="fill" to="#808080" begin="zoomplus.mouseover" end="zoomplus.mouseout"/>
                        </use>
                        <path d="M-4,0h8M0,-4v8" fill="none" stroke="white" stroke-width="1.5" pointer-events="none"/>
                </g>
                <g id="zoomMin">
                        <use xlink:href="#rim" fill="#404040">
                                <set attributeName="fill" to="#808080" begin="zoomminus.mouseover" end="zoomminus.mouseout"/>
                        </use>
                        <path d="M-4,0h8" fill="none" stroke="white" stroke-width="1.5" pointer-events="none"/>
                </g>
                <g id="dirArrow">
                        <path fill="none" stroke="white" stroke-width="1.5" d="M0,-3.0v7 M-2.5,-0.5L0,-3.0L2.5,-0.5"/>
                </g>
               <g id="resetDef">
                       <use xlink:href="#rim2" fill="#404040">
                               <set attributeName="fill" to="#808080" begin="reset.mouseover" end="reset.mouseout"/>
                       </use>
               </g>
        </defs>

<script type="text/javascript">
var viewWidth = 667;
var viewHeight = 498;
var sectionId = 'dynsection-1';
</script>
<script xlink:href="svgpan.js"/>
<svg id="graph" class="graph">
<g id="viewport">
<title>MoFEM::OpMixVecTimesDivLambdaImpl&lt; SPACE_DIM, GAUSS, OpBase &gt;</title>
<!-- Node1 -->
<g id="node1" class="node">
<title>Node1</title>
<g id="a_node1"><a xlink:title=" ">
<polygon fill="#999999" stroke="#666666" points="659.25,-160.5 467,-160.5 467,-130 659.25,-130 659.25,-160.5"/>
<text text-anchor="start" x="475" y="-147" font-family="Helvetica,sans-Serif" font-size="10.00">MoFEM::OpMixVecTimesDivLambda</text>
<text text-anchor="middle" x="563.12" y="-135.75" font-family="Helvetica,sans-Serif" font-size="10.00">Impl&lt; SPACE_DIM, GAUSS, OpBase &gt;</text>
</a>
</g>
</g>
<!-- Node2 -->
<g id="node2" class="node">
<title>Node2</title>
<g id="a_node2"><a xlink:href="struct_mo_f_e_m_1_1_op_base_impl.html" target="_top" xlink:title=" ">
<polygon fill="white" stroke="#666666" points="348.5,-240.88 297.25,-240.88 297.25,-221.62 348.5,-221.62 348.5,-240.88"/>
<text text-anchor="middle" x="322.88" y="-227.38" font-family="Helvetica,sans-Serif" font-size="10.00">OpBase</text>
</a>
</g>
</g>
<!-- Node2&#45;&gt;Node1 -->
<g id="edge1" class="edge">
<title>Node2&#45;&gt;Node1</title>
<path fill="none" stroke="#63b8ff" d="M359.59,-218.36C402.05,-203.03 472.89,-177.46 518.54,-160.98"/>
<polygon fill="#63b8ff" stroke="#63b8ff" points="358.56,-215.01 350.35,-221.7 360.94,-221.59 358.56,-215.01"/>
</g>
<!-- Node3 -->
<g id="node3" class="node">
<title>Node3</title>
<g id="a_node3"><a xlink:title=" ">
<polygon fill="white" stroke="#666666" points="85.75,-488.88 42.75,-488.88 42.75,-469.62 85.75,-469.62 85.75,-488.88"/>
<text text-anchor="middle" x="64.25" y="-475.38" font-family="Helvetica,sans-Serif" font-size="10.00">EleOp</text>
</a>
</g>
</g>
<!-- Node3&#45;&gt;Node2 -->
<g id="edge2" class="edge">
<title>Node3&#45;&gt;Node2</title>
<path fill="none" stroke="#63b8ff" d="M97.28,-485.72C135.98,-491.58 201.03,-494.95 242.5,-462.25 315.09,-405.01 321.61,-277.74 321.95,-241.22"/>
<polygon fill="#63b8ff" stroke="#63b8ff" points="98.11,-482.31 87.67,-484.1 96.95,-489.21 98.11,-482.31"/>
</g>
<!-- Node4 -->
<g id="node4" class="node">
<title>Node4</title>
<g id="a_node4"><a xlink:title=" ">
<polygon fill="white" stroke="#666666" points="128.5,-451.88 0,-451.88 0,-432.62 128.5,-432.62 128.5,-451.88"/>
<text text-anchor="middle" x="64.25" y="-438.38" font-family="Helvetica,sans-Serif" font-size="10.00">function&lt; double(double)&gt;</text>
</a>
</g>
</g>
<!-- Node4&#45;&gt;Node2 -->
<g id="edge3" class="edge">
<title>Node4&#45;&gt;Node2</title>
<path fill="none" stroke="#9a32cd" stroke-dasharray="5,2" d="M140.32,-447.68C174.57,-446.41 213.8,-439.24 242.5,-417.25 302.14,-371.55 317.54,-272.28 320.98,-240.94"/>
<polygon fill="#9a32cd" stroke="#9a32cd" points="140.36,-444.18 130.43,-447.87 140.49,-451.18 140.36,-444.18"/>
<text text-anchor="middle" x="194.5" y="-449" font-family="Helvetica,sans-Serif" font-size="10.00"> timeScalingFun</text>
</g>
<!-- Node5 -->
<g id="node5" class="node">
<title>Node5</title>
<g id="a_node5"><a xlink:title=" ">
<polygon fill="white" stroke="#666666" points="121.75,-414.5 6.75,-414.5 6.75,-384 121.75,-384 121.75,-414.5"/>
<text text-anchor="start" x="14.75" y="-401" font-family="Helvetica,sans-Serif" font-size="10.00">function&lt; double(const</text>
<text text-anchor="middle" x="64.25" y="-389.75" font-family="Helvetica,sans-Serif" font-size="10.00"> FEMethod *fe_ptr)&gt;</text>
</a>
</g>
</g>
<!-- Node5&#45;&gt;Node2 -->
<g id="edge4" class="edge">
<title>Node5&#45;&gt;Node2</title>
<path fill="none" stroke="#9a32cd" stroke-dasharray="5,2" d="M133.41,-403.07C168.73,-401.83 210.96,-394.99 242.5,-373.25 290.64,-340.08 312.83,-267.71 319.56,-241.22"/>
<polygon fill="#9a32cd" stroke="#9a32cd" points="133.65,-399.57 123.72,-403.26 133.79,-406.56 133.65,-399.57"/>
<text text-anchor="middle" x="194.5" y="-404" font-family="Helvetica,sans-Serif" font-size="10.00"> feScalingFun</text>
</g>
<!-- Node6 -->
<g id="node6" class="node">
<title>Node6</title>
<g id="a_node6"><a xlink:title=" ">
<polygon fill="white" stroke="#666666" points="118.38,-365.88 10.12,-365.88 10.12,-346.62 118.38,-346.62 118.38,-365.88"/>
<text text-anchor="middle" x="64.25" y="-352.38" font-family="Helvetica,sans-Serif" font-size="10.00">shared_ptr&lt; Range &gt;</text>
</a>
</g>
</g>
<!-- Node6&#45;&gt;Node2 -->
<g id="edge5" class="edge">
<title>Node6&#45;&gt;Node2</title>
<path fill="none" stroke="#9a32cd" stroke-dasharray="5,2" d="M129.81,-359.98C165.19,-359.25 208.6,-353.61 242.5,-334.25 281.32,-312.08 307.57,-262.59 317.48,-241.3"/>
<polygon fill="#9a32cd" stroke="#9a32cd" points="130.11,-356.48 120.14,-360.05 130.16,-363.48 130.11,-356.48"/>
<text text-anchor="middle" x="194.5" y="-360" font-family="Helvetica,sans-Serif" font-size="10.00"> entsPtr</text>
</g>
<!-- Node7 -->
<g id="node7" class="node">
<title>Node7</title>
<g id="a_node7"><a xlink:title=" ">
<polygon fill="white" stroke="#666666" points="127.75,-328.88 0.75,-328.88 0.75,-309.62 127.75,-309.62 127.75,-328.88"/>
<text text-anchor="middle" x="64.25" y="-315.38" font-family="Helvetica,sans-Serif" font-size="10.00">static MatSetValuesHook</text>
</a>
</g>
</g>
<!-- Node7&#45;&gt;Node2 -->
<g id="edge6" class="edge">
<title>Node7&#45;&gt;Node2</title>
<path fill="none" stroke="#9a32cd" stroke-dasharray="5,2" d="M139.24,-321.18C172.04,-319.58 210.4,-314.25 242.5,-300.25 273.3,-286.82 300.83,-257.05 313.88,-241.37"/>
<polygon fill="#9a32cd" stroke="#9a32cd" points="139.26,-317.68 129.4,-321.54 139.52,-324.67 139.26,-317.68"/>
<text text-anchor="middle" x="194.5" y="-322" font-family="Helvetica,sans-Serif" font-size="10.00"> matSetValuesHook</text>
</g>
<!-- Node8 -->
<g id="node8" class="node">
<title>Node8</title>
<g id="a_node8"><a xlink:title=" ">
<polygon fill="white" stroke="#666666" points="78.65,-240.88 49.85,-240.88 49.85,-221.62 78.65,-221.62 78.65,-240.88"/>
<text text-anchor="middle" x="64.25" y="-227.38" font-family="Helvetica,sans-Serif" font-size="10.00">int</text>
</a>
</g>
</g>
<!-- Node8&#45;&gt;Node2 -->
<g id="edge7" class="edge">
<title>Node8&#45;&gt;Node2</title>
<path fill="none" stroke="#9a32cd" stroke-dasharray="5,2" d="M90.47,-231.25C139.67,-231.25 247.88,-231.25 296.88,-231.25"/>
<polygon fill="#9a32cd" stroke="#9a32cd" points="90.56,-227.75 80.56,-231.25 90.56,-234.75 90.56,-227.75"/>
<text text-anchor="middle" x="194.5" y="-289.25" font-family="Helvetica,sans-Serif" font-size="10.00"> colSide</text>
<text text-anchor="middle" x="194.5" y="-278" font-family="Helvetica,sans-Serif" font-size="10.00">nbCols</text>
<text text-anchor="middle" x="194.5" y="-266.75" font-family="Helvetica,sans-Serif" font-size="10.00">nbIntegrationPts</text>
<text text-anchor="middle" x="194.5" y="-255.5" font-family="Helvetica,sans-Serif" font-size="10.00">nbRowBaseFunctions</text>
<text text-anchor="middle" x="194.5" y="-244.25" font-family="Helvetica,sans-Serif" font-size="10.00">nbRows</text>
<text text-anchor="middle" x="194.5" y="-233" font-family="Helvetica,sans-Serif" font-size="10.00">rowSide</text>
</g>
<!-- Node9 -->
<g id="node9" class="node">
<title>Node9</title>
<g id="a_node9"><a xlink:href="class_entity_type.html" target="_top" xlink:title=" ">
<polygon fill="white" stroke="#666666" points="95.5,-194.88 33,-194.88 33,-175.62 95.5,-175.62 95.5,-194.88"/>
<text text-anchor="middle" x="64.25" y="-181.38" font-family="Helvetica,sans-Serif" font-size="10.00">EntityType</text>
</a>
</g>
</g>
<!-- Node9&#45;&gt;Node2 -->
<g id="edge8" class="edge">
<title>Node9&#45;&gt;Node2</title>
<path fill="none" stroke="#9a32cd" stroke-dasharray="5,2" d="M107.1,-187.34C143.27,-189.74 196.8,-194.73 242.5,-204.75 261.09,-208.83 281.44,-215.67 296.88,-221.38"/>
<polygon fill="#9a32cd" stroke="#9a32cd" points="107.7,-183.87 97.5,-186.74 107.27,-190.86 107.7,-183.87"/>
<text text-anchor="middle" x="194.5" y="-217.25" font-family="Helvetica,sans-Serif" font-size="10.00"> colType</text>
<text text-anchor="middle" x="194.5" y="-206" font-family="Helvetica,sans-Serif" font-size="10.00">rowType</text>
</g>
<!-- Node10 -->
<g id="node10" class="node">
<title>Node10</title>
<g id="a_node10"><a xlink:href="classbool.html" target="_top" xlink:title=" ">
<polygon fill="white" stroke="#666666" points="81.25,-148.88 47.25,-148.88 47.25,-129.62 81.25,-129.62 81.25,-148.88"/>
<text text-anchor="middle" x="64.25" y="-135.38" font-family="Helvetica,sans-Serif" font-size="10.00">bool</text>
</a>
</g>
</g>
<!-- Node10&#45;&gt;Node2 -->
<g id="edge9" class="edge">
<title>Node10&#45;&gt;Node2</title>
<path fill="none" stroke="#9a32cd" stroke-dasharray="5,2" d="M92.61,-135.92C129.89,-132.84 197.19,-132.67 242.5,-163.75 256.12,-173.09 248.9,-184.5 260.5,-196.25 270.93,-206.81 285.21,-215.21 297.37,-221.13"/>
<polygon fill="#9a32cd" stroke="#9a32cd" points="92.74,-132.39 83.13,-136.84 93.42,-139.35 92.74,-132.39"/>
<text text-anchor="middle" x="194.5" y="-176.25" font-family="Helvetica,sans-Serif" font-size="10.00"> assembleTranspose</text>
<text text-anchor="middle" x="194.5" y="-165" font-family="Helvetica,sans-Serif" font-size="10.00">onlyTranspose</text>
</g>
<!-- Node11 -->
<g id="node11" class="node">
<title>Node11</title>
<g id="a_node11"><a xlink:href="class_u_blas_matrix_3_01double_01_4.html" target="_top" xlink:title=" ">
<polygon fill="white" stroke="#666666" points="122.5,-104.88 6,-104.88 6,-85.62 122.5,-85.62 122.5,-104.88"/>
<text text-anchor="middle" x="64.25" y="-91.38" font-family="Helvetica,sans-Serif" font-size="10.00">UBlasMatrix&lt; double &gt;</text>
</a>
</g>
</g>
<!-- Node11&#45;&gt;Node2 -->
<g id="edge10" class="edge">
<title>Node11&#45;&gt;Node2</title>
<path fill="none" stroke="#9a32cd" stroke-dasharray="5,2" d="M120.59,-83.57C159.33,-78.82 209.82,-79.98 242.5,-108.75 272.3,-134.99 237.18,-164.12 260.5,-196.25 269.43,-208.56 284.11,-217.16 296.87,-222.75"/>
<polygon fill="#9a32cd" stroke="#9a32cd" points="120.4,-80.07 110.98,-84.92 121.37,-87 120.4,-80.07"/>
<text text-anchor="middle" x="194.5" y="-121.25" font-family="Helvetica,sans-Serif" font-size="10.00"> locMat</text>
<text text-anchor="middle" x="194.5" y="-110" font-family="Helvetica,sans-Serif" font-size="10.00">locMatTranspose</text>
</g>
<!-- Node12 -->
<g id="node12" class="node">
<title>Node12</title>
<g id="a_node12"><a xlink:href="class_u_blas_vector_3_01double_01_4.html" target="_top" xlink:title=" ">
<polygon fill="white" stroke="#666666" points="123.25,-67.88 5.25,-67.88 5.25,-48.62 123.25,-48.62 123.25,-67.88"/>
<text text-anchor="middle" x="64.25" y="-54.38" font-family="Helvetica,sans-Serif" font-size="10.00">UBlasVector&lt; double &gt;</text>
</a>
</g>
</g>
<!-- Node12&#45;&gt;Node2 -->
<g id="edge11" class="edge">
<title>Node12&#45;&gt;Node2</title>
<path fill="none" stroke="#9a32cd" stroke-dasharray="5,2" d="M110.43,-45.77C150.3,-37.75 207.39,-34.03 242.5,-66 285.71,-105.34 227.75,-147.85 260.5,-196.25 269.09,-208.95 283.93,-217.59 296.86,-223.11"/>
<polygon fill="#9a32cd" stroke="#9a32cd" points="109.91,-42.3 100.89,-47.86 111.41,-49.14 109.91,-42.3"/>
<text text-anchor="middle" x="194.5" y="-67" font-family="Helvetica,sans-Serif" font-size="10.00"> locF</text>
</g>
<!-- Node13 -->
<g id="node13" class="node">
<title>Node13</title>
<g id="a_node13"><a xlink:title=" ">
<polygon fill="white" stroke="#666666" points="385.25,-187.5 260.5,-187.5 260.5,-157 385.25,-157 385.25,-187.5"/>
<text text-anchor="start" x="268.5" y="-174" font-family="Helvetica,sans-Serif" font-size="10.00">shared_ptr&lt; UBlasMatrix</text>
<text text-anchor="middle" x="322.88" y="-162.75" font-family="Helvetica,sans-Serif" font-size="10.00">&lt; double &gt; &gt;</text>
</a>
</g>
</g>
<!-- Node13&#45;&gt;Node1 -->
<g id="edge12" class="edge">
<title>Node13&#45;&gt;Node1</title>
<path fill="none" stroke="#9a32cd" stroke-dasharray="5,2" d="M396.8,-163.99C418.79,-161.49 443.28,-158.72 466.52,-156.08"/>
<polygon fill="#9a32cd" stroke="#9a32cd" points="396.59,-160.49 387.04,-165.09 397.37,-167.44 396.59,-160.49"/>
<text text-anchor="middle" x="426.12" y="-164" font-family="Helvetica,sans-Serif" font-size="10.00"> matVals</text>
</g>
<!-- Node14 -->
<g id="node14" class="node">
<title>Node14</title>
<g id="a_node14"><a xlink:title=" ">
<polygon fill="white" stroke="#666666" points="380.38,-139.12 265.38,-139.12 265.38,-97.38 380.38,-97.38 380.38,-139.12"/>
<text text-anchor="start" x="273.38" y="-125.62" font-family="Helvetica,sans-Serif" font-size="10.00">function&lt; double(const</text>
<text text-anchor="start" x="273.38" y="-114.38" font-family="Helvetica,sans-Serif" font-size="10.00"> double, const double,</text>
<text text-anchor="middle" x="322.88" y="-103.12" font-family="Helvetica,sans-Serif" font-size="10.00"> const double)&gt;</text>
</a>
</g>
</g>
<!-- Node14&#45;&gt;Node1 -->
<g id="edge13" class="edge">
<title>Node14&#45;&gt;Node1</title>
<path fill="none" stroke="#9a32cd" stroke-dasharray="5,2" d="M391.8,-125.95C415.1,-128.59 441.63,-131.59 466.69,-134.44"/>
<polygon fill="#9a32cd" stroke="#9a32cd" points="392.47,-122.5 382.14,-124.85 391.69,-129.46 392.47,-122.5"/>
<text text-anchor="middle" x="426.12" y="-133" font-family="Helvetica,sans-Serif" font-size="10.00"> betaCoeff</text>
</g>
<!-- Node15 -->
<g id="node15" class="node">
<title>Node15</title>
<g id="a_node15"><a xlink:href="class_f_tensor_1_1_index.html" target="_top" xlink:title=" ">
<polygon fill="white" stroke="#666666" points="372.88,-47.5 272.88,-47.5 272.88,-17 372.88,-17 372.88,-47.5"/>
<text text-anchor="start" x="280.88" y="-34" font-family="Helvetica,sans-Serif" font-size="10.00">FTensor::Index&lt; &#39;i&#39;,</text>
<text text-anchor="middle" x="322.88" y="-22.75" font-family="Helvetica,sans-Serif" font-size="10.00"> SPACE_DIM &gt;</text>
</a>
</g>
</g>
<!-- Node15&#45;&gt;Node1 -->
<g id="edge14" class="edge">
<title>Node15&#45;&gt;Node1</title>
<path fill="none" stroke="#9a32cd" stroke-dasharray="5,2" d="M367.11,-52.76C413.79,-74.9 487.1,-109.67 529.28,-129.67"/>
<polygon fill="#9a32cd" stroke="#9a32cd" points="368.91,-49.73 358.37,-48.61 365.91,-56.06 368.91,-49.73"/>
<text text-anchor="middle" x="426.12" y="-90" font-family="Helvetica,sans-Serif" font-size="10.00"> i</text>
</g>
<!-- Node16 -->
<g id="node16" class="node">
<title>Node16</title>
<g id="a_node16"><a xlink:href="class_f_tensor_1_1_index.html" target="_top" xlink:title=" ">
<polygon fill="white" stroke="#666666" points="112,-30.5 16.5,-30.5 16.5,0 112,0 112,-30.5"/>
<text text-anchor="start" x="24.5" y="-17" font-family="Helvetica,sans-Serif" font-size="10.00">FTensor::Index&lt; i,</text>
<text text-anchor="middle" x="64.25" y="-5.75" font-family="Helvetica,sans-Serif" font-size="10.00"> Dim &gt;</text>
</a>
</g>
</g>
<!-- Node16&#45;&gt;Node15 -->
<g id="edge15" class="edge">
<title>Node16&#45;&gt;Node15</title>
<path fill="none" stroke="orange" stroke-dasharray="5,2" d="M123.62,-17.93C158.2,-19.65 202.87,-22.1 242.5,-25 252.3,-25.72 262.77,-26.59 272.78,-27.49"/>
<polygon fill="orange" stroke="orange" points="123.97,-14.44 113.81,-17.45 123.63,-21.43 123.97,-14.44"/>
<text text-anchor="middle" x="194.5" y="-27" font-family="Helvetica,sans-Serif" font-size="10.00"> &lt; &#39;i&#39;, SPACE_DIM &gt;</text>
</g>
</g>
</svg>
        <g id="navigator" transform="translate(0 0)" fill="#404254">
                <rect fill="#f2f5e9" fill-opacity="0.5" stroke="#606060" stroke-width=".5" x="0" y="0" width="60" height="60"/>
                <use id="zoomplus" xlink:href="#zoomPlus" x="17" y="9" onmousedown="handleZoom(evt,'in')"/>
                <use id="zoomminus" xlink:href="#zoomMin" x="42" y="9" onmousedown="handleZoom(evt,'out')"/>
                <use id="reset" xlink:href="#resetDef" x="30" y="36" onmousedown="handleReset()"/>
                <g id="arrowUp" xlink:href="#dirArrow" transform="translate(30 24)" onmousedown="handlePan(0,-1)">
                  <use xlink:href="#rim" fill="#404040">
                        <set attributeName="fill" to="#808080" begin="arrowUp.mouseover" end="arrowUp.mouseout"/>
                  </use>
                  <path fill="none" stroke="white" stroke-width="1.5" d="M0,-3.0v7 M-2.5,-0.5L0,-3.0L2.5,-0.5"/>
                </g>
                <g id="arrowRight" xlink:href="#dirArrow" transform="rotate(90) translate(36 -43)" onmousedown="handlePan(1,0)">
                  <use xlink:href="#rim" fill="#404040">
                        <set attributeName="fill" to="#808080" begin="arrowRight.mouseover" end="arrowRight.mouseout"/>
                  </use>
                  <path fill="none" stroke="white" stroke-width="1.5" d="M0,-3.0v7 M-2.5,-0.5L0,-3.0L2.5,-0.5"/>
                </g>
                <g id="arrowDown" xlink:href="#dirArrow" transform="rotate(180) translate(-30 -48)" onmousedown="handlePan(0,1)">
                  <use xlink:href="#rim" fill="#404040">
                        <set attributeName="fill" to="#808080" begin="arrowDown.mouseover" end="arrowDown.mouseout"/>
                  </use>
                  <path fill="none" stroke="white" stroke-width="1.5" d="M0,-3.0v7 M-2.5,-0.5L0,-3.0L2.5,-0.5"/>
                </g>
                <g id="arrowLeft" xlink:href="#dirArrow" transform="rotate(270) translate(-36 17)" onmousedown="handlePan(-1,0)">
                  <use xlink:href="#rim" fill="#404040">
                        <set attributeName="fill" to="#808080" begin="arrowLeft.mouseover" end="arrowLeft.mouseout"/>
                  </use>
                  <path fill="none" stroke="white" stroke-width="1.5" d="M0,-3.0v7 M-2.5,-0.5L0,-3.0L2.5,-0.5"/>
                </g>
        </g>
        <svg viewBox="0 0 15 15" width="100%" height="30px" preserveAspectRatio="xMaxYMin meet">
         <g id="arrow_out" transform="scale(0.3 0.3)">
          <a xlink:href="struct_mo_f_e_m_1_1_op_mix_vec_times_div_lambda_impl_3_01_s_p_a_c_e___d_i_m_00_01_g_a_u_s_s_00_01_op_base_01_4__coll__graph_org.svg" target="_base">
           <rect id="button" ry="5" rx="5" y="6" x="6" height="38" width="38"
                fill="#f2f5e9" fill-opacity="0.5" stroke="#606060" stroke-width="1.0"/>
           <path id="arrow"
             d="M 11.500037,31.436501 C 11.940474,20.09759 22.043105,11.32322 32.158766,21.979434 L 37.068811,17.246167 C 37.068811,17.246167 37.088388,32 37.088388,32 L 22.160133,31.978069 C 22.160133,31.978069 26.997745,27.140456 26.997745,27.140456 C 18.528582,18.264221 13.291696,25.230495 11.500037,31.436501 z"
             style="fill:#404040;"/>
          </a>
         </g>
        </svg>
</svg>
