<?xml version="1.0" encoding="UTF-8" standalone="no"?>
<!DOCTYPE svg PUBLIC "-//W3C//DTD SVG 1.1//EN"
 "http://www.w3.org/Graphics/SVG/1.1/DTD/svg11.dtd">
<!-- Generated by graphviz version 9.0.0 (20230911.1827)
 -->
<!-- Title: MoFEM::PostProcBrokenMeshInMoabBase&lt; E &gt; Pages: 1 -->
<svg width="837pt" height="352pt"
 viewBox="0.00 0.00 836.80 352.12" xmlns="http://www.w3.org/2000/svg" xmlns:xlink="http://www.w3.org/1999/xlink">
<g id="graph0" class="graph" transform="scale(1 1) rotate(0) translate(4 348.12)">
<title>MoFEM::PostProcBrokenMeshInMoabBase&lt; E &gt;</title>
<!-- Node1 -->
<g id="node1" class="node">
<title>Node1</title>
<g id="a_node1"><a xlink:title=" ">
<polygon fill="#999999" stroke="#666666" points="217.55,-227.12 65.8,-227.12 65.8,-196.62 217.55,-196.62 217.55,-227.12"/>
<text text-anchor="start" x="73.8" y="-213.62" font-family="Helvetica,sans-Serif" font-size="10.00">MoFEM::PostProcBrokenMesh</text>
<text text-anchor="middle" x="141.67" y="-202.38" font-family="Helvetica,sans-Serif" font-size="10.00">InMoabBase&lt; E &gt;</text>
</a>
</g>
</g>
<!-- Node3 -->
<g id="node3" class="node">
<title>Node3</title>
<g id="a_node3"><a xlink:href="struct_mo_f_e_m_1_1_post_proc_broken_mesh_in_moab_base_begin_impl.html" target="_top" xlink:title=" ">
<polygon fill="white" stroke="#666666" points="575.92,-344.12 424.17,-344.12 424.17,-313.62 575.92,-313.62 575.92,-344.12"/>
<text text-anchor="start" x="432.17" y="-330.62" font-family="Helvetica,sans-Serif" font-size="10.00">MoFEM::PostProcBrokenMesh</text>
<text text-anchor="middle" x="500.05" y="-319.38" font-family="Helvetica,sans-Serif" font-size="10.00">InMoabBaseBeginImpl&lt; E &gt;</text>
</a>
</g>
</g>
<!-- Node1&#45;&gt;Node3 -->
<g id="edge2" class="edge">
<title>Node1&#45;&gt;Node3</title>
<path fill="none" stroke="darkgreen" d="M177.05,-232.99C194.16,-242.82 215.44,-254.04 235.55,-261.88 297.13,-285.86 370.16,-303.65 423.7,-314.85"/>
<polygon fill="darkgreen" stroke="darkgreen" points="179.2,-230.2 168.8,-228.17 175.67,-236.24 179.2,-230.2"/>
</g>
<!-- Node4 -->
<g id="node4" class="node">
<title>Node4</title>
<g id="a_node4"><a xlink:href="struct_mo_f_e_m_1_1_post_proc_broken_mesh_in_moab_base_cont_impl.html" target="_top" xlink:title=" ">
<polygon fill="white" stroke="#666666" points="575.92,-295.12 424.17,-295.12 424.17,-264.62 575.92,-264.62 575.92,-295.12"/>
<text text-anchor="start" x="432.17" y="-281.62" font-family="Helvetica,sans-Serif" font-size="10.00">MoFEM::PostProcBrokenMesh</text>
<text text-anchor="middle" x="500.05" y="-270.38" font-family="Helvetica,sans-Serif" font-size="10.00">InMoabBaseContImpl&lt; E &gt;</text>
</a>
</g>
</g>
<!-- Node1&#45;&gt;Node4 -->
<g id="edge3" class="edge">
<title>Node1&#45;&gt;Node4</title>
<path fill="none" stroke="#63b8ff" d="M214.55,-230.23C221.63,-231.87 228.72,-233.45 235.55,-234.88 298.69,-248.07 370.95,-260.2 423.81,-268.53"/>
<polygon fill="#63b8ff" stroke="#63b8ff" points="215.49,-226.85 204.95,-227.96 213.88,-233.67 215.49,-226.85"/>
</g>
<!-- Node5 -->
<g id="node5" class="node">
<title>Node5</title>
<g id="a_node5"><a xlink:href="struct_mo_f_e_m_1_1_post_proc_broken_mesh_in_moab_base_end_impl.html" target="_top" xlink:title=" ">
<polygon fill="white" stroke="#666666" points="575.92,-246.12 424.17,-246.12 424.17,-215.62 575.92,-215.62 575.92,-246.12"/>
<text text-anchor="start" x="432.17" y="-232.62" font-family="Helvetica,sans-Serif" font-size="10.00">MoFEM::PostProcBrokenMesh</text>
<text text-anchor="middle" x="500.05" y="-221.38" font-family="Helvetica,sans-Serif" font-size="10.00">InMoabBaseEndImpl&lt; E &gt;</text>
</a>
</g>
</g>
<!-- Node1&#45;&gt;Node5 -->
<g id="edge4" class="edge">
<title>Node1&#45;&gt;Node5</title>
<path fill="none" stroke="darkgreen" d="M229.07,-216.48C288.54,-219.65 366.77,-223.82 423.7,-226.86"/>
<polygon fill="darkgreen" stroke="darkgreen" points="229.5,-213 219.33,-215.96 229.13,-219.99 229.5,-213"/>
</g>
<!-- Node6 -->
<g id="node6" class="node">
<title>Node6</title>
<g id="a_node6"><a xlink:href="struct_mo_f_e_m_1_1_post_proc_broken_mesh_in_moab_base.html" target="_top" xlink:title=" ">
<polygon fill="white" stroke="#666666" points="592.8,-197.75 407.3,-197.75 407.3,-156 592.8,-156 592.8,-197.75"/>
<text text-anchor="start" x="415.3" y="-184.25" font-family="Helvetica,sans-Serif" font-size="10.00">MoFEM::PostProcBrokenMesh</text>
<text text-anchor="start" x="415.3" y="-173" font-family="Helvetica,sans-Serif" font-size="10.00">InMoabBase&lt; EdgeElementForcesAnd</text>
<text text-anchor="middle" x="500.05" y="-161.75" font-family="Helvetica,sans-Serif" font-size="10.00">SourcesCore &gt;</text>
</a>
</g>
</g>
<!-- Node1&#45;&gt;Node6 -->
<g id="edge5" class="edge">
<title>Node1&#45;&gt;Node6</title>
<path fill="none" stroke="orange" stroke-dasharray="5,2" d="M218.61,-194.07C224.33,-193.05 230.02,-192.13 235.55,-191.38 292.18,-183.62 356.19,-179.98 406.94,-178.29"/>
<polygon fill="orange" stroke="orange" points="218.3,-190.56 209.13,-195.86 219.6,-197.44 218.3,-190.56"/>
<text text-anchor="start" x="235.55" y="-204.88" font-family="Helvetica,sans-Serif" font-size="10.00"> &lt; EdgeElementForcesAndSources</text>
<text text-anchor="middle" x="312.42" y="-193.62" font-family="Helvetica,sans-Serif" font-size="10.00">Core &gt;</text>
</g>
<!-- Node8 -->
<g id="node8" class="node">
<title>Node8</title>
<g id="a_node8"><a xlink:href="struct_mo_f_e_m_1_1_post_proc_broken_mesh_in_moab_base.html" target="_top" xlink:title=" ">
<polygon fill="white" stroke="#666666" points="592.42,-137.75 407.67,-137.75 407.67,-96 592.42,-96 592.42,-137.75"/>
<text text-anchor="start" x="415.67" y="-124.25" font-family="Helvetica,sans-Serif" font-size="10.00">MoFEM::PostProcBrokenMesh</text>
<text text-anchor="start" x="415.67" y="-113" font-family="Helvetica,sans-Serif" font-size="10.00">InMoabBase&lt; FaceElementForcesAnd</text>
<text text-anchor="middle" x="500.05" y="-101.75" font-family="Helvetica,sans-Serif" font-size="10.00">SourcesCore &gt;</text>
</a>
</g>
</g>
<!-- Node1&#45;&gt;Node8 -->
<g id="edge7" class="edge">
<title>Node1&#45;&gt;Node8</title>
<path fill="none" stroke="orange" stroke-dasharray="5,2" d="M171.14,-189.46C188.71,-176.81 212.29,-161.86 235.55,-153.38 290.54,-133.31 355.67,-124.17 407.42,-120.05"/>
<polygon fill="orange" stroke="orange" points="169.2,-186.54 163.24,-195.3 173.36,-192.17 169.2,-186.54"/>
<text text-anchor="start" x="235.92" y="-166.88" font-family="Helvetica,sans-Serif" font-size="10.00"> &lt; FaceElementForcesAndSources</text>
<text text-anchor="middle" x="312.42" y="-155.62" font-family="Helvetica,sans-Serif" font-size="10.00">Core &gt;</text>
</g>
<!-- Node11 -->
<g id="node11" class="node">
<title>Node11</title>
<g id="a_node11"><a xlink:href="struct_mo_f_e_m_1_1_post_proc_broken_mesh_in_moab_base.html" target="_top" xlink:title=" ">
<polygon fill="white" stroke="#666666" points="589.42,-53.75 410.67,-53.75 410.67,-12 589.42,-12 589.42,-53.75"/>
<text text-anchor="start" x="418.67" y="-40.25" font-family="Helvetica,sans-Serif" font-size="10.00">MoFEM::PostProcBrokenMesh</text>
<text text-anchor="start" x="418.67" y="-29" font-family="Helvetica,sans-Serif" font-size="10.00">InMoabBase&lt; VolumeElementForces</text>
<text text-anchor="middle" x="500.05" y="-17.75" font-family="Helvetica,sans-Serif" font-size="10.00">AndSourcesCore &gt;</text>
</a>
</g>
</g>
<!-- Node1&#45;&gt;Node11 -->
<g id="edge10" class="edge">
<title>Node1&#45;&gt;Node11</title>
<path fill="none" stroke="orange" stroke-dasharray="5,2" d="M156.17,-186.7C171.75,-160.12 199.87,-119 235.55,-96.38 288.01,-63.12 356.43,-47.27 410.4,-39.73"/>
<polygon fill="orange" stroke="orange" points="153.28,-184.7 151.39,-195.12 159.37,-188.15 153.28,-184.7"/>
<text text-anchor="start" x="248.3" y="-109.88" font-family="Helvetica,sans-Serif" font-size="10.00"> &lt; VolumeElementForcesAnd</text>
<text text-anchor="middle" x="312.42" y="-98.62" font-family="Helvetica,sans-Serif" font-size="10.00">SourcesCore &gt;</text>
</g>
<!-- Node2 -->
<g id="node2" class="node">
<title>Node2</title>
<g id="a_node2"><a xlink:href="class_e.html" target="_top" xlink:title=" ">
<polygon fill="white" stroke="#666666" points="28.8,-221.5 0,-221.5 0,-202.25 28.8,-202.25 28.8,-221.5"/>
<text text-anchor="middle" x="14.4" y="-208" font-family="Helvetica,sans-Serif" font-size="10.00">E</text>
</a>
</g>
</g>
<!-- Node2&#45;&gt;Node1 -->
<g id="edge1" class="edge">
<title>Node2&#45;&gt;Node1</title>
<path fill="none" stroke="#63b8ff" d="M40.63,-211.88C48.08,-211.88 56.64,-211.88 65.55,-211.88"/>
<polygon fill="#63b8ff" stroke="#63b8ff" points="40.8,-208.38 30.8,-211.88 40.8,-215.38 40.8,-208.38"/>
</g>
<!-- Node7 -->
<g id="node7" class="node">
<title>Node7</title>
<g id="a_node7"><a xlink:href="struct_mo_f_e_m_1_1_post_proc_broken_mesh_in_moab_3_01_edge_element_forces_and_sources_core_01_4.html" target="_top" xlink:title=" ">
<polygon fill="white" stroke="#666666" points="828.8,-209.75 629.8,-209.75 629.8,-168 828.8,-168 828.8,-209.75"/>
<text text-anchor="start" x="637.8" y="-196.25" font-family="Helvetica,sans-Serif" font-size="10.00">MoFEM::PostProcBrokenMesh</text>
<text text-anchor="start" x="637.8" y="-185" font-family="Helvetica,sans-Serif" font-size="10.00">InMoab&lt; EdgeElementForcesAndSources</text>
<text text-anchor="middle" x="729.3" y="-173.75" font-family="Helvetica,sans-Serif" font-size="10.00">Core &gt;</text>
</a>
</g>
</g>
<!-- Node6&#45;&gt;Node7 -->
<g id="edge6" class="edge">
<title>Node6&#45;&gt;Node7</title>
<path fill="none" stroke="#63b8ff" d="M604.42,-182.33C612.73,-182.77 621.11,-183.21 629.39,-183.65"/>
<polygon fill="#63b8ff" stroke="#63b8ff" points="604.84,-178.85 594.67,-181.82 604.47,-185.84 604.84,-178.85"/>
</g>
<!-- Node9 -->
<g id="node9" class="node">
<title>Node9</title>
<g id="a_node9"><a xlink:href="struct_eshelbian_plasticity_1_1_contact_tree.html" target="_top" xlink:title=" ">
<polygon fill="white" stroke="#666666" points="778.92,-150.12 679.67,-150.12 679.67,-119.62 778.92,-119.62 778.92,-150.12"/>
<text text-anchor="start" x="687.67" y="-136.62" font-family="Helvetica,sans-Serif" font-size="10.00">EshelbianPlasticity</text>
<text text-anchor="middle" x="729.3" y="-125.38" font-family="Helvetica,sans-Serif" font-size="10.00">::ContactTree</text>
</a>
</g>
</g>
<!-- Node8&#45;&gt;Node9 -->
<g id="edge8" class="edge">
<title>Node8&#45;&gt;Node9</title>
<path fill="none" stroke="#63b8ff" d="M603.99,-125.03C630.19,-127.1 657.16,-129.24 679.25,-130.99"/>
<polygon fill="#63b8ff" stroke="#63b8ff" points="604.58,-121.56 594.34,-124.26 604.03,-128.54 604.58,-121.56"/>
</g>
<!-- Node10 -->
<g id="node10" class="node">
<title>Node10</title>
<g id="a_node10"><a xlink:href="struct_mo_f_e_m_1_1_post_proc_broken_mesh_in_moab_3_01_face_element_forces_and_sources_core_01_4.html" target="_top" xlink:title=" ">
<polygon fill="white" stroke="#666666" points="828.42,-101.75 630.17,-101.75 630.17,-60 828.42,-60 828.42,-101.75"/>
<text text-anchor="start" x="638.17" y="-88.25" font-family="Helvetica,sans-Serif" font-size="10.00">MoFEM::PostProcBrokenMesh</text>
<text text-anchor="start" x="638.17" y="-77" font-family="Helvetica,sans-Serif" font-size="10.00">InMoab&lt; FaceElementForcesAndSources</text>
<text text-anchor="middle" x="729.3" y="-65.75" font-family="Helvetica,sans-Serif" font-size="10.00">Core &gt;</text>
</a>
</g>
</g>
<!-- Node8&#45;&gt;Node10 -->
<g id="edge9" class="edge">
<title>Node8&#45;&gt;Node10</title>
<path fill="none" stroke="#63b8ff" d="M604.05,-100.56C612.64,-99.2 621.31,-97.82 629.87,-96.47"/>
<polygon fill="#63b8ff" stroke="#63b8ff" points="603.65,-97.08 594.32,-102.1 604.75,-103.99 603.65,-97.08"/>
</g>
<!-- Node12 -->
<g id="node12" class="node">
<title>Node12</title>
<g id="a_node12"><a xlink:href="struct_mo_f_e_m_1_1_post_proc_broken_mesh_in_moab_3_01_volume_element_forces_and_sources_core_01_4.html" target="_top" xlink:title=" ">
<polygon fill="white" stroke="#666666" points="816.05,-41.75 642.55,-41.75 642.55,0 816.05,0 816.05,-41.75"/>
<text text-anchor="start" x="650.55" y="-28.25" font-family="Helvetica,sans-Serif" font-size="10.00">MoFEM::PostProcBrokenMesh</text>
<text text-anchor="start" x="650.55" y="-17" font-family="Helvetica,sans-Serif" font-size="10.00">InMoab&lt; VolumeElementForcesAnd</text>
<text text-anchor="middle" x="729.3" y="-5.75" font-family="Helvetica,sans-Serif" font-size="10.00">SourcesCore &gt;</text>
</a>
</g>
</g>
<!-- Node11&#45;&gt;Node12 -->
<g id="edge11" class="edge">
<title>Node11&#45;&gt;Node12</title>
<path fill="none" stroke="#63b8ff" d="M601.26,-27.58C614.89,-26.86 628.78,-26.13 642.13,-25.43"/>
<polygon fill="#63b8ff" stroke="#63b8ff" points="601.2,-24.08 591.4,-28.1 601.57,-31.07 601.2,-24.08"/>
</g>
</g>
</svg>
