<?xml version="1.0" encoding="UTF-8" standalone="no"?>
<!DOCTYPE svg PUBLIC "-//W3C//DTD SVG 1.1//EN"
 "http://www.w3.org/Graphics/SVG/1.1/DTD/svg11.dtd">
<!-- Generated by graphviz version 9.0.0 (20230911.1827)
 -->
<!-- Title: MoFEM::OpBaseDerivativesSetHOInvJacobian&lt; 2 &gt; Pages: 1 -->
<svg width="169pt" height="293pt"
 viewBox="0.00 0.00 168.75 293.25" xmlns="http://www.w3.org/2000/svg" xmlns:xlink="http://www.w3.org/1999/xlink">
<g id="graph0" class="graph" transform="scale(1 1) rotate(0) translate(4 289.25)">
<title>MoFEM::OpBaseDerivativesSetHOInvJacobian&lt; 2 &gt;</title>
<!-- Node1 -->
<g id="node1" class="node">
<title>Node1</title>
<g id="a_node1"><a xlink:title=" ">
<polygon fill="#999999" stroke="#666666" points="151,-30.5 9.75,-30.5 9.75,0 151,0 151,-30.5"/>
<text text-anchor="start" x="17.75" y="-17" font-family="Helvetica,sans-Serif" font-size="10.00">MoFEM::OpBaseDerivatives</text>
<text text-anchor="middle" x="80.38" y="-5.75" font-family="Helvetica,sans-Serif" font-size="10.00">SetHOInvJacobian&lt; 2 &gt;</text>
</a>
</g>
</g>
<!-- Node2 -->
<g id="node2" class="node">
<title>Node2</title>
<g id="a_node2"><a xlink:href="struct_mo_f_e_m_1_1_op_set_inv_jac_space_for_face_impl_3_012_00_011_01_4.html" target="_top" xlink:title=" ">
<polygon fill="white" stroke="#666666" points="158.12,-97 2.62,-97 2.62,-66.5 158.12,-66.5 158.12,-97"/>
<text text-anchor="start" x="10.62" y="-83.5" font-family="Helvetica,sans-Serif" font-size="10.00">MoFEM::OpSetInvJacSpaceFor</text>
<text text-anchor="middle" x="80.38" y="-72.25" font-family="Helvetica,sans-Serif" font-size="10.00">FaceImpl&lt; 2, 1 &gt;</text>
</a>
</g>
</g>
<!-- Node2&#45;&gt;Node1 -->
<g id="edge1" class="edge">
<title>Node2&#45;&gt;Node1</title>
<path fill="none" stroke="#63b8ff" d="M80.38,-54.81C80.38,-46.64 80.38,-37.91 80.38,-30.83"/>
<polygon fill="#63b8ff" stroke="#63b8ff" points="76.88,-54.6 80.38,-64.6 83.88,-54.6 76.88,-54.6"/>
</g>
<!-- Node3 -->
<g id="node3" class="node">
<title>Node3</title>
<g id="a_node3"><a xlink:href="struct_mo_f_e_m_1_1_op_set_inv_jac_to_scalar_bases_basic.html" target="_top" xlink:title=" ">
<polygon fill="white" stroke="#666666" points="156.25,-163.5 4.5,-163.5 4.5,-133 156.25,-133 156.25,-163.5"/>
<text text-anchor="start" x="12.5" y="-150" font-family="Helvetica,sans-Serif" font-size="10.00">MoFEM::OpSetInvJacToScalar</text>
<text text-anchor="middle" x="80.38" y="-138.75" font-family="Helvetica,sans-Serif" font-size="10.00">BasesBasic</text>
</a>
</g>
</g>
<!-- Node3&#45;&gt;Node2 -->
<g id="edge2" class="edge">
<title>Node3&#45;&gt;Node2</title>
<path fill="none" stroke="#63b8ff" d="M80.38,-121.31C80.38,-113.14 80.38,-104.41 80.38,-97.33"/>
<polygon fill="#63b8ff" stroke="#63b8ff" points="76.88,-121.1 80.38,-131.1 83.88,-121.1 76.88,-121.1"/>
</g>
<!-- Node4 -->
<g id="node4" class="node">
<title>Node4</title>
<g id="a_node4"><a xlink:href="struct_mo_f_e_m_1_1_forces_and_sources_core_1_1_user_data_operator.html" target="_top" xlink:title=" ">
<polygon fill="white" stroke="#666666" points="160.75,-230 0,-230 0,-199.5 160.75,-199.5 160.75,-230"/>
<text text-anchor="start" x="8" y="-216.5" font-family="Helvetica,sans-Serif" font-size="10.00">MoFEM::ForcesAndSourcesCore</text>
<text text-anchor="middle" x="80.38" y="-205.25" font-family="Helvetica,sans-Serif" font-size="10.00">::UserDataOperator</text>
</a>
</g>
</g>
<!-- Node4&#45;&gt;Node3 -->
<g id="edge3" class="edge">
<title>Node4&#45;&gt;Node3</title>
<path fill="none" stroke="#63b8ff" d="M80.38,-187.81C80.38,-179.64 80.38,-170.91 80.38,-163.83"/>
<polygon fill="#63b8ff" stroke="#63b8ff" points="76.88,-187.6 80.38,-197.6 83.88,-187.6 76.88,-187.6"/>
</g>
<!-- Node5 -->
<g id="node5" class="node">
<title>Node5</title>
<g id="a_node5"><a xlink:href="struct_mo_f_e_m_1_1_data_operator.html" target="_top" xlink:title="base operator to do operations at Gauss Pt. level">
<polygon fill="white" stroke="#666666" points="137.88,-285.25 22.88,-285.25 22.88,-266 137.88,-266 137.88,-285.25"/>
<text text-anchor="middle" x="80.38" y="-271.75" font-family="Helvetica,sans-Serif" font-size="10.00">MoFEM::DataOperator</text>
</a>
</g>
</g>
<!-- Node5&#45;&gt;Node4 -->
<g id="edge4" class="edge">
<title>Node5&#45;&gt;Node4</title>
<path fill="none" stroke="#63b8ff" d="M80.38,-254.42C80.38,-246.49 80.38,-237.56 80.38,-230.28"/>
<polygon fill="#63b8ff" stroke="#63b8ff" points="76.88,-254.17 80.38,-264.17 83.88,-254.17 76.88,-254.17"/>
</g>
</g>
</svg>
