<?xml version="1.0" encoding="UTF-8" standalone="no"?>
<!DOCTYPE svg PUBLIC "-//W3C//DTD SVG 1.1//EN"
 "http://www.w3.org/Graphics/SVG/1.1/DTD/svg11.dtd">
<!-- Generated by graphviz version 2.43.0 (0)
 -->
<!-- Title: Seepage::BlockedParameters Pages: 1 -->
<svg width="384pt" height="106pt"
 viewBox="0.00 0.00 383.50 106.00" xmlns="http://www.w3.org/2000/svg" xmlns:xlink="http://www.w3.org/1999/xlink">
<g id="graph0" class="graph" transform="scale(1 1) rotate(0) translate(4 102)">
<title>Seepage::BlockedParameters</title>
<polygon fill="white" stroke="transparent" points="-4,4 -4,-102 379.5,-102 379.5,4 -4,4"/>
<!-- Node1 -->
<g id="node1" class="node">
<title>Node1</title>
<g id="a_node1"><a xlink:title=" ">
<polygon fill="#bfbfbf" stroke="black" points="165.5,-0.5 165.5,-19.5 323.5,-19.5 323.5,-0.5 165.5,-0.5"/>
<text text-anchor="middle" x="244.5" y="-7.5" font-family="Helvetica,sans-Serif" font-size="10.00">Seepage::BlockedParameters</text>
</a>
</g>
</g>
<!-- Node2 -->
<g id="node2" class="node">
<title>Node2</title>
<g id="a_node2"><a xlink:title=" ">
<polygon fill="white" stroke="#bfbfbf" points="0,-67.5 0,-97.5 185,-97.5 185,-67.5 0,-67.5"/>
<text text-anchor="start" x="8" y="-85.5" font-family="Helvetica,sans-Serif" font-size="10.00">boost::enable_shared</text>
<text text-anchor="middle" x="92.5" y="-74.5" font-family="Helvetica,sans-Serif" font-size="10.00">_from_this&lt; BlockedParameters &gt;</text>
</a>
</g>
</g>
<!-- Node2&#45;&gt;Node1 -->
<g id="edge1" class="edge">
<title>Node2&#45;&gt;Node1</title>
<path fill="none" stroke="midnightblue" d="M132.35,-63.02C162.66,-48.96 202.98,-30.26 226.1,-19.53"/>
<polygon fill="midnightblue" stroke="midnightblue" points="130.49,-60.02 122.89,-67.4 133.44,-66.37 130.49,-60.02"/>
</g>
<!-- Node3 -->
<g id="node3" class="node">
<title>Node3</title>
<g id="a_node3"><a xlink:title=" ">
<polygon fill="white" stroke="#bfbfbf" points="203,-73 203,-92 286,-92 286,-73 203,-73"/>
<text text-anchor="middle" x="244.5" y="-80" font-family="Helvetica,sans-Serif" font-size="10.00">MatrixDouble</text>
</a>
</g>
</g>
<!-- Node3&#45;&gt;Node1 -->
<g id="edge2" class="edge">
<title>Node3&#45;&gt;Node1</title>
<path fill="none" stroke="#9a32cd" stroke-dasharray="5,2" d="M244.5,-62.44C244.5,-48.53 244.5,-30.32 244.5,-19.72"/>
<polygon fill="#9a32cd" stroke="#9a32cd" points="241,-62.86 244.5,-72.86 248,-62.86 241,-62.86"/>
<text text-anchor="middle" x="255" y="-41" font-family="Helvetica,sans-Serif" font-size="10.00"> mD</text>
</g>
<!-- Node4 -->
<g id="node4" class="node">
<title>Node4</title>
<g id="a_node4"><a xlink:href="classdouble.html" target="_top" xlink:title=" ">
<polygon fill="white" stroke="black" points="304.5,-73 304.5,-92 354.5,-92 354.5,-73 304.5,-73"/>
<text text-anchor="middle" x="329.5" y="-80" font-family="Helvetica,sans-Serif" font-size="10.00">double</text>
</a>
</g>
</g>
<!-- Node4&#45;&gt;Node1 -->
<g id="edge3" class="edge">
<title>Node4&#45;&gt;Node1</title>
<path fill="none" stroke="#9a32cd" stroke-dasharray="5,2" d="M310.91,-66.08C293.78,-51.87 268.94,-31.27 255.01,-19.72"/>
<polygon fill="#9a32cd" stroke="#9a32cd" points="309.15,-69.17 319.08,-72.86 313.61,-63.78 309.15,-69.17"/>
<text text-anchor="middle" x="332.5" y="-41" font-family="Helvetica,sans-Serif" font-size="10.00"> fluidConductivity</text>
</g>
</g>
</svg>
