<?xml version="1.0" encoding="UTF-8" standalone="no"?>
<!DOCTYPE svg PUBLIC "-//W3C//DTD SVG 1.1//EN"
 "http://www.w3.org/Graphics/SVG/1.1/DTD/svg11.dtd">
<!-- Generated by graphviz version 9.0.0 (20230911.1827)
 -->
<!-- Title: MinimalSurfaceEquation::MinimalSurfaceElement::OpAssembleResidaul Pages: 1 -->
<svg width="574pt" height="125pt"
 viewBox="0.00 0.00 574.25 124.65" xmlns="http://www.w3.org/2000/svg" xmlns:xlink="http://www.w3.org/1999/xlink">
<g id="graph0" class="graph" transform="scale(1 1) rotate(0) translate(4 120.65)">
<title>MinimalSurfaceEquation::MinimalSurfaceElement::OpAssembleResidaul</title>
<!-- Node1 -->
<g id="node1" class="node">
<title>Node1</title>
<g id="a_node1"><a xlink:title="Assemble residual.">
<polygon fill="#999999" stroke="#666666" points="566.25,-68.27 440.75,-68.27 440.75,-26.52 566.25,-26.52 566.25,-68.27"/>
<text text-anchor="start" x="448.75" y="-54.77" font-family="Helvetica,sans-Serif" font-size="10.00">MinimalSurfaceEquation</text>
<text text-anchor="start" x="448.75" y="-43.52" font-family="Helvetica,sans-Serif" font-size="10.00">::MinimalSurfaceElement</text>
<text text-anchor="middle" x="503.5" y="-32.27" font-family="Helvetica,sans-Serif" font-size="10.00">::OpAssembleResidaul</text>
</a>
</g>
</g>
<!-- Node2 -->
<g id="node2" class="node">
<title>Node2</title>
<g id="a_node2"><a xlink:title=" ">
<polygon fill="white" stroke="#666666" points="343.25,-116.65 186.25,-116.65 186.25,-86.15 343.25,-86.15 343.25,-116.65"/>
<text text-anchor="start" x="194.25" y="-103.15" font-family="Helvetica,sans-Serif" font-size="10.00">FaceElementForcesAndSources</text>
<text text-anchor="middle" x="264.75" y="-91.9" font-family="Helvetica,sans-Serif" font-size="10.00">Core::UserDataOperator</text>
</a>
</g>
</g>
<!-- Node2&#45;&gt;Node1 -->
<g id="edge1" class="edge">
<title>Node2&#45;&gt;Node1</title>
<path fill="none" stroke="#63b8ff" d="M345.73,-83.15C376.63,-76.11 411.45,-68.17 440.4,-61.56"/>
<polygon fill="#63b8ff" stroke="#63b8ff" points="344.99,-79.73 336.02,-85.37 346.55,-86.56 344.99,-79.73"/>
</g>
<!-- Node3 -->
<g id="node3" class="node">
<title>Node3</title>
<g id="a_node3"><a xlink:href="struct_minimal_surface_equation_1_1_minimal_surface_element_1_1_common_data.html" target="_top" xlink:title="Keep date between operators.">
<polygon fill="white" stroke="#666666" points="327.5,-68.27 202,-68.27 202,-26.52 327.5,-26.52 327.5,-68.27"/>
<text text-anchor="start" x="210" y="-54.77" font-family="Helvetica,sans-Serif" font-size="10.00">MinimalSurfaceEquation</text>
<text text-anchor="start" x="210" y="-43.52" font-family="Helvetica,sans-Serif" font-size="10.00">::MinimalSurfaceElement</text>
<text text-anchor="middle" x="264.75" y="-32.27" font-family="Helvetica,sans-Serif" font-size="10.00">::CommonData</text>
</a>
</g>
</g>
<!-- Node3&#45;&gt;Node1 -->
<g id="edge2" class="edge">
<title>Node3&#45;&gt;Node1</title>
<path fill="none" stroke="#9a32cd" stroke-dasharray="5,2" d="M339.18,-47.4C371.6,-47.4 409.3,-47.4 440.3,-47.4"/>
<polygon fill="#9a32cd" stroke="#9a32cd" points="339.47,-43.9 329.47,-47.4 339.47,-50.9 339.47,-43.9"/>
<text text-anchor="middle" x="392" y="-49.15" font-family="Helvetica,sans-Serif" font-size="10.00"> commonData</text>
</g>
<!-- Node4 -->
<g id="node4" class="node">
<title>Node4</title>
<g id="a_node4"><a xlink:title=" ">
<polygon fill="white" stroke="#666666" points="74.5,-86.02 0.75,-86.02 0.75,-66.77 74.5,-66.77 74.5,-86.02"/>
<text text-anchor="middle" x="37.62" y="-72.52" font-family="Helvetica,sans-Serif" font-size="10.00">MatrixDouble</text>
</a>
</g>
</g>
<!-- Node4&#45;&gt;Node3 -->
<g id="edge3" class="edge">
<title>Node4&#45;&gt;Node3</title>
<path fill="none" stroke="#9a32cd" stroke-dasharray="5,2" d="M86.17,-70.27C119.81,-65.94 165.25,-60.09 201.74,-55.38"/>
<polygon fill="#9a32cd" stroke="#9a32cd" points="85.77,-66.8 76.3,-71.54 86.66,-73.74 85.77,-66.8"/>
<text text-anchor="middle" x="130.75" y="-92.65" font-family="Helvetica,sans-Serif" font-size="10.00"> aNbyGradU</text>
<text text-anchor="middle" x="130.75" y="-81.4" font-family="Helvetica,sans-Serif" font-size="10.00">aNpow3byGradU</text>
<text text-anchor="middle" x="130.75" y="-70.15" font-family="Helvetica,sans-Serif" font-size="10.00">gradU</text>
</g>
<!-- Node5 -->
<g id="node5" class="node">
<title>Node5</title>
<g id="a_node5"><a xlink:title=" ">
<polygon fill="white" stroke="#666666" points="75.25,-24.02 0,-24.02 0,-4.77 75.25,-4.77 75.25,-24.02"/>
<text text-anchor="middle" x="37.62" y="-10.52" font-family="Helvetica,sans-Serif" font-size="10.00">VectorDouble</text>
</a>
</g>
</g>
<!-- Node5&#45;&gt;Node1 -->
<g id="edge5" class="edge">
<title>Node5&#45;&gt;Node1</title>
<path fill="none" stroke="#9a32cd" stroke-dasharray="5,2" d="M86.8,-8.55C147.04,-2.28 253.21,5.32 343.25,-6.15 375.83,-10.3 411.28,-19.04 440.44,-27.42"/>
<polygon fill="#9a32cd" stroke="#9a32cd" points="86.45,-5.07 76.89,-9.62 87.2,-12.03 86.45,-5.07"/>
<text text-anchor="middle" x="264.75" y="-8.15" font-family="Helvetica,sans-Serif" font-size="10.00"> rEsidual</text>
</g>
<!-- Node5&#45;&gt;Node3 -->
<g id="edge4" class="edge">
<title>Node5&#45;&gt;Node3</title>
<path fill="none" stroke="#9a32cd" stroke-dasharray="5,2" d="M86.66,-21.15C111.1,-24.61 141.26,-28.92 168.25,-32.9 179.03,-34.49 190.5,-36.2 201.6,-37.88"/>
<polygon fill="#9a32cd" stroke="#9a32cd" points="87.4,-17.72 77.01,-19.78 86.42,-24.65 87.4,-17.72"/>
<text text-anchor="middle" x="130.75" y="-45.4" font-family="Helvetica,sans-Serif" font-size="10.00"> aN</text>
<text text-anchor="middle" x="130.75" y="-34.15" font-family="Helvetica,sans-Serif" font-size="10.00">normGradU2</text>
</g>
</g>
</svg>
