<?xml version="1.0" encoding="UTF-8" standalone="no"?>
<!DOCTYPE svg PUBLIC "-//W3C//DTD SVG 1.1//EN"
 "http://www.w3.org/Graphics/SVG/1.1/DTD/svg11.dtd">
<!-- Generated by graphviz version 9.0.0 (20230911.1827)
 -->
<!-- Title: MoFEM::PostProcBrokenMeshInMoabBaseBeginImpl&lt; E &gt; Pages: 1 -->
<svg width="605pt" height="261pt"
 viewBox="0.00 0.00 604.50 261.25" xmlns="http://www.w3.org/2000/svg" xmlns:xlink="http://www.w3.org/1999/xlink">
<g id="graph0" class="graph" transform="scale(1 1) rotate(0) translate(4 257.25)">
<title>MoFEM::PostProcBrokenMeshInMoabBaseBeginImpl&lt; E &gt;</title>
<!-- Node1 -->
<g id="node1" class="node">
<title>Node1</title>
<g id="a_node1"><a xlink:title=" ">
<polygon fill="#999999" stroke="#666666" points="596.5,-147.88 444.75,-147.88 444.75,-117.38 596.5,-117.38 596.5,-147.88"/>
<text text-anchor="start" x="452.75" y="-134.38" font-family="Helvetica,sans-Serif" font-size="10.00">MoFEM::PostProcBrokenMesh</text>
<text text-anchor="middle" x="520.62" y="-123.12" font-family="Helvetica,sans-Serif" font-size="10.00">InMoabBaseBeginImpl&lt; E &gt;</text>
</a>
</g>
</g>
<!-- Node2 -->
<g id="node2" class="node">
<title>Node2</title>
<g id="a_node2"><a xlink:href="struct_mo_f_e_m_1_1_post_proc_broken_mesh_in_moab_base.html" target="_top" xlink:title=" ">
<polygon fill="white" stroke="#666666" points="407.75,-147.88 256,-147.88 256,-117.38 407.75,-117.38 407.75,-147.88"/>
<text text-anchor="start" x="264" y="-134.38" font-family="Helvetica,sans-Serif" font-size="10.00">MoFEM::PostProcBrokenMesh</text>
<text text-anchor="middle" x="331.88" y="-123.12" font-family="Helvetica,sans-Serif" font-size="10.00">InMoabBase&lt; E &gt;</text>
</a>
</g>
</g>
<!-- Node2&#45;&gt;Node1 -->
<g id="edge1" class="edge">
<title>Node2&#45;&gt;Node1</title>
<path fill="none" stroke="darkgreen" d="M419.33,-132.62C427.68,-132.62 436.1,-132.62 444.32,-132.62"/>
<polygon fill="darkgreen" stroke="darkgreen" points="419.54,-129.13 409.54,-132.63 419.54,-136.13 419.54,-129.13"/>
</g>
<!-- Node3 -->
<g id="node3" class="node">
<title>Node3</title>
<g id="a_node3"><a xlink:href="class_e.html" target="_top" xlink:title=" ">
<polygon fill="white" stroke="#666666" points="82.78,-253.25 53.98,-253.25 53.98,-234 82.78,-234 82.78,-253.25"/>
<text text-anchor="middle" x="68.38" y="-239.75" font-family="Helvetica,sans-Serif" font-size="10.00">E</text>
</a>
</g>
</g>
<!-- Node3&#45;&gt;Node2 -->
<g id="edge2" class="edge">
<title>Node3&#45;&gt;Node2</title>
<path fill="none" stroke="#63b8ff" d="M94.35,-241.94C128.33,-238.84 190.35,-230.34 238,-207.62 269.24,-192.73 299.25,-165.35 316.33,-148.12"/>
<polygon fill="#63b8ff" stroke="#63b8ff" points="94.37,-238.42 84.69,-242.72 94.94,-245.4 94.37,-238.42"/>
</g>
<!-- Node4 -->
<g id="node4" class="node">
<title>Node4</title>
<g id="a_node4"><a xlink:title=" ">
<polygon fill="white" stroke="#666666" points="133.75,-216.25 3,-216.25 3,-197 133.75,-197 133.75,-216.25"/>
<text text-anchor="middle" x="68.38" y="-202.75" font-family="Helvetica,sans-Serif" font-size="10.00">shared_ptr&lt; moab::Core &gt;</text>
</a>
</g>
</g>
<!-- Node4&#45;&gt;Node2 -->
<g id="edge3" class="edge">
<title>Node4&#45;&gt;Node2</title>
<path fill="none" stroke="#9a32cd" stroke-dasharray="5,2" d="M144.92,-195.54C174.33,-190.26 208.1,-183.02 238,-173.62 259.35,-166.91 282.38,-156.77 300.16,-148.25"/>
<polygon fill="#9a32cd" stroke="#9a32cd" points="144.61,-192.04 135.36,-197.2 145.81,-198.93 144.61,-192.04"/>
<text text-anchor="middle" x="196.38" y="-194.38" font-family="Helvetica,sans-Serif" font-size="10.00"> coreMeshPtr</text>
</g>
<!-- Node5 -->
<g id="node5" class="node">
<title>Node5</title>
<g id="a_node5"><a xlink:title=" ">
<polygon fill="white" stroke="#666666" points="127,-179.25 9.75,-179.25 9.75,-160 127,-160 127,-179.25"/>
<text text-anchor="middle" x="68.38" y="-165.75" font-family="Helvetica,sans-Serif" font-size="10.00">vector&lt; EntityHandle &gt;</text>
</a>
</g>
</g>
<!-- Node5&#45;&gt;Node2 -->
<g id="edge4" class="edge">
<title>Node5&#45;&gt;Node2</title>
<path fill="none" stroke="#9a32cd" stroke-dasharray="5,2" d="M138.58,-161.08C169.09,-157.18 205.36,-152.39 238,-147.62 243.74,-146.79 249.67,-145.89 255.63,-144.98"/>
<polygon fill="#9a32cd" stroke="#9a32cd" points="138.17,-157.6 128.69,-162.33 139.05,-164.55 138.17,-157.6"/>
<text text-anchor="middle" x="196.38" y="-160.38" font-family="Helvetica,sans-Serif" font-size="10.00"> mapGaussPts</text>
</g>
<!-- Node6 -->
<g id="node6" class="node">
<title>Node6</title>
<g id="a_node6"><a xlink:href="class_range.html" target="_top" xlink:title=" ">
<polygon fill="white" stroke="#666666" points="90.62,-142.25 46.12,-142.25 46.12,-123 90.62,-123 90.62,-142.25"/>
<text text-anchor="middle" x="68.38" y="-128.75" font-family="Helvetica,sans-Serif" font-size="10.00">Range</text>
</a>
</g>
</g>
<!-- Node6&#45;&gt;Node2 -->
<g id="edge5" class="edge">
<title>Node6&#45;&gt;Node2</title>
<path fill="none" stroke="#9a32cd" stroke-dasharray="5,2" d="M102.23,-132.62C140.51,-132.62 204.97,-132.62 255.71,-132.62"/>
<polygon fill="#9a32cd" stroke="#9a32cd" points="102.29,-129.13 92.29,-132.63 102.29,-136.13 102.29,-129.13"/>
<text text-anchor="middle" x="196.38" y="-134.38" font-family="Helvetica,sans-Serif" font-size="10.00"> postProcElements</text>
</g>
<!-- Node7 -->
<g id="node7" class="node">
<title>Node7</title>
<g id="a_node7"><a xlink:title=" ">
<polygon fill="white" stroke="#666666" points="136.75,-104.88 0,-104.88 0,-74.38 136.75,-74.38 136.75,-104.88"/>
<text text-anchor="start" x="8" y="-91.38" font-family="Helvetica,sans-Serif" font-size="10.00">map&lt; EntityType, PostProc</text>
<text text-anchor="middle" x="68.38" y="-80.12" font-family="Helvetica,sans-Serif" font-size="10.00">GenerateRefMeshPtr &gt;</text>
</a>
</g>
</g>
<!-- Node7&#45;&gt;Node2 -->
<g id="edge6" class="edge">
<title>Node7&#45;&gt;Node2</title>
<path fill="none" stroke="#9a32cd" stroke-dasharray="5,2" d="M148.37,-102.61C182.41,-108.21 222.03,-114.73 255.64,-120.25"/>
<polygon fill="#9a32cd" stroke="#9a32cd" points="148.99,-99.17 138.55,-101 147.85,-106.08 148.99,-99.17"/>
<text text-anchor="middle" x="196.38" y="-117.38" font-family="Helvetica,sans-Serif" font-size="10.00"> refElementsMap</text>
</g>
<!-- Node8 -->
<g id="node8" class="node">
<title>Node8</title>
<g id="a_node8"><a xlink:title=" ">
<polygon fill="white" stroke="#666666" points="106.75,-56.25 30,-56.25 30,-37 106.75,-37 106.75,-56.25"/>
<text text-anchor="middle" x="68.38" y="-42.75" font-family="Helvetica,sans-Serif" font-size="10.00">vector&lt; Tag &gt;</text>
</a>
</g>
</g>
<!-- Node8&#45;&gt;Node2 -->
<g id="edge7" class="edge">
<title>Node8&#45;&gt;Node2</title>
<path fill="none" stroke="#9a32cd" stroke-dasharray="5,2" d="M118.2,-56.46C152.27,-63.93 198.51,-75.31 238,-89.38 259.62,-97.07 283.03,-107.99 300.94,-116.94"/>
<polygon fill="#9a32cd" stroke="#9a32cd" points="119.14,-53.08 108.63,-54.39 117.67,-59.92 119.14,-53.08"/>
<text text-anchor="middle" x="196.38" y="-90.38" font-family="Helvetica,sans-Serif" font-size="10.00"> tagsToTransfer</text>
</g>
<!-- Node9 -->
<g id="node9" class="node">
<title>Node9</title>
<g id="a_node9"><a xlink:title=" ">
<polygon fill="white" stroke="#666666" points="88.38,-19.25 48.38,-19.25 48.38,0 88.38,0 88.38,-19.25"/>
<text text-anchor="middle" x="68.38" y="-5.75" font-family="Helvetica,sans-Serif" font-size="10.00">string</text>
</a>
</g>
</g>
<!-- Node9&#45;&gt;Node2 -->
<g id="edge8" class="edge">
<title>Node9&#45;&gt;Node2</title>
<path fill="none" stroke="#9a32cd" stroke-dasharray="5,2" d="M100.03,-12.25C135.09,-16.26 193.4,-26.09 238,-49.38 271.02,-66.61 301.59,-98.27 318.1,-117.18"/>
<polygon fill="#9a32cd" stroke="#9a32cd" points="100.47,-8.78 90.16,-11.22 99.74,-15.74 100.47,-8.78"/>
<text text-anchor="middle" x="196.38" y="-50.38" font-family="Helvetica,sans-Serif" font-size="10.00"> optionsPrefix</text>
</g>
</g>
</svg>
