<?xml version="1.0" encoding="UTF-8" standalone="no"?>
<!DOCTYPE svg PUBLIC "-//W3C//DTD SVG 1.1//EN"
 "http://www.w3.org/Graphics/SVG/1.1/DTD/svg11.dtd">
<!-- Generated by graphviz version 2.43.0 (0)
 -->
<!-- Title: MoFEM::OpBaseTimesScalarImpl&lt; 1, S, GAUSS, OpBase &gt; Pages: 1 -->
<svg width="398pt" height="138pt"
 viewBox="0.00 0.00 398.00 137.50" xmlns="http://www.w3.org/2000/svg" xmlns:xlink="http://www.w3.org/1999/xlink">
<g id="graph0" class="graph" transform="scale(1 1) rotate(0) translate(4 133.5)">
<title>MoFEM::OpBaseTimesScalarImpl&lt; 1, S, GAUSS, OpBase &gt;</title>
<polygon fill="white" stroke="transparent" points="-4,4 -4,-133.5 394,-133.5 394,4 -4,4"/>
<!-- Node1 -->
<g id="node1" class="node">
<title>Node1</title>
<g id="a_node1"><a xlink:title=" ">
<polygon fill="#bfbfbf" stroke="black" points="228,-55.5 228,-85.5 390,-85.5 390,-55.5 228,-55.5"/>
<text text-anchor="start" x="236" y="-73.5" font-family="Helvetica,sans-Serif" font-size="10.00">MoFEM::OpBaseTimesScalar</text>
<text text-anchor="middle" x="309" y="-62.5" font-family="Helvetica,sans-Serif" font-size="10.00">Impl&lt; 1, S, GAUSS, OpBase &gt;</text>
</a>
</g>
</g>
<!-- Node2 -->
<g id="node2" class="node">
<title>Node2</title>
<g id="a_node2"><a xlink:href="classOpBase.html" target="_top" xlink:title=" ">
<polygon fill="white" stroke="black" points="42.5,-110 42.5,-129 96.5,-129 96.5,-110 42.5,-110"/>
<text text-anchor="middle" x="69.5" y="-117" font-family="Helvetica,sans-Serif" font-size="10.00">OpBase</text>
</a>
</g>
</g>
<!-- Node2&#45;&gt;Node1 -->
<g id="edge1" class="edge">
<title>Node2&#45;&gt;Node1</title>
<path fill="none" stroke="midnightblue" d="M106.78,-112.01C140.81,-104.99 192.68,-94.29 235.24,-85.51"/>
<polygon fill="midnightblue" stroke="midnightblue" points="105.91,-108.62 96.82,-114.07 107.33,-115.48 105.91,-108.62"/>
</g>
<!-- Node3 -->
<g id="node3" class="node">
<title>Node3</title>
<g id="a_node3"><a xlink:title=" ">
<polygon fill="white" stroke="#bfbfbf" points="4,-50 4,-91 135,-91 135,-50 4,-50"/>
<text text-anchor="start" x="12" y="-79" font-family="Helvetica,sans-Serif" font-size="10.00">function&lt; double(const</text>
<text text-anchor="start" x="12" y="-68" font-family="Helvetica,sans-Serif" font-size="10.00"> double, const double,</text>
<text text-anchor="middle" x="69.5" y="-57" font-family="Helvetica,sans-Serif" font-size="10.00"> const double)&gt;</text>
</a>
</g>
</g>
<!-- Node3&#45;&gt;Node1 -->
<g id="edge2" class="edge">
<title>Node3&#45;&gt;Node1</title>
<path fill="none" stroke="#9a32cd" stroke-dasharray="5,2" d="M145.33,-70.5C171.55,-70.5 201.09,-70.5 227.73,-70.5"/>
<polygon fill="#9a32cd" stroke="#9a32cd" points="145.08,-67 135.08,-70.5 145.08,-74 145.08,-67"/>
<text text-anchor="middle" x="183.5" y="-73.5" font-family="Helvetica,sans-Serif" font-size="10.00"> betaCoeff</text>
</g>
<!-- Node4 -->
<g id="node4" class="node">
<title>Node4</title>
<g id="a_node4"><a xlink:title=" ">
<polygon fill="white" stroke="#bfbfbf" points="0,-0.5 0,-30.5 139,-30.5 139,-0.5 0,-0.5"/>
<text text-anchor="start" x="8" y="-18.5" font-family="Helvetica,sans-Serif" font-size="10.00">shared_ptr&lt; UBlasVector</text>
<text text-anchor="middle" x="69.5" y="-7.5" font-family="Helvetica,sans-Serif" font-size="10.00">&lt; double &gt; &gt;</text>
</a>
</g>
</g>
<!-- Node4&#45;&gt;Node1 -->
<g id="edge3" class="edge">
<title>Node4&#45;&gt;Node1</title>
<path fill="none" stroke="#9a32cd" stroke-dasharray="5,2" d="M145.41,-32.85C176.8,-40.12 212.95,-48.49 243.18,-55.49"/>
<polygon fill="#9a32cd" stroke="#9a32cd" points="145.93,-29.38 135.4,-30.53 144.35,-36.19 145.93,-29.38"/>
<text text-anchor="middle" x="183.5" y="-49.5" font-family="Helvetica,sans-Serif" font-size="10.00"> sourceVec</text>
</g>
</g>
</svg>
