<?xml version="1.0" encoding="UTF-8" standalone="no"?>
<!DOCTYPE svg PUBLIC "-//W3C//DTD SVG 1.1//EN"
 "http://www.w3.org/Graphics/SVG/1.1/DTD/svg11.dtd">
<!-- Generated by graphviz version 2.43.0 (0)
 -->
<!-- Title: BCs_RVELagrange_Periodic::OpRVEBCsPeriodicCalLagMulAtGaussPts Pages: 1 -->
<!--zoomable 373 -->
<svg id="main" version="1.1" xmlns="http://www.w3.org/2000/svg" xmlns:xlink="http://www.w3.org/1999/xlink" xml:space="preserve" onload="init(evt)">
<style type="text/css"><![CDATA[
.edge:hover path { stroke: red; }
.edge:hover polygon { stroke: red; fill: red; }
]]></style>
<script type="text/javascript"><![CDATA[
var edges = document.getElementsByTagName('g');
if (edges && edges.length) {
  for (var i=0;i<edges.length;i++) {
    if (edges[i].id.substr(0,4)=='edge') {
      edges[i].setAttribute('class','edge');
    }
  }
}
]]></script>
        <defs>
                <circle id="rim" cx="0" cy="0" r="7"/>
                <circle id="rim2" cx="0" cy="0" r="3.5"/>
                <g id="zoomPlus">
                        <use xlink:href="#rim" fill="#404040">
                                <set attributeName="fill" to="#808080" begin="zoomplus.mouseover" end="zoomplus.mouseout"/>
                        </use>
                        <path d="M-4,0h8M0,-4v8" fill="none" stroke="white" stroke-width="1.5" pointer-events="none"/>
                </g>
                <g id="zoomMin">
                        <use xlink:href="#rim" fill="#404040">
                                <set attributeName="fill" to="#808080" begin="zoomminus.mouseover" end="zoomminus.mouseout"/>
                        </use>
                        <path d="M-4,0h8" fill="none" stroke="white" stroke-width="1.5" pointer-events="none"/>
                </g>
                <g id="dirArrow">
                        <path fill="none" stroke="white" stroke-width="1.5" d="M0,-3.0v7 M-2.5,-0.5L0,-3.0L2.5,-0.5"/>
                </g>
               <g id="resetDef">
                       <use xlink:href="#rim2" fill="#404040">
                               <set attributeName="fill" to="#808080" begin="reset.mouseover" end="reset.mouseout"/>
                       </use>
               </g>
        </defs>

<script type="text/javascript">
var viewWidth = 849;
var viewHeight = 373;
var sectionId = 'dynsection-1';
</script>
<script xlink:href="svgpan.js"/>
<svg id="graph" class="graph">
<g id="viewport">
<title>BCs_RVELagrange_Periodic::OpRVEBCsPeriodicCalLagMulAtGaussPts</title>
<polygon fill="white" stroke="transparent" points="-4,4 -4,-368.5 845,-368.5 845,4 -4,4"/>
<!-- Node1 -->
<g id="node1" class="node">
<title>Node1</title>
<g id="a_node1"><a xlink:title=" ">
<polygon fill="#bfbfbf" stroke="black" points="621,-126 621,-156 841,-156 841,-126 621,-126"/>
<text text-anchor="start" x="629" y="-144" font-family="Helvetica,sans-Serif" font-size="10.00">BCs_RVELagrange_Periodic</text>
<text text-anchor="middle" x="731" y="-133" font-family="Helvetica,sans-Serif" font-size="10.00">::OpRVEBCsPeriodicCalLagMulAtGaussPts</text>
</a>
</g>
</g>
<!-- Node2 -->
<g id="node2" class="node">
<title>Node2</title>
<g id="a_node2"><a xlink:title=" ">
<polygon fill="white" stroke="#bfbfbf" points="324.5,-262.5 324.5,-281.5 429.5,-281.5 429.5,-262.5 324.5,-262.5"/>
<text text-anchor="middle" x="377" y="-269.5" font-family="Helvetica,sans-Serif" font-size="10.00">UserDataOperator</text>
</a>
</g>
</g>
<!-- Node2&#45;&gt;Node1 -->
<g id="edge1" class="edge">
<title>Node2&#45;&gt;Node1</title>
<path fill="none" stroke="midnightblue" d="M440.14,-269.22C486.57,-265.34 550.75,-256.07 603,-234 648.06,-214.96 692.2,-177.08 714.67,-156.01"/>
<polygon fill="midnightblue" stroke="midnightblue" points="439.63,-265.75 429.93,-270.02 440.17,-272.73 439.63,-265.75"/>
</g>
<!-- Node3 -->
<g id="node3" class="node">
<title>Node3</title>
<g id="a_node3"><a xlink:title=" ">
<polygon fill="white" stroke="#bfbfbf" points="335.5,-224.5 335.5,-243.5 418.5,-243.5 418.5,-224.5 335.5,-224.5"/>
<text text-anchor="middle" x="377" y="-231.5" font-family="Helvetica,sans-Serif" font-size="10.00">MatrixDouble</text>
</a>
</g>
</g>
<!-- Node3&#45;&gt;Node1 -->
<g id="edge2" class="edge">
<title>Node3&#45;&gt;Node1</title>
<path fill="none" stroke="#9a32cd" stroke-dasharray="5,2" d="M428.8,-227.06C474.82,-220.12 544.23,-208.02 603,-191 635.66,-181.54 671.61,-166.97 696.9,-156"/>
<polygon fill="#9a32cd" stroke="#9a32cd" points="428.15,-223.62 418.77,-228.54 429.18,-230.54 428.15,-223.62"/>
<text text-anchor="middle" x="537" y="-222" font-family="Helvetica,sans-Serif" font-size="10.00"> N_mat</text>
</g>
<!-- Node4 -->
<g id="node4" class="node">
<title>Node4</title>
<g id="a_node4"><a xlink:href="structBCs__RVELagrange__Periodic_1_1CommonDataPeriodic.html" target="_top" xlink:title=" ">
<polygon fill="white" stroke="black" points="302.5,-175 302.5,-205 451.5,-205 451.5,-175 302.5,-175"/>
<text text-anchor="start" x="310.5" y="-193" font-family="Helvetica,sans-Serif" font-size="10.00">BCs_RVELagrange_Periodic</text>
<text text-anchor="middle" x="377" y="-182" font-family="Helvetica,sans-Serif" font-size="10.00">::CommonDataPeriodic</text>
</a>
</g>
</g>
<!-- Node4&#45;&gt;Node1 -->
<g id="edge3" class="edge">
<title>Node4&#45;&gt;Node1</title>
<path fill="none" stroke="#9a32cd" stroke-dasharray="5,2" d="M461.84,-178.33C509.88,-171.64 570.67,-163.18 622.23,-156"/>
<polygon fill="#9a32cd" stroke="#9a32cd" points="461.21,-174.88 451.79,-179.73 462.18,-181.82 461.21,-174.88"/>
<text text-anchor="middle" x="537" y="-179" font-family="Helvetica,sans-Serif" font-size="10.00"> commonDataPeriodic</text>
</g>
<!-- Node5 -->
<g id="node5" class="node">
<title>Node5</title>
<g id="a_node5"><a xlink:title=" ">
<polygon fill="white" stroke="#bfbfbf" points="6.5,-312 6.5,-364 164.5,-364 164.5,-312 6.5,-312"/>
<text text-anchor="start" x="14.5" y="-352" font-family="Helvetica,sans-Serif" font-size="10.00">vector&lt; map&lt; EntityType,</text>
<text text-anchor="start" x="14.5" y="-341" font-family="Helvetica,sans-Serif" font-size="10.00"> map&lt; int, map&lt; EntityType,</text>
<text text-anchor="start" x="14.5" y="-330" font-family="Helvetica,sans-Serif" font-size="10.00"> map&lt; int, MatrixDouble &gt;</text>
<text text-anchor="middle" x="85.5" y="-319" font-family="Helvetica,sans-Serif" font-size="10.00"> &gt; &gt; &gt; &gt;</text>
</a>
</g>
</g>
<!-- Node5&#45;&gt;Node4 -->
<g id="edge4" class="edge">
<title>Node5&#45;&gt;Node4</title>
<path fill="none" stroke="#9a32cd" stroke-dasharray="5,2" d="M174.91,-337.29C212.83,-332.42 254.8,-320.21 283,-292 307.85,-267.14 277.32,-240.97 301,-215 304.51,-211.15 308.64,-207.89 313.11,-205.13"/>
<polygon fill="#9a32cd" stroke="#9a32cd" points="174.4,-333.83 164.85,-338.43 175.18,-340.78 174.4,-333.83"/>
<text text-anchor="middle" x="236" y="-337" font-family="Helvetica,sans-Serif" font-size="10.00"> Cmat</text>
</g>
<!-- Node6 -->
<g id="node6" class="node">
<title>Node6</title>
<g id="a_node6"><a xlink:title=" ">
<polygon fill="white" stroke="#bfbfbf" points="17.5,-273.5 17.5,-292.5 153.5,-292.5 153.5,-273.5 17.5,-273.5"/>
<text text-anchor="middle" x="85.5" y="-280.5" font-family="Helvetica,sans-Serif" font-size="10.00">vector&lt; MatrixDouble &gt;</text>
</a>
</g>
</g>
<!-- Node6&#45;&gt;Node4 -->
<g id="edge5" class="edge">
<title>Node6&#45;&gt;Node4</title>
<path fill="none" stroke="#9a32cd" stroke-dasharray="5,2" d="M163.77,-281.91C202.48,-278.01 248.35,-267.99 283,-244 295.47,-235.36 289.1,-224.4 301,-215 305.85,-211.17 311.31,-207.92 317.02,-205.15"/>
<polygon fill="#9a32cd" stroke="#9a32cd" points="163.23,-278.44 153.58,-282.81 163.85,-285.41 163.23,-278.44"/>
<text text-anchor="middle" x="236" y="-280" font-family="Helvetica,sans-Serif" font-size="10.00"> D_mat</text>
</g>
<!-- Node7 -->
<g id="node7" class="node">
<title>Node7</title>
<g id="a_node7"><a xlink:title=" ">
<polygon fill="white" stroke="#bfbfbf" points="24.5,-224 24.5,-254 146.5,-254 146.5,-224 24.5,-224"/>
<text text-anchor="start" x="32.5" y="-242" font-family="Helvetica,sans-Serif" font-size="10.00">vector&lt; ublas::vector</text>
<text text-anchor="middle" x="85.5" y="-231" font-family="Helvetica,sans-Serif" font-size="10.00">&lt; VectorDouble &gt; &gt;</text>
</a>
</g>
</g>
<!-- Node7&#45;&gt;Node4 -->
<g id="edge6" class="edge">
<title>Node7&#45;&gt;Node4</title>
<path fill="none" stroke="#9a32cd" stroke-dasharray="5,2" d="M156.99,-233.44C194.61,-229.79 241.57,-224.16 283,-216 297.64,-213.12 313.34,-209.09 327.6,-205.07"/>
<polygon fill="#9a32cd" stroke="#9a32cd" points="156.27,-229.99 146.64,-234.41 156.93,-236.96 156.27,-229.99"/>
<text text-anchor="middle" x="236" y="-232" font-family="Helvetica,sans-Serif" font-size="10.00"> DispAtGaussPts</text>
</g>
<!-- Node8 -->
<g id="node8" class="node">
<title>Node8</title>
<g id="a_node8"><a xlink:title=" ">
<polygon fill="white" stroke="#bfbfbf" points="0,-175 0,-205 171,-205 171,-175 0,-175"/>
<text text-anchor="start" x="8" y="-193" font-family="Helvetica,sans-Serif" font-size="10.00">vector&lt; map&lt; EntityType,</text>
<text text-anchor="middle" x="85.5" y="-182" font-family="Helvetica,sans-Serif" font-size="10.00"> map&lt; int, MatrixDouble &gt; &gt; &gt;</text>
</a>
</g>
</g>
<!-- Node8&#45;&gt;Node4 -->
<g id="edge7" class="edge">
<title>Node8&#45;&gt;Node4</title>
<path fill="none" stroke="#9a32cd" stroke-dasharray="5,2" d="M181.14,-190C220.46,-190 265.39,-190 302.2,-190"/>
<polygon fill="#9a32cd" stroke="#9a32cd" points="181.01,-186.5 171.01,-190 181.01,-193.5 181.01,-186.5"/>
<text text-anchor="middle" x="236" y="-204" font-family="Helvetica,sans-Serif" font-size="10.00"> RowN</text>
<text text-anchor="middle" x="236" y="-193" font-family="Helvetica,sans-Serif" font-size="10.00">ColN</text>
</g>
<!-- Node9 -->
<g id="node9" class="node">
<title>Node9</title>
<g id="a_node9"><a xlink:title=" ">
<polygon fill="white" stroke="#bfbfbf" points="18,-136.5 18,-155.5 153,-155.5 153,-136.5 18,-136.5"/>
<text text-anchor="middle" x="85.5" y="-143.5" font-family="Helvetica,sans-Serif" font-size="10.00">vector&lt; VectorDouble &gt;</text>
</a>
</g>
</g>
<!-- Node9&#45;&gt;Node4 -->
<g id="edge8" class="edge">
<title>Node9&#45;&gt;Node4</title>
<path fill="none" stroke="#9a32cd" stroke-dasharray="5,2" d="M162.55,-156.98C199,-162.31 243.28,-168.87 283,-175 289.3,-175.97 295.84,-177 302.41,-178.04"/>
<polygon fill="#9a32cd" stroke="#9a32cd" points="162.88,-153.49 152.48,-155.51 161.87,-160.42 162.88,-153.49"/>
<text text-anchor="middle" x="236" y="-178" font-family="Helvetica,sans-Serif" font-size="10.00"> LagMulAtGaussPts</text>
</g>
<!-- Node10 -->
<g id="node10" class="node">
<title>Node10</title>
<g id="a_node10"><a xlink:title=" ">
<polygon fill="white" stroke="#bfbfbf" points="12.5,-76.5 12.5,-117.5 158.5,-117.5 158.5,-76.5 12.5,-76.5"/>
<text text-anchor="start" x="20.5" y="-105.5" font-family="Helvetica,sans-Serif" font-size="10.00">vector&lt; map&lt; EntityType,</text>
<text text-anchor="start" x="20.5" y="-94.5" font-family="Helvetica,sans-Serif" font-size="10.00"> map&lt; int, ublas::vector</text>
<text text-anchor="middle" x="85.5" y="-83.5" font-family="Helvetica,sans-Serif" font-size="10.00">&lt; int &gt; &gt; &gt; &gt;</text>
</a>
</g>
</g>
<!-- Node10&#45;&gt;Node4 -->
<g id="edge9" class="edge">
<title>Node10&#45;&gt;Node4</title>
<path fill="none" stroke="#9a32cd" stroke-dasharray="5,2" d="M168.48,-97.66C206.28,-101.56 249.98,-111.53 283,-135 295.99,-144.23 288.58,-156.02 301,-166 305.26,-169.43 310.02,-172.37 315.02,-174.89"/>
<polygon fill="#9a32cd" stroke="#9a32cd" points="168.78,-94.17 158.5,-96.75 168.14,-101.14 168.78,-94.17"/>
<text text-anchor="middle" x="236" y="-149" font-family="Helvetica,sans-Serif" font-size="10.00"> RowInd</text>
<text text-anchor="middle" x="236" y="-138" font-family="Helvetica,sans-Serif" font-size="10.00">ColInd</text>
</g>
<!-- Node11 -->
<g id="node11" class="node">
<title>Node11</title>
<g id="a_node11"><a xlink:href="structBCs__RVELagrange__Periodic_1_1CommonFunctionsPeriodic.html" target="_top" xlink:title=" ">
<polygon fill="white" stroke="black" points="301,-126 301,-156 453,-156 453,-126 301,-126"/>
<text text-anchor="start" x="309" y="-144" font-family="Helvetica,sans-Serif" font-size="10.00">BCs_RVELagrange_Periodic</text>
<text text-anchor="middle" x="377" y="-133" font-family="Helvetica,sans-Serif" font-size="10.00">::CommonFunctionsPeriodic</text>
</a>
</g>
</g>
<!-- Node11&#45;&gt;Node1 -->
<g id="edge10" class="edge">
<title>Node11&#45;&gt;Node1</title>
<path fill="none" stroke="#9a32cd" stroke-dasharray="5,2" d="M463.31,-141C510.72,-141 570.2,-141 620.96,-141"/>
<polygon fill="#9a32cd" stroke="#9a32cd" points="463.08,-137.5 453.08,-141 463.08,-144.5 463.08,-137.5"/>
<text text-anchor="middle" x="537" y="-144" font-family="Helvetica,sans-Serif" font-size="10.00"> commonFunctionsPeriodic</text>
</g>
<!-- Node12 -->
<g id="node12" class="node">
<title>Node12</title>
<g id="a_node12"><a xlink:href="structBCs__RVELagrange__Periodic_1_1RVEBC__Data__Periodic.html" target="_top" xlink:title=" ">
<polygon fill="white" stroke="black" points="302.5,-77 302.5,-107 451.5,-107 451.5,-77 302.5,-77"/>
<text text-anchor="start" x="310.5" y="-95" font-family="Helvetica,sans-Serif" font-size="10.00">BCs_RVELagrange_Periodic</text>
<text text-anchor="middle" x="377" y="-84" font-family="Helvetica,sans-Serif" font-size="10.00">::RVEBC_Data_Periodic</text>
</a>
</g>
</g>
<!-- Node12&#45;&gt;Node1 -->
<g id="edge11" class="edge">
<title>Node12&#45;&gt;Node1</title>
<path fill="none" stroke="#9a32cd" stroke-dasharray="5,2" d="M461.84,-103.67C509.88,-110.36 570.67,-118.82 622.23,-126"/>
<polygon fill="#9a32cd" stroke="#9a32cd" points="462.18,-100.18 451.79,-102.27 461.21,-107.12 462.18,-100.18"/>
<text text-anchor="middle" x="537" y="-125" font-family="Helvetica,sans-Serif" font-size="10.00"> dAta</text>
</g>
<!-- Node13 -->
<g id="node13" class="node">
<title>Node13</title>
<g id="a_node13"><a xlink:href="classRange.html" target="_top" xlink:title=" ">
<polygon fill="white" stroke="black" points="62,-38.5 62,-57.5 109,-57.5 109,-38.5 62,-38.5"/>
<text text-anchor="middle" x="85.5" y="-45.5" font-family="Helvetica,sans-Serif" font-size="10.00">Range</text>
</a>
</g>
</g>
<!-- Node13&#45;&gt;Node12 -->
<g id="edge12" class="edge">
<title>Node13&#45;&gt;Node12</title>
<path fill="none" stroke="#9a32cd" stroke-dasharray="5,2" d="M119.14,-48.56C158.36,-49.7 226.01,-53.23 283,-64 299.57,-67.13 317.38,-72.09 332.94,-76.97"/>
<polygon fill="#9a32cd" stroke="#9a32cd" points="119.19,-45.06 109.1,-48.3 119.01,-52.05 119.19,-45.06"/>
<text text-anchor="middle" x="236" y="-67" font-family="Helvetica,sans-Serif" font-size="10.00"> pRisms</text>
</g>
<!-- Node14 -->
<g id="node14" class="node">
<title>Node14</title>
<g id="a_node14"><a xlink:href="classbool.html" target="_top" xlink:title=" ">
<polygon fill="white" stroke="black" points="358,-38.5 358,-57.5 396,-57.5 396,-38.5 358,-38.5"/>
<text text-anchor="middle" x="377" y="-45.5" font-family="Helvetica,sans-Serif" font-size="10.00">bool</text>
</a>
</g>
</g>
<!-- Node14&#45;&gt;Node1 -->
<g id="edge13" class="edge">
<title>Node14&#45;&gt;Node1</title>
<path fill="none" stroke="#9a32cd" stroke-dasharray="5,2" d="M406.08,-51.43C449.07,-57.08 533.53,-69.78 603,-90 636.08,-99.63 672.43,-114.71 697.73,-125.98"/>
<polygon fill="#9a32cd" stroke="#9a32cd" points="406.44,-47.94 396.07,-50.14 405.55,-54.89 406.44,-47.94"/>
<text text-anchor="middle" x="537" y="-93" font-family="Helvetica,sans-Serif" font-size="10.00"> hoGeometry</text>
</g>
<!-- Node15 -->
<g id="node15" class="node">
<title>Node15</title>
<g id="a_node15"><a xlink:title=" ">
<polygon fill="white" stroke="#bfbfbf" points="336,-0.5 336,-19.5 418,-19.5 418,-0.5 336,-0.5"/>
<text text-anchor="middle" x="377" y="-7.5" font-family="Helvetica,sans-Serif" font-size="10.00">VectorDouble</text>
</a>
</g>
</g>
<!-- Node15&#45;&gt;Node1 -->
<g id="edge14" class="edge">
<title>Node15&#45;&gt;Node1</title>
<path fill="none" stroke="#9a32cd" stroke-dasharray="5,2" d="M428.41,-11.19C475.3,-13.87 546.27,-21.99 603,-46 648.64,-65.32 692.89,-104.44 715.13,-125.96"/>
<polygon fill="#9a32cd" stroke="#9a32cd" points="428.36,-7.68 418.2,-10.67 428.01,-14.67 428.36,-7.68"/>
<text text-anchor="middle" x="537" y="-49" font-family="Helvetica,sans-Serif" font-size="10.00"> field_data_nodes</text>
</g>
</g>
</svg>
        <g id="navigator" transform="translate(0 0)" fill="#404254">
                <rect fill="#f2f5e9" fill-opacity="0.5" stroke="#606060" stroke-width=".5" x="0" y="0" width="60" height="60"/>
                <use id="zoomplus" xlink:href="#zoomPlus" x="17" y="9" onmousedown="handleZoom(evt,'in')"/>
                <use id="zoomminus" xlink:href="#zoomMin" x="42" y="9" onmousedown="handleZoom(evt,'out')"/>
                <use id="reset" xlink:href="#resetDef" x="30" y="36" onmousedown="handleReset()"/>
                <g id="arrowUp" xlink:href="#dirArrow" transform="translate(30 24)" onmousedown="handlePan(0,-1)">
                  <use xlink:href="#rim" fill="#404040">
                        <set attributeName="fill" to="#808080" begin="arrowUp.mouseover" end="arrowUp.mouseout"/>
                  </use>
                  <path fill="none" stroke="white" stroke-width="1.5" d="M0,-3.0v7 M-2.5,-0.5L0,-3.0L2.5,-0.5"/>
                </g>
                <g id="arrowRight" xlink:href="#dirArrow" transform="rotate(90) translate(36 -43)" onmousedown="handlePan(1,0)">
                  <use xlink:href="#rim" fill="#404040">
                        <set attributeName="fill" to="#808080" begin="arrowRight.mouseover" end="arrowRight.mouseout"/>
                  </use>
                  <path fill="none" stroke="white" stroke-width="1.5" d="M0,-3.0v7 M-2.5,-0.5L0,-3.0L2.5,-0.5"/>
                </g>
                <g id="arrowDown" xlink:href="#dirArrow" transform="rotate(180) translate(-30 -48)" onmousedown="handlePan(0,1)">
                  <use xlink:href="#rim" fill="#404040">
                        <set attributeName="fill" to="#808080" begin="arrowDown.mouseover" end="arrowDown.mouseout"/>
                  </use>
                  <path fill="none" stroke="white" stroke-width="1.5" d="M0,-3.0v7 M-2.5,-0.5L0,-3.0L2.5,-0.5"/>
                </g>
                <g id="arrowLeft" xlink:href="#dirArrow" transform="rotate(270) translate(-36 17)" onmousedown="handlePan(-1,0)">
                  <use xlink:href="#rim" fill="#404040">
                        <set attributeName="fill" to="#808080" begin="arrowLeft.mouseover" end="arrowLeft.mouseout"/>
                  </use>
                  <path fill="none" stroke="white" stroke-width="1.5" d="M0,-3.0v7 M-2.5,-0.5L0,-3.0L2.5,-0.5"/>
                </g>
        </g>
        <svg viewBox="0 0 15 15" width="100%" height="30px" preserveAspectRatio="xMaxYMin meet">
         <g id="arrow_out" transform="scale(0.3 0.3)">
          <a xlink:href="structBCs__RVELagrange__Periodic_1_1OpRVEBCsPeriodicCalLagMulAtGaussPts__coll__graph_org.svg" target="_base">
           <rect id="button" ry="5" rx="5" y="6" x="6" height="38" width="38"
                fill="#f2f5e9" fill-opacity="0.5" stroke="#606060" stroke-width="1.0"/>
           <path id="arrow"
             d="M 11.500037,31.436501 C 11.940474,20.09759 22.043105,11.32322 32.158766,21.979434 L 37.068811,17.246167 C 37.068811,17.246167 37.088388,32 37.088388,32 L 22.160133,31.978069 C 22.160133,31.978069 26.997745,27.140456 26.997745,27.140456 C 18.528582,18.264221 13.291696,25.230495 11.500037,31.436501 z"
             style="fill:#404040;"/>
          </a>
         </g>
        </svg>
</svg>
