<?xml version="1.0" encoding="UTF-8" standalone="no"?>
<!DOCTYPE svg PUBLIC "-//W3C//DTD SVG 1.1//EN"
 "http://www.w3.org/Graphics/SVG/1.1/DTD/svg11.dtd">
<!-- Generated by graphviz version 2.43.0 (0)
 -->
<!-- Title: NeumannForcesSurfaceComplexForLazy::MyTriangleSpatialFE::bCForce Pages: 1 -->
<svg width="195pt" height="117pt"
 viewBox="0.00 0.00 195.00 117.00" xmlns="http://www.w3.org/2000/svg" xmlns:xlink="http://www.w3.org/1999/xlink">
<g id="graph0" class="graph" transform="scale(1 1) rotate(0) translate(4 113)">
<title>NeumannForcesSurfaceComplexForLazy::MyTriangleSpatialFE::bCForce</title>
<polygon fill="white" stroke="transparent" points="-4,4 -4,-113 191,-113 191,4 -4,4"/>
<!-- Node1 -->
<g id="node1" class="node">
<title>Node1</title>
<g id="a_node1"><a xlink:title=" ">
<polygon fill="#bfbfbf" stroke="black" points="11,-0.5 11,-41.5 187,-41.5 187,-0.5 11,-0.5"/>
<text text-anchor="start" x="19" y="-29.5" font-family="Helvetica,sans-Serif" font-size="10.00">NeumannForcesSurfaceComplex</text>
<text text-anchor="start" x="19" y="-18.5" font-family="Helvetica,sans-Serif" font-size="10.00">ForLazy::MyTriangleSpatialFE</text>
<text text-anchor="middle" x="99" y="-7.5" font-family="Helvetica,sans-Serif" font-size="10.00">::bCForce</text>
</a>
</g>
</g>
<!-- Node2 -->
<g id="node2" class="node">
<title>Node2</title>
<g id="a_node2"><a xlink:title=" ">
<polygon fill="white" stroke="#bfbfbf" points="0,-89.5 0,-108.5 104,-108.5 104,-89.5 0,-89.5"/>
<text text-anchor="middle" x="52" y="-96.5" font-family="Helvetica,sans-Serif" font-size="10.00">ForceCubitBcData</text>
</a>
</g>
</g>
<!-- Node2&#45;&gt;Node1 -->
<g id="edge1" class="edge">
<title>Node2&#45;&gt;Node1</title>
<path fill="none" stroke="#9a32cd" stroke-dasharray="5,2" d="M62.79,-80.55C69.97,-68.94 79.4,-53.69 86.84,-41.66"/>
<polygon fill="#9a32cd" stroke="#9a32cd" points="59.67,-78.94 57.39,-89.28 65.63,-82.62 59.67,-78.94"/>
<text text-anchor="middle" x="88.5" y="-63" font-family="Helvetica,sans-Serif" font-size="10.00"> data</text>
</g>
<!-- Node3 -->
<g id="node3" class="node">
<title>Node3</title>
<g id="a_node3"><a xlink:href="classRange.html" target="_top" xlink:title=" ">
<polygon fill="white" stroke="black" points="122.5,-89.5 122.5,-108.5 169.5,-108.5 169.5,-89.5 122.5,-89.5"/>
<text text-anchor="middle" x="146" y="-96.5" font-family="Helvetica,sans-Serif" font-size="10.00">Range</text>
</a>
</g>
</g>
<!-- Node3&#45;&gt;Node1 -->
<g id="edge2" class="edge">
<title>Node3&#45;&gt;Node1</title>
<path fill="none" stroke="#9a32cd" stroke-dasharray="5,2" d="M135.21,-80.55C128.03,-68.94 118.6,-53.69 111.16,-41.66"/>
<polygon fill="#9a32cd" stroke="#9a32cd" points="132.37,-82.62 140.61,-89.28 138.33,-78.94 132.37,-82.62"/>
<text text-anchor="middle" x="139" y="-63" font-family="Helvetica,sans-Serif" font-size="10.00"> tRis</text>
</g>
</g>
</svg>
