<?xml version="1.0" encoding="UTF-8" standalone="no"?>
<!DOCTYPE svg PUBLIC "-//W3C//DTD SVG 1.1//EN"
 "http://www.w3.org/Graphics/SVG/1.1/DTD/svg11.dtd">
<!-- Generated by graphviz version 9.0.0 (20230911.1827)
 -->
<!-- Title: SomeUserPolynomialBase Pages: 1 -->
<svg width="166pt" height="204pt"
 viewBox="0.00 0.00 165.75 204.25" xmlns="http://www.w3.org/2000/svg" xmlns:xlink="http://www.w3.org/1999/xlink">
<g id="graph0" class="graph" transform="scale(1 1) rotate(0) translate(4 200.25)">
<title>SomeUserPolynomialBase</title>
<!-- Node1 -->
<g id="node1" class="node">
<title>Node1</title>
<g id="a_node1"><a xlink:title="Class used to calculate base functions at integration points.">
<polygon fill="#999999" stroke="#666666" points="145.38,-19.25 12.38,-19.25 12.38,0 145.38,0 145.38,-19.25"/>
<text text-anchor="middle" x="78.88" y="-5.75" font-family="Helvetica,sans-Serif" font-size="10.00">SomeUserPolynomialBase</text>
</a>
</g>
</g>
<!-- Node2 -->
<g id="node2" class="node">
<title>Node2</title>
<g id="a_node2"><a xlink:href="struct_mo_f_e_m_1_1_base_function.html" target="_top" xlink:title="Base class if inherited used to calculate base functions.">
<polygon fill="white" stroke="#666666" points="137.12,-74.5 20.62,-74.5 20.62,-55.25 137.12,-55.25 137.12,-74.5"/>
<text text-anchor="middle" x="78.88" y="-61" font-family="Helvetica,sans-Serif" font-size="10.00">MoFEM::BaseFunction</text>
</a>
</g>
</g>
<!-- Node2&#45;&gt;Node1 -->
<g id="edge1" class="edge">
<title>Node2&#45;&gt;Node1</title>
<path fill="none" stroke="#63b8ff" d="M78.88,-43.63C78.88,-35.34 78.88,-26.17 78.88,-19.61"/>
<polygon fill="#63b8ff" stroke="#63b8ff" points="75.38,-43.57 78.88,-53.57 82.38,-43.57 75.38,-43.57"/>
</g>
<!-- Node3 -->
<g id="node3" class="node">
<title>Node3</title>
<g id="a_node3"><a xlink:href="struct_mo_f_e_m_1_1_base_function_unknown_interface.html" target="_top" xlink:title=" ">
<polygon fill="white" stroke="#666666" points="157.75,-141 0,-141 0,-110.5 157.75,-110.5 157.75,-141"/>
<text text-anchor="start" x="8" y="-127.5" font-family="Helvetica,sans-Serif" font-size="10.00">MoFEM::BaseFunctionUnknown</text>
<text text-anchor="middle" x="78.88" y="-116.25" font-family="Helvetica,sans-Serif" font-size="10.00">Interface</text>
</a>
</g>
</g>
<!-- Node3&#45;&gt;Node2 -->
<g id="edge2" class="edge">
<title>Node3&#45;&gt;Node2</title>
<path fill="none" stroke="#63b8ff" d="M78.88,-98.73C78.88,-90.23 78.88,-81.34 78.88,-74.95"/>
<polygon fill="#63b8ff" stroke="#63b8ff" points="75.38,-98.68 78.88,-108.68 82.38,-98.68 75.38,-98.68"/>
</g>
<!-- Node4 -->
<g id="node4" class="node">
<title>Node4</title>
<g id="a_node4"><a xlink:href="struct_mo_f_e_m_1_1_unknown_interface.html" target="_top" xlink:title="base class for all interface classes">
<polygon fill="white" stroke="#666666" points="146.88,-196.25 10.88,-196.25 10.88,-177 146.88,-177 146.88,-196.25"/>
<text text-anchor="middle" x="78.88" y="-182.75" font-family="Helvetica,sans-Serif" font-size="10.00">MoFEM::UnknownInterface</text>
</a>
</g>
</g>
<!-- Node4&#45;&gt;Node3 -->
<g id="edge3" class="edge">
<title>Node4&#45;&gt;Node3</title>
<path fill="none" stroke="#63b8ff" d="M78.88,-165.42C78.88,-157.49 78.88,-148.56 78.88,-141.28"/>
<polygon fill="#63b8ff" stroke="#63b8ff" points="75.38,-165.17 78.88,-175.17 82.38,-165.17 75.38,-165.17"/>
</g>
</g>
</svg>
