<?xml version="1.0" encoding="UTF-8" standalone="no"?>
<!DOCTYPE svg PUBLIC "-//W3C//DTD SVG 1.1//EN"
 "http://www.w3.org/Graphics/SVG/1.1/DTD/svg11.dtd">
<!-- Generated by graphviz version 2.43.0 (0)
 -->
<!-- Title: MoFEM::OpGradTimesSymTensorImpl&lt; 1, SPACE_DIM, SPACE_DIM, S, GAUSS, OpBase &gt; Pages: 1 -->
<svg width="651pt" height="236pt"
 viewBox="0.00 0.00 651.00 235.50" xmlns="http://www.w3.org/2000/svg" xmlns:xlink="http://www.w3.org/1999/xlink">
<g id="graph0" class="graph" transform="scale(1 1) rotate(0) translate(4 231.5)">
<title>MoFEM::OpGradTimesSymTensorImpl&lt; 1, SPACE_DIM, SPACE_DIM, S, GAUSS, OpBase &gt;</title>
<polygon fill="white" stroke="transparent" points="-4,4 -4,-231.5 647,-231.5 647,4 -4,4"/>
<!-- Node1 -->
<g id="node1" class="node">
<title>Node1</title>
<g id="a_node1"><a xlink:title=" ">
<polygon fill="#bfbfbf" stroke="black" points="464,-93 464,-134 643,-134 643,-93 464,-93"/>
<text text-anchor="start" x="472" y="-122" font-family="Helvetica,sans-Serif" font-size="10.00">MoFEM::OpGradTimesSymTensor</text>
<text text-anchor="start" x="472" y="-111" font-family="Helvetica,sans-Serif" font-size="10.00">Impl&lt; 1, SPACE_DIM, SPACE</text>
<text text-anchor="middle" x="553.5" y="-100" font-family="Helvetica,sans-Serif" font-size="10.00">_DIM, S, GAUSS, OpBase &gt;</text>
</a>
</g>
</g>
<!-- Node2 -->
<g id="node2" class="node">
<title>Node2</title>
<g id="a_node2"><a xlink:href="classOpBase.html" target="_top" xlink:title=" ">
<polygon fill="white" stroke="black" points="280,-208 280,-227 334,-227 334,-208 280,-208"/>
<text text-anchor="middle" x="307" y="-215" font-family="Helvetica,sans-Serif" font-size="10.00">OpBase</text>
</a>
</g>
</g>
<!-- Node2&#45;&gt;Node1 -->
<g id="edge1" class="edge">
<title>Node2&#45;&gt;Node1</title>
<path fill="none" stroke="midnightblue" d="M344.15,-208.88C354.85,-205.97 366.51,-202.45 377,-198.5 426.11,-180.02 480.09,-152.76 515.04,-134.12"/>
<polygon fill="midnightblue" stroke="midnightblue" points="343.03,-205.55 334.24,-211.47 344.8,-212.32 343.03,-205.55"/>
</g>
<!-- Node3 -->
<g id="node3" class="node">
<title>Node3</title>
<g id="a_node3"><a xlink:title=" ">
<polygon fill="white" stroke="#bfbfbf" points="241.5,-148 241.5,-189 372.5,-189 372.5,-148 241.5,-148"/>
<text text-anchor="start" x="249.5" y="-177" font-family="Helvetica,sans-Serif" font-size="10.00">function&lt; double(const</text>
<text text-anchor="start" x="249.5" y="-166" font-family="Helvetica,sans-Serif" font-size="10.00"> double, const double,</text>
<text text-anchor="middle" x="307" y="-155" font-family="Helvetica,sans-Serif" font-size="10.00"> const double)&gt;</text>
</a>
</g>
</g>
<!-- Node3&#45;&gt;Node1 -->
<g id="edge2" class="edge">
<title>Node3&#45;&gt;Node1</title>
<path fill="none" stroke="#9a32cd" stroke-dasharray="5,2" d="M382.56,-151.73C408.14,-145.97 437.03,-139.48 463.63,-133.49"/>
<polygon fill="#9a32cd" stroke="#9a32cd" points="381.55,-148.37 372.56,-153.98 383.08,-155.2 381.55,-148.37"/>
<text text-anchor="middle" x="420.5" y="-150.5" font-family="Helvetica,sans-Serif" font-size="10.00"> betaCoeff</text>
</g>
<!-- Node4 -->
<g id="node4" class="node">
<title>Node4</title>
<g id="a_node4"><a xlink:title=" ">
<polygon fill="white" stroke="#bfbfbf" points="237,-98.5 237,-128.5 377,-128.5 377,-98.5 237,-98.5"/>
<text text-anchor="start" x="245" y="-116.5" font-family="Helvetica,sans-Serif" font-size="10.00">shared_ptr&lt; UBlasMatrix</text>
<text text-anchor="middle" x="307" y="-105.5" font-family="Helvetica,sans-Serif" font-size="10.00">&lt; double &gt; &gt;</text>
</a>
</g>
</g>
<!-- Node4&#45;&gt;Node1 -->
<g id="edge3" class="edge">
<title>Node4&#45;&gt;Node1</title>
<path fill="none" stroke="#9a32cd" stroke-dasharray="5,2" d="M387.39,-113.5C411.83,-113.5 438.89,-113.5 463.91,-113.5"/>
<polygon fill="#9a32cd" stroke="#9a32cd" points="387.08,-110 377.08,-113.5 387.08,-117 387.08,-110"/>
<text text-anchor="middle" x="420.5" y="-116.5" font-family="Helvetica,sans-Serif" font-size="10.00"> matVals</text>
</g>
<!-- Node5 -->
<g id="node5" class="node">
<title>Node5</title>
<g id="a_node5"><a xlink:href="classFTensor_1_1Index.html" target="_top" xlink:title=" ">
<polygon fill="white" stroke="black" points="252,-49.5 252,-79.5 362,-79.5 362,-49.5 252,-49.5"/>
<text text-anchor="start" x="260" y="-67.5" font-family="Helvetica,sans-Serif" font-size="10.00">FTensor::Index&lt; &#39;i&#39;,</text>
<text text-anchor="middle" x="307" y="-56.5" font-family="Helvetica,sans-Serif" font-size="10.00"> SPACE_DIM &gt;</text>
</a>
</g>
</g>
<!-- Node5&#45;&gt;Node1 -->
<g id="edge4" class="edge">
<title>Node5&#45;&gt;Node1</title>
<path fill="none" stroke="#9a32cd" stroke-dasharray="5,2" d="M372.32,-77.39C400.3,-83 433.55,-89.66 463.82,-95.73"/>
<polygon fill="#9a32cd" stroke="#9a32cd" points="372.76,-73.91 362.26,-75.37 371.38,-80.77 372.76,-73.91"/>
<text text-anchor="middle" x="420.5" y="-94.5" font-family="Helvetica,sans-Serif" font-size="10.00"> i</text>
</g>
<!-- Node6 -->
<g id="node6" class="node">
<title>Node6</title>
<g id="a_node6"><a xlink:href="classFTensor_1_1Index.html" target="_top" xlink:title=" ">
<polygon fill="white" stroke="black" points="0,-24.5 0,-54.5 104,-54.5 104,-24.5 0,-24.5"/>
<text text-anchor="start" x="8" y="-42.5" font-family="Helvetica,sans-Serif" font-size="10.00">FTensor::Index&lt; i,</text>
<text text-anchor="middle" x="52" y="-31.5" font-family="Helvetica,sans-Serif" font-size="10.00"> Dim &gt;</text>
</a>
</g>
</g>
<!-- Node6&#45;&gt;Node5 -->
<g id="edge5" class="edge">
<title>Node6&#45;&gt;Node5</title>
<path fill="none" stroke="orange" stroke-dasharray="5,2" d="M114.3,-45.56C156.28,-49.71 211.45,-55.16 251.82,-59.15"/>
<polygon fill="orange" stroke="orange" points="114.49,-42.06 104.2,-44.56 113.81,-49.03 114.49,-42.06"/>
<text text-anchor="middle" x="170.5" y="-59.5" font-family="Helvetica,sans-Serif" font-size="10.00"> &lt; &#39;i&#39;, SPACE_DIM &gt;</text>
</g>
<!-- Node7 -->
<g id="node7" class="node">
<title>Node7</title>
<g id="a_node7"><a xlink:href="classFTensor_1_1Index.html" target="_top" xlink:title=" ">
<polygon fill="white" stroke="black" points="252,-0.5 252,-30.5 362,-30.5 362,-0.5 252,-0.5"/>
<text text-anchor="start" x="260" y="-18.5" font-family="Helvetica,sans-Serif" font-size="10.00">FTensor::Index&lt; &#39;j&#39;,</text>
<text text-anchor="middle" x="307" y="-7.5" font-family="Helvetica,sans-Serif" font-size="10.00"> SPACE_DIM &gt;</text>
</a>
</g>
</g>
<!-- Node6&#45;&gt;Node7 -->
<g id="edge7" class="edge">
<title>Node6&#45;&gt;Node7</title>
<path fill="none" stroke="orange" stroke-dasharray="5,2" d="M114.27,-28.49C116.88,-28.14 119.46,-27.8 122,-27.5 165.55,-22.31 215.18,-19.24 251.92,-17.5"/>
<polygon fill="orange" stroke="orange" points="113.54,-25.06 104.15,-29.98 114.56,-31.99 113.54,-25.06"/>
<text text-anchor="middle" x="170.5" y="-30.5" font-family="Helvetica,sans-Serif" font-size="10.00"> &lt; &#39;j&#39;, SPACE_DIM &gt;</text>
</g>
<!-- Node7&#45;&gt;Node1 -->
<g id="edge6" class="edge">
<title>Node7&#45;&gt;Node1</title>
<path fill="none" stroke="#9a32cd" stroke-dasharray="5,2" d="M362.02,-34C367.1,-35.82 372.15,-37.68 377,-39.5 421.41,-56.22 471.17,-77.45 506.34,-92.88"/>
<polygon fill="#9a32cd" stroke="#9a32cd" points="362.89,-30.59 352.29,-30.53 360.54,-37.18 362.89,-30.59"/>
<text text-anchor="middle" x="420.5" y="-69.5" font-family="Helvetica,sans-Serif" font-size="10.00"> j</text>
</g>
</g>
</svg>
