<?xml version="1.0" encoding="UTF-8" standalone="no"?>
<!DOCTYPE svg PUBLIC "-//W3C//DTD SVG 1.1//EN"
 "http://www.w3.org/Graphics/SVG/1.1/DTD/svg11.dtd">
<!-- Generated by graphviz version 2.43.0 (0)
 -->
<!-- Title: OpULhs_dH Pages: 1 -->
<svg width="538pt" height="440pt"
 viewBox="0.00 0.00 538.00 439.97" xmlns="http://www.w3.org/2000/svg" xmlns:xlink="http://www.w3.org/1999/xlink">
<g id="graph0" class="graph" transform="scale(1 1) rotate(0) translate(4 435.97)">
<title>OpULhs_dH</title>
<polygon fill="white" stroke="transparent" points="-4,4 -4,-435.97 534,-435.97 534,4 -4,4"/>
<!-- Node1 -->
<g id="node1" class="node">
<title>Node1</title>
<g id="a_node1"><a xlink:title=" ">
<polygon fill="#bfbfbf" stroke="black" points="457,-242.47 457,-261.47 530,-261.47 530,-242.47 457,-242.47"/>
<text text-anchor="middle" x="493.5" y="-249.47" font-family="Helvetica,sans-Serif" font-size="10.00">OpULhs_dH</text>
</a>
</g>
</g>
<!-- Node2 -->
<g id="node2" class="node">
<title>Node2</title>
<g id="a_node2"><a xlink:href="structMoFEM_1_1OpBaseImpl.html" target="_top" xlink:title=" ">
<polygon fill="white" stroke="black" points="289,-242.47 289,-261.47 420,-261.47 420,-242.47 289,-242.47"/>
<text text-anchor="middle" x="354.5" y="-249.47" font-family="Helvetica,sans-Serif" font-size="10.00">AssemblyDomainEleOp</text>
</a>
</g>
</g>
<!-- Node2&#45;&gt;Node1 -->
<g id="edge1" class="edge">
<title>Node2&#45;&gt;Node1</title>
<path fill="none" stroke="midnightblue" d="M430.42,-251.97C439.64,-251.97 448.7,-251.97 456.93,-251.97"/>
<polygon fill="midnightblue" stroke="midnightblue" points="430.39,-248.47 420.39,-251.97 430.39,-255.47 430.39,-248.47"/>
</g>
<!-- Node3 -->
<g id="node3" class="node">
<title>Node3</title>
<g id="a_node3"><a xlink:href="classEleOp.html" target="_top" xlink:title=" ">
<polygon fill="white" stroke="black" points="52,-412.47 52,-431.47 97,-431.47 97,-412.47 52,-412.47"/>
<text text-anchor="middle" x="74.5" y="-419.47" font-family="Helvetica,sans-Serif" font-size="10.00">EleOp</text>
</a>
</g>
</g>
<!-- Node3&#45;&gt;Node2 -->
<g id="edge2" class="edge">
<title>Node3&#45;&gt;Node2</title>
<path fill="none" stroke="midnightblue" d="M107.03,-427.15C148.32,-432.18 221.28,-434.89 271,-401.97 322.79,-367.67 345,-289.39 351.42,-261.81"/>
<polygon fill="midnightblue" stroke="midnightblue" points="107.38,-423.66 97.01,-425.8 106.45,-430.6 107.38,-423.66"/>
</g>
<!-- Node4 -->
<g id="node4" class="node">
<title>Node4</title>
<g id="a_node4"><a xlink:href="classUBlasVector_3_01double_01_4.html" target="_top" xlink:title=" ">
<polygon fill="white" stroke="black" points="9,-374.47 9,-393.47 140,-393.47 140,-374.47 9,-374.47"/>
<text text-anchor="middle" x="74.5" y="-381.47" font-family="Helvetica,sans-Serif" font-size="10.00">UBlasVector&lt; double &gt;</text>
</a>
</g>
</g>
<!-- Node4&#45;&gt;Node2 -->
<g id="edge3" class="edge">
<title>Node4&#45;&gt;Node2</title>
<path fill="none" stroke="#9a32cd" stroke-dasharray="5,2" d="M150.28,-388.17C188.64,-387.14 234.78,-380.72 271,-359.97 312.15,-336.39 339.54,-283.26 349.41,-261.51"/>
<polygon fill="#9a32cd" stroke="#9a32cd" points="150.14,-384.67 140.2,-388.33 150.25,-391.67 150.14,-384.67"/>
<text text-anchor="middle" x="219" y="-389.97" font-family="Helvetica,sans-Serif" font-size="10.00"> locF</text>
</g>
<!-- Node5 -->
<g id="node5" class="node">
<title>Node5</title>
<g id="a_node5"><a xlink:title=" ">
<polygon fill="white" stroke="#bfbfbf" points="5,-336.47 5,-355.47 144,-355.47 144,-336.47 5,-336.47"/>
<text text-anchor="middle" x="74.5" y="-343.47" font-family="Helvetica,sans-Serif" font-size="10.00">static MatSetValuesHook</text>
</a>
</g>
</g>
<!-- Node5&#45;&gt;Node2 -->
<g id="edge4" class="edge">
<title>Node5&#45;&gt;Node2</title>
<path fill="none" stroke="#9a32cd" stroke-dasharray="5,2" d="M154.27,-346.57C191.05,-344.31 234.64,-337.89 271,-321.97 303,-307.95 332.05,-277.35 345.55,-261.66"/>
<polygon fill="#9a32cd" stroke="#9a32cd" points="153.9,-343.08 144.09,-347.1 154.26,-350.07 153.9,-343.08"/>
<text text-anchor="middle" x="219" y="-347.97" font-family="Helvetica,sans-Serif" font-size="10.00"> matSetValuesHook</text>
</g>
<!-- Node6 -->
<g id="node6" class="node">
<title>Node6</title>
<g id="a_node6"><a xlink:title=" ">
<polygon fill="white" stroke="#bfbfbf" points="40.5,-297.47 40.5,-316.47 108.5,-316.47 108.5,-297.47 40.5,-297.47"/>
<text text-anchor="middle" x="74.5" y="-304.47" font-family="Helvetica,sans-Serif" font-size="10.00">EntityType</text>
</a>
</g>
</g>
<!-- Node6&#45;&gt;Node2 -->
<g id="edge5" class="edge">
<title>Node6&#45;&gt;Node2</title>
<path fill="none" stroke="#9a32cd" stroke-dasharray="5,2" d="M118.83,-302.53C158.69,-297.98 219.28,-289.87 271,-277.97 290.02,-273.59 311,-266.95 327.04,-261.48"/>
<polygon fill="#9a32cd" stroke="#9a32cd" points="118.21,-299.08 108.66,-303.66 118.99,-306.03 118.21,-299.08"/>
<text text-anchor="middle" x="219" y="-309.97" font-family="Helvetica,sans-Serif" font-size="10.00"> rowType</text>
<text text-anchor="middle" x="219" y="-298.97" font-family="Helvetica,sans-Serif" font-size="10.00">colType</text>
</g>
<!-- Node7 -->
<g id="node7" class="node">
<title>Node7</title>
<g id="a_node7"><a xlink:title=" ">
<polygon fill="white" stroke="#bfbfbf" points="13.5,-259.47 13.5,-278.47 135.5,-278.47 135.5,-259.47 13.5,-259.47"/>
<text text-anchor="middle" x="74.5" y="-266.47" font-family="Helvetica,sans-Serif" font-size="10.00">shared_ptr&lt; Range &gt;</text>
</a>
</g>
</g>
<!-- Node7&#45;&gt;Node2 -->
<g id="edge6" class="edge">
<title>Node7&#45;&gt;Node2</title>
<path fill="none" stroke="#9a32cd" stroke-dasharray="5,2" d="M145.87,-264.66C189.86,-261.97 246.09,-258.53 288.94,-255.91"/>
<polygon fill="#9a32cd" stroke="#9a32cd" points="145.59,-261.17 135.82,-265.28 146.02,-268.16 145.59,-261.17"/>
<text text-anchor="middle" x="219" y="-265.97" font-family="Helvetica,sans-Serif" font-size="10.00"> entsPtr</text>
</g>
<!-- Node8 -->
<g id="node8" class="node">
<title>Node8</title>
<g id="a_node8"><a xlink:title=" ">
<polygon fill="white" stroke="#bfbfbf" points="9,-209.97 9,-239.97 140,-239.97 140,-209.97 9,-209.97"/>
<text text-anchor="start" x="17" y="-227.97" font-family="Helvetica,sans-Serif" font-size="10.00">function&lt; double(const</text>
<text text-anchor="middle" x="74.5" y="-216.97" font-family="Helvetica,sans-Serif" font-size="10.00"> FEMethod *fe_ptr)&gt;</text>
</a>
</g>
</g>
<!-- Node8&#45;&gt;Node2 -->
<g id="edge7" class="edge">
<title>Node8&#45;&gt;Node2</title>
<path fill="none" stroke="#9a32cd" stroke-dasharray="5,2" d="M150.33,-230.87C186.76,-233.9 231.2,-237.82 271,-241.97 276.74,-242.56 282.7,-243.22 288.67,-243.9"/>
<polygon fill="#9a32cd" stroke="#9a32cd" points="150.53,-227.38 140.27,-230.04 149.95,-234.36 150.53,-227.38"/>
<text text-anchor="middle" x="219" y="-244.97" font-family="Helvetica,sans-Serif" font-size="10.00"> feScalingFun</text>
</g>
<!-- Node9 -->
<g id="node9" class="node">
<title>Node9</title>
<g id="a_node9"><a xlink:title=" ">
<polygon fill="white" stroke="#bfbfbf" points="60,-136.47 60,-155.47 89,-155.47 89,-136.47 60,-136.47"/>
<text text-anchor="middle" x="74.5" y="-143.47" font-family="Helvetica,sans-Serif" font-size="10.00">int</text>
</a>
</g>
</g>
<!-- Node9&#45;&gt;Node2 -->
<g id="edge8" class="edge">
<title>Node9&#45;&gt;Node2</title>
<path fill="none" stroke="#9a32cd" stroke-dasharray="5,2" d="M99.36,-142.57C137.72,-138.23 214.49,-134.3 271,-161.97 308.31,-180.23 336.85,-223.28 348.18,-242.46"/>
<polygon fill="#9a32cd" stroke="#9a32cd" points="98.68,-139.12 89.19,-143.83 99.54,-146.07 98.68,-139.12"/>
<text text-anchor="middle" x="219" y="-219.97" font-family="Helvetica,sans-Serif" font-size="10.00"> nbIntegrationPts</text>
<text text-anchor="middle" x="219" y="-208.97" font-family="Helvetica,sans-Serif" font-size="10.00">colSide</text>
<text text-anchor="middle" x="219" y="-197.97" font-family="Helvetica,sans-Serif" font-size="10.00">nbCols</text>
<text text-anchor="middle" x="219" y="-186.97" font-family="Helvetica,sans-Serif" font-size="10.00">nbRowBaseFunctions</text>
<text text-anchor="middle" x="219" y="-175.97" font-family="Helvetica,sans-Serif" font-size="10.00">rowSide</text>
<text text-anchor="middle" x="219" y="-164.97" font-family="Helvetica,sans-Serif" font-size="10.00">nbRows</text>
</g>
<!-- Node10 -->
<g id="node10" class="node">
<title>Node10</title>
<g id="a_node10"><a xlink:href="classbool.html" target="_top" xlink:title=" ">
<polygon fill="white" stroke="black" points="55.5,-92.47 55.5,-111.47 93.5,-111.47 93.5,-92.47 55.5,-92.47"/>
<text text-anchor="middle" x="74.5" y="-99.47" font-family="Helvetica,sans-Serif" font-size="10.00">bool</text>
</a>
</g>
</g>
<!-- Node10&#45;&gt;Node2 -->
<g id="edge9" class="edge">
<title>Node10&#45;&gt;Node2</title>
<path fill="none" stroke="#9a32cd" stroke-dasharray="5,2" d="M103.49,-95.84C143.74,-88.63 218.85,-81.3 271,-112.97 320.89,-143.26 344.17,-216.09 351.15,-242.33"/>
<polygon fill="#9a32cd" stroke="#9a32cd" points="102.74,-92.42 93.58,-97.74 104.06,-99.29 102.74,-92.42"/>
<text text-anchor="middle" x="219" y="-126.97" font-family="Helvetica,sans-Serif" font-size="10.00"> assembleTranspose</text>
<text text-anchor="middle" x="219" y="-115.97" font-family="Helvetica,sans-Serif" font-size="10.00">onlyTranspose</text>
</g>
<!-- Node11 -->
<g id="node11" class="node">
<title>Node11</title>
<g id="a_node11"><a xlink:title=" ">
<polygon fill="white" stroke="#bfbfbf" points="0,-54.47 0,-73.47 149,-73.47 149,-54.47 0,-54.47"/>
<text text-anchor="middle" x="74.5" y="-61.47" font-family="Helvetica,sans-Serif" font-size="10.00">function&lt; double(double)&gt;</text>
</a>
</g>
</g>
<!-- Node11&#45;&gt;Node2 -->
<g id="edge10" class="edge">
<title>Node11&#45;&gt;Node2</title>
<path fill="none" stroke="#9a32cd" stroke-dasharray="5,2" d="M127.64,-52.86C169.9,-46.88 229.11,-45.68 271,-73.97 331.41,-114.76 348.47,-211.74 352.44,-242.46"/>
<polygon fill="#9a32cd" stroke="#9a32cd" points="126.9,-49.44 117.55,-54.42 127.97,-56.35 126.9,-49.44"/>
<text text-anchor="middle" x="219" y="-76.97" font-family="Helvetica,sans-Serif" font-size="10.00"> timeScalingFun</text>
</g>
<!-- Node12 -->
<g id="node12" class="node">
<title>Node12</title>
<g id="a_node12"><a xlink:href="classUBlasMatrix_3_01double_01_4.html" target="_top" xlink:title=" ">
<polygon fill="white" stroke="black" points="8.5,-10.47 8.5,-29.47 140.5,-29.47 140.5,-10.47 8.5,-10.47"/>
<text text-anchor="middle" x="74.5" y="-17.47" font-family="Helvetica,sans-Serif" font-size="10.00">UBlasMatrix&lt; double &gt;</text>
</a>
</g>
</g>
<!-- Node12&#45;&gt;Node2 -->
<g id="edge11" class="edge">
<title>Node12&#45;&gt;Node2</title>
<path fill="none" stroke="#9a32cd" stroke-dasharray="5,2" d="M117.5,-8.15C160.26,1.21 226.43,7.99 271,-23.97 345.92,-77.68 353.03,-206.35 353.52,-242.42"/>
<polygon fill="#9a32cd" stroke="#9a32cd" points="116.64,-4.75 107.69,-10.43 118.22,-11.57 116.64,-4.75"/>
<text text-anchor="middle" x="219" y="-37.97" font-family="Helvetica,sans-Serif" font-size="10.00"> locMat</text>
<text text-anchor="middle" x="219" y="-26.97" font-family="Helvetica,sans-Serif" font-size="10.00">locMatTranspose</text>
</g>
</g>
</svg>
