<?xml version="1.0" encoding="UTF-8" standalone="no"?>
<!DOCTYPE svg PUBLIC "-//W3C//DTD SVG 1.1//EN"
 "http://www.w3.org/Graphics/SVG/1.1/DTD/svg11.dtd">
<!-- Generated by graphviz version 9.0.0 (20230911.1827)
 -->
<!-- Title: ConvectiveMassElement::OpMassLhs_dM_dv Pages: 1 -->
<svg width="794pt" height="234pt"
 viewBox="0.00 0.00 794.25 234.12" xmlns="http://www.w3.org/2000/svg" xmlns:xlink="http://www.w3.org/1999/xlink">
<g id="graph0" class="graph" transform="scale(1 1) rotate(0) translate(4 230.12)">
<title>ConvectiveMassElement::OpMassLhs_dM_dv</title>
<!-- Node1 -->
<g id="node1" class="node">
<title>Node1</title>
<g id="a_node1"><a xlink:title=" ">
<polygon fill="#999999" stroke="#666666" points="329.75,-108.5 204.25,-108.5 204.25,-78 329.75,-78 329.75,-108.5"/>
<text text-anchor="start" x="212.25" y="-95" font-family="Helvetica,sans-Serif" font-size="10.00">ConvectiveMassElement</text>
<text text-anchor="middle" x="267" y="-83.75" font-family="Helvetica,sans-Serif" font-size="10.00">::OpMassLhs_dM_dv</text>
</a>
</g>
</g>
<!-- Node4 -->
<g id="node4" class="node">
<title>Node4</title>
<g id="a_node4"><a xlink:href="struct_convective_mass_element_1_1_op_eshelby_dynamic_material_momentum_lhs__dv.html" target="_top" xlink:title=" ">
<polygon fill="white" stroke="#666666" points="558,-193.12 365.75,-193.12 365.75,-151.38 558,-151.38 558,-193.12"/>
<text text-anchor="start" x="373.75" y="-179.62" font-family="Helvetica,sans-Serif" font-size="10.00">ConvectiveMassElement</text>
<text text-anchor="start" x="373.75" y="-168.38" font-family="Helvetica,sans-Serif" font-size="10.00">::OpEshelbyDynamicMaterialMomentum</text>
<text text-anchor="middle" x="461.88" y="-157.12" font-family="Helvetica,sans-Serif" font-size="10.00">Lhs_dv</text>
</a>
</g>
</g>
<!-- Node1&#45;&gt;Node4 -->
<g id="edge3" class="edge">
<title>Node1&#45;&gt;Node4</title>
<path fill="none" stroke="#63b8ff" d="M306.1,-114.12C323.92,-123.42 345.6,-134.08 365.75,-142.25 373.21,-145.27 381.1,-148.19 389.02,-150.94"/>
<polygon fill="#63b8ff" stroke="#63b8ff" points="307.92,-111.12 297.44,-109.54 304.65,-117.31 307.92,-111.12"/>
</g>
<!-- Node7 -->
<g id="node7" class="node">
<title>Node7</title>
<g id="a_node7"><a xlink:href="struct_convective_mass_element_1_1_op_mass_lhs__d_m__d_x.html" target="_top" xlink:title=" ">
<polygon fill="white" stroke="#666666" points="524.62,-133.5 399.12,-133.5 399.12,-103 524.62,-103 524.62,-133.5"/>
<text text-anchor="start" x="407.12" y="-120" font-family="Helvetica,sans-Serif" font-size="10.00">ConvectiveMassElement</text>
<text text-anchor="middle" x="461.88" y="-108.75" font-family="Helvetica,sans-Serif" font-size="10.00">::OpMassLhs_dM_dX</text>
</a>
</g>
</g>
<!-- Node1&#45;&gt;Node7 -->
<g id="edge6" class="edge">
<title>Node1&#45;&gt;Node7</title>
<path fill="none" stroke="#63b8ff" d="M341.39,-102.76C360.36,-105.22 380.59,-107.84 398.9,-110.22"/>
<polygon fill="#63b8ff" stroke="#63b8ff" points="341.96,-99.31 331.59,-101.49 341.06,-106.25 341.96,-99.31"/>
</g>
<!-- Node8 -->
<g id="node8" class="node">
<title>Node8</title>
<g id="a_node8"><a xlink:href="struct_convective_mass_element_1_1_op_mass_lhs__d_m__dx.html" target="_top" xlink:title=" ">
<polygon fill="white" stroke="#666666" points="524.62,-84.5 399.12,-84.5 399.12,-54 524.62,-54 524.62,-84.5"/>
<text text-anchor="start" x="407.12" y="-71" font-family="Helvetica,sans-Serif" font-size="10.00">ConvectiveMassElement</text>
<text text-anchor="middle" x="461.88" y="-59.75" font-family="Helvetica,sans-Serif" font-size="10.00">::OpMassLhs_dM_dx</text>
</a>
</g>
</g>
<!-- Node1&#45;&gt;Node8 -->
<g id="edge7" class="edge">
<title>Node1&#45;&gt;Node8</title>
<path fill="none" stroke="#63b8ff" d="M341.39,-84.12C360.36,-81.76 380.59,-79.24 398.9,-76.96"/>
<polygon fill="#63b8ff" stroke="#63b8ff" points="341.08,-80.63 331.59,-85.34 341.95,-87.58 341.08,-80.63"/>
</g>
<!-- Node9 -->
<g id="node9" class="node">
<title>Node9</title>
<g id="a_node9"><a xlink:href="struct_convective_mass_element_1_1_op_velocity_lhs__d_v__dv.html" target="_top" xlink:title=" ">
<polygon fill="white" stroke="#666666" points="524.62,-35.5 399.12,-35.5 399.12,-5 524.62,-5 524.62,-35.5"/>
<text text-anchor="start" x="407.12" y="-22" font-family="Helvetica,sans-Serif" font-size="10.00">ConvectiveMassElement</text>
<text text-anchor="middle" x="461.88" y="-10.75" font-family="Helvetica,sans-Serif" font-size="10.00">::OpVelocityLhs_dV_dv</text>
</a>
</g>
</g>
<!-- Node1&#45;&gt;Node9 -->
<g id="edge8" class="edge">
<title>Node1&#45;&gt;Node9</title>
<path fill="none" stroke="#63b8ff" d="M305.98,-72.4C323.76,-63.21 345.46,-52.81 365.75,-45.25 376.23,-41.34 387.57,-37.8 398.66,-34.69"/>
<polygon fill="#63b8ff" stroke="#63b8ff" points="304.56,-69.19 297.34,-76.94 307.82,-75.39 304.56,-69.19"/>
</g>
<!-- Node2 -->
<g id="node2" class="node">
<title>Node2</title>
<g id="a_node2"><a xlink:title=" ">
<polygon fill="white" stroke="#666666" points="168.25,-133.5 0,-133.5 0,-103 168.25,-103 168.25,-133.5"/>
<text text-anchor="start" x="8" y="-120" font-family="Helvetica,sans-Serif" font-size="10.00">VolumeElementForcesAndSources</text>
<text text-anchor="middle" x="84.12" y="-108.75" font-family="Helvetica,sans-Serif" font-size="10.00">Core::UserDataOperator</text>
</a>
</g>
</g>
<!-- Node2&#45;&gt;Node1 -->
<g id="edge1" class="edge">
<title>Node2&#45;&gt;Node1</title>
<path fill="none" stroke="#63b8ff" d="M179.81,-105.16C187.97,-104.04 196.08,-102.91 203.88,-101.84"/>
<polygon fill="#63b8ff" stroke="#63b8ff" points="179.61,-101.66 170.18,-106.49 180.56,-108.59 179.61,-101.66"/>
</g>
<!-- Node3 -->
<g id="node3" class="node">
<title>Node3</title>
<g id="a_node3"><a xlink:href="struct_convective_mass_element_1_1_common_functions.html" target="_top" xlink:title=" ">
<polygon fill="white" stroke="#666666" points="146.88,-84.5 21.38,-84.5 21.38,-54 146.88,-54 146.88,-84.5"/>
<text text-anchor="start" x="29.38" y="-71" font-family="Helvetica,sans-Serif" font-size="10.00">ConvectiveMassElement</text>
<text text-anchor="middle" x="84.12" y="-59.75" font-family="Helvetica,sans-Serif" font-size="10.00">::CommonFunctions</text>
</a>
</g>
</g>
<!-- Node3&#45;&gt;Node1 -->
<g id="edge2" class="edge">
<title>Node3&#45;&gt;Node1</title>
<path fill="none" stroke="#63b8ff" d="M158.7,-79.01C173.72,-81.01 189.38,-83.08 203.94,-85.02"/>
<polygon fill="#63b8ff" stroke="#63b8ff" points="159.25,-75.55 148.87,-77.71 158.33,-82.49 159.25,-75.55"/>
</g>
<!-- Node5 -->
<g id="node5" class="node">
<title>Node5</title>
<g id="a_node5"><a xlink:href="struct_convective_mass_element_1_1_op_eshelby_dynamic_material_momentum_lhs__d_x.html" target="_top" xlink:title=" ">
<polygon fill="white" stroke="#666666" points="786.25,-226.12 594,-226.12 594,-184.38 786.25,-184.38 786.25,-226.12"/>
<text text-anchor="start" x="602" y="-212.62" font-family="Helvetica,sans-Serif" font-size="10.00">ConvectiveMassElement</text>
<text text-anchor="start" x="602" y="-201.38" font-family="Helvetica,sans-Serif" font-size="10.00">::OpEshelbyDynamicMaterialMomentum</text>
<text text-anchor="middle" x="690.12" y="-190.12" font-family="Helvetica,sans-Serif" font-size="10.00">Lhs_dX</text>
</a>
</g>
</g>
<!-- Node4&#45;&gt;Node5 -->
<g id="edge4" class="edge">
<title>Node4&#45;&gt;Node5</title>
<path fill="none" stroke="#63b8ff" d="M569.8,-187.85C577.83,-189.02 585.9,-190.19 593.84,-191.35"/>
<polygon fill="#63b8ff" stroke="#63b8ff" points="570.4,-184.4 560,-186.42 569.39,-191.32 570.4,-184.4"/>
</g>
<!-- Node6 -->
<g id="node6" class="node">
<title>Node6</title>
<g id="a_node6"><a xlink:href="struct_convective_mass_element_1_1_op_eshelby_dynamic_material_momentum_lhs__dx.html" target="_top" xlink:title=" ">
<polygon fill="white" stroke="#666666" points="786.25,-166.12 594,-166.12 594,-124.38 786.25,-124.38 786.25,-166.12"/>
<text text-anchor="start" x="602" y="-152.62" font-family="Helvetica,sans-Serif" font-size="10.00">ConvectiveMassElement</text>
<text text-anchor="start" x="602" y="-141.38" font-family="Helvetica,sans-Serif" font-size="10.00">::OpEshelbyDynamicMaterialMomentum</text>
<text text-anchor="middle" x="690.12" y="-130.12" font-family="Helvetica,sans-Serif" font-size="10.00">Lhs_dx</text>
</a>
</g>
</g>
<!-- Node4&#45;&gt;Node6 -->
<g id="edge5" class="edge">
<title>Node4&#45;&gt;Node6</title>
<path fill="none" stroke="#63b8ff" d="M569.8,-159.49C577.83,-158.53 585.9,-157.57 593.84,-156.62"/>
<polygon fill="#63b8ff" stroke="#63b8ff" points="569.52,-156 560,-160.66 570.34,-162.95 569.52,-156"/>
</g>
<!-- Node10 -->
<g id="node10" class="node">
<title>Node10</title>
<g id="a_node10"><a xlink:href="struct_convective_mass_element_1_1_op_velocity_lhs__d_v__d_x.html" target="_top" xlink:title=" ">
<polygon fill="white" stroke="#666666" points="752.88,-79.5 627.38,-79.5 627.38,-49 752.88,-49 752.88,-79.5"/>
<text text-anchor="start" x="635.38" y="-66" font-family="Helvetica,sans-Serif" font-size="10.00">ConvectiveMassElement</text>
<text text-anchor="middle" x="690.12" y="-54.75" font-family="Helvetica,sans-Serif" font-size="10.00">::OpVelocityLhs_dV_dX</text>
</a>
</g>
</g>
<!-- Node9&#45;&gt;Node10 -->
<g id="edge9" class="edge">
<title>Node9&#45;&gt;Node10</title>
<path fill="none" stroke="#63b8ff" d="M536.04,-34.48C565.44,-40.2 598.97,-46.72 627.14,-52.2"/>
<polygon fill="#63b8ff" stroke="#63b8ff" points="536.97,-31.09 526.48,-32.62 535.63,-37.97 536.97,-31.09"/>
</g>
<!-- Node11 -->
<g id="node11" class="node">
<title>Node11</title>
<g id="a_node11"><a xlink:href="struct_convective_mass_element_1_1_op_velocity_lhs__d_v__dx.html" target="_top" xlink:title=" ">
<polygon fill="white" stroke="#666666" points="752.88,-30.5 627.38,-30.5 627.38,0 752.88,0 752.88,-30.5"/>
<text text-anchor="start" x="635.38" y="-17" font-family="Helvetica,sans-Serif" font-size="10.00">ConvectiveMassElement</text>
<text text-anchor="middle" x="690.12" y="-5.75" font-family="Helvetica,sans-Serif" font-size="10.00">::OpVelocityLhs_dV_dx</text>
</a>
</g>
</g>
<!-- Node9&#45;&gt;Node11 -->
<g id="edge10" class="edge">
<title>Node9&#45;&gt;Node11</title>
<path fill="none" stroke="#63b8ff" d="M536.43,-18.62C565.74,-17.98 599.09,-17.24 627.14,-16.62"/>
<polygon fill="#63b8ff" stroke="#63b8ff" points="536.43,-15.12 526.51,-18.84 536.59,-22.12 536.43,-15.12"/>
</g>
</g>
</svg>
