<?xml version="1.0" encoding="UTF-8" standalone="no"?>
<!DOCTYPE svg PUBLIC "-//W3C//DTD SVG 1.1//EN"
 "http://www.w3.org/Graphics/SVG/1.1/DTD/svg11.dtd">
<!-- Generated by graphviz version 9.0.0 (20230911.1827)
 -->
<!-- Title: OpAssembleP Pages: 1 -->
<!--zoomable 514 -->
<svg id="main" version="1.1" xmlns="http://www.w3.org/2000/svg" xmlns:xlink="http://www.w3.org/1999/xlink" xml:space="preserve" onload="init(evt)">
<style type="text/css"><![CDATA[
.edge:hover path { stroke: red; }
.edge:hover polygon { stroke: red; fill: red; }
]]></style>
<script type="text/javascript"><![CDATA[
var edges = document.getElementsByTagName('g');
if (edges && edges.length) {
  for (var i=0;i<edges.length;i++) {
    if (edges[i].id.substr(0,4)=='edge') {
      edges[i].setAttribute('class','edge');
    }
  }
}
]]></script>
        <defs>
                <circle id="rim" cx="0" cy="0" r="7"/>
                <circle id="rim2" cx="0" cy="0" r="3.5"/>
                <g id="zoomPlus">
                        <use xlink:href="#rim" fill="#404040">
                                <set attributeName="fill" to="#808080" begin="zoomplus.mouseover" end="zoomplus.mouseout"/>
                        </use>
                        <path d="M-4,0h8M0,-4v8" fill="none" stroke="white" stroke-width="1.5" pointer-events="none"/>
                </g>
                <g id="zoomMin">
                        <use xlink:href="#rim" fill="#404040">
                                <set attributeName="fill" to="#808080" begin="zoomminus.mouseover" end="zoomminus.mouseout"/>
                        </use>
                        <path d="M-4,0h8" fill="none" stroke="white" stroke-width="1.5" pointer-events="none"/>
                </g>
                <g id="dirArrow">
                        <path fill="none" stroke="white" stroke-width="1.5" d="M0,-3.0v7 M-2.5,-0.5L0,-3.0L2.5,-0.5"/>
                </g>
               <g id="resetDef">
                       <use xlink:href="#rim2" fill="#404040">
                               <set attributeName="fill" to="#808080" begin="reset.mouseover" end="reset.mouseout"/>
                       </use>
               </g>
        </defs>

<script type="text/javascript">
var viewWidth = 1763;
var viewHeight = 514;
var sectionId = 'dynsection-1';
</script>
<script xlink:href="svgpan.js"/>
<svg id="graph" class="graph">
<g id="viewport">
<title>OpAssembleP</title>
<!-- Node1 -->
<g id="node1" class="node">
<title>Node1</title>
<g id="a_node1"><a xlink:title="Assemble P *.">
<polygon fill="#999999" stroke="#666666" points="1755.25,-220.71 1676.25,-220.71 1676.25,-201.46 1755.25,-201.46 1755.25,-220.71"/>
<text text-anchor="middle" x="1715.75" y="-207.21" font-family="Helvetica,sans-Serif" font-size="10.00">OpAssembleP</text>
</a>
</g>
</g>
<!-- Node2 -->
<g id="node2" class="node">
<title>Node2</title>
<g id="a_node2"><a xlink:title=" ">
<polygon fill="white" stroke="#666666" points="1578.75,-292.34 1410.5,-292.34 1410.5,-261.84 1578.75,-261.84 1578.75,-292.34"/>
<text text-anchor="start" x="1418.5" y="-278.84" font-family="Helvetica,sans-Serif" font-size="10.00">VolumeElementForcesAndSources</text>
<text text-anchor="middle" x="1494.62" y="-267.59" font-family="Helvetica,sans-Serif" font-size="10.00">Core::UserDataOperator</text>
</a>
</g>
</g>
<!-- Node2&#45;&gt;Node1 -->
<g id="edge1" class="edge">
<title>Node2&#45;&gt;Node1</title>
<path fill="none" stroke="#63b8ff" d="M1587.04,-258.73C1610.53,-253.05 1635.57,-246.13 1658.25,-238.09 1671.37,-233.44 1685.49,-226.69 1696.34,-221.1"/>
<polygon fill="#63b8ff" stroke="#63b8ff" points="1586.41,-255.28 1577.48,-260.99 1588.02,-262.1 1586.41,-255.28"/>
</g>
<!-- Node3 -->
<g id="node3" class="node">
<title>Node3</title>
<g id="a_node3"><a xlink:href="struct_data_at_integration_pts.html" target="_top" xlink:title=" ">
<polygon fill="white" stroke="#666666" points="1548.38,-243.71 1440.88,-243.71 1440.88,-224.46 1548.38,-224.46 1548.38,-243.71"/>
<text text-anchor="middle" x="1494.62" y="-230.21" font-family="Helvetica,sans-Serif" font-size="10.00">DataAtIntegrationPts</text>
</a>
</g>
</g>
<!-- Node3&#45;&gt;Node1 -->
<g id="edge2" class="edge">
<title>Node3&#45;&gt;Node1</title>
<path fill="none" stroke="#9a32cd" stroke-dasharray="5,2" d="M1560.04,-227.33C1597.65,-223.38 1643.85,-218.53 1675.93,-215.16"/>
<polygon fill="#9a32cd" stroke="#9a32cd" points="1559.75,-223.84 1550.17,-228.36 1560.49,-230.8 1559.75,-223.84"/>
<text text-anchor="middle" x="1627.5" y="-224.84" font-family="Helvetica,sans-Serif" font-size="10.00"> commonData</text>
</g>
<!-- Node4 -->
<g id="node4" class="node">
<title>Node4</title>
<g id="a_node4"><a xlink:title=" ">
<polygon fill="white" stroke="#666666" points="1247,-278.71 1109.5,-278.71 1109.5,-259.46 1247,-259.46 1247,-278.71"/>
<text text-anchor="middle" x="1178.25" y="-265.21" font-family="Helvetica,sans-Serif" font-size="10.00">shared_ptr&lt; MatrixDouble &gt;</text>
</a>
</g>
</g>
<!-- Node4&#45;&gt;Node3 -->
<g id="edge3" class="edge">
<title>Node4&#45;&gt;Node3</title>
<path fill="none" stroke="#9a32cd" stroke-dasharray="5,2" d="M1258.6,-260.25C1315.58,-253.91 1390.79,-245.54 1440.61,-239.99"/>
<polygon fill="#9a32cd" stroke="#9a32cd" points="1258.52,-256.74 1248.97,-261.33 1259.29,-263.7 1258.52,-256.74"/>
<text text-anchor="middle" x="1335.88" y="-371.34" font-family="Helvetica,sans-Serif" font-size="10.00"> FMat</text>
<text text-anchor="middle" x="1335.88" y="-360.09" font-family="Helvetica,sans-Serif" font-size="10.00">HMat</text>
<text text-anchor="middle" x="1335.88" y="-348.84" font-family="Helvetica,sans-Serif" font-size="10.00">cauchyStressMat</text>
<text text-anchor="middle" x="1335.88" y="-337.59" font-family="Helvetica,sans-Serif" font-size="10.00">eshelbyStressMat</text>
<text text-anchor="middle" x="1335.88" y="-326.34" font-family="Helvetica,sans-Serif" font-size="10.00">eshelbyStress_dx</text>
<text text-anchor="middle" x="1335.88" y="-315.09" font-family="Helvetica,sans-Serif" font-size="10.00">gradDispPtr</text>
<text text-anchor="middle" x="1335.88" y="-303.84" font-family="Helvetica,sans-Serif" font-size="10.00">hMat</text>
<text text-anchor="middle" x="1335.88" y="-292.59" font-family="Helvetica,sans-Serif" font-size="10.00">invHMat</text>
<text text-anchor="middle" x="1335.88" y="-281.34" font-family="Helvetica,sans-Serif" font-size="10.00">smallStrainMat</text>
<text text-anchor="middle" x="1335.88" y="-270.09" font-family="Helvetica,sans-Serif" font-size="10.00">stiffnessMat</text>
<text text-anchor="middle" x="1335.88" y="-258.84" font-family="Helvetica,sans-Serif" font-size="10.00">...</text>
</g>
<!-- Node5 -->
<g id="node5" class="node">
<title>Node5</title>
<g id="a_node5"><a xlink:title=" ">
<polygon fill="white" stroke="#666666" points="1247.75,-241.71 1108.75,-241.71 1108.75,-222.46 1247.75,-222.46 1247.75,-241.71"/>
<text text-anchor="middle" x="1178.25" y="-228.21" font-family="Helvetica,sans-Serif" font-size="10.00">shared_ptr&lt; VectorDouble &gt;</text>
</a>
</g>
</g>
<!-- Node5&#45;&gt;Node3 -->
<g id="edge4" class="edge">
<title>Node5&#45;&gt;Node3</title>
<path fill="none" stroke="#9a32cd" stroke-dasharray="5,2" d="M1222.32,-219C1239.81,-214.33 1260.32,-209.65 1279.25,-207.34 1329.21,-201.25 1342.59,-200.85 1392.5,-207.34 1416.99,-210.52 1444,-217.87 1463.94,-224.07"/>
<polygon fill="#9a32cd" stroke="#9a32cd" points="1221.47,-215.61 1212.76,-221.65 1223.34,-222.35 1221.47,-215.61"/>
<text text-anchor="middle" x="1335.88" y="-231.34" font-family="Helvetica,sans-Serif" font-size="10.00"> detHVec</text>
<text text-anchor="middle" x="1335.88" y="-220.09" font-family="Helvetica,sans-Serif" font-size="10.00">energyVec</text>
<text text-anchor="middle" x="1335.88" y="-208.84" font-family="Helvetica,sans-Serif" font-size="10.00">pPtr</text>
</g>
<!-- Node6 -->
<g id="node6" class="node">
<title>Node6</title>
<g id="a_node6"><a xlink:href="class_range.html" target="_top" xlink:title=" ">
<polygon fill="white" stroke="#666666" points="1200.5,-118.71 1156,-118.71 1156,-99.46 1200.5,-99.46 1200.5,-118.71"/>
<text text-anchor="middle" x="1178.25" y="-105.21" font-family="Helvetica,sans-Serif" font-size="10.00">Range</text>
</a>
</g>
</g>
<!-- Node6&#45;&gt;Node3 -->
<g id="edge5" class="edge">
<title>Node6&#45;&gt;Node3</title>
<path fill="none" stroke="#9a32cd" stroke-dasharray="5,2" d="M1212.12,-108.1C1265.19,-107.21 1366.43,-108.68 1392.5,-131.59 1418.41,-154.36 1387.1,-181.74 1410.5,-207.09 1418.53,-215.79 1429.38,-221.69 1440.59,-225.7"/>
<polygon fill="#9a32cd" stroke="#9a32cd" points="1212.1,-104.6 1202.17,-108.31 1212.24,-111.59 1212.1,-104.6"/>
<text text-anchor="middle" x="1335.88" y="-145.09" font-family="Helvetica,sans-Serif" font-size="10.00"> forcesOnlyOnEntitiesCol</text>
<text text-anchor="middle" x="1335.88" y="-133.84" font-family="Helvetica,sans-Serif" font-size="10.00">forcesOnlyOnEntitiesRow</text>
</g>
<!-- Node18 -->
<g id="node18" class="node">
<title>Node18</title>
<g id="a_node18"><a xlink:href="struct_block_data.html" target="_top" xlink:title=" ">
<polygon fill="white" stroke="#666666" points="1525.5,-82.71 1463.75,-82.71 1463.75,-63.46 1525.5,-63.46 1525.5,-82.71"/>
<text text-anchor="middle" x="1494.62" y="-69.21" font-family="Helvetica,sans-Serif" font-size="10.00">BlockData</text>
</a>
</g>
</g>
<!-- Node6&#45;&gt;Node18 -->
<g id="edge21" class="edge">
<title>Node6&#45;&gt;Node18</title>
<path fill="none" stroke="#9a32cd" stroke-dasharray="5,2" d="M1212.03,-104.98C1231.55,-102.55 1256.81,-99.46 1279.25,-96.84 1344.9,-89.18 1421.92,-80.79 1463.44,-76.32"/>
<polygon fill="#9a32cd" stroke="#9a32cd" points="1211.69,-101.49 1202.2,-106.2 1212.56,-108.44 1211.69,-101.49"/>
<text text-anchor="middle" x="1335.88" y="-98.84" font-family="Helvetica,sans-Serif" font-size="10.00"> tEts</text>
</g>
<!-- Node7 -->
<g id="node7" class="node">
<title>Node7</title>
<g id="a_node7"><a xlink:href="class_f_tensor_1_1_ddg.html" target="_top" xlink:title=" ">
<polygon fill="white" stroke="#666666" points="1236.12,-416.34 1120.38,-416.34 1120.38,-385.84 1236.12,-385.84 1236.12,-416.34"/>
<text text-anchor="start" x="1128.38" y="-402.84" font-family="Helvetica,sans-Serif" font-size="10.00">FTensor::Ddg&lt; double,</text>
<text text-anchor="middle" x="1178.25" y="-391.59" font-family="Helvetica,sans-Serif" font-size="10.00"> 3, 3 &gt;</text>
</a>
</g>
</g>
<!-- Node7&#45;&gt;Node3 -->
<g id="edge6" class="edge">
<title>Node7&#45;&gt;Node3</title>
<path fill="none" stroke="#9a32cd" stroke-dasharray="5,2" d="M1247.89,-404.94C1302.21,-406.39 1372.18,-404.21 1392.5,-385.09 1435.62,-344.51 1370.54,-296.78 1410.5,-253.09 1418.39,-244.46 1429.33,-239.35 1440.68,-236.4"/>
<polygon fill="#9a32cd" stroke="#9a32cd" points="1248.18,-401.45 1238.08,-404.62 1247.96,-408.44 1248.18,-401.45"/>
<text text-anchor="middle" x="1335.88" y="-406.84" font-family="Helvetica,sans-Serif" font-size="10.00"> tD</text>
</g>
<!-- Node8 -->
<g id="node8" class="node">
<title>Node8</title>
<g id="a_node8"><a xlink:href="classdouble.html" target="_top" xlink:title=" ">
<polygon fill="white" stroke="#666666" points="945.62,-168.71 901.12,-168.71 901.12,-149.46 945.62,-149.46 945.62,-168.71"/>
<text text-anchor="middle" x="923.38" y="-155.21" font-family="Helvetica,sans-Serif" font-size="10.00">double</text>
</a>
</g>
</g>
<!-- Node8&#45;&gt;Node3 -->
<g id="edge10" class="edge">
<title>Node8&#45;&gt;Node3</title>
<path fill="none" stroke="#9a32cd" stroke-dasharray="5,2" d="M957.16,-156.16C1035.25,-150.37 1237.28,-142.45 1392.5,-198.09 1400.92,-201.11 1402.22,-203.7 1410.5,-207.09 1426.09,-213.47 1443.78,-219.4 1458.83,-224.06"/>
<polygon fill="#9a32cd" stroke="#9a32cd" points="956.92,-152.67 947.23,-156.94 957.47,-159.65 956.92,-152.67"/>
<text text-anchor="middle" x="1178.25" y="-199.59" font-family="Helvetica,sans-Serif" font-size="10.00"> lAmbda</text>
<text text-anchor="middle" x="1178.25" y="-188.34" font-family="Helvetica,sans-Serif" font-size="10.00">mU</text>
<text text-anchor="middle" x="1178.25" y="-177.09" font-family="Helvetica,sans-Serif" font-size="10.00">pOisson</text>
<text text-anchor="middle" x="1178.25" y="-165.84" font-family="Helvetica,sans-Serif" font-size="10.00">yOung</text>
</g>
<!-- Node8&#45;&gt;Node7 -->
<g id="edge7" class="edge">
<title>Node8&#45;&gt;Node7</title>
<path fill="none" stroke="#9a32cd" stroke-dasharray="5,2" d="M943.14,-177.04C990.87,-222.72 1116.3,-342.76 1161.08,-385.61"/>
<polygon fill="#9a32cd" stroke="#9a32cd" points="945.66,-174.61 936.01,-170.23 940.82,-179.67 945.66,-174.61"/>
<text text-anchor="middle" x="1041.25" y="-302.84" font-family="Helvetica,sans-Serif" font-size="10.00"> data</text>
</g>
<!-- Node8&#45;&gt;Node18 -->
<g id="edge20" class="edge">
<title>Node8&#45;&gt;Node18</title>
<path fill="none" stroke="#9a32cd" stroke-dasharray="5,2" d="M939.11,-140.37C966,-107.91 1026.62,-42.32 1095.25,-17.59 1232.23,31.76 1410.34,-36.09 1471.72,-62.97"/>
<polygon fill="#9a32cd" stroke="#9a32cd" points="936.41,-138.14 932.83,-148.12 941.85,-142.55 936.41,-138.14"/>
<text text-anchor="middle" x="1178.25" y="-31.09" font-family="Helvetica,sans-Serif" font-size="10.00"> pOisson</text>
<text text-anchor="middle" x="1178.25" y="-19.84" font-family="Helvetica,sans-Serif" font-size="10.00">yOung</text>
</g>
<!-- Node9 -->
<g id="node9" class="node">
<title>Node9</title>
<g id="a_node9"><a xlink:href="class_f_tensor_1_1_ddg.html" target="_top" xlink:title=" ">
<polygon fill="white" stroke="#666666" points="987.25,-477.34 859.5,-477.34 859.5,-446.84 987.25,-446.84 987.25,-477.34"/>
<text text-anchor="start" x="867.5" y="-463.84" font-family="Helvetica,sans-Serif" font-size="10.00">FTensor::Ddg&lt; T, Tensor</text>
<text text-anchor="middle" x="923.38" y="-452.59" font-family="Helvetica,sans-Serif" font-size="10.00">_Dim01, Tensor_Dim23 &gt;</text>
</a>
</g>
</g>
<!-- Node9&#45;&gt;Node7 -->
<g id="edge8" class="edge">
<title>Node9&#45;&gt;Node7</title>
<path fill="none" stroke="orange" stroke-dasharray="5,2" d="M998.26,-444.27C1037.12,-434.89 1084.03,-423.58 1120.07,-414.88"/>
<polygon fill="orange" stroke="orange" points="997.91,-440.75 989.01,-446.5 999.55,-447.56 997.91,-440.75"/>
<text text-anchor="middle" x="1041.25" y="-443.84" font-family="Helvetica,sans-Serif" font-size="10.00"> &lt; double, 3, 3 &gt;</text>
</g>
<!-- Node10 -->
<g id="node10" class="node">
<title>Node10</title>
<g id="a_node10"><a xlink:title=" ">
<polygon fill="white" stroke="#666666" points="748.15,-471.71 719.35,-471.71 719.35,-452.46 748.15,-452.46 748.15,-471.71"/>
<text text-anchor="middle" x="733.75" y="-458.21" font-family="Helvetica,sans-Serif" font-size="10.00">T</text>
</a>
</g>
</g>
<!-- Node10&#45;&gt;Node9 -->
<g id="edge9" class="edge">
<title>Node10&#45;&gt;Node9</title>
<path fill="none" stroke="#9a32cd" stroke-dasharray="5,2" d="M760.02,-462.09C785.32,-462.09 825.27,-462.09 859.21,-462.09"/>
<polygon fill="#9a32cd" stroke="#9a32cd" points="760.06,-458.59 750.06,-462.09 760.06,-465.59 760.06,-458.59"/>
<text text-anchor="middle" x="830.62" y="-463.84" font-family="Helvetica,sans-Serif" font-size="10.00"> data</text>
</g>
<!-- Node11 -->
<g id="node11" class="node">
<title>Node11</title>
<g id="a_node11"><a xlink:title=" ">
<polygon fill="white" stroke="#666666" points="1235.75,-453.71 1120.75,-453.71 1120.75,-434.46 1235.75,-434.46 1235.75,-453.71"/>
<text text-anchor="middle" x="1178.25" y="-440.21" font-family="Helvetica,sans-Serif" font-size="10.00">map&lt; int, BlockData &gt;</text>
</a>
</g>
</g>
<!-- Node11&#45;&gt;Node3 -->
<g id="edge11" class="edge">
<title>Node11&#45;&gt;Node3</title>
<path fill="none" stroke="#9a32cd" stroke-dasharray="5,2" d="M1247.42,-445.35C1302.02,-444.79 1372.66,-440.03 1392.5,-420.09 1418.83,-393.63 1385.7,-280.98 1410.5,-253.09 1418.27,-244.35 1429.16,-239.19 1440.51,-236.24"/>
<polygon fill="#9a32cd" stroke="#9a32cd" points="1247.53,-441.85 1237.55,-445.4 1247.57,-448.85 1247.53,-441.85"/>
<text text-anchor="middle" x="1335.88" y="-445.84" font-family="Helvetica,sans-Serif" font-size="10.00"> setOfBlocksData</text>
</g>
<!-- Node12 -->
<g id="node12" class="node">
<title>Node12</title>
<g id="a_node12"><a xlink:href="struct_mo_f_e_m_1_1_deprecated_core_interface.html" target="_top" xlink:title="Deprecated interface functions.">
<polygon fill="white" stroke="#666666" points="1261.25,-490.71 1095.25,-490.71 1095.25,-471.46 1261.25,-471.46 1261.25,-490.71"/>
<text text-anchor="middle" x="1178.25" y="-477.21" font-family="Helvetica,sans-Serif" font-size="10.00">MoFEM::DeprecatedCoreInterface</text>
</a>
</g>
</g>
<!-- Node12&#45;&gt;Node3 -->
<g id="edge12" class="edge">
<title>Node12&#45;&gt;Node3</title>
<path fill="none" stroke="#9a32cd" stroke-dasharray="5,2" d="M1236.78,-492.82C1285.28,-499.04 1352.92,-498.46 1392.5,-458.09 1424.51,-425.43 1380.45,-287.57 1410.5,-253.09 1418.18,-244.27 1429.04,-239.09 1440.38,-236.13"/>
<polygon fill="#9a32cd" stroke="#9a32cd" points="1237.41,-489.37 1227.01,-491.42 1236.42,-496.3 1237.41,-489.37"/>
<text text-anchor="middle" x="1335.88" y="-496.84" font-family="Helvetica,sans-Serif" font-size="10.00"> mField</text>
</g>
<!-- Node13 -->
<g id="node13" class="node">
<title>Node13</title>
<g id="a_node13"><a xlink:href="struct_mo_f_e_m_1_1_core_interface.html" target="_top" xlink:title="Interface.">
<polygon fill="white" stroke="#666666" points="981.25,-428.71 865.5,-428.71 865.5,-409.46 981.25,-409.46 981.25,-428.71"/>
<text text-anchor="middle" x="923.38" y="-415.21" font-family="Helvetica,sans-Serif" font-size="10.00">MoFEM::CoreInterface</text>
</a>
</g>
</g>
<!-- Node13&#45;&gt;Node12 -->
<g id="edge13" class="edge">
<title>Node13&#45;&gt;Node12</title>
<path fill="none" stroke="#63b8ff" d="M992.79,-414.48C1020.74,-415.59 1052.29,-420.9 1077.25,-436.09 1089.57,-443.59 1083.34,-454.95 1095.25,-463.09 1099.94,-466.3 1105.11,-468.94 1110.5,-471.13"/>
<polygon fill="#63b8ff" stroke="#63b8ff" points="993.05,-410.99 982.98,-414.29 992.91,-417.99 993.05,-410.99"/>
</g>
<!-- Node14 -->
<g id="node14" class="node">
<title>Node14</title>
<g id="a_node14"><a xlink:href="struct_mo_f_e_m_1_1_unknown_interface.html" target="_top" xlink:title="base class for all interface classes">
<polygon fill="white" stroke="#666666" points="801.75,-428.71 665.75,-428.71 665.75,-409.46 801.75,-409.46 801.75,-428.71"/>
<text text-anchor="middle" x="733.75" y="-415.21" font-family="Helvetica,sans-Serif" font-size="10.00">MoFEM::UnknownInterface</text>
</a>
</g>
</g>
<!-- Node14&#45;&gt;Node13 -->
<g id="edge14" class="edge">
<title>Node14&#45;&gt;Node13</title>
<path fill="none" stroke="#63b8ff" d="M813.47,-419.09C830.79,-419.09 848.81,-419.09 865.1,-419.09"/>
<polygon fill="#63b8ff" stroke="#63b8ff" points="813.74,-415.59 803.74,-419.09 813.74,-422.59 813.74,-415.59"/>
</g>
<!-- Node15 -->
<g id="node15" class="node">
<title>Node15</title>
<g id="a_node15"><a xlink:title=" ">
<polygon fill="white" stroke="#666666" points="563,-451.21 346.75,-451.21 346.75,-386.96 563,-386.96 563,-451.21"/>
<text text-anchor="start" x="354.75" y="-437.71" font-family="Helvetica,sans-Serif" font-size="10.00">multi_index_container</text>
<text text-anchor="start" x="354.75" y="-426.46" font-family="Helvetica,sans-Serif" font-size="10.00">&lt; UIdTypeMap, indexed</text>
<text text-anchor="start" x="354.75" y="-415.21" font-family="Helvetica,sans-Serif" font-size="10.00">_by&lt; hashed_unique&lt; member</text>
<text text-anchor="start" x="354.75" y="-403.96" font-family="Helvetica,sans-Serif" font-size="10.00">&lt; UIdTypeMap, boost::typeindex</text>
<text text-anchor="middle" x="454.88" y="-392.71" font-family="Helvetica,sans-Serif" font-size="10.00">::type_index, &amp;UIdTypeMap::classIdx &gt; &gt; &gt; &gt;</text>
</a>
</g>
</g>
<!-- Node15&#45;&gt;Node14 -->
<g id="edge15" class="edge">
<title>Node15&#45;&gt;Node14</title>
<path fill="none" stroke="#9a32cd" stroke-dasharray="5,2" d="M574.68,-419.09C605.7,-419.09 638.06,-419.09 665.37,-419.09"/>
<polygon fill="#9a32cd" stroke="#9a32cd" points="574.83,-415.59 564.83,-419.09 574.83,-422.59 574.83,-415.59"/>
<text text-anchor="middle" x="614.38" y="-420.84" font-family="Helvetica,sans-Serif" font-size="10.00"> iFaceTypeMap</text>
</g>
<!-- Node16 -->
<g id="node16" class="node">
<title>Node16</title>
<g id="a_node16"><a xlink:title=" ">
<polygon fill="white" stroke="#666666" points="110.5,-428.71 0,-428.71 0,-409.46 110.5,-409.46 110.5,-428.71"/>
<text text-anchor="middle" x="55.25" y="-415.21" font-family="Helvetica,sans-Serif" font-size="10.00">multi_index_container</text>
</a>
</g>
</g>
<!-- Node16&#45;&gt;Node15 -->
<g id="edge16" class="edge">
<title>Node16&#45;&gt;Node15</title>
<path fill="none" stroke="orange" stroke-dasharray="5,2" d="M122.09,-419.09C183.01,-419.09 274.7,-419.09 346.26,-419.09"/>
<polygon fill="orange" stroke="orange" points="122.22,-415.59 112.22,-419.09 122.22,-422.59 122.22,-415.59"/>
<text text-anchor="start" x="128.5" y="-454.59" font-family="Helvetica,sans-Serif" font-size="10.00"> &lt; UIdTypeMap, indexed</text>
<text text-anchor="start" x="128.5" y="-443.34" font-family="Helvetica,sans-Serif" font-size="10.00">_by&lt; hashed_unique&lt; member</text>
<text text-anchor="start" x="128.5" y="-432.09" font-family="Helvetica,sans-Serif" font-size="10.00">&lt; UIdTypeMap, boost::typeindex</text>
<text text-anchor="middle" x="228.62" y="-420.84" font-family="Helvetica,sans-Serif" font-size="10.00">::type_index, &amp;UIdTypeMap::classIdx &gt; &gt; &gt; &gt;</text>
</g>
<!-- Node17 -->
<g id="node17" class="node">
<title>Node17</title>
<g id="a_node17"><a xlink:title=" ">
<polygon fill="white" stroke="#666666" points="1531.5,-197.71 1457.75,-197.71 1457.75,-178.46 1531.5,-178.46 1531.5,-197.71"/>
<text text-anchor="middle" x="1494.62" y="-184.21" font-family="Helvetica,sans-Serif" font-size="10.00">MatrixDouble</text>
</a>
</g>
</g>
<!-- Node17&#45;&gt;Node1 -->
<g id="edge17" class="edge">
<title>Node17&#45;&gt;Node1</title>
<path fill="none" stroke="#9a32cd" stroke-dasharray="5,2" d="M1543.28,-184.69C1575.92,-183.37 1620.04,-183.57 1658.25,-190.59 1669.85,-192.72 1682.21,-196.96 1692.41,-201.04"/>
<polygon fill="#9a32cd" stroke="#9a32cd" points="1543.15,-181.2 1533.32,-185.17 1543.48,-188.19 1543.15,-181.2"/>
<text text-anchor="middle" x="1627.5" y="-203.09" font-family="Helvetica,sans-Serif" font-size="10.00"> locP</text>
<text text-anchor="middle" x="1627.5" y="-191.84" font-family="Helvetica,sans-Serif" font-size="10.00">translocP</text>
</g>
<!-- Node18&#45;&gt;Node1 -->
<g id="edge18" class="edge">
<title>Node18&#45;&gt;Node1</title>
<path fill="none" stroke="#9a32cd" stroke-dasharray="5,2" d="M1523.91,-88.5C1556.82,-106.7 1612.47,-138.38 1658.25,-168.84 1673.95,-179.29 1691.21,-192.45 1702.47,-201.29"/>
<polygon fill="#9a32cd" stroke="#9a32cd" points="1525.85,-85.57 1515.4,-83.81 1522.47,-91.7 1525.85,-85.57"/>
<text text-anchor="middle" x="1627.5" y="-169.84" font-family="Helvetica,sans-Serif" font-size="10.00"> dAta</text>
</g>
<!-- Node19 -->
<g id="node19" class="node">
<title>Node19</title>
<g id="a_node19"><a xlink:title=" ">
<polygon fill="white" stroke="#666666" points="1192.65,-68.71 1163.85,-68.71 1163.85,-49.46 1192.65,-49.46 1192.65,-68.71"/>
<text text-anchor="middle" x="1178.25" y="-55.21" font-family="Helvetica,sans-Serif" font-size="10.00">int</text>
</a>
</g>
</g>
<!-- Node19&#45;&gt;Node18 -->
<g id="edge19" class="edge">
<title>Node19&#45;&gt;Node18</title>
<path fill="none" stroke="#9a32cd" stroke-dasharray="5,2" d="M1204.26,-55.95C1244.18,-51.46 1324.7,-44.46 1392.5,-51.59 1416.6,-54.12 1443.4,-59.96 1463.36,-64.92"/>
<polygon fill="#9a32cd" stroke="#9a32cd" points="1204.04,-52.46 1194.52,-57.1 1204.86,-59.41 1204.04,-52.46"/>
<text text-anchor="middle" x="1335.88" y="-65.09" font-family="Helvetica,sans-Serif" font-size="10.00"> iD</text>
<text text-anchor="middle" x="1335.88" y="-53.84" font-family="Helvetica,sans-Serif" font-size="10.00">oRder</text>
</g>
</g>
</svg>
        <g id="navigator" transform="translate(0 0)" fill="#404254">
                <rect fill="#f2f5e9" fill-opacity="0.5" stroke="#606060" stroke-width=".5" x="0" y="0" width="60" height="60"/>
                <use id="zoomplus" xlink:href="#zoomPlus" x="17" y="9" onmousedown="handleZoom(evt,'in')"/>
                <use id="zoomminus" xlink:href="#zoomMin" x="42" y="9" onmousedown="handleZoom(evt,'out')"/>
                <use id="reset" xlink:href="#resetDef" x="30" y="36" onmousedown="handleReset()"/>
                <g id="arrowUp" xlink:href="#dirArrow" transform="translate(30 24)" onmousedown="handlePan(0,-1)">
                  <use xlink:href="#rim" fill="#404040">
                        <set attributeName="fill" to="#808080" begin="arrowUp.mouseover" end="arrowUp.mouseout"/>
                  </use>
                  <path fill="none" stroke="white" stroke-width="1.5" d="M0,-3.0v7 M-2.5,-0.5L0,-3.0L2.5,-0.5"/>
                </g>
                <g id="arrowRight" xlink:href="#dirArrow" transform="rotate(90) translate(36 -43)" onmousedown="handlePan(1,0)">
                  <use xlink:href="#rim" fill="#404040">
                        <set attributeName="fill" to="#808080" begin="arrowRight.mouseover" end="arrowRight.mouseout"/>
                  </use>
                  <path fill="none" stroke="white" stroke-width="1.5" d="M0,-3.0v7 M-2.5,-0.5L0,-3.0L2.5,-0.5"/>
                </g>
                <g id="arrowDown" xlink:href="#dirArrow" transform="rotate(180) translate(-30 -48)" onmousedown="handlePan(0,1)">
                  <use xlink:href="#rim" fill="#404040">
                        <set attributeName="fill" to="#808080" begin="arrowDown.mouseover" end="arrowDown.mouseout"/>
                  </use>
                  <path fill="none" stroke="white" stroke-width="1.5" d="M0,-3.0v7 M-2.5,-0.5L0,-3.0L2.5,-0.5"/>
                </g>
                <g id="arrowLeft" xlink:href="#dirArrow" transform="rotate(270) translate(-36 17)" onmousedown="handlePan(-1,0)">
                  <use xlink:href="#rim" fill="#404040">
                        <set attributeName="fill" to="#808080" begin="arrowLeft.mouseover" end="arrowLeft.mouseout"/>
                  </use>
                  <path fill="none" stroke="white" stroke-width="1.5" d="M0,-3.0v7 M-2.5,-0.5L0,-3.0L2.5,-0.5"/>
                </g>
        </g>
        <svg viewBox="0 0 15 15" width="100%" height="30px" preserveAspectRatio="xMaxYMin meet">
         <g id="arrow_out" transform="scale(0.3 0.3)">
          <a xlink:href="struct_op_assemble_p__coll__graph_org.svg" target="_base">
           <rect id="button" ry="5" rx="5" y="6" x="6" height="38" width="38"
                fill="#f2f5e9" fill-opacity="0.5" stroke="#606060" stroke-width="1.0"/>
           <path id="arrow"
             d="M 11.500037,31.436501 C 11.940474,20.09759 22.043105,11.32322 32.158766,21.979434 L 37.068811,17.246167 C 37.068811,17.246167 37.088388,32 37.088388,32 L 22.160133,31.978069 C 22.160133,31.978069 26.997745,27.140456 26.997745,27.140456 C 18.528582,18.264221 13.291696,25.230495 11.500037,31.436501 z"
             style="fill:#404040;"/>
          </a>
         </g>
        </svg>
</svg>
