<?xml version="1.0" encoding="UTF-8" standalone="no"?>
<!DOCTYPE svg PUBLIC "-//W3C//DTD SVG 1.1//EN"
 "http://www.w3.org/Graphics/SVG/1.1/DTD/svg11.dtd">
<!-- Generated by graphviz version 9.0.0 (20230911.1827)
 -->
<!-- Title: EshelbianPlasticity::OpAssembleBasic&lt; T &gt; Pages: 1 -->
<svg width="415pt" height="224pt"
 viewBox="0.00 0.00 415.00 224.25" xmlns="http://www.w3.org/2000/svg" xmlns:xlink="http://www.w3.org/1999/xlink">
<g id="graph0" class="graph" transform="scale(1 1) rotate(0) translate(4 220.25)">
<title>EshelbianPlasticity::OpAssembleBasic&lt; T &gt;</title>
<!-- Node1 -->
<g id="node1" class="node">
<title>Node1</title>
<g id="a_node1"><a xlink:title=" ">
<polygon fill="#999999" stroke="#666666" points="407,-124.88 280,-124.88 280,-94.38 407,-94.38 407,-124.88"/>
<text text-anchor="start" x="288" y="-111.38" font-family="Helvetica,sans-Serif" font-size="10.00">EshelbianPlasticity</text>
<text text-anchor="middle" x="343.5" y="-100.12" font-family="Helvetica,sans-Serif" font-size="10.00">::OpAssembleBasic&lt; T &gt;</text>
</a>
</g>
</g>
<!-- Node2 -->
<g id="node2" class="node">
<title>Node2</title>
<g id="a_node2"><a xlink:title=" ">
<polygon fill="white" stroke="#666666" points="91.4,-216.25 62.6,-216.25 62.6,-197 91.4,-197 91.4,-216.25"/>
<text text-anchor="middle" x="77" y="-202.75" font-family="Helvetica,sans-Serif" font-size="10.00">T</text>
</a>
</g>
</g>
<!-- Node2&#45;&gt;Node1 -->
<g id="edge1" class="edge">
<title>Node2&#45;&gt;Node1</title>
<path fill="none" stroke="#63b8ff" d="M102.93,-204.63C139.27,-201.01 208.31,-191.38 262,-167.62 285.94,-157.03 309.83,-138.57 325.29,-125.32"/>
<polygon fill="#63b8ff" stroke="#63b8ff" points="102.66,-201.14 93.03,-205.54 103.3,-208.11 102.66,-201.14"/>
</g>
<!-- Node3 -->
<g id="node3" class="node">
<title>Node3</title>
<g id="a_node3"><a xlink:href="classbool.html" target="_top" xlink:title=" ">
<polygon fill="white" stroke="#666666" points="94,-179.25 60,-179.25 60,-160 94,-160 94,-179.25"/>
<text text-anchor="middle" x="77" y="-165.75" font-family="Helvetica,sans-Serif" font-size="10.00">bool</text>
</a>
</g>
</g>
<!-- Node3&#45;&gt;Node1 -->
<g id="edge2" class="edge">
<title>Node3&#45;&gt;Node1</title>
<path fill="none" stroke="#9a32cd" stroke-dasharray="5,2" d="M105.46,-165.4C141.61,-159.61 207.01,-148.35 262,-134.62 272.79,-131.93 284.27,-128.63 295.08,-125.33"/>
<polygon fill="#9a32cd" stroke="#9a32cd" points="105.21,-161.9 95.87,-166.91 106.3,-168.81 105.21,-161.9"/>
<text text-anchor="middle" x="217" y="-154.38" font-family="Helvetica,sans-Serif" font-size="10.00"> assembleSymmetry</text>
</g>
<!-- Node4 -->
<g id="node4" class="node">
<title>Node4</title>
<g id="a_node4"><a xlink:title=" ">
<polygon fill="white" stroke="#666666" points="154,-141.88 0,-141.88 0,-111.38 154,-111.38 154,-141.88"/>
<text text-anchor="start" x="8" y="-128.38" font-family="Helvetica,sans-Serif" font-size="10.00">shared_ptr&lt; EshelbianPlasticity</text>
<text text-anchor="middle" x="77" y="-117.12" font-family="Helvetica,sans-Serif" font-size="10.00">::DataAtIntegrationPts &gt;</text>
</a>
</g>
</g>
<!-- Node4&#45;&gt;Node1 -->
<g id="edge3" class="edge">
<title>Node4&#45;&gt;Node1</title>
<path fill="none" stroke="#9a32cd" stroke-dasharray="5,2" d="M165.56,-121C202.92,-118.6 245.68,-115.85 279.8,-113.65"/>
<polygon fill="#9a32cd" stroke="#9a32cd" points="165.41,-117.5 155.66,-121.63 165.86,-124.48 165.41,-117.5"/>
<text text-anchor="middle" x="217" y="-121.38" font-family="Helvetica,sans-Serif" font-size="10.00"> dataAtPts</text>
</g>
<!-- Node5 -->
<g id="node5" class="node">
<title>Node5</title>
<g id="a_node5"><a xlink:title=" ">
<polygon fill="white" stroke="#666666" points="114.62,-93.25 39.38,-93.25 39.38,-74 114.62,-74 114.62,-93.25"/>
<text text-anchor="middle" x="77" y="-79.75" font-family="Helvetica,sans-Serif" font-size="10.00">VectorDouble</text>
</a>
</g>
</g>
<!-- Node5&#45;&gt;Node1 -->
<g id="edge4" class="edge">
<title>Node5&#45;&gt;Node1</title>
<path fill="none" stroke="#9a32cd" stroke-dasharray="5,2" d="M126.06,-87.19C163.21,-90.08 215.92,-94.47 262,-99.38 267.74,-99.99 273.71,-100.66 279.69,-101.37"/>
<polygon fill="#9a32cd" stroke="#9a32cd" points="126.8,-83.74 116.56,-86.46 126.26,-90.72 126.8,-83.74"/>
<text text-anchor="middle" x="217" y="-100.38" font-family="Helvetica,sans-Serif" font-size="10.00"> nF</text>
</g>
<!-- Node6 -->
<g id="node6" class="node">
<title>Node6</title>
<g id="a_node6"><a xlink:title=" ">
<polygon fill="white" stroke="#666666" points="113.88,-56.25 40.12,-56.25 40.12,-37 113.88,-37 113.88,-56.25"/>
<text text-anchor="middle" x="77" y="-42.75" font-family="Helvetica,sans-Serif" font-size="10.00">MatrixDouble</text>
</a>
</g>
</g>
<!-- Node6&#45;&gt;Node1 -->
<g id="edge5" class="edge">
<title>Node6&#45;&gt;Node1</title>
<path fill="none" stroke="#9a32cd" stroke-dasharray="5,2" d="M125.34,-45.75C163.15,-46.32 217.06,-49.99 262,-64.12 283.29,-70.82 305.19,-83.66 320.76,-93.99"/>
<polygon fill="#9a32cd" stroke="#9a32cd" points="125.69,-42.25 115.66,-45.68 125.63,-49.25 125.69,-42.25"/>
<text text-anchor="middle" x="217" y="-76.62" font-family="Helvetica,sans-Serif" font-size="10.00"> K</text>
<text text-anchor="middle" x="217" y="-65.38" font-family="Helvetica,sans-Serif" font-size="10.00">transposeK</text>
</g>
<!-- Node7 -->
<g id="node7" class="node">
<title>Node7</title>
<g id="a_node7"><a xlink:title=" ">
<polygon fill="white" stroke="#666666" points="127,-19.25 27,-19.25 27,0 127,0 127,-19.25"/>
<text text-anchor="middle" x="77" y="-5.75" font-family="Helvetica,sans-Serif" font-size="10.00">function&lt; double()&gt;</text>
</a>
</g>
</g>
<!-- Node7&#45;&gt;Node1 -->
<g id="edge6" class="edge">
<title>Node7&#45;&gt;Node1</title>
<path fill="none" stroke="#9a32cd" stroke-dasharray="5,2" d="M138.42,-7.62C175.68,-8.62 223.54,-14.08 262,-32.38 291.74,-46.52 317.48,-75.94 331.42,-94.12"/>
<polygon fill="#9a32cd" stroke="#9a32cd" points="138.78,-4.12 128.73,-7.46 138.67,-11.12 138.78,-4.12"/>
<text text-anchor="middle" x="217" y="-34.38" font-family="Helvetica,sans-Serif" font-size="10.00"> scaleOff</text>
</g>
</g>
</svg>
