<?xml version="1.0" encoding="UTF-8" standalone="no"?>
<!DOCTYPE svg PUBLIC "-//W3C//DTD SVG 1.1//EN"
 "http://www.w3.org/Graphics/SVG/1.1/DTD/svg11.dtd">
<!-- Generated by graphviz version 2.43.0 (0)
 -->
<!-- Title: MoFEM::DMCtxImpl Pages: 1 -->
<svg width="1783pt" height="942pt"
 viewBox="0.00 0.00 1783.00 942.17" xmlns="http://www.w3.org/2000/svg" xmlns:xlink="http://www.w3.org/1999/xlink">
<g id="graph0" class="graph" transform="scale(1 1) rotate(0) translate(4 938.17)">
<title>MoFEM::DMCtxImpl</title>
<polygon fill="white" stroke="transparent" points="-4,4 -4,-938.17 1779,-938.17 1779,4 -4,4"/>
<!-- Node1 -->
<g id="node1" class="node">
<title>Node1</title>
<g id="a_node1"><a xlink:title=" ">
<polygon fill="#bfbfbf" stroke="black" points="1662,-633.67 1662,-652.67 1775,-652.67 1775,-633.67 1662,-633.67"/>
<text text-anchor="middle" x="1718.5" y="-640.67" font-family="Helvetica,sans-Serif" font-size="10.00">MoFEM::DMCtxImpl</text>
</a>
</g>
</g>
<!-- Node2 -->
<g id="node2" class="node">
<title>Node2</title>
<g id="a_node2"><a xlink:href="structMoFEM_1_1DMCtx.html" target="_top" xlink:title="PETSc Discrete Manager data structure.">
<polygon fill="white" stroke="black" points="1017.5,-831.67 1017.5,-850.67 1109.5,-850.67 1109.5,-831.67 1017.5,-831.67"/>
<text text-anchor="middle" x="1063.5" y="-838.67" font-family="Helvetica,sans-Serif" font-size="10.00">MoFEM::DMCtx</text>
</a>
</g>
</g>
<!-- Node2&#45;&gt;Node1 -->
<g id="edge1" class="edge">
<title>Node2&#45;&gt;Node1</title>
<path fill="none" stroke="midnightblue" d="M1119.96,-843.36C1256.64,-848.27 1601.72,-857.56 1644,-828.17 1704.72,-785.95 1715.29,-685.04 1717.12,-653.07"/>
<polygon fill="midnightblue" stroke="midnightblue" points="1119.83,-839.85 1109.71,-842.98 1119.57,-846.85 1119.83,-839.85"/>
</g>
<!-- Node3 -->
<g id="node3" class="node">
<title>Node3</title>
<g id="a_node3"><a xlink:href="structMoFEM_1_1UnknownInterface.html" target="_top" xlink:title="base class for all interface classes">
<polygon fill="white" stroke="black" points="735,-880.67 735,-899.67 883,-899.67 883,-880.67 735,-880.67"/>
<text text-anchor="middle" x="809" y="-887.67" font-family="Helvetica,sans-Serif" font-size="10.00">MoFEM::UnknownInterface</text>
</a>
</g>
</g>
<!-- Node3&#45;&gt;Node2 -->
<g id="edge2" class="edge">
<title>Node3&#45;&gt;Node2</title>
<path fill="none" stroke="midnightblue" d="M868.98,-878.73C914.33,-869.93 976.04,-857.95 1017.47,-849.91"/>
<polygon fill="midnightblue" stroke="midnightblue" points="868.13,-875.32 858.98,-880.67 869.47,-882.2 868.13,-875.32"/>
</g>
<!-- Node14 -->
<g id="node14" class="node">
<title>Node14</title>
<g id="a_node14"><a xlink:href="structMoFEM_1_1CoreInterface.html" target="_top" xlink:title="Interface.">
<polygon fill="white" stroke="black" points="1001,-880.67 1001,-899.67 1126,-899.67 1126,-880.67 1001,-880.67"/>
<text text-anchor="middle" x="1063.5" y="-887.67" font-family="Helvetica,sans-Serif" font-size="10.00">MoFEM::CoreInterface</text>
</a>
</g>
</g>
<!-- Node3&#45;&gt;Node14 -->
<g id="edge14" class="edge">
<title>Node3&#45;&gt;Node14</title>
<path fill="none" stroke="midnightblue" d="M893.25,-890.17C928.31,-890.17 968.38,-890.17 1000.73,-890.17"/>
<polygon fill="midnightblue" stroke="midnightblue" points="893.03,-886.67 883.03,-890.17 893.03,-893.67 893.03,-886.67"/>
</g>
<!-- Node4 -->
<g id="node4" class="node">
<title>Node4</title>
<g id="a_node4"><a xlink:title=" ">
<polygon fill="white" stroke="#bfbfbf" points="386,-858.67 386,-921.67 627,-921.67 627,-858.67 386,-858.67"/>
<text text-anchor="start" x="394" y="-909.67" font-family="Helvetica,sans-Serif" font-size="10.00">multi_index_container</text>
<text text-anchor="start" x="394" y="-898.67" font-family="Helvetica,sans-Serif" font-size="10.00">&lt; UIdTypeMap, indexed</text>
<text text-anchor="start" x="394" y="-887.67" font-family="Helvetica,sans-Serif" font-size="10.00">_by&lt; hashed_unique&lt; member</text>
<text text-anchor="start" x="394" y="-876.67" font-family="Helvetica,sans-Serif" font-size="10.00">&lt; UIdTypeMap, boost::typeindex</text>
<text text-anchor="middle" x="506.5" y="-865.67" font-family="Helvetica,sans-Serif" font-size="10.00">::type_index, &amp;UIdTypeMap::classIdx &gt; &gt; &gt; &gt;</text>
</a>
</g>
</g>
<!-- Node4&#45;&gt;Node3 -->
<g id="edge3" class="edge">
<title>Node4&#45;&gt;Node3</title>
<path fill="none" stroke="#9a32cd" stroke-dasharray="5,2" d="M637.41,-890.17C670.69,-890.17 705.33,-890.17 734.62,-890.17"/>
<polygon fill="#9a32cd" stroke="#9a32cd" points="637.13,-886.67 627.13,-890.17 637.13,-893.67 637.13,-886.67"/>
<text text-anchor="middle" x="681" y="-893.17" font-family="Helvetica,sans-Serif" font-size="10.00"> iFaceTypeMap</text>
</g>
<!-- Node5 -->
<g id="node5" class="node">
<title>Node5</title>
<g id="a_node5"><a xlink:title=" ">
<polygon fill="white" stroke="#bfbfbf" points="0,-880.67 0,-899.67 125,-899.67 125,-880.67 0,-880.67"/>
<text text-anchor="middle" x="62.5" y="-887.67" font-family="Helvetica,sans-Serif" font-size="10.00">multi_index_container</text>
</a>
</g>
</g>
<!-- Node5&#45;&gt;Node4 -->
<g id="edge4" class="edge">
<title>Node5&#45;&gt;Node4</title>
<path fill="none" stroke="orange" stroke-dasharray="5,2" d="M135.56,-890.17C203.25,-890.17 305.79,-890.17 385.77,-890.17"/>
<polygon fill="orange" stroke="orange" points="135.42,-886.67 125.42,-890.17 135.42,-893.67 135.42,-886.67"/>
<text text-anchor="start" x="143" y="-926.17" font-family="Helvetica,sans-Serif" font-size="10.00"> &lt; UIdTypeMap, indexed</text>
<text text-anchor="start" x="143" y="-915.17" font-family="Helvetica,sans-Serif" font-size="10.00">_by&lt; hashed_unique&lt; member</text>
<text text-anchor="start" x="143" y="-904.17" font-family="Helvetica,sans-Serif" font-size="10.00">&lt; UIdTypeMap, boost::typeindex</text>
<text text-anchor="middle" x="255.5" y="-893.17" font-family="Helvetica,sans-Serif" font-size="10.00">::type_index, &amp;UIdTypeMap::classIdx &gt; &gt; &gt; &gt;</text>
</g>
<!-- Node6 -->
<g id="node6" class="node">
<title>Node6</title>
<g id="a_node6"><a xlink:title=" ">
<polygon fill="white" stroke="#bfbfbf" points="748,-828.17 748,-858.17 870,-858.17 870,-828.17 748,-828.17"/>
<text text-anchor="start" x="756" y="-846.17" font-family="Helvetica,sans-Serif" font-size="10.00">shared_ptr&lt; MoFEM::</text>
<text text-anchor="middle" x="809" y="-835.17" font-family="Helvetica,sans-Serif" font-size="10.00">SnesCtx &gt;</text>
</a>
</g>
</g>
<!-- Node6&#45;&gt;Node2 -->
<g id="edge5" class="edge">
<title>Node6&#45;&gt;Node2</title>
<path fill="none" stroke="#9a32cd" stroke-dasharray="5,2" d="M880.38,-842.36C887.35,-842.29 894.31,-842.23 901,-842.17 940.25,-841.83 984.87,-841.57 1017.25,-841.39"/>
<polygon fill="#9a32cd" stroke="#9a32cd" points="880.17,-838.87 870.21,-842.47 880.24,-845.87 880.17,-838.87"/>
<text text-anchor="middle" x="922.5" y="-845.17" font-family="Helvetica,sans-Serif" font-size="10.00"> snesCtx</text>
</g>
<!-- Node7 -->
<g id="node7" class="node">
<title>Node7</title>
<g id="a_node7"><a xlink:title=" ">
<polygon fill="white" stroke="#bfbfbf" points="748,-779.17 748,-809.17 870,-809.17 870,-779.17 748,-779.17"/>
<text text-anchor="start" x="756" y="-797.17" font-family="Helvetica,sans-Serif" font-size="10.00">shared_ptr&lt; MoFEM::</text>
<text text-anchor="middle" x="809" y="-786.17" font-family="Helvetica,sans-Serif" font-size="10.00">TsCtx &gt;</text>
</a>
</g>
</g>
<!-- Node7&#45;&gt;Node2 -->
<g id="edge6" class="edge">
<title>Node7&#45;&gt;Node2</title>
<path fill="none" stroke="#9a32cd" stroke-dasharray="5,2" d="M880.2,-807.24C924.09,-815.41 979.32,-825.69 1017.42,-832.78"/>
<polygon fill="#9a32cd" stroke="#9a32cd" points="880.63,-803.76 870.16,-805.37 879.35,-810.64 880.63,-803.76"/>
<text text-anchor="middle" x="922.5" y="-821.17" font-family="Helvetica,sans-Serif" font-size="10.00"> tsCtx</text>
</g>
<!-- Node8 -->
<g id="node8" class="node">
<title>Node8</title>
<g id="a_node8"><a xlink:title=" ">
<polygon fill="white" stroke="#bfbfbf" points="748,-730.17 748,-760.17 870,-760.17 870,-730.17 748,-730.17"/>
<text text-anchor="start" x="756" y="-748.17" font-family="Helvetica,sans-Serif" font-size="10.00">shared_ptr&lt; MoFEM::</text>
<text text-anchor="middle" x="809" y="-737.17" font-family="Helvetica,sans-Serif" font-size="10.00">KspCtx &gt;</text>
</a>
</g>
</g>
<!-- Node8&#45;&gt;Node2 -->
<g id="edge7" class="edge">
<title>Node8&#45;&gt;Node2</title>
<path fill="none" stroke="#9a32cd" stroke-dasharray="5,2" d="M864.61,-763.56C870.83,-765.75 877.06,-767.98 883,-770.17 939.6,-791.04 1005.35,-817.67 1039.4,-831.63"/>
<polygon fill="#9a32cd" stroke="#9a32cd" points="865.49,-760.16 854.9,-760.18 863.19,-766.77 865.49,-760.16"/>
<text text-anchor="middle" x="922.5" y="-795.17" font-family="Helvetica,sans-Serif" font-size="10.00"> kspCtx</text>
</g>
<!-- Node9 -->
<g id="node9" class="node">
<title>Node9</title>
<g id="a_node9"><a xlink:title=" ">
<polygon fill="white" stroke="#bfbfbf" points="1395,-753.67 1395,-772.67 1460,-772.67 1460,-753.67 1395,-753.67"/>
<text text-anchor="middle" x="1427.5" y="-760.67" font-family="Helvetica,sans-Serif" font-size="10.00">PetscBool</text>
</a>
</g>
</g>
<!-- Node9&#45;&gt;Node1 -->
<g id="edge8" class="edge">
<title>Node9&#45;&gt;Node1</title>
<path fill="none" stroke="#9a32cd" stroke-dasharray="5,2" d="M1470.67,-762.36C1524.83,-760.66 1615.27,-755.4 1644,-739.17 1680.01,-718.84 1704.12,-672.95 1713.32,-652.88"/>
<polygon fill="#9a32cd" stroke="#9a32cd" points="1470.24,-758.87 1460.35,-762.65 1470.44,-765.87 1470.24,-758.87"/>
<text text-anchor="middle" x="1590" y="-816.17" font-family="Helvetica,sans-Serif" font-size="10.00"> isSquareMatrix</text>
<text text-anchor="middle" x="1590" y="-805.17" font-family="Helvetica,sans-Serif" font-size="10.00">destroyProblem</text>
<text text-anchor="middle" x="1590" y="-794.17" font-family="Helvetica,sans-Serif" font-size="10.00">isProblemBuild</text>
<text text-anchor="middle" x="1590" y="-783.17" font-family="Helvetica,sans-Serif" font-size="10.00">isPartitioned</text>
<text text-anchor="middle" x="1590" y="-772.17" font-family="Helvetica,sans-Serif" font-size="10.00">isCompDM</text>
<text text-anchor="middle" x="1590" y="-761.17" font-family="Helvetica,sans-Serif" font-size="10.00">isSubDM</text>
</g>
<!-- Node10 -->
<g id="node10" class="node">
<title>Node10</title>
<g id="a_node10"><a xlink:title=" ">
<polygon fill="white" stroke="#bfbfbf" points="1345.5,-715.67 1345.5,-734.67 1509.5,-734.67 1509.5,-715.67 1345.5,-715.67"/>
<text text-anchor="middle" x="1427.5" y="-722.67" font-family="Helvetica,sans-Serif" font-size="10.00">shared_ptr&lt; NestSchurData &gt;</text>
</a>
</g>
</g>
<!-- Node10&#45;&gt;Node1 -->
<g id="edge9" class="edge">
<title>Node10&#45;&gt;Node1</title>
<path fill="none" stroke="#9a32cd" stroke-dasharray="5,2" d="M1519.75,-728.73C1559.27,-727.26 1605.26,-721.4 1644,-705.17 1672.02,-693.43 1697.35,-667.05 1709.65,-652.78"/>
<polygon fill="#9a32cd" stroke="#9a32cd" points="1519.48,-725.23 1509.58,-729.02 1519.67,-732.23 1519.48,-725.23"/>
<text text-anchor="middle" x="1590" y="-730.17" font-family="Helvetica,sans-Serif" font-size="10.00"> nestedSchurDataPtr</text>
</g>
<!-- Node11 -->
<g id="node11" class="node">
<title>Node11</title>
<g id="a_node11"><a xlink:title=" ">
<polygon fill="white" stroke="#bfbfbf" points="1368,-668.67 1368,-687.67 1487,-687.67 1487,-668.67 1368,-668.67"/>
<text text-anchor="middle" x="1427.5" y="-675.67" font-family="Helvetica,sans-Serif" font-size="10.00">vector&lt; std::string &gt;</text>
</a>
</g>
</g>
<!-- Node11&#45;&gt;Node1 -->
<g id="edge10" class="edge">
<title>Node11&#45;&gt;Node1</title>
<path fill="none" stroke="#9a32cd" stroke-dasharray="5,2" d="M1494.98,-667.04C1508.53,-664.95 1522.71,-662.88 1536,-661.17 1578.08,-655.76 1625.84,-651.08 1661.8,-647.85"/>
<polygon fill="#9a32cd" stroke="#9a32cd" points="1494.1,-663.64 1484.76,-668.64 1495.18,-670.55 1494.1,-663.64"/>
<text text-anchor="middle" x="1590" y="-697.17" font-family="Helvetica,sans-Serif" font-size="10.00"> colCompPrb</text>
<text text-anchor="middle" x="1590" y="-686.17" font-family="Helvetica,sans-Serif" font-size="10.00">colSubFields</text>
<text text-anchor="middle" x="1590" y="-675.17" font-family="Helvetica,sans-Serif" font-size="10.00">rowSubFields</text>
<text text-anchor="middle" x="1590" y="-664.17" font-family="Helvetica,sans-Serif" font-size="10.00">rowCompPrb</text>
</g>
<!-- Node12 -->
<g id="node12" class="node">
<title>Node12</title>
<g id="a_node12"><a xlink:title=" ">
<polygon fill="white" stroke="#bfbfbf" points="1366.5,-619.17 1366.5,-649.17 1488.5,-649.17 1488.5,-619.17 1366.5,-619.17"/>
<text text-anchor="start" x="1374.5" y="-637.17" font-family="Helvetica,sans-Serif" font-size="10.00">shared_ptr&lt; MoFEM::</text>
<text text-anchor="middle" x="1427.5" y="-626.17" font-family="Helvetica,sans-Serif" font-size="10.00">BlockStructure &gt;</text>
</a>
</g>
</g>
<!-- Node12&#45;&gt;Node1 -->
<g id="edge11" class="edge">
<title>Node12&#45;&gt;Node1</title>
<path fill="none" stroke="#9a32cd" stroke-dasharray="5,2" d="M1498.76,-626.96C1540.97,-623.85 1595.69,-621.97 1644,-627.17 1656.21,-628.48 1669.36,-630.99 1681.11,-633.64"/>
<polygon fill="#9a32cd" stroke="#9a32cd" points="1498.28,-623.48 1488.58,-627.75 1498.82,-630.46 1498.28,-623.48"/>
<text text-anchor="middle" x="1590" y="-630.17" font-family="Helvetica,sans-Serif" font-size="10.00"> blocMatDataPtr</text>
</g>
<!-- Node13 -->
<g id="node13" class="node">
<title>Node13</title>
<g id="a_node13"><a xlink:href="structMoFEM_1_1DeprecatedCoreInterface.html" target="_top" xlink:title="Deprecated interface functions.">
<polygon fill="white" stroke="black" points="1337,-876.67 1337,-895.67 1518,-895.67 1518,-876.67 1337,-876.67"/>
<text text-anchor="middle" x="1427.5" y="-883.67" font-family="Helvetica,sans-Serif" font-size="10.00">MoFEM::DeprecatedCoreInterface</text>
</a>
</g>
</g>
<!-- Node13&#45;&gt;Node1 -->
<g id="edge12" class="edge">
<title>Node13&#45;&gt;Node1</title>
<path fill="none" stroke="#9a32cd" stroke-dasharray="5,2" d="M1528.1,-893.76C1568.04,-891.73 1612.07,-882.44 1644,-856.17 1709.55,-802.24 1716.79,-686.69 1717.47,-652.74"/>
<polygon fill="#9a32cd" stroke="#9a32cd" points="1527.91,-890.26 1518.04,-894.12 1528.16,-897.26 1527.91,-890.26"/>
<text text-anchor="middle" x="1590" y="-895.17" font-family="Helvetica,sans-Serif" font-size="10.00"> mField_ptr</text>
</g>
<!-- Node14&#45;&gt;Node13 -->
<g id="edge13" class="edge">
<title>Node14&#45;&gt;Node13</title>
<path fill="none" stroke="midnightblue" d="M1136.42,-889.38C1193.97,-888.74 1274.98,-887.85 1336.77,-887.16"/>
<polygon fill="midnightblue" stroke="midnightblue" points="1136.28,-885.88 1126.32,-889.49 1136.36,-892.88 1136.28,-885.88"/>
</g>
<!-- Node15 -->
<g id="node15" class="node">
<title>Node15</title>
<g id="a_node15"><a xlink:title=" ">
<polygon fill="white" stroke="#bfbfbf" points="1049,-517.67 1049,-536.67 1078,-536.67 1078,-517.67 1049,-517.67"/>
<text text-anchor="middle" x="1063.5" y="-524.67" font-family="Helvetica,sans-Serif" font-size="10.00">int</text>
</a>
</g>
</g>
<!-- Node15&#45;&gt;Node1 -->
<g id="edge15" class="edge">
<title>Node15&#45;&gt;Node1</title>
<path fill="none" stroke="#9a32cd" stroke-dasharray="5,2" d="M1088.26,-530.57C1112.16,-533.89 1150.07,-538.91 1183,-542.17 1331.54,-556.88 1372.33,-533.61 1518,-566.17 1587.02,-581.6 1663.79,-616.71 1698.56,-633.66"/>
<polygon fill="#9a32cd" stroke="#9a32cd" points="1088.73,-527.1 1078.34,-529.17 1087.75,-534.03 1088.73,-527.1"/>
<text text-anchor="middle" x="1427.5" y="-602.17" font-family="Helvetica,sans-Serif" font-size="10.00"> verbosity</text>
<text text-anchor="middle" x="1427.5" y="-591.17" font-family="Helvetica,sans-Serif" font-size="10.00">sIze</text>
<text text-anchor="middle" x="1427.5" y="-580.17" font-family="Helvetica,sans-Serif" font-size="10.00">referenceNumber</text>
<text text-anchor="middle" x="1427.5" y="-569.17" font-family="Helvetica,sans-Serif" font-size="10.00">rAnk</text>
</g>
<!-- Node17 -->
<g id="node17" class="node">
<title>Node17</title>
<g id="a_node17"><a xlink:href="structMoFEM_1_1Problem.html" target="_top" xlink:title="keeps basic data about problem">
<polygon fill="white" stroke="black" points="1378,-318.67 1378,-337.67 1477,-337.67 1477,-318.67 1378,-318.67"/>
<text text-anchor="middle" x="1427.5" y="-325.67" font-family="Helvetica,sans-Serif" font-size="10.00">MoFEM::Problem</text>
</a>
</g>
</g>
<!-- Node15&#45;&gt;Node17 -->
<g id="edge27" class="edge">
<title>Node15&#45;&gt;Node17</title>
<path fill="none" stroke="#9a32cd" stroke-dasharray="5,2" d="M1087.51,-517.32C1108.26,-508.11 1139.38,-493.51 1165,-478.17 1173.47,-473.1 1173.9,-468.98 1183,-465.17 1239.55,-441.5 1264.94,-471.08 1319,-442.17 1367.46,-416.26 1406.37,-360.26 1420.64,-337.79"/>
<polygon fill="#9a32cd" stroke="#9a32cd" points="1085.97,-514.17 1078.22,-521.38 1088.78,-520.58 1085.97,-514.17"/>
<text text-anchor="middle" x="1251" y="-534.17" font-family="Helvetica,sans-Serif" font-size="10.00"> tagNameSize</text>
<text text-anchor="middle" x="1251" y="-523.17" font-family="Helvetica,sans-Serif" font-size="10.00">nbDofsRow</text>
<text text-anchor="middle" x="1251" y="-512.17" font-family="Helvetica,sans-Serif" font-size="10.00">nbLocDofsCol</text>
<text text-anchor="middle" x="1251" y="-501.17" font-family="Helvetica,sans-Serif" font-size="10.00">nbDofsCol</text>
<text text-anchor="middle" x="1251" y="-490.17" font-family="Helvetica,sans-Serif" font-size="10.00">nbGhostDofsRow</text>
<text text-anchor="middle" x="1251" y="-479.17" font-family="Helvetica,sans-Serif" font-size="10.00">nbGhostDofsCol</text>
<text text-anchor="middle" x="1251" y="-468.17" font-family="Helvetica,sans-Serif" font-size="10.00">nbLocDofsRow</text>
</g>
<!-- Node16 -->
<g id="node16" class="node">
<title>Node16</title>
<g id="a_node16"><a xlink:title=" ">
<polygon fill="white" stroke="#bfbfbf" points="1405.5,-280.67 1405.5,-299.67 1449.5,-299.67 1449.5,-280.67 1405.5,-280.67"/>
<text text-anchor="middle" x="1427.5" y="-287.67" font-family="Helvetica,sans-Serif" font-size="10.00">string</text>
</a>
</g>
</g>
<!-- Node16&#45;&gt;Node1 -->
<g id="edge16" class="edge">
<title>Node16&#45;&gt;Node1</title>
<path fill="none" stroke="#9a32cd" stroke-dasharray="5,2" d="M1459.83,-293.61C1477.47,-296.33 1499.58,-301.06 1518,-309.17 1580.98,-336.9 1603.93,-343.22 1644,-399.17 1699.9,-477.22 1713.84,-598.27 1716.79,-633.34"/>
<polygon fill="#9a32cd" stroke="#9a32cd" points="1459.89,-290.08 1449.5,-292.17 1458.92,-297.02 1459.89,-290.08"/>
<text text-anchor="middle" x="1590" y="-402.17" font-family="Helvetica,sans-Serif" font-size="10.00"> problemName</text>
</g>
<!-- Node17&#45;&gt;Node1 -->
<g id="edge17" class="edge">
<title>Node17&#45;&gt;Node1</title>
<path fill="none" stroke="#9a32cd" stroke-dasharray="5,2" d="M1450.13,-343.86C1491.33,-374.47 1582.43,-445.69 1644,-520.17 1675.7,-558.52 1702.73,-612.02 1713.04,-633.59"/>
<polygon fill="#9a32cd" stroke="#9a32cd" points="1452.03,-340.91 1441.9,-337.79 1447.87,-346.54 1452.03,-340.91"/>
<text text-anchor="middle" x="1590" y="-534.17" font-family="Helvetica,sans-Serif" font-size="10.00"> problemPtr</text>
<text text-anchor="middle" x="1590" y="-523.17" font-family="Helvetica,sans-Serif" font-size="10.00">problemMainOfSubPtr</text>
</g>
<!-- Node18 -->
<g id="node18" class="node">
<title>Node18</title>
<g id="a_node18"><a xlink:title=" ">
<polygon fill="white" stroke="#bfbfbf" points="980,-438.17 980,-468.17 1147,-468.17 1147,-438.17 980,-438.17"/>
<text text-anchor="start" x="988" y="-456.17" font-family="Helvetica,sans-Serif" font-size="10.00">shared_ptr&lt; NumeredEntFinite</text>
<text text-anchor="middle" x="1063.5" y="-445.17" font-family="Helvetica,sans-Serif" font-size="10.00">Element_multiIndex &gt;</text>
</a>
</g>
</g>
<!-- Node18&#45;&gt;Node17 -->
<g id="edge18" class="edge">
<title>Node18&#45;&gt;Node17</title>
<path fill="none" stroke="#9a32cd" stroke-dasharray="5,2" d="M1154.47,-436.31C1164.1,-434.55 1173.75,-432.81 1183,-431.17 1243.36,-420.46 1262.62,-432.25 1319,-408.17 1359.65,-390.81 1399.18,-355.15 1416.85,-337.92"/>
<polygon fill="#9a32cd" stroke="#9a32cd" points="1153.67,-432.9 1144.47,-438.14 1154.93,-439.79 1153.67,-432.9"/>
<text text-anchor="middle" x="1251" y="-434.17" font-family="Helvetica,sans-Serif" font-size="10.00"> numeredFiniteElementsPtr</text>
</g>
<!-- Node19 -->
<g id="node19" class="node">
<title>Node19</title>
<g id="a_node19"><a xlink:title=" ">
<polygon fill="white" stroke="#bfbfbf" points="1034,-399.67 1034,-418.67 1093,-418.67 1093,-399.67 1034,-399.67"/>
<text text-anchor="middle" x="1063.5" y="-406.67" font-family="Helvetica,sans-Serif" font-size="10.00">BitFEId *</text>
</a>
</g>
</g>
<!-- Node19&#45;&gt;Node17 -->
<g id="edge19" class="edge">
<title>Node19&#45;&gt;Node17</title>
<path fill="none" stroke="#9a32cd" stroke-dasharray="5,2" d="M1103.29,-405.91C1153.67,-401.06 1244.03,-390.3 1319,-370.17 1350.16,-361.81 1384.64,-347.35 1405.95,-337.77"/>
<polygon fill="#9a32cd" stroke="#9a32cd" points="1102.8,-402.44 1093.17,-406.85 1103.45,-409.41 1102.8,-402.44"/>
<text text-anchor="middle" x="1251" y="-398.17" font-family="Helvetica,sans-Serif" font-size="10.00"> tagBitFEId</text>
</g>
<!-- Node20 -->
<g id="node20" class="node">
<title>Node20</title>
<g id="a_node20"><a xlink:href="classEntityHandle.html" target="_top" xlink:title=" ">
<polygon fill="white" stroke="black" points="1023.5,-361.67 1023.5,-380.67 1103.5,-380.67 1103.5,-361.67 1023.5,-361.67"/>
<text text-anchor="middle" x="1063.5" y="-368.67" font-family="Helvetica,sans-Serif" font-size="10.00">EntityHandle</text>
</a>
</g>
</g>
<!-- Node20&#45;&gt;Node17 -->
<g id="edge20" class="edge">
<title>Node20&#45;&gt;Node17</title>
<path fill="none" stroke="#9a32cd" stroke-dasharray="5,2" d="M1113.81,-365.31C1183.18,-357.07 1308.81,-342.15 1377.83,-333.95"/>
<polygon fill="#9a32cd" stroke="#9a32cd" points="1113.1,-361.87 1103.58,-366.53 1113.93,-368.82 1113.1,-361.87"/>
<text text-anchor="middle" x="1251" y="-358.17" font-family="Helvetica,sans-Serif" font-size="10.00"> meshset</text>
</g>
<!-- Node21 -->
<g id="node21" class="node">
<title>Node21</title>
<g id="a_node21"><a xlink:title=" ">
<polygon fill="white" stroke="#bfbfbf" points="989,-312.17 989,-342.17 1138,-342.17 1138,-312.17 989,-312.17"/>
<text text-anchor="start" x="997" y="-330.17" font-family="Helvetica,sans-Serif" font-size="10.00">shared_ptr&lt; MoFEM::</text>
<text text-anchor="middle" x="1063.5" y="-319.17" font-family="Helvetica,sans-Serif" font-size="10.00">ComposedProblemsData &gt;</text>
</a>
</g>
</g>
<!-- Node21&#45;&gt;Node17 -->
<g id="edge21" class="edge">
<title>Node21&#45;&gt;Node17</title>
<path fill="none" stroke="#9a32cd" stroke-dasharray="5,2" d="M1148.47,-327.4C1219.61,-327.6 1319.12,-327.87 1377.79,-328.04"/>
<polygon fill="#9a32cd" stroke="#9a32cd" points="1148.2,-323.9 1138.19,-327.37 1148.18,-330.9 1148.2,-323.9"/>
<text text-anchor="middle" x="1251" y="-330.17" font-family="Helvetica,sans-Serif" font-size="10.00"> composedProblemsData</text>
</g>
<!-- Node22 -->
<g id="node22" class="node">
<title>Node22</title>
<g id="a_node22"><a xlink:title=" ">
<polygon fill="white" stroke="#bfbfbf" points="1023,-273.67 1023,-292.67 1104,-292.67 1104,-273.67 1023,-273.67"/>
<text text-anchor="middle" x="1063.5" y="-280.67" font-family="Helvetica,sans-Serif" font-size="10.00">BitRefLevel *</text>
</a>
</g>
</g>
<!-- Node22&#45;&gt;Node17 -->
<g id="edge22" class="edge">
<title>Node22&#45;&gt;Node17</title>
<path fill="none" stroke="#9a32cd" stroke-dasharray="5,2" d="M1114.67,-281.64C1166.59,-281.23 1249.64,-283.87 1319,-301.17 1327.49,-303.29 1328.67,-306.47 1337,-309.17 1349.99,-313.39 1364.36,-316.91 1377.71,-319.74"/>
<polygon fill="#9a32cd" stroke="#9a32cd" points="1114.36,-278.14 1104.4,-281.77 1114.44,-285.14 1114.36,-278.14"/>
<text text-anchor="middle" x="1251" y="-315.17" font-family="Helvetica,sans-Serif" font-size="10.00"> tagBitRefLevelMask</text>
<text text-anchor="middle" x="1251" y="-304.17" font-family="Helvetica,sans-Serif" font-size="10.00">tagBitRefLevel</text>
</g>
<!-- Node23 -->
<g id="node23" class="node">
<title>Node23</title>
<g id="a_node23"><a xlink:title=" ">
<polygon fill="white" stroke="#bfbfbf" points="978.5,-224.17 978.5,-254.17 1148.5,-254.17 1148.5,-224.17 978.5,-224.17"/>
<text text-anchor="start" x="986.5" y="-242.17" font-family="Helvetica,sans-Serif" font-size="10.00">shared_ptr&lt; NumeredDofEntity</text>
<text text-anchor="middle" x="1063.5" y="-231.17" font-family="Helvetica,sans-Serif" font-size="10.00">_multiIndex &gt;</text>
</a>
</g>
</g>
<!-- Node23&#45;&gt;Node17 -->
<g id="edge23" class="edge">
<title>Node23&#45;&gt;Node17</title>
<path fill="none" stroke="#9a32cd" stroke-dasharray="5,2" d="M1153.38,-223.19C1206.58,-218.71 1272.63,-222.7 1319,-258.17 1338.09,-272.78 1318.93,-293.32 1337,-309.17 1348.22,-319.02 1363.27,-324.2 1377.82,-326.81"/>
<polygon fill="#9a32cd" stroke="#9a32cd" points="1152.89,-219.72 1143.27,-224.16 1153.56,-226.69 1152.89,-219.72"/>
<text text-anchor="middle" x="1251" y="-272.17" font-family="Helvetica,sans-Serif" font-size="10.00"> numeredRowDofsPtr</text>
<text text-anchor="middle" x="1251" y="-261.17" font-family="Helvetica,sans-Serif" font-size="10.00">numeredColDofsPtr</text>
</g>
<!-- Node24 -->
<g id="node24" class="node">
<title>Node24</title>
<g id="a_node24"><a xlink:title=" ">
<polygon fill="white" stroke="#bfbfbf" points="1044.5,-185.67 1044.5,-204.67 1082.5,-204.67 1082.5,-185.67 1044.5,-185.67"/>
<text text-anchor="middle" x="1063.5" y="-192.67" font-family="Helvetica,sans-Serif" font-size="10.00">char</text>
</a>
</g>
</g>
<!-- Node24&#45;&gt;Node17 -->
<g id="edge24" class="edge">
<title>Node24&#45;&gt;Node17</title>
<path fill="none" stroke="#9a32cd" stroke-dasharray="5,2" d="M1092.98,-192.26C1152.27,-186.86 1286.18,-178.29 1319,-207.17 1353.56,-237.58 1305.02,-276.06 1337,-309.17 1347.6,-320.14 1362.83,-325.55 1377.73,-328.04"/>
<polygon fill="#9a32cd" stroke="#9a32cd" points="1092.45,-188.8 1082.82,-193.22 1093.11,-195.76 1092.45,-188.8"/>
<text text-anchor="middle" x="1251" y="-210.17" font-family="Helvetica,sans-Serif" font-size="10.00"> tagName</text>
</g>
<!-- Node25 -->
<g id="node25" class="node">
<title>Node25</title>
<g id="a_node25"><a xlink:title=" ">
<polygon fill="white" stroke="#bfbfbf" points="994.5,-147.67 994.5,-166.67 1132.5,-166.67 1132.5,-147.67 994.5,-147.67"/>
<text text-anchor="middle" x="1063.5" y="-154.67" font-family="Helvetica,sans-Serif" font-size="10.00">vector&lt; BlockFieldPair &gt;</text>
</a>
</g>
</g>
<!-- Node25&#45;&gt;Node17 -->
<g id="edge25" class="edge">
<title>Node25&#45;&gt;Node17</title>
<path fill="none" stroke="#9a32cd" stroke-dasharray="5,2" d="M1142.83,-151.3C1208.08,-148.25 1294.2,-149.09 1319,-172.17 1363.95,-214.01 1295.31,-264.07 1337,-309.17 1347.46,-320.49 1362.84,-325.95 1377.91,-328.38"/>
<polygon fill="#9a32cd" stroke="#9a32cd" points="1142.36,-147.82 1132.55,-151.82 1142.71,-154.81 1142.36,-147.82"/>
<text text-anchor="middle" x="1251" y="-175.17" font-family="Helvetica,sans-Serif" font-size="10.00"> emptyFieldBlocks</text>
</g>
<!-- Node26 -->
<g id="node26" class="node">
<title>Node26</title>
<g id="a_node26"><a xlink:title=" ">
<polygon fill="white" stroke="#bfbfbf" points="985.5,-98.17 985.5,-128.17 1141.5,-128.17 1141.5,-98.17 985.5,-98.17"/>
<text text-anchor="start" x="993.5" y="-116.17" font-family="Helvetica,sans-Serif" font-size="10.00">shared_ptr&lt; MoFEM::</text>
<text text-anchor="middle" x="1063.5" y="-105.17" font-family="Helvetica,sans-Serif" font-size="10.00">Problem::SubProblemData &gt;</text>
</a>
</g>
</g>
<!-- Node26&#45;&gt;Node17 -->
<g id="edge26" class="edge">
<title>Node26&#45;&gt;Node17</title>
<path fill="none" stroke="#9a32cd" stroke-dasharray="5,2" d="M1139.81,-96.68C1196.81,-89.01 1272.91,-89.85 1319,-135.17 1346.72,-162.43 1311.01,-280.27 1337,-309.17 1347.3,-320.63 1362.65,-326.13 1377.73,-328.55"/>
<polygon fill="#9a32cd" stroke="#9a32cd" points="1139.15,-93.24 1129.76,-98.15 1140.16,-100.17 1139.15,-93.24"/>
<text text-anchor="middle" x="1251" y="-138.17" font-family="Helvetica,sans-Serif" font-size="10.00"> subProblemData</text>
</g>
<!-- Node27 -->
<g id="node27" class="node">
<title>Node27</title>
<g id="a_node27"><a xlink:title=" ">
<polygon fill="white" stroke="#bfbfbf" points="962,-59.67 962,-78.67 1165,-78.67 1165,-59.67 962,-59.67"/>
<text text-anchor="middle" x="1063.5" y="-66.67" font-family="Helvetica,sans-Serif" font-size="10.00">shared_ptr&lt; SequenceDofContainer &gt;</text>
</a>
</g>
</g>
<!-- Node27&#45;&gt;Node17 -->
<g id="edge28" class="edge">
<title>Node27&#45;&gt;Node17</title>
<path fill="none" stroke="#9a32cd" stroke-dasharray="5,2" d="M1134.64,-58.32C1200.67,-49.88 1293.17,-43.19 1319,-67.17 1358.52,-103.86 1301.53,-268.56 1337,-309.17 1347.14,-320.78 1362.44,-326.31 1377.54,-328.72"/>
<polygon fill="#9a32cd" stroke="#9a32cd" points="1134.15,-54.86 1124.7,-59.63 1135.07,-61.8 1134.15,-54.86"/>
<text text-anchor="middle" x="1251" y="-81.17" font-family="Helvetica,sans-Serif" font-size="10.00"> sequenceRowDofContainer</text>
<text text-anchor="middle" x="1251" y="-70.17" font-family="Helvetica,sans-Serif" font-size="10.00">sequenceColDofContainer</text>
</g>
<!-- Node28 -->
<g id="node28" class="node">
<title>Node28</title>
<g id="a_node28"><a xlink:title=" ">
<polygon fill="white" stroke="#bfbfbf" points="1019.5,-21.67 1019.5,-40.67 1107.5,-40.67 1107.5,-21.67 1019.5,-21.67"/>
<text text-anchor="middle" x="1063.5" y="-28.67" font-family="Helvetica,sans-Serif" font-size="10.00">BitProblemId *</text>
</a>
</g>
</g>
<!-- Node28&#45;&gt;Node17 -->
<g id="edge29" class="edge">
<title>Node28&#45;&gt;Node17</title>
<path fill="none" stroke="#9a32cd" stroke-dasharray="5,2" d="M1100.42,-18.56C1155.47,-1.79 1260.48,19.71 1319,-36.17 1362.97,-78.16 1297.2,-263.21 1337,-309.17 1347.19,-320.94 1362.7,-326.48 1377.95,-328.84"/>
<polygon fill="#9a32cd" stroke="#9a32cd" points="1099.22,-15.27 1090.74,-21.62 1101.33,-21.95 1099.22,-15.27"/>
<text text-anchor="middle" x="1251" y="-39.17" font-family="Helvetica,sans-Serif" font-size="10.00"> tagId</text>
</g>
<!-- Node29 -->
<g id="node29" class="node">
<title>Node29</title>
<g id="a_node29"><a xlink:title=" ">
<polygon fill="white" stroke="#bfbfbf" points="1358,-231.17 1358,-261.17 1497,-261.17 1497,-231.17 1358,-231.17"/>
<text text-anchor="start" x="1366" y="-249.17" font-family="Helvetica,sans-Serif" font-size="10.00">map&lt; std::string, boost</text>
<text text-anchor="middle" x="1427.5" y="-238.17" font-family="Helvetica,sans-Serif" font-size="10.00">::shared_ptr&lt; Range &gt; &gt;</text>
</a>
</g>
</g>
<!-- Node29&#45;&gt;Node1 -->
<g id="edge30" class="edge">
<title>Node29&#45;&gt;Node1</title>
<path fill="none" stroke="#9a32cd" stroke-dasharray="5,2" d="M1507.32,-242.98C1553.16,-245.48 1608.67,-256.71 1644,-292.17 1694.2,-342.57 1713.34,-582.64 1716.88,-633.64"/>
<polygon fill="#9a32cd" stroke="#9a32cd" points="1507.24,-239.47 1497.1,-242.55 1506.94,-246.46 1507.24,-239.47"/>
<text text-anchor="middle" x="1590" y="-306.17" font-family="Helvetica,sans-Serif" font-size="10.00"> mapTypeCol</text>
<text text-anchor="middle" x="1590" y="-295.17" font-family="Helvetica,sans-Serif" font-size="10.00">mapTypeRow</text>
</g>
</g>
</svg>
