<?xml version="1.0" encoding="UTF-8" standalone="no"?>
<!DOCTYPE svg PUBLIC "-//W3C//DTD SVG 1.1//EN"
 "http://www.w3.org/Graphics/SVG/1.1/DTD/svg11.dtd">
<!-- Generated by graphviz version 9.0.0 (20230911.1827)
 -->
<!-- Title: GelModule::Gel::ConstitutiveEquation&lt; TYPE &gt; Pages: 1 -->
<svg width="423pt" height="449pt"
 viewBox="0.00 0.00 422.50 449.12" xmlns="http://www.w3.org/2000/svg" xmlns:xlink="http://www.w3.org/1999/xlink">
<g id="graph0" class="graph" transform="scale(1 1) rotate(0) translate(4 445.12)">
<title>GelModule::Gel::ConstitutiveEquation&lt; TYPE &gt;</title>
<!-- Node1 -->
<g id="node1" class="node">
<title>Node1</title>
<g id="a_node1"><a xlink:title="Constitutive model functions.">
<polygon fill="#999999" stroke="#666666" points="414.5,-188.12 272.5,-188.12 272.5,-157.62 414.5,-157.62 414.5,-188.12"/>
<text text-anchor="start" x="280.5" y="-174.62" font-family="Helvetica,sans-Serif" font-size="10.00">GelModule::Gel::Constitutive</text>
<text text-anchor="middle" x="343.5" y="-163.38" font-family="Helvetica,sans-Serif" font-size="10.00">Equation&lt; TYPE &gt;</text>
</a>
</g>
</g>
<!-- Node2 -->
<g id="node2" class="node">
<title>Node2</title>
<g id="a_node2"><a xlink:title=" ">
<polygon fill="white" stroke="#666666" points="86.53,-434.5 57.73,-434.5 57.73,-415.25 86.53,-415.25 86.53,-434.5"/>
<text text-anchor="middle" x="72.12" y="-421" font-family="Helvetica,sans-Serif" font-size="10.00">int</text>
</a>
</g>
</g>
<!-- Node2&#45;&gt;Node1 -->
<g id="edge1" class="edge">
<title>Node2&#45;&gt;Node1</title>
<path fill="none" stroke="#9a32cd" stroke-dasharray="5,2" d="M97.72,-428.72C135.65,-433.22 208.82,-435.98 254.5,-399.88 323.3,-345.48 338.38,-230.13 341.63,-188.37"/>
<polygon fill="#9a32cd" stroke="#9a32cd" points="98.6,-425.31 88.22,-427.45 97.67,-432.25 98.6,-425.31"/>
<text text-anchor="middle" x="208.38" y="-431.62" font-family="Helvetica,sans-Serif" font-size="10.00"> iD</text>
</g>
<!-- Node3 -->
<g id="node3" class="node">
<title>Node3</title>
<g id="a_node3"><a xlink:title=" ">
<polygon fill="white" stroke="#666666" points="138.25,-397.12 6,-397.12 6,-366.62 138.25,-366.62 138.25,-397.12"/>
<text text-anchor="start" x="14" y="-383.62" font-family="Helvetica,sans-Serif" font-size="10.00">map&lt; int, GelModule</text>
<text text-anchor="middle" x="72.12" y="-372.38" font-family="Helvetica,sans-Serif" font-size="10.00">::Gel::BlockMaterialData &gt;</text>
</a>
</g>
</g>
<!-- Node3&#45;&gt;Node1 -->
<g id="edge2" class="edge">
<title>Node3&#45;&gt;Node1</title>
<path fill="none" stroke="#9a32cd" stroke-dasharray="5,2" d="M149.47,-386.13C184.44,-384.4 224.65,-376.83 254.5,-354.88 311.47,-312.98 333.28,-224.28 339.98,-188.41"/>
<polygon fill="#9a32cd" stroke="#9a32cd" points="149.71,-382.62 139.84,-386.45 149.94,-389.62 149.71,-382.62"/>
<text text-anchor="middle" x="208.38" y="-386.62" font-family="Helvetica,sans-Serif" font-size="10.00"> dAta</text>
</g>
<!-- Node4 -->
<g id="node4" class="node">
<title>Node4</title>
<g id="a_node4"><a xlink:title=" ">
<polygon fill="white" stroke="#666666" points="144.25,-244.75 0,-244.75 0,-203 144.25,-203 144.25,-244.75"/>
<text text-anchor="start" x="8" y="-231.25" font-family="Helvetica,sans-Serif" font-size="10.00">matrix&lt; TYPE, ublas</text>
<text text-anchor="start" x="8" y="-220" font-family="Helvetica,sans-Serif" font-size="10.00">::row_major, ublas::</text>
<text text-anchor="middle" x="72.12" y="-208.75" font-family="Helvetica,sans-Serif" font-size="10.00">bounded_array&lt; TYPE, 9 &gt; &gt;</text>
</a>
</g>
</g>
<!-- Node4&#45;&gt;Node1 -->
<g id="edge3" class="edge">
<title>Node4&#45;&gt;Node1</title>
<path fill="none" stroke="#9a32cd" stroke-dasharray="5,2" d="M155.99,-217.3C187.12,-213.93 222.65,-208.98 254.5,-201.88 269.73,-198.48 286.05,-193.49 300.45,-188.61"/>
<polygon fill="#9a32cd" stroke="#9a32cd" points="155.83,-213.8 146.25,-218.32 156.56,-220.76 155.83,-213.8"/>
<text text-anchor="middle" x="208.38" y="-341.38" font-family="Helvetica,sans-Serif" font-size="10.00"> C</text>
<text text-anchor="middle" x="208.38" y="-330.12" font-family="Helvetica,sans-Serif" font-size="10.00">F</text>
<text text-anchor="middle" x="208.38" y="-318.88" font-family="Helvetica,sans-Serif" font-size="10.00">FDot</text>
<text text-anchor="middle" x="208.38" y="-307.62" font-family="Helvetica,sans-Serif" font-size="10.00">gradientU</text>
<text text-anchor="start" x="178.75" y="-296.38" font-family="Helvetica,sans-Serif" font-size="10.00">residualStrain</text>
<text text-anchor="middle" x="208.38" y="-285.12" font-family="Helvetica,sans-Serif" font-size="10.00">Hat</text>
<text text-anchor="middle" x="208.38" y="-273.88" font-family="Helvetica,sans-Serif" font-size="10.00">strainHat</text>
<text text-anchor="middle" x="208.38" y="-262.62" font-family="Helvetica,sans-Serif" font-size="10.00">strainHatDot</text>
<text text-anchor="middle" x="208.38" y="-251.38" font-family="Helvetica,sans-Serif" font-size="10.00">strainHatFlux</text>
<text text-anchor="middle" x="208.38" y="-240.12" font-family="Helvetica,sans-Serif" font-size="10.00">strainTotal</text>
<text text-anchor="middle" x="208.38" y="-228.88" font-family="Helvetica,sans-Serif" font-size="10.00">stressAlpha</text>
<text text-anchor="middle" x="208.38" y="-217.62" font-family="Helvetica,sans-Serif" font-size="10.00">...</text>
</g>
<!-- Node5 -->
<g id="node5" class="node">
<title>Node5</title>
<g id="a_node5"><a xlink:title=" ">
<polygon fill="white" stroke="#666666" points="93.25,-139.5 51,-139.5 51,-120.25 93.25,-120.25 93.25,-139.5"/>
<text text-anchor="middle" x="72.12" y="-126" font-family="Helvetica,sans-Serif" font-size="10.00">TYPE</text>
</a>
</g>
</g>
<!-- Node5&#45;&gt;Node1 -->
<g id="edge4" class="edge">
<title>Node5&#45;&gt;Node1</title>
<path fill="none" stroke="#9a32cd" stroke-dasharray="5,2" d="M104.65,-123.24C141.31,-116.76 203.35,-109.67 254.5,-123.12 279.62,-129.73 305.11,-145.33 322.14,-157.31"/>
<polygon fill="#9a32cd" stroke="#9a32cd" points="104.35,-119.73 95.17,-125.01 105.64,-126.61 104.35,-119.73"/>
<text text-anchor="middle" x="208.38" y="-192.12" font-family="Helvetica,sans-Serif" font-size="10.00"> mU</text>
<text text-anchor="start" x="162.25" y="-180.88" font-family="Helvetica,sans-Serif" font-size="10.00">solventConcentration</text>
<text text-anchor="middle" x="208.38" y="-169.62" font-family="Helvetica,sans-Serif" font-size="10.00">Dot</text>
<text text-anchor="middle" x="208.38" y="-158.38" font-family="Helvetica,sans-Serif" font-size="10.00">traceStrainHat</text>
<text text-anchor="middle" x="208.38" y="-147.12" font-family="Helvetica,sans-Serif" font-size="10.00">traceStrainTotal</text>
<text text-anchor="middle" x="208.38" y="-135.88" font-family="Helvetica,sans-Serif" font-size="10.00">traceStrainTotalDot</text>
<text text-anchor="middle" x="208.38" y="-124.62" font-family="Helvetica,sans-Serif" font-size="10.00">traceStressBeta</text>
</g>
<!-- Node6 -->
<g id="node6" class="node">
<title>Node6</title>
<g id="a_node6"><a xlink:title=" ">
<polygon fill="white" stroke="#666666" points="134.12,-101.75 10.12,-101.75 10.12,-60 134.12,-60 134.12,-101.75"/>
<text text-anchor="start" x="18.12" y="-88.25" font-family="Helvetica,sans-Serif" font-size="10.00">vector&lt; TYPE, ublas</text>
<text text-anchor="start" x="18.12" y="-77" font-family="Helvetica,sans-Serif" font-size="10.00">::bounded_array&lt; TYPE,</text>
<text text-anchor="middle" x="72.12" y="-65.75" font-family="Helvetica,sans-Serif" font-size="10.00"> 3 &gt; &gt;</text>
</a>
</g>
</g>
<!-- Node6&#45;&gt;Node1 -->
<g id="edge5" class="edge">
<title>Node6&#45;&gt;Node1</title>
<path fill="none" stroke="#9a32cd" stroke-dasharray="5,2" d="M145.86,-78.76C180,-80.16 220.56,-85.33 254.5,-99.62 285.09,-112.51 313.22,-139.76 329.08,-157.14"/>
<polygon fill="#9a32cd" stroke="#9a32cd" points="146.15,-75.27 136.06,-78.47 145.95,-82.27 146.15,-75.27"/>
<text text-anchor="middle" x="208.38" y="-100.62" font-family="Helvetica,sans-Serif" font-size="10.00"> gradientMu</text>
</g>
<!-- Node7 -->
<g id="node7" class="node">
<title>Node7</title>
<g id="a_node7"><a xlink:title=" ">
<polygon fill="white" stroke="#666666" points="134.12,-41.75 10.12,-41.75 10.12,0 134.12,0 134.12,-41.75"/>
<text text-anchor="start" x="18.12" y="-28.25" font-family="Helvetica,sans-Serif" font-size="10.00">vector&lt; TYPE, ublas</text>
<text text-anchor="start" x="18.12" y="-17" font-family="Helvetica,sans-Serif" font-size="10.00">::bounded_array&lt; TYPE,</text>
<text text-anchor="middle" x="72.12" y="-5.75" font-family="Helvetica,sans-Serif" font-size="10.00"> 9 &gt; &gt;</text>
</a>
</g>
</g>
<!-- Node7&#45;&gt;Node1 -->
<g id="edge6" class="edge">
<title>Node7&#45;&gt;Node1</title>
<path fill="none" stroke="#9a32cd" stroke-dasharray="5,2" d="M145.68,-26.92C180.68,-32.49 222.02,-43.17 254.5,-63.62 292.42,-87.51 321.29,-133.5 334.53,-157.48"/>
<polygon fill="#9a32cd" stroke="#9a32cd" points="146.45,-23.5 136.05,-25.51 145.43,-30.42 146.45,-23.5"/>
<text text-anchor="middle" x="208.38" y="-64.62" font-family="Helvetica,sans-Serif" font-size="10.00"> solventFlux</text>
</g>
</g>
</svg>
