<?xml version="1.0" encoding="UTF-8" standalone="no"?>
<!DOCTYPE svg PUBLIC "-//W3C//DTD SVG 1.1//EN"
 "http://www.w3.org/Graphics/SVG/1.1/DTD/svg11.dtd">
<!-- Generated by graphviz version 9.0.0 (20230911.1827)
 -->
<!-- Title: MoFEM::Mat_Elastic_TransIso Pages: 1 -->
<svg width="244pt" height="172pt"
 viewBox="0.00 0.00 244.38 171.50" xmlns="http://www.w3.org/2000/svg" xmlns:xlink="http://www.w3.org/1999/xlink">
<g id="graph0" class="graph" transform="scale(1 1) rotate(0) translate(4 167.5)">
<title>MoFEM::Mat_Elastic_TransIso</title>
<!-- Node1 -->
<g id="node1" class="node">
<title>Node1</title>
<g id="a_node1"><a xlink:title="Transverse Isotropic material data structure.">
<polygon fill="#999999" stroke="#666666" points="209.88,-30.5 101.62,-30.5 101.62,0 209.88,0 209.88,-30.5"/>
<text text-anchor="start" x="109.62" y="-17" font-family="Helvetica,sans-Serif" font-size="10.00">MoFEM::Mat_Elastic</text>
<text text-anchor="middle" x="155.75" y="-5.75" font-family="Helvetica,sans-Serif" font-size="10.00">_TransIso</text>
</a>
</g>
</g>
<!-- Node2 -->
<g id="node2" class="node">
<title>Node2</title>
<g id="a_node2"><a xlink:href="struct_mo_f_e_m_1_1_generic_attribute_data.html" target="_top" xlink:title="Generic attribute data structure.">
<polygon fill="white" stroke="#666666" points="172.75,-97 24.75,-97 24.75,-77.75 172.75,-77.75 172.75,-97"/>
<text text-anchor="middle" x="98.75" y="-83.5" font-family="Helvetica,sans-Serif" font-size="10.00">MoFEM::GenericAttributeData</text>
</a>
</g>
</g>
<!-- Node2&#45;&gt;Node1 -->
<g id="edge1" class="edge">
<title>Node2&#45;&gt;Node1</title>
<path fill="none" stroke="#63b8ff" d="M113.14,-68.67C122.63,-57 134.89,-41.91 143.83,-30.92"/>
<polygon fill="#63b8ff" stroke="#63b8ff" points="110.52,-66.35 106.92,-76.32 115.95,-70.77 110.52,-66.35"/>
</g>
<!-- Node3 -->
<g id="node3" class="node">
<title>Node3</title>
<g id="a_node3"><a xlink:title=" ">
<polygon fill="white" stroke="#666666" points="101.5,-163.5 0,-163.5 0,-144.25 101.5,-144.25 101.5,-163.5"/>
<text text-anchor="middle" x="50.75" y="-150" font-family="Helvetica,sans-Serif" font-size="10.00">const CubitBCType</text>
</a>
</g>
</g>
<!-- Node3&#45;&gt;Node2 -->
<g id="edge2" class="edge">
<title>Node3&#45;&gt;Node2</title>
<path fill="none" stroke="#9a32cd" stroke-dasharray="5,2" d="M64.06,-134.99C73.19,-122.72 84.92,-106.96 92.13,-97.27"/>
<polygon fill="#9a32cd" stroke="#9a32cd" points="61.49,-132.58 58.33,-142.69 67.11,-136.76 61.49,-132.58"/>
<text text-anchor="middle" x="89" y="-116.75" font-family="Helvetica,sans-Serif" font-size="10.00"> tYpe</text>
</g>
<!-- Node4 -->
<g id="node4" class="node">
<title>Node4</title>
<g id="a_node4"><a xlink:title=" ">
<polygon fill="white" stroke="#666666" points="174.25,-163.5 119.25,-163.5 119.25,-144.25 174.25,-144.25 174.25,-163.5"/>
<text text-anchor="middle" x="146.75" y="-150" font-family="Helvetica,sans-Serif" font-size="10.00">unsigned</text>
</a>
</g>
</g>
<!-- Node4&#45;&gt;Node2 -->
<g id="edge3" class="edge">
<title>Node4&#45;&gt;Node2</title>
<path fill="none" stroke="#9a32cd" stroke-dasharray="5,2" d="M133.44,-134.99C124.31,-122.72 112.58,-106.96 105.37,-97.27"/>
<polygon fill="#9a32cd" stroke="#9a32cd" points="130.39,-136.76 139.17,-142.69 136.01,-132.58 130.39,-136.76"/>
<text text-anchor="middle" x="177.12" y="-116.75" font-family="Helvetica,sans-Serif" font-size="10.00"> minNumberOfAtributes</text>
</g>
<!-- Node5 -->
<g id="node5" class="node">
<title>Node5</title>
<g id="a_node5"><a xlink:title=" ">
<polygon fill="white" stroke="#666666" points="236.38,-97 191.12,-97 191.12,-77.75 236.38,-77.75 236.38,-97"/>
<text text-anchor="middle" x="213.75" y="-83.5" font-family="Helvetica,sans-Serif" font-size="10.00">_data_</text>
</a>
</g>
</g>
<!-- Node5&#45;&gt;Node1 -->
<g id="edge4" class="edge">
<title>Node5&#45;&gt;Node1</title>
<path fill="none" stroke="#9a32cd" stroke-dasharray="5,2" d="M199.1,-68.67C189.45,-57 176.97,-41.91 167.88,-30.92"/>
<polygon fill="#9a32cd" stroke="#9a32cd" points="196.37,-70.85 205.44,-76.33 201.76,-66.39 196.37,-70.85"/>
<text text-anchor="middle" x="201.62" y="-50.25" font-family="Helvetica,sans-Serif" font-size="10.00"> data</text>
</g>
</g>
</svg>
