<?xml version="1.0" encoding="UTF-8" standalone="no"?>
<!DOCTYPE svg PUBLIC "-//W3C//DTD SVG 1.1//EN"
 "http://www.w3.org/Graphics/SVG/1.1/DTD/svg11.dtd">
<!-- Generated by graphviz version 9.0.0 (20230911.1827)
 -->
<!-- Title: MoFEM::OpCalculateHcurlVectorCurl&lt; 3, 3 &gt; Pages: 1 -->
<svg width="170pt" height="160pt"
 viewBox="0.00 0.00 170.25 160.25" xmlns="http://www.w3.org/2000/svg" xmlns:xlink="http://www.w3.org/1999/xlink">
<g id="graph0" class="graph" transform="scale(1 1) rotate(0) translate(4 156.25)">
<title>MoFEM::OpCalculateHcurlVectorCurl&lt; 3, 3 &gt;</title>
<!-- Node1 -->
<g id="node1" class="node">
<title>Node1</title>
<g id="a_node1"><a xlink:title="Calculate curl of vector field.">
<polygon fill="#999999" stroke="#666666" points="162.25,-30.5 0,-30.5 0,0 162.25,0 162.25,-30.5"/>
<text text-anchor="start" x="8" y="-17" font-family="Helvetica,sans-Serif" font-size="10.00">MoFEM::OpCalculateHcurlVector</text>
<text text-anchor="middle" x="81.12" y="-5.75" font-family="Helvetica,sans-Serif" font-size="10.00">Curl&lt; 3, 3 &gt;</text>
</a>
</g>
</g>
<!-- Node2 -->
<g id="node2" class="node">
<title>Node2</title>
<g id="a_node2"><a xlink:href="struct_mo_f_e_m_1_1_forces_and_sources_core_1_1_user_data_operator.html" target="_top" xlink:title=" ">
<polygon fill="white" stroke="#666666" points="161.5,-97 0.75,-97 0.75,-66.5 161.5,-66.5 161.5,-97"/>
<text text-anchor="start" x="8.75" y="-83.5" font-family="Helvetica,sans-Serif" font-size="10.00">MoFEM::ForcesAndSourcesCore</text>
<text text-anchor="middle" x="81.12" y="-72.25" font-family="Helvetica,sans-Serif" font-size="10.00">::UserDataOperator</text>
</a>
</g>
</g>
<!-- Node2&#45;&gt;Node1 -->
<g id="edge1" class="edge">
<title>Node2&#45;&gt;Node1</title>
<path fill="none" stroke="#63b8ff" d="M81.12,-54.81C81.12,-46.64 81.12,-37.91 81.12,-30.83"/>
<polygon fill="#63b8ff" stroke="#63b8ff" points="77.63,-54.6 81.13,-64.6 84.63,-54.6 77.63,-54.6"/>
</g>
<!-- Node3 -->
<g id="node3" class="node">
<title>Node3</title>
<g id="a_node3"><a xlink:href="struct_mo_f_e_m_1_1_data_operator.html" target="_top" xlink:title="base operator to do operations at Gauss Pt. level">
<polygon fill="white" stroke="#666666" points="138.62,-152.25 23.62,-152.25 23.62,-133 138.62,-133 138.62,-152.25"/>
<text text-anchor="middle" x="81.12" y="-138.75" font-family="Helvetica,sans-Serif" font-size="10.00">MoFEM::DataOperator</text>
</a>
</g>
</g>
<!-- Node3&#45;&gt;Node2 -->
<g id="edge2" class="edge">
<title>Node3&#45;&gt;Node2</title>
<path fill="none" stroke="#63b8ff" d="M81.12,-121.42C81.12,-113.49 81.12,-104.56 81.12,-97.28"/>
<polygon fill="#63b8ff" stroke="#63b8ff" points="77.63,-121.17 81.13,-131.17 84.63,-121.17 77.63,-121.17"/>
</g>
</g>
</svg>
