<?xml version="1.0" encoding="UTF-8" standalone="no"?>
<!DOCTYPE svg PUBLIC "-//W3C//DTD SVG 1.1//EN"
 "http://www.w3.org/Graphics/SVG/1.1/DTD/svg11.dtd">
<!-- Generated by graphviz version 9.0.0 (20230911.1827)
 -->
<!-- Title: NonlinearElasticElement::OpLhsPiolaKirchhoff_dX Pages: 1 -->
<svg width="184pt" height="360pt"
 viewBox="0.00 0.00 183.75 359.75" xmlns="http://www.w3.org/2000/svg" xmlns:xlink="http://www.w3.org/1999/xlink">
<g id="graph0" class="graph" transform="scale(1 1) rotate(0) translate(4 355.75)">
<title>NonlinearElasticElement::OpLhsPiolaKirchhoff_dX</title>
<!-- Node1 -->
<g id="node1" class="node">
<title>Node1</title>
<g id="a_node1"><a xlink:title=" ">
<polygon fill="#999999" stroke="#666666" points="152.12,-97 23.62,-97 23.62,-66.5 152.12,-66.5 152.12,-97"/>
<text text-anchor="start" x="31.62" y="-83.5" font-family="Helvetica,sans-Serif" font-size="10.00">NonlinearElasticElement</text>
<text text-anchor="middle" x="87.88" y="-72.25" font-family="Helvetica,sans-Serif" font-size="10.00">::OpLhsPiolaKirchhoff_dX</text>
</a>
</g>
</g>
<!-- Node6 -->
<g id="node6" class="node">
<title>Node6</title>
<g id="a_node6"><a xlink:href="struct_nonlinear_elastic_element_1_1_op_lhs_eshelby__dx.html" target="_top" xlink:title=" ">
<polygon fill="white" stroke="#666666" points="149.5,-30.5 26.25,-30.5 26.25,0 149.5,0 149.5,-30.5"/>
<text text-anchor="start" x="34.25" y="-17" font-family="Helvetica,sans-Serif" font-size="10.00">NonlinearElasticElement</text>
<text text-anchor="middle" x="87.88" y="-5.75" font-family="Helvetica,sans-Serif" font-size="10.00">::OpLhsEshelby_dx</text>
</a>
</g>
</g>
<!-- Node1&#45;&gt;Node6 -->
<g id="edge5" class="edge">
<title>Node1&#45;&gt;Node6</title>
<path fill="none" stroke="#63b8ff" d="M87.88,-54.81C87.88,-46.64 87.88,-37.91 87.88,-30.83"/>
<polygon fill="#63b8ff" stroke="#63b8ff" points="84.38,-54.6 87.88,-64.6 91.38,-54.6 84.38,-54.6"/>
</g>
<!-- Node2 -->
<g id="node2" class="node">
<title>Node2</title>
<g id="a_node2"><a xlink:href="struct_nonlinear_elastic_element_1_1_op_lhs_piola_kirchhoff__dx.html" target="_top" xlink:title=" ">
<polygon fill="white" stroke="#666666" points="151.38,-163.5 24.37,-163.5 24.37,-133 151.38,-133 151.38,-163.5"/>
<text text-anchor="start" x="32.38" y="-150" font-family="Helvetica,sans-Serif" font-size="10.00">NonlinearElasticElement</text>
<text text-anchor="middle" x="87.88" y="-138.75" font-family="Helvetica,sans-Serif" font-size="10.00">::OpLhsPiolaKirchhoff_dx</text>
</a>
</g>
</g>
<!-- Node2&#45;&gt;Node1 -->
<g id="edge1" class="edge">
<title>Node2&#45;&gt;Node1</title>
<path fill="none" stroke="#63b8ff" d="M87.88,-121.31C87.88,-113.14 87.88,-104.41 87.88,-97.33"/>
<polygon fill="#63b8ff" stroke="#63b8ff" points="84.38,-121.1 87.88,-131.1 91.38,-121.1 84.38,-121.1"/>
</g>
<!-- Node3 -->
<g id="node3" class="node">
<title>Node3</title>
<g id="a_node3"><a xlink:href="struct_mo_f_e_m_1_1_volume_element_forces_and_sources_core_1_1_user_data_operator.html" target="_top" xlink:title=" ">
<polygon fill="white" stroke="#666666" points="175.75,-230 0,-230 0,-199.5 175.75,-199.5 175.75,-230"/>
<text text-anchor="start" x="8" y="-216.5" font-family="Helvetica,sans-Serif" font-size="10.00">MoFEM::VolumeElementForces</text>
<text text-anchor="middle" x="87.88" y="-205.25" font-family="Helvetica,sans-Serif" font-size="10.00">AndSourcesCore::UserDataOperator</text>
</a>
</g>
</g>
<!-- Node3&#45;&gt;Node2 -->
<g id="edge2" class="edge">
<title>Node3&#45;&gt;Node2</title>
<path fill="none" stroke="#63b8ff" d="M87.88,-187.81C87.88,-179.64 87.88,-170.91 87.88,-163.83"/>
<polygon fill="#63b8ff" stroke="#63b8ff" points="84.38,-187.6 87.88,-197.6 91.38,-187.6 84.38,-187.6"/>
</g>
<!-- Node4 -->
<g id="node4" class="node">
<title>Node4</title>
<g id="a_node4"><a xlink:href="struct_mo_f_e_m_1_1_forces_and_sources_core_1_1_user_data_operator.html" target="_top" xlink:title=" ">
<polygon fill="white" stroke="#666666" points="168.25,-296.5 7.5,-296.5 7.5,-266 168.25,-266 168.25,-296.5"/>
<text text-anchor="start" x="15.5" y="-283" font-family="Helvetica,sans-Serif" font-size="10.00">MoFEM::ForcesAndSourcesCore</text>
<text text-anchor="middle" x="87.88" y="-271.75" font-family="Helvetica,sans-Serif" font-size="10.00">::UserDataOperator</text>
</a>
</g>
</g>
<!-- Node4&#45;&gt;Node3 -->
<g id="edge3" class="edge">
<title>Node4&#45;&gt;Node3</title>
<path fill="none" stroke="#63b8ff" d="M87.88,-254.31C87.88,-246.14 87.88,-237.41 87.88,-230.33"/>
<polygon fill="#63b8ff" stroke="#63b8ff" points="84.38,-254.1 87.88,-264.1 91.38,-254.1 84.38,-254.1"/>
</g>
<!-- Node5 -->
<g id="node5" class="node">
<title>Node5</title>
<g id="a_node5"><a xlink:href="struct_mo_f_e_m_1_1_data_operator.html" target="_top" xlink:title="base operator to do operations at Gauss Pt. level">
<polygon fill="white" stroke="#666666" points="145.38,-351.75 30.38,-351.75 30.38,-332.5 145.38,-332.5 145.38,-351.75"/>
<text text-anchor="middle" x="87.88" y="-338.25" font-family="Helvetica,sans-Serif" font-size="10.00">MoFEM::DataOperator</text>
</a>
</g>
</g>
<!-- Node5&#45;&gt;Node4 -->
<g id="edge4" class="edge">
<title>Node5&#45;&gt;Node4</title>
<path fill="none" stroke="#63b8ff" d="M87.88,-320.92C87.88,-312.99 87.88,-304.06 87.88,-296.78"/>
<polygon fill="#63b8ff" stroke="#63b8ff" points="84.38,-320.67 87.88,-330.67 91.38,-320.67 84.38,-320.67"/>
</g>
</g>
</svg>
