<?xml version="1.0" encoding="UTF-8" standalone="no"?>
<!DOCTYPE svg PUBLIC "-//W3C//DTD SVG 1.1//EN"
 "http://www.w3.org/Graphics/SVG/1.1/DTD/svg11.dtd">
<!-- Generated by graphviz version 12.1.0 (0)
 -->
<!-- Title: MoFEM Pages: 1 -->
<svg width="244pt" height="1320pt"
 viewBox="0.00 0.00 244.42 1320.00" xmlns="http://www.w3.org/2000/svg" xmlns:xlink="http://www.w3.org/1999/xlink">
<g id="graph0" class="graph" transform="scale(1 1) rotate(0) translate(4 1316)">
<title>MoFEM</title>
<!-- Node4 -->
<g id="Node000004" class="node">
<title>Node4</title>
<g id="a_Node000004"><a xlink:href="group__bc__manager.html" target="_top" xlink:title="Implementation manages boundary conditions.">
<polygon fill="white" stroke="#666666" points="236.42,-1312 87,-1312 87,-1294 236.42,-1294 236.42,-1312"/>
<text text-anchor="middle" x="161.71" y="-1300" font-family="Helvetica,sans-Serif" font-size="10.00">Manages boundary conditions</text>
</a>
</g>
</g>
<!-- Node36 -->
<g id="Node000036" class="node">
<title>Node36</title>
<g id="a_Node000036"><a xlink:href="group__dm.html" target="_top" xlink:title="Implementation of PETSc DM, managing interactions between mesh data structures and vectors and matric...">
<polygon fill="white" stroke="#666666" points="228.35,-1276 95.07,-1276 95.07,-1258 228.35,-1258 228.35,-1276"/>
<text text-anchor="middle" x="161.71" y="-1264" font-family="Helvetica,sans-Serif" font-size="10.00">Distributed mesh manager</text>
</a>
</g>
</g>
<!-- Node30 -->
<g id="Node000030" class="node">
<title>Node30</title>
<g id="a_Node000030"><a xlink:href="group__dof__multi__indices.html" target="_top" xlink:title=" ">
<polygon fill="white" stroke="#666666" points="213.06,-1240 110.36,-1240 110.36,-1212 213.06,-1212 213.06,-1240"/>
<text text-anchor="start" x="118.36" y="-1228" font-family="Helvetica,sans-Serif" font-size="10.00">Dofs structures and</text>
<text text-anchor="middle" x="161.71" y="-1218" font-family="Helvetica,sans-Serif" font-size="10.00"> multi&#45;indices</text>
</a>
</g>
</g>
<!-- Node32 -->
<g id="Node000032" class="node">
<title>Node32</title>
<g id="a_Node000032"><a xlink:href="group__ent__multi__indices.html" target="_top" xlink:title=" ">
<polygon fill="white" stroke="#666666" points="209.45,-1194 113.98,-1194 113.98,-1166 209.45,-1166 209.45,-1194"/>
<text text-anchor="start" x="121.98" y="-1182" font-family="Helvetica,sans-Serif" font-size="10.00">Entities structures</text>
<text text-anchor="middle" x="161.71" y="-1172" font-family="Helvetica,sans-Serif" font-size="10.00"> and multi&#45;indices</text>
</a>
</g>
</g>
<!-- Node31 -->
<g id="Node000031" class="node">
<title>Node31</title>
<g id="a_Node000031"><a xlink:href="group__fe__multi__indices.html" target="_top" xlink:title=" ">
<polygon fill="white" stroke="#666666" points="226.96,-1148 96.47,-1148 96.47,-1120 226.96,-1120 226.96,-1148"/>
<text text-anchor="start" x="104.47" y="-1136" font-family="Helvetica,sans-Serif" font-size="10.00">Finite elements structures</text>
<text text-anchor="middle" x="161.71" y="-1126" font-family="Helvetica,sans-Serif" font-size="10.00"> and multi&#45;indices</text>
</a>
</g>
</g>
<!-- Node8 -->
<g id="Node000008" class="node">
<title>Node8</title>
<g id="a_Node000008"><a xlink:href="group__field__evaluator.html" target="_top" xlink:title="Evaluate field at the point.">
<polygon fill="white" stroke="#666666" points="203.06,-1102 120.36,-1102 120.36,-1084 203.06,-1084 203.06,-1102"/>
<text text-anchor="middle" x="161.71" y="-1090" font-family="Helvetica,sans-Serif" font-size="10.00">Field Evaluator</text>
</a>
</g>
</g>
<!-- Node7 -->
<g id="Node000007" class="node">
<title>Node7</title>
<g id="a_Node000007"><a xlink:href="group__mesh__cut.html" target="_top" xlink:title="Interface to mesh cut mesh.">
<polygon fill="white" stroke="#666666" points="209.17,-1066 114.25,-1066 114.25,-1048 209.17,-1048 209.17,-1066"/>
<text text-anchor="middle" x="161.71" y="-1054" font-family="Helvetica,sans-Serif" font-size="10.00">CutMeshInterface</text>
</a>
</g>
</g>
<!-- Node26 -->
<g id="Node000026" class="node">
<title>Node26</title>
<g id="a_Node000026"><a xlink:href="group__mesh__tetgen.html" target="_top" xlink:title="Interface to run TetGen.">
<polygon fill="white" stroke="#666666" points="206.4,-1030 117.02,-1030 117.02,-1012 206.4,-1012 206.4,-1030"/>
<text text-anchor="middle" x="161.71" y="-1018" font-family="Helvetica,sans-Serif" font-size="10.00">TetGen interface</text>
</a>
</g>
</g>
<!-- Node1 -->
<g id="Node000001" class="node">
<title>Node1</title>
<g id="a_Node000001"><a xlink:title=" ">
<polygon fill="#999999" stroke="#666666" points="51,-670 0,-670 0,-652 51,-652 51,-670"/>
<text text-anchor="middle" x="25.5" y="-658" font-family="Helvetica,sans-Serif" font-size="10.00">MoFEM</text>
</a>
</g>
</g>
<!-- Node1&#45;&gt;Node4 -->
<g id="edge3" class="edge">
<title>Node1&#45;&gt;Node4</title>
<path fill="none" stroke="black" d="M27.1,-681.68C30.3,-784.59 46.59,-1238.36 87,-1285 89.93,-1288.38 93.39,-1291.19 97.17,-1293.5"/>
<polygon fill="black" stroke="black" points="30.61,-681.87 26.81,-671.98 23.61,-682.08 30.61,-681.87"/>
</g>
<!-- Node1&#45;&gt;Node36 -->
<g id="edge35" class="edge">
<title>Node1&#45;&gt;Node36</title>
<path fill="none" stroke="black" d="M27.24,-681.72C30.94,-781.02 48.93,-1205.32 87,-1249 90.03,-1252.48 93.61,-1255.34 97.53,-1257.69"/>
<polygon fill="black" stroke="black" points="30.74,-681.75 26.88,-671.88 23.74,-682 30.74,-681.75"/>
</g>
<!-- Node1&#45;&gt;Node30 -->
<g id="edge29" class="edge">
<title>Node1&#45;&gt;Node30</title>
<path fill="none" stroke="black" d="M27.49,-681.81C32.16,-776.28 53.19,-1162.02 87,-1203 92.97,-1210.24 101.19,-1215.24 109.98,-1218.68"/>
<polygon fill="black" stroke="black" points="30.99,-681.81 27.01,-671.99 24,-682.15 30.99,-681.81"/>
</g>
<!-- Node1&#45;&gt;Node32 -->
<g id="edge31" class="edge">
<title>Node1&#45;&gt;Node32</title>
<path fill="none" stroke="black" d="M26.15,-681.7C25.13,-766.09 25.51,-1083.24 87,-1157 93.87,-1165.24 103.64,-1170.57 113.83,-1174.02"/>
<polygon fill="black" stroke="black" points="29.64,-681.97 26.29,-671.93 22.64,-681.87 29.64,-681.97"/>
</g>
<!-- Node1&#45;&gt;Node31 -->
<g id="edge30" class="edge">
<title>Node1&#45;&gt;Node31</title>
<path fill="none" stroke="black" d="M26.44,-681.52C26.6,-760.63 31.13,-1044.81 87,-1111 89.77,-1114.28 92.99,-1117.1 96.52,-1119.52"/>
<polygon fill="black" stroke="black" points="29.94,-681.8 26.44,-671.79 22.94,-681.79 29.94,-681.8"/>
</g>
<!-- Node1&#45;&gt;Node8 -->
<g id="edge7" class="edge">
<title>Node1&#45;&gt;Node8</title>
<path fill="none" stroke="black" d="M26.58,-681.41C27.29,-756.52 33.63,-1016.34 87,-1075 95.42,-1084.26 107.74,-1089.12 119.91,-1091.58"/>
<polygon fill="black" stroke="black" points="30.08,-681.79 26.51,-671.81 23.08,-681.83 30.08,-681.79"/>
</g>
<!-- Node1&#45;&gt;Node7 -->
<g id="edge6" class="edge">
<title>Node1&#45;&gt;Node7</title>
<path fill="none" stroke="black" d="M26.89,-681.42C28.68,-752.28 38.22,-986.11 87,-1039 94.06,-1046.65 103.78,-1051.29 113.84,-1054.06"/>
<polygon fill="black" stroke="black" points="30.4,-681.6 26.68,-671.68 23.4,-681.76 30.4,-681.6"/>
</g>
<!-- Node1&#45;&gt;Node26 -->
<g id="edge25" class="edge">
<title>Node1&#45;&gt;Node26</title>
<path fill="none" stroke="black" d="M27.28,-681.59C30.22,-748.15 42.83,-955.89 87,-1003 94.75,-1011.26 105.61,-1016.01 116.62,-1018.66"/>
<polygon fill="black" stroke="black" points="30.78,-681.61 26.88,-671.76 23.79,-681.9 30.78,-681.61"/>
</g>
<!-- Node14 -->
<g id="Node000014" class="node">
<title>Node14</title>
<g id="a_Node000014"><a xlink:href="group__mofem__access.html" target="_top" xlink:title="Get direct access to multi&#45;indices in database.">
<polygon fill="white" stroke="#666666" points="222.79,-994 100.64,-994 100.64,-976 222.79,-976 222.79,-994"/>
<text text-anchor="middle" x="161.71" y="-982" font-family="Helvetica,sans-Serif" font-size="10.00">Pointers to multi&#45;indices</text>
</a>
</g>
</g>
<!-- Node1&#45;&gt;Node14 -->
<g id="edge13" class="edge">
<title>Node1&#45;&gt;Node14</title>
<path fill="none" stroke="black" d="M27.76,-681.81C31.95,-743.82 47.42,-925.63 87,-967 90.82,-971 95.38,-974.17 100.32,-976.68"/>
<polygon fill="black" stroke="black" points="31.27,-681.75 27.13,-672 24.28,-682.2 31.27,-681.75"/>
</g>
<!-- Node2 -->
<g id="Node000002" class="node">
<title>Node2</title>
<g id="a_Node000002"><a xlink:href="group__mofem__base__functions.html" target="_top" xlink:title="Calculation of base functions at integration points.">
<polygon fill="white" stroke="#666666" points="202.51,-958 120.91,-958 120.91,-940 202.51,-940 202.51,-958"/>
<text text-anchor="middle" x="161.71" y="-946" font-family="Helvetica,sans-Serif" font-size="10.00">Base functions</text>
</a>
</g>
</g>
<!-- Node1&#45;&gt;Node2 -->
<g id="edge1" class="edge">
<title>Node1&#45;&gt;Node2</title>
<path fill="none" stroke="black" d="M28.33,-681.55C33.81,-738.27 51.89,-895.21 87,-931 95.86,-940.03 108.44,-944.82 120.7,-947.27"/>
<polygon fill="black" stroke="black" points="31.83,-681.36 27.42,-671.73 24.86,-682.01 31.83,-681.36"/>
</g>
<!-- Node21 -->
<g id="Node000021" class="node">
<title>Node21</title>
<g id="a_Node000021"><a xlink:href="group__mofem__basic__interface.html" target="_top" xlink:title="Implementation of basic interface for rapid problem implementation.">
<polygon fill="white" stroke="#666666" points="227.8,-922 95.62,-922 95.62,-904 227.8,-904 227.8,-922"/>
<text text-anchor="middle" x="161.71" y="-910" font-family="Helvetica,sans-Serif" font-size="10.00">PipelineManager interface</text>
</a>
</g>
</g>
<!-- Node1&#45;&gt;Node21 -->
<g id="edge20" class="edge">
<title>Node1&#45;&gt;Node21</title>
<path fill="none" stroke="black" d="M29.09,-681.48C35.98,-732.76 56.37,-864.78 87,-895 90.47,-898.42 94.48,-901.23 98.79,-903.53"/>
<polygon fill="black" stroke="black" points="32.59,-681.25 27.83,-671.79 25.65,-682.16 32.59,-681.25"/>
</g>
<!-- Node29 -->
<g id="Node000029" class="node">
<title>Node29</title>
<g id="a_Node000029"><a xlink:href="group__mofem__bc.html" target="_top" xlink:title=" ">
<polygon fill="white" stroke="#666666" points="215.02,-886 108.4,-886 108.4,-868 215.02,-868 215.02,-886"/>
<text text-anchor="middle" x="161.71" y="-874" font-family="Helvetica,sans-Serif" font-size="10.00">Boundary conditions</text>
</a>
</g>
</g>
<!-- Node1&#45;&gt;Node29 -->
<g id="edge28" class="edge">
<title>Node1&#45;&gt;Node29</title>
<path fill="none" stroke="black" d="M26.5,-681.49C27.66,-721.66 36.18,-811 87,-859 92.94,-864.61 100.32,-868.56 108.11,-871.32"/>
<polygon fill="black" stroke="black" points="30,-681.55 26.36,-671.6 23,-681.65 30,-681.55"/>
</g>
<!-- Node5 -->
<g id="Node000005" class="node">
<title>Node5</title>
<g id="a_Node000005"><a xlink:href="group__mofem__bit__ref.html" target="_top" xlink:title="Managing BitRefLevels.">
<polygon fill="white" stroke="#666666" points="203.06,-850 120.36,-850 120.36,-832 203.06,-832 203.06,-850"/>
<text text-anchor="middle" x="161.71" y="-838" font-family="Helvetica,sans-Serif" font-size="10.00">BitRefManager</text>
</a>
</g>
</g>
<!-- Node1&#45;&gt;Node5 -->
<g id="edge4" class="edge">
<title>Node1&#45;&gt;Node5</title>
<path fill="none" stroke="black" d="M28.16,-681.78C32.08,-716.39 45.01,-785.69 87,-823 96.06,-831.05 108.13,-835.64 119.87,-838.21"/>
<polygon fill="black" stroke="black" points="31.65,-681.48 27.21,-671.86 24.68,-682.15 31.65,-681.48"/>
</g>
<!-- Node6 -->
<g id="Node000006" class="node">
<title>Node6</title>
<g id="a_Node000006"><a xlink:href="group__mofem__comm.html" target="_top" xlink:title="Comm interface.">
<polygon fill="white" stroke="#666666" points="202.22,-814 121.2,-814 121.2,-796 202.22,-796 202.22,-814"/>
<text text-anchor="middle" x="161.71" y="-802" font-family="Helvetica,sans-Serif" font-size="10.00">Comm intrface</text>
</a>
</g>
</g>
<!-- Node1&#45;&gt;Node6 -->
<g id="edge5" class="edge">
<title>Node1&#45;&gt;Node6</title>
<path fill="none" stroke="black" d="M30.61,-681.49C37.35,-709.63 53.49,-759.83 87,-787 96.62,-794.8 109.11,-799.3 121.07,-801.87"/>
<polygon fill="black" stroke="black" points="34.03,-680.77 28.47,-671.76 27.2,-682.28 34.03,-680.77"/>
</g>
<!-- Node11 -->
<g id="Node000011" class="node">
<title>Node11</title>
<g id="a_Node000011"><a xlink:href="group__mofem__fe.html" target="_top" xlink:title="Adding and managing finite elements.">
<polygon fill="white" stroke="#666666" points="203.62,-778 119.81,-778 119.81,-760 203.62,-760 203.62,-778"/>
<text text-anchor="middle" x="161.71" y="-766" font-family="Helvetica,sans-Serif" font-size="10.00">Finite elements</text>
</a>
</g>
</g>
<!-- Node1&#45;&gt;Node11 -->
<g id="edge10" class="edge">
<title>Node1&#45;&gt;Node11</title>
<path fill="none" stroke="black" d="M34.55,-680.76C44.02,-701.45 61.71,-733.36 87,-751 96.51,-757.63 108.19,-761.83 119.42,-764.49"/>
<polygon fill="black" stroke="black" points="37.82,-679.5 30.64,-671.71 31.4,-682.27 37.82,-679.5"/>
</g>
<!-- Node9 -->
<g id="Node000009" class="node">
<title>Node9</title>
<g id="a_Node000009"><a xlink:href="group__mofem__field.html" target="_top" xlink:title="Data structure for adding and managing fields.">
<polygon fill="white" stroke="#666666" points="183.05,-742 140.37,-742 140.37,-724 183.05,-724 183.05,-742"/>
<text text-anchor="middle" x="161.71" y="-730" font-family="Helvetica,sans-Serif" font-size="10.00">Fields</text>
</a>
</g>
</g>
<!-- Node1&#45;&gt;Node9 -->
<g id="edge8" class="edge">
<title>Node1&#45;&gt;Node9</title>
<path fill="none" stroke="black" d="M41.7,-678.5C53.04,-690.48 69.52,-705.81 87,-715 103.67,-723.77 124.72,-728.36 140.05,-730.7"/>
<polygon fill="black" stroke="black" points="44.44,-676.31 35.12,-671.27 39.26,-681.02 44.44,-676.31"/>
</g>
<!-- Node3 -->
<g id="Node000003" class="node">
<title>Node3</title>
<g id="a_Node000003"><a xlink:href="group__mofem__forces__and__sources.html" target="_top" xlink:title="Manages complexities related to assembly of vector and matrices at single finite element level.">
<polygon fill="white" stroke="#666666" points="213.62,-706 109.8,-706 109.8,-688 213.62,-688 213.62,-706"/>
<text text-anchor="middle" x="161.71" y="-694" font-family="Helvetica,sans-Serif" font-size="10.00">Forces and sources</text>
</a>
</g>
</g>
<!-- Node1&#45;&gt;Node3 -->
<g id="edge2" class="edge">
<title>Node1&#45;&gt;Node3</title>
<path fill="none" stroke="black" d="M62.42,-672.01C70.49,-674.39 79.02,-676.84 87,-679 97.81,-681.93 109.57,-684.89 120.45,-687.55"/>
<polygon fill="black" stroke="black" points="63.47,-668.67 52.89,-669.16 61.47,-675.38 63.47,-668.67"/>
</g>
<!-- Node15 -->
<g id="Node000015" class="node">
<title>Node15</title>
<g id="a_Node000015"><a xlink:href="group__mofem__is__managers.html" target="_top" xlink:title="Construct index sets for MoFEM problems.">
<polygon fill="white" stroke="#666666" points="201.95,-670 121.48,-670 121.48,-652 201.95,-652 201.95,-670"/>
<text text-anchor="middle" x="161.71" y="-658" font-family="Helvetica,sans-Serif" font-size="10.00">Index sets (IS)</text>
</a>
</g>
</g>
<!-- Node1&#45;&gt;Node15 -->
<g id="edge14" class="edge">
<title>Node1&#45;&gt;Node15</title>
<path fill="none" stroke="black" d="M62.93,-661C80.95,-661 102.73,-661 121.15,-661"/>
<polygon fill="black" stroke="black" points="62.94,-657.5 52.94,-661 62.94,-664.5 62.94,-657.5"/>
</g>
<!-- Node16 -->
<g id="Node000016" class="node">
<title>Node16</title>
<g id="a_Node000016"><a xlink:href="group__mofem__log__manager.html" target="_top" xlink:title="Log manager.">
<polygon fill="white" stroke="#666666" points="216.96,-634 106.46,-634 106.46,-616 216.96,-616 216.96,-634"/>
<text text-anchor="middle" x="161.71" y="-622" font-family="Helvetica,sans-Serif" font-size="10.00">Mofem_log_manager</text>
</a>
</g>
</g>
<!-- Node1&#45;&gt;Node16 -->
<g id="edge15" class="edge">
<title>Node1&#45;&gt;Node16</title>
<path fill="none" stroke="black" d="M62.42,-649.99C70.49,-647.61 79.02,-645.16 87,-643 97.81,-640.07 109.57,-637.11 120.45,-634.45"/>
<polygon fill="black" stroke="black" points="61.47,-646.62 52.89,-652.84 63.47,-653.33 61.47,-646.62"/>
</g>
<!-- Node13 -->
<g id="Node000013" class="node">
<title>Node13</title>
<g id="a_Node000013"><a xlink:href="group__mofem__loops.html" target="_top" xlink:title="Manages complexities for integrating over finite elements and dofs.">
<polygon fill="white" stroke="#666666" points="183.33,-598 140.09,-598 140.09,-580 183.33,-580 183.33,-598"/>
<text text-anchor="middle" x="161.71" y="-586" font-family="Helvetica,sans-Serif" font-size="10.00">Loops</text>
</a>
</g>
</g>
<!-- Node1&#45;&gt;Node13 -->
<g id="edge12" class="edge">
<title>Node1&#45;&gt;Node13</title>
<path fill="none" stroke="black" d="M41.7,-643.5C53.04,-631.52 69.52,-616.19 87,-607 103.56,-598.29 124.43,-593.71 139.73,-591.35"/>
<polygon fill="black" stroke="black" points="39.26,-640.98 35.12,-650.73 44.44,-645.69 39.26,-640.98"/>
</g>
<!-- Node17 -->
<g id="Node000017" class="node">
<title>Node17</title>
<g id="a_Node000017"><a xlink:href="group__mofem__mat__interface.html" target="_top" xlink:title="Creating and managing matrices.">
<polygon fill="white" stroke="#666666" points="204.45,-562 118.98,-562 118.98,-544 204.45,-544 204.45,-562"/>
<text text-anchor="middle" x="161.71" y="-550" font-family="Helvetica,sans-Serif" font-size="10.00">Matrix Manager</text>
</a>
</g>
</g>
<!-- Node1&#45;&gt;Node17 -->
<g id="edge16" class="edge">
<title>Node1&#45;&gt;Node17</title>
<path fill="none" stroke="black" d="M34.55,-641.24C44.02,-620.55 61.71,-588.64 87,-571 96.29,-564.52 107.66,-560.36 118.66,-557.69"/>
<polygon fill="black" stroke="black" points="31.4,-639.73 30.64,-650.29 37.82,-642.5 31.4,-639.73"/>
</g>
<!-- Node18 -->
<g id="Node000018" class="node">
<title>Node18</title>
<g id="a_Node000018"><a xlink:href="group__mofem__med__files.html" target="_top" xlink:title="Interface for reading and writing med files.">
<polygon fill="white" stroke="#666666" points="213.91,-526 109.52,-526 109.52,-498 213.91,-498 213.91,-526"/>
<text text-anchor="start" x="117.52" y="-514" font-family="Helvetica,sans-Serif" font-size="10.00">Reading and writing</text>
<text text-anchor="middle" x="161.71" y="-504" font-family="Helvetica,sans-Serif" font-size="10.00"> med files</text>
</a>
</g>
</g>
<!-- Node1&#45;&gt;Node18 -->
<g id="edge17" class="edge">
<title>Node1&#45;&gt;Node18</title>
<path fill="none" stroke="black" d="M30.96,-640.39C38.04,-612.52 54.52,-563.07 87,-535 93.39,-529.48 101.1,-525.28 109.09,-522.09"/>
<polygon fill="black" stroke="black" points="27.57,-639.51 28.69,-650.05 34.38,-641.12 27.57,-639.51"/>
</g>
<!-- Node19 -->
<g id="Node000019" class="node">
<title>Node19</title>
<g id="a_Node000019"><a xlink:href="group__mofem__meshset__mng.html" target="_top" xlink:title="Interface for meshsets with entities with data and boundary conditions.">
<polygon fill="white" stroke="#666666" points="210.84,-480 112.58,-480 112.58,-462 210.84,-462 210.84,-480"/>
<text text-anchor="middle" x="161.71" y="-468" font-family="Helvetica,sans-Serif" font-size="10.00">MeshsetsManager</text>
</a>
</g>
</g>
<!-- Node1&#45;&gt;Node19 -->
<g id="edge18" class="edge">
<title>Node1&#45;&gt;Node19</title>
<path fill="none" stroke="black" d="M27.62,-640.48C30.73,-604.33 42.5,-529.31 87,-489 94.03,-482.63 102.94,-478.42 112.11,-475.66"/>
<polygon fill="black" stroke="black" points="24.13,-640.17 26.92,-650.39 31.11,-640.66 24.13,-640.17"/>
</g>
<!-- Node20 -->
<g id="Node000020" class="node">
<title>Node20</title>
<g id="a_Node000020"><a xlink:href="group__mofem__node__merger.html" target="_top" xlink:title="Node merger interface.">
<polygon fill="white" stroke="#666666" points="197.5,-444 125.92,-444 125.92,-426 197.5,-426 197.5,-444"/>
<text text-anchor="middle" x="161.71" y="-432" font-family="Helvetica,sans-Serif" font-size="10.00">NodeMerger</text>
</a>
</g>
</g>
<!-- Node1&#45;&gt;Node20 -->
<g id="edge19" class="edge">
<title>Node1&#45;&gt;Node20</title>
<path fill="none" stroke="black" d="M26.14,-640.63C26.56,-599.05 33.69,-504.03 87,-453 97.28,-443.16 112,-438.42 125.59,-436.23"/>
<polygon fill="black" stroke="black" points="22.64,-640.42 26.17,-650.4 29.64,-640.39 22.64,-640.42"/>
</g>
<!-- Node35 -->
<g id="Node000035" class="node">
<title>Node35</title>
<g id="a_Node000035"><a xlink:href="group__mofem__petsc__solvers.html" target="_top" xlink:title="PETSc solvers.">
<polygon fill="white" stroke="#666666" points="202.5,-408 120.93,-408 120.93,-390 202.5,-390 202.5,-408"/>
<text text-anchor="middle" x="161.71" y="-396" font-family="Helvetica,sans-Serif" font-size="10.00">PETSc solvers</text>
</a>
</g>
</g>
<!-- Node1&#45;&gt;Node35 -->
<g id="edge34" class="edge">
<title>Node1&#45;&gt;Node35</title>
<path fill="none" stroke="black" d="M28.88,-640.35C35.38,-587.41 55.15,-448.73 87,-417 95.86,-408.17 108.3,-403.41 120.44,-400.92"/>
<polygon fill="black" stroke="black" points="25.42,-639.75 27.72,-650.09 32.38,-640.58 25.42,-639.75"/>
</g>
<!-- Node22 -->
<g id="Node000022" class="node">
<title>Node22</title>
<g id="a_Node000022"><a xlink:href="group__mofem__prism__interface.html" target="_top" xlink:title="Create prism interface between faces.">
<polygon fill="white" stroke="#666666" points="201.94,-372 121.48,-372 121.48,-354 201.94,-354 201.94,-372"/>
<text text-anchor="middle" x="161.71" y="-360" font-family="Helvetica,sans-Serif" font-size="10.00">PrismInterface</text>
</a>
</g>
</g>
<!-- Node1&#45;&gt;Node22 -->
<g id="edge21" class="edge">
<title>Node1&#45;&gt;Node22</title>
<path fill="none" stroke="black" d="M28.16,-640.46C33.26,-582.31 50.63,-418.35 87,-381 95.91,-371.84 108.66,-367.04 121.04,-364.61"/>
<polygon fill="black" stroke="black" points="24.68,-639.97 27.33,-650.23 31.66,-640.56 24.68,-639.97"/>
</g>
<!-- Node12 -->
<g id="Node000012" class="node">
<title>Node12</title>
<g id="a_Node000012"><a xlink:href="group__mofem__problems.html" target="_top" xlink:title="Adding and managing problems.">
<polygon fill="white" stroke="#666666" points="190.83,-336 132.59,-336 132.59,-318 190.83,-318 190.83,-336"/>
<text text-anchor="middle" x="161.71" y="-324" font-family="Helvetica,sans-Serif" font-size="10.00">Problems</text>
</a>
</g>
</g>
<!-- Node1&#45;&gt;Node12 -->
<g id="edge11" class="edge">
<title>Node1&#45;&gt;Node12</title>
<path fill="none" stroke="black" d="M27.61,-640.34C31.43,-577.12 46.13,-387.98 87,-345 98.53,-332.88 116.76,-328.35 132.21,-326.87"/>
<polygon fill="black" stroke="black" points="24.14,-639.83 27.06,-650.01 31.12,-640.23 24.14,-639.83"/>
</g>
<!-- Node23 -->
<g id="Node000023" class="node">
<title>Node23</title>
<g id="a_Node000023"><a xlink:href="group__mofem__problems__manager.html" target="_top" xlink:title="Adding and managing problems.">
<polygon fill="white" stroke="#666666" points="210.56,-300 112.86,-300 112.86,-282 210.56,-282 210.56,-300"/>
<text text-anchor="middle" x="161.71" y="-288" font-family="Helvetica,sans-Serif" font-size="10.00">ProblemsManager</text>
</a>
</g>
</g>
<!-- Node1&#45;&gt;Node23 -->
<g id="edge22" class="edge">
<title>Node1&#45;&gt;Node23</title>
<path fill="none" stroke="black" d="M27.15,-640.68C29.75,-573.16 41.5,-357.77 87,-309 93.74,-301.78 102.86,-297.24 112.38,-294.44"/>
<polygon fill="black" stroke="black" points="23.67,-640.18 26.81,-650.3 30.67,-640.43 23.67,-640.18"/>
</g>
<!-- Node10 -->
<g id="Node000010" class="node">
<title>Node10</title>
<g id="a_Node000010"><a xlink:href="group__mofem__ref__ents.html" target="_top" xlink:title="Get adjacencies/entities for given BitRefLevel (mesh refinement)">
<polygon fill="white" stroke="#666666" points="232.53,-264 90.89,-264 90.89,-246 232.53,-246 232.53,-264"/>
<text text-anchor="middle" x="161.71" y="-252" font-family="Helvetica,sans-Serif" font-size="10.00">Get entities and adjacencies</text>
</a>
</g>
</g>
<!-- Node1&#45;&gt;Node10 -->
<g id="edge9" class="edge">
<title>Node1&#45;&gt;Node10</title>
<path fill="none" stroke="black" d="M26.8,-640.49C28.29,-568.32 36.97,-327.47 87,-273 90.12,-269.6 93.76,-266.8 97.73,-264.49"/>
<polygon fill="black" stroke="black" points="23.31,-640.02 26.63,-650.08 30.31,-640.14 23.31,-640.02"/>
</g>
<!-- Node24 -->
<g id="Node000024" class="node">
<title>Node24</title>
<g id="a_Node000024"><a xlink:href="group__mofem__series.html" target="_top" xlink:title=" ">
<polygon fill="white" stroke="#666666" points="220.3,-228 103.12,-228 103.12,-200 220.3,-200 220.3,-228"/>
<text text-anchor="start" x="111.12" y="-216" font-family="Helvetica,sans-Serif" font-size="10.00">Recording and reading</text>
<text text-anchor="middle" x="161.71" y="-206" font-family="Helvetica,sans-Serif" font-size="10.00"> series</text>
</a>
</g>
</g>
<!-- Node1&#45;&gt;Node24 -->
<g id="edge23" class="edge">
<title>Node1&#45;&gt;Node24</title>
<path fill="none" stroke="black" d="M26.63,-640.21C27.51,-563.68 34.39,-298.83 87,-237 91.34,-231.9 96.8,-227.91 102.78,-224.79"/>
<polygon fill="black" stroke="black" points="23.13,-639.99 26.54,-650.02 30.13,-640.05 23.13,-639.99"/>
</g>
<!-- Node25 -->
<g id="Node000025" class="node">
<title>Node25</title>
<g id="a_Node000025"><a xlink:href="group__mofem__simple__interface.html" target="_top" xlink:title="Implementation of simple interface for fast problem set&#45;up.">
<polygon fill="white" stroke="#666666" points="205.56,-182 117.86,-182 117.86,-164 205.56,-164 205.56,-182"/>
<text text-anchor="middle" x="161.71" y="-170" font-family="Helvetica,sans-Serif" font-size="10.00">Simple interface</text>
</a>
</g>
</g>
<!-- Node1&#45;&gt;Node25 -->
<g id="edge24" class="edge">
<title>Node1&#45;&gt;Node25</title>
<path fill="none" stroke="black" d="M26.18,-640.26C25.35,-558.35 26.55,-258.6 87,-191 94.82,-182.26 106.11,-177.42 117.51,-174.83"/>
<polygon fill="black" stroke="black" points="22.68,-640.18 26.3,-650.13 29.68,-640.09 22.68,-640.18"/>
</g>
<!-- Node27 -->
<g id="Node000027" class="node">
<title>Node27</title>
<g id="a_Node000027"><a xlink:href="group__mofem__tools.html" target="_top" xlink:title="Interface for tools.">
<polygon fill="white" stroke="#666666" points="201.95,-146 121.47,-146 121.47,-128 201.95,-128 201.95,-146"/>
<text text-anchor="middle" x="161.71" y="-134" font-family="Helvetica,sans-Serif" font-size="10.00">Tools interface</text>
</a>
</g>
</g>
<!-- Node1&#45;&gt;Node27 -->
<g id="edge26" class="edge">
<title>Node1&#45;&gt;Node27</title>
<path fill="none" stroke="black" d="M27.59,-640.4C32.56,-550.1 54.21,-192 87,-155 95.65,-145.24 108.63,-140.34 121.3,-137.99"/>
<polygon fill="black" stroke="black" points="24.11,-640.03 27.06,-650.2 31.1,-640.41 24.11,-640.03"/>
</g>
<!-- Node28 -->
<g id="Node000028" class="node">
<title>Node28</title>
<g id="a_Node000028"><a xlink:href="group__mofem__vectors.html" target="_top" xlink:title="Creating and scattering vectors on the mesh for given problem.">
<polygon fill="white" stroke="#666666" points="199.45,-110 123.97,-110 123.97,-92 199.45,-92 199.45,-110"/>
<text text-anchor="middle" x="161.71" y="-98" font-family="Helvetica,sans-Serif" font-size="10.00">Vectors (Vec)</text>
</a>
</g>
</g>
<!-- Node1&#45;&gt;Node28 -->
<g id="edge27" class="edge">
<title>Node1&#45;&gt;Node28</title>
<path fill="none" stroke="black" d="M27.43,-640.14C31.85,-545.45 51.92,-158.9 87,-119 96.13,-108.61 110.17,-103.72 123.56,-101.56"/>
<polygon fill="black" stroke="black" points="23.94,-639.84 26.98,-649.99 30.94,-640.16 23.94,-639.84"/>
</g>
<!-- Node33 -->
<g id="Node000033" class="node">
<title>Node33</title>
<g id="a_Node000033"><a xlink:href="group__problems__multi__indices.html" target="_top" xlink:title=" ">
<polygon fill="white" stroke="#666666" points="214.17,-74 109.25,-74 109.25,-46 214.17,-46 214.17,-74"/>
<text text-anchor="start" x="117.25" y="-62" font-family="Helvetica,sans-Serif" font-size="10.00">Problems structures</text>
<text text-anchor="middle" x="161.71" y="-52" font-family="Helvetica,sans-Serif" font-size="10.00"> and multi&#45;indices</text>
</a>
</g>
</g>
<!-- Node1&#45;&gt;Node33 -->
<g id="edge32" class="edge">
<title>Node1&#45;&gt;Node33</title>
<path fill="none" stroke="black" d="M27.33,-640.38C31.45,-542.44 50.94,-127.03 87,-83 92.69,-76.05 100.45,-71.17 108.81,-67.74"/>
<polygon fill="black" stroke="black" points="23.84,-640.16 26.92,-650.3 30.83,-640.45 23.84,-640.16"/>
</g>
<!-- Node34 -->
<g id="Node000034" class="node">
<title>Node34</title>
<g id="a_Node000034"><a xlink:href="group__series__multi__indices.html" target="_top" xlink:title="Interface used to record fields and play them back (for example response of structure subjected to ea...">
<polygon fill="white" stroke="#666666" points="216.96,-28 106.47,-28 106.47,0 216.96,0 216.96,-28"/>
<text text-anchor="start" x="114.47" y="-16" font-family="Helvetica,sans-Serif" font-size="10.00">Series structures and</text>
<text text-anchor="middle" x="161.71" y="-6" font-family="Helvetica,sans-Serif" font-size="10.00"> multi&#45;indices</text>
</a>
</g>
</g>
<!-- Node1&#45;&gt;Node34 -->
<g id="edge33" class="edge">
<title>Node1&#45;&gt;Node34</title>
<path fill="none" stroke="black" d="M27.16,-640.37C30.63,-537.69 48.08,-84.89 87,-37 92.07,-30.76 98.82,-26.18 106.17,-22.83"/>
<polygon fill="black" stroke="black" points="23.67,-639.94 26.84,-650.05 30.67,-640.17 23.67,-639.94"/>
</g>
</g>
</svg>
