<?xml version="1.0" encoding="UTF-8" standalone="no"?>
<!DOCTYPE svg PUBLIC "-//W3C//DTD SVG 1.1//EN"
 "http://www.w3.org/Graphics/SVG/1.1/DTD/svg11.dtd">
<!-- Generated by graphviz version 2.43.0 (0)
 -->
<!-- Title: NonLinear Elastic Element Pages: 1 -->
<svg width="517pt" height="60pt"
 viewBox="0.00 0.00 517.00 60.40" xmlns="http://www.w3.org/2000/svg" xmlns:xlink="http://www.w3.org/1999/xlink">
<g id="graph0" class="graph" transform="scale(1 1) rotate(0) translate(4 56.4)">
<title>NonLinear Elastic Element</title>
<!-- Node3 -->
<g id="Node000003" class="node">
<title>Node3</title>
<g id="a_Node000003"><a xlink:href="group__convective__mass__elem.html" target="_top" xlink:title=" ">
<polygon fill="white" stroke="#666666" points="509,-28.9 423,-28.9 423,-9.9 509,-9.9 509,-28.9"/>
<text text-anchor="middle" x="466" y="-16.9" font-family="Helvetica,sans-Serif" font-size="10.00">Mass Element</text>
</a>
</g>
</g>
<!-- Node1 -->
<g id="Node000001" class="node">
<title>Node1</title>
<g id="a_Node000001"><a xlink:title=" ">
<polygon fill="#999999" stroke="#666666" points="266,-28.9 121,-28.9 121,-9.9 266,-9.9 266,-28.9"/>
<text text-anchor="middle" x="193.5" y="-16.9" font-family="Helvetica,sans-Serif" font-size="10.00">NonLinear Elastic Element</text>
</a>
</g>
</g>
<!-- Node1&#45;&gt;Node3 -->
<g id="edge2" class="edge">
<title>Node1&#45;&gt;Node3</title>
<path fill="none" stroke="orange" stroke-dasharray="5,2" d="M266.28,-19.4C316.21,-19.4 381.06,-19.4 422.86,-19.4"/>
<text text-anchor="middle" x="344.5" y="-44.4" font-family="Helvetica,sans-Serif" font-size="10.00">ConvectiveMassElement</text>
<text text-anchor="start" x="284" y="-33.4" font-family="Helvetica,sans-Serif" font-size="10.00">ConvectiveMassElement</text>
<text text-anchor="middle" x="344.5" y="-22.4" font-family="Helvetica,sans-Serif" font-size="10.00">::BlockData</text>
</g>
<!-- Node1&#45;&gt;Node3 -->
<g id="edge3" class="edge">
<title>Node1&#45;&gt;Node3</title>
<path fill="none" stroke="darkgreen" stroke-dasharray="5,2" d="M242.62,-9.83C255.97,-7.59 270.5,-5.52 284,-4.4 337.59,0.06 351.63,2.17 405,-4.4 414.16,-5.53 423.94,-7.59 432.89,-9.83"/>
<text text-anchor="middle" x="344.5" y="-7.4" font-family="Helvetica,sans-Serif" font-size="10.00">convective_matrix.cpp</text>
</g>
<!-- Node2 -->
<g id="Node000002" class="node">
<title>Node2</title>
<g id="a_Node000002"><a xlink:href="group__user__modules.html" target="_top" xlink:title=" ">
<polygon fill="white" stroke="#666666" points="84,-28.9 0,-28.9 0,-9.9 84,-9.9 84,-28.9"/>
<text text-anchor="middle" x="42" y="-16.9" font-family="Helvetica,sans-Serif" font-size="10.00">User modules</text>
</a>
</g>
</g>
<!-- Node2&#45;&gt;Node1 -->
<g id="edge1" class="edge">
<title>Node2&#45;&gt;Node1</title>
<path fill="none" stroke="black" d="M94.43,-19.4C103,-19.4 112.02,-19.4 120.98,-19.4"/>
<polygon fill="black" stroke="black" points="94.25,-15.9 84.25,-19.4 94.25,-22.9 94.25,-15.9"/>
</g>
</g>
</svg>
