<?xml version="1.0" encoding="UTF-8" standalone="no"?>
<!DOCTYPE svg PUBLIC "-//W3C//DTD SVG 1.1//EN"
 "http://www.w3.org/Graphics/SVG/1.1/DTD/svg11.dtd">
<!-- Generated by graphviz version 2.43.0 (0)
 -->
<!-- Title: User modules Pages: 1 -->
<svg width="273pt" height="421pt"
 viewBox="0.00 0.00 273.00 420.50" xmlns="http://www.w3.org/2000/svg" xmlns:xlink="http://www.w3.org/1999/xlink">

<svg id="main" version="1.1" xmlns="http://www.w3.org/2000/svg" xmlns:xlink="http://www.w3.org/1999/xlink" xml:space="preserve" onload="init(evt)">
<style type="text/css"><![CDATA[
.node, .edge {opacity: 0.7;}
.node.selected, .edge.selected {opacity: 1;}
.edge:hover path { stroke: red; }
.edge:hover polygon { stroke: red; fill: red; }
]]></style>
<script type="application/ecmascript" xlink:href="svg.min.js"/>
<svg id="graph" class="graph">
<g id="graph0" class="graph" transform="scale(1 1) rotate(0) translate(4 416.5)">
<title>User modules</title>
<!-- Node6 -->
<g id="Node000006" class="node">
<title>Node6</title>
<g id="a_Node000006"><a xlink:href="group__Dirichlet__bc.html" target="_top" xlink:title=" ">
<polygon fill="white" stroke="#666666" points="246,-412.5 139,-412.5 139,-382.5 246,-382.5 246,-412.5"/>
<text text-anchor="start" x="147" y="-400.5" font-family="Helvetica,sans-Serif" font-size="10.00">Dirichlet boundary</text>
<text text-anchor="middle" x="192.5" y="-389.5" font-family="Helvetica,sans-Serif" font-size="10.00"> conditions</text>
</a>
</g>
</g>
<!-- Node3 -->
<g id="Node000003" class="node">
<title>Node3</title>
<g id="a_Node000003"><a xlink:href="group__arc__length__control.html" target="_top" xlink:title=" ">
<polygon fill="white" stroke="#666666" points="245.5,-364 139.5,-364 139.5,-345 245.5,-345 245.5,-364"/>
<text text-anchor="middle" x="192.5" y="-352" font-family="Helvetica,sans-Serif" font-size="10.00">Arc&#45;Length control</text>
</a>
</g>
</g>
<!-- Node11 -->
<g id="Node000011" class="node">
<title>Node11</title>
<g id="a_Node000011"><a xlink:href="group__bone__remodelling.html" target="_top" xlink:title="Bone remodeling module.">
<polygon fill="white" stroke="#666666" points="242.5,-327 142.5,-327 142.5,-308 242.5,-308 242.5,-327"/>
<text text-anchor="middle" x="192.5" y="-315" font-family="Helvetica,sans-Serif" font-size="10.00">Bone remodeling</text>
</a>
</g>
</g>
<!-- Node5 -->
<g id="Node000005" class="node">
<title>Node5</title>
<g id="a_Node000005"><a xlink:href="group__convective__mass__elem.html" target="_top" xlink:title=" ">
<polygon fill="white" stroke="#666666" points="235.5,-290 149.5,-290 149.5,-271 235.5,-271 235.5,-290"/>
<text text-anchor="middle" x="192.5" y="-278" font-family="Helvetica,sans-Serif" font-size="10.00">Mass Element</text>
</a>
</g>
</g>
<!-- Node12 -->
<g id="Node000012" class="node">
<title>Node12</title>
<g id="a_Node000012"><a xlink:href="group__minimal__surface__area.html" target="_top" xlink:title=" ">
<polygon fill="white" stroke="#666666" points="252.5,-253 132.5,-253 132.5,-234 252.5,-234 252.5,-253"/>
<text text-anchor="middle" x="192.5" y="-241" font-family="Helvetica,sans-Serif" font-size="10.00">Minimal surface area</text>
</a>
</g>
</g>
<!-- Node4 -->
<g id="Node000004" class="node">
<title>Node4</title>
<g id="a_Node000004"><a xlink:href="group__mofem__body__forces.html" target="_top" xlink:title=" ">
<polygon fill="white" stroke="#666666" points="254,-216 131,-216 131,-197 254,-197 254,-216"/>
<text text-anchor="middle" x="192.5" y="-204" font-family="Helvetica,sans-Serif" font-size="10.00">Body forces elements</text>
</a>
</g>
</g>
<!-- Node8 -->
<g id="Node000008" class="node">
<title>Node8</title>
<g id="a_Node000008"><a xlink:href="group__mofem__fs__post__proc.html" target="_top" xlink:title=" ">
<polygon fill="white" stroke="#666666" points="231.5,-179 153.5,-179 153.5,-160 231.5,-160 231.5,-179"/>
<text text-anchor="middle" x="192.5" y="-167" font-family="Helvetica,sans-Serif" font-size="10.00">Post Process</text>
</a>
</g>
</g>
<!-- Node2 -->
<g id="Node000002" class="node">
<title>Node2</title>
<g id="a_Node000002"><a xlink:href="group__mofem__mix__transport__elem.html" target="_top" xlink:title=" ">
<polygon fill="white" stroke="#666666" points="255,-142 130,-142 130,-123 255,-123 255,-142"/>
<text text-anchor="middle" x="192.5" y="-130" font-family="Helvetica,sans-Serif" font-size="10.00">Mix transport element</text>
</a>
</g>
</g>
<!-- Node9 -->
<g id="Node000009" class="node">
<title>Node9</title>
<g id="a_Node000009"><a xlink:href="group__mofem__static__boundary__conditions.html" target="_top" xlink:title=" ">
<polygon fill="white" stroke="#666666" points="246,-104.5 139,-104.5 139,-74.5 246,-74.5 246,-104.5"/>
<text text-anchor="start" x="147" y="-92.5" font-family="Helvetica,sans-Serif" font-size="10.00">Pressure and force</text>
<text text-anchor="middle" x="192.5" y="-81.5" font-family="Helvetica,sans-Serif" font-size="10.00"> boundary</text>
</a>
</g>
</g>
<!-- Node10 -->
<g id="Node000010" class="node">
<title>Node10</title>
<g id="a_Node000010"><a xlink:href="group__mofem__thermal__elem.html" target="_top" xlink:title=" ">
<polygon fill="white" stroke="#666666" points="243,-56 142,-56 142,-37 243,-37 243,-56"/>
<text text-anchor="middle" x="192.5" y="-44" font-family="Helvetica,sans-Serif" font-size="10.00">Thermal element</text>
</a>
</g>
</g>
<!-- Node7 -->
<g id="Node000007" class="node">
<title>Node7</title>
<g id="a_Node000007"><a xlink:href="group__nonlinear__elastic__elem.html" target="_top" xlink:title=" ">
<polygon fill="white" stroke="#666666" points="265,-19 120,-19 120,0 265,0 265,-19"/>
<text text-anchor="middle" x="192.5" y="-7" font-family="Helvetica,sans-Serif" font-size="10.00">NonLinear Elastic Element</text>
</a>
</g>
</g>
<!-- Node1 -->
<g id="Node000001" class="node">
<title>Node1</title>
<g id="a_Node000001"><a xlink:title=" ">
<polygon fill="#999999" stroke="#666666" points="84,-216 0,-216 0,-197 84,-197 84,-216"/>
<text text-anchor="middle" x="42" y="-204" font-family="Helvetica,sans-Serif" font-size="10.00">User modules</text>
</a>
</g>
</g>
<!-- Node1&#45;&gt;Node6 -->
<g id="edge5" class="edge">
<title>Node1&#45;&gt;Node6</title>
<path fill="none" stroke="black" d="M46.77,-226.28C54.41,-261.01 74.97,-333.1 120,-373.5 125.46,-378.4 131.95,-382.3 138.76,-385.41"/>
<polygon fill="black" stroke="black" points="50.18,-225.49 44.73,-216.4 43.33,-226.9 50.18,-225.49"/>
</g>
<!-- Node1&#45;&gt;Node3 -->
<g id="edge2" class="edge">
<title>Node1&#45;&gt;Node3</title>
<path fill="none" stroke="black" d="M49.03,-225.75C59.02,-254.41 81.79,-307.97 120,-336.5 125.74,-340.79 132.4,-344.06 139.28,-346.56"/>
<polygon fill="black" stroke="black" points="52.29,-224.48 45.82,-216.09 45.65,-226.69 52.29,-224.48"/>
</g>
<!-- Node1&#45;&gt;Node11 -->
<g id="edge10" class="edge">
<title>Node1&#45;&gt;Node11</title>
<path fill="none" stroke="black" d="M53.23,-224.83C66.05,-246.08 90.02,-280.58 120,-299.5 126.82,-303.8 134.61,-307.08 142.49,-309.57"/>
<polygon fill="black" stroke="black" points="56.2,-222.98 48.14,-216.11 50.16,-226.51 56.2,-222.98"/>
</g>
<!-- Node1&#45;&gt;Node5 -->
<g id="edge4" class="edge">
<title>Node1&#45;&gt;Node5</title>
<path fill="none" stroke="black" d="M61.49,-223.11C76.34,-235.62 98.22,-252.31 120,-262.5 129.16,-266.79 139.47,-270.14 149.36,-272.73"/>
<polygon fill="black" stroke="black" points="63.48,-220.2 53.62,-216.3 58.9,-225.49 63.48,-220.2"/>
</g>
<!-- Node1&#45;&gt;Node12 -->
<g id="edge11" class="edge">
<title>Node1&#45;&gt;Node12</title>
<path fill="none" stroke="black" d="M91.14,-218.49C111.22,-223.5 134.22,-229.23 153.13,-233.94"/>
<polygon fill="black" stroke="black" points="91.79,-215.05 81.24,-216.03 90.1,-221.84 91.79,-215.05"/>
</g>
<!-- Node1&#45;&gt;Node4 -->
<g id="edge3" class="edge">
<title>Node1&#45;&gt;Node4</title>
<path fill="none" stroke="black" d="M94.45,-206.5C106.21,-206.5 118.82,-206.5 130.93,-206.5"/>
<polygon fill="black" stroke="black" points="94.37,-203 84.37,-206.5 94.37,-210 94.37,-203"/>
</g>
<!-- Node1&#45;&gt;Node8 -->
<g id="edge7" class="edge">
<title>Node1&#45;&gt;Node8</title>
<path fill="none" stroke="black" d="M91.18,-194.5C111.34,-189.47 134.44,-183.72 153.39,-179"/>
<polygon fill="black" stroke="black" points="90.1,-191.16 81.24,-196.97 91.79,-197.95 90.1,-191.16"/>
</g>
<!-- Node1&#45;&gt;Node2 -->
<g id="edge1" class="edge">
<title>Node1&#45;&gt;Node2</title>
<path fill="none" stroke="black" d="M61.58,-190.28C76.47,-178.05 98.38,-161.68 120,-151.5 128.02,-147.73 136.91,-144.61 145.62,-142.06"/>
<polygon fill="black" stroke="black" points="59.08,-187.82 53.68,-196.93 63.58,-193.17 59.08,-187.82"/>
</g>
<!-- Node1&#45;&gt;Node9 -->
<g id="edge8" class="edge">
<title>Node1&#45;&gt;Node9</title>
<path fill="none" stroke="black" d="M53.96,-188.22C67.2,-167.6 91.31,-134.34 120,-114.5 125.73,-110.54 132.16,-107.14 138.74,-104.25"/>
<polygon fill="black" stroke="black" points="50.83,-186.63 48.51,-196.97 56.77,-190.33 50.83,-186.63"/>
</g>
<!-- Node1&#45;&gt;Node10 -->
<g id="edge9" class="edge">
<title>Node1&#45;&gt;Node10</title>
<path fill="none" stroke="black" d="M48.21,-187.01C57.43,-156.39 79.55,-97.24 120,-65.5 126.37,-60.5 133.93,-56.82 141.71,-54.1"/>
<polygon fill="black" stroke="black" points="44.77,-186.32 45.39,-196.9 51.5,-188.24 44.77,-186.32"/>
</g>
<!-- Node1&#45;&gt;Node7 -->
<g id="edge6" class="edge">
<title>Node1&#45;&gt;Node7</title>
<path fill="none" stroke="black" d="M45.84,-186.67C52.17,-149.83 70.99,-70.72 120,-28.5 124.48,-24.64 129.65,-21.56 135.13,-19.1"/>
<polygon fill="black" stroke="black" points="42.36,-186.24 44.25,-196.66 49.27,-187.33 42.36,-186.24"/>
</g>
</g>
</svg>
</svg>

<style type='text/css'>
<![CDATA[
[data-mouse-over-selected='false'] { opacity: 0.7; }
[data-mouse-over-selected='true']  { opacity: 1.0; }
]]>
</style>
<script type="application/ecmascript"><![CDATA[
document.addEventListener('DOMContentLoaded', (event) => {
  highlightEdges();
  highlightAdjacentNodes();
});
]]></script>
</svg>
