<?xml version="1.0" encoding="UTF-8" standalone="no"?>
<!DOCTYPE svg PUBLIC "-//W3C//DTD SVG 1.1//EN"
 "http://www.w3.org/Graphics/SVG/1.1/DTD/svg11.dtd">
<!-- Generated by graphviz version 12.1.0 (0)
 -->
<!-- Title: Graphical Class Hierarchy Pages: 1 -->
<svg width="401pt" height="286pt"
 viewBox="0.00 0.00 400.60 286.00" xmlns="http://www.w3.org/2000/svg" xmlns:xlink="http://www.w3.org/1999/xlink">
<g id="graph0" class="graph" transform="scale(1 1) rotate(0) translate(4 282)">
<title>Graphical Class Hierarchy</title>
<!-- Node0 -->
<g id="Node000000" class="node">
<title>Node0</title>
<g id="a_Node000000"><a xlink:title=" ">
<polygon fill="#e0e0e0" stroke="#999999" points="161.62,-153 0,-153 0,-125 161.62,-125 161.62,-153"/>
<text text-anchor="start" x="8" y="-141" font-family="Helvetica,sans-Serif" font-size="10.00">FlatPrismElementForcesAnd</text>
<text text-anchor="middle" x="80.81" y="-131" font-family="Helvetica,sans-Serif" font-size="10.00">SourcesCore::UserDataOperator</text>
</a>
</g>
</g>
<!-- Node1 -->
<g id="Node000001" class="node">
<title>Node1</title>
<g id="a_Node000001"><a xlink:href="struct_cohesive_element_1_1_cohesive_interface_element_1_1_op_calculate_gap_global.html" target="_top" xlink:title="Operator calculate gap, normal vector and rotation matrix.">
<polygon fill="white" stroke="#666666" points="380.65,-278 209.57,-278 209.57,-240 380.65,-240 380.65,-278"/>
<text text-anchor="start" x="217.57" y="-266" font-family="Helvetica,sans-Serif" font-size="10.00">CohesiveElement::Cohesive</text>
<text text-anchor="start" x="217.57" y="-256" font-family="Helvetica,sans-Serif" font-size="10.00">InterfaceElement::OpCalculateGap</text>
<text text-anchor="middle" x="295.11" y="-246" font-family="Helvetica,sans-Serif" font-size="10.00">Global</text>
</a>
</g>
</g>
<!-- Node0&#45;&gt;Node1 -->
<g id="edge248_Node000000_Node000001" class="edge">
<title>Node0&#45;&gt;Node1</title>
<g id="a_edge248_Node000000_Node000001"><a xlink:title=" ">
<path fill="none" stroke="#63b8ff" d="M104.16,-161.2C126.21,-181.96 161.72,-212.46 197.62,-231 203.74,-234.16 210.27,-237.02 216.93,-239.58"/>
<polygon fill="#63b8ff" stroke="#63b8ff" points="106.59,-158.68 96.95,-154.28 101.74,-163.73 106.59,-158.68"/>
</a>
</g>
</g>
<!-- Node2 -->
<g id="Node000002" class="node">
<title>Node2</title>
<g id="a_Node000002"><a xlink:href="struct_cohesive_element_1_1_cohesive_interface_element_1_1_op_calculate_gap_local.html" target="_top" xlink:title="Operator calculate gap in local coordinate system.">
<polygon fill="white" stroke="#666666" points="392.6,-222 197.62,-222 197.62,-194 392.6,-194 392.6,-222"/>
<text text-anchor="start" x="205.62" y="-210" font-family="Helvetica,sans-Serif" font-size="10.00">CohesiveElement::Cohesive</text>
<text text-anchor="middle" x="295.11" y="-200" font-family="Helvetica,sans-Serif" font-size="10.00">InterfaceElement::OpCalculateGapLocal</text>
</a>
</g>
</g>
<!-- Node0&#45;&gt;Node2 -->
<g id="edge249_Node000000_Node000002" class="edge">
<title>Node0&#45;&gt;Node2</title>
<g id="a_edge249_Node000000_Node000002"><a xlink:title=" ">
<path fill="none" stroke="#63b8ff" d="M124.77,-157.78C146.36,-166.77 173.09,-177.25 197.62,-185 207.3,-188.06 217.65,-190.93 227.84,-193.54"/>
<polygon fill="#63b8ff" stroke="#63b8ff" points="126.27,-154.61 115.69,-153.95 123.55,-161.06 126.27,-154.61"/>
</a>
</g>
</g>
<!-- Node3 -->
<g id="Node000003" class="node">
<title>Node3</title>
<g id="a_Node000003"><a xlink:href="struct_cohesive_element_1_1_cohesive_interface_element_1_1_op_history.html" target="_top" xlink:title="Operator update history variables.">
<polygon fill="white" stroke="#666666" points="365.92,-176 224.3,-176 224.3,-148 365.92,-148 365.92,-176"/>
<text text-anchor="start" x="232.3" y="-164" font-family="Helvetica,sans-Serif" font-size="10.00">CohesiveElement::Cohesive</text>
<text text-anchor="middle" x="295.11" y="-154" font-family="Helvetica,sans-Serif" font-size="10.00">InterfaceElement::OpHistory</text>
</a>
</g>
</g>
<!-- Node0&#45;&gt;Node3 -->
<g id="edge250_Node000000_Node000003" class="edge">
<title>Node0&#45;&gt;Node3</title>
<g id="a_edge250_Node000000_Node000003"><a xlink:title=" ">
<path fill="none" stroke="#63b8ff" d="M173.13,-148.89C190.11,-150.73 207.6,-152.63 223.82,-154.39"/>
<polygon fill="#63b8ff" stroke="#63b8ff" points="173.89,-145.46 163.57,-147.86 173.14,-152.42 173.89,-145.46"/>
</a>
</g>
</g>
<!-- Node4 -->
<g id="Node000004" class="node">
<title>Node4</title>
<g id="a_Node000004"><a xlink:href="struct_cohesive_element_1_1_cohesive_interface_element_1_1_op_lhs.html" target="_top" xlink:title="Operator calculate element stiffens matrix.">
<polygon fill="white" stroke="#666666" points="365.92,-130 224.3,-130 224.3,-102 365.92,-102 365.92,-130"/>
<text text-anchor="start" x="232.3" y="-118" font-family="Helvetica,sans-Serif" font-size="10.00">CohesiveElement::Cohesive</text>
<text text-anchor="middle" x="295.11" y="-108" font-family="Helvetica,sans-Serif" font-size="10.00">InterfaceElement::OpLhs</text>
</a>
</g>
</g>
<!-- Node0&#45;&gt;Node4 -->
<g id="edge251_Node000000_Node000004" class="edge">
<title>Node0&#45;&gt;Node4</title>
<g id="a_edge251_Node000000_Node000004"><a xlink:title=" ">
<path fill="none" stroke="#63b8ff" d="M173.13,-129.11C190.11,-127.27 207.6,-125.37 223.82,-123.61"/>
<polygon fill="#63b8ff" stroke="#63b8ff" points="173.14,-125.58 163.57,-130.14 173.89,-132.54 173.14,-125.58"/>
</a>
</g>
</g>
<!-- Node5 -->
<g id="Node000005" class="node">
<title>Node5</title>
<g id="a_Node000005"><a xlink:href="struct_cohesive_element_1_1_cohesive_interface_element_1_1_op_rhs.html" target="_top" xlink:title="Operator calculate right hand side vector.">
<polygon fill="white" stroke="#666666" points="365.92,-84 224.3,-84 224.3,-56 365.92,-56 365.92,-84"/>
<text text-anchor="start" x="232.3" y="-72" font-family="Helvetica,sans-Serif" font-size="10.00">CohesiveElement::Cohesive</text>
<text text-anchor="middle" x="295.11" y="-62" font-family="Helvetica,sans-Serif" font-size="10.00">InterfaceElement::OpRhs</text>
</a>
</g>
</g>
<!-- Node0&#45;&gt;Node5 -->
<g id="edge252_Node000000_Node000005" class="edge">
<title>Node0&#45;&gt;Node5</title>
<g id="a_edge252_Node000000_Node000005"><a xlink:title=" ">
<path fill="none" stroke="#63b8ff" d="M124.77,-120.22C146.36,-111.23 173.09,-100.75 197.62,-93 207.3,-89.94 217.65,-87.07 227.84,-84.46"/>
<polygon fill="#63b8ff" stroke="#63b8ff" points="123.55,-116.94 115.69,-124.05 126.27,-123.39 123.55,-116.94"/>
</a>
</g>
</g>
<!-- Node6 -->
<g id="Node000006" class="node">
<title>Node6</title>
<g id="a_Node000006"><a xlink:href="struct_cohesive_element_1_1_cohesive_interface_element_1_1_op_set_sign_to_shape_functions.html" target="_top" xlink:title="Set negative sign to shape functions on face 4.">
<polygon fill="white" stroke="#666666" points="387.61,-38 202.61,-38 202.61,0 387.61,0 387.61,-38"/>
<text text-anchor="start" x="210.61" y="-26" font-family="Helvetica,sans-Serif" font-size="10.00">CohesiveElement::Cohesive</text>
<text text-anchor="start" x="210.61" y="-16" font-family="Helvetica,sans-Serif" font-size="10.00">InterfaceElement::OpSetSignToShape</text>
<text text-anchor="middle" x="295.11" y="-6" font-family="Helvetica,sans-Serif" font-size="10.00">Functions</text>
</a>
</g>
</g>
<!-- Node0&#45;&gt;Node6 -->
<g id="edge253_Node000000_Node000006" class="edge">
<title>Node0&#45;&gt;Node6</title>
<g id="a_edge253_Node000000_Node000006"><a xlink:title=" ">
<path fill="none" stroke="#63b8ff" d="M104.16,-116.8C126.21,-96.04 161.72,-65.54 197.62,-47 203.74,-43.84 210.27,-40.98 216.93,-38.42"/>
<polygon fill="#63b8ff" stroke="#63b8ff" points="101.74,-114.27 96.95,-123.72 106.59,-119.32 101.74,-114.27"/>
</a>
</g>
</g>
</g>
</svg>
