<?xml version="1.0" encoding="UTF-8" standalone="no"?>
<!DOCTYPE svg PUBLIC "-//W3C//DTD SVG 1.1//EN"
 "http://www.w3.org/Graphics/SVG/1.1/DTD/svg11.dtd">
<!-- Generated by graphviz version 10.0.1 (20240210.2158)
 -->
<!-- Title: Graphical Class Hierarchy Pages: 1 -->
<svg width="249pt" height="64pt"
 viewBox="0.00 0.00 249.25 64.25" xmlns="http://www.w3.org/2000/svg" xmlns:xlink="http://www.w3.org/1999/xlink">
<g id="graph0" class="graph" transform="scale(1 1) rotate(0) translate(4 60.25)">
<title>Graphical Class Hierarchy</title>
<!-- Node0 -->
<g id="Node000000" class="node">
<title>Node0</title>
<g id="a_Node000000"><a xlink:href="struct_generic_sliding.html" target="_top" xlink:title="Implementation of surface sliding constrains.">
<polygon fill="white" stroke="#666666" points="79,-37.25 0,-37.25 0,-18 79,-18 79,-37.25"/>
<text text-anchor="middle" x="39.5" y="-23.75" font-family="Helvetica,sans-Serif" font-size="10.00">GenericSliding</text>
</a>
</g>
</g>
<!-- Node1 -->
<g id="Node000001" class="node">
<title>Node1</title>
<g id="a_Node000001"><a xlink:href="struct_edge_sliding_constrains.html" target="_top" xlink:title=" ">
<polygon fill="white" stroke="#666666" points="235.62,-56.25 120.62,-56.25 120.62,-37 235.62,-37 235.62,-56.25"/>
<text text-anchor="middle" x="178.12" y="-42.75" font-family="Helvetica,sans-Serif" font-size="10.00">EdgeSlidingConstrains</text>
</a>
</g>
</g>
<!-- Node0&#45;&gt;Node1 -->
<g id="edge963_Node000000_Node000001" class="edge">
<title>Node0&#45;&gt;Node1</title>
<g id="a_edge963_Node000000_Node000001"><a xlink:title=" ">
<path fill="none" stroke="#63b8ff" d="M90.67,-34.6C100.25,-35.93 110.35,-37.34 120.13,-38.7"/>
<polygon fill="#63b8ff" stroke="#63b8ff" points="91.17,-31.14 80.78,-33.23 90.21,-38.07 91.17,-31.14"/>
</a>
</g>
</g>
<!-- Node2 -->
<g id="Node000002" class="node">
<title>Node2</title>
<g id="a_Node000002"><a xlink:href="struct_surface_sliding_constrains.html" target="_top" xlink:title="Shape preserving constrains, i.e. nodes sliding on body surface.">
<polygon fill="white" stroke="#666666" points="241.25,-19.25 115,-19.25 115,0 241.25,0 241.25,-19.25"/>
<text text-anchor="middle" x="178.12" y="-5.75" font-family="Helvetica,sans-Serif" font-size="10.00">SurfaceSlidingConstrains</text>
</a>
</g>
</g>
<!-- Node0&#45;&gt;Node2 -->
<g id="edge964_Node000000_Node000002" class="edge">
<title>Node0&#45;&gt;Node2</title>
<g id="a_edge964_Node000000_Node000002"><a xlink:title=" ">
<path fill="none" stroke="#63b8ff" d="M90.52,-21.04C98.39,-20 106.61,-18.91 114.72,-17.85"/>
<polygon fill="#63b8ff" stroke="#63b8ff" points="90.24,-17.54 80.79,-22.32 91.16,-24.48 90.24,-17.54"/>
</a>
</g>
</g>
</g>
</svg>
