<?xml version="1.0" encoding="UTF-8" standalone="no"?>
<!DOCTYPE svg PUBLIC "-//W3C//DTD SVG 1.1//EN"
 "http://www.w3.org/Graphics/SVG/1.1/DTD/svg11.dtd">
<!-- Generated by graphviz version 12.1.0 (0)
 -->
<!-- Title: Graphical Class Hierarchy Pages: 1 -->
<svg width="326pt" height="194pt"
 viewBox="0.00 0.00 325.55 194.00" xmlns="http://www.w3.org/2000/svg" xmlns:xlink="http://www.w3.org/1999/xlink">
<g id="graph0" class="graph" transform="scale(1 1) rotate(0) translate(4 190)">
<title>Graphical Class Hierarchy</title>
<!-- Node0 -->
<g id="Node000000" class="node">
<title>Node0</title>
<g id="a_Node000000"><a xlink:href="class_vol_user_data_operator.html" target="_top" xlink:title=" ">
<polygon fill="white" stroke="#666666" points="111.61,-104 0,-104 0,-86 111.61,-86 111.61,-104"/>
<text text-anchor="middle" x="55.8" y="-92" font-family="Helvetica,sans-Serif" font-size="10.00">VolUserDataOperator</text>
</a>
</g>
</g>
<!-- Node1 -->
<g id="Node000001" class="node">
<title>Node1</title>
<g id="a_Node000001"><a xlink:href="struct_eshelbian_plasticity_1_1_h_m_h_hencky_1_1_op_calculate_energy.html" target="_top" xlink:title="Calculate energy density for Hencky material model.">
<polygon fill="white" stroke="#666666" points="317.55,-186 147.61,-186 147.61,-158 317.55,-158 317.55,-186"/>
<text text-anchor="start" x="155.61" y="-174" font-family="Helvetica,sans-Serif" font-size="10.00">EshelbianPlasticity</text>
<text text-anchor="middle" x="232.58" y="-164" font-family="Helvetica,sans-Serif" font-size="10.00">::HMHHencky::OpCalculateEnergy</text>
</a>
</g>
</g>
<!-- Node0&#45;&gt;Node1 -->
<g id="edge1324_Node000000_Node000001" class="edge">
<title>Node0&#45;&gt;Node1</title>
<g id="a_edge1324_Node000000_Node000001"><a xlink:title=" ">
<path fill="none" stroke="#63b8ff" d="M79.55,-110.88C97.39,-122.74 123.19,-138.62 147.61,-149 155.12,-152.19 163.2,-155.06 171.27,-157.6"/>
<polygon fill="#63b8ff" stroke="#63b8ff" points="81.53,-108 71.29,-105.28 77.61,-113.79 81.53,-108"/>
</a>
</g>
</g>
<!-- Node2 -->
<g id="Node000002" class="node">
<title>Node2</title>
<g id="a_Node000002"><a xlink:href="struct_eshelbian_plasticity_1_1_h_m_h_hencky_1_1_op_calculate_stretch_from_stress.html" target="_top" xlink:title=" ">
<polygon fill="white" stroke="#666666" points="317.55,-140 147.61,-140 147.61,-102 317.55,-102 317.55,-140"/>
<text text-anchor="start" x="155.61" y="-128" font-family="Helvetica,sans-Serif" font-size="10.00">EshelbianPlasticity</text>
<text text-anchor="start" x="155.61" y="-118" font-family="Helvetica,sans-Serif" font-size="10.00">::HMHHencky::OpCalculateStretch</text>
<text text-anchor="middle" x="232.58" y="-108" font-family="Helvetica,sans-Serif" font-size="10.00">FromStress</text>
</a>
</g>
</g>
<!-- Node0&#45;&gt;Node2 -->
<g id="edge1325_Node000000_Node000002" class="edge">
<title>Node0&#45;&gt;Node2</title>
<g id="a_edge1325_Node000000_Node000002"><a xlink:title=" ">
<path fill="none" stroke="#63b8ff" d="M123.36,-104.9C131.18,-106.06 139.24,-107.26 147.26,-108.46"/>
<polygon fill="#63b8ff" stroke="#63b8ff" points="124.01,-101.46 113.6,-103.45 122.98,-108.38 124.01,-101.46"/>
</a>
</g>
</g>
<!-- Node3 -->
<g id="Node000003" class="node">
<title>Node3</title>
<g id="a_Node000003"><a xlink:href="struct_eshelbian_plasticity_1_1_h_m_h_neohookean_1_1_op_get_scale.html" target="_top" xlink:title=" ">
<polygon fill="white" stroke="#666666" points="313.11,-84 152.04,-84 152.04,-56 313.11,-56 313.11,-84"/>
<text text-anchor="start" x="160.04" y="-72" font-family="Helvetica,sans-Serif" font-size="10.00">EshelbianPlasticity</text>
<text text-anchor="middle" x="232.58" y="-62" font-family="Helvetica,sans-Serif" font-size="10.00">::HMHNeohookean::OpGetScale</text>
</a>
</g>
</g>
<!-- Node0&#45;&gt;Node3 -->
<g id="edge1326_Node000000_Node000003" class="edge">
<title>Node0&#45;&gt;Node3</title>
<g id="a_edge1326_Node000000_Node000003"><a xlink:title=" ">
<path fill="none" stroke="#63b8ff" d="M123.26,-85.49C132.57,-84.16 142.21,-82.78 151.73,-81.42"/>
<polygon fill="#63b8ff" stroke="#63b8ff" points="123,-81.99 113.6,-86.88 124,-88.92 123,-81.99"/>
</a>
</g>
</g>
<!-- Node4 -->
<g id="Node000004" class="node">
<title>Node4</title>
<g id="a_Node000004"><a xlink:href="struct_eshelbian_plasticity_1_1_op_calculate_rotation_and_spatial_gradient.html" target="_top" xlink:title=" ">
<polygon fill="white" stroke="#666666" points="313.68,-38 151.48,-38 151.48,0 313.68,0 313.68,-38"/>
<text text-anchor="start" x="159.48" y="-26" font-family="Helvetica,sans-Serif" font-size="10.00">EshelbianPlasticity</text>
<text text-anchor="start" x="159.48" y="-16" font-family="Helvetica,sans-Serif" font-size="10.00">::OpCalculateRotationAndSpatial</text>
<text text-anchor="middle" x="232.58" y="-6" font-family="Helvetica,sans-Serif" font-size="10.00">Gradient</text>
</a>
</g>
</g>
<!-- Node0&#45;&gt;Node4 -->
<g id="edge1327_Node000000_Node000004" class="edge">
<title>Node0&#45;&gt;Node4</title>
<g id="a_edge1327_Node000000_Node000004"><a xlink:title=" ">
<path fill="none" stroke="#63b8ff" d="M82.75,-79.82C100.62,-69.73 125.1,-56.62 147.61,-47 154.67,-43.98 162.18,-41.07 169.69,-38.34"/>
<polygon fill="#63b8ff" stroke="#63b8ff" points="81.07,-76.75 74.13,-84.75 84.54,-82.82 81.07,-76.75"/>
</a>
</g>
</g>
</g>
</svg>
