<?xml version="1.0" encoding="UTF-8" standalone="no"?>
<!DOCTYPE svg PUBLIC "-//W3C//DTD SVG 1.1//EN"
 "http://www.w3.org/Graphics/SVG/1.1/DTD/svg11.dtd">
<!-- Generated by graphviz version 2.43.0 (0)
 -->
<!-- Title: Graphical Class Hierarchy Pages: 1 -->
<svg width="367pt" height="64pt"
 viewBox="0.00 0.00 367.00 64.00" xmlns="http://www.w3.org/2000/svg" xmlns:xlink="http://www.w3.org/1999/xlink">
<g id="graph0" class="graph" transform="scale(1 1) rotate(0) translate(4 60)">
<title>Graphical Class Hierarchy</title>
<!-- Node0 -->
<g id="Node000000" class="node">
<title>Node0</title>
<g id="a_Node000000"><a xlink:href="structGenericElementInterface.html" target="_top" xlink:title="Set of functions declaring elements and setting operators for generic element interface.">
<polygon fill="white" stroke="#666666" points="138,-37 0,-37 0,-18 138,-18 138,-37"/>
<text text-anchor="middle" x="69" y="-25" font-family="Helvetica,sans-Serif" font-size="10.00">GenericElementInterface</text>
</a>
</g>
</g>
<!-- Node1 -->
<g id="Node000001" class="node">
<title>Node1</title>
<g id="a_Node000001"><a xlink:href="structBasicBoundaryConditionsInterface.html" target="_top" xlink:title="Set of functions declaring elements and setting operators for basic boundary conditions interface.">
<polygon fill="white" stroke="#666666" points="359,-56 174,-56 174,-37 359,-37 359,-56"/>
<text text-anchor="middle" x="266.5" y="-44" font-family="Helvetica,sans-Serif" font-size="10.00">BasicBoundaryConditionsInterface</text>
</a>
</g>
</g>
<!-- Node0&#45;&gt;Node1 -->
<g id="edge231_Node000000_Node000001" class="edge">
<title>Node0&#45;&gt;Node1</title>
<g id="a_edge231_Node000000_Node000001"><a xlink:title=" ">
<path fill="none" stroke="#63b8ff" d="M148.27,-35.11C156.71,-35.93 165.34,-36.77 173.91,-37.6"/>
<polygon fill="#63b8ff" stroke="#63b8ff" points="148.39,-31.6 138.1,-34.12 147.72,-38.57 148.39,-31.6"/>
</a>
</g>
</g>
<!-- Node2 -->
<g id="Node000002" class="node">
<title>Node2</title>
<g id="a_Node000002"><a xlink:href="structNonlinearElasticElementInterface.html" target="_top" xlink:title="Set of functions declaring elements and setting operators for generic element interface.">
<polygon fill="white" stroke="#666666" points="356.5,-19 176.5,-19 176.5,0 356.5,0 356.5,-19"/>
<text text-anchor="middle" x="266.5" y="-7" font-family="Helvetica,sans-Serif" font-size="10.00">NonlinearElasticElementInterface</text>
</a>
</g>
</g>
<!-- Node0&#45;&gt;Node2 -->
<g id="edge232_Node000000_Node000002" class="edge">
<title>Node0&#45;&gt;Node2</title>
<g id="a_edge232_Node000000_Node000002"><a xlink:title=" ">
<path fill="none" stroke="#63b8ff" d="M148.07,-20.31C157.36,-19.46 166.89,-18.58 176.32,-17.71"/>
<polygon fill="#63b8ff" stroke="#63b8ff" points="147.74,-16.83 138.1,-21.23 148.38,-23.8 147.74,-16.83"/>
</a>
</g>
</g>
</g>
</svg>
