<?xml version="1.0" encoding="UTF-8" standalone="no"?>
<!DOCTYPE svg PUBLIC "-//W3C//DTD SVG 1.1//EN"
 "http://www.w3.org/Graphics/SVG/1.1/DTD/svg11.dtd">
<!-- Generated by graphviz version 12.1.0 (0)
 -->
<!-- Title: Graphical Class Hierarchy Pages: 1 -->
<svg width="557pt" height="168pt"
 viewBox="0.00 0.00 557.32 168.00" xmlns="http://www.w3.org/2000/svg" xmlns:xlink="http://www.w3.org/1999/xlink">
<g id="graph0" class="graph" transform="scale(1 1) rotate(0) translate(4 164)">
<title>Graphical Class Hierarchy</title>
<!-- Node0 -->
<g id="Node000000" class="node">
<title>Node0</title>
<g id="a_Node000000"><a xlink:title=" ">
<polygon fill="#e0e0e0" stroke="#999999" points="168.29,-94 0,-94 0,-56 168.29,-56 168.29,-94"/>
<text text-anchor="start" x="8" y="-82" font-family="Helvetica,sans-Serif" font-size="10.00">FormsIntegrators::template</text>
<text text-anchor="start" x="8" y="-72" font-family="Helvetica,sans-Serif" font-size="10.00"> Assembly::template BiLinearForm</text>
<text text-anchor="middle" x="84.14" y="-62" font-family="Helvetica,sans-Serif" font-size="10.00">::template OpMass</text>
</a>
</g>
</g>
<!-- Node1 -->
<g id="Node000001" class="node">
<title>Node1</title>
<g id="a_Node000001"><a xlink:href="struct_mo_f_e_m_1_1_op_essential_lhs_impl_3_01_displacement_cubit_bc_data_00_01_b_a_s_e___d_i_m_b48de48fed07890e43457df22706afa5.html" target="_top" xlink:title=" ">
<polygon fill="white" stroke="#666666" points="358.8,-160 213.32,-160 213.32,-112 358.8,-112 358.8,-160"/>
<text text-anchor="start" x="221.32" y="-148" font-family="Helvetica,sans-Serif" font-size="10.00">MoFEM::OpEssentialLhsImpl</text>
<text text-anchor="start" x="221.32" y="-138" font-family="Helvetica,sans-Serif" font-size="10.00">&lt; DisplacementCubitBcData,</text>
<text text-anchor="start" x="221.32" y="-128" font-family="Helvetica,sans-Serif" font-size="10.00"> BASE_DIM, FIELD_DIM, A,</text>
<text text-anchor="middle" x="286.06" y="-118" font-family="Helvetica,sans-Serif" font-size="10.00"> I, OpBase &gt;</text>
</a>
</g>
</g>
<!-- Node0&#45;&gt;Node1 -->
<g id="edge304_Node000000_Node000001" class="edge">
<title>Node0&#45;&gt;Node1</title>
<g id="a_edge304_Node000000_Node000001"><a xlink:title=" ">
<path fill="none" stroke="#63b8ff" d="M159.62,-97.72C177.02,-103.03 195.53,-108.68 212.83,-113.96"/>
<polygon fill="#63b8ff" stroke="#63b8ff" points="160.98,-94.48 150.39,-94.91 158.94,-101.18 160.98,-94.48"/>
</a>
</g>
</g>
<!-- Node3 -->
<g id="Node000003" class="node">
<title>Node3</title>
<g id="a_Node000003"><a xlink:href="struct_mo_f_e_m_1_1_op_essential_lhs_impl_3_01_m_p_cs_type_00_01_b_a_s_e___d_i_m_00_01_f_i_e_l_d97cd9a8ad8453ad67d298cdb336a098b.html" target="_top" xlink:title=" ">
<polygon fill="white" stroke="#666666" points="367.83,-94 204.29,-94 204.29,-56 367.83,-56 367.83,-94"/>
<text text-anchor="start" x="212.29" y="-82" font-family="Helvetica,sans-Serif" font-size="10.00">MoFEM::OpEssentialLhsImpl</text>
<text text-anchor="start" x="212.29" y="-72" font-family="Helvetica,sans-Serif" font-size="10.00">&lt; MPCsType, BASE_DIM, FIELD</text>
<text text-anchor="middle" x="286.06" y="-62" font-family="Helvetica,sans-Serif" font-size="10.00">_DIM, A, I, OpBase &gt;</text>
</a>
</g>
</g>
<!-- Node0&#45;&gt;Node3 -->
<g id="edge306_Node000000_Node000003" class="edge">
<title>Node0&#45;&gt;Node3</title>
<g id="a_edge306_Node000000_Node000003"><a xlink:title=" ">
<path fill="none" stroke="#63b8ff" d="M180.05,-75C188.06,-75 196.12,-75 204.01,-75"/>
<polygon fill="#63b8ff" stroke="#63b8ff" points="180.28,-71.5 170.28,-75 180.28,-78.5 180.28,-71.5"/>
</a>
</g>
</g>
<!-- Node4 -->
<g id="Node000004" class="node">
<title>Node4</title>
<g id="a_Node000004"><a xlink:href="struct_mo_f_e_m_1_1_op_essential_lhs_impl_3_01_temperature_cubit_bc_data_00_011_00_011_00_01_a_00_01_i_00_01_op_base_01_4.html" target="_top" xlink:title=" ">
<polygon fill="white" stroke="#666666" points="358.8,-38 213.32,-38 213.32,0 358.8,0 358.8,-38"/>
<text text-anchor="start" x="221.32" y="-26" font-family="Helvetica,sans-Serif" font-size="10.00">MoFEM::OpEssentialLhsImpl</text>
<text text-anchor="start" x="221.32" y="-16" font-family="Helvetica,sans-Serif" font-size="10.00">&lt; TemperatureCubitBcData,</text>
<text text-anchor="middle" x="286.06" y="-6" font-family="Helvetica,sans-Serif" font-size="10.00"> 1, 1, A, I, OpBase &gt;</text>
</a>
</g>
</g>
<!-- Node0&#45;&gt;Node4 -->
<g id="edge307_Node000000_Node000004" class="edge">
<title>Node0&#45;&gt;Node4</title>
<g id="a_edge307_Node000000_Node000004"><a xlink:title=" ">
<path fill="none" stroke="#63b8ff" d="M165.29,-52.55C181.91,-47.89 199.28,-43.03 215.48,-38.49"/>
<polygon fill="#63b8ff" stroke="#63b8ff" points="164.65,-49.1 155.96,-55.16 166.53,-55.84 164.65,-49.1"/>
</a>
</g>
</g>
<!-- Node2 -->
<g id="Node000002" class="node">
<title>Node2</title>
<g id="a_Node000002"><a xlink:href="struct_mo_f_e_m_1_1_op_essential_lhs_impl_3_01_heat_flux_cubit_bc_data_00_01_b_a_s_e___d_i_m_00_d6927d853b2247f072b15a2353474e43.html" target="_top" xlink:title=" ">
<polygon fill="white" stroke="#666666" points="549.32,-160 403.83,-160 403.83,-112 549.32,-112 549.32,-160"/>
<text text-anchor="start" x="411.83" y="-148" font-family="Helvetica,sans-Serif" font-size="10.00">MoFEM::OpEssentialLhsImpl</text>
<text text-anchor="start" x="411.83" y="-138" font-family="Helvetica,sans-Serif" font-size="10.00">&lt; HeatFluxCubitBcData,</text>
<text text-anchor="start" x="411.83" y="-128" font-family="Helvetica,sans-Serif" font-size="10.00"> BASE_DIM, FIELD_DIM, A,</text>
<text text-anchor="middle" x="476.58" y="-118" font-family="Helvetica,sans-Serif" font-size="10.00"> I, OpBase &gt;</text>
</a>
</g>
</g>
<!-- Node1&#45;&gt;Node2 -->
<g id="edge305_Node000001_Node000002" class="edge">
<title>Node1&#45;&gt;Node2</title>
<g id="a_edge305_Node000001_Node000002"><a xlink:title=" ">
<path fill="none" stroke="#63b8ff" d="M370.52,-136C381.53,-136 392.74,-136 403.54,-136"/>
<polygon fill="#63b8ff" stroke="#63b8ff" points="370.65,-132.5 360.65,-136 370.65,-139.5 370.65,-132.5"/>
</a>
</g>
</g>
</g>
</svg>
