<?xml version="1.0" encoding="UTF-8" standalone="no"?>
<!DOCTYPE svg PUBLIC "-//W3C//DTD SVG 1.1//EN"
 "http://www.w3.org/Graphics/SVG/1.1/DTD/svg11.dtd">
<!-- Generated by graphviz version 2.43.0 (0)
 -->
<!-- Title: Graphical Class Hierarchy Pages: 1 -->
<svg width="515pt" height="212pt"
 viewBox="0.00 0.00 515.00 212.00" xmlns="http://www.w3.org/2000/svg" xmlns:xlink="http://www.w3.org/1999/xlink">
<g id="graph0" class="graph" transform="scale(1 1) rotate(0) translate(4 208)">
<title>Graphical Class Hierarchy</title>
<!-- Node0 -->
<g id="Node000000" class="node">
<title>Node0</title>
<g id="a_Node000000"><a xlink:href="structMoFEM_1_1interface__RefEntity.html" target="_top" xlink:title=" ">
<polygon fill="white" stroke="#666666" points="152,-116.5 0,-116.5 0,-86.5 152,-86.5 152,-116.5"/>
<text text-anchor="start" x="8" y="-104.5" font-family="Helvetica,sans-Serif" font-size="10.00">MoFEM::interface_RefEntity</text>
<text text-anchor="middle" x="76" y="-93.5" font-family="Helvetica,sans-Serif" font-size="10.00">&lt; RefEntity &gt;</text>
</a>
</g>
</g>
<!-- Node1 -->
<g id="Node000001" class="node">
<title>Node1</title>
<g id="a_Node000001"><a xlink:href="structMoFEM_1_1RefElement.html" target="_top" xlink:title="keeps data about abstract refined finite element">
<polygon fill="white" stroke="#666666" points="304,-111 188,-111 188,-92 304,-92 304,-111"/>
<text text-anchor="middle" x="246" y="-99" font-family="Helvetica,sans-Serif" font-size="10.00">MoFEM::RefElement</text>
</a>
</g>
</g>
<!-- Node0&#45;&gt;Node1 -->
<g id="edge778_Node000000_Node000001" class="edge">
<title>Node0&#45;&gt;Node1</title>
<g id="a_edge778_Node000000_Node000001"><a xlink:title=" ">
<path fill="none" stroke="#63b8ff" d="M162.29,-101.5C170.93,-101.5 179.56,-101.5 187.8,-101.5"/>
<polygon fill="#63b8ff" stroke="#63b8ff" points="162.16,-98 152.16,-101.5 162.16,-105 162.16,-98"/>
</a>
</g>
</g>
<!-- Node2 -->
<g id="Node000002" class="node">
<title>Node2</title>
<g id="a_Node000002"><a xlink:href="structMoFEM_1_1RefElementFace.html" target="_top" xlink:title="keeps data about abstract TRI finite element">
<polygon fill="white" stroke="#666666" points="492,-204 355,-204 355,-185 492,-185 492,-204"/>
<text text-anchor="middle" x="423.5" y="-192" font-family="Helvetica,sans-Serif" font-size="10.00">MoFEM::RefElementFace</text>
</a>
</g>
</g>
<!-- Node1&#45;&gt;Node2 -->
<g id="edge779_Node000001_Node000002" class="edge">
<title>Node1&#45;&gt;Node2</title>
<g id="a_edge779_Node000001_Node000002"><a xlink:title=" ">
<path fill="none" stroke="#63b8ff" d="M263.1,-118.49C280.44,-135.75 309.66,-161.97 340,-176.5 347.14,-179.92 354.94,-182.7 362.8,-184.95"/>
<polygon fill="#63b8ff" stroke="#63b8ff" points="265.51,-115.94 256,-111.26 260.51,-120.84 265.51,-115.94"/>
</a>
</g>
</g>
<!-- Node3 -->
<g id="Node000003" class="node">
<title>Node3</title>
<g id="a_Node000003"><a xlink:href="structMoFEM_1_1RefElementVolume.html" target="_top" xlink:title="keeps data about abstract TET finite element">
<polygon fill="white" stroke="#666666" points="499.5,-167 347.5,-167 347.5,-148 499.5,-148 499.5,-167"/>
<text text-anchor="middle" x="423.5" y="-155" font-family="Helvetica,sans-Serif" font-size="10.00">MoFEM::RefElementVolume</text>
</a>
</g>
</g>
<!-- Node1&#45;&gt;Node3 -->
<g id="edge780_Node000001_Node000003" class="edge">
<title>Node1&#45;&gt;Node3</title>
<g id="a_edge780_Node000001_Node000003"><a xlink:title=" ">
<path fill="none" stroke="#63b8ff" d="M277.05,-115.33C295.03,-123.21 318.5,-132.82 340,-139.5 350.22,-142.68 361.32,-145.5 371.97,-147.93"/>
<polygon fill="#63b8ff" stroke="#63b8ff" points="278.23,-112.02 267.67,-111.16 275.39,-118.42 278.23,-112.02"/>
</a>
</g>
</g>
<!-- Node4 -->
<g id="Node000004" class="node">
<title>Node4</title>
<g id="a_Node000004"><a xlink:href="structMoFEM_1_1RefElement__EDGE.html" target="_top" xlink:title="keeps data about abstract EDGE finite element">
<polygon fill="white" stroke="#666666" points="497.5,-130 349.5,-130 349.5,-111 497.5,-111 497.5,-130"/>
<text text-anchor="middle" x="423.5" y="-118" font-family="Helvetica,sans-Serif" font-size="10.00">MoFEM::RefElement_EDGE</text>
</a>
</g>
</g>
<!-- Node1&#45;&gt;Node4 -->
<g id="edge781_Node000001_Node000004" class="edge">
<title>Node1&#45;&gt;Node4</title>
<g id="a_edge781_Node000001_Node000004"><a xlink:title=" ">
<path fill="none" stroke="#63b8ff" d="M314.69,-108.83C326,-110.05 337.78,-111.33 349.22,-112.57"/>
<polygon fill="#63b8ff" stroke="#63b8ff" points="314.78,-105.32 304.47,-107.72 314.03,-112.28 314.78,-105.32"/>
</a>
</g>
</g>
<!-- Node5 -->
<g id="Node000005" class="node">
<title>Node5</title>
<g id="a_Node000005"><a xlink:href="structMoFEM_1_1RefElement__MESHSET.html" target="_top" xlink:title="keeps data about abstract MESHSET finite element">
<polygon fill="white" stroke="#666666" points="507,-93 340,-93 340,-74 507,-74 507,-93"/>
<text text-anchor="middle" x="423.5" y="-81" font-family="Helvetica,sans-Serif" font-size="10.00">MoFEM::RefElement_MESHSET</text>
</a>
</g>
</g>
<!-- Node1&#45;&gt;Node5 -->
<g id="edge782_Node000001_Node000005" class="edge">
<title>Node1&#45;&gt;Node5</title>
<g id="a_edge782_Node000001_Node000005"><a xlink:title=" ">
<path fill="none" stroke="#63b8ff" d="M314.43,-94.58C322.72,-93.73 331.27,-92.86 339.76,-91.99"/>
<polygon fill="#63b8ff" stroke="#63b8ff" points="314.06,-91.1 304.47,-95.61 314.77,-98.07 314.06,-91.1"/>
</a>
</g>
</g>
<!-- Node6 -->
<g id="Node000006" class="node">
<title>Node6</title>
<g id="a_Node000006"><a xlink:href="structMoFEM_1_1RefElement__PRISM.html" target="_top" xlink:title="keeps data about abstract PRISM finite element">
<polygon fill="white" stroke="#666666" points="499.5,-56 347.5,-56 347.5,-37 499.5,-37 499.5,-56"/>
<text text-anchor="middle" x="423.5" y="-44" font-family="Helvetica,sans-Serif" font-size="10.00">MoFEM::RefElement_PRISM</text>
</a>
</g>
</g>
<!-- Node1&#45;&gt;Node6 -->
<g id="edge783_Node000001_Node000006" class="edge">
<title>Node1&#45;&gt;Node6</title>
<g id="a_edge783_Node000001_Node000006"><a xlink:title=" ">
<path fill="none" stroke="#63b8ff" d="M278.58,-87.98C296.39,-80.68 319.19,-71.89 340,-65.5 351.38,-62.01 363.82,-58.82 375.51,-56.1"/>
<polygon fill="#63b8ff" stroke="#63b8ff" points="277.13,-84.79 269.23,-91.86 279.81,-91.26 277.13,-84.79"/>
</a>
</g>
</g>
<!-- Node7 -->
<g id="Node000007" class="node">
<title>Node7</title>
<g id="a_Node000007"><a xlink:href="structMoFEM_1_1RefElement__VERTEX.html" target="_top" xlink:title="keeps data about abstract VERTEX finite element">
<polygon fill="white" stroke="#666666" points="502.5,-19 344.5,-19 344.5,0 502.5,0 502.5,-19"/>
<text text-anchor="middle" x="423.5" y="-7" font-family="Helvetica,sans-Serif" font-size="10.00">MoFEM::RefElement_VERTEX</text>
</a>
</g>
</g>
<!-- Node1&#45;&gt;Node7 -->
<g id="edge784_Node000001_Node000007" class="edge">
<title>Node1&#45;&gt;Node7</title>
<g id="a_edge784_Node000001_Node000007"><a xlink:title=" ">
<path fill="none" stroke="#63b8ff" d="M263.5,-84.78C280.98,-68.04 310.13,-42.78 340,-28.5 348.09,-24.63 357.01,-21.53 365.9,-19.05"/>
<polygon fill="#63b8ff" stroke="#63b8ff" points="261.03,-82.31 256.33,-91.8 265.93,-87.31 261.03,-82.31"/>
</a>
</g>
</g>
</g>
</svg>
