<?xml version="1.0" encoding="UTF-8" standalone="no"?>
<!DOCTYPE svg PUBLIC "-//W3C//DTD SVG 1.1//EN"
 "http://www.w3.org/Graphics/SVG/1.1/DTD/svg11.dtd">
<!-- Generated by graphviz version 10.0.1 (20240210.2158)
 -->
<!-- Title: Graphical Class Hierarchy Pages: 1 -->
<svg width="335pt" height="101pt"
 viewBox="0.00 0.00 334.75 101.25" xmlns="http://www.w3.org/2000/svg" xmlns:xlink="http://www.w3.org/1999/xlink">
<g id="graph0" class="graph" transform="scale(1 1) rotate(0) translate(4 97.25)">
<title>Graphical Class Hierarchy</title>
<!-- Node0 -->
<g id="Node000000" class="node">
<title>Node0</title>
<g id="a_Node000000"><a xlink:href="struct_generic_element_interface.html" target="_top" xlink:title="Set of functions declaring elements and setting operators for generic element interface.">
<polygon fill="white" stroke="#666666" points="124,-56.25 0,-56.25 0,-37 124,-37 124,-56.25"/>
<text text-anchor="middle" x="62" y="-42.75" font-family="Helvetica,sans-Serif" font-size="10.00">GenericElementInterface</text>
</a>
</g>
</g>
<!-- Node1 -->
<g id="Node000001" class="node">
<title>Node1</title>
<g id="a_Node000001"><a xlink:href="struct_basic_boundary_conditions_interface.html" target="_top" xlink:title="Set of functions declaring elements and setting operators for basic boundary conditions interface.">
<polygon fill="white" stroke="#666666" points="326.75,-93.25 160,-93.25 160,-74 326.75,-74 326.75,-93.25"/>
<text text-anchor="middle" x="243.38" y="-79.75" font-family="Helvetica,sans-Serif" font-size="10.00">BasicBoundaryConditionsInterface</text>
</a>
</g>
</g>
<!-- Node0&#45;&gt;Node1 -->
<g id="edge960_Node000000_Node000001" class="edge">
<title>Node0&#45;&gt;Node1</title>
<g id="a_edge960_Node000000_Node000001"><a xlink:title=" ">
<path fill="none" stroke="#63b8ff" d="M122.99,-59C145.88,-63.72 171.68,-69.04 193.42,-73.53"/>
<polygon fill="#63b8ff" stroke="#63b8ff" points="124,-55.63 113.5,-57.04 122.58,-62.49 124,-55.63"/>
</a>
</g>
</g>
<!-- Node2 -->
<g id="Node000002" class="node">
<title>Node2</title>
<g id="a_Node000002"><a xlink:href="struct_mortar_contact_interface.html" target="_top" xlink:title=" ">
<polygon fill="white" stroke="#666666" points="301.62,-56.25 185.12,-56.25 185.12,-37 301.62,-37 301.62,-56.25"/>
<text text-anchor="middle" x="243.38" y="-42.75" font-family="Helvetica,sans-Serif" font-size="10.00">MortarContactInterface</text>
</a>
</g>
</g>
<!-- Node0&#45;&gt;Node2 -->
<g id="edge961_Node000000_Node000002" class="edge">
<title>Node0&#45;&gt;Node2</title>
<g id="a_edge961_Node000000_Node000002"><a xlink:title=" ">
<path fill="none" stroke="#63b8ff" d="M135.67,-46.62C152.06,-46.62 169.24,-46.62 184.9,-46.62"/>
<polygon fill="#63b8ff" stroke="#63b8ff" points="135.99,-43.13 125.99,-46.63 135.99,-50.13 135.99,-43.13"/>
</a>
</g>
</g>
<!-- Node3 -->
<g id="Node000003" class="node">
<title>Node3</title>
<g id="a_Node000003"><a xlink:href="struct_nonlinear_elastic_element_interface.html" target="_top" xlink:title="Set of functions declaring elements and setting operators for generic element interface.">
<polygon fill="white" stroke="#666666" points="324.12,-19.25 162.62,-19.25 162.62,0 324.12,0 324.12,-19.25"/>
<text text-anchor="middle" x="243.38" y="-5.75" font-family="Helvetica,sans-Serif" font-size="10.00">NonlinearElasticElementInterface</text>
</a>
</g>
</g>
<!-- Node0&#45;&gt;Node3 -->
<g id="edge962_Node000000_Node000003" class="edge">
<title>Node0&#45;&gt;Node3</title>
<g id="a_edge962_Node000000_Node000003"><a xlink:title=" ">
<path fill="none" stroke="#63b8ff" d="M122.99,-34.25C145.88,-29.53 171.68,-24.21 193.42,-19.72"/>
<polygon fill="#63b8ff" stroke="#63b8ff" points="122.58,-30.76 113.5,-36.21 124,-37.62 122.58,-30.76"/>
</a>
</g>
</g>
</g>
</svg>
