<?xml version="1.0" encoding="UTF-8" standalone="no"?>
<!DOCTYPE svg PUBLIC "-//W3C//DTD SVG 1.1//EN"
 "http://www.w3.org/Graphics/SVG/1.1/DTD/svg11.dtd">
<!-- Generated by graphviz version 12.1.0 (0)
 -->
<!-- Title: Graphical Class Hierarchy Pages: 1 -->
<svg width="288pt" height="72pt"
 viewBox="0.00 0.00 287.77 72.00" xmlns="http://www.w3.org/2000/svg" xmlns:xlink="http://www.w3.org/1999/xlink">
<g id="graph0" class="graph" transform="scale(1 1) rotate(0) translate(4 68)">
<title>Graphical Class Hierarchy</title>
<!-- Node0 -->
<g id="Node000000" class="node">
<title>Node0</title>
<g id="a_Node000000"><a xlink:href="class_face_side_op.html" target="_top" xlink:title=" ">
<polygon fill="white" stroke="#666666" points="71.59,-43 0,-43 0,-25 71.59,-25 71.59,-43"/>
<text text-anchor="middle" x="35.79" y="-31" font-family="Helvetica,sans-Serif" font-size="10.00">FaceSideOp</text>
</a>
</g>
</g>
<!-- Node1 -->
<g id="Node000001" class="node">
<title>Node1</title>
<g id="a_Node000001"><a xlink:href="struct_op_calculate_side_data.html" target="_top" xlink:title="Operator tp collect data from elements on the side of Edge/Face.">
<polygon fill="white" stroke="#666666" points="249.76,-64 137.59,-64 137.59,-46 249.76,-46 249.76,-64"/>
<text text-anchor="middle" x="193.68" y="-52" font-family="Helvetica,sans-Serif" font-size="10.00">OpCalculateSideData</text>
</a>
</g>
</g>
<!-- Node0&#45;&gt;Node1 -->
<g id="edge221_Node000000_Node000001" class="edge">
<title>Node0&#45;&gt;Node1</title>
<g id="a_edge221_Node000000_Node000001"><a xlink:title=" ">
<path fill="none" stroke="#63b8ff" d="M83.12,-40.24C100.14,-42.53 119.58,-45.15 137.31,-47.54"/>
<polygon fill="#63b8ff" stroke="#63b8ff" points="83.65,-36.78 73.28,-38.91 82.72,-43.72 83.65,-36.78"/>
</a>
</g>
</g>
<!-- Node2 -->
<g id="Node000002" class="node">
<title>Node2</title>
<g id="a_Node000002"><a xlink:href="struct_poisson2_discont_galerkin_operators_1_1_op_calculate_side_data.html" target="_top" xlink:title="Operator tp collect data from elements on the side of Edge/Face.">
<polygon fill="white" stroke="#666666" points="279.77,-28 107.59,-28 107.59,0 279.77,0 279.77,-28"/>
<text text-anchor="start" x="115.59" y="-16" font-family="Helvetica,sans-Serif" font-size="10.00">Poisson2DiscontGalerkinOperators</text>
<text text-anchor="middle" x="193.68" y="-6" font-family="Helvetica,sans-Serif" font-size="10.00">::OpCalculateSideData</text>
</a>
</g>
</g>
<!-- Node0&#45;&gt;Node2 -->
<g id="edge222_Node000000_Node000002" class="edge">
<title>Node0&#45;&gt;Node2</title>
<g id="a_edge222_Node000000_Node000002"><a xlink:title=" ">
<path fill="none" stroke="#63b8ff" d="M83.02,-28.07C90.72,-27.08 98.91,-26.03 107.21,-24.96"/>
<polygon fill="#63b8ff" stroke="#63b8ff" points="82.75,-24.57 73.28,-29.32 83.64,-31.52 82.75,-24.57"/>
</a>
</g>
</g>
</g>
</svg>
